<?xml version="1.0" encoding="UTF-8" standalone="no"?>
<!-- Created with Inkscape (http://www.inkscape.org/) -->

<svg
   version="1.1"
   id="svg1"
   width="211.39288"
   height="182.55469"
   viewBox="0 0 211.39288 182.55469"
   sodipodi:docname="6.1-area-vertical.svg"
   inkscape:version="1.4.2 (f4327f4, 2025-05-13)"
   xmlns:inkscape="http://www.inkscape.org/namespaces/inkscape"
   xmlns:sodipodi="http://sodipodi.sourceforge.net/DTD/sodipodi-0.dtd"
   xmlns="http://www.w3.org/2000/svg"
   xmlns:svg="http://www.w3.org/2000/svg">
  <defs
     id="defs1" />
  <sodipodi:namedview
     id="namedview1"
     pagecolor="#ffffff"
     bordercolor="#000000"
     borderopacity="0.25"
     inkscape:showpageshadow="2"
     inkscape:pageopacity="0.0"
     inkscape:pagecheckerboard="0"
     inkscape:deskcolor="#d1d1d1"
     inkscape:zoom="2.2241536"
     inkscape:cx="203.89779"
     inkscape:cy="109.92946"
     inkscape:window-width="1920"
     inkscape:window-height="1009"
     inkscape:window-x="-8"
     inkscape:window-y="-8"
     inkscape:window-maximized="1"
     inkscape:current-layer="g1">
    <inkscape:page
       x="0"
       y="0"
       inkscape:label="7"
       id="page1"
       width="211.39288"
       height="182.55469"
       margin="0"
       bleed="0" />
  </sodipodi:namedview>
  <g
     id="g1"
     inkscape:groupmode="layer"
     inkscape:label="7"
     transform="translate(-38.060242,-71.710937)">
    <path
       id="path2"
       d="M -15.59082,0 H 139.85919"
       style="fill:none;stroke:#000000;stroke-width:0.3985;stroke-linecap:butt;stroke-linejoin:miter;stroke-miterlimit:10;stroke-dasharray:none;stroke-opacity:1"
       transform="matrix(1.3333333,0,0,-1.3333333,58.848,242.732)" />
    <path
       id="path3"
       d="M -1.19551,1.59401 C -1.09587,0.99626 0,0.09961 0.29886,0 0,-0.09961 -1.09587,-0.99626 -1.19551,-1.59401"
       style="fill:none;stroke:#000000;stroke-width:0.31879;stroke-linecap:round;stroke-linejoin:round;stroke-miterlimit:10;stroke-dasharray:none;stroke-opacity:1"
       transform="matrix(1.3333333,0,0,-1.3333333,245.32692,242.732)" />
    <path
       id="path4"
       d="M 3.6454688,-3.2919375 C 3.7157813,-3.5731875 3.961875,-4.581 4.7235938,-4.581 c 0.058594,0 0.3164062,0 0.5507812,0.140625 -0.3046875,0.058594 -0.5273437,0.328125 -0.5273437,0.5859375 0,0.1757813 0.1171875,0.3867188 0.4101562,0.3867188 0.2460938,0 0.5976563,-0.1992188 0.5976563,-0.6328125 0,-0.5625 -0.6445313,-0.7265625 -1.0195313,-0.7265625 -0.6328125,0 -1.0195312,0.5859375 -1.1484375,0.8320312 C 3.3173438,-4.7099062 2.7314063,-4.8270937 2.415,-4.8270937 c -1.1367187,0 -1.7578125,1.4179687 -1.7578125,1.6875 0,0.1054687 0.10546875,0.1054687 0.12890625,0.1054687 0.0820313,0 0.1171875,-0.023437 0.140625,-0.1171875 C 1.3017188,-4.3114687 2.0165625,-4.581 2.3915625,-4.581 2.6025,-4.581 2.9775,-4.48725 2.9775,-3.8544375 c 0,0.3398438 -0.1875,1.078125 -0.5859375,2.6015625 -0.1757812,0.6796875 -0.5625,1.13671875 -1.0429687,1.13671875 -0.058594,0 -0.3164063,0 -0.53906255,-0.140625 C 1.0790625,-0.315375 1.3251563,-0.54975 1.3251563,-0.8544375 c 0,-0.2929687 -0.2460938,-0.375 -0.4101563,-0.375 -0.328125,0 -0.59765625,0.28125 -0.59765625,0.6328125 0,0.50390625 0.55078125,0.71484375 1.03125005,0.71484375 0.7148437,0 1.1015625,-0.76171875 1.1367187,-0.83203125 0.1289063,0.41015625 0.5273438,0.83203125 1.1835938,0.83203125 1.125,0 1.7460937,-1.40624995 1.7460937,-1.67578125 0,-0.1054687 -0.1054687,-0.1054687 -0.1289062,-0.1054687 -0.1054688,0 -0.1289063,0.035156 -0.140625,0.1171875 -0.3632813,1.1601562 -1.1132813,1.42968745 -1.453125,1.42968745 -0.4335938,0 -0.609375,-0.3515625 -0.609375,-0.7265625 0,-0.23437495 0.070312,-0.48046875 0.1875,-0.96093745 z m 0,0"
       style="fill:#000000;fill-opacity:1;fill-rule:nonzero;stroke:none"
       aria-label="x"
       transform="matrix(1.3333333,0,0,1.3333333,241.78,254.108)" />
    <path
       id="path5"
       d="M 0,-7.7954 V 124.26837"
       style="fill:none;stroke:#000000;stroke-width:0.3985;stroke-linecap:butt;stroke-linejoin:miter;stroke-miterlimit:10;stroke-dasharray:none;stroke-opacity:1"
       transform="matrix(1.3333333,0,0,-1.3333333,58.848,242.732)" />
    <path
       id="path6"
       d="M -1.19551,1.59401 C -1.09587,0.99626 0,0.09961 0.29886,0 0,-0.09961 -1.09587,-0.99626 -1.19551,-1.59401"
       style="fill:none;stroke:#000000;stroke-width:0.31879;stroke-linecap:round;stroke-linejoin:round;stroke-miterlimit:10;stroke-dasharray:none;stroke-opacity:1"
       transform="matrix(0,-1.3333333,-1.3333333,0,58.848,77.04084)" />
    <path
       id="path7"
       d="m 5.2973984,-4.1608281 c 0.046875,-0.1523438 0.046875,-0.1757813 0.046875,-0.2460938 0,-0.1992187 -0.1523437,-0.2929687 -0.3164062,-0.2929687 -0.1054688,0 -0.28125,0.058594 -0.375,0.2226562 -0.023437,0.058594 -0.1171875,0.3984375 -0.1523438,0.5976563 -0.082031,0.28125 -0.1523437,0.5742187 -0.2226562,0.8671875 l -0.4921875,1.96875 c -0.046875,0.16406248 -0.515625,0.92578123 -1.2304688,0.92578123 -0.5625,0 -0.6796875,-0.48046875 -0.6796875,-0.89062503 0,-0.4921875 0.1875,-1.171875 0.5625,-2.1328125 0.1757813,-0.4453125 0.2109375,-0.5742187 0.2109375,-0.7851562 0,-0.4921875 -0.3515625,-0.9023438 -0.890625,-0.9023438 -1.04296871,0 -1.44140621,1.5820313 -1.44140621,1.6875 0,0.1054688 0.10546875,0.1054688 0.12890625,0.1054688 0.10546875,0 0.1171875,-0.023437 0.17578125,-0.1992188 0.29296875,-1.0195312 0.72656251,-1.3476562 1.10156251,-1.3476562 0.09375,0 0.2695312,0 0.2695312,0.3515625 0,0.2695312 -0.1054687,0.5507812 -0.1757812,0.7617187 -0.4453125,1.1601563 -0.6328125,1.78125 -0.6328125,2.2851563 0,0.97265623 0.6796875,1.30078123 1.3242187,1.30078123 0.421875,0 0.796875,-0.1875 1.1015625,-0.4921875 -0.140625,0.57421875 -0.2695312,1.1015625 -0.703125,1.68749997 -0.2929687,0.3632813 -0.703125,0.6796875 -1.2070312,0.6796875 -0.1523438,0 -0.6445313,-0.023437 -0.83203126,-0.4570312 0.17578126,0 0.31640626,0 0.48046876,-0.1289063 0.1054687,-0.09375 0.2109375,-0.234375 0.2109375,-0.44531247 0,-0.33984375 -0.2929688,-0.38671875 -0.3984375,-0.38671875 -0.25781251,0 -0.60937501,0.17578125 -0.60937501,0.71484372 0,0.5390625 0.48046871,0.9492188 1.14843751,0.9492188 1.125,0 2.25,-0.9960938 2.5546875,-2.22656252 z m 0,0"
       style="fill:#000000;fill-opacity:1;fill-rule:nonzero;stroke:none"
       aria-label="y"
       transform="matrix(1.3333333,0,0,1.3333333,46.081333,78.149333)" />
    <path
       id="path8"
       d="m 18.06305,15.59082 c 0,0 -0.15105,0.28293 -0.20746,0.39157 -0.05639,0.10866 -0.14508,0.28293 -0.19911,0.39157 -0.05403,0.10868 -0.13868,0.28293 -0.19032,0.39159 -0.05167,0.10865 -0.13279,0.28291 -0.182,0.39159 -0.04922,0.10866 -0.12591,0.28291 -0.17271,0.39158 -0.0468,0.10864 -0.12033,0.28291 -0.16463,0.39157 -0.04428,0.10864 -0.11284,0.28291 -0.15463,0.39157 -0.04178,0.10866 -0.10724,0.28293 -0.14654,0.39159 -0.03931,0.10864 -0.1001,0.28291 -0.1368,0.39157 -0.0367,0.10866 -0.09358,0.28293 -0.12773,0.39158 -0.03417,0.10866 -0.08696,0.28294 -0.11849,0.39158 -0.03152,0.10866 -0.07974,0.28292 -0.10871,0.39157 -0.029,0.10867 -0.07389,0.28293 -0.10015,0.39159 -0.02627,0.10866 -0.06566,0.28292 -0.08922,0.39156 -0.02357,0.10868 -0.0597,0.28293 -0.08065,0.39161 -0.02095,0.10864 -0.0522,0.28291 -0.07041,0.39157 -0.01823,0.10864 -0.04533,0.28291 -0.06089,0.39157 -0.0156,0.10866 -0.03856,0.28291 -0.0514,0.39159 -0.01283,0.10864 -0.03096,0.28292 -0.04117,0.39156 -0.01017,0.10867 -0.02488,0.28294 -0.03234,0.3916 -0.0074,0.10864 -0.01669,0.28292 -0.02141,0.39156 -0.0047,0.10866 -0.01061,0.28294 -0.01262,0.39158 -0.002,0.10867 -0.0027,0.28292 -0.0019,0.39158 7.7e-4,0.10866 0.0041,0.28293 0.0076,0.39158 0.0035,0.10867 0.01135,0.28292 0.01761,0.3916 0.0062,0.10864 0.01843,0.28291 0.02734,0.39157 0.0089,0.10864 0.02527,0.28289 0.03688,0.39157 0.01162,0.10866 0.03258,0.28291 0.04688,0.39158 0.01428,0.10866 0.03908,0.28293 0.05614,0.39158 0.01705,0.10865 0.04707,0.28292 0.06684,0.39158 0.01978,0.10864 0.05324,0.28293 0.07566,0.39157 0.0224,0.10866 0.06079,0.28291 0.08587,0.39157 0.02509,0.10868 0.06723,0.28293 0.09493,0.39159 0.02769,0.10867 0.07431,0.28293 0.10467,0.39157 0.03037,0.10867 0.08129,0.28293 0.11419,0.3916 0.03289,0.10864 0.08741,0.28292 0.123,0.39157 0.03556,0.10865 0.09533,0.2829 0.13345,0.39157 0.03812,0.10866 0.10066,0.28292 0.14131,0.39159 0.04067,0.10866 0.10858,0.28293 0.15178,0.39157 0.04321,0.10866 0.11398,0.28293 0.15962,0.39159 0.04565,0.10864 0.12122,0.28291 0.16939,0.39157 0.04819,0.10867 0.12743,0.28293 0.17795,0.39158 0.05054,0.10868 0.13335,0.28293 0.18629,0.39158 0.05294,0.10865 0.14,0.28292 0.1953,0.39157 0.05528,0.10867 0.14551,0.28293 0.20317,0.3916 0.05765,0.10864 0.15247,0.2829 0.21243,0.39157 0.05997,0.10866 0.15762,0.28291 0.21982,0.39159 0.06218,0.10865 0.16396,0.28291 0.22838,0.39157 0.06442,0.10864 0.16936,0.28293 0.23599,0.39157 0.06664,0.10866 0.17554,0.28293 0.24433,0.39158 0.06878,0.10866 0.18066,0.28293 0.25146,0.39159 0.0708,0.10864 0.18598,0.28293 0.25884,0.39157 0.07283,0.10866 0.19137,0.28293 0.26619,0.39157 0.07483,0.10868 0.19624,0.28293 0.27313,0.39159 0.07686,0.10866 0.20215,0.28291 0.28094,0.39157 0.07877,0.10867 0.20634,0.28293 0.2869,0.3916 0.08057,0.10864 0.21142,0.28291 0.29381,0.39157 0.08238,0.10864 0.21589,0.28292 0.29998,0.39157 0.0841,0.10866 0.22033,0.28293 0.30617,0.39159 0.08586,0.10864 0.2251,0.28291 0.31259,0.39157 0.08751,0.10866 0.22899,0.28293 0.31809,0.39159 0.08908,0.10864 0.2334,0.28293 0.324,0.39157 0.09061,0.10866 0.23696,0.28293 0.32903,0.39157 0.09204,0.10867 0.24097,0.28293 0.33449,0.39159 0.0935,0.10865 0.24458,0.28292 0.33948,0.39157 0.09487,0.10867 0.24824,0.28292 0.34445,0.3916 0.09622,0.10864 0.25165,0.28291 0.34901,0.39157 0.09737,0.10864 0.2542,0.28291 0.35278,0.39157 0.09861,0.10866 0.25809,0.28291 0.35782,0.39159 0.0997,0.10864 0.26015,0.28292 0.36089,0.39157 0.10074,0.10866 0.26345,0.28293 0.36517,0.39158 0.10172,0.10865 0.26534,0.28293 0.36803,0.39157 0.10267,0.10866 0.26849,0.28293 0.37207,0.39158 0.10356,0.10867 0.27014,0.28292 0.37445,0.39158 0.10429,0.10866 0.27223,0.28293 0.3773,0.39157 0.10506,0.10868 0.27423,0.28293 0.37992,0.3916 0.10569,0.10865 0.27554,0.28292 0.38181,0.39158 0.10628,0.10864 0.27738,0.28289 0.38422,0.39157 0.10685,0.10865 0.27857,0.28291 0.38587,0.39158 0.1073,0.10866 0.27981,0.28293 0.38753,0.39157 0.10774,0.10866 0.28094,0.28293 0.38896,0.39159 0.10804,0.10864 0.28145,0.28293 0.38968,0.39157 0.10823,0.10866 0.28194,0.28291 0.39039,0.39157 0.10846,0.10868 0.28275,0.28293 0.39133,0.39159 0.10861,0.10867 0.28276,0.28293 0.39134,0.39157 0.10861,0.10867 0.28276,0.28293 0.39136,0.3916 0.1086,0.10864 0.28276,0.28291 0.39134,0.39157 0.10855,0.10865 0.28272,0.2829 0.3911,0.39157 0.10838,0.10866 0.28203,0.28292 0.39014,0.39159 0.10814,0.10866 0.28135,0.28293 0.3892,0.39157 0.10788,0.10866 0.28072,0.28293 0.38826,0.39159 0.10753,0.10864 0.27974,0.28291 0.38681,0.39157 0.10707,0.10867 0.27834,0.28293 0.38492,0.39158 0.10658,0.10868 0.27721,0.28293 0.38325,0.39158 0.10605,0.10865 0.2757,0.28292 0.38112,0.39157 0.10543,0.10867 0.27401,0.28293 0.37873,0.3916 0.10473,0.10864 0.27214,0.2829 0.37613,0.39157 0.10395,0.10866 0.27014,0.28291 0.37326,0.39159 0.1031,0.10865 0.26766,0.28291 0.36992,0.39157 0.10226,0.10864 0.26579,0.28293 0.36708,0.39157 0.10128,0.10866 0.26275,0.28293 0.36303,0.39158 0.10028,0.10866 0.26047,0.28293 0.3597,0.39159 0.09921,0.10864 0.25735,0.28293 0.35541,0.39157 0.09806,0.10866 0.25457,0.28293 0.35138,0.39157 0.0968,0.10866 0.25082,0.28293 0.34637,0.39157 0.09557,0.10868 0.24807,0.28293 0.34233,0.39159 0.09427,0.10867 0.24426,0.28293 0.33711,0.3916 0.09284,0.10864 0.24068,0.28291 0.3321,0.39157 0.09143,0.10864 0.23696,0.28292 0.32687,0.39157 0.0899,0.10866 0.2328,0.28292 0.32118,0.39159 0.08835,0.10864 0.22898,0.28291 0.31566,0.39157 0.08672,0.10866 0.22422,0.28293 0.3093,0.39159 0.08505,0.10864 0.22041,0.28293 0.30377,0.39157 0.08339,0.10866 0.21562,0.28293 0.29713,0.39157 0.08153,0.10867 0.21077,0.28293 0.29047,0.39159 0.07973,0.10865 0.20621,0.28292 0.28407,0.39157 0.07785,0.10867 0.20119,0.28293 0.27715,0.3916 0.07593,0.10864 0.19632,0.28291 0.27025,0.39157 0.07394,0.10864 0.19068,0.28291 0.26263,0.39157 0.07196,0.10866 0.18611,0.28291 0.25598,0.39159 0.06987,0.10864 0.1799,0.28292 0.24765,0.39157 0.06775,0.10865 0.17512,0.28293 0.24075,0.39158 0.06562,0.10865 0.16883,0.28293 0.23218,0.39157 0.06339,0.10866 0.16342,0.28293 0.22458,0.39158 0.06117,0.10867 0.15741,0.28292 0.21625,0.39158 0.05885,0.10866 0.15132,0.28293 0.20793,0.39157 0.05659,0.10867 0.14584,0.28293 0.20007,0.3916 0.05423,0.10865 0.13895,0.28292 0.1908,0.39157 0.05185,0.10865 0.1335,0.2829 0.18294,0.39158 0.04944,0.10865 0.12646,0.28291 0.17342,0.39158 0.04697,0.10866 0.12058,0.28293 0.16511,0.39157 0.04452,0.10866 0.11384,0.28293 0.15582,0.39159 0.04198,0.10864 0.10727,0.28293 0.14677,0.39157 0.03951,0.10866 0.10106,0.28291 0.13799,0.39157 0.03694,0.10868 0.09384,0.28293 0.12822,0.39159 0.03439,0.10867 0.08792,0.28293 0.11966,0.39157 0.03174,0.10868 0.08006,0.28293 0.10919,0.3916 0.02914,0.10864 0.07437,0.2829 0.10088,0.39158 0.0265,0.10865 0.06636,0.2829 0.09018,0.39158 0.02378,0.10866 0.06012,0.28291 0.08134,0.39157 0.02123,0.10865 0.05318,0.28293 0.07161,0.39157 0.01845,0.10866 0.04558,0.28293 0.06139,0.39158 0.01579,0.10865 0.03949,0.28292 0.05256,0.39158 0.01308,0.10866 0.03128,0.28292 0.04163,0.39158 0.01038,0.10868 0.02539,0.28294 0.03308,0.39158 0.0077,0.10866 0.01744,0.28292 0.02235,0.39156 0.0049,0.10868 0.01085,0.28294 0.01308,0.3916 0.0023,0.10865 0.0036,0.2829 0.0031,0.39158 -5.3e-4,0.10866 -0.0037,0.28292 -0.0069,0.39159 -0.0033,0.10865 -0.01065,0.28291 -0.01666,0.39157 -0.006,0.10864 -0.01798,0.28291 -0.02663,0.39157 -0.0087,0.10866 -0.02427,0.28293 -0.03567,0.39159 -0.01143,0.10865 -0.03252,0.28292 -0.04665,0.39158 -0.01413,0.10864 -0.03844,0.28293 -0.05517,0.39157 -0.01678,0.10866 -0.04613,0.28293 -0.06568,0.39157 -0.01954,0.10866 -0.05296,0.28293 -0.07518,0.39158 -0.0222,0.10867 -0.06004,0.28292 -0.08493,0.39158 -0.02487,0.10867 -0.06699,0.28293 -0.09444,0.3916 -0.02745,0.10864 -0.07335,0.28292 -0.10348,0.39157 -0.03012,0.10865 -0.08101,0.28292 -0.11372,0.39157 -0.0327,0.10865 -0.08672,0.28292 -0.12205,0.39159 -0.0353,0.10864 -0.09455,0.28291 -0.1325,0.39157 -0.03795,0.10866 -0.10062,0.28293 -0.14107,0.39159 -0.04046,0.10864 -0.10759,0.28293 -0.15059,0.39157 -0.04301,0.10866 -0.11394,0.28293 -0.15939,0.39157 -0.04545,0.10867 -0.12027,0.28293 -0.1682,0.39159 -0.04793,0.10865 -0.12694,0.28292 -0.17721,0.39157 -0.05031,0.10867 -0.13257,0.28293 -0.18534,0.3916 -0.05278,0.10864 -0.13994,0.28291 -0.19507,0.39157 -0.05516,0.10864 -0.14498,0.28291 -0.20246,0.39157 -0.05747,0.10866 -0.15195,0.28291 -0.21172,0.39159 -0.05977,0.10864 -0.15712,0.28292 -0.2191,0.39157 -0.06198,0.10866 -0.16341,0.28293 -0.22766,0.39158 -0.06429,0.10865 -0.16916,0.28293 -0.23554,0.39157 -0.06639,0.10866 -0.1743,0.28293 -0.24289,0.39158 -0.06857,0.10867 -0.18078,0.28292 -0.25146,0.39158 -0.07065,0.10866 -0.1852,0.28293 -0.25787,0.39157 -0.07268,0.10868 -0.19129,0.28293 -0.26597,0.3916 -0.07469,0.10865 -0.19572,0.28292 -0.2724,0.39158 -0.07667,0.10864 -0.20161,0.28289 -0.28024,0.39157 -0.07862,0.10865 -0.20604,0.28291 -0.28642,0.39158 -0.0804,0.10866 -0.21085,0.28293 -0.29309,0.39157 -0.08226,0.10866 -0.21575,0.28293 -0.29976,0.39159 -0.084,0.10864 -0.21997,0.28293 -0.3057,0.39157 -0.08572,0.10864 -0.22479,0.28291 -0.31211,0.39157 -0.08733,0.10868 -0.2284,0.28293 -0.31737,0.39159 -0.08894,0.10867 -0.23331,0.28293 -0.32376,0.39157 -0.09047,0.10867 -0.23638,0.28293 -0.32831,0.39159 -0.0919,0.10865 -0.2408,0.28291 -0.33424,0.39158 -0.09343,0.10866 -0.24448,0.28292 -0.33924,0.39159 -0.09477,0.10866 -0.24771,0.28291 -0.34376,0.39157 -0.09604,0.10864 -0.25121,0.28291 -0.34851,0.39157 -0.09732,0.10866 -0.25432,0.28293 -0.35282,0.39159 -0.09849,0.10864 -0.25746,0.28291 -0.35708,0.39157 -0.09961,0.10866 -0.26023,0.28293 -0.36089,0.39158 -0.10068,0.10868 -0.26303,0.28293 -0.3647,0.39158 -0.10166,0.10865 -0.26544,0.28292 -0.36803,0.39157 -0.10258,0.10867 -0.26786,0.28293 -0.37135,0.39158 -0.10347,0.10866 -0.37445,0.39159 -0.37445,0.39159 l 45.50641,0.02997 c 0,0 0.33926,-0.28292 0.46864,-0.39157 0.1294,-0.10866 0.33574,-0.28295 0.4639,-0.39159 0.12817,-0.10864 0.33279,-0.28293 0.45987,-0.39157 0.12707,-0.10864 0.33006,-0.28293 0.45604,-0.39157 0.12599,-0.10867 0.32706,-0.28293 0.45201,-0.39159 0.12497,-0.10867 0.3248,-0.28293 0.44868,-0.39158 0.12386,-0.10866 0.32145,-0.28293 0.44416,-0.39158 0.12271,-0.10865 0.31871,-0.28292 0.44034,-0.39158 0.12162,-0.10864 0.31576,-0.28291 0.4363,-0.39157 0.12055,-0.10866 0.31298,-0.28292 0.4325,-0.39159 0.11951,-0.10866 0.3105,-0.28291 0.42892,-0.39158 0.11843,-0.10865 0.3074,-0.28293 0.42466,-0.39158 0.11726,-0.10864 0.30446,-0.28291 0.42059,-0.39157 0.11617,-0.10865 0.3015,-0.28293 0.41656,-0.39158 0.11507,-0.10867 0.29868,-0.28293 0.41276,-0.39157 0.11407,-0.10868 0.29643,-0.28293 0.40942,-0.39159 0.11298,-0.10866 0.29311,-0.28293 0.40491,-0.39157 0.11178,-0.10866 0.29014,-0.28292 0.40084,-0.39159 0.11071,-0.10865 0.28745,-0.28291 0.39706,-0.39158 0.10961,-0.10867 0.2844,-0.28292 0.393,-0.39157 0.10858,-0.10866 0.28218,-0.28292 0.38966,-0.39159 0.10752,-0.10864 0.27883,-0.28293 0.38516,-0.39157 0.10636,-0.10864 0.2761,-0.28292 0.38137,-0.39157 0.10525,-0.10866 0.27313,-0.28293 0.37729,-0.39159 0.10418,-0.10868 0.27037,-0.28293 0.37352,-0.39157 0.10313,-0.10867 0.2679,-0.28293 0.36992,-0.39159 0.10202,-0.10866 0.26452,-0.28291 0.36541,-0.39157 0.10087,-0.10867 0.26178,-0.28293 0.36159,-0.3916 0.09982,-0.10866 0.25909,-0.28291 0.35782,-0.39157 0.09869,-0.10864 0.25607,-0.28291 0.35374,-0.39158 0.09766,-0.10865 0.2536,-0.2829 0.35018,-0.39158 0.09657,-0.10864 0.25049,-0.28291 0.3459,-0.39157 0.09543,-0.10866 0.24754,-0.28293 0.34187,-0.39159 0.09433,-0.10866 0.24481,-0.28292 0.33805,-0.39156 0.09324,-0.10865 0.24179,-0.28294 0.33401,-0.39158 0.09221,-0.10867 0.23953,-0.28292 0.33067,-0.39158 0.09113,-0.10866 0.23618,-0.28292 0.32616,-0.39158 0.08997,-0.10867 0.23346,-0.28292 0.32234,-0.39158 0.0889,-0.10868 0.23052,-0.28293 0.31832,-0.39159 0.08779,-0.10864 0.22781,-0.28291 0.31449,-0.39157 0.08672,-0.10866 0.2248,-0.28292 0.31046,-0.39159 0.08565,-0.10864 0.22232,-0.28291 0.30688,-0.39157 0.08457,-0.10866 0.21917,-0.28293 0.30262,-0.39158 0.08345,-0.10865 0.21644,-0.28293 0.29879,-0.39158 0.08236,-0.10864 0.21354,-0.28292 0.29476,-0.39157 0.08124,-0.10867 0.21049,-0.28293 0.29069,-0.39158 0.08023,-0.10866 0.20827,-0.28293 0.2874,-0.39157 0.07912,-0.10868 0.2049,-0.28293 0.28286,-0.39159 0.07795,-0.10866 0.20217,-0.28293 0.27905,-0.39159 0.07687,-0.10864 0.19923,-0.28291 0.27501,-0.39157 0.07579,-0.10865 0.19645,-0.28291 0.27121,-0.39158 0.07475,-0.10866 0.19395,-0.28292 0.26762,-0.39157 0.0737,-0.10866 0.19083,-0.28293 0.26337,-0.39159 0.0725,-0.10864 0.18791,-0.28293 0.25929,-0.39157 0.0714,-0.10864 0.18494,-0.28293 0.25528,-0.39157 0.0703,-0.10867 0.18237,-0.28293 0.25169,-0.39159 0.0693,-0.10867 0.17969,-0.28293 0.24788,-0.39158 0.0682,-0.10866 0.17657,-0.28293 0.24362,-0.39158 0.067,-0.10865 0.1736,-0.28292 0.23955,-0.39158 0.066,-0.10864 0.17087,-0.28292 0.23577,-0.39157 0.0649,-0.10866 0.16812,-0.28292 0.23193,-0.39159 0.0638,-0.10866 0.16545,-0.28291 0.22815,-0.39159 0.0627,-0.10864 0.16228,-0.28292 0.22388,-0.39157 0.0616,-0.10864 0.15954,-0.28291 0.22004,-0.39157 0.0605,-0.10866 0.1566,-0.28293 0.21601,-0.39158 0.0594,-0.10868 0.15382,-0.28293 0.2122,-0.39157 0.0584,-0.10868 0.15135,-0.28293 0.20865,-0.39159 0.0573,-0.10866 0.14819,-0.28293 0.20434,-0.39157 0.0562,-0.10866 0.1453,-0.28292 0.20032,-0.39159 0.055,-0.10866 0.14231,-0.28291 0.19628,-0.39158 0.0539,-0.10866 0.13975,-0.28292 0.19267,-0.39158 0.0529,-0.10865 0.13687,-0.28291 0.18866,-0.39158 0.0518,-0.10864 0.13391,-0.28293 0.18461,-0.39157 0.0507,-0.10865 0.1312,-0.28292 0.18081,-0.39157 0.0496,-0.10866 0.12826,-0.28293 0.17674,-0.39159 0.0485,-0.10866 0.1253,-0.28293 0.17271,-0.39157 0.0474,-0.10867 0.12279,-0.28293 0.16916,-0.39159 0.0464,-0.10866 0.11984,-0.28291 0.16509,-0.39157 0.0453,-0.10867 0.11694,-0.28293 0.16107,-0.39159 0.0441,-0.10867 0.11397,-0.28292 0.157,-0.39158 0.043,-0.10864 0.11126,-0.28291 0.15321,-0.39157 0.042,-0.10866 0.10826,-0.28292 0.14915,-0.39159 0.0409,-0.10864 0.10579,-0.2829 0.14562,-0.39157 0.0398,-0.10866 0.10263,-0.28293 0.14129,-0.39159 0.0387,-0.10865 0.0999,-0.28292 0.1375,-0.39157 0.0376,-0.10864 0.097,-0.28293 0.13349,-0.39157 0.0365,-0.10867 0.094,-0.28293 0.12941,-0.39158 0.0354,-0.10866 0.0915,-0.28292 0.12584,-0.39158 0.0344,-0.10867 0.0886,-0.28292 0.12179,-0.39158 0.0332,-0.10868 0.0856,-0.28293 0.11775,-0.39159 0.0321,-0.10864 0.0827,-0.28291 0.11374,-0.39157 0.031,-0.10866 0.0799,-0.28291 0.10991,-0.39159 0.03,-0.10864 0.0774,-0.28291 0.10634,-0.39157 0.0289,-0.10865 0.0741,-0.28293 0.10182,-0.39158 0.0277,-0.10865 0.0715,-0.28293 0.0982,-0.39157 0.0267,-0.10865 0.0686,-0.28293 0.0942,-0.39158 0.0256,-0.10867 0.0657,-0.28292 0.0902,-0.39158 0.0245,-0.10866 0.0629,-0.28293 0.0863,-0.39157 0.0234,-0.10868 0.0603,-0.28293 0.0826,-0.39159 0.0223,-0.10866 0.0571,-0.28293 0.0783,-0.39159 0.0212,-0.10864 0.0543,-0.28291 0.0745,-0.39157 0.0201,-0.10865 0.0516,-0.28291 0.0707,-0.39158 0.0191,-0.10866 0.0489,-0.28292 0.0669,-0.39157 0.018,-0.10866 0.0457,-0.28293 0.0626,-0.39159 0.0169,-0.10864 0.043,-0.28293 0.0588,-0.39157 0.0158,-0.10864 0.0403,-0.28293 0.0549,-0.39157 0.0147,-0.10867 0.0373,-0.28293 0.0509,-0.39159 0.0136,-0.10867 0.0346,-0.28293 0.0471,-0.39157 0.0125,-0.10867 0.0317,-0.28293 0.0431,-0.39159 0.0114,-0.10865 0.0287,-0.28292 0.039,-0.39158 0.0103,-0.10864 0.026,-0.28291 0.0352,-0.39157 0.009,-0.10866 0.0231,-0.28292 0.0312,-0.39159 0.008,-0.10866 0.0203,-0.28291 0.0273,-0.39159 0.007,-0.10864 0.0174,-0.28292 0.0233,-0.39157 0.006,-0.10864 0.0147,-0.28291 0.0195,-0.39157 0.005,-0.10866 0.0117,-0.28293 0.0155,-0.39158 0.004,-0.10866 0.009,-0.28293 0.0117,-0.39157 0.003,-0.10868 0.006,-0.28293 0.008,-0.39159 0.002,-0.10866 0.003,-0.28293 0.004,-0.39157 4.9e-4,-0.10866 3.6e-4,-0.28292 -2.4e-4,-0.39157 -5.9e-4,-0.10868 -0.002,-0.28293 -0.004,-0.3916 -0.002,-0.10866 -0.005,-0.28292 -0.008,-0.39158 -0.003,-0.10865 -0.008,-0.28291 -0.0121,-0.39158 -0.004,-0.10864 -0.011,-0.28292 -0.0159,-0.39157 -0.005,-0.10865 -0.0137,-0.28292 -0.0197,-0.39157 -0.006,-0.10866 -0.0169,-0.28293 -0.024,-0.39159 -0.007,-0.10866 -0.0194,-0.28293 -0.0276,-0.39157 -0.008,-0.10867 -0.0223,-0.28293 -0.0316,-0.39159 -0.009,-0.10866 -0.0252,-0.28291 -0.0357,-0.39157 -0.0104,-0.10867 -0.028,-0.28293 -0.0395,-0.39159 -0.0115,-0.10867 -0.0309,-0.28292 -0.0435,-0.39158 -0.0126,-0.10864 -0.0337,-0.28291 -0.0473,-0.39157 -0.0137,-0.10866 -0.0366,-0.28292 -0.0514,-0.39159 -0.0148,-0.10864 -0.0395,-0.2829 -0.0554,-0.39157 -0.0159,-0.10866 -0.0423,-0.28293 -0.0593,-0.39159 -0.0169,-0.10865 -0.045,-0.28292 -0.063,-0.39157 -0.0181,-0.10864 -0.0479,-0.28293 -0.0671,-0.39157 -0.0191,-0.10867 -0.0506,-0.28293 -0.0709,-0.39158 -0.0202,-0.10866 -0.0538,-0.28293 -0.0752,-0.39158 -0.0213,-0.10867 -0.0563,-0.28292 -0.0787,-0.39158 -0.0224,-0.10866 -0.0593,-0.28293 -0.0828,-0.39159 -0.0235,-0.10864 -0.0622,-0.28291 -0.0868,-0.39157 -0.0246,-0.10866 -0.0649,-0.28291 -0.0907,-0.39158 -0.0257,-0.10865 -0.0679,-0.28292 -0.0947,-0.39158 -0.0268,-0.10865 -0.0706,-0.28292 -0.0985,-0.39158 -0.0279,-0.10864 -0.0736,-0.28293 -0.10256,-0.39157 -0.029,-0.10865 -0.0763,-0.28293 -0.10632,-0.39157 -0.0301,-0.10868 -0.0792,-0.28293 -0.11038,-0.39159 -0.0312,-0.10866 -0.0821,-0.28293 -0.11443,-0.39157 -0.0323,-0.10868 -0.0849,-0.28293 -0.11824,-0.39159 -0.0333,-0.10865 -0.0876,-0.28293 -0.12204,-0.39159 -0.0344,-0.10864 -0.0905,-0.28289 -0.1261,-0.39156 -0.0355,-0.10866 -0.0935,-0.28292 -0.13012,-0.3916 -0.0366,-0.10865 -0.0962,-0.2829 -0.13393,-0.39156 -0.0377,-0.10866 -0.0992,-0.28293 -0.13797,-0.39159 -0.0388,-0.10864 -0.10193,-0.28293 -0.1418,-0.39157 -0.0399,-0.10864 -0.10463,-0.28293 -0.1456,-0.39157 -0.0409,-0.10867 -0.10753,-0.28293 -0.14963,-0.39159 -0.0421,-0.10867 -0.11072,-0.28292 -0.15392,-0.39157 -0.0432,-0.10867 -0.11323,-0.28293 -0.15748,-0.39159 -0.0443,-0.10866 -0.11618,-0.28292 -0.16152,-0.39158 -0.0454,-0.10864 -0.11892,-0.28292 -0.16537,-0.39158 -0.0464,-0.10865 -0.12183,-0.2829 -0.16937,-0.39158 -0.0475,-0.10866 -0.12454,-0.28291 -0.17319,-0.39157 -0.0486,-0.10866 -0.12773,-0.28293 -0.17747,-0.39159 -0.0497,-0.10864 -0.13025,-0.28291 -0.18103,-0.39156 -0.0508,-0.10867 -0.13323,-0.28294 -0.18509,-0.3916 -0.0519,-0.10865 -0.13593,-0.28292 -0.18889,-0.39156 -0.053,-0.10868 -0.13882,-0.28294 -0.19293,-0.39159 -0.0541,-0.10866 -0.14201,-0.28293 -0.19722,-0.39157 -0.0552,-0.10866 -0.14452,-0.28292 -0.20079,-0.39158 -0.0563,-0.10867 -0.14746,-0.28292 -0.20484,-0.3916 -0.0574,-0.10865 -0.15021,-0.28291 -0.20863,-0.39157 -0.0584,-0.10865 -0.15286,-0.28291 -0.21245,-0.39158 -0.0596,-0.10865 -0.15628,-0.28292 -0.21695,-0.39157 -0.0607,-0.10865 -0.15861,-0.28292 -0.22028,-0.39158 -0.0617,-0.10865 -0.16154,-0.28292 -0.22436,-0.39158 -0.0628,-0.10866 -0.16447,-0.28293 -0.22838,-0.39157 -0.0639,-0.10867 -0.16714,-0.28293 -0.23219,-0.39159 -0.065,-0.10866 -0.17055,-0.28291 -0.23669,-0.39157 -0.0661,-0.10867 -0.17287,-0.28293 -0.24004,-0.39159 -0.0672,-0.10867 -0.17584,-0.28292 -0.24409,-0.39158 -0.0682,-0.10864 -0.17853,-0.28292 -0.24787,-0.39157 -0.0694,-0.10866 -0.18145,-0.28292 -0.25195,-0.39159 -0.0705,-0.10864 -0.18463,-0.2829 -0.25621,-0.39157 -0.0716,-0.10866 -0.18717,-0.28293 -0.25978,-0.39159 -0.0726,-0.10865 -0.1899,-0.28292 -0.2636,-0.39157 -0.0737,-0.10864 -0.19282,-0.28293 -0.26762,-0.39157 -0.07483,-0.10867 -0.19571,-0.28293 -0.2717,-0.39158 C 99.54465,19.42792 99.4217,19.25365 99.34467,19.145 99.26764,19.03633 99.14343,18.86208 99.06537,18.75342 98.9873,18.64476 98.86122,18.47049 98.78204,18.36183 98.70287,18.25319 98.57492,18.07892 98.49466,17.97026 98.4144,17.8616 98.2849,17.68735 98.20348,17.57867 98.12204,17.47003 97.9903,17.29576 97.90778,17.1871 97.82526,17.07845 97.69228,16.90417 97.60873,16.79552 97.52519,16.68687 97.39027,16.51259 97.30565,16.40395 97.22102,16.2953 97.08447,16.12102 96.99875,16.01237 96.91304,15.9037 96.68784,15.62079 96.68784,15.62079 Z"
       style="fill:#b3b3ff;fill-opacity:0.5;fill-rule:nonzero;stroke:none"
       transform="matrix(1.3333333,0,0,-1.3333333,58.848,242.732)" />
    <path
       id="path9"
       d="m 18.06305,15.59082 c 0,0 -0.15105,0.28293 -0.20746,0.39157 -0.05639,0.10866 -0.14508,0.28293 -0.19911,0.39157 -0.05403,0.10868 -0.13868,0.28293 -0.19032,0.39159 -0.05167,0.10865 -0.13279,0.28291 -0.182,0.39159 -0.04922,0.10866 -0.12591,0.28291 -0.17271,0.39158 -0.0468,0.10864 -0.12033,0.28291 -0.16463,0.39157 -0.04428,0.10864 -0.11284,0.28291 -0.15463,0.39157 -0.04178,0.10866 -0.10724,0.28293 -0.14654,0.39159 -0.03931,0.10864 -0.1001,0.28291 -0.1368,0.39157 -0.0367,0.10866 -0.09358,0.28293 -0.12773,0.39158 -0.03417,0.10866 -0.08696,0.28294 -0.11849,0.39158 -0.03152,0.10866 -0.07974,0.28292 -0.10871,0.39157 -0.029,0.10867 -0.07389,0.28293 -0.10015,0.39159 -0.02627,0.10866 -0.06566,0.28292 -0.08922,0.39156 -0.02357,0.10868 -0.0597,0.28293 -0.08065,0.39161 -0.02095,0.10864 -0.0522,0.28291 -0.07041,0.39157 -0.01823,0.10864 -0.04533,0.28291 -0.06089,0.39157 -0.0156,0.10866 -0.03856,0.28291 -0.0514,0.39159 -0.01283,0.10864 -0.03096,0.28292 -0.04117,0.39156 -0.01017,0.10867 -0.02488,0.28294 -0.03234,0.3916 -0.0074,0.10864 -0.01669,0.28292 -0.02141,0.39156 -0.0047,0.10866 -0.01061,0.28294 -0.01262,0.39158 -0.002,0.10867 -0.0027,0.28292 -0.0019,0.39158 7.7e-4,0.10866 0.0041,0.28293 0.0076,0.39158 0.0035,0.10867 0.01135,0.28292 0.01761,0.3916 0.0062,0.10864 0.01843,0.28291 0.02734,0.39157 0.0089,0.10864 0.02527,0.28289 0.03688,0.39157 0.01162,0.10866 0.03258,0.28291 0.04688,0.39158 0.01428,0.10866 0.03908,0.28293 0.05614,0.39158 0.01705,0.10865 0.04707,0.28292 0.06684,0.39158 0.01978,0.10864 0.05324,0.28293 0.07566,0.39157 0.0224,0.10866 0.06079,0.28291 0.08587,0.39157 0.02509,0.10868 0.06723,0.28293 0.09493,0.39159 0.02769,0.10867 0.07431,0.28293 0.10467,0.39157 0.03037,0.10867 0.08129,0.28293 0.11419,0.3916 0.03289,0.10864 0.08741,0.28292 0.123,0.39157 0.03556,0.10865 0.09533,0.2829 0.13345,0.39157 0.03812,0.10866 0.10066,0.28292 0.14131,0.39159 0.04067,0.10866 0.10858,0.28293 0.15178,0.39157 0.04321,0.10866 0.11398,0.28293 0.15962,0.39159 0.04565,0.10864 0.12122,0.28291 0.16939,0.39157 0.04819,0.10867 0.12743,0.28293 0.17795,0.39158 0.05054,0.10868 0.13335,0.28293 0.18629,0.39158 0.05294,0.10865 0.14,0.28292 0.1953,0.39157 0.05528,0.10867 0.14551,0.28293 0.20317,0.3916 0.05765,0.10864 0.15247,0.2829 0.21243,0.39157 0.05997,0.10866 0.15762,0.28291 0.21982,0.39159 0.06218,0.10865 0.16396,0.28291 0.22838,0.39157 0.06442,0.10864 0.16936,0.28293 0.23599,0.39157 0.06664,0.10866 0.17554,0.28293 0.24433,0.39158 0.06878,0.10866 0.18066,0.28293 0.25146,0.39159 0.0708,0.10864 0.18598,0.28293 0.25884,0.39157 0.07283,0.10866 0.19137,0.28293 0.26619,0.39157 0.07483,0.10868 0.19624,0.28293 0.27313,0.39159 0.07686,0.10866 0.20215,0.28291 0.28094,0.39157 0.07877,0.10867 0.20634,0.28293 0.2869,0.3916 0.08057,0.10864 0.21142,0.28291 0.29381,0.39157 0.08238,0.10864 0.21589,0.28292 0.29998,0.39157 0.0841,0.10866 0.22033,0.28293 0.30617,0.39159 0.08586,0.10864 0.2251,0.28291 0.31259,0.39157 0.08751,0.10866 0.22899,0.28293 0.31809,0.39159 0.08908,0.10864 0.2334,0.28293 0.324,0.39157 0.09061,0.10866 0.23696,0.28293 0.32903,0.39157 0.09204,0.10867 0.24097,0.28293 0.33449,0.39159 0.0935,0.10865 0.24458,0.28292 0.33948,0.39157 0.09487,0.10867 0.24824,0.28292 0.34445,0.3916 0.09622,0.10864 0.25165,0.28291 0.34901,0.39157 0.09737,0.10864 0.2542,0.28291 0.35278,0.39157 0.09861,0.10866 0.25809,0.28291 0.35782,0.39159 0.0997,0.10864 0.26015,0.28292 0.36089,0.39157 0.10074,0.10866 0.26345,0.28293 0.36517,0.39158 0.10172,0.10865 0.26534,0.28293 0.36803,0.39157 0.10267,0.10866 0.26849,0.28293 0.37207,0.39158 0.10356,0.10867 0.27014,0.28292 0.37445,0.39158 0.10429,0.10866 0.27223,0.28293 0.3773,0.39157 0.10506,0.10868 0.27423,0.28293 0.37992,0.3916 0.10569,0.10865 0.27554,0.28292 0.38181,0.39158 0.10628,0.10864 0.27738,0.28289 0.38422,0.39157 0.10685,0.10865 0.27857,0.28291 0.38587,0.39158 0.1073,0.10866 0.27981,0.28293 0.38753,0.39157 0.10774,0.10866 0.28094,0.28293 0.38896,0.39159 0.10804,0.10864 0.28145,0.28293 0.38968,0.39157 0.10823,0.10866 0.28194,0.28291 0.39039,0.39157 0.10846,0.10868 0.28275,0.28293 0.39133,0.39159 0.10861,0.10867 0.28276,0.28293 0.39134,0.39157 0.10861,0.10867 0.28276,0.28293 0.39136,0.3916 0.1086,0.10864 0.28276,0.28291 0.39134,0.39157 0.10855,0.10865 0.28272,0.2829 0.3911,0.39157 0.10838,0.10866 0.28203,0.28292 0.39014,0.39159 0.10814,0.10866 0.28135,0.28293 0.3892,0.39157 0.10788,0.10866 0.28072,0.28293 0.38826,0.39159 0.10753,0.10864 0.27974,0.28291 0.38681,0.39157 0.10707,0.10867 0.27834,0.28293 0.38492,0.39158 0.10658,0.10868 0.27721,0.28293 0.38325,0.39158 0.10605,0.10865 0.2757,0.28292 0.38112,0.39157 0.10543,0.10867 0.27401,0.28293 0.37873,0.3916 0.10473,0.10864 0.27214,0.2829 0.37613,0.39157 0.10395,0.10866 0.27014,0.28291 0.37326,0.39159 0.1031,0.10865 0.26766,0.28291 0.36992,0.39157 0.10226,0.10864 0.26579,0.28293 0.36708,0.39157 0.10128,0.10866 0.26275,0.28293 0.36303,0.39158 0.10028,0.10866 0.26047,0.28293 0.3597,0.39159 0.09921,0.10864 0.25735,0.28293 0.35541,0.39157 0.09806,0.10866 0.25457,0.28293 0.35138,0.39157 0.0968,0.10866 0.25082,0.28293 0.34637,0.39157 0.09557,0.10868 0.24807,0.28293 0.34233,0.39159 0.09427,0.10867 0.24426,0.28293 0.33711,0.3916 0.09284,0.10864 0.24068,0.28291 0.3321,0.39157 0.09143,0.10864 0.23696,0.28292 0.32687,0.39157 0.0899,0.10866 0.2328,0.28292 0.32118,0.39159 0.08835,0.10864 0.22898,0.28291 0.31566,0.39157 0.08672,0.10866 0.22422,0.28293 0.3093,0.39159 0.08505,0.10864 0.22041,0.28293 0.30377,0.39157 0.08339,0.10866 0.21562,0.28293 0.29713,0.39157 0.08153,0.10867 0.21077,0.28293 0.29047,0.39159 0.07973,0.10865 0.20621,0.28292 0.28407,0.39157 0.07785,0.10867 0.20119,0.28293 0.27715,0.3916 0.07593,0.10864 0.19632,0.28291 0.27025,0.39157 0.07394,0.10864 0.19068,0.28291 0.26263,0.39157 0.07196,0.10866 0.18611,0.28291 0.25598,0.39159 0.06987,0.10864 0.1799,0.28292 0.24765,0.39157 0.06775,0.10865 0.17512,0.28293 0.24075,0.39158 0.06562,0.10865 0.16883,0.28293 0.23218,0.39157 0.06339,0.10866 0.16342,0.28293 0.22458,0.39158 0.06117,0.10867 0.15741,0.28292 0.21625,0.39158 0.05885,0.10866 0.15132,0.28293 0.20793,0.39157 0.05659,0.10867 0.14584,0.28293 0.20007,0.3916 0.05423,0.10865 0.13895,0.28292 0.1908,0.39157 0.05185,0.10865 0.1335,0.2829 0.18294,0.39158 0.04944,0.10865 0.12646,0.28291 0.17342,0.39158 0.04697,0.10866 0.12058,0.28293 0.16511,0.39157 0.04452,0.10866 0.11384,0.28293 0.15582,0.39159 0.04198,0.10864 0.10727,0.28293 0.14677,0.39157 0.03951,0.10866 0.10106,0.28291 0.13799,0.39157 0.03694,0.10868 0.09384,0.28293 0.12822,0.39159 0.03439,0.10867 0.08792,0.28293 0.11966,0.39157 0.03174,0.10868 0.08006,0.28293 0.10919,0.3916 0.02914,0.10864 0.07437,0.2829 0.10088,0.39158 0.0265,0.10865 0.06636,0.2829 0.09018,0.39158 0.02378,0.10866 0.06012,0.28291 0.08134,0.39157 0.02123,0.10865 0.05318,0.28293 0.07161,0.39157 0.01845,0.10866 0.04558,0.28293 0.06139,0.39158 0.01579,0.10865 0.03949,0.28292 0.05256,0.39158 0.01308,0.10866 0.03128,0.28292 0.04163,0.39158 0.01038,0.10868 0.02539,0.28294 0.03308,0.39158 0.0077,0.10866 0.01744,0.28292 0.02235,0.39156 0.0049,0.10868 0.01085,0.28294 0.01308,0.3916 0.0023,0.10865 0.0036,0.2829 0.0031,0.39158 -5.3e-4,0.10866 -0.0037,0.28292 -0.0069,0.39159 -0.0033,0.10865 -0.01065,0.28291 -0.01666,0.39157 -0.006,0.10864 -0.01798,0.28291 -0.02663,0.39157 -0.0087,0.10866 -0.02427,0.28293 -0.03567,0.39159 -0.01143,0.10865 -0.03252,0.28292 -0.04665,0.39158 -0.01413,0.10864 -0.03844,0.28293 -0.05517,0.39157 -0.01678,0.10866 -0.04613,0.28293 -0.06568,0.39157 -0.01954,0.10866 -0.05296,0.28293 -0.07518,0.39158 -0.0222,0.10867 -0.06004,0.28292 -0.08493,0.39158 -0.02487,0.10867 -0.06699,0.28293 -0.09444,0.3916 -0.02745,0.10864 -0.07335,0.28292 -0.10348,0.39157 -0.03012,0.10865 -0.08101,0.28292 -0.11372,0.39157 -0.0327,0.10865 -0.08672,0.28292 -0.12205,0.39159 -0.0353,0.10864 -0.09455,0.28291 -0.1325,0.39157 -0.03795,0.10866 -0.10062,0.28293 -0.14107,0.39159 -0.04046,0.10864 -0.10759,0.28293 -0.15059,0.39157 -0.04301,0.10866 -0.11394,0.28293 -0.15939,0.39157 -0.04545,0.10867 -0.12027,0.28293 -0.1682,0.39159 -0.04793,0.10865 -0.12694,0.28292 -0.17721,0.39157 -0.05031,0.10867 -0.13257,0.28293 -0.18534,0.3916 -0.05278,0.10864 -0.13994,0.28291 -0.19507,0.39157 -0.05516,0.10864 -0.14498,0.28291 -0.20246,0.39157 -0.05747,0.10866 -0.15195,0.28291 -0.21172,0.39159 -0.05977,0.10864 -0.15712,0.28292 -0.2191,0.39157 -0.06198,0.10866 -0.16341,0.28293 -0.22766,0.39158 -0.06429,0.10865 -0.16916,0.28293 -0.23554,0.39157 -0.06639,0.10866 -0.1743,0.28293 -0.24289,0.39158 -0.06857,0.10867 -0.18078,0.28292 -0.25146,0.39158 -0.07065,0.10866 -0.1852,0.28293 -0.25787,0.39157 -0.07268,0.10868 -0.19129,0.28293 -0.26597,0.3916 -0.07469,0.10865 -0.19572,0.28292 -0.2724,0.39158 -0.07667,0.10864 -0.20161,0.28289 -0.28024,0.39157 -0.07862,0.10865 -0.20604,0.28291 -0.28642,0.39158 -0.0804,0.10866 -0.21085,0.28293 -0.29309,0.39157 -0.08226,0.10866 -0.21575,0.28293 -0.29976,0.39159 -0.084,0.10864 -0.21997,0.28293 -0.3057,0.39157 -0.08572,0.10864 -0.22479,0.28291 -0.31211,0.39157 -0.08733,0.10868 -0.2284,0.28293 -0.31737,0.39159 -0.08894,0.10867 -0.23331,0.28293 -0.32376,0.39157 -0.09047,0.10867 -0.23638,0.28293 -0.32831,0.39159 -0.0919,0.10865 -0.2408,0.28291 -0.33424,0.39158 -0.09343,0.10866 -0.24448,0.28292 -0.33924,0.39159 -0.09477,0.10866 -0.24771,0.28291 -0.34376,0.39157 -0.09604,0.10864 -0.25121,0.28291 -0.34851,0.39157 -0.09732,0.10866 -0.25432,0.28293 -0.35282,0.39159 -0.09849,0.10864 -0.25746,0.28291 -0.35708,0.39157 -0.09961,0.10866 -0.26023,0.28293 -0.36089,0.39158 -0.10068,0.10868 -0.26303,0.28293 -0.3647,0.39158 -0.10166,0.10865 -0.26544,0.28292 -0.36803,0.39157 -0.10258,0.10867 -0.26786,0.28293 -0.37135,0.39158 -0.10347,0.10866 -0.37445,0.39159 -0.37445,0.39159"
       style="fill:none;stroke:#ff0000;stroke-width:0.79701;stroke-linecap:butt;stroke-linejoin:miter;stroke-miterlimit:10;stroke-dasharray:none;stroke-opacity:1"
       transform="matrix(1.3333333,0,0,-1.3333333,58.848,242.732)" />
    <path
       id="path10"
       d="m 96.66333,15.59082 c 0,0 0.226,0.28293 0.31189,0.39157 0.08588,0.10866 0.22243,0.28293 0.30711,0.39157 0.08469,0.10868 0.21968,0.28293 0.30333,0.39159 0.08362,0.10865 0.21695,0.28291 0.2995,0.39159 0.08255,0.10866 0.21399,0.28291 0.29549,0.39158 0.08148,0.10864 0.21149,0.28291 0.29188,0.39157 0.08042,0.10864 0.20838,0.28291 0.28763,0.39157 0.07926,0.10866 0.20542,0.28293 0.28357,0.39159 0.07816,0.10864 0.20267,0.28291 0.27977,0.39157 0.0771,0.10866 0.1999,0.28293 0.27596,0.39158 0.07604,0.10866 0.19723,0.28294 0.27215,0.39158 0.07492,0.10866 0.19406,0.28292 0.26787,0.39157 0.0738,0.10867 0.19136,0.28293 0.26405,0.39159 0.0727,0.10866 0.18842,0.28292 0.26004,0.39156 0.0716,0.10868 0.18561,0.28293 0.25621,0.39161 0.0706,0.10864 0.18317,0.28291 0.25264,0.39157 0.0695,0.10864 0.17983,0.28291 0.24814,0.39157 0.0683,0.10866 0.17705,0.28291 0.24433,0.39159 0.0673,0.10864 0.17433,0.28292 0.24051,0.39156 0.0662,0.10867 0.17134,0.28294 0.23646,0.3916 0.0651,0.10864 0.16887,0.28292 0.23291,0.39156 0.064,0.10866 0.16574,0.28294 0.22863,0.39158 0.0629,0.10867 0.16277,0.28292 0.22456,0.39158 0.0618,0.10866 0.16004,0.28293 0.22078,0.39158 0.0607,0.10867 0.15727,0.28292 0.21696,0.3916 0.0597,0.10864 0.1546,0.28291 0.21315,0.39157 0.0586,0.10864 0.15143,0.28289 0.20886,0.39157 0.0574,0.10866 0.14875,0.28291 0.20508,0.39158 0.0563,0.10866 0.14577,0.28293 0.20102,0.39158 0.0553,0.10865 0.14302,0.28292 0.19721,0.39158 0.0542,0.10864 0.1403,0.28293 0.19342,0.39157 0.0531,0.10866 0.13737,0.28291 0.18937,0.39157 0.052,0.10868 0.13443,0.28293 0.18532,0.39159 0.0509,0.10867 0.1317,0.28293 0.18152,0.39157 0.0498,0.10867 0.12875,0.28293 0.17746,0.3916 0.0487,0.10864 0.12604,0.28292 0.17367,0.39157 0.0476,0.10865 0.12308,0.2829 0.16962,0.39157 0.0465,0.10866 0.12036,0.28292 0.16582,0.39159 0.0455,0.10866 0.11745,0.28293 0.16176,0.39157 0.0443,0.10866 0.1145,0.28293 0.15772,0.39159 0.0433,0.10864 0.11175,0.28291 0.15394,0.39157 0.0422,0.10867 0.10901,0.28293 0.1501,0.39158 0.0411,0.10868 0.10611,0.28293 0.14607,0.39158 0.04,0.10865 0.10315,0.28292 0.14203,0.39157 0.0389,0.10867 0.10043,0.28293 0.13823,0.3916 0.0378,0.10864 0.0974,0.2829 0.13417,0.39157 0.0367,0.10866 0.0949,0.28291 0.1306,0.39159 0.0356,0.10865 0.0918,0.28291 0.12633,0.39157 0.0345,0.10864 0.0888,0.28293 0.12227,0.39157 0.0334,0.10866 0.0864,0.28293 0.11871,0.39158 0.0323,0.10866 0.0832,0.28293 0.11442,0.39159 0.0312,0.10864 0.0807,0.28293 0.11088,0.39157 0.0301,0.10866 0.0775,0.28293 0.10656,0.39157 0.029,0.10868 0.0748,0.28293 0.10277,0.39159 0.028,0.10866 0.0721,0.28291 0.099,0.39157 0.0269,0.10867 0.0691,0.28293 0.0949,0.3916 0.0258,0.10864 0.0664,0.28291 0.0911,0.39157 0.0247,0.10864 0.0632,0.28292 0.0868,0.39157 0.0236,0.10866 0.0608,0.28293 0.0833,0.39159 0.0225,0.10864 0.0576,0.28291 0.079,0.39157 0.0214,0.10866 0.0551,0.28293 0.0754,0.39159 0.0203,0.10864 0.0521,0.28293 0.0714,0.39157 0.0192,0.10866 0.0492,0.28293 0.0673,0.39157 0.0182,0.10867 0.0464,0.28293 0.0635,0.39159 0.0171,0.10865 0.0436,0.28292 0.0595,0.39157 0.0159,0.10867 0.0405,0.28292 0.0554,0.3916 0.0149,0.10864 0.0381,0.28291 0.0519,0.39157 0.0138,0.10864 0.0349,0.28291 0.0476,0.39157 0.0127,0.10866 0.0322,0.28291 0.0438,0.39159 0.0116,0.10864 0.0294,0.28292 0.04,0.39157 0.0105,0.10866 0.0265,0.28293 0.0359,0.39158 0.009,0.10865 0.0236,0.28293 0.0319,0.39157 0.008,0.10866 0.0208,0.28293 0.0281,0.39158 0.007,0.10867 0.0179,0.28292 0.024,0.39158 0.006,0.10866 0.0151,0.28293 0.0202,0.39157 0.005,0.10868 0.0125,0.28293 0.0164,0.3916 0.004,0.10865 0.009,0.28292 0.0121,0.39158 0.003,0.10864 0.007,0.28289 0.009,0.39157 0.002,0.10865 0.004,0.28291 0.004,0.39158 6.5e-4,0.10866 8.7e-4,0.28293 4.8e-4,0.39157 -3.9e-4,0.10866 -0.002,0.28293 -0.003,0.39159 -0.001,0.10864 -0.005,0.28293 -0.007,0.39157 -0.003,0.10866 -0.008,0.28291 -0.0112,0.39157 -0.004,0.10868 -0.0104,0.28293 -0.0152,0.39159 -0.005,0.10867 -0.0134,0.28293 -0.0192,0.39157 -0.006,0.10867 -0.0161,0.28293 -0.0231,0.3916 -0.007,0.10864 -0.0188,0.28291 -0.0269,0.39157 -0.008,0.10865 -0.0221,0.2829 -0.0312,0.39157 -0.009,0.10866 -0.0245,0.28292 -0.0347,0.39159 -0.0102,0.10866 -0.0275,0.28293 -0.0388,0.39157 -0.0113,0.10866 -0.0304,0.28293 -0.0428,0.39159 -0.0124,0.10864 -0.0331,0.28291 -0.0466,0.39157 -0.0135,0.10867 -0.0361,0.28293 -0.0507,0.39158 -0.0146,0.10868 -0.0391,0.28293 -0.0547,0.39158 -0.0157,0.10865 -0.0415,0.28292 -0.0583,0.39157 -0.0168,0.10867 -0.0447,0.28293 -0.0626,0.3916 -0.0179,0.10864 -0.0474,0.2829 -0.0664,0.39157 -0.0189,0.10866 -0.0501,0.28291 -0.0702,0.39159 -0.02,0.10865 -0.0531,0.28291 -0.0742,0.39157 -0.0212,0.10864 -0.056,0.28293 -0.0783,0.39157 -0.0222,0.10866 -0.0588,0.28293 -0.0821,0.39158 -0.0233,0.10866 -0.0615,0.28293 -0.0859,0.39159 -0.0244,0.10864 -0.0647,0.28293 -0.0902,0.39157 -0.0255,0.10866 -0.0671,0.28293 -0.0937,0.39157 -0.0266,0.10866 -0.0703,0.28293 -0.098,0.39157 -0.0277,0.10868 -0.0728,0.28293 -0.10158,0.39159 -0.0288,0.10867 -0.0757,0.28293 -0.10562,0.3916 -0.0299,0.10864 -0.0789,0.28291 -0.10991,0.39157 -0.031,0.10864 -0.0814,0.28292 -0.11348,0.39157 -0.0321,0.10866 -0.0844,0.28292 -0.11752,0.39159 -0.0331,0.10864 -0.0871,0.28291 -0.12132,0.39157 -0.0342,0.10866 -0.09,0.28293 -0.12537,0.39159 -0.0353,0.10864 -0.093,0.28293 -0.12943,0.39157 -0.0364,0.10866 -0.0957,0.28293 -0.13322,0.39157 -0.0375,0.10867 -0.0984,0.28293 -0.13704,0.39159 -0.0386,0.10865 -0.10136,0.28292 -0.14106,0.39157 -0.0397,0.10867 -0.10429,0.28293 -0.1451,0.3916 -0.0408,0.10864 -0.10729,0.28291 -0.14917,0.39157 -0.0419,0.10864 -0.1098,0.28291 -0.15274,0.39157 -0.0429,0.10866 -0.1127,0.28291 -0.15677,0.39159 -0.044,0.10864 -0.11568,0.28292 -0.16083,0.39157 -0.0452,0.10865 -0.11839,0.28293 -0.16461,0.39158 -0.0463,0.10865 -0.12132,0.28293 -0.16867,0.39157 -0.0474,0.10866 -0.12427,0.28293 -0.17271,0.39158 -0.0485,0.10867 -0.12702,0.28292 -0.17653,0.39158 -0.0495,0.10866 -0.12974,0.28293 -0.18032,0.39157 -0.0506,0.10867 -0.13269,0.28293 -0.18437,0.3916 -0.0517,0.10865 -0.13538,0.28292 -0.18817,0.39157 -0.0528,0.10865 -0.13854,0.2829 -0.19248,0.39158 -0.0539,0.10865 -0.14126,0.28291 -0.19625,0.39158 -0.055,0.10866 -0.14403,0.28293 -0.20008,0.39157 -0.056,0.10866 -0.14674,0.28293 -0.20387,0.39159 -0.0571,0.10864 -0.14964,0.28293 -0.20793,0.39157 -0.0583,0.10866 -0.15283,0.28291 -0.2122,0.39157 -0.0594,0.10868 -0.15534,0.28293 -0.21577,0.39159 -0.0605,0.10867 -0.15832,0.28293 -0.21983,0.39157 -0.0615,0.10868 -0.16104,0.28293 -0.22362,0.3916 -0.0626,0.10864 -0.16369,0.2829 -0.22743,0.39158 -0.0637,0.10865 -0.16708,0.2829 -0.23195,0.39158 -0.0649,0.10866 -0.16964,0.28291 -0.23553,0.39157 -0.0659,0.10865 -0.17233,0.28293 -0.23931,0.39157 -0.067,0.10866 -0.1753,0.28293 -0.24336,0.39158 -0.0681,0.10865 -0.178,0.28292 -0.24719,0.39158 -0.0692,0.10866 -0.18114,0.28292 -0.25145,0.39158 -0.0703,0.10868 -0.1839,0.28294 -0.25526,0.39158 -0.0714,0.10866 -0.18666,0.28292 -0.25907,0.39156 -0.0724,0.10868 -0.18937,0.28294 -0.26288,0.3916 -0.0735,0.10865 -0.19227,0.2829 -0.26692,0.39158 -0.07466,0.10866 -0.19545,0.28292 -0.27121,0.39159 -0.07576,0.10865 -0.19797,0.28291 -0.27476,0.39157 -0.07682,0.10864 -0.20093,0.28291 -0.27881,0.39157 -0.0779,0.10866 -0.20369,0.28293 -0.28262,0.39159 -0.07897,0.10865 -0.20633,0.28292 -0.28644,0.39158 -0.08011,0.10864 -0.20973,0.28293 -0.29096,0.39157 -0.08122,0.10866 -0.21226,0.28293 -0.29451,0.39157 -0.08226,0.10866 -0.21498,0.28293 -0.29832,0.39158 -0.08335,0.10867 -0.21793,0.28292 -0.30237,0.39158 -0.08443,0.10867 -0.2206,0.28293 -0.30618,0.3916 -0.08557,0.10864 -0.22402,0.28292 -0.31069,0.39157 -0.08666,0.10865 -0.22632,0.28292 -0.31402,0.39157 -0.0877,0.10865 -0.22924,0.28292 -0.31807,0.39159 -0.08882,0.10864 -0.23221,0.28291 -0.32212,0.39157 -0.0899,0.10866 -0.23493,0.28293 -0.32591,0.39159 -0.09097,0.10864 -0.23761,0.28293 -0.32973,0.39157 -0.09213,0.10866 -0.24099,0.28293 -0.33424,0.39157 -0.09325,0.10867 -0.24356,0.28293 -0.33781,0.39159 -0.09427,0.10865 -0.2463,0.28292 -0.34162,0.39157 -0.09534,0.10867 -0.24902,0.28293 -0.34543,0.3916 -0.09641,0.10864 -0.25189,0.28291 -0.34948,0.39157 -0.0976,0.10864 -0.2553,0.28291 -0.35398,0.39157 -0.09869,0.10866 -0.25761,0.28291 -0.35733,0.39159 -0.09972,0.10864 -0.26057,0.28292 -0.36136,0.39157 -0.10079,0.10866 -0.26329,0.28293 -0.36518,0.39158 -0.10188,0.10865 -0.26613,0.28293 -0.36921,0.39157 -0.10308,0.10866 -0.26956,0.28293 -0.37374,0.39158 -0.10416,0.10867 -0.2719,0.28292 -0.37705,0.39158 -0.10518,0.10866 -0.27464,0.28293 -0.38089,0.39157 -0.10625,0.10868 -0.27757,0.28293 -0.38492,0.3916 -0.10734,0.10865 -0.28019,0.28292 -0.38873,0.39158 -0.10852,0.10864 -0.28386,0.28289 -0.39346,0.39157 -0.10962,0.10865 -0.28597,0.28291 -0.39658,0.39158 -0.11061,0.10866 -0.2889,0.28293 -0.40063,0.39157 -0.11173,0.10866 -0.29184,0.28293 -0.40467,0.39159 -0.1128,0.10864 -0.29449,0.28293 -0.40846,0.39157 -0.11397,0.10864 -0.29793,0.28291 -0.41299,0.39157 -0.11505,0.10868 -0.30022,0.28293 -0.41632,0.39159 -0.11608,0.10867 -0.30318,0.28293 -0.42037,0.39157 -0.11716,0.10867 -0.30591,0.28293 -0.42416,0.39159 -0.11827,0.10865 -0.30876,0.28291 -0.42821,0.39158 -0.11945,0.10866 -0.31221,0.28292 -0.43274,0.39159 -0.12056,0.10866 -0.31455,0.28291 -0.43606,0.39157 -0.12153,0.10864 -0.31727,0.28291 -0.43989,0.39157 -0.1226,0.10866 -0.3202,0.28293 -0.4439,0.39159 -0.12372,0.10864 -0.32283,0.28291 -0.44773,0.39157 -0.12491,0.10866 -0.32649,0.28293 -0.45247,0.39158 -0.12599,0.10868 -0.32861,0.28293 -0.45558,0.39158 -0.12698,0.10865 -0.33152,0.28292 -0.45962,0.39157 -0.1281,0.10867 -0.33446,0.28293 -0.46367,0.39158 -0.12918,0.10866 -0.46745,0.39159 -0.46745,0.39159"
       style="fill:none;stroke:#008000;stroke-width:0.79701;stroke-linecap:butt;stroke-linejoin:miter;stroke-miterlimit:10;stroke-dasharray:none;stroke-opacity:1"
       transform="matrix(1.3333333,0,0,-1.3333333,58.848,242.732)" />
    <path
       id="path11"
       d="M 0,15.59082 H 96.66333"
       style="fill:none;stroke:#ec008c;stroke-width:0.3985;stroke-linecap:butt;stroke-linejoin:miter;stroke-miterlimit:10;stroke-dasharray:2.98883, 2.98883;stroke-dashoffset:0;stroke-opacity:1"
       transform="matrix(1.3333333,0,0,-1.3333333,58.848,242.732)" />
    <path
       id="path12"
       d="m 3.9504297,-3.7846406 c -0.1640625,0 -0.3046875,0 -0.4453125,0.140625 -0.1523438,0.1523437 -0.1757813,0.3164062 -0.1757813,0.3867187 0,0.234375 0.1757813,0.3515625 0.3632813,0.3515625 0.2929687,0 0.5625,-0.2460937 0.5625,-0.6445312 0,-0.4804688 -0.46875,-0.8554688 -1.171875,-0.8554688 -1.3476563,0 -2.67187501,1.4296875 -2.67187501,2.8359375 0,0.89062503 0.57421875,1.67578128 1.61718751,1.67578128 1.4179687,0 2.2617187,-1.0546875 2.2617187,-1.17187498 0,-0.058594 -0.070312,-0.1289063 -0.1289062,-0.1289063 -0.046875,0 -0.070312,0.023437 -0.1289063,0.09375 -0.7851562,0.99609378 -1.875,0.99609378 -1.9921875,0.99609378 -0.6210937,0 -0.890625,-0.4921875 -0.890625,-1.08984378 0,-0.4101562 0.1992188,-1.3710937 0.5390625,-1.9921875 0.3046875,-0.5625 0.8554688,-0.9960937 1.40625,-0.9960937 0.328125,0 0.7148438,0.1289062 0.8554688,0.3984375 z m 0,0"
       style="fill:#ec008c;fill-opacity:1;fill-rule:nonzero;stroke:none"
       aria-label="c"
       transform="matrix(1.3333333,0,0,1.3333333,47.986667,224.804)" />
    <path
       id="path13"
       d="m 5.1437656,-6.8097031 c 0,0 0,-0.1054688 -0.1289062,-0.1054688 -0.1523438,0 -1.1015625,0.09375 -1.265625,0.1054688 -0.082031,0.011719 -0.140625,0.070312 -0.140625,0.1992187 0,0.1171875 0.082031,0.1171875 0.234375,0.1171875 0.4804687,0 0.5039062,0.070312 0.5039062,0.1640625 l -0.035156,0.1992188 -0.5976563,2.3671875 c -0.1757812,-0.375 -0.46875,-0.6445313 -0.9140625,-0.6445313 -1.171875,0 -2.40234372,1.4648438 -2.40234372,2.9179688 0,0.93749998 0.55078125,1.59374998 1.32421872,1.59374998 0.1992188,0 0.703125,-0.03515625 1.3007813,-0.73828125 0.070312,0.41015625 0.421875,0.73828125 0.9023437,0.73828125 0.3515625,0 0.5742188,-0.22265625 0.7382813,-0.5390625 0.1640625,-0.36328125 0.2929687,-0.97265628 0.2929687,-0.99609378 0,-0.09375 -0.082031,-0.09375 -0.1171875,-0.09375 -0.09375,0 -0.1054687,0.035156 -0.140625,0.1757813 -0.1640625,0.64453123 -0.3515625,1.24218748 -0.75,1.24218748 -0.2695312,0 -0.3046875,-0.2578125 -0.3046875,-0.45703125 0,-0.24609375 0.023437,-0.31640625 0.058594,-0.48046873 z m -2.0742187,5.625 c -0.046875,0.1757812 -0.046875,0.19921873 -0.1992188,0.36328123 -0.4453125,0.55078125 -0.84375,0.71484375 -1.125,0.71484375 -0.5039062,0 -0.6445312,-0.55078125 -0.6445312,-0.93749998 0,-0.5039063 0.328125,-1.7226563 0.5507812,-2.1796875 0.3046875,-0.5976563 0.7617188,-0.9609375 1.1601563,-0.9609375 0.6445312,0 0.7851562,0.8203125 0.7851562,0.8789062 0,0.058594 -0.023437,0.1171875 -0.035156,0.1640625 z m 0,0"
       style="fill:#ec008c;fill-opacity:1;fill-rule:nonzero;stroke:none"
       aria-label="d"
       transform="matrix(1.3333333,0,0,1.3333333,46.821333,122.61867)" />
    <path
       id="path14"
       d="M 0,93.54497 H 81.07274"
       style="fill:none;stroke:#ec008c;stroke-width:0.3985;stroke-linecap:butt;stroke-linejoin:miter;stroke-miterlimit:10;stroke-dasharray:2.98883, 2.98883;stroke-dashoffset:0;stroke-opacity:1"
       transform="matrix(1.3333333,0,0,-1.3333333,58.848,242.732)" />
    <g
       id="g14"
       aria-label="x=g(y)"
       transform="matrix(1.3333333,0,0,1.3333333,66.661333,152.50933)">
      <path
         id="path15"
         d="m 3.3272422,-3.0128594 c 0.058594,-0.2578125 0.2929687,-1.171875 0.984375,-1.171875 0.046875,0 0.2929687,0 0.5039062,0.1289063 -0.28125,0.046875 -0.4804687,0.3046875 -0.4804687,0.5390625 0,0.1640625 0.1054687,0.3515625 0.375,0.3515625 0.2226562,0 0.5390625,-0.1875 0.5390625,-0.5859375 0,-0.515625 -0.5859375,-0.65625 -0.9257813,-0.65625 -0.5742187,0 -0.9257812,0.5273437 -1.0429687,0.7617187 -0.2578125,-0.65625 -0.7851563,-0.7617187 -1.078125,-0.7617187 -1.0429688,0 -1.60546876,1.2890625 -1.60546876,1.5351562 0,0.1054688 0.10546875,0.1054688 0.1171875,0.1054688 0.0820313,0 0.1171875,-0.023437 0.12890625,-0.1171875 0.33984371,-1.0546875 0.99609371,-1.3007813 1.33593751,-1.3007813 0.1875,0 0.5390625,0.09375 0.5390625,0.6679688 0,0.3046875 -0.1640625,0.9726562 -0.5390625,2.3671875 -0.1523438,0.62109373 -0.5039063,1.04296873 -0.9492188,1.04296873 -0.058594,0 -0.28124996,0 -0.49218746,-0.12890625 0.24609375,-0.0585937 0.46874996,-0.26953125 0.46874996,-0.5390625 0,-0.26953128 -0.22265621,-0.35156248 -0.37499996,-0.35156248 -0.29296875,0 -0.5390625,0.25781248 -0.5390625,0.57421873 0,0.45703125 0.4921875,0.65625 0.93749996,0.65625 0.65625,0 1.0078125,-0.69140625 1.0429688,-0.75 0.1171875,0.36328125 0.4804687,0.75 1.078125,0.75 1.0195312,0 1.59375,-1.27734373 1.59375,-1.53515623 0,-0.09375 -0.09375,-0.09375 -0.1289063,-0.09375 -0.082031,0 -0.1054687,0.035156 -0.1289062,0.1054687 -0.328125,1.06640628 -0.9960938,1.31250003 -1.3242188,1.31250003 -0.3867187,0 -0.5390625,-0.328125 -0.5390625,-0.65625 0,-0.22265625 0.058594,-0.44531253 0.1640625,-0.87890623 z m 0,0"
         style="fill:#eb0a36;fill-opacity:1;fill-rule:nonzero;stroke:none" />
      <path
         id="path16"
         d="m 15.306734,-3.2589531 c 0.152344,0 0.339844,0 0.339844,-0.1992188 0,-0.1992187 -0.1875,-0.1992187 -0.328125,-0.1992187 H 9.3536094 c -0.140625,0 -0.328125,0 -0.328125,0.1992187 0,0.1992188 0.1875,0.1992188 0.3398437,0.1992188 z m 0.01172,1.9335937 c 0.140625,0 0.328125,0 0.328125,-0.1992187 0,-0.1992188 -0.1875,-0.1992188 -0.339844,-0.1992188 H 9.3653281 c -0.1523437,0 -0.3398437,0 -0.3398437,0.1992188 0,0.1992187 0.1875,0.1992187 0.328125,0.1992187 z m 0,0"
         style="fill:#eb0a36;fill-opacity:1;fill-rule:nonzero;stroke:none" />
      <path
         id="path17"
         d="m 23.668063,-3.7511406 c 0.01172,-0.070312 0.03516,-0.1171875 0.03516,-0.1875 0,-0.1640625 -0.117188,-0.2695313 -0.292969,-0.2695313 -0.09375,0 -0.363281,0.070312 -0.410156,0.4335938 -0.175781,-0.375 -0.527344,-0.6328125 -0.925781,-0.6328125 -1.136719,0 -2.367188,1.3945312 -2.367188,2.8359375 0,0.98437498 0.609375,1.57031248 1.324219,1.57031248 0.585937,0 1.054687,-0.46875 1.160156,-0.57421875 l 0.01172,0.0117188 c -0.210938,0.87890625 -0.328125,1.2890625 -0.328125,1.3125 -0.04687,0.0820313 -0.386719,1.07812507 -1.441406,1.07812507 -0.1875,0 -0.515625,-0.011719 -0.796875,-0.1054688 0.304687,-0.09375 0.410156,-0.3515625 0.410156,-0.515625 0,-0.1640625 -0.105469,-0.35156252 -0.375,-0.35156252 -0.222656,0 -0.539063,0.17578132 -0.539063,0.57421882 0,0.4101562 0.363282,0.609375 1.324219,0.609375 1.242188,0 1.957031,-0.7734375 2.109375,-1.37109382 z M 22.379,-1.2784844 c -0.05859,0.2578125 -0.292969,0.51562503 -0.503906,0.70312503 -0.210938,0.17578125 -0.527344,0.3515625 -0.808594,0.3515625 -0.503906,0 -0.65625,-0.515625 -0.65625,-0.91406253 0,-0.4804687 0.292969,-1.6523437 0.5625,-2.15625 0.269531,-0.4921875 0.703125,-0.890625 1.113281,-0.890625 0.65625,0 0.796875,0.8085938 0.796875,0.8554688 0,0.046875 -0.01172,0.1054687 -0.02344,0.1523437 z m 0,0"
         style="fill:#eb0a36;fill-opacity:1;fill-rule:nonzero;stroke:none" />
      <path
         id="path18"
         d="m 27.374117,2.3894844 c 0,-0.035156 0,-0.046875 -0.164062,-0.2226563 -1.242188,-1.25390622 -1.570313,-3.12890622 -1.570313,-4.6640625 0,-1.7226562 0.386719,-3.4570312 1.605469,-4.7109375 0.128906,-0.1171875 0.128906,-0.1289062 0.128906,-0.1640625 0,-0.070312 -0.03516,-0.1054687 -0.09375,-0.1054687 -0.105469,0 -0.996094,0.6796875 -1.582031,1.9453125 -0.515625,1.1015625 -0.632813,2.203125 -0.632813,3.0351562 0,0.7851563 0.117188,1.99218753 0.65625,3.11718753 0.597657,1.21874997 1.453125,1.87499997 1.558594,1.87499997 0.05859,0 0.09375,-0.035156 0.09375,-0.1054687 z m 0,0"
         style="fill:#eb0a36;fill-opacity:1;fill-rule:nonzero;stroke:none" />
      <path
         id="path19"
         d="m 32.796969,-3.7980156 c 0.04687,-0.140625 0.04687,-0.1523438 0.04687,-0.2226563 0,-0.1875 -0.140625,-0.2695312 -0.292969,-0.2695312 -0.105469,0 -0.257812,0.058594 -0.351562,0.1992187 -0.02344,0.058594 -0.09375,0.3632813 -0.140625,0.5390625 -0.07031,0.2578125 -0.140625,0.5273438 -0.199219,0.796875 l -0.445313,1.79296878 c -0.03516,0.15234375 -0.46875,0.85546875 -1.125,0.85546875 -0.503906,0 -0.621093,-0.4453125 -0.621093,-0.80859375 0,-0.45703128 0.175781,-1.07812498 0.515625,-1.95703128 0.152343,-0.4101562 0.199218,-0.515625 0.199218,-0.7148437 0,-0.4453125 -0.328125,-0.8203125 -0.820312,-0.8203125 -0.949219,0 -1.3125,1.453125 -1.3125,1.5351562 0,0.1054688 0.09375,0.1054688 0.117187,0.1054688 0.09375,0 0.105469,-0.023437 0.152344,-0.1875 0.269531,-0.9375 0.667969,-1.2304688 1.007813,-1.2304688 0.08203,0 0.257812,0 0.257812,0.3164063 0,0.2460937 -0.105469,0.515625 -0.175781,0.703125 -0.398438,1.0546875 -0.574219,1.6171875 -0.574219,2.0859375 0,0.89062498 0.621094,1.18359373 1.21875,1.18359373 0.386719,0 0.726563,-0.1640625 0.996094,-0.4453125 -0.128906,0.515625 -0.246094,1.0078125 -0.644531,1.53515627 -0.257813,0.3398437 -0.632813,0.6328125 -1.089844,0.6328125 -0.140625,0 -0.597656,-0.035156 -0.761719,-0.421875 0.164063,0 0.292969,0 0.433594,-0.1171875 0.09375,-0.09375 0.199219,-0.2226563 0.199219,-0.41015627 0,-0.31640625 -0.269532,-0.3515625 -0.375,-0.3515625 -0.222657,0 -0.550782,0.1640625 -0.550782,0.64453127 0,0.5039062 0.433594,0.8671875 1.054688,0.8671875 1.019531,0 2.050781,-0.9023438 2.332031,-2.02734377 z m 0,0"
         style="fill:#eb0a36;fill-opacity:1;fill-rule:nonzero;stroke:none" />
      <path
         id="path20"
         d="m 36.084078,-2.4972344 c 0,-0.7734375 -0.117187,-1.9804687 -0.65625,-3.1054687 -0.597656,-1.21875 -1.464844,-1.875 -1.558594,-1.875 -0.05859,0 -0.105468,0.046875 -0.105468,0.1054687 0,0.035156 0,0.046875 0.199218,0.234375 0.972657,0.984375 1.535157,2.5664063 1.535157,4.640625 0,1.71093753 -0.363282,3.45703128 -1.59375,4.7226563 -0.140625,0.1171875 -0.140625,0.1289062 -0.140625,0.1640625 0,0.058594 0.04687,0.1054687 0.105468,0.1054687 0.09375,0 0.996094,-0.6796875 1.582032,-1.94531247 0.503906,-1.1015625 0.632812,-2.20312503 0.632812,-3.04687503 z m 0,0"
         style="fill:#eb0a36;fill-opacity:1;fill-rule:nonzero;stroke:none" />
    </g>
    <g
       id="g20"
       aria-label="x=f(y)"
       transform="matrix(1.3333333,0,0,1.3333333,199.08133,142.11467)">
      <path
         id="path21"
         d="m 3.3286484,-3.0127578 c 0.058594,-0.2578125 0.2929688,-1.171875 0.984375,-1.171875 0.046875,0 0.2929688,0 0.5039063,0.1289062 -0.28125,0.046875 -0.4804688,0.3046875 -0.4804688,0.5390625 0,0.1640625 0.1054688,0.3515625 0.375,0.3515625 0.2226563,0 0.5390625,-0.1875 0.5390625,-0.5859375 0,-0.515625 -0.5859375,-0.65625 -0.9257812,-0.65625 -0.5742188,0 -0.9257813,0.5273438 -1.0429688,0.7617188 -0.2578125,-0.65625 -0.7851562,-0.7617188 -1.078125,-0.7617188 -1.0429687,0 -1.60546871,1.2890625 -1.60546871,1.5351563 0,0.1054687 0.10546875,0.1054687 0.1171875,0.1054687 0.0820313,0 0.1171875,-0.023437 0.12890625,-0.1171875 0.33984376,-1.0546875 0.99609376,-1.3007812 1.33593746,-1.3007812 0.1875,0 0.5390625,0.09375 0.5390625,0.6679687 0,0.3046875 -0.1640625,0.9726563 -0.5390625,2.3671875 -0.1523437,0.62109379 -0.5039062,1.04296879 -0.9492187,1.04296879 -0.058594,0 -0.28125001,0 -0.49218751,-0.12890625 0.24609375,-0.0585937 0.46875001,-0.26953125 0.46875001,-0.5390625 0,-0.26953124 -0.22265626,-0.35156254 -0.37500001,-0.35156254 -0.29296875,0 -0.5390625,0.25781254 -0.5390625,0.57421879 0,0.45703125 0.4921875,0.65625 0.93750001,0.65625 0.65625,0 1.0078125,-0.69140625 1.0429687,-0.75 0.1171875,0.36328125 0.4804688,0.75 1.078125,0.75 1.0195313,0 1.59375,-1.27734379 1.59375,-1.53515629 0,-0.09375 -0.09375,-0.09375 -0.1289062,-0.09375 -0.082031,0 -0.1054688,0.035156 -0.1289063,0.1054688 -0.328125,1.06640624 -0.9960937,1.31249999 -1.3242187,1.31249999 -0.3867188,0 -0.5390625,-0.328125 -0.5390625,-0.65625 0,-0.22265625 0.058594,-0.44531249 0.1640625,-0.87890629 z m 0,0"
         style="fill:#008000;fill-opacity:1;fill-rule:nonzero;stroke:none" />
      <path
         id="path22"
         d="m 15.308141,-3.2588516 c 0.152343,0 0.339843,0 0.339843,-0.1992187 0,-0.1992188 -0.1875,-0.1992188 -0.328125,-0.1992188 H 9.3550156 c -0.140625,0 -0.328125,0 -0.328125,0.1992188 0,0.1992187 0.1875,0.1992187 0.3398438,0.1992187 z m 0.01172,1.9335938 c 0.140625,0 0.328125,0 0.328125,-0.1992188 0,-0.1992187 -0.1875,-0.1992187 -0.339843,-0.1992187 H 9.3667344 c -0.1523438,0 -0.3398438,0 -0.3398438,0.1992187 0,0.1992188 0.1875,0.1992188 0.328125,0.1992188 z m 0,0"
         style="fill:#008000;fill-opacity:1;fill-rule:nonzero;stroke:none" />
      <path
         id="path23"
         d="m 22.638219,-3.9854141 h 0.855469 c 0.199218,0 0.304687,0 0.304687,-0.1992187 0,-0.1054688 -0.105469,-0.1054688 -0.269531,-0.1054688 h -0.832031 l 0.210937,-1.1367187 c 0.03516,-0.2109375 0.175781,-0.9140625 0.234375,-1.0429688 0.09375,-0.1875 0.257813,-0.3398437 0.46875,-0.3398437 0.04687,0 0.304688,0 0.492188,0.1875 -0.433594,0.035156 -0.539063,0.3867187 -0.539063,0.5390625 0,0.2226562 0.175781,0.3398437 0.363281,0.3398437 0.269532,0 0.550782,-0.2109375 0.550782,-0.5976562 0,-0.4570313 -0.457032,-0.6796875 -0.867188,-0.6796875 -0.339844,0 -0.960937,0.1757812 -1.265625,1.1601562 -0.05859,0.2109375 -0.08203,0.3164063 -0.328125,1.5703125 h -0.679687 c -0.199219,0 -0.304688,0 -0.304688,0.1875 0,0.1171875 0.09375,0.1171875 0.28125,0.1171875 h 0.65625 l -0.75,3.93750004 c -0.175781,0.9609375 -0.339844,1.87499996 -0.867187,1.87499996 -0.03516,0 -0.28125,0 -0.46875,-0.1875 0.457031,-0.023437 0.539062,-0.3867187 0.539062,-0.5390625 0,-0.22265621 -0.175781,-0.33984371 -0.363281,-0.33984371 -0.257813,0 -0.550781,0.2109375 -0.550781,0.59765621 0,0.4453125 0.433593,0.6796875 0.84375,0.6796875 0.550781,0 0.949218,-0.5859375 1.125,-0.9609375 0.328125,-0.63281246 0.550781,-1.83984371 0.5625,-1.91015621 z m 0,0"
         style="fill:#008000;fill-opacity:1;fill-rule:nonzero;stroke:none" />
      <path
         id="path24"
         d="m 28.219273,2.3895859 c 0,-0.035156 0,-0.046875 -0.164062,-0.2226562 -1.242188,-1.25390626 -1.570313,-3.12890626 -1.570313,-4.6640625 0,-1.7226563 0.386719,-3.4570313 1.605469,-4.7109375 0.128906,-0.1171875 0.128906,-0.1289063 0.128906,-0.1640625 0,-0.070312 -0.03516,-0.1054688 -0.09375,-0.1054688 -0.105468,0 -0.996093,0.6796875 -1.582031,1.9453125 -0.515625,1.1015625 -0.632812,2.203125 -0.632812,3.0351563 0,0.7851562 0.117187,1.99218749 0.65625,3.11718749 0.597656,1.21875001 1.453125,1.87500001 1.558593,1.87500001 0.05859,0 0.09375,-0.035156 0.09375,-0.1054688 z m 0,0"
         style="fill:#008000;fill-opacity:1;fill-rule:nonzero;stroke:none" />
      <path
         id="path25"
         d="m 33.639195,-3.7979141 c 0.04687,-0.140625 0.04687,-0.1523437 0.04687,-0.2226562 0,-0.1875 -0.140625,-0.2695313 -0.292968,-0.2695313 -0.105469,0 -0.257813,0.058594 -0.351563,0.1992188 -0.02344,0.058594 -0.09375,0.3632812 -0.140625,0.5390625 -0.07031,0.2578125 -0.140625,0.5273437 -0.199219,0.796875 l -0.445312,1.79296874 c -0.03516,0.15234375 -0.46875,0.85546875 -1.125,0.85546875 -0.503906,0 -0.621094,-0.4453125 -0.621094,-0.80859375 0,-0.45703124 0.175781,-1.07812504 0.515625,-1.95703124 0.152344,-0.4101563 0.199219,-0.515625 0.199219,-0.7148438 0,-0.4453125 -0.328125,-0.8203125 -0.820313,-0.8203125 -0.949218,0 -1.3125,1.453125 -1.3125,1.5351563 0,0.1054687 0.09375,0.1054687 0.117188,0.1054687 0.09375,0 0.105469,-0.023437 0.152344,-0.1875 0.269531,-0.9375 0.667968,-1.2304687 1.007812,-1.2304687 0.08203,0 0.257813,0 0.257813,0.3164062 0,0.2460938 -0.105469,0.515625 -0.175782,0.703125 -0.398437,1.0546875 -0.574218,1.6171875 -0.574218,2.0859375 0,0.89062504 0.621093,1.18359379 1.21875,1.18359379 0.386718,0 0.726562,-0.1640625 0.996093,-0.4453125 -0.128906,0.515625 -0.246093,1.0078125 -0.644531,1.53515621 -0.257812,0.3398438 -0.632812,0.6328125 -1.089844,0.6328125 -0.140625,0 -0.597656,-0.035156 -0.761718,-0.421875 0.164062,0 0.292968,0 0.433593,-0.1171875 0.09375,-0.09375 0.199219,-0.2226562 0.199219,-0.41015621 0,-0.31640625 -0.269531,-0.3515625 -0.375,-0.3515625 -0.222656,0 -0.550781,0.1640625 -0.550781,0.64453121 0,0.5039063 0.433594,0.8671875 1.054687,0.8671875 1.019532,0 2.050782,-0.9023437 2.332032,-2.02734371 z m 0,0"
         style="fill:#008000;fill-opacity:1;fill-rule:nonzero;stroke:none" />
      <path
         id="path26"
         d="m 36.926305,-2.4971328 c 0,-0.7734375 -0.117188,-1.9804688 -0.65625,-3.1054688 -0.597657,-1.21875 -1.464844,-1.875 -1.558594,-1.875 -0.05859,0 -0.105469,0.046875 -0.105469,0.1054688 0,0.035156 0,0.046875 0.199219,0.234375 0.972656,0.984375 1.535156,2.5664062 1.535156,4.640625 0,1.71093749 -0.363281,3.45703124 -1.59375,4.7226562 -0.140625,0.1171875 -0.140625,0.1289063 -0.140625,0.1640625 0,0.058594 0.04687,0.1054688 0.105469,0.1054688 0.09375,0 0.996094,-0.6796875 1.582031,-1.94531251 0.503906,-1.1015625 0.632813,-2.20312499 0.632813,-3.04687499 z m 0,0"
         style="fill:#008000;fill-opacity:1;fill-rule:nonzero;stroke:none" />
    </g>
    <path
       id="path27"
       d="m 1.9562578,-1.2530234 c -0.4453125,0.72656246 -0.8671875,0.87890621 -1.34765624,0.91406246 -0.12890625,0.0117188 -0.22265625,0.0117188 -0.22265625,0.22265625 0,0.05859375 0.046875,0.1171875025 0.140625,0.1171875025 0.29296875,0 0.63281249,-0.0351562525 0.93749999,-0.0351562525 0.3515625,0 0.7382813,0.0351562525 1.0898438,0.0351562525 0.058594,0 0.2109375,0 0.2109375,-0.2109375025 0,-0.1171875 -0.1054688,-0.12890625 -0.1757813,-0.12890625 -0.2578125,-0.0234375 -0.515625,-0.10546875 -0.515625,-0.375 0,-0.140625 0.058594,-0.2578125 0.1523438,-0.41015626 l 0.8320312,-1.3945312 h 2.7304688 c 0.023437,0.2226562 0.1757812,1.71093746 0.1757812,1.81640621 0,0.328125 -0.5625,0.36328125 -0.7851562,0.36328125 -0.1523438,0 -0.2578125,0 -0.2578125,0.22265625 0,0.1171875025 0.1289062,0.1171875025 0.1523437,0.1171875025 0.4453125,0 0.9140625,-0.0351562525 1.359375,-0.0351562525 0.28125,0 0.9609375,0.0351562525 1.2304688,0.0351562525 0.070312,0 0.1992187,0 0.1992187,-0.2226562525 0,-0.1171875 -0.1054687,-0.1171875 -0.2460937,-0.1171875 -0.6796875,0 -0.6796875,-0.0703125 -0.7148438,-0.38671875 l -0.65625,-6.82031251 c -0.023437,-0.2226562 -0.023437,-0.2695312 -0.2109375,-0.2695312 -0.1757812,0 -0.2226562,0.082031 -0.28125,0.1875 z m 1.3007813,-1.6054688 2.15625,-3.5976562 0.3515625,3.5976562 z m 0,0"
       style="fill:#0000ff;fill-opacity:0.5;fill-rule:nonzero;stroke:none"
       aria-label="A"
       transform="matrix(1.3333333,0,0,1.3333333,136.544,185.33867)" />
  </g>
</svg>
