<?xml version="1.0" encoding="UTF-8" standalone="no"?>
<!-- Created with Inkscape (http://www.inkscape.org/) -->

<svg
   version="1.1"
   id="svg1"
   width="328.03125"
   height="256.35944"
   viewBox="0 0 328.03125 256.35944"
   sodipodi:docname="6.1-ejemplo-recta-parabola.svg"
   inkscape:version="1.4.2 (f4327f4, 2025-05-13)"
   xmlns:inkscape="http://www.inkscape.org/namespaces/inkscape"
   xmlns:sodipodi="http://sodipodi.sourceforge.net/DTD/sodipodi-0.dtd"
   xmlns="http://www.w3.org/2000/svg"
   xmlns:svg="http://www.w3.org/2000/svg">
  <defs
     id="defs1" />
  <sodipodi:namedview
     id="namedview1"
     pagecolor="#ffffff"
     bordercolor="#000000"
     borderopacity="0.25"
     inkscape:showpageshadow="2"
     inkscape:pageopacity="0.0"
     inkscape:pagecheckerboard="0"
     inkscape:deskcolor="#d1d1d1"
     inkscape:zoom="2.2241536"
     inkscape:cx="198.95209"
     inkscape:cy="137.35562"
     inkscape:window-width="1920"
     inkscape:window-height="1009"
     inkscape:window-x="-8"
     inkscape:window-y="-8"
     inkscape:window-maximized="1"
     inkscape:current-layer="g1">
    <inkscape:page
       x="0"
       y="0"
       inkscape:label="8"
       id="page1"
       width="328.03125"
       height="256.35944"
       margin="0"
       bleed="0" />
  </sodipodi:namedview>
  <g
     id="g1"
     inkscape:groupmode="layer"
     inkscape:label="8"
     transform="translate(-43.035156,-44.003906)">
    <path
       id="path2"
       d="M -69.44937,0 H 158.28314"
       style="fill:none;stroke:#000000;stroke-width:0.3985;stroke-linecap:butt;stroke-linejoin:miter;stroke-miterlimit:10;stroke-dasharray:none;stroke-opacity:1"
       transform="matrix(1.3333333,0,0,-1.3333333,155.89867,207.464)" />
    <path
       id="path3"
       d="M -1.19551,1.59401 C -1.09587,0.99626 0,0.09961 0.29886,0 0,-0.09961 -1.09587,-0.99626 -1.19551,-1.59401"
       style="fill:none;stroke:#000000;stroke-width:0.31879;stroke-linecap:round;stroke-linejoin:round;stroke-miterlimit:10;stroke-dasharray:none;stroke-opacity:1"
       transform="matrix(1.3333333,0,0,-1.3333333,366.94285,207.464)" />
    <path
       id="path4"
       d="m 3.6444297,-3.2930859 c 0.070312,-0.28125 0.3164062,-1.2890625 1.078125,-1.2890625 0.058594,0 0.3164062,0 0.5507812,0.140625 -0.3046875,0.058594 -0.5273437,0.328125 -0.5273437,0.5859375 0,0.1757812 0.1171875,0.3867187 0.4101562,0.3867187 0.2460938,0 0.5976563,-0.1992187 0.5976563,-0.6328125 0,-0.5625 -0.6445313,-0.7265625 -1.0195313,-0.7265625 -0.6328125,0 -1.0195312,0.5859375 -1.1484375,0.8320313 -0.2695312,-0.7148438 -0.8554687,-0.8320313 -1.171875,-0.8320313 -1.1367187,0 -1.75781246,1.4179688 -1.75781246,1.6875 0,0.1054688 0.10546875,0.1054688 0.12890625,0.1054688 0.0820313,0 0.1171875,-0.023437 0.140625,-0.1171875 0.37500001,-1.1601563 1.08984371,-1.4296875 1.46484371,-1.4296875 0.2109375,0 0.5859375,0.09375 0.5859375,0.7265625 0,0.3398437 -0.1875,1.078125 -0.5859375,2.6015625 -0.1757812,0.67968746 -0.5625,1.13671871 -1.0429687,1.13671871 -0.058594,0 -0.3164063,0 -0.53906251,-0.140625 0.26953121,-0.0585938 0.51562501,-0.29296875 0.51562501,-0.59765625 0,-0.29296876 -0.2460938,-0.37499996 -0.41015626,-0.37499996 -0.328125,0 -0.59765625,0.28124996 -0.59765625,0.63281246 0,0.50390625 0.55078125,0.71484375 1.03125001,0.71484375 0.7148437,0 1.1015625,-0.76171875 1.1367187,-0.83203125 0.1289063,0.41015625 0.5273438,0.83203125 1.1835938,0.83203125 1.125,0 1.7460937,-1.40625001 1.7460937,-1.67578121 0,-0.1054688 -0.1054687,-0.1054688 -0.1289062,-0.1054688 -0.1054688,0 -0.1289063,0.035156 -0.140625,0.1171875 -0.3632813,1.16015626 -1.1132813,1.42968751 -1.453125,1.42968751 -0.4335938,0 -0.609375,-0.3515625 -0.609375,-0.7265625 0,-0.23437501 0.070312,-0.48046871 0.1875,-0.96093751 z m 0,0"
       style="fill:#000000;fill-opacity:1;fill-rule:nonzero;stroke:none"
       aria-label="x"
       transform="matrix(1.3333333,0,0,1.3333333,363.39467,218.84)" />
    <path
       id="path5"
       d="m 0,-59.52802 v 178.1258"
       style="fill:none;stroke:#000000;stroke-width:0.3985;stroke-linecap:butt;stroke-linejoin:miter;stroke-miterlimit:10;stroke-dasharray:none;stroke-opacity:1"
       transform="matrix(1.3333333,0,0,-1.3333333,155.89867,207.464)" />
    <path
       id="path6"
       d="M -1.19551,1.59401 C -1.09587,0.99626 0,0.09961 0.29886,0 0,-0.09961 -1.09587,-0.99626 -1.19551,-1.59401"
       style="fill:none;stroke:#000000;stroke-width:0.31879;stroke-linecap:round;stroke-linejoin:round;stroke-miterlimit:10;stroke-dasharray:none;stroke-opacity:1"
       transform="matrix(0,-1.3333333,-1.3333333,0,155.89867,49.333627)" />
    <path
       id="path7"
       d="m 5.2955547,-4.1601016 c 0.046875,-0.1523437 0.046875,-0.1757812 0.046875,-0.2460937 0,-0.1992188 -0.1523438,-0.2929688 -0.3164063,-0.2929688 -0.1054687,0 -0.28125,0.058594 -0.375,0.2226563 -0.023437,0.058594 -0.1171875,0.3984375 -0.1523437,0.5976562 -0.082031,0.28125 -0.1523438,0.5742188 -0.2226563,0.8671875 l -0.4921875,1.96875 c -0.046875,0.16406254 -0.515625,0.92578129 -1.2304687,0.92578129 -0.5625,0 -0.6796875,-0.48046875 -0.6796875,-0.89062499 0,-0.4921875 0.1875,-1.171875 0.5625,-2.1328125 0.1757812,-0.4453125 0.2109375,-0.5742188 0.2109375,-0.7851563 0,-0.4921875 -0.3515625,-0.9023437 -0.890625,-0.9023437 -1.04296876,0 -1.44140626,1.5820312 -1.44140626,1.6875 0,0.1054687 0.10546875,0.1054687 0.12890625,0.1054687 0.10546875,0 0.1171875,-0.023437 0.17578125,-0.1992187 0.29296875,-1.0195313 0.72656246,-1.3476563 1.10156246,-1.3476563 0.09375,0 0.2695313,0 0.2695313,0.3515625 0,0.2695313 -0.1054688,0.5507813 -0.1757813,0.7617188 -0.4453125,1.1601562 -0.6328125,1.78125 -0.6328125,2.2851562 0,0.97265629 0.6796875,1.30078129 1.3242188,1.30078129 0.421875,0 0.796875,-0.1875 1.1015625,-0.4921875 -0.140625,0.57421875 -0.2695313,1.1015625 -0.703125,1.68750001 -0.2929688,0.3632812 -0.703125,0.6796875 -1.2070313,0.6796875 -0.1523437,0 -0.6445312,-0.023437 -0.83203121,-0.4570313 0.17578121,0 0.31640621,0 0.48046871,-0.1289062 0.1054688,-0.09375 0.2109375,-0.234375 0.2109375,-0.44531251 0,-0.33984375 -0.2929687,-0.38671875 -0.3984375,-0.38671875 -0.25781246,0 -0.60937496,0.17578125 -0.60937496,0.71484376 0,0.5390625 0.48046876,0.9492187 1.14843746,0.9492187 1.125,0 2.25,-0.9960937 2.5546875,-2.22656246 z m 0,0"
       style="fill:#000000;fill-opacity:1;fill-rule:nonzero;stroke:none"
       aria-label="y"
       transform="matrix(1.3333333,0,0,1.3333333,143.13067,50.441333)" />
    <path
       id="path8"
       d="m 141.37907,89.29204 -3.12826,-0.69789 -3.10376,-0.69789 -3.07921,-0.69791 -3.0547,-0.69789 -3.03018,-0.69791 -3.00536,-0.69789 -2.98111,-0.69791 -2.95631,-0.69789 -2.93207,-0.69789 -2.90724,-0.69791 -2.88274,-0.69789 -2.8582,-0.69789 -2.83397,-0.69789 -2.80914,-0.69791 -2.78464,-0.69788 -2.7598,-0.6979 -2.73556,-0.6979 -2.71104,-0.69791 -2.68653,-0.69789 -2.6617,-0.6979 -2.63748,-0.6979 -2.61264,-0.6979 -2.58844,-0.69788 -2.56359,-0.69791 -2.53939,-0.69789 -2.51454,-0.69791 -2.49002,-0.69787 -2.4655,-0.69791 -2.44097,-0.69791 -2.41645,-0.69789 -2.39193,-0.6979 -2.3671,-0.69789 -2.34287,-0.69791 -2.31835,-0.69789 -2.29353,-0.69789 -2.2693,-0.69791 -2.24446,-0.69789 -2.22026,-0.69789 -2.19544,-0.69789 -2.17088,-0.69791 -2.14636,-0.69789 -2.12188,-0.69789 -2.0973,-0.69791 -2.0728,-0.69791 -2.04829,-0.69789 -2.02375,-0.69789 -1.9992,-0.6979 -1.97441,-0.6979 L 16.96024,55.0951 15.03458,54.39719 13.13377,53.6993 11.25746,53.0014 9.4054,52.30351 7.57814,51.6056 5.77542,50.90771 3.99722,50.20982 2.24355,49.5119 0.5144,48.81401 -1.19019,48.11612 -2.8703,47.41823 l -1.65556,-0.69791 -1.63076,-0.6979 -1.60652,-0.69788 -1.58169,-0.69791 -1.55748,-0.69789 -1.53266,-0.69791 -1.50842,-0.69787 -1.4836,-0.69791 -1.45907,-0.6979 -1.43456,-0.69791 -1.41002,-0.69789 -1.38549,-0.69789 -1.36098,-0.69791 -1.33644,-0.69789 -1.31194,-0.69789 -1.28709,-0.69791 -1.26287,-0.69789 -1.23835,-0.69789 -1.21353,-0.69789 -1.189,-0.69791 -1.16477,-0.69789 -1.13995,-0.69789 -1.11542,-0.69792 -1.09091,-0.69789 -1.06637,-0.69789 -1.04186,-0.6979 -1.0173,-0.6979 -0.99281,-0.6979 -0.96828,-0.69789 -0.94376,-0.6979 -0.91891,-0.69789 -0.89472,-0.69789 -0.86987,-0.6979 -0.84564,-0.6979 -0.82083,-0.69791 -0.7963,-0.69789 -0.77208,-0.69791 -0.74725,-0.69789 -0.72272,-0.6979 -0.69821,-0.69788 -0.67366,-0.69791 -0.64915,-0.6979 -0.62432,-0.69789 -0.60011,-0.6979 -0.57557,-0.69789 -0.55074,-0.6979 -0.52654,-0.69789 -0.50169,-0.6979 -0.47747,-0.69792 -0.45265,-0.69789 -0.42813,-0.69789 -0.40361,-0.69789 L -56.787,10.42967 -57.14185,9.73178 -57.47157,9.03389 -57.77707,8.33598 -58.05803,7.63809 -58.3145,6.9402 -58.54643,6.24231 -58.75351,5.5444 -58.9364,4.84651 -59.09445,4.1486 l -0.13382,-0.6979 -0.109,-0.6979 -0.08447,-0.69788 -0.05996,-0.69789 -0.03542,-0.69791 -0.0109,-0.69785 0.01362,-0.6979 0.03816,-0.69789 0.06268,-0.6979 0.08719,-0.6979 0.11172,-0.69789 0.13654,-0.69789 0.16078,-0.69791 0.18561,-0.69791 0.20982,-0.69789 0.23465,-0.69789 0.25917,-0.6979 0.28371,-0.6979 0.30791,-0.69789 0.33306,-0.69789 0.35697,-0.69791 0.38211,-0.69791 0.40632,-0.69787 0.43085,-0.69791 0.45537,-0.69789 0.48021,-0.69792 0.50441,-0.69789 0.52926,-0.69789 0.55347,-0.69791 0.5783,-0.69789 0.60253,-0.69789 0.62734,-0.69789 0.65187,-0.69791 0.67641,-0.69789 0.70093,-0.69789 0.72545,-0.69791 0.74998,-0.69789 0.7748,-0.69789 0.79872,-0.69791 0.82385,-0.6979 0.84808,-0.69789 0.8729,-0.69789 0.89711,-0.69791 0.92196,-0.69789 0.94617,-0.69789 0.9713,-0.69789 0.99523,-0.69791 1.02035,-0.69789 1.04428,-0.6979 1.0694,-0.6979 1.09332,-0.69789 1.11845,-0.69791 1.14267,-0.69789 1.1675,-0.69791 1.19142,-0.6979 1.21684,-0.69788 1.24048,-0.6979 1.26592,-0.6979 1.28982,-0.6979 1.31465,-0.69788 1.33887,-0.69791 1.364,-0.6979 1.38793,-0.69789 1.41305,-0.69789 1.43696,-0.69791 1.46212,-0.69791 1.48631,-0.69789 1.51116,-0.69789 1.53506,-0.69791 1.5605,-0.69789 1.58412,-0.69789 1.60954,-0.69789 1.63318,-0.69791 1.65862,-0.69789 1.68251,-0.69789 1.70761,-0.69791 1.73158,-0.69789"
       style="fill:none;stroke:#eb0a36;stroke-width:0.79701;stroke-linecap:butt;stroke-linejoin:miter;stroke-miterlimit:10;stroke-dasharray:none;stroke-opacity:1"
       transform="matrix(1.3333333,0,0,-1.3333333,155.89867,207.464)" />
    <path
       id="path9"
       d="m 128.9774,109.13472 -0.89712,-0.89711 -0.89713,-0.89713 -0.89711,-0.89712 -0.89714,-0.89713 -0.89711,-0.89712 -0.89712,-0.89714 -0.89713,-0.89711 -0.89712,-0.89713 -0.89712,-0.89711 -0.89712,-0.89714 -0.89714,-0.89711 -0.89713,-0.89712 -0.89711,-0.89713 -0.89714,-0.89712 -0.89711,-0.89713 -0.89712,-0.89711 -0.89711,-0.89714 -0.89714,-0.89712 -0.89711,-0.89711 -0.89713,-0.89714 -0.89712,-0.89711 -0.89713,-0.89713 -0.89712,-0.89711 -0.89711,-0.89714 -0.89714,-0.89711 -0.89712,-0.89713 -0.89712,-0.89714 -0.89712,-0.89711 -0.89713,-0.89712 -0.89711,-0.89711 L 101.1666,81.3239 100.26945,80.42679 99.37233,79.52966 98.47522,78.63254 97.57808,77.73541 96.68097,76.83829 95.78384,75.94116 94.88673,75.04404 93.9896,74.14691 93.09248,73.2498 92.19536,72.35266 91.29822,71.45555 90.4011,70.55843 89.50398,69.66132 88.60686,68.76418 87.70973,67.86705 86.8126,66.96992 85.9155,66.0728 85.01837,65.17569 84.12125,64.27856 83.22412,63.38145 82.327,62.48431 81.42987,61.5872 80.53275,60.69008 79.63564,59.79294 78.73851,58.89583 77.84138,57.9987 76.94426,57.10158 76.04715,56.20445 75.15001,55.30733 74.2529,54.41022 73.35577,53.51309 72.45865,52.61597 71.56151,51.71884 70.6644,50.82173 69.76727,49.92459 68.87015,49.02747 67.97302,48.13034 67.07591,47.23323 66.17879,46.33609 65.28166,45.43898 64.38454,44.54187 63.48741,43.64473 62.59029,42.74762 61.69316,41.8505 60.79605,40.95337 59.89893,40.05623 59.0018,39.15912 58.10468,38.262 57.20757,37.36487 56.31042,36.46774 55.4133,35.57063 54.51617,34.67351 53.61906,33.77638 52.72192,32.87926 51.82481,31.98213 50.92769,31.08499 50.03056,30.18788 49.13344,29.29076 48.23633,28.39365 47.3392,27.4965 46.44206,26.5994 45.54495,25.70227 44.64783,24.80515 43.75069,23.90802 42.85358,23.01091 41.95647,22.11378 41.05934,21.21664 40.16222,20.31953 39.26509,19.42241 38.36797,18.52528 37.47084,17.62816 36.57372,16.73105 35.67659,15.83392 34.77948,14.9368 33.88234,14.03967 32.98523,13.14255 32.0881,12.2454 31.19098,11.3483 30.29385,10.45117 29.39674,9.55406 28.49962,8.65692 27.60248,7.75981 26.70535,6.86269 25.80824,5.96556 24.9111,5.06844 24.01399,4.17131 23.11687,3.27419 22.21976,2.37706 21.32263,1.47995 20.4255,0.58282 19.52838,-0.31427 18.63124,-1.21138 17.73413,-2.1085 16.837,-3.00563 15.9399,-3.90276 15.04276,-4.79988 14.14565,-5.69699 13.24852,-6.59413 12.3514,-7.49124 11.45427,-8.38837 10.55714,-9.28548 9.66003,-10.18262 8.7629,-11.07974 7.86577,-11.97687 6.96866,-12.874 6.07153,-13.77112 5.17441,-14.66823 4.27728,-15.56535 3.38017,-16.46248 2.48303,-17.3596 1.58592,-18.25671 0.6888,-19.15384 l -0.89708,-0.89714 -0.89713,-0.89711 -0.89712,-0.89712 -0.89711,-0.89713 -0.89714,-0.89713 -0.89713,-0.89711 -0.89711,-0.89712 -0.89712,-0.89713 -0.89714,-0.89712 -0.89712,-0.89713 -0.89712,-0.89712 -0.89712,-0.89713 -0.89713,-0.89712 -0.89711,-0.89711 -0.89712,-0.89714 -0.89713,-0.89711 -0.89713,-0.89713 -0.89712,-0.89712 -0.89714,-0.89713 -0.89711,-0.89711 -0.89713,-0.89712 -0.89711,-0.89714 -0.89713,-0.89713 -0.89712,-0.89711 -0.89711,-0.89712 -0.89714,-0.89713 -0.89713,-0.89711 -0.89712,-0.89712 -0.89711,-0.89713 -0.89714,-0.89713 -0.89711,-0.89712 -0.89712,-0.89714 -0.89713,-0.89711 -0.89712,-0.89713 -0.89711,-0.89711 -0.89713,-0.89714 -0.89714,-0.89711 -0.89713,-0.89712 -0.89711,-0.89713 -0.89713,-0.89712 -0.89712,-0.89713 -0.89712,-0.89712 -0.89711,-0.89713 -0.89714,-0.89712 -0.89711,-0.89711 -0.89713,-0.89714 -0.89714,-0.89711 -0.89711,-0.89713 -0.89712,-0.89711 -0.89711,-0.89714 -0.89714,-0.89711 -0.89711,-0.89712 -0.89713,-0.89715 -0.89712,-0.89711 -0.89713,-0.89712 -0.89711,-0.89711"
       style="fill:none;stroke:#008080;stroke-width:0.79701;stroke-linecap:butt;stroke-linejoin:miter;stroke-miterlimit:10;stroke-dasharray:none;stroke-opacity:1"
       transform="matrix(1.3333333,0,0,-1.3333333,155.89867,207.464)" />
    <path
       id="path10"
       d="M 99.2134,79.37071 98.01106,78.16838 96.80875,76.96606 95.60641,75.76373 94.4041,74.56143 93.20177,73.3591 91.99945,72.15677 90.79713,70.95447 89.59482,69.75214 88.3925,68.54982 87.19019,67.34749 85.98785,66.14517 84.78554,64.94284 83.58322,63.74054 82.38089,62.53821 81.17857,61.3359 79.97624,60.13358 78.77393,58.93126 77.57161,57.72893 76.3693,56.5266 75.16698,55.3243 73.96466,54.12196 72.76233,52.91965 71.56001,51.71732 70.35768,50.51501 69.15536,49.31268 67.95305,48.11038 66.75072,46.90805 65.5484,45.70573 64.34608,44.5034 63.14377,43.30109 61.94144,42.09875 60.73912,40.89642 59.5368,39.69412 58.33449,38.49179 57.13216,37.28949 55.92984,36.08716 54.72751,34.88484 53.5252,33.68251 52.32288,32.48021 51.12056,31.27788 49.91824,30.07556 48.71591,28.87323 47.5136,27.67091 46.31126,26.4686 45.10895,25.26627 43.90663,24.06395 42.70432,22.86163 41.50198,21.65932 40.29968,20.45699 39.09735,19.25467 37.89503,18.05234 36.69272,16.85004 35.49039,15.6477 34.28807,14.44539 33.08574,13.24307 31.88342,12.04076 30.68109,10.83842 29.47879,9.63611 28.27646,8.43379 27.07416,7.23146 25.87183,6.02914 24.66951,4.82681 23.46718,3.6245 22.26486,2.42218 21.06255,1.21986 19.86021,0.01753 18.6579,-1.18474 17.45557,-2.38707 16.25327,-3.58937 15.05093,-4.7917 13.84863,-5.994 12.6463,-7.19633 11.44398,-8.39867 10.24165,-9.60098 9.03934,-10.80331 7.837,-12.00563 6.63469,-13.20796 5.43237,-14.41026 4.23006,-15.6126 3.02774,-16.8149 1.82541,-18.01723 0.6231,-19.21954 l -1.2023,-1.20234 -1.2023,-1.2023 -1.20233,-1.20232 -1.20231,-1.20234 -1.20233,-1.20232 -1.20232,-1.20233 -1.20233,-1.2023 -1.20232,-1.20233 -1.20231,-1.2023 -1.20232,-1.20233 -1.20232,-1.20232 -1.20233,-1.20233 -1.20231,-1.20232 -1.20234,-1.20233 -1.2023,-1.2023 -1.20233,-1.20233 -1.20231,-1.20233 -0.02636,-0.02634 -2.3686,1.20232 -2.29505,1.20233 -2.22296,1.20233 -2.14942,1.20232 -2.07702,1.20233 -2.00346,1.2023 -1.9314,1.20233 -1.85814,1.2023 -1.78546,1.20233 -1.71251,1.20232 -1.63983,1.20233 -1.56654,1.20232 -1.49421,1.20231 -1.42091,1.20232 -1.34857,1.20233 -1.2753,1.20233 -1.20262,1.2023 -1.12966,1.20234 -1.05699,1.20231 -0.98401,1.20232 -0.91134,1.20232 -0.83809,1.20233 -0.76574,1.20231 -0.69244,1.20233 -0.61976,1.20232 -0.54682,1.20232 -0.47415,1.20231 -0.40118,1.20232 -0.32851,1.20232 -0.25525,1.20233 -0.18286,1.20233 -0.1096,1.20232 -0.03695,1.20231 0.03572,1.20227 0.1087,1.20233 0.18167,1.20232 0.25431,1.20233 0.32732,1.20231 0.40025,1.20232 0.47295,1.20232 0.54591,1.20232 0.61887,1.20231 0.69154,1.20233 0.76421,1.20234 0.83747,1.20231 0.90984,1.20232 0.98311,1.20231 1.05577,1.20234 1.12876,1.20231 1.20141,1.20232 1.27439,1.20232 1.34735,1.20231 1.42001,1.20232 1.49298,1.20233 1.56566,1.20232 1.6386,1.20233 1.7116,1.20233 1.78424,1.2023 1.85723,1.20233 1.9302,1.20232 2.00286,1.20231 2.07553,1.20232 2.1488,1.20233 2.22146,1.20232 2.29412,1.20231 2.3674,1.20232 2.43976,1.20233 2.51303,1.20232 2.58571,1.20233 2.65836,1.20232 2.73164,1.20231 2.804,1.20232 2.87728,1.20231 2.9499,1.20234 3.0229,1.20231 3.09558,1.20234 3.16854,1.20231 3.24151,1.20232 3.31418,1.20231 3.38684,1.20233 3.46013,1.20231 3.53276,1.20232 3.60546,1.20234 3.6787,1.2023 3.7511,1.20233 3.82436,1.20232 3.89702,1.20233 3.96999,1.20232 4.04266,1.20233 4.11562,1.2023 4.1883,1.20233 4.26125,1.2023 4.33423,1.20233 4.40719,1.20232 4.47986,1.20233 4.55254,1.20233 4.62548,1.2023 4.69848,1.20233 4.77144,1.20232 z"
       style="fill:#9999ff;fill-opacity:0.25;fill-rule:nonzero;stroke:none"
       transform="matrix(1.3333333,0,0,-1.3333333,155.89867,207.464)" />
    <path
       id="path11"
       d="M 0,-39.68535 H -19.84267"
       style="fill:none;stroke:#ec008c;stroke-width:0.3985;stroke-linecap:butt;stroke-linejoin:miter;stroke-miterlimit:10;stroke-dasharray:2.98883, 2.98883;stroke-dashoffset:0;stroke-opacity:1"
       transform="matrix(1.3333333,0,0,-1.3333333,155.89867,207.464)" />
    <path
       id="path12"
       d="M 0,79.37071 H 99.2134"
       style="fill:none;stroke:#ec008c;stroke-width:0.3985;stroke-linecap:butt;stroke-linejoin:miter;stroke-miterlimit:10;stroke-dasharray:2.98883, 2.98883;stroke-dashoffset:0;stroke-opacity:1"
       transform="matrix(1.3333333,0,0,-1.3333333,155.89867,207.464)" />
    <path
       id="path13"
       d="m -18.85048,-39.68535 c 0,0.54798 -0.44422,0.99219 -0.99219,0.99219 -0.54797,0 -0.99218,-0.44421 -0.99218,-0.99219 0,-0.54797 0.44421,-0.99219 0.99218,-0.99219 0.54797,0 0.99219,0.44422 0.99219,0.99219 z"
       style="fill:#eb0a36;fill-opacity:1;fill-rule:nonzero;stroke:#eb0a36;stroke-width:0.3985;stroke-linecap:butt;stroke-linejoin:miter;stroke-miterlimit:10;stroke-dasharray:none;stroke-opacity:1"
       transform="matrix(1.3333333,0,0,-1.3333333,155.89867,207.464)" />
    <path
       id="path14"
       d="m 100.20558,79.37071 c 0,0.54796 -0.44421,0.99219 -0.99218,0.99219 -0.54798,0 -0.9922,-0.44423 -0.9922,-0.99219 0,-0.54797 0.44422,-0.99219 0.9922,-0.99219 0.54797,0 0.99218,0.44422 0.99218,0.99219 z"
       style="fill:#eb0a36;fill-opacity:1;fill-rule:nonzero;stroke:#eb0a36;stroke-width:0.3985;stroke-linecap:butt;stroke-linejoin:miter;stroke-miterlimit:10;stroke-dasharray:none;stroke-opacity:1"
       transform="matrix(1.3333333,0,0,-1.3333333,155.89867,207.464)" />
    <g
       id="g14"
       aria-label="y&#10;2&#10;=2x+6"
       transform="matrix(1.3333333,0,0,1.3333333,42.642667,264.492)">
      <path
         id="path15"
         d="m 4.8412422,-3.7967344 c 0.046875,-0.140625 0.046875,-0.1523437 0.046875,-0.2226562 0,-0.1875 -0.140625,-0.2695313 -0.2929688,-0.2695313 -0.1054687,0 -0.2578125,0.058594 -0.3515625,0.1992188 -0.023437,0.058594 -0.09375,0.3632812 -0.140625,0.5390625 -0.070312,0.2578125 -0.140625,0.5273437 -0.1992187,0.796875 l -0.4453125,1.79296872 c -0.035156,0.15234375 -0.46875,0.85546875 -1.125,0.85546875 -0.5039063,0 -0.6210938,-0.4453125 -0.6210938,-0.80859375 0,-0.45703122 0.1757813,-1.07812502 0.515625,-1.95703122 0.1523438,-0.4101563 0.1992188,-0.515625 0.1992188,-0.7148438 0,-0.4453125 -0.328125,-0.8203125 -0.8203125,-0.8203125 -0.94921876,0 -1.31250001,1.453125 -1.31250001,1.5351563 0,0.1054687 0.09375,0.1054687 0.1171875,0.1054687 0.09375,0 0.10546875,-0.023437 0.15234375,-0.1875 0.26953125,-0.9375 0.66796876,-1.2304687 1.00781246,-1.2304687 0.082031,0 0.2578125,0 0.2578125,0.3164062 0,0.2460938 -0.1054687,0.515625 -0.1757812,0.703125 -0.3984375,1.0546875 -0.5742188,1.6171875 -0.5742188,2.0859375 0,0.89062502 0.6210938,1.18359377 1.21875,1.18359377 0.3867188,0 0.7265625,-0.1640625 0.9960938,-0.4453125 -0.1289063,0.515625 -0.2460938,1.0078125 -0.6445313,1.53515623 -0.2578125,0.3398438 -0.6328125,0.6328125 -1.0898437,0.6328125 -0.140625,0 -0.59765626,-0.035156 -0.76171876,-0.421875 0.1640625,0 0.29296876,0 0.43359376,-0.1171875 0.09375,-0.09375 0.1992187,-0.2226562 0.1992187,-0.41015623 0,-0.31640625 -0.2695312,-0.3515625 -0.375,-0.3515625 -0.22265621,0 -0.55078121,0.1640625 -0.55078121,0.64453123 0,0.5039063 0.43359375,0.8671875 1.05468751,0.8671875 1.0195312,0 2.0507812,-0.9023437 2.3320312,-2.02734373 z m 0,0"
         style="fill:#eb0a36;fill-opacity:1;fill-rule:nonzero;stroke:none" />
      <path
         id="path16"
         d="m 8.7582344,-4.8807188 h -0.234375 c -0.023437,0.1523438 -0.082031,0.5625 -0.1757813,0.6328125 C 8.2894844,-4.21275 7.7504219,-4.21275 7.6566719,-4.21275 H 6.3676094 c 0.7382812,-0.6445313 0.984375,-0.84375 1.3945312,-1.171875 0.515625,-0.4101563 0.9960938,-0.84375 0.9960938,-1.5 0,-0.84375 -0.7382813,-1.359375 -1.6289063,-1.359375 -0.8671875,0 -1.453125,0.609375 -1.453125,1.2421875 0,0.3632812 0.3046875,0.3984375 0.375,0.3984375 0.1640625,0 0.375,-0.1171875 0.375,-0.375 0,-0.1289063 -0.058594,-0.3632813 -0.421875,-0.3632813 0.2226563,-0.5039062 0.6914063,-0.65625 1.0195313,-0.65625 0.703125,0 1.0664062,0.5507813 1.0664062,1.1132813 0,0.609375 -0.4335937,1.0898437 -0.65625,1.3359375 l -1.6875,1.6640625 c -0.070312,0.058594 -0.070312,0.070312 -0.070312,0.2695312 h 2.8828125 z m 0,0"
         style="fill:#eb0a36;fill-opacity:1;fill-rule:nonzero;stroke:none" />
      <path
         id="path17"
         d="m 19.322688,-3.2576719 c 0.152343,0 0.339843,0 0.339843,-0.1992187 0,-0.1992188 -0.1875,-0.1992188 -0.328125,-0.1992188 h -5.964843 c -0.140625,0 -0.328125,0 -0.328125,0.1992188 0,0.1992187 0.1875,0.1992187 0.339843,0.1992187 z m 0.01172,1.9335938 c 0.140625,0 0.328125,0 0.328125,-0.1992188 0,-0.1992187 -0.1875,-0.1992187 -0.339843,-0.1992187 h -5.941407 c -0.152343,0 -0.339843,0 -0.339843,0.1992187 0,0.1992188 0.1875,0.1992188 0.328125,0.1992188 z m 4.927735,0.56249997 1.054687,-1.03124997 c 1.558594,-1.3710938 2.15625,-1.9101563 2.15625,-2.90625 0,-1.1367188 -0.902344,-1.9335938 -2.121094,-1.9335938 -1.125,0 -1.851562,0.9140625 -1.851562,1.8046875 0,0.5507813 0.492187,0.5507813 0.527344,0.5507813 0.164062,0 0.515625,-0.1171875 0.515625,-0.5273438 0,-0.2578125 -0.1875,-0.515625 -0.527344,-0.515625 -0.08203,0 -0.105469,0 -0.128906,0.011719 0.222656,-0.6445313 0.761718,-1.0195313 1.335937,-1.0195313 0.914063,0 1.335938,0.8085938 1.335938,1.6289063 0,0.796875 -0.492188,1.5820312 -1.042969,2.203125 l -1.910156,2.13281247 c -0.105469,0.10546875 -0.105469,0.12890625 -0.105469,0.363281255 H 27.19183 L 27.47308,-1.7342342 h -0.257812 c -0.04687,0.3046875 -0.117188,0.73828127 -0.210938,0.89062502 -0.07031,0.0820313 -0.726562,0.0820313 -0.949219,0.0820313 z m 0,0"
         style="fill:#eb0a36;fill-opacity:1;fill-rule:nonzero;stroke:none" />
      <path
         id="path18"
         d="m 31.308039,-3.0115781 c 0.05859,-0.2578125 0.292969,-1.171875 0.984375,-1.171875 0.04687,0 0.292969,0 0.503906,0.1289062 -0.28125,0.046875 -0.480468,0.3046875 -0.480468,0.5390625 0,0.1640625 0.105468,0.3515625 0.375,0.3515625 0.222656,0 0.539062,-0.1875 0.539062,-0.5859375 0,-0.515625 -0.585937,-0.65625 -0.925781,-0.65625 -0.574219,0 -0.925781,0.5273438 -1.042969,0.7617188 -0.257812,-0.65625 -0.785156,-0.7617188 -1.078125,-0.7617188 -1.042969,0 -1.605469,1.2890625 -1.605469,1.5351563 0,0.1054687 0.105469,0.1054687 0.117188,0.1054687 0.08203,0 0.117187,-0.023437 0.128906,-0.1171875 0.339844,-1.0546875 0.996094,-1.3007812 1.335938,-1.3007812 0.1875,0 0.539062,0.09375 0.539062,0.6679687 0,0.3046875 -0.164062,0.9726563 -0.539062,2.3671875 -0.152344,0.62109377 -0.503907,1.04296877 -0.949219,1.04296877 -0.05859,0 -0.28125,0 -0.492188,-0.12890625 0.246094,-0.0585938 0.46875,-0.26953125 0.46875,-0.5390625 0,-0.26953122 -0.222656,-0.35156252 -0.375,-0.35156252 -0.292968,0 -0.539062,0.25781252 -0.539062,0.57421877 0,0.45703125 0.492187,0.65625 0.9375,0.65625 0.65625,0 1.007812,-0.69140625 1.042969,-0.75 0.117187,0.36328125 0.480468,0.75 1.078125,0.75 1.019531,0 1.59375,-1.27734377 1.59375,-1.53515627 0,-0.09375 -0.09375,-0.09375 -0.128907,-0.09375 -0.08203,0 -0.105468,0.035156 -0.128906,0.1054688 -0.328125,1.06640622 -0.996094,1.31249997 -1.324219,1.31249997 -0.386718,0 -0.539062,-0.328125 -0.539062,-0.65625 0,-0.22265625 0.05859,-0.44531247 0.164062,-0.87890627 z m 0,0"
         style="fill:#eb0a36;fill-opacity:1;fill-rule:nonzero;stroke:none" />
      <path
         id="path19"
         d="m 39.962336,-2.2967344 h 2.777344 c 0.140625,0 0.328125,0 0.328125,-0.1992187 0,-0.1992188 -0.1875,-0.1992188 -0.328125,-0.1992188 h -2.777344 v -2.7890625 c 0,-0.1289062 0,-0.328125 -0.199219,-0.328125 -0.199219,0 -0.199219,0.1992188 -0.199219,0.328125 v 2.7890625 h -2.789062 c -0.140625,0 -0.328125,0 -0.328125,0.1992188 0,0.1992187 0.1875,0.1992187 0.328125,0.1992187 h 2.789062 v 2.80078127 c 0,0.12890625 0,0.328125 0.199219,0.328125 0.199219,0 0.199219,-0.19921875 0.199219,-0.328125 z m 7.195312,-0.9726562 v -0.234375 c 0,-2.5195313 1.242188,-2.8828125 1.746094,-2.8828125 0.234375,0 0.65625,0.058594 0.878906,0.3984375 -0.152343,0 -0.550781,0 -0.550781,0.4453125 0,0.3164062 0.234375,0.4570312 0.457031,0.4570312 0.164063,0 0.457032,-0.082031 0.457032,-0.46875 0,-0.5976562 -0.433594,-1.078125 -1.265625,-1.078125 -1.277344,0 -2.613282,1.2890625 -2.613282,3.4804688 0,2.66015622 1.148438,3.37499997 2.074219,3.37499997 1.113281,0 2.050781,-0.9375 2.050781,-2.24999997 0,-1.265625 -0.878906,-2.2265625 -1.992187,-2.2265625 -0.667969,0 -1.042969,0.5039062 -1.242188,0.984375 z m 1.183594,3.21093747 c -0.621094,0 -0.925781,-0.59765625 -0.984375,-0.75 -0.175781,-0.46874997 -0.175781,-1.26562497 -0.175781,-1.44140627 0,-0.7734375 0.316406,-1.7695312 1.21875,-1.7695312 0.152344,0 0.609375,0 0.925781,0.609375 0.175781,0.375 0.175781,0.8789062 0.175781,1.3710937 0,0.4804688 0,0.9726563 -0.164062,1.33593752 -0.304688,0.59765625 -0.761719,0.64453125 -0.996094,0.64453125 z m 0,0"
         style="fill:#eb0a36;fill-opacity:1;fill-rule:nonzero;stroke:none" />
    </g>
    <g
       id="g19"
       aria-label="y=x−1"
       transform="matrix(1.3333333,0,0,1.3333333,234.14,173.41333)">
      <path
         id="path20"
         d="m 4.8403125,-3.7963281 c 0.046875,-0.140625 0.046875,-0.1523438 0.046875,-0.2226563 0,-0.1875 -0.140625,-0.2695312 -0.2929687,-0.2695312 -0.1054688,0 -0.2578125,0.058594 -0.3515625,0.1992187 -0.023437,0.058594 -0.09375,0.3632813 -0.140625,0.5390625 -0.070312,0.2578125 -0.140625,0.5273438 -0.1992188,0.796875 L 3.4575,-0.96039062 c -0.035156,0.15234375 -0.46875,0.85546875 -1.125,0.85546875 -0.5039062,0 -0.6210937,-0.4453125 -0.6210937,-0.80859375 0,-0.45703128 0.1757812,-1.07812498 0.515625,-1.95703128 0.1523437,-0.4101562 0.1992187,-0.515625 0.1992187,-0.7148437 0,-0.4453125 -0.328125,-0.8203125 -0.8203125,-0.8203125 -0.94921875,0 -1.3125,1.453125 -1.3125,1.5351562 0,0.1054688 0.09375,0.1054688 0.1171875,0.1054688 0.09375,0 0.10546875,-0.023437 0.15234375,-0.1875 0.26953125,-0.9375 0.66796875,-1.2304688 1.00781255,-1.2304688 0.082031,0 0.2578125,0 0.2578125,0.3164063 0,0.2460937 -0.1054688,0.515625 -0.1757813,0.703125 -0.3984375,1.0546875 -0.5742187,1.6171875 -0.5742187,2.0859375 0,0.89062498 0.6210937,1.18359373 1.21875,1.18359373 0.3867187,0 0.7265625,-0.1640625 0.9960937,-0.4453125 -0.1289062,0.515625 -0.2460937,1.0078125 -0.6445312,1.53515627 -0.2578125,0.3398437 -0.6328125,0.6328125 -1.0898438,0.6328125 -0.140625,0 -0.59765625,-0.035156 -0.76171875,-0.421875 0.1640625,0 0.29296875,0 0.43359375,-0.1171875 0.09375,-0.09375 0.1992188,-0.2226563 0.1992188,-0.41015627 0,-0.31640625 -0.2695313,-0.3515625 -0.375,-0.3515625 -0.2226563,0 -0.5507813,0.1640625 -0.5507813,0.64453127 0,0.5039062 0.43359375,0.8671875 1.0546875,0.8671875 1.0195313,0 2.0507813,-0.9023438 2.3320313,-2.02734377 z m 0,0"
         style="fill:#008080;fill-opacity:1;fill-rule:nonzero;stroke:none" />
      <path
         id="path21"
         d="m 14.856914,-3.2572656 c 0.152344,0 0.339844,0 0.339844,-0.1992188 0,-0.1992187 -0.1875,-0.1992187 -0.328125,-0.1992187 H 8.9037891 c -0.140625,0 -0.328125,0 -0.328125,0.1992187 0,0.1992188 0.1875,0.1992188 0.3398437,0.1992188 z m 0.01172,1.9335937 c 0.140625,0 0.328125,0 0.328125,-0.1992187 0,-0.1992188 -0.1875,-0.1992188 -0.339844,-0.1992188 H 8.9155078 c -0.1523437,0 -0.3398437,0 -0.3398437,0.1992188 0,0.1992187 0.1875,0.1992187 0.328125,0.1992187 z m 0,0"
         style="fill:#008080;fill-opacity:1;fill-rule:nonzero;stroke:none" />
      <path
         id="path22"
         d="m 21.850078,-3.0111719 c 0.05859,-0.2578125 0.292969,-1.171875 0.984375,-1.171875 0.04687,0 0.292969,0 0.503906,0.1289063 -0.28125,0.046875 -0.480468,0.3046875 -0.480468,0.5390625 0,0.1640625 0.105468,0.3515625 0.375,0.3515625 0.222656,0 0.539062,-0.1875 0.539062,-0.5859375 0,-0.515625 -0.585937,-0.65625 -0.925781,-0.65625 -0.574219,0 -0.925781,0.5273437 -1.042969,0.7617187 -0.257812,-0.65625 -0.785156,-0.7617187 -1.078125,-0.7617187 -1.042969,0 -1.605469,1.2890625 -1.605469,1.5351562 0,0.1054688 0.105469,0.1054688 0.117188,0.1054688 0.08203,0 0.117187,-0.023437 0.128906,-0.1171875 0.339844,-1.0546875 0.996094,-1.3007813 1.335938,-1.3007813 0.1875,0 0.539062,0.09375 0.539062,0.6679688 0,0.3046875 -0.164062,0.9726562 -0.539062,2.3671875 -0.152344,0.62109373 -0.503907,1.04296873 -0.949219,1.04296873 -0.05859,0 -0.28125,0 -0.492188,-0.12890625 0.246094,-0.0585937 0.46875,-0.26953125 0.46875,-0.5390625 0,-0.26953128 -0.222656,-0.35156248 -0.375,-0.35156248 -0.292968,0 -0.539062,0.25781248 -0.539062,0.57421873 0,0.45703125 0.492187,0.65625 0.9375,0.65625 0.65625,0 1.007812,-0.69140625 1.042969,-0.75 0.117187,0.36328125 0.480468,0.75 1.078125,0.75 1.019531,0 1.59375,-1.27734373 1.59375,-1.53515623 0,-0.09375 -0.09375,-0.09375 -0.128907,-0.09375 -0.08203,0 -0.105468,0.035156 -0.128906,0.1054687 -0.328125,1.06640628 -0.996094,1.31250003 -1.324219,1.31250003 -0.386718,0 -0.539062,-0.328125 -0.539062,-0.65625 0,-0.22265625 0.05859,-0.44531253 0.164062,-0.87890623 z m 0,0"
         style="fill:#008080;fill-opacity:1;fill-rule:nonzero;stroke:none" />
      <path
         id="path23"
         d="m 33.000469,-2.2963281 c 0.175781,0 0.351562,0 0.351562,-0.1992188 0,-0.1992187 -0.175781,-0.1992187 -0.351562,-0.1992187 h -5.390625 c -0.164063,0 -0.339844,0 -0.339844,0.1992187 0,0.1992188 0.175781,0.1992188 0.339844,0.1992188 z m 0,0"
         style="fill:#008080;fill-opacity:1;fill-rule:nonzero;stroke:none" />
      <path
         id="path24"
         d="m 39.325664,-6.3744531 c 0,-0.234375 0,-0.2578125 -0.234375,-0.2578125 -0.609375,0.6328125 -1.488281,0.6328125 -1.804687,0.6328125 v 0.3164062 c 0.199218,0 0.785156,0 1.300781,-0.2578125 v 5.15625003 c 0,0.3515625 -0.03516,0.48046875 -0.925781,0.48046875 H 37.345195 V 5.46875e-4 c 0.351563,-0.035156245 1.207032,-0.035156245 1.605469,-0.035156245 0.398438,0 1.265625,0 1.617188,0.035156245 V -0.30414062 h -0.316407 c -0.902343,0 -0.925781,-0.1171875 -0.925781,-0.48046875 z m 0,0"
         style="fill:#008080;fill-opacity:1;fill-rule:nonzero;stroke:none" />
    </g>
    <path
       id="path25"
       d="m 3.2107266,-1.8045234 v 0.94921871 c 0,0.3984375 -0.023437,0.515625 -0.8320313,0.515625 H 2.1443203 V 1.640625e-4 C 2.6013516,-0.03499219 3.1638516,-0.03499219 3.6208828,-0.03499219 c 0.4570313,0 1.0429688,0 1.4882813,0.0351562525 V -0.33967969 h -0.234375 c -0.8085938,0 -0.8320313,-0.1171875 -0.8320313,-0.515625 V -1.8045234 h 1.1015625 v -0.328125 H 4.0427578 v -4.96875 c 0,-0.2226563 0,-0.28125 -0.1640625,-0.28125 -0.1054687,0 -0.140625,0 -0.2226562,0.1289062 l -3.35156254,5.1210938 v 0.328125 z m 0.058594,-0.328125 H 0.60916406 l 2.66015624,-4.078125 z m 0,0"
       style="fill:#ec008c;fill-opacity:1;fill-rule:nonzero;stroke:none"
       aria-label="4"
       transform="matrix(1.3333333,0,0,1.3333333,143.512,106.324)" />
    <g
       id="g25"
       aria-label="−2"
       transform="matrix(1.3333333,0,0,1.3333333,161.012,264.45733)">
      <path
         id="path26"
         d="m 7.1951016,-2.5080391 c 0.1757812,0 0.375,0 0.375,-0.2226562 0,-0.2109375 -0.1992188,-0.2109375 -0.375,-0.2109375 h -5.90625 c -0.1875,0 -0.38671879,0 -0.38671879,0.2109375 0,0.2226562 0.19921879,0.2226562 0.38671879,0.2226562 z m 0,0"
         style="fill:#ec008c;fill-opacity:1;fill-rule:nonzero;stroke:none" />
      <path
         id="path27"
         d="M 9.8669766,-0.84397656 11.027133,-1.9689766 c 1.699219,-1.5 2.355469,-2.0859375 2.355469,-3.1757812 0,-1.2539063 -0.984375,-2.1210938 -2.308594,-2.1210938 -1.2421877,0 -2.0390627,1.0078125 -2.0390627,1.96875 0,0.6210938 0.5390625,0.6210938 0.5742188,0.6210938 0.1875,0 0.5624999,-0.140625 0.5624999,-0.5859375 0,-0.28125 -0.1874999,-0.5625 -0.5742187,-0.5625 -0.082031,0 -0.1054687,0 -0.140625,0.011719 0.2460938,-0.7148437 0.8437497,-1.1132812 1.4765627,-1.1132812 0.984375,0 1.453125,0.8789062 1.453125,1.78125 0,0.8671875 -0.539063,1.734375 -1.136719,2.4023437 l -2.0976562,2.34375004 c -0.1171875,0.1171875 -0.1171875,0.140625 -0.1171875,0.3984374975 H 13.077914 L 13.382602,-1.8986641 H 13.11307 c -0.05859,0.328125 -0.128906,0.8085938 -0.246093,0.97265629 -0.07031,0.0820313 -0.796875,0.0820313 -1.03125,0.0820313 z m 0,0"
         style="fill:#ec008c;fill-opacity:1;fill-rule:nonzero;stroke:none" />
    </g>
  </g>
</svg>
