<?xml version="1.0" encoding="UTF-8" standalone="no"?>
<!-- Created with Inkscape (http://www.inkscape.org/) -->

<svg
   version="1.1"
   id="svg1"
   width="178.69009"
   height="140.78183"
   viewBox="0 0 178.69009 140.78183"
   sodipodi:docname="6.2-semicircunferencia.svg"
   inkscape:version="1.4.2 (f4327f4, 2025-05-13)"
   xmlns:inkscape="http://www.inkscape.org/namespaces/inkscape"
   xmlns:sodipodi="http://sodipodi.sourceforge.net/DTD/sodipodi-0.dtd"
   xmlns="http://www.w3.org/2000/svg"
   xmlns:svg="http://www.w3.org/2000/svg">
  <defs
     id="defs1" />
  <sodipodi:namedview
     id="namedview1"
     pagecolor="#ffffff"
     bordercolor="#000000"
     borderopacity="0.25"
     inkscape:showpageshadow="2"
     inkscape:pageopacity="0.0"
     inkscape:pagecheckerboard="0"
     inkscape:deskcolor="#d1d1d1"
     inkscape:zoom="2.2241536"
     inkscape:cx="198.50248"
     inkscape:cy="91.04587"
     inkscape:window-width="1920"
     inkscape:window-height="1009"
     inkscape:window-x="-8"
     inkscape:window-y="-8"
     inkscape:window-maximized="1"
     inkscape:current-layer="g1">
    <inkscape:page
       x="1.0884045e-06"
       y="9.4717086e-07"
       inkscape:label="13"
       id="page1"
       width="178.69009"
       height="140.78183"
       margin="0"
       bleed="0" />
  </sodipodi:namedview>
  <g
     id="g1"
     inkscape:groupmode="layer"
     inkscape:label="13"
     transform="translate(-43.753906,-90.191405)">
    <path
       id="path2"
       d="M -51.0239,0 H 76.07758"
       style="fill:none;stroke:#000000;stroke-width:0.3985;stroke-linecap:butt;stroke-linejoin:miter;stroke-miterlimit:10;stroke-dasharray:none;stroke-opacity:1"
       transform="matrix(1.3333333,0,0,-1.3333333,115.47333,196.95733)" />
    <path
       id="path3"
       d="M -1.19551,1.59401 C -1.09587,0.99626 0,0.09961 0.29886,0 0,-0.09961 -1.09587,-0.99626 -1.19551,-1.59401"
       style="fill:none;stroke:#000000;stroke-width:0.31879;stroke-linecap:round;stroke-linejoin:round;stroke-miterlimit:10;stroke-dasharray:none;stroke-opacity:1"
       transform="matrix(1.3333333,0,0,-1.3333333,216.91011,196.95733)" />
    <path
       id="path4"
       d="m 3.6439922,-3.2939453 c 0.070312,-0.28125 0.3164062,-1.2890625 1.078125,-1.2890625 0.058594,0 0.3164062,0 0.5507812,0.140625 -0.3046875,0.058594 -0.5273437,0.328125 -0.5273437,0.5859375 0,0.1757812 0.1171875,0.3867187 0.4101562,0.3867187 0.2460938,0 0.5976563,-0.1992187 0.5976563,-0.6328125 0,-0.5625 -0.6445313,-0.7265625 -1.0195313,-0.7265625 -0.6328125,0 -1.0195312,0.5859375 -1.1484375,0.8320313 -0.2695312,-0.7148438 -0.8554687,-0.8320313 -1.171875,-0.8320313 -1.1367187,0 -1.75781246,1.4179688 -1.75781246,1.6875 0,0.1054688 0.10546875,0.1054688 0.12890625,0.1054688 0.0820313,0 0.1171875,-0.023437 0.140625,-0.1171875 0.37500001,-1.1601563 1.08984371,-1.4296875 1.46484371,-1.4296875 0.2109375,0 0.5859375,0.09375 0.5859375,0.7265625 0,0.3398437 -0.1875,1.078125 -0.5859375,2.6015625 -0.1757812,0.67968749 -0.5625,1.13671874 -1.0429687,1.13671874 -0.058594,0 -0.3164063,0 -0.53906251,-0.140625 0.26953121,-0.0585938 0.51562501,-0.29296875 0.51562501,-0.59765625 0,-0.29296879 -0.2460938,-0.37499999 -0.41015626,-0.37499999 -0.328125,0 -0.59765625,0.28124999 -0.59765625,0.63281249 0,0.50390625 0.55078125,0.71484375 1.03125001,0.71484375 0.7148437,0 1.1015625,-0.76171875 1.1367187,-0.83203125 0.1289063,0.41015625 0.5273438,0.83203125 1.1835938,0.83203125 1.125,0 1.7460937,-1.40625004 1.7460937,-1.67578124 0,-0.1054688 -0.1054687,-0.1054688 -0.1289062,-0.1054688 -0.1054688,0 -0.1289063,0.035156 -0.140625,0.1171875 -0.3632813,1.16015629 -1.1132813,1.42968754 -1.453125,1.42968754 -0.4335938,0 -0.609375,-0.3515625 -0.609375,-0.7265625 0,-0.23437504 0.070312,-0.48046874 0.1875,-0.96093754 z m 0,0"
       style="fill:#000000;fill-opacity:1;fill-rule:nonzero;stroke:none"
       aria-label="x"
       transform="matrix(1.3333333,0,0,1.3333333,213.364,208.33333)" />
    <path
       id="path5"
       d="M 0,-25.51193 V 76.07758"
       style="fill:none;stroke:#000000;stroke-width:0.3985;stroke-linecap:butt;stroke-linejoin:miter;stroke-miterlimit:10;stroke-dasharray:none;stroke-opacity:1"
       transform="matrix(1.3333333,0,0,-1.3333333,115.47333,196.95733)" />
    <path
       id="path6"
       d="M -1.19551,1.59401 C -1.09587,0.99626 0,0.09961 0.29886,0 0,-0.09961 -1.09587,-0.99626 -1.19551,-1.59401"
       style="fill:none;stroke:#000000;stroke-width:0.31879;stroke-linecap:round;stroke-linejoin:round;stroke-miterlimit:10;stroke-dasharray:none;stroke-opacity:1"
       transform="matrix(0,-1.3333333,-1.3333333,0,115.47333,95.52056)" />
    <path
       id="path7"
       d="m 5.2971484,-4.1594766 c 0.046875,-0.1523437 0.046875,-0.1757812 0.046875,-0.2460937 0,-0.1992188 -0.1523437,-0.2929688 -0.3164062,-0.2929688 -0.1054688,0 -0.28125,0.058594 -0.375,0.2226563 -0.023437,0.058594 -0.1171875,0.3984375 -0.1523438,0.5976562 -0.082031,0.28125 -0.1523437,0.5742188 -0.2226562,0.8671875 l -0.4921875,1.96875 c -0.046875,0.16406254 -0.515625,0.92578129 -1.2304688,0.92578129 -0.5625,0 -0.6796875,-0.48046875 -0.6796875,-0.89062499 0,-0.4921875 0.1875,-1.171875 0.5625,-2.1328125 0.1757813,-0.4453125 0.2109375,-0.5742188 0.2109375,-0.7851563 0,-0.4921875 -0.3515625,-0.9023437 -0.890625,-0.9023437 -1.04296871,0 -1.44140621,1.5820312 -1.44140621,1.6875 0,0.1054687 0.10546875,0.1054687 0.12890625,0.1054687 0.10546875,0 0.1171875,-0.023437 0.17578125,-0.1992187 0.29296875,-1.0195313 0.72656251,-1.3476563 1.10156251,-1.3476563 0.09375,0 0.2695312,0 0.2695312,0.3515625 0,0.2695313 -0.1054687,0.5507813 -0.1757812,0.7617188 -0.4453125,1.1601562 -0.6328125,1.78125 -0.6328125,2.2851562 0,0.97265629 0.6796875,1.30078129 1.3242187,1.30078129 0.421875,0 0.796875,-0.1875 1.1015625,-0.4921875 -0.140625,0.57421875 -0.2695312,1.1015625 -0.703125,1.68750001 -0.2929687,0.3632812 -0.703125,0.6796875 -1.2070312,0.6796875 -0.1523438,0 -0.6445313,-0.023437 -0.83203126,-0.4570313 0.17578126,0 0.31640626,0 0.48046876,-0.1289062 0.1054687,-0.09375 0.2109375,-0.234375 0.2109375,-0.44531251 0,-0.33984375 -0.2929688,-0.38671875 -0.3984375,-0.38671875 -0.25781251,0 -0.60937501,0.17578125 -0.60937501,0.71484376 0,0.5390625 0.48046871,0.9492187 1.14843751,0.9492187 1.125,0 2.25,-0.9960937 2.5546875,-2.22656246 z m 0,0"
       style="fill:#000000;fill-opacity:1;fill-rule:nonzero;stroke:none"
       aria-label="y"
       transform="matrix(1.3333333,0,0,1.3333333,102.70667,96.628)" />
    <path
       id="path8"
       d="M 38.26791,0 C 38.26791,21.13504 21.13504,38.26791 0,38.26791 -21.13504,38.26791 -38.26791,21.13504 -38.26791,0"
       style="fill:none;stroke:#eb0a36;stroke-width:0.79701;stroke-linecap:butt;stroke-linejoin:miter;stroke-miterlimit:10;stroke-dasharray:none;stroke-opacity:1"
       transform="matrix(1.3333333,0,0,-1.3333333,115.47333,196.95733)" />
    <path
       id="path9"
       d="m 0.8779375,-0.58614062 c -0.0351563,0.15234375 -0.09375,0.375 -0.09375,0.421875 0,0.1875 0.140625,0.26953125 0.2929688,0.26953125 0.1171875,0 0.2929687,-0.0703125 0.3632812,-0.26953125 0.023437,-0.046875 0.3632813,-1.39453128 0.3984375,-1.58203128 0.082031,-0.328125 0.2578125,-1.0195312 0.3164063,-1.2890625 0.046875,-0.1289062 0.328125,-0.5976562 0.5625,-0.8203125 0.082031,-0.070312 0.375,-0.328125 0.796875,-0.328125 0.2578125,0 0.4101562,0.1171875 0.421875,0.1171875 -0.3046875,0.046875 -0.515625,0.2929688 -0.515625,0.5507813 0,0.1640625 0.1054687,0.3515625 0.375,0.3515625 0.2695312,0 0.5507812,-0.234375 0.5507812,-0.5859375 0,-0.3515625 -0.328125,-0.65625 -0.8320312,-0.65625 -0.6445313,0 -1.0898438,0.4921875 -1.2773438,0.7734375 -0.082031,-0.4570313 -0.4335937,-0.7734375 -0.9023437,-0.7734375 -0.4570313,0 -0.6445313,0.3867187 -0.7382813,0.5742187 C 0.42090625,-3.4923906 0.292,-2.8947344 0.292,-2.8712969 c 0,0.1054688 0.09375,0.1054688 0.1171875,0.1054688 0.09375,0 0.10546875,-0.011719 0.1640625,-0.234375 0.17578125,-0.703125 0.375,-1.1835938 0.7265625,-1.1835938 0.1757813,0 0.3164063,0.082031 0.3164063,0.4570313 0,0.2109375 -0.035156,0.3164062 -0.1640625,0.8320312 z m 0,0"
       style="fill:#000000;fill-opacity:1;fill-rule:nonzero;stroke:none"
       aria-label="r"
       transform="matrix(1.3333333,0,0,1.3333333,171.61067,207.78933)" />
    <g
       id="g9"
       aria-label="−r"
       transform="matrix(1.3333333,0,0,1.3333333,42.642667,209.81867)">
      <path
         id="path10"
         d="m 6.5638984,-2.2956406 c 0.1757813,0 0.3515625,0 0.3515625,-0.1992188 0,-0.1992187 -0.1757812,-0.1992187 -0.3515625,-0.1992187 h -5.390625 c -0.1640625,0 -0.33984371,0 -0.33984371,0.1992187 0,0.1992188 0.17578121,0.1992188 0.33984371,0.1992188 z m 0,0"
         style="fill:#000000;fill-opacity:1;fill-rule:nonzero;stroke:none" />
      <path
         id="path11"
         d="m 8.6263984,-0.58470312 c -0.035156,0.15234375 -0.09375,0.375 -0.09375,0.421875 0,0.1875 0.140625,0.26953125 0.2929688,0.26953125 0.1171875,0 0.2929687,-0.0703125 0.3632812,-0.26953125 0.023437,-0.046875 0.3632813,-1.39453128 0.3984375,-1.58203128 0.082031,-0.328125 0.2578125,-1.0195312 0.3164063,-1.2890625 0.046875,-0.1289062 0.3281248,-0.5976562 0.5624998,-0.8203125 0.08203,-0.070312 0.375,-0.328125 0.796875,-0.328125 0.257813,0 0.410156,0.1171875 0.421875,0.1171875 -0.304687,0.046875 -0.515625,0.2929688 -0.515625,0.5507813 0,0.1640625 0.105469,0.3515625 0.375,0.3515625 0.269531,0 0.550781,-0.234375 0.550781,-0.5859375 0,-0.3515625 -0.328125,-0.65625 -0.832031,-0.65625 -0.644531,0 -1.089844,0.4921875 -1.2773436,0.7734375 -0.082031,-0.4570313 -0.4335937,-0.7734375 -0.9023437,-0.7734375 -0.4570313,0 -0.6445313,0.3867187 -0.7382813,0.5742187 -0.1757812,0.3398438 -0.3046875,0.9375 -0.3046875,0.9609375 0,0.1054688 0.09375,0.1054688 0.1171875,0.1054688 0.09375,0 0.1054688,-0.011719 0.1640625,-0.234375 0.1757813,-0.703125 0.375,-1.1835938 0.7265625,-1.1835938 0.1757813,0 0.3164063,0.082031 0.3164063,0.4570313 0,0.2109375 -0.035156,0.3164062 -0.1640625,0.8320312 z m 0,0"
         style="fill:#000000;fill-opacity:1;fill-rule:nonzero;stroke:none" />
    </g>
    <path
       id="path12"
       d="m -38.26791,0 0.77273,7.66531 0.77271,3.12089 0.77273,2.33257 0.77272,1.95186 0.77272,1.68949 0.77272,1.50027 0.77274,1.35782 0.77274,1.24025 0.7727,1.14293 0.77272,1.06157 0.77274,0.98761 0.77272,0.92648 0.77273,0.86695 0.77271,0.81826 0.77272,0.77388 0.77273,0.73068 0.77274,0.691 0.7727,0.65515 0.77272,0.6205 0.77274,0.58977 0.77273,0.55824 0.77271,0.53059 0.77272,0.50255 0.77274,0.47766 0.77272,0.45233 0.77271,0.42705 0.77274,0.40718 0.77271,0.38266 0.77273,0.36283 0.77272,0.34179 0.77274,0.31999 0.77272,0.3017 0.77272,0.28223 0.77272,0.2678 0.77272,0.24604 0.77274,0.22813 0.77272,0.21019 0.7727,0.19348 0.77274,0.17712 0.77273,0.15884 0.77274,0.14326 0.77269,0.1269 0.77273,0.11094 0.77274,0.09499 0.77272,0.07824 0.77272,0.06345 0.77272,0.0475 0.77272,0.03075 0.77274,0.01557 0.77267,0.0012 0.77272,-0.01556 0.77272,-0.03036 0.77274,-0.04673 0.77272,-0.06227 0.77272,-0.07786 0.77272,-0.09342 0.77273,-0.11056 0.77271,-0.12651 0.77273,-0.14171 0.77274,-0.15922 0.77271,-0.17516 0.77271,-0.19348 0.77274,-0.20984 0.77274,-0.22655 0.77271,-0.24603 0.77271,-0.26238 0.77274,-0.2865 0.77272,-0.30131 0.77273,-0.3196 0.77271,-0.33905 0.77272,-0.36049 0.77273,-0.38266 0.77274,-0.40446 0.7727,-0.42821 0.77273,-0.45041 0.77273,-0.47609 0.77274,-0.50216 0.7727,-0.52826 0.77274,-0.55822 0.77272,-0.58627 0.77272,-0.62012 0.77272,-0.65361 0.77273,-0.68982 0.77272,-0.72871 0.77272,-0.7708 0.77273,-0.81709 0.77273,-0.86264 0.77272,-0.92378 0.77272,-0.98488 0.77272,-1.05922 0.77272,-1.13788 0.77274,-1.23518 0.77273,-1.35237 0.77269,-1.49289 0.77274,-1.67899 0.77273,-1.93707 0.77274,-2.31194 L 37.45897,7.83621 38.2317,1.67894 38.26791,0 H 37.49518 36.72247 35.94974 35.17702 34.4043 33.63158 32.85884 32.0861 31.3134 30.54068 29.76794 28.99522 28.22249 27.44978 26.67706 25.90433 25.13159 24.35889 23.58617 22.81343 22.0407 21.26799 20.49527 19.72253 18.94981 18.1771 17.40436 16.63165 15.85892 15.0862 14.31346 13.54074 12.76802 11.9953 11.22258 10.44984 9.67712 8.90442 8.13168 7.35895 6.58621 5.81352 5.04079 4.26805 3.49533 2.72261 1.94989 1.17717 0.40443 -0.36824 -1.14096 -1.91368 -2.68642 -3.45914 -4.23186 -5.00458 -5.77731 -6.55002 -7.32275 -8.09549 -8.8682 h -0.77271 -0.77274 -0.77274 -0.77271 -0.77271 -0.77274 -0.77272 -0.77273 -0.77271 -0.77272 -0.77273 -0.77274 -0.7727 -0.77273 -0.77273 -0.77274 -0.7727 -0.77274 -0.77272 -0.77272 -0.77272 -0.77273 -0.77272 -0.77272 -0.77273 -0.77273 -0.77272 -0.77272 -0.77272 -0.77272 -0.77274 -0.77273 -0.77269 -0.77274 -0.77273 -0.77274 -0.77269 -0.77273 z"
       style="fill:#9999ff;fill-opacity:0.25;fill-rule:nonzero;stroke:none"
       transform="matrix(1.3333333,0,0,-1.3333333,115.47333,196.95733)" />
    <path
       id="path13"
       d="M 25.51193,0 V 28.57326"
       style="fill:none;stroke:#0000ff;stroke-width:0.79701;stroke-linecap:butt;stroke-linejoin:miter;stroke-miterlimit:10;stroke-dasharray:none;stroke-opacity:0.5"
       transform="matrix(1.3333333,0,0,-1.3333333,115.47333,196.95733)" />
    <g
       id="g13"
       aria-label="y=&#10;√"
       transform="matrix(1.3333333,0,0,1.3333333,144.56533,133.7)">
      <path
         id="path14"
         d="m 4.8406484,-3.7974609 c 0.046875,-0.140625 0.046875,-0.1523438 0.046875,-0.2226563 0,-0.1875 -0.140625,-0.2695312 -0.2929687,-0.2695312 -0.1054688,0 -0.2578125,0.058594 -0.3515625,0.1992187 -0.023437,0.058594 -0.09375,0.3632813 -0.140625,0.5390625 -0.070312,0.2578125 -0.140625,0.5273438 -0.1992188,0.796875 l -0.4453125,1.79296876 c -0.035156,0.15234375 -0.46875,0.85546875 -1.125,0.85546875 -0.5039062,0 -0.6210937,-0.4453125 -0.6210937,-0.80859375 0,-0.45703126 0.1757812,-1.07812496 0.515625,-1.95703126 0.1523437,-0.4101562 0.1992187,-0.515625 0.1992187,-0.7148437 0,-0.4453125 -0.328125,-0.8203125 -0.8203125,-0.8203125 -0.94921871,0 -1.31249996,1.453125 -1.31249996,1.5351562 0,0.1054688 0.09375,0.1054688 0.1171875,0.1054688 0.09375,0 0.10546875,-0.023437 0.15234375,-0.1875 0.26953125,-0.9375 0.66796871,-1.2304688 1.00781251,-1.2304688 0.082031,0 0.2578125,0 0.2578125,0.3164063 0,0.2460937 -0.1054688,0.515625 -0.1757813,0.703125 -0.3984375,1.0546875 -0.5742187,1.6171875 -0.5742187,2.0859375 0,0.89062496 0.6210937,1.18359371 1.21875,1.18359371 0.3867187,0 0.7265625,-0.1640625 0.9960937,-0.4453125 -0.1289062,0.515625 -0.2460937,1.0078125 -0.6445312,1.53515629 -0.2578125,0.3398437 -0.6328125,0.6328125 -1.0898438,0.6328125 -0.140625,0 -0.59765621,-0.035156 -0.76171871,-0.421875 0.1640625,0 0.29296871,0 0.43359371,-0.1171875 0.09375,-0.09375 0.1992188,-0.2226563 0.1992188,-0.41015629 0,-0.31640625 -0.2695313,-0.3515625 -0.375,-0.3515625 -0.22265626,0 -0.55078126,0.1640625 -0.55078126,0.64453129 0,0.5039062 0.43359375,0.8671875 1.05468746,0.8671875 1.0195313,0 2.0507813,-0.9023438 2.3320313,-2.02734379 z m 0,0"
         style="fill:#eb0a36;fill-opacity:1;fill-rule:nonzero;stroke:none" />
      <path
         id="path15"
         d="m 14.85725,-3.2583984 c 0.152344,0 0.339844,0 0.339844,-0.1992188 0,-0.1992187 -0.1875,-0.1992187 -0.328125,-0.1992187 H 8.904125 c -0.140625,0 -0.328125,0 -0.328125,0.1992187 0,0.1992188 0.1875,0.1992188 0.3398438,0.1992188 z m 0.01172,1.9335937 c 0.140625,0 0.328125,0 0.328125,-0.1992187 0,-0.1992188 -0.1875,-0.1992188 -0.339844,-0.1992188 H 8.9158438 c -0.1523438,0 -0.3398438,0 -0.3398438,0.1992188 0,0.1992187 0.1875,0.1992187 0.328125,0.1992187 z m 0,0"
         style="fill:#eb0a36;fill-opacity:1;fill-rule:nonzero;stroke:none" />
      <path
         id="path16"
         d="M 22.404125,0.21621094 20.646313,-3.6626953 c -0.07031,-0.1523438 -0.117188,-0.1523438 -0.152344,-0.1523438 -0.01172,0 -0.05859,0 -0.164063,0.070312 l -0.949218,0.7265625 c -0.128907,0.09375 -0.128907,0.1289063 -0.128907,0.1523438 0,0.046875 0.03516,0.1054687 0.105469,0.1054687 0.05859,0 0.222656,-0.1289062 0.328125,-0.2109375 0.07031,-0.046875 0.210938,-0.1640625 0.328125,-0.2460937 l 1.957031,4.3125 c 0.07031,0.1640625 0.117188,0.1640625 0.210938,0.1640625 0.152344,0 0.175781,-0.058594 0.246094,-0.1992188 L 26.951,-8.3033203 c 0.07031,-0.140625 0.07031,-0.1757813 0.07031,-0.1992188 0,-0.1054687 -0.08203,-0.1992187 -0.199219,-0.1992187 -0.08203,0 -0.152344,0.046875 -0.222656,0.2109375 z m 0,0"
         style="fill:#eb0a36;fill-opacity:1;fill-rule:nonzero;stroke:none" />
    </g>
    <path
       id="path17"
       d="M 0,0 H 31.581"
       style="fill:none;stroke:#eb0a36;stroke-width:0.398;stroke-linecap:butt;stroke-linejoin:miter;stroke-miterlimit:10;stroke-dasharray:none;stroke-opacity:1"
       transform="matrix(1.3333333,0,0,-1.3333333,180.336,122.36533)" />
    <g
       id="g17"
       aria-label="r&#10;2&#10;−x&#10;2"
       transform="matrix(1.3333333,0,0,1.3333333,180.336,133.7)">
      <path
         id="path18"
         d="m 0.87885938,-0.58652344 c -0.0351563,0.15234375 -0.09375,0.375 -0.09375,0.421875 0,0.1875 0.140625,0.26953125 0.29296872,0.26953125 0.1171875,0 0.2929688,-0.0703125 0.3632813,-0.26953125 0.023437,-0.046875 0.3632812,-1.39453126 0.3984375,-1.58203126 0.082031,-0.328125 0.2578125,-1.0195312 0.3164062,-1.2890625 0.046875,-0.1289062 0.328125,-0.5976562 0.5625,-0.8203125 0.082031,-0.070312 0.375,-0.328125 0.796875,-0.328125 0.2578125,0 0.4101563,0.1171875 0.421875,0.1171875 -0.3046875,0.046875 -0.515625,0.2929688 -0.515625,0.5507813 0,0.1640625 0.1054688,0.3515625 0.375,0.3515625 0.2695313,0 0.5507813,-0.234375 0.5507813,-0.5859375 0,-0.3515625 -0.328125,-0.65625 -0.8320313,-0.65625 -0.6445312,0 -1.0898437,0.4921875 -1.2773437,0.7734375 -0.082031,-0.4570313 -0.4335938,-0.7734375 -0.9023438,-0.7734375 -0.45703122,0 -0.64453122,0.3867187 -0.73828122,0.5742187 -0.17578125,0.3398438 -0.3046875,0.9375 -0.3046875,0.9609375 0,0.1054688 0.09375,0.1054688 0.1171875,0.1054688 0.09375,0 0.10546875,-0.011719 0.1640625,-0.234375 0.17578125,-0.703125 0.375,-1.1835938 0.72656252,-1.1835938 0.1757812,0 0.3164062,0.082031 0.3164062,0.4570313 0,0.2109375 -0.035156,0.3164062 -0.1640625,0.8320312 z m 0,0"
         style="fill:#eb0a36;fill-opacity:1;fill-rule:nonzero;stroke:none" />
      <path
         id="path19"
         d="m 8.2880391,-4.1431641 h -0.234375 c -0.023437,0.1523438 -0.082031,0.5625 -0.1757813,0.6328125 -0.058594,0.035156 -0.5976562,0.035156 -0.6914062,0.035156 H 5.8974141 c 0.7382812,-0.6445313 0.984375,-0.84375 1.3945312,-1.171875 0.515625,-0.4101563 0.9960938,-0.84375 0.9960938,-1.5 0,-0.84375 -0.7382813,-1.359375 -1.6289063,-1.359375 -0.8671875,0 -1.453125,0.609375 -1.453125,1.2421875 0,0.3632812 0.3046875,0.3984375 0.375,0.3984375 0.1640625,0 0.375,-0.1171875 0.375,-0.375 0,-0.1289063 -0.058594,-0.3632813 -0.421875,-0.3632813 0.2226563,-0.5039062 0.6914063,-0.65625 1.0195313,-0.65625 0.703125,0 1.0664062,0.5507813 1.0664062,1.1132813 0,0.609375 -0.4335937,1.0898437 -0.65625,1.3359375 l -1.6875,1.6640625 c -0.070312,0.058594 -0.070312,0.070312 -0.070312,0.2695312 h 2.8828125 z m 0,0"
         style="fill:#eb0a36;fill-opacity:1;fill-rule:nonzero;stroke:none" />
      <path
         id="path20"
         d="m 18.017531,-2.2974609 c 0.175782,0 0.351563,0 0.351563,-0.1992188 0,-0.1992187 -0.175781,-0.1992187 -0.351563,-0.1992187 h -5.390625 c -0.164062,0 -0.339843,0 -0.339843,0.1992187 0,0.1992188 0.175781,0.1992188 0.339843,0.1992188 z m 0,0"
         style="fill:#eb0a36;fill-opacity:1;fill-rule:nonzero;stroke:none" />
      <path
         id="path21"
         d="m 24.744094,-3.0123047 c 0.05859,-0.2578125 0.292969,-1.171875 0.984375,-1.171875 0.04687,0 0.292969,0 0.503906,0.1289063 -0.28125,0.046875 -0.480469,0.3046875 -0.480469,0.5390625 0,0.1640625 0.105469,0.3515625 0.375,0.3515625 0.222657,0 0.539063,-0.1875 0.539063,-0.5859375 0,-0.515625 -0.585938,-0.65625 -0.925781,-0.65625 -0.574219,0 -0.925782,0.5273437 -1.042969,0.7617187 -0.257813,-0.65625 -0.785156,-0.7617187 -1.078125,-0.7617187 -1.042969,0 -1.605469,1.2890625 -1.605469,1.5351562 0,0.1054688 0.105469,0.1054688 0.117188,0.1054688 0.08203,0 0.117187,-0.023437 0.128906,-0.1171875 0.339844,-1.0546875 0.996094,-1.3007813 1.335937,-1.3007813 0.1875,0 0.539063,0.09375 0.539063,0.6679688 0,0.3046875 -0.164063,0.9726562 -0.539063,2.3671875 -0.152343,0.62109371 -0.503906,1.04296871 -0.949218,1.04296871 -0.05859,0 -0.28125,0 -0.492188,-0.12890625 0.246094,-0.0585938 0.46875,-0.26953125 0.46875,-0.5390625 0,-0.26953126 -0.222656,-0.35156246 -0.375,-0.35156246 -0.292969,0 -0.539062,0.25781246 -0.539062,0.57421871 0,0.45703125 0.492187,0.65625 0.9375,0.65625 0.65625,0 1.007812,-0.69140625 1.042968,-0.75 0.117188,0.36328125 0.480469,0.75 1.078125,0.75 1.019532,0 1.59375,-1.27734371 1.59375,-1.53515621 0,-0.09375 -0.09375,-0.09375 -0.128906,-0.09375 -0.08203,0 -0.105469,0.035156 -0.128906,0.1054687 -0.328125,1.06640626 -0.996094,1.31250001 -1.324219,1.31250001 -0.386719,0 -0.539062,-0.328125 -0.539062,-0.65625 0,-0.22265625 0.05859,-0.44531251 0.164062,-0.87890621 z m 0,0"
         style="fill:#eb0a36;fill-opacity:1;fill-rule:nonzero;stroke:none" />
      <path
         id="path22"
         d="m 30.626906,-4.1431641 h -0.234375 c -0.02344,0.1523438 -0.08203,0.5625 -0.175781,0.6328125 -0.05859,0.035156 -0.597656,0.035156 -0.691406,0.035156 h -1.289063 c 0.738282,-0.6445313 0.984375,-0.84375 1.394532,-1.171875 0.515625,-0.4101563 0.996093,-0.84375 0.996093,-1.5 0,-0.84375 -0.738281,-1.359375 -1.628906,-1.359375 -0.867187,0 -1.453125,0.609375 -1.453125,1.2421875 0,0.3632812 0.304688,0.3984375 0.375,0.3984375 0.164063,0 0.375,-0.1171875 0.375,-0.375 0,-0.1289063 -0.05859,-0.3632813 -0.421875,-0.3632813 0.222656,-0.5039062 0.691406,-0.65625 1.019531,-0.65625 0.703125,0 1.066407,0.5507813 1.066407,1.1132813 0,0.609375 -0.433594,1.0898437 -0.65625,1.3359375 l -1.6875,1.6640625 c -0.07031,0.058594 -0.07031,0.070312 -0.07031,0.2695312 h 2.882813 z m 0,0"
         style="fill:#eb0a36;fill-opacity:1;fill-rule:nonzero;stroke:none" />
    </g>
    <g
       id="g22"
       aria-label="R(x)"
       transform="matrix(1.3333333,0,0,1.3333333,119.66533,181.22933)">
      <path
         id="path23"
         d="m 3.7373281,-6.1163359 c 0.058594,-0.234375 0.082031,-0.3398438 0.28125,-0.3632813 0.082031,-0.011719 0.3984375,-0.011719 0.5976563,-0.011719 0.7148437,0 1.8164062,0 1.8164062,0.984375 0,0.3398437 -0.1523437,1.0195312 -0.5507812,1.4179687 C 5.6240469,-3.83118 5.0967031,-3.5147737 4.2060781,-3.5147737 H 3.0927969 Z m 1.4296875,2.7304687 c 1.0078125,-0.2226562 2.1914063,-0.9140625 2.1914063,-1.921875 0,-0.8554687 -0.890625,-1.5 -2.203125,-1.5 H 2.3193594 c -0.1992188,0 -0.2929688,0 -0.2929688,0.1992188 0,0.1171875 0.09375,0.1171875 0.28125,0.1171875 0.023437,0 0.2109375,0 0.3867188,0.011719 0.1757812,0.023437 0.2578125,0.035156 0.2578125,0.1640625 0,0.035156 0,0.070312 -0.035156,0.1875 l -1.3359375,5.35546876 c -0.09375,0.38671875 -0.1171875,0.46875 -0.90234372,0.46875 -0.17578125,0 -0.26953125,0 -0.26953125,0.19921875 0,0.1054687525 0.1171875,0.1054687525 0.140625,0.1054687525 0.28125,0 0.97265627,-0.0351562525 1.25390627,-0.0351562525 0.28125,0 0.984375,0.0351562525 1.265625,0.0351562525 0.082031,0 0.1992187,0 0.1992187,-0.1992187525 0,-0.10546875 -0.09375,-0.10546875 -0.28125,-0.10546875 -0.3632812,0 -0.6445312,0 -0.6445312,-0.1875 0,-0.0585938 0.011719,-0.10546875 0.023437,-0.1640625 l 0.65625,-2.63671876 h 1.1953125 c 0.9023437,0 1.078125,0.5507813 1.078125,0.9023438 0,0.1523437 -0.082031,0.4570312 -0.140625,0.6914062 -0.070312,0.2695313 -0.1523438,0.6445313 -0.1523438,0.84375001 0,1.078125 1.1953125,1.078125 1.3242188,1.078125 0.84375,0 1.1953125,-1.0078125 1.1953125,-1.1484375 0,-0.11718751 -0.1171875,-0.11718751 -0.1171875,-0.11718751 -0.09375,0 -0.1171875,0.0703125 -0.1289063,0.14062501 -0.2578125,0.73828125 -0.6796875,0.9023437525 -0.9140625,0.9023437525 -0.328125,0 -0.3984375,-0.2226562525 -0.3984375,-0.6093750025 0,-0.3046875 0.058594,-0.82031246 0.1054688,-1.13671876 0.011719,-0.140625 0.035156,-0.328125 0.035156,-0.46875 0,-0.7617187 -0.6679687,-1.078125 -0.9374996,-1.1718753 z m 0,0"
         style="fill:#0000ff;fill-opacity:0.5;fill-rule:nonzero;stroke:none" />
      <path
         id="path24"
         d="m 10.9385,2.3914766 c 0,-0.035156 0,-0.046875 -0.164062,-0.2226563 C 9.53225,0.91491406 9.204125,-0.96008594 9.204125,-2.4952422 c 0,-1.7226562 0.3867188,-3.4570312 1.605469,-4.7109375 0.128906,-0.1171875 0.128906,-0.1289062 0.128906,-0.1640625 0,-0.070312 -0.03516,-0.1054687 -0.09375,-0.1054687 -0.105469,0 -0.9960937,0.6796875 -1.5820312,1.9453125 -0.515625,1.1015625 -0.6328125,2.203125 -0.6328125,3.0351562 0,0.7851563 0.1171875,1.99218751 0.65625,3.11718751 0.5976562,1.21874999 1.4531247,1.87499999 1.5585937,1.87499999 0.05859,0 0.09375,-0.035156 0.09375,-0.1054687 z m 0,0"
         style="fill:#0000ff;fill-opacity:0.5;fill-rule:nonzero;stroke:none" />
      <path
         id="path25"
         d="m 14.846703,-3.0108672 c 0.05859,-0.2578125 0.292969,-1.171875 0.984375,-1.171875 0.04687,0 0.292969,0 0.503906,0.1289063 -0.28125,0.046875 -0.480468,0.3046875 -0.480468,0.5390625 0,0.1640625 0.105468,0.3515625 0.375,0.3515625 0.222656,0 0.539062,-0.1875 0.539062,-0.5859375 0,-0.515625 -0.585937,-0.65625 -0.925781,-0.65625 -0.574219,0 -0.925781,0.5273437 -1.042969,0.7617187 -0.257812,-0.65625 -0.785156,-0.7617187 -1.078125,-0.7617187 -1.042969,0 -1.605469,1.2890625 -1.605469,1.5351562 0,0.1054688 0.105469,0.1054688 0.117188,0.1054688 0.08203,0 0.117187,-0.023437 0.128906,-0.1171875 0.339844,-1.0546875 0.996094,-1.3007813 1.335938,-1.3007813 0.1875,0 0.539062,0.09375 0.539062,0.6679688 0,0.3046875 -0.164062,0.9726562 -0.539062,2.3671875 -0.152344,0.62109371 -0.503907,1.04296871 -0.949219,1.04296871 -0.05859,0 -0.28125,0 -0.492188,-0.12890625 0.246094,-0.0585938 0.46875,-0.26953125 0.46875,-0.5390625 0,-0.26953126 -0.222656,-0.35156246 -0.375,-0.35156246 -0.292968,0 -0.539062,0.25781246 -0.539062,0.57421871 0,0.45703125 0.492187,0.65625 0.9375,0.65625 0.65625,0 1.007812,-0.69140625 1.042969,-0.75 0.117187,0.36328125 0.480468,0.75 1.078125,0.75 1.019531,0 1.59375,-1.27734371 1.59375,-1.53515621 0,-0.09375 -0.09375,-0.09375 -0.128907,-0.09375 -0.08203,0 -0.105468,0.035156 -0.128906,0.1054687 -0.328125,1.06640626 -0.996094,1.31250001 -1.324219,1.31250001 -0.386718,0 -0.539062,-0.328125 -0.539062,-0.65625 0,-0.22265625 0.05859,-0.44531251 0.164062,-0.87890621 z m 0,0"
         style="fill:#0000ff;fill-opacity:0.5;fill-rule:nonzero;stroke:none" />
      <path
         id="path26"
         d="m 20.093773,-2.4952422 c 0,-0.7734375 -0.117187,-1.9804687 -0.65625,-3.1054687 -0.597656,-1.21875 -1.464843,-1.875 -1.558593,-1.875 -0.05859,0 -0.105469,0.046875 -0.105469,0.1054687 0,0.035156 0,0.046875 0.199219,0.234375 0.972656,0.984375 1.535156,2.5664063 1.535156,4.640625 0,1.71093751 -0.363281,3.45703126 -1.59375,4.7226563 -0.140625,0.1171875 -0.140625,0.1289062 -0.140625,0.1640625 0,0.058594 0.04687,0.1054687 0.105469,0.1054687 0.09375,0 0.996093,-0.6796875 1.582031,-1.94531249 0.503906,-1.1015625 0.632812,-2.20312501 0.632812,-3.04687501 z m 0,0"
         style="fill:#0000ff;fill-opacity:0.5;fill-rule:nonzero;stroke:none" />
    </g>
    <path
       id="path27"
       d="m 63.77986,10.2046 c -1.40893,7.32128 -4.52952,9.82984 -6.96988,5.60291 -2.44035,-4.22693 -3.2765,-13.58893 -1.86758,-20.91019 1.40893,-7.32127 4.52952,-9.82982 6.96988,-5.6029 0.77543,1.34303 1.41993,3.27655 1.73393,4.90831"
       style="fill:none;stroke:#008080;stroke-width:0.79701;stroke-linecap:butt;stroke-linejoin:miter;stroke-miterlimit:10;stroke-dasharray:none;stroke-opacity:1"
       transform="matrix(1.3333333,0,0,-1.3333333,115.47333,196.95733)" />
    <path
       id="path28"
       d="M -1.55415,2.0722 C -1.42464,1.29512 0,0.1295 0.38852,0 0,-0.1295 -1.42464,-1.29512 -1.55415,-2.0722"
       style="fill:none;stroke:#008080;stroke-width:0.6376;stroke-linecap:round;stroke-linejoin:round;stroke-miterlimit:10;stroke-dasharray:none;stroke-opacity:1"
       transform="matrix(0.25193333,-1.30928,-1.30928,-0.25193333,200.33495,204.68705)" />
  </g>
</svg>
