<?xml version="1.0" encoding="UTF-8" standalone="no"?>
<!-- Created with Inkscape (http://www.inkscape.org/) -->

<svg
   version="1.1"
   id="svg1"
   width="156.58554"
   height="141.31113"
   viewBox="0 0 156.58554 141.31113"
   sodipodi:docname="6.2-solidos-raiz.svg"
   inkscape:version="1.4.2 (f4327f4, 2025-05-13)"
   xmlns:inkscape="http://www.inkscape.org/namespaces/inkscape"
   xmlns:sodipodi="http://sodipodi.sourceforge.net/DTD/sodipodi-0.dtd"
   xmlns="http://www.w3.org/2000/svg"
   xmlns:svg="http://www.w3.org/2000/svg">
  <defs
     id="defs1" />
  <sodipodi:namedview
     id="namedview1"
     pagecolor="#ffffff"
     bordercolor="#000000"
     borderopacity="0.25"
     inkscape:showpageshadow="2"
     inkscape:pageopacity="0.0"
     inkscape:pagecheckerboard="0"
     inkscape:deskcolor="#d1d1d1"
     inkscape:zoom="2.2241536"
     inkscape:cx="203.89779"
     inkscape:cy="92.394698"
     inkscape:window-width="1920"
     inkscape:window-height="1009"
     inkscape:window-x="-8"
     inkscape:window-y="-8"
     inkscape:window-maximized="1"
     inkscape:current-layer="g1">
    <inkscape:page
       x="0"
       y="0"
       inkscape:label="14"
       id="page1"
       width="156.58554"
       height="141.31113"
       margin="0"
       bleed="0" />
  </sodipodi:namedview>
  <g
     id="g1"
     inkscape:groupmode="layer"
     inkscape:label="14"
     transform="translate(-38.402733,-88.921874)">
    <path
       id="path2"
       d="M -12.75595,0 H 101.58952"
       style="fill:none;stroke:#000000;stroke-width:0.3985;stroke-linecap:butt;stroke-linejoin:miter;stroke-miterlimit:10;stroke-dasharray:none;stroke-opacity:1"
       transform="matrix(1.3333333,0,0,-1.3333333,55.410667,212.69733)" />
    <path
       id="path3"
       d="M -1.19551,1.59401 C -1.09587,0.99626 0,0.09961 0.29886,0 0,-0.09961 -1.09587,-0.99626 -1.19551,-1.59401"
       style="fill:none;stroke:#000000;stroke-width:0.31879;stroke-linecap:round;stroke-linejoin:round;stroke-miterlimit:10;stroke-dasharray:none;stroke-opacity:1"
       transform="matrix(1.3333333,0,0,-1.3333333,190.86336,212.69733)" />
    <path
       id="path4"
       d="m 3.6448359,-3.2923047 c 0.070312,-0.28125 0.3164063,-1.2890625 1.078125,-1.2890625 0.058594,0 0.3164063,0 0.5507813,0.140625 -0.3046875,0.058594 -0.5273438,0.328125 -0.5273438,0.5859375 0,0.1757813 0.1171875,0.3867188 0.4101563,0.3867188 0.2460937,0 0.5976562,-0.1992188 0.5976562,-0.6328125 0,-0.5625 -0.6445312,-0.7265625 -1.0195312,-0.7265625 -0.6328125,0 -1.0195313,0.5859375 -1.1484375,0.8320312 -0.2695313,-0.7148437 -0.8554688,-0.8320312 -1.171875,-0.8320312 -1.1367188,0 -1.75781251,1.4179687 -1.75781251,1.6875 0,0.1054687 0.10546875,0.1054687 0.12890625,0.1054687 0.0820313,0 0.1171875,-0.023437 0.140625,-0.1171875 0.37499996,-1.1601562 1.08984376,-1.4296875 1.46484376,-1.4296875 0.2109375,0 0.5859375,0.09375 0.5859375,0.7265625 0,0.3398438 -0.1875,1.078125 -0.5859375,2.6015625 -0.1757813,0.67968751 -0.5625,1.13671876 -1.0429688,1.13671876 -0.058594,0 -0.3164062,0 -0.53906246,-0.140625 0.26953126,-0.0585938 0.51562496,-0.29296875 0.51562496,-0.59765625 0,-0.29296871 -0.2460937,-0.37500001 -0.41015621,-0.37500001 -0.328125,0 -0.59765625,0.28125001 -0.59765625,0.63281251 0,0.50390625 0.55078125,0.71484375 1.03124996,0.71484375 0.7148438,0 1.1015625,-0.76171875 1.1367188,-0.83203125 0.1289062,0.41015625 0.5273437,0.83203125 1.1835937,0.83203125 1.125,0 1.7460938,-1.40624996 1.7460938,-1.67578126 0,-0.1054687 -0.1054688,-0.1054687 -0.1289063,-0.1054687 -0.1054687,0 -0.1289062,0.035156 -0.140625,0.1171875 -0.3632812,1.16015621 -1.1132812,1.42968746 -1.453125,1.42968746 -0.4335937,0 -0.609375,-0.3515625 -0.609375,-0.7265625 0,-0.23437496 0.070312,-0.48046876 0.1875,-0.96093746 z m 0,0"
       style="fill:#000000;fill-opacity:1;fill-rule:nonzero;stroke:none"
       aria-label="x"
       transform="matrix(1.3333333,0,0,1.3333333,187.316,224.07333)" />
    <path
       id="path5"
       d="M 0,-12.75595 V 88.83354"
       style="fill:none;stroke:#000000;stroke-width:0.3985;stroke-linecap:butt;stroke-linejoin:miter;stroke-miterlimit:10;stroke-dasharray:none;stroke-opacity:1"
       transform="matrix(1.3333333,0,0,-1.3333333,55.410667,212.69733)" />
    <path
       id="path6"
       d="M -1.19551,1.59401 C -1.09587,0.99626 0,0.09961 0.29886,0 0,-0.09961 -1.09587,-0.99626 -1.19551,-1.59401"
       style="fill:none;stroke:#000000;stroke-width:0.31879;stroke-linecap:round;stroke-linejoin:round;stroke-miterlimit:10;stroke-dasharray:none;stroke-opacity:1"
       transform="matrix(0,-1.3333333,-1.3333333,0,55.410667,94.252613)" />
    <path
       id="path7"
       d="m 5.2982734,-4.160625 c 0.046875,-0.1523438 0.046875,-0.1757813 0.046875,-0.2460938 0,-0.1992187 -0.1523437,-0.2929687 -0.3164062,-0.2929687 -0.1054688,0 -0.28125,0.058594 -0.375,0.2226562 -0.023437,0.058594 -0.1171875,0.3984375 -0.1523438,0.5976563 -0.082031,0.28125 -0.1523437,0.5742187 -0.2226562,0.8671875 l -0.4921875,1.96875 c -0.046875,0.1640625 -0.515625,0.92578125 -1.2304688,0.92578125 -0.5625,0 -0.6796875,-0.48046875 -0.6796875,-0.89062505 0,-0.4921875 0.1875,-1.171875 0.5625,-2.1328125 0.1757813,-0.4453125 0.2109375,-0.5742187 0.2109375,-0.7851562 0,-0.4921875 -0.3515625,-0.9023438 -0.890625,-0.9023438 -1.04296871,0 -1.44140621,1.5820313 -1.44140621,1.6875 0,0.1054688 0.10546875,0.1054688 0.12890625,0.1054688 0.10546875,0 0.1171875,-0.023437 0.17578125,-0.1992188 C 0.91546094,-4.254375 1.3490547,-4.5825 1.7240547,-4.5825 c 0.09375,0 0.2695312,0 0.2695312,0.3515625 0,0.2695312 -0.1054687,0.5507812 -0.1757812,0.7617187 -0.4453125,1.1601563 -0.6328125,1.78125 -0.6328125,2.2851563 0,0.97265625 0.6796875,1.30078125 1.3242187,1.30078125 0.421875,0 0.796875,-0.1875 1.1015625,-0.4921875 C 3.4701484,0.19875 3.3412422,0.72609375 2.9076484,1.3120312 2.6146797,1.6753125 2.2045234,1.9917187 1.7006172,1.9917187 c -0.1523438,0 -0.6445313,-0.023437 -0.83203126,-0.4570312 0.17578126,0 0.31640626,0 0.48046876,-0.1289063 C 1.4545234,1.3120312 1.5599922,1.1714062 1.5599922,0.96046875 1.5599922,0.620625 1.2670234,0.57375 1.1615547,0.57375 c -0.25781251,0 -0.60937501,0.17578125 -0.60937501,0.7148437 0,0.5390625 0.48046871,0.9492188 1.14843751,0.9492188 1.125,0 2.25,-0.9960938 2.5546875,-2.2265625 z m 0,0"
       style="fill:#000000;fill-opacity:1;fill-rule:nonzero;stroke:none"
       aria-label="y"
       transform="matrix(1.3333333,0,0,1.3333333,42.642667,95.36)" />
    <path
       id="path8"
       d="M 0,0 0.25612,2.556 0.51227,3.61485 0.76842,4.42766 1.02457,5.1124 1.28072,5.7158 1.53687,6.26158 1.793,6.76335 2.04916,7.2301 2.30531,7.66843 2.56145,8.08342 2.81758,8.47815 3.07375,8.85536 3.3299,9.21661 3.58603,9.56462 3.8422,9.90057 l 0.25614,0.32427 0.25614,0.31494 0.25615,0.30597 0.25616,0.29703 0.25613,0.28922 0.25615,0.28261 0.25614,0.27562 0.25616,0.2694 0.25613,0.26353 0.25616,0.25809 0.25614,0.25343 0.25615,0.24836 0.25615,0.24369 0.25615,0.23941 0.25614,0.23511 0.25616,0.23165 0.25614,0.22773 0.25615,0.22421 0.25614,0.22072 0.25615,0.21762 0.25615,0.2145 0.25614,0.21176 0.25616,0.20866 0.25615,0.20594 0.25613,0.20318 0.25615,0.20088 0.25617,0.19854 0.25612,0.19619 0.25615,0.19388 0.25615,0.19151 0.25616,0.18958 0.25614,0.18724 0.25614,0.1857 0.25617,0.18335 0.25613,0.18179 0.25615,0.17982 0.25615,0.17832 0.25614,0.17635 0.25614,0.17439 0.25615,0.17322 0.25615,0.17167 0.25615,0.17014 0.25615,0.16855 0.25615,0.16701 0.25613,0.16583 0.25617,0.16427 0.25615,0.16312 0.25613,0.16153 0.25615,0.1604 0.25615,0.15921 0.25614,0.15765 0.25614,0.1569 0.25617,0.15571 0.25615,0.15454 0.25613,0.15299 0.25615,0.15258 0.25617,0.15105 0.25613,0.14987 0.25613,0.14911 0.25615,0.14832 0.25615,0.14714 0.25615,0.14598 0.25615,0.1452 0.25615,0.14403 0.25615,0.14365 0.25615,0.1421 0.25615,0.14168 0.25615,0.14093 0.25615,0.13974 0.25613,0.13896 0.25614,0.13821 0.25616,0.13781 0.25615,0.13624 0.25613,0.13625 0.25615,0.1351 0.25617,0.13429 0.25613,0.13352 0.25615,0.13275 0.25617,0.13235 0.25613,0.13158 0.25613,0.1308 0.25615,0.13002 0.25617,0.12964 0.25613,0.12884 0.25615,0.12808 0.25615,0.12729 0.25615,0.12691 0.25615,0.12651 0.25615,0.12537 0.25615,0.12494 0.25613,0.12458 0.25615,0.12378 0.25615,0.12342 0.25615,0.1226 0.25615,0.12186 0.25615,0.12184 0.25613,0.12106 0.25617,0.12068 0.25615,0.11991 0.25613,0.11913 0.25615,0.1191 0.25615,0.11873 0.25615,0.11757 0.25613,0.11757 0.25615,0.11677 0.25616,0.1164 0.25614,0.11601 0.25615,0.1156 0.25616,0.11485 0.25614,0.11484 0.25615,0.11406 0.25613,0.11366 0.25616,0.1129 0.25614,0.1129 0.25615,0.11249 0.25615,0.11174 0.25615,0.11133 0.25615,0.11093 0.25615,0.11095 0.25613,0.11017 0.25616,0.10977 0.25615,0.1094 0.25614,0.109 0.25615,0.10859 0.25615,0.10824 0.25614,0.10783 0.25614,0.10745 0.25616,0.10704 0.25616,0.10666 0.25613,0.10629 0.25615,0.10588 0.25616,0.10588 0.25612,0.10509 0.25615,0.10512 0.25615,0.10434 0.25616,0.10431 0.25614,0.10394 0.25614,0.10315 0.25617,0.10317 0.25613,0.10316 0.25615,0.10239 0.25615,0.10199 0.25615,0.10199 0.25614,0.10121 0.25615,0.10159 0.25615,0.10083 0.25614,0.10043 0.25615,0.10044 0.25615,0.09967 0.25614,0.09965 0.25616,0.09966 0.25615,0.09887 0.25613,0.09888 0.25615,0.09848 0.25615,0.0981 0.25614,0.09808 0.25615,0.09736 0.25616,0.0977 0.25615,0.09692 0.25613,0.09654 0.25616,0.09656 0.25616,0.09613 0.25614,0.09616 0.25614,0.09577 0.25614,0.09498 0.25615,0.095 0.25614,0.09496 0.25615,0.0946 0.25615,0.09459 0.25615,0.09423 0.25615,0.09381 0.25615,0.09341 0.25615,0.09343 0.25615,0.09303 0.25613,0.09267 0.25614,0.09303 0.25616,0.09186 0.25615,0.09227 0.25614,0.09187 0.25614,0.09188 0.25617,0.09146 0.25613,0.09109 0.25615,0.09072 0.25617,0.09111"
       style="fill:none;stroke:#eb0a36;stroke-width:0.79701;stroke-linecap:butt;stroke-linejoin:miter;stroke-miterlimit:10;stroke-dasharray:none;stroke-opacity:1"
       transform="matrix(1.3333333,0,0,-1.3333333,55.410667,212.69733)" />
    <path
       id="path9"
       d="m 2.9305078,-6.3756797 c 0,-0.234375 0,-0.2578125 -0.234375,-0.2578125 -0.609375,0.6328125 -1.4882812,0.6328125 -1.80468749,0.6328125 v 0.3164063 c 0.19921879,0 0.78515629,0 1.30078129,-0.2578125 v 5.15624996 c 0,0.3515625 -0.035156,0.48046875 -0.9257813,0.48046875 H 0.95003906 V -6.796875e-4 C 1.3016016,-0.03583594 2.1570703,-0.03583594 2.5555078,-0.03583594 c 0.3984375,0 1.265625,0 1.6171875,0.0351562525 V -0.30536719 H 3.8562891 c -0.9023438,0 -0.9257813,-0.1171875 -0.9257813,-0.48046875 z m 0,0"
       style="fill:#000000;fill-opacity:1;fill-rule:nonzero;stroke:none"
       aria-label="1"
       transform="matrix(1.3333333,0,0,1.3333333,120.12,226.372)" />
    <path
       id="path10"
       d="m 0,0 0.51498,3.62497 0.51503,1.50069 0.51502,1.15226 0.51501,0.97165 0.51503,0.85563 0.51502,0.77352 0.51503,0.7116 0.515,0.66217 0.51503,0.62207 0.51501,0.58781 0.51503,0.5598 0.51501,0.53447 0.51504,0.51268 0.51501,0.49323 0.51502,0.47609 0.51501,0.46051 0.51503,0.44612 0.51501,0.43327 0.51503,0.4216 0.51502,0.41029 0.51501,0.40018 0.51503,0.39125 0.515,0.38187 0.51503,0.3741 0.51502,0.36593 0.51503,0.35892 0.51501,0.3523 0.51503,0.34568 0.51502,0.33945 0.51501,0.33362 0.51502,0.32817 0.51502,0.32309 0.51502,0.31767 0.51503,0.31336 0.51502,0.3087 0.51503,0.30403 0.51501,0.29975 0.515,0.29624 0.51503,0.29196 0.51501,0.28846 0.51503,0.28456 0.51502,0.28145 0.51503,0.27795 0.51501,0.27483 0.51502,0.27171 0.51501,0.26863 0.51503,0.26587 0.51502,0.26315 0.51503,0.26003 0.515,0.25772 0.51503,0.25499 0.51501,0.25262 0.51501,0.24993 0.51502,0.24797 0.51503,0.24525 0.51501,0.2433 0.51504,0.24135 0.51501,0.23901 0.51501,0.2371 0.51502,0.23472 0.51501,0.23317 0.51503,0.23085 0.51502,0.22968 0.51503,0.22696 0.51501,0.22576 0.51503,0.22423 0.51502,0.22229 0.51501,0.22034 0.51502,0.21916 0.51503,0.21721 0.51501,0.21606 0.51503,0.21412 0.51501,0.21292 0.51502,0.21138 0.51501,0.20981 0.51502,0.20906 0.51503,0.20709 0.51502,0.20593 0.51502,0.20438 0.51502,0.2032 0.51503,0.20244 0.515,0.20046 0.51503,0.19971 0.51501,0.19814 0.51503,0.19737 0.51502,0.1958 0.51503,0.19504 0.51501,0.19388 0.51503,0.19227 0.515,0.19155 0.51501,0.19075 0.51503,0.18919 0.51502,0.1888 0.51503,0.18722 0.51501,0.18648 0.51503,0.1853 0.515,0.18451 0.51504,0.18375 0.515,0.18257 L 51.0239,0 h -0.51503 -0.51502 -0.515 -0.51503 -0.51502 -0.51502 -0.51502 -0.51503 -0.51501 -0.51503 -0.515 H 44.84366 44.32864 43.81361 43.2986 42.78357 42.26855 41.75354 41.23853 40.72351 40.20848 39.69347 39.17844 38.66342 38.1484 37.63339 37.11836 36.60335 36.08832 35.5733 35.05827 34.54326 34.02824 33.51323 32.9982 32.48318 31.96817 31.45314 30.93813 30.42311 29.9081 29.39307 28.87805 28.36302 27.848 27.33298 26.81796 26.30295 25.78793 25.27292 24.7579 24.24287 23.72786 23.21283 22.69783 22.18282 21.66779 21.15277 20.63774 20.12273 19.6077 19.09268 18.57767 18.06265 17.54762 17.03261 16.51758 16.00256 15.48753 14.97253 14.4575 13.94249 13.42747 12.91245 12.39743 11.8824 11.36739 10.85237 10.33736 9.82233 9.30731 8.79228 8.27727 7.76224 7.24724 6.73221 6.2172 5.70216 5.18715 4.67213 4.1571 3.6421 3.12708 2.61206 2.09703 1.58202 1.06699 0.55197 0.03696 Z"
       style="fill:#9999ff;fill-opacity:0.25;fill-rule:nonzero;stroke:none"
       transform="matrix(1.3333333,0,0,-1.3333333,55.410667,212.69733)" />
    <path
       id="path11"
       d="M 25.51193,0 V 25.51193"
       style="fill:none;stroke:#0000ff;stroke-width:0.79701;stroke-linecap:butt;stroke-linejoin:miter;stroke-miterlimit:10;stroke-dasharray:none;stroke-opacity:0.5"
       transform="matrix(1.3333333,0,0,-1.3333333,55.410667,212.69733)" />
    <path
       id="path12"
       d="M 51.0239,0 V 36.07393"
       style="fill:none;stroke:#ec008c;stroke-width:0.3985;stroke-linecap:butt;stroke-linejoin:miter;stroke-miterlimit:10;stroke-dasharray:2.98883, 2.98883;stroke-dashoffset:0;stroke-opacity:1"
       transform="matrix(1.3333333,0,0,-1.3333333,55.410667,212.69733)" />
    <g
       id="g12"
       aria-label="y=&#10;√"
       transform="matrix(1.3333333,0,0,1.3333333,101.76,148.38933)">
      <path
         id="path13"
         d="m 4.8411328,-3.7959062 c 0.046875,-0.140625 0.046875,-0.1523438 0.046875,-0.2226563 0,-0.1875 -0.140625,-0.2695312 -0.2929687,-0.2695312 -0.1054688,0 -0.2578125,0.058594 -0.3515625,0.1992187 -0.023437,0.058594 -0.09375,0.3632813 -0.140625,0.5390625 -0.070312,0.2578125 -0.140625,0.5273438 -0.1992188,0.796875 L 3.4583203,-0.95996875 C 3.4231641,-0.807625 2.9895703,-0.1045 2.3333203,-0.1045 c -0.5039062,0 -0.6210937,-0.4453125 -0.6210937,-0.80859375 0,-0.45703125 0.1757812,-1.07812495 0.515625,-1.95703125 0.1523437,-0.4101562 0.1992187,-0.515625 0.1992187,-0.7148437 0,-0.4453125 -0.328125,-0.8203125 -0.8203125,-0.8203125 -0.94921874,0 -1.31249999,1.453125 -1.31249999,1.5351562 0,0.1054688 0.09375,0.1054688 0.1171875,0.1054688 0.09375,0 0.10546875,-0.023437 0.15234375,-0.1875 0.26953125,-0.9375 0.66796874,-1.2304688 1.00781254,-1.2304688 0.082031,0 0.2578125,0 0.2578125,0.3164063 0,0.2460937 -0.1054688,0.515625 -0.1757813,0.703125 -0.3984375,1.0546875 -0.5742187,1.6171875 -0.5742187,2.0859375 0,0.89062495 0.6210937,1.1835937 1.21875,1.1835937 0.3867187,0 0.7265625,-0.1640625 0.9960937,-0.4453125 C 3.1653516,0.17675 3.0481641,0.6689375 2.6497266,1.1962813 2.3919141,1.536125 2.0169141,1.8290938 1.5598828,1.8290938 c -0.140625,0 -0.59765624,-0.035156 -0.76171874,-0.421875 0.1640625,0 0.29296874,0 0.43359374,-0.1171875 0.09375,-0.09375 0.1992188,-0.2226563 0.1992188,-0.4101563 0,-0.31640625 -0.2695313,-0.3515625 -0.375,-0.3515625 -0.22265629,0 -0.55078129,0.1640625 -0.55078129,0.6445313 0,0.5039062 0.43359375,0.8671875 1.05468749,0.8671875 1.0195313,0 2.0507813,-0.9023438 2.3320313,-2.0273438 z m 0,0"
         style="fill:#eb0a36;fill-opacity:1;fill-rule:nonzero;stroke:none" />
      <path
         id="path14"
         d="m 14.857734,-3.2568437 c 0.152344,0 0.339844,0 0.339844,-0.1992188 0,-0.1992187 -0.1875,-0.1992187 -0.328125,-0.1992187 H 8.9046094 c -0.140625,0 -0.328125,0 -0.328125,0.1992187 0,0.1992188 0.1875,0.1992188 0.3398437,0.1992188 z m 0.01172,1.9335937 c 0.140625,0 0.328125,0 0.328125,-0.1992187 0,-0.1992188 -0.1875,-0.1992188 -0.339844,-0.1992188 H 8.9163281 c -0.1523437,0 -0.3398437,0 -0.3398437,0.1992188 0,0.1992187 0.1875,0.1992187 0.328125,0.1992187 z m 0,0"
         style="fill:#eb0a36;fill-opacity:1;fill-rule:nonzero;stroke:none" />
      <path
         id="path15"
         d="m 22.404609,1.3427656 -1.757812,-3.8789062 c -0.07031,-0.1523438 -0.117188,-0.1523438 -0.152344,-0.1523438 -0.01172,0 -0.05859,0 -0.164062,0.070312 l -0.949219,0.7265625 c -0.128906,0.09375 -0.128906,0.1289063 -0.128906,0.1523438 0,0.046875 0.03516,0.1054687 0.105468,0.1054687 0.05859,0 0.222657,-0.1289062 0.328125,-0.2109375 0.07031,-0.046875 0.210938,-0.1640625 0.328125,-0.2460937 l 1.957032,4.3125 c 0.07031,0.1640625 0.117187,0.1640625 0.210937,0.1640625 0.152344,0 0.175781,-0.058594 0.246094,-0.1992188 l 4.523437,-9.3632812 c 0.07031,-0.140625 0.07031,-0.1757813 0.07031,-0.1992188 0,-0.1054687 -0.08203,-0.1992187 -0.199219,-0.1992187 -0.08203,0 -0.152344,0.046875 -0.222656,0.2109375 z m 0,0"
         style="fill:#eb0a36;fill-opacity:1;fill-rule:nonzero;stroke:none" />
    </g>
    <path
       id="path16"
       d="M 0,0 H 5.694"
       style="fill:none;stroke:#eb0a36;stroke-width:0.398;stroke-linecap:butt;stroke-linejoin:miter;stroke-miterlimit:10;stroke-dasharray:none;stroke-opacity:1"
       transform="matrix(1.3333333,0,0,-1.3333333,137.53067,138.556)" />
    <path
       id="path17"
       d="m 3.3285625,-3.01075 c 0.058594,-0.2578125 0.2929688,-1.171875 0.984375,-1.171875 0.046875,0 0.2929688,0 0.5039063,0.1289063 -0.28125,0.046875 -0.4804688,0.3046875 -0.4804688,0.5390625 0,0.1640625 0.1054688,0.3515625 0.375,0.3515625 0.2226563,0 0.5390625,-0.1875 0.5390625,-0.5859375 0,-0.515625 -0.5859375,-0.65625 -0.9257812,-0.65625 -0.5742188,0 -0.9257813,0.5273437 -1.0429688,0.7617187 -0.2578125,-0.65625 -0.7851562,-0.7617187 -1.078125,-0.7617187 -1.0429687,0 -1.60546875,1.2890625 -1.60546875,1.5351562 0,0.1054688 0.10546875,0.1054688 0.1171875,0.1054688 0.0820313,0 0.1171875,-0.023437 0.12890625,-0.1171875 0.3398438,-1.0546875 0.9960938,-1.3007813 1.3359375,-1.3007813 0.1875,0 0.5390625,0.09375 0.5390625,0.6679688 0,0.3046875 -0.1640625,0.9726562 -0.5390625,2.3671875 C 2.0277813,-0.526375 1.6762188,-0.1045 1.2309063,-0.1045 c -0.058594,0 -0.28125005,0 -0.49218755,-0.12890625 C 0.9848125,-0.292 1.2074688,-0.5029375 1.2074688,-0.77246875 1.2074688,-1.042 0.9848125,-1.1240312 0.83246875,-1.1240312 c -0.29296875,0 -0.5390625,0.25781245 -0.5390625,0.5742187 0,0.45703125 0.4921875,0.65625 0.93750005,0.65625 0.65625,0 1.0078125,-0.69140625 1.0429687,-0.75 0.1171875,0.36328125 0.4804688,0.75 1.078125,0.75 1.0195313,0 1.59375,-1.2773437 1.59375,-1.5351562 0,-0.09375 -0.09375,-0.09375 -0.1289062,-0.09375 -0.082031,0 -0.1054688,0.035156 -0.1289063,0.1054687 -0.328125,1.06640625 -0.9960937,1.3125 -1.3242187,1.3125 -0.3867188,0 -0.5390625,-0.328125 -0.5390625,-0.65625 0,-0.22265625 0.058594,-0.4453125 0.1640625,-0.8789062 z m 0,0"
       style="fill:#eb0a36;fill-opacity:1;fill-rule:nonzero;stroke:none"
       aria-label="x"
       transform="matrix(1.3333333,0,0,1.3333333,137.53067,148.38933)" />
    <g
       id="g17"
       aria-label="r(x)"
       transform="matrix(1.3333333,0,0,1.3333333,94.538667,199.01067)">
      <path
         id="path18"
         d="m 0.87920313,-0.58514844 c -0.0351563,0.15234375 -0.09375,0.375 -0.09375,0.421875 0,0.1875 0.140625,0.26953125 0.29296877,0.26953125 0.1171875,0 0.2929687,-0.0703125 0.3632812,-0.26953125 0.023437,-0.046875 0.3632813,-1.39453126 0.3984375,-1.58203126 0.082031,-0.328125 0.2578125,-1.0195312 0.3164063,-1.2890625 0.046875,-0.1289062 0.328125,-0.5976562 0.5625,-0.8203125 0.082031,-0.070312 0.375,-0.328125 0.796875,-0.328125 0.2578125,0 0.4101562,0.1171875 0.421875,0.1171875 -0.3046875,0.046875 -0.515625,0.2929688 -0.515625,0.5507813 0,0.1640625 0.1054687,0.3515625 0.375,0.3515625 0.2695312,0 0.5507812,-0.234375 0.5507812,-0.5859375 0,-0.3515625 -0.328125,-0.65625 -0.8320312,-0.65625 -0.6445313,0 -1.0898438,0.4921875 -1.2773438,0.7734375 -0.082031,-0.4570313 -0.4335937,-0.7734375 -0.9023437,-0.7734375 -0.45703127,0 -0.64453127,0.3867187 -0.73828127,0.5742187 -0.17578125,0.3398438 -0.3046875,0.9375 -0.3046875,0.9609375 0,0.1054688 0.09375,0.1054688 0.1171875,0.1054688 0.09375,0 0.10546875,-0.011719 0.1640625,-0.234375 0.17578125,-0.703125 0.375,-1.1835938 0.72656247,-1.1835938 0.1757813,0 0.3164063,0.082031 0.3164063,0.4570313 0,0.2109375 -0.035156,0.3164062 -0.1640625,0.8320312 z m 0,0"
         style="fill:#0000ff;fill-opacity:0.5;fill-rule:nonzero;stroke:none" />
      <path
         id="path19"
         d="m 8.0657266,2.3914141 c 0,-0.035156 0,-0.046875 -0.1640625,-0.2226563 -1.2421875,-1.25390624 -1.5703125,-3.12890624 -1.5703125,-4.6640625 0,-1.7226562 0.3867187,-3.4570312 1.6054687,-4.7109375 0.1289063,-0.1171875 0.1289063,-0.1289062 0.1289063,-0.1640625 0,-0.070312 -0.035156,-0.1054687 -0.09375,-0.1054687 -0.1054688,0 -0.9960938,0.6796875 -1.5820313,1.9453125 -0.515625,1.1015625 -0.6328125,2.203125 -0.6328125,3.0351562 0,0.7851563 0.1171875,1.99218751 0.65625,3.11718751 0.5976563,1.21874999 1.453125,1.87499999 1.5585938,1.87499999 0.058594,0 0.09375,-0.035156 0.09375,-0.1054687 z m 0,0"
         style="fill:#0000ff;fill-opacity:0.5;fill-rule:nonzero;stroke:none" />
      <path
         id="path20"
         d="m 11.976859,-3.0109297 c 0.05859,-0.2578125 0.292969,-1.171875 0.984375,-1.171875 0.04687,0 0.292969,0 0.503907,0.1289063 -0.28125,0.046875 -0.480469,0.3046875 -0.480469,0.5390625 0,0.1640625 0.105469,0.3515625 0.375,0.3515625 0.222656,0 0.539062,-0.1875 0.539062,-0.5859375 0,-0.515625 -0.585937,-0.65625 -0.925781,-0.65625 -0.574219,0 -0.925781,0.5273437 -1.042969,0.7617187 -0.257812,-0.65625 -0.785156,-0.7617187 -1.078125,-0.7617187 -1.0429684,0 -1.6054684,1.2890625 -1.6054684,1.5351562 0,0.1054688 0.1054688,0.1054688 0.1171875,0.1054688 0.082031,0 0.1171875,-0.023437 0.1289063,-0.1171875 0.3398437,-1.0546875 0.9960936,-1.3007813 1.3359376,-1.3007813 0.1875,0 0.539062,0.09375 0.539062,0.6679688 0,0.3046875 -0.164062,0.9726562 -0.539062,2.3671875 -0.152344,0.62109371 -0.503906,1.04296871 -0.9492189,1.04296871 -0.058594,0 -0.28125,0 -0.4921875,-0.12890625 0.2460938,-0.0585938 0.46875,-0.26953125 0.46875,-0.5390625 0,-0.26953126 -0.2226562,-0.35156246 -0.375,-0.35156246 -0.2929687,0 -0.5390625,0.25781246 -0.5390625,0.57421871 0,0.45703125 0.4921875,0.65625 0.9375,0.65625 0.6562499,0 1.0078129,-0.69140625 1.0429689,-0.75 0.117187,0.36328125 0.480469,0.75 1.078125,0.75 1.019531,0 1.59375,-1.27734371 1.59375,-1.53515621 0,-0.09375 -0.09375,-0.09375 -0.128906,-0.09375 -0.08203,0 -0.105469,0.035156 -0.128907,0.1054687 -0.328125,1.06640626 -0.996093,1.31250001 -1.324218,1.31250001 -0.386719,0 -0.539063,-0.328125 -0.539063,-0.65625 0,-0.22265625 0.05859,-0.44531251 0.164063,-0.87890621 z m 0,0"
         style="fill:#0000ff;fill-opacity:0.5;fill-rule:nonzero;stroke:none" />
      <path
         id="path21"
         d="m 17.22393,-2.4953047 c 0,-0.7734375 -0.117188,-1.9804687 -0.65625,-3.1054687 -0.597657,-1.21875 -1.464844,-1.875 -1.558594,-1.875 -0.05859,0 -0.105469,0.046875 -0.105469,0.1054687 0,0.035156 0,0.046875 0.199219,0.234375 0.972656,0.984375 1.535156,2.5664063 1.535156,4.640625 0,1.71093751 -0.363281,3.45703126 -1.59375,4.7226563 -0.140625,0.1171875 -0.140625,0.1289062 -0.140625,0.1640625 0,0.058594 0.04687,0.1054687 0.105469,0.1054687 0.09375,0 0.996094,-0.6796875 1.582031,-1.94531249 0.503906,-1.1015625 0.632813,-2.20312501 0.632813,-3.04687501 z m 0,0"
         style="fill:#0000ff;fill-opacity:0.5;fill-rule:nonzero;stroke:none" />
    </g>
    <path
       id="path22"
       d="m 76.53586,10.2046 c -1.40894,7.32128 -4.52953,9.82984 -6.96988,5.60291 -2.44035,-4.22693 -3.27652,-13.58893 -1.86758,-20.91019 1.40893,-7.32127 4.52952,-9.82982 6.96987,-5.6029 0.77543,1.34303 1.41994,3.27655 1.73393,4.90831"
       style="fill:none;stroke:#008080;stroke-width:0.79701;stroke-linecap:butt;stroke-linejoin:miter;stroke-miterlimit:10;stroke-dasharray:none;stroke-opacity:1"
       transform="matrix(1.3333333,0,0,-1.3333333,55.410667,212.69733)" />
    <path
       id="path23"
       d="M -1.55415,2.0722 C -1.42464,1.29512 0,0.1295 0.38852,0 0,-0.1295 -1.42464,-1.29512 -1.55415,-2.0722"
       style="fill:none;stroke:#008080;stroke-width:0.6376;stroke-linecap:round;stroke-linejoin:round;stroke-miterlimit:10;stroke-dasharray:none;stroke-opacity:1"
       transform="matrix(0.25193333,-1.30928,-1.30928,-0.25193333,157.28027,220.42705)" />
  </g>
</svg>
