<?xml version="1.0" encoding="UTF-8" standalone="no"?>
<!-- Created with Inkscape (http://www.inkscape.org/) -->

<svg
   version="1.1"
   id="svg1"
   width="139.57663"
   height="225.82016"
   viewBox="0 0 139.57663 225.82016"
   sodipodi:docname="6.2-ejemplo-cubica.svg"
   inkscape:version="1.4.2 (f4327f4, 2025-05-13)"
   xmlns:inkscape="http://www.inkscape.org/namespaces/inkscape"
   xmlns:sodipodi="http://sodipodi.sourceforge.net/DTD/sodipodi-0.dtd"
   xmlns="http://www.w3.org/2000/svg"
   xmlns:svg="http://www.w3.org/2000/svg">
  <defs
     id="defs1" />
  <sodipodi:namedview
     id="namedview1"
     pagecolor="#ffffff"
     bordercolor="#000000"
     borderopacity="0.25"
     inkscape:showpageshadow="2"
     inkscape:pageopacity="0.0"
     inkscape:pagecheckerboard="0"
     inkscape:deskcolor="#d1d1d1"
     inkscape:zoom="2.2241536"
     inkscape:cx="203.89779"
     inkscape:cy="125.21617"
     inkscape:window-width="1920"
     inkscape:window-height="1009"
     inkscape:window-x="-8"
     inkscape:window-y="-8"
     inkscape:window-maximized="1"
     inkscape:current-layer="g1">
    <inkscape:page
       x="0"
       y="0"
       inkscape:label="15"
       id="page1"
       width="139.57663"
       height="225.82016"
       margin="0"
       bleed="0" />
  </sodipodi:namedview>
  <g
     id="g1"
     inkscape:groupmode="layer"
     inkscape:label="15"
     transform="translate(-38.060093,-56.175781)">
    <path
       id="path2"
       d="M -25.51193,0 H 76.07758"
       style="fill:none;stroke:#000000;stroke-width:0.3985;stroke-linecap:butt;stroke-linejoin:miter;stroke-miterlimit:10;stroke-dasharray:none;stroke-opacity:1"
       transform="matrix(1.3333333,0,0,-1.3333333,72.076,264.988)" />
    <path
       id="path3"
       d="M -1.19551,1.59401 C -1.09587,0.99626 0,0.09961 0.29886,0 0,-0.09961 -1.09587,-0.99626 -1.19551,-1.59401"
       style="fill:none;stroke:#000000;stroke-width:0.31879;stroke-linecap:round;stroke-linejoin:round;stroke-miterlimit:10;stroke-dasharray:none;stroke-opacity:1"
       transform="matrix(1.3333333,0,0,-1.3333333,173.51277,264.988)" />
    <path
       id="path4"
       d="m 3.6431641,-3.2935078 c 0.070312,-0.28125 0.3164062,-1.2890625 1.078125,-1.2890625 0.058594,0 0.3164062,0 0.5507812,0.140625 -0.3046875,0.058594 -0.5273437,0.328125 -0.5273437,0.5859375 0,0.1757812 0.1171875,0.3867187 0.4101562,0.3867187 0.2460938,0 0.5976563,-0.1992187 0.5976563,-0.6328125 0,-0.5625 -0.6445313,-0.7265625 -1.0195313,-0.7265625 -0.6328125,0 -1.0195312,0.5859375 -1.1484375,0.8320313 -0.2695312,-0.7148438 -0.8554687,-0.8320313 -1.171875,-0.8320313 -1.1367187,0 -1.75781249,1.4179688 -1.75781249,1.6875 0,0.1054688 0.10546875,0.1054688 0.12890625,0.1054688 0.0820313,0 0.1171875,-0.023437 0.140625,-0.1171875 0.37500004,-1.1601563 1.08984374,-1.4296875 1.46484374,-1.4296875 0.2109375,0 0.5859375,0.09375 0.5859375,0.7265625 0,0.3398437 -0.1875,1.078125 -0.5859375,2.6015625 -0.1757812,0.67968749 -0.5625,1.13671874 -1.0429687,1.13671874 -0.058594,0 -0.3164063,0 -0.53906254,-0.140625 0.26953124,-0.0585938 0.51562504,-0.29296875 0.51562504,-0.59765625 0,-0.29296879 -0.2460938,-0.37499999 -0.41015629,-0.37499999 -0.328125,0 -0.59765625,0.28124999 -0.59765625,0.63281249 0,0.50390625 0.55078125,0.71484375 1.03125004,0.71484375 0.7148437,0 1.1015625,-0.76171875 1.1367187,-0.83203125 0.1289063,0.41015625 0.5273438,0.83203125 1.1835938,0.83203125 1.125,0 1.7460937,-1.40625004 1.7460937,-1.67578124 0,-0.1054688 -0.1054687,-0.1054688 -0.1289062,-0.1054688 -0.1054688,0 -0.1289063,0.035156 -0.140625,0.1171875 -0.3632813,1.16015629 -1.1132813,1.42968754 -1.453125,1.42968754 -0.4335938,0 -0.609375,-0.3515625 -0.609375,-0.7265625 0,-0.23437504 0.070312,-0.48046874 0.1875,-0.96093754 z m 0,0"
       style="fill:#000000;fill-opacity:1;fill-rule:nonzero;stroke:none"
       aria-label="x"
       transform="matrix(1.3333333,0,0,1.3333333,169.96667,276.364)" />
    <path
       id="path5"
       d="m 0,-12.75595 v 165.3694"
       style="fill:none;stroke:#000000;stroke-width:0.3985;stroke-linecap:butt;stroke-linejoin:miter;stroke-miterlimit:10;stroke-dasharray:none;stroke-opacity:1"
       transform="matrix(1.3333333,0,0,-1.3333333,72.076,264.988)" />
    <path
       id="path6"
       d="M -1.19551,1.59401 C -1.09587,0.99626 0,0.09961 0.29886,0 0,-0.09961 -1.09587,-0.99626 -1.19551,-1.59401"
       style="fill:none;stroke:#000000;stroke-width:0.31879;stroke-linecap:round;stroke-linejoin:round;stroke-miterlimit:10;stroke-dasharray:none;stroke-opacity:1"
       transform="matrix(0,-1.3333333,-1.3333333,0,72.076,61.5034)" />
    <path
       id="path7"
       d="m 5.2963203,-4.1591953 c 0.046875,-0.1523438 0.046875,-0.1757813 0.046875,-0.2460938 0,-0.1992187 -0.1523437,-0.2929687 -0.3164062,-0.2929687 -0.1054688,0 -0.28125,0.058594 -0.375,0.2226562 -0.023437,0.058594 -0.1171875,0.3984375 -0.1523438,0.5976563 -0.082031,0.28125 -0.1523437,0.5742187 -0.2226562,0.8671875 l -0.4921875,1.96875 c -0.046875,0.16406249 -0.515625,0.92578124 -1.2304688,0.92578124 -0.5625,0 -0.6796875,-0.48046875 -0.6796875,-0.89062504 0,-0.4921875 0.1875,-1.171875 0.5625,-2.1328125 0.1757813,-0.4453125 0.2109375,-0.5742187 0.2109375,-0.7851562 0,-0.4921875 -0.3515625,-0.9023438 -0.890625,-0.9023438 -1.04296874,0 -1.44140624,1.5820313 -1.44140624,1.6875 0,0.1054688 0.10546875,0.1054688 0.12890625,0.1054688 0.10546875,0 0.1171875,-0.023437 0.17578125,-0.1992188 0.29296875,-1.0195312 0.72656254,-1.3476562 1.10156254,-1.3476562 0.09375,0 0.2695312,0 0.2695312,0.3515625 0,0.2695312 -0.1054687,0.5507812 -0.1757812,0.7617187 -0.4453125,1.1601563 -0.6328125,1.78125 -0.6328125,2.2851563 0,0.97265624 0.6796875,1.30078124 1.3242187,1.30078124 0.421875,0 0.796875,-0.1875 1.1015625,-0.4921875 -0.140625,0.57421875 -0.2695312,1.1015625 -0.703125,1.68749996 -0.2929687,0.3632813 -0.703125,0.6796875 -1.2070312,0.6796875 -0.1523438,0 -0.6445313,-0.023437 -0.83203129,-0.4570312 0.17578129,0 0.31640629,0 0.48046879,-0.1289063 0.1054687,-0.09375 0.2109375,-0.234375 0.2109375,-0.44531246 0,-0.33984375 -0.2929688,-0.38671875 -0.3984375,-0.38671875 -0.25781254,0 -0.60937504,0.17578125 -0.60937504,0.71484371 0,0.5390625 0.48046874,0.9492188 1.14843754,0.9492188 1.125,0 2.25,-0.9960938 2.5546875,-2.22656251 z m 0,0"
       style="fill:#000000;fill-opacity:1;fill-rule:nonzero;stroke:none"
       aria-label="y"
       transform="matrix(1.3333333,0,0,1.3333333,59.309333,62.612)" />
    <path
       id="path8"
       d="M 0,0 H 0.25612 0.51227 L 0.76842,3.7e-4 1.02457,7.5e-4 1.28072,0.00153 1.53687,0.0031 1.793,0.00504 2.04916,0.00778 2.30531,0.01128 2.56145,0.01517 2.81758,0.02023 3.07375,0.02644 3.3299,0.03384 3.58603,0.0424 3.8422,0.05214 4.09834,0.06305 4.35448,0.0759 4.61063,0.09029 4.86679,0.10588 5.12292,0.12376 5.37907,0.14322 5.63521,0.16464 5.89137,0.18839 6.1475,0.2141 6.40366,0.24171 6.6598,0.2721 6.91595,0.3048 7.1721,0.33981 7.42825,0.37758 7.68439,0.41808 7.94055,0.46129 8.19669,0.5072 8.45284,0.55666 8.70898,0.60881 8.96513,0.6641 l 0.25615,0.05839 0.25614,0.06189 0.25616,0.0654 0.25615,0.06891 0.25613,0.0728 0.25615,0.07589 0.25617,0.08019 0.25612,0.0841 0.25615,0.08797 0.25615,0.09187 0.25616,0.09615 0.25614,0.10045 0.25614,0.1051 0.25617,0.10938 0.25613,0.11366 0.25615,0.11875 0.25615,0.12301 0.25614,0.12808 0.25614,0.13312 0.25615,0.1382 0.25615,0.14287 0.25615,0.14871 0.25615,0.15336 0.25615,0.15923 0.25613,0.16466 0.25617,0.17012 0.25615,0.17555 0.25613,0.18181 0.25615,0.18725 0.25615,0.19349 0.25614,0.19929 0.25614,0.20552 0.25617,0.21179 0.25615,0.21839 0.25613,0.22421 0.25615,0.23123 0.25617,0.23747 0.25613,0.24408 0.25613,0.25148 0.25615,0.25771 0.25615,0.26511 0.25615,0.27169 0.25615,0.27951 0.25615,0.28614 0.25615,0.29391 0.25615,0.30129 0.25615,0.30833 0.25615,0.31686 0.25615,0.32389 0.25613,0.33204 0.25614,0.33985 0.25616,0.34724 0.25615,0.35619 0.25613,0.3636 0.25615,0.37253 0.25617,0.38112 0.25613,0.3885 0.25615,0.39784 0.25617,0.40641 0.25613,0.41536 0.25613,0.42393 0.25615,0.43211 0.25617,0.44181 0.25613,0.4516 0.25615,0.46011 0.25615,0.46909 0.25615,0.47921 0.25615,0.48815 0.25615,0.49788 0.25615,0.50764 0.25613,0.51735 0.25615,0.52748 0.25615,0.53644 0.25615,0.54732 0.25615,0.55744 0.25615,0.56759 0.25613,0.57808 0.25617,0.58783 0.25615,0.59869 0.25613,0.60962 0.25615,0.62013 0.25615,0.63101 0.25615,0.64075 0.25613,0.65323 0.25615,0.66373 0.25616,0.67501 0.25614,0.6863 0.25615,0.69722 0.25616,0.70848 0.25614,0.72056 0.25615,0.73263 0.25613,0.74392 0.25616,0.75521 0.25614,0.76767 0.25615,0.77894 0.25615,0.79178 0.25615,0.80389 0.25615,0.81514 0.25615,0.82879 0.25613,0.84124 0.25616,0.8533 0.25615,0.86655 0.25614,0.87822 0.25615,0.89145 0.25615,0.90431 0.25614,0.91791 0.25614,0.93037 0.25616,0.94364 0.25616,0.95724 0.25613,0.97087 0.25615,0.9837 0.25616,0.99775 0.25612,1.01055 0.25615,1.02538 0.25615,1.03862 0.25616,1.0534 0.25614,1.06661 0.25614,1.08104 0.25617,1.09427 0.25613,1.10985 0.25615,1.12386 0.25615,1.13864 0.25615,1.15304 0.25614,1.16745 0.25615,1.18227 0.25615,1.19743 0.25614,1.21262 0.25615,1.22738 0.25615,1.24183 0.25614,1.25814 0.25616,1.27295 0.25615,1.28852 0.25613,1.30488 0.25615,1.3185 0.25615,1.33523 0.25614,1.35159 0.25615,1.36715 0.25616,1.38351 0.25615,1.39792 0.25613,1.4158 0.25616,1.43178 0.25616,1.44774 0.25614,1.46527 0.25614,1.48003 0.25614,1.49759 0.25615,1.51429 0.25614,1.53182 0.25615,1.54817 0.25615,1.56375 0.25615,1.58243 0.25615,1.59955 0.25615,1.61708 0.25615,1.63422 0.25615,1.65054 0.25613,1.66886 0.25614,1.68714 0.25616,1.70545 0.25615,1.72216 0.25614,1.73932 0.25614,1.7584 0.25617,1.77667 0.25613,1.79458 0.25615,1.81406 0.25617,1.83002"
       style="fill:none;stroke:#eb0a36;stroke-width:0.79701;stroke-linecap:butt;stroke-linejoin:miter;stroke-miterlimit:10;stroke-dasharray:none;stroke-opacity:1"
       transform="matrix(1.3333333,0,0,-1.3333333,72.076,264.988)" />
    <path
       id="path9"
       d="M 0,0 H 0.51498 L 1.03001,7.5e-4 1.54503,0.0031 2.06004,0.00778 2.57507,0.01556 3.09009,0.02684 3.60512,0.0428 4.12012,0.06421 4.63515,0.09146 5.15016,0.12572 5.66519,0.16737 6.1802,0.2172 6.69524,0.27637 7.21025,0.34528 7.72527,0.42467 8.24028,0.51538 8.75531,0.61815 9.27032,0.73416 9.78535,0.8634 l 0.51502,0.14365 0.51501,0.15881 0.51503,0.17481 0.515,0.19113 0.51503,0.20866 0.51502,0.22696 0.51503,0.24561 0.51501,0.26512 0.51503,0.2861 0.51502,0.30676 0.51501,0.32895 0.51502,0.35114 0.51502,0.37488 0.51502,0.399 0.51503,0.42432 0.51502,0.44963 0.51503,0.47648 0.51501,0.50295 0.515,0.53137 0.51503,0.56017 0.51501,0.58938 0.51503,0.61972 0.51502,0.65051 0.51503,0.68239 0.51501,0.7151 0.51502,0.7482 0.51501,0.7821 0.51503,0.8167 0.51502,0.85253 0.51503,0.88872 0.515,0.92572 0.51503,0.96347 0.51501,1.00241 0.51501,1.04094 0.51502,1.08102 0.51503,1.1223 0.51501,1.16396 0.51504,1.20639 0.51501,1.24841 0.51501,1.2932 0.51502,1.33796 0.51501,1.38273 0.51503,1.42904 0.51502,1.47539 0.51503,1.52365 0.51501,1.57153 0.51503,1.62136 0.51502,1.67039 0.51501,1.72103 0.51502,1.77279 0.51503,1.82533 0.51501,1.8779 0.51503,1.93123 0.51501,1.98534 0.51502,2.04138 0.51501,2.09706 0.51502,2.15351 0.51503,2.21111 0.51502,2.2695 0.51502,2.32752 0.51502,2.38785 0.51503,2.44821 0.515,2.51009 0.51503,2.57118 0.51501,2.6335 0.51503,2.69734 0.51502,2.76233 0.51503,2.82658 0.51501,2.89313 0.51503,2.95778 0.515,3.02666 0.51501,3.09478 0.51503,3.1633 0.51502,3.23298 0.51503,3.30151 0.51501,3.3743 0.51503,3.44552 0.515,3.51834 0.51504,3.5919 0.515,3.6647 0.037,0.26663 h -0.51503 -0.51502 -0.515 -0.51503 -0.51502 -0.51502 -0.51502 -0.51503 -0.51501 -0.51503 -0.515 H 44.84366 44.32864 43.81361 43.2986 42.78357 42.26855 41.75354 41.23853 40.72351 40.20848 39.69347 39.17844 38.66342 38.1484 37.63339 37.11836 36.60335 36.08832 35.5733 35.05827 34.54326 34.02824 33.51323 32.9982 32.48318 31.96817 31.45314 30.93813 30.42311 29.9081 29.39307 28.87805 28.36302 27.848 27.33298 26.81796 26.30295 25.78793 25.27292 24.7579 24.24287 23.72786 23.21283 22.69783 22.18282 21.66779 21.15277 20.63774 20.12273 19.6077 19.09268 18.57767 18.06265 17.54762 17.03261 16.51758 16.00256 15.48753 14.97253 14.4575 13.94249 13.42747 12.91245 12.39743 11.8824 11.36739 10.85237 10.33736 9.82233 9.30731 8.79228 8.27727 7.76224 7.24724 6.73221 6.2172 5.70216 5.18715 4.67213 4.1571 3.6421 3.12708 2.61206 2.09703 1.58202 1.06699 0.55197 0.03696 Z"
       style="fill:#9999ff;fill-opacity:0.25;fill-rule:nonzero;stroke:none"
       transform="matrix(1.3333333,0,0,-1.3333333,72.076,264.988)" />
    <path
       id="path10"
       d="M 0,122.45743 H 51.0239"
       style="fill:none;stroke:#ec008c;stroke-width:0.3985;stroke-linecap:butt;stroke-linejoin:miter;stroke-miterlimit:10;stroke-dasharray:2.98883, 2.98883;stroke-dashoffset:0;stroke-opacity:1"
       transform="matrix(1.3333333,0,0,-1.3333333,72.076,264.988)" />
    <g
       id="g10"
       aria-label="y=x&#10;3"
       transform="matrix(1.3333333,0,0,1.3333333,137.98933,201.072)">
      <path
         id="path11"
         d="m 4.8390547,-3.7981406 c 0.046875,-0.140625 0.046875,-0.1523438 0.046875,-0.2226563 0,-0.1875 -0.140625,-0.2695312 -0.2929688,-0.2695312 -0.1054687,0 -0.2578125,0.058594 -0.3515625,0.1992187 -0.023437,0.058594 -0.09375,0.3632813 -0.140625,0.5390625 -0.070312,0.2578125 -0.140625,0.5273438 -0.1992187,0.796875 l -0.4453125,1.79296877 c -0.035156,0.15234375 -0.46875,0.85546875 -1.125,0.85546875 -0.5039063,0 -0.6210938,-0.4453125 -0.6210938,-0.80859375 0,-0.45703127 0.1757813,-1.07812497 0.515625,-1.95703127 0.1523438,-0.4101562 0.1992188,-0.515625 0.1992188,-0.7148437 0,-0.4453125 -0.328125,-0.8203125 -0.8203125,-0.8203125 -0.94921876,0 -1.31250001,1.453125 -1.31250001,1.5351562 0,0.1054688 0.09375,0.1054688 0.1171875,0.1054688 0.09375,0 0.10546875,-0.023437 0.15234375,-0.1875 0.26953125,-0.9375 0.66796876,-1.2304688 1.00781246,-1.2304688 0.082031,0 0.2578125,0 0.2578125,0.3164063 0,0.2460937 -0.1054687,0.515625 -0.1757812,0.703125 -0.3984375,1.0546875 -0.5742188,1.6171875 -0.5742188,2.0859375 0,0.89062497 0.6210938,1.18359372 1.21875,1.18359372 0.3867188,0 0.7265625,-0.1640625 0.9960938,-0.4453125 -0.1289063,0.515625 -0.2460938,1.0078125 -0.6445313,1.53515628 -0.2578125,0.3398437 -0.6328125,0.6328125 -1.0898437,0.6328125 -0.140625,0 -0.59765626,-0.035156 -0.76171876,-0.421875 0.1640625,0 0.29296876,0 0.43359376,-0.1171875 0.09375,-0.09375 0.1992187,-0.2226563 0.1992187,-0.41015628 0,-0.31640625 -0.2695312,-0.3515625 -0.375,-0.3515625 -0.22265621,0 -0.55078121,0.1640625 -0.55078121,0.64453128 0,0.5039062 0.43359375,0.8671875 1.05468751,0.8671875 1.0195312,0 2.0507812,-0.9023438 2.3320312,-2.02734378 z m 0,0"
         style="fill:#eb0a36;fill-opacity:1;fill-rule:nonzero;stroke:none" />
      <path
         id="path12"
         d="m 14.855656,-3.2590781 c 0.152344,0 0.339844,0 0.339844,-0.1992188 0,-0.1992187 -0.1875,-0.1992187 -0.328125,-0.1992187 H 8.9025313 c -0.140625,0 -0.328125,0 -0.328125,0.1992187 0,0.1992188 0.1875,0.1992188 0.3398437,0.1992188 z m 0.01172,1.9335937 c 0.140625,0 0.328125,0 0.328125,-0.1992187 0,-0.1992188 -0.1875,-0.1992188 -0.339844,-0.1992188 H 8.91425 c -0.1523437,0 -0.3398437,0 -0.3398437,0.1992188 0,0.1992187 0.1875,0.1992187 0.328125,0.1992187 z m 0,0"
         style="fill:#eb0a36;fill-opacity:1;fill-rule:nonzero;stroke:none" />
      <path
         id="path13"
         d="m 21.84882,-3.0129844 c 0.05859,-0.2578125 0.292969,-1.171875 0.984375,-1.171875 0.04687,0 0.292969,0 0.503907,0.1289063 -0.28125,0.046875 -0.480469,0.3046875 -0.480469,0.5390625 0,0.1640625 0.105469,0.3515625 0.375,0.3515625 0.222656,0 0.539062,-0.1875 0.539062,-0.5859375 0,-0.515625 -0.585937,-0.65625 -0.925781,-0.65625 -0.574219,0 -0.925781,0.5273437 -1.042969,0.7617187 -0.257812,-0.65625 -0.785156,-0.7617187 -1.078125,-0.7617187 -1.042968,0 -1.605468,1.2890625 -1.605468,1.5351562 0,0.1054688 0.105468,0.1054688 0.117187,0.1054688 0.08203,0 0.117188,-0.023437 0.128906,-0.1171875 0.339844,-1.0546875 0.996094,-1.3007813 1.335938,-1.3007813 0.1875,0 0.539062,0.09375 0.539062,0.6679688 0,0.3046875 -0.164062,0.9726562 -0.539062,2.3671875 -0.152344,0.62109372 -0.503906,1.04296872 -0.949219,1.04296872 -0.05859,0 -0.28125,0 -0.492187,-0.12890625 0.246093,-0.0585938 0.46875,-0.26953125 0.46875,-0.5390625 0,-0.26953127 -0.222657,-0.35156247 -0.375,-0.35156247 -0.292969,0 -0.539063,0.25781247 -0.539063,0.57421872 0,0.45703125 0.492188,0.65625 0.9375,0.65625 0.65625,0 1.007813,-0.69140625 1.042969,-0.75 0.117187,0.36328125 0.480469,0.75 1.078125,0.75 1.019531,0 1.59375,-1.27734372 1.59375,-1.53515622 0,-0.09375 -0.09375,-0.09375 -0.128906,-0.09375 -0.08203,0 -0.105469,0.035156 -0.128907,0.1054687 -0.328125,1.06640627 -0.996093,1.31250002 -1.324218,1.31250002 -0.386719,0 -0.539063,-0.328125 -0.539063,-0.65625 0,-0.22265625 0.05859,-0.44531252 0.164063,-0.87890622 z m 0,0"
         style="fill:#eb0a36;fill-opacity:1;fill-rule:nonzero;stroke:none" />
      <path
         id="path14"
         d="m 26.117375,-5.9456016 c 0.550781,0 0.9375,0.375 0.9375,1.125 0,0.8671875 -0.503906,1.125 -0.902344,1.125 -0.28125,0 -0.890625,-0.082031 -1.183593,-0.4921875 0.328125,-0.011719 0.398437,-0.2460937 0.398437,-0.3867187 0,-0.2226563 -0.164062,-0.3867188 -0.386719,-0.3867188 -0.1875,0 -0.386718,0.1171875 -0.386718,0.4101563 0,0.65625 0.726562,1.078125 1.570312,1.078125 0.972656,0 1.640625,-0.6445313 1.640625,-1.3476563 0,-0.5390625 -0.445312,-1.0898437 -1.21875,-1.2421875 0.738281,-0.2695312 0.996094,-0.796875 0.996094,-1.21875 0,-0.5507812 -0.632813,-0.9609375 -1.40625,-0.9609375 -0.773438,0 -1.359375,0.375 -1.359375,0.9375 0,0.234375 0.152344,0.3632813 0.363281,0.3632813 0.210938,0 0.351563,-0.1640625 0.351563,-0.3515625 0,-0.1992188 -0.140625,-0.3515625 -0.351563,-0.3632813 0.234375,-0.3046875 0.714844,-0.3867187 0.972656,-0.3867187 0.316407,0 0.761719,0.1523437 0.761719,0.7617187 0,0.2929688 -0.105469,0.609375 -0.28125,0.8320313 -0.234375,0.2578125 -0.421875,0.28125 -0.773437,0.2929687 -0.175782,0.023437 -0.1875,0.023437 -0.222657,0.023437 -0.01172,0 -0.07031,0.011719 -0.07031,0.09375 0,0.09375 0.05859,0.09375 0.175781,0.09375 z m 0,0"
         style="fill:#eb0a36;fill-opacity:1;fill-rule:nonzero;stroke:none" />
    </g>
    <path
       id="path15"
       d="m 1.6281406,-4.5477344 c -0.46875,-0.3046875 -0.5039062,-0.6445312 -0.5039062,-0.8085937 0,-0.609375 0.6445312,-1.03125 1.359375,-1.03125 0.7265625,0 1.359375,0.515625 1.359375,1.2421875 0,0.5625 -0.3867188,1.0429687 -0.984375,1.3945312 z m 1.453125,0.9375 c 0.7148438,-0.3632812 1.2070313,-0.8789062 1.2070313,-1.5351562 0,-0.9257813 -0.890625,-1.4882813 -1.7929688,-1.4882813 -0.9960937,0 -1.80468747,0.7382813 -1.80468747,1.6640625 0,0.1757813 0.0117188,0.6210938 0.43359377,1.0898438 0.1054687,0.1289062 0.4804687,0.375 0.7265625,0.5390625 -0.5742188,0.2929687 -1.42968752,0.84375 -1.42968752,1.8398437 0,1.05468752 1.00781252,1.72265627 2.06250002,1.72265627 1.125,0 2.0625,-0.83203125 2.0625,-1.89843747 0,-0.3515625 -0.1054688,-0.8085938 -0.4804688,-1.21875 -0.1875,-0.2109375 -0.3515625,-0.3164063 -0.984375,-0.7148438 z m -0.9960937,0.421875 1.21875,0.7734375 c 0.28125,0.1875 0.75,0.4921875 0.75,1.1015625 0,0.73828127 -0.75,1.25390627 -1.5585938,1.25390627 -0.8671875,0 -1.58203122,-0.62109375 -1.58203122,-1.44140627 0,-0.5859375 0.31640622,-1.21875 1.17187502,-1.6875 z m 0,0"
       style="fill:#ec008c;fill-opacity:1;fill-rule:nonzero;stroke:none"
       aria-label="8"
       transform="matrix(1.3333333,0,0,1.3333333,60.321333,105.99333)" />
  </g>
</svg>
