<?xml version="1.0" encoding="UTF-8" standalone="no"?>
<!-- Created with Inkscape (http://www.inkscape.org/) -->

<svg
   version="1.1"
   id="svg1"
   width="217.13281"
   height="176.6884"
   viewBox="0 0 217.13281 176.6884"
   sodipodi:docname="6.5-teorema-valor-medio.svg"
   inkscape:version="1.4.2 (f4327f4, 2025-05-13)"
   xmlns:inkscape="http://www.inkscape.org/namespaces/inkscape"
   xmlns:sodipodi="http://sodipodi.sourceforge.net/DTD/sodipodi-0.dtd"
   xmlns="http://www.w3.org/2000/svg"
   xmlns:svg="http://www.w3.org/2000/svg">
  <defs
     id="defs1" />
  <sodipodi:namedview
     id="namedview1"
     pagecolor="#ffffff"
     bordercolor="#000000"
     borderopacity="0.25"
     inkscape:showpageshadow="2"
     inkscape:pageopacity="0.0"
     inkscape:pagecheckerboard="0"
     inkscape:deskcolor="#d1d1d1"
     inkscape:zoom="2.2241536"
     inkscape:cx="198.95209"
     inkscape:cy="106.78219"
     inkscape:window-width="1920"
     inkscape:window-height="1009"
     inkscape:window-x="-8"
     inkscape:window-y="-8"
     inkscape:window-maximized="1"
     inkscape:current-layer="g1">
    <inkscape:page
       x="6.0846895e-07"
       y="9.8491535e-07"
       inkscape:label="18"
       id="page1"
       width="217.13281"
       height="176.6884"
       margin="0"
       bleed="0" />
  </sodipodi:namedview>
  <g
     id="g1"
     inkscape:groupmode="layer"
     inkscape:label="18"
     transform="translate(-43.347656,-74.609374)">
    <path
       id="path2"
       d="M -19.84267,0 H 138.44048"
       style="fill:none;stroke:#000000;stroke-width:0.3985;stroke-linecap:butt;stroke-linejoin:miter;stroke-miterlimit:10;stroke-dasharray:none;stroke-opacity:1"
       transform="matrix(1.3333333,0,0,-1.3333333,71.770667,238.06933)" />
    <path
       id="path3"
       d="M -1.19551,1.59401 C -1.09587,0.99626 0,0.09961 0.29886,0 0,-0.09961 -1.09587,-0.99626 -1.19551,-1.59401"
       style="fill:none;stroke:#000000;stroke-width:0.31879;stroke-linecap:round;stroke-linejoin:round;stroke-miterlimit:10;stroke-dasharray:none;stroke-opacity:1"
       transform="matrix(1.3333333,0,0,-1.3333333,256.35797,238.06933)" />
    <path
       id="path4"
       d="m 3.6439766,-3.2929844 c 0.070312,-0.28125 0.3164062,-1.2890625 1.078125,-1.2890625 0.058594,0 0.3164062,0 0.5507812,0.140625 -0.3046875,0.058594 -0.5273437,0.328125 -0.5273437,0.5859375 0,0.1757813 0.1171875,0.3867188 0.4101562,0.3867188 0.2460938,0 0.5976563,-0.1992188 0.5976563,-0.6328125 0,-0.5625 -0.6445313,-0.7265625 -1.0195313,-0.7265625 -0.6328125,0 -1.0195312,0.5859375 -1.1484375,0.8320312 -0.2695312,-0.7148437 -0.8554687,-0.8320312 -1.171875,-0.8320312 -1.1367187,0 -1.75781249,1.4179687 -1.75781249,1.6875 0,0.1054687 0.10546875,0.1054687 0.12890625,0.1054687 0.0820313,0 0.1171875,-0.023437 0.140625,-0.1171875 0.37500004,-1.1601562 1.08984374,-1.4296875 1.46484374,-1.4296875 0.2109375,0 0.5859375,0.09375 0.5859375,0.7265625 0,0.3398438 -0.1875,1.078125 -0.5859375,2.6015625 -0.1757812,0.67968753 -0.5625,1.13671878 -1.0429687,1.13671878 -0.058594,0 -0.3164063,0 -0.53906254,-0.140625 0.26953124,-0.0585938 0.51562504,-0.29296875 0.51562504,-0.59765625 0,-0.29296873 -0.2460938,-0.37500003 -0.41015629,-0.37500003 -0.328125,0 -0.59765625,0.28125003 -0.59765625,0.63281253 0,0.50390625 0.55078125,0.71484375 1.03125004,0.71484375 0.7148437,0 1.1015625,-0.76171875 1.1367187,-0.83203125 0.1289063,0.41015625 0.5273438,0.83203125 1.1835938,0.83203125 1.125,0 1.7460937,-1.40624998 1.7460937,-1.67578128 0,-0.1054687 -0.1054687,-0.1054687 -0.1289062,-0.1054687 -0.1054688,0 -0.1289063,0.035156 -0.140625,0.1171875 -0.3632813,1.16015623 -1.1132813,1.42968748 -1.453125,1.42968748 -0.4335938,0 -0.609375,-0.3515625 -0.609375,-0.7265625 0,-0.23437498 0.070312,-0.48046878 0.1875,-0.96093748 z m 0,0"
       style="fill:#000000;fill-opacity:1;fill-rule:nonzero;stroke:none"
       aria-label="x"
       transform="matrix(1.3333333,0,0,1.3333333,252.80933,249.44533)" />
    <path
       id="path5"
       d="M 0,-9.92133 V 118.59778"
       style="fill:none;stroke:#000000;stroke-width:0.3985;stroke-linecap:butt;stroke-linejoin:miter;stroke-miterlimit:10;stroke-dasharray:none;stroke-opacity:1"
       transform="matrix(1.3333333,0,0,-1.3333333,71.770667,238.06933)" />
    <path
       id="path6"
       d="M -1.19551,1.59401 C -1.09587,0.99626 0,0.09961 0.29886,0 0,-0.09961 -1.09587,-0.99626 -1.19551,-1.59401"
       style="fill:none;stroke:#000000;stroke-width:0.31879;stroke-linecap:round;stroke-linejoin:round;stroke-miterlimit:10;stroke-dasharray:none;stroke-opacity:1"
       transform="matrix(0,-1.3333333,-1.3333333,0,71.770667,79.93896)" />
    <path
       id="path7"
       d="m 5.2968047,-4.16 c 0.046875,-0.1523437 0.046875,-0.1757812 0.046875,-0.2460937 0,-0.1992188 -0.1523438,-0.2929688 -0.3164063,-0.2929688 -0.1054687,0 -0.28125,0.058594 -0.375,0.2226563 -0.023437,0.058594 -0.1171875,0.3984375 -0.1523437,0.5976562 -0.082031,0.28125 -0.1523438,0.5742188 -0.2226563,0.8671875 l -0.4921875,1.96875 c -0.046875,0.1640625 -0.515625,0.92578125 -1.2304687,0.92578125 -0.5625,0 -0.6796875,-0.48046875 -0.6796875,-0.89062495 0,-0.4921875 0.1875,-1.171875 0.5625,-2.1328125 0.1757812,-0.4453125 0.2109375,-0.5742188 0.2109375,-0.7851563 0,-0.4921875 -0.3515625,-0.9023437 -0.890625,-0.9023437 -1.04296876,0 -1.44140626,1.5820312 -1.44140626,1.6875 0,0.1054687 0.10546875,0.1054687 0.12890625,0.1054687 0.10546875,0 0.1171875,-0.023437 0.17578125,-0.1992187 C 0.91399219,-4.25375 1.3475859,-4.581875 1.7225859,-4.581875 c 0.09375,0 0.2695313,0 0.2695313,0.3515625 0,0.2695313 -0.1054688,0.5507813 -0.1757813,0.7617188 -0.4453125,1.1601562 -0.6328125,1.78125 -0.6328125,2.2851562 0,0.97265625 0.6796875,1.30078125 1.3242188,1.30078125 0.421875,0 0.796875,-0.1875 1.1015625,-0.4921875 C 3.4686797,0.199375 3.3397734,0.72671875 2.9061797,1.3126563 2.6132109,1.6759375 2.2030547,1.9923438 1.6991484,1.9923438 c -0.1523437,0 -0.6445312,-0.023437 -0.83203121,-0.4570313 0.17578121,0 0.31640621,0 0.48046871,-0.1289062 0.1054688,-0.09375 0.2109375,-0.234375 0.2109375,-0.44531255 0,-0.33984375 -0.2929687,-0.38671875 -0.3984375,-0.38671875 -0.25781246,0 -0.60937496,0.17578125 -0.60937496,0.7148438 0,0.5390625 0.48046876,0.9492187 1.14843746,0.9492187 1.125,0 2.25,-0.9960937 2.5546875,-2.2265625 z m 0,0"
       style="fill:#000000;fill-opacity:1;fill-rule:nonzero;stroke:none"
       aria-label="y"
       transform="matrix(1.3333333,0,0,1.3333333,59.004,81.046667)" />
    <path
       id="path8"
       d="m 19.84267,0 v 29.764 c 0,0 2.38926,-2.26666 3.3069,-3.0314 0.91764,-0.76472 2.38926,-1.86854 3.30691,-2.48033 0.91765,-0.61177 2.38925,-1.4701 3.30692,-1.92898 0.91765,-0.45885 2.38925,-1.07227 3.3069,-1.37822 0.91766,-0.30596 2.38926,-0.67394 3.30691,-0.82689 0.91767,-0.15294 2.38927,-0.27548 3.30692,-0.27551 0.91766,-3e-5 2.38927,0.12236 3.30691,0.2752 0.91765,0.15288 2.38926,0.52077 3.30692,0.82659 0.91763,0.30581 2.38924,0.9189 3.3069,1.37764 0.91766,0.45872 2.38927,1.31701 3.30691,1.92866 0.91765,0.61165 2.38927,1.71512 3.30692,2.47974 0.91765,0.76462 2.38925,2.11354 3.30691,3.03108 0.91765,0.91753 2.38926,2.51137 3.3069,3.58182 0.91767,1.07045 2.38929,2.90977 3.30692,4.1332 0.91765,1.22343 2.38927,3.30819 3.3069,4.68455 0.91766,1.37634 2.38927,3.70601 3.30691,5.23527 0.91767,1.52927 2.38927,4.10442 3.30692,5.78664 0.91766,1.68222 2.38925,4.50256 3.30693,6.33769 0.91765,1.83516 2.38924,4.9007 3.3069,6.88873 0.91766,1.98806 2.38927,5.29879 3.30692,7.43981 0.91764,2.14102 2.38926,5.69723 3.30691,7.99116 0.91765,2.29392 2.38927,6.09504 3.30692,8.54189 0.91763,2.44684 2.38925,6.49341 3.3069,9.09325 0.91763,2.59983 3.3069,9.64461 3.3069,9.64461 L 99.2134,0 Z"
       style="fill:#9999ff;fill-opacity:0.2;fill-rule:nonzero;stroke:none"
       transform="matrix(1.3333333,0,0,-1.3333333,71.770667,238.06933)" />
    <path
       id="path9"
       d="m 19.84267,29.764 c 0,0 0.57903,-0.57195 0.80145,-0.7854 0.22238,-0.21343 0.57904,-0.54858 0.80142,-0.753 0.2224,-0.2044 0.57906,-0.52487 0.80147,-0.7203 0.22238,-0.19542 0.57904,-0.50174 0.80144,-0.6882 0.22238,-0.1865 0.57905,-0.47832 0.80143,-0.65583 0.22242,-0.17747 0.57908,-0.45491 0.80146,-0.6234 0.22239,-0.1685 0.57904,-0.43152 0.80145,-0.59102 0.22238,-0.1595 0.57906,-0.40806 0.80145,-0.55861 0.22238,-0.15057 0.57904,-0.38497 0.80142,-0.52654 0.22242,-0.14158 0.57906,-0.36129 0.80147,-0.49383 0.22238,-0.13253 0.57904,-0.33784 0.80144,-0.46144 0.22238,-0.12356 0.57906,-0.31471 0.80143,-0.42932 0.2224,-0.11459 0.57908,-0.29103 0.80146,-0.39664 0.2224,-0.1056 0.57904,-0.26788 0.80145,-0.36454 0.22239,-0.09665 0.57906,-0.24446 0.80145,-0.33216 0.22239,-0.08766 0.57904,-0.22105 0.80143,-0.29972 0.22241,-0.07869 0.57905,-0.19767 0.80146,-0.26737 0.2224,-0.06968 0.57905,-0.17424 0.80144,-0.23494 0.2224,-0.0607 0.57906,-0.15084 0.80144,-0.20256 0.2224,-0.05171 0.57907,-0.12744 0.80145,-0.17017 0.2224,-0.04271 0.57904,-0.10397 0.80145,-0.13775 0.22239,-0.03378 0.57906,-0.08089 0.80146,-0.10567 0.22238,-0.02479 0.57904,-0.05717 0.80143,-0.07297 0.2224,-0.0158 0.57905,-0.03407 0.80144,-0.04087 0.2224,-0.0068 0.57906,-0.01037 0.80145,-0.0082 0.2224,0.0022 0.57906,0.01277 0.80144,0.02392 0.2224,0.01112 0.57907,0.0362 0.80145,0.05631 0.2224,0.02011 0.57906,0.05959 0.80146,0.0887 0.22238,0.0291 0.57904,0.08303 0.80144,0.12113 0.22239,0.03808 0.57905,0.1064 0.80145,0.1535 0.22239,0.04707 0.57904,0.12982 0.80143,0.1859 0.2224,0.05609 0.57906,0.15327 0.80146,0.21831 0.22239,0.06503 0.57906,0.17637 0.80143,0.25039 0.2224,0.07399 0.57908,0.20009 0.80146,0.28308 0.22241,0.08301 0.57905,0.22321 0.80145,0.3152 0.22238,0.092 0.57904,0.24691 0.80144,0.34789 0.22239,0.10098 0.57905,0.27005 0.80145,0.37999 0.2224,0.10992 0.57904,0.29344 0.80143,0.41238 0.22242,0.11893 0.57906,0.31685 0.80148,0.44477 0.22238,0.12791 0.57904,0.34027 0.80142,0.47717 0.2224,0.1369 0.57905,0.36368 0.80145,0.50957 0.2224,0.1459 0.57905,0.38708 0.80145,0.54197 0.22238,0.15489 0.57904,0.41048 0.80146,0.57436 0.22238,0.16388 0.57905,0.43394 0.80144,0.60676 0.22239,0.17284 0.57903,0.45705 0.80143,0.63886 0.22241,0.18181 0.57906,0.48076 0.80145,0.67156 0.22238,0.1908 0.57906,0.50385 0.80144,0.70364 0.2224,0.1998 0.57907,0.52757 0.80145,0.73636 0.2224,0.20877 0.57906,0.55072 0.80146,0.76844 0.22237,0.21773 0.57904,0.57412 0.80145,0.80083 0.22238,0.22673 0.57905,0.59753 0.80144,0.83324 0.22239,0.2357 0.57905,0.62094 0.80143,0.86563 0.22241,0.2447 0.57906,0.64435 0.80145,0.89804 0.22239,0.25369 0.57906,0.6678 0.80144,0.93044 0.22241,0.26263 0.57907,0.69088 0.80146,0.96252 0.22239,0.27162 0.57905,0.71456 0.80145,0.99522 0.22238,0.28066 0.57904,0.73801 0.80145,1.02762 0.22238,0.2896 0.57904,0.76116 0.80142,1.05971 0.22241,0.29855 0.57908,0.78453 0.80147,1.0921 0.2224,0.30761 0.57904,0.80823 0.80144,1.12482 0.22238,0.31657 0.57905,0.83137 0.80144,1.1569 0.22241,0.32554 0.57907,0.85477 0.80145,1.18931 0.22239,0.33451 0.57904,0.87818 0.80145,1.22169 0.22238,0.34352 0.57906,0.90161 0.80145,1.2541 0.22238,0.3525 0.57904,0.92499 0.80143,1.28649 0.22241,0.36148 0.57907,0.94844 0.80146,1.31889 0.2224,0.37044 0.57904,0.97156 0.80144,1.35098 0.22238,0.37945 0.57905,0.99527 0.80145,1.38369 0.2224,0.38842 0.57906,1.01838 0.80144,1.41577 0.2224,0.39741 0.57904,1.0421 0.80146,1.44848 0.22238,0.40639 0.57905,1.06524 0.80145,1.48057 0.22238,0.41534 0.57904,1.08859 0.80142,1.51297 0.22241,0.42437 0.57907,1.1123 0.80147,1.54566 0.22239,0.43339 0.57904,1.13546 0.80143,1.57776 0.2224,0.44233 0.57906,1.15893 0.80146,1.61017 0.22238,0.45125 0.57905,1.18201 0.80143,1.64226 0.2224,0.46024 0.57904,1.20567 0.80146,1.67494 0.22238,0.46929 0.57905,1.22908 0.80145,1.70734 0.22238,0.47828 0.57904,1.25255 0.80143,1.73976 0.2224,0.48723 0.57906,1.27562 0.80144,1.77183 0.2224,0.49623 0.57906,1.29935 0.80146,1.80455 0.2224,0.50521 0.57905,1.3225 0.80145,1.83664 0.22238,0.51415 0.57905,1.34589 0.80144,1.86904 0.22239,0.52313 0.57905,1.36929 0.80145,1.90141 0.2224,0.53214 0.57906,1.39272 0.80145,1.93384 0.22238,0.54112 0.57904,1.41612 0.80144,1.96622 0.2224,0.55011 0.57905,1.43951 0.80144,1.99863 0.22239,0.55909 0.57905,1.46291 0.80145,2.031 0.2224,0.56808 0.57905,1.48634 0.80145,2.06343 0.22238,0.57706 0.57906,1.50977 0.80144,2.09579 0.22241,0.58603 0.57905,1.53288 0.80145,2.1279 0.2224,0.59503 0.57904,1.5566 0.80144,2.16062 0.2224,0.604 0.57905,1.57974 0.80145,2.19269 0.2224,0.61296 0.57905,1.60311 0.80144,2.22509 0.22241,0.622 0.57905,1.62682 0.80147,2.2578 0.22238,0.63098 0.57904,1.64996 0.80144,2.28988 0.22238,0.63994 0.57903,1.67339 0.80143,2.3223 0.2224,0.64893 0.57906,1.69678 0.80145,2.35468 0.2224,0.65791 0.80146,2.38707 0.80146,2.38707"
       style="fill:none;stroke:#eb0a36;stroke-width:0.79701;stroke-linecap:butt;stroke-linejoin:miter;stroke-miterlimit:10;stroke-dasharray:none;stroke-opacity:1"
       transform="matrix(1.3333333,0,0,-1.3333333,71.770667,238.06933)" />
    <g
       id="g9"
       aria-label="y=f(x)"
       transform="matrix(1.3333333,0,0,1.3333333,125.86133,135.564)">
      <path
         id="path10"
         d="m 4.8413047,-3.798 c 0.046875,-0.140625 0.046875,-0.1523437 0.046875,-0.2226562 0,-0.1875 -0.140625,-0.2695313 -0.2929688,-0.2695313 -0.1054687,0 -0.2578125,0.058594 -0.3515625,0.1992188 -0.023437,0.058594 -0.09375,0.3632812 -0.140625,0.5390625 -0.070312,0.2578125 -0.140625,0.5273437 -0.1992187,0.796875 l -0.4453125,1.7929687 c -0.035156,0.15234375 -0.46875,0.85546875 -1.125,0.85546875 -0.5039063,0 -0.6210938,-0.4453125 -0.6210938,-0.80859375 0,-0.4570312 0.1757813,-1.078125 0.515625,-1.9570312 0.1523438,-0.4101563 0.1992188,-0.515625 0.1992188,-0.7148438 0,-0.4453125 -0.328125,-0.8203125 -0.8203125,-0.8203125 -0.94921876,0 -1.31250001,1.453125 -1.31250001,1.5351563 0,0.1054687 0.09375,0.1054687 0.1171875,0.1054687 0.09375,0 0.10546875,-0.023437 0.15234375,-0.1875 0.26953125,-0.9375 0.66796876,-1.2304687 1.00781246,-1.2304687 0.082031,0 0.2578125,0 0.2578125,0.3164062 0,0.2460938 -0.1054687,0.515625 -0.1757812,0.703125 C 1.2553672,-2.1105 1.0795859,-1.548 1.0795859,-1.07925 c 0,0.890625 0.6210938,1.18359375 1.21875,1.18359375 0.3867188,0 0.7265625,-0.1640625 0.9960938,-0.4453125 C 3.1655234,0.17465625 3.0483359,0.66684375 2.6498984,1.1941875 2.3920859,1.5340313 2.0170859,1.827 1.5600547,1.827 c -0.140625,0 -0.59765626,-0.035156 -0.76171876,-0.421875 0.1640625,0 0.29296876,0 0.43359376,-0.1171875 0.09375,-0.09375 0.1992187,-0.2226562 0.1992187,-0.41015625 0,-0.31640625 -0.2695312,-0.3515625 -0.375,-0.3515625 -0.22265621,0 -0.55078121,0.1640625 -0.55078121,0.64453125 0,0.5039063 0.43359375,0.8671875 1.05468751,0.8671875 1.0195312,0 2.0507812,-0.9023437 2.3320312,-2.02734375 z m 0,0"
         style="fill:#eb0a36;fill-opacity:1;fill-rule:nonzero;stroke:none" />
      <path
         id="path11"
         d="m 14.857906,-3.2589375 c 0.152344,0 0.339844,0 0.339844,-0.1992187 0,-0.1992188 -0.1875,-0.1992188 -0.328125,-0.1992188 H 8.9047812 c -0.140625,0 -0.328125,0 -0.328125,0.1992188 0,0.1992187 0.1875,0.1992187 0.3398438,0.1992187 z m 0.01172,1.9335938 c 0.140625,0 0.328125,0 0.328125,-0.1992188 0,-0.1992187 -0.1875,-0.1992187 -0.339844,-0.1992187 H 8.9165 c -0.1523438,0 -0.3398438,0 -0.3398438,0.1992187 0,0.1992188 0.1875,0.1992188 0.328125,0.1992188 z m 0,0"
         style="fill:#eb0a36;fill-opacity:1;fill-rule:nonzero;stroke:none" />
      <path
         id="path12"
         d="m 22.176266,-3.9855 h 0.855468 c 0.199219,0 0.304688,0 0.304688,-0.1992187 0,-0.1054688 -0.105469,-0.1054688 -0.269531,-0.1054688 h -0.832032 l 0.210938,-1.1367187 c 0.03516,-0.2109375 0.175781,-0.9140625 0.234375,-1.0429688 0.09375,-0.1875 0.257812,-0.3398437 0.46875,-0.3398437 0.04687,0 0.304687,0 0.492187,0.1875 -0.433593,0.035156 -0.539062,0.3867187 -0.539062,0.5390625 0,0.2226562 0.175781,0.3398437 0.363281,0.3398437 0.269531,0 0.550781,-0.2109375 0.550781,-0.5976562 0,-0.4570313 -0.457031,-0.6796875 -0.867187,-0.6796875 -0.339844,0 -0.960938,0.1757812 -1.265625,1.1601562 -0.05859,0.2109375 -0.08203,0.3164063 -0.328125,1.5703125 h -0.679688 c -0.199218,0 -0.304687,0 -0.304687,0.1875 0,0.1171875 0.09375,0.1171875 0.28125,0.1171875 h 0.65625 l -0.75,3.9375 c -0.175781,0.9609375 -0.339844,1.875 -0.867188,1.875 -0.03516,0 -0.28125,0 -0.46875,-0.1875 0.457032,-0.023437 0.539063,-0.3867187 0.539063,-0.5390625 0,-0.22265625 -0.175781,-0.33984375 -0.363281,-0.33984375 -0.257813,0 -0.550782,0.2109375 -0.550782,0.59765625 0,0.4453125 0.433594,0.6796875 0.84375,0.6796875 0.550782,0 0.949219,-0.5859375 1.125,-0.9609375 0.328125,-0.6328125 0.550782,-1.83984375 0.5625,-1.91015625 z m 0,0"
         style="fill:#eb0a36;fill-opacity:1;fill-rule:nonzero;stroke:none" />
      <path
         id="path13"
         d="m 27.769039,2.3895 c 0,-0.035156 0,-0.046875 -0.164062,-0.2226562 -1.242188,-1.2539063 -1.570313,-3.1289063 -1.570313,-4.6640625 0,-1.7226563 0.386719,-3.4570313 1.605469,-4.7109375 0.128906,-0.1171875 0.128906,-0.1289063 0.128906,-0.1640625 0,-0.070312 -0.03516,-0.1054688 -0.09375,-0.1054688 -0.105469,0 -0.996094,0.6796875 -1.582031,1.9453125 -0.515625,1.1015625 -0.632813,2.203125 -0.632813,3.0351563 0,0.7851562 0.117188,1.99218745 0.65625,3.11718745 0.597657,1.21875005 1.453125,1.87500005 1.558594,1.87500005 0.05859,0 0.09375,-0.035156 0.09375,-0.1054688 z m 0,0"
         style="fill:#eb0a36;fill-opacity:1;fill-rule:nonzero;stroke:none" />
      <path
         id="path14"
         d="m 31.677242,-3.0128437 c 0.05859,-0.2578125 0.292969,-1.171875 0.984375,-1.171875 0.04687,0 0.292969,0 0.503906,0.1289062 -0.28125,0.046875 -0.480468,0.3046875 -0.480468,0.5390625 0,0.1640625 0.105468,0.3515625 0.375,0.3515625 0.222656,0 0.539062,-0.1875 0.539062,-0.5859375 0,-0.515625 -0.585937,-0.65625 -0.925781,-0.65625 -0.574219,0 -0.925781,0.5273438 -1.042969,0.7617188 -0.257812,-0.65625 -0.785156,-0.7617188 -1.078125,-0.7617188 -1.042969,0 -1.605469,1.2890625 -1.605469,1.5351563 0,0.1054687 0.105469,0.1054687 0.117188,0.1054687 0.08203,0 0.117187,-0.023437 0.128906,-0.1171875 0.339844,-1.0546875 0.996094,-1.3007812 1.335938,-1.3007812 0.1875,0 0.539062,0.09375 0.539062,0.6679687 0,0.3046875 -0.164062,0.9726563 -0.539062,2.3671875 -0.152344,0.62109375 -0.503907,1.04296875 -0.949219,1.04296875 -0.05859,0 -0.28125,0 -0.492188,-0.12890625 0.246094,-0.0585938 0.46875,-0.26953125 0.46875,-0.5390625 0,-0.2695312 -0.222656,-0.3515625 -0.375,-0.3515625 -0.292968,0 -0.539062,0.2578125 -0.539062,0.57421875 0,0.45703125 0.492187,0.65625 0.9375,0.65625 0.65625,0 1.007812,-0.69140625 1.042969,-0.75 0.117187,0.36328125 0.480468,0.75 1.078125,0.75 1.019531,0 1.59375,-1.27734375 1.59375,-1.53515625 0,-0.09375 -0.09375,-0.09375 -0.128907,-0.09375 -0.08203,0 -0.105468,0.035156 -0.128906,0.1054688 -0.328125,1.0664062 -0.996094,1.31249995 -1.324219,1.31249995 -0.386718,0 -0.539062,-0.328125 -0.539062,-0.65625 0,-0.22265625 0.05859,-0.44531245 0.164062,-0.87890625 z m 0,0"
         style="fill:#eb0a36;fill-opacity:1;fill-rule:nonzero;stroke:none" />
      <path
         id="path15"
         d="m 36.927242,-2.4972187 c 0,-0.7734375 -0.117187,-1.9804688 -0.65625,-3.1054688 -0.597656,-1.21875 -1.464844,-1.875 -1.558594,-1.875 -0.05859,0 -0.105468,0.046875 -0.105468,0.1054688 0,0.035156 0,0.046875 0.199218,0.234375 0.972657,0.984375 1.535157,2.5664062 1.535157,4.640625 0,1.71093745 -0.363282,3.4570312 -1.59375,4.7226562 C 34.60693,2.342625 34.60693,2.3543438 34.60693,2.3895 c 0,0.058594 0.04687,0.1054688 0.105468,0.1054688 0.09375,0 0.996094,-0.6796875 1.582032,-1.94531255 0.503906,-1.1015625 0.632812,-2.20312495 0.632812,-3.04687495 z m 0,0"
         style="fill:#eb0a36;fill-opacity:1;fill-rule:nonzero;stroke:none" />
    </g>
    <path
       id="path16"
       d="M 19.84267,0 V 29.764"
       style="fill:none;stroke:#ec008c;stroke-width:0.3985;stroke-linecap:butt;stroke-linejoin:miter;stroke-miterlimit:10;stroke-dasharray:2.98883, 2.98883;stroke-dashoffset:0;stroke-opacity:1"
       transform="matrix(1.3333333,0,0,-1.3333333,71.770667,238.06933)" />
    <path
       id="path17"
       d="M 99.2134,0 V 109.13472"
       style="fill:none;stroke:#ec008c;stroke-width:0.3985;stroke-linecap:butt;stroke-linejoin:miter;stroke-miterlimit:10;stroke-dasharray:2.98883, 2.98883;stroke-dashoffset:0;stroke-opacity:1"
       transform="matrix(1.3333333,0,0,-1.3333333,71.770667,238.06933)" />
    <path
       id="path18"
       d="M 69.8463,0 V 42.76486 H 0"
       style="fill:none;stroke:#008080;stroke-width:0.79701;stroke-linecap:butt;stroke-linejoin:miter;stroke-miterlimit:10;stroke-dasharray:2.98883, 2.98883;stroke-dashoffset:0;stroke-opacity:1"
       transform="matrix(1.3333333,0,0,-1.3333333,71.770667,238.06933)" />
    <path
       id="path19"
       d="m 19.84267,0 v 42.76486 c 0,0 2.38926,0 3.3069,0 0.91764,0 2.38926,0 3.30691,0 0.91765,0 2.38925,0 3.30692,0 0.91765,0 2.38925,0 3.3069,0 0.91766,0 2.38926,0 3.30691,0 0.91767,0 2.38927,0 3.30692,0 0.91766,0 2.38927,0 3.30691,0 0.91765,0 2.38926,0 3.30692,0 0.91763,0 2.38924,0 3.3069,0 0.91766,0 2.38927,0 3.30691,0 0.91765,0 2.38927,0 3.30692,0 0.91765,0 2.38925,0 3.30691,0 0.91765,0 2.38926,0 3.3069,0 0.91767,0 2.38929,0 3.30692,0 0.91765,0 2.38927,0 3.3069,0 0.91766,0 2.38927,0 3.30691,0 0.91767,0 2.38927,0 3.30692,0 0.91766,0 2.38925,0 3.30693,0 0.91765,0 2.38924,0 3.3069,0 0.91766,0 2.38927,0 3.30692,0 0.91764,0 2.38926,0 3.30691,0 0.91765,0 2.38927,0 3.30692,0 0.91763,0 2.38925,0 3.3069,0 0.91763,0 3.3069,0 3.3069,0 L 99.2134,0 Z"
       style="fill:#008080;fill-opacity:0.2;fill-rule:nonzero;stroke:none"
       transform="matrix(1.3333333,0,0,-1.3333333,71.770667,238.06933)" />
    <path
       id="path20"
       d="m 3.7139766,-3.7609609 c -0.1757813,-0.375 -0.46875,-0.6445313 -0.9140625,-0.6445313 -1.171875,0 -2.40234379,1.4648438 -2.40234379,2.9179688 0,0.93749996 0.55078125,1.59374996 1.32421879,1.59374996 0.1992187,0 0.703125,-0.03515625 1.3007812,-0.73828125 0.070312,0.41015625 0.421875,0.73828125 0.9023438,0.73828125 0.3515625,0 0.5742187,-0.22265625 0.7382812,-0.5390625 0.1640625,-0.36328125 0.2929688,-0.97265626 0.2929688,-0.99609376 0,-0.09375 -0.082031,-0.09375 -0.1171875,-0.09375 -0.09375,0 -0.1054688,0.035156 -0.140625,0.1757813 -0.1640625,0.64453121 -0.3515625,1.24218746 -0.75,1.24218746 -0.2695313,0 -0.3046875,-0.2578125 -0.3046875,-0.45703125 0,-0.22265625 0.023437,-0.3046875 0.1289062,-0.73828121 0.1171875,-0.421875 0.1289063,-0.5273438 0.2226563,-0.9023438 l 0.3515625,-1.3945312 c 0.070312,-0.28125 0.070312,-0.2929688 0.070312,-0.3398438 0,-0.1640625 -0.1171875,-0.2695312 -0.28125,-0.2695312 -0.2460938,0 -0.3867188,0.2226562 -0.4218745,0.4453125 z m -0.6445313,2.578125 c -0.046875,0.1757812 -0.046875,0.19921871 -0.1992187,0.36328121 -0.4453125,0.55078125 -0.84375,0.71484375 -1.125,0.71484375 -0.5039063,0 -0.6445313,-0.55078125 -0.6445313,-0.93749996 0,-0.5039063 0.328125,-1.7226563 0.5507813,-2.1796875 0.3046875,-0.5976563 0.7617187,-0.9609375 1.1601562,-0.9609375 0.6445313,0 0.7851563,0.8203125 0.7851563,0.8789062 0,0.058594 -0.023437,0.1171875 -0.035156,0.1640625 z m 0,0"
       style="fill:#ec008c;fill-opacity:1;fill-rule:nonzero;stroke:none"
       aria-label="a"
       transform="matrix(1.3333333,0,0,1.3333333,94.716,248.90133)" />
    <path
       id="path21"
       d="m 2.37925,-6.8083047 c 0,0 0,-0.1054687 -0.1289062,-0.1054687 -0.2226563,0 -0.9492188,0.082031 -1.21875,0.1054687 -0.0703126,0 -0.18750005,0.011719 -0.18750005,0.1992188 0,0.1171875 0.09375,0.1171875 0.24609375,0.1171875 0.46875,0 0.4921875,0.070312 0.4921875,0.1640625 0,0.070312 -0.082031,0.4101562 -0.140625,0.6210937 l -0.80859375,3.2460938 c -0.12890625,0.5039062 -0.1640625,0.65625 -0.1640625,1.0078125 0,0.94921871 0.52734375,1.55859371 1.26562505,1.55859371 1.171875,0 2.4023437,-1.47656251 2.4023437,-2.91796871 0,-0.9023438 -0.5273437,-1.59375 -1.3242187,-1.59375 -0.4570313,0 -0.8671875,0.2929687 -1.171875,0.5976562 z m -0.9375,3.7734375 c 0.058594,-0.2226562 0.058594,-0.2460937 0.1523438,-0.3515625 0.4921875,-0.6445312 0.9375,-0.796875 1.1953125,-0.796875 0.3632812,0 0.6328125,0.2929688 0.6328125,0.9375 0,0.5859375 -0.328125,1.734375 -0.515625,2.109375 -0.328125,0.66796876 -0.7851563,1.03125001 -1.171875,1.03125001 -0.3398438,0 -0.6679688,-0.26953125 -0.6679688,-1.00781251 0,-0.1875 0,-0.3867187 0.1640625,-1.0078125 z m 0,0"
       style="fill:#ec008c;fill-opacity:1;fill-rule:nonzero;stroke:none"
       aria-label="b"
       transform="matrix(1.3333333,0,0,1.3333333,201.20267,249.76133)" />
    <path
       id="path22"
       d="m 3.9497969,-3.7843984 c -0.1640625,0 -0.3046875,0 -0.4453125,0.140625 -0.1523438,0.1523437 -0.1757813,0.3164062 -0.1757813,0.3867187 0,0.234375 0.1757813,0.3515625 0.3632813,0.3515625 0.2929687,0 0.5625,-0.2460937 0.5625,-0.6445312 0,-0.4804688 -0.46875,-0.8554688 -1.171875,-0.8554688 -1.3476563,0 -2.67187502,1.4296875 -2.67187502,2.8359375 0,0.89062501 0.57421875,1.67578126 1.61718752,1.67578126 1.4179687,0 2.2617187,-1.0546875 2.2617187,-1.17187496 0,-0.058594 -0.070312,-0.1289063 -0.1289062,-0.1289063 -0.046875,0 -0.070312,0.023437 -0.1289063,0.09375 -0.7851562,0.99609376 -1.875,0.99609376 -1.9921875,0.99609376 -0.6210937,0 -0.890625,-0.4921875 -0.890625,-1.08984376 0,-0.4101562 0.1992188,-1.3710937 0.5390625,-1.9921875 0.3046875,-0.5625 0.8554688,-0.9960937 1.40625,-0.9960937 0.328125,0 0.7148438,0.1289062 0.8554688,0.3984375 z m 0,0"
       style="fill:#008080;fill-opacity:1;fill-rule:nonzero;stroke:none"
       aria-label="c"
       transform="matrix(1.3333333,0,0,1.3333333,162.02267,248.90133)" />
    <g
       id="g22"
       aria-label="f(c)"
       transform="matrix(1.3333333,0,0,1.3333333,42.642667,184.37067)">
      <path
         id="path23"
         d="m 3.6576484,-3.9840547 h 0.8554688 c 0.1992187,0 0.3046875,0 0.3046875,-0.1992187 0,-0.1054688 -0.1054688,-0.1054688 -0.2695313,-0.1054688 H 3.7162422 l 0.2109375,-1.1367187 c 0.035156,-0.2109375 0.1757812,-0.9140625 0.234375,-1.0429688 0.09375,-0.1875 0.2578125,-0.3398437 0.46875,-0.3398437 0.046875,0 0.3046875,0 0.4921875,0.1875 -0.4335938,0.035156 -0.5390625,0.3867187 -0.5390625,0.5390625 0,0.2226562 0.1757812,0.3398437 0.3632812,0.3398437 0.2695313,0 0.5507813,-0.2109375 0.5507813,-0.5976562 0,-0.4570313 -0.4570313,-0.6796875 -0.8671875,-0.6796875 -0.3398438,0 -0.9609375,0.1757812 -1.265625,1.1601562 -0.058594,0.2109375 -0.082031,0.3164063 -0.328125,1.5703125 H 2.3568672 c -0.1992188,0 -0.3046875,0 -0.3046875,0.1875 0,0.1171875 0.09375,0.1171875 0.28125,0.1171875 h 0.65625 l -0.75,3.93750001 C 2.0638984,0.91438281 1.8998359,1.8284453 1.3724922,1.8284453 c -0.035156,0 -0.28125,0 -0.46875001,-0.1875 C 1.3607734,1.6175078 1.4428047,1.2542266 1.4428047,1.1018828 c 0,-0.22265624 -0.1757813,-0.33984374 -0.3632813,-0.33984374 -0.25781246,0 -0.55078121,0.2109375 -0.55078121,0.59765624 0,0.4453125 0.43359375,0.6796875 0.84375001,0.6796875 0.5507812,0 0.9492187,-0.5859375 1.125,-0.9609375 0.328125,-0.63281249 0.5507812,-1.83984374 0.5625,-1.91015624 z m 0,0"
         style="fill:#008080;fill-opacity:1;fill-rule:nonzero;stroke:none" />
      <path
         id="path24"
         d="m 9.2474922,2.3909453 c 0,-0.035156 0,-0.046875 -0.1640625,-0.2226562 -1.2421875,-1.25390629 -1.5703125,-3.12890629 -1.5703125,-4.6640625 0,-1.7226563 0.3867187,-3.4570313 1.6054687,-4.7109375 0.1289063,-0.1171875 0.1289063,-0.1289063 0.1289063,-0.1640625 0,-0.070312 -0.035156,-0.1054688 -0.09375,-0.1054688 -0.1054688,0 -0.9960938,0.6796875 -1.5820313,1.9453125 -0.515625,1.1015625 -0.6328125,2.203125 -0.6328125,3.0351563 0,0.7851562 0.1171875,1.99218746 0.65625,3.11718746 0.5976563,1.21875004 1.453125,1.87500004 1.5585938,1.87500004 0.058594,0 0.09375,-0.035156 0.09375,-0.1054688 z m 0,0"
         style="fill:#008080;fill-opacity:1;fill-rule:nonzero;stroke:none" />
      <path
         id="path25"
         d="m 13.776789,-3.7848359 c -0.164062,0 -0.304687,0 -0.445312,0.140625 -0.152344,0.1523437 -0.175782,0.3164062 -0.175782,0.3867187 0,0.234375 0.175782,0.3515625 0.363282,0.3515625 0.292968,0 0.5625,-0.2460937 0.5625,-0.6445312 0,-0.4804688 -0.46875,-0.8554688 -1.171875,-0.8554688 -1.347657,0 -2.671875,1.4296875 -2.671875,2.8359375 0,0.89062501 0.574218,1.67578126 1.617187,1.67578126 1.417969,0 2.261719,-1.0546875 2.261719,-1.17187496 0,-0.058594 -0.07031,-0.1289063 -0.128906,-0.1289063 -0.04687,0 -0.07031,0.023437 -0.128907,0.09375 -0.785156,0.99609376 -1.875,0.99609376 -1.992187,0.99609376 -0.621094,0 -0.890625,-0.4921875 -0.890625,-1.08984376 0,-0.4101562 0.199219,-1.3710937 0.539062,-1.9921875 0.304688,-0.5625 0.855469,-0.9960937 1.40625,-0.9960937 0.328125,0 0.714844,0.1289062 0.855469,0.3984375 z m 0,0"
         style="fill:#008080;fill-opacity:1;fill-rule:nonzero;stroke:none" />
      <path
         id="path26"
         d="m 17.022883,-2.4957734 c 0,-0.7734375 -0.117188,-1.9804688 -0.65625,-3.1054688 -0.597656,-1.21875 -1.464844,-1.875 -1.558594,-1.875 -0.05859,0 -0.105469,0.046875 -0.105469,0.1054688 0,0.035156 0,0.046875 0.199219,0.234375 0.972656,0.984375 1.535156,2.5664062 1.535156,4.640625 0,1.71093746 -0.363281,3.45703121 -1.59375,4.7226562 -0.140625,0.1171875 -0.140625,0.1289063 -0.140625,0.1640625 0,0.058594 0.04687,0.1054688 0.105469,0.1054688 0.09375,0 0.996094,-0.6796875 1.582031,-1.94531254 0.503907,-1.1015625 0.632813,-2.20312496 0.632813,-3.04687496 z m 0,0"
         style="fill:#008080;fill-opacity:1;fill-rule:nonzero;stroke:none" />
    </g>
  </g>
</svg>
