<?xml version="1.0" encoding="UTF-8" standalone="no"?>
<!-- Created with Inkscape (http://www.inkscape.org/) -->

<svg
   version="1.1"
   id="svg1"
   width="245.40492"
   height="201.25601"
   viewBox="0 0 245.40492 201.25601"
   sodipodi:docname="7.8-discontinua-derecha.svg"
   inkscape:version="1.4.2 (f4327f4, 2025-05-13)"
   xmlns:inkscape="http://www.inkscape.org/namespaces/inkscape"
   xmlns:sodipodi="http://sodipodi.sourceforge.net/DTD/sodipodi-0.dtd"
   xmlns="http://www.w3.org/2000/svg"
   xmlns:svg="http://www.w3.org/2000/svg">
  <defs
     id="defs1" />
  <sodipodi:namedview
     id="namedview1"
     pagecolor="#ffffff"
     bordercolor="#000000"
     borderopacity="0.25"
     inkscape:showpageshadow="2"
     inkscape:pageopacity="0.0"
     inkscape:pagecheckerboard="0"
     inkscape:deskcolor="#d1d1d1"
     inkscape:zoom="2.2241536"
     inkscape:cx="203.89779"
     inkscape:cy="116.6736"
     inkscape:window-width="1920"
     inkscape:window-height="1009"
     inkscape:window-x="-8"
     inkscape:window-y="-8"
     inkscape:window-maximized="1"
     inkscape:current-layer="g1">
    <inkscape:page
       x="4.81489e-07"
       y="1.3911317e-06"
       inkscape:label="4"
       id="page1"
       width="245.40492"
       height="201.25601"
       margin="0"
       bleed="0" />
  </sodipodi:namedview>
  <g
     id="g1"
     inkscape:groupmode="layer"
     inkscape:label="4"
     transform="translate(-38.059921,-64.902343)">
    <path
       id="path2"
       d="M -45.35506,0 H 135.60692"
       style="fill:none;stroke:#000000;stroke-width:0.3985;stroke-linecap:butt;stroke-linejoin:miter;stroke-miterlimit:10;stroke-dasharray:none;stroke-opacity:1"
       transform="matrix(1.3333333,0,0,-1.3333333,98.533333,251.04)" />
    <path
       id="path3"
       d="M -1.19551,1.59401 C -1.09587,0.99626 0,0.09961 0.29886,0 0,-0.09961 -1.09587,-0.99626 -1.19551,-1.59401"
       style="fill:none;stroke:#000000;stroke-width:0.31879;stroke-linecap:round;stroke-linejoin:round;stroke-miterlimit:10;stroke-dasharray:none;stroke-opacity:1"
       transform="matrix(1.3333333,0,0,-1.3333333,279.34256,251.04)" />
    <path
       id="path4"
       d="m 3.6432578,-3.2944219 c 0.070312,-0.28125 0.3164063,-1.2890625 1.078125,-1.2890625 0.058594,0 0.3164063,0 0.5507813,0.140625 -0.3046875,0.058594 -0.5273438,0.328125 -0.5273438,0.5859375 0,0.1757813 0.1171875,0.3867188 0.4101563,0.3867188 0.2460937,0 0.5976562,-0.1992188 0.5976562,-0.6328125 0,-0.5625 -0.6445312,-0.7265625 -1.0195312,-0.7265625 -0.6328125,0 -1.0195313,0.5859375 -1.1484375,0.8320312 -0.2695313,-0.7148437 -0.8554688,-0.8320312 -1.171875,-0.8320312 -1.1367188,0 -1.75781254,1.4179687 -1.75781254,1.6875 0,0.1054687 0.10546875,0.1054687 0.12890625,0.1054687 0.0820313,0 0.1171875,-0.023437 0.140625,-0.1171875 0.37499999,-1.1601562 1.08984379,-1.4296875 1.46484379,-1.4296875 0.2109375,0 0.5859375,0.09375 0.5859375,0.7265625 0,0.3398438 -0.1875,1.078125 -0.5859375,2.6015625 -0.1757813,0.67968753 -0.5625,1.13671878 -1.0429688,1.13671878 -0.058594,0 -0.3164062,0 -0.53906249,-0.140625 0.26953129,-0.0585938 0.51562499,-0.29296875 0.51562499,-0.59765625 0,-0.29296873 -0.2460937,-0.37500003 -0.41015624,-0.37500003 -0.328125,0 -0.59765625,0.28125003 -0.59765625,0.63281253 0,0.50390625 0.55078125,0.71484375 1.03124999,0.71484375 0.7148438,0 1.1015625,-0.76171875 1.1367188,-0.83203125 0.1289062,0.41015625 0.5273437,0.83203125 1.1835937,0.83203125 1.125,0 1.7460938,-1.40624998 1.7460938,-1.67578128 0,-0.1054687 -0.1054688,-0.1054687 -0.1289063,-0.1054687 -0.1054687,0 -0.1289062,0.035156 -0.140625,0.1171875 -0.3632812,1.16015623 -1.1132812,1.42968748 -1.453125,1.42968748 -0.4335937,0 -0.609375,-0.3515625 -0.609375,-0.7265625 0,-0.23437498 0.070312,-0.48046878 0.1875,-0.96093748 z m 0,0"
       style="fill:#000000;fill-opacity:1;fill-rule:nonzero;stroke:none"
       aria-label="x"
       transform="matrix(1.3333333,0,0,1.3333333,275.79467,262.416)" />
    <path
       id="path5"
       d="M 0,-11.33876 V 135.60692"
       style="fill:none;stroke:#000000;stroke-width:0.3985;stroke-linecap:butt;stroke-linejoin:miter;stroke-miterlimit:10;stroke-dasharray:none;stroke-opacity:1"
       transform="matrix(1.3333333,0,0,-1.3333333,98.533333,251.04)" />
    <path
       id="path6"
       d="M -1.19551,1.59401 C -1.09587,0.99626 0,0.09961 0.29886,0 0,-0.09961 -1.09587,-0.99626 -1.19551,-1.59401"
       style="fill:none;stroke:#000000;stroke-width:0.31879;stroke-linecap:round;stroke-linejoin:round;stroke-miterlimit:10;stroke-dasharray:none;stroke-opacity:1"
       transform="matrix(0,-1.3333333,-1.3333333,0,98.533333,70.230773)" />
    <path
       id="path7"
       d="m 5.2960937,-4.1592734 c 0.046875,-0.1523438 0.046875,-0.1757813 0.046875,-0.2460938 0,-0.1992187 -0.1523437,-0.2929687 -0.3164062,-0.2929687 -0.1054688,0 -0.28125,0.058594 -0.375,0.2226562 -0.023437,0.058594 -0.1171875,0.3984375 -0.1523438,0.5976563 -0.082031,0.28125 -0.1523437,0.5742187 -0.2226562,0.8671875 l -0.4921875,1.96875 C 3.7375,-0.87802344 3.26875,-0.11630469 2.5539062,-0.11630469 c -0.5625,0 -0.6796875,-0.48046875 -0.6796875,-0.89062501 0,-0.4921875 0.1875,-1.171875 0.5625,-2.1328125 0.1757813,-0.4453125 0.2109375,-0.5742187 0.2109375,-0.7851562 0,-0.4921875 -0.3515625,-0.9023438 -0.890625,-0.9023438 -1.0429687,0 -1.4414062,1.5820313 -1.4414062,1.6875 0,0.1054688 0.10546875,0.1054688 0.12890625,0.1054688 0.10546875,0 0.1171875,-0.023437 0.17578125,-0.1992188 0.29296875,-1.0195312 0.7265625,-1.3476562 1.1015625,-1.3476562 0.09375,0 0.2695312,0 0.2695312,0.3515625 0,0.2695312 -0.1054687,0.5507812 -0.1757812,0.7617187 -0.4453125,1.1601563 -0.6328125,1.78125 -0.6328125,2.2851563 0,0.97265621 0.6796875,1.30078121 1.3242187,1.30078121 0.421875,0 0.796875,-0.1875 1.1015625,-0.4921875 C 3.4679687,0.20010156 3.3390625,0.72744531 2.9054687,1.3133828 2.6125,1.6766641 2.2023437,1.9930703 1.6984375,1.9930703 c -0.1523438,0 -0.6445313,-0.023437 -0.83203125,-0.4570312 0.17578125,0 0.31640625,0 0.48046875,-0.1289063 0.1054687,-0.09375 0.2109375,-0.234375 0.2109375,-0.44531249 0,-0.33984375 -0.2929688,-0.38671875 -0.3984375,-0.38671875 -0.2578125,0 -0.609375,0.17578125 -0.609375,0.71484374 0,0.5390625 0.4804687,0.9492188 1.1484375,0.9492188 1.125,0 2.25,-0.9960938 2.5546875,-2.22656254 z m 0,0"
       style="fill:#000000;fill-opacity:1;fill-rule:nonzero;stroke:none"
       aria-label="y"
       transform="matrix(1.3333333,0,0,1.3333333,85.766667,71.338667)" />
    <path
       id="path8"
       d="m 22.67752,0 v 5.27385 c 0,0 2.73061,0.15106 3.77934,0.21246 1.04876,0.0614 2.73061,0.16324 3.77936,0.23011 1.04875,0.06688 2.73062,0.17909 3.77938,0.25192 1.04875,0.07281 2.73059,0.19346 3.77935,0.27302 1.04875,0.07953 2.73059,0.21289 3.77935,0.30034 1.04878,0.08748 2.73062,0.23358 3.77937,0.33014 1.04875,0.09653 2.7306,0.25858 3.77936,0.36574 1.04873,0.10716 2.73059,0.28714 3.77935,0.40659 1.04874,0.11944 2.73059,0.32025 3.77936,0.45434 1.04876,0.13409 2.73059,0.36032 3.77934,0.51213 1.04879,0.1518 2.73062,0.4088 3.77938,0.58202 1.04875,0.17322 2.7306,0.46716 3.77936,0.66646 1.04875,0.19929 2.73058,0.53818 3.77937,0.76991 1.04875,0.23175 2.73061,0.62757 3.77934,0.90037 1.04875,0.2728 2.73061,0.7395 3.77934,1.06578 1.04877,0.3263 2.73063,0.88848 3.77938,1.28586 1.04875,0.39739 2.73059,1.08426 3.77935,1.57825 1.04876,0.49397 2.7306,1.35155 3.77936,1.98207 1.04877,0.63052 2.73061,1.72827 3.77936,2.56236 1.04875,0.83409 2.73061,2.29276 3.77936,3.44925 1.04875,1.15648 2.73061,3.17356 3.77937,4.88597 1.04875,1.71241 2.73061,4.64905 3.77935,7.45594 1.04875,2.80688 2.7306,7.26109 3.77934,12.7741 1.04876,5.51305 3.77937,26.96004 3.77937,26.96004 L 113.38766,0 Z"
       style="fill:#9999ff;fill-opacity:0.2;fill-rule:nonzero;stroke:none"
       transform="matrix(1.3333333,0,0,-1.3333333,98.533333,251.04)" />
    <path
       id="path9"
       d="m 22.67752,5.27385 c 0,0 0.67851,0.03686 0.93913,0.05121 0.26059,0.01436 0.67852,0.03766 0.93912,0.05226 0.26061,0.01458 0.67853,0.03801 0.93913,0.05293 0.26061,0.01493 0.67852,0.03937 0.93912,0.05467 0.26061,0.01531 0.67854,0.04006 0.93913,0.05573 0.26061,0.01564 0.67855,0.0413 0.93914,0.0571 0.2606,0.01578 0.67854,0.04066 0.93913,0.05675 0.26062,0.01606 0.67853,0.04255 0.93912,0.05915 0.26062,0.01661 0.67854,0.04366 0.93913,0.06055 0.26062,0.01689 0.67854,0.04404 0.93913,0.06126 0.26062,0.01723 0.67854,0.04526 0.93913,0.06298 0.26062,0.01771 0.67853,0.0466 0.93914,0.06471 0.2606,0.0181 0.67853,0.04732 0.93913,0.06575 0.2606,0.01842 0.67853,0.0483 0.93913,0.06712 0.26061,0.0188 0.67853,0.0493 0.93914,0.06852 0.2606,0.01919 0.67851,0.05026 0.93911,0.0699 0.26061,0.01963 0.67855,0.05137 0.93914,0.07162 0.2606,0.02025 0.67854,0.05367 0.93913,0.0744 0.2606,0.02074 0.67854,0.05399 0.93913,0.07508 0.26062,0.02111 0.67853,0.05558 0.93912,0.07717 0.26062,0.02159 0.67854,0.05652 0.93913,0.07856 0.26062,0.02203 0.67854,0.05761 0.93913,0.08027 0.26062,0.02266 0.67854,0.05982 0.93914,0.08304 0.26062,0.02324 0.67852,0.06062 0.93913,0.08444 0.2606,0.02382 0.67853,0.06267 0.93913,0.08719 0.26061,0.02454 0.67853,0.06452 0.93914,0.08962 0.2606,0.02511 0.67852,0.06573 0.93913,0.09137 0.2606,0.02563 0.67852,0.06698 0.93911,0.09343 0.26061,0.02646 0.67855,0.06996 0.93914,0.09723 0.2606,0.02726 0.67854,0.07153 0.93913,0.09932 0.26062,0.02778 0.67854,0.07252 0.93913,0.10102 0.26062,0.0285 0.67853,0.07495 0.93912,0.10451 0.26062,0.02956 0.67854,0.07836 0.93914,0.10866 0.26061,0.03029 0.67854,0.07863 0.93913,0.10969 0.26062,0.03107 0.67854,0.08197 0.93913,0.11419 0.26062,0.03219 0.67853,0.08495 0.93913,0.11799 0.26061,0.03302 0.67853,0.08623 0.93913,0.12009 0.26061,0.03384 0.67853,0.08888 0.93914,0.12388 0.2606,0.03498 0.67852,0.09219 0.93913,0.12836 0.26061,0.0362 0.67853,0.09514 0.93911,0.13254 0.26061,0.03739 0.67855,0.09851 0.93914,0.13702 0.26062,0.0385 0.67854,0.10079 0.93913,0.14049 0.26062,0.0397 0.67854,0.10458 0.93913,0.14569 0.26062,0.04109 0.67853,0.10808 0.93912,0.15051 0.26062,0.04244 0.67854,0.1115 0.93913,0.15537 0.26061,0.04388 0.67855,0.11545 0.93914,0.16091 0.2606,0.04547 0.67854,0.11965 0.93913,0.16679 0.2606,0.04713 0.67853,0.12428 0.93913,0.173 0.26059,0.04872 0.67853,0.12781 0.93914,0.17822 0.26058,0.0504 0.67852,0.13274 0.93913,0.18511 0.26058,0.0524 0.67853,0.13803 0.93913,0.1924 0.26059,0.05439 0.67853,0.14302 0.93912,0.19966 0.2606,0.05665 0.67854,0.14985 0.93913,0.20866 0.2606,0.05881 0.67854,0.15389 0.93913,0.21524 0.26061,0.06136 0.67855,0.1631 0.93914,0.22699 0.2606,0.06389 0.67853,0.16751 0.93911,0.23358 0.26061,0.06607 0.67855,0.17304 0.93914,0.24255 0.2606,0.06953 0.67854,0.18615 0.93913,0.25849 0.2606,0.07236 0.67854,0.18781 0.93913,0.263 0.26061,0.07517 0.67853,0.19959 0.93913,0.27889 0.26059,0.07931 0.67853,0.2097 0.93914,0.29275 0.26059,0.08304 0.67852,0.21909 0.93913,0.30589 0.26059,0.0868 0.67852,0.22848 0.93912,0.31972 0.2606,0.09128 0.67854,0.24211 0.93913,0.33809 0.2606,0.09597 0.67854,0.25297 0.93913,0.35364 0.26061,0.10068 0.67854,0.26593 0.93914,0.37198 0.2606,0.10605 0.67852,0.28005 0.93911,0.39241 0.26061,0.11234 0.67855,0.29869 0.93914,0.41731 0.2606,0.11864 0.67854,0.31285 0.93913,0.43773 0.2606,0.12488 0.67854,0.32956 0.93913,0.4623 0.26061,0.13275 0.67853,0.35318 0.93913,0.49447 0.26059,0.1413 0.67853,0.37383 0.93914,0.5239 0.26059,0.15007 0.67852,0.39798 0.93913,0.5578 0.26059,0.15983 0.67853,0.42328 0.93913,0.59414 0.26059,0.17087 0.67853,0.4536 0.93912,0.63739 0.2606,0.1838 0.67854,0.49056 0.93913,0.68721 0.26061,0.19666 0.67854,0.51939 0.93913,0.73014 0.26061,0.21077 0.67855,0.56114 0.93914,0.78895 0.2606,0.2278 0.67852,0.6063 0.93911,0.85297 0.26061,0.24667 0.67855,0.65684 0.93913,0.92494 0.26061,0.26809 0.67855,0.71526 0.93914,1.00729 0.2606,0.29206 0.67854,0.77822 0.93915,1.09762 0.26059,0.31941 0.67851,0.85362 0.93911,1.20452 0.2606,0.35093 0.67853,0.93718 0.93914,1.32462 0.26059,0.38745 0.67853,1.03795 0.93913,1.46786 0.26059,0.42995 0.67853,1.15155 0.93913,1.63085 0.2606,0.47931 0.67853,1.28544 0.93912,1.82359 0.26061,0.53816 0.67854,1.44641 0.93913,2.05509 0.26061,0.60867 0.67855,1.63795 0.93914,2.33191 0.2606,0.69395 0.67854,1.87117 0.93913,2.66963 0.2606,0.79847 0.67853,2.15756 0.93912,3.08521 0.2606,0.92767 0.67854,2.50828 0.93913,3.60082 0.2606,1.09253 0.67854,2.96738 0.93915,4.27348 0.26058,1.3061 0.67852,3.55185 0.93913,5.13996 0.26059,1.58812 0.67851,4.33383 0.93912,6.30609 0.26059,1.97225 0.67853,5.39157 0.93913,7.90855 0.26059,2.51697 0.67853,6.90758 0.93913,10.23215 0.26059,3.32459 0.67853,9.12868 0.93914,13.72915 0.26058,4.60049 0.93911,19.42796 0.93911,19.42796"
       style="fill:none;stroke:#eb0a36;stroke-width:0.79701;stroke-linecap:butt;stroke-linejoin:miter;stroke-miterlimit:10;stroke-dasharray:none;stroke-opacity:1"
       transform="matrix(1.3333333,0,0,-1.3333333,98.533333,251.04)" />
    <g
       id="g9"
       aria-label="y=f(x)"
       transform="matrix(1.3333333,0,0,1.3333333,179.08133,133.41467)">
      <path
         id="path10"
         d="m 4.8403672,-3.7973281 c 0.046875,-0.140625 0.046875,-0.1523438 0.046875,-0.2226563 0,-0.1875 -0.140625,-0.2695312 -0.2929688,-0.2695312 -0.1054687,0 -0.2578125,0.058594 -0.3515625,0.1992187 -0.023437,0.058594 -0.09375,0.3632813 -0.140625,0.5390625 -0.070312,0.2578125 -0.140625,0.5273438 -0.1992187,0.796875 l -0.4453125,1.79296878 c -0.035156,0.15234375 -0.46875,0.85546875 -1.125,0.85546875 -0.5039063,0 -0.6210938,-0.4453125 -0.6210938,-0.80859375 0,-0.45703128 0.1757813,-1.07812498 0.515625,-1.95703128 0.1523438,-0.4101562 0.1992188,-0.515625 0.1992188,-0.7148437 0,-0.4453125 -0.328125,-0.8203125 -0.8203125,-0.8203125 -0.94921876,0 -1.31250001,1.453125 -1.31250001,1.5351562 0,0.1054688 0.09375,0.1054688 0.1171875,0.1054688 0.09375,0 0.10546875,-0.023437 0.15234375,-0.1875 0.26953125,-0.9375 0.66796876,-1.2304688 1.00781246,-1.2304688 0.082031,0 0.2578125,0 0.2578125,0.3164063 0,0.2460937 -0.1054687,0.515625 -0.1757812,0.703125 -0.3984375,1.0546875 -0.5742188,1.6171875 -0.5742188,2.0859375 0,0.89062498 0.6210938,1.18359373 1.21875,1.18359373 0.3867188,0 0.7265625,-0.1640625 0.9960938,-0.4453125 -0.1289063,0.515625 -0.2460938,1.0078125 -0.6445313,1.53515627 -0.2578125,0.3398437 -0.6328125,0.6328125 -1.0898437,0.6328125 -0.140625,0 -0.59765626,-0.035156 -0.76171876,-0.421875 0.1640625,0 0.29296876,0 0.43359376,-0.1171875 0.09375,-0.09375 0.1992187,-0.2226563 0.1992187,-0.41015627 0,-0.31640625 -0.2695312,-0.3515625 -0.375,-0.3515625 -0.22265621,0 -0.55078121,0.1640625 -0.55078121,0.64453127 0,0.5039062 0.43359375,0.8671875 1.05468751,0.8671875 1.0195312,0 2.0507812,-0.9023438 2.3320312,-2.02734377 z m 0,0"
         style="fill:#eb0a36;fill-opacity:1;fill-rule:nonzero;stroke:none" />
      <path
         id="path11"
         d="m 14.856969,-3.2582656 c 0.152344,0 0.339844,0 0.339844,-0.1992188 0,-0.1992187 -0.1875,-0.1992187 -0.328125,-0.1992187 H 8.9038438 c -0.140625,0 -0.328125,0 -0.328125,0.1992187 0,0.1992188 0.1875,0.1992188 0.3398437,0.1992188 z m 0.01172,1.9335937 c 0.140625,0 0.328125,0 0.328125,-0.1992187 0,-0.1992188 -0.1875,-0.1992188 -0.339844,-0.1992188 H 8.9155625 c -0.1523437,0 -0.3398437,0 -0.3398437,0.1992188 0,0.1992187 0.1875,0.1992187 0.328125,0.1992187 z m 0,0"
         style="fill:#eb0a36;fill-opacity:1;fill-rule:nonzero;stroke:none" />
      <path
         id="path12"
         d="m 22.178258,-3.9848281 h 0.855469 c 0.199218,0 0.304687,0 0.304687,-0.1992188 0,-0.1054687 -0.105469,-0.1054687 -0.269531,-0.1054687 h -0.832031 l 0.210937,-1.1367188 c 0.03516,-0.2109375 0.175781,-0.9140625 0.234375,-1.0429687 0.09375,-0.1875 0.257813,-0.3398438 0.46875,-0.3398438 0.04687,0 0.304688,0 0.492188,0.1875 -0.433594,0.035156 -0.539063,0.3867188 -0.539063,0.5390625 0,0.2226563 0.175781,0.3398438 0.363281,0.3398438 0.269532,0 0.550782,-0.2109375 0.550782,-0.5976563 0,-0.4570312 -0.457032,-0.6796875 -0.867188,-0.6796875 -0.339844,0 -0.960937,0.1757813 -1.265625,1.1601563 -0.05859,0.2109375 -0.08203,0.3164062 -0.328125,1.5703125 h -0.679687 c -0.199219,0 -0.304688,0 -0.304688,0.1875 0,0.1171875 0.09375,0.1171875 0.28125,0.1171875 h 0.65625 l -0.75,3.93749998 c -0.175781,0.9609375 -0.339844,1.87500002 -0.867187,1.87500002 -0.03516,0 -0.28125,0 -0.46875,-0.1875 0.457031,-0.023437 0.539062,-0.3867188 0.539062,-0.5390625 0,-0.22265627 -0.175781,-0.33984377 -0.363281,-0.33984377 -0.257813,0 -0.550781,0.2109375 -0.550781,0.59765627 0,0.4453125 0.433593,0.6796875 0.84375,0.6796875 0.550781,0 0.949218,-0.5859375 1.125,-0.9609375 0.328125,-0.63281252 0.550781,-1.83984377 0.5625,-1.91015627 z m 0,0"
         style="fill:#eb0a36;fill-opacity:1;fill-rule:nonzero;stroke:none" />
      <path
         id="path13"
         d="m 27.768102,2.3901719 c 0,-0.035156 0,-0.046875 -0.164063,-0.2226563 -1.242187,-1.25390622 -1.570312,-3.12890622 -1.570312,-4.6640625 0,-1.7226562 0.386718,-3.4570312 1.605468,-4.7109375 0.128907,-0.1171875 0.128907,-0.1289062 0.128907,-0.1640625 0,-0.070312 -0.03516,-0.1054687 -0.09375,-0.1054687 -0.105469,0 -0.996094,0.6796875 -1.582032,1.9453125 -0.515625,1.1015625 -0.632812,2.203125 -0.632812,3.0351562 0,0.7851563 0.117187,1.99218753 0.65625,3.11718753 0.597656,1.21874997 1.453125,1.87499997 1.558594,1.87499997 0.05859,0 0.09375,-0.035156 0.09375,-0.1054687 z m 0,0"
         style="fill:#eb0a36;fill-opacity:1;fill-rule:nonzero;stroke:none" />
      <path
         id="path14"
         d="m 31.676305,-3.0121719 c 0.05859,-0.2578125 0.292968,-1.171875 0.984375,-1.171875 0.04687,0 0.292968,0 0.503906,0.1289063 -0.28125,0.046875 -0.480469,0.3046875 -0.480469,0.5390625 0,0.1640625 0.105469,0.3515625 0.375,0.3515625 0.222656,0 0.539063,-0.1875 0.539063,-0.5859375 0,-0.515625 -0.585938,-0.65625 -0.925782,-0.65625 -0.574218,0 -0.925781,0.5273437 -1.042968,0.7617187 -0.257813,-0.65625 -0.785157,-0.7617187 -1.078125,-0.7617187 -1.042969,0 -1.605469,1.2890625 -1.605469,1.5351562 0,0.1054688 0.105469,0.1054688 0.117187,0.1054688 0.08203,0 0.117188,-0.023437 0.128907,-0.1171875 0.339843,-1.0546875 0.996093,-1.3007813 1.335937,-1.3007813 0.1875,0 0.539063,0.09375 0.539063,0.6679688 0,0.3046875 -0.164063,0.9726562 -0.539063,2.3671875 -0.152344,0.62109373 -0.503906,1.04296873 -0.949219,1.04296873 -0.05859,0 -0.28125,0 -0.492187,-0.12890625 0.246094,-0.0585937 0.46875,-0.26953125 0.46875,-0.5390625 0,-0.26953128 -0.222656,-0.35156248 -0.375,-0.35156248 -0.292969,0 -0.539063,0.25781248 -0.539063,0.57421873 0,0.45703125 0.492188,0.65625 0.9375,0.65625 0.65625,0 1.007813,-0.69140625 1.042969,-0.75 0.117188,0.36328125 0.480469,0.75 1.078125,0.75 1.019531,0 1.59375,-1.27734373 1.59375,-1.53515623 0,-0.09375 -0.09375,-0.09375 -0.128906,-0.09375 -0.08203,0 -0.105469,0.035156 -0.128906,0.1054687 -0.328125,1.06640628 -0.996094,1.31250003 -1.324219,1.31250003 -0.386719,0 -0.539063,-0.328125 -0.539063,-0.65625 0,-0.22265625 0.05859,-0.44531253 0.164063,-0.87890623 z m 0,0"
         style="fill:#eb0a36;fill-opacity:1;fill-rule:nonzero;stroke:none" />
      <path
         id="path15"
         d="m 36.926305,-2.4965469 c 0,-0.7734375 -0.117188,-1.9804687 -0.65625,-3.1054687 -0.597657,-1.21875 -1.464844,-1.875 -1.558594,-1.875 -0.05859,0 -0.105469,0.046875 -0.105469,0.1054687 0,0.035156 0,0.046875 0.199219,0.234375 0.972656,0.984375 1.535156,2.5664063 1.535156,4.640625 0,1.71093753 -0.363281,3.45703128 -1.59375,4.7226563 -0.140625,0.1171875 -0.140625,0.1289062 -0.140625,0.1640625 0,0.058594 0.04687,0.1054687 0.105469,0.1054687 0.09375,0 0.996094,-0.6796875 1.582031,-1.94531247 0.503906,-1.1015625 0.632813,-2.20312503 0.632813,-3.04687503 z m 0,0"
         style="fill:#eb0a36;fill-opacity:1;fill-rule:nonzero;stroke:none" />
    </g>
    <path
       id="path16"
       d="M 22.67752,0 V 5.21571"
       style="fill:none;stroke:#ec008c;stroke-width:0.3985;stroke-linecap:butt;stroke-linejoin:miter;stroke-miterlimit:10;stroke-dasharray:2.98883, 2.98883;stroke-dashoffset:0;stroke-opacity:1"
       transform="matrix(1.3333333,0,0,-1.3333333,98.533333,251.04)" />
    <path
       id="path17"
       d="M 117.9231,0 V 113.38766"
       style="fill:none;stroke:#ec008c;stroke-width:0.3985;stroke-linecap:butt;stroke-linejoin:miter;stroke-miterlimit:10;stroke-dasharray:2.98883, 2.98883;stroke-dashoffset:0;stroke-opacity:1"
       transform="matrix(1.3333333,0,0,-1.3333333,98.533333,251.04)" />
    <path
       id="path18"
       d="M 113.38766,0 V 75.51622"
       style="fill:none;stroke:#000080;stroke-width:0.3985;stroke-linecap:butt;stroke-linejoin:miter;stroke-miterlimit:10;stroke-dasharray:2.98883, 2.98883;stroke-dashoffset:0;stroke-opacity:1"
       transform="matrix(1.3333333,0,0,-1.3333333,98.533333,251.04)" />
    <path
       id="path19"
       d="m 3.7142031,-3.7623984 c -0.1757812,-0.375 -0.46875,-0.6445313 -0.9140625,-0.6445313 -1.171875,0 -2.40234373,1.4648438 -2.40234373,2.9179688 0,0.93749996 0.55078125,1.59374996 1.32421873,1.59374996 0.1992188,0 0.703125,-0.03515625 1.3007813,-0.73828125 0.070312,0.41015625 0.421875,0.73828125 0.9023437,0.73828125 0.3515625,0 0.5742188,-0.22265625 0.7382813,-0.5390625 0.1640625,-0.36328125 0.2929687,-0.97265626 0.2929687,-0.99609376 0,-0.09375 -0.082031,-0.09375 -0.1171875,-0.09375 -0.09375,0 -0.1054687,0.035156 -0.140625,0.1757813 -0.1640625,0.64453121 -0.3515625,1.24218746 -0.75,1.24218746 -0.2695312,0 -0.3046875,-0.2578125 -0.3046875,-0.45703125 0,-0.22265625 0.023437,-0.3046875 0.1289063,-0.73828121 0.1171875,-0.421875 0.1289062,-0.5273438 0.2226562,-0.9023438 l 0.3515625,-1.3945312 c 0.070312,-0.28125 0.070312,-0.2929688 0.070312,-0.3398438 0,-0.1640625 -0.1171875,-0.2695312 -0.28125,-0.2695312 -0.2460937,0 -0.3867187,0.2226562 -0.4218745,0.4453125 z m -0.6445312,2.578125 c -0.046875,0.1757812 -0.046875,0.19921871 -0.1992188,0.36328121 -0.4453125,0.55078125 -0.84375,0.71484375 -1.125,0.71484375 -0.5039062,0 -0.6445312,-0.55078125 -0.6445312,-0.93749996 0,-0.5039063 0.328125,-1.7226563 0.5507812,-2.1796875 0.3046875,-0.5976563 0.7617188,-0.9609375 1.1601563,-0.9609375 0.6445312,0 0.7851562,0.8203125 0.7851562,0.8789062 0,0.058594 -0.023437,0.1171875 -0.035156,0.1640625 z m 0,0"
       style="fill:#ec008c;fill-opacity:1;fill-rule:nonzero;stroke:none"
       aria-label="a"
       transform="matrix(1.3333333,0,0,1.3333333,125.25867,261.872)" />
    <path
       id="path20"
       d="m 2.0510859,-3.9842109 h 0.9375 c 0.1992188,0 0.3046875,0 0.3046875,-0.1992188 0,-0.1054687 -0.1054687,-0.1054687 -0.28125,-0.1054687 H 2.1331172 c 0.3632812,-1.4179688 0.4101562,-1.6171875 0.4101562,-1.6757813 0,-0.1757812 -0.1171875,-0.2695312 -0.2929687,-0.2695312 -0.023437,0 -0.3046875,0.011719 -0.3984375,0.3515625 l -0.3867188,1.59375 H 0.52764844 c -0.19921875,0 -0.29296875,0 -0.29296875,0.1875 0,0.1171875 0.0703125,0.1171875 0.26953125,0.1171875 H 1.3831172 c -0.71484376,2.8242187 -0.75000001,2.99999996 -0.75000001,3.17578121 0,0.5390625 0.37500001,0.9140625 0.91406251,0.9140625 1.0078125,0 1.5820312,-1.45312501 1.5820312,-1.53515621 0,-0.09375 -0.082031,-0.09375 -0.1171875,-0.09375 -0.09375,0 -0.1054687,0.023437 -0.1523437,0.140625 -0.4335938,1.03124996 -0.9609375,1.27734371 -1.3007813,1.27734371 -0.1992187,0 -0.3046875,-0.12890625 -0.3046875,-0.45703125 0,-0.24609375 0.023437,-0.31640625 0.058594,-0.48046876 z m 0,0"
       style="fill:#000080;fill-opacity:1;fill-rule:nonzero;stroke:none"
       aria-label="t"
       transform="matrix(1.3333333,0,0,1.3333333,247.316,264.324)" />
    <path
       id="path21"
       d="m 2.3785781,-6.8099219 c 0,0 0,-0.1054687 -0.1289062,-0.1054687 -0.2226563,0 -0.9492188,0.082031 -1.21875,0.1054687 -0.0703125,0 -0.18750002,0.011719 -0.18750002,0.1992188 0,0.1171875 0.09375,0.1171875 0.24609372,0.1171875 0.46875,0 0.4921875,0.070312 0.4921875,0.1640625 0,0.070312 -0.082031,0.4101562 -0.140625,0.6210937 l -0.80859372,3.2460938 c -0.12890625,0.5039062 -0.1640625,0.65625 -0.1640625,1.0078125 0,0.94921873 0.52734375,1.55859373 1.26562502,1.55859373 1.171875,0 2.4023437,-1.47656253 2.4023437,-2.91796873 0,-0.9023438 -0.5273437,-1.59375 -1.3242187,-1.59375 -0.4570313,0 -0.8671875,0.2929687 -1.171875,0.5976562 z m -0.9375,3.7734375 c 0.058594,-0.2226562 0.058594,-0.2460937 0.1523438,-0.3515625 0.4921875,-0.6445312 0.9375,-0.796875 1.1953125,-0.796875 0.3632812,0 0.6328125,0.2929688 0.6328125,0.9375 0,0.5859375 -0.328125,1.734375 -0.515625,2.109375 -0.328125,0.66796878 -0.7851563,1.03125003 -1.171875,1.03125003 -0.3398438,0 -0.6679688,-0.26953125 -0.6679688,-1.00781253 0,-0.1875 0,-0.3867187 0.1640625,-1.0078125 z m 0,0"
       style="fill:#ec008c;fill-opacity:1;fill-rule:nonzero;stroke:none"
       aria-label="b"
       transform="matrix(1.3333333,0,0,1.3333333,257.852,262.35333)" />
  </g>
</svg>
