<?xml version="1.0" encoding="UTF-8" standalone="no"?>
<!-- Created with Inkscape (http://www.inkscape.org/) -->

<svg
   version="1.1"
   id="svg1"
   width="214.41257"
   height="188.26953"
   viewBox="0 0 214.41257 188.26953"
   sodipodi:docname="7.8-region-St.svg"
   inkscape:version="1.4.2 (f4327f4, 2025-05-13)"
   xmlns:inkscape="http://www.inkscape.org/namespaces/inkscape"
   xmlns:sodipodi="http://sodipodi.sourceforge.net/DTD/sodipodi-0.dtd"
   xmlns="http://www.w3.org/2000/svg"
   xmlns:svg="http://www.w3.org/2000/svg">
  <defs
     id="defs1" />
  <sodipodi:namedview
     id="namedview1"
     pagecolor="#ffffff"
     bordercolor="#000000"
     borderopacity="0.25"
     inkscape:showpageshadow="2"
     inkscape:pageopacity="0.0"
     inkscape:pagecheckerboard="0"
     inkscape:deskcolor="#d1d1d1"
     inkscape:zoom="2.2241536"
     inkscape:cx="203.89779"
     inkscape:cy="112.1775"
     inkscape:window-width="1920"
     inkscape:window-height="1009"
     inkscape:window-x="-8"
     inkscape:window-y="-8"
     inkscape:window-maximized="1"
     inkscape:current-layer="g1">
    <inkscape:page
       x="0"
       y="0"
       inkscape:label="2"
       id="page1"
       width="214.41257"
       height="188.26953"
       margin="0"
       bleed="0" />
  </sodipodi:namedview>
  <g
     id="g1"
     inkscape:groupmode="layer"
     inkscape:label="2"
     transform="translate(-38.060093,-69.417968)">
    <path
       id="path2"
       d="M -25.51193,0 H 132.2038"
       style="fill:none;stroke:#000000;stroke-width:0.3985;stroke-linecap:butt;stroke-linejoin:miter;stroke-miterlimit:10;stroke-dasharray:none;stroke-opacity:1"
       transform="matrix(1.3333333,0,0,-1.3333333,72.076,210.20133)" />
    <path
       id="path3"
       d="M -1.19551,1.59401 C -1.09587,0.99626 0,0.09961 0.29886,0 0,-0.09961 -1.09587,-0.99626 -1.19551,-1.59401"
       style="fill:none;stroke:#000000;stroke-width:0.31879;stroke-linecap:round;stroke-linejoin:round;stroke-miterlimit:10;stroke-dasharray:none;stroke-opacity:1"
       transform="matrix(1.3333333,0,0,-1.3333333,248.34773,210.20133)" />
    <path
       id="path4"
       d="m 3.6451172,-3.292375 c 0.070312,-0.28125 0.3164062,-1.2890625 1.078125,-1.2890625 0.058594,0 0.3164062,0 0.5507812,0.140625 -0.3046875,0.058594 -0.5273437,0.328125 -0.5273437,0.5859375 0,0.1757813 0.1171875,0.3867188 0.4101562,0.3867188 0.2460938,0 0.5976563,-0.1992188 0.5976563,-0.6328125 0,-0.5625 -0.6445313,-0.7265625 -1.0195313,-0.7265625 -0.6328125,0 -1.0195312,0.5859375 -1.1484375,0.8320312 -0.2695312,-0.7148437 -0.8554687,-0.8320312 -1.171875,-0.8320312 -1.1367187,0 -1.75781246,1.4179687 -1.75781246,1.6875 0,0.1054687 0.10546875,0.1054687 0.12890625,0.1054687 0.0820313,0 0.1171875,-0.023437 0.140625,-0.1171875 0.37500001,-1.1601562 1.08984371,-1.4296875 1.46484371,-1.4296875 0.2109375,0 0.5859375,0.09375 0.5859375,0.7265625 0,0.3398438 -0.1875,1.078125 -0.5859375,2.6015625 -0.1757812,0.6796875 -0.5625,1.13671875 -1.0429687,1.13671875 -0.058594,0 -0.3164063,0 -0.53906251,-0.140625 C 1.0787109,-0.3158125 1.3248047,-0.5501875 1.3248047,-0.854875 c 0,-0.2929687 -0.2460938,-0.375 -0.41015626,-0.375 -0.328125,0 -0.59765625,0.28125 -0.59765625,0.6328125 0,0.50390625 0.55078125,0.71484375 1.03125001,0.71484375 0.7148437,0 1.1015625,-0.76171875 1.1367187,-0.83203125 0.1289063,0.41015625 0.5273438,0.83203125 1.1835938,0.83203125 1.125,0 1.7460937,-1.40624995 1.7460937,-1.67578125 0,-0.1054687 -0.1054687,-0.1054687 -0.1289062,-0.1054687 -0.1054688,0 -0.1289063,0.035156 -0.140625,0.1171875 -0.3632813,1.1601562 -1.1132813,1.42968745 -1.453125,1.42968745 -0.4335938,0 -0.609375,-0.3515625 -0.609375,-0.7265625 0,-0.23437495 0.070312,-0.48046875 0.1875,-0.96093745 z m 0,0"
       style="fill:#000000;fill-opacity:1;fill-rule:nonzero;stroke:none"
       aria-label="x"
       transform="matrix(1.3333333,0,0,1.3333333,244.8,221.57733)" />
    <path
       id="path5"
       d="M 0,-12.75595 V 101.58952"
       style="fill:none;stroke:#000000;stroke-width:0.3985;stroke-linecap:butt;stroke-linejoin:miter;stroke-miterlimit:10;stroke-dasharray:none;stroke-opacity:1"
       transform="matrix(1.3333333,0,0,-1.3333333,72.076,210.20133)" />
    <path
       id="path6"
       d="M -1.19551,1.59401 C -1.09587,0.99626 0,0.09961 0.29886,0 0,-0.09961 -1.09587,-0.99626 -1.19551,-1.59401"
       style="fill:none;stroke:#000000;stroke-width:0.31879;stroke-linecap:round;stroke-linejoin:round;stroke-miterlimit:10;stroke-dasharray:none;stroke-opacity:1"
       transform="matrix(0,-1.3333333,-1.3333333,0,72.076,74.74864)" />
    <path
       id="path7"
       d="m 5.2963203,-4.1605547 c 0.046875,-0.1523437 0.046875,-0.1757812 0.046875,-0.2460937 0,-0.1992188 -0.1523437,-0.2929688 -0.3164062,-0.2929688 -0.1054688,0 -0.28125,0.058594 -0.375,0.2226563 -0.023437,0.058594 -0.1171875,0.3984375 -0.1523438,0.5976562 -0.082031,0.28125 -0.1523437,0.5742188 -0.2226562,0.8671875 l -0.4921875,1.96875 c -0.046875,0.16406251 -0.515625,0.92578126 -1.2304688,0.92578126 -0.5625,0 -0.6796875,-0.48046875 -0.6796875,-0.89062496 0,-0.4921875 0.1875,-1.171875 0.5625,-2.1328125 0.1757813,-0.4453125 0.2109375,-0.5742188 0.2109375,-0.7851563 0,-0.4921875 -0.3515625,-0.9023437 -0.890625,-0.9023437 -1.04296874,0 -1.44140624,1.5820312 -1.44140624,1.6875 0,0.1054687 0.10546875,0.1054687 0.12890625,0.1054687 0.10546875,0 0.1171875,-0.023437 0.17578125,-0.1992187 0.29296875,-1.0195313 0.72656254,-1.3476563 1.10156254,-1.3476563 0.09375,0 0.2695312,0 0.2695312,0.3515625 0,0.2695313 -0.1054687,0.5507813 -0.1757812,0.7617188 -0.4453125,1.1601562 -0.6328125,1.78125 -0.6328125,2.2851562 0,0.97265626 0.6796875,1.30078126 1.3242187,1.30078126 0.421875,0 0.796875,-0.1875 1.1015625,-0.4921875 -0.140625,0.57421875 -0.2695312,1.1015625 -0.703125,1.68750004 -0.2929687,0.3632812 -0.703125,0.6796875 -1.2070312,0.6796875 -0.1523438,0 -0.6445313,-0.023437 -0.83203129,-0.4570313 0.17578129,0 0.31640629,0 0.48046879,-0.1289062 0.1054687,-0.09375 0.2109375,-0.234375 0.2109375,-0.44531254 0,-0.33984375 -0.2929688,-0.38671875 -0.3984375,-0.38671875 -0.25781254,0 -0.60937504,0.17578125 -0.60937504,0.71484379 0,0.5390625 0.48046874,0.9492187 1.14843754,0.9492187 1.125,0 2.25,-0.9960937 2.5546875,-2.22656249 z m 0,0"
       style="fill:#000000;fill-opacity:1;fill-rule:nonzero;stroke:none"
       aria-label="y"
       transform="matrix(1.3333333,0,0,1.3333333,59.309333,75.856)" />
    <path
       id="path8"
       d="m 15.30731,77.24707 0.56406,-4.94777 0.56407,-4.44794 0.56407,-4.01388 0.56407,-3.63121 0.56408,-3.29332 0.56407,-3.00371 0.56407,-2.74327 0.56404,-2.51592 0.56409,-2.30686 0.56407,-2.12317 0.56407,-1.95964 0.56407,-1.80938 0.56407,-1.67897 0.56406,-1.55673 0.56407,-1.44424 0.56407,-1.35004 0.56407,-1.25542 0.56408,-1.17369 0.56407,-1.09931 0.56407,-1.02578 0.56406,-0.96696 0.56407,-0.90821 0.56407,-0.85214 0.56407,-0.8062 0.56406,-0.76027 0.56407,-0.71432 0.56407,-0.67578 0.56406,-0.64038 0.56407,-0.60494 0.56407,-0.57382 0.56407,-0.54614 0.56407,-0.51775 0.56408,-0.49243 0.56407,-0.4695 0.56405,-0.44377 0.56407,-0.42587 0.56408,-0.40602 0.56407,-0.385 0.56407,-0.36981 0.56407,-0.35231 0.56407,-0.33633 0.56406,-0.32274 0.56407,-0.30986 0.56406,-0.29546 0.56407,-0.28458 0.56407,-0.27209 0.56407,-0.2616 0.56406,-0.25106 0.56409,-0.24177 0.56407,-0.23123 0.56407,-0.22306 0.56407,-0.21448 0.56407,-0.20673 0.56407,-0.19891 0.56406,-0.19191 0.56407,-0.18413 0.56407,-0.17987 0.56408,-0.17128 0.56407,-0.16621 0.56407,-0.16079 0.56407,-0.15492 0.56404,-0.14869 0.56407,-0.14678 0.56407,-0.13974 0.56408,-0.13548 0.56407,-0.13158 0.56407,-0.12691 0.56407,-0.12339 0.56406,-0.11951 0.56407,-0.11484 0.56407,-0.1129 0.56407,-0.1086 0.56407,-0.10549 0.56408,-0.10239 0.56407,-0.09888 0.56405,-0.09692 0.56408,-0.09343 0.56407,-0.0911 0.56407,-0.08914 0.56407,-0.08602 0.56406,-0.08332 0.56405,-0.08176 0.56408,-0.07939 0.56407,-0.07709 0.56407,-0.07475 0.56407,-0.07318 0.56407,-0.07124 0.56409,-0.0689 0.56406,-0.06733 0.56407,-0.06618 0.56407,-0.06424 0.56407,-0.06229 L 67.76573,9.9936 68.3298,9.93445 68.89388,9.87605 69.45793,9.81923 70.022,9.76433 70.58607,9.7106 71.15013,9.65767 71.7142,9.60667 72.27827,9.55606 72.84235,9.5074 73.4064,9.45952 73.97047,9.41241 74.53455,9.36685 75.09862,9.3221 75.66269,9.2781 76.22676,9.23569 76.79083,9.19365 77.35489,9.15317 77.91896,9.11267 78.48303,9.07373 79.0471,9.03522 79.61118,8.99783 80.17525,8.96124 80.7393,8.92505 81.30338,8.8896 81.86743,8.85536 82.4315,8.82149 82.99557,8.7884 83.55965,8.75609 84.12372,8.72417 84.68777,8.69302 85.25185,8.66266 85.81592,8.63307 86.37999,8.60349 86.94408,8.57468 87.50815,8.54588 88.07222,8.51863 88.63628,8.49138 89.20035,8.46451 89.76442,8.43883 90.32849,8.41275 90.89256,8.38783 91.45663,8.3633 92.02069,8.33878 92.58475,8.31503 93.14882,8.29128 93.71289,8.26869 94.27696,8.24612 94.84103,8.22394 95.4051,8.20215 95.96918,8.18073 96.53323,8.1597 97.0973,8.13907 l 0.56408,-0.02023 0.56407,-0.02025 0.56407,-0.01946 0.56407,-0.01907 0.56406,-0.01909 0.56407,-0.01866 0.56407,-0.01833 0.56407,-0.01788 0.56407,-0.01753 0.56406,-0.01752 0.56407,-0.01714 0.56406,-0.0171 0.56407,-0.01636 0.56407,-0.01634 0.56407,-0.01598 0.56407,-0.01596 0.56408,-0.01556 0.56407,-0.01518 0.56405,-0.01519 0.56408,-0.0148 0.56407,-0.0144 0.56409,-0.01441 0.56406,-0.014 0.56408,-0.01403 0.56407,-0.01399 0.56405,-0.01364 0.56406,-0.01323 0.56408,-0.01324 0.56406,-0.01244 0.56408,-0.01285 0.56407,-0.01246 0.56407,-0.01245 0.56406,-0.01207 0.56407,-0.01207 0.56407,-0.01206 0.56408,-0.0117 0.56406,-0.0113 0.56408,-0.01127 0.56406,-0.01129 0.56406,-0.01091 0.56408,-0.0109 0.56407,-0.01089 0.56407,-0.01053 0.56407,-0.0105 0.56407,-0.01013 0.56406,-0.00972 0.56406,-0.01013 0.56406,-0.0101 0.56408,-0.00975 0.56407,-0.00934 0.56407,-0.00972 0.56408,-0.00936 0.56405,-0.00895 0.56407,-0.00896"
       style="fill:none;stroke:#eb0a36;stroke-width:0.79701;stroke-linecap:butt;stroke-linejoin:miter;stroke-miterlimit:10;stroke-dasharray:none;stroke-opacity:1"
       transform="matrix(1.3333333,0,0,-1.3333333,72.076,210.20133)" />
    <path
       id="path9"
       d="m 25.51193,31.88991 0.77272,-1.48238 0.77274,-1.34924 0.77273,-1.24259 0.77269,-1.14292 0.77274,-1.05379 0.77273,-0.97203 0.77272,-0.90316 0.77273,-0.83421 0.77272,-0.77818 0.77272,-0.72444 0.77273,-0.67581 0.77272,-0.63024 0.77272,-0.59209 0.77272,-0.55085 0.77274,-0.51813 0.77272,-0.48698 0.77272,-0.4582 0.77272,-0.43208 0.77274,-0.40681 0.7727,-0.38384 0.77274,-0.36203 0.77273,-0.34453 0.77272,-0.32542 0.77271,-0.30714 0.77273,-0.29235 0.77274,-0.27795 0.77272,-0.26432 0.77271,-0.24992 0.77273,-0.23903 0.77272,-0.22812 0.77273,-0.21683 0.77271,-0.20669 0.77272,-0.19853 0.77274,-0.18919 0.77273,-0.18064 0.77272,-0.17322 0.7727,-0.16507 0.77274,-0.15882 0.77274,-0.15221 0.7727,-0.14558 0.77272,-0.14015 0.77274,-0.1343 0.77272,-0.12924 0.77272,-0.12457 0.77274,-0.11913 0.77272,-0.11522 0.77272,-0.11017 0.77272,-0.10666 0.77273,-0.10278 0.77272,-0.09888 0.77272,-0.09536 0.77272,-0.09266 0.77273,-0.08876 0.77273,-0.08563 0.77272,-0.08369 0.7727,-0.07981 0.77274,-0.07746 0.77274,-0.07515 0.77273,-0.07239 0.77269,-0.07007 0.77274,-0.06813 0.77273,-0.06578 0.77272,-0.06384 0.77272,-0.06229 0.77272,-0.05995 0.77272,-0.058 L 77.28444,9.15782 78.05716,9.10333 78.82988,9.05 79.6026,8.99823 80.37534,8.9484 81.14806,8.89973 81.92078,8.85185 82.6935,8.8063 83.46623,8.76115 84.23894,8.71794 85.01167,8.6755 85.78441,8.63425 86.55711,8.59454 87.32983,8.5552 88.10257,8.51707 88.8753,8.48009 l 0.77273,-0.03621 0.7727,-0.03504 0.77274,-0.03427 0.77272,-0.03346 0.77273,-0.0327 0.77271,-0.03152 0.77272,-0.03115 0.77273,-0.02998 0.77274,-0.02957 0.77272,-0.02921 0.7727,-0.02801 0.77274,-0.02727 0.77274,-0.02686 0.7727,-0.02647 0.77272,-0.02528 0.77274,-0.02492 L 102.0116,7.97363 102.0478,0 h -0.77271 -0.77274 -0.77272 -0.77272 -0.77274 -0.77272 -0.7727 H 95.86601 95.09328 94.32057 93.54785 92.77512 92.00238 91.22966 90.45695 89.68422 88.9115 88.13876 87.36606 86.59334 85.8206 85.04787 84.27515 83.50244 82.7297 81.95697 81.18427 80.41153 79.63881 78.86609 78.09337 77.32063 76.54791 75.77519 75.00247 74.22974 73.45702 72.6843 71.91158 71.13885 70.36612 69.59338 68.82068 68.04796 67.27522 66.50249 65.72977 64.95706 64.18433 63.4116 62.63887 61.86617 61.09344 60.32071 59.54797 58.77527 58.00255 57.22981 56.45708 55.68437 54.91165 54.13892 53.3662 52.59348 51.82074 51.04803 50.2753 49.50258 48.72984 47.95712 47.1844 46.41168 45.63896 44.86623 44.0935 43.3208 42.54807 41.77533 41.00261 40.2299 39.45717 38.68443 37.91171 37.13899 36.36627 35.59355 34.82082 34.0481 33.27538 32.50266 31.72992 30.9572 30.18448 29.41176 28.63902 27.86632 27.09358 26.32085 25.54814 Z"
       style="fill:#9999ff;fill-opacity:0.25;fill-rule:nonzero;stroke:none"
       transform="matrix(1.3333333,0,0,-1.3333333,72.076,210.20133)" />
    <path
       id="path10"
       d="M 25.51193,0 V 31.88991"
       style="fill:none;stroke:#ec008c;stroke-width:0.3985;stroke-linecap:butt;stroke-linejoin:miter;stroke-miterlimit:10;stroke-dasharray:2.98883, 2.98883;stroke-dashoffset:0;stroke-opacity:1"
       transform="matrix(1.3333333,0,0,-1.3333333,72.076,210.20133)" />
    <path
       id="path11"
       d="M 102.0478,0 V 7.97247"
       style="fill:none;stroke:#ec008c;stroke-width:0.3985;stroke-linecap:butt;stroke-linejoin:miter;stroke-miterlimit:10;stroke-dasharray:2.98883, 2.98883;stroke-dashoffset:0;stroke-opacity:1"
       transform="matrix(1.3333333,0,0,-1.3333333,72.076,210.20133)" />
    <g
       id="g11"
       aria-label="y=&#10;1"
       transform="matrix(1.3333333,0,0,1.3333333,119.388,146.388)">
      <path
         id="path12"
         d="m 4.8388828,-3.7978359 c 0.046875,-0.140625 0.046875,-0.1523438 0.046875,-0.2226563 0,-0.1875 -0.140625,-0.2695312 -0.2929687,-0.2695312 -0.1054688,0 -0.2578125,0.058594 -0.3515625,0.1992187 -0.023437,0.058594 -0.09375,0.3632813 -0.140625,0.5390625 -0.070312,0.2578125 -0.140625,0.5273438 -0.1992188,0.796875 l -0.4453125,1.79296876 c -0.035156,0.15234375 -0.46875,0.85546875 -1.125,0.85546875 -0.5039062,0 -0.6210937,-0.4453125 -0.6210937,-0.80859375 0,-0.45703126 0.1757812,-1.07812496 0.515625,-1.95703126 0.1523437,-0.4101562 0.1992187,-0.515625 0.1992187,-0.7148437 0,-0.4453125 -0.328125,-0.8203125 -0.8203125,-0.8203125 -0.94921874,0 -1.31249999,1.453125 -1.31249999,1.5351562 0,0.1054688 0.09375,0.1054688 0.1171875,0.1054688 0.09375,0 0.10546875,-0.023437 0.15234375,-0.1875 0.26953125,-0.9375 0.66796874,-1.2304688 1.00781254,-1.2304688 0.082031,0 0.2578125,0 0.2578125,0.3164063 0,0.2460937 -0.1054688,0.515625 -0.1757813,0.703125 -0.3984375,1.0546875 -0.5742187,1.6171875 -0.5742187,2.0859375 0,0.89062496 0.6210937,1.18359371 1.21875,1.18359371 0.3867187,0 0.7265625,-0.1640625 0.9960937,-0.4453125 -0.1289062,0.515625 -0.2460937,1.0078125 -0.6445312,1.53515629 -0.2578125,0.3398437 -0.6328125,0.6328125 -1.0898438,0.6328125 -0.140625,0 -0.59765624,-0.035156 -0.76171874,-0.421875 0.1640625,0 0.29296874,0 0.43359374,-0.1171875 0.09375,-0.09375 0.1992188,-0.2226563 0.1992188,-0.41015629 0,-0.31640625 -0.2695313,-0.3515625 -0.375,-0.3515625 -0.22265629,0 -0.55078129,0.1640625 -0.55078129,0.64453129 0,0.5039062 0.43359375,0.8671875 1.05468749,0.8671875 1.0195313,0 2.0507813,-0.9023438 2.3320313,-2.02734379 z m 0,0"
         style="fill:#eb0a36;fill-opacity:1;fill-rule:nonzero;stroke:none" />
      <path
         id="path13"
         d="m 14.855484,-3.2587734 c 0.152344,0 0.339844,0 0.339844,-0.1992188 0,-0.1992187 -0.1875,-0.1992187 -0.328125,-0.1992187 H 8.9023594 c -0.140625,0 -0.328125,0 -0.328125,0.1992187 0,0.1992188 0.1875,0.1992188 0.3398437,0.1992188 z m 0.01172,1.9335937 c 0.140625,0 0.328125,0 0.328125,-0.1992187 0,-0.1992188 -0.1875,-0.1992188 -0.339844,-0.1992188 H 8.9140781 c -0.1523437,0 -0.3398437,0 -0.3398437,0.1992188 0,0.1992187 0.1875,0.1992187 0.328125,0.1992187 z M 25.241227,-13.114242 c 0,-0.234375 0,-0.257813 -0.234375,-0.257813 -0.609375,0.632813 -1.488282,0.632813 -1.804688,0.632813 v 0.316406 c 0.199219,0 0.785156,0 1.300781,-0.257812 v 5.1562496 c 0,0.3515625 -0.03516,0.4804687 -0.925781,0.4804687 h -0.316406 v 0.3046875 c 0.351562,-0.035156 1.207031,-0.035156 1.605469,-0.035156 0.398437,0 1.265625,0 1.617187,0.035156 v -0.3046875 h -0.316406 c -0.902344,0 -0.925781,-0.1171875 -0.925781,-0.4804687 z m 0,0"
         style="fill:#eb0a36;fill-opacity:1;fill-rule:nonzero;stroke:none" />
    </g>
    <path
       id="path14"
       d="M 0,0 H 10.163"
       style="fill:none;stroke:#eb0a36;stroke-width:0.398;stroke-linecap:butt;stroke-linejoin:miter;stroke-miterlimit:10;stroke-dasharray:none;stroke-opacity:1"
       transform="matrix(1.3333333,0,0,-1.3333333,145.68267,143.06667)" />
    <g
       id="g14"
       aria-label="x&#10;2"
       transform="matrix(1.3333333,0,0,1.3333333,145.68267,155.5)">
      <path
         id="path15"
         d="m 3.3288203,-3.0117187 c 0.058594,-0.2578125 0.2929688,-1.171875 0.984375,-1.171875 0.046875,0 0.2929688,0 0.5039063,0.1289062 -0.28125,0.046875 -0.4804688,0.3046875 -0.4804688,0.5390625 0,0.1640625 0.1054688,0.3515625 0.375,0.3515625 0.2226563,0 0.5390625,-0.1875 0.5390625,-0.5859375 0,-0.515625 -0.5859375,-0.65625 -0.9257812,-0.65625 -0.5742188,0 -0.9257813,0.5273438 -1.0429688,0.7617188 -0.2578125,-0.65625 -0.7851562,-0.7617188 -1.078125,-0.7617188 -1.0429687,0 -1.60546874,1.2890625 -1.60546874,1.5351563 0,0.1054687 0.10546875,0.1054687 0.1171875,0.1054687 0.0820313,0 0.1171875,-0.023437 0.12890625,-0.1171875 C 1.1842891,-3.9375 1.8405391,-4.1835937 2.1803828,-4.1835937 c 0.1875,0 0.5390625,0.09375 0.5390625,0.6679687 0,0.3046875 -0.1640625,0.9726563 -0.5390625,2.3671875 -0.1523437,0.62109375 -0.5039062,1.04296875 -0.9492187,1.04296875 -0.058594,0 -0.28125004,0 -0.49218754,-0.12890625 0.24609375,-0.0585938 0.46875004,-0.26953125 0.46875004,-0.5390625 0,-0.2695312 -0.22265629,-0.3515625 -0.37500004,-0.3515625 -0.29296875,0 -0.5390625,0.2578125 -0.5390625,0.57421875 0,0.45703125 0.4921875,0.65625 0.93750004,0.65625 0.65625,0 1.0078125,-0.69140625 1.0429687,-0.75 0.1171875,0.36328125 0.4804688,0.75 1.078125,0.75 1.0195313,0 1.59375,-1.27734375 1.59375,-1.53515625 0,-0.09375 -0.09375,-0.09375 -0.1289062,-0.09375 -0.082031,0 -0.1054688,0.035156 -0.1289063,0.1054688 -0.328125,1.0664062 -0.9960937,1.31249995 -1.3242187,1.31249995 -0.3867188,0 -0.5390625,-0.328125 -0.5390625,-0.65625 0,-0.22265625 0.058594,-0.44531245 0.1640625,-0.87890625 z m 0,0"
         style="fill:#eb0a36;fill-opacity:1;fill-rule:nonzero;stroke:none" />
      <path
         id="path16"
         d="m 9.2087031,-4.1425781 h -0.234375 c -0.023437,0.1523437 -0.082031,0.5625 -0.1757812,0.6328125 -0.058594,0.035156 -0.5976563,0.035156 -0.6914063,0.035156 H 6.8180781 c 0.7382813,-0.6445312 0.984375,-0.84375 1.3945313,-1.171875 0.515625,-0.4101562 0.9960937,-0.84375 0.9960937,-1.5 0,-0.84375 -0.7382812,-1.359375 -1.6289062,-1.359375 -0.8671875,0 -1.453125,0.609375 -1.453125,1.2421875 0,0.3632813 0.3046875,0.3984375 0.375,0.3984375 0.1640625,0 0.375,-0.1171875 0.375,-0.375 0,-0.1289062 -0.058594,-0.3632812 -0.421875,-0.3632812 0.2226562,-0.5039063 0.6914062,-0.65625 1.0195312,-0.65625 0.703125,0 1.0664063,0.5507812 1.0664063,1.1132812 0,0.609375 -0.4335938,1.0898438 -0.65625,1.3359375 l -1.6875,1.6640625 c -0.070312,0.058594 -0.070312,0.070312 -0.070312,0.2695313 h 2.8828125 z m 0,0"
         style="fill:#eb0a36;fill-opacity:1;fill-rule:nonzero;stroke:none" />
    </g>
    <g
       id="g16"
       aria-label="S&#10;t"
       transform="matrix(1.3333333,0,0,1.3333333,116.688,203.53867)">
      <path
         id="path17"
         d="m 6.4215,-6.9254844 c 0,-0.023437 -0.011719,-0.09375 -0.1054687,-0.09375 -0.046875,0 -0.058594,0.011719 -0.1757813,0.140625 l -0.4804687,0.5742188 c -0.2578125,-0.46875 -0.7734375,-0.7148438 -1.4296875,-0.7148438 -1.265625,0 -2.4609375,1.1367188 -2.4609375,2.34375 0,0.8085938 0.5273437,1.265625 1.0429687,1.4179688 l 1.0664063,0.28125 c 0.3632812,0.082031 0.9140625,0.234375 0.9140625,1.0546875 0,0.890625 -0.8203125,1.82812498 -1.7929688,1.82812498 -0.6445312,0 -1.7460937,-0.2109375 -1.7460937,-1.45312498 0,-0.234375 0.046875,-0.4804688 0.058594,-0.5390625 0.011719,-0.035156 0.023437,-0.046875 0.023437,-0.070312 0,-0.09375 -0.070312,-0.1054688 -0.1171875,-0.1054688 -0.058594,0 -0.070312,0.011719 -0.1054687,0.035156 C 1.07775,-2.1793906 0.51525,0.09404688 0.51525,0.11748438 c 0,0.0585938 0.046875,0.10546875 0.1171875,0.10546875 0.046875,0 0.0585938,-0.0117188 0.17578125,-0.15234375 L 1.3004063,-0.50360937 c 0.421875,0.5859375 1.1015625,0.7265625 1.6757812,0.7265625 1.359375,0 2.53125,-1.32421873 2.53125,-2.56640623 0,-0.6796875 -0.3398437,-1.0195313 -0.4921875,-1.1601563 -0.2226562,-0.234375 -0.375,-0.2695312 -1.265625,-0.5039062 -0.2109375,-0.058594 -0.5742187,-0.1523438 -0.65625,-0.1757813 -0.2695312,-0.09375 -0.609375,-0.375 -0.609375,-0.9023437 0,-0.8085938 0.796875,-1.6523438 1.734375,-1.6523438 0.8320313,0 1.4414063,0.421875 1.4414063,1.5351563 0,0.3164062 -0.046875,0.5039062 -0.046875,0.5625 0,0.011719 0,0.09375 0.1289062,0.09375 0.09375,0 0.1054688,-0.023437 0.140625,-0.1992188 z m 0,0"
         style="fill:#0000ff;fill-opacity:0.5;fill-rule:nonzero;stroke:none" />
      <path
         id="path18"
         d="m 7.8189609,-1.2594687 h 0.7148438 c 0.1289062,0 0.2226562,0 0.2226562,-0.1523438 0,-0.09375 -0.09375,-0.09375 -0.2109375,-0.09375 h -0.65625 l 0.2578125,-1.0429687 c 0,-0.023437 0.023437,-0.058594 0.023437,-0.09375 0,-0.1289063 -0.1054687,-0.2226563 -0.2460937,-0.2226563 -0.1757813,0 -0.28125,0.1171875 -0.328125,0.3046875 -0.046875,0.1757813 0.046875,-0.1640625 -0.2578125,1.0546875 H 6.6236484 c -0.1289062,0 -0.2226562,0 -0.2226562,0.1523438 0,0.09375 0.082031,0.09375 0.2109375,0.09375 h 0.65625 L 6.8580234,0.38115625 C 6.8228672,0.5569375 6.7525547,0.81475 6.7525547,0.89678125 c 0,0.42187505 0.3515625,0.66796875 0.75,0.66796875 0.7734375,0 1.21875,-0.97265625 1.21875,-1.06640625 0,-0.09375 -0.09375,-0.09375 -0.1171875,-0.09375 -0.082031,0 -0.09375,0.0117188 -0.140625,0.12890625 -0.1992188,0.4453125 -0.5507813,0.8320313 -0.9375,0.8320313 -0.1523438,0 -0.2460938,-0.082031 -0.2460938,-0.3398438 0,-0.0703125 0.023437,-0.2109375 0.046875,-0.28125 z m 0,0"
         style="fill:#0000ff;fill-opacity:0.5;fill-rule:nonzero;stroke:none" />
    </g>
    <path
       id="path19"
       d="m 2.0494922,-3.9850937 h 0.9375 c 0.1992187,0 0.3046875,0 0.3046875,-0.1992188 0,-0.1054687 -0.1054688,-0.1054687 -0.28125,-0.1054687 H 2.1315234 c 0.3632813,-1.4179688 0.4101563,-1.6171875 0.4101563,-1.6757813 0,-0.1757812 -0.1171875,-0.2695312 -0.2929688,-0.2695312 -0.023437,0 -0.3046875,0.011719 -0.3984375,0.3515625 l -0.3867187,1.59375 H 0.52605469 c -0.19921875,0 -0.29296875,0 -0.29296875,0.1875 0,0.1171875 0.0703125,0.1171875 0.26953125,0.1171875 H 1.3815234 c -0.71484371,2.8242187 -0.74999996,2.99999995 -0.74999996,3.1757812 0,0.5390625 0.37499996,0.9140625 0.91406246,0.9140625 1.0078125,0 1.5820313,-1.453125 1.5820313,-1.5351562 0,-0.09375 -0.082031,-0.09375 -0.1171875,-0.09375 -0.09375,0 -0.1054688,0.023437 -0.1523438,0.140625 -0.4335937,1.03124995 -0.9609375,1.2773437 -1.3007812,1.2773437 -0.1992188,0 -0.3046875,-0.12890625 -0.3046875,-0.45703125 0,-0.24609375 0.023437,-0.31640625 0.058594,-0.48046875 z m 0,0"
       style="fill:#ec008c;fill-opacity:1;fill-rule:nonzero;stroke:none"
       aria-label="t"
       transform="matrix(1.3333333,0,0,1.3333333,205.74,223.48533)" />
    <g
       id="g19"
       aria-label="´&#10;Area(S&#10;t&#10;)=1−&#10;1"
       transform="matrix(1.3333333,0,0,1.3333333,125.14133,245.07733)">
      <path
         id="path20"
         d="m 3.73775,-6.292375 c 0.082031,-0.070312 0.1640625,-0.1875 0.1640625,-0.3046875 0,-0.1757812 -0.1757812,-0.3515625 -0.3515625,-0.3515625 -0.1523437,0 -0.2578125,0.1054688 -0.3046875,0.1640625 L 2.05025,-5.261125 2.2260313,-5.0853437 Z m -1.0224609,1.8720703 c -0.046875,-0.1289062 -0.070312,-0.1992187 -0.2226563,-0.1992187 -0.1640625,0 -0.1875,0.058594 -0.2460937,0.1992187 L 0.18403906,1.5445391 c -0.17578125,0.5039062 -0.57421875,0.65625 -1.11328125,0.6679687 v 0.3046875 c 0.234375,-0.011719 0.65625,-0.035156 1.01953125,-0.035156 0.3046875,0 0.8203125,0.023437 1.14843754,0.035156 V 2.2125078 c -0.50390629,0 -0.75000004,-0.2578125 -0.75000004,-0.515625 0,-0.023437 0.0117188,-0.1289062 0.0234375,-0.140625 L 0.96919531,0.24375781 H 3.4301328 L 3.9574766,1.7671953 c 0.011719,0.046875 0.023437,0.1054688 0.023437,0.140625 0,0.3046875 -0.5507813,0.3046875 -0.8203125,0.3046875 v 0.3046875 c 0.3515625,-0.035156 1.0546875,-0.035156 1.4296875,-0.035156 0.4335937,0 0.890625,0.011719 1.3007812,0.035156 V 2.2125078 H 5.7152891 c -0.5976563,0 -0.7382813,-0.070312 -0.84375,-0.3984375 z m -0.5273438,1.125 1.125,3.23437501 H 1.0746641 Z m 5.7041016,2.50781251 V -1.8890547 l -1.3828125,0.1171875 v 0.3046875 c 0.6914062,0 0.7734375,0.070312 0.7734375,0.56250001 V 1.7554766 c 0,0.4570312 -0.1054688,0.4570312 -0.7734375,0.4570312 v 0.3046875 c 0.3867187,-0.011719 0.8554687,-0.035156 1.1367187,-0.035156 0.3984375,0 0.8671875,0 1.265625,0.035156 V 2.2125078 H 8.7006406 c -0.7382812,0 -0.7617187,-0.1171875 -0.7617187,-0.46875 V 0.20860156 c 0,-0.984375 0.421875,-1.87499996 1.1835937,-1.87499996 0.058594,0 0.082031,0 0.1054688,0.011719 -0.035156,0.011719 -0.234375,0.1289063 -0.234375,0.3867188 0,0.28124996 0.2109375,0.43359371 0.4335937,0.43359371 0.1757813,0 0.421875,-0.12890625 0.421875,-0.44531251 0,-0.3164062 -0.3046875,-0.609375 -0.7265625,-0.609375 -0.7382812,0 -1.0898437,0.6679688 -1.2304687,1.10156221 z m 3.3515621,0.796875 c 0.05859,-1.48828121 0.902344,-1.73437501 1.242188,-1.73437501 1.019531,0 1.125,1.34765626 1.125,1.73437501 z m -0.01172,0.2109375 h 2.789062 c 0.210938,0 0.246094,0 0.246094,-0.2109375 0,-0.984375 -0.539063,-1.95703121 -1.78125,-1.95703121 -1.160156,0 -2.074219,1.03124996 -2.074219,2.27343746 0,1.33593754 1.042969,2.29687504 2.191406,2.29687504 1.21875,0 1.664063,-1.1015625 1.664063,-1.2890625 0,-0.1054688 -0.08203,-0.1171875 -0.128906,-0.1171875 -0.09375,0 -0.117188,0.058594 -0.128907,0.140625 -0.351562,1.0195312 -1.253906,1.0195312 -1.347656,1.0195312 -0.503906,0 -0.902344,-0.2929687 -1.125,-0.6679687 C 11.231891,1.2281328 11.231891,0.57188281 11.231891,0.22032031 Z M 17.87349,1.7554766 c 0.03516,0.3984375 0.304688,0.8203125 0.773438,0.8203125 0.210937,0 0.820312,-0.140625 0.820312,-0.9492188 V 1.0757891 h -0.246094 v 0.5507812 c 0,0.5859375 -0.246093,0.6445313 -0.363281,0.6445313 -0.328125,0 -0.363281,-0.4570313 -0.363281,-0.5039063 v -1.99218749 c 0,-0.41015625 0,-0.80859371 -0.363281,-1.17187501 -0.386719,-0.3867187 -0.878907,-0.5507812 -1.359375,-0.5507812 -0.820313,0 -1.511719,0.46875 -1.511719,1.12499996 0,0.3046875 0.199219,0.46875 0.457031,0.46875 0.28125,0 0.46875,-0.19921875 0.46875,-0.45703125 0,-0.1171875 -0.05859,-0.44531251 -0.515625,-0.45703121 0.269531,-0.3515625 0.761719,-0.4570313 1.078125,-0.4570313 0.492188,0 1.054688,0.3867188 1.054688,1.27734376 v 0.36328125 c -0.503907,0.03515625 -1.207032,0.05859375 -1.828125,0.36328125 -0.75,0.33984375 -0.996094,0.85546874 -0.996094,1.28906254 0,0.8085937 0.960937,1.0546875 1.59375,1.0546875 0.65625,0 1.113281,-0.3984375 1.300781,-0.8671875 z M 17.80318,0.12657031 V 1.1226641 c 0,0.9492187 -0.714844,1.2890625 -1.160157,1.2890625 -0.492187,0 -0.902343,-0.3515625 -0.902343,-0.8554688 0,-0.5390625 0.421875,-1.37109374 2.0625,-1.42968749 z m 5.027343,4.78124999 c 0,-0.035156 0,-0.046875 -0.164062,-0.2226562 -1.242188,-1.2539063 -1.570313,-3.1289063 -1.570313,-4.66406254 0,-1.72265626 0.386719,-3.45703126 1.605469,-4.71093746 0.128906,-0.1171875 0.128906,-0.1289063 0.128906,-0.1640625 0,-0.070312 -0.03516,-0.1054688 -0.09375,-0.1054688 -0.105468,0 -0.996093,0.6796875 -1.582031,1.9453125 -0.515625,1.1015625 -0.632812,2.20312501 -0.632812,3.03515626 0,0.78515625 0.117187,1.99218754 0.65625,3.11718754 0.597656,1.21875 1.453125,1.875 1.558593,1.875 0.05859,0 0.09375,-0.035156 0.09375,-0.1054688 z m 0,0"
         style="fill:#0000ff;fill-opacity:0.5;fill-rule:nonzero;stroke:none" />
      <path
         id="path21"
         d="m 29.835406,-4.4085859 c 0,-0.023437 -0.01172,-0.09375 -0.105468,-0.09375 -0.04687,0 -0.05859,0.011719 -0.175782,0.140625 l -0.480468,0.5742187 c -0.257813,-0.46875 -0.773438,-0.7148437 -1.429688,-0.7148437 -1.265625,0 -2.460937,1.1367187 -2.460937,2.34375 0,0.8085937 0.527343,1.26562496 1.042968,1.41796871 l 1.066407,0.28125 c 0.363281,0.0820313 0.914062,0.234375 0.914062,1.0546875 0,0.89062499 -0.820312,1.82812499 -1.792969,1.82812499 -0.644531,0 -1.746093,-0.2109375 -1.746093,-1.45312499 0,-0.234375 0.04687,-0.48046875 0.05859,-0.5390625 0.01172,-0.0351563 0.02344,-0.046875 0.02344,-0.0703125 0,-0.09375 -0.07031,-0.10546875 -0.117188,-0.10546875 -0.05859,0 -0.07031,0.0117188 -0.105468,0.0351563 -0.03516,0.046875 -0.597657,2.32031254 -0.597657,2.34375004 0,0.058594 0.04687,0.1054688 0.117188,0.1054688 0.04687,0 0.05859,-0.011719 0.175781,-0.1523438 l 0.492188,-0.5742187 c 0.421875,0.5859375 1.101562,0.7265625 1.675781,0.7265625 1.359375,0 2.53125,-1.3242188 2.53125,-2.56640634 0,-0.6796875 -0.339844,-1.01953125 -0.492188,-1.16015625 -0.222656,-0.23437491 -0.375,-0.26953121 -1.265625,-0.50390621 -0.210937,-0.058594 -0.574218,-0.1523437 -0.65625,-0.1757812 -0.269531,-0.09375 -0.609375,-0.375 -0.609375,-0.9023438 0,-0.8085937 0.796875,-1.6523437 1.734375,-1.6523437 0.832032,0 1.441407,0.421875 1.441407,1.5351562 0,0.3164063 -0.04687,0.5039063 -0.04687,0.5625 0,0.011719 0,0.09375 0.128906,0.09375 0.09375,0 0.105469,-0.023437 0.140625,-0.1992187 z m 0,0"
         style="fill:#0000ff;fill-opacity:0.5;fill-rule:nonzero;stroke:none" />
      <path
         id="path22"
         d="m 31.232867,1.2574297 h 0.714844 c 0.128906,0 0.222656,0 0.222656,-0.1523438 0,-0.09375 -0.09375,-0.09375 -0.210937,-0.09375 h -0.65625 l 0.257812,-1.04296871 c 0,-0.0234375 0.02344,-0.05859375 0.02344,-0.09375 0,-0.12890625 -0.105469,-0.22265625 -0.246094,-0.22265625 -0.175781,0 -0.28125,0.1171875 -0.328125,0.3046875 -0.04687,0.17578125 0.04687,-0.1640625 -0.257813,1.05468746 h -0.714843 c -0.128907,0 -0.222657,0 -0.222657,0.1523438 0,0.09375 0.08203,0.09375 0.210938,0.09375 h 0.65625 l -0.410156,1.640625 c -0.03516,0.1757812 -0.105469,0.4335937 -0.105469,0.515625 0,0.421875 0.351562,0.6679687 0.75,0.6679687 0.773437,0 1.21875,-0.9726562 1.21875,-1.0664062 0,-0.09375 -0.09375,-0.09375 -0.117188,-0.09375 -0.08203,0 -0.09375,0.011719 -0.140625,0.1289062 -0.199218,0.4453125 -0.550781,0.8320313 -0.9375,0.8320313 -0.152343,0 -0.246093,-0.082031 -0.246093,-0.3398438 0,-0.070312 0.02344,-0.2109375 0.04687,-0.28125 z m 0,0"
         style="fill:#0000ff;fill-opacity:0.5;fill-rule:nonzero;stroke:none" />
      <path
         id="path23"
         d="m 35.911578,0.02110156 c 0,-0.7734375 -0.117187,-1.98046876 -0.65625,-3.10546876 -0.597656,-1.21875 -1.464844,-1.875 -1.558594,-1.875 -0.05859,0 -0.105468,0.046875 -0.105468,0.1054688 0,0.035156 0,0.046875 0.199218,0.234375 0.972657,0.984375 1.535157,2.5664062 1.535157,4.64062496 0,1.71093754 -0.363282,3.45703124 -1.59375,4.72265624 -0.140625,0.1171875 -0.140625,0.1289063 -0.140625,0.1640625 0,0.058594 0.04687,0.1054688 0.105468,0.1054688 0.09375,0 0.996094,-0.6796875 1.582032,-1.9453125 0.503906,-1.1015625 0.632812,-2.20312504 0.632812,-3.04687504 z m 10.605469,-0.76171875 c 0.152344,0 0.339844,0 0.339844,-0.19921875 0,-0.19921876 -0.1875,-0.19921876 -0.328125,-0.19921876 h -5.964844 c -0.140625,0 -0.328125,0 -0.328125,0.19921876 0,0.19921875 0.1875,0.19921875 0.339844,0.19921875 z m 0.01172,1.93359379 c 0.140625,0 0.328125,0 0.328125,-0.19921879 0,-0.19921875 -0.1875,-0.19921875 -0.339844,-0.19921875 h -5.941406 c -0.152344,0 -0.339844,0 -0.339844,0.19921875 0,0.19921879 0.1875,0.19921879 0.328125,0.19921879 z m 6.591797,-5.0507813 c 0,-0.234375 0,-0.2578125 -0.234375,-0.2578125 -0.609375,0.6328125 -1.488282,0.6328125 -1.804688,0.6328125 v 0.3164063 c 0.199219,0 0.785156,0 1.300781,-0.2578125 v 5.15625 c 0,0.3515625 -0.03516,0.4804687 -0.925781,0.4804687 h -0.316406 v 0.3046875 c 0.351562,-0.035156 1.207031,-0.035156 1.605469,-0.035156 0.398437,0 1.265625,0 1.617187,0.035156 V 2.2125078 h -0.316406 c -0.902344,0 -0.925781,-0.1171875 -0.925781,-0.4804687 z m 0,0"
         style="fill:#0000ff;fill-opacity:0.5;fill-rule:nonzero;stroke:none" />
      <path
         id="path24"
         d="m 63.945758,0.22032031 c 0.175781,0 0.351562,0 0.351562,-0.19921875 0,-0.19921875 -0.175781,-0.19921875 -0.351562,-0.19921875 h -5.390625 c -0.164063,0 -0.339844,0 -0.339844,0.19921875 0,0.19921875 0.175781,0.19921875 0.339844,0.19921875 z m 0,0"
         style="fill:#0000ff;fill-opacity:0.5;fill-rule:nonzero;stroke:none" />
      <path
         id="path25"
         d="m 71.469195,-10.596086 c 0,-0.234375 0,-0.257812 -0.234375,-0.257812 -0.609375,0.632812 -1.488281,0.632812 -1.804687,0.632812 v 0.3164063 c 0.199219,0 0.785156,0 1.300781,-0.2578123 v 5.1562498 c 0,0.3515625 -0.03516,0.4804688 -0.925781,0.4804688 h -0.316406 v 0.3046875 c 0.351562,-0.035156 1.207031,-0.035156 1.605468,-0.035156 0.398438,0 1.265625,0 1.617188,0.035156 v -0.3046875 h -0.316406 c -0.902344,0 -0.925782,-0.1171875 -0.925782,-0.4804688 z m 0,0"
         style="fill:#0000ff;fill-opacity:0.5;fill-rule:nonzero;stroke:none" />
    </g>
    <path
       id="path26"
       d="M 0,0 H 4.981"
       style="fill:none;stroke:#0000ff;stroke-width:0.398;stroke-linecap:butt;stroke-linejoin:miter;stroke-miterlimit:10;stroke-dasharray:none;stroke-opacity:0.5"
       transform="matrix(1.3333333,0,0,-1.3333333,216.528,245.11333)" />
    <path
       id="path27"
       d="m 2.0496953,-3.9842187 h 0.9375 c 0.1992188,0 0.3046875,0 0.3046875,-0.1992188 0,-0.1054687 -0.1054687,-0.1054687 -0.28125,-0.1054687 H 2.1317266 c 0.3632812,-1.4179688 0.4101562,-1.6171875 0.4101562,-1.6757813 0,-0.1757812 -0.1171875,-0.2695312 -0.2929687,-0.2695312 -0.023437,0 -0.3046875,0.011719 -0.3984375,0.3515625 l -0.3867188,1.59375 H 0.52625781 c -0.19921875,0 -0.29296875,0 -0.29296875,0.1875 0,0.1171875 0.0703125,0.1171875 0.26953125,0.1171875 H 1.3817266 C 0.66688281,-1.16 0.63172656,-0.98421875 0.63172656,-0.8084375 c 0,0.5390625 0.37500004,0.9140625 0.91406254,0.9140625 1.0078125,0 1.5820312,-1.453125 1.5820312,-1.5351562 0,-0.09375 -0.082031,-0.09375 -0.1171875,-0.09375 -0.09375,0 -0.1054687,0.023437 -0.1523437,0.140625 -0.4335938,1.03124995 -0.9609375,1.2773437 -1.3007813,1.2773437 -0.1992187,0 -0.3046875,-0.12890625 -0.3046875,-0.45703125 0,-0.24609375 0.023437,-0.31640625 0.058594,-0.48046875 z m 0,0"
       style="fill:#0000ff;fill-opacity:0.5;fill-rule:nonzero;stroke:none"
       aria-label="t"
       transform="matrix(1.3333333,0,0,1.3333333,217.45067,257.54667)" />
  </g>
</svg>
