<?xml version="1.0" encoding="UTF-8" standalone="no"?>
<!-- Created with Inkscape (http://www.inkscape.org/) -->

<svg
   version="1.1"
   id="svg1"
   width="214.41257"
   height="157.79054"
   viewBox="0 0 214.41257 157.79054"
   sodipodi:docname="7.8-region-S.svg"
   inkscape:version="1.4.2 (f4327f4, 2025-05-13)"
   xmlns:inkscape="http://www.inkscape.org/namespaces/inkscape"
   xmlns:sodipodi="http://sodipodi.sourceforge.net/DTD/sodipodi-0.dtd"
   xmlns="http://www.w3.org/2000/svg"
   xmlns:svg="http://www.w3.org/2000/svg">
  <defs
     id="defs1" />
  <sodipodi:namedview
     id="namedview1"
     pagecolor="#ffffff"
     bordercolor="#000000"
     borderopacity="0.25"
     inkscape:showpageshadow="2"
     inkscape:pageopacity="0.0"
     inkscape:pagecheckerboard="0"
     inkscape:deskcolor="#d1d1d1"
     inkscape:zoom="2.2241536"
     inkscape:cx="203.89779"
     inkscape:cy="98.239618"
     inkscape:window-width="1920"
     inkscape:window-height="1009"
     inkscape:window-x="-8"
     inkscape:window-y="-8"
     inkscape:window-maximized="1"
     inkscape:current-layer="g1">
    <inkscape:page
       x="0"
       y="0"
       inkscape:label="19"
       id="page1"
       width="214.41257"
       height="157.79054"
       margin="0"
       bleed="0" />
  </sodipodi:namedview>
  <g
     id="g1"
     inkscape:groupmode="layer"
     inkscape:label="19"
     transform="translate(-38.060093,-83.386718)">
    <path
       id="path2"
       d="M -25.51193,0 H 132.2038"
       style="fill:none;stroke:#000000;stroke-width:0.3985;stroke-linecap:butt;stroke-linejoin:miter;stroke-miterlimit:10;stroke-dasharray:none;stroke-opacity:1"
       transform="matrix(1.3333333,0,0,-1.3333333,72.076,224.16933)" />
    <path
       id="path3"
       d="M -1.19551,1.59401 C -1.09587,0.99626 0,0.09961 0.29886,0 0,-0.09961 -1.09587,-0.99626 -1.19551,-1.59401"
       style="fill:none;stroke:#000000;stroke-width:0.31879;stroke-linecap:round;stroke-linejoin:round;stroke-miterlimit:10;stroke-dasharray:none;stroke-opacity:1"
       transform="matrix(1.3333333,0,0,-1.3333333,248.34773,224.16933)" />
    <path
       id="path4"
       d="m 3.6451172,-3.2918125 c 0.070312,-0.28125 0.3164062,-1.2890625 1.078125,-1.2890625 0.058594,0 0.3164062,0 0.5507812,0.140625 -0.3046875,0.058594 -0.5273437,0.328125 -0.5273437,0.5859375 0,0.1757813 0.1171875,0.3867188 0.4101562,0.3867188 0.2460938,0 0.5976563,-0.1992188 0.5976563,-0.6328125 0,-0.5625 -0.6445313,-0.7265625 -1.0195313,-0.7265625 -0.6328125,0 -1.0195312,0.5859375 -1.1484375,0.8320312 -0.2695312,-0.7148437 -0.8554687,-0.8320312 -1.171875,-0.8320312 -1.1367187,0 -1.75781246,1.4179687 -1.75781246,1.6875 0,0.1054687 0.10546875,0.1054687 0.12890625,0.1054687 0.0820313,0 0.1171875,-0.023437 0.140625,-0.1171875 C 1.3013672,-4.3113437 2.0162109,-4.580875 2.3912109,-4.580875 c 0.2109375,0 0.5859375,0.09375 0.5859375,0.7265625 0,0.3398438 -0.1875,1.078125 -0.5859375,2.6015625 -0.1757812,0.6796875 -0.5625,1.13671875 -1.0429687,1.13671875 -0.058594,0 -0.3164063,0 -0.53906251,-0.140625 C 1.0787109,-0.31525 1.3248047,-0.549625 1.3248047,-0.8543125 c 0,-0.2929687 -0.2460938,-0.375 -0.41015626,-0.375 -0.328125,0 -0.59765625,0.28125 -0.59765625,0.6328125 0,0.50390625 0.55078125,0.71484375 1.03125001,0.71484375 0.7148437,0 1.1015625,-0.76171875 1.1367187,-0.83203125 0.1289063,0.41015625 0.5273438,0.83203125 1.1835938,0.83203125 1.125,0 1.7460937,-1.40624995 1.7460937,-1.67578125 0,-0.1054687 -0.1054687,-0.1054687 -0.1289062,-0.1054687 -0.1054688,0 -0.1289063,0.035156 -0.140625,0.1171875 -0.3632813,1.1601562 -1.1132813,1.42968745 -1.453125,1.42968745 -0.4335938,0 -0.609375,-0.3515625 -0.609375,-0.7265625 0,-0.23437495 0.070312,-0.48046875 0.1875,-0.96093745 z m 0,0"
       style="fill:#000000;fill-opacity:1;fill-rule:nonzero;stroke:none"
       aria-label="x"
       transform="matrix(1.3333333,0,0,1.3333333,244.8,235.54533)" />
    <path
       id="path5"
       d="M 0,-12.75595 V 101.58952"
       style="fill:none;stroke:#000000;stroke-width:0.3985;stroke-linecap:butt;stroke-linejoin:miter;stroke-miterlimit:10;stroke-dasharray:none;stroke-opacity:1"
       transform="matrix(1.3333333,0,0,-1.3333333,72.076,224.16933)" />
    <path
       id="path6"
       d="M -1.19551,1.59401 C -1.09587,0.99626 0,0.09961 0.29886,0 0,-0.09961 -1.09587,-0.99626 -1.19551,-1.59401"
       style="fill:none;stroke:#000000;stroke-width:0.31879;stroke-linecap:round;stroke-linejoin:round;stroke-miterlimit:10;stroke-dasharray:none;stroke-opacity:1"
       transform="matrix(0,-1.3333333,-1.3333333,0,72.076,88.71664)" />
    <path
       id="path7"
       d="m 5.2963203,-4.1599922 c 0.046875,-0.1523437 0.046875,-0.1757812 0.046875,-0.2460937 0,-0.1992188 -0.1523437,-0.2929688 -0.3164062,-0.2929688 -0.1054688,0 -0.28125,0.058594 -0.375,0.2226563 -0.023437,0.058594 -0.1171875,0.3984375 -0.1523438,0.5976562 -0.082031,0.28125 -0.1523437,0.5742188 -0.2226562,0.8671875 l -0.4921875,1.96875 c -0.046875,0.16406251 -0.515625,0.92578126 -1.2304688,0.92578126 -0.5625,0 -0.6796875,-0.48046875 -0.6796875,-0.89062496 0,-0.4921875 0.1875,-1.171875 0.5625,-2.1328125 0.1757813,-0.4453125 0.2109375,-0.5742188 0.2109375,-0.7851563 0,-0.4921875 -0.3515625,-0.9023437 -0.890625,-0.9023437 -1.04296874,0 -1.44140624,1.5820312 -1.44140624,1.6875 0,0.1054687 0.10546875,0.1054687 0.12890625,0.1054687 0.10546875,0 0.1171875,-0.023437 0.17578125,-0.1992187 0.29296875,-1.0195313 0.72656254,-1.3476563 1.10156254,-1.3476563 0.09375,0 0.2695312,0 0.2695312,0.3515625 0,0.2695313 -0.1054687,0.5507813 -0.1757812,0.7617188 -0.4453125,1.1601562 -0.6328125,1.78125 -0.6328125,2.2851562 0,0.97265626 0.6796875,1.30078126 1.3242187,1.30078126 0.421875,0 0.796875,-0.1875 1.1015625,-0.4921875 -0.140625,0.57421875 -0.2695312,1.1015625 -0.703125,1.68750004 -0.2929687,0.3632812 -0.703125,0.6796875 -1.2070312,0.6796875 -0.1523438,0 -0.6445313,-0.023437 -0.83203129,-0.4570313 0.17578129,0 0.31640629,0 0.48046879,-0.1289062 0.1054687,-0.09375 0.2109375,-0.234375 0.2109375,-0.44531254 0,-0.33984375 -0.2929688,-0.38671875 -0.3984375,-0.38671875 -0.25781254,0 -0.60937504,0.17578125 -0.60937504,0.71484379 0,0.5390625 0.48046874,0.9492187 1.14843754,0.9492187 1.125,0 2.25,-0.9960937 2.5546875,-2.22656249 z m 0,0"
       style="fill:#000000;fill-opacity:1;fill-rule:nonzero;stroke:none"
       aria-label="y"
       transform="matrix(1.3333333,0,0,1.3333333,59.309333,89.824)" />
    <path
       id="path8"
       d="m 15.30731,77.24707 0.56406,-4.94777 0.56407,-4.44794 0.56407,-4.01388 0.56407,-3.63121 0.56408,-3.29332 0.56407,-3.00371 0.56407,-2.74327 0.56404,-2.51592 0.56409,-2.30686 0.56407,-2.12317 0.56407,-1.95964 0.56407,-1.80938 0.56407,-1.67897 0.56406,-1.55673 0.56407,-1.44424 0.56407,-1.35004 0.56407,-1.25542 0.56408,-1.17369 0.56407,-1.09931 0.56407,-1.02578 0.56406,-0.96696 0.56407,-0.90821 0.56407,-0.85214 0.56407,-0.8062 0.56406,-0.76027 0.56407,-0.71432 0.56407,-0.67578 0.56406,-0.64038 0.56407,-0.60494 0.56407,-0.57382 0.56407,-0.54614 0.56407,-0.51775 0.56408,-0.49243 0.56407,-0.4695 0.56405,-0.44377 0.56407,-0.42587 0.56408,-0.40602 0.56407,-0.385 0.56407,-0.36981 0.56407,-0.35231 0.56407,-0.33633 0.56406,-0.32274 0.56407,-0.30986 0.56406,-0.29546 0.56407,-0.28458 0.56407,-0.27209 0.56407,-0.2616 0.56406,-0.25106 0.56409,-0.24177 0.56407,-0.23123 0.56407,-0.22306 0.56407,-0.21448 0.56407,-0.20673 0.56407,-0.19891 0.56406,-0.19191 0.56407,-0.18413 0.56407,-0.17987 0.56408,-0.17128 0.56407,-0.16621 0.56407,-0.16079 0.56407,-0.15492 0.56404,-0.14869 0.56407,-0.14678 0.56407,-0.13974 0.56408,-0.13548 0.56407,-0.13158 0.56407,-0.12691 0.56407,-0.12339 0.56406,-0.11951 0.56407,-0.11484 0.56407,-0.1129 0.56407,-0.1086 0.56407,-0.10549 0.56408,-0.10239 0.56407,-0.09888 0.56405,-0.09692 0.56408,-0.09343 0.56407,-0.0911 0.56407,-0.08914 0.56407,-0.08602 0.56406,-0.08332 0.56405,-0.08176 0.56408,-0.07939 0.56407,-0.07709 0.56407,-0.07475 0.56407,-0.07318 0.56407,-0.07124 0.56409,-0.0689 0.56406,-0.06733 0.56407,-0.06618 0.56407,-0.06424 0.56407,-0.06229 L 67.76573,9.9936 68.3298,9.93445 68.89388,9.87605 69.45793,9.81923 70.022,9.76433 70.58607,9.7106 71.15013,9.65767 71.7142,9.60667 72.27827,9.55606 72.84235,9.5074 73.4064,9.45952 73.97047,9.41241 74.53455,9.36685 75.09862,9.3221 75.66269,9.2781 76.22676,9.23569 76.79083,9.19365 77.35489,9.15317 77.91896,9.11267 78.48303,9.07373 79.0471,9.03522 79.61118,8.99783 80.17525,8.96124 80.7393,8.92505 81.30338,8.8896 81.86743,8.85536 82.4315,8.82149 82.99557,8.7884 83.55965,8.75609 84.12372,8.72417 84.68777,8.69302 85.25185,8.66266 85.81592,8.63307 86.37999,8.60349 86.94408,8.57468 87.50815,8.54588 88.07222,8.51863 88.63628,8.49138 89.20035,8.46451 89.76442,8.43883 90.32849,8.41275 90.89256,8.38783 91.45663,8.3633 92.02069,8.33878 92.58475,8.31503 93.14882,8.29128 93.71289,8.26869 94.27696,8.24612 94.84103,8.22394 95.4051,8.20215 95.96918,8.18073 96.53323,8.1597 97.0973,8.13907 l 0.56408,-0.02023 0.56407,-0.02025 0.56407,-0.01946 0.56407,-0.01907 0.56406,-0.01909 0.56407,-0.01866 0.56407,-0.01833 0.56407,-0.01788 0.56407,-0.01753 0.56406,-0.01752 0.56407,-0.01714 0.56406,-0.0171 0.56407,-0.01636 0.56407,-0.01634 0.56407,-0.01598 0.56407,-0.01596 0.56408,-0.01556 0.56407,-0.01518 0.56405,-0.01519 0.56408,-0.0148 0.56407,-0.0144 0.56409,-0.01441 0.56406,-0.014 0.56408,-0.01403 0.56407,-0.01399 0.56405,-0.01364 0.56406,-0.01323 0.56408,-0.01324 0.56406,-0.01244 0.56408,-0.01285 0.56407,-0.01246 0.56407,-0.01245 0.56406,-0.01207 0.56407,-0.01207 0.56407,-0.01206 0.56408,-0.0117 0.56406,-0.0113 0.56408,-0.01127 0.56406,-0.01129 0.56406,-0.01091 0.56408,-0.0109 0.56407,-0.01089 0.56407,-0.01053 0.56407,-0.0105 0.56407,-0.01013 0.56406,-0.00972 0.56406,-0.01013 0.56406,-0.0101 0.56408,-0.00975 0.56407,-0.00934 0.56407,-0.00972 0.56408,-0.00936 0.56405,-0.00895 0.56407,-0.00896"
       style="fill:none;stroke:#eb0a36;stroke-width:0.79701;stroke-linecap:butt;stroke-linejoin:miter;stroke-miterlimit:10;stroke-dasharray:none;stroke-opacity:1"
       transform="matrix(1.3333333,0,0,-1.3333333,72.076,224.16933)" />
    <path
       id="path9"
       d="m 25.51193,31.88991 1.03043,-1.94406 1.03042,-1.72725 1.03045,-1.54582 1.03042,-1.38547 1.03045,-1.25271 1.0304,-1.12736 1.03043,-1.02576 1.03043,-0.93115 1.03042,-0.84941 1.03044,-0.7809 1.03041,-0.71434 1.03045,-0.65555 1.03044,-0.60298 1.03041,-0.5598 1.03044,-0.51657 1.03041,-0.47998 1.03044,-0.44456 1.03043,-0.41497 1.03041,-0.38657 1.03044,-0.35735 1.03042,-0.34062 1.03043,-0.31495 1.03044,-0.2974 1.03043,-0.27755 1.03042,-0.26277 1.03043,-0.24641 1.03043,-0.23201 1.03042,-0.21956 1.03043,-0.20671 1.03042,-0.1962 1.03043,-0.18491 1.03044,-0.17518 1.03043,-0.16815 1.03044,-0.15767 1.03042,-0.15027 1.03042,-0.14285 1.03044,-0.13627 1.03041,-0.12962 1.03044,-0.12341 1.03042,-0.11795 1.03042,-0.11249 1.03044,-0.10783 1.03044,-0.10239 1.03042,-0.0981 1.03043,-0.09421 1.03043,-0.09031 1.03042,-0.08681 1.03043,-0.08292 1.03042,-0.07942 1.03043,-0.07628 1.03044,-0.07359 1.03042,-0.07047 1.03043,-0.06771 1.03045,-0.0654 1.03041,-0.06269 1.03044,-0.06071 1.03042,-0.05802 1.03041,-0.05606 1.03044,-0.0541 1.03042,-0.05256 1.03044,-0.05059 1.03042,-0.04865 1.03043,-0.04674 1.03044,-0.04592 1.03043,-0.044 1.03042,-0.04243 1.03043,-0.04126 1.03044,-0.03972 1.03041,-0.03853 1.03042,-0.03776 1.03043,-0.0362 1.03043,-0.03465 1.03044,-0.03426 1.03043,-0.0327 1.03042,-0.0323 1.03045,-0.03116 1.0304,-0.02996 1.03045,-0.02919 1.03042,-0.02802 1.03041,-0.02805 1.03044,-0.02685 1.03041,-0.0257 1.03045,-0.0253 1.03044,-0.0249 1.03042,-0.02414 1.03043,-0.02336 1.03043,-0.02218 1.03042,-0.0226 1.03043,-0.0214 1.03044,-0.02102 1.03041,-0.02024 1.03043,-0.02024 1.03042,-0.0191 1.03045,-0.01905 1.03043,-0.01831 1.03041,-0.0179 1.03043,-0.01752 1.03044,-0.01713 1.03041,-0.01674 L 127.55972,0 h -1.03044 -1.03043 -1.03042 -1.03043 -1.03044 -1.03041 -1.03044 -1.03043 -1.03043 -1.03044 -1.03041 -1.03042 -1.03045 -1.03041 -1.03044 -1.03043 -1.03042 -1.03044 -1.03041 -1.03044 -1.03043 -1.03042 -1.03043 -1.03043 -1.03042 -1.03043 H 99.73819 98.70776 97.67734 96.64691 95.61649 94.58604 93.55563 92.52519 91.49477 90.46436 89.43391 88.40347 87.37305 86.34262 85.31221 84.28177 83.25134 82.22092 81.19049 80.16006 79.12962 78.0992 77.06876 76.03835 75.0079 73.9775 72.94707 71.91663 70.88622 69.85577 68.82533 67.79492 66.76448 65.73405 64.70363 63.6732 62.64279 61.61235 60.58192 59.5515 58.52106 57.49062 56.4602 55.42978 54.39934 53.36893 52.33849 51.30807 50.27765 49.24721 48.21678 47.18634 46.15591 45.1255 44.09506 43.06464 42.03421 41.00378 39.97336 38.94293 37.91249 36.88206 35.85164 34.8212 33.79079 32.76036 31.72992 30.69951 29.66907 28.63866 27.60822 26.57777 25.54736 Z"
       style="fill:#9999ff;fill-opacity:0.25;fill-rule:nonzero;stroke:none"
       transform="matrix(1.3333333,0,0,-1.3333333,72.076,224.16933)" />
    <path
       id="path10"
       d="M 25.51193,0 V 31.88991"
       style="fill:none;stroke:#ec008c;stroke-width:0.3985;stroke-linecap:butt;stroke-linejoin:miter;stroke-miterlimit:10;stroke-dasharray:2.98883, 2.98883;stroke-dashoffset:0;stroke-opacity:1"
       transform="matrix(1.3333333,0,0,-1.3333333,72.076,224.16933)" />
    <g
       id="g10"
       aria-label="y=&#10;1"
       transform="matrix(1.3333333,0,0,1.3333333,119.388,160.356)">
      <path
         id="path11"
         d="m 4.8388828,-3.7972734 c 0.046875,-0.140625 0.046875,-0.1523438 0.046875,-0.2226563 0,-0.1875 -0.140625,-0.2695312 -0.2929687,-0.2695312 -0.1054688,0 -0.2578125,0.058594 -0.3515625,0.1992187 -0.023437,0.058594 -0.09375,0.3632813 -0.140625,0.5390625 -0.070312,0.2578125 -0.140625,0.5273438 -0.1992188,0.796875 l -0.4453125,1.79296876 c -0.035156,0.15234375 -0.46875,0.85546875 -1.125,0.85546875 -0.5039062,0 -0.6210937,-0.4453125 -0.6210937,-0.80859375 0,-0.45703126 0.1757812,-1.07812496 0.515625,-1.95703126 0.1523437,-0.4101562 0.1992187,-0.515625 0.1992187,-0.7148437 0,-0.4453125 -0.328125,-0.8203125 -0.8203125,-0.8203125 -0.94921874,0 -1.31249999,1.453125 -1.31249999,1.5351562 0,0.1054688 0.09375,0.1054688 0.1171875,0.1054688 0.09375,0 0.10546875,-0.023437 0.15234375,-0.1875 0.26953125,-0.9375 0.66796874,-1.2304688 1.00781254,-1.2304688 0.082031,0 0.2578125,0 0.2578125,0.3164063 0,0.2460937 -0.1054688,0.515625 -0.1757813,0.703125 -0.3984375,1.0546875 -0.5742187,1.6171875 -0.5742187,2.0859375 0,0.89062496 0.6210937,1.18359371 1.21875,1.18359371 0.3867187,0 0.7265625,-0.1640625 0.9960937,-0.4453125 -0.1289062,0.515625 -0.2460937,1.0078125 -0.6445312,1.53515629 -0.2578125,0.3398437 -0.6328125,0.6328125 -1.0898438,0.6328125 -0.140625,0 -0.59765624,-0.035156 -0.76171874,-0.421875 0.1640625,0 0.29296874,0 0.43359374,-0.1171875 0.09375,-0.09375 0.1992188,-0.2226563 0.1992188,-0.41015629 0,-0.31640625 -0.2695313,-0.3515625 -0.375,-0.3515625 -0.22265629,0 -0.55078129,0.1640625 -0.55078129,0.64453129 0,0.5039062 0.43359375,0.8671875 1.05468749,0.8671875 1.0195313,0 2.0507813,-0.9023438 2.3320313,-2.02734379 z m 0,0"
         style="fill:#eb0a36;fill-opacity:1;fill-rule:nonzero;stroke:none" />
      <path
         id="path12"
         d="m 14.855484,-3.2582109 c 0.152344,0 0.339844,0 0.339844,-0.1992188 0,-0.1992187 -0.1875,-0.1992187 -0.328125,-0.1992187 H 8.9023594 c -0.140625,0 -0.328125,0 -0.328125,0.1992187 0,0.1992188 0.1875,0.1992188 0.3398437,0.1992188 z m 0.01172,1.9335937 c 0.140625,0 0.328125,0 0.328125,-0.1992187 0,-0.1992188 -0.1875,-0.1992188 -0.339844,-0.1992188 H 8.9140781 c -0.1523437,0 -0.3398437,0 -0.3398437,0.1992188 0,0.1992187 0.1875,0.1992187 0.328125,0.1992187 z M 25.241227,-13.11368 c 0,-0.234375 0,-0.257812 -0.234375,-0.257812 -0.609375,0.632812 -1.488282,0.632812 -1.804688,0.632812 v 0.316407 c 0.199219,0 0.785156,0 1.300781,-0.257813 v 5.1562501 c 0,0.3515625 -0.03516,0.4804687 -0.925781,0.4804687 h -0.316406 v 0.3046875 c 0.351562,-0.035156 1.207031,-0.035156 1.605469,-0.035156 0.398437,0 1.265625,0 1.617187,0.035156 v -0.3046875 h -0.316406 c -0.902344,0 -0.925781,-0.1171875 -0.925781,-0.4804687 z m 0,0"
         style="fill:#eb0a36;fill-opacity:1;fill-rule:nonzero;stroke:none" />
    </g>
    <path
       id="path13"
       d="M 0,0 H 10.163"
       style="fill:none;stroke:#eb0a36;stroke-width:0.398;stroke-linecap:butt;stroke-linejoin:miter;stroke-miterlimit:10;stroke-dasharray:none;stroke-opacity:1"
       transform="matrix(1.3333333,0,0,-1.3333333,145.68267,157.03467)" />
    <g
       id="g13"
       aria-label="x&#10;2"
       transform="matrix(1.3333333,0,0,1.3333333,145.68267,169.468)">
      <path
         id="path14"
         d="m 3.3288203,-3.0111562 c 0.058594,-0.2578125 0.2929688,-1.171875 0.984375,-1.171875 0.046875,0 0.2929688,0 0.5039063,0.1289062 -0.28125,0.046875 -0.4804688,0.3046875 -0.4804688,0.5390625 0,0.1640625 0.1054688,0.3515625 0.375,0.3515625 0.2226563,0 0.5390625,-0.1875 0.5390625,-0.5859375 0,-0.515625 -0.5859375,-0.65625 -0.9257812,-0.65625 -0.5742188,0 -0.9257813,0.5273438 -1.0429688,0.7617188 -0.2578125,-0.65625 -0.7851562,-0.7617188 -1.078125,-0.7617188 -1.0429687,0 -1.60546874,1.2890625 -1.60546874,1.5351563 0,0.1054687 0.10546875,0.1054687 0.1171875,0.1054687 0.0820313,0 0.1171875,-0.023437 0.12890625,-0.1171875 0.33984379,-1.0546875 0.99609379,-1.3007812 1.33593749,-1.3007812 0.1875,0 0.5390625,0.09375 0.5390625,0.6679687 0,0.3046875 -0.1640625,0.9726563 -0.5390625,2.3671875 -0.1523437,0.62109375 -0.5039062,1.04296875 -0.9492187,1.04296875 -0.058594,0 -0.28125004,0 -0.49218754,-0.12890625 0.24609375,-0.0585937 0.46875004,-0.26953125 0.46875004,-0.5390625 0,-0.2695312 -0.22265629,-0.3515625 -0.37500004,-0.3515625 -0.29296875,0 -0.5390625,0.2578125 -0.5390625,0.57421875 0,0.45703125 0.4921875,0.65625 0.93750004,0.65625 0.65625,0 1.0078125,-0.69140625 1.0429687,-0.75 0.1171875,0.36328125 0.4804688,0.75 1.078125,0.75 1.0195313,0 1.59375,-1.27734375 1.59375,-1.53515625 0,-0.09375 -0.09375,-0.09375 -0.1289062,-0.09375 -0.082031,0 -0.1054688,0.035156 -0.1289063,0.1054688 -0.328125,1.0664062 -0.9960937,1.31249995 -1.3242187,1.31249995 -0.3867188,0 -0.5390625,-0.328125 -0.5390625,-0.65625 0,-0.22265625 0.058594,-0.44531245 0.1640625,-0.87890625 z m 0,0"
         style="fill:#eb0a36;fill-opacity:1;fill-rule:nonzero;stroke:none" />
      <path
         id="path15"
         d="m 9.2087031,-4.1449453 h -0.234375 c -0.023437,0.1523437 -0.082031,0.5625 -0.1757812,0.6328125 -0.058594,0.035156 -0.5976563,0.035156 -0.6914063,0.035156 H 6.8180781 c 0.7382813,-0.6445312 0.984375,-0.84375 1.3945313,-1.171875 0.515625,-0.4101562 0.9960937,-0.84375 0.9960937,-1.5 0,-0.84375 -0.7382812,-1.359375 -1.6289062,-1.359375 -0.8671875,0 -1.453125,0.609375 -1.453125,1.2421875 0,0.3632813 0.3046875,0.3984375 0.375,0.3984375 0.1640625,0 0.375,-0.1171875 0.375,-0.375 0,-0.1289062 -0.058594,-0.3632812 -0.421875,-0.3632812 0.2226562,-0.5039063 0.6914062,-0.65625 1.0195312,-0.65625 0.703125,0 1.0664063,0.5507812 1.0664063,1.1132812 0,0.609375 -0.4335938,1.0898438 -0.65625,1.3359375 l -1.6875,1.6640625 c -0.070312,0.058594 -0.070312,0.070312 -0.070312,0.2695313 h 2.8828125 z m 0,0"
         style="fill:#eb0a36;fill-opacity:1;fill-rule:nonzero;stroke:none" />
    </g>
    <path
       id="path16"
       d="m 6.4222734,-6.9248516 c 0,-0.023437 -0.011719,-0.09375 -0.1054687,-0.09375 -0.046875,0 -0.058594,0.011719 -0.1757813,0.140625 l -0.4804687,0.5742188 c -0.2578125,-0.46875 -0.7734375,-0.7148438 -1.4296875,-0.7148438 -1.265625,0 -2.4609375,1.1367188 -2.4609375,2.34375 0,0.8085938 0.5273437,1.265625 1.0429687,1.4179688 l 1.0664063,0.28125 c 0.3632812,0.082031 0.9140625,0.234375 0.9140625,1.0546875 0,0.890625 -0.8203125,1.82812499 -1.7929688,1.82812499 -0.6445312,0 -1.7460937,-0.2109375 -1.7460937,-1.45312499 0,-0.234375 0.046875,-0.4804688 0.058594,-0.5390625 0.011719,-0.035156 0.023437,-0.046875 0.023437,-0.070312 0,-0.09375 -0.070312,-0.1054688 -0.1171875,-0.1054688 -0.058594,0 -0.070312,0.011719 -0.1054687,0.035156 -0.035156,0.046875 -0.59765626,2.32031249 -0.59765626,2.34374999 0,0.0585938 0.046875,0.10546875 0.1171875,0.10546875 0.046875,0 0.0585938,-0.0117188 0.17578125,-0.15234375 L 1.3011797,-0.50297656 c 0.421875,0.5859375 1.1015625,0.7265625 1.6757812,0.7265625 1.359375,0 2.53125,-1.32421874 2.53125,-2.56640624 0,-0.6796875 -0.3398437,-1.0195313 -0.4921875,-1.1601563 -0.2226562,-0.234375 -0.375,-0.2695312 -1.265625,-0.5039062 -0.2109375,-0.058594 -0.5742187,-0.1523438 -0.65625,-0.1757813 -0.2695312,-0.09375 -0.609375,-0.375 -0.609375,-0.9023437 0,-0.8085938 0.796875,-1.6523438 1.734375,-1.6523438 0.8320313,0 1.4414063,0.421875 1.4414063,1.5351563 0,0.3164062 -0.046875,0.5039062 -0.046875,0.5625 0,0.011719 0,0.09375 0.1289062,0.09375 0.09375,0 0.1054688,-0.023437 0.140625,-0.1992188 z m 0,0"
       style="fill:#0000ff;fill-opacity:0.5;fill-rule:nonzero;stroke:none"
       aria-label="S"
       transform="matrix(1.3333333,0,0,1.3333333,118.644,218.50267)" />
  </g>
</svg>
