<?xml version="1.0" encoding="UTF-8" standalone="no"?>
<!-- Created with Inkscape (http://www.inkscape.org/) -->

<svg
   version="1.1"
   id="svg1"
   width="245.40588"
   height="201.25604"
   viewBox="0 0 245.40588 201.25604"
   sodipodi:docname="7.8-discontinua-izquierda.svg"
   inkscape:version="1.4.2 (f4327f4, 2025-05-13)"
   xmlns:inkscape="http://www.inkscape.org/namespaces/inkscape"
   xmlns:sodipodi="http://sodipodi.sourceforge.net/DTD/sodipodi-0.dtd"
   xmlns="http://www.w3.org/2000/svg"
   xmlns:svg="http://www.w3.org/2000/svg">
  <defs
     id="defs1" />
  <sodipodi:namedview
     id="namedview1"
     pagecolor="#ffffff"
     bordercolor="#000000"
     borderopacity="0.25"
     inkscape:showpageshadow="2"
     inkscape:pageopacity="0.0"
     inkscape:pagecheckerboard="0"
     inkscape:deskcolor="#d1d1d1"
     inkscape:zoom="2.2241536"
     inkscape:cx="125.66578"
     inkscape:cy="113.97594"
     inkscape:window-width="1920"
     inkscape:window-height="1009"
     inkscape:window-x="-8"
     inkscape:window-y="-8"
     inkscape:window-maximized="1"
     inkscape:current-layer="g1">
    <inkscape:page
       x="2.0940574e-06"
       y="1.6154328e-06"
       inkscape:label="5"
       id="page1"
       width="245.40588"
       height="201.25604"
       margin="0"
       bleed="0" />
  </sodipodi:namedview>
  <g
     id="g1"
     inkscape:groupmode="layer"
     inkscape:label="5"
     transform="translate(-116.57458,-67.292968)">
    <path
       id="path2"
       d="M -45.35506,0 H 135.60692"
       style="fill:none;stroke:#000000;stroke-width:0.3985;stroke-linecap:butt;stroke-linejoin:miter;stroke-miterlimit:10;stroke-dasharray:none;stroke-opacity:1"
       transform="matrix(1.3333333,0,0,-1.3333333,177.048,253.43067)" />
    <path
       id="path3"
       d="M -1.19551,1.59401 C -1.09587,0.99626 0,0.09961 0.29886,0 0,-0.09961 -1.09587,-0.99626 -1.19551,-1.59401"
       style="fill:none;stroke:#000000;stroke-width:0.31879;stroke-linecap:round;stroke-linejoin:round;stroke-miterlimit:10;stroke-dasharray:none;stroke-opacity:1"
       transform="matrix(1.3333333,0,0,-1.3333333,357.85723,253.43067)" />
    <path
       id="path4"
       d="m 3.6439766,-3.2915234 c 0.070312,-0.28125 0.3164062,-1.2890625 1.078125,-1.2890625 0.058594,0 0.3164062,0 0.5507812,0.140625 -0.3046875,0.058594 -0.5273437,0.328125 -0.5273437,0.5859375 0,0.1757812 0.1171875,0.3867187 0.4101562,0.3867187 0.2460938,0 0.5976563,-0.1992187 0.5976563,-0.6328125 0,-0.5625 -0.6445313,-0.7265625 -1.0195313,-0.7265625 -0.6328125,0 -1.0195312,0.5859375 -1.1484375,0.8320313 -0.2695312,-0.7148438 -0.8554687,-0.8320313 -1.171875,-0.8320313 -1.1367187,0 -1.75781249,1.4179688 -1.75781249,1.6875 0,0.1054688 0.10546875,0.1054688 0.12890625,0.1054688 0.0820313,0 0.1171875,-0.023437 0.140625,-0.1171875 0.37500004,-1.1601563 1.08984374,-1.4296875 1.46484374,-1.4296875 0.2109375,0 0.5859375,0.09375 0.5859375,0.7265625 0,0.3398437 -0.1875,1.078125 -0.5859375,2.6015625 -0.1757812,0.67968746 -0.5625,1.13671871 -1.0429687,1.13671871 -0.058594,0 -0.3164063,0 -0.53906254,-0.140625 0.26953124,-0.0585938 0.51562504,-0.29296875 0.51562504,-0.59765625 0,-0.29296876 -0.2460938,-0.37499996 -0.41015629,-0.37499996 -0.328125,0 -0.59765625,0.28124996 -0.59765625,0.63281246 0,0.50390625 0.55078125,0.71484375 1.03125004,0.71484375 0.7148437,0 1.1015625,-0.76171875 1.1367187,-0.83203125 0.1289063,0.41015625 0.5273438,0.83203125 1.1835938,0.83203125 1.125,0 1.7460937,-1.40625001 1.7460937,-1.67578121 0,-0.1054688 -0.1054687,-0.1054688 -0.1289062,-0.1054688 -0.1054688,0 -0.1289063,0.035156 -0.140625,0.1171875 -0.3632813,1.16015626 -1.1132813,1.42968751 -1.453125,1.42968751 -0.4335938,0 -0.609375,-0.3515625 -0.609375,-0.7265625 0,-0.23437501 0.070312,-0.48046871 0.1875,-0.96093751 z m 0,0"
       style="fill:#000000;fill-opacity:1;fill-rule:nonzero;stroke:none"
       aria-label="x"
       transform="matrix(1.3333333,0,0,1.3333333,354.30933,264.80667)" />
    <path
       id="path5"
       d="M 0,-11.33876 V 135.60692"
       style="fill:none;stroke:#000000;stroke-width:0.3985;stroke-linecap:butt;stroke-linejoin:miter;stroke-miterlimit:10;stroke-dasharray:none;stroke-opacity:1"
       transform="matrix(1.3333333,0,0,-1.3333333,177.048,253.43067)" />
    <path
       id="path6"
       d="M -1.19551,1.59401 C -1.09587,0.99626 0,0.09961 0.29886,0 0,-0.09961 -1.09587,-0.99626 -1.19551,-1.59401"
       style="fill:none;stroke:#000000;stroke-width:0.31879;stroke-linecap:round;stroke-linejoin:round;stroke-miterlimit:10;stroke-dasharray:none;stroke-opacity:1"
       transform="matrix(0,-1.3333333,-1.3333333,0,177.048,72.62144)" />
    <path
       id="path7"
       d="m 5.2968125,-4.1593047 c 0.046875,-0.1523437 0.046875,-0.1757812 0.046875,-0.2460937 0,-0.1992188 -0.1523437,-0.2929688 -0.3164062,-0.2929688 -0.1054688,0 -0.28125,0.058594 -0.375,0.2226563 -0.023437,0.058594 -0.1171875,0.3984375 -0.1523438,0.5976562 -0.082031,0.28125 -0.1523437,0.5742188 -0.2226562,0.8671875 l -0.4921875,1.96875 c -0.046875,0.16406251 -0.515625,0.92578126 -1.2304688,0.92578126 -0.5625,0 -0.6796875,-0.48046875 -0.6796875,-0.89062496 0,-0.4921875 0.1875,-1.171875 0.5625,-2.1328125 0.1757813,-0.4453125 0.2109375,-0.5742188 0.2109375,-0.7851563 0,-0.4921875 -0.3515625,-0.9023437 -0.890625,-0.9023437 -1.04296875,0 -1.44140625,1.5820312 -1.44140625,1.6875 0,0.1054687 0.10546875,0.1054687 0.12890625,0.1054687 0.10546875,0 0.1171875,-0.023437 0.17578125,-0.1992187 C 0.914,-4.2530547 1.3475938,-4.5811797 1.7225938,-4.5811797 c 0.09375,0 0.2695312,0 0.2695312,0.3515625 0,0.2695313 -0.1054687,0.5507813 -0.1757812,0.7617188 -0.4453125,1.1601562 -0.6328125,1.78125 -0.6328125,2.2851562 0,0.97265626 0.6796875,1.30078126 1.3242187,1.30078126 0.421875,0 0.796875,-0.1875 1.1015625,-0.4921875 -0.140625,0.57421875 -0.2695312,1.1015625 -0.703125,1.68750004 -0.2929687,0.3632812 -0.703125,0.6796875 -1.2070312,0.6796875 -0.1523438,0 -0.6445313,-0.023437 -0.8320313,-0.4570313 0.1757813,0 0.3164063,0 0.4804688,-0.1289062 0.1054687,-0.09375 0.2109375,-0.234375 0.2109375,-0.44531254 0,-0.33984375 -0.2929688,-0.38671875 -0.3984375,-0.38671875 -0.25781255,0 -0.60937505,0.17578125 -0.60937505,0.71484379 0,0.5390625 0.48046875,0.9492187 1.14843755,0.9492187 1.125,0 2.25,-0.9960937 2.5546875,-2.22656249 z m 0,0"
       style="fill:#000000;fill-opacity:1;fill-rule:nonzero;stroke:none"
       aria-label="y"
       transform="matrix(1.3333333,0,0,1.3333333,164.28133,73.729333)" />
    <path
       id="path8"
       d="m 22.67752,0 v 75.59268 c 0,0 2.73061,-21.47883 3.77934,-26.99878 1.04876,-5.51994 2.73061,-9.97613 3.77936,-12.78517 1.04875,-2.80905 2.73062,-5.74708 3.77938,-7.46045 1.04875,-1.71338 2.73059,-3.73157 3.77935,-4.8884 1.04875,-1.15683 2.73059,-2.61448 3.77935,-3.44923 1.04878,-0.83476 2.73062,-1.93602 3.77937,-2.56723 1.04875,-0.63118 2.7306,-1.48807 3.77936,-1.98206 1.04873,-0.49397 2.73059,-1.18086 3.77935,-1.57824 1.04874,-0.39739 2.73059,-0.95929 3.77936,-1.28586 1.04876,-0.32656 2.73059,-0.79477 3.77934,-1.06786 1.04879,-0.27308 2.73062,-0.66882 3.77938,-0.90037 1.04875,-0.23154 2.7306,-0.56938 3.77936,-0.76853 C 69.07857,9.66135 70.7604,9.367 71.80919,9.1937 72.85794,9.02037 74.5398,8.76317 75.58853,8.61131 76.63728,8.45947 78.31914,8.23329 79.36787,8.0992 80.41664,7.9651 82.0985,7.7643 83.14725,7.64485 84.196,7.5254 85.87784,7.34543 86.9266,7.23828 87.97536,7.13112 89.6572,6.9691 90.70596,6.8725 c 1.04877,-0.09658 2.73061,-0.24298 3.77936,-0.33045 1.04875,-0.08746 2.73061,-0.2205 3.77936,-0.3 1.04875,-0.0795 2.73061,-0.2002 3.77937,-0.27303 1.04875,-0.07282 2.73061,-0.18498 3.77935,-0.2519 1.04875,-0.06693 2.7306,-0.16896 3.77934,-0.23046 1.04876,-0.0615 3.77937,-0.21281 3.77937,-0.21281 L 113.38766,0 Z"
       style="fill:#9999ff;fill-opacity:0.2;fill-rule:nonzero;stroke:none"
       transform="matrix(1.3333333,0,0,-1.3333333,177.048,253.43067)" />
    <path
       id="path9"
       d="m 20.40962,113.38766 c 0,0 0.67853,-14.84342 0.93913,-19.45011 0.26059,-4.60668 0.67853,-10.42235 0.93914,-13.75164 0.26059,-3.32928 0.67853,-7.72341 0.93911,-10.24357 0.26061,-2.52018 0.67855,-5.94557 0.93914,-7.91999 0.2606,-1.97439 0.67854,-4.72087 0.93913,-6.31022 0.26061,-1.58936 0.67854,-3.83774 0.93913,-5.14481 0.26061,-1.30707 0.67853,-3.18207 0.93912,-4.27557 0.26061,-1.09349 0.67854,-2.67702 0.93915,-3.60565 0.26059,-0.92862 0.67853,-2.28853 0.93913,-3.0873 0.26059,-0.79874 0.67853,-1.97539 0.93913,-2.66963 0.26059,-0.69423 0.67852,-1.72496 0.93912,-2.33399 0.26059,-0.609 0.67853,-1.51693 0.93913,-2.05542 0.26059,-0.53849 0.67853,-1.34603 0.93914,-1.82566 0.26058,-0.47963 0.67852,-1.20127 0.93913,-1.6312 0.26059,-0.42993 0.67853,-1.07979 0.93912,-1.46751 0.2606,-0.38774 0.67854,-0.97585 0.93913,-1.32704 0.2606,-0.35119 0.67854,-0.88477 0.93913,-1.2042 0.26061,-0.31941 0.67855,-0.80585 0.93913,-1.09795 0.26061,-0.29208 0.67854,-0.73886 0.93912,-1.00729 0.26061,-0.26845 0.67855,-0.68075 0.93915,-0.92737 0.26059,-0.24664 0.67853,-0.62244 0.93913,-0.8502 0.26059,-0.22775 0.67853,-0.58022 0.93914,-0.79137 0.26059,-0.21115 0.67851,-0.53412 0.93911,-0.73047 0.26059,-0.19636 0.67853,-0.50106 0.93914,-0.68481 0.26059,-0.18373 0.67852,-0.46831 0.93913,-0.63947 0.26059,-0.17114 0.67852,-0.43431 0.93913,-0.59411 0.26059,-0.15984 0.67853,-0.40775 0.93912,-0.55781 0.2606,-0.15008 0.67854,-0.38294 0.93913,-0.52389 0.26061,-0.14096 0.67854,-0.35899 0.93914,-0.49206 0.2606,-0.13309 0.67854,-0.34189 0.93913,-0.46715 0.2606,-0.12524 0.67852,-0.31764 0.93913,-0.43565 0.26059,-0.118 0.67853,-0.30227 0.93913,-0.41489 0.26059,-0.11264 0.67853,-0.29057 0.93913,-0.39691 0.26059,-0.10634 0.67853,-0.26888 0.93914,-0.36957 0.26059,-0.10066 0.67851,-0.26008 0.93911,-0.35605 0.26059,-0.09598 0.67853,-0.24472 0.93913,-0.33565 0.2606,-0.09094 0.67854,-0.23289 0.93914,-0.31973 0.26059,-0.08685 0.67854,-0.22319 0.93913,-0.30625 0.26059,-0.08305 0.67853,-0.21314 0.93912,-0.2924 0.26061,-0.07925 0.67854,-0.20338 0.93913,-0.2789 0.26061,-0.0755 0.67855,-0.193 0.93914,-0.26541 0.2606,-0.07239 0.67854,-0.18687 0.93913,-0.25639 0.26061,-0.06952 0.67853,-0.1783 0.93913,-0.24465 0.26059,-0.06634 0.67853,-0.17002 0.93913,-0.23358 0.26059,-0.06355 0.67853,-0.16322 0.93914,-0.22457 0.26059,-0.06136 0.67852,-0.15851 0.93913,-0.21766 0.26059,-0.05914 0.67851,-0.15201 0.93912,-0.20866 0.26059,-0.05664 0.67852,-0.14542 0.93913,-0.19966 0.26059,-0.05423 0.67854,-0.13912 0.93913,-0.19135 0.26059,-0.05223 0.67855,-0.13466 0.93913,-0.18512 C 67.62672,9.93669 68.04466,9.85727 68.30525,9.8086 68.56586,9.7599 68.9838,9.68347 69.24438,9.63628 69.50499,9.5891 69.92293,9.51399 70.18352,9.46844 70.44412,9.4229 70.86205,9.35167 71.12265,9.30789 71.38324,9.26411 71.80118,9.19539 72.06178,9.15286 72.32237,9.11034 72.74031,9.04245 73.00092,9.00131 73.2615,8.96016 73.67944,8.89597 73.94005,8.85631 74.20064,8.81667 74.61856,8.75385 74.87917,8.71548 75.13976,8.67712 75.5577,8.61723 75.8183,8.57983 76.07889,8.54243 76.49683,8.4823 76.75743,8.44592 77.01802,8.40953 77.43597,8.3525 77.69656,8.31754 77.95715,8.2826 78.37509,8.22789 78.63568,8.19402 78.89629,8.16011 79.31422,8.10631 79.57481,8.07324 79.83542,8.04016 80.25336,7.98775 80.51395,7.9556 80.77455,7.92345 81.19247,7.87245 81.45308,7.8414 81.71368,7.81035 82.13159,7.76192 82.39221,7.73172 82.6528,7.7015 83.07072,7.6533 83.33134,7.62373 83.59193,7.5942 84.00986,7.54716 84.27048,7.51855 84.53107,7.48996 84.94899,7.44536 85.20961,7.41753 85.4702,7.3897 85.8881,7.34508 86.14873,7.31786 86.40932,7.29063 86.82724,7.24771 87.08786,7.22131 87.34845,7.19492 87.76639,7.15327 88.027,7.12753 88.28758,7.1018 88.70552,7.06088 88.96613,7.03583 89.22672,7.01077 89.64464,6.97139 89.90524,6.94691 90.16585,6.92242 90.58377,6.88322 90.84438,6.85938 91.10498,6.8355 91.5229,6.79817 91.78351,6.77493 92.04411,6.75171 92.46204,6.71458 92.72264,6.6919 92.98325,6.66917 93.40115,6.6333 93.66177,6.61127 93.92236,6.58923 94.34029,6.5546 94.6009,6.53305 94.8615,6.5115 95.27942,6.477 95.54004,6.45589 95.80063,6.43478 96.21855,6.4016 96.47917,6.38081 c 0.26059,-0.02079 0.6785,-0.0545 0.93912,-0.07475 0.26059,-0.02025 0.67853,-0.0517 0.93913,-0.07127 0.26059,-0.01959 0.67853,-0.05065 0.93913,-0.0699 0.26059,-0.01926 0.67853,-0.05007 0.93914,-0.06887 0.2606,-0.01882 0.67851,-0.04846 0.93911,-0.06678 0.26061,-0.01834 0.67853,-0.04741 0.93914,-0.0654 0.2606,-0.01801 0.67853,-0.04666 0.93913,-0.06436 0.2606,-0.01772 0.67853,-0.04595 0.93913,-0.06334 0.2606,-0.01738 0.67852,-0.045 0.93914,-0.06194 0.26059,-0.01694 0.67851,-0.04369 0.93913,-0.0602 0.26059,-0.0165 0.67851,-0.04274 0.93913,-0.05883 0.26059,-0.01607 0.67851,-0.0412 0.93913,-0.0571 0.26059,-0.01587 0.67852,-0.04178 0.93912,-0.05742 0.26059,-0.01567 0.67853,-0.04013 0.93913,-0.05539 0.26059,-0.01526 0.67853,-0.03973 0.93914,-0.05467 0.2606,-0.01491 0.67852,-0.03829 0.93913,-0.05293 0.2606,-0.01464 0.67851,-0.0382 0.93912,-0.0526 0.2606,-0.01439 0.93913,-0.05121 0.93913,-0.05121"
       style="fill:none;stroke:#eb0a36;stroke-width:0.79701;stroke-linecap:butt;stroke-linejoin:miter;stroke-miterlimit:10;stroke-dasharray:none;stroke-opacity:1"
       transform="matrix(1.3333333,0,0,-1.3333333,177.048,253.43067)" />
    <g
       id="g9"
       aria-label="y=f(x)"
       transform="matrix(1.3333333,0,0,1.3333333,257.596,135.80667)">
      <path
         id="path10"
         d="m 4.8410859,-3.7954297 c 0.046875,-0.140625 0.046875,-0.1523437 0.046875,-0.2226562 0,-0.1875 -0.140625,-0.2695313 -0.2929687,-0.2695313 -0.1054688,0 -0.2578125,0.058594 -0.3515625,0.1992188 -0.023437,0.058594 -0.09375,0.3632812 -0.140625,0.5390625 -0.070312,0.2578125 -0.140625,0.5273437 -0.1992188,0.796875 l -0.4453125,1.79296871 c -0.035156,0.15234375 -0.46875,0.85546875 -1.125,0.85546875 -0.5039062,0 -0.6210937,-0.4453125 -0.6210937,-0.80859375 0,-0.45703121 0.1757812,-1.07812501 0.515625,-1.95703121 0.1523437,-0.4101563 0.1992187,-0.515625 0.1992187,-0.7148438 0,-0.4453125 -0.328125,-0.8203125 -0.8203125,-0.8203125 -0.94921871,0 -1.31249996,1.453125 -1.31249996,1.5351563 0,0.1054687 0.09375,0.1054687 0.1171875,0.1054687 0.09375,0 0.10546875,-0.023437 0.15234375,-0.1875 0.26953125,-0.9375 0.66796871,-1.2304687 1.00781251,-1.2304687 0.082031,0 0.2578125,0 0.2578125,0.3164062 0,0.2460938 -0.1054688,0.515625 -0.1757813,0.703125 -0.3984375,1.0546875 -0.5742187,1.6171875 -0.5742187,2.0859375 0,0.89062501 0.6210937,1.18359376 1.21875,1.18359376 0.3867187,0 0.7265625,-0.1640625 0.9960937,-0.4453125 -0.1289062,0.515625 -0.2460937,1.0078125 -0.6445312,1.53515624 -0.2578125,0.3398438 -0.6328125,0.6328125 -1.0898438,0.6328125 -0.140625,0 -0.59765621,-0.035156 -0.76171871,-0.421875 0.1640625,0 0.29296871,0 0.43359371,-0.1171875 0.09375,-0.09375 0.1992188,-0.2226562 0.1992188,-0.41015624 0,-0.31640625 -0.2695313,-0.3515625 -0.375,-0.3515625 -0.22265626,0 -0.55078126,0.1640625 -0.55078126,0.64453124 0,0.5039063 0.43359375,0.8671875 1.05468746,0.8671875 1.0195313,0 2.0507813,-0.9023437 2.3320313,-2.02734374 z m 0,0"
         style="fill:#eb0a36;fill-opacity:1;fill-rule:nonzero;stroke:none" />
      <path
         id="path11"
         d="m 14.857687,-3.2563672 c 0.152344,0 0.339844,0 0.339844,-0.1992187 0,-0.1992188 -0.1875,-0.1992188 -0.328125,-0.1992188 H 8.9045625 c -0.140625,0 -0.328125,0 -0.328125,0.1992188 0,0.1992187 0.1875,0.1992187 0.3398437,0.1992187 z m 0.01172,1.9335938 c 0.140625,0 0.328125,0 0.328125,-0.1992188 0,-0.1992187 -0.1875,-0.1992187 -0.339844,-0.1992187 H 8.9162812 c -0.1523437,0 -0.3398437,0 -0.3398437,0.1992187 0,0.1992188 0.1875,0.1992188 0.328125,0.1992188 z m 0,0"
         style="fill:#eb0a36;fill-opacity:1;fill-rule:nonzero;stroke:none" />
      <path
         id="path12"
         d="m 22.178977,-3.9829297 h 0.855468 c 0.199219,0 0.304688,0 0.304688,-0.1992187 0,-0.1054688 -0.105469,-0.1054688 -0.269531,-0.1054688 H 22.23757 l 0.210938,-1.1367187 c 0.03516,-0.2109375 0.175781,-0.9140625 0.234375,-1.0429688 0.09375,-0.1875 0.257812,-0.3398437 0.46875,-0.3398437 0.04687,0 0.304687,0 0.492187,0.1875 -0.433593,0.035156 -0.539062,0.3867187 -0.539062,0.5390625 0,0.2226562 0.175781,0.3398437 0.363281,0.3398437 0.269531,0 0.550781,-0.2109375 0.550781,-0.5976562 0,-0.4570313 -0.457031,-0.6796875 -0.867187,-0.6796875 -0.339844,0 -0.960938,0.1757812 -1.265625,1.1601562 -0.05859,0.2109375 -0.08203,0.3164063 -0.328125,1.5703125 h -0.679688 c -0.199218,0 -0.304687,0 -0.304687,0.1875 0,0.1171875 0.09375,0.1171875 0.28125,0.1171875 h 0.65625 l -0.75,3.93750001 c -0.175781,0.9609375 -0.339844,1.87499999 -0.867188,1.87499999 -0.03516,0 -0.28125,0 -0.46875,-0.1875 0.457032,-0.023437 0.539063,-0.3867187 0.539063,-0.5390625 0,-0.22265624 -0.175781,-0.33984374 -0.363281,-0.33984374 -0.257813,0 -0.550782,0.2109375 -0.550782,0.59765624 0,0.4453125 0.433594,0.6796875 0.84375,0.6796875 0.550782,0 0.949219,-0.5859375 1.125,-0.9609375 0.328125,-0.63281249 0.550782,-1.83984374 0.5625,-1.91015624 z m 0,0"
         style="fill:#eb0a36;fill-opacity:1;fill-rule:nonzero;stroke:none" />
      <path
         id="path13"
         d="m 27.76882,2.3920703 c 0,-0.035156 0,-0.046875 -0.164062,-0.2226562 -1.242188,-1.25390629 -1.570313,-3.12890629 -1.570313,-4.6640625 0,-1.7226563 0.386719,-3.4570313 1.605469,-4.7109375 0.128906,-0.1171875 0.128906,-0.1289063 0.128906,-0.1640625 0,-0.070312 -0.03516,-0.1054688 -0.09375,-0.1054688 -0.105468,0 -0.996093,0.6796875 -1.582031,1.9453125 -0.515625,1.1015625 -0.632812,2.203125 -0.632812,3.0351563 0,0.7851562 0.117187,1.99218746 0.65625,3.11718746 0.597656,1.21875004 1.453125,1.87500004 1.558593,1.87500004 0.05859,0 0.09375,-0.035156 0.09375,-0.1054688 z m 0,0"
         style="fill:#eb0a36;fill-opacity:1;fill-rule:nonzero;stroke:none" />
      <path
         id="path14"
         d="m 31.677023,-3.0102734 c 0.05859,-0.2578125 0.292969,-1.171875 0.984375,-1.171875 0.04687,0 0.292969,0 0.503907,0.1289062 -0.28125,0.046875 -0.480469,0.3046875 -0.480469,0.5390625 0,0.1640625 0.105469,0.3515625 0.375,0.3515625 0.222656,0 0.539062,-0.1875 0.539062,-0.5859375 0,-0.515625 -0.585937,-0.65625 -0.925781,-0.65625 -0.574219,0 -0.925781,0.5273438 -1.042969,0.7617188 -0.257812,-0.65625 -0.785156,-0.7617188 -1.078125,-0.7617188 -1.042968,0 -1.605468,1.2890625 -1.605468,1.5351563 0,0.1054687 0.105468,0.1054687 0.117187,0.1054687 0.08203,0 0.117188,-0.023437 0.128906,-0.1171875 0.339844,-1.0546875 0.996094,-1.3007812 1.335938,-1.3007812 0.1875,0 0.539062,0.09375 0.539062,0.6679687 0,0.3046875 -0.164062,0.9726563 -0.539062,2.3671875 -0.152344,0.62109376 -0.503906,1.04296876 -0.949219,1.04296876 -0.05859,0 -0.28125,0 -0.492187,-0.12890625 0.246093,-0.0585938 0.46875,-0.26953125 0.46875,-0.5390625 0,-0.26953121 -0.222657,-0.35156251 -0.375,-0.35156251 -0.292969,0 -0.539063,0.25781251 -0.539063,0.57421876 0,0.45703125 0.492188,0.65625 0.9375,0.65625 0.65625,0 1.007813,-0.69140625 1.042969,-0.75 0.117187,0.36328125 0.480469,0.75 1.078125,0.75 1.019531,0 1.59375,-1.27734376 1.59375,-1.53515626 0,-0.09375 -0.09375,-0.09375 -0.128906,-0.09375 -0.08203,0 -0.105469,0.035156 -0.128907,0.1054688 -0.328125,1.06640621 -0.996093,1.31249996 -1.324218,1.31249996 -0.386719,0 -0.539063,-0.328125 -0.539063,-0.65625 0,-0.22265625 0.05859,-0.44531246 0.164063,-0.87890626 z m 0,0"
         style="fill:#eb0a36;fill-opacity:1;fill-rule:nonzero;stroke:none" />
      <path
         id="path15"
         d="m 36.927023,-2.4946484 c 0,-0.7734375 -0.117187,-1.9804688 -0.65625,-3.1054688 -0.597656,-1.21875 -1.464843,-1.875 -1.558593,-1.875 -0.05859,0 -0.105469,0.046875 -0.105469,0.1054688 0,0.035156 0,0.046875 0.199219,0.234375 0.972656,0.984375 1.535156,2.5664062 1.535156,4.640625 0,1.71093746 -0.363281,3.45703121 -1.59375,4.7226562 -0.140625,0.1171875 -0.140625,0.1289063 -0.140625,0.1640625 0,0.058594 0.04687,0.1054688 0.105469,0.1054688 0.09375,0 0.996093,-0.6796875 1.582031,-1.94531254 0.503906,-1.1015625 0.632812,-2.20312496 0.632812,-3.04687496 z m 0,0"
         style="fill:#eb0a36;fill-opacity:1;fill-rule:nonzero;stroke:none" />
    </g>
    <path
       id="path16"
       d="M 18.14206,0 V 113.38766"
       style="fill:none;stroke:#ec008c;stroke-width:0.3985;stroke-linecap:butt;stroke-linejoin:miter;stroke-miterlimit:10;stroke-dasharray:2.98883, 2.98883;stroke-dashoffset:0;stroke-opacity:1"
       transform="matrix(1.3333333,0,0,-1.3333333,177.048,253.43067)" />
    <path
       id="path17"
       d="M 113.38766,0 V 5.21571"
       style="fill:none;stroke:#ec008c;stroke-width:0.3985;stroke-linecap:butt;stroke-linejoin:miter;stroke-miterlimit:10;stroke-dasharray:2.98883, 2.98883;stroke-dashoffset:0;stroke-opacity:1"
       transform="matrix(1.3333333,0,0,-1.3333333,177.048,253.43067)" />
    <path
       id="path18"
       d="M 22.67752,0 V 75.51622"
       style="fill:none;stroke:#000080;stroke-width:0.3985;stroke-linecap:butt;stroke-linejoin:miter;stroke-miterlimit:10;stroke-dasharray:2.98883, 2.98883;stroke-dashoffset:0;stroke-opacity:1"
       transform="matrix(1.3333333,0,0,-1.3333333,177.048,253.43067)" />
    <path
       id="path19"
       d="m 3.7151875,-3.7605 c -0.1757812,-0.375 -0.46875,-0.6445313 -0.9140625,-0.6445313 -1.171875,0 -2.40234375,1.4648438 -2.40234375,2.9179688 0,0.9375 0.55078125,1.59375 1.32421875,1.59375 0.1992188,0 0.703125,-0.03515625 1.3007813,-0.73828125 0.070312,0.41015625 0.421875,0.73828125 0.9023437,0.73828125 0.3515625,0 0.5742188,-0.22265625 0.7382813,-0.5390625 0.1640625,-0.36328125 0.2929687,-0.9726563 0.2929687,-0.9960938 0,-0.09375 -0.082031,-0.09375 -0.1171875,-0.09375 -0.09375,0 -0.1054687,0.035156 -0.140625,0.1757813 C 4.5355,-0.70190625 4.348,-0.10425 3.9495625,-0.10425 c -0.2695312,0 -0.3046875,-0.2578125 -0.3046875,-0.45703125 0,-0.22265625 0.023437,-0.3046875 0.1289063,-0.73828125 0.1171875,-0.421875 0.1289062,-0.5273438 0.2226562,-0.9023438 L 4.348,-3.5964375 c 0.070312,-0.28125 0.070312,-0.2929688 0.070312,-0.3398438 0,-0.1640625 -0.1171875,-0.2695312 -0.28125,-0.2695312 -0.2460937,0 -0.3867187,0.2226562 -0.4218745,0.4453125 z m -0.6445312,2.578125 c -0.046875,0.1757812 -0.046875,0.19921875 -0.1992188,0.36328125 -0.4453125,0.55078125 -0.84375,0.71484375 -1.125,0.71484375 -0.5039062,0 -0.6445312,-0.55078125 -0.6445312,-0.9375 0,-0.5039063 0.328125,-1.7226563 0.5507812,-2.1796875 0.3046875,-0.5976563 0.7617188,-0.9609375 1.1601563,-0.9609375 0.6445312,0 0.7851562,0.8203125 0.7851562,0.8789062 0,0.058594 -0.023437,0.1171875 -0.035156,0.1640625 z m 0,0"
       style="fill:#ec008c;fill-opacity:1;fill-rule:nonzero;stroke:none"
       aria-label="a"
       transform="matrix(1.3333333,0,0,1.3333333,194.70267,264.264)" />
    <path
       id="path20"
       d="m 2.0513984,-3.9842422 h 0.9375 c 0.1992188,0 0.3046875,0 0.3046875,-0.1992187 0,-0.1054688 -0.1054687,-0.1054688 -0.28125,-0.1054688 H 2.1334297 c 0.3632812,-1.4179687 0.4101562,-1.6171875 0.4101562,-1.6757812 0,-0.1757813 -0.1171875,-0.2695313 -0.2929687,-0.2695313 -0.023437,0 -0.3046875,0.011719 -0.3984375,0.3515625 l -0.3867188,1.59375 H 0.52796094 c -0.19921875,0 -0.29296875,0 -0.29296875,0.1875 0,0.1171875 0.0703125,0.1171875 0.26953125,0.1171875 H 1.3834297 c -0.71484376,2.8242188 -0.75000001,3.00000001 -0.75000001,3.17578126 0,0.5390625 0.37500001,0.9140625 0.91406251,0.9140625 1.0078125,0 1.5820312,-1.45312496 1.5820312,-1.53515626 0,-0.09375 -0.082031,-0.09375 -0.1171875,-0.09375 -0.09375,0 -0.1054687,0.023437 -0.1523437,0.140625 -0.4335938,1.03125001 -0.9609375,1.27734376 -1.3007813,1.27734376 -0.1992187,0 -0.3046875,-0.12890625 -0.3046875,-0.45703125 0,-0.24609375 0.023437,-0.31640625 0.058594,-0.48046871 z m 0,0"
       style="fill:#000080;fill-opacity:1;fill-rule:nonzero;stroke:none"
       aria-label="t"
       transform="matrix(1.3333333,0,0,1.3333333,207.90933,266.71467)" />
    <path
       id="path21"
       d="m 2.3790859,-6.8080234 c 0,0 0,-0.1054688 -0.1289062,-0.1054688 -0.2226563,0 -0.9492188,0.082031 -1.21875,0.1054688 -0.0703125,0 -0.18750001,0.011719 -0.18750001,0.1992187 0,0.1171875 0.09375,0.1171875 0.24609371,0.1171875 0.46875,0 0.4921875,0.070312 0.4921875,0.1640625 0,0.070312 -0.082031,0.4101563 -0.140625,0.6210938 l -0.80859371,3.2460937 c -0.12890625,0.5039063 -0.1640625,0.65625 -0.1640625,1.0078125 0,0.94921876 0.52734375,1.55859376 1.26562501,1.55859376 1.171875,0 2.4023437,-1.47656246 2.4023437,-2.91796876 0,-0.9023437 -0.5273437,-1.59375 -1.3242187,-1.59375 -0.4570313,0 -0.8671875,0.2929688 -1.171875,0.5976563 z m -0.9375,3.7734375 c 0.058594,-0.2226563 0.058594,-0.2460938 0.1523438,-0.3515625 0.4921875,-0.6445313 0.9375,-0.796875 1.1953125,-0.796875 0.3632812,0 0.6328125,0.2929687 0.6328125,0.9375 0,0.5859375 -0.328125,1.734375 -0.515625,2.109375 -0.328125,0.66796871 -0.7851563,1.03124996 -1.171875,1.03124996 -0.3398438,0 -0.6679688,-0.26953125 -0.6679688,-1.00781246 0,-0.1875 0,-0.3867188 0.1640625,-1.0078125 z m 0,0"
       style="fill:#ec008c;fill-opacity:1;fill-rule:nonzero;stroke:none"
       aria-label="b"
       transform="matrix(1.3333333,0,0,1.3333333,325.37867,264.74533)" />
  </g>
</svg>
