<?xml version="1.0" encoding="UTF-8" standalone="no"?>
<!-- Created with Inkscape (http://www.inkscape.org/) -->

<svg
   version="1.1"
   id="svg1"
   width="233.02344"
   height="186.13339"
   viewBox="0 0 233.02344 186.13339"
   sodipodi:docname="4.1-ejemplo-seno.svg"
   inkscape:version="1.4.2 (f4327f4, 2025-05-13)"
   xmlns:inkscape="http://www.inkscape.org/namespaces/inkscape"
   xmlns:sodipodi="http://sodipodi.sourceforge.net/DTD/sodipodi-0.dtd"
   xmlns="http://www.w3.org/2000/svg"
   xmlns:svg="http://www.w3.org/2000/svg">
  <defs
     id="defs1" />
  <sodipodi:namedview
     id="namedview1"
     pagecolor="#ffffff"
     bordercolor="#000000"
     borderopacity="0.25"
     inkscape:showpageshadow="2"
     inkscape:pageopacity="0.0"
     inkscape:pagecheckerboard="0"
     inkscape:deskcolor="#d1d1d1"
     inkscape:zoom="2.2241536"
     inkscape:cx="116.6736"
     inkscape:cy="106.78219"
     inkscape:window-width="1920"
     inkscape:window-height="1009"
     inkscape:window-x="-8"
     inkscape:window-y="-8"
     inkscape:window-maximized="1"
     inkscape:current-layer="g1">
    <inkscape:page
       x="0"
       y="0"
       inkscape:label="39"
       id="page1"
       width="233.02344"
       height="186.13339"
       margin="0"
       bleed="0" />
  </sodipodi:namedview>
  <g
     id="g1"
     inkscape:groupmode="layer"
     inkscape:label="39"
     transform="translate(-125.43359,-74.441405)">
    <path
       id="path2"
       d="M -22.6771,0 H 78.91156"
       style="fill:none;stroke:#000000;stroke-width:0.3985;stroke-linecap:butt;stroke-linejoin:miter;stroke-miterlimit:10;stroke-dasharray:none;stroke-opacity:1"
       transform="matrix(1.3333333,0,0,-1.3333333,163.13867,230.33867)" />
    <path
       id="path3"
       d="M -1.19551,1.59401 C -1.09587,0.99626 0,0.09961 0.29886,0 0,-0.09961 -1.09587,-0.99626 -1.19551,-1.59401"
       style="fill:none;stroke:#000000;stroke-width:0.31879;stroke-linecap:round;stroke-linejoin:round;stroke-miterlimit:10;stroke-dasharray:none;stroke-opacity:1"
       transform="matrix(1.3333333,0,0,-1.3333333,268.35408,230.33867)" />
    <path
       id="path4"
       d="m 3.6459766,-3.2938359 c 0.070312,-0.28125 0.3164062,-1.2890625 1.078125,-1.2890625 0.058594,0 0.3164062,0 0.5507812,0.140625 -0.3046875,0.058594 -0.5273437,0.328125 -0.5273437,0.5859375 0,0.1757812 0.1171875,0.3867187 0.4101562,0.3867187 0.2460938,0 0.5976563,-0.1992187 0.5976563,-0.6328125 0,-0.5625 -0.6445313,-0.7265625 -1.0195313,-0.7265625 -0.6328125,0 -1.0195312,0.5859375 -1.1484375,0.8320313 -0.2695312,-0.7148438 -0.8554687,-0.8320313 -1.171875,-0.8320313 -1.1367187,0 -1.75781249,1.4179688 -1.75781249,1.6875 0,0.1054688 0.10546875,0.1054688 0.12890625,0.1054688 0.0820313,0 0.1171875,-0.023437 0.140625,-0.1171875 0.37500004,-1.1601563 1.08984374,-1.4296875 1.46484374,-1.4296875 0.2109375,0 0.5859375,0.09375 0.5859375,0.7265625 0,0.3398437 -0.1875,1.078125 -0.5859375,2.6015625 -0.1757812,0.67968746 -0.5625,1.13671871 -1.0429687,1.13671871 -0.058594,0 -0.3164063,0 -0.53906254,-0.140625 0.26953124,-0.0585938 0.51562504,-0.29296875 0.51562504,-0.59765625 0,-0.29296876 -0.2460938,-0.37499996 -0.41015629,-0.37499996 -0.328125,0 -0.59765625,0.28124996 -0.59765625,0.63281246 0,0.50390625 0.55078125,0.71484375 1.03125004,0.71484375 0.7148437,0 1.1015625,-0.76171875 1.1367187,-0.83203125 0.1289063,0.41015625 0.5273438,0.83203125 1.1835938,0.83203125 1.125,0 1.7460937,-1.40625001 1.7460937,-1.67578121 0,-0.1054688 -0.1054687,-0.1054688 -0.1289062,-0.1054688 -0.1054688,0 -0.1289063,0.035156 -0.140625,0.1171875 -0.3632813,1.16015626 -1.1132813,1.42968751 -1.453125,1.42968751 -0.4335938,0 -0.609375,-0.3515625 -0.609375,-0.7265625 0,-0.23437501 0.070312,-0.48046871 0.1875,-0.96093751 z m 0,0"
       style="fill:#000000;fill-opacity:1;fill-rule:nonzero;stroke:none"
       aria-label="x"
       transform="matrix(1.3333333,0,0,1.3333333,264.80667,241.716)" />
    <path
       id="path5"
       d="M 0,-22.6771 V 112.92722"
       style="fill:none;stroke:#000000;stroke-width:0.3985;stroke-linecap:butt;stroke-linejoin:miter;stroke-miterlimit:10;stroke-dasharray:none;stroke-opacity:1"
       transform="matrix(1.3333333,0,0,-1.3333333,163.13867,230.33867)" />
    <path
       id="path6"
       d="M -1.19551,1.59401 C -1.09587,0.99626 0,0.09961 0.29886,0 0,-0.09961 -1.09587,-0.99626 -1.19551,-1.59401"
       style="fill:none;stroke:#000000;stroke-width:0.31879;stroke-linecap:round;stroke-linejoin:round;stroke-miterlimit:10;stroke-dasharray:none;stroke-opacity:1"
       transform="matrix(0,-1.3333333,-1.3333333,0,163.13867,79.76904)" />
    <path
       id="path7"
       d="m 5.2961953,-4.1589766 c 0.046875,-0.1523437 0.046875,-0.1757812 0.046875,-0.2460937 0,-0.1992188 -0.1523437,-0.2929688 -0.3164062,-0.2929688 -0.1054688,0 -0.28125,0.058594 -0.375,0.2226563 -0.023437,0.058594 -0.1171875,0.3984375 -0.1523438,0.5976562 -0.082031,0.28125 -0.1523437,0.5742188 -0.2226562,0.8671875 l -0.4921875,1.96875 c -0.046875,0.16406254 -0.515625,0.92578129 -1.2304688,0.92578129 -0.5625,0 -0.6796875,-0.48046875 -0.6796875,-0.89062499 0,-0.4921875 0.1875,-1.171875 0.5625,-2.1328125 0.1757813,-0.4453125 0.2109375,-0.5742188 0.2109375,-0.7851563 0,-0.4921875 -0.3515625,-0.9023437 -0.890625,-0.9023437 -1.04296874,0 -1.44140624,1.5820312 -1.44140624,1.6875 0,0.1054687 0.10546875,0.1054687 0.12890625,0.1054687 0.10546875,0 0.1171875,-0.023437 0.17578125,-0.1992187 0.29296875,-1.0195313 0.72656254,-1.3476563 1.10156254,-1.3476563 0.09375,0 0.2695312,0 0.2695312,0.3515625 0,0.2695313 -0.1054687,0.5507813 -0.1757812,0.7617188 -0.4453125,1.1601562 -0.6328125,1.78125 -0.6328125,2.2851562 0,0.97265629 0.6796875,1.30078129 1.3242187,1.30078129 0.421875,0 0.796875,-0.1875 1.1015625,-0.4921875 -0.140625,0.57421875 -0.2695312,1.1015625 -0.703125,1.68750001 -0.2929687,0.3632812 -0.703125,0.6796875 -1.2070312,0.6796875 -0.1523438,0 -0.6445313,-0.023437 -0.83203129,-0.4570313 0.17578129,0 0.31640629,0 0.48046879,-0.1289062 0.1054687,-0.09375 0.2109375,-0.234375 0.2109375,-0.44531251 0,-0.33984375 -0.2929688,-0.38671875 -0.3984375,-0.38671875 -0.25781254,0 -0.60937504,0.17578125 -0.60937504,0.71484376 0,0.5390625 0.48046874,0.9492187 1.14843754,0.9492187 1.125,0 2.25,-0.9960937 2.5546875,-2.22656246 z m 0,0"
       style="fill:#000000;fill-opacity:1;fill-rule:nonzero;stroke:none"
       aria-label="y"
       transform="matrix(1.3333333,0,0,1.3333333,150.372,80.877333)" />
    <path
       id="path8"
       d="M 0,0 C 0,0 0.51962,-0.51968 0.7192,-0.71817 0.91876,-0.91663 1.23883,-1.23438 1.4384,-1.43045 1.63799,-1.62653 1.95805,-1.93924 2.15762,-2.13133 2.3572,-2.32341 2.67726,-2.62839 2.87683,-2.8149 3.07642,-3.0014 3.39648,-3.29626 3.59605,-3.47563 3.79562,-3.65498 4.11569,-3.93692 4.31526,-4.10764 4.51485,-4.27838 4.8349,-4.54536 5.03447,-4.7061 5.23405,-4.86684 5.55411,-5.11707 5.75368,-5.26614 5.95326,-5.4152 6.27333,-5.64453 6.4729,-5.7805 6.67247,-5.91646 6.99254,-6.12433 7.19211,-6.24608 7.39168,-6.36783 7.71176,-6.55197 7.91133,-6.65802 8.1109,-6.76408 8.43097,-6.9213 8.63054,-7.01045 c 0.19957,-0.08916 0.51965,-0.2189 0.71922,-0.29013 0.19957,-0.07126 0.51962,-0.17128 0.71919,-0.22338 0.19959,-0.05207 0.51965,-0.12008 0.71923,-0.15208 0.19957,-0.03197 0.51964,-0.06746 0.71921,-0.07836 0.19956,-0.0109 0.51963,-0.01123 0.71922,-1.8e-4 0.19957,0.01103 0.51964,0.04621 0.71921,0.07976 0.19957,0.03355 0.51965,0.10512 0.71922,0.16211 0.19957,0.05699 0.51964,0.16768 0.71921,0.24863 0.19958,0.08094 0.51963,0.22963 0.7192,0.33478 0.19959,0.10514 0.51965,0.29301 0.71921,0.42301 0.19959,0.13001 0.51966,0.35895 0.71923,0.51403 0.19957,0.15506 0.51963,0.42344 0.71921,0.60362 0.19958,0.18019 0.51965,0.48932 0.71922,0.69501 0.19957,0.20567 0.51963,0.5565 0.7192,0.78736 0.19959,0.23089 0.51964,0.62082 0.71923,0.87667 0.19957,0.25584 0.51962,0.6864 0.71919,0.96731 0.19958,0.2809 0.51966,0.75188 0.71922,1.05729 0.19957,0.30538 0.51964,0.81413 0.71921,1.14375 0.19957,0.32963 0.51965,0.87861 0.71923,1.23202 0.19956,0.35338 0.51963,0.93886 0.7192,1.31507 0.19957,0.3762 0.51964,0.99778 0.71922,1.39637 0.19958,0.39858 0.51963,1.05619 0.71921,1.47632 0.19957,0.42012 0.51962,1.11101 0.71921,1.55175 0.19958,0.44073 0.51964,1.16435 0.71921,1.62477 0.19957,0.4604 0.51965,1.21463 0.71922,1.6936 0.19957,0.479 0.51964,1.26221 0.71921,1.75868 0.19958,0.49647 0.51965,1.30673 0.71922,1.81957 0.19957,0.51284 0.51964,1.34895 0.71921,1.87666 0.19959,0.52774 0.51964,1.38539 0.71922,1.92686 0.19957,0.54145 0.51962,1.42168 0.71919,1.97562 0.1996,0.55394 0.51966,1.45212 0.71923,2.01682 0.19957,0.56468 0.51964,1.47894 0.71921,2.05313 0.19958,0.5742 0.51965,1.50316 0.71922,2.08531 0.19957,0.58218 0.51964,1.52208 0.71921,2.11058 0.19957,0.58852 0.51965,1.53766 0.71922,2.131 0.19957,0.59337 0.51962,1.54896 0.71921,2.14553 0.19957,0.59658 0.51963,1.55602 0.7192,2.15418 0.19959,0.59816 0.51964,1.55876 0.71921,2.15695 0.19957,0.59822 0.51964,1.55786 0.71923,2.15453 0.19957,0.59666 0.51964,1.55237 0.7192,2.14587 0.19957,0.59349 0.51964,1.54285 0.71923,2.13168 0.19957,0.58886 0.51963,1.52971 0.71921,2.11231 0.19956,0.58263 0.51963,1.51208 0.71922,2.08672 0.19957,0.57464 0.51962,1.4896 0.71919,2.05487 0.1996,0.56528 0.51965,1.4647 0.71922,2.01924 0.19957,0.5545 0.51964,1.43512 0.71921,1.97734 0.19959,0.54222 0.51966,1.40202 0.71922,1.93065 0.19957,0.52864 0.51964,1.36583 0.71921,1.87944 0.19959,0.51361 0.51965,1.32496 0.71923,1.82234 0.19956,0.49737 0.51962,1.28238 0.7192,1.76248 0.19959,0.4801 0.51964,1.2363 0.71921,1.69777 0.19959,0.46147 0.51964,1.18639 0.71921,1.62823 0.19957,0.44182 0.51965,1.13495 0.71922,1.55623 0.19957,0.4213 0.51964,1.0804 0.71921,1.48014 0.19957,0.39973 0.51965,1.02327 0.71922,1.40088 0.19957,0.37759 0.51964,0.96594 0.71921,1.3206 0.19957,0.35466 0.51962,0.9046 0.71922,1.23549 0.19957,0.33088 0.51962,0.84239 0.7192,1.1493 0.19958,0.30695 0.51963,0.78054 0.71922,1.06282 0.19957,0.28231 0.51964,0.71459 0.71921,0.97182 0.19957,0.25723 0.51965,0.64993 0.71922,0.88221 0.19957,0.23225 0.51964,0.58495 0.71921,0.79186 0.19958,0.20691 0.51965,0.51787 0.71922,0.6995 0.19957,0.18161 0.51962,0.453 0.71921,0.60951 0.19958,0.15651 0.51963,0.38718 0.71921,0.51851 0.19958,0.13136 0.51963,0.32161 0.7192,0.42822 0.19959,0.10663 0.51966,0.25807 0.71923,0.34032 0.19957,0.08223 0.51963,0.1942 0.7192,0.25241 0.19959,0.05824 0.51966,0.13232 0.71923,0.16731 0.19957,0.035 0.51964,0.07272 0.7192,0.08496 0.19959,0.01224 0.51964,0.01306 0.71923,0.0033 0.19957,-0.0098 0.51962,-0.04316 0.71919,-0.07388 0.19958,-0.03073 0.51965,-0.09654 0.71922,-0.14758 0.19957,-0.05102 0.51964,-0.15004 0.71921,-0.22023 0.19957,-0.07019 0.51964,-0.19751 0.71922,-0.28565 0.19957,-0.08815 0.51964,-0.24443 0.71921,-0.34965 0.19957,-0.10526 0.51964,-0.288 0.71922,-0.40885 0.19957,-0.12084 0.51963,-0.32687 0.71921,-0.46211 0.19957,-0.13524 0.51963,-0.36418 0.71921,-0.51263 0.19958,-0.14844 0.51964,-0.39727 0.71921,-0.55729 0.19958,-0.16 0.51965,-0.42582 0.71922,-0.59602 0.19957,-0.17018 0.51964,-0.45164 0.71921,-0.63063 0.19958,-0.17899 0.51965,-0.47317 0.71922,-0.65935 0.19957,-0.18618 0.51964,-0.49073 0.71921,-0.68254 0.19958,-0.19179 0.51964,-0.50397 0.71922,-0.69984 0.19957,-0.19588 0.51963,-0.51352 0.71919,-0.71193 0.1996,-0.19844 0.71923,-0.71817 0.71923,-0.71817"
       style="fill:none;stroke:#eb0a36;stroke-width:0.79701;stroke-linecap:butt;stroke-linejoin:miter;stroke-miterlimit:10;stroke-dasharray:none;stroke-opacity:1"
       transform="matrix(1.3333333,0,0,-1.3333333,163.13867,230.33867)" />
    <path
       id="path9"
       d="m 12.7785,-7.71011 c 0,0.50096 -0.40612,0.90709 -0.90709,0.90709 -0.50096,0 -0.90709,-0.40613 -0.90709,-0.90709 0,-0.50098 0.40613,-0.90709 0.90709,-0.90709 0.50097,0 0.90709,0.40611 0.90709,0.90709 z"
       style="fill:#eb0a36;fill-opacity:1;fill-rule:nonzero;stroke:#eb0a36;stroke-width:0.3985;stroke-linecap:butt;stroke-linejoin:miter;stroke-miterlimit:10;stroke-dasharray:none;stroke-opacity:1"
       transform="matrix(1.3333333,0,0,-1.3333333,163.13867,230.33867)" />
    <path
       id="path10"
       d="m 60.27563,79.0297 c 0,0.50095 -0.40611,0.90708 -0.90708,0.90708 -0.50097,0 -0.90708,-0.40613 -0.90708,-0.90708 0,-0.50097 0.40611,-0.9071 0.90708,-0.9071 0.50097,0 0.90708,0.40613 0.90708,0.9071 z"
       style="fill:#eb0a36;fill-opacity:1;fill-rule:nonzero;stroke:#eb0a36;stroke-width:0.3985;stroke-linecap:butt;stroke-linejoin:miter;stroke-miterlimit:10;stroke-dasharray:none;stroke-opacity:1"
       transform="matrix(1.3333333,0,0,-1.3333333,163.13867,230.33867)" />
    <path
       id="path11"
       d="M 11.87141,0 V -7.71011 H 0"
       style="fill:none;stroke:#0000ff;stroke-width:0.79701;stroke-linecap:butt;stroke-linejoin:miter;stroke-miterlimit:10;stroke-dasharray:2.98883, 2.98883;stroke-dashoffset:0;stroke-opacity:0.5"
       transform="matrix(1.3333333,0,0,-1.3333333,163.13867,230.33867)" />
    <path
       id="path12"
       d="M 59.36855,0 V 79.0297 H 0"
       style="fill:none;stroke:#0000ff;stroke-width:0.79701;stroke-linecap:butt;stroke-linejoin:miter;stroke-miterlimit:10;stroke-dasharray:2.98883, 2.98883;stroke-dashoffset:0;stroke-opacity:0.5"
       transform="matrix(1.3333333,0,0,-1.3333333,163.13867,230.33867)" />
    <g
       id="g12"
       aria-label="f(x)=x−2senx"
       transform="matrix(1.3333333,0,0,1.3333333,254.468,188.30667)">
      <path
         id="path13"
         d="m 3.6568125,-3.9829297 h 0.8554688 c 0.1992187,0 0.3046875,0 0.3046875,-0.1992187 0,-0.1054688 -0.1054688,-0.1054688 -0.2695313,-0.1054688 H 3.7154063 l 0.2109375,-1.1367187 c 0.035156,-0.2109375 0.1757812,-0.9140625 0.234375,-1.0429688 0.09375,-0.1875 0.2578125,-0.3398437 0.46875,-0.3398437 0.046875,0 0.3046875,0 0.4921875,0.1875 -0.4335938,0.035156 -0.5390625,0.3867187 -0.5390625,0.5390625 0,0.2226562 0.1757812,0.3398437 0.3632812,0.3398437 0.2695313,0 0.5507813,-0.2109375 0.5507813,-0.5976562 0,-0.4570313 -0.4570313,-0.6796875 -0.8671875,-0.6796875 -0.3398438,0 -0.9609375,0.1757812 -1.265625,1.1601562 -0.058594,0.2109375 -0.082031,0.3164063 -0.328125,1.5703125 H 2.3560313 c -0.1992188,0 -0.3046875,0 -0.3046875,0.1875 0,0.1171875 0.09375,0.1171875 0.28125,0.1171875 h 0.65625 l -0.75,3.93750001 C 2.0630625,0.91550781 1.899,1.8295703 1.3716563,1.8295703 c -0.035156,0 -0.28125,0 -0.46875005,-0.1875 C 1.3599375,1.6186328 1.4419688,1.2553516 1.4419688,1.1030078 c 0,-0.22265624 -0.1757813,-0.33984374 -0.3632813,-0.33984374 -0.2578125,0 -0.55078125,0.2109375 -0.55078125,0.59765624 0,0.4453125 0.43359375,0.6796875 0.84375005,0.6796875 0.5507812,0 0.9492187,-0.5859375 1.125,-0.9609375 0.328125,-0.63281249 0.5507812,-1.83984374 0.5625,-1.91015624 z m 0,0"
         style="fill:#eb0a36;fill-opacity:1;fill-rule:nonzero;stroke:none" />
      <path
         id="path14"
         d="m 9.2466563,2.3920703 c 0,-0.035156 0,-0.046875 -0.1640625,-0.2226562 -1.2421875,-1.25390629 -1.5703125,-3.12890629 -1.5703125,-4.6640625 0,-1.7226563 0.3867187,-3.4570313 1.6054687,-4.7109375 0.1289063,-0.1171875 0.1289063,-0.1289063 0.1289063,-0.1640625 0,-0.070312 -0.035156,-0.1054688 -0.09375,-0.1054688 -0.1054688,0 -0.9960938,0.6796875 -1.5820313,1.9453125 -0.515625,1.1015625 -0.6328125,2.203125 -0.6328125,3.0351563 0,0.7851562 0.1171875,1.99218746 0.65625,3.11718746 0.5976563,1.21875004 1.453125,1.87500004 1.5585938,1.87500004 0.058594,0 0.09375,-0.035156 0.09375,-0.1054688 z m 0,0"
         style="fill:#eb0a36;fill-opacity:1;fill-rule:nonzero;stroke:none" />
      <path
         id="path15"
         d="m 13.154859,-3.0102734 c 0.05859,-0.2578125 0.292969,-1.171875 0.984375,-1.171875 0.04687,0 0.292969,0 0.503907,0.1289062 -0.28125,0.046875 -0.480469,0.3046875 -0.480469,0.5390625 0,0.1640625 0.105469,0.3515625 0.375,0.3515625 0.222656,0 0.539062,-0.1875 0.539062,-0.5859375 0,-0.515625 -0.585937,-0.65625 -0.925781,-0.65625 -0.574219,0 -0.925781,0.5273438 -1.042969,0.7617188 -0.257812,-0.65625 -0.785156,-0.7617188 -1.078125,-0.7617188 -1.042968,0 -1.605468,1.2890625 -1.605468,1.5351563 0,0.1054687 0.105468,0.1054687 0.117187,0.1054687 0.08203,0 0.117188,-0.023437 0.128906,-0.1171875 0.339844,-1.0546875 0.996094,-1.3007812 1.335938,-1.3007812 0.1875,0 0.539062,0.09375 0.539062,0.6679687 0,0.3046875 -0.164062,0.9726563 -0.539062,2.3671875 -0.152344,0.62109376 -0.503906,1.04296876 -0.949219,1.04296876 -0.05859,0 -0.28125,0 -0.492187,-0.12890625 0.246093,-0.0585938 0.46875,-0.26953125 0.46875,-0.5390625 0,-0.26953121 -0.222657,-0.35156251 -0.375,-0.35156251 -0.292969,0 -0.539063,0.25781251 -0.539063,0.57421876 0,0.45703125 0.492188,0.65625 0.9375,0.65625 0.65625,0 1.007813,-0.69140625 1.042969,-0.75 0.117187,0.36328125 0.480469,0.75 1.078125,0.75 1.019531,0 1.59375,-1.27734376 1.59375,-1.53515626 0,-0.09375 -0.09375,-0.09375 -0.128906,-0.09375 -0.08203,0 -0.105469,0.035156 -0.128907,0.1054688 -0.328125,1.06640621 -0.996093,1.31249996 -1.324218,1.31249996 -0.386719,0 -0.539063,-0.328125 -0.539063,-0.65625 0,-0.22265625 0.05859,-0.44531246 0.164063,-0.87890626 z m 0,0"
         style="fill:#eb0a36;fill-opacity:1;fill-rule:nonzero;stroke:none" />
      <path
         id="path16"
         d="m 18.404859,-2.4946484 c 0,-0.7734375 -0.117187,-1.9804688 -0.65625,-3.1054688 -0.597656,-1.21875 -1.464843,-1.875 -1.558593,-1.875 -0.05859,0 -0.105469,0.046875 -0.105469,0.1054688 0,0.035156 0,0.046875 0.199219,0.234375 0.972656,0.984375 1.535156,2.5664062 1.535156,4.640625 0,1.71093746 -0.363281,3.45703121 -1.59375,4.7226562 -0.140625,0.1171875 -0.140625,0.1289063 -0.140625,0.1640625 0,0.058594 0.04687,0.1054688 0.105469,0.1054688 0.09375,0 0.996093,-0.6796875 1.582031,-1.94531254 0.503906,-1.1015625 0.632812,-2.20312496 0.632812,-3.04687496 z m 10.59375,-0.7617188 c 0.152344,0 0.339844,0 0.339844,-0.1992187 0,-0.1992188 -0.1875,-0.1992188 -0.328125,-0.1992188 h -5.964844 c -0.140625,0 -0.328125,0 -0.328125,0.1992188 0,0.1992187 0.1875,0.1992187 0.339844,0.1992187 z m 0.01172,1.9335938 c 0.140625,0 0.328125,0 0.328125,-0.1992188 0,-0.1992187 -0.1875,-0.1992187 -0.339844,-0.1992187 h -5.941406 c -0.152344,0 -0.339844,0 -0.339844,0.1992187 0,0.1992188 0.1875,0.1992188 0.328125,0.1992188 z m 0,0"
         style="fill:#eb0a36;fill-opacity:1;fill-rule:nonzero;stroke:none" />
      <path
         id="path17"
         d="m 36.003492,-3.0102734 c 0.05859,-0.2578125 0.292969,-1.171875 0.984375,-1.171875 0.04687,0 0.292969,0 0.503906,0.1289062 -0.28125,0.046875 -0.480468,0.3046875 -0.480468,0.5390625 0,0.1640625 0.105468,0.3515625 0.375,0.3515625 0.222656,0 0.539062,-0.1875 0.539062,-0.5859375 0,-0.515625 -0.585937,-0.65625 -0.925781,-0.65625 -0.574219,0 -0.925781,0.5273438 -1.042969,0.7617188 -0.257812,-0.65625 -0.785156,-0.7617188 -1.078125,-0.7617188 -1.042969,0 -1.605469,1.2890625 -1.605469,1.5351563 0,0.1054687 0.105469,0.1054687 0.117188,0.1054687 0.08203,0 0.117187,-0.023437 0.128906,-0.1171875 0.339844,-1.0546875 0.996094,-1.3007812 1.335938,-1.3007812 0.1875,0 0.539062,0.09375 0.539062,0.6679687 0,0.3046875 -0.164062,0.9726563 -0.539062,2.3671875 -0.152344,0.62109376 -0.503907,1.04296876 -0.949219,1.04296876 -0.05859,0 -0.28125,0 -0.492188,-0.12890625 0.246094,-0.0585938 0.46875,-0.26953125 0.46875,-0.5390625 0,-0.26953121 -0.222656,-0.35156251 -0.375,-0.35156251 -0.292968,0 -0.539062,0.25781251 -0.539062,0.57421876 0,0.45703125 0.492187,0.65625 0.9375,0.65625 0.65625,0 1.007812,-0.69140625 1.042969,-0.75 0.117187,0.36328125 0.480468,0.75 1.078125,0.75 1.019531,0 1.59375,-1.27734376 1.59375,-1.53515626 0,-0.09375 -0.09375,-0.09375 -0.128907,-0.09375 -0.08203,0 -0.105468,0.035156 -0.128906,0.1054688 -0.328125,1.06640621 -0.996094,1.31249996 -1.324219,1.31249996 -0.386718,0 -0.539062,-0.328125 -0.539062,-0.65625 0,-0.22265625 0.05859,-0.44531246 0.164062,-0.87890626 z m 0,0"
         style="fill:#eb0a36;fill-opacity:1;fill-rule:nonzero;stroke:none" />
      <path
         id="path18"
         d="m 47.142164,-2.2954297 c 0.175781,0 0.351563,0 0.351563,-0.1992187 0,-0.1992188 -0.175782,-0.1992188 -0.351563,-0.1992188 h -5.390625 c -0.164062,0 -0.339844,0 -0.339844,0.1992188 0,0.1992187 0.175782,0.1992187 0.339844,0.1992187 z m 0,0"
         style="fill:#eb0a36;fill-opacity:1;fill-rule:nonzero;stroke:none" />
      <path
         id="path19"
         d="m 51.815016,-0.76027344 1.054687,-1.03124996 c 1.558594,-1.3710938 2.15625,-1.9101563 2.15625,-2.90625 0,-1.1367188 -0.902344,-1.9335938 -2.121094,-1.9335938 -1.125,0 -1.851562,0.9140625 -1.851562,1.8046875 0,0.5507813 0.492187,0.5507813 0.527344,0.5507813 0.164062,0 0.515625,-0.1171875 0.515625,-0.5273438 0,-0.2578125 -0.1875,-0.515625 -0.527344,-0.515625 -0.08203,0 -0.105469,0 -0.128906,0.011719 0.222656,-0.6445313 0.761718,-1.0195313 1.335937,-1.0195313 0.914063,0 1.335938,0.8085938 1.335938,1.6289063 0,0.796875 -0.492188,1.5820312 -1.042969,2.203125 l -1.910156,2.13281246 c -0.105469,0.10546875 -0.105469,0.12890625 -0.105469,0.36328125 h 3.691406 l 0.28125,-1.73437501 h -0.257812 c -0.04687,0.3046875 -0.117188,0.73828126 -0.210938,0.89062501 -0.07031,0.0820313 -0.726562,0.0820313 -0.949219,0.0820313 z m 7.444336,-1.17187496 c 0.222656,0.035156 1.03125,0.1992187 1.03125,0.9140625 0,0.51562496 -0.351563,0.91406246 -1.125,0.91406246 -0.832032,0 -1.195313,-0.57421875 -1.382813,-1.41796876 -0.03516,-0.1289062 -0.03516,-0.1757812 -0.140625,-0.1757812 -0.128906,0 -0.128906,0.070312 -0.128906,0.2578125 v 1.31249996 c 0,0.1640625 0,0.234375 0.105469,0.234375 0.05859,0 0.07031,0 0.257812,-0.19921875 0.01172,-0.01171875 0.01172,-0.03515625 0.199219,-0.22265625 0.433594,0.421875 0.878906,0.421875 1.089844,0.421875 1.148437,0 1.605468,-0.66796875 1.605468,-1.38281246 0,-0.5273438 -0.292968,-0.8203125 -0.421875,-0.9492188 -0.328125,-0.3164062 -0.714843,-0.3984375 -1.136718,-0.46875 -0.550782,-0.1171875 -1.21875,-0.2460937 -1.21875,-0.8203125 0,-0.3515625 0.257812,-0.7617187 1.113281,-0.7617187 1.101562,0 1.148437,0.9023437 1.171875,1.2070312 0,0.09375 0.09375,0.09375 0.117187,0.09375 0.128907,0 0.128907,-0.046875 0.128907,-0.2460937 v -0.9960938 c 0,-0.1757812 0,-0.2460937 -0.117188,-0.2460937 -0.04687,0 -0.07031,0 -0.199219,0.1171875 -0.02344,0.046875 -0.128906,0.1289062 -0.164062,0.1640625 -0.375,-0.28125 -0.785156,-0.28125 -0.9375,-0.28125 -1.21875,0 -1.59375,0.6679687 -1.59375,1.2304687 0,0.3398438 0.164062,0.6210938 0.433594,0.84375 0.316406,0.2578125 0.597656,0.3164063 1.3125,0.4570313 z m 2.967773,-0.5742188 c 0.05859,-1.4882812 0.902344,-1.734375 1.242187,-1.734375 1.019532,0 1.125,1.3476563 1.125,1.734375 z m -0.01172,0.2109375 h 2.789063 c 0.210937,0 0.246093,0 0.246093,-0.2109375 0,-0.984375 -0.539062,-1.9570312 -1.78125,-1.9570312 -1.160156,0 -2.074218,1.03125 -2.074218,2.2734375 0,1.33593746 1.042968,2.29687496 2.191406,2.29687496 1.21875,0 1.664062,-1.1015625 1.664062,-1.28906246 0,-0.1054688 -0.08203,-0.1171875 -0.128906,-0.1171875 -0.09375,0 -0.117187,0.058594 -0.128906,0.140625 -0.351563,1.01953121 -1.253906,1.01953121 -1.347656,1.01953121 -0.503907,0 -0.902344,-0.29296875 -1.125,-0.66796875 C 62.215406,-1.2876172 62.215406,-1.9438672 62.215405,-2.2954297 Z m 4.426758,-1.125 v 2.66015626 c 0,0.45703125 -0.117187,0.45703125 -0.785156,0.45703125 v 0.3046875 c 0.351562,-0.01171875 0.855469,-0.03515625 1.125,-0.03515625 0.257812,0 0.785156,0.0234375 1.113281,0.03515625 v -0.3046875 c -0.65625,0 -0.773437,0 -0.773437,-0.45703125 V -2.5883984 c 0,-1.03125 0.714843,-1.59375 1.347656,-1.59375 0.621094,0 0.738281,0.5390625 0.738281,1.1015625 v 2.32031246 c 0,0.45703125 -0.117187,0.45703125 -0.773437,0.45703125 v 0.3046875 c 0.339843,-0.01171875 0.855468,-0.03515625 1.125,-0.03515625 0.257812,0 0.773437,0.0234375 1.113281,0.03515625 v -0.3046875 c -0.515625,0 -0.773438,0 -0.785156,-0.3046875 V -2.5063672 c 0,-0.8554687 0,-1.171875 -0.304688,-1.5234375 -0.140625,-0.1757812 -0.46875,-0.375 -1.042969,-0.375 -0.726562,0 -1.195312,0.4335938 -1.476562,1.0546875 v -1.0546875 l -1.40625,0.1171875 v 0.3046875 c 0.703125,0 0.785156,0.070312 0.785156,0.5625 z m 0,0"
         style="fill:#eb0a36;fill-opacity:1;fill-rule:nonzero;stroke:none" />
      <path
         id="path20"
         d="m 76.069898,-3.0102734 c 0.05859,-0.2578125 0.292969,-1.171875 0.984375,-1.171875 0.04687,0 0.292969,0 0.503907,0.1289062 -0.28125,0.046875 -0.480469,0.3046875 -0.480469,0.5390625 0,0.1640625 0.105469,0.3515625 0.375,0.3515625 0.222656,0 0.539062,-0.1875 0.539062,-0.5859375 0,-0.515625 -0.585937,-0.65625 -0.925781,-0.65625 -0.574219,0 -0.925781,0.5273438 -1.042969,0.7617188 -0.257812,-0.65625 -0.785156,-0.7617188 -1.078125,-0.7617188 -1.042968,0 -1.605468,1.2890625 -1.605468,1.5351563 0,0.1054687 0.105468,0.1054687 0.117187,0.1054687 0.08203,0 0.117188,-0.023437 0.128906,-0.1171875 0.339844,-1.0546875 0.996094,-1.3007812 1.335938,-1.3007812 0.1875,0 0.539062,0.09375 0.539062,0.6679687 0,0.3046875 -0.164062,0.9726563 -0.539062,2.3671875 -0.152344,0.62109376 -0.503906,1.04296876 -0.949219,1.04296876 -0.05859,0 -0.28125,0 -0.492187,-0.12890625 0.246093,-0.0585938 0.46875,-0.26953125 0.46875,-0.5390625 0,-0.26953121 -0.222657,-0.35156251 -0.375,-0.35156251 -0.292969,0 -0.539063,0.25781251 -0.539063,0.57421876 0,0.45703125 0.492188,0.65625 0.9375,0.65625 0.65625,0 1.007813,-0.69140625 1.042969,-0.75 0.117187,0.36328125 0.480469,0.75 1.078125,0.75 1.019531,0 1.59375,-1.27734376 1.59375,-1.53515626 0,-0.09375 -0.09375,-0.09375 -0.128906,-0.09375 -0.08203,0 -0.105469,0.035156 -0.128907,0.1054688 -0.328125,1.06640621 -0.996093,1.31249996 -1.324218,1.31249996 -0.386719,0 -0.539063,-0.328125 -0.539063,-0.65625 0,-0.22265625 0.05859,-0.44531246 0.164063,-0.87890626 z m 0,0"
         style="fill:#eb0a36;fill-opacity:1;fill-rule:nonzero;stroke:none" />
    </g>
    <path
       id="path21"
       d="m 2.1684531,-2.5317031 h 0.8320313 c -0.1054688,0.421875 -0.2578125,1.0546875 -0.2578125,1.60546873 0,0.28125 0.035156,0.46875 0.070312,0.62109375 0.1171875,0.3515625 0.2109375,0.375 0.3164062,0.375 0.1640625,0 0.328125,-0.15234375 0.328125,-0.31640625 0,-0.0585937 -0.011719,-0.0820312 -0.058594,-0.15234375 -0.1289063,-0.2578125 -0.2578125,-0.65624998 -0.2578125,-1.23046878 0,-0.1289062 0,-0.4101562 0.1054687,-0.9023437 h 0.8671875 c 0.1289063,0 0.1875,0 0.2578125,-0.058594 0.09375,-0.070312 0.1171875,-0.1757812 0.1171875,-0.2109375 0,-0.1992187 -0.1757812,-0.1992187 -0.2929687,-0.1992187 h -2.636718 c -0.28125,0 -0.4804687,0.058594 -0.79687498,0.3515625 -0.17578125,0.1640625 -0.4453125,0.5390625 -0.4453125,0.5976562 0,0.082031 0.09375,0.082031 0.1171875,0.082031 0.0703125,0 0.0820313,-0.011719 0.12890625,-0.070312 0.3515625,-0.4921875 0.78515623,-0.4921875 0.93750003,-0.4921875 h 0.421875 c -0.2109375,0.7617187 -0.5859375,1.59374998 -0.796875,2.00390623 -0.046875,0.09375 -0.1171875,0.24609375 -0.14062503,0.26953125 0,0.0234375 -0.0117188,0.0585937 -0.0117188,0.10546875 0,0.10546875 0.0820313,0.22265625 0.24609373,0.22265625 0.2695312,0 0.3515625,-0.31640625 0.515625,-0.9375 z m 0,0"
       style="fill:#000000;fill-opacity:1;fill-rule:nonzero;stroke:none"
       aria-label="π"
       transform="matrix(1.3333333,0,0,1.3333333,175.69467,215.41467)" />
    <path
       id="path22"
       d="M 0,0 H 4.909"
       style="fill:none;stroke:#000000;stroke-width:0.398;stroke-linecap:butt;stroke-linejoin:miter;stroke-miterlimit:10;stroke-dasharray:none;stroke-opacity:1"
       transform="matrix(1.3333333,0,0,-1.3333333,175.69467,217.324)" />
    <path
       id="path23"
       d="m 1.8986719,-2.3311094 c 0.5507812,0 0.9375,0.375 0.9375,1.125 0,0.86718753 -0.5039063,1.12500003 -0.9023438,1.12500003 -0.28125,0 -0.890625,-0.08203125 -1.18359373,-0.4921875 0.32812503,-0.0117188 0.39843753,-0.24609375 0.39843753,-0.38671875 0,-0.22265628 -0.16406253,-0.38671878 -0.38671878,-0.38671878 -0.1875,0 -0.38671875,0.1171875 -0.38671875,0.41015628 0,0.65625 0.72656253,1.078125 1.57031253,1.078125 0.9726562,0 1.640625,-0.64453125 1.640625,-1.34765628 0,-0.5390625 -0.4453125,-1.0898437 -1.21875,-1.2421875 0.7382812,-0.2695312 0.9960937,-0.796875 0.9960937,-1.21875 0,-0.5507812 -0.6328125,-0.9609375 -1.40625,-0.9609375 -0.7734375,0 -1.35937498,0.375 -1.35937498,0.9375 0,0.234375 0.15234375,0.3632813 0.36328125,0.3632813 0.21093753,0 0.35156253,-0.1640625 0.35156253,-0.3515625 0,-0.1992188 -0.140625,-0.3515625 -0.35156253,-0.3632813 0.23437503,-0.3046875 0.71484373,-0.3867187 0.97265623,-0.3867187 0.3164063,0 0.7617188,0.1523437 0.7617188,0.7617187 0,0.2929688 -0.1054688,0.609375 -0.28125,0.8320313 -0.234375,0.2578125 -0.421875,0.28125 -0.7734375,0.2929687 -0.1757813,0.023437 -0.1875,0.023437 -0.2226563,0.023437 -0.011719,0 -0.070312,0.011719 -0.070312,0.09375 0,0.09375 0.058594,0.09375 0.1757813,0.09375 z m 0,0"
       style="fill:#000000;fill-opacity:1;fill-rule:nonzero;stroke:none"
       aria-label="3"
       transform="matrix(1.3333333,0,0,1.3333333,176.32,225.22533)" />
    <g
       id="g23"
       aria-label="f(&#10;π"
       transform="matrix(1.3333333,0,0,1.3333333,130.02667,243.31067)">
      <path
         id="path24"
         d="m 3.6567578,-3.983 h 0.8554688 c 0.1992187,0 0.3046875,0 0.3046875,-0.1992187 0,-0.1054688 -0.1054688,-0.1054688 -0.2695313,-0.1054688 H 3.7153516 l 0.2109375,-1.1367187 c 0.035156,-0.2109375 0.1757812,-0.9140625 0.234375,-1.0429688 0.09375,-0.1875 0.2578125,-0.3398437 0.46875,-0.3398437 0.046875,0 0.3046875,0 0.4921875,0.1875 -0.4335938,0.035156 -0.5390625,0.3867187 -0.5390625,0.5390625 0,0.2226562 0.1757812,0.3398437 0.3632812,0.3398437 0.2695313,0 0.5507813,-0.2109375 0.5507813,-0.5976562 0,-0.4570313 -0.4570313,-0.6796875 -0.8671875,-0.6796875 -0.3398438,0 -0.9609375,0.1757812 -1.265625,1.1601562 -0.058594,0.2109375 -0.082031,0.3164063 -0.328125,1.5703125 H 2.3559766 c -0.1992188,0 -0.3046875,0 -0.3046875,0.1875 0,0.1171875 0.09375,0.1171875 0.28125,0.1171875 h 0.65625 l -0.75,3.9375 c -0.1757813,0.9609375 -0.3398438,1.875 -0.8671875,1.875 -0.035156,0 -0.28125,0 -0.46875004,-0.1875 C 1.3598828,1.6185625 1.4419141,1.2552813 1.4419141,1.1029375 c 0,-0.22265625 -0.1757813,-0.33984375 -0.3632813,-0.33984375 -0.25781249,0 -0.55078124,0.2109375 -0.55078124,0.59765625 0,0.4453125 0.43359375,0.6796875 0.84375004,0.6796875 0.5507812,0 0.9492187,-0.5859375 1.125,-0.9609375 0.328125,-0.6328125 0.5507812,-1.83984375 0.5625,-1.91015625 z m 0,0"
         style="fill:#000000;fill-opacity:1;fill-rule:nonzero;stroke:none" />
      <path
         id="path25"
         d="m 9.2466016,2.392 c 0,-0.035156 0,-0.046875 -0.1640625,-0.2226562 -1.2421875,-1.2539063 -1.5703125,-3.1289063 -1.5703125,-4.6640625 0,-1.7226563 0.3867187,-3.4570313 1.6054687,-4.7109375 0.1289063,-0.1171875 0.1289063,-0.1289063 0.1289063,-0.1640625 0,-0.070312 -0.035156,-0.1054688 -0.09375,-0.1054688 -0.1054688,0 -0.9960938,0.6796875 -1.5820313,1.9453125 -0.515625,1.1015625 -0.6328125,2.203125 -0.6328125,3.0351563 0,0.7851562 0.1171875,1.99218745 0.65625,3.11718745 0.5976563,1.21875005 1.453125,1.87500005 1.5585938,1.87500005 0.058594,0 0.09375,-0.035156 0.09375,-0.1054688 z m 0,0"
         style="fill:#000000;fill-opacity:1;fill-rule:nonzero;stroke:none" />
      <path
         id="path26"
         d="m 13.187031,-6.4556562 h 0.832031 c -0.105468,0.421875 -0.257812,1.0546875 -0.257812,1.6054687 0,0.28125 0.03516,0.46875 0.07031,0.6210938 0.117188,0.3515625 0.210938,0.375 0.316407,0.375 0.164062,0 0.328125,-0.1523438 0.328125,-0.3164063 0,-0.058594 -0.01172,-0.082031 -0.05859,-0.1523437 -0.128906,-0.2578125 -0.257813,-0.65625 -0.257813,-1.2304688 0,-0.1289062 0,-0.4101562 0.105469,-0.9023437 h 0.867188 c 0.128906,0 0.1875,0 0.257812,-0.058594 0.09375,-0.070312 0.117188,-0.1757812 0.117188,-0.2109375 0,-0.1992187 -0.175782,-0.1992187 -0.292969,-0.1992187 h -2.636719 c -0.28125,0 -0.480469,0.058594 -0.796875,0.3515625 -0.175781,0.1640625 -0.445312,0.5390625 -0.445312,0.5976562 0,0.082031 0.09375,0.082031 0.117187,0.082031 0.07031,0 0.08203,-0.011719 0.128906,-0.070312 0.351563,-0.4921875 0.785157,-0.4921875 0.9375,-0.4921875 h 0.421875 C 12.73,-5.6939375 12.355,-4.8619062 12.144062,-4.45175 c -0.04687,0.09375 -0.117187,0.2460938 -0.140625,0.2695313 0,0.023437 -0.01172,0.058594 -0.01172,0.1054687 0,0.1054688 0.08203,0.2226563 0.246093,0.2226563 0.269532,0 0.351563,-0.3164063 0.515625,-0.9375 z m 0,0"
         style="fill:#000000;fill-opacity:1;fill-rule:nonzero;stroke:none" />
    </g>
    <path
       id="path27"
       d="M 0,0 H 4.909"
       style="fill:none;stroke:#000000;stroke-width:0.398;stroke-linecap:butt;stroke-linejoin:miter;stroke-miterlimit:10;stroke-dasharray:none;stroke-opacity:1"
       transform="matrix(1.3333333,0,0,-1.3333333,144.72,239.98933)" />
    <g
       id="g27"
       aria-label="3&#10;)"
       transform="matrix(1.3333333,0,0,1.3333333,145.34533,247.89067)">
      <path
         id="path28"
         d="m 1.89725,-2.3320625 c 0.5507812,0 0.9375,0.375 0.9375,1.125 0,0.8671875 -0.5039063,1.125 -0.9023438,1.125 -0.28125,0 -0.890625,-0.08203125 -1.1835937,-0.4921875 0.328125,-0.0117188 0.3984375,-0.24609375 0.3984375,-0.38671875 0,-0.22265625 -0.1640625,-0.38671875 -0.38671875,-0.38671875 -0.1875,0 -0.38671875,0.1171875 -0.38671875,0.41015625 0,0.65625 0.7265625,1.078125 1.5703125,1.078125 0.9726562,0 1.640625,-0.64453125 1.640625,-1.34765625 0,-0.5390625 -0.4453125,-1.0898437 -1.21875,-1.2421875 0.7382812,-0.2695312 0.9960937,-0.796875 0.9960937,-1.21875 0,-0.5507812 -0.6328125,-0.9609375 -1.40625,-0.9609375 -0.7734375,0 -1.35937495,0.375 -1.35937495,0.9375 0,0.234375 0.15234375,0.3632813 0.36328125,0.3632813 0.2109375,0 0.3515625,-0.1640625 0.3515625,-0.3515625 0,-0.1992188 -0.140625,-0.3515625 -0.3515625,-0.3632813 0.234375,-0.3046875 0.7148437,-0.3867187 0.9726562,-0.3867187 0.3164063,0 0.7617188,0.1523437 0.7617188,0.7617187 0,0.2929688 -0.1054688,0.609375 -0.28125,0.8320313 C 2.1785,-2.5781562 1.991,-2.5547187 1.6394375,-2.543 c -0.1757813,0.023437 -0.1875,0.023437 -0.2226563,0.023437 -0.011719,0 -0.070312,0.011719 -0.070312,0.09375 0,0.09375 0.058594,0.09375 0.1757813,0.09375 z m 0,0"
         style="fill:#000000;fill-opacity:1;fill-rule:nonzero;stroke:none" />
      <path
         id="path29"
         d="m 8.5183437,-5.9297187 c 0,-0.7734375 -0.1171875,-1.9804688 -0.65625,-3.1054688 C 7.2644375,-10.253937 6.39725,-10.910187 6.3035,-10.910187 c -0.058594,0 -0.1054688,0.04687 -0.1054688,0.105468 0,0.03516 0,0.04687 0.1992188,0.234375 0.9726562,0.9843753 1.5351562,2.5664065 1.5351562,4.6406253 0,1.7109375 -0.3632812,3.4570312 -1.59375,4.7226562 -0.140625,0.1171875 -0.140625,0.1289063 -0.140625,0.1640625 0,0.0585937 0.046875,0.10546875 0.1054688,0.10546875 0.09375,0 0.9960937,-0.67968745 1.5820312,-1.94531245 0.5039063,-1.1015625 0.6328125,-2.203125 0.6328125,-3.046875 z m 0,0"
         style="fill:#000000;fill-opacity:1;fill-rule:nonzero;stroke:none" />
    </g>
    <g
       id="g29"
       aria-label="5π"
       transform="matrix(1.3333333,0,0,1.3333333,236.376,241.44533)">
      <path
         id="path30"
         d="m 1.077375,-3.8906406 c 0.3632812,0.09375 0.5625,0.09375 0.6796875,0.09375 0.9140625,0 1.4648437,-0.6328125 1.4648437,-0.7382813 0,-0.070312 -0.046875,-0.09375 -0.082031,-0.09375 -0.011719,0 -0.035156,0 -0.058594,0.023437 -0.1640625,0.058594 -0.5390625,0.1992188 -1.0546875,0.1992188 -0.1992187,0 -0.5625,-0.011719 -1.0195312,-0.1875 -0.0703125,-0.035156 -0.0820313,-0.035156 -0.0820313,-0.035156 -0.09375,0 -0.09375,0.070312 -0.09375,0.1875 v 2.0625 c 0,0.1171875 0,0.1992188 0.10546875,0.1992188 0.0703125,0 0.0703125,-0.011719 0.14062505,-0.1054688 0.3046875,-0.375 0.7265625,-0.4335937 0.9726562,-0.4335937 0.421875,0 0.609375,0.3398437 0.6445313,0.3867187 0.1171875,0.234375 0.1640625,0.5039063 0.1640625,0.9023438 0,0.2109375 0,0.62109373 -0.2109375,0.92578123 -0.1757813,0.2578125 -0.46875,0.421875 -0.8203125,0.421875 -0.4453125,0 -0.91406255,-0.2578125 -1.0898438,-0.71484375 0.2695313,0.0234375 0.3984375,-0.15234375 0.3984375,-0.33984378 0,-0.3046875 -0.2578125,-0.3515625 -0.3515625,-0.3515625 -0.0117188,0 -0.3515625,0 -0.3515625,0.375 0,0.62109378 0.5742188,1.25390628 1.4179688,1.25390628 0.890625,0 1.6640625,-0.66796875 1.6640625,-1.54687498 0,-0.7851563 -0.5976563,-1.5117188 -1.453125,-1.5117188 -0.3164063,0 -0.6796875,0.082031 -0.984375,0.3398438 z m 0,0"
         style="fill:#000000;fill-opacity:1;fill-rule:nonzero;stroke:none" />
      <path
         id="path31"
         d="m 6.139875,-2.5312656 h 0.8320312 c -0.1054687,0.421875 -0.2578125,1.0546875 -0.2578125,1.60546873 0,0.28125 0.035156,0.46875 0.070312,0.62109375 0.1171875,0.3515625 0.2109375,0.375 0.3164063,0.375 0.1640625,0 0.328125,-0.15234375 0.328125,-0.31640625 0,-0.0585938 -0.011719,-0.0820313 -0.058594,-0.15234375 -0.1289062,-0.2578125 -0.2578125,-0.65624998 -0.2578125,-1.23046878 0,-0.1289062 0,-0.4101562 0.1054688,-0.9023437 h 0.8671875 c 0.1289062,0 0.1875,0 0.2578125,-0.058594 0.09375,-0.070312 0.1171875,-0.1757812 0.1171875,-0.2109375 0,-0.1992187 -0.1757813,-0.1992187 -0.2929688,-0.1992187 H 5.5305 c -0.28125,0 -0.4804688,0.058594 -0.796875,0.3515625 -0.1757813,0.1640625 -0.4453125,0.5390625 -0.4453125,0.5976562 0,0.082031 0.09375,0.082031 0.1171875,0.082031 0.070312,0 0.082031,-0.011719 0.1289062,-0.070312 0.3515625,-0.4921875 0.7851563,-0.4921875 0.9375,-0.4921875 h 0.421875 c -0.2109375,0.7617187 -0.5859375,1.59374998 -0.796875,2.00390623 -0.046875,0.09375 -0.1171875,0.24609375 -0.140625,0.26953125 0,0.0234375 -0.011719,0.0585938 -0.011719,0.10546875 0,0.10546875 0.082031,0.22265625 0.2460937,0.22265625 0.2695313,0 0.3515625,-0.31640625 0.515625,-0.9375 z m 0,0"
         style="fill:#000000;fill-opacity:1;fill-rule:nonzero;stroke:none" />
    </g>
    <path
       id="path32"
       d="M 0,0 H 8.88"
       style="fill:none;stroke:#000000;stroke-width:0.398;stroke-linecap:butt;stroke-linejoin:miter;stroke-miterlimit:10;stroke-dasharray:none;stroke-opacity:1"
       transform="matrix(1.3333333,0,0,-1.3333333,236.376,243.35467)" />
    <path
       id="path33"
       d="m 1.8987656,-2.3306719 c 0.5507813,0 0.9375,0.375 0.9375,1.125 0,0.86718753 -0.5039062,1.12500003 -0.9023437,1.12500003 -0.28125,0 -0.890625,-0.08203125 -1.18359377,-0.4921875 0.32812497,-0.0117188 0.39843747,-0.24609375 0.39843747,-0.38671875 0,-0.22265628 -0.16406247,-0.38671878 -0.38671872,-0.38671878 -0.1875,0 -0.38671875,0.1171875 -0.38671875,0.41015628 0,0.65625 0.72656247,1.078125 1.57031247,1.078125 0.9726563,0 1.640625,-0.64453125 1.640625,-1.34765628 0,-0.5390625 -0.4453125,-1.0898437 -1.21875,-1.2421875 0.7382813,-0.2695312 0.9960938,-0.796875 0.9960938,-1.21875 0,-0.5507812 -0.6328125,-0.9609375 -1.40625,-0.9609375 -0.7734375,0 -1.35937502,0.375 -1.35937502,0.9375 0,0.234375 0.15234375,0.3632813 0.36328125,0.3632813 0.21093747,0 0.35156247,-0.1640625 0.35156247,-0.3515625 0,-0.1992188 -0.140625,-0.3515625 -0.35156247,-0.3632813 0.23437497,-0.3046875 0.71484377,-0.3867187 0.97265627,-0.3867187 0.3164062,0 0.7617187,0.1523437 0.7617187,0.7617187 0,0.2929688 -0.1054687,0.609375 -0.28125,0.8320313 -0.234375,0.2578125 -0.421875,0.28125 -0.7734375,0.2929687 -0.1757812,0.023437 -0.1875,0.023437 -0.2226562,0.023437 -0.011719,0 -0.070312,0.011719 -0.070312,0.09375 0,0.09375 0.058594,0.09375 0.1757812,0.09375 z m 0,0"
       style="fill:#000000;fill-opacity:1;fill-rule:nonzero;stroke:none"
       aria-label="3"
       transform="matrix(1.3333333,0,0,1.3333333,239.648,251.256)" />
    <g
       id="g33"
       aria-label="f(&#10;5π"
       transform="matrix(1.3333333,0,0,1.3333333,124.732,128.288)">
      <path
         id="path34"
         d="m 3.6551016,-3.9835781 h 0.8554687 c 0.1992188,0 0.3046875,0 0.3046875,-0.1992188 0,-0.1054687 -0.1054687,-0.1054687 -0.2695312,-0.1054687 H 3.7136953 l 0.2109375,-1.1367188 c 0.035156,-0.2109375 0.1757813,-0.9140625 0.234375,-1.0429687 0.09375,-0.1875 0.2578125,-0.3398438 0.46875,-0.3398438 0.046875,0 0.3046875,0 0.4921875,0.1875 -0.4335937,0.035156 -0.5390625,0.3867188 -0.5390625,0.5390625 0,0.2226563 0.1757813,0.3398438 0.3632813,0.3398438 0.2695312,0 0.5507812,-0.2109375 0.5507812,-0.5976563 0,-0.4570312 -0.4570312,-0.6796875 -0.8671875,-0.6796875 -0.3398437,0 -0.9609375,0.1757813 -1.265625,1.1601563 -0.058594,0.2109375 -0.082031,0.3164062 -0.328125,1.5703125 H 2.3543203 c -0.1992187,0 -0.3046875,0 -0.3046875,0.1875 0,0.1171875 0.09375,0.1171875 0.28125,0.1171875 h 0.65625 l -0.75,3.93749998 C 2.0613516,0.91485938 1.8972891,1.8289219 1.3699453,1.8289219 c -0.035156,0 -0.28125,0 -0.46874999,-0.1875 C 1.3582266,1.6179844 1.4402578,1.2547031 1.4402578,1.1023594 c 0,-0.22265627 -0.1757812,-0.33984377 -0.3632812,-0.33984377 -0.25781254,0 -0.55078129,0.2109375 -0.55078129,0.59765627 0,0.4453125 0.43359375,0.6796875 0.84374999,0.6796875 0.5507813,0 0.9492188,-0.5859375 1.125,-0.9609375 0.328125,-0.63281252 0.5507813,-1.83984377 0.5625,-1.91015627 z m 0,0"
         style="fill:#000000;fill-opacity:1;fill-rule:nonzero;stroke:none" />
      <path
         id="path35"
         d="m 9.247875,2.3914219 c 0,-0.035156 0,-0.046875 -0.1640625,-0.2226563 C 7.841625,0.91485938 7.5135,-0.96014062 7.5135,-2.4952969 c 0,-1.7226562 0.3867187,-3.4570312 1.6054687,-4.7109375 0.1289063,-0.1171875 0.1289063,-0.1289062 0.1289063,-0.1640625 0,-0.070312 -0.035156,-0.1054687 -0.09375,-0.1054687 -0.1054688,0 -0.9960938,0.6796875 -1.5820313,1.9453125 -0.515625,1.1015625 -0.6328125,2.203125 -0.6328125,3.0351562 0,0.7851563 0.1171875,1.99218753 0.65625,3.11718753 0.5976563,1.21874997 1.453125,1.87499997 1.5585938,1.87499997 0.058594,0 0.09375,-0.035156 0.09375,-0.1054687 z m 0,0"
         style="fill:#000000;fill-opacity:1;fill-rule:nonzero;stroke:none" />
      <path
         id="path36"
         d="m 12.098461,-7.8126797 c 0.363281,0.09375 0.5625,0.09375 0.679687,0.09375 0.914063,0 1.464844,-0.6328125 1.464844,-0.7382812 0,-0.070312 -0.04687,-0.09375 -0.08203,-0.09375 -0.01172,0 -0.03516,0 -0.05859,0.023437 -0.164062,0.058594 -0.539062,0.1992187 -1.054687,0.1992187 -0.199219,0 -0.5625,-0.011719 -1.019532,-0.1875 -0.07031,-0.035156 -0.08203,-0.035156 -0.08203,-0.035156 -0.09375,0 -0.09375,0.070312 -0.09375,0.1875 v 2.0625 c 0,0.1171875 0,0.1992187 0.105469,0.1992187 0.07031,0 0.07031,-0.011719 0.140625,-0.1054687 0.304687,-0.375 0.726562,-0.4335938 0.972656,-0.4335938 0.421875,0 0.609375,0.3398438 0.644531,0.3867188 0.117188,0.234375 0.164063,0.5039062 0.164063,0.9023437 0,0.2109375 0,0.6210938 -0.210938,0.9257813 -0.175781,0.2578125 -0.46875,0.421875 -0.820312,0.421875 -0.445313,0 -0.914063,-0.2578125 -1.089844,-0.7148438 0.269531,0.023437 0.398438,-0.1523437 0.398438,-0.3398437 0,-0.3046875 -0.257813,-0.3515625 -0.351563,-0.3515625 -0.01172,0 -0.351562,0 -0.351562,0.375 0,0.6210937 0.574218,1.2539062 1.417968,1.2539062 0.890625,0 1.664063,-0.6679687 1.664063,-1.546875 0,-0.7851562 -0.597656,-1.5117187 -1.453125,-1.5117187 -0.316406,0 -0.679688,0.082031 -0.984375,0.3398437 z m 0,0"
         style="fill:#000000;fill-opacity:1;fill-rule:nonzero;stroke:none" />
      <path
         id="path37"
         d="m 17.158031,-6.4533047 h 0.832031 c -0.105468,0.421875 -0.257812,1.0546875 -0.257812,1.6054688 0,0.28125 0.03516,0.46875 0.07031,0.6210937 0.117188,0.3515625 0.210938,0.375 0.316407,0.375 0.164062,0 0.328125,-0.1523437 0.328125,-0.3164062 0,-0.058594 -0.01172,-0.082031 -0.05859,-0.1523438 -0.128906,-0.2578125 -0.257813,-0.65625 -0.257813,-1.2304687 0,-0.1289063 0,-0.4101563 0.105469,-0.9023438 h 0.867188 c 0.128906,0 0.1875,0 0.257812,-0.058594 0.09375,-0.070312 0.117188,-0.1757813 0.117188,-0.2109375 0,-0.1992188 -0.175782,-0.1992188 -0.292969,-0.1992188 h -2.636719 c -0.28125,0 -0.480469,0.058594 -0.796875,0.3515625 -0.175781,0.1640625 -0.445312,0.5390625 -0.445312,0.5976563 0,0.082031 0.09375,0.082031 0.117187,0.082031 0.07031,0 0.08203,-0.011719 0.128906,-0.070312 0.351563,-0.4921875 0.785157,-0.4921875 0.9375,-0.4921875 h 0.421875 c -0.210937,0.7617188 -0.585937,1.59375 -0.796875,2.0039063 -0.04687,0.09375 -0.117187,0.2460937 -0.140625,0.2695312 0,0.023437 -0.01172,0.058594 -0.01172,0.1054688 0,0.1054687 0.08203,0.2226562 0.246093,0.2226562 0.269532,0 0.351563,-0.3164062 0.515625,-0.9375 z m 0,0"
         style="fill:#000000;fill-opacity:1;fill-rule:nonzero;stroke:none" />
    </g>
    <path
       id="path38"
       d="M 0,0 H 8.88"
       style="fill:none;stroke:#000000;stroke-width:0.398;stroke-linecap:butt;stroke-linejoin:miter;stroke-miterlimit:10;stroke-dasharray:none;stroke-opacity:1"
       transform="matrix(1.3333333,0,0,-1.3333333,139.424,124.968)" />
    <g
       id="g38"
       aria-label="3&#10;)"
       transform="matrix(1.3333333,0,0,1.3333333,142.69733,132.86933)">
      <path
         id="path39"
         d="m 1.8998516,-2.3307109 c 0.5507812,0 0.9375,0.375 0.9375,1.125 0,0.86718746 -0.5039063,1.12499996 -0.9023438,1.12499996 -0.28125,0 -0.890625,-0.08203125 -1.18359374,-0.4921875 0.32812504,-0.0117188 0.39843754,-0.24609375 0.39843754,-0.38671875 0,-0.22265621 -0.16406254,-0.38671871 -0.38671879,-0.38671871 -0.1875,0 -0.38671875,0.1171875 -0.38671875,0.41015621 0,0.65625 0.72656254,1.078125 1.57031254,1.078125 0.9726562,0 1.640625,-0.64453125 1.640625,-1.34765621 0,-0.5390625 -0.4453125,-1.0898438 -1.21875,-1.2421875 0.7382812,-0.2695313 0.9960937,-0.796875 0.9960937,-1.21875 0,-0.5507813 -0.6328125,-0.9609375 -1.40625,-0.9609375 -0.7734375,0 -1.35937499,0.375 -1.35937499,0.9375 0,0.234375 0.15234375,0.3632812 0.36328125,0.3632812 0.21093754,0 0.35156254,-0.1640625 0.35156254,-0.3515625 0,-0.1992187 -0.140625,-0.3515625 -0.35156254,-0.3632812 0.23437504,-0.3046875 0.71484374,-0.3867188 0.97265624,-0.3867188 0.3164063,0 0.7617188,0.1523438 0.7617188,0.7617188 0,0.2929687 -0.1054688,0.609375 -0.28125,0.8320312 -0.234375,0.2578125 -0.421875,0.28125 -0.7734375,0.2929688 -0.1757813,0.023437 -0.1875,0.023437 -0.2226563,0.023437 -0.011719,0 -0.070312,0.011719 -0.070312,0.09375 0,0.09375 0.058594,0.09375 0.1757813,0.09375 z m 0,0"
         style="fill:#000000;fill-opacity:1;fill-rule:nonzero;stroke:none" />
      <path
         id="path40"
         d="m 10.504344,-5.9312969 c 0,-0.7734375 -0.117188,-1.9804687 -0.6562502,-3.1054687 C 9.2504375,-10.255516 8.38325,-10.911766 8.2895,-10.911766 c -0.058594,0 -0.1054687,0.04687 -0.1054687,0.105469 0,0.03516 0,0.04687 0.1992187,0.234375 0.9726563,0.9843751 1.5351563,2.5664064 1.5351563,4.6406251 0,1.7109375 -0.3632813,3.4570313 -1.59375,4.7226563 -0.140625,0.1171875 -0.140625,0.1289062 -0.140625,0.1640625 0,0.0585937 0.046875,0.10546873 0.1054687,0.10546873 0.09375,0 0.9960938,-0.67968753 1.5820313,-1.94531253 0.5039067,-1.1015625 0.6328127,-2.203125 0.6328127,-3.046875 z m 0,0"
         style="fill:#000000;fill-opacity:1;fill-rule:nonzero;stroke:none" />
    </g>
  </g>
</svg>
