<?xml version="1.0" encoding="UTF-8" standalone="no"?>
<!-- Created with Inkscape (http://www.inkscape.org/) -->

<svg
   version="1.1"
   id="svg1"
   width="182.44199"
   height="155.89842"
   viewBox="0 0 182.44199 155.89842"
   sodipodi:docname="4.3-ejemplo-funcion3.svg"
   inkscape:version="1.4.2 (f4327f4, 2025-05-13)"
   xmlns:inkscape="http://www.inkscape.org/namespaces/inkscape"
   xmlns:sodipodi="http://sodipodi.sourceforge.net/DTD/sodipodi-0.dtd"
   xmlns="http://www.w3.org/2000/svg"
   xmlns:svg="http://www.w3.org/2000/svg">
  <defs
     id="defs1" />
  <sodipodi:namedview
     id="namedview1"
     pagecolor="#ffffff"
     bordercolor="#000000"
     borderopacity="0.25"
     inkscape:showpageshadow="2"
     inkscape:pageopacity="0.0"
     inkscape:pagecheckerboard="0"
     inkscape:deskcolor="#d1d1d1"
     inkscape:zoom="2.2241536"
     inkscape:cx="94.193134"
     inkscape:cy="95.092353"
     inkscape:window-width="1920"
     inkscape:window-height="1009"
     inkscape:window-x="-8"
     inkscape:window-y="-8"
     inkscape:window-maximized="1"
     inkscape:current-layer="g1">
    <inkscape:page
       x="0"
       y="0"
       inkscape:label="42"
       id="page1"
       width="182.44199"
       height="155.89842"
       margin="0"
       bleed="0" />
  </sodipodi:namedview>
  <g
     id="g1"
     inkscape:groupmode="layer"
     inkscape:label="42"
     transform="translate(-147.78848,-86.535155)">
    <path
       id="path2"
       d="M -34.01564,0 H 90.2501"
       style="fill:none;stroke:#000000;stroke-width:0.3985;stroke-linecap:butt;stroke-linejoin:miter;stroke-miterlimit:10;stroke-dasharray:none;stroke-opacity:1"
       transform="matrix(1.3333333,0,0,-1.3333333,193.14267,181.96133)" />
    <path
       id="path3"
       d="M -1.19551,1.59401 C -1.09587,0.99626 0,0.09961 0.29886,0 0,-0.09961 -1.09587,-0.99626 -1.19551,-1.59401"
       style="fill:none;stroke:#000000;stroke-width:0.31879;stroke-linecap:round;stroke-linejoin:round;stroke-miterlimit:10;stroke-dasharray:none;stroke-opacity:1"
       transform="matrix(1.3333333,0,0,-1.3333333,313.47613,181.96133)" />
    <path
       id="path4"
       d="m 3.6447969,-3.2920859 c 0.070312,-0.28125 0.3164062,-1.2890625 1.078125,-1.2890625 0.058594,0 0.3164062,0 0.5507812,0.140625 -0.3046875,0.058594 -0.5273437,0.328125 -0.5273437,0.5859375 0,0.1757812 0.1171875,0.3867187 0.4101562,0.3867187 0.2460938,0 0.5976563,-0.1992187 0.5976563,-0.6328125 0,-0.5625 -0.6445313,-0.7265625 -1.0195313,-0.7265625 -0.6328125,0 -1.0195312,0.5859375 -1.1484375,0.8320313 -0.2695312,-0.7148438 -0.8554687,-0.8320313 -1.171875,-0.8320313 -1.1367187,0 -1.75781248,1.4179688 -1.75781248,1.6875 0,0.1054688 0.10546875,0.1054688 0.12890625,0.1054688 0.0820313,0 0.1171875,-0.023437 0.140625,-0.1171875 0.37500003,-1.1601563 1.08984373,-1.4296875 1.46484373,-1.4296875 0.2109375,0 0.5859375,0.09375 0.5859375,0.7265625 0,0.3398437 -0.1875,1.078125 -0.5859375,2.6015625 -0.1757812,0.67968746 -0.5625,1.13671871 -1.0429687,1.13671871 -0.058594,0 -0.3164063,0 -0.53906253,-0.140625 0.26953123,-0.0585938 0.51562503,-0.29296875 0.51562503,-0.59765625 0,-0.29296876 -0.2460938,-0.37499996 -0.41015628,-0.37499996 -0.328125,0 -0.59765625,0.28124996 -0.59765625,0.63281246 0,0.50390625 0.55078125,0.71484375 1.03125003,0.71484375 0.7148437,0 1.1015625,-0.76171875 1.1367187,-0.83203125 0.1289063,0.41015625 0.5273438,0.83203125 1.1835938,0.83203125 1.125,0 1.7460937,-1.40625001 1.7460937,-1.67578121 0,-0.1054688 -0.1054687,-0.1054688 -0.1289062,-0.1054688 -0.1054688,0 -0.1289063,0.035156 -0.140625,0.1171875 -0.3632813,1.16015626 -1.1132813,1.42968751 -1.453125,1.42968751 -0.4335938,0 -0.609375,-0.3515625 -0.609375,-0.7265625 0,-0.23437501 0.070312,-0.48046871 0.1875,-0.96093751 z m 0,0"
       style="fill:#000000;fill-opacity:1;fill-rule:nonzero;stroke:none"
       aria-label="x"
       transform="matrix(1.3333333,0,0,1.3333333,309.92933,193.33867)" />
    <path
       id="path5"
       d="M 0,-45.35419 V 67.57301"
       style="fill:none;stroke:#000000;stroke-width:0.3985;stroke-linecap:butt;stroke-linejoin:miter;stroke-miterlimit:10;stroke-dasharray:none;stroke-opacity:1"
       transform="matrix(1.3333333,0,0,-1.3333333,193.14267,181.96133)" />
    <path
       id="path6"
       d="M -1.19551,1.59401 C -1.09587,0.99626 0,0.09961 0.29886,0 0,-0.09961 -1.09587,-0.99626 -1.19551,-1.59401"
       style="fill:none;stroke:#000000;stroke-width:0.31879;stroke-linecap:round;stroke-linejoin:round;stroke-miterlimit:10;stroke-dasharray:none;stroke-opacity:1"
       transform="matrix(0,-1.3333333,-1.3333333,0,193.14267,91.863987)" />
    <path
       id="path7"
       d="M 5.296125,-4.1596641 C 5.343,-4.3120078 5.343,-4.3354453 5.343,-4.4057578 c 0,-0.1992188 -0.1523438,-0.2929688 -0.3164063,-0.2929688 -0.1054687,0 -0.28125,0.058594 -0.375,0.2226563 -0.023437,0.058594 -0.1171875,0.3984375 -0.1523437,0.5976562 -0.082031,0.28125 -0.1523438,0.5742188 -0.2226563,0.8671875 l -0.4921875,1.96875 c -0.046875,0.16406254 -0.515625,0.92578129 -1.2304687,0.92578129 -0.5625,0 -0.6796875,-0.48046875 -0.6796875,-0.89062499 0,-0.4921875 0.1875,-1.171875 0.5625,-2.1328125 0.1757812,-0.4453125 0.2109375,-0.5742188 0.2109375,-0.7851563 0,-0.4921875 -0.3515625,-0.9023437 -0.890625,-0.9023437 -1.04296875,0 -1.44140625,1.5820312 -1.44140625,1.6875 0,0.1054687 0.10546875,0.1054687 0.12890625,0.1054687 0.10546875,0 0.1171875,-0.023437 0.17578125,-0.1992187 0.29296875,-1.0195313 0.72656245,-1.3476563 1.10156245,-1.3476563 0.09375,0 0.2695313,0 0.2695313,0.3515625 0,0.2695313 -0.1054688,0.5507813 -0.1757813,0.7617188 -0.4453125,1.1601562 -0.6328125,1.78125 -0.6328125,2.2851562 0,0.97265629 0.6796875,1.30078129 1.3242188,1.30078129 0.421875,0 0.796875,-0.1875 1.1015625,-0.4921875 C 3.468,0.19971094 3.3390937,0.72705469 2.9055,1.3129922 2.6125312,1.6762734 2.202375,1.9926797 1.6984687,1.9926797 c -0.1523437,0 -0.6445312,-0.023437 -0.8320312,-0.4570313 0.1757812,0 0.3164062,0 0.4804687,-0.1289062 0.1054688,-0.09375 0.2109375,-0.234375 0.2109375,-0.44531251 0,-0.33984375 -0.2929687,-0.38671875 -0.3984375,-0.38671875 -0.25781245,0 -0.60937495,0.17578125 -0.60937495,0.71484376 0,0.5390625 0.48046875,0.9492187 1.14843745,0.9492187 1.125,0 2.25,-0.9960937 2.5546875,-2.22656246 z m 0,0"
       style="fill:#000000;fill-opacity:1;fill-rule:nonzero;stroke:none"
       aria-label="y"
       transform="matrix(1.3333333,0,0,1.3333333,180.376,92.972)" />
    <path
       id="path8"
       d="m -22.6771,35.99507 c 0,0 0.6619,-0.79054 0.91611,-1.09535 0.25422,-0.3048 0.6619,-0.79466 0.91611,-1.10156 0.2542,-0.30692 0.6619,-0.80091 0.91609,-1.1104 0.25421,-0.30948 0.6619,-0.80806 0.91611,-1.12026 0.25423,-0.31217 0.6619,-0.81477 0.91611,-1.12976 0.25419,-0.315 0.66187,-0.8222 0.91609,-1.14051 0.25421,-0.3183 0.66189,-0.83197 0.91611,-1.15364 0.25421,-0.32166 0.66189,-0.83945 0.91609,-1.16472 0.25421,-0.32526 0.66189,-0.85013 0.91611,-1.1796 0.25421,-0.32947 0.66189,-0.86087 0.9161,-1.19499 0.2542,-0.33414 0.6619,-0.87378 0.91609,-1.21317 0.25422,-0.33938 0.6619,-0.8878 0.91611,-1.23289 0.25421,-0.34509 0.6619,-0.90277 0.91611,-1.25434 0.25419,-0.35158 0.66189,-0.9205 0.91609,-1.27961 0.25421,-0.3591 0.6619,-0.94087 0.91611,-1.30866 0.25421,-0.36778 0.66189,-0.96417 0.91611,-1.34207 0.25419,-0.37788 0.66188,-0.99142 0.91609,-1.3815 0.25421,-0.39009 0.66189,-1.02527 0.9161,-1.42994 0.25422,-0.40468 0.6619,-1.06415 0.9161,-1.4867 0.25421,-0.42253 0.66189,-1.11205 0.9161,-1.55867 0.25421,-0.44664 0.6619,-1.18076 0.91611,-1.6604 0.2542,-0.47965 0.6619,-1.26769 0.91609,-1.79656 0.25421,-0.52888 0.6619,-1.397 0.91611,-2.01525 0.25421,-0.61824 0.6619,-1.86522 0.91611,-2.44069 0.25419,-0.57547 0.66188,-1.87766 0.91604,-1.70694 0.25423,0.17071 0.66191,2.23747 0.91613,2.93739 0.25421,0.69995 0.66187,1.56851 0.9161,2.1073 0.2542,0.53879 0.66187,1.30959 0.91609,1.77597 0.25422,0.4664 0.6619,1.16548 0.91611,1.5855 0.25421,0.42001 0.6619,1.05609 0.91609,1.44171 0.25421,0.38562 0.66188,0.9785 0.91611,1.33755 0.25421,0.35909 0.66188,0.91339 0.91609,1.25037 0.25421,0.33699 0.66191,0.86017 0.91611,1.1784 0.25421,0.31822 0.66188,0.81334 0.91611,1.11522 0.25421,0.30191 0.66188,0.77318 0.91609,1.06058 0.25421,0.28737 0.66189,0.7364 0.91609,1.01072 0.25423,0.27435 0.6619,0.70402 0.91612,0.96647 0.25421,0.26243 0.66188,0.67369 0.91611,0.92509 0.2542,0.25141 0.66187,0.64553 0.91608,0.88687 0.25422,0.24135 0.66191,0.62075 0.91612,0.8526 0.25421,0.23186 0.66188,0.59567 0.91609,0.81852 0.25421,0.22285 0.66188,0.57324 0.91609,0.78756 0.25423,0.21431 0.6619,0.55088 0.91611,0.7571 0.2542,0.20624 0.6619,0.53082 0.91611,0.72925 0.25421,0.19842 0.66188,0.50996 0.91609,0.70086 0.25423,0.19092 0.6619,0.49131 0.91611,0.67511 0.25421,0.18381 0.66189,0.47277 0.9161,0.64965 0.25422,0.17691 0.66188,0.45527 0.91611,0.62527 0.25421,0.17001 0.66188,0.43651 0.91609,0.60001 0.25421,0.1635 0.66188,0.42126 0.91609,0.5784 0.25422,0.1571 0.6619,0.40332 0.91613,0.55397 0.25421,0.15067 0.66188,0.38749 0.91607,0.53184 0.25423,0.14433 0.6619,0.37021 0.91611,0.50849 0.25421,0.13826 0.6619,0.35589 0.91611,0.48806 0.25419,0.13218 0.66189,0.3386 0.91609,0.46454 0.25423,0.12595 0.6619,0.32328 0.91611,0.44326 0.25422,0.12001 0.66189,0.30749 0.9161,0.42163 0.2542,0.11415 0.6619,0.29292 0.91611,0.40105 0.25421,0.1081 0.66188,0.27615 0.91609,0.3782 0.25423,0.10205 0.6619,0.26123 0.91611,0.35728 0.2542,0.09602 0.66188,0.2448 0.91609,0.33495 0.25421,0.09016 0.6619,0.23083 0.91611,0.31489 0.25423,0.08403 0.6619,0.21321 0.91609,0.29082 0.25421,0.07761 0.6619,0.19686 0.91611,0.26852 0.25421,0.07164 0.66189,0.18247 0.91611,0.24793 0.25421,0.06546 0.66189,0.1649 0.91609,0.22388 0.25423,0.05897 0.66189,0.14859 0.91611,0.2012 0.25421,0.05263 0.66189,0.13213 0.9161,0.17804 0.2542,0.04589 0.6619,0.11383 0.91609,0.15277 0.25423,0.03892 0.6619,0.09581 0.91611,0.12785 0.25422,0.03206 0.6619,0.07814 0.91611,0.10311 0.2542,0.02496 0.66188,0.05918 0.91609,0.07681 0.25421,0.01765 0.6619,0.04028 0.91611,0.05035 0.25421,0.0101 0.66189,0.02013 0.91609,0.02234 0.25421,0.0022 0.6619,-9e-5 0.91611,-0.0064 0.25421,-0.0063 0.66189,-0.02435 0.91611,-0.03909 0.2542,-0.01477 0.66189,-0.04373 0.91609,-0.06732 0.25421,-0.02359 0.66189,-0.06957 0.91611,-0.10277 0.2542,-0.03317 0.66189,-0.09332 0.9161,-0.1365 0.2542,-0.04319 0.6619,-0.12081 0.9161,-0.17473 0.2542,-0.05394 0.66189,-0.1487 0.9161,-0.21402 0.25421,-0.06534 0.6619,-0.17969 0.9161,-0.25693 0.2542,-0.07724 0.66189,-0.20963 0.9161,-0.29984 0.25421,-0.09021 0.6619,-0.24588 0.9161,-0.35035 0.25422,-0.10446 0.6619,-0.28263 0.9161,-0.40259 0.25421,-0.11998 0.6619,-0.32497 0.9161,-0.46213 0.25422,-0.13714 0.6619,-0.37041 0.91611,-0.52647 0.2542,-0.15605 0.6619,-0.42081 0.91609,-0.59829 0.25422,-0.17745 0.6619,-0.4789 0.91611,-0.6808 0.25421,-0.20185 0.66189,-0.54394 0.91611,-0.77421 0.25419,-0.23029 0.66189,-0.62175 0.91609,-0.88549 0.25421,-0.26376 0.66189,-0.71122 0.91611,-1.01542 0.25421,-0.30418 0.66189,-0.82216 0.9161,-1.17698 0.2542,-0.35485 0.66188,-0.95957 0.9161,-1.38047 0.25421,-0.42091 0.66189,-1.14026 0.9161,-1.65313 0.25422,-0.5129 0.6619,-1.3892 0.9161,-2.04346 0.25421,-0.65427 0.66189,-1.75283 0.9161,-2.67202 0.25421,-0.91919 0.6619,-1.73048 0.91611,-3.95298 0.2542,-2.22252 0.91609,-12.06537 0.91609,-12.06537"
       style="fill:none;stroke:#eb0a36;stroke-width:0.79701;stroke-linecap:butt;stroke-linejoin:miter;stroke-miterlimit:10;stroke-dasharray:none;stroke-opacity:1"
       transform="matrix(1.3333333,0,0,-1.3333333,193.14267,181.96133)" />
    <path
       id="path9"
       d="m 68.0313,0 c 0,0 0.08262,-6.68243 0.11435,-8.09991 0.03173,-1.41749 0.08264,-1.61605 0.11436,-2.11629 0.03172,-0.50025 0.08263,-1.11711 0.11436,-1.48912 0.03173,-0.37201 0.08263,-0.88638 0.11437,-1.19206 0.03174,-0.30567 0.08263,-0.74756 0.11436,-1.01108 0.03173,-0.26354 0.08263,-0.65434 0.11435,-0.88824 0.03173,-0.23391 0.08263,-0.58602 0.11437,-0.79758 0.03174,-0.21158 0.08264,-0.53319 0.11436,-0.72736 0.03174,-0.19418 0.08264,-0.49191 0.11437,-0.67216 0.03172,-0.18024 0.08262,-0.45829 0.11435,-0.62699 0.03173,-0.16871 0.08264,-0.43001 0.11436,-0.58894 0.03174,-0.15894 0.08263,-0.40602 0.11437,-0.55657 0.03173,-0.15057 0.08262,-0.38525 0.11436,-0.52856 0.03172,-0.14331 0.08261,-0.36734 0.11436,-0.50434 0.03173,-0.13699 0.08262,-0.35179 0.11435,-0.48304 0.03174,-0.13126 0.08263,-0.33682 0.11437,-0.46298 0.03173,-0.12618 0.08263,-0.32456 0.11436,-0.44637 0.03173,-0.12184 0.08261,-0.31401 0.11437,-0.43169 0.03172,-0.11766 0.08261,-0.30261 0.11436,-0.41644 0.03173,-0.11381 0.08261,-0.29326 0.11437,-0.40398 0.03172,-0.11071 0.08261,-0.28628 0.11435,-0.39393 0.03172,-0.10767 0.08261,-0.27741 0.11436,-0.38202 0.03172,-0.10461 0.08261,-0.26997 0.11436,-0.37198 0.03174,-0.10202 0.08262,-0.26378 0.11437,-0.36333 0.03173,-0.09953 0.08261,-0.25695 0.11435,-0.35415 0.03174,-0.09719 0.08261,-0.25124 0.11436,-0.34638 0.03174,-0.09512 0.08263,-0.24623 0.11437,-0.33926 0.03174,-0.09305 0.08263,-0.24028 0.11436,-0.33133 0.03173,-0.09105 0.08261,-0.23555 0.11435,-0.32492 0.03174,-0.08936 0.08263,-0.23148 0.11437,-0.3192 0.03174,-0.08774 0.08262,-0.22697 0.11436,-0.31316 0.03174,-0.08616 0.08263,-0.22323 0.11437,-0.30796 0.03172,-0.08474 0.08261,-0.21947 0.11436,-0.30278 0.03172,-0.08329 0.08261,-0.21563 0.11435,-0.29757 0.03174,-0.08195 0.08263,-0.21231 0.11437,-0.29309 0.03173,-0.08076 0.08262,-0.20953 0.11436,-0.28909 0.03172,-0.07959 0.08261,-0.20624 0.11436,-0.28445 0.03173,-0.0782 0.08262,-0.20186 0.11437,-0.27922 0.03172,-0.07738 0.08261,-0.20194 0.11435,-0.27838 0.03174,-0.07645 0.08262,-0.19745 0.11435,-0.27268 0.03174,-0.07522 0.08262,-0.19527 0.11437,-0.26955 0.03173,-0.07429 0.08262,-0.19259 0.11436,-0.26593 0.03175,-0.07332 0.08264,-0.19021 0.11436,-0.26263 0.03174,-0.07242 0.08263,-0.18767 0.11435,-0.25934 0.03175,-0.07169 0.08263,-0.18646 0.11437,-0.25727 0.03175,-0.07081 0.08264,-0.18314 0.11436,-0.25312 0.03175,-0.06996 0.08264,-0.18192 0.11437,-0.25122 0.03173,-0.06929 0.08262,-0.17969 0.11436,-0.24826 0.03174,-0.06859 0.08263,-0.17809 0.11435,-0.24603 0.03175,-0.06794 0.08264,-0.17643 0.11436,-0.2436 0.03176,-0.0672 0.08265,-0.17414 0.11437,-0.24066 0.03174,-0.06653 0.08262,-0.17281 0.11436,-0.23877 0.03174,-0.06596 0.08263,-0.17143 0.11435,-0.23668 0.03176,-0.06524 0.08264,-0.169 0.11437,-0.23356 0.03175,-0.06455 0.08264,-0.16748 0.11436,-0.23166 0.03174,-0.06418 0.08263,-0.16725 0.11437,-0.23097 0.03173,-0.06374 0.08262,-0.1653 0.11436,-0.22837 0.03174,-0.06309 0.08262,-0.16382 0.11437,-0.22632 0.03173,-0.06251 0.08262,-0.16218 0.11435,-0.22421 0.03173,-0.06202 0.08262,-0.16119 0.11436,-0.22284 0.03174,-0.06164 0.08263,-0.16031 0.11436,-0.22146 0.03176,-0.06116 0.08265,-0.15877 0.11437,-0.21938 0.03174,-0.06062 0.08263,-0.15744 0.11435,-0.21749 0.03175,-0.06002 0.08262,-0.15562 0.11436,-0.2152 0.03176,-0.05962 0.08264,-0.15485 0.11437,-0.21437 0.03175,-0.05953 0.08264,-0.15572 0.11436,-0.21471 0.03174,-0.05901 0.08263,-0.15225 0.11437,-0.21057 0.03172,-0.0583 0.08262,-0.15158 0.11435,-0.20967 0.03173,-0.05812 0.08264,-0.15117 0.11436,-0.20918 0.03174,-0.05802 0.08264,-0.15137 0.11437,-0.209 0.03172,-0.05764 0.08262,-0.1493 0.11436,-0.2064 0.03172,-0.05711 0.08263,-0.14846 0.11435,-0.2052 0.03174,-0.05674 0.08264,-0.14741 0.11436,-0.2038 0.03174,-0.05642 0.08265,-0.1467 0.11437,-0.20278 0.03172,-0.05608 0.08262,-0.14565 0.11436,-0.20139 0.03172,-0.05573 0.08263,-0.14493 0.11437,-0.20034 0.03172,-0.05544 0.08262,-0.14411 0.11436,-0.19915 0.03173,-0.05504 0.08263,-0.14282 0.11435,-0.19758 0.03172,-0.05475 0.08263,-0.14241 0.11437,-0.19706 0.03173,-0.05462 0.08262,-0.14248 0.11436,-0.19671 0.03174,-0.05423 0.08264,-0.14015 0.11437,-0.19412 0.03172,-0.05396 0.08262,-0.14107 0.11434,-0.19481 0.03174,-0.05374 0.08265,-0.13926 0.11437,-0.19257 0.03174,-0.05331 0.08264,-0.13859 0.11436,-0.19169 0.03174,-0.05309 0.08265,-0.13813 0.11437,-0.191 0.03172,-0.0529 0.08263,-0.13745 0.11436,-0.19015 0.03173,-0.05272 0.08263,-0.13749 0.11435,-0.18979 0.03174,-0.05231 0.08264,-0.13513 0.11437,-0.18721 0.03174,-0.05207 0.08264,-0.13623 0.11436,-0.18807 0.03173,-0.05182 0.08264,-0.13376 0.11436,-0.18547 0.03173,-0.05169 0.08263,-0.13559 0.11436,-0.18719 0.03174,-0.05161 0.08264,-0.13361 0.11436,-0.18477 0.03174,-0.05118 0.08264,-0.13319 0.11437,-0.1841 0.03172,-0.05087 0.08262,-0.13195 0.11436,-0.18269 0.03172,-0.05076 0.08263,-0.1324 0.11436,-0.18305 0.03173,-0.05066 0.08263,-0.13166 0.11437,-0.18202 0.03172,-0.05032 0.08262,-0.13063 0.11435,-0.18079 0.03172,-0.05017 0.08262,-0.13084 0.11437,-0.1808 0.03173,-0.04995 0.11436,-0.17924 0.11436,-0.17924"
       style="fill:none;stroke:#eb0a36;stroke-width:0.79701;stroke-linecap:butt;stroke-linejoin:miter;stroke-miterlimit:10;stroke-dasharray:none;stroke-opacity:1"
       transform="matrix(1.3333333,0,0,-1.3333333,193.14267,181.96133)" />
    <path
       id="path10"
       d="M 68.0313,0 67.97455,5.66925"
       style="fill:none;stroke:#eb0a36;stroke-width:0.79701;stroke-linecap:butt;stroke-linejoin:miter;stroke-miterlimit:10;stroke-dasharray:none;stroke-opacity:1"
       transform="matrix(1.3333333,0,0,-1.3333333,193.14267,181.96133)" />
    <g
       id="g10"
       aria-label="f(x)=x&#10;2/3&#10;(6−x)&#10;1/3"
       transform="matrix(1.3333333,0,0,1.3333333,206.05467,125.72667)">
      <path
         id="path11"
         d="m 3.6562656,-3.9844531 h 0.8554688 c 0.1992187,0 0.3046875,0 0.3046875,-0.1992188 0,-0.1054687 -0.1054688,-0.1054687 -0.2695313,-0.1054687 H 3.7148594 l 0.2109375,-1.1367188 c 0.035156,-0.2109375 0.1757812,-0.9140625 0.234375,-1.0429687 0.09375,-0.1875 0.2578125,-0.3398438 0.46875,-0.3398438 0.046875,0 0.3046875,0 0.4921875,0.1875 -0.4335938,0.035156 -0.5390625,0.3867188 -0.5390625,0.5390625 0,0.2226563 0.1757812,0.3398438 0.3632812,0.3398438 0.2695313,0 0.5507813,-0.2109375 0.5507813,-0.5976563 0,-0.4570312 -0.4570313,-0.6796875 -0.8671875,-0.6796875 -0.3398438,0 -0.9609375,0.1757813 -1.265625,1.1601563 -0.058594,0.2109375 -0.082031,0.3164062 -0.328125,1.5703125 H 2.3554844 c -0.1992188,0 -0.3046875,0 -0.3046875,0.1875 0,0.1171875 0.09375,0.1171875 0.28125,0.1171875 h 0.65625 l -0.75,3.93749998 C 2.0625156,0.91398438 1.8984531,1.8280469 1.3711094,1.8280469 c -0.035156,0 -0.28125,0 -0.46875003,-0.1875 C 1.3593906,1.6171094 1.4414219,1.2538281 1.4414219,1.1014844 c 0,-0.22265627 -0.1757813,-0.33984377 -0.3632813,-0.33984377 -0.25781248,0 -0.55078123,0.2109375 -0.55078123,0.59765627 0,0.4453125 0.43359375,0.6796875 0.84375003,0.6796875 0.5507812,0 0.9492187,-0.5859375 1.125,-0.9609375 0.328125,-0.63281252 0.5507812,-1.83984377 0.5625,-1.91015627 z m 0,0"
         style="fill:#eb0a36;fill-opacity:1;fill-rule:nonzero;stroke:none" />
      <path
         id="path12"
         d="m 9.2461094,2.3905469 c 0,-0.035156 0,-0.046875 -0.1640625,-0.2226563 -1.2421875,-1.25390622 -1.5703125,-3.12890622 -1.5703125,-4.6640625 0,-1.7226562 0.3867187,-3.4570312 1.6054687,-4.7109375 0.1289063,-0.1171875 0.1289063,-0.1289062 0.1289063,-0.1640625 0,-0.070312 -0.035156,-0.1054687 -0.09375,-0.1054687 -0.1054688,0 -0.9960938,0.6796875 -1.5820313,1.9453125 -0.515625,1.1015625 -0.6328125,2.203125 -0.6328125,3.0351562 0,0.7851563 0.1171875,1.99218753 0.65625,3.11718753 0.5976563,1.21874997 1.453125,1.87499997 1.5585938,1.87499997 0.058594,0 0.09375,-0.035156 0.09375,-0.1054687 z m 0,0"
         style="fill:#eb0a36;fill-opacity:1;fill-rule:nonzero;stroke:none" />
      <path
         id="path13"
         d="m 13.157242,-3.0117969 c 0.05859,-0.2578125 0.292969,-1.171875 0.984375,-1.171875 0.04687,0 0.292969,0 0.503906,0.1289063 -0.28125,0.046875 -0.480468,0.3046875 -0.480468,0.5390625 0,0.1640625 0.105468,0.3515625 0.375,0.3515625 0.222656,0 0.539062,-0.1875 0.539062,-0.5859375 0,-0.515625 -0.585937,-0.65625 -0.925781,-0.65625 -0.574219,0 -0.925781,0.5273437 -1.042969,0.7617187 -0.257812,-0.65625 -0.785156,-0.7617187 -1.078125,-0.7617187 -1.042969,0 -1.605469,1.2890625 -1.605469,1.5351562 0,0.1054688 0.105469,0.1054688 0.117188,0.1054688 0.08203,0 0.117187,-0.023437 0.128906,-0.1171875 0.339844,-1.0546875 0.996094,-1.3007813 1.335938,-1.3007813 0.1875,0 0.539062,0.09375 0.539062,0.6679688 0,0.3046875 -0.164062,0.9726562 -0.539062,2.3671875 -0.152344,0.62109373 -0.503907,1.04296873 -0.949219,1.04296873 -0.05859,0 -0.28125,0 -0.492188,-0.12890625 0.246094,-0.0585938 0.46875,-0.26953125 0.46875,-0.5390625 0,-0.26953128 -0.222656,-0.35156248 -0.375,-0.35156248 -0.292968,0 -0.539062,0.25781248 -0.539062,0.57421873 0,0.45703125 0.492187,0.65625 0.9375,0.65625 0.65625,0 1.007812,-0.69140625 1.042969,-0.75 0.117187,0.36328125 0.480468,0.75 1.078125,0.75 1.019531,0 1.59375,-1.27734373 1.59375,-1.53515623 0,-0.09375 -0.09375,-0.09375 -0.128907,-0.09375 -0.08203,0 -0.105468,0.035156 -0.128906,0.1054687 -0.328125,1.06640628 -0.996094,1.31250003 -1.324219,1.31250003 -0.386718,0 -0.539062,-0.328125 -0.539062,-0.65625 0,-0.22265625 0.05859,-0.44531253 0.164062,-0.87890623 z m 0,0"
         style="fill:#eb0a36;fill-opacity:1;fill-rule:nonzero;stroke:none" />
      <path
         id="path14"
         d="m 18.404312,-2.4961719 c 0,-0.7734375 -0.117187,-1.9804687 -0.65625,-3.1054687 -0.597656,-1.21875 -1.464843,-1.875 -1.558593,-1.875 -0.05859,0 -0.105469,0.046875 -0.105469,0.1054687 0,0.035156 0,0.046875 0.199219,0.234375 0.972656,0.984375 1.535156,2.5664063 1.535156,4.640625 0,1.71093753 -0.363281,3.45703128 -1.59375,4.7226563 C 16.084,2.3436719 16.084,2.3553906 16.084,2.3905469 c 0,0.058594 0.04687,0.1054687 0.105469,0.1054687 0.09375,0 0.996093,-0.6796875 1.582031,-1.94531247 0.503906,-1.1015625 0.632812,-2.20312503 0.632812,-3.04687503 z m 10.59668,-0.7617187 c 0.152344,0 0.339844,0 0.339844,-0.1992188 0,-0.1992187 -0.1875,-0.1992187 -0.328125,-0.1992187 h -5.964844 c -0.140625,0 -0.328125,0 -0.328125,0.1992187 0,0.1992188 0.1875,0.1992188 0.339844,0.1992188 z m 0.01172,1.9335937 c 0.140625,0 0.328125,0 0.328125,-0.1992187 0,-0.1992188 -0.1875,-0.1992188 -0.339844,-0.1992188 h -5.941406 c -0.152344,0 -0.339844,0 -0.339844,0.1992188 0,0.1992187 0.1875,0.1992187 0.328125,0.1992187 z m 0,0"
         style="fill:#eb0a36;fill-opacity:1;fill-rule:nonzero;stroke:none" />
      <path
         id="path15"
         d="m 36.002945,-3.0117969 c 0.05859,-0.2578125 0.292969,-1.171875 0.984375,-1.171875 0.04687,0 0.292969,0 0.503907,0.1289063 -0.28125,0.046875 -0.480469,0.3046875 -0.480469,0.5390625 0,0.1640625 0.105469,0.3515625 0.375,0.3515625 0.222656,0 0.539062,-0.1875 0.539062,-0.5859375 0,-0.515625 -0.585937,-0.65625 -0.925781,-0.65625 -0.574219,0 -0.925781,0.5273437 -1.042969,0.7617187 -0.257812,-0.65625 -0.785156,-0.7617187 -1.078125,-0.7617187 -1.042968,0 -1.605468,1.2890625 -1.605468,1.5351562 0,0.1054688 0.105468,0.1054688 0.117187,0.1054688 0.08203,0 0.117188,-0.023437 0.128906,-0.1171875 0.339844,-1.0546875 0.996094,-1.3007813 1.335938,-1.3007813 0.1875,0 0.539062,0.09375 0.539062,0.6679688 0,0.3046875 -0.164062,0.9726562 -0.539062,2.3671875 -0.152344,0.62109373 -0.503906,1.04296873 -0.949219,1.04296873 -0.05859,0 -0.28125,0 -0.492187,-0.12890625 0.246093,-0.0585938 0.46875,-0.26953125 0.46875,-0.5390625 0,-0.26953128 -0.222657,-0.35156248 -0.375,-0.35156248 -0.292969,0 -0.539063,0.25781248 -0.539063,0.57421873 0,0.45703125 0.492188,0.65625 0.9375,0.65625 0.65625,0 1.007813,-0.69140625 1.042969,-0.75 0.117187,0.36328125 0.480469,0.75 1.078125,0.75 1.019531,0 1.59375,-1.27734373 1.59375,-1.53515623 0,-0.09375 -0.09375,-0.09375 -0.128906,-0.09375 -0.08203,0 -0.105469,0.035156 -0.128907,0.1054687 -0.328125,1.06640628 -0.996093,1.31250003 -1.324218,1.31250003 -0.386719,0 -0.539063,-0.328125 -0.539063,-0.65625 0,-0.22265625 0.05859,-0.44531253 0.164063,-0.87890623 z m 0,0"
         style="fill:#eb0a36;fill-opacity:1;fill-rule:nonzero;stroke:none" />
      <path
         id="path16"
         d="m 41.885758,-4.8809375 h -0.234375 c -0.02344,0.1523438 -0.08203,0.5625 -0.175781,0.6328125 -0.05859,0.035156 -0.597657,0.035156 -0.691407,0.035156 h -1.289062 c 0.738281,-0.6445313 0.984375,-0.84375 1.394531,-1.171875 0.515625,-0.4101563 0.996094,-0.84375 0.996094,-1.5 0,-0.84375 -0.738281,-1.359375 -1.628906,-1.359375 -0.867188,0 -1.453125,0.609375 -1.453125,1.2421875 0,0.3632812 0.304687,0.3984375 0.375,0.3984375 0.164062,0 0.375,-0.1171875 0.375,-0.375 0,-0.1289063 -0.05859,-0.3632813 -0.421875,-0.3632813 0.222656,-0.5039062 0.691406,-0.65625 1.019531,-0.65625 0.703125,0 1.066406,0.5507813 1.066406,1.1132813 0,0.609375 -0.433594,1.0898437 -0.65625,1.3359375 l -1.6875,1.6640625 c -0.07031,0.058594 -0.07031,0.070312 -0.07031,0.2695312 h 2.882812 z m 0,0"
         style="fill:#eb0a36;fill-opacity:1;fill-rule:nonzero;stroke:none" />
      <path
         id="path17"
         d="m 45.834977,-8.5371875 c 0.04687,-0.09375 0.04687,-0.1054687 0.04687,-0.1289062 0,-0.1171875 -0.09375,-0.1757813 -0.175782,-0.1757813 -0.117187,0 -0.152343,0.082031 -0.1875,0.1757813 l -2.601562,6.4921875 c -0.03516,0.082031 -0.03516,0.09375 -0.03516,0.1289062 0,0.1054688 0.09375,0.1757813 0.164062,0.1757813 0.117188,0 0.152344,-0.082031 0.1875,-0.1757813 z m 0,0"
         style="fill:#eb0a36;fill-opacity:1;fill-rule:nonzero;stroke:none" />
      <path
         id="path18"
         d="m 48.322281,-5.9473437 c 0.550781,0 0.9375,0.375 0.9375,1.125 0,0.8671875 -0.503906,1.125 -0.902344,1.125 -0.28125,0 -0.890625,-0.082031 -1.183593,-0.4921875 0.328125,-0.011719 0.398437,-0.2460938 0.398437,-0.3867188 0,-0.2226562 -0.164062,-0.3867187 -0.386719,-0.3867187 -0.1875,0 -0.386718,0.1171875 -0.386718,0.4101562 0,0.65625 0.726562,1.078125 1.570312,1.078125 0.972656,0 1.640625,-0.6445312 1.640625,-1.3476562 0,-0.5390625 -0.445312,-1.0898438 -1.21875,-1.2421875 0.738281,-0.2695313 0.996094,-0.796875 0.996094,-1.21875 0,-0.5507813 -0.632813,-0.9609375 -1.40625,-0.9609375 -0.773438,0 -1.359375,0.375 -1.359375,0.9375 0,0.234375 0.152344,0.3632812 0.363281,0.3632812 0.210938,0 0.351563,-0.1640625 0.351563,-0.3515625 0,-0.1992187 -0.140625,-0.3515625 -0.351563,-0.3632812 C 47.619156,-7.9629687 48.099625,-8.045 48.357437,-8.045 c 0.316407,0 0.761719,0.1523438 0.761719,0.7617188 0,0.2929687 -0.105469,0.609375 -0.28125,0.8320312 -0.234375,0.2578125 -0.421875,0.28125 -0.773437,0.2929688 -0.175782,0.023437 -0.1875,0.023437 -0.222657,0.023437 -0.01172,0 -0.07031,0.011719 -0.07031,0.09375 0,0.09375 0.05859,0.09375 0.175781,0.09375 z m 0,0"
         style="fill:#eb0a36;fill-opacity:1;fill-rule:nonzero;stroke:none" />
      <path
         id="path19"
         d="m 54.184586,2.3905469 c 0,-0.035156 0,-0.046875 -0.164063,-0.2226563 -1.242187,-1.25390622 -1.570312,-3.12890622 -1.570312,-4.6640625 0,-1.7226562 0.386719,-3.4570312 1.605469,-4.7109375 0.128906,-0.1171875 0.128906,-0.1289062 0.128906,-0.1640625 0,-0.070312 -0.03516,-0.1054687 -0.09375,-0.1054687 -0.105469,0 -0.996094,0.6796875 -1.582031,1.9453125 -0.515625,1.1015625 -0.632813,2.203125 -0.632813,3.0351562 0,0.7851563 0.117188,1.99218753 0.65625,3.11718753 0.597656,1.21874997 1.453125,1.87499997 1.558594,1.87499997 0.05859,0 0.09375,-0.035156 0.09375,-0.1054687 z m 1.895508,-5.6601563 v -0.234375 c 0,-2.5195312 1.242187,-2.8828125 1.746093,-2.8828125 0.234375,0 0.65625,0.058594 0.878907,0.3984375 -0.152344,0 -0.550782,0 -0.550782,0.4453125 0,0.3164063 0.234375,0.4570313 0.457032,0.4570313 0.164062,0 0.457031,-0.082031 0.457031,-0.46875 0,-0.5976563 -0.433594,-1.078125 -1.265625,-1.078125 -1.277344,0 -2.613281,1.2890625 -2.613281,3.4804687 0,2.66015628 1.148437,3.37500003 2.074218,3.37500003 1.113282,0 2.050782,-0.9375 2.050782,-2.25000003 0,-1.265625 -0.878907,-2.2265625 -1.992188,-2.2265625 -0.667969,0 -1.042969,0.5039063 -1.242187,0.984375 z m 1.183593,3.21093753 c -0.621093,0 -0.925781,-0.59765625 -0.984375,-0.75 -0.175781,-0.46875003 -0.175781,-1.26562503 -0.175781,-1.44140623 0,-0.7734375 0.316406,-1.7695313 1.21875,-1.7695313 0.152344,0 0.609375,0 0.925781,0.609375 0.175782,0.375 0.175782,0.8789063 0.175782,1.3710938 0,0.4804687 0,0.9726562 -0.164063,1.33593748 -0.304687,0.59765625 -0.761719,0.64453125 -0.996094,0.64453125 z m 0,0"
         style="fill:#eb0a36;fill-opacity:1;fill-rule:nonzero;stroke:none" />
      <path
         id="path20"
         d="m 68.522477,-2.2969531 c 0.175781,0 0.351562,0 0.351562,-0.1992188 0,-0.1992187 -0.175781,-0.1992187 -0.351562,-0.1992187 h -5.390625 c -0.164063,0 -0.339844,0 -0.339844,0.1992187 0,0.1992188 0.175781,0.1992188 0.339844,0.1992188 z m 0,0"
         style="fill:#eb0a36;fill-opacity:1;fill-rule:nonzero;stroke:none" />
      <path
         id="path21"
         d="m 75.249039,-3.0117969 c 0.05859,-0.2578125 0.292969,-1.171875 0.984375,-1.171875 0.04687,0 0.292969,0 0.503906,0.1289063 -0.28125,0.046875 -0.480468,0.3046875 -0.480468,0.5390625 0,0.1640625 0.105468,0.3515625 0.375,0.3515625 0.222656,0 0.539062,-0.1875 0.539062,-0.5859375 0,-0.515625 -0.585937,-0.65625 -0.925781,-0.65625 -0.574219,0 -0.925781,0.5273437 -1.042969,0.7617187 -0.257812,-0.65625 -0.785156,-0.7617187 -1.078125,-0.7617187 -1.042969,0 -1.605469,1.2890625 -1.605469,1.5351562 0,0.1054688 0.105469,0.1054688 0.117188,0.1054688 0.08203,0 0.117187,-0.023437 0.128906,-0.1171875 0.339844,-1.0546875 0.996094,-1.3007813 1.335938,-1.3007813 0.1875,0 0.539062,0.09375 0.539062,0.6679688 0,0.3046875 -0.164062,0.9726562 -0.539062,2.3671875 -0.152344,0.62109373 -0.503907,1.04296873 -0.949219,1.04296873 -0.05859,0 -0.28125,0 -0.492188,-0.12890625 0.246094,-0.0585938 0.46875,-0.26953125 0.46875,-0.5390625 0,-0.26953128 -0.222656,-0.35156248 -0.375,-0.35156248 -0.292968,0 -0.539062,0.25781248 -0.539062,0.57421873 0,0.45703125 0.492187,0.65625 0.9375,0.65625 0.65625,0 1.007812,-0.69140625 1.042969,-0.75 0.117187,0.36328125 0.480468,0.75 1.078125,0.75 1.019531,0 1.59375,-1.27734373 1.59375,-1.53515623 0,-0.09375 -0.09375,-0.09375 -0.128907,-0.09375 -0.08203,0 -0.105468,0.035156 -0.128906,0.1054687 -0.328125,1.06640628 -0.996094,1.31250003 -1.324219,1.31250003 -0.386718,0 -0.539062,-0.328125 -0.539062,-0.65625 0,-0.22265625 0.05859,-0.44531253 0.164062,-0.87890623 z m 0,0"
         style="fill:#eb0a36;fill-opacity:1;fill-rule:nonzero;stroke:none" />
      <path
         id="path22"
         d="m 80.496109,-2.4961719 c 0,-0.7734375 -0.117187,-1.9804687 -0.65625,-3.1054687 -0.597656,-1.21875 -1.464843,-1.875 -1.558593,-1.875 -0.05859,0 -0.105469,0.046875 -0.105469,0.1054687 0,0.035156 0,0.046875 0.199219,0.234375 0.972656,0.984375 1.535156,2.5664063 1.535156,4.640625 0,1.71093753 -0.363281,3.45703128 -1.59375,4.7226563 -0.140625,0.1171875 -0.140625,0.1289062 -0.140625,0.1640625 0,0.058594 0.04687,0.1054687 0.105469,0.1054687 0.09375,0 0.996093,-0.6796875 1.582031,-1.94531247 0.503906,-1.1015625 0.632812,-2.20312503 0.632812,-3.04687503 z m 0,0"
         style="fill:#eb0a36;fill-opacity:1;fill-rule:nonzero;stroke:none" />
      <path
         id="path23"
         d="m 83.824234,-8.045 c 0,-0.1875 -0.01172,-0.1992187 -0.210937,-0.1992187 -0.445313,0.4335937 -1.078125,0.4453125 -1.359375,0.4453125 v 0.2460937 c 0.164062,0 0.621094,0 1.007812,-0.1875 v 3.5507813 c 0,0.234375 0,0.328125 -0.691406,0.328125 h -0.269531 v 0.2460937 c 0.128906,-0.011719 0.984375,-0.023437 1.242187,-0.023437 0.210938,0 1.089844,0.011719 1.242188,0.023437 v -0.2460937 h -0.257813 c -0.703125,0 -0.703125,-0.09375 -0.703125,-0.328125 z m 0,0"
         style="fill:#eb0a36;fill-opacity:1;fill-rule:nonzero;stroke:none" />
      <path
         id="path24"
         d="m 88.957047,-8.5371875 c 0.04687,-0.09375 0.04687,-0.1054687 0.04687,-0.1289062 0,-0.1171875 -0.09375,-0.1757813 -0.175781,-0.1757813 -0.117188,0 -0.152344,0.082031 -0.1875,0.1757813 l -2.601563,6.4921875 c -0.03516,0.082031 -0.03516,0.09375 -0.03516,0.1289062 0,0.1054688 0.09375,0.1757813 0.164062,0.1757813 0.117188,0 0.152344,-0.082031 0.1875,-0.1757813 z m 0,0"
         style="fill:#eb0a36;fill-opacity:1;fill-rule:nonzero;stroke:none" />
      <path
         id="path25"
         d="m 91.444352,-5.9473437 c 0.550781,0 0.9375,0.375 0.9375,1.125 0,0.8671875 -0.503907,1.125 -0.902344,1.125 -0.28125,0 -0.890625,-0.082031 -1.183594,-0.4921875 0.328125,-0.011719 0.398438,-0.2460938 0.398438,-0.3867188 0,-0.2226562 -0.164063,-0.3867187 -0.386719,-0.3867187 -0.1875,0 -0.386719,0.1171875 -0.386719,0.4101562 0,0.65625 0.726563,1.078125 1.570313,1.078125 0.972656,0 1.640625,-0.6445312 1.640625,-1.3476562 0,-0.5390625 -0.445313,-1.0898438 -1.21875,-1.2421875 0.738281,-0.2695313 0.996093,-0.796875 0.996093,-1.21875 0,-0.5507813 -0.632812,-0.9609375 -1.40625,-0.9609375 -0.773437,0 -1.359375,0.375 -1.359375,0.9375 0,0.234375 0.152344,0.3632812 0.363282,0.3632812 0.210937,0 0.351562,-0.1640625 0.351562,-0.3515625 0,-0.1992187 -0.140625,-0.3515625 -0.351562,-0.3632812 C 90.741227,-7.9629687 91.221695,-8.045 91.479508,-8.045 c 0.316406,0 0.761719,0.1523438 0.761719,0.7617188 0,0.2929687 -0.105469,0.609375 -0.28125,0.8320312 -0.234375,0.2578125 -0.421875,0.28125 -0.773438,0.2929688 -0.175781,0.023437 -0.1875,0.023437 -0.222656,0.023437 -0.01172,0 -0.07031,0.011719 -0.07031,0.09375 0,0.09375 0.05859,0.09375 0.175782,0.09375 z m 0,0"
         style="fill:#eb0a36;fill-opacity:1;fill-rule:nonzero;stroke:none" />
    </g>
  </g>
</svg>
