<?xml version="1.0" encoding="UTF-8" standalone="no"?>
<!-- Created with Inkscape (http://www.inkscape.org/) -->

<svg
   version="1.1"
   id="svg1"
   width="184.99556"
   height="142.05469"
   viewBox="0 0 184.99556 142.05469"
   sodipodi:docname="4.3-ejemplo-funcion.svg"
   inkscape:version="1.4.2 (f4327f4, 2025-05-13)"
   xmlns:inkscape="http://www.inkscape.org/namespaces/inkscape"
   xmlns:sodipodi="http://sodipodi.sourceforge.net/DTD/sodipodi-0.dtd"
   xmlns="http://www.w3.org/2000/svg"
   xmlns:svg="http://www.w3.org/2000/svg">
  <defs
     id="defs1">
    <clipPath
       clipPathUnits="userSpaceOnUse"
       id="clipPath25">
      <rect
         style="opacity:0;fill:none;stroke-width:0.75"
         id="rect26"
         width="185.46382"
         height="136.5688"
         x="-39.364197"
         y="-117.93269" />
    </clipPath>
    <clipPath
       clipPathUnits="userSpaceOnUse"
       id="clipPath26">
      <rect
         style="opacity:0;fill:none;stroke-width:0.75"
         id="rect27"
         width="185.46382"
         height="136.5688"
         x="-102.8672"
         y="-72.57869" />
    </clipPath>
    <clipPath
       clipPathUnits="userSpaceOnUse"
       id="clipPath27">
      <rect
         style="opacity:0;fill:none;stroke-width:0.75"
         id="rect28"
         width="185.46382"
         height="136.5688"
         x="-91.528198"
         y="-72.57869" />
    </clipPath>
    <clipPath
       clipPathUnits="userSpaceOnUse"
       id="clipPath28">
      <rect
         style="opacity:0;fill:none;stroke-width:0.75"
         id="rect29"
         width="185.46382"
         height="136.5688"
         x="-49.764202"
         y="-72.57869" />
    </clipPath>
    <clipPath
       clipPathUnits="userSpaceOnUse"
       id="clipPath29">
      <rect
         style="opacity:0;fill:none;stroke-width:0.75"
         id="rect30"
         width="185.46382"
         height="136.5688"
         x="-89.007202"
         y="-62.323685"
         transform="scale(1,-1)" />
    </clipPath>
    <clipPath
       clipPathUnits="userSpaceOnUse"
       id="clipPath30">
      <rect
         style="opacity:0;fill:none;stroke-width:0.75"
         id="rect31"
         width="185.46382"
         height="136.5688"
         x="-89.007202"
         y="-62.323685"
         transform="scale(1,-1)" />
    </clipPath>
    <clipPath
       clipPathUnits="userSpaceOnUse"
       id="clipPath31">
      <rect
         style="opacity:0;fill:none;stroke-width:0.75"
         id="rect32"
         width="185.46382"
         height="136.5688"
         x="-89.007202"
         y="-62.323685"
         transform="scale(1,-1)" />
    </clipPath>
    <clipPath
       clipPathUnits="userSpaceOnUse"
       id="clipPath32">
      <rect
         style="opacity:0;fill:none;stroke-width:0.75"
         id="rect33"
         width="185.46382"
         height="136.5688"
         x="-89.007202"
         y="-62.323685"
         transform="scale(1,-1)" />
    </clipPath>
    <clipPath
       clipPathUnits="userSpaceOnUse"
       id="clipPath33">
      <rect
         style="opacity:0;fill:none;stroke-width:0.75"
         id="rect34"
         width="185.46382"
         height="136.5688"
         x="-89.007202"
         y="-62.323685"
         transform="scale(1,-1)" />
    </clipPath>
    <clipPath
       clipPathUnits="userSpaceOnUse"
       id="clipPath34">
      <rect
         style="opacity:0;fill:none;stroke-width:0.75"
         id="rect35"
         width="185.46382"
         height="136.5688"
         x="-89.007202"
         y="-62.323685"
         transform="scale(1,-1)" />
    </clipPath>
    <clipPath
       clipPathUnits="userSpaceOnUse"
       id="clipPath35">
      <rect
         style="opacity:0;fill:none;stroke-width:0.75"
         id="rect36"
         width="185.46382"
         height="136.5688"
         x="-89.007202"
         y="-62.323685"
         transform="scale(1,-1)" />
    </clipPath>
    <clipPath
       clipPathUnits="userSpaceOnUse"
       id="clipPath36">
      <rect
         style="opacity:0;fill:none;stroke-width:0.75"
         id="rect37"
         width="185.46382"
         height="136.5688"
         x="-89.007202"
         y="-62.323685"
         transform="scale(1,-1)" />
    </clipPath>
    <clipPath
       clipPathUnits="userSpaceOnUse"
       id="clipPath37">
      <rect
         style="opacity:0;fill:none;stroke-width:0.75"
         id="rect38"
         width="185.46382"
         height="136.5688"
         x="-89.007202"
         y="-62.323685"
         transform="scale(1,-1)" />
    </clipPath>
    <clipPath
       clipPathUnits="userSpaceOnUse"
       id="clipPath38">
      <rect
         style="opacity:0;fill:none;stroke-width:0.75"
         id="rect39"
         width="185.46382"
         height="136.5688"
         x="-89.007202"
         y="-62.323685"
         transform="scale(1,-1)" />
    </clipPath>
    <clipPath
       clipPathUnits="userSpaceOnUse"
       id="clipPath39">
      <rect
         style="opacity:0;fill:none;stroke-width:0.75"
         id="rect40"
         width="185.46382"
         height="136.5688"
         x="-79.431198"
         y="-18.257687" />
    </clipPath>
    <clipPath
       clipPathUnits="userSpaceOnUse"
       id="clipPath40">
      <rect
         style="opacity:0;fill:none;stroke-width:0.75"
         id="rect41"
         width="185.46382"
         height="136.5688"
         x="-89.007202"
         y="-17.427786"
         transform="matrix(0,-1,-1,0,0,0)" />
    </clipPath>
    <clipPath
       clipPathUnits="userSpaceOnUse"
       id="clipPath41">
      <rect
         style="opacity:0;fill:none;stroke-width:0.75"
         id="rect42"
         width="185.46382"
         height="136.5688"
         x="-89.007202"
         y="-62.323685"
         transform="scale(1,-1)" />
    </clipPath>
    <clipPath
       clipPathUnits="userSpaceOnUse"
       id="clipPath42">
      <rect
         style="opacity:0;fill:none;stroke-width:0.75"
         id="rect43"
         width="185.46382"
         height="136.5688"
         x="-165.25821"
         y="-70.855682" />
    </clipPath>
    <clipPath
       clipPathUnits="userSpaceOnUse"
       id="clipPath43">
      <rect
         style="opacity:0;fill:none;stroke-width:0.75"
         id="rect44"
         width="185.46382"
         height="136.5688"
         x="-167.91876"
         y="-62.323685"
         transform="scale(1,-1)" />
    </clipPath>
    <clipPath
       clipPathUnits="userSpaceOnUse"
       id="clipPath44">
      <rect
         style="opacity:0;fill:none;stroke-width:0.75"
         id="rect45"
         width="185.46382"
         height="136.5688"
         x="-89.007202"
         y="-62.323685"
         transform="scale(1,-1)" />
    </clipPath>
    <clipPath
       clipPathUnits="userSpaceOnUse"
       id="clipPath45">
      <rect
         style="opacity:0;fill:none;stroke-width:0.75"
         id="rect46"
         width="185.46382"
         height="136.5688"
         x="77.894806"
         y="-217.83569"
         transform="scale(1,-1)" />
    </clipPath>
  </defs>
  <sodipodi:namedview
     id="namedview1"
     pagecolor="#ffffff"
     bordercolor="#000000"
     borderopacity="0.25"
     inkscape:showpageshadow="2"
     inkscape:pageopacity="0.0"
     inkscape:pagecheckerboard="0"
     inkscape:deskcolor="#d1d1d1"
     inkscape:zoom="2.2241536"
     inkscape:cx="95.092353"
     inkscape:cy="91.04587"
     inkscape:window-width="1920"
     inkscape:window-height="1009"
     inkscape:window-x="-8"
     inkscape:window-y="-8"
     inkscape:window-maximized="1"
     inkscape:current-layer="g1">
    <inkscape:page
       x="0"
       y="0"
       inkscape:label="40"
       id="page1"
       width="184.99556"
       height="142.05469"
       margin="0"
       bleed="0" />
  </sodipodi:namedview>
  <g
     id="g1"
     inkscape:groupmode="layer"
     inkscape:label="40"
     transform="translate(-146.87944,-90.292968)">
    <path
       id="path2"
       d="M -56.69275,0 H 78.91156"
       style="fill:none;stroke:#000000;stroke-width:0.3985;stroke-linecap:butt;stroke-linejoin:miter;stroke-miterlimit:10;stroke-dasharray:none;stroke-opacity:1"
       transform="matrix(1.3333333,0,0,-1.3333333,222.536,155.48533)"
       clip-path="url(#clipPath44)" />
    <path
       id="path3"
       d="M -1.19551,1.59401 C -1.09587,0.99626 0,0.09961 0.29886,0 0,-0.09961 -1.09587,-0.99626 -1.19551,-1.59401"
       style="fill:none;stroke:#000000;stroke-width:0.31879;stroke-linecap:round;stroke-linejoin:round;stroke-miterlimit:10;stroke-dasharray:none;stroke-opacity:1"
       transform="matrix(1.3333333,0,0,-1.3333333,327.75141,155.48533)"
       clip-path="url(#clipPath43)" />
    <path
       id="path4"
       d="m 3.643875,-3.2915078 c 0.070312,-0.28125 0.3164062,-1.2890625 1.078125,-1.2890625 0.058594,0 0.3164062,0 0.5507812,0.140625 -0.3046875,0.058594 -0.5273437,0.328125 -0.5273437,0.5859375 0,0.1757812 0.1171875,0.3867187 0.4101562,0.3867187 0.2460938,0 0.5976563,-0.1992187 0.5976563,-0.6328125 0,-0.5625 -0.6445313,-0.7265625 -1.0195313,-0.7265625 -0.6328125,0 -1.0195312,0.5859375 -1.1484375,0.8320313 -0.2695312,-0.7148438 -0.8554687,-0.8320313 -1.171875,-0.8320313 -1.1367187,0 -1.75781245,1.4179688 -1.75781245,1.6875 0,0.1054688 0.10546875,0.1054688 0.12890625,0.1054688 0.0820313,0 0.1171875,-0.023437 0.140625,-0.1171875 0.375,-1.1601563 1.0898437,-1.4296875 1.4648437,-1.4296875 0.2109375,0 0.5859375,0.09375 0.5859375,0.7265625 0,0.3398437 -0.1875,1.078125 -0.5859375,2.6015625 -0.1757812,0.67968749 -0.5625,1.13671874 -1.0429687,1.13671874 -0.058594,0 -0.3164063,0 -0.5390625,-0.140625 0.2695312,-0.0585938 0.515625,-0.29296875 0.515625,-0.59765625 0,-0.29296879 -0.2460938,-0.37499999 -0.41015625,-0.37499999 -0.328125,0 -0.59765625,0.28124999 -0.59765625,0.63281249 0,0.50390625 0.55078125,0.71484375 1.03125,0.71484375 0.7148437,0 1.1015625,-0.76171875 1.1367187,-0.83203125 0.1289063,0.41015625 0.5273438,0.83203125 1.1835938,0.83203125 1.125,0 1.7460937,-1.40625004 1.7460937,-1.67578124 0,-0.1054688 -0.1054687,-0.1054688 -0.1289062,-0.1054688 -0.1054688,0 -0.1289063,0.035156 -0.140625,0.1171875 -0.3632813,1.16015629 -1.1132813,1.42968754 -1.453125,1.42968754 -0.4335938,0 -0.609375,-0.3515625 -0.609375,-0.7265625 0,-0.23437504 0.070312,-0.48046874 0.1875,-0.96093754 z m 0,0"
       style="fill:#000000;fill-opacity:1;fill-rule:nonzero;stroke:none"
       aria-label="x"
       transform="matrix(1.3333333,0,0,1.3333333,324.204,166.86133)"
       clip-path="url(#clipPath42)" />
    <path
       id="path5"
       d="M 0,-56.69275 V 44.8959"
       style="fill:none;stroke:#000000;stroke-width:0.3985;stroke-linecap:butt;stroke-linejoin:miter;stroke-miterlimit:10;stroke-dasharray:none;stroke-opacity:1"
       transform="matrix(1.3333333,0,0,-1.3333333,222.536,155.48533)"
       clip-path="url(#clipPath41)" />
    <path
       id="path6"
       d="M -1.19551,1.59401 C -1.09587,0.99626 0,0.09961 0.29886,0 0,-0.09961 -1.09587,-0.99626 -1.19551,-1.59401"
       style="fill:none;stroke:#000000;stroke-width:0.31879;stroke-linecap:round;stroke-linejoin:round;stroke-miterlimit:10;stroke-dasharray:none;stroke-opacity:1"
       transform="matrix(0,-1.3333333,-1.3333333,0,222.536,95.624133)"
       clip-path="url(#clipPath40)" />
    <path
       id="path7"
       d="m 5.2980234,-4.1603047 c 0.046875,-0.1523437 0.046875,-0.1757812 0.046875,-0.2460937 0,-0.1992188 -0.1523437,-0.2929688 -0.3164062,-0.2929688 -0.1054688,0 -0.28125,0.058594 -0.375,0.2226563 -0.023437,0.058594 -0.1171875,0.3984375 -0.1523438,0.5976562 -0.082031,0.28125 -0.1523437,0.5742188 -0.2226562,0.8671875 l -0.4921875,1.96875 c -0.046875,0.16406251 -0.515625,0.92578126 -1.2304688,0.92578126 -0.5625,0 -0.6796875,-0.48046875 -0.6796875,-0.89062496 0,-0.4921875 0.1875,-1.171875 0.5625,-2.1328125 0.1757813,-0.4453125 0.2109375,-0.5742188 0.2109375,-0.7851563 0,-0.4921875 -0.3515625,-0.9023437 -0.890625,-0.9023437 -1.04296871,0 -1.44140621,1.5820312 -1.44140621,1.6875 0,0.1054687 0.10546875,0.1054687 0.12890625,0.1054687 0.10546875,0 0.1171875,-0.023437 0.17578125,-0.1992187 0.29296875,-1.0195313 0.72656251,-1.3476563 1.10156251,-1.3476563 0.09375,0 0.2695312,0 0.2695312,0.3515625 0,0.2695313 -0.1054687,0.5507813 -0.1757812,0.7617188 -0.4453125,1.1601562 -0.6328125,1.78125 -0.6328125,2.2851562 0,0.97265626 0.6796875,1.30078126 1.3242187,1.30078126 0.421875,0 0.796875,-0.1875 1.1015625,-0.4921875 -0.140625,0.57421875 -0.2695312,1.1015625 -0.703125,1.68750004 -0.2929687,0.3632812 -0.703125,0.6796875 -1.2070312,0.6796875 -0.1523438,0 -0.6445313,-0.023437 -0.83203126,-0.4570313 0.17578126,0 0.31640626,0 0.48046876,-0.1289062 0.1054687,-0.09375 0.2109375,-0.234375 0.2109375,-0.44531254 0,-0.33984375 -0.2929688,-0.38671875 -0.3984375,-0.38671875 -0.25781251,0 -0.60937501,0.17578125 -0.60937501,0.71484379 0,0.5390625 0.48046871,0.9492187 1.14843751,0.9492187 1.125,0 2.25,-0.9960937 2.5546875,-2.22656249 z m 0,0"
       style="fill:#000000;fill-opacity:1;fill-rule:nonzero;stroke:none"
       aria-label="y"
       transform="matrix(1.3333333,0,0,1.3333333,209.768,96.730667)"
       clip-path="url(#clipPath39)" />
    <path
       id="path8"
       d="m -56.69275,-39.6849 c 0,0 0.24814,0.03117 0.34345,0.04324 0.09529,0.01206 0.24812,0.03151 0.34343,0.04377 0.0953,0.01226 0.24812,0.03209 0.34342,0.04465 0.09531,0.01254 0.24813,0.0331 0.34343,0.04584 0.0953,0.01274 0.24814,0.0332 0.34343,0.04602 0.09529,0.01282 0.24814,0.03334 0.34345,0.04637 0.09527,0.01303 0.24812,0.03427 0.3434,0.04758 0.0953,0.0133 0.24815,0.03476 0.34344,0.04826 0.0953,0.01352 0.24814,0.03542 0.34343,0.04915 0.09531,0.01373 0.24813,0.03589 0.34343,0.04982 0.09529,0.01393 0.24813,0.03636 0.34343,0.05052 0.09531,0.01416 0.24814,0.03714 0.34343,0.05156 0.09531,0.01442 0.24814,0.03775 0.34345,0.05242 0.09527,0.01467 0.24812,0.03842 0.34341,0.0533 0.09529,0.01486 0.24814,0.03881 0.34344,0.05396 0.09528,0.01517 0.24813,0.03994 0.34342,0.05536 0.09531,0.01546 0.24814,0.04023 0.34343,0.0559 0.09529,0.01567 0.24813,0.04112 0.34343,0.0571 0.0953,0.01598 0.24814,0.0418 0.34343,0.05812 0.0953,0.01632 0.24812,0.04306 0.34343,0.05952 0.0953,0.01646 0.24814,0.04239 0.34343,0.05916 0.09531,0.01678 0.24814,0.04462 0.34344,0.06177 0.09528,0.01716 0.24813,0.04449 0.34343,0.06195 0.09529,0.01746 0.24812,0.04597 0.34343,0.06382 0.09528,0.01787 0.24812,0.04677 0.34341,0.0649 0.09531,0.01811 0.24816,0.04729 0.34343,0.06574 0.09531,0.01846 0.24814,0.04852 0.34343,0.0673 0.09531,0.01879 0.24814,0.04904 0.34344,0.06816 0.0953,0.01914 0.24813,0.05014 0.34344,0.06974 0.09529,0.01957 0.24812,0.05148 0.34341,0.07145 0.09531,0.01998 0.24814,0.05217 0.34345,0.0725 0.09527,0.02032 0.24812,0.05331 0.34343,0.07405 0.09529,0.02072 0.24812,0.05423 0.34343,0.07542 0.09529,0.0212 0.24812,0.05574 0.34341,0.07733 0.09531,0.02161 0.24816,0.05638 0.34343,0.07837 0.0953,0.02202 0.24815,0.05777 0.34345,0.08029 0.09529,0.02251 0.24812,0.05899 0.34341,0.082 0.09531,0.02303 0.24814,0.06043 0.34344,0.08391 0.0953,0.0235 0.24813,0.06148 0.34343,0.08548 0.09531,0.024 0.24813,0.06305 0.34343,0.08754 0.0953,0.02449 0.24813,0.06391 0.34344,0.08893 0.09528,0.02504 0.24813,0.06592 0.34342,0.09153 0.09529,0.0256 0.24813,0.06684 0.34342,0.09309 0.0953,0.02621 0.24815,0.06921 0.34343,0.09601 0.0953,0.0268 0.24815,0.06985 0.34344,0.09722 0.09529,0.02739 0.24814,0.07213 0.34343,0.10019 0.09531,0.02805 0.24812,0.07341 0.34343,0.10209 0.09531,0.02865 0.24813,0.07514 0.34343,0.10447 0.0953,0.02934 0.24814,0.07675 0.34343,0.10693 0.09529,0.03017 0.24812,0.07966 0.34343,0.11055 0.09529,0.03089 0.24814,0.08051 0.34343,0.11211 0.09529,0.03164 0.24814,0.08333 0.34343,0.11575 0.09529,0.03243 0.24814,0.08481 0.34343,0.118 0.09529,0.0332 0.24814,0.08717 0.34343,0.12128 0.09529,0.03411 0.24814,0.08955 0.34342,0.12457 0.09531,0.03502 0.24813,0.09196 0.34344,0.12787 0.0953,0.03587 0.24812,0.09393 0.34343,0.1308 0.0953,0.03685 0.24813,0.09712 0.34343,0.13493 0.0953,0.03783 0.24813,0.09879 0.34344,0.13773 0.09528,0.03892 0.24812,0.10296 0.34343,0.14291 0.09528,0.03993 0.24813,0.10393 0.34343,0.14497 0.09528,0.04105 0.24812,0.10839 0.34341,0.15087 0.09531,0.04249 0.24814,0.1118 0.34343,0.15536 0.09531,0.04358 0.24814,0.11382 0.34343,0.15865 0.09531,0.04485 0.24814,0.11828 0.34343,0.16455 0.09531,0.04626 0.24814,0.12135 0.34343,0.16887 0.09531,0.04748 0.24814,0.12443 0.34345,0.17352 0.09529,0.04909 0.24812,0.12962 0.34342,0.18027 0.09528,0.05066 0.24813,0.13255 0.34344,0.18478 0.09529,0.05223 0.24812,0.13774 0.34343,0.19171 0.09529,0.05396 0.24812,0.14139 0.34341,0.19724 0.09531,0.05581 0.24815,0.14744 0.34343,0.20518 0.09531,0.05773 0.24815,0.15142 0.34343,0.21091 0.09531,0.05948 0.24814,0.15628 0.34343,0.2178 0.09531,0.06154 0.24814,0.16178 0.34344,0.22562 0.09529,0.06384 0.24813,0.16838 0.34343,0.23462 0.09529,0.06621 0.24813,0.17428 0.34343,0.24272 0.09529,0.06844 0.24813,0.17943 0.34343,0.25054 0.0953,0.07109 0.24813,0.188 0.34343,0.26193 0.09529,0.07394 0.24814,0.1943 0.34342,0.27093 0.0953,0.07663 0.24815,0.20156 0.34343,0.28131 0.0953,0.07978 0.24815,0.21073 0.34344,0.29361 0.09529,0.08289 0.24812,0.21761 0.34343,0.30382 0.09529,0.0862 0.24812,0.22746 0.34343,0.31746 0.09531,0.09 0.24812,0.23723 0.34343,0.33116 0.09531,0.09392 0.24812,0.248 0.34343,0.34586 0.09529,0.09784 0.24814,0.25708 0.34343,0.35934 0.09529,0.10225 0.24813,0.27056 0.34343,0.37769 0.09529,0.10713 0.24814,0.28215 0.34341,0.39445 0.09531,0.11234 0.24816,0.29755 0.34345,0.41507 0.09529,0.11753 0.24814,0.30867 0.34343,0.43202 0.09531,0.12334 0.24812,0.32731 0.34343,0.45691 0.0953,0.12963 0.24812,0.34111 0.34343,0.47734 0.0953,0.13624 0.24812,0.36104 0.34343,0.50452 0.0953,0.14346 0.24813,0.3784 0.34342,0.52959 0.0953,0.15118 0.24814,0.40022 0.34344,0.56004 0.09529,0.15984 0.24813,0.42275 0.34344,0.59187 0.09528,0.16913 0.24812,0.44799 0.34342,0.62717 0.0953,0.1792 0.34342,0.66437 0.34342,0.66437"
       style="fill:none;stroke:#eb0a36;stroke-width:0.79701;stroke-linecap:butt;stroke-linejoin:miter;stroke-miterlimit:10;stroke-dasharray:none;stroke-opacity:1"
       transform="matrix(1.3333333,0,0,-1.3333333,222.536,155.48533)"
       clip-path="url(#clipPath38)" />
    <path
       id="path9"
       d="m -22.6771,-22.54109 c 0,0 0.3309,0.65648 0.45798,0.90623 0.12708,0.24976 0.33088,0.64746 0.45797,0.89379 0.12707,0.24633 0.33088,0.63874 0.45796,0.88167 0.12709,0.24293 0.33089,0.6297 0.45796,0.86921 0.12709,0.23952 0.33089,0.62099 0.45798,0.85712 0.12705,0.2361 0.33088,0.61197 0.45795,0.84465 0.12708,0.23266 0.33088,0.60306 0.45796,0.83235 0.12709,0.22929 0.33088,0.59436 0.45797,0.82025 0.12708,0.22589 0.33087,0.58534 0.45797,0.8078 0.12707,0.22246 0.33088,0.57645 0.45796,0.7955 0.12709,0.21909 0.33088,0.56775 0.45797,0.78341 0.12707,0.21566 0.33087,0.5587 0.45795,0.77095 0.12708,0.21225 0.33089,0.54998 0.45796,0.75883 0.12709,0.20885 0.33089,0.54094 0.45796,0.74637 0.1271,0.20544 0.33089,0.53226 0.45798,0.73426 0.12708,0.20205 0.33089,0.5232 0.45796,0.72181 0.1271,0.19862 0.33089,0.51449 0.45798,0.7097 0.12708,0.19522 0.33088,0.50545 0.45795,0.69725 0.12707,0.19179 0.33087,0.4967 0.45796,0.68512 0.12707,0.18843 0.33089,0.48787 0.45797,0.67285 0.12708,0.18498 0.33088,0.47882 0.45797,0.66039 0.12708,0.18158 0.33089,0.4701 0.45796,0.64828 0.12709,0.17816 0.33089,0.46108 0.45797,0.63582 0.12708,0.17474 0.33088,0.45236 0.45796,0.6237 0.12707,0.17136 0.33087,0.44333 0.45796,0.61125 0.12708,0.16794 0.33088,0.43463 0.45796,0.59916 0.12709,0.16452 0.33089,0.42555 0.45798,0.58668 0.12707,0.16113 0.33087,0.41684 0.45796,0.57457 0.12708,0.15775 0.33087,0.40799 0.45796,0.5623 0.12708,0.1543 0.33089,0.39894 0.45796,0.54984 0.12708,0.15088 0.33089,0.39023 0.45796,0.5377 0.12708,0.14749 0.3309,0.38117 0.45797,0.52524 0.12709,0.14407 0.33088,0.37247 0.45796,0.51315 0.12709,0.14069 0.33089,0.36359 0.45797,0.50087 0.12708,0.1373 0.3309,0.35474 0.45797,0.48861 0.12707,0.13383 0.33089,0.34567 0.45796,0.47611 0.12707,0.13045 0.33089,0.33697 0.45797,0.46403 0.12707,0.12706 0.33086,0.32812 0.45796,0.45173 0.12707,0.12361 0.33088,0.31908 0.45796,0.43927 0.12709,0.12023 0.33088,0.31035 0.45796,0.42719 0.12709,0.11682 0.33089,0.30145 0.45798,0.41488 0.12707,0.11342 0.33088,0.29258 0.45796,0.40259 0.12709,0.11 0.33088,0.28374 0.45795,0.39032 0.12709,0.10659 0.33088,0.27467 0.45797,0.37785 0.12708,0.10318 0.33089,0.26598 0.45796,0.36577 0.12708,0.09978 0.33089,0.25711 0.45797,0.35346 0.12709,0.09634 0.33088,0.24806 0.45797,0.341 0.12708,0.09294 0.33088,0.23933 0.45796,0.32891 0.12708,0.08955 0.3309,0.23046 0.45797,0.3166 0.12707,0.08615 0.33084,0.22157 0.45791,0.30434 0.1271,0.08274 0.33089,0.2127 0.45798,0.29203 0.12708,0.07935 0.33087,0.20383 0.45796,0.27977 0.12708,0.07592 0.33088,0.19498 0.45797,0.26747 0.12707,0.0725 0.33088,0.18595 0.45796,0.25502 0.12709,0.06908 0.33088,0.1772 0.45798,0.24291 0.12706,0.0657 0.33088,0.16833 0.45794,0.23064 0.12709,0.06228 0.33089,0.15945 0.45796,0.21833 0.12709,0.05889 0.33089,0.15059 0.45797,0.20606 0.12709,0.05546 0.33088,0.14171 0.45797,0.19377 0.12708,0.05208 0.33089,0.13284 0.45797,0.18149 0.12709,0.04866 0.33088,0.12397 0.45797,0.16922 0.12706,0.04524 0.33087,0.11506 0.45795,0.1569 0.12707,0.04185 0.33087,0.10622 0.45796,0.14465 0.12708,0.03843 0.33089,0.09734 0.45796,0.13235 0.12709,0.03503 0.33089,0.08847 0.45798,0.12007 0.12708,0.03161 0.33089,0.07959 0.45796,0.1078 0.12709,0.0282 0.33089,0.0707 0.45796,0.09549 0.12708,0.02479 0.33089,0.06184 0.45797,0.08322 0.12707,0.0214 0.33087,0.05297 0.45796,0.07094 0.12707,0.01798 0.33089,0.04408 0.45796,0.05866 0.12709,0.01455 0.33089,0.0352 0.45798,0.04637 0.12707,0.01115 0.33087,0.02632 0.45796,0.03407 0.12708,0.0077 0.33089,0.01746 0.45796,0.0218 0.12709,0.0043 0.33089,0.0086 0.45795,0.0095 0.12709,9.1e-4 0.33088,-3.1e-4 0.45798,-0.0028 0.12707,-0.0025 0.33088,-0.0092 0.45796,-0.01505 0.12709,-0.0059 0.33089,-0.01807 0.45796,-0.02734 0.12709,-0.0093 0.33088,-0.02693 0.45798,-0.03963 0.12707,-0.01268 0.33087,-0.03581 0.45796,-0.0519 0.12708,-0.01608 0.33089,-0.04452 0.45796,-0.064 0.12708,-0.01949 0.33088,-0.05356 0.45796,-0.07648 0.12708,-0.02293 0.33088,-0.06242 0.45797,-0.08876 0.12707,-0.02632 0.33088,-0.07129 0.45796,-0.10103 0.12709,-0.02975 0.33089,-0.0802 0.45796,-0.11333 0.12709,-0.03312 0.3309,-0.0889 0.45798,-0.12544 0.12707,-0.03653 0.33088,-0.09791 0.45796,-0.13789 0.12707,-0.03997 0.33089,-0.1068 0.45795,-0.15017 0.12709,-0.04336 0.33088,-0.11567 0.45797,-0.16245 0.12708,-0.04674 0.33087,-0.12451 0.45797,-0.1747 C 18.20877,9.95702 18.41258,9.87375 18.53966,9.82016 18.66675,9.7666 18.87054,9.67802 18.99763,9.62103 19.12471,9.56404 19.3285,9.46985 19.4556,9.40944 19.58266,9.34903 19.78648,9.24937 19.91354,9.18556 20.04063,9.12175 20.24443,9.01678 20.3715,8.94958 20.4986,8.88237 20.70241,8.77177 20.82948,8.70113 20.95656,8.6305 21.16037,8.51445 21.28745,8.4404 21.41454,8.36635 21.61833,8.24481 21.7454,8.16739 21.8725,8.08995 22.0763,7.9631 22.20338,7.88226 22.33046,7.8014 22.66133,7.58467 22.66133,7.58467"
       style="fill:none;stroke:#eb0a36;stroke-width:0.79701;stroke-linecap:butt;stroke-linejoin:miter;stroke-miterlimit:10;stroke-dasharray:none;stroke-opacity:1"
       transform="matrix(1.3333333,0,0,-1.3333333,222.536,155.48533)"
       clip-path="url(#clipPath37)" />
    <path
       id="path10"
       d="m 22.6771,7.5589 c 0,0 0.24812,-0.16246 0.34342,-0.22232 0.09528,-0.05988 0.24813,-0.1527 0.34342,-0.20917 0.0953,-0.05649 0.24815,-0.1445 0.34343,-0.19794 C 23.80267,6.87604 23.9555,6.79286 24.0508,6.74228 24.1461,6.69171 24.29893,6.61288 24.39423,6.56496 24.48953,6.517 24.64236,6.44229 24.73767,6.39677 24.83296,6.35126 24.9858,6.28018 25.0811,6.23691 25.17639,6.19363 25.32922,6.12599 25.42453,6.08482 25.5198,6.04366 25.67265,5.9795 25.76796,5.9402 25.86325,5.90088 26.01608,5.83894 26.11139,5.80144 26.20668,5.76393 26.35951,5.70552 26.4548,5.66977 26.55011,5.63403 26.70296,5.57797 26.79823,5.54382 26.89354,5.50967 27.04639,5.45628 27.14168,5.42357 27.23697,5.39085 27.3898,5.33936 27.4851,5.30801 27.5804,5.27666 27.73323,5.22768 27.82854,5.19763 27.92383,5.16757 28.07666,5.12022 28.17197,5.0914 28.26727,5.06258 28.42009,5.01752 28.5154,4.98982 28.61069,4.96216 28.76352,4.91853 28.85883,4.8919 28.95412,4.8653 29.10696,4.82358 29.20226,4.79796 29.29755,4.77235 29.4504,4.73196 29.54567,4.70732 29.64098,4.68266 29.79382,4.644 29.8891,4.62029 29.9844,4.59657 30.13725,4.55925 30.23254,4.53636 30.32784,4.51349 30.48067,4.47746 30.57597,4.4554 30.67128,4.43335 30.8241,4.3987 30.9194,4.37737 31.01471,4.35603 31.16753,4.32216 31.26283,4.30159 31.35814,4.28102 31.51097,4.24898 31.60626,4.2291 31.70155,4.20923 31.8544,4.17763 31.94969,4.15834 32.04498,4.13904 32.19783,4.1086 32.29312,4.09 32.38841,4.0714 32.54126,4.04225 32.63655,4.02425 32.73184,4.00624 32.88469,3.97769 32.97998,3.96025 33.07527,3.9428 33.22812,3.91537 33.32341,3.89848 33.41872,3.88158 33.57153,3.8548 33.66684,3.83842 33.76215,3.82207 33.91496,3.79637 34.01027,3.78049 34.10558,3.7646 34.2584,3.73936 34.3537,3.72389 34.449,3.70844 34.60184,3.684 34.69713,3.66907 34.79242,3.65411 34.94527,3.63063 35.04057,3.61612 35.13585,3.6016 35.2887,3.57852 35.384,3.56439 c 0.09528,-0.01414 0.24813,-0.03645 0.34342,-0.05017 0.0953,-0.01373 0.24814,-0.03543 0.34343,-0.0488 0.0953,-0.01336 0.24813,-0.03457 0.34343,-0.04759 0.0953,-0.01298 0.24813,-0.03352 0.34342,-0.04617 0.09531,-0.01265 0.24814,-0.03267 0.34344,-0.04498 0.0953,-0.01232 0.24813,-0.0318 0.34342,-0.0438 C 37.53987,3.27092 37.6927,3.252 37.78801,3.24034 37.88329,3.22867 38.03613,3.21017 38.13144,3.1988 38.22673,3.18744 38.37956,3.16943 38.47487,3.15833 38.57016,3.14722 38.72299,3.1295 38.81828,3.11871 c 0.09531,-0.0108 0.24814,-0.02774 0.34343,-0.03824 0.09531,-0.01051 0.24816,-0.02725 0.34343,-0.03755 0.09531,-0.01028 0.24814,-0.02661 0.34343,-0.03668 0.09531,-0.01005 0.24814,-0.02598 0.34345,-0.0358 0.09529,-0.00982 0.24812,-0.0254 0.34343,-0.03495 0.0953,-0.00956 0.24812,-0.02456 0.34343,-0.03391 0.09527,-0.00937 0.24812,-0.0244 0.34342,-0.03357 0.0953,-0.00917 0.24813,-0.02357 0.34343,-0.03253 0.0953,-0.00894 0.24813,-0.02325 0.34342,-0.032 C 42.00446,2.79474 42.1573,2.78102 42.25258,2.7725 42.34789,2.76399 42.50073,2.75043 42.59602,2.74207 42.69131,2.73369 42.84415,2.7203 42.93945,2.71213 43.03476,2.70393 43.18758,2.69104 43.28288,2.68306 43.37817,2.67506 43.531,2.66235 43.62631,2.65451 43.72162,2.64667 43.87444,2.63416 43.96974,2.62648 44.06503,2.6188 44.21786,2.60667 44.31317,2.59915 44.40846,2.59161 44.56131,2.5795 44.6566,2.57216 44.75189,2.56482 44.90474,2.55339 45.00003,2.54622 45.09532,2.53905 45.24817,2.52748 45.34344,2.52043 45.43875,2.51338 45.5916,2.50227 45.68689,2.49533 45.78218,2.4884 45.93501,2.47725 46.03032,2.47041 46.12563,2.46361 46.27844,2.45285 46.37375,2.4462 46.46906,2.43956 46.62187,2.42903 46.71718,2.4225 46.81248,2.41599 46.96532,2.40553 47.06061,2.39915 47.1559,2.39276 47.30875,2.38272 47.40405,2.37648 47.49933,2.37024 47.65218,2.36032 47.74747,2.35417 47.84276,2.34799 47.9956,2.33806 48.0909,2.33202 48.18619,2.32597 48.33904,2.3165 48.43433,2.31058 48.52963,2.30464 48.68246,2.29514 48.77776,2.28929 48.87305,2.28342 49.02588,2.2741 49.12119,2.26834 49.21649,2.2626 49.36932,2.25356 49.46461,2.24794 49.55992,2.24231 49.71274,2.23338 49.80804,2.22786 49.90335,2.22234 50.05618,2.21356 50.15147,2.20815 50.24677,2.20271 50.39961,2.19406 50.49492,2.18875 50.5902,2.18347 50.74304,2.17514 50.83835,2.1699 50.93364,2.16467 51.08647,2.15619 51.18176,2.15105 51.27705,2.14589 51.4299,2.13777 51.52519,2.1327 51.6205,2.12764 51.77335,2.1195 51.86862,2.11455 51.96393,2.10957 52.11674,2.10178 52.21205,2.0969 52.30736,2.09203 52.46019,2.08421 52.55548,2.07942 52.65079,2.07462 52.80362,2.06702 52.89893,2.06229 52.99422,2.05757 53.14705,2.05 53.24234,2.04535 53.33763,2.04066 53.49048,2.03314 53.58578,2.02856 53.68106,2.02397 53.83391,2.01678 53.92921,2.0123 54.0245,2.0078 54.17735,2.00063 54.27263,1.9962 54.36794,1.99179 54.52077,1.98482 54.61606,1.98045 54.71136,1.9761 54.86421,1.96901 54.95949,1.9647 55.0548,1.96042 55.20763,1.9537 55.30293,1.9495 55.39822,1.94527 55.55106,1.93842 55.64635,1.93427 55.74165,1.93011 55.89449,1.92363 55.98979,1.91956 56.08508,1.91547 56.23792,1.9089 56.33322,1.90485 56.42851,1.90079 56.67665,1.89032 56.67665,1.89032"
       style="fill:none;stroke:#eb0a36;stroke-width:0.79701;stroke-linecap:butt;stroke-linejoin:miter;stroke-miterlimit:10;stroke-dasharray:none;stroke-opacity:1"
       transform="matrix(1.3333333,0,0,-1.3333333,222.536,155.48533)"
       clip-path="url(#clipPath36)" />
    <path
       id="path11"
       d="M -56.69275,-45.35419 H 68.0313"
       style="fill:none;stroke:#0000ff;stroke-width:0.79701;stroke-linecap:butt;stroke-linejoin:miter;stroke-miterlimit:10;stroke-dasharray:2.98883, 2.98883;stroke-dashoffset:0;stroke-opacity:0.5"
       transform="matrix(1.3333333,0,0,-1.3333333,222.536,155.48533)"
       clip-path="url(#clipPath35)" />
    <path
       id="path12"
       d="M -22.6771,-34.01564 V 22.6771"
       style="fill:none;stroke:#ec008c;stroke-width:0.79701;stroke-linecap:butt;stroke-linejoin:miter;stroke-miterlimit:10;stroke-dasharray:2.98883, 2.98883;stroke-dashoffset:0;stroke-opacity:0.5"
       transform="matrix(1.3333333,0,0,-1.3333333,222.536,155.48533)"
       clip-path="url(#clipPath34)" />
    <path
       id="path13"
       d="M 22.6771,-34.01564 V 22.6771"
       style="fill:none;stroke:#ec008c;stroke-width:0.79701;stroke-linecap:butt;stroke-linejoin:miter;stroke-miterlimit:10;stroke-dasharray:2.98883, 2.98883;stroke-dashoffset:0;stroke-opacity:0.5"
       transform="matrix(1.3333333,0,0,-1.3333333,222.536,155.48533)"
       clip-path="url(#clipPath33)" />
    <path
       id="path14"
       d="M 11.33855,-34.01564 V 22.6771"
       style="fill:none;stroke:#ec008c;stroke-width:0.79701;stroke-linecap:butt;stroke-linejoin:miter;stroke-miterlimit:10;stroke-dasharray:2.98883, 2.98883;stroke-dashoffset:0;stroke-opacity:0.5"
       transform="matrix(1.3333333,0,0,-1.3333333,222.536,155.48533)"
       clip-path="url(#clipPath32)" />
    <path
       id="path15"
       d="m -21.77,-22.6771 c 0,0.50098 -0.40612,0.9071 -0.9071,0.9071 -0.50095,0 -0.90707,-0.40612 -0.90707,-0.9071 0,-0.50095 0.40612,-0.90707 0.90707,-0.90707 0.50098,0 0.9071,0.40612 0.9071,0.90707 z"
       style="fill:#eb0a36;fill-opacity:1;fill-rule:nonzero;stroke:#eb0a36;stroke-width:0.3985;stroke-linecap:butt;stroke-linejoin:miter;stroke-miterlimit:10;stroke-dasharray:none;stroke-opacity:1"
       transform="matrix(1.3333333,0,0,-1.3333333,222.536,155.48533)"
       clip-path="url(#clipPath31)" />
    <path
       id="path16"
       d="m 23.58417,7.48347 c 0,0.50097 -0.40612,0.90709 -0.90707,0.90709 -0.50098,0 -0.9071,-0.40612 -0.9071,-0.90709 0,-0.50097 0.40612,-0.90708 0.9071,-0.90708 0.50095,0 0.90707,0.40611 0.90707,0.90708 z"
       style="fill:#eb0a36;fill-opacity:1;fill-rule:nonzero;stroke:#eb0a36;stroke-width:0.3985;stroke-linecap:butt;stroke-linejoin:miter;stroke-miterlimit:10;stroke-dasharray:none;stroke-opacity:1"
       transform="matrix(1.3333333,0,0,-1.3333333,222.536,155.48533)"
       clip-path="url(#clipPath30)" />
    <path
       id="path17"
       d="m 12.24562,11.33855 c 0,0.50096 -0.40611,0.90707 -0.90707,0.90707 -0.50098,0 -0.90709,-0.40611 -0.90709,-0.90707 0,-0.50098 0.40611,-0.90709 0.90709,-0.90709 0.50096,0 0.90707,0.40611 0.90707,0.90709 z"
       style="fill:#eb0a36;fill-opacity:1;fill-rule:nonzero;stroke:#eb0a36;stroke-width:0.3985;stroke-linecap:butt;stroke-linejoin:miter;stroke-miterlimit:10;stroke-dasharray:none;stroke-opacity:1"
       transform="matrix(1.3333333,0,0,-1.3333333,222.536,155.48533)"
       clip-path="url(#clipPath29)" />
    <g
       id="g17"
       aria-label="−2"
       transform="matrix(1.3333333,0,0,1.3333333,170.212,169.15867)"
       clip-path="url(#clipPath28)">
      <path
         id="path18"
         d="m 6.5617031,-2.2957578 c 0.1757813,0 0.3515625,0 0.3515625,-0.1992188 0,-0.1992187 -0.1757812,-0.1992187 -0.3515625,-0.1992187 h -5.390625 c -0.1640625,0 -0.33984372,0 -0.33984372,0.1992187 0,0.1992188 0.17578122,0.1992188 0.33984372,0.1992188 z m 0,0"
         style="fill:#000000;fill-opacity:1;fill-rule:nonzero;stroke:none" />
      <path
         id="path19"
         d="M 9.0138516,-0.76060156 10.068539,-1.7918516 c 1.558594,-1.3710937 2.15625,-1.9101562 2.15625,-2.90625 0,-1.1367187 -0.902344,-1.9335937 -2.121094,-1.9335937 -1.1249997,0 -1.8515622,0.9140625 -1.8515622,1.8046875 0,0.5507812 0.4921875,0.5507812 0.5273438,0.5507812 0.1640625,0 0.515625,-0.1171875 0.515625,-0.5273437 0,-0.2578125 -0.1875,-0.515625 -0.5273438,-0.515625 -0.082031,0 -0.1054687,0 -0.1289062,0.011719 0.2226562,-0.6445312 0.7617187,-1.0195312 1.3359375,-1.0195312 0.9140629,0 1.3359379,0.8085937 1.3359379,1.6289062 0,0.796875 -0.492188,1.5820313 -1.042969,2.203125 L 8.3576016,-0.36216406 C 8.2521328,-0.25669531 8.2521328,-0.23325781 8.2521328,0.00111719 h 3.6914062 l 0.28125,-1.73437499 h -0.257812 c -0.04687,0.3046875 -0.117188,0.73828124 -0.210938,0.89062499 -0.07031,0.0820313 -0.726562,0.0820313 -0.949219,0.0820313 z m 0,0"
         style="fill:#000000;fill-opacity:1;fill-rule:nonzero;stroke:none" />
    </g>
    <path
       id="path20"
       d="m 2.9305156,-6.3738828 c 0,-0.234375 0,-0.2578125 -0.234375,-0.2578125 -0.609375,0.6328125 -1.4882812,0.6328125 -1.80468748,0.6328125 v 0.3164062 c 0.19921878,0 0.78515628,0 1.30078128,-0.2578125 v 5.15625004 c 0,0.3515625 -0.035156,0.48046875 -0.9257813,0.48046875 H 0.95004687 v 0.3046875 C 1.3016094,-0.03403906 2.1570781,-0.03403906 2.5555156,-0.03403906 c 0.3984375,0 1.265625,0 1.6171875,0.03515625 v -0.3046875 H 3.8562969 c -0.9023438,0 -0.9257813,-0.1171875 -0.9257813,-0.48046875 z m 0,0"
       style="fill:#000000;fill-opacity:1;fill-rule:nonzero;stroke:none"
       aria-label="1"
       transform="matrix(1.3333333,0,0,1.3333333,225.89733,169.15867)"
       clip-path="url(#clipPath27)" />
    <path
       id="path21"
       d="M 1.2653437,-0.76060156 2.3200312,-1.7918516 c 1.5585938,-1.3710937 2.15625,-1.9101562 2.15625,-2.90625 0,-1.1367187 -0.9023437,-1.9335937 -2.1210937,-1.9335937 -1.125,0 -1.8515625,0.9140625 -1.8515625,1.8046875 0,0.5507812 0.4921875,0.5507812 0.5273437,0.5507812 0.1640625,0 0.515625,-0.1171875 0.515625,-0.5273437 0,-0.2578125 -0.1875,-0.515625 -0.5273437,-0.515625 -0.0820313,0 -0.10546875,0 -0.12890625,0.011719 C 1.113,-5.9520078 1.6520625,-6.3270078 2.2262812,-6.3270078 c 0.9140625,0 1.3359375,0.8085937 1.3359375,1.6289062 0,0.796875 -0.4921875,1.5820313 -1.0429687,2.203125 L 0.60909375,-0.36216406 C 0.503625,-0.25669531 0.503625,-0.23325781 0.503625,0.00111719 h 3.6914062 l 0.28125,-1.73437499 H 4.2184687 c -0.046875,0.3046875 -0.1171875,0.73828124 -0.2109375,0.89062499 -0.070312,0.0820313 -0.7265625,0.0820313 -0.9492187,0.0820313 z m 0,0"
       style="fill:#000000;fill-opacity:1;fill-rule:nonzero;stroke:none"
       aria-label="2"
       transform="matrix(1.3333333,0,0,1.3333333,241.016,169.15867)"
       clip-path="url(#clipPath26)" />
    <g
       id="g21"
       aria-label="y=−2"
       transform="matrix(1.3333333,0,0,1.3333333,156.34533,229.63067)"
       clip-path="url(#clipPath25)">
      <path
         id="path22"
         d="m 4.8386562,-3.7981953 c 0.046875,-0.140625 0.046875,-0.1523438 0.046875,-0.2226563 0,-0.1875 -0.140625,-0.2695312 -0.2929687,-0.2695312 -0.1054688,0 -0.2578125,0.058594 -0.3515625,0.1992187 -0.023437,0.058594 -0.09375,0.3632813 -0.140625,0.5390625 -0.070312,0.2578125 -0.140625,0.5273438 -0.1992188,0.796875 l -0.4453125,1.79296879 c -0.035156,0.15234375 -0.46875,0.85546875 -1.125,0.85546875 -0.5039062,0 -0.6210937,-0.4453125 -0.6210937,-0.80859375 0,-0.45703129 0.1757812,-1.07812499 0.515625,-1.95703129 0.1523437,-0.4101562 0.1992187,-0.515625 0.1992187,-0.7148437 0,-0.4453125 -0.328125,-0.8203125 -0.8203125,-0.8203125 -0.9492187,0 -1.31249995,1.453125 -1.31249995,1.5351562 0,0.1054688 0.09375,0.1054688 0.1171875,0.1054688 0.09375,0 0.10546875,-0.023437 0.15234375,-0.1875 0.26953125,-0.9375 0.6679687,-1.2304688 1.0078125,-1.2304688 0.082031,0 0.2578125,0 0.2578125,0.3164063 0,0.2460937 -0.1054688,0.515625 -0.1757813,0.703125 -0.3984375,1.0546875 -0.5742187,1.6171875 -0.5742187,2.0859375 0,0.89062499 0.6210937,1.18359374 1.21875,1.18359374 0.3867187,0 0.7265625,-0.1640625 0.9960937,-0.4453125 C 3.162875,0.17446094 3.0456875,0.66664844 2.64725,1.1939922 2.3894375,1.5338359 2.0144375,1.8268047 1.5574062,1.8268047 c -0.140625,0 -0.5976562,-0.035156 -0.7617187,-0.421875 0.1640625,0 0.2929687,0 0.4335937,-0.1171875 C 1.3230312,1.1939922 1.4285,1.0650859 1.4285,0.87758594 c 0,-0.31640625 -0.2695313,-0.3515625 -0.375,-0.3515625 -0.22265625,0 -0.55078125,0.1640625 -0.55078125,0.64453126 0,0.5039062 0.43359375,0.8671875 1.05468745,0.8671875 1.0195313,0 2.0507813,-0.9023438 2.3320313,-2.02734376 z m 0,0"
         style="fill:#0000ff;fill-opacity:0.5;fill-rule:nonzero;stroke:none" />
      <path
         id="path23"
         d="m 14.855258,-3.2591328 c 0.152344,0 0.339844,0 0.339844,-0.1992188 0,-0.1992187 -0.1875,-0.1992187 -0.328125,-0.1992187 H 8.9021328 c -0.140625,0 -0.328125,0 -0.328125,0.1992187 0,0.1992188 0.1875,0.1992188 0.3398438,0.1992188 z m 0.01172,1.9335937 c 0.140625,0 0.328125,0 0.328125,-0.1992187 0,-0.1992188 -0.1875,-0.1992188 -0.339844,-0.1992188 H 8.9138516 c -0.1523438,0 -0.3398438,0 -0.3398438,0.1992188 0,0.1992187 0.1875,0.1992187 0.328125,0.1992187 z m 0,0"
         style="fill:#0000ff;fill-opacity:0.5;fill-rule:nonzero;stroke:none" />
      <path
         id="path24"
         d="m 25.082797,-2.2981953 c 0.175781,0 0.351562,0 0.351562,-0.1992188 0,-0.1992187 -0.175781,-0.1992187 -0.351562,-0.1992187 h -5.390625 c -0.164063,0 -0.339844,0 -0.339844,0.1992187 0,0.1992188 0.175781,0.1992188 0.339844,0.1992188 z m 0,0"
         style="fill:#0000ff;fill-opacity:0.5;fill-rule:nonzero;stroke:none" />
      <path
         id="path25"
         d="m 27.534945,-0.76303906 1.054688,-1.03125004 c 1.558594,-1.3710937 2.15625,-1.9101562 2.15625,-2.90625 0,-1.1367187 -0.902344,-1.9335937 -2.121094,-1.9335937 -1.125,0 -1.851562,0.9140625 -1.851562,1.8046875 0,0.5507812 0.492187,0.5507812 0.527343,0.5507812 0.164063,0 0.515625,-0.1171875 0.515625,-0.5273437 0,-0.2578125 -0.1875,-0.515625 -0.527343,-0.515625 -0.08203,0 -0.105469,0 -0.128907,0.011719 0.222657,-0.6445312 0.761719,-1.0195312 1.335938,-1.0195312 0.914062,0 1.335937,0.8085937 1.335937,1.6289062 0,0.796875 -0.492187,1.5820313 -1.042968,2.203125 l -1.910157,2.13281254 c -0.105468,0.10546875 -0.105468,0.12890625 -0.105468,0.36328125 h 3.691406 L 30.745883,-1.735695 H 30.48807 c -0.04687,0.3046875 -0.117187,0.73828124 -0.210937,0.89062499 -0.07031,0.0820313 -0.726563,0.0820313 -0.949219,0.0820313 z m 0,0"
         style="fill:#0000ff;fill-opacity:0.5;fill-rule:nonzero;stroke:none" />
    </g>
  </g>
</svg>
