<?xml version="1.0" encoding="UTF-8" standalone="no"?>
<!-- Created with Inkscape (http://www.inkscape.org/) -->

<svg
   version="1.1"
   id="svg1"
   width="268.08487"
   height="231.49208"
   viewBox="0 0 268.08487 231.49208"
   sodipodi:docname="4.5-funcion1.svg"
   inkscape:version="1.4.2 (f4327f4, 2025-05-13)"
   xmlns:inkscape="http://www.inkscape.org/namespaces/inkscape"
   xmlns:sodipodi="http://sodipodi.sourceforge.net/DTD/sodipodi-0.dtd"
   xmlns="http://www.w3.org/2000/svg"
   xmlns:svg="http://www.w3.org/2000/svg">
  <defs
     id="defs1" />
  <sodipodi:namedview
     id="namedview1"
     pagecolor="#ffffff"
     bordercolor="#000000"
     borderopacity="0.25"
     inkscape:showpageshadow="2"
     inkscape:pageopacity="0.0"
     inkscape:pagecheckerboard="0"
     inkscape:deskcolor="#d1d1d1"
     inkscape:zoom="2.2241536"
     inkscape:cx="136.90601"
     inkscape:cy="125.21617"
     inkscape:window-width="1920"
     inkscape:window-height="1009"
     inkscape:window-x="-8"
     inkscape:window-y="-8"
     inkscape:window-maximized="1"
     inkscape:current-layer="g1">
    <inkscape:page
       x="2.402912e-08"
       y="8.2349118e-07"
       inkscape:label="43"
       id="page1"
       width="268.08487"
       height="231.49208"
       margin="0"
       bleed="0" />
  </sodipodi:namedview>
  <g
     id="g1"
     inkscape:groupmode="layer"
     inkscape:label="43"
     transform="translate(-105.23544,-56.191406)">
    <path
       id="path2"
       d="M -85.04042,0 H 112.92896"
       style="fill:none;stroke:#000000;stroke-width:0.3985;stroke-linecap:butt;stroke-linejoin:miter;stroke-miterlimit:10;stroke-dasharray:none;stroke-opacity:1"
       transform="matrix(1.3333333,0,0,-1.3333333,218.62267,212.092)" />
    <path
       id="path3"
       d="M -1.19551,1.59401 C -1.09587,0.99626 0,0.09961 0.29886,0 0,-0.09961 -1.09587,-0.99626 -1.19551,-1.59401"
       style="fill:none;stroke:#000000;stroke-width:0.31879;stroke-linecap:round;stroke-linejoin:round;stroke-miterlimit:10;stroke-dasharray:none;stroke-opacity:1"
       transform="matrix(1.3333333,0,0,-1.3333333,369.19461,212.092)" />
    <path
       id="path4"
       d="m 3.6458594,-3.2924062 c 0.070312,-0.28125 0.3164062,-1.2890625 1.078125,-1.2890625 0.058594,0 0.3164062,0 0.5507812,0.140625 -0.3046875,0.058594 -0.5273437,0.328125 -0.5273437,0.5859375 0,0.1757812 0.1171875,0.3867187 0.4101562,0.3867187 0.2460938,0 0.5976563,-0.1992187 0.5976563,-0.6328125 0,-0.5625 -0.6445313,-0.7265625 -1.0195313,-0.7265625 -0.6328125,0 -1.0195312,0.5859375 -1.1484375,0.8320313 -0.2695312,-0.7148438 -0.8554687,-0.8320313 -1.171875,-0.8320313 -1.1367187,0 -1.75781248,1.4179688 -1.75781248,1.6875 0,0.1054688 0.10546875,0.1054688 0.12890625,0.1054688 0.0820313,0 0.1171875,-0.023437 0.140625,-0.1171875 0.37500003,-1.1601563 1.08984373,-1.4296875 1.46484373,-1.4296875 0.2109375,0 0.5859375,0.09375 0.5859375,0.7265625 0,0.3398437 -0.1875,1.078125 -0.5859375,2.6015625 -0.1757812,0.67968745 -0.5625,1.1367187 -1.0429687,1.1367187 -0.058594,0 -0.3164063,0 -0.53906253,-0.140625 0.26953123,-0.0585938 0.51562503,-0.29296875 0.51562503,-0.59765625 0,-0.29296875 -0.2460938,-0.37499995 -0.41015628,-0.37499995 -0.328125,0 -0.59765625,0.28124995 -0.59765625,0.63281245 0,0.50390625 0.55078125,0.71484375 1.03125003,0.71484375 0.7148437,0 1.1015625,-0.76171875 1.1367187,-0.83203125 C 2.6146094,-0.304125 3.0130469,0.11775 3.6692969,0.11775 c 1.125,0 1.7460937,-1.40625 1.7460937,-1.6757812 0,-0.1054688 -0.1054687,-0.1054688 -0.1289062,-0.1054688 -0.1054688,0 -0.1289063,0.035156 -0.140625,0.1171875 -0.3632813,1.16015625 -1.1132813,1.4296875 -1.453125,1.4296875 -0.4335938,0 -0.609375,-0.3515625 -0.609375,-0.7265625 0,-0.234375 0.070312,-0.4804687 0.1875,-0.9609375 z m 0,0"
       style="fill:#000000;fill-opacity:1;fill-rule:nonzero;stroke:none"
       aria-label="x"
       transform="matrix(1.3333333,0,0,1.3333333,365.64667,223.468)" />
    <path
       id="path5"
       d="M 0,-56.69362 V 112.92896"
       style="fill:none;stroke:#000000;stroke-width:0.3985;stroke-linecap:butt;stroke-linejoin:miter;stroke-miterlimit:10;stroke-dasharray:none;stroke-opacity:1"
       transform="matrix(1.3333333,0,0,-1.3333333,218.62267,212.092)" />
    <path
       id="path6"
       d="M -1.19551,1.59401 C -1.09587,0.99626 0,0.09961 0.29886,0 0,-0.09961 -1.09587,-0.99626 -1.19551,-1.59401"
       style="fill:none;stroke:#000000;stroke-width:0.31879;stroke-linecap:round;stroke-linejoin:round;stroke-miterlimit:10;stroke-dasharray:none;stroke-opacity:1"
       transform="matrix(0,-1.3333333,-1.3333333,0,218.62267,61.520053)" />
    <path
       id="path7"
       d="m 5.2964766,-4.1594766 c 0.046875,-0.1523437 0.046875,-0.1757812 0.046875,-0.2460937 0,-0.1992188 -0.1523438,-0.2929688 -0.3164063,-0.2929688 -0.1054687,0 -0.28125,0.058594 -0.375,0.2226563 -0.023437,0.058594 -0.1171875,0.3984375 -0.1523437,0.5976562 -0.082031,0.28125 -0.1523438,0.5742188 -0.2226563,0.8671875 l -0.4921875,1.96875 c -0.046875,0.16406254 -0.515625,0.92578129 -1.2304687,0.92578129 -0.5625,0 -0.6796875,-0.48046875 -0.6796875,-0.89062499 0,-0.4921875 0.1875,-1.171875 0.5625,-2.1328125 0.1757812,-0.4453125 0.2109375,-0.5742188 0.2109375,-0.7851563 0,-0.4921875 -0.3515625,-0.9023437 -0.890625,-0.9023437 -1.04296879,0 -1.44140629,1.5820312 -1.44140629,1.6875 0,0.1054687 0.10546875,0.1054687 0.12890625,0.1054687 0.10546875,0 0.1171875,-0.023437 0.17578125,-0.1992187 0.29296875,-1.0195313 0.72656249,-1.3476563 1.10156249,-1.3476563 0.09375,0 0.2695313,0 0.2695313,0.3515625 0,0.2695313 -0.1054688,0.5507813 -0.1757813,0.7617188 -0.4453125,1.1601562 -0.6328125,1.78125 -0.6328125,2.2851562 0,0.97265629 0.6796875,1.30078129 1.3242188,1.30078129 0.421875,0 0.796875,-0.1875 1.1015625,-0.4921875 -0.140625,0.57421875 -0.2695313,1.1015625 -0.703125,1.68750001 -0.2929688,0.3632812 -0.703125,0.6796875 -1.2070313,0.6796875 -0.1523437,0 -0.6445312,-0.023437 -0.83203124,-0.4570313 0.17578124,0 0.31640624,0 0.48046874,-0.1289062 0.1054688,-0.09375 0.2109375,-0.234375 0.2109375,-0.44531251 0,-0.33984375 -0.2929687,-0.38671875 -0.3984375,-0.38671875 -0.25781249,0 -0.60937499,0.17578125 -0.60937499,0.71484376 0,0.5390625 0.48046879,0.9492187 1.14843749,0.9492187 1.125,0 2.25,-0.9960937 2.5546875,-2.22656246 z m 0,0"
       style="fill:#000000;fill-opacity:1;fill-rule:nonzero;stroke:none"
       aria-label="y"
       transform="matrix(1.3333333,0,0,1.3333333,205.856,62.628)" />
    <path
       id="path8"
       d="m -70.867,29.52785 c 0,0 0.39297,0.01365 0.5439,0.01903 0.15094,0.0054 0.39299,0.01416 0.54393,0.01966 0.15092,0.0055 0.39297,0.01448 0.54391,0.02011 0.15092,0.0057 0.39299,0.01478 0.54391,0.02056 0.15095,0.0058 0.39299,0.01526 0.54393,0.02119 0.15093,0.0059 0.39296,0.01554 0.5439,0.02164 0.15093,0.0061 0.39299,0.01602 0.54392,0.02226 0.15094,0.0062 0.39299,0.0163 0.54393,0.02272 0.15092,0.0064 0.39297,0.017 0.54391,0.02356 0.15093,0.0066 0.39299,0.01708 0.54392,0.02379 0.15094,0.0067 0.39297,0.01772 0.54391,0.02466 0.15093,0.007 0.39298,0.01839 0.54392,0.02553 0.15092,0.0071 0.39299,0.01861 0.54391,0.02595 0.15094,0.0073 0.393,0.01929 0.54393,0.02681 0.15093,0.0075 0.39297,0.01973 0.5439,0.02747 0.15094,0.0077 0.39299,0.02034 0.54392,0.02832 0.15094,0.008 0.39299,0.02101 0.54393,0.0292 0.15092,0.0082 0.39297,0.02146 0.54392,0.02985 0.15092,0.0084 0.39298,0.02205 0.5439,0.0307 0.15095,0.0087 0.39298,0.02287 0.5439,0.03181 0.15095,0.0089 0.393,0.02344 0.54394,0.03266 0.15092,0.0092 0.39299,0.02426 0.54391,0.03372 0.15094,0.0095 0.39299,0.02485 0.54392,0.03461 0.15093,0.0097 0.39299,0.02562 0.54393,0.03569 0.15092,0.01008 0.39297,0.02661 0.5439,0.03697 0.15094,0.01039 0.39299,0.02714 0.54391,0.03786 0.15094,0.01071 0.39299,0.02829 0.54393,0.03935 0.15093,0.01106 0.39299,0.02902 0.54392,0.04045 0.15094,0.01143 0.39299,0.03017 0.54391,0.04195 0.15094,0.01179 0.39298,0.0309 0.54392,0.04304 0.15092,0.01215 0.39299,0.03198 0.54391,0.04456 0.15094,0.01256 0.39299,0.03303 0.54391,0.04605 0.15094,0.01303 0.39299,0.0343 0.54393,0.0478 0.15093,0.01349 0.39298,0.03559 0.5439,0.04952 0.15096,0.01396 0.39299,0.03665 0.54392,0.05105 0.15094,0.01439 0.39299,0.03783 0.54393,0.05277 0.15092,0.01492 0.39299,0.03944 0.54391,0.05493 0.15094,0.01549 0.393,0.04065 0.54392,0.05667 0.15094,0.01602 0.39298,0.04216 0.54391,0.05881 0.15093,0.01665 0.39298,0.04396 0.54392,0.0612 0.15092,0.01726 0.39299,0.04525 0.54391,0.06316 0.15094,0.0179 0.39299,0.0473 0.54394,0.06598 0.15092,0.01864 0.39297,0.04916 0.54391,0.06854 0.15092,0.01938 0.39297,0.05103 0.54389,0.07115 0.15095,0.02013 0.393,0.05303 0.54394,0.07396 0.15092,0.02095 0.39297,0.05519 0.54391,0.077 0.15093,0.02182 0.39299,0.05752 0.54392,0.08024 0.15093,0.02271 0.39297,0.05977 0.54393,0.08347 0.15092,0.02371 0.39296,0.0627 0.5439,0.08739 0.15092,0.02468 0.39299,0.0648 0.54391,0.0906 0.15094,0.02581 0.39299,0.06838 0.54393,0.09537 0.15093,0.02702 0.39298,0.07114 0.54392,0.09927 0.15092,0.02816 0.39297,0.07418 0.5439,0.10361 0.15094,0.02943 0.39299,0.07774 0.54393,0.10855 0.15092,0.03082 0.39297,0.08124 0.54391,0.11354 0.15093,0.03232 0.39299,0.08545 0.54392,0.11939 0.15094,0.03393 0.39298,0.08961 0.54393,0.12521 0.15092,0.03563 0.39295,0.09412 0.5439,0.1315 0.15092,0.03739 0.39299,0.09871 0.54391,0.13797 0.15094,0.03929 0.39299,0.10381 0.54391,0.14513 0.15094,0.04132 0.39299,0.10908 0.54393,0.15268 0.15093,0.04359 0.393,0.11555 0.54392,0.16156 0.15094,0.04599 0.39298,0.12146 0.5439,0.16998 0.15094,0.04851 0.39299,0.12839 0.54393,0.17972 0.15092,0.05134 0.39299,0.13595 0.54391,0.19032 0.15094,0.05437 0.39299,0.14395 0.54392,0.20155 0.15094,0.05762 0.39297,0.15253 0.54392,0.21369 0.15093,0.06114 0.39298,0.16209 0.54391,0.22708 0.15094,0.06499 0.39299,0.1722 0.54391,0.24135 0.15094,0.06917 0.39299,0.18342 0.54393,0.25714 0.15093,0.07373 0.39299,0.19537 0.54392,0.27423 0.15094,0.07886 0.39297,0.2097 0.5439,0.29413 0.15093,0.08444 0.39299,0.22404 0.54393,0.31445 0.15092,0.09041 0.39299,0.24004 0.54391,0.33716 0.15094,0.09714 0.39299,0.25835 0.54392,0.36291 0.15094,0.10457 0.39299,0.27793 0.54393,0.39079 0.15092,0.11289 0.39297,0.30071 0.5439,0.42281 0.15094,0.12209 0.39299,0.32479 0.54391,0.45719 0.15094,0.13243 0.39299,0.35315 0.54393,0.49722 0.15093,0.14404 0.39298,0.38396 0.54392,0.54109 0.15092,0.15715 0.39297,0.41925 0.54391,0.59149 0.15094,0.17224 0.39297,0.4606 0.54392,0.64989 0.15092,0.18929 0.39297,0.50571 0.54391,0.71434 0.15093,0.20863 0.39299,0.55794 0.54392,0.78938 0.15094,0.23145 0.39299,0.6209 0.54392,0.87871 0.15093,0.25781 0.39297,0.691 0.5439,0.97948 0.15095,0.28848 0.393,0.77489 0.54392,1.09973 0.15094,0.32486 0.39299,0.87306 0.54393,1.24159 0.15092,0.36855 0.39297,0.9934 0.54391,1.41463 0.15093,0.42123 0.393,1.13625 0.54392,1.62137 0.15094,0.48511 0.39297,1.31047 0.54392,1.87504 0.15092,0.56458 0.39297,1.52916 0.54391,2.19405 0.15092,0.66489 0.39299,1.80524 0.54391,2.59805 0.15094,0.7928 0.39299,2.15439 0.54393,3.116 0.15093,0.96159 0.39298,2.62399 0.54392,3.81454 0.15093,1.19056 0.39297,3.2581 0.5439,4.76615 0.15094,1.50805 0.39299,4.13373 0.54393,6.1029 0.15092,1.96917 0.39297,5.41224 0.54391,8.08953 0.15093,2.67732 0.54392,11.20663 0.54392,11.20663"
       style="fill:none;stroke:#eb0a36;stroke-width:0.79701;stroke-linecap:butt;stroke-linejoin:miter;stroke-miterlimit:10;stroke-dasharray:none;stroke-opacity:1"
       transform="matrix(1.3333333,0,0,-1.3333333,218.62267,212.092)" />
    <path
       id="path9"
       d="m -11.33876,-50.39607 c 0,0 0.16548,3.8773 0.22903,5.22571 0.06356,1.34841 0.16549,3.32959 0.22904,4.49278 0.06355,1.16318 0.16548,2.87798 0.22902,3.89067 0.06357,1.01271 0.16548,2.51834 0.22903,3.40819 0.06355,0.88984 0.16548,2.21826 0.22904,3.00526 0.06353,0.78703 0.16548,1.96632 0.22902,2.66704 0.06355,0.70073 0.16548,1.7556 0.22903,2.38327 0.06355,0.6277 0.16547,1.57568 0.22903,2.14064 0.06354,0.56497 0.16547,1.42065 0.22904,1.93129 0.06354,0.51062 0.16547,1.2856 0.22902,1.74896 0.06355,0.46336 0.16548,1.16856 0.22902,1.59066 0.06357,0.42211 0.16548,1.0659 0.22903,1.45161 0.06355,0.38569 0.16548,0.97481 0.22904,1.32831 0.06355,0.35351 0.16548,0.89483 0.22902,1.21954 0.06356,0.32469 0.16548,0.82172 0.22903,1.12071 0.06355,0.29898 0.16548,0.75821 0.22903,1.0342 0.06354,0.276 0.16547,0.70006 0.22902,0.95504 0.06356,0.25501 0.16548,0.64675 0.22904,0.88282 0.06355,0.23605 0.16546,0.59962 0.22903,0.81857 0.06354,0.21896 0.16547,0.55624 0.22904,0.75954 0.06353,0.20331 0.16546,0.51674 0.22902,0.70569 0.06355,0.18895 0.16548,0.48043 0.22901,0.65615 0.06357,0.17572 0.16549,0.44682 0.22904,0.61031 0.06355,0.16347 0.16548,0.4158 0.22903,0.56791 0.06356,0.15215 0.16549,0.38686 0.22902,0.52859 0.06357,0.14171 0.16548,0.36082 0.22904,0.49286 0.06355,0.13203 0.16548,0.33584 0.22903,0.45872 0.06354,0.12288 0.16547,0.31255 0.22902,0.4269 0.06355,0.11434 0.16548,0.29089 0.22904,0.39729 0.06355,0.1064 0.16546,0.27072 0.22903,0.3696 0.06354,0.0989 0.16547,0.25143 0.22903,0.34321 0.06354,0.0918 0.16547,0.23336 0.22902,0.31836 0.06356,0.08502 0.16548,0.2157 0.22903,0.29434 0.06356,0.07865 0.16547,0.19988 0.22903,0.27251 0.06355,0.0726 0.16548,0.18413 0.22903,0.25087 0.06355,0.06673 0.16548,0.16893 0.22902,0.2301 0.06357,0.06119 0.16548,0.155 0.22903,0.21086 0.06356,0.05587 0.16549,0.14107 0.22904,0.19184 0.06354,0.05076 0.16547,0.12831 0.22902,0.17409 0.06355,0.04579 0.16548,0.11494 0.22903,0.15593 0.06356,0.04098 0.16547,0.10313 0.22904,0.13949 0.06353,0.03636 0.16546,0.09087 0.22903,0.12264 0.06354,0.03176 0.16547,0.0791 0.22902,0.1064 0.06355,0.0273 0.16548,0.0674 0.22902,0.0904 0.06357,0.023 0.16548,0.05672 0.22903,0.07547 0.06356,0.01876 0.16549,0.0452 0.22904,0.0597 0.06355,0.01448 0.16548,0.03442 0.22902,0.04477 0.06357,0.01034 0.16548,0.02366 0.22903,0.02984 0.06356,0.00618 0.16548,0.01267 0.22904,0.01471 0.06353,0.002 0.16543,0.002 0.22899,0 C 0.17621,-0.00375 0.27814,-0.0103 0.34169,-0.01642 0.40524,-0.02254 0.50716,-0.0356 0.57072,-0.04582 0.63426,-0.05606 0.73619,-0.07574 0.79976,-0.09016 0.8633,-0.1046 0.96523,-0.13116 1.02878,-0.14986 1.09233,-0.16855 1.19426,-0.20198 1.2578,-0.2249 1.32137,-0.24783 1.42328,-0.28784 1.48683,-0.31508 1.55038,-0.34233 1.65231,-0.38953 1.71587,-0.42126 1.77942,-0.45302 1.88135,-0.50768 1.94489,-0.5439 2.00845,-0.58011 2.11037,-0.64145 2.17392,-0.68231 2.23747,-0.72318 2.3394,-0.79272 2.40295,-0.83846 2.46649,-0.88419 2.56842,-0.96123 2.63197,-1.01192 2.69553,-1.06258 2.79745,-1.14789 2.86101,-1.20374 2.92456,-1.25957 3.02647,-1.35329 3.09004,-1.41438 3.15358,-1.47546 3.25551,-1.5774 3.31908,-1.64406 3.38261,-1.71074 3.48454,-1.8224 3.5481,-1.89493 3.61165,-1.96745 3.71358,-2.08829 3.77711,-2.1668 3.84068,-2.24529 3.9426,-2.37578 4.00615,-2.4607 4.0697,-2.54561 4.17163,-2.68715 4.23518,-2.77882 4.29874,-2.87048 4.40067,-3.02267 4.4642,-3.1214 4.52777,-3.22012 4.62968,-3.38406 4.69324,-3.49036 4.75679,-3.59663 4.85872,-3.77321 4.92227,-3.88742 4.98581,-4.00162 5.08774,-4.19073 5.15129,-4.31346 5.21484,-4.43619 5.31677,-4.63998 5.38033,-4.77196 5.44388,-4.90392 5.54579,-5.12303 5.60936,-5.26462 5.6729,-5.40622 5.77483,-5.64061 5.8384,-5.79254 5.90193,-5.94446 6.00386,-6.19633 6.06741,-6.35959 6.13097,-6.52286 6.2329,-6.79378 6.29643,-6.96925 6.36,-7.14473 6.46191,-7.4356 6.52547,-7.62433 6.58902,-7.81308 6.69095,-8.12646 6.7545,-8.32957 6.81805,-8.5327 6.91998,-8.86957 6.98352,-9.08826 7.04709,-9.30695 7.149,-9.6699 7.21255,-9.90575 c 0.06355,-0.23587 0.16549,-0.62761 0.22904,-0.88238 0.06354,-0.25479 0.16547,-0.67841 0.22902,-0.95397 0.06355,-0.27554 0.16548,-0.73342 0.22903,-1.03202 0.06356,-0.2986 0.16547,-0.79578 0.22904,-1.12008 0.06353,-0.32426 0.16546,-0.8642 0.22903,-1.21716 0.06354,-0.35292 0.16547,-0.94151 0.22902,-1.32658 0.06355,-0.38507 0.16548,-1.02747 0.22902,-1.44879 0.06357,-0.42133 0.16548,-1.12499 0.22903,-1.58785 0.06356,-0.46286 0.16549,-1.23826 0.22904,-1.74811 0.06355,-0.50984 0.16548,-1.36271 0.22902,-1.92651 0.06356,-0.5638 0.16549,-1.51006 0.22903,-2.13696 0.06356,-0.6269 0.16548,-1.68203 0.22903,-2.38132 0.06354,-0.69931 0.16547,-1.87373 0.22903,-2.65882 0.06355,-0.7851 0.16548,-2.11149 0.22903,-2.99966 0.06355,-0.88817 0.16547,-2.39079 0.22904,-3.40169 0.06353,-1.01091 0.16546,-2.72375 0.22903,-3.88418 0.06354,-1.16043 0.16547,-3.13414 0.229,-4.47937 0.06357,-1.34525 0.22904,-5.2162 0.22904,-5.2162"
       style="fill:none;stroke:#eb0a36;stroke-width:0.79701;stroke-linecap:butt;stroke-linejoin:miter;stroke-miterlimit:10;stroke-dasharray:none;stroke-opacity:1"
       transform="matrix(1.3333333,0,0,-1.3333333,218.62267,212.092)" />
    <path
       id="path10"
       d="m 17.00803,92.7714 c 0,0 0.39299,-8.59286 0.54391,-11.28861 0.15094,-2.69576 0.39299,-6.15962 0.54393,-8.14058 0.15093,-1.98097 0.39298,-4.62093 0.5439,-6.13686 0.15094,-1.51591 0.39299,-3.59283 0.54392,-4.78883 0.15094,-1.19602 0.39299,-2.86549 0.54393,-3.83121 0.15092,-0.96571 0.39298,-2.33299 0.54391,-3.12898 0.15094,-0.79599 0.39299,-1.94093 0.54391,-2.60799 0.15094,-0.66704 0.39298,-1.63333 0.54392,-2.19967 0.15092,-0.56635 0.39297,-1.39548 0.54391,-1.88219 0.15093,-0.48671 0.39299,-1.20346 0.54392,-1.6257 0.15094,-0.42221 0.39299,-1.04792 0.54393,-1.41742 0.15092,-0.36949 0.39296,-0.91986 0.5439,-1.24571 0.15094,-0.32584 0.39299,-0.81348 0.54391,-1.10275 0.15094,-0.28927 0.39299,-0.72387 0.54393,-0.98208 0.15093,-0.25821 0.39298,-0.64709 0.54392,-0.87892 0.15092,-0.23183 0.39299,-0.58275 0.54392,-0.79198 0.15093,-0.20924 0.39297,-0.52649 0.54391,-0.71606 0.15092,-0.18958 0.39297,-0.47778 0.54391,-0.65031 0.15093,-0.17255 0.39299,-0.43561 0.54392,-0.59324 0.15094,-0.15762 0.39299,-0.39854 0.54393,-0.54284 0.15093,-0.14431 0.39297,-0.36461 0.54391,-0.4972 0.15092,-0.13261 0.39298,-0.33616 0.5439,-0.45849 0.15094,-0.12233 0.39299,-0.31017 0.54393,-0.42323 0.15093,-0.11305 0.39298,-0.2871 0.54392,-0.39167 0.15092,-0.10457 0.39299,-0.26481 0.54391,-0.36204 0.15094,-0.09722 0.39298,-0.2479 0.54393,-0.33867 0.15093,-0.09076 0.39296,-0.23105 0.5439,-0.31554 0.15093,-0.0845 0.39299,-0.21457 0.54392,-0.29347 0.15094,-0.07892 0.39299,-0.20139 0.54391,-0.27531 0.15094,-0.07395 0.39299,-0.18833 0.54393,-0.25759 0.15093,-0.06924 0.39297,-0.17651 0.5439,-0.24156 0.15096,-0.06505 0.39299,-0.16609 0.54392,-0.2273 0.15094,-0.06121 0.39299,-0.15623 0.54393,-0.21389 0.15092,-0.05768 0.39299,-0.14736 0.54391,-0.20177 0.15094,-0.05444 0.39299,-0.13914 0.54391,-0.19055 0.15094,-0.05139 0.39298,-0.13133 0.54392,-0.17993 0.15092,-0.04862 0.39299,-0.12436 0.54391,-0.17043 0.15094,-0.04605 0.39299,-0.11792 0.54392,-0.16154 0.15094,-0.04364 0.39299,-0.11153 0.54393,-0.15291 0.15092,-0.04137 0.39299,-0.10599 0.54392,-0.14533 0.15093,-0.03933 0.39297,-0.10076 0.5439,-0.13819 0.15093,-0.03745 0.39298,-0.0961 0.54392,-0.1317 0.15093,-0.03562 0.39299,-0.09111 0.54392,-0.12502 0.15094,-0.0339 0.39299,-0.087 0.54391,-0.11937 0.15095,-0.03237 0.39298,-0.08311 0.54393,-0.11398 0.15093,-0.03089 0.39298,-0.0791 0.5439,-0.10857 0.15094,-0.02946 0.39299,-0.07564 0.54392,-0.1038 0.15094,-0.02817 0.39299,-0.0723 0.54393,-0.09928 0.15092,-0.02696 0.39297,-0.06932 0.54391,-0.09515 0.15093,-0.02583 0.39298,-0.06635 0.5439,-0.09105 0.15094,-0.02472 0.39299,-0.06346 0.54393,-0.08716 0.15093,-0.02369 0.39298,-0.06094 0.54392,-0.08369 0.15092,-0.02274 0.39299,-0.05841 0.54391,-0.08023 0.15094,-0.02182 0.39299,-0.05606 0.54393,-0.077 0.15093,-0.02095 0.39296,-0.05377 0.5439,-0.07396 0.15093,-0.02019 0.39299,-0.05214 0.54392,-0.07158 0.15094,-0.01945 0.39299,-0.04994 0.54393,-0.06857 0.15092,-0.01863 0.39297,-0.04784 0.54391,-0.06575 0.15093,-0.0179 0.39299,-0.04608 0.54391,-0.06335 0.15095,-0.01729 0.39298,-0.04453 0.54392,-0.06121 0.15093,-0.01668 0.39298,-0.043 0.54392,-0.05905 0.15092,-0.01605 0.39299,-0.04119 0.54391,-0.05666 0.15094,-0.01547 0.39299,-0.03996 0.54393,-0.05493 0.15092,-0.01497 0.39296,-0.03856 0.5439,-0.05298 0.15094,-0.01443 0.39299,-0.03712 0.54392,-0.05105 0.15093,-0.0139 0.39298,-0.03583 0.54392,-0.0493 0.15093,-0.01346 0.39298,-0.03475 0.54392,-0.04779 0.15092,-0.01306 0.39299,-0.03369 0.54391,-0.0463 0.15095,-0.0126 0.39298,-0.03241 0.5439,-0.04455 0.15095,-0.01215 0.39299,-0.03124 0.54393,-0.04303 0.15093,-0.01178 0.39299,-0.03054 0.54392,-0.04197 0.15094,-0.01143 0.39299,-0.02937 0.54391,-0.04043 0.15094,-0.01106 0.39299,-0.02866 0.54393,-0.03935 0.15093,-0.01073 0.39298,-0.02748 0.5439,-0.03786 0.15094,-0.01038 0.39299,-0.0269 0.54392,-0.03697 0.15094,-0.01009 0.39299,-0.02591 0.54393,-0.03569 0.15092,-0.0098 0.39299,-0.02532 0.54391,-0.03483 0.15094,-0.0095 0.39298,-0.02453 0.54392,-0.03373 0.15094,-0.0092 0.39297,-0.02373 0.54391,-0.03267 0.15093,-0.0089 0.39299,-0.02312 0.54392,-0.03178 0.15094,-0.0087 0.39299,-0.02228 0.54391,-0.0307 0.15094,-0.0084 0.39299,-0.02189 0.54393,-0.03008 0.15093,-0.0082 0.39298,-0.02103 0.5439,-0.02898 0.15096,-0.008 0.39299,-0.0206 0.54391,-0.02833 0.15095,-0.0077 0.393,-0.0199 0.54394,-0.02745 0.15092,-0.0076 0.39299,-0.01968 0.54391,-0.02706 0.15094,-0.0073 0.39299,-0.01882 0.54392,-0.02594 0.15093,-0.0071 0.39297,-0.01838 0.54391,-0.0253 0.15092,-0.0069 0.39298,-0.01791 0.54392,-0.02465 0.15092,-0.0068 0.39299,-0.01741 0.54391,-0.02401 0.15094,-0.0066 0.39299,-0.01716 0.54393,-0.02357 0.15092,-0.0064 0.39298,-0.01649 0.54392,-0.02272 0.15092,-0.0062 0.39297,-0.01596 0.54389,-0.02205 0.15095,-0.0061 0.39299,-0.01587 0.54393,-0.02185 0.15093,-0.006 0.39298,-0.0154 0.54392,-0.02119 0.15092,-0.0058 0.39299,-0.0149 0.54391,-0.02054 0.15094,-0.0056 0.39298,-0.01459 0.54393,-0.02011 0.15093,-0.0055 0.39296,-0.01432 0.5439,-0.01969 0.15093,-0.0054 0.54392,-0.01903 0.54392,-0.01903"
       style="fill:none;stroke:#eb0a36;stroke-width:0.79701;stroke-linecap:butt;stroke-linejoin:miter;stroke-miterlimit:10;stroke-dasharray:none;stroke-opacity:1"
       transform="matrix(1.3333333,0,0,-1.3333333,218.62267,212.092)" />
    <path
       id="path11"
       d="M 1.13388,0 C 1.13388,0.62622 0.62622,1.13388 0,1.13388 -0.62622,1.13388 -1.13388,0.62622 -1.13388,0 c 0,-0.62622 0.50766,-1.13388 1.13388,-1.13388 0.62622,0 1.13388,0.50766 1.13388,1.13388 z"
       style="fill:#eb0a36;fill-opacity:1;fill-rule:nonzero;stroke:#eb0a36;stroke-width:0.3985;stroke-linecap:butt;stroke-linejoin:miter;stroke-miterlimit:10;stroke-dasharray:none;stroke-opacity:1"
       transform="matrix(1.3333333,0,0,-1.3333333,218.62267,212.092)" />
    <path
       id="path12"
       d="M -14.17339,-56.69362 V 113.38724"
       style="fill:none;stroke:#0000ff;stroke-width:0.79701;stroke-linecap:butt;stroke-linejoin:miter;stroke-miterlimit:10;stroke-dasharray:2.98883, 2.98883;stroke-dashoffset:0;stroke-opacity:0.5"
       transform="matrix(1.3333333,0,0,-1.3333333,218.62267,212.092)" />
    <path
       id="path13"
       d="M 14.17339,-56.69362 V 113.38724"
       style="fill:none;stroke:#0000ff;stroke-width:0.79701;stroke-linecap:butt;stroke-linejoin:miter;stroke-miterlimit:10;stroke-dasharray:2.98883, 2.98883;stroke-dashoffset:0;stroke-opacity:0.5"
       transform="matrix(1.3333333,0,0,-1.3333333,218.62267,212.092)" />
    <path
       id="path14"
       d="M -77.95372,28.3468 H 99.21382"
       style="fill:none;stroke:#ec008c;stroke-width:0.79701;stroke-linecap:butt;stroke-linejoin:miter;stroke-miterlimit:10;stroke-dasharray:2.98883, 2.98883;stroke-dashoffset:0;stroke-opacity:0.5"
       transform="matrix(1.3333333,0,0,-1.3333333,218.62267,212.092)" />
    <g
       id="g14"
       aria-label="y=2"
       transform="matrix(1.3333333,0,0,1.3333333,335.23467,162.168)">
      <path
         id="path15"
         d="M 4.839625,-3.7968984 C 4.8865,-3.9375234 4.8865,-3.9492422 4.8865,-4.0195547 c 0,-0.1875 -0.140625,-0.2695312 -0.2929687,-0.2695312 -0.1054688,0 -0.2578125,0.058594 -0.3515625,0.1992187 -0.023437,0.058594 -0.09375,0.3632813 -0.140625,0.5390625 -0.070312,0.2578125 -0.140625,0.5273438 -0.1992188,0.796875 l -0.4453125,1.79296876 c -0.035156,0.15234375 -0.46875,0.85546875 -1.125,0.85546875 -0.5039062,0 -0.6210937,-0.4453125 -0.6210937,-0.80859375 0,-0.45703126 0.1757812,-1.07812496 0.515625,-1.95703126 0.1523437,-0.4101562 0.1992187,-0.515625 0.1992187,-0.7148437 0,-0.4453125 -0.328125,-0.8203125 -0.8203125,-0.8203125 -0.94921875,0 -1.3125,1.453125 -1.3125,1.5351562 0,0.1054688 0.09375,0.1054688 0.1171875,0.1054688 0.09375,0 0.10546875,-0.023437 0.15234375,-0.1875 0.26953125,-0.9375 0.66796875,-1.2304688 1.00781255,-1.2304688 0.082031,0 0.2578125,0 0.2578125,0.3164063 0,0.2460937 -0.1054688,0.515625 -0.1757813,0.703125 -0.3984375,1.0546875 -0.5742187,1.6171875 -0.5742187,2.0859375 0,0.89062496 0.6210937,1.18359371 1.21875,1.18359371 0.3867187,0 0.7265625,-0.1640625 0.9960937,-0.4453125 C 3.1638438,0.17575781 3.0466563,0.66794531 2.6482188,1.1952891 2.3904063,1.5351328 2.0154063,1.8281016 1.558375,1.8281016 c -0.140625,0 -0.59765625,-0.035156 -0.76171875,-0.421875 0.1640625,0 0.29296875,0 0.43359375,-0.1171875 0.09375,-0.09375 0.1992188,-0.2226563 0.1992188,-0.41015629 0,-0.31640625 -0.2695313,-0.3515625 -0.375,-0.3515625 -0.2226563,0 -0.5507813,0.1640625 -0.5507813,0.64453129 0,0.5039062 0.43359375,0.8671875 1.0546875,0.8671875 1.0195313,0 2.0507813,-0.9023438 2.3320313,-2.02734379 z m 0,0"
         style="fill:#ec008c;fill-opacity:0.5;fill-rule:nonzero;stroke:none" />
      <path
         id="path16"
         d="m 14.856227,-3.2578359 c 0.152343,0 0.339843,0 0.339843,-0.1992188 0,-0.1992187 -0.1875,-0.1992187 -0.328125,-0.1992187 H 8.9031016 c -0.140625,0 -0.328125,0 -0.328125,0.1992187 0,0.1992188 0.1875,0.1992188 0.3398437,0.1992188 z m 0.01172,1.9335937 c 0.140625,0 0.328125,0 0.328125,-0.1992187 0,-0.1992188 -0.1875,-0.1992188 -0.339843,-0.1992188 H 8.9148203 c -0.1523437,0 -0.3398437,0 -0.3398437,0.1992188 0,0.1992187 0.1875,0.1992187 0.328125,0.1992187 z m 4.918946,0.56250001 1.054687,-1.03125001 c 1.558594,-1.3710937 2.15625,-1.9101562 2.15625,-2.90625 0,-1.1367187 -0.902344,-1.9335937 -2.121094,-1.9335937 -1.125,0 -1.851562,0.9140625 -1.851562,1.8046875 0,0.5507812 0.492187,0.5507812 0.527344,0.5507812 0.164062,0 0.515625,-0.1171875 0.515625,-0.5273437 0,-0.2578125 -0.1875,-0.515625 -0.527344,-0.515625 -0.08203,0 -0.105469,0 -0.128906,0.011719 0.222656,-0.6445312 0.761718,-1.0195312 1.335937,-1.0195312 0.914063,0 1.335938,0.8085937 1.335938,1.6289062 0,0.796875 -0.492188,1.5820313 -1.042969,2.203125 l -1.910156,2.13281251 c -0.105469,0.10546875 -0.105469,0.12890625 -0.105469,0.3632812525 H 22.71658 L 22.997828,-1.7343984 h -0.257812 c -0.04687,0.3046875 -0.117188,0.73828121 -0.210938,0.89062496 -0.07031,0.0820313 -0.726562,0.0820313 -0.949219,0.0820313 z m 0,0"
         style="fill:#ec008c;fill-opacity:0.5;fill-rule:nonzero;stroke:none" />
    </g>
    <g
       id="g16"
       aria-label="x=−1"
       transform="matrix(1.3333333,0,0,1.3333333,150.24,253.61467)">
      <path
         id="path17"
         d="m 3.3268359,-3.0127578 c 0.058594,-0.2578125 0.2929688,-1.171875 0.984375,-1.171875 0.046875,0 0.2929688,0 0.5039063,0.1289062 -0.28125,0.046875 -0.4804688,0.3046875 -0.4804688,0.5390625 0,0.1640625 0.1054688,0.3515625 0.375,0.3515625 0.2226563,0 0.5390625,-0.1875 0.5390625,-0.5859375 0,-0.515625 -0.5859375,-0.65625 -0.9257812,-0.65625 -0.5742188,0 -0.9257813,0.5273438 -1.0429688,0.7617188 -0.2578125,-0.65625 -0.7851562,-0.7617188 -1.078125,-0.7617188 -1.0429687,0 -1.60546871,1.2890625 -1.60546871,1.5351563 0,0.1054687 0.10546875,0.1054687 0.1171875,0.1054687 0.0820313,0 0.1171875,-0.023437 0.12890625,-0.1171875 0.33984376,-1.0546875 0.99609376,-1.3007812 1.33593746,-1.3007812 0.1875,0 0.5390625,0.09375 0.5390625,0.6679687 0,0.3046875 -0.1640625,0.9726563 -0.5390625,2.3671875 -0.1523437,0.62109379 -0.5039062,1.04296879 -0.9492187,1.04296879 -0.058594,0 -0.28125001,0 -0.49218751,-0.12890625 0.24609375,-0.0585937 0.46875001,-0.26953125 0.46875001,-0.5390625 0,-0.26953124 -0.22265626,-0.35156254 -0.37500001,-0.35156254 -0.29296875,0 -0.5390625,0.25781254 -0.5390625,0.57421879 0,0.45703125 0.4921875,0.65625 0.93750001,0.65625 0.65625,0 1.0078125,-0.69140625 1.0429687,-0.75 0.1171875,0.36328125 0.4804688,0.75 1.078125,0.75 1.0195313,0 1.59375,-1.27734379 1.59375,-1.53515629 0,-0.09375 -0.09375,-0.09375 -0.1289062,-0.09375 -0.082031,0 -0.1054688,0.035156 -0.1289063,0.1054688 -0.328125,1.06640624 -0.9960937,1.31249999 -1.3242187,1.31249999 -0.3867188,0 -0.5390625,-0.328125 -0.5390625,-0.65625 0,-0.22265625 0.058594,-0.44531249 0.1640625,-0.87890629 z m 0,0"
         style="fill:#0000ff;fill-opacity:0.5;fill-rule:nonzero;stroke:none" />
      <path
         id="path18"
         d="m 15.306328,-3.2588516 c 0.152344,0 0.339844,0 0.339844,-0.1992187 0,-0.1992188 -0.1875,-0.1992188 -0.328125,-0.1992188 H 9.3532031 c -0.140625,0 -0.328125,0 -0.328125,0.1992188 0,0.1992187 0.1875,0.1992187 0.3398438,0.1992187 z m 0.01172,1.9335938 c 0.140625,0 0.328125,0 0.328125,-0.1992188 0,-0.1992187 -0.1875,-0.1992187 -0.339844,-0.1992187 H 9.3649219 c -0.1523438,0 -0.3398438,0 -0.3398438,0.1992187 0,0.1992188 0.1875,0.1992188 0.328125,0.1992188 z m 0,0"
         style="fill:#0000ff;fill-opacity:0.5;fill-rule:nonzero;stroke:none" />
      <path
         id="path19"
         d="m 25.545586,-2.2979141 c 0.175781,0 0.351562,0 0.351562,-0.1992187 0,-0.1992188 -0.175781,-0.1992188 -0.351562,-0.1992188 h -5.390625 c -0.164063,0 -0.339844,0 -0.339844,0.1992188 0,0.1992187 0.175781,0.1992187 0.339844,0.1992187 z m 0,0"
         style="fill:#0000ff;fill-opacity:0.5;fill-rule:nonzero;stroke:none" />
      <path
         id="path20"
         d="m 29.661797,-6.3760391 c 0,-0.234375 0,-0.2578125 -0.234375,-0.2578125 -0.609375,0.6328125 -1.488281,0.6328125 -1.804688,0.6328125 v 0.3164063 c 0.199219,0 0.785157,0 1.300782,-0.2578125 v 5.15624999 c 0,0.3515625 -0.03516,0.48046875 -0.925782,0.48046875 h -0.316406 v 0.3046875 c 0.351563,-0.03515625 1.207031,-0.03515625 1.605469,-0.03515625 0.398437,0 1.265625,0 1.617187,0.03515625 v -0.3046875 h -0.316406 c -0.902344,0 -0.925781,-0.1171875 -0.925781,-0.48046875 z m 0,0"
         style="fill:#0000ff;fill-opacity:0.5;fill-rule:nonzero;stroke:none" />
    </g>
    <g
       id="g20"
       aria-label="x=1"
       transform="matrix(1.3333333,0,0,1.3333333,249.89467,254.168)">
      <path
         id="path21"
         d="m 3.3280234,-3.0117422 c 0.058594,-0.2578125 0.2929688,-1.171875 0.984375,-1.171875 0.046875,0 0.2929688,0 0.5039063,0.1289063 -0.28125,0.046875 -0.4804688,0.3046875 -0.4804688,0.5390625 0,0.1640625 0.1054688,0.3515625 0.375,0.3515625 0.2226563,0 0.5390625,-0.1875 0.5390625,-0.5859375 0,-0.515625 -0.5859375,-0.65625 -0.9257812,-0.65625 -0.5742188,0 -0.9257813,0.5273437 -1.0429688,0.7617187 -0.2578125,-0.65625 -0.7851562,-0.7617187 -1.078125,-0.7617187 -1.0429687,0 -1.60546871,1.2890625 -1.60546871,1.5351562 0,0.1054688 0.10546875,0.1054688 0.1171875,0.1054688 0.0820313,0 0.1171875,-0.023437 0.12890625,-0.1171875 0.33984376,-1.0546875 0.99609376,-1.3007813 1.33593746,-1.3007813 0.1875,0 0.5390625,0.09375 0.5390625,0.6679688 0,0.3046875 -0.1640625,0.9726562 -0.5390625,2.3671875 -0.1523437,0.62109371 -0.5039062,1.04296871 -0.9492187,1.04296871 -0.058594,0 -0.28125001,0 -0.49218751,-0.12890625 0.24609375,-0.0585937 0.46875001,-0.26953125 0.46875001,-0.5390625 0,-0.26953126 -0.22265626,-0.35156246 -0.37500001,-0.35156246 -0.29296875,0 -0.5390625,0.25781246 -0.5390625,0.57421871 0,0.45703125 0.4921875,0.65625 0.93750001,0.65625 0.65625,0 1.0078125,-0.69140625 1.0429687,-0.75 0.1171875,0.36328125 0.4804688,0.75 1.078125,0.75 1.0195313,0 1.59375,-1.27734371 1.59375,-1.53515621 0,-0.09375 -0.09375,-0.09375 -0.1289062,-0.09375 -0.082031,0 -0.1054688,0.035156 -0.1289063,0.1054687 -0.328125,1.06640626 -0.9960937,1.31250001 -1.3242187,1.31250001 -0.3867188,0 -0.5390625,-0.328125 -0.5390625,-0.65625 0,-0.22265625 0.058594,-0.44531251 0.1640625,-0.87890621 z m 0,0"
         style="fill:#0000ff;fill-opacity:0.5;fill-rule:nonzero;stroke:none" />
      <path
         id="path22"
         d="m 15.307516,-3.2578359 c 0.152343,0 0.339843,0 0.339843,-0.1992188 0,-0.1992187 -0.1875,-0.1992187 -0.328125,-0.1992187 H 9.3543906 c -0.140625,0 -0.328125,0 -0.328125,0.1992187 0,0.1992188 0.1875,0.1992188 0.3398438,0.1992188 z m 0.01172,1.9335937 c 0.140625,0 0.328125,0 0.328125,-0.1992187 0,-0.1992188 -0.1875,-0.1992188 -0.339843,-0.1992188 H 9.3661094 c -0.1523438,0 -0.3398438,0 -0.3398438,0.1992188 0,0.1992187 0.1875,0.1992187 0.328125,0.1992187 z m 6.591797,-5.0507812 c 0,-0.234375 0,-0.2578125 -0.234375,-0.2578125 -0.609375,0.6328125 -1.488281,0.6328125 -1.804687,0.6328125 v 0.3164062 c 0.199219,0 0.785156,0 1.300781,-0.2578125 v 5.15625001 c 0,0.3515625 -0.03516,0.48046875 -0.925781,0.48046875 H 19.930563 V -2.34375e-5 C 20.282125,-0.03517969 21.137594,-0.03517969 21.536031,-0.03517969 c 0.398438,0 1.265625,0 1.617188,0.0351562525 V -0.30471094 h -0.316406 c -0.902344,0 -0.925782,-0.1171875 -0.925782,-0.48046875 z m 0,0"
         style="fill:#0000ff;fill-opacity:0.5;fill-rule:nonzero;stroke:none" />
    </g>
    <g
       id="g22"
       aria-label="f(x)=&#10;2x&#10;2"
       transform="matrix(1.3333333,0,0,1.3333333,271.51867,122.39467)">
      <path
         id="path23"
         d="m 3.6568984,-3.9844766 h 0.8554688 c 0.1992187,0 0.3046875,0 0.3046875,-0.1992187 0,-0.1054688 -0.1054688,-0.1054688 -0.2695313,-0.1054688 H 3.7154922 l 0.2109375,-1.1367187 c 0.035156,-0.2109375 0.1757812,-0.9140625 0.234375,-1.0429688 0.09375,-0.1875 0.2578125,-0.3398437 0.46875,-0.3398437 0.046875,0 0.3046875,0 0.4921875,0.1875 -0.4335938,0.035156 -0.5390625,0.3867187 -0.5390625,0.5390625 0,0.2226562 0.1757812,0.3398437 0.3632812,0.3398437 0.2695313,0 0.5507813,-0.2109375 0.5507813,-0.5976562 0,-0.4570313 -0.4570313,-0.6796875 -0.8671875,-0.6796875 -0.3398438,0 -0.9609375,0.1757812 -1.265625,1.1601562 -0.058594,0.2109375 -0.082031,0.3164063 -0.328125,1.5703125 H 2.3561172 c -0.1992188,0 -0.3046875,0 -0.3046875,0.1875 0,0.1171875 0.09375,0.1171875 0.28125,0.1171875 h 0.65625 l -0.75,3.93750004 C 2.0631484,0.91396094 1.8990859,1.8280234 1.3717422,1.8280234 c -0.035156,0 -0.28125,0 -0.46875001,-0.1875 C 1.3600234,1.6170859 1.4420547,1.2538047 1.4420547,1.1014609 c 0,-0.22265621 -0.1757813,-0.33984371 -0.3632813,-0.33984371 -0.25781246,0 -0.55078121,0.2109375 -0.55078121,0.59765621 0,0.4453125 0.43359375,0.6796875 0.84375001,0.6796875 0.5507812,0 0.9492187,-0.5859375 1.125,-0.9609375 0.328125,-0.63281246 0.5507812,-1.83984371 0.5625,-1.91015621 z m 0,0"
         style="fill:#eb0a36;fill-opacity:1;fill-rule:nonzero;stroke:none" />
      <path
         id="path24"
         d="m 9.2467422,2.3905234 c 0,-0.035156 0,-0.046875 -0.1640625,-0.2226562 -1.2421875,-1.25390626 -1.5703125,-3.12890626 -1.5703125,-4.6640625 0,-1.7226563 0.3867187,-3.4570313 1.6054687,-4.7109375 0.1289063,-0.1171875 0.1289063,-0.1289063 0.1289063,-0.1640625 0,-0.070312 -0.035156,-0.1054688 -0.09375,-0.1054688 -0.1054688,0 -0.9960938,0.6796875 -1.5820313,1.9453125 -0.515625,1.1015625 -0.6328125,2.203125 -0.6328125,3.0351563 0,0.7851562 0.1171875,1.99218749 0.65625,3.11718749 0.5976563,1.21875001 1.453125,1.87500001 1.5585938,1.87500001 0.058594,0 0.09375,-0.035156 0.09375,-0.1054688 z m 0,0"
         style="fill:#eb0a36;fill-opacity:1;fill-rule:nonzero;stroke:none" />
      <path
         id="path25"
         d="m 13.154945,-3.0118203 c 0.05859,-0.2578125 0.292969,-1.171875 0.984375,-1.171875 0.04687,0 0.292969,0 0.503907,0.1289062 -0.28125,0.046875 -0.480469,0.3046875 -0.480469,0.5390625 0,0.1640625 0.105469,0.3515625 0.375,0.3515625 0.222656,0 0.539062,-0.1875 0.539062,-0.5859375 0,-0.515625 -0.585937,-0.65625 -0.925781,-0.65625 -0.574219,0 -0.925781,0.5273438 -1.042969,0.7617188 -0.257812,-0.65625 -0.785156,-0.7617188 -1.078125,-0.7617188 -1.042968,0 -1.605468,1.2890625 -1.605468,1.5351563 0,0.1054687 0.105468,0.1054687 0.117187,0.1054687 0.08203,0 0.117188,-0.023437 0.128906,-0.1171875 0.339844,-1.0546875 0.996094,-1.3007812 1.335938,-1.3007812 0.1875,0 0.539062,0.09375 0.539062,0.6679687 0,0.3046875 -0.164062,0.9726563 -0.539062,2.3671875 -0.152344,0.62109379 -0.503906,1.04296879 -0.949219,1.04296879 -0.05859,0 -0.28125,0 -0.492187,-0.12890625 0.246093,-0.0585938 0.46875,-0.26953125 0.46875,-0.5390625 0,-0.26953124 -0.222657,-0.35156254 -0.375,-0.35156254 -0.292969,0 -0.539063,0.25781254 -0.539063,0.57421879 0,0.45703125 0.492188,0.65625 0.9375,0.65625 0.65625,0 1.007813,-0.69140625 1.042969,-0.75 0.117187,0.36328125 0.480469,0.75 1.078125,0.75 1.019531,0 1.59375,-1.27734379 1.59375,-1.53515629 0,-0.09375 -0.09375,-0.09375 -0.128906,-0.09375 -0.08203,0 -0.105469,0.035156 -0.128907,0.1054688 -0.328125,1.06640624 -0.996093,1.31249999 -1.324218,1.31249999 -0.386719,0 -0.539063,-0.328125 -0.539063,-0.65625 0,-0.22265625 0.05859,-0.44531249 0.164063,-0.87890629 z m 0,0"
         style="fill:#eb0a36;fill-opacity:1;fill-rule:nonzero;stroke:none" />
      <path
         id="path26"
         d="m 18.404945,-2.4961953 c 0,-0.7734375 -0.117187,-1.9804688 -0.65625,-3.1054688 -0.597656,-1.21875 -1.464843,-1.875 -1.558593,-1.875 -0.05859,0 -0.105469,0.046875 -0.105469,0.1054688 0,0.035156 0,0.046875 0.199219,0.234375 0.972656,0.984375 1.535156,2.5664062 1.535156,4.640625 0,1.71093749 -0.363281,3.45703124 -1.59375,4.7226562 -0.140625,0.1171875 -0.140625,0.1289063 -0.140625,0.1640625 0,0.058594 0.04687,0.1054688 0.105469,0.1054688 0.09375,0 0.996093,-0.6796875 1.582031,-1.94531251 0.503906,-1.1015625 0.632812,-2.20312499 0.632812,-3.04687499 z m 10.59375,-0.7617188 c 0.152344,0 0.339844,0 0.339844,-0.1992187 0,-0.1992188 -0.1875,-0.1992188 -0.328125,-0.1992188 H 23.04557 c -0.140625,0 -0.328125,0 -0.328125,0.1992188 0,0.1992187 0.1875,0.1992187 0.339844,0.1992187 z m 0.01172,1.9335938 c 0.140625,0 0.328125,0 0.328125,-0.1992188 0,-0.1992187 -0.1875,-0.1992187 -0.339844,-0.1992187 H 23.05729 c -0.152344,0 -0.339844,0 -0.339844,0.1992187 0,0.1992188 0.1875,0.1992188 0.328125,0.1992188 z m 12.213867,-6.1787109 1.054688,-1.03125 c 1.558593,-1.3710938 2.15625,-1.9101558 2.15625,-2.9062498 0,-1.136719 -0.902344,-1.933594 -2.121094,-1.933594 -1.125,0 -1.851563,0.914063 -1.851563,1.804688 0,0.550781 0.492188,0.550781 0.527344,0.550781 0.164063,0 0.515625,-0.117188 0.515625,-0.527344 0,-0.257812 -0.1875,-0.515625 -0.527344,-0.515625 -0.08203,0 -0.105468,0 -0.128906,0.01172 0.222656,-0.644531 0.761719,-1.019531 1.335938,-1.019531 0.914062,0 1.335937,0.808593 1.335937,1.628906 0,0.796875 -0.492187,1.582031 -1.042969,2.2031248 l -1.910156,2.1328125 c -0.105469,0.1054687 -0.105469,0.1289062 -0.105469,0.3632812 h 3.691407 l 0.28125,-1.734375 h -0.257813 c -0.04687,0.3046875 -0.117187,0.7382813 -0.210937,0.890625 -0.07031,0.082031 -0.726563,0.082031 -0.949219,0.082031 z m 0,0"
         style="fill:#eb0a36;fill-opacity:1;fill-rule:nonzero;stroke:none" />
      <path
         id="path27"
         d="m 48.27018,-9.7530312 c 0.05859,-0.2578128 0.292968,-1.1718748 0.984375,-1.1718748 0.04687,0 0.292968,0 0.503906,0.128906 -0.28125,0.04687 -0.480469,0.304688 -0.480469,0.539063 0,0.164062 0.105469,0.351562 0.375,0.351562 0.222656,0 0.539063,-0.1875 0.539063,-0.585937 0,-0.515625 -0.585938,-0.65625 -0.925782,-0.65625 -0.574218,0 -0.925781,0.527343 -1.042968,0.761718 -0.257813,-0.65625 -0.785157,-0.761718 -1.078125,-0.761718 -1.042969,0 -1.605469,1.289062 -1.605469,1.5351558 0,0.1054687 0.105469,0.1054687 0.117187,0.1054687 0.08203,0 0.117188,-0.023437 0.128907,-0.1171875 0.339843,-1.054687 0.996093,-1.300781 1.335937,-1.300781 0.1875,0 0.539063,0.09375 0.539063,0.667969 0,0.304687 -0.164063,0.9726558 -0.539063,2.367187 -0.152344,0.6210938 -0.503906,1.0429688 -0.949219,1.0429688 -0.05859,0 -0.28125,0 -0.492187,-0.1289063 0.246094,-0.058594 0.46875,-0.2695312 0.46875,-0.5390625 0,-0.2695312 -0.222656,-0.3515625 -0.375,-0.3515625 -0.292969,0 -0.539063,0.2578125 -0.539063,0.5742188 0,0.4570312 0.492188,0.65625 0.9375,0.65625 0.65625,0 1.007813,-0.6914063 1.042969,-0.75 0.117188,0.3632812 0.480469,0.75 1.078125,0.75 1.019531,0 1.59375,-1.2773438 1.59375,-1.5351563 0,-0.09375 -0.09375,-0.09375 -0.128906,-0.09375 -0.08203,0 -0.105469,0.035156 -0.128906,0.1054688 -0.328125,1.0664062 -0.996094,1.3125 -1.324219,1.3125 -0.386719,0 -0.539063,-0.328125 -0.539063,-0.65625 0,-0.2226563 0.05859,-0.4453125 0.164063,-0.8789063 z m 0,0"
         style="fill:#eb0a36;fill-opacity:1;fill-rule:nonzero;stroke:none" />
      <path
         id="path28"
         d="m 54.150062,-11.619242 h -0.234375 c -0.02344,0.152344 -0.08203,0.5625 -0.175781,0.632812 -0.05859,0.03516 -0.597656,0.03516 -0.691406,0.03516 h -1.289063 c 0.738282,-0.644532 0.984375,-0.84375 1.394532,-1.171875 0.515625,-0.410157 0.996093,-0.84375 0.996093,-1.5 0,-0.84375 -0.738281,-1.359375 -1.628906,-1.359375 -0.867187,0 -1.453125,0.609375 -1.453125,1.242187 0,0.363281 0.304688,0.398438 0.375,0.398438 0.164063,0 0.375,-0.117188 0.375,-0.375 0,-0.128907 -0.05859,-0.363282 -0.421875,-0.363282 0.222656,-0.503906 0.691406,-0.65625 1.019531,-0.65625 0.703125,0 1.066407,0.550782 1.066407,1.113282 0,0.609375 -0.433594,1.089843 -0.65625,1.335937 l -1.6875,1.664063 c -0.07031,0.05859 -0.07031,0.07031 -0.07031,0.269531 h 2.882813 z m 0,0"
         style="fill:#eb0a36;fill-opacity:1;fill-rule:nonzero;stroke:none" />
    </g>
    <path
       id="path29"
       d="M 0,0 H 27.321"
       style="fill:none;stroke:#eb0a36;stroke-width:0.398;stroke-linecap:butt;stroke-linejoin:miter;stroke-miterlimit:10;stroke-dasharray:none;stroke-opacity:1"
       transform="matrix(1.3333333,0,0,-1.3333333,316.68133,119.07333)" />
    <g
       id="g29"
       aria-label="x&#10;2&#10;−1"
       transform="matrix(1.3333333,0,0,1.3333333,316.68133,131.50667)">
      <path
         id="path30"
         d="m 3.3268906,-3.0108594 c 0.058594,-0.2578125 0.2929688,-1.171875 0.984375,-1.171875 0.046875,0 0.2929688,0 0.5039063,0.1289063 -0.28125,0.046875 -0.4804688,0.3046875 -0.4804688,0.5390625 0,0.1640625 0.1054688,0.3515625 0.375,0.3515625 0.2226563,0 0.5390625,-0.1875 0.5390625,-0.5859375 0,-0.515625 -0.5859375,-0.65625 -0.9257812,-0.65625 -0.5742188,0 -0.9257813,0.5273437 -1.0429688,0.7617187 -0.2578125,-0.65625 -0.7851562,-0.7617187 -1.078125,-0.7617187 -1.0429687,0 -1.60546873,1.2890625 -1.60546873,1.5351562 0,0.1054688 0.10546875,0.1054688 0.1171875,0.1054688 0.0820313,0 0.1171875,-0.023437 0.12890625,-0.1171875 0.33984378,-1.0546875 0.99609378,-1.3007813 1.33593748,-1.3007813 0.1875,0 0.5390625,0.09375 0.5390625,0.6679688 0,0.3046875 -0.1640625,0.9726562 -0.5390625,2.3671875 -0.1523437,0.62109373 -0.5039062,1.04296873 -0.9492187,1.04296873 -0.058594,0 -0.28125003,0 -0.49218753,-0.12890625 0.24609375,-0.0585937 0.46875003,-0.26953125 0.46875003,-0.5390625 0,-0.26953128 -0.22265628,-0.35156248 -0.37500003,-0.35156248 -0.29296875,0 -0.5390625,0.25781248 -0.5390625,0.57421873 0,0.45703125 0.4921875,0.65625 0.93750003,0.65625 0.65625,0 1.0078125,-0.69140625 1.0429687,-0.75 0.1171875,0.36328125 0.4804688,0.75 1.078125,0.75 1.0195313,0 1.59375,-1.27734373 1.59375,-1.53515623 0,-0.09375 -0.09375,-0.09375 -0.1289062,-0.09375 -0.082031,0 -0.1054688,0.035156 -0.1289063,0.1054687 -0.328125,1.06640628 -0.9960937,1.31250003 -1.3242187,1.31250003 -0.3867188,0 -0.5390625,-0.328125 -0.5390625,-0.65625 0,-0.22265625 0.058594,-0.44531253 0.1640625,-0.87890623 z m 0,0"
         style="fill:#eb0a36;fill-opacity:1;fill-rule:nonzero;stroke:none" />
      <path
         id="path31"
         d="m 9.2097031,-4.1446484 h -0.234375 c -0.023437,0.1523437 -0.082031,0.5625 -0.1757812,0.6328125 -0.058594,0.035156 -0.5976563,0.035156 -0.6914063,0.035156 H 6.8190781 c 0.7382813,-0.6445312 0.984375,-0.84375 1.3945313,-1.171875 0.515625,-0.4101562 0.9960937,-0.84375 0.9960937,-1.5 0,-0.84375 -0.7382812,-1.359375 -1.6289062,-1.359375 -0.8671875,0 -1.453125,0.609375 -1.453125,1.2421875 0,0.3632813 0.3046875,0.3984375 0.375,0.3984375 0.1640625,0 0.375,-0.1171875 0.375,-0.375 0,-0.1289062 -0.058594,-0.3632812 -0.421875,-0.3632812 0.2226562,-0.5039063 0.6914062,-0.65625 1.0195312,-0.65625 0.703125,0 1.0664063,0.5507812 1.0664063,1.1132812 0,0.609375 -0.4335938,1.0898438 -0.65625,1.3359375 l -1.6875,1.6640625 c -0.070312,0.058594 -0.070312,0.070312 -0.070312,0.2695313 h 2.8828125 z m 0,0"
         style="fill:#eb0a36;fill-opacity:1;fill-rule:nonzero;stroke:none" />
      <path
         id="path32"
         d="m 18.939195,-2.2960156 c 0.175782,0 0.351563,0 0.351563,-0.1992188 0,-0.1992187 -0.175781,-0.1992187 -0.351563,-0.1992187 H 13.54857 c -0.164062,0 -0.339843,0 -0.339843,0.1992187 0,0.1992188 0.175781,0.1992188 0.339843,0.1992188 z m 0,0"
         style="fill:#eb0a36;fill-opacity:1;fill-rule:nonzero;stroke:none" />
      <path
         id="path33"
         d="m 25.26732,-6.3741406 c 0,-0.234375 0,-0.2578125 -0.234375,-0.2578125 -0.609375,0.6328125 -1.488281,0.6328125 -1.804687,0.6328125 v 0.3164062 c 0.199219,0 0.785156,0 1.300781,-0.2578125 v 5.15625003 c 0,0.3515625 -0.03516,0.48046875 -0.925781,0.48046875 H 23.286852 V 8.59375e-4 c 0.351562,-0.035156245 1.207031,-0.035156245 1.605468,-0.035156245 0.398438,0 1.265625,0 1.617188,0.035156245 V -0.30382812 h -0.316406 c -0.902344,0 -0.925782,-0.1171875 -0.925782,-0.48046875 z m 0,0"
         style="fill:#eb0a36;fill-opacity:1;fill-rule:nonzero;stroke:none" />
    </g>
  </g>
</svg>
