<?xml version="1.0" encoding="UTF-8" standalone="no"?>
<!-- Created with Inkscape (http://www.inkscape.org/) -->

<svg
   version="1.1"
   id="svg1"
   width="305.88065"
   height="118.10606"
   viewBox="0 0 305.88065 118.10606"
   sodipodi:docname="4.5-funcion4.svg"
   inkscape:version="1.4.2 (f4327f4, 2025-05-13)"
   xmlns:inkscape="http://www.inkscape.org/namespaces/inkscape"
   xmlns:sodipodi="http://sodipodi.sourceforge.net/DTD/sodipodi-0.dtd"
   xmlns="http://www.w3.org/2000/svg"
   xmlns:svg="http://www.w3.org/2000/svg">
  <defs
     id="defs1" />
  <sodipodi:namedview
     id="namedview1"
     pagecolor="#ffffff"
     bordercolor="#000000"
     borderopacity="0.25"
     inkscape:showpageshadow="2"
     inkscape:pageopacity="0.0"
     inkscape:pagecheckerboard="0"
     inkscape:deskcolor="#d1d1d1"
     inkscape:zoom="2.2241536"
     inkscape:cx="155.7896"
     inkscape:cy="79.805639"
     inkscape:window-width="1920"
     inkscape:window-height="1009"
     inkscape:window-x="-8"
     inkscape:window-y="-8"
     inkscape:window-maximized="1"
     inkscape:current-layer="g1">
    <inkscape:page
       x="0"
       y="0"
       inkscape:label="46"
       id="page1"
       width="305.88065"
       height="118.10606"
       margin="0"
       bleed="0" />
  </sodipodi:namedview>
  <g
     id="g1"
     inkscape:groupmode="layer"
     inkscape:label="46"
     transform="translate(-86.338104,-101.65234)">
    <path
       id="path2"
       d="M -85.04042,0 H 141.27576"
       style="fill:none;stroke:#000000;stroke-width:0.3985;stroke-linecap:butt;stroke-linejoin:miter;stroke-miterlimit:10;stroke-dasharray:none;stroke-opacity:1"
       transform="matrix(1.3333333,0,0,-1.3333333,199.72533,181.96267)" />
    <path
       id="path3"
       d="M -1.19551,1.59401 C -1.09587,0.99626 0,0.09961 0.29886,0 0,-0.09961 -1.09587,-0.99626 -1.19551,-1.59401"
       style="fill:none;stroke:#000000;stroke-width:0.31879;stroke-linecap:round;stroke-linejoin:round;stroke-miterlimit:10;stroke-dasharray:none;stroke-opacity:1"
       transform="matrix(1.3333333,0,0,-1.3333333,388.09301,181.96267)" />
    <path
       id="path4"
       d="m 3.6456875,-3.2920859 c 0.070312,-0.28125 0.3164063,-1.2890625 1.078125,-1.2890625 0.058594,0 0.3164063,0 0.5507813,0.140625 -0.3046875,0.058594 -0.5273438,0.328125 -0.5273438,0.5859375 0,0.1757812 0.1171875,0.3867187 0.4101563,0.3867187 0.2460937,0 0.5976562,-0.1992187 0.5976562,-0.6328125 0,-0.5625 -0.6445312,-0.7265625 -1.0195312,-0.7265625 -0.6328125,0 -1.0195313,0.5859375 -1.1484375,0.8320313 -0.2695313,-0.7148438 -0.8554688,-0.8320313 -1.171875,-0.8320313 -1.1367188,0 -1.75781255,1.4179688 -1.75781255,1.6875 0,0.1054688 0.10546875,0.1054688 0.12890625,0.1054688 0.0820313,0 0.1171875,-0.023437 0.140625,-0.1171875 0.375,-1.1601563 1.0898438,-1.4296875 1.4648438,-1.4296875 0.2109375,0 0.5859375,0.09375 0.5859375,0.7265625 0,0.3398437 -0.1875,1.078125 -0.5859375,2.6015625 -0.1757813,0.67968746 -0.5625,1.13671871 -1.0429688,1.13671871 -0.058594,0 -0.3164062,0 -0.5390625,-0.140625 0.2695313,-0.0585938 0.515625,-0.29296875 0.515625,-0.59765625 0,-0.29296876 -0.2460937,-0.37499996 -0.41015625,-0.37499996 -0.328125,0 -0.59765625,0.28124996 -0.59765625,0.63281246 0,0.50390625 0.55078125,0.71484375 1.03125,0.71484375 0.7148438,0 1.1015625,-0.76171875 1.1367188,-0.83203125 0.1289062,0.41015625 0.5273437,0.83203125 1.1835937,0.83203125 1.125,0 1.7460938,-1.40625001 1.7460938,-1.67578121 0,-0.1054688 -0.1054688,-0.1054688 -0.1289063,-0.1054688 -0.1054687,0 -0.1289062,0.035156 -0.140625,0.1171875 -0.3632812,1.16015626 -1.1132812,1.42968751 -1.453125,1.42968751 -0.4335937,0 -0.609375,-0.3515625 -0.609375,-0.7265625 0,-0.23437501 0.070312,-0.48046871 0.1875,-0.96093751 z m 0,0"
       style="fill:#000000;fill-opacity:1;fill-rule:nonzero;stroke:none"
       aria-label="x"
       transform="matrix(1.3333333,0,0,1.3333333,384.54533,193.33867)" />
    <path
       id="path5"
       d="M 0,-28.3468 V 56.23534"
       style="fill:none;stroke:#000000;stroke-width:0.3985;stroke-linecap:butt;stroke-linejoin:miter;stroke-miterlimit:10;stroke-dasharray:none;stroke-opacity:1"
       transform="matrix(1.3333333,0,0,-1.3333333,199.72533,181.96267)" />
    <path
       id="path6"
       d="M -1.19551,1.59401 C -1.09587,0.99626 0,0.09961 0.29886,0 0,-0.09961 -1.09587,-0.99626 -1.19551,-1.59401"
       style="fill:none;stroke:#000000;stroke-width:0.31879;stroke-linecap:round;stroke-linejoin:round;stroke-miterlimit:10;stroke-dasharray:none;stroke-opacity:1"
       transform="matrix(0,-1.3333333,-1.3333333,0,199.72533,106.98221)" />
    <path
       id="path7"
       d="m 5.2956484,-4.1597734 c 0.046875,-0.1523438 0.046875,-0.1757813 0.046875,-0.2460938 0,-0.1992187 -0.1523437,-0.2929687 -0.3164062,-0.2929687 -0.1054688,0 -0.28125,0.058594 -0.375,0.2226562 -0.023437,0.058594 -0.1171875,0.3984375 -0.1523438,0.5976563 -0.082031,0.28125 -0.1523437,0.5742187 -0.2226562,0.8671875 l -0.4921875,1.96875 c -0.046875,0.16406246 -0.515625,0.92578121 -1.2304688,0.92578121 -0.5625,0 -0.6796875,-0.48046875 -0.6796875,-0.89062501 0,-0.4921875 0.1875,-1.171875 0.5625,-2.1328125 0.1757813,-0.4453125 0.2109375,-0.5742187 0.2109375,-0.7851562 0,-0.4921875 -0.3515625,-0.9023438 -0.890625,-0.9023438 -1.04296871,0 -1.44140621,1.5820313 -1.44140621,1.6875 0,0.1054688 0.10546875,0.1054688 0.12890625,0.1054688 0.10546875,0 0.1171875,-0.023437 0.17578125,-0.1992188 0.29296875,-1.0195312 0.72656251,-1.3476562 1.10156251,-1.3476562 0.09375,0 0.2695312,0 0.2695312,0.3515625 0,0.2695312 -0.1054687,0.5507812 -0.1757812,0.7617187 -0.4453125,1.1601563 -0.6328125,1.78125 -0.6328125,2.2851563 0,0.97265621 0.6796875,1.30078121 1.3242187,1.30078121 0.421875,0 0.796875,-0.1875 1.1015625,-0.4921875 -0.140625,0.57421875 -0.2695312,1.1015625 -0.703125,1.68749999 -0.2929687,0.3632813 -0.703125,0.6796875 -1.2070312,0.6796875 -0.1523438,0 -0.6445313,-0.023437 -0.83203126,-0.4570312 0.17578126,0 0.31640626,0 0.48046876,-0.1289063 0.1054687,-0.09375 0.2109375,-0.234375 0.2109375,-0.44531249 0,-0.33984375 -0.2929688,-0.38671875 -0.3984375,-0.38671875 -0.25781251,0 -0.60937501,0.17578125 -0.60937501,0.71484374 0,0.5390625 0.48046871,0.9492188 1.14843751,0.9492188 1.125,0 2.25,-0.9960938 2.5546875,-2.22656254 z m 0,0"
       style="fill:#000000;fill-opacity:1;fill-rule:nonzero;stroke:none"
       aria-label="y"
       transform="matrix(1.3333333,0,0,1.3333333,186.95867,108.08933)" />
    <path
       id="path8"
       d="m -70.867,2.7174 c 0,0 1.44801,-0.96554 2.00416,-1.33633 0.55615,-0.37079 1.44801,-0.96542 2.00417,-1.3361 0.55613,-0.37065 1.44801,-0.96475 2.00415,-1.33542 0.55615,-0.37068 1.44804,-0.96542 2.00416,-1.33612 0.55616,-0.3707 1.44803,-0.96536 2.00417,-1.33568 0.55614,-0.3703 1.44803,-0.96379 2.00418,-1.3333 0.55614,-0.36949 1.44801,-0.96202 2.00417,-1.32983 0.55613,-0.36783 1.44801,-0.95674 2.00414,-1.32118 0.55616,-0.36448 1.44803,-0.9468 2.00417,-1.30564 0.55615,-0.35881 1.44801,-0.93098 2.00417,-1.28051 0.55613,-0.34955 1.44803,-0.90395 2.00416,-1.2388 0.55614,-0.33484 1.44803,-0.86135 2.00417,-1.17455 0.55613,-0.3132 1.44801,-0.80147 2.00416,-1.08287 0.55614,-0.2814 1.44803,-0.70955 2.00417,-0.9453 0.55615,-0.23576 1.44801,-0.58108 2.00417,-0.7539 0.55613,-0.17286 1.44801,-0.40429 2.00416,-0.49181 0.55614,-0.08754 1.44803,-0.16324 2.00415,-0.13907 0.55615,0.02419 1.44804,0.14859 2.00417,0.31337 0.55615,0.16481 1.44803,0.54048 2.00418,0.87439 0.55612,0.33391 1.44801,1.00816 2.00417,1.53226 0.55615,0.52409 1.448,1.52473 2.00416,2.24509 0.55614,0.72035 1.44801,2.047 2.00415,2.94666 0.55615,0.89966 1.44803,2.5047 2.00417,3.53751 0.55615,1.03281 1.44802,2.81188 2.00416,3.90625 0.55614,1.09436 1.44803,2.90793 2.00418,3.98126 0.55612,1.07335 1.44801,2.78102 2.00415,3.75466 0.55615,0.97363 1.44802,2.4483 2.00417,3.26263 0.55615,0.81432 1.44803,1.98309 2.00416,2.60648 0.55616,0.6234 1.44802,1.45898 2.00417,1.8865 0.55613,0.42754 1.44803,0.94831 2.00416,1.1949 0.55614,0.24658 1.44803,0.49118 2.00417,0.58242 0.55614,0.09121 1.44803,0.11023 2.00417,0.07504 0.55613,-0.03521 1.44801,-0.19542 2.00416,-0.32874 0.55614,-0.1333 1.44801,-0.42569 2.00417,-0.63215 0.55615,-0.20649 1.44801,-0.59583 2.00416,-0.85599 0.55614,-0.26016 1.448,-0.72046 2.00412,-1.01906 0.55616,-0.2986 1.44805,-0.80786 2.00417,-1.13303 C 3.8432,12.04625 4.73508,11.50362 5.29123,11.16077 5.84735,10.8179 6.73924,10.25493 7.2954,9.90034 7.85153,9.54576 8.74341,8.96722 9.29955,8.60512 9.8557,8.243 10.74756,7.65675 11.30371,7.2904 11.85986,6.92406 12.75174,6.33347 13.30788,5.96469 13.86403,5.5959 14.7559,5.00244 15.31204,4.63246 15.86818,4.2625 16.76007,3.66864 17.31622,3.2981 17.87234,2.92755 18.76424,2.33252 19.32037,1.96176 19.87653,1.591 20.7684,0.99657 21.32454,0.62587 21.88069,0.25517 22.77255,-0.33932 23.3287,-0.71 c 0.55614,-0.37067 1.44802,-0.96494 2.00417,-1.33567 0.55615,-0.37074 1.44803,-0.96579 2.00417,-1.33633 0.55613,-0.37055 1.44802,-0.96445 2.00415,-1.33437 0.55615,-0.36993 1.44804,-0.9631 2.00418,-1.33179 0.55613,-0.36869 1.44801,-0.95934 2.00416,-1.32553 0.55614,-0.36616 1.44802,-0.95196 2.00417,-1.31361 0.55615,-0.36163 1.44801,-0.9387 2.00416,-1.29285 0.55614,-0.35414 1.44802,-0.91763 2.00415,-1.25955 0.55616,-0.34192 1.44805,-0.88118 2.00417,-1.20483 0.55615,-0.32364 1.44803,-0.83135 2.00418,-1.12784 0.55612,-0.2965 1.44801,-0.7517 2.00417,-1.00911 0.55613,-0.25743 1.44801,-0.64351 2.00415,-0.84627 0.55615,-0.20275 1.44801,-0.48745 2.00416,-0.61507 0.55616,-0.12761 1.44803,-0.27679 2.00417,-0.30473 0.55615,-0.02792 1.44803,0.0033 2.00416,0.10338 0.55614,0.1001 1.44803,0.36105 2.00419,0.6181 0.55612,0.25704 1.44801,0.79495 2.00414,1.23447 0.55614,0.43951 1.44803,1.29725 2.00417,1.93323 0.55615,0.63595 1.44801,1.82483 2.00417,2.65037 0.55613,0.82553 1.44801,2.31734 2.00416,3.29961 0.55615,0.98228 1.44803,2.70273 2.00417,3.77997 0.55613,1.07724 1.44803,2.89146 2.00415,3.98407 0.55615,1.09259 1.44804,2.8647 2.00418,3.89067 0.55614,1.02597 1.44801,2.61432 2.00417,3.50378 0.55613,0.88945 1.44801,2.19853 2.00416,2.90686 0.55614,0.70834 1.44801,1.68649 2.00415,2.19838 0.55615,0.51189 1.44802,1.16827 2.00417,1.49095 0.55615,0.32269 1.44804,0.68004 2.00416,0.83481 0.55615,0.15477 1.44803,0.26457 2.00419,0.28072 0.55612,0.01612 1.448,-0.07074 2.00416,-0.16436 0.55614,-0.09364 1.44801,-0.333 2.00415,-0.5104 0.55615,-0.1774 1.44803,-0.52889 2.00417,-0.76819 0.55615,-0.2393 1.44801,-0.67299 2.00416,-0.95656 0.55614,-0.28357 1.44803,-0.7726 2.00416,-1.08719 0.55616,-0.31459 1.44803,-0.84404 2.00417,-1.18017 0.55614,-0.33612 1.44803,-0.8922 2.00417,-1.24247 0.55613,-0.35028 1.44803,-0.92286 2.00416,-1.28204 0.55616,-0.35918 1.44802,-0.94194 2.00417,-1.30669 0.55613,-0.36475 1.44801,-0.95425 2.00416,-1.32228 0.55614,-0.36802 1.44802,-0.96071 2.00416,-1.33027 0.55615,-0.36956 1.44802,-0.96308 2.00416,-1.33329 0.55615,-0.37023 1.44805,-0.96437 2.00418,-1.33503 0.55614,-0.37068 1.44801,-0.96582 2.00417,-1.33655 0.55613,-0.37073 1.44801,-0.96475 2.00416,-1.33543 0.55614,-0.3707 1.44802,-0.96558 2.00415,-1.33632 0.55616,-0.37073 1.44803,-0.965 2.00417,-1.33567 0.55615,-0.37068 1.44802,-0.96559 2.00416,-1.33591 0.55614,-0.37031 1.44803,-0.96372 2.00419,-1.33308 0.55613,-0.36935 1.44801,-0.96147 2.00416,-1.32896 0.55612,-0.36749 1.44801,-0.95581 2.00415,-1.31967 0.55616,-0.36386 1.44803,-0.94506 2.00416,-1.30281 0.55616,-0.35778 2.00417,-1.27579 2.00417,-1.27579"
       style="fill:none;stroke:#eb0a36;stroke-width:0.79701;stroke-linecap:butt;stroke-linejoin:miter;stroke-miterlimit:10;stroke-dasharray:none;stroke-opacity:1"
       transform="matrix(1.3333333,0,0,-1.3333333,199.72533,181.96267)" />
    <path
       id="path9"
       d="m 53.00858,-16.3562 c 0,0.62623 -0.50766,1.1339 -1.13388,1.1339 -0.62624,0 -1.1339,-0.50767 -1.1339,-1.1339 0,-0.62622 0.50766,-1.13388 1.1339,-1.13388 0.62622,0 1.13388,0.50766 1.13388,1.13388 z"
       style="fill:#eb0a36;fill-opacity:1;fill-rule:nonzero;stroke:#eb0a36;stroke-width:0.3985;stroke-linecap:butt;stroke-linejoin:miter;stroke-miterlimit:10;stroke-dasharray:none;stroke-opacity:1"
       transform="matrix(1.3333333,0,0,-1.3333333,199.72533,181.96267)" />
    <path
       id="path10"
       d="m 82.77261,16.3562 c 0,0.62622 -0.50766,1.13388 -1.13389,1.13388 -0.62622,0 -1.13388,-0.50766 -1.13388,-1.13388 0,-0.62623 0.50766,-1.1339 1.13388,-1.1339 0.62623,0 1.13389,0.50767 1.13389,1.1339 z"
       style="fill:#eb0a36;fill-opacity:1;fill-rule:nonzero;stroke:#eb0a36;stroke-width:0.3985;stroke-linecap:butt;stroke-linejoin:miter;stroke-miterlimit:10;stroke-dasharray:none;stroke-opacity:1"
       transform="matrix(1.3333333,0,0,-1.3333333,199.72533,181.96267)" />
    <path
       id="path11"
       d="m 23.38622,0 c 0,0.62622 -0.50766,1.13388 -1.13389,1.13388 -0.62623,0 -1.13389,-0.50766 -1.13389,-1.13388 0,-0.62622 0.50766,-1.13388 1.13389,-1.13388 0.62623,0 1.13389,0.50766 1.13389,1.13388 z"
       style="fill:#eb0a36;fill-opacity:1;fill-rule:nonzero;stroke:#eb0a36;stroke-width:0.3985;stroke-linecap:butt;stroke-linejoin:miter;stroke-miterlimit:10;stroke-dasharray:none;stroke-opacity:1"
       transform="matrix(1.3333333,0,0,-1.3333333,199.72533,181.96267)" />
    <path
       id="path12"
       d="m 67.91902,0 c 0,0.62622 -0.50764,1.13388 -1.13388,1.13388 -0.62624,0 -1.13388,-0.50766 -1.13388,-1.13388 0,-0.62622 0.50764,-1.13388 1.13388,-1.13388 0.62624,0 1.13388,0.50766 1.13388,1.13388 z"
       style="fill:#eb0a36;fill-opacity:1;fill-rule:nonzero;stroke:#eb0a36;stroke-width:0.3985;stroke-linecap:butt;stroke-linejoin:miter;stroke-miterlimit:10;stroke-dasharray:none;stroke-opacity:1"
       transform="matrix(1.3333333,0,0,-1.3333333,199.72533,181.96267)" />
    <g
       id="g12"
       aria-label="f(x)=&#10;cosx"
       transform="matrix(1.3333333,0,0,1.3333333,226.33467,127.51333)">
      <path
         id="path13"
         d="m 3.6572031,-3.9855859 h 0.8554688 c 0.1992187,0 0.3046875,0 0.3046875,-0.1992188 0,-0.1054687 -0.1054688,-0.1054687 -0.2695313,-0.1054687 H 3.7157969 l 0.2109375,-1.1367188 c 0.035156,-0.2109375 0.1757812,-0.9140625 0.234375,-1.0429687 0.09375,-0.1875 0.2578125,-0.3398438 0.46875,-0.3398438 0.046875,0 0.3046875,0 0.4921875,0.1875 -0.4335938,0.035156 -0.5390625,0.3867188 -0.5390625,0.5390625 0,0.2226563 0.1757812,0.3398438 0.3632812,0.3398438 0.2695313,0 0.5507813,-0.2109375 0.5507813,-0.5976563 0,-0.4570312 -0.4570313,-0.6796875 -0.8671875,-0.6796875 -0.3398438,0 -0.9609375,0.1757813 -1.265625,1.1601563 -0.058594,0.2109375 -0.082031,0.3164062 -0.328125,1.5703125 H 2.3564219 c -0.1992188,0 -0.3046875,0 -0.3046875,0.1875 0,0.1171875 0.09375,0.1171875 0.28125,0.1171875 h 0.65625 l -0.75,3.93749996 C 2.0634531,0.91285156 1.8993906,1.8269141 1.3720469,1.8269141 c -0.035156,0 -0.28125,0 -0.46875002,-0.1875 C 1.3603281,1.6159766 1.4423594,1.2526953 1.4423594,1.1003516 c 0,-0.22265629 -0.1757813,-0.33984379 -0.3632813,-0.33984379 -0.25781247,0 -0.55078122,0.2109375 -0.55078122,0.59765629 0,0.4453125 0.43359375,0.6796875 0.84375002,0.6796875 0.5507812,0 0.9492187,-0.5859375 1.125,-0.9609375 0.328125,-0.63281254 0.5507812,-1.83984379 0.5625,-1.91015629 z m 0,0"
         style="fill:#eb0a36;fill-opacity:1;fill-rule:nonzero;stroke:none" />
      <path
         id="path14"
         d="m 9.2470469,2.3894141 c 0,-0.035156 0,-0.046875 -0.1640625,-0.2226563 -1.2421875,-1.25390624 -1.5703125,-3.12890624 -1.5703125,-4.6640625 0,-1.7226562 0.3867187,-3.4570312 1.6054687,-4.7109375 0.1289063,-0.1171875 0.1289063,-0.1289062 0.1289063,-0.1640625 0,-0.070312 -0.035156,-0.1054687 -0.09375,-0.1054687 -0.1054688,0 -0.9960938,0.6796875 -1.5820313,1.9453125 -0.515625,1.1015625 -0.6328125,2.203125 -0.6328125,3.0351562 0,0.7851563 0.1171875,1.99218751 0.65625,3.11718751 0.5976563,1.21874999 1.453125,1.87499999 1.5585938,1.87499999 0.058594,0 0.09375,-0.035156 0.09375,-0.1054687 z m 0,0"
         style="fill:#eb0a36;fill-opacity:1;fill-rule:nonzero;stroke:none" />
      <path
         id="path15"
         d="m 13.15525,-3.0129297 c 0.05859,-0.2578125 0.292969,-1.171875 0.984375,-1.171875 0.04687,0 0.292969,0 0.503906,0.1289063 -0.28125,0.046875 -0.480468,0.3046875 -0.480468,0.5390625 0,0.1640625 0.105468,0.3515625 0.375,0.3515625 0.222656,0 0.539062,-0.1875 0.539062,-0.5859375 0,-0.515625 -0.585937,-0.65625 -0.925781,-0.65625 -0.574219,0 -0.925781,0.5273437 -1.042969,0.7617187 -0.257812,-0.65625 -0.785156,-0.7617187 -1.078125,-0.7617187 -1.042969,0 -1.605469,1.2890625 -1.605469,1.5351562 0,0.1054688 0.105469,0.1054688 0.117188,0.1054688 0.08203,0 0.117187,-0.023437 0.128906,-0.1171875 0.339844,-1.0546875 0.996094,-1.3007813 1.335938,-1.3007813 0.1875,0 0.539062,0.09375 0.539062,0.6679688 0,0.3046875 -0.164062,0.9726562 -0.539062,2.3671875 -0.152344,0.62109371 -0.503907,1.04296871 -0.949219,1.04296871 -0.05859,0 -0.28125,0 -0.492188,-0.12890625 0.246094,-0.0585938 0.46875,-0.26953125 0.46875,-0.5390625 0,-0.26953126 -0.222656,-0.35156246 -0.375,-0.35156246 -0.292968,0 -0.539062,0.25781246 -0.539062,0.57421871 0,0.45703125 0.492187,0.65625 0.9375,0.65625 0.65625,0 1.007812,-0.69140625 1.042969,-0.75 0.117187,0.36328125 0.480468,0.75 1.078125,0.75 1.019531,0 1.59375,-1.27734371 1.59375,-1.53515621 0,-0.09375 -0.09375,-0.09375 -0.128907,-0.09375 -0.08203,0 -0.105468,0.035156 -0.128906,0.1054687 -0.328125,1.06640626 -0.996094,1.31250001 -1.324219,1.31250001 -0.386718,0 -0.539062,-0.328125 -0.539062,-0.65625 0,-0.22265625 0.05859,-0.44531251 0.164062,-0.87890621 z m 0,0"
         style="fill:#eb0a36;fill-opacity:1;fill-rule:nonzero;stroke:none" />
      <path
         id="path16"
         d="m 18.40525,-2.4973047 c 0,-0.7734375 -0.117187,-1.9804687 -0.65625,-3.1054687 -0.597656,-1.21875 -1.464844,-1.875 -1.558594,-1.875 -0.05859,0 -0.105468,0.046875 -0.105468,0.1054687 0,0.035156 0,0.046875 0.199218,0.234375 0.972657,0.984375 1.535157,2.5664063 1.535157,4.640625 0,1.71093751 -0.363282,3.45703126 -1.59375,4.7226563 -0.140625,0.1171875 -0.140625,0.1289062 -0.140625,0.1640625 0,0.058594 0.04687,0.1054687 0.105468,0.1054687 0.09375,0 0.996094,-0.6796875 1.582032,-1.94531249 0.503906,-1.1015625 0.632812,-2.20312501 0.632812,-3.04687501 z M 28.999,-3.2590234 c 0.152344,0 0.339844,0 0.339844,-0.1992188 0,-0.1992187 -0.1875,-0.1992187 -0.328125,-0.1992187 h -5.964844 c -0.140625,0 -0.328125,0 -0.328125,0.1992187 0,0.1992188 0.1875,0.1992188 0.339844,0.1992188 z m 0.01172,1.9335937 c 0.140625,0 0.328125,0 0.328125,-0.1992187 0,-0.1992188 -0.1875,-0.1992188 -0.339844,-0.1992188 h -5.941406 c -0.152344,0 -0.339844,0 -0.339844,0.1992188 0,0.1992187 0.1875,0.1992187 0.328125,0.1992187 z m 14.876953,-7.5820312 c 0,-1.6289061 0.820312,-2.0507811 1.347656,-2.0507811 0.09375,0 0.714844,0.01172 1.066406,0.375 -0.410156,0.02344 -0.46875,0.328125 -0.46875,0.457031 0,0.2578126 0.1875,0.4570313 0.457032,0.4570313 0.257812,0 0.457031,-0.1640625 0.457031,-0.4687503 0,-0.679687 -0.75,-1.066406 -1.523438,-1.066406 -1.242187,0 -2.15625,1.078125 -2.15625,2.3085938 0,1.2773438 0.984375,2.2617188 2.144532,2.2617188 1.335937,0 1.652343,-1.1953125 1.652343,-1.2890625 0,-0.1054688 -0.105468,-0.1054688 -0.128906,-0.1054688 -0.09375,0 -0.117187,0.046875 -0.128906,0.1054688 -0.292969,0.9257812 -0.9375,1.0429687 -1.3125,1.0429687 -0.527344,0 -1.40625,-0.421875 -1.40625,-2.0273437 z m 7.954101,0.035156 c 0,-1.2773431 -0.996093,-2.3320311 -2.191406,-2.3320311 -1.253906,0 -2.214844,1.089844 -2.214844,2.3320311 0,1.2890625 1.03125,2.2382813 2.203125,2.2382813 1.207032,0 2.203125,-0.9726563 2.203125,-2.2382813 z m -2.191406,1.9921875 c -0.433594,0 -0.867187,-0.2109375 -1.136719,-0.6679687 -0.257812,-0.4335938 -0.257812,-1.0429688 -0.257812,-1.40625 0,-0.3867188 0,-0.9257813 0.246094,-1.3593749 0.269531,-0.457031 0.738281,-0.667969 1.136718,-0.667969 0.433594,0 0.867188,0.222657 1.125,0.644532 0.257813,0.4335931 0.257813,1.0078119 0.257813,1.3828119 0,0.3632812 0,0.9023437 -0.222656,1.3359375 -0.222657,0.4453125 -0.65625,0.7382812 -1.148438,0.7382812 z m 4.558594,-1.7929687 c 0.222656,0.035156 1.03125,0.1992187 1.03125,0.9140625 0,0.515625 -0.351563,0.9140625 -1.125,0.9140625 -0.832031,0 -1.195313,-0.5742188 -1.382813,-1.4179688 -0.03516,-0.1289062 -0.03516,-0.1757812 -0.140625,-0.1757812 -0.128906,0 -0.128906,0.070312 -0.128906,0.2578125 v 1.3125 c 0,0.1640625 0,0.234375 0.105469,0.234375 0.05859,0 0.07031,0 0.257812,-0.1992188 0.01172,-0.011719 0.01172,-0.035156 0.199219,-0.2226562 0.433594,0.421875 0.878906,0.421875 1.089844,0.421875 1.148437,0 1.605469,-0.6679688 1.605469,-1.3828125 0,-0.5273438 -0.292969,-0.8203125 -0.421875,-0.9492188 -0.328125,-0.3164062 -0.714844,-0.3984375 -1.136719,-0.46875 -0.550781,-0.1171875 -1.21875,-0.2460937 -1.21875,-0.8203121 0,-0.351563 0.257812,-0.761719 1.113281,-0.761719 1.101563,0 1.148438,0.902344 1.171875,1.2070311 0,0.09375 0.09375,0.09375 0.117188,0.09375 0.128906,0 0.128906,-0.046875 0.128906,-0.2460937 v -0.9960934 c 0,-0.175781 0,-0.246094 -0.117188,-0.246094 -0.04687,0 -0.07031,0 -0.199218,0.117188 -0.02344,0.04687 -0.128907,0.128906 -0.164063,0.164062 -0.375,-0.28125 -0.785156,-0.28125 -0.9375,-0.28125 -1.21875,0 -1.59375,0.667969 -1.59375,1.2304686 0,0.3398438 0.164063,0.6210938 0.433594,0.84375 0.316406,0.2578125 0.597656,0.3164063 1.3125,0.4570313 z m 0,0"
         style="fill:#eb0a36;fill-opacity:1;fill-rule:nonzero;stroke:none" />
      <path
         id="path17"
         d="m 61.055641,-9.7512109 c 0.05859,-0.2578121 0.292968,-1.1718751 0.984375,-1.1718751 0.04687,0 0.292968,0 0.503906,0.128906 -0.28125,0.04687 -0.480469,0.304688 -0.480469,0.539063 0,0.164062 0.105469,0.3515623 0.375,0.3515623 0.222656,0 0.539063,-0.1875003 0.539063,-0.5859373 0,-0.515625 -0.585938,-0.65625 -0.925782,-0.65625 -0.574218,0 -0.925781,0.527344 -1.042968,0.761719 -0.257813,-0.65625 -0.785157,-0.761719 -1.078125,-0.761719 -1.042969,0 -1.605469,1.2890623 -1.605469,1.5351561 0,0.1054687 0.105469,0.1054687 0.117187,0.1054687 0.08203,0 0.117188,-0.023437 0.128907,-0.1171875 0.339843,-1.0546873 0.996093,-1.3007813 1.335937,-1.3007813 0.1875,0 0.539063,0.09375 0.539063,0.667969 0,0.3046873 -0.164063,0.9726561 -0.539063,2.3671873 -0.152344,0.6210938 -0.503906,1.0429688 -0.949219,1.0429688 -0.05859,0 -0.28125,0 -0.492187,-0.1289063 0.246094,-0.058594 0.46875,-0.2695312 0.46875,-0.5390625 0,-0.2695312 -0.222656,-0.3515625 -0.375,-0.3515625 -0.292969,0 -0.539063,0.2578125 -0.539063,0.5742188 0,0.4570312 0.492188,0.65625 0.9375,0.65625 0.65625,0 1.007813,-0.6914063 1.042969,-0.75 0.117188,0.3632812 0.480469,0.75 1.078125,0.75 1.019531,0 1.59375,-1.2773438 1.59375,-1.5351563 0,-0.09375 -0.09375,-0.09375 -0.128906,-0.09375 -0.08203,0 -0.105469,0.035156 -0.128906,0.1054688 -0.328125,1.0664062 -0.996094,1.3125 -1.324219,1.3125 -0.386719,0 -0.539063,-0.328125 -0.539063,-0.65625 0,-0.2226563 0.05859,-0.4453125 0.164063,-0.8789063 z m 0,0"
         style="fill:#eb0a36;fill-opacity:1;fill-rule:nonzero;stroke:none" />
    </g>
    <path
       id="path18"
       d="M 0,0 H 38.404"
       style="fill:none;stroke:#eb0a36;stroke-width:0.398;stroke-linecap:butt;stroke-linejoin:miter;stroke-miterlimit:10;stroke-dasharray:none;stroke-opacity:1"
       transform="matrix(1.3333333,0,0,-1.3333333,271.49733,124.192)" />
    <g
       id="g18"
       aria-label="2+senx"
       transform="matrix(1.3333333,0,0,1.3333333,271.49733,136.62533)">
      <path
         id="path19"
         d="M 1.2646953,-0.76196875 2.3193828,-1.7932187 c 1.5585938,-1.3710938 2.15625,-1.9101563 2.15625,-2.90625 0,-1.1367188 -0.9023437,-1.9335938 -2.1210937,-1.9335938 -1.125,0 -1.85156254,0.9140625 -1.85156254,1.8046875 0,0.5507813 0.4921875,0.5507813 0.52734374,0.5507813 0.1640625,0 0.515625,-0.1171875 0.515625,-0.5273438 0,-0.2578125 -0.1875,-0.515625 -0.5273437,-0.515625 -0.0820313,0 -0.10546879,0 -0.12890629,0.011719 C 1.1123516,-5.953375 1.6514141,-6.328375 2.2256328,-6.328375 c 0.9140625,0 1.3359375,0.8085938 1.3359375,1.6289063 0,0.796875 -0.4921875,1.5820312 -1.0429687,2.203125 L 0.60844531,-0.36353125 C 0.50297656,-0.2580625 0.50297656,-0.234625 0.50297656,-2.5e-4 H 4.1943828 l 0.28125,-1.734375 H 4.2178203 C 4.1709453,-1.4299375 4.1006328,-0.99634375 4.0068828,-0.844 3.9365708,-0.7619687 3.2803203,-0.7619687 3.0576641,-0.7619687 Z M 11.272508,-2.297125 h 2.777344 c 0.140625,0 0.328125,0 0.328125,-0.1992187 0,-0.1992188 -0.1875,-0.1992188 -0.328125,-0.1992188 H 11.272508 V -5.484625 c 0,-0.1289062 0,-0.328125 -0.199219,-0.328125 -0.199219,0 -0.199219,0.1992188 -0.199219,0.328125 v 2.7890625 H 8.0850078 c -0.140625,0 -0.328125,0 -0.328125,0.1992188 0,0.1992187 0.1875,0.1992187 0.328125,0.1992187 H 10.87407 v 2.80078125 c 0,0.12890625 0,0.328125 0.199219,0.328125 0.199219,0 0.199219,-0.19921875 0.199219,-0.328125 z m 7.954101,0.3632813 c 0.222657,0.035156 1.03125,0.1992187 1.03125,0.9140625 0,0.51562495 -0.351562,0.91406245 -1.125,0.91406245 -0.832031,0 -1.195312,-0.57421875 -1.382812,-1.41796875 -0.03516,-0.1289062 -0.03516,-0.1757812 -0.140625,-0.1757812 -0.128906,0 -0.128906,0.070312 -0.128906,0.2578125 v 1.31249995 c 0,0.1640625 0,0.234375 0.105468,0.234375 0.05859,0 0.07031,0 0.257813,-0.19921875 0.01172,-0.01171875 0.01172,-0.03515625 0.199219,-0.22265625 0.433593,0.421875 0.878906,0.421875 1.089843,0.421875 1.148438,0 1.605469,-0.66796875 1.605469,-1.38281245 0,-0.5273438 -0.292969,-0.8203125 -0.421875,-0.9492188 -0.328125,-0.3164062 -0.714844,-0.3984375 -1.136719,-0.46875 -0.550781,-0.1171875 -1.21875,-0.2460937 -1.21875,-0.8203125 0,-0.3515625 0.257813,-0.7617187 1.113282,-0.7617187 1.101562,0 1.148437,0.9023437 1.171875,1.2070312 0,0.09375 0.09375,0.09375 0.117187,0.09375 0.128906,0 0.128906,-0.046875 0.128906,-0.2460937 V -4.219 c 0,-0.1757812 0,-0.2460937 -0.117187,-0.2460937 -0.04687,0 -0.07031,0 -0.199219,0.1171875 -0.02344,0.046875 -0.128906,0.1289062 -0.164062,0.1640625 -0.375,-0.28125 -0.785157,-0.28125 -0.9375,-0.28125 -1.21875,0 -1.59375,0.6679687 -1.59375,1.2304687 0,0.3398438 0.164062,0.6210938 0.433593,0.84375 0.316407,0.2578125 0.597657,0.3164063 1.3125,0.4570313 z m 2.970704,-0.5742188 c 0.05859,-1.4882812 0.902343,-1.734375 1.242187,-1.734375 1.019531,0 1.125,1.3476563 1.125,1.734375 z m -0.01172,0.2109375 h 2.789062 c 0.210938,0 0.246094,0 0.246094,-0.2109375 0,-0.984375 -0.539062,-1.9570312 -1.78125,-1.9570312 -1.160156,0 -2.074219,1.03125 -2.074219,2.2734375 0,1.33593745 1.042969,2.29687495 2.191407,2.29687495 1.21875,0 1.664062,-1.1015625 1.664062,-1.28906245 0,-0.1054688 -0.08203,-0.1171875 -0.128906,-0.1171875 -0.09375,0 -0.117188,0.058594 -0.128906,0.140625 -0.351563,1.0195312 -1.253907,1.0195312 -1.347657,1.0195312 -0.503906,0 -0.902343,-0.29296875 -1.125,-0.66796875 C 22.185594,-1.2893125 22.185594,-1.9455625 22.185593,-2.297125 Z m 4.426758,-1.125 v 2.66015625 c 0,0.45703125 -0.117188,0.45703125 -0.785157,0.45703125 V -2.5e-4 c 0.351563,-0.01171875 0.855469,-0.03515625 1.125,-0.03515625 0.257813,0 0.785157,0.0234375 1.113282,0.03515625 v -0.3046875 c -0.65625,0 -0.773438,0 -0.773438,-0.45703125 V -2.5900937 c 0,-1.03125 0.714844,-1.59375 1.347656,-1.59375 0.621094,0 0.738282,0.5390625 0.738282,1.1015625 v 2.32031245 c 0,0.45703125 -0.117188,0.45703125 -0.773438,0.45703125 V -2.5e-4 c 0.339844,-0.01171875 0.855469,-0.03515625 1.125,-0.03515625 0.257813,0 0.773438,0.0234375 1.113281,0.03515625 v -0.3046875 c -0.515625,0 -0.773437,0 -0.785156,-0.3046875 v -1.8984375 c 0,-0.8554687 0,-1.171875 -0.304687,-1.5234375 -0.140625,-0.1757812 -0.46875,-0.375 -1.042969,-0.375 -0.726563,0 -1.195313,0.4335938 -1.476563,1.0546875 V -4.4065 l -1.40625,0.1171875 v 0.3046875 c 0.703125,0 0.785157,0.070312 0.785157,0.5625 z m 0,0"
         style="fill:#eb0a36;fill-opacity:1;fill-rule:nonzero;stroke:none" />
      <path
         id="path20"
         d="m 36.037156,-3.0119687 c 0.05859,-0.2578125 0.292969,-1.171875 0.984375,-1.171875 0.04687,0 0.292969,0 0.503907,0.1289062 -0.28125,0.046875 -0.480469,0.3046875 -0.480469,0.5390625 0,0.1640625 0.105469,0.3515625 0.375,0.3515625 0.222656,0 0.539062,-0.1875 0.539062,-0.5859375 0,-0.515625 -0.585937,-0.65625 -0.925781,-0.65625 -0.574219,0 -0.925781,0.5273438 -1.042969,0.7617188 -0.257812,-0.65625 -0.785156,-0.7617188 -1.078125,-0.7617188 -1.042968,0 -1.605468,1.2890625 -1.605468,1.5351563 0,0.1054687 0.105468,0.1054687 0.117187,0.1054687 0.08203,0 0.117188,-0.023437 0.128906,-0.1171875 0.339844,-1.0546875 0.996094,-1.3007812 1.335938,-1.3007812 0.1875,0 0.539062,0.09375 0.539062,0.6679687 0,0.3046875 -0.164062,0.9726563 -0.539062,2.3671875 -0.152344,0.62109375 -0.503906,1.04296875 -0.949219,1.04296875 -0.05859,0 -0.28125,0 -0.492187,-0.12890625 0.246093,-0.0585937 0.46875,-0.26953125 0.46875,-0.5390625 0,-0.2695312 -0.222657,-0.3515625 -0.375,-0.3515625 -0.292969,0 -0.539063,0.2578125 -0.539063,0.57421875 0,0.45703125 0.492188,0.65625 0.9375,0.65625 0.65625,0 1.007813,-0.69140625 1.042969,-0.75 0.117187,0.36328125 0.480469,0.75 1.078125,0.75 1.019531,0 1.59375,-1.27734375 1.59375,-1.53515625 0,-0.09375 -0.09375,-0.09375 -0.128906,-0.09375 -0.08203,0 -0.105469,0.035156 -0.128907,0.1054688 -0.328125,1.0664062 -0.996093,1.31249995 -1.324218,1.31249995 -0.386719,0 -0.539063,-0.328125 -0.539063,-0.65625 0,-0.22265625 0.05859,-0.44531245 0.164063,-0.87890625 z m 0,0"
         style="fill:#eb0a36;fill-opacity:1;fill-rule:nonzero;stroke:none" />
    </g>
  </g>
</svg>
