<?xml version="1.0" encoding="UTF-8" standalone="no"?>
<!-- Created with Inkscape (http://www.inkscape.org/) -->

<svg
   version="1.1"
   id="svg1"
   width="275.64273"
   height="218.17578"
   viewBox="0 0 275.64273 218.17578"
   sodipodi:docname="funcion-par.svg"
   inkscape:version="1.4.2 (f4327f4, 2025-05-13)"
   xmlns:inkscape="http://www.inkscape.org/namespaces/inkscape"
   xmlns:sodipodi="http://sodipodi.sourceforge.net/DTD/sodipodi-0.dtd"
   xmlns="http://www.w3.org/2000/svg"
   xmlns:svg="http://www.w3.org/2000/svg">
  <defs
     id="defs1">
    <clipPath
       clipPathUnits="userSpaceOnUse"
       id="clipPath33">
      <rect
         style="opacity:0;fill:none;stroke-width:0.75"
         id="rect34"
         width="246.49826"
         height="184.45219"
         x="-92.341347"
         y="-174.37396" />
    </clipPath>
    <clipPath
       clipPathUnits="userSpaceOnUse"
       id="clipPath34">
      <rect
         style="opacity:0;fill:none;stroke-width:0.75"
         id="rect35"
         width="246.49826"
         height="184.45219"
         x="-167.62834"
         y="-67.865959" />
    </clipPath>
    <clipPath
       clipPathUnits="userSpaceOnUse"
       id="clipPath35">
      <rect
         style="opacity:0;fill:none;stroke-width:0.75"
         id="rect36"
         width="246.49826"
         height="184.45219"
         x="-16.488338"
         y="-67.865959" />
    </clipPath>
    <clipPath
       clipPathUnits="userSpaceOnUse"
       id="clipPath36">
      <rect
         style="opacity:0;fill:none;stroke-width:0.75"
         id="rect37"
         width="246.49826"
         height="184.45219"
         x="-118.43835"
         y="-84.249969"
         transform="scale(1,-1)" />
    </clipPath>
    <clipPath
       clipPathUnits="userSpaceOnUse"
       id="clipPath37">
      <rect
         style="opacity:0;fill:none;stroke-width:0.75"
         id="rect38"
         width="246.49826"
         height="184.45219"
         x="-118.43835"
         y="-84.249969"
         transform="scale(1,-1)" />
    </clipPath>
    <clipPath
       clipPathUnits="userSpaceOnUse"
       id="clipPath38">
      <rect
         style="opacity:0;fill:none;stroke-width:0.75"
         id="rect39"
         width="246.49826"
         height="184.45219"
         x="-160.67534"
         y="-92.781967" />
    </clipPath>
    <clipPath
       clipPathUnits="userSpaceOnUse"
       id="clipPath39">
      <rect
         style="opacity:0;fill:none;stroke-width:0.75"
         id="rect40"
         width="246.49826"
         height="184.45219"
         x="-65.724342"
         y="-94.448959" />
    </clipPath>
    <clipPath
       clipPathUnits="userSpaceOnUse"
       id="clipPath40">
      <rect
         style="opacity:0;fill:none;stroke-width:0.75"
         id="rect41"
         width="246.49826"
         height="184.45219"
         x="-118.43835"
         y="-84.249969"
         transform="scale(1,-1)" />
    </clipPath>
    <clipPath
       clipPathUnits="userSpaceOnUse"
       id="clipPath41">
      <rect
         style="opacity:0;fill:none;stroke-width:0.75"
         id="rect42"
         width="246.49826"
         height="184.45219"
         x="-118.43835"
         y="-84.249969"
         transform="scale(1,-1)" />
    </clipPath>
    <clipPath
       clipPathUnits="userSpaceOnUse"
       id="clipPath42">
      <rect
         style="opacity:0;fill:none;stroke-width:0.75"
         id="rect43"
         width="246.49826"
         height="184.45219"
         x="-118.43835"
         y="-84.249969"
         transform="scale(1,-1)" />
    </clipPath>
    <clipPath
       clipPathUnits="userSpaceOnUse"
       id="clipPath43">
      <rect
         style="opacity:0;fill:none;stroke-width:0.75"
         id="rect44"
         width="246.49826"
         height="184.45219"
         x="-118.43835"
         y="-84.249969"
         transform="scale(1,-1)" />
    </clipPath>
    <clipPath
       clipPathUnits="userSpaceOnUse"
       id="clipPath44">
      <rect
         style="opacity:0;fill:none;stroke-width:0.75"
         id="rect45"
         width="246.49826"
         height="184.45219"
         x="-118.43835"
         y="-84.249969"
         transform="scale(1,-1)" />
    </clipPath>
    <clipPath
       clipPathUnits="userSpaceOnUse"
       id="clipPath45">
      <rect
         style="opacity:0;fill:none;stroke-width:0.75"
         id="rect46"
         width="246.49826"
         height="184.45219"
         x="-118.43835"
         y="-84.249969"
         transform="scale(1,-1)" />
    </clipPath>
    <clipPath
       clipPathUnits="userSpaceOnUse"
       id="clipPath46">
      <rect
         style="opacity:0;fill:none;stroke-width:0.75"
         id="rect47"
         width="246.49826"
         height="184.45219"
         x="-108.86334"
         y="-17.505962" />
    </clipPath>
    <clipPath
       clipPathUnits="userSpaceOnUse"
       id="clipPath47">
      <rect
         style="opacity:0;fill:none;stroke-width:0.75"
         id="rect48"
         width="246.49826"
         height="184.45219"
         x="-118.43835"
         y="-16.675653"
         transform="matrix(0,-1,-1,0,0,0)" />
    </clipPath>
    <clipPath
       clipPathUnits="userSpaceOnUse"
       id="clipPath48">
      <rect
         style="opacity:0;fill:none;stroke-width:0.75"
         id="rect49"
         width="246.49826"
         height="184.45219"
         x="-118.43835"
         y="-84.249969"
         transform="scale(1,-1)" />
    </clipPath>
    <clipPath
       clipPathUnits="userSpaceOnUse"
       id="clipPath49">
      <rect
         style="opacity:0;fill:none;stroke-width:0.75"
         id="rect50"
         width="246.49826"
         height="184.45219"
         x="-217.36835"
         y="-92.781967" />
    </clipPath>
    <clipPath
       clipPathUnits="userSpaceOnUse"
       id="clipPath50">
      <rect
         style="opacity:0;fill:none;stroke-width:0.75"
         id="rect51"
         width="246.49826"
         height="184.45219"
         x="-220.02895"
         y="-84.249969"
         transform="scale(1,-1)" />
    </clipPath>
    <clipPath
       clipPathUnits="userSpaceOnUse"
       id="clipPath51">
      <rect
         style="opacity:0;fill:none;stroke-width:0.75"
         id="rect52"
         width="246.49826"
         height="184.45219"
         x="-118.43835"
         y="-84.249969"
         transform="scale(1,-1)" />
    </clipPath>
    <clipPath
       clipPathUnits="userSpaceOnUse"
       id="clipPath52">
      <rect
         style="opacity:0;fill:none;stroke-width:0.75"
         id="rect53"
         width="246.49826"
         height="184.45219"
         x="51.719662"
         y="30.321039" />
    </clipPath>
    <clipPath
       clipPathUnits="userSpaceOnUse"
       id="clipPath53">
      <rect
         style="opacity:0;fill:none;stroke-width:0.75"
         id="rect54"
         width="246.49826"
         height="184.45219"
         x="61.371662"
         y="22.614038"
         transform="scale(1,-1)" />
    </clipPath>
    <clipPath
       clipPathUnits="userSpaceOnUse"
       id="clipPath54">
      <rect
         style="opacity:0;fill:none;stroke-width:0.75"
         id="rect55"
         width="246.49826"
         height="184.45219"
         x="61.371662"
         y="-221.54497"
         transform="scale(1,-1)" />
    </clipPath>
  </defs>
  <sodipodi:namedview
     id="namedview1"
     pagecolor="#ffffff"
     bordercolor="#000000"
     borderopacity="0.25"
     inkscape:showpageshadow="2"
     inkscape:pageopacity="0.0"
     inkscape:pagecheckerboard="0"
     inkscape:deskcolor="#d1d1d1"
     inkscape:zoom="2.2241536"
     inkscape:cx="138.25484"
     inkscape:cy="96.89079"
     inkscape:window-width="1920"
     inkscape:window-height="1009"
     inkscape:window-x="-8"
     inkscape:window-y="-8"
     inkscape:window-maximized="1"
     inkscape:current-layer="g1">
    <inkscape:page
       x="5.2976532e-07"
       y="1.4684543e-06"
       inkscape:label="17"
       id="page1"
       width="275.64273"
       height="218.17578"
       margin="0"
       bleed="0" />
  </sodipodi:namedview>
  <g
     id="g1"
     inkscape:groupmode="layer"
     inkscape:label="17"
     transform="translate(-103.68149,-84.343749)">
    <path
       id="path2"
       d="M 0,0 H 362.835 V 27.967 H 0 Z"
       style="fill:#d2d2d2;fill-opacity:1;fill-rule:nonzero;stroke:none"
       transform="matrix(1.3333333,0,0,-1.3333333,0,37.289333)"
       clip-path="url(#clipPath53)" />
    <path
       id="path3"
       d="m 2.9896016,-5.9777734 c -0.7382813,-0.1875 -1.3828125,-0.9140625 -1.3828125,-1.828125 0,-1.0078125 0.8085937,-1.9101563 1.921875,-1.9101563 2.3554687,0 2.671875,2.3320313 2.7539062,2.9414063 0.035156,0.1757812 0.035156,0.234375 0.1757813,0.234375 0.1523437,0 0.1523437,-0.070312 0.1523437,-0.328125 v -2.90625 c 0,-0.2578126 0,-0.3281246 -0.140625,-0.3281246 -0.046875,0 -0.1054687,0 -0.1992187,0.1874996 l -0.4804688,0.8789062 c -0.6796875,-0.890625 -1.6289062,-1.0664058 -2.2617187,-1.0664058 -1.59375,0 -2.75390629,1.2773433 -2.75390629,2.7421871 0,0.6914062 0.24609379,1.3242187 0.77343749,1.8984375 0.5039063,0.5507812 1.0078125,0.6796875 2.0273438,0.9375 0.5039062,0.1171875 1.2890625,0.3164062 1.4882812,0.4101562 0.6796875,0.328125 1.125,1.1015625 1.125,1.9101563 0,1.0664062 -0.7617187,2.08593746 -1.9570312,2.08593746 -0.6445313,0 -1.5351563,-0.15234375 -2.2382813,-0.7734375 C 1.1614766,-1.6418359 1.1028828,-2.6730859 1.0911641,-3.1418359 1.0794453,-3.2590234 0.96225781,-3.2590234 0.93882031,-3.2590234 c -0.1640625,0 -0.1640625,0.070312 -0.1640625,0.328125 v 2.90624996 c 0,0.2578125 0,0.328125 0.140625,0.328125 0.09375,0 0.10546879,-0.0351563 0.19921879,-0.19921875 0.058594,-0.1171875 0.3632812,-0.65625 0.4804687,-0.8671875 0.515625,0.57421875 1.4179688,1.06640625 2.6484375,1.06640625 1.6054688,0 2.7773438,-1.37109376 2.7773438,-2.94140626 0,-0.8789062 -0.3398438,-1.5234375 -0.7265625,-1.9921875 -0.5273438,-0.6445312 -1.171875,-0.8085937 -1.734375,-0.9492187 z m 10.3095704,2.6484375 c 0.316406,0 0.339844,0 0.339844,-0.2695313 0,-1.453125 -0.773438,-2.8007812 -2.507813,-2.8007812 -1.6406249,0 -2.8945311,1.4765625 -2.8945311,3.2578125 0,1.8984375 1.4648437,3.28124996 3.0468751,3.28124996 1.710937,0 2.355469,-1.54687496 2.355469,-1.85156246 0,-0.082031 -0.07031,-0.140625 -0.152344,-0.140625 -0.117188,0 -0.152344,0.070312 -0.175781,0.140625 -0.375,1.20703121 -1.335938,1.53515621 -1.933594,1.53515621 -0.609375,0 -2.0507814,-0.3984375 -2.0507814,-2.88281251 V -3.3293359 Z M 9.3382344,-3.5988672 c 0.1171875,-2.25 1.3710936,-2.5078125 1.7812496,-2.5078125 1.535157,0 1.617188,2.015625 1.628907,2.5078125 z m 9.9023436,-1.7109375 c -0.175781,0 -0.703125,0 -0.703125,0.5859375 0,0.3515625 0.246094,0.5859375 0.585938,0.5859375 0.328125,0 0.609375,-0.1992187 0.609375,-0.609375 0,-0.9609375 -1.007813,-1.6523437 -2.167969,-1.6523437 -1.675781,0 -3.011719,1.4882812 -3.011719,3.3046875 0,1.828125 1.371094,3.23437496 3,3.23437496 1.886719,0 2.320313,-1.72265626 2.320313,-1.85156246 0,-0.1289063 -0.105469,-0.1289063 -0.140625,-0.1289063 -0.128907,0 -0.152344,0.046875 -0.1875,0.2226563 -0.316407,1.01953121 -1.089844,1.44140621 -1.863282,1.44140621 -0.878906,0 -2.039062,-0.76171875 -2.039062,-2.94140621 0,-2.3789063 1.21875,-2.9648438 1.933594,-2.9648438 0.550781,0 1.335937,0.2109375 1.664062,0.7734375 z m 6.243164,0 c -0.175781,0 -0.703125,0 -0.703125,0.5859375 0,0.3515625 0.246094,0.5859375 0.585938,0.5859375 0.328125,0 0.609375,-0.1992187 0.609375,-0.609375 0,-0.9609375 -1.007813,-1.6523437 -2.167969,-1.6523437 -1.675781,0 -3.011719,1.4882812 -3.011719,3.3046875 0,1.828125 1.371094,3.23437496 3,3.23437496 1.886719,0 2.320313,-1.72265626 2.320313,-1.85156246 0,-0.1289063 -0.105469,-0.1289063 -0.140625,-0.1289063 -0.128907,0 -0.152344,0.046875 -0.1875,0.2226563 -0.316407,1.01953121 -1.089844,1.44140621 -1.863282,1.44140621 -0.878906,0 -2.039062,-0.76171875 -2.039062,-2.94140621 0,-2.3789063 1.21875,-2.9648438 1.933594,-2.9648438 0.550781,0 1.335937,0.2109375 1.664062,0.7734375 z m 3.547852,-3.5273437 c 0,-0.375 -0.304688,-0.703125 -0.703125,-0.703125 -0.375,0 -0.691407,0.3046875 -0.691407,0.6914062 0,0.4335938 0.351563,0.703125 0.691407,0.703125 0.445312,0 0.703125,-0.375 0.703125,-0.6914062 z m -1.980469,2.671875 v 0.4101562 c 0.914062,0 1.042969,0.09375 1.042969,0.7851563 v 3.9023437 c 0,0.65625001 -0.152344,0.65625001 -1.089844,0.65625001 v 0.41015625 c 0.410156,-0.0234375 1.089844,-0.0234375 1.511719,-0.0234375 0.152343,0 0.984375,0 1.476562,0.0234375 v -0.41015625 c -0.9375,0 -0.984375,-0.0820313 -0.984375,-0.63281251 v -5.2851562 z m 8.648437,-2.9414063 c 0.234375,-0.1875 0.234375,-0.3515625 0.234375,-0.421875 0,-0.2578125 -0.246093,-0.46875 -0.492187,-0.46875 -0.199219,0 -0.28125,0.09375 -0.398438,0.2578125 l -1.710937,2.1796875 c 0.07031,0.082031 0.140625,0.1523438 0.234375,0.234375 z m 1.31836,6.0351563 c 0,-1.8515625 -1.40625,-3.328125 -3.070313,-3.328125 -1.722656,0 -3.082031,1.5234375 -3.082031,3.328125 0,1.8398437 1.429688,3.21093746 3.070313,3.21093746 1.6875,0 3.082031,-1.40624996 3.082031,-3.21093746 z m -3.070313,2.89453121 c -0.527343,0 -1.171875,-0.22265625 -1.59375,-0.92578121 -0.386718,-0.6445313 -0.398437,-1.5 -0.398437,-2.0976563 0,-0.5390625 0,-1.4179687 0.445312,-2.0625 0.398438,-0.6210937 1.03125,-0.84375 1.535157,-0.84375 0.550781,0 1.160156,0.2578125 1.546875,0.8085938 0.445312,0.6679687 0.445312,1.5703125 0.445312,2.0976562 0,0.5039063 0,1.3945313 -0.375,2.0625 -0.398437,0.69140626 -1.066406,0.96093751 -1.605469,0.96093751 z m 9.893555,-3.30468751 c 0,-1.3359375 0,-1.7460937 -0.328125,-2.203125 -0.421875,-0.5507812 -1.089844,-0.6445312 -1.582031,-0.6445312 -1.394531,0 -1.933594,1.1953125 -2.050781,1.4765625 h -0.01172 v -1.4765625 l -1.957031,0.1640625 v 0.4101562 c 0.972656,0 1.089843,0.1054688 1.089843,0.8085938 v 3.8789062 c 0,0.65625001 -0.152343,0.65625001 -1.089843,0.65625001 v 0.41015625 c 0.375,-0.0234375 1.148437,-0.0234375 1.546875,-0.0234375 0.421875,0 1.195312,0 1.570312,0.0234375 v -0.41015625 c -0.925781,0 -1.089844,0 -1.089844,-0.65625001 v -2.6601562 c 0,-1.5117188 0.984375,-2.3085938 1.875,-2.3085938 0.890625,0 1.089844,0.7265625 1.089844,1.6054688 v 3.3632812 c 0,0.65625001 -0.152344,0.65625001 -1.089844,0.65625001 v 0.41015625 c 0.375,-0.0234375 1.148438,-0.0234375 1.546875,-0.0234375 0.421875,0 1.195313,0 1.570313,0.0234375 v -0.41015625 c -0.714844,0 -1.078125,0 -1.089844,-0.43359375 z m 10.245117,-5.71875 c 0,-0.328125 0,-0.3398437 -0.292969,-0.3398437 -0.339843,0.3867187 -1.066406,0.9140625 -2.542968,0.9140625 v 0.421875 c 0.339843,0 1.054687,0 1.839843,-0.375 v 7.4765625 c 0,0.51562496 -0.04687,0.69140621 -1.300781,0.69140621 h -0.445312 v 0.41015625 c 0.386718,-0.0234375 1.78125,-0.0234375 2.25,-0.0234375 0.46875,0 1.851562,0 2.238281,0.0234375 v -0.41015625 h -0.445313 c -1.265625,0 -1.300781,-0.17578125 -1.300781,-0.69140621 z m 5.525391,8.49609376 c 0,-0.38671876 -0.328125,-0.69140626 -0.691406,-0.69140626 -0.410157,0 -0.703125,0.328125 -0.703125,0.69140626 0,0.43359375 0.363281,0.703125 0.691406,0.703125 0.386719,0 0.703125,-0.3046875 0.703125,-0.703125 z m 5.402344,-8.49609376 c 0,-0.328125 0,-0.3398437 -0.292969,-0.3398437 -0.339844,0.3867187 -1.066406,0.9140625 -2.542969,0.9140625 v 0.421875 c 0.339844,0 1.054688,0 1.839844,-0.375 v 7.4765625 c 0,0.51562496 -0.04687,0.69140621 -1.300781,0.69140621 h -0.445313 v 0.41015625 c 0.386719,-0.0234375 1.78125,-0.0234375 2.25,-0.0234375 0.46875,0 1.851563,0 2.238281,0.0234375 v -0.41015625 h -0.445312 c -1.265625,0 -1.300781,-0.17578125 -1.300781,-0.69140621 z m 5.522461,3.703125 c 0,-0.3867187 -0.328125,-0.6914062 -0.691407,-0.6914062 -0.410156,0 -0.703125,0.3398437 -0.703125,0.6914062 0,0.4335938 0.363282,0.703125 0.691407,0.703125 0.386718,0 0.703125,-0.3046875 0.703125,-0.703125 z m 0,4.79296876 c 0,-0.38671876 -0.328125,-0.69140626 -0.691407,-0.69140626 -0.410156,0 -0.703125,0.328125 -0.703125,0.69140626 0,0.43359375 0.363282,0.703125 0.691407,0.703125 0.386718,0 0.703125,-0.3046875 0.703125,-0.703125 z M 85.832375,-9.7746484 c 0,-0.2578126 0,-0.3281246 -0.140625,-0.3281246 -0.09375,0 -0.105469,0.03516 -0.1875,0.1757808 l -0.703125,1.1367188 c -0.644531,-0.8085938 -1.617188,-1.3124996 -2.660156,-1.3124996 -2.625,0 -4.886719,2.2734371 -4.886719,5.1914058 0,2.9765625 2.296875,5.21484376 4.886719,5.21484376 2.355468,0 3.691406,-2.05078126 3.691406,-3.63281246 0,-0.1523438 0,-0.2460938 -0.152344,-0.2460938 -0.152344,0 -0.164062,0.070312 -0.164062,0.1757813 -0.128907,2.2851562 -1.792969,3.28124996 -3.1875,3.28124996 -0.996094,0 -3.738282,-0.59765625 -3.738282,-4.79296876 0,-4.1367187 2.695313,-4.7695312 3.726563,-4.7695312 1.511719,0 2.824219,1.2773437 3.117187,3.421875 0.02344,0.1757812 0.02344,0.2226562 0.199219,0.2226562 0.199219,0 0.199219,-0.046875 0.199219,-0.328125 z m 5.15332,3.609375 v 0.4101562 c 0.972657,0 1.089844,0.1054688 1.089844,0.8085938 v 2.5664062 c 0,1.21875 -0.644531,2.23828126 -1.722656,2.23828126 -1.171875,0 -1.242188,-0.6796875 -1.242188,-1.44140626 v -4.7460937 l -2.027343,0.1640625 v 0.4101562 c 1.089843,0 1.089843,0.046875 1.089843,1.3242188 v 2.1445312 c 0,0.890625 0,1.40625001 0.433594,1.88671876 0.339844,0.375 0.925781,0.5390625 1.664063,0.5390625 0.246093,0 0.703125,0 1.183593,-0.41015625 0.421875,-0.328125 0.65625,-0.87890621 0.65625,-0.87890621 v 1.28906246 l 1.992188,-0.140625 v -0.41015625 c -0.984375,0 -1.089844,-0.10546875 -1.089844,-0.80859371 v -5.109375 z m 8.976563,2.3320312 c 0,-0.7734375 0,-1.3476562 -0.621094,-1.9101562 -0.503906,-0.4570313 -1.148437,-0.65625 -1.78125,-0.65625 -1.183594,0 -2.085937,0.7734375 -2.085937,1.7109375 0,0.4101562 0.28125,0.609375 0.609375,0.609375 0.339843,0 0.585937,-0.234375 0.585937,-0.5859375 0,-0.5859375 -0.515625,-0.5859375 -0.726562,-0.5859375 0.328125,-0.5976563 1.007812,-0.8554688 1.582031,-0.8554688 0.667969,0 1.511719,0.5390625 1.511719,1.828125 v 0.5742188 c -2.882813,0.046875 -3.972657,1.2539062 -3.972657,2.3554687 0,1.13671876 1.3125,1.48828126 2.191407,1.48828126 0.949218,0 1.59375,-0.57421875 1.863281,-1.25390626 0.05859,0.66796876 0.503906,1.18359376 1.125002,1.18359376 0.29297,0 1.125,-0.19921875 1.125,-1.34765626 v -0.796875 h -0.31641 v 0.796875 c 0,0.82031251 -0.33984,0.93750001 -0.53906,0.93750001 -0.550782,0 -0.550782,-0.76171871 -0.550782,-0.98437501 z m -0.925781,1.8046875 c 0,1.40625001 -1.042969,1.88671876 -1.664063,1.88671876 -0.703125,0 -1.289062,-0.515625 -1.289062,-1.20703126 0,-1.8984375 2.4375,-2.0625 2.953125,-2.0976562 z m 4.831053,-3.7382812 h 2.01563 v -0.421875 h -2.01563 v -2.6367188 h -0.3164 c -0.0234,1.3476563 -0.53907,2.7304688 -1.83985,2.765625 v 0.2929688 h 1.21875 v 3.984375 c 0,1.59374996 1.06641,1.92187496 1.82813,1.92187496 0.90234,0 1.37109,-0.890625 1.37109,-1.92187496 v -0.8203125 h -0.31641 v 0.796875 c 0,1.03124996 -0.41015,1.62890621 -0.97265,1.62890621 -0.97266,0 -0.97266,-1.33593751 -0.97266,-1.57031251 z m 5.44043,2.4257812 c 0,-1.3945312 0.57422,-2.6953125 1.6875,-2.6953125 0.10547,0 0.14063,0 0.19922,0.011719 -0.11719,0.058594 -0.35156,0.140625 -0.35156,0.5273437 0,0.421875 0.33984,0.5742188 0.5625,0.5742188 0.29297,0 0.57422,-0.1875 0.57422,-0.5742188 0,-0.4335937 -0.38672,-0.8320312 -1.00782,-0.8320312 -1.21875,0 -1.6289,1.3242187 -1.71093,1.59375 h -0.0234 v -1.59375 l -1.92188,0.1640625 v 0.4101562 c 0.98438,0 1.08985,0.1054688 1.08985,0.8085938 v 3.8789062 c 0,0.65625001 -0.15235,0.65625001 -1.08985,0.65625001 v 0.41015625 c 0.41016,-0.0234375 1.19532,-0.0234375 1.62891,-0.0234375 0.38672,0 1.40625,0 1.73437,0.0234375 v -0.41015625 h -0.29296 c -1.04297,0 -1.07813,-0.1640625 -1.07813,-0.67968751 z m 9.65625,0.2695313 c 0,-1.8515625 -1.40625,-3.328125 -3.07031,-3.328125 -1.72266,0 -3.08203,1.5234375 -3.08203,3.328125 0,1.8398437 1.42968,3.21093746 3.07031,3.21093746 1.6875,0 3.08203,-1.40624996 3.08203,-3.21093746 z m -3.07031,2.89453121 c -0.52735,0 -1.17188,-0.22265625 -1.59375,-0.92578121 -0.38672,-0.6445313 -0.39844,-1.5 -0.39844,-2.0976563 0,-0.5390625 0,-1.4179687 0.44531,-2.0625 0.39844,-0.6210937 1.03125,-0.84375 1.53516,-0.84375 0.55078,0 1.16016,0.2578125 1.54687,0.8085938 0.44532,0.6679687 0.44532,1.5703125 0.44532,2.0976562 0,0.5039063 0,1.3945313 -0.375,2.0625 -0.39844,0.69140626 -1.06641,0.96093751 -1.60547,0.96093751 z m 18.47461,-3.30468751 c 0,-1.3359375 0,-1.7460937 -0.33985,-2.203125 -0.41015,-0.5507812 -1.08984,-0.6445312 -1.57031,-0.6445312 -1.19531,0 -1.79297,0.8671875 -2.02734,1.4179687 -0.19922,-1.1015625 -0.97266,-1.4179687 -1.875,-1.4179687 -1.39453,0 -1.9336,1.1953125 -2.05078,1.4765625 h -0.0117 v -1.4765625 l -1.95703,0.1640625 v 0.4101562 c 0.97265,0 1.08984,0.1054688 1.08984,0.8085938 v 3.8789062 c 0,0.65625001 -0.15234,0.65625001 -1.08984,0.65625001 v 0.41015625 c 0.375,-0.0234375 1.14843,-0.0234375 1.54687,-0.0234375 0.42188,0 1.19531,0 1.57031,0.0234375 v -0.41015625 c -0.92578,0 -1.08984,0 -1.08984,-0.65625001 v -2.6601562 c 0,-1.5117188 0.98438,-2.3085938 1.875,-2.3085938 0.89063,0 1.08984,0.7265625 1.08984,1.6054688 v 3.3632812 c 0,0.65625001 -0.15234,0.65625001 -1.08984,0.65625001 v 0.41015625 c 0.375,-0.0234375 1.14844,-0.0234375 1.54688,-0.0234375 0.42187,0 1.19531,0 1.57031,0.0234375 v -0.41015625 c -0.92578,0 -1.08985,0 -1.08985,-0.65625001 v -2.6601562 c 0,-1.5117188 0.98438,-2.3085938 1.875,-2.3085938 0.89063,0 1.08985,0.7265625 1.08985,1.6054688 v 3.3632812 c 0,0.65625001 -0.15235,0.65625001 -1.08985,0.65625001 v 0.41015625 c 0.375,-0.0234375 1.14844,-0.0234375 1.54688,-0.0234375 0.42187,0 1.19531,0 1.57031,0.0234375 v -0.41015625 c -0.72656,0 -1.07812,0 -1.08984,-0.43359375 z m 6.94922,-0.3515625 c 0,-0.7734375 0,-1.3476562 -0.6211,-1.9101562 -0.5039,-0.4570313 -1.14843,-0.65625 -1.78125,-0.65625 -1.18359,0 -2.08593,0.7734375 -2.08593,1.7109375 0,0.4101562 0.28125,0.609375 0.60937,0.609375 0.33984,0 0.58594,-0.234375 0.58594,-0.5859375 0,-0.5859375 -0.51563,-0.5859375 -0.72656,-0.5859375 0.32812,-0.5976563 1.00781,-0.8554688 1.58203,-0.8554688 0.66797,0 1.51172,0.5390625 1.51172,1.828125 v 0.5742188 c -2.88282,0.046875 -3.97266,1.2539062 -3.97266,2.3554687 0,1.13671876 1.3125,1.48828126 2.19141,1.48828126 0.94921,0 1.59375,-0.57421875 1.86328,-1.25390626 0.0586,0.66796876 0.5039,1.18359376 1.125,1.18359376 0.29297,0 1.125,-0.19921875 1.125,-1.34765626 v -0.796875 h -0.31641 v 0.796875 c 0,0.82031251 -0.33984,0.93750001 -0.53906,0.93750001 -0.55078,0 -0.55078,-0.76171871 -0.55078,-0.98437501 z m -0.92578,1.8046875 c 0,1.40625001 -1.04297,1.88671876 -1.66407,1.88671876 -0.70312,0 -1.28906,-0.515625 -1.28906,-1.20703126 0,-1.8984375 2.4375,-2.0625 2.95313,-2.0976562 z m 8.80664,-1.453125 c 0,-1.3359375 0,-1.7460937 -0.32813,-2.203125 -0.42187,-0.5507812 -1.08984,-0.6445312 -1.58203,-0.6445312 -1.39453,0 -1.93359,1.1953125 -2.05078,1.4765625 h -0.0117 v -1.4765625 l -1.95703,0.1640625 v 0.4101562 c 0.97265,0 1.08984,0.1054688 1.08984,0.8085938 v 3.8789062 c 0,0.65625001 -0.15234,0.65625001 -1.08984,0.65625001 v 0.41015625 c 0.375,-0.0234375 1.14844,-0.0234375 1.54687,-0.0234375 0.42188,0 1.19532,0 1.57032,0.0234375 v -0.41015625 c -0.92579,0 -1.08985,0 -1.08985,-0.65625001 v -2.6601562 c 0,-1.5117188 0.98438,-2.3085938 1.875,-2.3085938 0.89063,0 1.08985,0.7265625 1.08985,1.6054688 v 3.3632812 c 0,0.65625001 -0.15235,0.65625001 -1.08985,0.65625001 v 0.41015625 c 0.375,-0.0234375 1.14844,-0.0234375 1.54688,-0.0234375 0.42187,0 1.19531,0 1.57031,0.0234375 v -0.41015625 c -0.71484,0 -1.07813,0 -1.08984,-0.43359375 z m 6.91113,0.1523438 c 0.31641,0 0.33984,0 0.33984,-0.2695313 0,-1.453125 -0.77343,-2.8007812 -2.50781,-2.8007812 -1.64062,0 -2.89453,1.4765625 -2.89453,3.2578125 0,1.8984375 1.46484,3.28124996 3.04687,3.28124996 1.71094,0 2.35547,-1.54687496 2.35547,-1.85156246 0,-0.082031 -0.0703,-0.140625 -0.15234,-0.140625 -0.11719,0 -0.15234,0.070312 -0.17578,0.140625 -0.375,1.20703121 -1.33594,1.53515621 -1.9336,1.53515621 -0.60937,0 -2.05078,-0.3984375 -2.05078,-2.88281251 v -0.2695312 z m -3.96094,-0.2695313 c 0.11719,-2.25 1.3711,-2.5078125 1.78125,-2.5078125 1.53516,0 1.61719,2.015625 1.62891,2.5078125 z m 7.10156,0.2578125 c 0,-1.3945312 0.57422,-2.6953125 1.6875,-2.6953125 0.10547,0 0.14063,0 0.19922,0.011719 -0.11718,0.058594 -0.35156,0.140625 -0.35156,0.5273437 0,0.421875 0.33984,0.5742188 0.5625,0.5742188 0.29297,0 0.57422,-0.1875 0.57422,-0.5742188 0,-0.4335937 -0.38672,-0.8320312 -1.00781,-0.8320312 -1.21875,0 -1.62891,1.3242187 -1.71094,1.59375 h -0.0234 v -1.59375 l -1.92187,0.1640625 v 0.4101562 c 0.98437,0 1.08984,0.1054688 1.08984,0.8085938 v 3.8789062 c 0,0.65625001 -0.15234,0.65625001 -1.08984,0.65625001 v 0.41015625 c 0.41015,-0.0234375 1.19531,-0.0234375 1.6289,-0.0234375 0.38672,0 1.40625,0 1.73438,0.0234375 v -0.41015625 h -0.29297 c -1.04297,0 -1.07813,-0.1640625 -1.07813,-0.67968751 z m 8.60157,-0.4921875 c 0,-0.7734375 0,-1.3476562 -0.6211,-1.9101562 -0.5039,-0.4570313 -1.14843,-0.65625 -1.78125,-0.65625 -1.18359,0 -2.08593,0.7734375 -2.08593,1.7109375 0,0.4101562 0.28125,0.609375 0.60937,0.609375 0.33984,0 0.58594,-0.234375 0.58594,-0.5859375 0,-0.5859375 -0.51563,-0.5859375 -0.72656,-0.5859375 0.32812,-0.5976563 1.00781,-0.8554688 1.58203,-0.8554688 0.66797,0 1.51172,0.5390625 1.51172,1.828125 v 0.5742188 c -2.88282,0.046875 -3.97266,1.2539062 -3.97266,2.3554687 0,1.13671876 1.3125,1.48828126 2.19141,1.48828126 0.94921,0 1.59375,-0.57421875 1.86328,-1.25390626 0.0586,0.66796876 0.5039,1.18359376 1.125,1.18359376 0.29297,0 1.125,-0.19921875 1.125,-1.34765626 v -0.796875 h -0.31641 v 0.796875 c 0,0.82031251 -0.33984,0.93750001 -0.53906,0.93750001 -0.55078,0 -0.55078,-0.76171871 -0.55078,-0.98437501 z m -0.92578,1.8046875 c 0,1.40625001 -1.04297,1.88671876 -1.66407,1.88671876 -0.70312,0 -1.28906,-0.515625 -1.28906,-1.20703126 0,-1.8984375 2.4375,-2.0625 2.95313,-2.0976562 z m 7.11914,-4.0429687 c 0,-0.2578125 0,-0.328125 -0.14063,-0.328125 -0.11719,0 -0.38672,0.3164062 -0.48047,0.4453125 -0.44531,-0.3632813 -0.89062,-0.4453125 -1.34765,-0.4453125 -1.7461,0 -2.26172,0.9492187 -2.26172,1.734375 0,0.1640625 0,0.6679687 0.55078,1.1601562 0.45703,0.4101563 0.94922,0.5039063 1.60547,0.6328125 0.78515,0.1640625 0.97265,0.1992188 1.33593,0.4921875 0.25782,0.2109375 0.44532,0.5273438 0.44532,0.9257813 0,0.62109371 -0.36328,1.31249996 -1.62891,1.31249996 -0.9375,0 -1.62891,-0.55078125 -1.94531,-1.98046876 -0.0586,-0.2578125 -0.0586,-0.2695312 -0.0703,-0.2929687 -0.0352,-0.058594 -0.082,-0.058594 -0.12891,-0.058594 -0.16406,0 -0.16406,0.082031 -0.16406,0.3398438 v 1.94531246 c 0,0.2578125 0,0.328125 0.15234,0.328125 0.0703,0 0.082,-0.0117188 0.32813,-0.31640625 0.0703,-0.09375 0.0703,-0.12890625 0.28125,-0.3515625 0.55078,0.66796875 1.32421,0.66796875 1.57031,0.66796875 1.5,0 2.25,-0.83203125 2.25,-1.95703126 0,-0.7851562 -0.48047,-1.2421875 -0.60938,-1.3710937 -0.51562,-0.4453125 -0.90234,-0.5273438 -1.83984,-0.703125 -0.43359,-0.082031 -1.48828,-0.28125 -1.48828,-1.1484375 0,-0.4453125 0.30469,-1.1015625 1.59375,-1.1015625 1.57031,0 1.65234,1.3359375 1.6875,1.78125 0.0117,0.1171875 0.10547,0.1171875 0.15234,0.1171875 0.15235,0 0.15235,-0.070312 0.15235,-0.328125 z m 9.81738,-3.7265625 v 0.421875 c 0.97265,0 1.08984,0.09375 1.08984,0.796875 v 3.1757812 c -0.29297,-0.421875 -0.91406,-0.9257812 -1.79297,-0.9257812 -1.66406,0 -3.09375,1.40625 -3.09375,3.2460937 0,1.8164063 1.35938,3.22265626 2.94141,3.22265626 1.08984,0 1.72266,-0.71484375 1.92187,-0.984375 v 0.984375 l 2.01563,-0.140625 v -0.41015625 c -0.97266,0 -1.08984,-0.10546875 -1.08984,-0.80859371 v -8.7304688 z m 1.0664,8.1210937 c 0,0.2578125 0,0.2929688 -0.19921,0.609375 -0.35157,0.50390626 -0.9375,0.92578126 -1.65235,0.92578126 -0.375,0 -1.92187,-0.140625 -1.92187,-2.92968746 0,-1.03125 0.17578,-1.6054688 0.48047,-2.0742188 0.29296,-0.4453125 0.86718,-0.890625 1.58203,-0.890625 0.89062,0 1.39453,0.6445313 1.53515,0.8671875 0.17578,0.2460938 0.17578,0.28125 0.17578,0.5390625 z m 7.9336,-1.6523437 c 0.3164,0 0.33984,0 0.33984,-0.2695313 0,-1.453125 -0.77344,-2.8007812 -2.50781,-2.8007812 -1.64063,0 -2.89453,1.4765625 -2.89453,3.2578125 0,1.8984375 1.46484,3.28124996 3.04687,3.28124996 1.71094,0 2.35547,-1.54687496 2.35547,-1.85156246 0,-0.082031 -0.0703,-0.140625 -0.15234,-0.140625 -0.11719,0 -0.15235,0.070312 -0.17578,0.140625 -0.375,1.20703121 -1.33594,1.53515621 -1.9336,1.53515621 -0.60937,0 -2.05078,-0.3984375 -2.05078,-2.88281251 v -0.2695312 z m -3.96094,-0.2695313 c 0.11719,-2.25 1.37109,-2.5078125 1.78125,-2.5078125 1.53516,0 1.61719,2.015625 1.62891,2.5078125 z m 11.79199,0.2578125 c 0,-1.3945312 0.57422,-2.6953125 1.6875,-2.6953125 0.10547,0 0.14063,0 0.19922,0.011719 -0.11719,0.058594 -0.35156,0.140625 -0.35156,0.5273437 0,0.421875 0.33984,0.5742188 0.5625,0.5742188 0.29297,0 0.57422,-0.1875 0.57422,-0.5742188 0,-0.4335937 -0.38672,-0.8320312 -1.00781,-0.8320312 -1.21875,0 -1.62891,1.3242187 -1.71094,1.59375 h -0.0234 v -1.59375 l -1.92187,0.1640625 v 0.4101562 c 0.98437,0 1.08984,0.1054688 1.08984,0.8085938 v 3.8789062 c 0,0.65625001 -0.15234,0.65625001 -1.08984,0.65625001 v 0.41015625 c 0.41015,-0.0234375 1.19531,-0.0234375 1.6289,-0.0234375 0.38672,0 1.40625,0 1.73438,0.0234375 v -0.41015625 h -0.29297 c -1.04297,0 -1.07813,-0.1640625 -1.07813,-0.67968751 z m 8.56641,0.011719 c 0.31641,0 0.33984,0 0.33984,-0.2695313 0,-1.453125 -0.77343,-2.8007812 -2.50781,-2.8007812 -1.64062,0 -2.89453,1.4765625 -2.89453,3.2578125 0,1.8984375 1.46484,3.28124996 3.04687,3.28124996 1.71094,0 2.35547,-1.54687496 2.35547,-1.85156246 0,-0.082031 -0.0703,-0.140625 -0.15234,-0.140625 -0.11719,0 -0.15234,0.070312 -0.17578,0.140625 -0.375,1.20703121 -1.33594,1.53515621 -1.9336,1.53515621 -0.60937,0 -2.05078,-0.3984375 -2.05078,-2.88281251 v -0.2695312 z m -3.96094,-0.2695313 c 0.11719,-2.25 1.3711,-2.5078125 1.78125,-2.5078125 1.53516,0 1.61719,2.015625 1.62891,2.5078125 z m 8.22363,5.9648438 c -0.91406,0 -1.08984,0 -1.08984,-0.6445313 v -2.49609374 c 0.25781,0.36328125 0.84375,0.9140625 1.75781,0.9140625 1.65235,0 3.10547,-1.38281246 3.10547,-3.23437496 0,-1.828125 -1.34765,-3.234375 -2.91797,-3.234375 -1.2539,0 -1.93359,0.9023437 -1.98047,0.9609375 v -0.9609375 l -1.99218,0.1640625 v 0.4101562 c 1.00781,0 1.08984,0.1054688 1.08984,0.7382813 v 6.7382812 c 0,0.6445313 -0.15234,0.6445313 -1.08984,0.6445313 V 2.776133 c 0.375,-0.023437 1.14843,-0.023437 1.54687,-0.023437 0.42188,0 1.19531,0 1.57031,0.023437 z m -1.08984,-6.9375 c 0,-0.28125 0,-0.2929688 0.15234,-0.5273438 0.4336,-0.6445312 1.13672,-0.9140625 1.6875,-0.9140625 1.06641,0 1.9336,1.3125 1.9336,2.9179688 0,1.6992187 -0.97266,2.95312496 -2.08594,2.95312496 -0.44531,0 -0.85547,-0.1875 -1.14844,-0.45703125 -0.32812,-0.33984375 -0.53906,-0.62109371 -0.53906,-1.01953121 z m 7.76953,1.2304687 c 0,-1.3945312 0.57422,-2.6953125 1.6875,-2.6953125 0.10547,0 0.14063,0 0.19922,0.011719 -0.11719,0.058594 -0.35156,0.140625 -0.35156,0.5273437 0,0.421875 0.33984,0.5742188 0.5625,0.5742188 0.29297,0 0.57422,-0.1875 0.57422,-0.5742188 0,-0.4335937 -0.38672,-0.8320312 -1.00782,-0.8320312 -1.21875,0 -1.6289,1.3242187 -1.71093,1.59375 h -0.0234 v -1.59375 l -1.92188,0.1640625 v 0.4101562 c 0.98438,0 1.08985,0.1054688 1.08985,0.8085938 v 3.8789062 c 0,0.65625001 -0.15235,0.65625001 -1.08985,0.65625001 v 0.41015625 c 0.41016,-0.0234375 1.19532,-0.0234375 1.62891,-0.0234375 0.38672,0 1.40625,0 1.73438,0.0234375 v -0.41015625 h -0.29297 c -1.04297,0 -1.07813,-0.1640625 -1.07813,-0.67968751 z m 8.56934,0.011719 c 0.3164,0 0.33984,0 0.33984,-0.2695313 0,-1.453125 -0.77344,-2.8007812 -2.50781,-2.8007812 -1.64063,0 -2.89453,1.4765625 -2.89453,3.2578125 0,1.8984375 1.46484,3.28124996 3.04687,3.28124996 1.71094,0 2.35547,-1.54687496 2.35547,-1.85156246 0,-0.082031 -0.0703,-0.140625 -0.15234,-0.140625 -0.11719,0 -0.15235,0.070312 -0.17578,0.140625 -0.375,1.20703121 -1.33594,1.53515621 -1.9336,1.53515621 -0.60937,0 -2.05078,-0.3984375 -2.05078,-2.88281251 v -0.2695312 z m -3.96094,-0.2695313 c 0.11719,-2.25 1.37109,-2.5078125 1.78125,-2.5078125 1.53516,0 1.61719,2.015625 1.62891,2.5078125 z m 9.40723,-2.4726562 c 0,-0.2578125 0,-0.328125 -0.14063,-0.328125 -0.11719,0 -0.38672,0.3164062 -0.48047,0.4453125 -0.44531,-0.3632813 -0.89062,-0.4453125 -1.34765,-0.4453125 -1.7461,0 -2.26172,0.9492187 -2.26172,1.734375 0,0.1640625 0,0.6679687 0.55078,1.1601562 0.45703,0.4101563 0.94922,0.5039063 1.60547,0.6328125 0.78515,0.1640625 0.97265,0.1992188 1.33594,0.4921875 0.25781,0.2109375 0.44531,0.5273438 0.44531,0.9257813 0,0.62109371 -0.36328,1.31249996 -1.62891,1.31249996 -0.9375,0 -1.6289,-0.55078125 -1.94531,-1.98046876 -0.0586,-0.2578125 -0.0586,-0.2695312 -0.0703,-0.2929687 -0.0352,-0.058594 -0.082,-0.058594 -0.12891,-0.058594 -0.16406,0 -0.16406,0.082031 -0.16406,0.3398438 v 1.94531246 c 0,0.2578125 0,0.328125 0.15234,0.328125 0.0703,0 0.082,-0.0117188 0.32813,-0.31640625 0.0703,-0.09375 0.0703,-0.12890625 0.28125,-0.3515625 0.55078,0.66796875 1.32422,0.66796875 1.57031,0.66796875 1.5,0 2.25,-0.83203125 2.25,-1.95703126 0,-0.7851562 -0.48047,-1.2421875 -0.60938,-1.3710937 -0.51562,-0.4453125 -0.90234,-0.5273438 -1.83984,-0.703125 -0.43359,-0.082031 -1.48828,-0.28125 -1.48828,-1.1484375 0,-0.4453125 0.30469,-1.1015625 1.59375,-1.1015625 1.57031,0 1.65234,1.3359375 1.6875,1.78125 0.0117,0.1171875 0.10547,0.1171875 0.15234,0.1171875 0.15235,0 0.15235,-0.070312 0.15235,-0.328125 z m 6.33691,2.7421875 c 0.31641,0 0.33985,0 0.33985,-0.2695313 0,-1.453125 -0.77344,-2.8007812 -2.50782,-2.8007812 -1.64062,0 -2.89453,1.4765625 -2.89453,3.2578125 0,1.8984375 1.46485,3.28124996 3.04688,3.28124996 1.71093,0 2.35547,-1.54687496 2.35547,-1.85156246 0,-0.082031 -0.0703,-0.140625 -0.15235,-0.140625 -0.11719,0 -0.15234,0.070312 -0.17578,0.140625 -0.375,1.20703121 -1.33594,1.53515621 -1.93359,1.53515621 -0.60938,0 -2.05078,-0.3984375 -2.05078,-2.88281251 v -0.2695312 z m -3.96094,-0.2695313 c 0.11719,-2.25 1.3711,-2.5078125 1.78125,-2.5078125 1.53516,0 1.61719,2.015625 1.62891,2.5078125 z m 11.09473,0.1171875 c 0,-1.3359375 0,-1.7460937 -0.32812,-2.203125 -0.42188,-0.5507812 -1.08985,-0.6445312 -1.58204,-0.6445312 -1.39453,0 -1.93359,1.1953125 -2.05078,1.4765625 h -0.0117 v -1.4765625 l -1.95703,0.1640625 v 0.4101562 c 0.97266,0 1.08985,0.1054688 1.08985,0.8085938 v 3.8789062 c 0,0.65625001 -0.15235,0.65625001 -1.08985,0.65625001 v 0.41015625 c 0.375,-0.0234375 1.14844,-0.0234375 1.54688,-0.0234375 0.42187,0 1.19531,0 1.57031,0.0234375 v -0.41015625 c -0.92578,0 -1.08984,0 -1.08984,-0.65625001 V -3.727773 c 0,-1.5117188 0.98437,-2.3085938 1.875,-2.3085938 0.89062,0 1.08984,0.7265625 1.08984,1.6054688 v 3.3632812 c 0,0.65625001 -0.15234,0.65625001 -1.08984,0.65625001 v 0.41015625 c 0.375,-0.0234375 1.14843,-0.0234375 1.54687,-0.0234375 0.42188,0 1.19531,0 1.57031,0.0234375 v -0.41015625 c -0.71484,0 -1.07812,0 -1.08984,-0.43359375 z m 3.43066,-2.2851562 h 2.01563 v -0.421875 h -2.01563 v -2.6367188 h -0.3164 c -0.0234,1.3476563 -0.53906,2.7304688 -1.83985,2.765625 v 0.2929688 h 1.21875 v 3.984375 c 0,1.59374996 1.06641,1.92187496 1.82813,1.92187496 0.90234,0 1.37109,-0.890625 1.37109,-1.92187496 V -2.602773 h -0.3164 v 0.796875 c 0,1.03124996 -0.41016,1.62890621 -0.97266,1.62890621 -0.97266,0 -0.97266,-1.33593751 -0.97266,-1.57031251 z m 8.58106,1.9335937 c 0,-0.7734375 0,-1.3476562 -0.62109,-1.9101562 -0.50391,-0.4570313 -1.14844,-0.65625 -1.78125,-0.65625 -1.1836,0 -2.08594,0.7734375 -2.08594,1.7109375 0,0.4101562 0.28125,0.609375 0.60937,0.609375 0.33985,0 0.58594,-0.234375 0.58594,-0.5859375 0,-0.5859375 -0.51562,-0.5859375 -0.72656,-0.5859375 0.32812,-0.5976563 1.00781,-0.8554688 1.58203,-0.8554688 0.66797,0 1.51172,0.5390625 1.51172,1.828125 v 0.5742188 c -2.88281,0.046875 -3.97266,1.2539062 -3.97266,2.3554687 0,1.13671876 1.3125,1.48828126 2.19141,1.48828126 0.94922,0 1.59375,-0.57421875 1.86328,-1.25390626 0.0586,0.66796876 0.50391,1.18359376 1.125,1.18359376 0.29297,0 1.125,-0.19921875 1.125,-1.34765626 v -0.796875 h -0.31641 v 0.796875 c 0,0.82031251 -0.33984,0.93750001 -0.53906,0.93750001 -0.55078,0 -0.55078,-0.76171871 -0.55078,-0.98437501 z m -0.92578,1.8046875 c 0,1.40625001 -1.04297,1.88671876 -1.66406,1.88671876 -0.70313,0 -1.28907,-0.515625 -1.28907,-1.20703126 0,-1.8984375 2.4375,-2.0625 2.95313,-2.0976562 z m 4.80762,-1.3125 c 0,-1.3945312 0.57421,-2.6953125 1.6875,-2.6953125 0.10546,0 0.14062,0 0.19921,0.011719 -0.11718,0.058594 -0.35156,0.140625 -0.35156,0.5273437 0,0.421875 0.33985,0.5742188 0.5625,0.5742188 0.29297,0 0.57422,-0.1875 0.57422,-0.5742188 0,-0.4335937 -0.38672,-0.8320312 -1.00781,-0.8320312 -1.21875,0 -1.62891,1.3242187 -1.71094,1.59375 h -0.0234 v -1.59375 l -1.92187,0.1640625 v 0.4101562 c 0.98437,0 1.08984,0.1054688 1.08984,0.8085938 v 3.8789062 c 0,0.65625001 -0.15234,0.65625001 -1.08984,0.65625001 v 0.41015625 c 0.41015,-0.0234375 1.19531,-0.0234375 1.6289,-0.0234375 0.38672,0 1.40625,0 1.73438,0.0234375 v -0.41015625 h -0.29297 c -1.04297,0 -1.07812,-0.1640625 -1.07812,-0.67968751 z m 12.12304,-2.8242187 v 0.4101562 c 0.97266,0 1.08985,0.1054688 1.08985,0.8085938 v 2.5664062 c 0,1.21875 -0.64454,2.23828126 -1.72266,2.23828126 -1.17188,0 -1.24219,-0.6796875 -1.24219,-1.44140626 v -4.7460937 l -2.02734,0.1640625 v 0.4101562 c 1.08984,0 1.08984,0.046875 1.08984,1.3242188 v 2.1445312 c 0,0.890625 0,1.40625001 0.4336,1.88671876 0.33984,0.375 0.92578,0.5390625 1.66406,0.5390625 0.24609,0 0.70312,0 1.18359,-0.41015625 0.42188,-0.328125 0.65625,-0.87890621 0.65625,-0.87890621 v 1.28906246 l 1.99219,-0.140625 v -0.41015625 c -0.98438,0 -1.08984,-0.10546875 -1.08984,-0.80859371 v -5.109375 z m 9.83203,2.6835937 c 0,-1.3359375 0,-1.7460937 -0.32812,-2.203125 -0.42188,-0.5507812 -1.08985,-0.6445312 -1.58203,-0.6445312 -1.39453,0 -1.9336,1.1953125 -2.05078,1.4765625 h -0.0117 v -1.4765625 l -1.95703,0.1640625 v 0.4101562 c 0.97265,0 1.08984,0.1054688 1.08984,0.8085938 v 3.8789062 c 0,0.65625001 -0.15234,0.65625001 -1.08984,0.65625001 v 0.41015625 c 0.375,-0.0234375 1.14843,-0.0234375 1.54687,-0.0234375 0.42188,0 1.19531,0 1.57031,0.0234375 v -0.41015625 c -0.92578,0 -1.08984,0 -1.08984,-0.65625001 V -3.727773 c 0,-1.5117188 0.98437,-2.3085938 1.875,-2.3085938 0.89062,0 1.08984,0.7265625 1.08984,1.6054688 v 3.3632812 c 0,0.65625001 -0.15234,0.65625001 -1.08984,0.65625001 v 0.41015625 c 0.375,-0.0234375 1.14844,-0.0234375 1.54687,-0.0234375 0.42188,0 1.19532,0 1.57032,0.0234375 v -0.41015625 c -0.71485,0 -1.07813,0 -1.08985,-0.43359375 z m 6.94922,-0.3515625 c 0,-0.7734375 0,-1.3476562 -0.62109,-1.9101562 -0.50391,-0.4570313 -1.14844,-0.65625 -1.78125,-0.65625 -1.1836,0 -2.08594,0.7734375 -2.08594,1.7109375 0,0.4101562 0.28125,0.609375 0.60938,0.609375 0.33984,0 0.58593,-0.234375 0.58593,-0.5859375 0,-0.5859375 -0.51562,-0.5859375 -0.72656,-0.5859375 0.32813,-0.5976563 1.00781,-0.8554688 1.58203,-0.8554688 0.66797,0 1.51172,0.5390625 1.51172,1.828125 v 0.5742188 c -2.88281,0.046875 -3.97266,1.2539062 -3.97266,2.3554687 0,1.13671876 1.3125,1.48828126 2.19141,1.48828126 0.94922,0 1.59375,-0.57421875 1.86328,-1.25390626 0.0586,0.66796876 0.50391,1.18359376 1.125,1.18359376 0.29297,0 1.125,-0.19921875 1.125,-1.34765626 v -0.796875 h -0.3164 v 0.796875 c 0,0.82031251 -0.33985,0.93750001 -0.53907,0.93750001 -0.55078,0 -0.55078,-0.76171871 -0.55078,-0.98437501 z m -0.92578,1.8046875 c 0,1.40625001 -1.04297,1.88671876 -1.66406,1.88671876 -0.70313,0 -1.28906,-0.515625 -1.28906,-1.20703126 0,-1.8984375 2.4375,-2.0625 2.95312,-2.0976562 z m 9.56836,-3.7382812 h 1.61719 v -0.421875 h -1.65235 v -1.6757813 c 0,-1.2890625 0.65625,-1.9453125 1.25391,-1.9453125 0.10547,0 0.32813,0.023437 0.49219,0.1171875 -0.0469,0.011719 -0.41016,0.140625 -0.41016,0.5507813 0,0.328125 0.22266,0.5625 0.5625,0.5625 0.33985,0 0.57422,-0.234375 0.57422,-0.5742188 0,-0.5273437 -0.51562,-0.9492187 -1.20703,-0.9492187 -1.00781,0 -2.14453,0.7734375 -2.14453,2.2382812 v 1.6757813 h -1.11328 v 0.421875 h 1.11328 v 4.6992187 c 0,0.65625001 -0.15235,0.65625001 -1.08985,0.65625001 v 0.41015625 c 0.41016,-0.0234375 1.19532,-0.0234375 1.62891,-0.0234375 0.38672,0 1.40625,0 1.73438,0.0234375 v -0.41015625 h -0.29297 c -1.04297,0 -1.06641,-0.1640625 -1.06641,-0.67968751 z m 6.17871,-0.3984375 v 0.4101562 c 0.97266,0 1.08984,0.1054688 1.08984,0.8085938 v 2.5664062 c 0,1.21875 -0.64453,2.23828126 -1.72265,2.23828126 -1.17188,0 -1.24219,-0.6796875 -1.24219,-1.44140626 v -4.7460937 l -2.02734,0.1640625 v 0.4101562 c 1.08984,0 1.08984,0.046875 1.08984,1.3242188 v 2.1445312 c 0,0.890625 0,1.40625001 0.43359,1.88671876 0.33985,0.375 0.92579,0.5390625 1.66407,0.5390625 0.24609,0 0.70312,0 1.18359,-0.41015625 0.42188,-0.328125 0.65625,-0.87890621 0.65625,-0.87890621 v 1.28906246 l 1.99219,-0.140625 v -0.41015625 c -0.98438,0 -1.08985,-0.10546875 -1.08985,-0.80859371 v -5.109375 z m 9.83203,2.6835937 c 0,-1.3359375 0,-1.7460937 -0.32812,-2.203125 -0.42188,-0.5507812 -1.08985,-0.6445312 -1.58203,-0.6445312 -1.39454,0 -1.9336,1.1953125 -2.05079,1.4765625 h -0.0117 v -1.4765625 l -1.95704,0.1640625 v 0.4101562 c 0.97266,0 1.08985,0.1054688 1.08985,0.8085938 v 3.8789062 c 0,0.65625001 -0.15235,0.65625001 -1.08985,0.65625001 v 0.41015625 c 0.375,-0.0234375 1.14844,-0.0234375 1.54688,-0.0234375 0.42187,0 1.19531,0 1.57031,0.0234375 v -0.41015625 c -0.92578,0 -1.08984,0 -1.08984,-0.65625001 V -3.727773 c 0,-1.5117188 0.98437,-2.3085938 1.875,-2.3085938 0.89062,0 1.08984,0.7265625 1.08984,1.6054688 v 3.3632812 c 0,0.65625001 -0.15234,0.65625001 -1.08984,0.65625001 v 0.41015625 c 0.375,-0.0234375 1.14844,-0.0234375 1.54687,-0.0234375 0.42188,0 1.19532,0 1.57032,0.0234375 v -0.41015625 c -0.71485,0 -1.07813,0 -1.08985,-0.43359375 z m 6.60938,-1.828125 c -0.17578,0 -0.70313,0 -0.70313,0.5859375 0,0.3515625 0.2461,0.5859375 0.58594,0.5859375 0.32812,0 0.60937,-0.1992187 0.60937,-0.609375 0,-0.9609375 -1.00781,-1.6523437 -2.16796,-1.6523437 -1.67579,0 -3.01172,1.4882812 -3.01172,3.3046875 0,1.828125 1.37109,3.23437496 3,3.23437496 1.88672,0 2.32031,-1.72265626 2.32031,-1.85156246 0,-0.1289063 -0.10547,-0.1289063 -0.14063,-0.1289063 -0.1289,0 -0.15234,0.046875 -0.1875,0.2226563 -0.3164,1.01953121 -1.08984,1.44140621 -1.86328,1.44140621 -0.8789,0 -2.03906,-0.76171875 -2.03906,-2.94140621 0,-2.3789063 1.21875,-2.9648438 1.93359,-2.9648438 0.55079,0 1.33594,0.2109375 1.66407,0.7734375 z m 3.54785,-3.5273437 c 0,-0.375 -0.30469,-0.703125 -0.70313,-0.703125 -0.375,0 -0.6914,0.3046875 -0.6914,0.6914062 0,0.4335938 0.35156,0.703125 0.6914,0.703125 0.44532,0 0.70313,-0.375 0.70313,-0.6914062 z m -1.98047,2.671875 v 0.4101562 c 0.91406,0 1.04297,0.09375 1.04297,0.7851563 v 3.9023437 c 0,0.65625001 -0.15234,0.65625001 -1.08984,0.65625001 v 0.41015625 c 0.41015,-0.0234375 1.08984,-0.0234375 1.51171,-0.0234375 0.15235,0 0.98438,0 1.47657,0.0234375 v -0.41015625 c -0.9375,0 -0.98438,-0.0820313 -0.98438,-0.63281251 v -5.2851562 z m 8.64844,-2.9414063 c 0.23437,-0.1875 0.23437,-0.3515625 0.23437,-0.421875 0,-0.2578125 -0.24609,-0.46875 -0.49218,-0.46875 -0.19922,0 -0.28125,0.09375 -0.39844,0.2578125 l -1.71094,2.1796875 c 0.0703,0.082031 0.14063,0.1523438 0.23438,0.234375 z m 1.31836,6.0351563 c 0,-1.8515625 -1.40625,-3.328125 -3.07032,-3.328125 -1.72265,0 -3.08203,1.5234375 -3.08203,3.328125 0,1.8398437 1.42969,3.21093746 3.07032,3.21093746 1.6875,0 3.08203,-1.40624996 3.08203,-3.21093746 z m -3.07032,2.89453121 c -0.52734,0 -1.17187,-0.22265625 -1.59375,-0.92578121 -0.38671,-0.6445313 -0.39843,-1.5 -0.39843,-2.0976563 0,-0.5390625 0,-1.4179687 0.44531,-2.0625 0.39844,-0.6210937 1.03125,-0.84375 1.53516,-0.84375 0.55078,0 1.16015,0.2578125 1.54687,0.8085938 0.44531,0.6679687 0.44531,1.5703125 0.44531,2.0976562 0,0.5039063 0,1.3945313 -0.375,2.0625 -0.39843,0.69140626 -1.0664,0.96093751 -1.60547,0.96093751 z m 9.89356,-3.30468751 c 0,-1.3359375 0,-1.7460937 -0.32813,-2.203125 -0.42187,-0.5507812 -1.08984,-0.6445312 -1.58203,-0.6445312 -1.39453,0 -1.93359,1.1953125 -2.05078,1.4765625 h -0.0117 v -1.4765625 l -1.95703,0.1640625 v 0.4101562 c 0.97266,0 1.08985,0.1054688 1.08985,0.8085938 v 3.8789062 c 0,0.65625001 -0.15235,0.65625001 -1.08985,0.65625001 v 0.41015625 c 0.375,-0.0234375 1.14844,-0.0234375 1.54688,-0.0234375 0.42187,0 1.19531,0 1.57031,0.0234375 v -0.41015625 c -0.92578,0 -1.08984,0 -1.08984,-0.65625001 V -3.727773 c 0,-1.5117188 0.98437,-2.3085938 1.875,-2.3085938 0.89062,0 1.08984,0.7265625 1.08984,1.6054688 v 3.3632812 c 0,0.65625001 -0.15234,0.65625001 -1.08984,0.65625001 v 0.41015625 c 0.375,-0.0234375 1.14843,-0.0234375 1.54687,-0.0234375 0.42188,0 1.19531,0 1.57031,0.0234375 v -0.41015625 c -0.71484,0 -1.07812,0 -1.08984,-0.43359375 z m 0,0"
       style="fill:#eb0a36;fill-opacity:1;fill-rule:nonzero;stroke:none"
       aria-label="Secci´on1.1:Cuatromanerasderepresentarunafunci´on"
       transform="matrix(1.3333333,0,0,1.3333333,12.869333,27.013333)"
       clip-path="url(#clipPath52)" />
    <path
       id="path4"
       d="M -102.04889,0 H 101.5906"
       style="fill:none;stroke:#000000;stroke-width:0.3985;stroke-linecap:butt;stroke-linejoin:miter;stroke-miterlimit:10;stroke-dasharray:none;stroke-opacity:1"
       transform="matrix(1.3333333,0,0,-1.3333333,239.74667,179.77467)"
       clip-path="url(#clipPath51)" />
    <path
       id="path5"
       d="M -1.19551,1.59401 C -1.09587,0.99626 0,0.09961 0.29886,0 0,-0.09961 -1.09587,-0.99626 -1.19551,-1.59401"
       style="fill:none;stroke:#000000;stroke-width:0.31879;stroke-linecap:round;stroke-linejoin:round;stroke-miterlimit:10;stroke-dasharray:none;stroke-opacity:1"
       transform="matrix(1.3333333,0,0,-1.3333333,375.2008,179.77467)"
       clip-path="url(#clipPath50)" />
    <path
       id="path6"
       d="m 3.6437891,-3.2917109 c 0.070312,-0.28125 0.3164062,-1.2890625 1.078125,-1.2890625 0.058594,0 0.3164062,0 0.5507812,0.140625 -0.3046875,0.058594 -0.5273437,0.328125 -0.5273437,0.5859375 0,0.1757812 0.1171875,0.3867187 0.4101562,0.3867187 0.2460938,0 0.5976563,-0.1992187 0.5976563,-0.6328125 0,-0.5625 -0.6445313,-0.7265625 -1.0195313,-0.7265625 -0.6328125,0 -1.0195312,0.5859375 -1.1484375,0.8320313 -0.2695312,-0.7148438 -0.8554687,-0.8320313 -1.171875,-0.8320313 -1.1367187,0 -1.75781249,1.4179688 -1.75781249,1.6875 0,0.1054688 0.10546875,0.1054688 0.12890625,0.1054688 0.0820313,0 0.1171875,-0.023437 0.140625,-0.1171875 0.37500004,-1.1601563 1.08984374,-1.4296875 1.46484374,-1.4296875 0.2109375,0 0.5859375,0.09375 0.5859375,0.7265625 0,0.3398437 -0.1875,1.078125 -0.5859375,2.6015625 -0.1757812,0.67968746 -0.5625,1.13671871 -1.0429687,1.13671871 -0.058594,0 -0.3164063,0 -0.53906254,-0.140625 0.26953124,-0.0585938 0.51562504,-0.29296875 0.51562504,-0.59765625 0,-0.29296876 -0.2460938,-0.37499996 -0.41015629,-0.37499996 -0.328125,0 -0.59765625,0.28124996 -0.59765625,0.63281246 0,0.50390625 0.55078125,0.71484375 1.03125004,0.71484375 0.7148437,0 1.1015625,-0.76171875 1.1367187,-0.83203125 0.1289063,0.41015625 0.5273438,0.83203125 1.1835938,0.83203125 1.125,0 1.7460937,-1.40625001 1.7460937,-1.67578121 0,-0.1054688 -0.1054687,-0.1054688 -0.1289062,-0.1054688 -0.1054688,0 -0.1289063,0.035156 -0.140625,0.1171875 -0.3632813,1.16015626 -1.1132813,1.42968751 -1.453125,1.42968751 -0.4335938,0 -0.609375,-0.3515625 -0.609375,-0.7265625 0,-0.23437501 0.070312,-0.48046871 0.1875,-0.96093751 z m 0,0"
       style="fill:#000000;fill-opacity:1;fill-rule:nonzero;stroke:none"
       aria-label="x"
       transform="matrix(1.3333333,0,0,1.3333333,371.65333,191.15067)"
       clip-path="url(#clipPath49)" />
    <path
       id="path7"
       d="M 0,-68.0326 V 67.57431"
       style="fill:none;stroke:#000000;stroke-width:0.3985;stroke-linecap:butt;stroke-linejoin:miter;stroke-miterlimit:10;stroke-dasharray:none;stroke-opacity:1"
       transform="matrix(1.3333333,0,0,-1.3333333,239.74667,179.77467)"
       clip-path="url(#clipPath48)" />
    <path
       id="path8"
       d="M -1.19551,1.59401 C -1.09587,0.99626 0,0.09961 0.29886,0 0,-0.09961 -1.09587,-0.99626 -1.19551,-1.59401"
       style="fill:none;stroke:#000000;stroke-width:0.31879;stroke-linecap:round;stroke-linejoin:round;stroke-miterlimit:10;stroke-dasharray:none;stroke-opacity:1"
       transform="matrix(0,-1.3333333,-1.3333333,0,239.74667,89.675587)"
       clip-path="url(#clipPath47)" />
    <path
       id="path9"
       d="m 5.2972266,-4.1612188 c 0.046875,-0.1523437 0.046875,-0.1757812 0.046875,-0.2460937 0,-0.1992188 -0.1523438,-0.2929688 -0.3164063,-0.2929688 -0.1054687,0 -0.28125,0.058594 -0.375,0.2226563 -0.023437,0.058594 -0.1171875,0.3984375 -0.1523437,0.5976562 -0.082031,0.28125 -0.1523438,0.5742188 -0.2226563,0.8671875 l -0.4921875,1.96875 c -0.046875,0.16406255 -0.515625,0.9257813 -1.2304687,0.9257813 -0.5625,0 -0.6796875,-0.48046875 -0.6796875,-0.890625 0,-0.4921875 0.1875,-1.171875 0.5625,-2.1328125 0.1757812,-0.4453125 0.2109375,-0.5742188 0.2109375,-0.7851563 0,-0.4921875 -0.3515625,-0.9023437 -0.890625,-0.9023437 -1.04296879,0 -1.44140629,1.5820312 -1.44140629,1.6875 0,0.1054687 0.10546875,0.1054687 0.12890625,0.1054687 0.10546875,0 0.1171875,-0.023437 0.17578125,-0.1992187 0.29296875,-1.0195313 0.72656249,-1.3476563 1.10156249,-1.3476563 0.09375,0 0.2695313,0 0.2695313,0.3515625 0,0.2695313 -0.1054688,0.5507813 -0.1757813,0.7617188 -0.4453125,1.1601562 -0.6328125,1.78125 -0.6328125,2.2851562 0,0.9726563 0.6796875,1.3007813 1.3242188,1.3007813 0.421875,0 0.796875,-0.1875 1.1015625,-0.4921875 C 3.4691016,0.19815625 3.3401953,0.7255 2.9066016,1.3114375 2.6136328,1.6747187 2.2034766,1.991125 1.6995703,1.991125 c -0.1523437,0 -0.6445312,-0.023437 -0.83203124,-0.4570313 0.17578124,0 0.31640624,0 0.48046874,-0.1289062 0.1054688,-0.09375 0.2109375,-0.234375 0.2109375,-0.4453125 0,-0.33984375 -0.2929687,-0.38671875 -0.3984375,-0.38671875 -0.25781249,0 -0.60937499,0.17578125 -0.60937499,0.71484375 0,0.5390625 0.48046879,0.9492187 1.14843749,0.9492187 1.125,0 2.25,-0.9960937 2.5546875,-2.22656245 z m 0,0"
       style="fill:#000000;fill-opacity:1;fill-rule:nonzero;stroke:none"
       aria-label="y"
       transform="matrix(1.3333333,0,0,1.3333333,226.98,90.782667)"
       clip-path="url(#clipPath46)" />
    <path
       id="path10"
       d="m -71.20741,45.35437 c 0,0 1.03929,-0.04555 1.43844,-0.0976 0.39916,-0.05204 1.03929,-0.17553 1.43845,-0.27751 0.39917,-0.10197 1.03931,-0.30537 1.43846,-0.45746 0.39916,-0.1521 1.03931,-0.43722 1.43846,-0.63876 0.39916,-0.20155 1.0393,-0.56394 1.43845,-0.81387 0.39915,-0.24994 1.03929,-0.68991 1.43845,-0.98758 0.39916,-0.29767 1.0393,-0.81387 1.43846,-1.15782 0.39915,-0.34395 1.03929,-0.93236 1.43846,-1.32115 0.39915,-0.3888 1.03929,-1.04883 1.43843,-1.48102 0.39917,-0.4322 1.0393,-1.1603 1.43846,-1.63397 0.39915,-0.47367 1.03931,-1.26645 1.43846,-1.77997 0.39915,-0.51352 1.03929,-1.36991 1.43846,-1.92118 0.39916,-0.55125 1.03929,-1.46547 1.43845,-2.05197 0.39914,-0.58648 1.03929,-1.55543 1.43844,-2.17515 0.39916,-0.61972 1.03929,-1.64096 1.43846,-2.29143 0.39916,-0.65045 1.0393,-1.71833 1.43845,-2.39663 0.39917,-0.67828 1.03931,-1.78855 1.43846,-2.4921 0.39916,-0.70354 1.03931,-1.8527 1.43846,-2.57863 0.39916,-0.72592 1.03929,-1.90796 1.43845,-2.65337 0.39917,-0.74542 1.0393,-1.957 1.43846,-2.71911 0.39916,-0.76214 1.03931,-1.99833 1.43844,-2.77381 0.39916,-0.77547 1.0393,-2.02955 1.43847,-2.81529 0.39915,-0.78577 1.03929,-2.0549 1.43844,-2.84786 0.39917,-0.79295 1.03931,-2.07052 1.43847,-2.86721 0.39915,-0.79671 1.03929,-2.07726 1.43844,-2.87479 0.39916,-0.79755 1.03929,-2.0782 1.43845,-2.87346 0.39917,-0.79524 1.0393,-2.06872 1.43846,-2.85821 0.39915,-0.78948 1.03931,-2.05126 1.43846,-2.83191 0.39915,-0.78066 1.03929,-2.02571 1.43845,-2.79457 0.39915,-0.76885 1.03929,-1.99294 1.43844,-2.7468 0.39916,-0.75386 1.03931,-1.95096 1.43846,-2.68658 0.39916,-0.73563 1.03929,-1.90062 1.43846,-2.61531 0.39916,-0.71469 1.0393,-1.84504 1.43845,-2.53573 0.39915,-0.69067 1.03929,-1.77839 1.43845,-2.44227 0.39915,-0.66391 1.0393,-1.70784 1.43846,-2.34265 0.39915,-0.6348 1.0393,-1.62987 1.43846,-2.23259 0.39917,-0.60272 1.03929,-1.54325 1.43845,-2.1115 0.39915,-0.56825 1.0393,-1.45238 1.43846,-1.98415 0.39915,-0.53176 1.03929,-1.35551 1.43846,-1.84848 0.39915,-0.49298 1.03929,-1.25219 1.43844,-1.70455 0.39917,-0.45235 1.03931,-1.14594 1.43845,-1.55577 0.39915,-0.40981 1.03929,-1.03261 1.43846,-1.39795 0.39916,-0.36538 1.03929,-0.91541 1.43845,-1.23535 0.39917,-0.31992 1.03931,-0.79772 1.43846,-1.07062 0.39915,-0.27289 1.03931,-0.67163 1.43845,-0.89623 0.39915,-0.22458 1.03929,-0.5466 1.43846,-0.7225 0.39915,-0.17591 1.03929,-0.41928 1.43844,-0.54537 0.39916,-0.12606 1.03931,-0.28746 1.43846,-0.36332 0.39916,-0.07586 1.0393,-0.15786 1.43846,-0.1834 0.39914,-0.02553 1.03925,-0.02592 1.43839,-6.9e-4 0.39917,0.02524 1.03931,0.10713 1.43846,0.18271 0.39916,0.07555 1.03931,0.23616 1.43846,0.36194 0.39916,0.12579 1.03929,0.36894 1.43845,0.54466 0.39917,0.17571 1.03931,0.49752 1.43846,0.72182 0.39916,0.22432 1.03931,0.62225 1.43846,0.89485 0.39916,0.2726 1.0393,0.75017 1.43846,1.06993 0.39916,0.31975 1.03929,0.86957 1.43845,1.23462 0.39917,0.36508 1.03929,0.98717 1.43844,1.3966 0.39916,0.40943 1.0393,1.10229 1.43847,1.55438 0.39915,0.45207 1.03928,1.21107 1.43844,1.70384 0.39917,0.4928 1.03931,1.31615 1.43846,1.84782 0.39916,0.53168 1.03931,1.41609 1.43845,1.98415 0.39915,0.56805 1.03929,1.50767 1.43846,2.11011 0.39916,0.60244 1.03929,1.5972 1.43845,2.23188 0.39915,0.63472 1.0393,1.67875 1.43846,2.34266 0.39916,0.66387 1.03929,1.75169 1.43844,2.44229 0.39916,0.69057 1.0393,1.82043 1.43845,2.53502 0.39917,0.7146 1.03931,1.87988 1.43846,2.61531 0.39916,0.73542 1.03929,1.93151 1.43846,2.68521 0.39915,0.75367 1.03929,1.97804 1.43843,2.74679 0.39917,0.76876 1.03931,2.01322 1.43846,2.79387 0.39916,0.78064 1.03933,2.04302 1.43848,2.83261 0.39916,0.78958 1.03929,2.06308 1.43846,2.85823 0.39914,0.79514 1.03928,2.07529 1.43843,2.87275 0.39917,0.79742 1.03931,2.07809 1.43846,2.87478 0.39916,0.79671 1.0393,2.07427 1.43847,2.86722 0.39915,0.79295 1.03929,2.062 1.43844,2.84785 0.39917,0.78583 1.03929,2.04044 1.43845,2.81601 0.39915,0.77556 1.0393,2.01166 1.43846,2.77379 0.39915,0.76212 1.03929,1.97359 1.43845,2.7191 0.39916,0.74552 1.0393,1.92793 1.43846,2.65407 0.39915,0.72612 1.0393,1.87558 1.43844,2.57933 0.39916,0.70375 1.03929,1.81441 1.43846,2.4928 0.39916,0.67839 1.0393,1.74608 1.43845,2.39661 0.39917,0.65055 1.03931,1.67221 1.43846,2.29212 0.39916,0.61991 1.03929,1.58907 1.43845,2.17585 0.39915,0.58679 1.03929,1.50189 1.43844,2.05335 0.39917,0.55145 1.03931,1.40746 1.43846,1.92118 0.39916,0.51372 1.03931,1.30732 1.43847,1.78136 0.39915,0.47406 1.03929,1.20297 1.43846,1.63534 0.39915,0.43239 1.03929,1.09212 1.43844,1.48102 0.39917,0.3889 1.03931,0.97762 1.43847,1.32184 0.39915,0.34424 1.03929,0.86136 1.43846,1.15921 0.39915,0.29785 1.03927,0.73744 1.43843,0.98758 0.39917,0.25011 1.03931,0.61331 1.43846,0.81525 0.39915,0.20193 1.0393,0.48777 1.43846,0.64015 0.39915,0.1524 1.03929,0.35589 1.43845,0.45814 0.39917,0.10227 1.0393,0.22669 1.43844,0.27892 0.39916,0.05223 1.43846,0.09758 1.43846,0.09758"
       style="fill:none;stroke:#eb0a36;stroke-width:0.79701;stroke-linecap:butt;stroke-linejoin:miter;stroke-miterlimit:10;stroke-dasharray:none;stroke-opacity:1"
       transform="matrix(1.3333333,0,0,-1.3333333,239.74667,179.77467)"
       clip-path="url(#clipPath45)" />
    <path
       id="path11"
       d="M 45.35506,-2.26787 V 2.26787"
       style="fill:none;stroke:#000000;stroke-width:0.3985;stroke-linecap:butt;stroke-linejoin:miter;stroke-miterlimit:10;stroke-dasharray:none;stroke-opacity:1"
       transform="matrix(1.3333333,0,0,-1.3333333,239.74667,179.77467)"
       clip-path="url(#clipPath44)" />
    <path
       id="path12"
       d="M -45.35506,-2.26787 V 2.26787"
       style="fill:none;stroke:#000000;stroke-width:0.3985;stroke-linecap:butt;stroke-linejoin:miter;stroke-miterlimit:10;stroke-dasharray:none;stroke-opacity:1"
       transform="matrix(1.3333333,0,0,-1.3333333,239.74667,179.77467)"
       clip-path="url(#clipPath43)" />
    <path
       id="path13"
       d="M 45.35506,0 V 18.87463 H 0"
       style="fill:none;stroke:#0000ff;stroke-width:0.3985;stroke-linecap:butt;stroke-linejoin:miter;stroke-miterlimit:10;stroke-dasharray:2.98883, 2.98883;stroke-dashoffset:0;stroke-opacity:0.5"
       transform="matrix(1.3333333,0,0,-1.3333333,239.74667,179.77467)"
       clip-path="url(#clipPath42)" />
    <path
       id="path14"
       d="M -45.35506,0 V 18.87463 H 0"
       style="fill:none;stroke:#0000ff;stroke-width:0.3985;stroke-linecap:butt;stroke-linejoin:miter;stroke-miterlimit:10;stroke-dasharray:2.98883, 2.98883;stroke-dashoffset:0;stroke-opacity:0.5"
       transform="matrix(1.3333333,0,0,-1.3333333,239.74667,179.77467)"
       clip-path="url(#clipPath41)" />
    <path
       id="path15"
       d="M 45.35506,-2.26787 V 2.26787"
       style="fill:none;stroke:#000000;stroke-width:0.3985;stroke-linecap:butt;stroke-linejoin:miter;stroke-miterlimit:10;stroke-dasharray:none;stroke-opacity:1"
       transform="matrix(1.3333333,0,0,-1.3333333,239.74667,179.77467)"
       clip-path="url(#clipPath40)" />
    <g
       id="g15"
       aria-label="−x"
       transform="matrix(1.3333333,0,0,1.3333333,169.46133,193.37333)"
       clip-path="url(#clipPath39)">
      <path
         id="path16"
         d="m 7.1950156,-2.5065625 c 0.1757813,0 0.375,0 0.375,-0.2226562 0,-0.2109375 -0.1992187,-0.2109375 -0.375,-0.2109375 h -5.90625 c -0.1875,0 -0.38671873,0 -0.38671873,0.2109375 0,0.2226562 0.19921873,0.2226562 0.38671873,0.2226562 z m 0,0"
         style="fill:#0000ff;fill-opacity:0.5;fill-rule:nonzero;stroke:none" />
      <path
         id="path17"
         d="m 12.128609,-3.2917187 c 0.07031,-0.28125 0.316407,-1.2890625 1.078125,-1.2890625 0.05859,0 0.316407,0 0.550782,0.140625 -0.304688,0.058594 -0.527344,0.328125 -0.527344,0.5859375 0,0.1757812 0.117187,0.3867187 0.410156,0.3867187 0.246094,0 0.597656,-0.1992187 0.597656,-0.6328125 0,-0.5625 -0.644531,-0.7265625 -1.019531,-0.7265625 -0.632812,0 -1.019531,0.5859375 -1.148437,0.8320313 -0.269532,-0.7148438 -0.855469,-0.8320313 -1.171875,-0.8320313 -1.1367191,0 -1.7578129,1.4179688 -1.7578129,1.6875 0,0.1054688 0.1054688,0.1054688 0.1289063,0.1054688 0.082031,0 0.1171875,-0.023437 0.140625,-0.1171875 0.375,-1.1601563 1.0898436,-1.4296875 1.4648436,-1.4296875 0.210938,0 0.585938,0.09375 0.585938,0.7265625 0,0.3398437 -0.1875,1.078125 -0.585938,2.6015625 -0.175781,0.67968745 -0.5625,1.1367187 -1.0429686,1.1367187 -0.058594,0 -0.3164063,0 -0.5390625,-0.140625 0.2695312,-0.0585938 0.515625,-0.29296875 0.515625,-0.59765625 0,-0.29296875 -0.2460938,-0.37499995 -0.4101563,-0.37499995 -0.328125,0 -0.5976562,0.28124995 -0.5976562,0.63281245 0,0.50390625 0.5507812,0.71484375 1.03125,0.71484375 0.7148436,0 1.1015626,-0.76171875 1.1367186,-0.83203125 0.128906,0.41015625 0.527344,0.83203125 1.183594,0.83203125 1.125,0 1.746094,-1.40625 1.746094,-1.6757812 0,-0.1054688 -0.105469,-0.1054688 -0.128907,-0.1054688 -0.105468,0 -0.128906,0.035156 -0.140625,0.1171875 -0.363281,1.16015625 -1.113281,1.4296875 -1.453125,1.4296875 -0.433593,0 -0.609375,-0.3515625 -0.609375,-0.7265625 0,-0.234375 0.07031,-0.4804687 0.1875,-0.9609375 z m 0,0"
         style="fill:#0000ff;fill-opacity:0.5;fill-rule:nonzero;stroke:none" />
    </g>
    <path
       id="path18"
       d="m 3.6444062,-3.2917109 c 0.070312,-0.28125 0.3164063,-1.2890625 1.078125,-1.2890625 0.058594,0 0.3164063,0 0.5507813,0.140625 -0.3046875,0.058594 -0.5273438,0.328125 -0.5273438,0.5859375 0,0.1757812 0.1171875,0.3867187 0.4101563,0.3867187 0.2460937,0 0.5976562,-0.1992187 0.5976562,-0.6328125 0,-0.5625 -0.6445312,-0.7265625 -1.0195312,-0.7265625 -0.6328125,0 -1.0195313,0.5859375 -1.1484375,0.8320313 -0.2695313,-0.7148438 -0.8554688,-0.8320313 -1.171875,-0.8320313 -1.1367188,0 -1.7578125,1.4179688 -1.7578125,1.6875 0,0.1054688 0.10546875,0.1054688 0.12890625,0.1054688 0.0820313,0 0.1171875,-0.023437 0.140625,-0.1171875 C 1.3006562,-4.3112422 2.0155,-4.5807734 2.3905,-4.5807734 c 0.2109375,0 0.5859375,0.09375 0.5859375,0.7265625 0,0.3398437 -0.1875,1.078125 -0.5859375,2.6015625 -0.1757813,0.67968746 -0.5625,1.13671871 -1.0429688,1.13671871 -0.058594,0 -0.3164062,0 -0.53906245,-0.140625 C 1.078,-0.31514844 1.3240937,-0.54952344 1.3240937,-0.85421094 1.3240937,-1.1471797 1.078,-1.2292109 0.9139375,-1.2292109 c -0.328125,0 -0.59765625,0.28124996 -0.59765625,0.63281246 0,0.50390625 0.55078125,0.71484375 1.03124995,0.71484375 0.7148438,0 1.1015625,-0.76171875 1.1367188,-0.83203125 0.1289062,0.41015625 0.5273437,0.83203125 1.1835937,0.83203125 1.125,0 1.7460938,-1.40625001 1.7460938,-1.67578121 0,-0.1054688 -0.1054688,-0.1054688 -0.1289063,-0.1054688 -0.1054687,0 -0.1289062,0.035156 -0.140625,0.1171875 -0.3632812,1.16015626 -1.1132812,1.42968751 -1.453125,1.42968751 -0.4335937,0 -0.609375,-0.3515625 -0.609375,-0.7265625 0,-0.23437501 0.070312,-0.48046871 0.1875,-0.96093751 z m 0,0"
       style="fill:#0000ff;fill-opacity:0.5;fill-rule:nonzero;stroke:none"
       aria-label="x"
       transform="matrix(1.3333333,0,0,1.3333333,296.06267,191.15067)"
       clip-path="url(#clipPath38)" />
    <path
       id="path19"
       d="m 47.16928,18.87463 c 0,1.00197 -0.81225,1.81424 -1.81422,1.81424 -1.00199,0 -1.81424,-0.81227 -1.81424,-1.81424 0,-1.00198 0.81225,-1.81423 1.81424,-1.81423 1.00197,0 1.81422,0.81225 1.81422,1.81423 z"
       style="fill:#0000ff;fill-opacity:0.5;fill-rule:nonzero;stroke:#0000ff;stroke-width:0.3985;stroke-linecap:butt;stroke-linejoin:miter;stroke-miterlimit:10;stroke-dasharray:none;stroke-opacity:0.5"
       transform="matrix(1.3333333,0,0,-1.3333333,239.74667,179.77467)"
       clip-path="url(#clipPath37)" />
    <path
       id="path20"
       d="m -43.54082,18.87463 c 0,1.00197 -0.81225,1.81424 -1.81424,1.81424 -1.00197,0 -1.81422,-0.81227 -1.81422,-1.81424 0,-1.00198 0.81225,-1.81423 1.81422,-1.81423 1.00199,0 1.81424,0.81225 1.81424,1.81423 z"
       style="fill:#0000ff;fill-opacity:0.5;fill-rule:nonzero;stroke:#0000ff;stroke-width:0.3985;stroke-linecap:butt;stroke-linejoin:miter;stroke-miterlimit:10;stroke-dasharray:none;stroke-opacity:0.5"
       transform="matrix(1.3333333,0,0,-1.3333333,239.74667,179.77467)"
       clip-path="url(#clipPath36)" />
    <g
       id="g20"
       aria-label="(−x,f(−x))"
       transform="matrix(1.3333333,0,0,1.3333333,103.81333,157.92933)"
       clip-path="url(#clipPath35)">
      <path
         id="path21"
         d="m 3.2923438,2.3908906 c 0,-0.035156 0,-0.046875 -0.1640625,-0.2226562 -1.2421875,-1.25390628 -1.5703125,-3.12890628 -1.5703125,-4.6640625 0,-1.7226563 0.3867187,-3.4570313 1.6054687,-4.7109375 0.1289063,-0.1171875 0.1289063,-0.1289063 0.1289063,-0.1640625 0,-0.070312 -0.035156,-0.1054688 -0.09375,-0.1054688 -0.1054688,0 -0.9960938,0.6796875 -1.5820313,1.9453125 -0.515625,1.1015625 -0.6328125,2.203125 -0.6328125,3.0351563 0,0.7851562 0.1171875,1.99218747 0.65625,3.11718747 0.5976563,1.21875003 1.453125,1.87500003 1.5585938,1.87500003 0.058594,0 0.09375,-0.035156 0.09375,-0.1054688 z m 0,0"
         style="fill:#0000ff;fill-opacity:0.5;fill-rule:nonzero;stroke:none" />
      <path
         id="path22"
         d="m 10.437852,-2.2966094 c 0.175781,0 0.351562,0 0.351562,-0.1992187 0,-0.1992188 -0.175781,-0.1992188 -0.351562,-0.1992188 H 5.0472266 c -0.1640625,0 -0.3398438,0 -0.3398438,0.1992188 0,0.1992187 0.1757813,0.1992187 0.3398438,0.1992187 z m 0,0"
         style="fill:#0000ff;fill-opacity:0.5;fill-rule:nonzero;stroke:none" />
      <path
         id="path23"
         d="m 14.9525,-3.0114531 c 0.05859,-0.2578125 0.292969,-1.171875 0.984375,-1.171875 0.04687,0 0.292969,0 0.503906,0.1289062 -0.28125,0.046875 -0.480468,0.3046875 -0.480468,0.5390625 0,0.1640625 0.105468,0.3515625 0.374999,0.3515625 0.222657,0 0.539063,-0.1875 0.539063,-0.5859375 0,-0.515625 -0.585938,-0.65625 -0.925781,-0.65625 -0.574219,0 -0.925781,0.5273438 -1.042969,0.7617188 -0.257812,-0.65625 -0.785156,-0.7617188 -1.078125,-0.7617188 -1.042969,0 -1.605469,1.2890625 -1.605469,1.5351563 0,0.1054687 0.105469,0.1054687 0.117188,0.1054687 0.08203,0 0.117187,-0.023437 0.128906,-0.1171875 0.339844,-1.0546875 0.996094,-1.3007812 1.335938,-1.3007812 0.1875,0 0.539062,0.09375 0.539062,0.6679687 0,0.3046875 -0.164062,0.9726563 -0.539062,2.3671875 -0.152344,0.62109377 -0.503907,1.04296877 -0.949219,1.04296877 -0.05859,0 -0.28125,0 -0.492188,-0.12890625 0.246094,-0.0585937 0.46875,-0.26953125 0.46875,-0.5390625 0,-0.26953122 -0.222656,-0.35156252 -0.375,-0.35156252 -0.292968,0 -0.539062,0.25781252 -0.539062,0.57421877 0,0.45703125 0.492187,0.65625 0.9375,0.65625 0.65625,0 1.007812,-0.69140625 1.042969,-0.75 0.117187,0.36328125 0.480468,0.75 1.078125,0.75 1.019531,0 1.593749,-1.27734377 1.593749,-1.53515627 0,-0.09375 -0.09375,-0.09375 -0.128906,-0.09375 -0.08203,0 -0.105469,0.035156 -0.128906,0.1054688 -0.328125,1.06640622 -0.996094,1.31249997 -1.324219,1.31249997 -0.386718,0 -0.539062,-0.328125 -0.539062,-0.65625 0,-0.22265625 0.05859,-0.44531247 0.164062,-0.87890627 z m 4.391602,2.99999997 c 0,-0.65625 -0.257813,-1.04296877 -0.644532,-1.04296877 -0.328125,0 -0.527343,0.24609377 -0.527343,0.52734377 0,0.26953125 0.199218,0.527343755 0.527343,0.527343755 0.117188,0 0.246094,-0.035156255 0.351563,-0.128906255 0.02344,-0.0234375 0.03516,-0.0351563 0.04687,-0.0351563 0.01172,0 0.02344,0.0117188 0.02344,0.15234375 0,0.73828125 -0.351562,1.33593748 -0.679687,1.66406248 -0.105469,0.1054687 -0.105469,0.1289062 -0.105469,0.1640625 0,0.070312 0.04687,0.1054687 0.09375,0.1054687 0.117188,0 0.914063,-0.7617186 0.914063,-1.93359368 z m 6.061523,-3.97265627 h 0.855469 c 0.199218,0 0.304687,0 0.304687,-0.1992187 0,-0.1054688 -0.105469,-0.1054688 -0.269531,-0.1054688 h -0.832031 l 0.210937,-1.1367187 c 0.03516,-0.2109375 0.175781,-0.9140625 0.234375,-1.0429688 0.09375,-0.1875 0.257813,-0.3398437 0.46875,-0.3398437 0.04687,0 0.304688,0 0.492188,0.1875 -0.433594,0.035156 -0.539063,0.3867187 -0.539063,0.5390625 0,0.2226562 0.175781,0.3398437 0.363281,0.3398437 0.269532,0 0.550782,-0.2109375 0.550782,-0.5976562 0,-0.4570313 -0.457032,-0.6796875 -0.867188,-0.6796875 -0.339844,0 -0.960937,0.1757812 -1.265625,1.1601562 -0.05859,0.2109375 -0.08203,0.3164063 -0.328125,1.5703125 h -0.679687 c -0.199219,0 -0.304688,0 -0.304688,0.1875 0,0.1171875 0.09375,0.1171875 0.28125,0.1171875 h 0.65625 l -0.75,3.93750002 c -0.175781,0.9609375 -0.339844,1.87499998 -0.867187,1.87499998 -0.03516,0 -0.28125,0 -0.46875,-0.1875 0.457031,-0.023437 0.539062,-0.3867187 0.539062,-0.5390625 0,-0.22265623 -0.175781,-0.33984373 -0.363281,-0.33984373 -0.257813,0 -0.550781,0.2109375 -0.550781,0.59765623 0,0.4453125 0.433593,0.6796875 0.84375,0.6796875 0.550781,0 0.949218,-0.5859375 1.125,-0.9609375 0.328125,-0.63281248 0.550781,-1.83984373 0.5625,-1.91015623 z m 0,0"
         style="fill:#0000ff;fill-opacity:0.5;fill-rule:nonzero;stroke:none" />
      <path
         id="path24"
         d="m 30.98375,2.3908906 c 0,-0.035156 0,-0.046875 -0.164063,-0.2226562 -1.242187,-1.25390628 -1.570312,-3.12890628 -1.570312,-4.6640625 0,-1.7226563 0.386719,-3.4570313 1.605469,-4.7109375 0.128906,-0.1171875 0.128906,-0.1289063 0.128906,-0.1640625 0,-0.070312 -0.03516,-0.1054688 -0.09375,-0.1054688 -0.105469,0 -0.996094,0.6796875 -1.582031,1.9453125 -0.515625,1.1015625 -0.632813,2.203125 -0.632813,3.0351563 0,0.7851562 0.117188,1.99218747 0.65625,3.11718747 0.597656,1.21875003 1.453125,1.87500003 1.558594,1.87500003 0.05859,0 0.09375,-0.035156 0.09375,-0.1054688 z m 0,0"
         style="fill:#0000ff;fill-opacity:0.5;fill-rule:nonzero;stroke:none" />
      <path
         id="path25"
         d="m 38.129258,-2.2966094 c 0.175781,0 0.351562,0 0.351562,-0.1992187 0,-0.1992188 -0.175781,-0.1992188 -0.351562,-0.1992188 h -5.390625 c -0.164063,0 -0.339844,0 -0.339844,0.1992188 0,0.1992187 0.175781,0.1992187 0.339844,0.1992187 z m 0,0"
         style="fill:#0000ff;fill-opacity:0.5;fill-rule:nonzero;stroke:none" />
      <path
         id="path26"
         d="m 42.643906,-3.0114531 c 0.05859,-0.2578125 0.292969,-1.171875 0.984375,-1.171875 0.04687,0 0.292969,0 0.503906,0.1289062 -0.28125,0.046875 -0.480468,0.3046875 -0.480468,0.5390625 0,0.1640625 0.105468,0.3515625 0.375,0.3515625 0.222656,0 0.539062,-0.1875 0.539062,-0.5859375 0,-0.515625 -0.585937,-0.65625 -0.925781,-0.65625 -0.574219,0 -0.925781,0.5273438 -1.042969,0.7617188 -0.257812,-0.65625 -0.785156,-0.7617188 -1.078125,-0.7617188 -1.042969,0 -1.605469,1.2890625 -1.605469,1.5351563 0,0.1054687 0.105469,0.1054687 0.117188,0.1054687 0.08203,0 0.117187,-0.023437 0.128906,-0.1171875 0.339844,-1.0546875 0.996094,-1.3007812 1.335938,-1.3007812 0.1875,0 0.539062,0.09375 0.539062,0.6679687 0,0.3046875 -0.164062,0.9726563 -0.539062,2.3671875 -0.152344,0.62109377 -0.503907,1.04296877 -0.949219,1.04296877 -0.05859,0 -0.28125,0 -0.492188,-0.12890625 0.246094,-0.0585937 0.46875,-0.26953125 0.46875,-0.5390625 0,-0.26953122 -0.222656,-0.35156252 -0.375,-0.35156252 -0.292968,0 -0.539062,0.25781252 -0.539062,0.57421877 0,0.45703125 0.492187,0.65625 0.9375,0.65625 0.65625,0 1.007812,-0.69140625 1.042969,-0.75 0.117187,0.36328125 0.480468,0.75 1.078125,0.75 1.019531,0 1.59375,-1.27734377 1.59375,-1.53515627 0,-0.09375 -0.09375,-0.09375 -0.128907,-0.09375 -0.08203,0 -0.105468,0.035156 -0.128906,0.1054688 -0.328125,1.06640622 -0.996094,1.31249997 -1.324219,1.31249997 -0.386718,0 -0.539062,-0.328125 -0.539062,-0.65625 0,-0.22265625 0.05859,-0.44531247 0.164062,-0.87890627 z m 0,0"
         style="fill:#0000ff;fill-opacity:0.5;fill-rule:nonzero;stroke:none" />
      <path
         id="path27"
         d="m 47.890977,-2.4958281 c 0,-0.7734375 -0.117188,-1.9804688 -0.65625,-3.1054688 -0.597657,-1.21875 -1.464844,-1.875 -1.558594,-1.875 -0.05859,0 -0.105469,0.046875 -0.105469,0.1054688 0,0.035156 0,0.046875 0.199219,0.234375 0.972656,0.984375 1.535156,2.5664062 1.535156,4.640625 0,1.71093747 -0.363281,3.45703122 -1.59375,4.7226562 -0.140625,0.1171875 -0.140625,0.1289063 -0.140625,0.1640625 0,0.058594 0.04687,0.1054688 0.105469,0.1054688 0.09375,0 0.996094,-0.6796875 1.582031,-1.94531253 0.503906,-1.1015625 0.632813,-2.20312497 0.632813,-3.04687497 z m 3.875976,0 c 0,-0.7734375 -0.117187,-1.9804688 -0.65625,-3.1054688 -0.597656,-1.21875 -1.464844,-1.875 -1.558594,-1.875 -0.05859,0 -0.105468,0.046875 -0.105468,0.1054688 0,0.035156 0,0.046875 0.199218,0.234375 0.972657,0.984375 1.535157,2.5664062 1.535157,4.640625 0,1.71093747 -0.363282,3.45703122 -1.59375,4.7226562 -0.140625,0.1171875 -0.140625,0.1289063 -0.140625,0.1640625 0,0.058594 0.04687,0.1054688 0.105468,0.1054688 0.09375,0 0.996094,-0.6796875 1.582032,-1.94531253 0.503906,-1.1015625 0.632812,-2.20312497 0.632812,-3.04687497 z m 0,0"
         style="fill:#0000ff;fill-opacity:0.5;fill-rule:nonzero;stroke:none" />
    </g>
    <g
       id="g27"
       aria-label="(x,f(x))"
       transform="matrix(1.3333333,0,0,1.3333333,305.33333,157.92933)"
       clip-path="url(#clipPath34)">
      <path
         id="path28"
         d="m 3.2919922,2.3908906 c 0,-0.035156 0,-0.046875 -0.1640625,-0.2226562 -1.2421875,-1.25390628 -1.5703125,-3.12890628 -1.5703125,-4.6640625 0,-1.7226563 0.3867187,-3.4570313 1.6054687,-4.7109375 0.1289063,-0.1171875 0.1289063,-0.1289063 0.1289063,-0.1640625 0,-0.070312 -0.035156,-0.1054688 -0.09375,-0.1054688 -0.1054688,0 -0.9960938,0.6796875 -1.5820313,1.9453125 -0.515625,1.1015625 -0.63281246,2.203125 -0.63281246,3.0351563 0,0.7851562 0.11718746,1.99218747 0.65624996,3.11718747 0.5976563,1.21875003 1.453125,1.87500003 1.5585938,1.87500003 0.058594,0 0.09375,-0.035156 0.09375,-0.1054688 z m 0,0"
         style="fill:#0000ff;fill-opacity:0.5;fill-rule:nonzero;stroke:none" />
      <path
         id="path29"
         d="m 7.203125,-3.0114531 c 0.058594,-0.2578125 0.2929687,-1.171875 0.984375,-1.171875 0.046875,0 0.2929687,0 0.5039062,0.1289062 -0.28125,0.046875 -0.4804687,0.3046875 -0.4804687,0.5390625 0,0.1640625 0.1054687,0.3515625 0.375,0.3515625 0.2226562,0 0.5390625,-0.1875 0.5390625,-0.5859375 0,-0.515625 -0.5859375,-0.65625 -0.9257813,-0.65625 -0.5742187,0 -0.9257812,0.5273438 -1.0429687,0.7617188 -0.2578125,-0.65625 -0.7851563,-0.7617188 -1.078125,-0.7617188 -1.0429688,0 -1.6054688,1.2890625 -1.6054688,1.5351563 0,0.1054687 0.1054688,0.1054687 0.1171875,0.1054687 0.082031,0 0.1171875,-0.023437 0.1289063,-0.1171875 0.3398437,-1.0546875 0.9960937,-1.3007812 1.3359375,-1.3007812 0.1875,0 0.5390625,0.09375 0.5390625,0.6679687 0,0.3046875 -0.1640625,0.9726563 -0.5390625,2.3671875 -0.1523438,0.62109377 -0.5039063,1.04296877 -0.9492188,1.04296877 -0.058594,0 -0.28125,0 -0.4921875,-0.12890625 0.2460938,-0.0585937 0.46875,-0.26953125 0.46875,-0.5390625 0,-0.26953122 -0.2226562,-0.35156252 -0.375,-0.35156252 -0.2929687,0 -0.5390625,0.25781252 -0.5390625,0.57421877 0,0.45703125 0.4921875,0.65625 0.9375,0.65625 0.65625,0 1.0078125,-0.69140625 1.0429688,-0.75 0.1171875,0.36328125 0.4804687,0.75 1.078125,0.75 1.0195312,0 1.59375,-1.27734377 1.59375,-1.53515627 0,-0.09375 -0.09375,-0.09375 -0.1289063,-0.09375 -0.082031,0 -0.1054687,0.035156 -0.1289062,0.1054688 -0.328125,1.06640622 -0.9960938,1.31249997 -1.3242188,1.31249997 -0.3867187,0 -0.5390625,-0.328125 -0.5390625,-0.65625 0,-0.22265625 0.058594,-0.44531247 0.1640625,-0.87890627 z m 4.391602,2.99999997 c 0,-0.65625 -0.257813,-1.04296877 -0.644532,-1.04296877 -0.328125,0 -0.527343,0.24609377 -0.527343,0.52734377 0,0.26953125 0.199218,0.527343755 0.527343,0.527343755 0.117188,0 0.246094,-0.035156255 0.351563,-0.128906255 0.02344,-0.0234375 0.03516,-0.0351563 0.04687,-0.0351563 0.01172,0 0.02344,0.0117188 0.02344,0.15234375 0,0.73828125 -0.351562,1.33593748 -0.679687,1.66406248 -0.105469,0.1054687 -0.105469,0.1289062 -0.105469,0.1640625 0,0.070312 0.04687,0.1054687 0.09375,0.1054687 0.117188,0 0.914063,-0.7617186 0.914063,-1.93359368 z M 17.65625,-3.9841094 h 0.855469 c 0.199218,0 0.304687,0 0.304687,-0.1992187 0,-0.1054688 -0.105469,-0.1054688 -0.269531,-0.1054688 h -0.832031 l 0.210937,-1.1367187 c 0.03516,-0.2109375 0.175781,-0.9140625 0.234375,-1.0429688 0.09375,-0.1875 0.257813,-0.3398437 0.46875,-0.3398437 0.04687,0 0.304688,0 0.492188,0.1875 -0.433594,0.035156 -0.539063,0.3867187 -0.539063,0.5390625 0,0.2226562 0.175781,0.3398437 0.363281,0.3398437 0.269532,0 0.550782,-0.2109375 0.550782,-0.5976562 0,-0.4570313 -0.457032,-0.6796875 -0.867188,-0.6796875 -0.339844,0 -0.960937,0.1757812 -1.265625,1.1601562 -0.05859,0.2109375 -0.08203,0.3164063 -0.328125,1.5703125 h -0.679687 c -0.199219,0 -0.304688,0 -0.304688,0.1875 0,0.1171875 0.09375,0.1171875 0.28125,0.1171875 h 0.65625 l -0.75,3.93750002 C 16.0625,0.91432812 15.898437,1.8283906 15.371094,1.8283906 c -0.03516,0 -0.28125,0 -0.46875,-0.1875 0.457031,-0.023437 0.539062,-0.3867187 0.539062,-0.5390625 0,-0.22265623 -0.175781,-0.33984373 -0.363281,-0.33984373 -0.257813,0 -0.550781,0.2109375 -0.550781,0.59765623 0,0.4453125 0.433593,0.6796875 0.84375,0.6796875 0.550781,0 0.949218,-0.5859375 1.125,-0.9609375 0.328125,-0.63281248 0.550781,-1.83984373 0.5625,-1.91015623 z m 0,0"
         style="fill:#0000ff;fill-opacity:0.5;fill-rule:nonzero;stroke:none" />
      <path
         id="path30"
         d="m 23.237305,2.3908906 c 0,-0.035156 0,-0.046875 -0.164063,-0.2226562 -1.242187,-1.25390628 -1.570312,-3.12890628 -1.570312,-4.6640625 0,-1.7226563 0.386718,-3.4570313 1.605468,-4.7109375 0.128907,-0.1171875 0.128907,-0.1289063 0.128907,-0.1640625 0,-0.070312 -0.03516,-0.1054688 -0.09375,-0.1054688 -0.105469,0 -0.996094,0.6796875 -1.582032,1.9453125 -0.515625,1.1015625 -0.632812,2.203125 -0.632812,3.0351563 0,0.7851562 0.117187,1.99218747 0.65625,3.11718747 0.597656,1.21875003 1.453125,1.87500003 1.558594,1.87500003 0.05859,0 0.09375,-0.035156 0.09375,-0.1054688 z m 0,0"
         style="fill:#0000ff;fill-opacity:0.5;fill-rule:nonzero;stroke:none" />
      <path
         id="path31"
         d="m 27.145508,-3.0114531 c 0.05859,-0.2578125 0.292969,-1.171875 0.984375,-1.171875 0.04687,0 0.292969,0 0.503906,0.1289062 -0.28125,0.046875 -0.480469,0.3046875 -0.480469,0.5390625 0,0.1640625 0.105469,0.3515625 0.375,0.3515625 0.222657,0 0.539063,-0.1875 0.539063,-0.5859375 0,-0.515625 -0.585938,-0.65625 -0.925781,-0.65625 -0.574219,0 -0.925782,0.5273438 -1.042969,0.7617188 -0.257813,-0.65625 -0.785156,-0.7617188 -1.078125,-0.7617188 -1.042969,0 -1.605469,1.2890625 -1.605469,1.5351563 0,0.1054687 0.105469,0.1054687 0.117188,0.1054687 0.08203,0 0.117187,-0.023437 0.128906,-0.1171875 0.339844,-1.0546875 0.996094,-1.3007812 1.335937,-1.3007812 0.1875,0 0.539063,0.09375 0.539063,0.6679687 0,0.3046875 -0.164063,0.9726563 -0.539063,2.3671875 -0.152343,0.62109377 -0.503906,1.04296877 -0.949218,1.04296877 -0.05859,0 -0.28125,0 -0.492188,-0.12890625 0.246094,-0.0585937 0.46875,-0.26953125 0.46875,-0.5390625 0,-0.26953122 -0.222656,-0.35156252 -0.375,-0.35156252 -0.292969,0 -0.539062,0.25781252 -0.539062,0.57421877 0,0.45703125 0.492187,0.65625 0.9375,0.65625 0.65625,0 1.007812,-0.69140625 1.042968,-0.75 0.117188,0.36328125 0.480469,0.75 1.078125,0.75 1.019532,0 1.59375,-1.27734377 1.59375,-1.53515627 0,-0.09375 -0.09375,-0.09375 -0.128906,-0.09375 -0.08203,0 -0.105469,0.035156 -0.128906,0.1054688 -0.328125,1.06640622 -0.996094,1.31249997 -1.324219,1.31249997 -0.386719,0 -0.539062,-0.328125 -0.539062,-0.65625 0,-0.22265625 0.05859,-0.44531247 0.164062,-0.87890627 z m 0,0"
         style="fill:#0000ff;fill-opacity:0.5;fill-rule:nonzero;stroke:none" />
      <path
         id="path32"
         d="m 32.392578,-2.4958281 c 0,-0.7734375 -0.117187,-1.9804688 -0.65625,-3.1054688 -0.597656,-1.21875 -1.464844,-1.875 -1.558594,-1.875 -0.05859,0 -0.105468,0.046875 -0.105468,0.1054688 0,0.035156 0,0.046875 0.199218,0.234375 0.972657,0.984375 1.535157,2.5664062 1.535157,4.640625 0,1.71093747 -0.363282,3.45703122 -1.59375,4.7226562 -0.140625,0.1171875 -0.140625,0.1289063 -0.140625,0.1640625 0,0.058594 0.04687,0.1054688 0.105468,0.1054688 0.09375,0 0.996094,-0.6796875 1.582032,-1.94531253 0.503906,-1.1015625 0.632812,-2.20312497 0.632812,-3.04687497 z m 3.875977,0 c 0,-0.7734375 -0.117188,-1.9804688 -0.65625,-3.1054688 -0.597657,-1.21875 -1.464844,-1.875 -1.558594,-1.875 -0.05859,0 -0.105469,0.046875 -0.105469,0.1054688 0,0.035156 0,0.046875 0.199219,0.234375 0.972656,0.984375 1.535156,2.5664062 1.535156,4.640625 0,1.71093747 -0.363281,3.45703122 -1.59375,4.7226562 -0.140625,0.1171875 -0.140625,0.1289063 -0.140625,0.1640625 0,0.058594 0.04687,0.1054688 0.105469,0.1054688 0.09375,0 0.996094,-0.6796875 1.582031,-1.94531253 0.503906,-1.1015625 0.632813,-2.20312497 0.632813,-3.04687497 z m 0,0"
         style="fill:#0000ff;fill-opacity:0.5;fill-rule:nonzero;stroke:none" />
    </g>
    <path
       id="path33"
       d="M 5.7996953,-6.7723828 H 0.32703906 v 0.3046875 h 0.234375 c 0.77343754,0 0.79687504,0.1171875 0.79687504,0.46875 v 5.22656249 c 0,0.3515625 -0.023437,0.46875 -0.79687504,0.46875 h -0.234375 v 0.3046875 c 0.3515625,-0.03515625 1.12500004,-0.03515625 1.51171874,-0.03515625 0.4101563,0 1.3125,0 1.6757813,0.03515625 v -0.3046875 h -0.328125 c -0.9492188,0 -0.9492188,-0.12890625 -0.9492188,-0.48046875 V -3.2333203 h 0.8554688 c 0.9609375,0 1.0546875,0.3164062 1.0546875,1.1601562 H 4.4051641 V -4.7098828 H 4.1473516 c 0,0.8320312 -0.09375,1.1601562 -1.0546875,1.1601562 H 2.2371953 v -2.5195312 c 0,-0.328125 0.023437,-0.3984375 0.4921875,-0.3984375 h 1.1953125 c 1.4882813,0 1.7460938,0.5625 1.8984375,1.9335937 h 0.2578125 z m 3.7675781,5.98828124 v 0.890625 L 11.00868,0.00105469 v -0.3046875 c -0.703125,0 -0.785157,-0.0703125 -0.785157,-0.5625 V -4.4051953 l -1.4531246,0.1171875 v 0.3046875 c 0.6914063,0 0.7734375,0.070312 0.7734375,0.5625 v 1.7695312 c 0,0.86718754 -0.4804687,1.54687504 -1.2070312,1.54687504 -0.8320313,0 -0.8789063,-0.46875 -0.8789063,-0.99609374 v -3.3046875 l -1.4648437,0.1171875 v 0.3046875 c 0.7851562,0 0.7851562,0.035156 0.7851562,0.9140625 v 1.5 c 0,0.77343749 0,1.67578124 1.5117188,1.67578124 0.5507812,0 0.9960937,-0.26953125 1.2773437,-0.890625 z M 12.312391,-3.4208203 v 2.66015624 c 0,0.45703125 -0.117188,0.45703125 -0.785157,0.45703125 v 0.3046875 c 0.351563,-0.01171875 0.855469,-0.03515625 1.125,-0.03515625 0.257813,0 0.785157,0.0234375 1.113282,0.03515625 v -0.3046875 c -0.65625,0 -0.773438,0 -0.773438,-0.45703125 V -2.5887891 c 0,-1.03125 0.714844,-1.59375 1.347656,-1.59375 0.621094,0 0.738282,0.5390625 0.738282,1.1015625 v 2.32031254 c 0,0.45703125 -0.117188,0.45703125 -0.773438,0.45703125 v 0.3046875 c 0.339844,-0.01171875 0.855469,-0.03515625 1.125,-0.03515625 0.257813,0 0.773438,0.0234375 1.113281,0.03515625 v -0.3046875 c -0.515625,0 -0.773437,0 -0.785156,-0.3046875 V -2.5067578 c 0,-0.8554688 0,-1.171875 -0.304687,-1.5234375 -0.140625,-0.1757813 -0.46875,-0.375 -1.042969,-0.375 -0.726563,0 -1.195313,0.4335937 -1.476563,1.0546875 v -1.0546875 l -1.40625,0.1171875 v 0.3046875 c 0.703125,0 0.785157,0.070312 0.785157,0.5625 z m 5.595703,1.2539062 c 0,-1.6289062 0.820312,-2.0507812 1.347656,-2.0507812 0.09375,0 0.714844,0.011719 1.066406,0.375 -0.410156,0.023437 -0.46875,0.328125 -0.46875,0.4570312 0,0.2578125 0.1875,0.4570313 0.457031,0.4570313 0.257813,0 0.457032,-0.1640625 0.457032,-0.46875 0,-0.6796875 -0.75,-1.0664063 -1.523438,-1.0664063 -1.242187,0 -2.15625,1.078125 -2.15625,2.3085938 0,1.27734374 0.984375,2.26171874 2.144531,2.26171874 1.335938,0 1.652344,-1.19531254 1.652344,-1.28906254 0,-0.1054687 -0.105469,-0.1054687 -0.128906,-0.1054687 -0.09375,0 -0.117188,0.046875 -0.128906,0.1054687 -0.292969,0.92578129 -0.9375,1.04296879 -1.3125,1.04296879 -0.527344,0 -1.40625,-0.421875 -1.40625,-2.02734379 z m 5.024414,-2.2382812 -1.394531,0.1171875 v 0.3046875 c 0.65625,0 0.738281,0.058594 0.738281,0.5507812 v 2.67187504 c 0,0.45703125 -0.105469,0.45703125 -0.773438,0.45703125 v 0.3046875 c 0.316407,-0.01171875 0.855469,-0.03515625 1.101563,-0.03515625 0.339844,0 0.691406,0.0234375 1.03125,0.03515625 v -0.3046875 c -0.65625,0 -0.703125,-0.0585938 -0.703125,-0.4453125 z m 0.04687,-1.734375 c 0,-0.3164063 -0.246094,-0.5273438 -0.527344,-0.5273438 -0.316406,0 -0.527344,0.2695313 -0.527344,0.5273438 0,0.2695312 0.210938,0.5273437 0.527344,0.5273437 0.28125,0 0.527344,-0.1992187 0.527344,-0.5273437 z m 4.702148,-0.1523438 c 0.08203,-0.070312 0.164063,-0.1875 0.164063,-0.3046875 0,-0.1757812 -0.175782,-0.3515625 -0.351563,-0.3515625 -0.152344,0 -0.257812,0.1054688 -0.304687,0.1640625 l -1.195313,1.5234375 0.175781,0.1757813 z m 0.949219,4.1601563 c 0,-1.2773438 -0.996094,-2.3320313 -2.191406,-2.3320313 -1.253907,0 -2.214844,1.0898438 -2.214844,2.3320313 0,1.28906249 1.03125,2.23828124 2.203125,2.23828124 1.207031,0 2.203125,-0.97265625 2.203125,-2.23828124 z m -2.191406,1.99218749 c -0.433594,0 -0.867188,-0.2109375 -1.136719,-0.66796875 -0.257813,-0.43359374 -0.257813,-1.04296874 -0.257813,-1.40625004 0,-0.3867187 0,-0.9257812 0.246094,-1.359375 0.269531,-0.4570312 0.738281,-0.6679687 1.136719,-0.6679687 0.433594,0 0.867187,0.2226562 1.125,0.6445312 0.257812,0.4335938 0.257812,1.0078125 0.257812,1.3828125 0,0.3632813 0,0.9023438 -0.222656,1.33593754 -0.222656,0.4453125 -0.65625,0.73828125 -1.148437,0.73828125 z m 3.585937,-3.28124999 v 2.66015624 c 0,0.45703125 -0.117187,0.45703125 -0.785156,0.45703125 v 0.3046875 c 0.351562,-0.01171875 0.855469,-0.03515625 1.125,-0.03515625 0.257812,0 0.785156,0.0234375 1.113281,0.03515625 v -0.3046875 c -0.65625,0 -0.773437,0 -0.773437,-0.45703125 V -2.5887891 c 0,-1.03125 0.714843,-1.59375 1.347656,-1.59375 0.621094,0 0.738281,0.5390625 0.738281,1.1015625 v 2.32031254 c 0,0.45703125 -0.117187,0.45703125 -0.773437,0.45703125 v 0.3046875 c 0.339843,-0.01171875 0.855468,-0.03515625 1.125,-0.03515625 0.257812,0 0.773437,0.0234375 1.113281,0.03515625 v -0.3046875 c -0.515625,0 -0.773438,0 -0.785156,-0.3046875 V -2.5067578 c 0,-0.8554688 0,-1.171875 -0.304688,-1.5234375 -0.140625,-0.1757813 -0.46875,-0.375 -1.042969,-0.375 -0.726562,0 -1.195312,0.4335937 -1.476562,1.0546875 v -1.0546875 l -1.40625,0.1171875 v 0.3046875 c 0.703125,0 0.785156,0.070312 0.785156,0.5625 z m 9.462891,-0.328125 v -0.65625 l -1.429688,0.1171875 v 0.3046875 c 0.703125,0 0.773438,0.058594 0.773438,0.4921875 v 4.6640625 c 0,0.4570312 -0.105469,0.4570312 -0.773438,0.4570312 v 0.3046875 c 0.339844,-0.011719 0.855469,-0.035156 1.113282,-0.035156 0.269531,0 0.773437,0.023437 1.125,0.035156 V 1.6299609 c -0.667969,0 -0.773438,0 -0.773438,-0.4570312 v -1.75781251 c 0.04687,0.15234375 0.46875,0.69140625 1.21875,0.69140625 1.183594,0 2.226563,-0.97265625 2.226563,-2.26171874 0,-1.265625 -0.972657,-2.25 -2.085938,-2.25 -0.773437,0 -1.195312,0.4453125 -1.394531,0.65625 z m 0.03516,2.6132812 v -2.2148437 c 0.28125,-0.515625 0.773438,-0.796875 1.277344,-0.796875 0.726562,0 1.335937,0.8671875 1.335937,1.9921875 0,1.20703124 -0.691406,2.05078124 -1.429687,2.05078124 -0.398438,0 -0.773438,-0.19921875 -1.042969,-0.609375 -0.140625,-0.2109375 -0.140625,-0.22265625 -0.140625,-0.42187504 z m 7.104492,0.37500004 c 0.03516,0.3984375 0.304688,0.8203125 0.773438,0.8203125 0.210937,0 0.820312,-0.140625 0.820312,-0.94921875 V -1.4403516 h -0.246093 v 0.55078129 c 0,0.5859375 -0.246094,0.64453125 -0.363282,0.64453125 -0.328125,0 -0.363281,-0.45703125 -0.363281,-0.50390625 V -2.7411328 c 0,-0.4101563 0,-0.8085938 -0.363281,-1.171875 -0.386719,-0.3867188 -0.878906,-0.5507813 -1.359375,-0.5507813 -0.820313,0 -1.511719,0.46875 -1.511719,1.125 0,0.3046875 0.199219,0.46875 0.457031,0.46875 0.28125,0 0.46875,-0.1992187 0.46875,-0.4570312 0,-0.1171875 -0.05859,-0.4453125 -0.515625,-0.4570313 0.269532,-0.3515625 0.761719,-0.4570312 1.078125,-0.4570312 0.492188,0 1.054688,0.3867187 1.054688,1.2773437 v 0.3632813 c -0.503906,0.035156 -1.207031,0.058594 -1.828125,0.3632812 -0.75,0.3398438 -0.996094,0.8554688 -0.996094,1.28906254 0,0.80859375 0.960938,1.0546875 1.59375,1.0546875 0.65625,0 1.113281,-0.3984375 1.300781,-0.8671875 z m -0.07031,-1.62890624 v 0.9960937 c 0,0.94921879 -0.714844,1.28906254 -1.160156,1.28906254 -0.492188,0 -0.902344,-0.3515625 -0.902344,-0.85546875 0,-0.53906249 0.421875,-1.37109379 2.0625,-1.42968749 z m 3.398437,-0.9140625 v -1.1015625 l -1.382812,0.1171875 v 0.3046875 c 0.691406,0 0.773437,0.070312 0.773437,0.5625 v 2.66015624 c 0,0.45703125 -0.105468,0.45703125 -0.773437,0.45703125 v 0.3046875 c 0.386719,-0.01171875 0.855469,-0.03515625 1.136719,-0.03515625 0.398437,0 0.867187,0 1.265625,0.03515625 v -0.3046875 H 50.76454 c -0.738281,0 -0.761719,-0.1171875 -0.761719,-0.46875 V -2.3075391 c 0,-0.984375 0.421875,-1.875 1.183594,-1.875 0.05859,0 0.08203,0 0.105469,0.011719 -0.03516,0.011719 -0.234375,0.1289062 -0.234375,0.3867187 0,0.28125 0.210937,0.4335938 0.433594,0.4335938 0.175781,0 0.421875,-0.1289063 0.421875,-0.4453125 0,-0.3164063 -0.304688,-0.609375 -0.726563,-0.609375 -0.738281,0 -1.089844,0.6679687 -1.230469,1.1015623 z m 0,0"
       style="fill:#000000;fill-opacity:1;fill-rule:nonzero;stroke:none"
       aria-label="Funci´onpar"
       transform="matrix(1.3333333,0,0,1.3333333,204.95067,299.94)"
       clip-path="url(#clipPath33)" />
  </g>
</svg>
