<?xml version="1.0" encoding="UTF-8" standalone="no"?>
<!-- Created with Inkscape (http://www.inkscape.org/) -->

<svg
   version="1.1"
   id="svg1"
   width="173.5945"
   height="174.80174"
   viewBox="0 0 173.5945 174.80174"
   sodipodi:docname="1.1-ejemplo-funcion-partes.svg"
   inkscape:version="1.4.2 (f4327f4, 2025-05-13)"
   xmlns:inkscape="http://www.inkscape.org/namespaces/inkscape"
   xmlns:sodipodi="http://sodipodi.sourceforge.net/DTD/sodipodi-0.dtd"
   xmlns="http://www.w3.org/2000/svg"
   xmlns:svg="http://www.w3.org/2000/svg">
  <defs
     id="defs1">
    <clipPath
       clipPathUnits="userSpaceOnUse"
       id="clipPath17">
      <rect
         style="opacity:0;fill:none;stroke-width:0.75"
         id="rect18"
         width="183.44057"
         height="157.81284"
         x="-101.8821"
         y="-74.071617" />
    </clipPath>
    <clipPath
       clipPathUnits="userSpaceOnUse"
       id="clipPath18">
      <rect
         style="opacity:0;fill:none;stroke-width:0.75"
         id="rect19"
         width="183.44057"
         height="157.81284"
         x="-64.148094"
         y="-114.10062"
         transform="scale(1,-1)" />
    </clipPath>
    <clipPath
       clipPathUnits="userSpaceOnUse"
       id="clipPath19">
      <rect
         style="opacity:0;fill:none;stroke-width:0.75"
         id="rect20"
         width="183.44057"
         height="157.81284"
         x="-64.148094"
         y="-114.10062"
         transform="scale(1,-1)" />
    </clipPath>
    <clipPath
       clipPathUnits="userSpaceOnUse"
       id="clipPath20">
      <rect
         style="opacity:0;fill:none;stroke-width:0.75"
         id="rect21"
         width="183.44057"
         height="157.81284"
         x="-64.148094"
         y="-114.10062"
         transform="scale(1,-1)" />
    </clipPath>
    <clipPath
       clipPathUnits="userSpaceOnUse"
       id="clipPath21">
      <rect
         style="opacity:0;fill:none;stroke-width:0.75"
         id="rect22"
         width="183.44057"
         height="157.81284"
         x="-64.148094"
         y="-114.10062"
         transform="scale(1,-1)" />
    </clipPath>
    <clipPath
       clipPathUnits="userSpaceOnUse"
       id="clipPath22">
      <rect
         style="opacity:0;fill:none;stroke-width:0.75"
         id="rect23"
         width="183.44057"
         height="157.81284"
         x="-54.573097"
         y="-16.175615" />
    </clipPath>
    <clipPath
       clipPathUnits="userSpaceOnUse"
       id="clipPath23">
      <rect
         style="opacity:0;fill:none;stroke-width:0.75"
         id="rect24"
         width="183.44057"
         height="157.81284"
         x="-64.148094"
         y="-15.345076"
         transform="matrix(0,-1,-1,0,0,0)" />
    </clipPath>
    <clipPath
       clipPathUnits="userSpaceOnUse"
       id="clipPath24">
      <rect
         style="opacity:0;fill:none;stroke-width:0.75"
         id="rect25"
         width="183.44057"
         height="157.81284"
         x="-64.148094"
         y="-114.10062"
         transform="scale(1,-1)" />
    </clipPath>
    <clipPath
       clipPathUnits="userSpaceOnUse"
       id="clipPath25">
      <rect
         style="opacity:0;fill:none;stroke-width:0.75"
         id="rect26"
         width="183.44057"
         height="157.81284"
         x="-146.0701"
         y="-122.63262" />
    </clipPath>
    <clipPath
       clipPathUnits="userSpaceOnUse"
       id="clipPath26">
      <rect
         style="opacity:0;fill:none;stroke-width:0.75"
         id="rect27"
         width="183.44057"
         height="157.81284"
         x="-148.73024"
         y="-114.10062"
         transform="scale(1,-1)" />
    </clipPath>
    <clipPath
       clipPathUnits="userSpaceOnUse"
       id="clipPath27">
      <rect
         style="opacity:0;fill:none;stroke-width:0.75"
         id="rect28"
         width="183.44057"
         height="157.81284"
         x="-64.148094"
         y="-114.10062"
         transform="scale(1,-1)" />
    </clipPath>
    <clipPath
       clipPathUnits="userSpaceOnUse"
       id="clipPath28">
      <rect
         style="opacity:0;fill:none;stroke-width:0.75"
         id="rect29"
         width="183.44057"
         height="157.81284"
         x="92.731911"
         y="-224.24263"
         transform="scale(1,-1)" />
    </clipPath>
  </defs>
  <sodipodi:namedview
     id="namedview1"
     pagecolor="#ffffff"
     bordercolor="#000000"
     borderopacity="0.25"
     inkscape:showpageshadow="2"
     inkscape:pageopacity="0.0"
     inkscape:pagecheckerboard="0"
     inkscape:deskcolor="#d1d1d1"
     inkscape:zoom="2.2241536"
     inkscape:cx="89.697042"
     inkscape:cy="102.2861"
     inkscape:window-width="1920"
     inkscape:window-height="1009"
     inkscape:window-x="-8"
     inkscape:window-y="-8"
     inkscape:window-maximized="1"
     inkscape:current-layer="g1">
    <inkscape:page
       x="0"
       y="0"
       inkscape:label="3"
       id="page1"
       width="173.5945"
       height="174.80174"
       margin="0"
       bleed="0" />
  </sodipodi:namedview>
  <g
     id="g1"
     inkscape:groupmode="layer"
     inkscape:label="3"
     transform="translate(-152.47974,-78.972655)">
    <path
       id="path2"
       d="M -42.5202,0 H 84.58214"
       style="fill:none;stroke:#000000;stroke-width:0.3985;stroke-linecap:butt;stroke-linejoin:miter;stroke-miterlimit:10;stroke-dasharray:none;stroke-opacity:1"
       transform="matrix(1.3333333,0,0,-1.3333333,209.17333,215.97867)"
       clip-path="url(#clipPath27)" />
    <path
       id="path3"
       d="M -1.19551,1.59401 C -1.09587,0.99626 0,0.09961 0.29886,0 0,-0.09961 -1.09587,-0.99626 -1.19551,-1.59401"
       style="fill:none;stroke:#000000;stroke-width:0.31879;stroke-linecap:round;stroke-linejoin:round;stroke-miterlimit:10;stroke-dasharray:none;stroke-opacity:1"
       transform="matrix(1.3333333,0,0,-1.3333333,321.94952,215.97867)"
       clip-path="url(#clipPath26)" />
    <path
       id="path4"
       d="m 3.6442891,-3.2923672 c 0.070312,-0.28125 0.3164062,-1.2890625 1.078125,-1.2890625 0.058594,0 0.3164062,0 0.5507812,0.140625 -0.3046875,0.058594 -0.5273437,0.328125 -0.5273437,0.5859375 0,0.1757813 0.1171875,0.3867188 0.4101562,0.3867188 0.2460938,0 0.5976563,-0.1992188 0.5976563,-0.6328125 0,-0.5625 -0.6445313,-0.7265625 -1.0195313,-0.7265625 -0.6328125,0 -1.0195312,0.5859375 -1.1484375,0.8320312 -0.2695312,-0.7148437 -0.8554687,-0.8320312 -1.171875,-0.8320312 -1.1367187,0 -1.75781249,1.4179687 -1.75781249,1.6875 0,0.1054687 0.10546875,0.1054687 0.12890625,0.1054687 0.0820313,0 0.1171875,-0.023437 0.140625,-0.1171875 0.37500004,-1.1601562 1.08984374,-1.4296875 1.46484374,-1.4296875 0.2109375,0 0.5859375,0.09375 0.5859375,0.7265625 0,0.3398438 -0.1875,1.078125 -0.5859375,2.6015625 -0.1757812,0.67968751 -0.5625,1.13671876 -1.0429687,1.13671876 -0.058594,0 -0.3164063,0 -0.53906254,-0.140625 0.26953124,-0.0585938 0.51562504,-0.29296875 0.51562504,-0.59765625 0,-0.29296871 -0.2460938,-0.37500001 -0.41015629,-0.37500001 -0.328125,0 -0.59765625,0.28125001 -0.59765625,0.63281251 0,0.50390625 0.55078125,0.71484375 1.03125004,0.71484375 0.7148437,0 1.1015625,-0.76171875 1.1367187,-0.83203125 0.1289063,0.41015625 0.5273438,0.83203125 1.1835938,0.83203125 1.125,0 1.7460937,-1.40624996 1.7460937,-1.67578126 0,-0.1054687 -0.1054687,-0.1054687 -0.1289062,-0.1054687 -0.1054688,0 -0.1289063,0.035156 -0.140625,0.1171875 -0.3632813,1.16015621 -1.1132813,1.42968746 -1.453125,1.42968746 -0.4335938,0 -0.609375,-0.3515625 -0.609375,-0.7265625 0,-0.23437496 0.070312,-0.48046876 0.1875,-0.96093746 z m 0,0"
       style="fill:#000000;fill-opacity:1;fill-rule:nonzero;stroke:none"
       aria-label="x"
       transform="matrix(1.3333333,0,0,1.3333333,318.40267,227.35467)"
       clip-path="url(#clipPath25)" />
    <path
       id="path5"
       d="M 0,-28.3468 V 98.75554"
       style="fill:none;stroke:#000000;stroke-width:0.3985;stroke-linecap:butt;stroke-linejoin:miter;stroke-miterlimit:10;stroke-dasharray:none;stroke-opacity:1"
       transform="matrix(1.3333333,0,0,-1.3333333,209.17333,215.97867)"
       clip-path="url(#clipPath24)" />
    <path
       id="path6"
       d="M -1.19551,1.59401 C -1.09587,0.99626 0,0.09961 0.29886,0 0,-0.09961 -1.09587,-0.99626 -1.19551,-1.59401"
       style="fill:none;stroke:#000000;stroke-width:0.31879;stroke-linecap:round;stroke-linejoin:round;stroke-miterlimit:10;stroke-dasharray:none;stroke-opacity:1"
       transform="matrix(0,-1.3333333,-1.3333333,0,209.17333,84.304613)"
       clip-path="url(#clipPath23)" />
    <path
       id="path7"
       d="m 5.2965625,-4.1615391 c 0.046875,-0.1523437 0.046875,-0.1757812 0.046875,-0.2460937 0,-0.1992188 -0.1523438,-0.2929688 -0.3164063,-0.2929688 -0.1054687,0 -0.28125,0.058594 -0.375,0.2226563 -0.023437,0.058594 -0.1171875,0.3984375 -0.1523437,0.5976562 -0.082031,0.28125 -0.1523438,0.5742188 -0.2226563,0.8671875 l -0.4921875,1.96875 c -0.046875,0.16406254 -0.515625,0.92578129 -1.2304687,0.92578129 -0.5625,0 -0.6796875,-0.48046875 -0.6796875,-0.89062499 0,-0.4921875 0.1875,-1.171875 0.5625,-2.1328125 0.1757812,-0.4453125 0.2109375,-0.5742188 0.2109375,-0.7851563 0,-0.4921875 -0.3515625,-0.9023437 -0.890625,-0.9023437 -1.04296875,0 -1.44140625,1.5820312 -1.44140625,1.6875 0,0.1054687 0.10546875,0.1054687 0.12890625,0.1054687 0.10546875,0 0.1171875,-0.023437 0.17578125,-0.1992187 C 0.91375,-4.2552891 1.3473437,-4.5834141 1.7223437,-4.5834141 c 0.09375,0 0.2695313,0 0.2695313,0.3515625 0,0.2695313 -0.1054688,0.5507813 -0.1757813,0.7617188 -0.4453125,1.1601562 -0.6328125,1.78125 -0.6328125,2.2851562 0,0.97265629 0.6796875,1.30078129 1.3242188,1.30078129 0.421875,0 0.796875,-0.1875 1.1015625,-0.4921875 -0.140625,0.57421875 -0.2695313,1.1015625 -0.703125,1.68750001 -0.2929688,0.3632812 -0.703125,0.6796875 -1.2070313,0.6796875 -0.1523437,0 -0.6445312,-0.023437 -0.8320312,-0.4570313 0.1757812,0 0.3164062,0 0.4804687,-0.1289062 0.1054688,-0.09375 0.2109375,-0.234375 0.2109375,-0.44531251 0,-0.33984375 -0.2929687,-0.38671875 -0.3984375,-0.38671875 -0.25781245,0 -0.60937495,0.17578125 -0.60937495,0.71484376 0,0.5390625 0.48046875,0.9492187 1.14843745,0.9492187 1.125,0 2.25,-0.9960937 2.5546875,-2.22656246 z m 0,0"
       style="fill:#000000;fill-opacity:1;fill-rule:nonzero;stroke:none"
       aria-label="y"
       transform="matrix(1.3333333,0,0,1.3333333,196.40667,85.412)"
       clip-path="url(#clipPath22)" />
    <path
       id="path8"
       d="m -28.3468,42.5202 c 0,0 0.31018,-0.31016 0.4293,-0.42929 0.11913,-0.11912 0.31017,-0.31018 0.4293,-0.42931 0.11912,-0.11912 0.31018,-0.31016 0.4293,-0.42928 0.11911,-0.11913 0.31017,-0.31017 0.42928,-0.4293 0.11912,-0.11911 0.31016,-0.31018 0.42929,-0.4293 0.11913,-0.11911 0.31018,-0.31017 0.4293,-0.42928 0.11913,-0.11912 0.31017,-0.31016 0.42929,-0.42929 0.11913,-0.11912 0.31017,-0.31018 0.42929,-0.4293 0.11913,-0.11913 0.31019,-0.31017 0.42931,-0.42929 0.11913,-0.11913 0.31017,-0.31017 0.42929,-0.4293 0.11911,-0.11912 0.31017,-0.31018 0.42928,-0.4293 0.11912,-0.11911 0.31018,-0.31016 0.4293,-0.42929 0.11913,-0.11911 0.31017,-0.31018 0.42929,-0.42929 0.11913,-0.11913 0.31017,-0.31017 0.42929,-0.42929 0.11913,-0.11913 0.31019,-0.31017 0.42931,-0.42929 0.11913,-0.11913 0.31017,-0.31019 0.42929,-0.42931 0.11913,-0.11913 0.31017,-0.31017 0.42929,-0.42929 0.11911,-0.11913 0.31018,-0.31017 0.4293,-0.42929 0.11912,-0.11913 0.31016,-0.31018 0.42928,-0.42931 0.11913,-0.11911 0.31017,-0.31016 0.42929,-0.42927 0.11913,-0.11913 0.31019,-0.31017 0.42931,-0.42929 0.11912,-0.11913 0.31017,-0.31019 0.42929,-0.42931 0.11913,-0.11913 0.31018,-0.31017 0.42931,-0.42929 0.11912,-0.11913 0.31016,-0.31017 0.42929,-0.42929 0.11911,-0.11913 0.31016,-0.31018 0.42927,-0.42931 0.11913,-0.11912 0.3102,-0.31016 0.42931,-0.42929 0.11913,-0.11911 0.31017,-0.31016 0.42929,-0.42927 0.11913,-0.11913 0.31016,-0.31018 0.42929,-0.42931 0.11913,-0.11913 0.31018,-0.31017 0.42931,-0.42929 0.11912,-0.11913 0.31016,-0.31017 0.42929,-0.42929 0.11912,-0.11913 0.31017,-0.31019 0.42929,-0.42931 0.11911,-0.11912 0.31018,-0.31016 0.4293,-0.42929 0.11912,-0.11912 0.31017,-0.31016 0.42928,-0.42929 0.11913,-0.11911 0.31017,-0.31018 0.42929,-0.42929 0.11913,-0.11913 0.31018,-0.31018 0.42931,-0.42929 0.11912,-0.11912 0.31016,-0.31018 0.42929,-0.42931 0.11912,-0.11912 0.31016,-0.31016 0.42929,-0.42929 0.11912,-0.11912 0.31018,-0.31016 0.4293,-0.42929 0.11913,-0.11913 0.31017,-0.31018 0.4293,-0.4293 0.11911,-0.11913 0.31016,-0.31017 0.42927,-0.4293 0.11913,-0.11911 0.31018,-0.31016 0.42931,-0.42927 0.11912,-0.11913 0.31016,-0.3102 0.42929,-0.42931 0.11912,-0.11912 0.31016,-0.31016 0.42929,-0.42929 0.11912,-0.11912 0.31018,-0.31016 0.4293,-0.42929 0.11913,-0.11912 0.31017,-0.31018 0.4293,-0.4293 0.11912,-0.11913 0.31018,-0.31017 0.4293,-0.4293 0.11911,-0.11912 0.31016,-0.31016 0.42928,-0.42929 0.11912,-0.11911 0.31016,-0.31018 0.42929,-0.4293 0.11912,-0.11911 0.31018,-0.31017 0.4293,-0.42928 0.11913,-0.11912 0.31017,-0.31016 0.42929,-0.42929 0.11913,-0.11912 0.31017,-0.31018 0.4293,-0.42931 0.11912,-0.11912 0.31018,-0.31016 0.4293,-0.42929 0.11913,-0.11912 0.31017,-0.31016 0.42929,-0.42929 0.11911,-0.11912 0.31017,-0.31018 0.42928,-0.4293 0.11913,-0.11912 0.31018,-0.31017 0.4293,-0.42929 0.11913,-0.11911 0.31017,-0.31017 0.42929,-0.42928 0.11913,-0.11912 0.31017,-0.31018 0.4293,-0.4293 0.11912,-0.11913 0.31018,-0.31017 0.4293,-0.4293 0.11913,-0.11912 0.31017,-0.31018 0.42929,-0.4293 0.11913,-0.11913 0.31017,-0.31017 0.42929,-0.42929 0.11911,-0.11913 0.31018,-0.31016 0.42929,-0.42929 0.11913,-0.11913 0.31018,-0.31018 0.42929,-0.42931 0.11913,-0.11911 0.31017,-0.31016 0.4293,-0.42927 0.11912,-0.11913 0.31018,-0.31017 0.4293,-0.42929 0.11913,-0.11913 0.31017,-0.31019 0.42929,-0.42931 0.11913,-0.11913 0.31017,-0.31017 0.42929,-0.42929 C 0.10571,14.06767 0.29675,13.87663 0.41588,13.7575 0.53499,13.63838 0.72604,13.44733 0.84517,13.3282 0.96428,13.20908 1.15535,13.01804 1.27446,12.89891 1.39359,12.7798 1.58463,12.58875 1.70375,12.46964 1.82288,12.35051 2.01392,12.15945 2.13304,12.04033 2.25217,11.9212 2.44322,11.73016 2.56235,11.61104 2.68147,11.49191 2.87251,11.30087 2.99164,11.18175 3.11076,11.06262 3.3018,10.87157 3.42093,10.75244 3.54004,10.63332 3.73111,10.44228 3.85023,10.32315 3.96935,10.20403 4.1604,10.01299 4.27951,9.89386 4.39864,9.77475 4.58968,9.58368 4.7088,9.46457 4.82793,9.34544 5.01898,9.15439 5.1381,9.03528 5.25723,8.91615 5.44827,8.72511 5.5674,8.60599 5.68652,8.48686 5.87756,8.2958 5.99669,8.17668 6.11581,8.05756 6.30687,7.86652 6.426,7.74739 6.54512,7.62827 6.73616,7.43721 6.85529,7.31808 6.9744,7.19896 7.16545,7.00792 7.28456,6.8888 7.40369,6.76968 7.59474,6.57863 7.71387,6.4595 7.833,6.3404 8.02403,6.14932 8.14316,6.03021 8.26228,5.91109 8.45332,5.72005 8.57245,5.60092 8.69157,5.4818 8.88263,5.29076 9.00175,5.17163 9.12088,5.0525 9.31192,4.86145 9.43105,4.74232 9.55017,4.6232 9.74121,4.43216 9.86034,4.31303 9.97945,4.19391 10.17052,4.00287 10.28963,3.88374 10.40875,3.76462 10.5998,3.57356 10.71892,3.45444 10.83804,3.33533 11.0291,3.14427 11.14822,3.02516 11.26735,2.90604 11.45839,2.715 11.57751,2.59587 11.69664,2.47675 11.88768,2.28569 12.0068,2.16656 12.12593,2.04744 12.31699,1.8564 12.43611,1.73727 12.55524,1.61815 12.74628,1.42711 12.8654,1.30798 12.98451,1.18886 13.17557,0.9978 13.29468,0.87868 13.4138,0.75955 13.60487,0.56851 13.72398,0.44939 13.84311,0.33028 14.15327,0.02011 14.15327,0.02011"
       style="fill:none;stroke:#eb0a36;stroke-width:0.79701;stroke-linecap:butt;stroke-linejoin:miter;stroke-miterlimit:10;stroke-dasharray:none;stroke-opacity:1"
       transform="matrix(1.3333333,0,0,-1.3333333,209.17333,215.97867)"
       clip-path="url(#clipPath21)" />
    <path
       id="path9"
       d="m 14.17339,14.17339 c 0,0 0.15501,0.31146 0.21455,0.43232 0.05952,0.12087 0.155,0.31615 0.21452,0.43882 0.05954,0.12266 0.15502,0.32081 0.21456,0.44529 0.05952,0.12445 0.155,0.32552 0.21452,0.45178 0.05954,0.12627 0.15501,0.3302 0.21456,0.45827 0.05952,0.12808 0.155,0.3349 0.21452,0.46477 0.05952,0.12986 0.15501,0.33956 0.21454,0.47125 0.05954,0.13169 0.15501,0.34445 0.21454,0.47797 0.05952,0.13348 0.15501,0.34894 0.21453,0.48421 0.05954,0.13526 0.15502,0.35363 0.21456,0.49072 0.05952,0.13705 0.155,0.35829 0.21452,0.49719 0.05954,0.1389 0.15501,0.36321 0.21455,0.50392 0.05953,0.14069 0.155,0.36768 0.21453,0.51018 0.05954,0.14249 0.15501,0.37259 0.21455,0.51688 0.05953,0.1443 0.155,0.37706 0.21452,0.52316 0.05954,0.14608 0.15502,0.38196 0.21456,0.52984 0.05952,0.14791 0.15501,0.38645 0.21454,0.53614 0.05952,0.1497 0.155,0.39132 0.21452,0.54283 0.05954,0.1515 0.15503,0.39581 0.21455,0.54912 0.05953,0.1533 0.155,0.40071 0.21453,0.5558 0.05954,0.1551 0.15501,0.40518 0.21455,0.56209 0.05953,0.15689 0.155,0.41005 0.21452,0.56878 0.05954,0.15874 0.15502,0.41475 0.21456,0.57529 0.05952,0.16052 0.155,0.41945 0.21452,0.58176 0.05954,0.16229 0.15502,0.42392 0.21456,0.58803 0.05952,0.1641 0.15501,0.4288 0.21453,0.59474 0.05954,0.16594 0.155,0.43348 0.21454,0.60122 0.05953,0.16774 0.15502,0.43819 0.21454,0.60771 0.05952,0.16955 0.155,0.44289 0.21454,0.61422 0.05952,0.17134 0.15501,0.44755 0.21454,0.62069 0.05952,0.17313 0.155,0.45224 0.21452,0.62717 0.05954,0.17495 0.15502,0.45694 0.21456,0.63368 0.05952,0.17675 0.15501,0.46161 0.21453,0.64015 0.05954,0.17855 0.155,0.4663 0.21454,0.64664 0.05953,0.18035 0.15502,0.47101 0.21454,0.65314 0.05954,0.18214 0.155,0.47568 0.21454,0.65962 0.05952,0.18393 0.15501,0.48038 0.21454,0.66611 0.05954,0.18574 0.155,0.48504 0.21454,0.67261 0.05952,0.18753 0.15501,0.48971 0.21453,0.67907 0.05955,0.18938 0.155,0.49462 0.21454,0.68578 0.05953,0.19118 0.15502,0.49913 0.21454,0.69208 0.05952,0.19294 0.15502,0.5038 0.21454,0.69854 0.05954,0.19473 0.155,0.50846 0.21454,0.70503 0.05952,0.19657 0.15501,0.51337 0.21454,0.71175 0.05954,0.19837 0.155,0.51784 0.21454,0.71802 0.05952,0.20016 0.15501,0.52273 0.21454,0.7247 0.05954,0.20198 0.15499,0.52723 0.21453,0.73099 0.05953,0.20378 0.15502,0.53212 0.21454,0.7377 0.05954,0.20557 0.155,0.53659 0.21454,0.74396 0.05953,0.20739 0.15501,0.5415 0.21454,0.75068 0.05954,0.20916 0.15501,0.54596 0.21455,0.75693 0.05953,0.21098 0.155,0.55087 0.21452,0.76364 0.05953,0.21279 0.15502,0.55535 0.21455,0.76993 0.05954,0.21457 0.15501,0.56021 0.21453,0.77661 0.05953,0.21642 0.15502,0.56491 0.21454,0.78313 0.05954,0.2182 0.155,0.56961 0.21454,0.78958 0.05953,0.21998 0.15502,0.5741 0.21454,0.79587 0.05954,0.22178 0.15501,0.57899 0.21455,0.8026 0.05953,0.2236 0.155,0.58364 0.21453,0.80905 0.05954,0.2254 0.15501,0.58834 0.21455,0.81555 0.05953,0.2272 0.155,0.59303 0.21452,0.82204 0.05955,0.22901 0.15502,0.59771 0.21456,0.82853 0.05952,0.23081 0.15499,0.60239 0.21452,0.83501 0.05953,0.2326 0.15502,0.60708 0.21455,0.84151 0.05953,0.2344 0.155,0.61177 0.21453,0.84797 0.05952,0.23622 0.15501,0.61647 0.21454,0.85449 0.05954,0.23801 0.15501,0.62116 0.21455,0.86096 0.05953,0.23983 0.155,0.62585 0.21452,0.86747 0.05954,0.24161 0.15502,0.63051 0.21456,0.87393 0.05952,0.24341 0.155,0.63522 0.21452,0.88043 0.05954,0.24523 0.15502,0.63988 0.21455,0.88692 0.05953,0.24704 0.155,0.64479 0.21453,0.89363 0.05954,0.24884 0.15501,0.64928 0.21455,0.8999 0.05953,0.2506 0.155,0.65396 0.21453,0.90638 0.05952,0.25241 0.15501,0.65861 0.21455,0.91287 0.05952,0.25424 0.15501,0.66353 0.21454,0.91957 0.05952,0.25604 0.155,0.668 0.21452,0.92586 0.05954,0.25784 0.15502,0.67289 0.21455,0.93255 0.05953,0.25963 0.155,0.67737 0.21453,0.93881 0.05954,0.26145 0.15501,0.6823 0.21455,0.94553 0.05953,0.26326 0.155,0.68675 0.21453,0.9518 0.05954,0.26505 0.15501,0.69166 0.21455,0.95851 0.05952,0.26684 0.15502,0.69612 0.21454,0.96477 0.05954,0.26864 0.155,0.70103 0.21454,0.97148 0.05952,0.27046 0.15501,0.7055 0.21454,0.97777 0.05953,0.27224 0.155,0.71037 0.21453,0.98445 0.05953,0.27406 0.15502,0.71505 0.21454,0.99093 0.05953,0.27588 0.155,0.71979 0.21453,0.99744 0.05954,0.27765 0.15502,0.72426 0.21455,1.00371 0.05952,0.27945 0.155,0.72912 0.21452,1.0104 0.05954,0.28129 0.15502,0.73383 0.21456,1.01689 0.05952,0.2831 0.15501,0.7385 0.21453,1.0234 0.05954,0.28488 0.155,0.74319 0.21454,1.02986 0.05953,0.28668 0.15502,0.74788 0.21454,1.03638 0.05954,0.28846 0.155,0.75256 0.21454,1.04284 0.05952,0.29029 0.15502,0.75725 0.21454,1.04933 0.05954,0.29209 0.155,0.76195 0.21454,1.05584 0.05952,0.29388 0.15501,0.76661 0.21454,1.0623 0.05952,0.29568 0.21453,1.06882 0.21453,1.06882"
       style="fill:none;stroke:#eb0a36;stroke-width:0.79701;stroke-linecap:butt;stroke-linejoin:miter;stroke-miterlimit:10;stroke-dasharray:none;stroke-opacity:1"
       transform="matrix(1.3333333,0,0,-1.3333333,209.17333,215.97867)"
       clip-path="url(#clipPath20)" />
    <path
       id="path10"
       d="m 15.5908,14.17339 c 0,0.78283 -0.63458,1.41741 -1.41741,1.41741 -0.78283,0 -1.41742,-0.63458 -1.41742,-1.41741 0,-0.78283 0.63459,-1.41742 1.41742,-1.41742 0.78283,0 1.41741,0.63459 1.41741,1.41742 z"
       style="fill:#ffffff;fill-opacity:1;fill-rule:nonzero;stroke:#eb0a36;stroke-width:0.3985;stroke-linecap:butt;stroke-linejoin:miter;stroke-miterlimit:10;stroke-dasharray:none;stroke-opacity:1"
       transform="matrix(1.3333333,0,0,-1.3333333,209.17333,215.97867)"
       clip-path="url(#clipPath19)" />
    <path
       id="path11"
       d="m 15.5908,0 c 0,0.78282 -0.63458,1.4174 -1.41741,1.4174 -0.78283,0 -1.41742,-0.63458 -1.41742,-1.4174 0,-0.78282 0.63459,-1.4174 1.41742,-1.4174 0.78283,0 1.41741,0.63458 1.41741,1.4174 z"
       style="fill:#eb0a36;fill-opacity:1;fill-rule:nonzero;stroke:#eb0a36;stroke-width:0.3985;stroke-linecap:butt;stroke-linejoin:miter;stroke-miterlimit:10;stroke-dasharray:none;stroke-opacity:1"
       transform="matrix(1.3333333,0,0,-1.3333333,209.17333,215.97867)"
       clip-path="url(#clipPath18)" />
    <g
       id="g11"
       aria-label="y=f(x)"
       transform="matrix(1.3333333,0,0,1.3333333,259.48533,162.60667)"
       clip-path="url(#clipPath17)">
      <path
         id="path12"
         d="M 4.839125,-3.7977734 C 4.886,-3.9383984 4.886,-3.9501172 4.886,-4.0204297 c 0,-0.1875 -0.140625,-0.2695312 -0.2929688,-0.2695312 -0.1054687,0 -0.2578125,0.058594 -0.3515625,0.1992187 -0.023437,0.058594 -0.09375,0.3632813 -0.140625,0.5390625 -0.070312,0.2578125 -0.140625,0.5273438 -0.1992187,0.796875 l -0.4453125,1.79296876 c -0.035156,0.15234375 -0.46875,0.85546875 -1.125,0.85546875 -0.5039063,0 -0.6210938,-0.4453125 -0.6210938,-0.80859375 0,-0.45703126 0.1757813,-1.07812496 0.515625,-1.95703126 0.1523438,-0.4101562 0.1992188,-0.515625 0.1992188,-0.7148437 0,-0.4453125 -0.328125,-0.8203125 -0.8203125,-0.8203125 -0.94921875,0 -1.3125,1.453125 -1.3125,1.5351562 0,0.1054688 0.09375,0.1054688 0.1171875,0.1054688 0.09375,0 0.10546875,-0.023437 0.15234375,-0.1875 0.26953125,-0.9375 0.66796875,-1.2304688 1.00781245,-1.2304688 0.082031,0 0.2578125,0 0.2578125,0.3164063 0,0.2460937 -0.1054687,0.515625 -0.1757812,0.703125 -0.3984375,1.0546875 -0.5742188,1.6171875 -0.5742188,2.0859375 0,0.89062496 0.6210938,1.18359371 1.21875,1.18359371 0.3867188,0 0.7265625,-0.1640625 0.9960938,-0.4453125 C 3.1633437,0.17488281 3.0461562,0.66707031 2.6477187,1.1944141 2.3899062,1.5342578 2.0149062,1.8272266 1.557875,1.8272266 c -0.140625,0 -0.59765625,-0.035156 -0.76171875,-0.421875 0.1640625,0 0.29296875,0 0.43359375,-0.1171875 0.09375,-0.09375 0.1992187,-0.2226563 0.1992187,-0.41015629 0,-0.31640625 -0.2695312,-0.3515625 -0.375,-0.3515625 -0.2226562,0 -0.5507812,0.1640625 -0.5507812,0.64453129 0,0.5039062 0.43359375,0.8671875 1.0546875,0.8671875 1.0195312,0 2.0507812,-0.9023438 2.3320312,-2.02734379 z m 0,0"
         style="fill:#eb0a36;fill-opacity:1;fill-rule:nonzero;stroke:none" />
      <path
         id="path13"
         d="m 14.855727,-3.2587109 c 0.152343,0 0.339843,0 0.339843,-0.1992188 0,-0.1992187 -0.1875,-0.1992187 -0.328125,-0.1992187 H 8.9026016 c -0.140625,0 -0.328125,0 -0.328125,0.1992187 0,0.1992188 0.1875,0.1992188 0.3398437,0.1992188 z m 0.01172,1.9335937 c 0.140625,0 0.328125,0 0.328125,-0.1992187 0,-0.1992188 -0.1875,-0.1992188 -0.339843,-0.1992188 H 8.9143203 c -0.1523437,0 -0.3398437,0 -0.3398437,0.1992188 0,0.1992187 0.1875,0.1992187 0.328125,0.1992187 z m 0,0"
         style="fill:#eb0a36;fill-opacity:1;fill-rule:nonzero;stroke:none" />
      <path
         id="path14"
         d="m 22.177016,-3.9852734 h 0.855468 c 0.199219,0 0.304688,0 0.304688,-0.1992188 0,-0.1054687 -0.105469,-0.1054687 -0.269531,-0.1054687 h -0.832032 l 0.210938,-1.1367188 c 0.03516,-0.2109375 0.175781,-0.9140625 0.234375,-1.0429687 0.09375,-0.1875 0.257812,-0.3398438 0.46875,-0.3398438 0.04687,0 0.304687,0 0.492187,0.1875 -0.433593,0.035156 -0.539062,0.3867188 -0.539062,0.5390625 0,0.2226563 0.175781,0.3398438 0.363281,0.3398438 0.269531,0 0.550781,-0.2109375 0.550781,-0.5976563 0,-0.4570312 -0.457031,-0.6796875 -0.867187,-0.6796875 -0.339844,0 -0.960938,0.1757813 -1.265625,1.1601563 -0.05859,0.2109375 -0.08203,0.3164062 -0.328125,1.5703125 h -0.679688 c -0.199218,0 -0.304687,0 -0.304687,0.1875 0,0.1171875 0.09375,0.1171875 0.28125,0.1171875 h 0.65625 l -0.75,3.93749996 c -0.175781,0.9609375 -0.339844,1.87500004 -0.867188,1.87500004 -0.03516,0 -0.28125,0 -0.46875,-0.1875 0.457032,-0.023437 0.539063,-0.3867188 0.539063,-0.5390625 0,-0.22265629 -0.175781,-0.33984379 -0.363281,-0.33984379 -0.257813,0 -0.550782,0.2109375 -0.550782,0.59765629 0,0.4453125 0.433594,0.6796875 0.84375,0.6796875 0.550782,0 0.949219,-0.5859375 1.125,-0.9609375 0.328125,-0.63281254 0.550782,-1.83984379 0.5625,-1.91015629 z m 0,0"
         style="fill:#eb0a36;fill-opacity:1;fill-rule:nonzero;stroke:none" />
      <path
         id="path15"
         d="m 27.766859,2.3897266 c 0,-0.035156 0,-0.046875 -0.164062,-0.2226563 -1.242188,-1.25390624 -1.570313,-3.12890624 -1.570313,-4.6640625 0,-1.7226562 0.386719,-3.4570312 1.605469,-4.7109375 0.128906,-0.1171875 0.128906,-0.1289062 0.128906,-0.1640625 0,-0.070312 -0.03516,-0.1054687 -0.09375,-0.1054687 -0.105468,0 -0.996093,0.6796875 -1.582031,1.9453125 -0.515625,1.1015625 -0.632812,2.203125 -0.632812,3.0351562 0,0.7851563 0.117187,1.99218751 0.65625,3.11718751 0.597656,1.21874999 1.453125,1.87499999 1.558593,1.87499999 0.05859,0 0.09375,-0.035156 0.09375,-0.1054687 z m 0,0"
         style="fill:#eb0a36;fill-opacity:1;fill-rule:nonzero;stroke:none" />
      <path
         id="path16"
         d="m 31.677992,-3.0126172 c 0.05859,-0.2578125 0.292969,-1.171875 0.984375,-1.171875 0.04687,0 0.292969,0 0.503906,0.1289063 -0.28125,0.046875 -0.480468,0.3046875 -0.480468,0.5390625 0,0.1640625 0.105468,0.3515625 0.375,0.3515625 0.222656,0 0.539062,-0.1875 0.539062,-0.5859375 0,-0.515625 -0.585937,-0.65625 -0.925781,-0.65625 -0.574219,0 -0.925781,0.5273437 -1.042969,0.7617187 -0.257812,-0.65625 -0.785156,-0.7617187 -1.078125,-0.7617187 -1.042969,0 -1.605469,1.2890625 -1.605469,1.5351562 0,0.1054688 0.105469,0.1054688 0.117188,0.1054688 0.08203,0 0.117187,-0.023437 0.128906,-0.1171875 0.339844,-1.0546875 0.996094,-1.3007813 1.335938,-1.3007813 0.1875,0 0.539062,0.09375 0.539062,0.6679688 0,0.3046875 -0.164062,0.9726562 -0.539062,2.3671875 -0.152344,0.62109371 -0.503907,1.04296871 -0.949219,1.04296871 -0.05859,0 -0.28125,0 -0.492188,-0.12890625 0.246094,-0.0585938 0.46875,-0.26953125 0.46875,-0.5390625 0,-0.26953126 -0.222656,-0.35156246 -0.375,-0.35156246 -0.292968,0 -0.539062,0.25781246 -0.539062,0.57421871 0,0.45703125 0.492187,0.65625 0.9375,0.65625 0.65625,0 1.007812,-0.69140625 1.042969,-0.75 0.117187,0.36328125 0.480468,0.75 1.078125,0.75 1.019531,0 1.59375,-1.27734371 1.59375,-1.53515621 0,-0.09375 -0.09375,-0.09375 -0.128907,-0.09375 -0.08203,0 -0.105468,0.035156 -0.128906,0.1054687 -0.328125,1.06640626 -0.996094,1.31250001 -1.324219,1.31250001 -0.386718,0 -0.539062,-0.328125 -0.539062,-0.65625 0,-0.22265625 0.05859,-0.44531251 0.164062,-0.87890621 z m 0,0"
         style="fill:#eb0a36;fill-opacity:1;fill-rule:nonzero;stroke:none" />
      <path
         id="path17"
         d="m 36.925062,-2.4969922 c 0,-0.7734375 -0.117187,-1.9804687 -0.65625,-3.1054687 -0.597656,-1.21875 -1.464843,-1.875 -1.558593,-1.875 -0.05859,0 -0.105469,0.046875 -0.105469,0.1054687 0,0.035156 0,0.046875 0.199219,0.234375 0.972656,0.984375 1.535156,2.5664063 1.535156,4.640625 0,1.71093751 -0.363281,3.45703126 -1.59375,4.7226563 -0.140625,0.1171875 -0.140625,0.1289062 -0.140625,0.1640625 0,0.058594 0.04687,0.1054687 0.105469,0.1054687 0.09375,0 0.996093,-0.6796875 1.582031,-1.94531249 0.503906,-1.1015625 0.632812,-2.20312501 0.632812,-3.04687501 z m 0,0"
         style="fill:#eb0a36;fill-opacity:1;fill-rule:nonzero;stroke:none" />
    </g>
  </g>
</svg>
