<?xml version="1.0" encoding="UTF-8" standalone="no"?>
<!-- Created with Inkscape (http://www.inkscape.org/) -->

<svg
   version="1.1"
   id="svg1"
   width="348.56918"
   height="125.90266"
   viewBox="0 0 348.56918 125.90266"
   sodipodi:docname="1.1-ejemplo-recta-parabola.svg"
   inkscape:version="1.4.2 (f4327f4, 2025-05-13)"
   xmlns:inkscape="http://www.inkscape.org/namespaces/inkscape"
   xmlns:sodipodi="http://sodipodi.sourceforge.net/DTD/sodipodi-0.dtd"
   xmlns="http://www.w3.org/2000/svg"
   xmlns:svg="http://www.w3.org/2000/svg">
  <defs
     id="defs1">
    <clipPath
       clipPathUnits="userSpaceOnUse"
       id="clipPath24">
      <rect
         style="opacity:0;fill:none;stroke-width:0.75"
         id="rect25"
         width="290.67239"
         height="126.45261"
         x="-241.76749"
         y="-54.716343" />
    </clipPath>
    <clipPath
       clipPathUnits="userSpaceOnUse"
       id="clipPath25">
      <rect
         style="opacity:0;fill:none;stroke-width:0.75"
         id="rect26"
         width="290.67239"
         height="126.45261"
         x="-210.75848"
         y="-85.645348"
         transform="scale(1,-1)" />
    </clipPath>
    <clipPath
       clipPathUnits="userSpaceOnUse"
       id="clipPath26">
      <rect
         style="opacity:0;fill:none;stroke-width:0.75"
         id="rect27"
         width="290.67239"
         height="126.45261"
         x="-201.18349"
         y="-18.90234" />
    </clipPath>
    <clipPath
       clipPathUnits="userSpaceOnUse"
       id="clipPath27">
      <rect
         style="opacity:0;fill:none;stroke-width:0.75"
         id="rect28"
         width="290.67239"
         height="126.45261"
         x="-210.75848"
         y="-18.07233"
         transform="matrix(0,-1,-1,0,0,0)" />
    </clipPath>
    <clipPath
       clipPathUnits="userSpaceOnUse"
       id="clipPath28">
      <rect
         style="opacity:0;fill:none;stroke-width:0.75"
         id="rect29"
         width="290.67239"
         height="126.45261"
         x="-210.75848"
         y="-85.645348"
         transform="scale(1,-1)" />
    </clipPath>
    <clipPath
       clipPathUnits="userSpaceOnUse"
       id="clipPath29">
      <rect
         style="opacity:0;fill:none;stroke-width:0.75"
         id="rect30"
         width="290.67239"
         height="126.45261"
         x="-264.3335"
         y="-94.177345" />
    </clipPath>
    <clipPath
       clipPathUnits="userSpaceOnUse"
       id="clipPath30">
      <rect
         style="opacity:0;fill:none;stroke-width:0.75"
         id="rect31"
         width="290.67239"
         height="126.45261"
         x="-266.99295"
         y="-85.645348"
         transform="scale(1,-1)" />
    </clipPath>
    <clipPath
       clipPathUnits="userSpaceOnUse"
       id="clipPath31">
      <rect
         style="opacity:0;fill:none;stroke-width:0.75"
         id="rect32"
         width="290.67239"
         height="126.45261"
         x="-210.75848"
         y="-85.645348"
         transform="scale(1,-1)" />
    </clipPath>
    <clipPath
       clipPathUnits="userSpaceOnUse"
       id="clipPath32">
      <rect
         style="opacity:0;fill:none;stroke-width:0.75"
         id="rect33"
         width="290.67239"
         height="126.45261"
         x="-76.188484"
         y="-53.871338" />
    </clipPath>
    <clipPath
       clipPathUnits="userSpaceOnUse"
       id="clipPath33">
      <rect
         style="opacity:0;fill:none;stroke-width:0.75"
         id="rect34"
         width="290.67239"
         height="126.45261"
         x="-42.67548"
         y="-85.645348"
         transform="scale(1,-1)" />
    </clipPath>
    <clipPath
       clipPathUnits="userSpaceOnUse"
       id="clipPath34">
      <rect
         style="opacity:0;fill:none;stroke-width:0.75"
         id="rect35"
         width="290.67239"
         height="126.45261"
         x="-33.100479"
         y="-18.90234" />
    </clipPath>
    <clipPath
       clipPathUnits="userSpaceOnUse"
       id="clipPath35">
      <rect
         style="opacity:0;fill:none;stroke-width:0.75"
         id="rect36"
         width="290.67239"
         height="126.45261"
         x="-42.67548"
         y="-18.07233"
         transform="matrix(0,-1,-1,0,0,0)" />
    </clipPath>
    <clipPath
       clipPathUnits="userSpaceOnUse"
       id="clipPath36">
      <rect
         style="opacity:0;fill:none;stroke-width:0.75"
         id="rect37"
         width="290.67239"
         height="126.45261"
         x="-42.67548"
         y="-85.645348"
         transform="scale(1,-1)" />
    </clipPath>
    <clipPath
       clipPathUnits="userSpaceOnUse"
       id="clipPath37">
      <rect
         style="opacity:0;fill:none;stroke-width:0.75"
         id="rect38"
         width="290.67239"
         height="126.45261"
         x="-96.249481"
         y="-94.177345" />
    </clipPath>
    <clipPath
       clipPathUnits="userSpaceOnUse"
       id="clipPath38">
      <rect
         style="opacity:0;fill:none;stroke-width:0.75"
         id="rect39"
         width="290.67239"
         height="126.45261"
         x="-98.90995"
         y="-85.645348"
         transform="scale(1,-1)" />
    </clipPath>
    <clipPath
       clipPathUnits="userSpaceOnUse"
       id="clipPath39">
      <rect
         style="opacity:0;fill:none;stroke-width:0.75"
         id="rect40"
         width="290.67239"
         height="126.45261"
         x="-42.67548"
         y="-85.645348"
         transform="scale(1,-1)" />
    </clipPath>
    <clipPath
       clipPathUnits="userSpaceOnUse"
       id="clipPath40">
      <rect
         style="opacity:0;fill:none;stroke-width:0.75"
         id="rect41"
         width="290.67239"
         height="126.45261"
         x="35.069523"
         y="-210.75435"
         transform="scale(1,-1)" />
    </clipPath>
  </defs>
  <sodipodi:namedview
     id="namedview1"
     pagecolor="#ffffff"
     bordercolor="#000000"
     borderopacity="0.25"
     inkscape:showpageshadow="2"
     inkscape:pageopacity="0.0"
     inkscape:pagecheckerboard="0"
     inkscape:deskcolor="#d1d1d1"
     inkscape:zoom="2.2241536"
     inkscape:cx="183.66537"
     inkscape:cy="80.704857"
     inkscape:window-width="1920"
     inkscape:window-height="1009"
     inkscape:window-x="-8"
     inkscape:window-y="-8"
     inkscape:window-maximized="1"
     inkscape:current-layer="g1">
    <inkscape:page
       x="0"
       y="0"
       inkscape:label="1"
       id="page1"
       width="348.56918"
       height="125.90266"
       margin="0"
       bleed="0" />
  </sodipodi:namedview>
  <g
     id="g1"
     inkscape:groupmode="layer"
     inkscape:label="1"
     transform="translate(-58.305813,-100.59375)">
    <path
       id="path2"
       d="M -34.01564,0 H 56.23447"
       style="fill:none;stroke:#000000;stroke-width:0.3985;stroke-linecap:butt;stroke-linejoin:miter;stroke-miterlimit:10;stroke-dasharray:none;stroke-opacity:1"
       transform="matrix(1.3333333,0,0,-1.3333333,103.66,196.02267)"
       clip-path="url(#clipPath39)" />
    <path
       id="path3"
       d="M -1.19551,1.59401 C -1.09587,0.99626 0,0.09961 0.29886,0 0,-0.09961 -1.09587,-0.99626 -1.19551,-1.59401"
       style="fill:none;stroke:#000000;stroke-width:0.31879;stroke-linecap:round;stroke-linejoin:round;stroke-miterlimit:10;stroke-dasharray:none;stroke-opacity:1"
       transform="matrix(1.3333333,0,0,-1.3333333,178.63929,196.02267)"
       clip-path="url(#clipPath38)" />
    <path
       id="path4"
       d="m 3.6458438,-3.2931406 c 0.070312,-0.28125 0.3164062,-1.2890625 1.078125,-1.2890625 0.058594,0 0.3164062,0 0.5507812,0.140625 -0.3046875,0.058594 -0.5273437,0.328125 -0.5273437,0.5859375 0,0.1757812 0.1171875,0.3867187 0.4101562,0.3867187 0.2460938,0 0.5976563,-0.1992187 0.5976563,-0.6328125 0,-0.5625 -0.6445313,-0.7265625 -1.0195313,-0.7265625 -0.6328125,0 -1.0195312,0.5859375 -1.1484375,0.8320313 -0.2695312,-0.7148438 -0.8554687,-0.8320313 -1.171875,-0.8320313 -1.1367187,0 -1.7578125,1.4179688 -1.7578125,1.6875 0,0.1054688 0.10546875,0.1054688 0.12890625,0.1054688 0.0820313,0 0.1171875,-0.023437 0.140625,-0.1171875 0.37500005,-1.1601563 1.08984375,-1.4296875 1.46484375,-1.4296875 0.2109375,0 0.5859375,0.09375 0.5859375,0.7265625 0,0.3398437 -0.1875,1.078125 -0.5859375,2.6015625 -0.1757812,0.67968748 -0.5625,1.13671873 -1.0429687,1.13671873 -0.058594,0 -0.3164063,0 -0.53906255,-0.140625 0.26953125,-0.0585938 0.51562505,-0.29296875 0.51562505,-0.59765625 0,-0.29296878 -0.2460938,-0.37499998 -0.4101563,-0.37499998 -0.328125,0 -0.59765625,0.28124998 -0.59765625,0.63281248 0,0.50390625 0.55078125,0.71484375 1.03125005,0.71484375 0.7148437,0 1.1015625,-0.76171875 1.1367187,-0.83203125 0.1289063,0.41015625 0.5273438,0.83203125 1.1835938,0.83203125 1.125,0 1.7460937,-1.40625003 1.7460937,-1.67578123 0,-0.1054688 -0.1054687,-0.1054688 -0.1289062,-0.1054688 -0.1054688,0 -0.1289063,0.035156 -0.140625,0.1171875 -0.3632813,1.16015628 -1.1132813,1.42968753 -1.453125,1.42968753 -0.4335938,0 -0.609375,-0.3515625 -0.609375,-0.7265625 0,-0.23437503 0.070312,-0.48046873 0.1875,-0.96093753 z m 0,0"
       style="fill:#000000;fill-opacity:1;fill-rule:nonzero;stroke:none"
       aria-label="x"
       transform="matrix(1.3333333,0,0,1.3333333,175.092,207.39867)"
       clip-path="url(#clipPath37)" />
    <path
       id="path5"
       d="M 0,-22.6771 V 67.57301"
       style="fill:none;stroke:#000000;stroke-width:0.3985;stroke-linecap:butt;stroke-linejoin:miter;stroke-miterlimit:10;stroke-dasharray:none;stroke-opacity:1"
       transform="matrix(1.3333333,0,0,-1.3333333,103.66,196.02267)"
       clip-path="url(#clipPath36)" />
    <path
       id="path6"
       d="M -1.19551,1.59401 C -1.09587,0.99626 0,0.09961 0.29886,0 0,-0.09961 -1.09587,-0.99626 -1.19551,-1.59401"
       style="fill:none;stroke:#000000;stroke-width:0.31879;stroke-linecap:round;stroke-linejoin:round;stroke-miterlimit:10;stroke-dasharray:none;stroke-opacity:1"
       transform="matrix(0,-1.3333333,-1.3333333,0,103.66,105.92532)"
       clip-path="url(#clipPath35)" />
    <path
       id="path7"
       d="m 5.2977734,-4.1607187 c 0.046875,-0.1523438 0.046875,-0.1757813 0.046875,-0.2460938 0,-0.1992187 -0.1523437,-0.2929687 -0.3164062,-0.2929687 -0.1054688,0 -0.28125,0.058594 -0.375,0.2226562 -0.023437,0.058594 -0.1171875,0.3984375 -0.1523438,0.5976563 -0.082031,0.28125 -0.1523437,0.5742187 -0.2226562,0.8671875 l -0.4921875,1.96875 c -0.046875,0.16406245 -0.515625,0.9257812 -1.2304688,0.9257812 -0.5625,0 -0.6796875,-0.48046875 -0.6796875,-0.890625 0,-0.4921875 0.1875,-1.171875 0.5625,-2.1328125 0.1757813,-0.4453125 0.2109375,-0.5742187 0.2109375,-0.7851562 0,-0.4921875 -0.3515625,-0.9023438 -0.890625,-0.9023438 -1.04296871,0 -1.44140621,1.5820313 -1.44140621,1.6875 0,0.1054688 0.10546875,0.1054688 0.12890625,0.1054688 0.10546875,0 0.1171875,-0.023437 0.17578125,-0.1992188 0.29296875,-1.0195312 0.72656251,-1.3476562 1.10156251,-1.3476562 0.09375,0 0.2695312,0 0.2695312,0.3515625 0,0.2695312 -0.1054687,0.5507812 -0.1757812,0.7617187 -0.4453125,1.1601563 -0.6328125,1.78125 -0.6328125,2.2851563 0,0.9726562 0.6796875,1.3007812 1.3242187,1.3007812 0.421875,0 0.796875,-0.1875 1.1015625,-0.4921875 C 3.4696484,0.19865625 3.3407422,0.726 2.9071484,1.3119375 2.6141797,1.6752188 2.2040234,1.991625 1.7001172,1.991625 c -0.1523438,0 -0.6445313,-0.023437 -0.83203126,-0.4570312 0.17578126,0 0.31640626,0 0.48046876,-0.1289063 0.1054687,-0.09375 0.2109375,-0.234375 0.2109375,-0.4453125 0,-0.33984375 -0.2929688,-0.38671875 -0.3984375,-0.38671875 -0.25781251,0 -0.60937501,0.17578125 -0.60937501,0.71484375 0,0.5390625 0.48046871,0.9492188 1.14843751,0.9492188 1.125,0 2.25,-0.9960938 2.5546875,-2.22656255 z m 0,0"
       style="fill:#000000;fill-opacity:1;fill-rule:nonzero;stroke:none"
       aria-label="y"
       transform="matrix(1.3333333,0,0,1.3333333,90.893333,107.032)"
       clip-path="url(#clipPath34)" />
    <path
       id="path8"
       d="m -5.66925,-22.6771 c 0,0 0.2895,0.57903 0.4007,0.80141 0.11119,0.22239 0.2895,0.57901 0.40069,0.80139 0.11118,0.22239 0.28951,0.57901 0.4007,0.80141 0.11119,0.22237 0.2895,0.57899 0.40068,0.80138 0.1112,0.2224 0.28952,0.57901 0.40071,0.80139 0.11119,0.2224 0.28949,0.57901 0.40069,0.80141 0.1112,0.22236 0.28951,0.57901 0.4007,0.80137 0.11119,0.2224 0.28951,0.57903 0.4007,0.80141 0.11118,0.22238 0.2895,0.57899 0.40071,0.80139 0.11119,0.22238 0.2895,0.57901 0.40069,0.80141 0.11118,0.22236 0.28951,0.57901 0.40068,0.80137 0.1112,0.2224 0.28952,0.57903 0.4007,0.80141 0.1112,0.22238 0.2895,0.579 0.4007,0.80139 0.1112,0.22238 0.28952,0.57901 0.4007,0.80139 0.11117,0.22239 0.28947,0.57901 0.40066,0.8014 0.11119,0.22238 0.2895,0.57902 0.40071,0.80139 0.11119,0.22239 0.28949,0.57901 0.40069,0.8014 0.11118,0.22237 0.28951,0.579 0.4007,0.8014 0.11117,0.22238 0.2895,0.57901 0.40069,0.80139 0.1112,0.22238 0.28949,0.57901 0.4007,0.80139 0.11119,0.2224 0.28951,0.57901 0.4007,0.8014 0.11119,0.22237 0.2895,0.579 0.40069,0.80138 0.11119,0.2224 0.28951,0.57903 0.4007,0.80139 0.1112,0.2224 0.2895,0.57901 0.40069,0.80141 0.11119,0.22237 0.28951,0.57901 0.40071,0.80139 0.11118,0.22238 0.28949,0.57901 0.40069,0.80139 0.11119,0.22239 0.28952,0.57901 0.40069,0.8014 0.11119,0.22239 0.28951,0.57901 0.40071,0.8014 0.11119,0.22237 0.28949,0.57898 0.4007,0.80136 0.11119,0.22237 0.2895,0.57901 0.40069,0.80138 0.11119,0.2224 0.28951,0.57901 0.4007,0.8014 0.11119,0.22239 0.2895,0.579 0.4007,0.8014 0.11118,0.22237 0.2895,0.57901 0.40069,0.80138 0.11119,0.22239 0.28951,0.57902 0.40069,0.8014 0.1112,0.22238 0.2895,0.57901 0.4007,0.80139 0.1112,0.22239 0.2895,0.57901 0.4007,0.80141 0.11119,0.22237 0.2895,0.579 0.4007,0.80138 0.11118,0.22238 0.2895,0.57902 0.4007,0.8014 0.1112,0.22239 0.28951,0.57901 0.4007,0.8014 0.11118,0.22238 0.2895,0.57901 0.4007,0.80139 0.11117,0.22238 0.2895,0.57901 0.40068,0.80139 0.1112,0.22238 0.28952,0.57901 0.40069,0.80139 0.11121,0.2224 0.28951,0.57901 0.40071,0.80141 0.1112,0.22236 0.28949,0.57899 0.4007,0.80137 0.11119,0.2224 0.28951,0.57903 0.4007,0.80139 0.11119,0.2224 0.2895,0.57901 0.40069,0.80141 0.11119,0.22237 0.28951,0.57901 0.4007,0.80141 0.11119,0.22236 0.28952,0.57899 0.40069,0.80138 0.11119,0.22239 0.28952,0.57902 0.4007,0.80139 0.11119,0.22239 0.2895,0.57901 0.40069,0.80141 0.11121,0.22236 0.28951,0.579 0.4007,0.80138 0.11121,0.22239 0.28951,0.57902 0.40071,0.8014 0.11119,0.22238 0.28949,0.57901 0.4007,0.80139 0.11119,0.2224 0.2895,0.57901 0.40069,0.80139 0.11118,0.22238 0.28951,0.57901 0.4007,0.80139 0.11117,0.22238 0.2895,0.57903 0.40068,0.80141 0.11121,0.22238 0.28952,0.57899 0.40071,0.80139 0.11119,0.22238 0.28951,0.57901 0.4007,0.80139 0.11119,0.22238 0.2895,0.57901 0.40069,0.80139 0.11121,0.22238 0.28951,0.57903 0.4007,0.80139 0.1112,0.2224 0.2895,0.57901 0.40071,0.80141 0.11117,0.22237 0.28949,0.579 0.40069,0.80139 0.11118,0.22238 0.28951,0.57901 0.40069,0.80138 0.11118,0.2224 0.28952,0.57902 0.40069,0.8014 0.11119,0.22239 0.28951,0.57902 0.40069,0.80141 0.11121,0.22237 0.28953,0.579 0.40072,0.80139 0.11119,0.22239 0.2895,0.57901 0.40069,0.80138 0.11119,0.2224 0.28951,0.57901 0.4007,0.80141 0.11121,0.22238 0.2895,0.57901 0.40069,0.80139 0.1112,0.22238 0.28951,0.57901 0.4007,0.80139 0.11119,0.22238 0.2895,0.57901 0.4007,0.80139 0.11119,0.2224 0.2895,0.57901 0.4007,0.80139 0.11118,0.22239 0.2895,0.57901 0.40069,0.80141 0.11119,0.22237 0.28951,0.57901 0.40069,0.80138 0.11121,0.22239 0.28952,0.57902 0.40072,0.8014 0.11119,0.2224 0.2895,0.57901 0.40069,0.8014 0.11118,0.22238 0.28951,0.57901 0.4007,0.8014 0.11119,0.22237 0.2895,0.57901 0.40068,0.80138 0.1112,0.2224 0.28952,0.57901 0.40071,0.80141 0.11119,0.22238 0.28949,0.57899 0.40069,0.80139 0.1112,0.22236 0.28951,0.57901 0.4007,0.80138 0.11119,0.22239 0.28951,0.57902 0.4007,0.8014 0.11119,0.22238 0.2895,0.57901 0.40069,0.8014 0.11119,0.22237 0.28952,0.579 0.40071,0.8014 0.11118,0.22237 0.28951,0.57901 0.40068,0.80138 0.11119,0.22239 0.28952,0.57902 0.4007,0.8014 0.11119,0.22238 0.2895,0.57902 0.4007,0.80139 0.11119,0.22239 0.2895,0.57901 0.40071,0.8014 0.11119,0.22238 0.28949,0.57901 0.40069,0.80139 0.11119,0.22238 0.28951,0.57901 0.4007,0.80139 0.11119,0.2224 0.2895,0.57901 0.40069,0.80141 0.11118,0.22236 0.28951,0.57899 0.4007,0.80137 0.11119,0.2224 0.2895,0.57903 0.4007,0.80141 0.11119,0.22238 0.28949,0.57901 0.40069,0.80139 0.11119,0.22238 0.28951,0.57901 0.4007,0.80141 0.11119,0.22236 0.2895,0.57899 0.40069,0.80137 0.11119,0.2224 0.28951,0.57903 0.40071,0.80139 0.11119,0.2224 0.28949,0.57902 0.4007,0.80141 0.11117,0.22237 0.4007,0.80139 0.4007,0.80139"
       style="fill:none;stroke:#eb0a36;stroke-width:0.79701;stroke-linecap:butt;stroke-linejoin:miter;stroke-miterlimit:10;stroke-dasharray:none;stroke-opacity:1"
       transform="matrix(1.3333333,0,0,-1.3333333,103.66,196.02267)"
       clip-path="url(#clipPath33)" />
    <g
       id="g8"
       aria-label="y=2x−1"
       transform="matrix(1.3333333,0,0,1.3333333,148.344,153.65733)"
       clip-path="url(#clipPath32)">
      <path
         id="path9"
         d="m 4.8396563,-3.7976875 c 0.046875,-0.140625 0.046875,-0.1523437 0.046875,-0.2226562 0,-0.1875 -0.140625,-0.2695313 -0.2929688,-0.2695313 -0.1054687,0 -0.2578125,0.058594 -0.3515625,0.1992188 C 4.218563,-4.0320622 4.14825,-3.727375 4.101375,-3.5515937 4.031063,-3.2937812 3.96075,-3.02425 3.9021563,-2.7547187 L 3.4568438,-0.96175 c -0.035156,0.15234375 -0.46875,0.85546875 -1.125,0.85546875 -0.5039063,0 -0.6210938,-0.4453125 -0.6210938,-0.80859375 0,-0.4570312 0.1757813,-1.078125 0.515625,-1.9570312 0.1523438,-0.4101563 0.1992188,-0.515625 0.1992188,-0.7148438 0,-0.4453125 -0.328125,-0.8203125 -0.8203125,-0.8203125 -0.9492188,0 -1.31250005,1.453125 -1.31250005,1.5351563 0,0.1054687 0.09375,0.1054687 0.1171875,0.1054687 0.09375,0 0.10546875,-0.023437 0.15234375,-0.1875 0.26953125,-0.9375 0.6679688,-1.2304687 1.0078125,-1.2304687 0.082031,0 0.2578125,0 0.2578125,0.3164062 0,0.2460938 -0.1054687,0.515625 -0.1757812,0.703125 -0.3984375,1.0546875 -0.5742188,1.6171875 -0.5742188,2.0859375 0,0.890625 0.6210938,1.18359375 1.21875,1.18359375 0.3867188,0 0.7265625,-0.1640625 0.9960938,-0.4453125 C 3.163875,0.17496875 3.0466875,0.66715625 2.64825,1.1945 2.3904375,1.5343438 2.0154375,1.8273125 1.5584063,1.8273125 c -0.140625,0 -0.5976563,-0.035156 -0.7617188,-0.421875 0.1640625,0 0.2929688,0 0.4335938,-0.1171875 C 1.3240313,1.1945 1.4295,1.0655938 1.4295,0.87809375 c 0,-0.31640625 -0.2695312,-0.3515625 -0.375,-0.3515625 -0.22265625,0 -0.55078125,0.1640625 -0.55078125,0.64453125 0,0.5039063 0.43359375,0.8671875 1.05468755,0.8671875 1.0195312,0 2.0507812,-0.9023437 2.3320312,-2.02734375 z m 0,0"
         style="fill:#eb0a36;fill-opacity:1;fill-rule:nonzero;stroke:none" />
      <path
         id="path10"
         d="m 14.856258,-3.258625 c 0.152344,0 0.339844,0 0.339844,-0.1992187 0,-0.1992188 -0.1875,-0.1992188 -0.328125,-0.1992188 H 8.9031328 c -0.140625,0 -0.328125,0 -0.328125,0.1992188 0,0.1992187 0.1875,0.1992187 0.3398438,0.1992187 z m 0.01172,1.9335938 c 0.140625,0 0.328125,0 0.328125,-0.1992188 0,-0.1992187 -0.1875,-0.1992187 -0.339844,-0.1992187 H 8.9148516 c -0.1523438,0 -0.3398438,0 -0.3398438,0.1992187 0,0.1992188 0.1875,0.1992188 0.328125,0.1992188 z m 4.918945,0.56249995 1.054687,-1.03124995 c 1.558594,-1.3710938 2.15625,-1.9101563 2.15625,-2.90625 0,-1.1367188 -0.902343,-1.9335938 -2.121093,-1.9335938 -1.125,0 -1.851563,0.9140625 -1.851563,1.8046875 0,0.5507813 0.492188,0.5507813 0.527344,0.5507813 0.164062,0 0.515625,-0.1171875 0.515625,-0.5273438 0,-0.2578125 -0.1875,-0.515625 -0.527344,-0.515625 -0.08203,0 -0.105469,0 -0.128906,0.011719 0.222656,-0.6445313 0.761719,-1.0195313 1.335937,-1.0195313 0.914063,0 1.335938,0.8085938 1.335938,1.6289063 0,0.796875 -0.492188,1.5820312 -1.042969,2.203125 l -1.910156,2.13281245 c -0.10547,0.10546855 -0.10547,0.12890605 -0.10547,0.36328105 h 3.691406 l 0.28125,-1.734375 h -0.257812 c -0.04687,0.3046875 -0.117188,0.73828125 -0.210938,0.890625 -0.07031,0.0820313 -0.726562,0.0820313 -0.949218,0.0820313 z m 0,0"
         style="fill:#eb0a36;fill-opacity:1;fill-rule:nonzero;stroke:none" />
      <path
         id="path11"
         d="m 26.829891,-3.0125312 c 0.05859,-0.2578125 0.292968,-1.171875 0.984375,-1.171875 0.04687,0 0.292968,0 0.503906,0.1289062 -0.28125,0.046875 -0.480469,0.3046875 -0.480469,0.5390625 0,0.1640625 0.105469,0.3515625 0.375,0.3515625 0.222656,0 0.539063,-0.1875 0.539063,-0.5859375 0,-0.515625 -0.585938,-0.65625 -0.925782,-0.65625 -0.574218,0 -0.925781,0.5273438 -1.042968,0.7617188 -0.257813,-0.65625 -0.785157,-0.7617188 -1.078125,-0.7617188 -1.042969,0 -1.605469,1.2890625 -1.605469,1.5351563 0,0.1054687 0.105469,0.1054687 0.117187,0.1054687 0.08203,0 0.117188,-0.023437 0.128907,-0.1171875 0.339843,-1.0546875 0.996093,-1.3007812 1.335937,-1.3007812 0.1875,0 0.539063,0.09375 0.539063,0.6679687 0,0.3046875 -0.164063,0.9726563 -0.539063,2.3671875 -0.152344,0.62109375 -0.503906,1.04296875 -0.949219,1.04296875 -0.05859,0 -0.28125,0 -0.492187,-0.12890625 0.246094,-0.0585938 0.46875,-0.26953125 0.46875,-0.5390625 0,-0.2695312 -0.222656,-0.3515625 -0.375,-0.3515625 -0.292969,0 -0.539063,0.2578125 -0.539063,0.57421875 0,0.45703125 0.492188,0.65625 0.9375,0.65625 0.65625,0 1.007813,-0.69140625 1.042969,-0.75 0.117188,0.36328125 0.480469,0.75 1.078125,0.75 1.019531,0 1.59375,-1.27734375 1.59375,-1.53515625 0,-0.09375 -0.09375,-0.09375 -0.128906,-0.09375 -0.08203,0 -0.105469,0.035156 -0.128906,0.1054688 -0.328125,1.0664062 -0.996094,1.31249995 -1.324219,1.31249995 -0.386719,0 -0.539063,-0.328125 -0.539063,-0.65625 0,-0.22265625 0.05859,-0.44531245 0.164063,-0.87890625 z m 0,0"
         style="fill:#eb0a36;fill-opacity:1;fill-rule:nonzero;stroke:none" />
      <path
         id="path12"
         d="m 37.980281,-2.2976875 c 0.175782,0 0.351563,0 0.351563,-0.1992187 0,-0.1992188 -0.175781,-0.1992188 -0.351563,-0.1992188 h -5.390625 c -0.164062,0 -0.339843,0 -0.339843,0.1992188 0,0.1992187 0.175781,0.1992187 0.339843,0.1992187 z m 0,0"
         style="fill:#eb0a36;fill-opacity:1;fill-rule:nonzero;stroke:none" />
      <path
         id="path13"
         d="m 44.308406,-6.3758125 c 0,-0.234375 0,-0.2578125 -0.234375,-0.2578125 -0.609375,0.6328125 -1.488281,0.6328125 -1.804687,0.6328125 v 0.3164063 c 0.199219,0 0.785156,0 1.300781,-0.2578125 v 5.15624995 c 0,0.3515625 -0.03516,0.48046875 -0.925781,0.48046875 h -0.316406 v 0.3046875 c 0.351562,-0.03515625 1.207031,-0.03515625 1.605468,-0.03515625 0.398438,0 1.265625,0 1.617188,0.03515625 V -0.3055 h -0.316406 c -0.902344,0 -0.925782,-0.1171875 -0.925782,-0.48046875 z m 0,0"
         style="fill:#eb0a36;fill-opacity:1;fill-rule:nonzero;stroke:none" />
    </g>
    <path
       id="path14"
       d="M -34.01564,0 H 56.23447"
       style="fill:none;stroke:#000000;stroke-width:0.3985;stroke-linecap:butt;stroke-linejoin:miter;stroke-miterlimit:10;stroke-dasharray:none;stroke-opacity:1"
       transform="matrix(1.3333333,0,0,-1.3333333,327.77067,196.02267)"
       clip-path="url(#clipPath31)" />
    <path
       id="path15"
       d="M -1.19551,1.59401 C -1.09587,0.99626 0,0.09961 0.29886,0 0,-0.09961 -1.09587,-0.99626 -1.19551,-1.59401"
       style="fill:none;stroke:#000000;stroke-width:0.31879;stroke-linecap:round;stroke-linejoin:round;stroke-miterlimit:10;stroke-dasharray:none;stroke-opacity:1"
       transform="matrix(1.3333333,0,0,-1.3333333,402.74996,196.02267)"
       clip-path="url(#clipPath30)" />
    <path
       id="path16"
       d="m 3.643875,-3.2931406 c 0.070312,-0.28125 0.3164062,-1.2890625 1.078125,-1.2890625 0.058594,0 0.3164062,0 0.5507812,0.140625 -0.3046875,0.058594 -0.5273437,0.328125 -0.5273437,0.5859375 0,0.1757812 0.1171875,0.3867187 0.4101562,0.3867187 0.2460938,0 0.5976563,-0.1992187 0.5976563,-0.6328125 0,-0.5625 -0.6445313,-0.7265625 -1.0195313,-0.7265625 -0.6328125,0 -1.0195312,0.5859375 -1.1484375,0.8320313 -0.2695312,-0.7148438 -0.8554687,-0.8320313 -1.171875,-0.8320313 -1.1367187,0 -1.75781245,1.4179688 -1.75781245,1.6875 0,0.1054688 0.10546875,0.1054688 0.12890625,0.1054688 0.0820313,0 0.1171875,-0.023437 0.140625,-0.1171875 0.375,-1.1601563 1.0898437,-1.4296875 1.4648437,-1.4296875 0.2109375,0 0.5859375,0.09375 0.5859375,0.7265625 0,0.3398437 -0.1875,1.078125 -0.5859375,2.6015625 -0.1757812,0.67968748 -0.5625,1.13671873 -1.0429687,1.13671873 -0.058594,0 -0.3164063,0 -0.5390625,-0.140625 0.2695312,-0.0585938 0.515625,-0.29296875 0.515625,-0.59765625 0,-0.29296878 -0.2460938,-0.37499998 -0.41015625,-0.37499998 -0.328125,0 -0.59765625,0.28124998 -0.59765625,0.63281248 0,0.50390625 0.55078125,0.71484375 1.03125,0.71484375 0.7148437,0 1.1015625,-0.76171875 1.1367187,-0.83203125 0.1289063,0.41015625 0.5273438,0.83203125 1.1835938,0.83203125 1.125,0 1.7460937,-1.40625003 1.7460937,-1.67578123 0,-0.1054688 -0.1054687,-0.1054688 -0.1289062,-0.1054688 -0.1054688,0 -0.1289063,0.035156 -0.140625,0.1171875 -0.3632813,1.16015628 -1.1132813,1.42968753 -1.453125,1.42968753 -0.4335938,0 -0.609375,-0.3515625 -0.609375,-0.7265625 0,-0.23437503 0.070312,-0.48046873 0.1875,-0.96093753 z m 0,0"
       style="fill:#000000;fill-opacity:1;fill-rule:nonzero;stroke:none"
       aria-label="x"
       transform="matrix(1.3333333,0,0,1.3333333,399.204,207.39867)"
       clip-path="url(#clipPath29)" />
    <path
       id="path17"
       d="M 0,-22.6771 V 67.57301"
       style="fill:none;stroke:#000000;stroke-width:0.3985;stroke-linecap:butt;stroke-linejoin:miter;stroke-miterlimit:10;stroke-dasharray:none;stroke-opacity:1"
       transform="matrix(1.3333333,0,0,-1.3333333,327.77067,196.02267)"
       clip-path="url(#clipPath28)" />
    <path
       id="path18"
       d="M -1.19551,1.59401 C -1.09587,0.99626 0,0.09961 0.29886,0 0,-0.09961 -1.09587,-0.99626 -1.19551,-1.59401"
       style="fill:none;stroke:#000000;stroke-width:0.31879;stroke-linecap:round;stroke-linejoin:round;stroke-miterlimit:10;stroke-dasharray:none;stroke-opacity:1"
       transform="matrix(0,-1.3333333,-1.3333333,0,327.77067,105.92532)"
       clip-path="url(#clipPath27)" />
    <path
       id="path19"
       d="m 5.2968047,-4.1607187 c 0.046875,-0.1523438 0.046875,-0.1757813 0.046875,-0.2460938 0,-0.1992187 -0.1523438,-0.2929687 -0.3164063,-0.2929687 -0.1054687,0 -0.28125,0.058594 -0.375,0.2226562 -0.023437,0.058594 -0.1171875,0.3984375 -0.1523437,0.5976563 -0.082031,0.28125 -0.1523438,0.5742187 -0.2226563,0.8671875 l -0.4921875,1.96875 c -0.046875,0.16406245 -0.515625,0.9257812 -1.2304687,0.9257812 -0.5625,0 -0.6796875,-0.48046875 -0.6796875,-0.890625 0,-0.4921875 0.1875,-1.171875 0.5625,-2.1328125 0.1757812,-0.4453125 0.2109375,-0.5742187 0.2109375,-0.7851562 0,-0.4921875 -0.3515625,-0.9023438 -0.890625,-0.9023438 -1.04296876,0 -1.44140626,1.5820313 -1.44140626,1.6875 0,0.1054688 0.10546875,0.1054688 0.12890625,0.1054688 0.10546875,0 0.1171875,-0.023437 0.17578125,-0.1992188 0.29296875,-1.0195312 0.72656246,-1.3476562 1.10156246,-1.3476562 0.09375,0 0.2695313,0 0.2695313,0.3515625 0,0.2695312 -0.1054688,0.5507812 -0.1757813,0.7617187 -0.4453125,1.1601563 -0.6328125,1.78125 -0.6328125,2.2851563 0,0.9726562 0.6796875,1.3007812 1.3242188,1.3007812 0.421875,0 0.796875,-0.1875 1.1015625,-0.4921875 C 3.4686797,0.19865625 3.3397734,0.726 2.9061797,1.3119375 2.6132109,1.6752188 2.2030547,1.991625 1.6991484,1.991625 c -0.1523437,0 -0.6445312,-0.023437 -0.83203121,-0.4570312 0.17578121,0 0.31640621,0 0.48046871,-0.1289063 0.1054688,-0.09375 0.2109375,-0.234375 0.2109375,-0.4453125 0,-0.33984375 -0.2929687,-0.38671875 -0.3984375,-0.38671875 -0.25781246,0 -0.60937496,0.17578125 -0.60937496,0.71484375 0,0.5390625 0.48046876,0.9492188 1.14843746,0.9492188 1.125,0 2.25,-0.9960938 2.5546875,-2.22656255 z m 0,0"
       style="fill:#000000;fill-opacity:1;fill-rule:nonzero;stroke:none"
       aria-label="y"
       transform="matrix(1.3333333,0,0,1.3333333,315.004,107.032)"
       clip-path="url(#clipPath26)" />
    <path
       id="path20"
       d="m -24.94476,54.87836 c 0,0 0.36403,-1.59178 0.50381,-2.19449 0.1398,-0.60272 0.36402,-1.55924 0.50382,-2.14952 0.1398,-0.59027 0.36401,-1.527 0.50381,-2.10486 0.1398,-0.57788 0.364,-1.49463 0.50382,-2.06007 0.1398,-0.56543 0.364,-1.46222 0.50381,-2.01523 0.1398,-0.55304 0.36401,-1.43004 0.5038,-1.97063 0.1398,-0.54059 0.36401,-1.39746 0.50381,-1.92563 0.13981,-0.52817 0.36402,-1.36522 0.50383,-1.88098 0.13979,-0.51578 0.364,-1.33304 0.5038,-1.83638 0.1398,-0.50331 0.36402,-1.30047 0.50382,-1.79135 0.1398,-0.49089 0.36401,-1.2681 0.5038,-1.74657 0.13981,-0.47847 0.36401,-1.23588 0.50381,-1.70192 0.13982,-0.46606 0.36402,-1.20349 0.50383,-1.65713 0.13979,-0.45363 0.36402,-1.17127 0.5038,-1.61248 0.1398,-0.4412 0.36402,-1.13872 0.50382,-1.56748 0.1398,-0.42878 0.36401,-1.1065 0.50383,-1.52286 0.13978,-0.41637 0.36398,-1.07411 0.5038,-1.47805 0.1398,-0.40393 0.36401,-1.04174 0.50381,-1.43324 0.1398,-0.39149 0.36401,-1.00934 0.5038,-1.38843 0.13982,-0.37907 0.36401,-0.97711 0.50381,-1.34378 0.13982,-0.36665 0.36403,-0.94458 0.50383,-1.29881 0.13979,-0.35422 0.364,-0.91235 0.5038,-1.25415 0.13981,-0.34182 0.36402,-0.87997 0.50382,-1.20937 0.1398,-0.3294 0.36401,-0.84775 0.50381,-1.16471 0.1398,-0.31699 0.364,-0.81539 0.50382,-1.11992 0.1398,-0.30452 0.36401,-0.78282 0.50381,-1.07492 0.13979,-0.2921 0.364,-0.7506 0.5038,-1.03029 0.13982,-0.27971 0.36402,-0.71839 0.50382,-0.98566 0.13981,-0.26727 0.36403,-0.68584 0.50381,-0.94065 0.1398,-0.25484 0.36402,-0.65362 0.50382,-0.89605 0.1398,-0.24242 0.36401,-0.62123 0.50381,-0.85121 0.13979,-0.23 0.36402,-0.58884 0.50382,-0.80643 0.1398,-0.21757 0.36399,-0.55662 0.50381,-0.76176 0.1398,-0.20514 0.36401,-0.5241 0.50382,-0.7168 0.13978,-0.19272 0.36399,-0.49185 0.50379,-0.67215 0.13981,-0.1803 0.36402,-0.45949 0.50382,-0.62733 0.13981,-0.16787 0.36403,-0.4271 0.50381,-0.58255 0.1398,-0.15546 0.36402,-0.39484 0.50382,-0.53789 0.1398,-0.14303 0.36401,-0.3625 0.50381,-0.49309 0.1398,-0.13058 0.364,-0.32992 0.50382,-0.4481 0.1398,-0.11818 0.364,-0.29789 0.50381,-0.40364 0.1398,-0.10576 0.36402,-0.26532 0.5038,-0.35866 0.1398,-0.09332 0.36402,-0.23313 0.50382,-0.31401 0.1398,-0.0809 0.36401,-0.20058 0.50382,-0.26903 0.1398,-0.06847 0.364,-0.16834 0.5038,-0.2244 0.13981,-0.05607 0.36402,-0.13612 0.50382,-0.17976 0.1398,-0.04364 0.36402,-0.10358 0.5038,-0.13478 0.13982,-0.03121 0.36401,-0.07135 0.50382,-0.09013 0.13981,-0.0188 0.36401,-0.03898 0.50383,-0.04534 0.13978,-0.00633 0.36396,-0.00654 0.50376,-5.2e-4 0.13981,0.00608 0.364,0.02582 0.50382,0.04428 0.1398,0.0185 0.36401,0.05803 0.50381,0.08895 0.1398,0.03091 0.364,0.09054 0.5038,0.13391 0.13982,0.04333 0.36402,0.12282 0.50382,0.17854 0.1398,0.05573 0.36402,0.15502 0.50382,0.22318 0.1398,0.06819 0.364,0.18756 0.5038,0.26818 0.13981,0.0806 0.36402,0.21976 0.50384,0.31281 0.13978,0.09303 0.36398,0.25233 0.5038,0.35779 0.1398,0.10545 0.364,0.28439 0.50381,0.40225 0.1398,0.11786 0.36402,0.31691 0.5038,0.44724 0.1398,0.13032 0.36401,0.34931 0.50382,0.49205 0.13981,0.14273 0.36403,0.38154 0.50383,0.53669 0.13978,0.15514 0.364,0.41391 0.5038,0.58149 0.1398,0.16757 0.36401,0.44631 0.50381,0.62631 0.1398,0.17999 0.36401,0.47851 0.5038,0.67093 0.13982,0.19243 0.36401,0.51107 0.50383,0.71593 0.1398,0.20486 0.364,0.5433 0.50381,0.76057 0.13979,0.21727 0.36402,0.57567 0.5038,0.80537 0.1398,0.22969 0.36402,0.60806 0.50382,0.85018 0.13981,0.24211 0.36401,0.64028 0.50381,0.89482 0.1398,0.25453 0.36402,0.67265 0.50382,0.93963 0.1398,0.26699 0.36401,0.70522 0.50381,0.98462 0.13979,0.27938 0.36402,0.73726 0.5038,1.02907 0.13982,0.29181 0.36402,0.76982 0.50383,1.07407 0.1398,0.30423 0.36401,0.80201 0.50382,1.11869 0.13978,0.31667 0.36399,0.83457 0.5038,1.16368 0.1398,0.3291 0.36401,0.86684 0.50381,1.20833 0.1398,0.34148 0.36401,0.89904 0.50381,1.25295 0.13981,0.35392 0.36402,0.93159 0.50382,1.29794 0.1398,0.36637 0.36401,0.96381 0.50381,1.34258 0.13981,0.37878 0.364,0.99618 0.5038,1.3874 0.13982,0.3912 0.36402,1.02855 0.50382,1.43219 0.13981,0.40364 0.36403,1.06095 0.50381,1.47701 0.1398,0.41604 0.36402,1.09315 0.50382,1.52163 0.1398,0.42849 0.36401,1.12572 0.50381,1.56664 0.13979,0.44093 0.36402,1.15796 0.50382,1.61127 0.1398,0.4533 0.364,1.19015 0.50381,1.65591 0.1398,0.46573 0.36402,1.22269 0.5038,1.70087 0.1398,0.47819 0.36401,1.25493 0.50382,1.74553 0.13981,0.49061 0.36401,1.28749 0.50381,1.79051 0.1398,0.50304 0.36403,1.31954 0.50382,1.83498 0.1398,0.51542 0.36401,1.35205 0.50381,1.87994 0.1398,0.52791 0.36401,1.38446 0.50383,1.92477 0.13979,0.5403 0.36398,1.41669 0.5038,1.96939 0.1398,0.55272 0.364,1.44906 0.50381,2.01423 0.1398,0.56515 0.36402,1.48144 0.5038,2.05902 0.1398,0.57756 0.36402,1.51365 0.50382,2.10366 0.13981,0.58999 0.36403,1.54621 0.50383,2.14862 0.13978,0.60245 0.5038,2.19329 0.5038,2.19329"
       style="fill:none;stroke:#eb0a36;stroke-width:0.79701;stroke-linecap:butt;stroke-linejoin:miter;stroke-miterlimit:10;stroke-dasharray:none;stroke-opacity:1"
       transform="matrix(1.3333333,0,0,-1.3333333,327.77067,196.02267)"
       clip-path="url(#clipPath25)" />
    <g
       id="g20"
       aria-label="y=x&#10;2"
       transform="matrix(1.3333333,0,0,1.3333333,369.116,154.784)"
       clip-path="url(#clipPath24)">
      <path
         id="path21"
         d="m 4.8407344,-3.7960078 c 0.046875,-0.140625 0.046875,-0.1523438 0.046875,-0.2226563 0,-0.1875 -0.140625,-0.2695312 -0.2929688,-0.2695312 -0.1054687,0 -0.2578125,0.058594 -0.3515625,0.1992187 -0.023437,0.058594 -0.09375,0.3632813 -0.140625,0.5390625 -0.070312,0.2578125 -0.140625,0.5273438 -0.1992187,0.796875 l -0.4453125,1.79296879 c -0.035156,0.15234375 -0.46875,0.85546875 -1.125,0.85546875 -0.5039063,0 -0.6210938,-0.4453125 -0.6210938,-0.80859375 0,-0.45703129 0.1757813,-1.07812499 0.515625,-1.95703129 0.1523438,-0.4101562 0.1992188,-0.515625 0.1992188,-0.7148437 0,-0.4453125 -0.328125,-0.8203125 -0.8203125,-0.8203125 -0.94921877,0 -1.31250002,1.453125 -1.31250002,1.5351562 0,0.1054688 0.09375,0.1054688 0.1171875,0.1054688 0.09375,0 0.10546875,-0.023437 0.15234375,-0.1875 0.26953125,-0.9375 0.66796877,-1.2304688 1.00781247,-1.2304688 0.082031,0 0.2578125,0 0.2578125,0.3164063 0,0.2460937 -0.1054687,0.515625 -0.1757812,0.703125 -0.3984375,1.0546875 -0.5742188,1.6171875 -0.5742188,2.0859375 0,0.89062499 0.6210938,1.18359374 1.21875,1.18359374 0.3867188,0 0.7265625,-0.1640625 0.9960938,-0.4453125 -0.1289063,0.515625 -0.2460938,1.0078125 -0.6445313,1.53515626 -0.2578125,0.3398437 -0.6328125,0.6328125 -1.0898437,0.6328125 -0.140625,0 -0.59765627,-0.035156 -0.76171877,-0.421875 0.1640625,0 0.29296877,0 0.43359377,-0.1171875 0.09375,-0.09375 0.1992187,-0.2226563 0.1992187,-0.41015626 0,-0.31640625 -0.2695312,-0.3515625 -0.375,-0.3515625 -0.22265622,0 -0.55078122,0.1640625 -0.55078122,0.64453126 0,0.5039062 0.43359375,0.8671875 1.05468752,0.8671875 1.0195312,0 2.0507812,-0.9023438 2.3320312,-2.02734376 z m 0,0"
         style="fill:#eb0a36;fill-opacity:1;fill-rule:nonzero;stroke:none" />
      <path
         id="path22"
         d="m 14.857336,-3.2569453 c 0.152344,0 0.339844,0 0.339844,-0.1992188 0,-0.1992187 -0.1875,-0.1992187 -0.328125,-0.1992187 H 8.9042109 c -0.140625,0 -0.328125,0 -0.328125,0.1992187 0,0.1992188 0.1875,0.1992188 0.3398438,0.1992188 z m 0.01172,1.9335937 c 0.140625,0 0.328125,0 0.328125,-0.1992187 0,-0.1992188 -0.1875,-0.1992188 -0.339844,-0.1992188 H 8.9159297 c -0.1523438,0 -0.3398438,0 -0.3398438,0.1992188 0,0.1992187 0.1875,0.1992187 0.328125,0.1992187 z m 0,0"
         style="fill:#eb0a36;fill-opacity:1;fill-rule:nonzero;stroke:none" />
      <path
         id="path23"
         d="m 21.8505,-3.0108516 c 0.05859,-0.2578125 0.292969,-1.171875 0.984375,-1.171875 0.04687,0 0.292969,0 0.503906,0.1289063 -0.28125,0.046875 -0.480468,0.3046875 -0.480468,0.5390625 0,0.1640625 0.105468,0.3515625 0.375,0.3515625 0.222656,0 0.539062,-0.1875 0.539062,-0.5859375 0,-0.515625 -0.585937,-0.65625 -0.925781,-0.65625 -0.574219,0 -0.925781,0.5273437 -1.042969,0.7617187 -0.257812,-0.65625 -0.785156,-0.7617187 -1.078125,-0.7617187 -1.042969,0 -1.605469,1.2890625 -1.605469,1.5351562 0,0.1054688 0.105469,0.1054688 0.117188,0.1054688 0.08203,0 0.117187,-0.023437 0.128906,-0.1171875 0.339844,-1.0546875 0.996094,-1.3007813 1.335938,-1.3007813 0.1875,0 0.539062,0.09375 0.539062,0.6679688 0,0.3046875 -0.164062,0.9726562 -0.539062,2.3671875 -0.152344,0.62109374 -0.503907,1.04296874 -0.949219,1.04296874 -0.05859,0 -0.28125,0 -0.492188,-0.12890625 0.246094,-0.0585937 0.46875,-0.26953125 0.46875,-0.5390625 0,-0.26953129 -0.222656,-0.35156249 -0.375,-0.35156249 -0.292968,0 -0.539062,0.25781249 -0.539062,0.57421874 0,0.45703125 0.492187,0.65625 0.9375,0.65625 0.65625,0 1.007812,-0.69140625 1.042969,-0.75 0.117187,0.36328125 0.480468,0.75 1.078125,0.75 1.019531,0 1.59375,-1.27734374 1.59375,-1.53515624 0,-0.09375 -0.09375,-0.09375 -0.128907,-0.09375 -0.08203,0 -0.105468,0.035156 -0.128906,0.1054687 -0.328125,1.06640629 -0.996094,1.31250004 -1.324219,1.31250004 -0.386718,0 -0.539062,-0.328125 -0.539062,-0.65625 0,-0.22265625 0.05859,-0.44531254 0.164062,-0.87890624 z m 0,0"
         style="fill:#eb0a36;fill-opacity:1;fill-rule:nonzero;stroke:none" />
      <path
         id="path24"
         d="m 27.736242,-4.8829219 h -0.234375 c -0.02344,0.1523438 -0.08203,0.5625 -0.175781,0.6328125 -0.05859,0.035156 -0.597656,0.035156 -0.691406,0.035156 h -1.289063 c 0.738281,-0.6445313 0.984375,-0.84375 1.394531,-1.171875 0.515625,-0.4101563 0.996094,-0.84375 0.996094,-1.5 0,-0.84375 -0.738281,-1.359375 -1.628906,-1.359375 -0.867188,0 -1.453125,0.609375 -1.453125,1.2421875 0,0.3632812 0.304687,0.3984375 0.375,0.3984375 0.164062,0 0.375,-0.1171875 0.375,-0.375 0,-0.1289063 -0.05859,-0.3632813 -0.421875,-0.3632813 0.222656,-0.5039062 0.691406,-0.65625 1.019531,-0.65625 0.703125,0 1.066406,0.5507813 1.066406,1.1132813 0,0.609375 -0.433593,1.0898437 -0.65625,1.3359375 l -1.6875,1.6640625 c -0.07031,0.058594 -0.07031,0.070312 -0.07031,0.2695312 h 2.882812 z m 0,0"
         style="fill:#eb0a36;fill-opacity:1;fill-rule:nonzero;stroke:none" />
    </g>
  </g>
</svg>
