<?xml version="1.0" encoding="UTF-8" standalone="no"?>
<!-- Created with Inkscape (http://www.inkscape.org/) -->

<svg
   version="1.1"
   id="svg1"
   width="173.5934"
   height="144.41797"
   viewBox="0 0 173.5934 144.41797"
   sodipodi:docname="1.3-ejemplo-traslacion-raiz2.svg"
   inkscape:version="1.4.2 (f4327f4, 2025-05-13)"
   xmlns:inkscape="http://www.inkscape.org/namespaces/inkscape"
   xmlns:sodipodi="http://sodipodi.sourceforge.net/DTD/sodipodi-0.dtd"
   xmlns="http://www.w3.org/2000/svg"
   xmlns:svg="http://www.w3.org/2000/svg">
  <defs
     id="defs1">
    <clipPath
       clipPathUnits="userSpaceOnUse"
       id="clipPath26">
      <rect
         style="opacity:0;fill:none;stroke-width:0.75"
         id="rect27"
         width="167.59186"
         height="128.81305"
         x="-103.93152"
         y="-114.117" />
    </clipPath>
    <clipPath
       clipPathUnits="userSpaceOnUse"
       id="clipPath27">
      <rect
         style="opacity:0;fill:none;stroke-width:0.75"
         id="rect28"
         width="167.59186"
         height="128.81305"
         x="-103.93152"
         y="-106.092"
         transform="scale(1,-1)" />
    </clipPath>
    <clipPath
       clipPathUnits="userSpaceOnUse"
       id="clipPath28">
      <rect
         style="opacity:0;fill:none;stroke-width:0.75"
         id="rect29"
         width="167.59186"
         height="128.81305"
         x="-59.555515"
         y="-114.117" />
    </clipPath>
    <clipPath
       clipPathUnits="userSpaceOnUse"
       id="clipPath29">
      <rect
         style="opacity:0;fill:none;stroke-width:0.75"
         id="rect30"
         width="167.59186"
         height="128.81305"
         x="-96.638519"
         y="-57.099991" />
    </clipPath>
    <clipPath
       clipPathUnits="userSpaceOnUse"
       id="clipPath30">
      <rect
         style="opacity:0;fill:none;stroke-width:0.75"
         id="rect31"
         width="167.59186"
         height="128.81305"
         x="-96.638519"
         y="-49.724995"
         transform="scale(1,-1)" />
    </clipPath>
    <clipPath
       clipPathUnits="userSpaceOnUse"
       id="clipPath31">
      <rect
         style="opacity:0;fill:none;stroke-width:0.75"
         id="rect32"
         width="167.59186"
         height="128.81305"
         x="-55.660511"
         y="-57.099991" />
    </clipPath>
    <clipPath
       clipPathUnits="userSpaceOnUse"
       id="clipPath32">
      <rect
         style="opacity:0;fill:none;stroke-width:0.75"
         id="rect33"
         width="167.59186"
         height="128.81305"
         x="-36.476517"
         y="-96.877998"
         transform="scale(1,-1)" />
    </clipPath>
    <clipPath
       clipPathUnits="userSpaceOnUse"
       id="clipPath33">
      <rect
         style="opacity:0;fill:none;stroke-width:0.75"
         id="rect34"
         width="167.59186"
         height="128.81305"
         x="-36.476517"
         y="-96.877998"
         transform="scale(1,-1)" />
    </clipPath>
    <clipPath
       clipPathUnits="userSpaceOnUse"
       id="clipPath34">
      <rect
         style="opacity:0;fill:none;stroke-width:0.75"
         id="rect35"
         width="167.59186"
         height="128.81305"
         x="-26.901514"
         y="-13.125993" />
    </clipPath>
    <clipPath
       clipPathUnits="userSpaceOnUse"
       id="clipPath35">
      <rect
         style="opacity:0;fill:none;stroke-width:0.75"
         id="rect36"
         width="167.59186"
         height="128.81305"
         x="-36.476517"
         y="-12.295853"
         transform="matrix(0,-1,-1,0,0,0)" />
    </clipPath>
    <clipPath
       clipPathUnits="userSpaceOnUse"
       id="clipPath36">
      <rect
         style="opacity:0;fill:none;stroke-width:0.75"
         id="rect37"
         width="167.59186"
         height="128.81305"
         x="-36.476517"
         y="-96.877998"
         transform="scale(1,-1)" />
    </clipPath>
    <clipPath
       clipPathUnits="userSpaceOnUse"
       id="clipPath37">
      <rect
         style="opacity:0;fill:none;stroke-width:0.75"
         id="rect38"
         width="167.59186"
         height="128.81305"
         x="-146.74452"
         y="-105.41" />
    </clipPath>
    <clipPath
       clipPathUnits="userSpaceOnUse"
       id="clipPath38">
      <rect
         style="opacity:0;fill:none;stroke-width:0.75"
         id="rect39"
         width="167.59186"
         height="128.81305"
         x="-149.40547"
         y="-96.877998"
         transform="scale(1,-1)" />
    </clipPath>
    <clipPath
       clipPathUnits="userSpaceOnUse"
       id="clipPath39">
      <rect
         style="opacity:0;fill:none;stroke-width:0.75"
         id="rect40"
         width="167.59186"
         height="128.81305"
         x="-36.476517"
         y="-96.877998"
         transform="scale(1,-1)" />
    </clipPath>
    <clipPath
       clipPathUnits="userSpaceOnUse"
       id="clipPath40">
      <rect
         style="opacity:0;fill:none;stroke-width:0.75"
         id="rect41"
         width="167.59186"
         height="128.81305"
         x="92.057487"
         y="-213.452"
         transform="scale(1,-1)" />
    </clipPath>
  </defs>
  <sodipodi:namedview
     id="namedview1"
     pagecolor="#ffffff"
     bordercolor="#000000"
     borderopacity="0.25"
     inkscape:showpageshadow="2"
     inkscape:pageopacity="0.0"
     inkscape:pagecheckerboard="0"
     inkscape:deskcolor="#d1d1d1"
     inkscape:zoom="2.2241536"
     inkscape:cx="89.697042"
     inkscape:cy="91.945088"
     inkscape:window-width="1920"
     inkscape:window-height="1009"
     inkscape:window-x="-8"
     inkscape:window-y="-8"
     inkscape:window-maximized="1"
     inkscape:current-layer="g1">
    <inkscape:page
       x="0"
       y="0"
       inkscape:label="7"
       id="page1"
       width="173.5934"
       height="144.41797"
       margin="0"
       bleed="0" />
  </sodipodi:namedview>
  <g
     id="g1"
     inkscape:groupmode="layer"
     inkscape:label="7"
     transform="translate(-152.48082,-89.296874)">
    <path
       id="path2"
       d="M -14.17339,0 H 112.92896"
       style="fill:none;stroke:#000000;stroke-width:0.3985;stroke-linecap:butt;stroke-linejoin:miter;stroke-miterlimit:10;stroke-dasharray:none;stroke-opacity:1"
       transform="matrix(1.3333333,0,0,-1.3333333,171.37867,207.40267)"
       clip-path="url(#clipPath39)" />
    <path
       id="path3"
       d="M -1.19551,1.59401 C -1.09587,0.99626 0,0.09961 0.29886,0 0,-0.09961 -1.09587,-0.99626 -1.19551,-1.59401"
       style="fill:none;stroke:#000000;stroke-width:0.31879;stroke-linecap:round;stroke-linejoin:round;stroke-miterlimit:10;stroke-dasharray:none;stroke-opacity:1"
       transform="matrix(1.3333333,0,0,-1.3333333,321.95061,207.40267)"
       clip-path="url(#clipPath38)" />
    <path
       id="path4"
       d="m 3.6442891,-3.2939609 c 0.070312,-0.28125 0.3164062,-1.2890625 1.078125,-1.2890625 0.058594,0 0.3164062,0 0.5507812,0.140625 -0.3046875,0.058594 -0.5273437,0.328125 -0.5273437,0.5859375 0,0.1757812 0.1171875,0.3867187 0.4101562,0.3867187 0.2460938,0 0.5976563,-0.1992187 0.5976563,-0.6328125 0,-0.5625 -0.6445313,-0.7265625 -1.0195313,-0.7265625 -0.6328125,0 -1.0195312,0.5859375 -1.1484375,0.8320313 -0.2695312,-0.7148438 -0.8554687,-0.8320313 -1.171875,-0.8320313 -1.1367187,0 -1.75781249,1.4179688 -1.75781249,1.6875 0,0.1054688 0.10546875,0.1054688 0.12890625,0.1054688 0.0820313,0 0.1171875,-0.023437 0.140625,-0.1171875 0.37500004,-1.1601563 1.08984374,-1.4296875 1.46484374,-1.4296875 0.2109375,0 0.5859375,0.09375 0.5859375,0.7265625 0,0.3398437 -0.1875,1.078125 -0.5859375,2.6015625 -0.1757812,0.67968746 -0.5625,1.13671871 -1.0429687,1.13671871 -0.058594,0 -0.3164063,0 -0.53906254,-0.140625 0.26953124,-0.0585938 0.51562504,-0.29296875 0.51562504,-0.59765625 0,-0.29296876 -0.2460938,-0.37499996 -0.41015629,-0.37499996 -0.328125,0 -0.59765625,0.28124996 -0.59765625,0.63281246 0,0.50390625 0.55078125,0.71484375 1.03125004,0.71484375 0.7148437,0 1.1015625,-0.76171875 1.1367187,-0.83203125 0.1289063,0.41015625 0.5273438,0.83203125 1.1835938,0.83203125 1.125,0 1.7460937,-1.40625001 1.7460937,-1.67578121 0,-0.1054688 -0.1054687,-0.1054688 -0.1289062,-0.1054688 -0.1054688,0 -0.1289063,0.035156 -0.140625,0.1171875 -0.3632813,1.16015626 -1.1132813,1.42968751 -1.453125,1.42968751 -0.4335938,0 -0.609375,-0.3515625 -0.609375,-0.7265625 0,-0.23437501 0.070312,-0.48046871 0.1875,-0.96093751 z m 0,0"
       style="fill:#000000;fill-opacity:1;fill-rule:nonzero;stroke:none"
       aria-label="x"
       transform="matrix(1.3333333,0,0,1.3333333,318.40267,218.77867)"
       clip-path="url(#clipPath37)" />
    <path
       id="path5"
       d="M 0,-14.17339 V 84.58214"
       style="fill:none;stroke:#000000;stroke-width:0.3985;stroke-linecap:butt;stroke-linejoin:miter;stroke-miterlimit:10;stroke-dasharray:none;stroke-opacity:1"
       transform="matrix(1.3333333,0,0,-1.3333333,171.37867,207.40267)"
       clip-path="url(#clipPath36)" />
    <path
       id="path6"
       d="M -1.19551,1.59401 C -1.09587,0.99626 0,0.09961 0.29886,0 0,-0.09961 -1.09587,-0.99626 -1.19551,-1.59401"
       style="fill:none;stroke:#000000;stroke-width:0.31879;stroke-linecap:round;stroke-linejoin:round;stroke-miterlimit:10;stroke-dasharray:none;stroke-opacity:1"
       transform="matrix(0,-1.3333333,-1.3333333,0,171.37867,94.62648)"
       clip-path="url(#clipPath35)" />
    <path
       id="path7"
       d="m 5.2978359,-4.159375 c 0.046875,-0.1523437 0.046875,-0.1757812 0.046875,-0.2460937 0,-0.1992188 -0.1523437,-0.2929688 -0.3164062,-0.2929688 -0.1054688,0 -0.28125,0.058594 -0.375,0.2226563 -0.023437,0.058594 -0.1171875,0.3984375 -0.1523438,0.5976562 -0.082031,0.28125 -0.1523437,0.5742188 -0.2226562,0.8671875 l -0.4921875,1.96875 c -0.046875,0.1640625 -0.515625,0.92578125 -1.2304688,0.92578125 -0.5625,0 -0.6796875,-0.48046875 -0.6796875,-0.89062495 0,-0.4921875 0.1875,-1.171875 0.5625,-2.1328125 0.1757813,-0.4453125 0.2109375,-0.5742188 0.2109375,-0.7851563 0,-0.4921875 -0.3515625,-0.9023437 -0.890625,-0.9023437 -1.04296871,0 -1.44140621,1.5820312 -1.44140621,1.6875 0,0.1054687 0.10546875,0.1054687 0.12890625,0.1054687 0.10546875,0 0.1171875,-0.023437 0.17578125,-0.1992187 C 0.91502344,-4.253125 1.3486172,-4.58125 1.7236172,-4.58125 c 0.09375,0 0.2695312,0 0.2695312,0.3515625 0,0.2695313 -0.1054687,0.5507813 -0.1757812,0.7617188 -0.4453125,1.1601562 -0.6328125,1.78125 -0.6328125,2.2851562 0,0.97265625 0.6796875,1.30078125 1.3242187,1.30078125 0.421875,0 0.796875,-0.1875 1.1015625,-0.4921875 C 3.4697109,0.2 3.3408047,0.72734375 2.9072109,1.3132813 2.6142422,1.6765625 2.2040859,1.9929688 1.7001797,1.9929688 c -0.1523438,0 -0.6445313,-0.023437 -0.83203126,-0.4570313 0.17578126,0 0.31640626,0 0.48046876,-0.1289062 C 1.4540859,1.3132813 1.5595547,1.1726563 1.5595547,0.96171875 1.5595547,0.621875 1.2665859,0.575 1.1611172,0.575 c -0.25781251,0 -0.60937501,0.17578125 -0.60937501,0.7148438 0,0.5390625 0.48046871,0.9492187 1.14843751,0.9492187 1.125,0 2.25,-0.9960937 2.5546875,-2.2265625 z m 0,0"
       style="fill:#000000;fill-opacity:1;fill-rule:nonzero;stroke:none"
       aria-label="y"
       transform="matrix(1.3333333,0,0,1.3333333,158.612,95.733333)"
       clip-path="url(#clipPath34)" />
    <path
       id="path8"
       d="M 0,0 C 0,0 0.51704,2.56143 0.71562,3.1867 0.91422,3.812 1.23268,4.17929 1.43126,4.5066 1.62984,4.83392 1.9483,5.2867 2.1469,5.54576 2.34547,5.80486 2.66394,6.15512 2.86252,6.37386 3.06111,6.59262 3.37958,6.92413 3.57816,7.12238 3.77675,7.32063 4.09521,7.62161 4.2938,7.80276 4.49237,7.9839 4.81084,8.26057 5.00943,8.42798 5.20801,8.59538 5.52647,8.85274 5.72505,9.00932 5.92365,9.1659 6.24211,9.40875 6.44069,9.55647 6.63927,9.7042 6.95773,9.93416 7.15633,10.074 c 0.19857,0.13987 0.51704,0.35717 0.71563,0.49051 0.19858,0.13334 0.51704,0.34296 0.71563,0.4706 0.19859,0.12766 0.51705,0.32687 0.71563,0.44942 0.19858,0.12254 0.51705,0.31561 0.71564,0.43384 0.19858,0.11822 0.51704,0.30395 0.71562,0.41824 0.19859,0.11429 0.51708,0.29497 0.71565,0.40552 0.1986,0.11053 0.51707,0.28404 0.71564,0.39122 0.19858,0.10719 0.51705,0.27722 0.71564,0.38128 0.19858,0.10405 0.51704,0.26773 0.71562,0.36873 0.19859,0.10102 0.51706,0.26059 0.71564,0.35922 0.19859,0.09864 0.51706,0.25524 0.71563,0.35167 0.19858,0.09645 0.51705,0.24921 0.71564,0.34343 0.19858,0.09421 0.51705,0.2435 0.71562,0.33565 0.1986,0.09215 0.51706,0.2383 0.71564,0.32851 0.19858,0.09024 0.51705,0.23347 0.71564,0.32182 0.19858,0.08834 0.51704,0.22826 0.71564,0.31488 0.19857,0.08662 0.51704,0.22446 0.71562,0.30949 0.19859,0.08503 0.51706,0.21988 0.71563,0.30341 0.19858,0.08354 0.51705,0.21666 0.71564,0.29868 0.19858,0.082 0.51705,0.21182 0.71563,0.2924 0.19859,0.08055 0.51705,0.20882 0.71563,0.28828 0.19859,0.07946 0.51707,0.20626 0.71565,0.28438 0.19858,0.07814 0.51705,0.20194 0.71564,0.27878 0.19858,0.07684 0.51705,0.19942 0.71562,0.2751 0.1986,0.07567 0.51706,0.19562 0.71564,0.27034 0.19859,0.0747 0.51706,0.19444 0.71564,0.26817 0.19858,0.07372 0.51704,0.19074 0.71563,0.26319 0.19858,0.07248 0.51705,0.18738 0.71563,0.25909 0.19859,0.07172 0.51706,0.18677 0.71563,0.2578 0.19858,0.07101 0.51705,0.18417 0.71564,0.25412 0.19858,0.06993 0.51705,0.18104 0.71564,0.25 0.19858,0.06894 0.51704,0.17885 0.71562,0.24698 0.19859,0.06815 0.51706,0.17673 0.71564,0.24417 0.19858,0.06746 0.51704,0.17534 0.71563,0.242 0.19858,0.06667 0.51705,0.17273 0.71562,0.23854 0.1986,0.0658 0.51707,0.17058 0.71564,0.23575 0.1986,0.06517 0.51708,0.16954 0.71566,0.23399 0.19857,0.06446 0.51704,0.16686 0.71563,0.23055 0.19858,0.06366 0.51705,0.16521 0.71563,0.22838 0.19859,0.06316 0.51705,0.16427 0.71564,0.22685 0.19859,0.06261 0.51705,0.16251 0.71563,0.22428 0.19857,0.06178 0.51704,0.15988 0.71564,0.22104 0.19857,0.06114 0.51704,0.15893 0.71562,0.21972 0.19859,0.06081 0.51706,0.15828 0.71564,0.21843 0.19857,0.06017 0.51704,0.15569 0.71563,0.21518 0.19858,0.05951 0.51704,0.15469 0.71564,0.21368 0.19858,0.05899 0.51704,0.15288 0.71562,0.21151 0.1986,0.05864 0.51706,0.15303 0.71564,0.21107 0.19858,0.05808 0.51704,0.15003 0.71564,0.20743 0.19857,0.0574 0.51704,0.14932 0.71562,0.2063 0.19859,0.05698 0.51706,0.14786 0.71564,0.20438 0.19859,0.05653 0.51706,0.147 0.71564,0.20307 0.19857,0.05609 0.51705,0.14536 0.71565,0.20113 0.19857,0.05577 0.51704,0.14564 0.71562,0.20093 0.19859,0.05525 0.51706,0.14271 0.71563,0.19743 0.19858,0.05474 0.51705,0.14267 0.71564,0.19704 0.19858,0.05436 0.51705,0.14094 0.71564,0.19487 0.19858,0.05391 0.51704,0.14026 0.71562,0.19375 0.1986,0.0535 0.51706,0.13874 0.71564,0.19184 0.19858,0.05311 0.51704,0.13804 0.71564,0.19096 0.19857,0.05293 0.51704,0.13796 0.71563,0.19055 0.19858,0.0526 0.51705,0.13663 0.71562,0.18857 0.1986,0.05194 0.51707,0.13417 0.71564,0.18578 0.19858,0.0516 0.51705,0.1349 0.71564,0.1862 0.19858,0.05131 0.51704,0.1328 0.71562,0.18362 0.19859,0.05083 0.51706,0.13219 0.71564,0.18276 0.19859,0.05054 0.51706,0.1311 0.71563,0.18165 0.19858,0.05057 0.51706,0.1325 0.71566,0.18275 0.19858,0.05026 0.51704,0.12962 0.71562,0.1795 0.19859,0.04991 0.51706,0.13055 0.71564,0.18016 0.19858,0.04959 0.51704,0.12831 0.71563,0.17734 0.19858,0.04902 0.51705,0.12738 0.71564,0.17605 0.19858,0.04866 0.51705,0.12628 0.71562,0.17473 0.19859,0.04846 0.51706,0.12625 0.71564,0.17453 0.19858,0.04828 0.51705,0.12553 0.71564,0.17346 0.19858,0.04791 0.51704,0.12433 0.71564,0.17194 0.19857,0.04757 0.51704,0.12361 0.71562,0.17106 0.19859,0.04743 0.51705,0.12377 0.71563,0.17086 0.19858,0.04706 0.51705,0.12169 0.71564,0.16847 0.19858,0.04677 0.51705,0.12204 0.71562,0.16869 0.1986,0.04666 0.51706,0.12124 0.71564,0.1676 0.19859,0.04635 0.51706,0.12045 0.71564,0.16651 0.19858,0.0461 0.51704,0.11986 0.71564,0.16569 0.19857,0.04582 0.51705,0.11903 0.71563,0.16458 0.1986,0.04553 0.51706,0.11831 0.71564,0.16369 0.19857,0.0454 0.51704,0.11837 0.71564,0.1635 0.19857,0.04517 0.51704,0.11717 0.71563,0.162 0.19858,0.04484 0.51705,0.11651 0.71563,0.16112 0.19859,0.04462 0.71563,0.16048 0.71563,0.16048"
       style="fill:none;stroke:#eb0a36;stroke-width:0.79701;stroke-linecap:butt;stroke-linejoin:miter;stroke-miterlimit:10;stroke-dasharray:none;stroke-opacity:1"
       transform="matrix(1.3333333,0,0,-1.3333333,171.37867,207.40267)"
       clip-path="url(#clipPath33)" />
    <path
       id="path9"
       d="m 28.3468,0 c 0,0 0.51705,2.56143 0.71564,3.1867 0.19858,0.6253 0.51704,0.99259 0.71562,1.3199 0.19859,0.32732 0.51706,0.7801 0.71564,1.03916 0.19859,0.2591 0.51706,0.60936 0.71564,0.8281 0.19857,0.21876 0.51704,0.55027 0.71563,0.74852 0.19858,0.19825 0.51705,0.49923 0.71563,0.68038 0.19859,0.18114 0.51705,0.45781 0.71563,0.62522 0.19859,0.1674 0.51706,0.42476 0.71564,0.58134 0.19858,0.15658 0.51704,0.39943 0.71563,0.54715 0.19858,0.14773 0.51705,0.37769 0.71563,0.51753 0.19859,0.13987 0.51706,0.35717 0.71564,0.49051 0.19857,0.13334 0.51704,0.34296 0.71563,0.4706 0.19858,0.12766 0.51705,0.32687 0.71564,0.44942 0.19858,0.12254 0.51704,0.31561 0.71562,0.43384 0.19859,0.11822 0.51706,0.30395 0.71564,0.41824 0.19858,0.11429 0.51706,0.29497 0.71565,0.40552 0.19858,0.11053 0.51705,0.28404 0.71562,0.39122 0.1986,0.10719 0.51706,0.27722 0.71564,0.38128 0.19859,0.10405 0.51706,0.26773 0.71564,0.36873 0.19858,0.10102 0.51704,0.26059 0.71563,0.35922 0.19858,0.09864 0.51705,0.25524 0.71562,0.35167 0.1986,0.09645 0.51707,0.24921 0.71564,0.34343 0.1986,0.09421 0.51706,0.2435 0.71564,0.33565 0.19858,0.09215 0.51705,0.2383 0.71564,0.32851 0.19858,0.09024 0.51704,0.23347 0.71562,0.32182 0.19859,0.08834 0.51706,0.22826 0.71564,0.31488 0.19858,0.08662 0.51704,0.22446 0.71563,0.30949 0.19859,0.08503 0.51705,0.21988 0.71564,0.30341 0.19858,0.08354 0.51705,0.21666 0.71562,0.29868 0.1986,0.082 0.51706,0.21182 0.71564,0.2924 0.19858,0.08055 0.51705,0.20882 0.71564,0.28828 0.19858,0.07946 0.51706,0.20626 0.71564,0.28438 0.19859,0.07814 0.51705,0.20194 0.71563,0.27878 0.1986,0.07684 0.51706,0.19942 0.71564,0.2751 0.19858,0.07567 0.51704,0.19562 0.71564,0.27034 0.19858,0.0747 0.51704,0.19444 0.71562,0.26817 0.19859,0.07372 0.51706,0.19074 0.71564,0.26319 0.19859,0.07248 0.51706,0.18738 0.71564,0.25909 0.19857,0.07172 0.51704,0.18677 0.71563,0.2578 0.19858,0.07101 0.51704,0.18417 0.71562,0.25412 0.1986,0.06993 0.51706,0.18104 0.71564,0.25 0.19858,0.06894 0.51704,0.17885 0.71564,0.24698 0.19857,0.06815 0.51704,0.17673 0.71563,0.24417 0.19858,0.06746 0.51705,0.17534 0.71563,0.242 0.19859,0.06667 0.51706,0.17273 0.71563,0.23854 0.19858,0.0658 0.51705,0.17058 0.71564,0.23575 0.19858,0.06517 0.51706,0.16954 0.71564,0.23399 0.19859,0.06446 0.51706,0.16686 0.71564,0.23055 0.19859,0.06366 0.51706,0.16521 0.71563,0.22838 0.19858,0.06316 0.51705,0.16427 0.71564,0.22685 0.19858,0.06261 0.51704,0.16251 0.71562,0.22428 0.19859,0.06178 0.51706,0.15988 0.71564,0.22104 0.19858,0.06114 0.51706,0.15893 0.71563,0.21972 0.19858,0.06081 0.51705,0.15828 0.71564,0.21843 0.19858,0.06017 0.51705,0.15569 0.71563,0.21518 0.19859,0.05951 0.51705,0.15469 0.71563,0.21368 0.19858,0.05899 0.51705,0.15288 0.71564,0.21151 0.19858,0.05864 0.51704,0.15303 0.71564,0.21107 0.19857,0.05808 0.51704,0.15003 0.71562,0.20743 0.19859,0.0574 0.51706,0.14932 0.71564,0.2063 0.19857,0.05698 0.51704,0.14786 0.71563,0.20438 0.19858,0.05653 0.51705,0.147 0.71563,0.20307 0.19859,0.05609 0.51707,0.14536 0.71565,0.20113 0.19859,0.05577 0.51705,0.14564 0.71563,0.20093 0.19858,0.05525 0.51705,0.14271 0.71564,0.19743 0.19858,0.05474 0.51705,0.14267 0.71562,0.19704 0.1986,0.05436 0.51706,0.14094 0.71564,0.19487 0.19858,0.05391 0.51705,0.14026 0.71564,0.19375 0.19858,0.0535 0.51704,0.13874 0.71564,0.19184 0.19857,0.05311 0.51704,0.13804 0.71562,0.19096 0.19859,0.05293 0.51706,0.13796 0.71563,0.19055 0.19859,0.0526 0.51705,0.13663 0.71564,0.18857 0.19858,0.05194 0.51705,0.13417 0.71564,0.18578 0.19858,0.0516 0.51704,0.1349 0.71562,0.1862 0.19859,0.05131 0.51706,0.1328 0.71564,0.18362 0.19858,0.05083 0.51704,0.13219 0.71564,0.18276 0.19857,0.05054 0.51704,0.1311 0.71561,0.18165 0.1986,0.05057 0.51708,0.1325 0.71566,0.18275 0.19859,0.05026 0.51706,0.12962 0.71564,0.1795 0.19857,0.04991 0.51704,0.13055 0.71563,0.18016 0.19858,0.04959 0.51705,0.12831 0.71563,0.17734 0.19859,0.04902 0.51706,0.12738 0.71564,0.17605 0.19857,0.04866 0.51704,0.12628 0.71563,0.17473 0.19858,0.04846 0.51704,0.12625 0.71564,0.17453 0.19858,0.04828 0.51704,0.12553 0.71562,0.17346 0.19859,0.04791 0.51706,0.12433 0.71564,0.17194 0.19857,0.04757 0.51704,0.12361 0.71563,0.17106 0.19858,0.04743 0.51705,0.12377 0.71564,0.17086 0.19858,0.04706 0.51705,0.12169 0.71562,0.16847 0.1986,0.04677 0.51706,0.12204 0.71564,0.16869 0.19858,0.04666 0.51704,0.12124 0.71564,0.1676 0.19858,0.04635 0.51704,0.12045 0.71562,0.16651 0.19859,0.0461 0.51706,0.11986 0.71564,0.16569 0.19859,0.04582 0.51707,0.11903 0.71565,0.16458 0.19858,0.04553 0.51704,0.11831 0.71564,0.16369 0.19857,0.0454 0.51704,0.11837 0.71562,0.1635 0.19859,0.04517 0.51706,0.11717 0.71563,0.162 0.19858,0.04484 0.51705,0.11651 0.71564,0.16112 0.19858,0.04462 0.71564,0.16048 0.71564,0.16048"
       style="fill:none;stroke:#008080;stroke-width:0.79701;stroke-linecap:butt;stroke-linejoin:miter;stroke-miterlimit:10;stroke-dasharray:none;stroke-opacity:1"
       transform="matrix(1.3333333,0,0,-1.3333333,171.37867,207.40267)"
       clip-path="url(#clipPath32)" />
    <g
       id="g9"
       aria-label="f(x)=&#10;√"
       transform="matrix(1.3333333,0,0,1.3333333,196.95733,154.36533)"
       clip-path="url(#clipPath31)">
      <path
         id="path10"
         d="m 3.6560234,-3.9829844 h 0.8554688 c 0.1992187,0 0.3046875,0 0.3046875,-0.1992187 0,-0.1054688 -0.1054688,-0.1054688 -0.2695313,-0.1054688 H 3.7146172 l 0.2109375,-1.1367187 c 0.035156,-0.2109375 0.1757812,-0.9140625 0.234375,-1.0429688 0.09375,-0.1875 0.2578125,-0.3398437 0.46875,-0.3398437 0.046875,0 0.3046875,0 0.4921875,0.1875 -0.4335938,0.035156 -0.5390625,0.3867187 -0.5390625,0.5390625 0,0.2226562 0.1757812,0.3398437 0.3632812,0.3398437 0.2695313,0 0.5507813,-0.2109375 0.5507813,-0.5976562 0,-0.4570313 -0.4570313,-0.6796875 -0.8671875,-0.6796875 -0.3398438,0 -0.9609375,0.1757812 -1.265625,1.1601562 -0.058594,0.2109375 -0.082031,0.3164063 -0.328125,1.5703125 H 2.3552422 c -0.1992188,0 -0.3046875,0 -0.3046875,0.1875 0,0.1171875 0.09375,0.1171875 0.28125,0.1171875 h 0.65625 l -0.75,3.93750003 C 2.0622734,0.91545313 1.8982109,1.8295156 1.3708672,1.8295156 c -0.035156,0 -0.28125,0 -0.46875001,-0.1875 C 1.3591484,1.6185781 1.4411797,1.2552969 1.4411797,1.1029531 c 0,-0.22265622 -0.1757813,-0.33984372 -0.3632813,-0.33984372 -0.25781246,0 -0.55078121,0.2109375 -0.55078121,0.59765622 0,0.4453125 0.43359375,0.6796875 0.84375001,0.6796875 0.5507812,0 0.9492187,-0.5859375 1.125,-0.9609375 0.328125,-0.63281247 0.5507812,-1.83984372 0.5625,-1.91015622 z m 0,0"
         style="fill:#eb0a36;fill-opacity:1;fill-rule:nonzero;stroke:none" />
      <path
         id="path11"
         d="m 9.2458672,2.3920156 c 0,-0.035156 0,-0.046875 -0.1640625,-0.2226562 -1.2421875,-1.25390627 -1.5703125,-3.12890627 -1.5703125,-4.6640625 0,-1.7226563 0.3867187,-3.4570313 1.6054687,-4.7109375 0.1289063,-0.1171875 0.1289063,-0.1289063 0.1289063,-0.1640625 0,-0.070312 -0.035156,-0.1054688 -0.09375,-0.1054688 -0.1054688,0 -0.9960938,0.6796875 -1.5820313,1.9453125 -0.515625,1.1015625 -0.6328125,2.203125 -0.6328125,3.0351563 0,0.7851562 0.1171875,1.99218748 0.65625,3.11718748 0.5976563,1.21875002 1.453125,1.87500002 1.5585938,1.87500002 0.058594,0 0.09375,-0.035156 0.09375,-0.1054688 z m 0,0"
         style="fill:#eb0a36;fill-opacity:1;fill-rule:nonzero;stroke:none" />
      <path
         id="path12"
         d="m 13.157,-3.0103281 c 0.05859,-0.2578125 0.292969,-1.171875 0.984375,-1.171875 0.04687,0 0.292969,0 0.503906,0.1289062 -0.28125,0.046875 -0.480468,0.3046875 -0.480468,0.5390625 0,0.1640625 0.105468,0.3515625 0.375,0.3515625 0.222656,0 0.539062,-0.1875 0.539062,-0.5859375 0,-0.515625 -0.585937,-0.65625 -0.925781,-0.65625 -0.574219,0 -0.925781,0.5273438 -1.042969,0.7617188 -0.257812,-0.65625 -0.785156,-0.7617188 -1.078125,-0.7617188 -1.042969,0 -1.605469,1.2890625 -1.605469,1.5351563 0,0.1054687 0.105469,0.1054687 0.117188,0.1054687 0.08203,0 0.117187,-0.023437 0.128906,-0.1171875 0.339844,-1.0546875 0.996094,-1.3007812 1.335938,-1.3007812 0.1875,0 0.539062,0.09375 0.539062,0.6679687 0,0.3046875 -0.164062,0.9726563 -0.539062,2.3671875 -0.152344,0.62109378 -0.503907,1.04296878 -0.949219,1.04296878 -0.05859,0 -0.28125,0 -0.492188,-0.12890625 0.246094,-0.0585938 0.46875,-0.26953125 0.46875,-0.5390625 0,-0.26953123 -0.222656,-0.35156253 -0.375,-0.35156253 -0.292968,0 -0.539062,0.25781253 -0.539062,0.57421878 0,0.45703125 0.492187,0.65625 0.9375,0.65625 0.65625,0 1.007812,-0.69140625 1.042969,-0.75 0.117187,0.36328125 0.480468,0.75 1.078125,0.75 1.019531,0 1.59375,-1.27734378 1.59375,-1.53515628 0,-0.09375 -0.09375,-0.09375 -0.128907,-0.09375 -0.08203,0 -0.105468,0.035156 -0.128906,0.1054688 -0.328125,1.06640623 -0.996094,1.31249998 -1.324219,1.31249998 -0.386718,0 -0.539062,-0.328125 -0.539062,-0.65625 0,-0.22265625 0.05859,-0.44531248 0.164062,-0.87890628 z m 0,0"
         style="fill:#eb0a36;fill-opacity:1;fill-rule:nonzero;stroke:none" />
      <path
         id="path13"
         d="m 18.40407,-2.4947031 c 0,-0.7734375 -0.117187,-1.9804688 -0.65625,-3.1054688 -0.597656,-1.21875 -1.464843,-1.875 -1.558593,-1.875 -0.05859,0 -0.105469,0.046875 -0.105469,0.1054688 0,0.035156 0,0.046875 0.199219,0.234375 0.972656,0.984375 1.535156,2.5664062 1.535156,4.640625 0,1.71093748 -0.363281,3.45703123 -1.59375,4.7226562 -0.140625,0.1171875 -0.140625,0.1289063 -0.140625,0.1640625 0,0.058594 0.04687,0.1054688 0.105469,0.1054688 0.09375,0 0.996093,-0.6796875 1.582031,-1.94531252 0.503906,-1.1015625 0.632812,-2.20312498 0.632812,-3.04687498 z m 10.59668,-0.7617188 c 0.152344,0 0.339844,0 0.339844,-0.1992187 0,-0.1992188 -0.1875,-0.1992188 -0.328125,-0.1992188 h -5.964844 c -0.140625,0 -0.328125,0 -0.328125,0.1992188 0,0.1992187 0.1875,0.1992187 0.339844,0.1992187 z m 0.01172,1.9335938 c 0.140625,0 0.328125,0 0.328125,-0.1992188 0,-0.1992187 -0.1875,-0.1992187 -0.339844,-0.1992187 h -5.941406 c -0.152344,0 -0.339844,0 -0.339844,0.1992187 0,0.1992188 0.1875,0.1992188 0.328125,0.1992188 z m 0,0"
         style="fill:#eb0a36;fill-opacity:1;fill-rule:nonzero;stroke:none" />
      <path
         id="path14"
         d="m 36.553484,1.3431875 -1.757812,-3.8789062 c -0.07031,-0.1523438 -0.117188,-0.1523438 -0.152344,-0.1523438 -0.01172,0 -0.05859,0 -0.164062,0.070312 l -0.949219,0.7265625 c -0.128906,0.09375 -0.128906,0.1289063 -0.128906,0.1523438 0,0.046875 0.03516,0.1054687 0.105468,0.1054687 0.05859,0 0.222657,-0.1289062 0.328125,-0.2109375 0.07031,-0.046875 0.210938,-0.1640625 0.328125,-0.2460937 l 1.957032,4.3125 c 0.07031,0.1640625 0.117187,0.1640625 0.210937,0.1640625 0.152344,0 0.175781,-0.058594 0.246094,-0.1992188 l 4.523437,-9.3632812 c 0.07031,-0.140625 0.07031,-0.1757813 0.07031,-0.1992188 0,-0.1054687 -0.08203,-0.1992187 -0.199219,-0.1992187 -0.08203,0 -0.152344,0.046875 -0.222656,0.2109375 z m 0,0"
         style="fill:#eb0a36;fill-opacity:1;fill-rule:nonzero;stroke:none" />
    </g>
    <path
       id="path15"
       d="M 0,0 H 5.694"
       style="fill:none;stroke:#eb0a36;stroke-width:0.398;stroke-linecap:butt;stroke-linejoin:miter;stroke-miterlimit:10;stroke-dasharray:none;stroke-opacity:1"
       transform="matrix(1.3333333,0,0,-1.3333333,251.59467,144.532)"
       clip-path="url(#clipPath30)" />
    <path
       id="path16"
       d="m 3.3274375,-3.0103281 c 0.058594,-0.2578125 0.2929688,-1.171875 0.984375,-1.171875 0.046875,0 0.2929688,0 0.5039063,0.1289062 -0.28125,0.046875 -0.4804688,0.3046875 -0.4804688,0.5390625 0,0.1640625 0.1054688,0.3515625 0.375,0.3515625 0.2226563,0 0.5390625,-0.1875 0.5390625,-0.5859375 0,-0.515625 -0.5859375,-0.65625 -0.9257812,-0.65625 -0.5742188,0 -0.9257813,0.5273438 -1.0429688,0.7617188 -0.2578125,-0.65625 -0.7851562,-0.7617188 -1.078125,-0.7617188 -1.0429687,0 -1.60546875,1.2890625 -1.60546875,1.5351563 0,0.1054687 0.10546875,0.1054687 0.1171875,0.1054687 0.0820313,0 0.1171875,-0.023437 0.12890625,-0.1171875 0.3398438,-1.0546875 0.9960938,-1.3007812 1.3359375,-1.3007812 0.1875,0 0.5390625,0.09375 0.5390625,0.6679687 0,0.3046875 -0.1640625,0.9726563 -0.5390625,2.3671875 -0.1523437,0.62109378 -0.5039062,1.04296878 -0.9492187,1.04296878 -0.058594,0 -0.28125005,0 -0.49218755,-0.12890625 0.24609375,-0.0585938 0.46875005,-0.26953125 0.46875005,-0.5390625 0,-0.26953123 -0.2226563,-0.35156253 -0.37500005,-0.35156253 -0.29296875,0 -0.5390625,0.25781253 -0.5390625,0.57421878 0,0.45703125 0.4921875,0.65625 0.93750005,0.65625 0.65625,0 1.0078125,-0.69140625 1.0429687,-0.75 0.1171875,0.36328125 0.4804688,0.75 1.078125,0.75 1.0195313,0 1.59375,-1.27734378 1.59375,-1.53515628 0,-0.09375 -0.09375,-0.09375 -0.1289062,-0.09375 -0.082031,0 -0.1054688,0.035156 -0.1289063,0.1054688 -0.328125,1.06640623 -0.9960937,1.31249998 -1.3242187,1.31249998 -0.3867188,0 -0.5390625,-0.328125 -0.5390625,-0.65625 0,-0.22265625 0.058594,-0.44531248 0.1640625,-0.87890628 z m 0,0"
       style="fill:#eb0a36;fill-opacity:1;fill-rule:nonzero;stroke:none"
       aria-label="x"
       transform="matrix(1.3333333,0,0,1.3333333,251.59467,154.36533)"
       clip-path="url(#clipPath29)" />
    <g
       id="g16"
       aria-label="f&#10;2&#10;(x)=&#10;√"
       transform="matrix(1.3333333,0,0,1.3333333,202.15067,230.388)"
       clip-path="url(#clipPath28)">
      <path
         id="path17"
         d="m 3.6575078,-3.9853359 h 0.8554688 c 0.1992187,0 0.3046875,0 0.3046875,-0.1992188 0,-0.1054687 -0.1054688,-0.1054687 -0.2695313,-0.1054687 H 3.7161016 l 0.2109375,-1.1367188 c 0.035156,-0.2109375 0.1757812,-0.9140625 0.234375,-1.0429687 0.09375,-0.1875 0.2578125,-0.3398438 0.46875,-0.3398438 0.046875,0 0.3046875,0 0.4921875,0.1875 -0.4335938,0.035156 -0.5390625,0.3867188 -0.5390625,0.5390625 0,0.2226563 0.1757812,0.3398438 0.3632812,0.3398438 0.2695313,0 0.5507813,-0.2109375 0.5507813,-0.5976563 0,-0.4570312 -0.4570313,-0.6796875 -0.8671875,-0.6796875 -0.3398438,0 -0.9609375,0.1757813 -1.265625,1.1601563 -0.058594,0.2109375 -0.082031,0.3164062 -0.328125,1.5703125 H 2.3567266 c -0.1992188,0 -0.3046875,0 -0.3046875,0.1875 0,0.1171875 0.09375,0.1171875 0.28125,0.1171875 h 0.65625 l -0.75,3.93749996 C 2.0637578,0.91310156 1.8996953,1.8271641 1.3723516,1.8271641 c -0.035156,0 -0.28125,0 -0.46875004,-0.1875 C 1.3606328,1.6162266 1.4426641,1.2529453 1.4426641,1.1006016 c 0,-0.22265629 -0.1757813,-0.33984379 -0.3632813,-0.33984379 -0.25781249,0 -0.55078124,0.2109375 -0.55078124,0.59765629 0,0.4453125 0.43359375,0.6796875 0.84375004,0.6796875 0.5507812,0 0.9492187,-0.5859375 1.125,-0.9609375 0.328125,-0.63281254 0.5507812,-1.83984379 0.5625,-1.91015629 z m 0,0"
         style="fill:#008080;fill-opacity:1;fill-rule:nonzero;stroke:none" />
      <path
         id="path18"
         d="M 8.3948125,0.22755469 H 8.1604375 C 8.137,0.37989844 8.0784063,0.79005469 7.9846563,0.86036719 7.9260625,0.89552344 7.387,0.89552344 7.29325,0.89552344 H 6.0041875 c 0.7382813,-0.64453125 0.984375,-0.84375 1.3945313,-1.171875 0.515625,-0.41015625 0.9960937,-0.84375004 0.9960937,-1.50000004 0,-0.84375 -0.7382812,-1.359375 -1.6289062,-1.359375 -0.8671875,0 -1.453125,0.609375 -1.453125,1.2421875 0,0.3632813 0.3046875,0.3984375 0.375,0.3984375 0.1640625,0 0.375,-0.1171875 0.375,-0.375 0,-0.1289062 -0.058594,-0.3632812 -0.421875,-0.3632812 0.2226562,-0.5039063 0.6914062,-0.65625 1.0195312,-0.65625 0.703125,0 1.0664063,0.5507812 1.0664063,1.1132812 0,0.609375 -0.4335938,1.08984379 -0.65625,1.33593754 l -1.6875,1.66406246 c -0.070312,0.058594 -0.070312,0.070312 -0.070312,0.2695313 h 2.8828125 z m 0,0"
         style="fill:#008080;fill-opacity:1;fill-rule:nonzero;stroke:none" />
      <path
         id="path19"
         d="m 12.63993,2.3896641 c 0,-0.035156 0,-0.046875 -0.164063,-0.2226563 -1.242187,-1.25390624 -1.570312,-3.12890624 -1.570312,-4.6640625 0,-1.7226562 0.386718,-3.4570312 1.605468,-4.7109375 0.128907,-0.1171875 0.128907,-0.1289062 0.128907,-0.1640625 0,-0.070312 -0.03516,-0.1054687 -0.09375,-0.1054687 -0.105469,0 -0.996094,0.6796875 -1.582032,1.9453125 -0.515625,1.1015625 -0.632812,2.203125 -0.632812,3.0351562 0,0.7851563 0.117187,1.99218751 0.65625,3.11718751 0.597656,1.21874999 1.453125,1.87499999 1.558594,1.87499999 0.05859,0 0.09375,-0.035156 0.09375,-0.1054687 z m 0,0"
         style="fill:#008080;fill-opacity:1;fill-rule:nonzero;stroke:none" />
      <path
         id="path20"
         d="m 16.548133,-3.0126797 c 0.05859,-0.2578125 0.292969,-1.171875 0.984375,-1.171875 0.04687,0 0.292969,0 0.503906,0.1289063 -0.28125,0.046875 -0.480469,0.3046875 -0.480469,0.5390625 0,0.1640625 0.105469,0.3515625 0.375,0.3515625 0.222657,0 0.539063,-0.1875 0.539063,-0.5859375 0,-0.515625 -0.585938,-0.65625 -0.925781,-0.65625 -0.574219,0 -0.925782,0.5273437 -1.042969,0.7617187 -0.257813,-0.65625 -0.785156,-0.7617187 -1.078125,-0.7617187 -1.042969,0 -1.605469,1.2890625 -1.605469,1.5351562 0,0.1054688 0.105469,0.1054688 0.117188,0.1054688 0.08203,0 0.117187,-0.023437 0.128906,-0.1171875 0.339844,-1.0546875 0.996094,-1.3007813 1.335937,-1.3007813 0.1875,0 0.539063,0.09375 0.539063,0.6679688 0,0.3046875 -0.164063,0.9726562 -0.539063,2.3671875 -0.152343,0.62109371 -0.503906,1.04296871 -0.949218,1.04296871 -0.05859,0 -0.28125,0 -0.492188,-0.12890625 0.246094,-0.0585938 0.46875,-0.26953125 0.46875,-0.5390625 0,-0.26953126 -0.222656,-0.35156246 -0.375,-0.35156246 -0.292969,0 -0.539062,0.25781246 -0.539062,0.57421871 0,0.45703125 0.492187,0.65625 0.9375,0.65625 0.65625,0 1.007812,-0.69140625 1.042968,-0.75 0.117188,0.36328125 0.480469,0.75 1.078125,0.75 1.019532,0 1.59375,-1.27734371 1.59375,-1.53515621 0,-0.09375 -0.09375,-0.09375 -0.128906,-0.09375 -0.08203,0 -0.105469,0.035156 -0.128906,0.1054687 -0.328125,1.06640626 -0.996094,1.31250001 -1.324219,1.31250001 -0.386719,0 -0.539062,-0.328125 -0.539062,-0.65625 0,-0.22265625 0.05859,-0.44531251 0.164062,-0.87890621 z m 0,0"
         style="fill:#008080;fill-opacity:1;fill-rule:nonzero;stroke:none" />
      <path
         id="path21"
         d="m 21.798133,-2.4970547 c 0,-0.7734375 -0.117188,-1.9804687 -0.65625,-3.1054687 -0.597656,-1.21875 -1.464844,-1.875 -1.558594,-1.875 -0.05859,0 -0.105469,0.046875 -0.105469,0.1054687 0,0.035156 0,0.046875 0.199219,0.234375 0.972656,0.984375 1.535156,2.5664063 1.535156,4.640625 0,1.71093751 -0.363281,3.45703126 -1.59375,4.7226563 -0.140625,0.1171875 -0.140625,0.1289062 -0.140625,0.1640625 0,0.058594 0.04687,0.1054687 0.105469,0.1054687 0.09375,0 0.996094,-0.6796875 1.582031,-1.94531249 0.503907,-1.1015625 0.632813,-2.20312501 0.632813,-3.04687501 z m 10.605469,-0.7617187 c 0.152343,0 0.339843,0 0.339843,-0.1992188 0,-0.1992187 -0.1875,-0.1992187 -0.328125,-0.1992187 h -5.964843 c -0.140625,0 -0.328125,0 -0.328125,0.1992187 0,0.1992188 0.1875,0.1992188 0.339843,0.1992188 z m 0.01172,1.9335937 c 0.140625,0 0.328125,0 0.328125,-0.1992187 0,-0.1992188 -0.1875,-0.1992188 -0.339843,-0.1992188 h -5.941407 c -0.152343,0 -0.339843,0 -0.339843,0.1992188 0,0.1992187 0.1875,0.1992187 0.328125,0.1992187 z m 0,0"
         style="fill:#008080;fill-opacity:1;fill-rule:nonzero;stroke:none" />
      <path
         id="path22"
         d="M 39.950477,0.693375 38.192664,-3.1855312 C 38.122352,-3.337875 38.075477,-3.337875 38.04032,-3.337875 c -0.01172,0 -0.05859,0 -0.164062,0.070312 L 36.927039,-2.541 c -0.128906,0.09375 -0.128906,0.1289063 -0.128906,0.1523438 0,0.046875 0.03516,0.1054687 0.105469,0.1054687 0.05859,0 0.222656,-0.1289062 0.328125,-0.2109375 0.07031,-0.046875 0.210937,-0.1640625 0.328125,-0.2460937 l 1.957031,4.3125 c 0.07031,0.1640625 0.117187,0.1640625 0.210937,0.1640625 0.152344,0 0.175782,-0.058594 0.246094,-0.1992188 l 4.523438,-9.3632812 c 0.07031,-0.140625 0.07031,-0.1757813 0.07031,-0.1992188 0,-0.1054687 -0.08203,-0.1992187 -0.199219,-0.1992187 -0.08203,0 -0.152343,0.046875 -0.222656,0.2109375 z m 0,0"
         style="fill:#008080;fill-opacity:1;fill-rule:nonzero;stroke:none" />
    </g>
    <path
       id="path23"
       d="M 0,0 H 22.852"
       style="fill:none;stroke:#008080;stroke-width:0.398;stroke-linecap:butt;stroke-linejoin:miter;stroke-miterlimit:10;stroke-dasharray:none;stroke-opacity:1"
       transform="matrix(1.3333333,0,0,-1.3333333,261.31867,219.688)"
       clip-path="url(#clipPath27)" />
    <g
       id="g23"
       aria-label="x−2"
       transform="matrix(1.3333333,0,0,1.3333333,261.31867,230.388)"
       clip-path="url(#clipPath26)">
      <path
         id="path24"
         d="m 3.3293594,-3.0126797 c 0.058594,-0.2578125 0.2929687,-1.171875 0.984375,-1.171875 0.046875,0 0.2929687,0 0.5039062,0.1289063 -0.28125,0.046875 -0.4804687,0.3046875 -0.4804687,0.5390625 0,0.1640625 0.1054687,0.3515625 0.375,0.3515625 0.2226562,0 0.5390625,-0.1875 0.5390625,-0.5859375 0,-0.515625 -0.5859375,-0.65625 -0.9257813,-0.65625 -0.5742187,0 -0.9257812,0.5273437 -1.0429687,0.7617187 -0.2578125,-0.65625 -0.7851563,-0.7617187 -1.078125,-0.7617187 -1.0429688,0 -1.60546878,1.2890625 -1.60546878,1.5351562 0,0.1054688 0.10546875,0.1054688 0.1171875,0.1054688 0.0820313,0 0.1171875,-0.023437 0.12890625,-0.1171875 0.33984373,-1.0546875 0.99609373,-1.3007813 1.33593753,-1.3007813 0.1875,0 0.5390625,0.09375 0.5390625,0.6679688 0,0.3046875 -0.1640625,0.9726562 -0.5390625,2.3671875 -0.1523438,0.62109371 -0.5039063,1.04296871 -0.9492188,1.04296871 -0.058594,0 -0.28124998,0 -0.49218748,-0.12890625 0.24609375,-0.0585938 0.46874998,-0.26953125 0.46874998,-0.5390625 0,-0.26953126 -0.22265623,-0.35156246 -0.37499998,-0.35156246 -0.29296875,0 -0.5390625,0.25781246 -0.5390625,0.57421871 0,0.45703125 0.4921875,0.65625 0.93749998,0.65625 0.65625,0 1.0078125,-0.69140625 1.0429688,-0.75 0.1171875,0.36328125 0.4804687,0.75 1.078125,0.75 1.0195312,0 1.59375,-1.27734371 1.59375,-1.53515621 0,-0.09375 -0.09375,-0.09375 -0.1289063,-0.09375 -0.082031,0 -0.1054687,0.035156 -0.1289062,0.1054687 -0.328125,1.06640626 -0.9960938,1.31250001 -1.3242188,1.31250001 -0.3867187,0 -0.5390625,-0.328125 -0.5390625,-0.65625 0,-0.22265625 0.058594,-0.44531251 0.1640625,-0.87890621 z m 0,0"
         style="fill:#008080;fill-opacity:1;fill-rule:nonzero;stroke:none" />
      <path
         id="path25"
         d="m 14.468031,-2.2978359 c 0.175781,0 0.351563,0 0.351563,-0.1992188 0,-0.1992187 -0.175782,-0.1992187 -0.351563,-0.1992187 H 9.0774062 c -0.1640625,0 -0.3398437,0 -0.3398437,0.1992187 0,0.1992188 0.1757812,0.1992188 0.3398437,0.1992188 z m 0,0"
         style="fill:#008080;fill-opacity:1;fill-rule:nonzero;stroke:none" />
      <path
         id="path26"
         d="m 19.132094,-0.76267969 1.054687,-1.03125001 c 1.558594,-1.3710937 2.15625,-1.9101562 2.15625,-2.90625 0,-1.1367187 -0.902344,-1.9335937 -2.121094,-1.9335937 -1.125,0 -1.851562,0.9140625 -1.851562,1.8046875 0,0.5507812 0.492187,0.5507812 0.527344,0.5507812 0.164062,0 0.515625,-0.1171875 0.515625,-0.5273437 0,-0.2578125 -0.1875,-0.515625 -0.527344,-0.515625 -0.08203,0 -0.105469,0 -0.128906,0.011719 0.222656,-0.6445312 0.761718,-1.0195312 1.335937,-1.0195312 0.914063,0 1.335938,0.8085937 1.335938,1.6289062 0,0.796875 -0.492188,1.5820313 -1.042969,2.203125 l -1.910156,2.13281251 c -0.105469,0.10546875 -0.105469,0.12890625 -0.105469,0.3632812525 h 3.691406 L 22.343031,-1.7353359 h -0.257812 c -0.04687,0.3046875 -0.117188,0.73828121 -0.210938,0.89062496 -0.07031,0.0820313 -0.726562,0.0820313 -0.949219,0.0820313 z m 0,0"
         style="fill:#008080;fill-opacity:1;fill-rule:nonzero;stroke:none" />
    </g>
  </g>
</svg>
