<?xml version="1.0" encoding="UTF-8" standalone="no"?>
<!-- Created with Inkscape (http://www.inkscape.org/) -->

<svg
   version="1.1"
   id="svg1"
   width="173.5945"
   height="137.00278"
   viewBox="0 0 173.5945 137.00278"
   sodipodi:docname="1.3-valor-absoluto-parabola.svg"
   inkscape:version="1.4.2 (f4327f4, 2025-05-13)"
   xmlns:inkscape="http://www.inkscape.org/namespaces/inkscape"
   xmlns:sodipodi="http://sodipodi.sourceforge.net/DTD/sodipodi-0.dtd"
   xmlns="http://www.w3.org/2000/svg"
   xmlns:svg="http://www.w3.org/2000/svg">
  <defs
     id="defs1" />
  <sodipodi:namedview
     id="namedview1"
     pagecolor="#ffffff"
     bordercolor="#000000"
     borderopacity="0.25"
     inkscape:showpageshadow="2"
     inkscape:pageopacity="0.0"
     inkscape:pagecheckerboard="0"
     inkscape:deskcolor="#d1d1d1"
     inkscape:zoom="2.2241536"
     inkscape:cx="89.697042"
     inkscape:cy="87.448996"
     inkscape:window-width="1920"
     inkscape:window-height="1009"
     inkscape:window-x="-8"
     inkscape:window-y="-8"
     inkscape:window-maximized="1"
     inkscape:current-layer="g1">
    <inkscape:page
       x="0"
       y="0"
       inkscape:label="14"
       id="page1"
       width="173.5945"
       height="137.00278"
       margin="0"
       bleed="0" />
  </sodipodi:namedview>
  <g
     id="g1"
     inkscape:groupmode="layer"
     inkscape:label="14"
     transform="translate(-152.47974,-94.093757)">
    <path
       id="path2"
       d="M -42.5202,0 H 84.58214"
       style="fill:none;stroke:#000000;stroke-width:0.3985;stroke-linecap:butt;stroke-linejoin:miter;stroke-miterlimit:10;stroke-dasharray:none;stroke-opacity:1"
       transform="matrix(1.3333333,0,0,-1.3333333,209.17333,212.19867)" />
    <path
       id="path3"
       d="M -1.19551,1.59401 C -1.09587,0.99626 0,0.09961 0.29886,0 0,-0.09961 -1.09587,-0.99626 -1.19551,-1.59401"
       style="fill:none;stroke:#000000;stroke-width:0.31879;stroke-linecap:round;stroke-linejoin:round;stroke-miterlimit:10;stroke-dasharray:none;stroke-opacity:1"
       transform="matrix(1.3333333,0,0,-1.3333333,321.94952,212.19867)" />
    <path
       id="path4"
       d="m 3.6442891,-3.2933047 c 0.070312,-0.28125 0.3164062,-1.2890625 1.078125,-1.2890625 0.058594,0 0.3164062,0 0.5507812,0.140625 -0.3046875,0.058594 -0.5273437,0.328125 -0.5273437,0.5859375 0,0.1757813 0.1171875,0.3867188 0.4101562,0.3867188 0.2460938,0 0.5976563,-0.1992188 0.5976563,-0.6328125 0,-0.5625 -0.6445313,-0.7265625 -1.0195313,-0.7265625 -0.6328125,0 -1.0195312,0.5859375 -1.1484375,0.8320312 -0.2695312,-0.7148437 -0.8554687,-0.8320312 -1.171875,-0.8320312 -1.1367187,0 -1.75781249,1.4179687 -1.75781249,1.6875 0,0.1054687 0.10546875,0.1054687 0.12890625,0.1054687 0.0820313,0 0.1171875,-0.023437 0.140625,-0.1171875 0.37500004,-1.1601562 1.08984374,-1.4296875 1.46484374,-1.4296875 0.2109375,0 0.5859375,0.09375 0.5859375,0.7265625 0,0.3398438 -0.1875,1.078125 -0.5859375,2.6015625 -0.1757812,0.67968751 -0.5625,1.13671876 -1.0429687,1.13671876 -0.058594,0 -0.3164063,0 -0.53906254,-0.140625 0.26953124,-0.0585938 0.51562504,-0.29296875 0.51562504,-0.59765625 0,-0.29296871 -0.2460938,-0.37500001 -0.41015629,-0.37500001 -0.328125,0 -0.59765625,0.28125001 -0.59765625,0.63281251 0,0.50390625 0.55078125,0.71484375 1.03125004,0.71484375 0.7148437,0 1.1015625,-0.76171875 1.1367187,-0.83203125 0.1289063,0.41015625 0.5273438,0.83203125 1.1835938,0.83203125 1.125,0 1.7460937,-1.40624996 1.7460937,-1.67578126 0,-0.1054687 -0.1054687,-0.1054687 -0.1289062,-0.1054687 -0.1054688,0 -0.1289063,0.035156 -0.140625,0.1171875 -0.3632813,1.16015621 -1.1132813,1.42968746 -1.453125,1.42968746 -0.4335938,0 -0.609375,-0.3515625 -0.609375,-0.7265625 0,-0.23437496 0.070312,-0.48046876 0.1875,-0.96093746 z m 0,0"
       style="fill:#000000;fill-opacity:1;fill-rule:nonzero;stroke:none"
       aria-label="x"
       transform="matrix(1.3333333,0,0,1.3333333,318.40267,223.57467)" />
    <path
       id="path5"
       d="M 0,-14.17339 V 84.58214"
       style="fill:none;stroke:#000000;stroke-width:0.3985;stroke-linecap:butt;stroke-linejoin:miter;stroke-miterlimit:10;stroke-dasharray:none;stroke-opacity:1"
       transform="matrix(1.3333333,0,0,-1.3333333,209.17333,212.19867)" />
    <path
       id="path6"
       d="M -1.19551,1.59401 C -1.09587,0.99626 0,0.09961 0.29886,0 0,-0.09961 -1.09587,-0.99626 -1.19551,-1.59401"
       style="fill:none;stroke:#000000;stroke-width:0.31879;stroke-linecap:round;stroke-linejoin:round;stroke-miterlimit:10;stroke-dasharray:none;stroke-opacity:1"
       transform="matrix(0,-1.3333333,-1.3333333,0,209.17333,99.42248)" />
    <path
       id="path7"
       d="m 5.2976719,-4.1597187 c 0.046875,-0.1523438 0.046875,-0.1757813 0.046875,-0.2460938 0,-0.1992187 -0.1523438,-0.2929687 -0.3164063,-0.2929687 -0.1054687,0 -0.28125,0.058594 -0.375,0.2226562 -0.023437,0.058594 -0.1171875,0.3984375 -0.1523437,0.5976563 -0.082031,0.28125 -0.1523438,0.5742187 -0.2226563,0.8671875 l -0.4921875,1.96875 c -0.046875,0.16406245 -0.515625,0.9257812 -1.2304687,0.9257812 -0.5625,0 -0.6796875,-0.48046875 -0.6796875,-0.890625 0,-0.4921875 0.1875,-1.171875 0.5625,-2.1328125 0.1757812,-0.4453125 0.2109375,-0.5742187 0.2109375,-0.7851562 0,-0.4921875 -0.3515625,-0.9023438 -0.890625,-0.9023438 -1.04296878,0 -1.44140628,1.5820313 -1.44140628,1.6875 0,0.1054688 0.10546875,0.1054688 0.12890625,0.1054688 0.10546875,0 0.1171875,-0.023437 0.17578125,-0.1992188 0.29296875,-1.0195312 0.72656248,-1.3476562 1.10156248,-1.3476562 0.09375,0 0.2695313,0 0.2695313,0.3515625 0,0.2695312 -0.1054688,0.5507812 -0.1757813,0.7617187 -0.4453125,1.1601563 -0.6328125,1.78125 -0.6328125,2.2851563 0,0.9726562 0.6796875,1.3007812 1.3242188,1.3007812 0.421875,0 0.796875,-0.1875 1.1015625,-0.4921875 C 3.4695469,0.19965625 3.3406406,0.727 2.9070469,1.3129375 2.6140781,1.6762188 2.2039219,1.992625 1.7000156,1.992625 c -0.1523437,0 -0.6445312,-0.023437 -0.83203123,-0.4570312 0.17578123,0 0.31640623,0 0.48046873,-0.1289063 0.1054688,-0.09375 0.2109375,-0.234375 0.2109375,-0.4453125 0,-0.33984375 -0.2929687,-0.38671875 -0.3984375,-0.38671875 -0.25781248,0 -0.60937498,0.17578125 -0.60937498,0.71484375 0,0.5390625 0.48046878,0.9492188 1.14843748,0.9492188 1.125,0 2.25,-0.9960938 2.5546875,-2.22656255 z m 0,0"
       style="fill:#000000;fill-opacity:1;fill-rule:nonzero;stroke:none"
       aria-label="y"
       transform="matrix(1.3333333,0,0,1.3333333,214.288,100.53067)" />
    <path
       id="path8"
       d="m -35.43349,74.41037 c 0,0 0.155,-0.77361 0.21453,-1.06947 0.05952,-0.29586 0.15501,-0.7689 0.21453,-1.06295 0.05954,-0.29406 0.15502,-0.7642 0.21454,-1.05647 0.05953,-0.29227 0.15502,-0.75952 0.21454,-1.04998 0.05954,-0.29047 0.15502,-0.75484 0.21455,-1.04351 0.05953,-0.28867 0.155,-0.75015 0.21453,-1.03702 0.05954,-0.28686 0.15501,-0.74548 0.21455,-1.0305 0.05952,-0.28505 0.155,-0.7406 0.21452,-1.02383 0.05955,-0.28324 0.15502,-0.73609 0.21456,-1.01754 0.05952,-0.28147 0.155,-0.7314 0.21452,-1.01106 0.05954,-0.27966 0.15502,-0.72674 0.21456,-1.00458 0.05952,-0.27783 0.155,-0.72183 0.21452,-0.99784 0.05953,-0.27605 0.15501,-0.71738 0.21455,-0.99162 0.05953,-0.27421 0.15502,-0.71246 0.21454,-0.98487 0.05953,-0.27245 0.155,-0.70801 0.21453,-0.97864 0.05954,-0.27061 0.15501,-0.70306 0.21455,-0.97191 0.05952,-0.26883 0.155,-0.69861 0.21452,-0.96563 0.05955,-0.26703 0.15502,-0.6937 0.21455,-0.95893 0.05953,-0.26522 0.155,-0.68924 0.21453,-0.95267 0.05954,-0.26342 0.15501,-0.68434 0.21455,-0.94596 0.05953,-0.26163 0.15502,-0.67987 0.21454,-0.93969 0.05954,-0.25984 0.155,-0.675 0.21454,-0.933 0.05953,-0.25797 0.15502,-0.67028 0.21454,-0.9265 0.05954,-0.25619 0.155,-0.66558 0.21454,-0.91999 0.05952,-0.25443 0.15501,-0.66112 0.21454,-0.91374 0.05952,-0.25263 0.155,-0.65624 0.21452,-0.90702 0.05954,-0.2508 0.15503,-0.65156 0.21455,-0.90055 0.05953,-0.249 0.155,-0.64687 0.21453,-0.89406 0.05954,-0.24718 0.15501,-0.64218 0.21455,-0.88758 0.05953,-0.24537 0.15502,-0.63746 0.21454,-0.88107 0.05954,-0.24359 0.155,-0.63279 0.21454,-0.8746 0.05952,-0.24178 0.15501,-0.6281 0.21454,-0.86809 0.05954,-0.23999 0.155,-0.62343 0.21454,-0.86162 0.05952,-0.2382 0.15501,-0.61873 0.21453,-0.85513 0.05954,-0.23639 0.155,-0.61405 0.21454,-0.84863 0.05953,-0.23459 0.15502,-0.60936 0.21454,-0.84215 0.05953,-0.23279 0.155,-0.60467 0.21453,-0.83568 0.05953,-0.23097 0.15502,-0.59998 0.21455,-0.82916 0.05952,-0.2292 0.15502,-0.59534 0.21454,-0.8227 0.05954,-0.22737 0.155,-0.59042 0.21454,-0.81597 0.05952,-0.22556 0.15501,-0.58593 0.21454,-0.80971 0.05953,-0.22379 0.155,-0.58124 0.21453,-0.80322 0.05953,-0.22199 0.15502,-0.57659 0.21454,-0.79674 0.05954,-0.22016 0.155,-0.57167 0.21454,-0.79004 0.05952,-0.21834 0.15501,-0.5672 0.21454,-0.78375 0.05954,-0.21657 0.15501,-0.5623 0.21455,-0.77706 0.05953,-0.21476 0.155,-0.55783 0.21453,-0.77078 0.05952,-0.21296 0.15501,-0.55292 0.21455,-0.76408 0.05952,-0.21115 0.155,-0.54845 0.21452,-0.7578 0.05953,-0.20937 0.15502,-0.54356 0.21454,-0.75111 0.05954,-0.20756 0.155,-0.53908 0.21454,-0.74483 0.05952,-0.20575 0.15502,-0.53418 0.21454,-0.73813 0.05954,-0.20395 0.155,-0.52969 0.21454,-0.73186 0.05952,-0.20215 0.15501,-0.52481 0.21454,-0.72514 0.05954,-0.20032 0.15501,-0.52014 0.21455,-0.71866 0.05952,-0.19852 0.155,-0.51543 0.21452,-0.71219 0.05954,-0.19673 0.15502,-0.51092 0.21456,-0.70589 0.05952,-0.19494 0.155,-0.50608 0.21452,-0.69918 0.05954,-0.19313 0.15501,-0.50141 0.21455,-0.69272 0.05953,-0.19132 0.155,-0.49671 0.21453,-0.68624 0.05952,-0.18951 0.15501,-0.492 0.21454,-0.67971 0.05953,-0.18773 0.15501,-0.48734 0.21455,-0.67325 0.05952,-0.18593 0.155,-0.48264 0.21452,-0.66677 0.05954,-0.18411 0.15502,-0.47795 0.21456,-0.66026 0.05952,-0.18233 0.155,-0.47327 0.21452,-0.65378 0.05954,-0.18052 0.15501,-0.46858 0.21455,-0.6473 0.05953,-0.17872 0.155,-0.46389 0.21453,-0.6408 0.05954,-0.17691 0.15501,-0.4592 0.21455,-0.63431 0.05953,-0.17514 0.155,-0.45452 0.21452,-0.62785 0.05954,-0.17331 0.15502,-0.4498 0.21456,-0.62132 0.05952,-0.17151 0.15501,-0.44516 0.21454,-0.61485 0.05952,-0.16968 0.155,-0.44028 0.21452,-0.60816 0.05954,-0.16789 0.15503,-0.43576 0.21455,-0.60188 0.05953,-0.16611 0.155,-0.43106 0.21453,-0.59539 0.05953,-0.1643 0.15501,-0.4264 0.21455,-0.5889 0.05953,-0.16248 0.155,-0.4215 0.21452,-0.58219 0.05954,-0.16069 0.15502,-0.41704 0.21456,-0.57593 0.05952,-0.15888 0.155,-0.41214 0.21452,-0.56921 0.05954,-0.15709 0.15502,-0.40767 0.21456,-0.56296 0.05952,-0.15527 0.15501,-0.40276 0.21453,-0.55623 0.05954,-0.15348 0.155,-0.3983 0.21454,-0.54998 0.05953,-0.15168 0.15502,-0.39338 0.21454,-0.54327 0.05953,-0.14988 0.155,-0.38891 0.21454,-0.537 0.05952,-0.14808 0.15501,-0.384 0.21454,-0.53029 0.05953,-0.14627 0.155,-0.37953 0.21452,-0.52401 0.05954,-0.14447 0.15501,-0.37467 0.21456,-0.51733 0.05952,-0.14263 0.15501,-0.36997 0.21453,-0.51081 0.05954,-0.14086 0.155,-0.36528 0.21454,-0.50435 0.05953,-0.13907 0.15502,-0.36078 0.21454,-0.49806 0.05954,-0.13727 0.155,-0.35591 0.21454,-0.49137 0.05952,-0.13545 0.15501,-0.35122 0.21454,-0.48486 0.05954,-0.13367 0.155,-0.34655 0.21454,-0.47839 0.05952,-0.13186 0.15501,-0.34186 0.21454,-0.47191 0.05952,-0.13004 0.15499,-0.33716 0.21453,-0.46541 0.05953,-0.12824 0.15502,-0.33247 0.21455,-0.45892 0.05952,-0.12644 0.155,-0.32779 0.21453,-0.45244 0.05954,-0.12464 0.155,-0.32309 0.21454,-0.44594 0.05953,-0.12285 0.15501,-0.3184 0.21454,-0.43947 0.05954,-0.12103 0.21454,-0.43297 0.21454,-0.43297"
       style="fill:none;stroke:#eb0a36;stroke-width:0.79701;stroke-linecap:butt;stroke-linejoin:miter;stroke-miterlimit:10;stroke-dasharray:none;stroke-opacity:1"
       transform="matrix(1.3333333,0,0,-1.3333333,209.17333,212.19867)" />
    <path
       id="path9"
       d="m 14.17339,0 c 0,0 0.15501,0.31145 0.21455,0.43231 0.05952,0.12087 0.155,0.31613 0.21452,0.4388 0.05954,0.12266 0.15502,0.32085 0.21456,0.44529 0.05952,0.12449 0.155,0.32552 0.21452,0.45179 0.05954,0.12628 0.15501,0.33021 0.21456,0.45828 0.05952,0.12807 0.155,0.33489 0.21452,0.46475 0.05952,0.12988 0.15501,0.33957 0.21454,0.47127 0.05954,0.1317 0.15501,0.34447 0.21454,0.47795 0.05952,0.1335 0.15501,0.34896 0.21453,0.48422 0.05954,0.13527 0.15502,0.35366 0.21456,0.49071 0.05952,0.13709 0.155,0.35831 0.21452,0.49721 0.05954,0.1389 0.15501,0.3632 0.21455,0.50391 0.05953,0.1407 0.155,0.36769 0.21453,0.51017 0.05954,0.14251 0.15501,0.37259 0.21455,0.51688 0.05953,0.1443 0.155,0.37707 0.21452,0.52316 0.05954,0.14612 0.15502,0.38198 0.21456,0.52988 0.05952,0.14789 0.15501,0.38642 0.21454,0.53612 0.05952,0.1497 0.155,0.39132 0.21452,0.54283 0.05954,0.1515 0.15503,0.3958 0.21455,0.54912 0.05953,0.15329 0.155,0.40071 0.21453,0.55581 0.05954,0.15509 0.15501,0.40517 0.21455,0.56208 0.05953,0.1569 0.155,0.41006 0.21452,0.56878 0.05954,0.15874 0.15502,0.41474 0.21456,0.57528 0.05952,0.16052 0.155,0.41946 0.21452,0.58175 0.05954,0.16232 0.15502,0.42394 0.21456,0.58805 0.05952,0.1641 0.15501,0.4288 0.21453,0.59474 0.05954,0.16593 0.155,0.43348 0.21454,0.60122 0.05953,0.16774 0.15502,0.43819 0.21454,0.60773 0.05952,0.16952 0.155,0.44285 0.21454,0.6142 0.05952,0.17132 0.15501,0.44755 0.21454,0.62068 0.05952,0.17314 0.155,0.45224 0.21452,0.62719 0.05954,0.17493 0.15502,0.45693 0.21456,0.63366 0.05952,0.17674 0.15501,0.46162 0.21453,0.64016 0.05954,0.17855 0.155,0.4663 0.21454,0.64664 0.05953,0.18034 0.15502,0.47099 0.21454,0.65314 0.05954,0.18214 0.155,0.47569 0.21454,0.65962 0.05952,0.18394 0.15501,0.48036 0.21454,0.66611 0.05954,0.18573 0.155,0.48506 0.21454,0.67259 0.05952,0.18755 0.15501,0.48972 0.21453,0.67908 0.05955,0.18937 0.155,0.49461 0.21454,0.6858 0.05953,0.19117 0.15502,0.4991 0.21454,0.69205 0.05952,0.19295 0.15502,0.50383 0.21454,0.69856 0.05954,0.19473 0.155,0.50846 0.21454,0.70502 0.05952,0.19658 0.15501,0.51338 0.21454,0.71175 0.05954,0.19836 0.155,0.51785 0.21454,0.71801 0.05952,0.20018 0.15501,0.52275 0.21454,0.72474 0.05954,0.20196 0.15499,0.5272 0.21453,0.73098 0.05953,0.20377 0.15502,0.53211 0.21454,0.73769 0.05954,0.20558 0.155,0.53659 0.21454,0.74397 0.05953,0.20737 0.15501,0.54149 0.21454,0.75066 0.05954,0.20918 0.15501,0.54597 0.21455,0.75694 0.05953,0.21098 0.155,0.55087 0.21452,0.76364 0.05953,0.21277 0.15502,0.55535 0.21455,0.76993 0.05954,0.21457 0.15501,0.56021 0.21453,0.77663 0.05953,0.2164 0.15502,0.56487 0.21454,0.78309 0.05954,0.2182 0.155,0.56961 0.21454,0.78961 0.05953,0.21997 0.15502,0.57409 0.21454,0.79587 0.05954,0.22177 0.15501,0.57897 0.21455,0.80257 0.05953,0.2236 0.155,0.58365 0.21453,0.80907 0.05954,0.2254 0.15501,0.58834 0.21455,0.81555 0.05953,0.22721 0.155,0.59301 0.21452,0.82203 0.05955,0.22901 0.15502,0.59771 0.21456,0.82853 0.05952,0.2308 0.15499,0.6024 0.21452,0.835 0.05953,0.23262 0.15502,0.60712 0.21455,0.84151 0.05953,0.23442 0.155,0.61179 0.21453,0.84801 0.05952,0.2362 0.15501,0.61647 0.21454,0.85446 0.05954,0.23802 0.15501,0.62115 0.21455,0.86096 0.05953,0.23982 0.155,0.62585 0.21452,0.86746 0.05954,0.24163 0.15502,0.63054 0.21456,0.87395 0.05952,0.24341 0.155,0.63521 0.21452,0.88043 0.05954,0.24521 0.15502,0.63988 0.21455,0.88692 0.05953,0.24704 0.155,0.64477 0.21453,0.89361 0.05954,0.24884 0.15501,0.6493 0.21455,0.89991 0.05953,0.25063 0.155,0.65397 0.21453,0.90638 0.05952,0.25242 0.15501,0.65863 0.21455,0.91286 0.05952,0.25426 0.15501,0.66355 0.21454,0.91959 0.05952,0.25604 0.155,0.66801 0.21452,0.92584 0.05954,0.25786 0.15502,0.67293 0.21455,0.93256 0.05953,0.25964 0.155,0.67738 0.21453,0.93882 0.05954,0.26145 0.15501,0.68228 0.21455,0.94553 0.05953,0.26325 0.155,0.68675 0.21453,0.9518 0.05954,0.26504 0.15501,0.69166 0.21455,0.95851 0.05952,0.26684 0.15502,0.69612 0.21454,0.96477 0.05954,0.26866 0.155,0.70103 0.21454,0.97147 0.05952,0.27045 0.15501,0.70551 0.21454,0.97776 0.05953,0.27224 0.155,0.71039 0.21453,0.98447 0.05953,0.27407 0.15502,0.71505 0.21454,0.99093 0.05953,0.27588 0.155,0.71979 0.21453,0.99744 0.05954,0.27765 0.15502,0.72426 0.21455,1.0037 0.05952,0.27946 0.155,0.72912 0.21452,1.01041 0.05954,0.28129 0.15502,0.73381 0.21456,1.01691 0.05952,0.28307 0.15501,0.7385 0.21453,1.02338 0.05954,0.28488 0.155,0.74319 0.21454,1.02987 0.05953,0.28667 0.15502,0.74788 0.21454,1.03635 0.05954,0.28848 0.155,0.75258 0.21454,1.04285 0.05952,0.29028 0.15502,0.75726 0.21454,1.04933 0.05954,0.2921 0.155,0.76196 0.21454,1.05585 0.05952,0.29388 0.15501,0.76661 0.21454,1.0623 0.05952,0.29568 0.21453,1.0688 0.21453,1.0688"
       style="fill:none;stroke:#eb0a36;stroke-width:0.79701;stroke-linecap:butt;stroke-linejoin:miter;stroke-miterlimit:10;stroke-dasharray:none;stroke-opacity:1"
       transform="matrix(1.3333333,0,0,-1.3333333,209.17333,212.19867)" />
    <path
       id="path10"
       d="m -14.17339,0 c 0,0 0.20673,0.41101 0.28612,0.56662 0.07939,0.15561 0.20673,0.40256 0.28613,0.55493 0.07938,0.15238 0.20673,0.39411 0.28612,0.54328 0.07939,0.14915 0.20673,0.38581 0.28612,0.53181 0.07939,0.14596 0.20674,0.37756 0.28612,0.52032 0.0794,0.14278 0.20674,0.36911 0.28613,0.50869 0.07939,0.13954 0.20674,0.36084 0.28612,0.49719 0.0794,0.13634 0.20674,0.35237 0.28613,0.48552 0.07939,0.13313 0.20674,0.34411 0.28612,0.47407 0.0794,0.12995 0.20672,0.33583 0.28613,0.46259 0.07939,0.12674 0.20673,0.32739 0.28612,0.45093 0.07939,0.12353 0.20673,0.31913 0.28613,0.43945 0.07938,0.12033 0.20673,0.31067 0.28612,0.4278 0.07939,0.1171 0.20672,0.30241 0.28613,0.4163 0.07938,0.11391 0.20673,0.29395 0.28612,0.40465 0.07939,0.11067 0.20673,0.28566 0.28613,0.39315 0.07938,0.10752 0.20673,0.27743 0.2861,0.38174 0.07941,0.10429 0.20675,0.26895 0.28614,0.37002 0.07939,0.10109 0.20674,0.2607 0.28611,0.35858 0.07941,0.09787 0.20675,0.25223 0.28614,0.3469 0.07939,0.09466 0.20674,0.24396 0.28611,0.33543 0.07941,0.09149 0.20675,0.23569 0.28614,0.32398 0.07939,0.08827 0.20672,0.22721 0.28612,0.31228 0.0794,0.08507 0.20672,0.21898 0.28613,0.30084 0.07937,0.08185 0.20672,0.2105 0.28611,0.28914 0.0794,0.07866 0.20673,0.20226 0.28614,0.27769 0.07937,0.07543 0.20672,0.19375 0.28612,0.26601 0.07939,0.07225 0.20672,0.18573 0.28613,0.25476 0.07938,0.06905 0.20673,0.17708 0.28611,0.24288 0.0794,0.06581 0.20673,0.16878 0.28612,0.23141 0.0794,0.06263 0.20675,0.16051 0.28612,0.21994 0.07941,0.05945 0.20674,0.15226 0.28613,0.20848 0.0794,0.05623 0.20675,0.14383 0.28612,0.19682 0.07941,0.05299 0.20674,0.13534 0.28613,0.18513 0.0794,0.04977 0.20675,0.12707 0.28612,0.17366 0.07941,0.0466 0.20673,0.11881 0.28614,0.16218 0.07939,0.0434 0.20672,0.11035 0.28612,0.15055 0.0794,0.04018 0.20672,0.10206 0.28613,0.13905 0.07937,0.03699 0.20672,0.09383 0.28611,0.12759 0.07939,0.0338 0.20673,0.08534 0.28614,0.11592 0.07937,0.03057 0.20672,0.07711 0.28612,0.10447 0.07938,0.02737 0.20672,0.06862 0.28613,0.09279 0.07937,0.02413 0.20672,0.06036 0.28611,0.08131 0.0794,0.02093 0.20673,0.05189 0.28612,0.06964 0.07939,0.01771 0.20674,0.04363 0.28612,0.05817 0.07941,0.01455 0.20674,0.03538 0.28613,0.04672 0.07939,0.01134 0.20674,0.02693 0.28612,0.03502 0.07941,0.0081 0.20674,0.01845 0.28613,0.02337 0.07939,0.0049 0.20673,0.01037 0.28612,0.01211 0.07941,0.0017 0.2067,0.0019 0.28609,4.4e-4 0.0794,-0.0015 0.20673,-0.0065 0.28613,-0.01126 0.07938,-0.0047 0.20673,-0.01482 0.28612,-0.02271 0.07939,-0.0079 0.20672,-0.02307 0.28613,-0.03416 C 1.07053,14.0931 1.19788,14.07265 1.27727,14.05833 1.35666,14.04402 1.484,14.01851 1.5634,14.00102 1.64278,13.98354 1.77013,13.95296 1.84952,13.93225 1.92891,13.91154 2.05624,13.87573 2.13564,13.85179 2.21503,13.82785 2.34238,13.78682 2.42175,13.75967 2.50116,13.73251 2.6285,13.68642 2.70789,13.65608 2.78728,13.62573 2.91463,13.57457 2.994,13.54102 3.07341,13.50748 3.20074,13.45103 3.28014,13.41428 3.35953,13.37752 3.48688,13.31602 3.56625,13.2761 3.64566,13.23616 3.77298,13.16957 3.85239,13.12643 3.93178,13.08328 4.05911,13.01146 4.1385,12.96509 4.2179,12.91875 4.34523,12.84186 4.42464,12.7923 4.50401,12.74274 4.63136,12.6606 4.71075,12.60782 4.79015,12.55504 4.91748,12.46786 4.99689,12.41188 5.07626,12.35588 5.20361,12.26346 5.283,12.20427 5.3624,12.14507 5.48973,12.04756 5.56914,11.98518 5.64851,11.92279 5.77586,11.82024 5.85524,11.75464 5.93465,11.68906 6.06198,11.58122 6.14137,11.51242 6.22076,11.44362 6.34811,11.33073 6.42749,11.25873 6.5069,11.18672 6.63423,11.0686 6.71362,10.99336 6.79301,10.91815 6.92036,10.79495 6.99974,10.71655 7.07915,10.63814 7.20648,10.50987 7.28587,10.42825 7.36526,10.34663 7.4926,10.21315 7.57199,10.1283 7.6514,10.04344 7.77872,9.9047 7.85812,9.81665 7.93752,9.72862 8.06485,9.585 8.14424,9.49376 8.22363,9.40251 8.35097,9.25343 8.43037,9.15897 8.50975,9.06451 8.6371,8.91058 8.71649,8.81294 8.79588,8.71532 8.92322,8.55609 9.00262,8.45525 9.082,8.35439 9.20935,8.19012 9.28874,8.08606 9.36813,7.98201 9.49547,7.81248 9.57486,7.70522 9.65425,7.59795 9.7816,7.42339 9.86098,7.3129 9.94038,7.20244 10.06772,7.02261 10.14711,6.9089 10.2265,6.79521 10.35385,6.61037 10.43323,6.49345 10.51263,6.37656 10.63997,6.1864 10.71936,6.06633 10.79875,5.94624 10.9261,5.75125 11.00548,5.62794 11.08488,5.50465 11.2122,5.30418 11.29161,5.17767 11.371,5.05118 11.49834,4.84589 11.57773,4.71616 11.65714,4.58644 11.78445,4.37567 11.86386,4.24274 11.94324,4.10982 12.07059,3.8942 12.14998,3.75809 12.22937,3.62198 12.3567,3.40111 12.43611,3.26176 12.51549,3.1224 12.64284,2.89626 12.72223,2.75374 12.80162,2.6112 12.92896,2.38022 13.00836,2.23447 13.08774,2.08873 13.21509,1.85226 13.29448,1.70331 13.37387,1.55437 13.5012,1.31305 13.5806,1.16092 13.65999,1.00877 13.78734,0.7622 13.86671,0.60684 13.94612,0.45146 14.15283,0.04108 14.15283,0.04108"
       style="fill:none;stroke:#eb0a36;stroke-width:0.79701;stroke-linecap:butt;stroke-linejoin:miter;stroke-miterlimit:10;stroke-dasharray:none;stroke-opacity:1"
       transform="matrix(1.3333333,0,0,-1.3333333,209.17333,212.19867)" />
    <g
       id="g10"
       aria-label="y=|x&#10;2&#10;−1|"
       transform="matrix(1.3333333,0,0,1.3333333,250.51067,197.04667)">
      <path
         id="path11"
         d="m 4.8406328,-3.7967187 c 0.046875,-0.140625 0.046875,-0.1523438 0.046875,-0.2226563 0,-0.1875 -0.140625,-0.2695312 -0.2929687,-0.2695312 -0.1054688,0 -0.2578125,0.058594 -0.3515625,0.1992187 -0.023437,0.058594 -0.09375,0.3632813 -0.140625,0.5390625 -0.070312,0.2578125 -0.140625,0.5273438 -0.1992188,0.796875 l -0.4453125,1.79296875 c -0.035156,0.15234375 -0.46875,0.85546875 -1.125,0.85546875 -0.5039062,0 -0.6210937,-0.4453125 -0.6210937,-0.80859375 0,-0.45703125 0.1757812,-1.07812495 0.515625,-1.95703125 0.1523437,-0.4101562 0.1992187,-0.515625 0.1992187,-0.7148437 0,-0.4453125 -0.328125,-0.8203125 -0.8203125,-0.8203125 -0.94921874,0 -1.31249999,1.453125 -1.31249999,1.5351562 0,0.1054688 0.09375,0.1054688 0.1171875,0.1054688 0.09375,0 0.10546875,-0.023437 0.15234375,-0.1875 0.26953125,-0.9375 0.66796874,-1.2304688 1.00781254,-1.2304688 0.082031,0 0.2578125,0 0.2578125,0.3164063 0,0.2460937 -0.1054688,0.515625 -0.1757813,0.703125 -0.3984375,1.0546875 -0.5742187,1.6171875 -0.5742187,2.0859375 0,0.89062495 0.6210937,1.1835937 1.21875,1.1835937 0.3867187,0 0.7265625,-0.1640625 0.9960937,-0.4453125 C 3.1648516,0.1759375 3.0476641,0.668125 2.6492266,1.1954688 2.3914141,1.5353125 2.0164141,1.8282813 1.5593828,1.8282813 c -0.140625,0 -0.59765624,-0.035156 -0.76171874,-0.421875 0.1640625,0 0.29296874,0 0.43359374,-0.1171875 0.09375,-0.09375 0.1992188,-0.2226563 0.1992188,-0.4101563 0,-0.31640625 -0.2695313,-0.3515625 -0.375,-0.3515625 -0.22265629,0 -0.55078129,0.1640625 -0.55078129,0.6445313 0,0.5039062 0.43359375,0.8671875 1.05468749,0.8671875 1.0195313,0 2.0507813,-0.9023438 2.3320313,-2.0273438 z m 0,0"
         style="fill:#eb0a36;fill-opacity:1;fill-rule:nonzero;stroke:none" />
      <path
         id="path12"
         d="m 14.857234,-3.2576562 c 0.152344,0 0.339844,0 0.339844,-0.1992188 0,-0.1992187 -0.1875,-0.1992187 -0.328125,-0.1992187 H 8.9041094 c -0.140625,0 -0.328125,0 -0.328125,0.1992187 0,0.1992188 0.1875,0.1992188 0.3398437,0.1992188 z m 0.01172,1.9335937 c 0.140625,0 0.328125,0 0.328125,-0.1992187 0,-0.1992188 -0.1875,-0.1992188 -0.339844,-0.1992188 H 8.9158281 c -0.1523437,0 -0.3398437,0 -0.3398437,0.1992188 0,0.1992187 0.1875,0.1992187 0.328125,0.1992187 z m 0,0"
         style="fill:#eb0a36;fill-opacity:1;fill-rule:nonzero;stroke:none" />
      <path
         id="path13"
         d="m 20.104305,-7.113125 c 0,-0.1757812 0,-0.3632812 -0.199219,-0.3632812 -0.199219,0 -0.199219,0.1875 -0.199219,0.3632812 v 9.2460938 c 0,0.1757812 0,0.3632812 0.199219,0.3632812 0.199219,0 0.199219,-0.1875 0.199219,-0.3632812 z m 0,0"
         style="fill:#eb0a36;fill-opacity:1;fill-rule:nonzero;stroke:none" />
      <path
         id="path14"
         d="m 24.616023,-3.0115625 c 0.05859,-0.2578125 0.292969,-1.171875 0.984375,-1.171875 0.04687,0 0.292969,0 0.503907,0.1289063 -0.28125,0.046875 -0.480469,0.3046875 -0.480469,0.5390625 0,0.1640625 0.105469,0.3515625 0.375,0.3515625 0.222656,0 0.539062,-0.1875 0.539062,-0.5859375 0,-0.515625 -0.585937,-0.65625 -0.925781,-0.65625 -0.574219,0 -0.925781,0.5273437 -1.042969,0.7617187 -0.257812,-0.65625 -0.785156,-0.7617187 -1.078125,-0.7617187 -1.042968,0 -1.605468,1.2890625 -1.605468,1.5351562 0,0.1054688 0.105468,0.1054688 0.117187,0.1054688 0.08203,0 0.117188,-0.023437 0.128906,-0.1171875 0.339844,-1.0546875 0.996094,-1.3007813 1.335938,-1.3007813 0.1875,0 0.539062,0.09375 0.539062,0.6679688 0,0.3046875 -0.164062,0.9726562 -0.539062,2.3671875 -0.152344,0.6210937 -0.503906,1.0429687 -0.949219,1.0429687 -0.05859,0 -0.28125,0 -0.492187,-0.12890625 0.246093,-0.0585937 0.46875,-0.26953125 0.46875,-0.5390625 0,-0.26953125 -0.222657,-0.35156245 -0.375,-0.35156245 -0.292969,0 -0.539063,0.25781245 -0.539063,0.5742187 0,0.45703125 0.492188,0.65625 0.9375,0.65625 0.65625,0 1.007813,-0.69140625 1.042969,-0.75 0.117187,0.36328125 0.480469,0.75 1.078125,0.75 1.019531,0 1.59375,-1.2773437 1.59375,-1.5351562 0,-0.09375 -0.09375,-0.09375 -0.128906,-0.09375 -0.08203,0 -0.105469,0.035156 -0.128907,0.1054687 -0.328125,1.06640625 -0.996093,1.3125 -1.324218,1.3125 -0.386719,0 -0.539063,-0.328125 -0.539063,-0.65625 0,-0.22265625 0.05859,-0.4453125 0.164063,-0.8789062 z m 0,0"
         style="fill:#eb0a36;fill-opacity:1;fill-rule:nonzero;stroke:none" />
      <path
         id="path15"
         d="m 30.501766,-4.8807031 h -0.234375 c -0.02344,0.1523437 -0.08203,0.5625 -0.175782,0.6328125 -0.05859,0.035156 -0.597656,0.035156 -0.691406,0.035156 h -1.289062 c 0.738281,-0.6445312 0.984375,-0.84375 1.394531,-1.171875 0.515625,-0.4101562 0.996094,-0.84375 0.996094,-1.5 0,-0.84375 -0.738282,-1.359375 -1.628907,-1.359375 -0.867187,0 -1.453125,0.609375 -1.453125,1.2421875 0,0.3632813 0.304688,0.3984375 0.375,0.3984375 0.164063,0 0.375,-0.1171875 0.375,-0.375 0,-0.1289062 -0.05859,-0.3632812 -0.421875,-0.3632812 0.222657,-0.5039063 0.691407,-0.65625 1.019532,-0.65625 0.703125,0 1.066406,0.5507812 1.066406,1.1132812 0,0.609375 -0.433594,1.0898438 -0.65625,1.3359375 l -1.6875,1.6640625 c -0.07031,0.058594 -0.07031,0.070312 -0.07031,0.2695313 h 2.882813 z m 0,0"
         style="fill:#eb0a36;fill-opacity:1;fill-rule:nonzero;stroke:none" />
      <path
         id="path16"
         d="m 40.231258,-2.2967187 c 0.175781,0 0.351562,0 0.351562,-0.1992188 0,-0.1992187 -0.175781,-0.1992187 -0.351562,-0.1992187 h -5.390625 c -0.164063,0 -0.339844,0 -0.339844,0.1992187 0,0.1992188 0.175781,0.1992188 0.339844,0.1992188 z m 0,0"
         style="fill:#eb0a36;fill-opacity:1;fill-rule:nonzero;stroke:none" />
      <path
         id="path17"
         d="m 46.559383,-6.3748437 c 0,-0.234375 0,-0.2578125 -0.234375,-0.2578125 -0.609375,0.6328125 -1.488281,0.6328125 -1.804688,0.6328125 v 0.3164062 c 0.199219,0 0.785157,0 1.300782,-0.2578125 V -0.785 c 0,0.3515625 -0.03516,0.48046875 -0.925782,0.48046875 H 44.578914 V 1.5625e-4 C 44.930477,-0.035 45.785945,-0.035 46.184383,-0.035 c 0.398437,0 1.265625,0 1.617187,0.03515625 v -0.3046875 h -0.316406 c -0.902344,0 -0.925781,-0.1171875 -0.925781,-0.48046875 z m 0,0"
         style="fill:#eb0a36;fill-opacity:1;fill-rule:nonzero;stroke:none" />
      <path
         id="path18"
         d="m 50.195125,-7.113125 c 0,-0.1757812 0,-0.3632812 -0.199219,-0.3632812 -0.199219,0 -0.199219,0.1875 -0.199219,0.3632812 v 9.2460938 c 0,0.1757812 0,0.3632812 0.199219,0.3632812 0.199219,0 0.199219,-0.1875 0.199219,-0.3632812 z m 0,0"
         style="fill:#eb0a36;fill-opacity:1;fill-rule:nonzero;stroke:none" />
    </g>
  </g>
</svg>
