<?xml version="1.0" encoding="UTF-8" standalone="no"?>
<!-- Created with Inkscape (http://www.inkscape.org/) -->

<svg
   version="1.1"
   id="svg1"
   width="298.31882"
   height="102.98809"
   viewBox="0 0 298.31882 102.98809"
   sodipodi:docname="1.3-ejemplo-seno1.svg"
   inkscape:version="1.4.2 (f4327f4, 2025-05-13)"
   xmlns:inkscape="http://www.inkscape.org/namespaces/inkscape"
   xmlns:sodipodi="http://sodipodi.sourceforge.net/DTD/sodipodi-0.dtd"
   xmlns="http://www.w3.org/2000/svg"
   xmlns:svg="http://www.w3.org/2000/svg">
  <defs
     id="defs1" />
  <sodipodi:namedview
     id="namedview1"
     pagecolor="#ffffff"
     bordercolor="#000000"
     borderopacity="0.25"
     inkscape:showpageshadow="2"
     inkscape:pageopacity="0.0"
     inkscape:pagecheckerboard="0"
     inkscape:deskcolor="#d1d1d1"
     inkscape:zoom="2.2241536"
     inkscape:cx="152.19273"
     inkscape:cy="73.51111"
     inkscape:window-width="1920"
     inkscape:window-height="1009"
     inkscape:window-x="-8"
     inkscape:window-y="-8"
     inkscape:window-maximized="1"
     inkscape:current-layer="g1">
    <inkscape:page
       x="0"
       y="0"
       inkscape:label="12"
       id="page1"
       width="298.31882"
       height="102.98809"
       margin="0"
       bleed="0" />
  </sodipodi:namedview>
  <g
     id="g1"
     inkscape:groupmode="layer"
     inkscape:label="12"
     transform="translate(-90.118683,-107.69922)">
    <path
       id="path2"
       d="M -73.70099,0 H 146.94373"
       style="fill:none;stroke:#000000;stroke-width:0.3985;stroke-linecap:butt;stroke-linejoin:miter;stroke-miterlimit:10;stroke-dasharray:none;stroke-opacity:1"
       transform="matrix(1.3333333,0,0,-1.3333333,188.38667,161.55333)" />
    <path
       id="path3"
       d="M -1.19551,1.59401 C -1.09587,0.99626 0,0.09961 0.29886,0 0,-0.09961 -1.09587,-0.99626 -1.19551,-1.59401"
       style="fill:none;stroke:#000000;stroke-width:0.31879;stroke-linecap:round;stroke-linejoin:round;stroke-miterlimit:10;stroke-dasharray:none;stroke-opacity:1"
       transform="matrix(1.3333333,0,0,-1.3333333,384.31164,161.55333)" />
    <path
       id="path4"
       d="m 3.64575,-3.2927031 c 0.070312,-0.28125 0.3164063,-1.2890625 1.078125,-1.2890625 0.058594,0 0.3164063,0 0.5507813,0.140625 -0.3046875,0.058594 -0.5273438,0.328125 -0.5273438,0.5859375 0,0.1757812 0.1171875,0.3867187 0.4101563,0.3867187 0.2460937,0 0.5976562,-0.1992187 0.5976562,-0.6328125 0,-0.5625 -0.6445312,-0.7265625 -1.0195312,-0.7265625 -0.6328125,0 -1.0195313,0.5859375 -1.1484375,0.8320313 -0.2695313,-0.7148438 -0.8554688,-0.8320313 -1.171875,-0.8320313 -1.1367188,0 -1.75781255,1.4179688 -1.75781255,1.6875 0,0.1054688 0.10546875,0.1054688 0.12890625,0.1054688 0.0820313,0 0.1171875,-0.023437 0.140625,-0.1171875 0.375,-1.1601563 1.0898438,-1.4296875 1.4648438,-1.4296875 0.2109375,0 0.5859375,0.09375 0.5859375,0.7265625 0,0.3398437 -0.1875,1.078125 -0.5859375,2.6015625 -0.1757813,0.67968747 -0.5625,1.13671872 -1.0429688,1.13671872 -0.058594,0 -0.3164062,0 -0.5390625,-0.140625 0.2695313,-0.0585938 0.515625,-0.29296875 0.515625,-0.59765625 0,-0.29296877 -0.2460937,-0.37499997 -0.41015625,-0.37499997 -0.328125,0 -0.59765625,0.28124997 -0.59765625,0.63281247 0,0.50390625 0.55078125,0.71484375 1.03125,0.71484375 0.7148438,0 1.1015625,-0.76171875 1.1367188,-0.83203125 0.1289062,0.41015625 0.5273437,0.83203125 1.1835937,0.83203125 1.125,0 1.7460938,-1.40625002 1.7460938,-1.67578122 0,-0.1054688 -0.1054688,-0.1054688 -0.1289063,-0.1054688 -0.1054687,0 -0.1289062,0.035156 -0.140625,0.1171875 -0.3632812,1.16015627 -1.1132812,1.42968752 -1.453125,1.42968752 -0.4335937,0 -0.609375,-0.3515625 -0.609375,-0.7265625 0,-0.23437502 0.070312,-0.48046872 0.1875,-0.96093752 z m 0,0"
       style="fill:#000000;fill-opacity:1;fill-rule:nonzero;stroke:none"
       aria-label="x"
       transform="matrix(1.3333333,0,0,1.3333333,380.764,172.92933)" />
    <path
       id="path5"
       d="M -57.85526,-1.84262 V 1.84262"
       style="fill:none;stroke:#000000;stroke-width:0.3985;stroke-linecap:butt;stroke-linejoin:miter;stroke-miterlimit:10;stroke-dasharray:none;stroke-opacity:1"
       transform="matrix(1.3333333,0,0,-1.3333333,188.38667,161.55333)" />
    <path
       id="path6"
       d="M -28.92776,-1.84262 V 1.84262"
       style="fill:none;stroke:#000000;stroke-width:0.3985;stroke-linecap:butt;stroke-linejoin:miter;stroke-miterlimit:10;stroke-dasharray:none;stroke-opacity:1"
       transform="matrix(1.3333333,0,0,-1.3333333,188.38667,161.55333)" />
    <path
       id="path7"
       d="M 28.92776,-1.84262 V 1.84262"
       style="fill:none;stroke:#000000;stroke-width:0.3985;stroke-linecap:butt;stroke-linejoin:miter;stroke-miterlimit:10;stroke-dasharray:none;stroke-opacity:1"
       transform="matrix(1.3333333,0,0,-1.3333333,188.38667,161.55333)" />
    <path
       id="path8"
       d="M 57.85526,-1.84262 V 1.84262"
       style="fill:none;stroke:#000000;stroke-width:0.3985;stroke-linecap:butt;stroke-linejoin:miter;stroke-miterlimit:10;stroke-dasharray:none;stroke-opacity:1"
       transform="matrix(1.3333333,0,0,-1.3333333,188.38667,161.55333)" />
    <path
       id="path9"
       d="M 86.78304,-1.84262 V 1.84262"
       style="fill:none;stroke:#000000;stroke-width:0.3985;stroke-linecap:butt;stroke-linejoin:miter;stroke-miterlimit:10;stroke-dasharray:none;stroke-opacity:1"
       transform="matrix(1.3333333,0,0,-1.3333333,188.38667,161.55333)" />
    <path
       id="path10"
       d="M 115.71056,-1.84262 V 1.84262"
       style="fill:none;stroke:#000000;stroke-width:0.3985;stroke-linecap:butt;stroke-linejoin:miter;stroke-miterlimit:10;stroke-dasharray:none;stroke-opacity:1"
       transform="matrix(1.3333333,0,0,-1.3333333,188.38667,161.55333)" />
    <path
       id="path11"
       d="M 0,-36.85048 V 36.39221"
       style="fill:none;stroke:#000000;stroke-width:0.3985;stroke-linecap:butt;stroke-linejoin:miter;stroke-miterlimit:10;stroke-dasharray:none;stroke-opacity:1"
       transform="matrix(1.3333333,0,0,-1.3333333,188.38667,161.55333)" />
    <path
       id="path12"
       d="M -1.19551,1.59401 C -1.09587,0.99626 0,0.09961 0.29886,0 0,-0.09961 -1.09587,-0.99626 -1.19551,-1.59401"
       style="fill:none;stroke:#000000;stroke-width:0.31879;stroke-linecap:round;stroke-linejoin:round;stroke-miterlimit:10;stroke-dasharray:none;stroke-opacity:1"
       transform="matrix(0,-1.3333333,-1.3333333,0,188.38667,113.03039)" />
    <path
       id="path13"
       d="m 5.2976953,-4.1606172 c 0.046875,-0.1523437 0.046875,-0.1757812 0.046875,-0.2460937 0,-0.1992188 -0.1523437,-0.2929688 -0.3164062,-0.2929688 -0.1054688,0 -0.28125,0.058594 -0.375,0.2226563 -0.023437,0.058594 -0.1171875,0.3984375 -0.1523438,0.5976562 -0.082031,0.28125 -0.1523437,0.5742188 -0.2226562,0.8671875 l -0.4921875,1.96875 c -0.046875,0.16406251 -0.515625,0.92578126 -1.2304688,0.92578126 -0.5625,0 -0.6796875,-0.48046875 -0.6796875,-0.89062496 0,-0.4921875 0.1875,-1.171875 0.5625,-2.1328125 0.1757813,-0.4453125 0.2109375,-0.5742188 0.2109375,-0.7851563 0,-0.4921875 -0.3515625,-0.9023437 -0.890625,-0.9023437 -1.04296874,0 -1.44140624,1.5820312 -1.44140624,1.6875 0,0.1054687 0.10546875,0.1054687 0.12890625,0.1054687 0.10546875,0 0.1171875,-0.023437 0.17578125,-0.1992187 0.29296875,-1.0195313 0.72656254,-1.3476563 1.10156254,-1.3476563 0.09375,0 0.2695312,0 0.2695312,0.3515625 0,0.2695313 -0.1054687,0.5507813 -0.1757812,0.7617188 -0.4453125,1.1601562 -0.6328125,1.78125 -0.6328125,2.2851562 0,0.97265626 0.6796875,1.30078126 1.3242187,1.30078126 0.421875,0 0.796875,-0.1875 1.1015625,-0.4921875 -0.140625,0.57421875 -0.2695312,1.1015625 -0.703125,1.68750004 -0.2929687,0.3632812 -0.703125,0.6796875 -1.2070312,0.6796875 -0.1523438,0 -0.6445313,-0.023437 -0.83203129,-0.4570313 0.17578129,0 0.31640629,0 0.48046879,-0.1289062 0.1054687,-0.09375 0.2109375,-0.234375 0.2109375,-0.44531254 0,-0.33984375 -0.2929688,-0.38671875 -0.3984375,-0.38671875 -0.25781254,0 -0.60937504,0.17578125 -0.60937504,0.71484379 0,0.5390625 0.48046874,0.9492187 1.14843754,0.9492187 1.125,0 2.25,-0.9960937 2.5546875,-2.22656249 z m 0,0"
       style="fill:#000000;fill-opacity:1;fill-rule:nonzero;stroke:none"
       aria-label="y"
       transform="matrix(1.3333333,0,0,1.3333333,175.62,114.13733)" />
    <path
       id="path14"
       d="m 2.6365938,-3.7138047 h 1.125 c -0.328125,1.4765625 -0.4101563,1.8984375 -0.4101563,2.5664063 0,0.15234371 0,0.42187496 0.070312,0.76171871 0.1054688,0.43359375 0.2109375,0.4921875 0.3632813,0.4921875 0.1992187,0 0.4101562,-0.17578125 0.4101562,-0.375 0,-0.0585938 0,-0.0820313 -0.058594,-0.22265625 C 3.843625,-1.2059922 3.843625,-1.8505234 3.843625,-2.1317734 c 0,-0.5273438 0.070312,-1.0664063 0.1757813,-1.5820313 H 5.156125 c 0.1289063,0 0.4921875,0 0.4921875,-0.3398437 0,-0.234375 -0.2109375,-0.234375 -0.3984375,-0.234375 H 1.9100313 c -0.2109375,0 -0.5976563,0 -1.03125005,0.46875 -0.3515625,0.3867187 -0.609375,0.84375 -0.609375,0.890625 0,0.011719 0,0.1054687 0.1171875,0.1054687 0.0820313,0 0.10546875,-0.046875 0.1640625,-0.1289062 C 1.031125,-3.7138047 1.6170625,-3.7138047 1.8162813,-3.7138047 h 0.5625 c -0.3164063,1.2070313 -0.8554688,2.4140625 -1.2773438,3.31640626 -0.070312,0.15234375 -0.070312,0.1640625 -0.070312,0.234375 0,0.19921875 0.1523438,0.26953125 0.28125,0.26953125 0.3046875,0 0.3867188,-0.26953125 0.5039063,-0.64453125 0.140625,-0.45703125 0.140625,-0.48046876 0.2695312,-0.97265626 z m 0,0"
       style="fill:#000000;fill-opacity:1;fill-rule:nonzero;stroke:none"
       aria-label="π"
       transform="matrix(1.3333333,0,0,1.3333333,258.06267,172.38533)" />
    <g
       id="g14"
       aria-label="−π"
       transform="matrix(1.3333333,0,0,1.3333333,95.670667,174.41467)">
      <path
         id="path15"
         d="m 6.5634063,-2.2973281 c 0.1757812,0 0.3515625,0 0.3515625,-0.1992188 0,-0.1992187 -0.1757813,-0.1992187 -0.3515625,-0.1992187 h -5.390625 c -0.1640625,0 -0.3398438,0 -0.3398438,0.1992187 0,0.1992188 0.1757813,0.1992188 0.3398438,0.1992188 z m 0,0"
         style="fill:#000000;fill-opacity:1;fill-rule:nonzero;stroke:none" />
      <path
         id="path16"
         d="m 10.386648,-3.7152969 h 1.125 c -0.328125,1.4765625 -0.410156,1.8984375 -0.410156,2.5664063 0,0.15234373 0,0.42187498 0.07031,0.76171873 0.105468,0.43359375 0.210937,0.4921875 0.363281,0.4921875 0.199219,0 0.410156,-0.17578125 0.410156,-0.375 0,-0.0585938 0,-0.0820313 -0.05859,-0.22265625 C 11.59368,-1.2074844 11.59368,-1.8520156 11.59368,-2.1332656 c 0,-0.5273438 0.07031,-1.0664063 0.175781,-1.5820313 h 1.136719 c 0.128906,0 0.492187,0 0.492187,-0.3398437 0,-0.234375 -0.210937,-0.234375 -0.398437,-0.234375 H 9.6600859 c -0.2109375,0 -0.5976562,0 -1.03125,0.46875 -0.3515625,0.3867187 -0.609375,0.84375 -0.609375,0.890625 0,0.011719 0,0.1054687 0.1171875,0.1054687 0.082031,0 0.1054688,-0.046875 0.1640625,-0.1289062 0.4804688,-0.7617188 1.0664063,-0.7617188 1.265625,-0.7617188 h 0.5625001 c -0.3164063,1.2070313 -0.8554688,2.4140625 -1.2773438,3.31640628 -0.070312,0.15234375 -0.070312,0.1640625 -0.070312,0.234375 0,0.19921875 0.1523437,0.26953125 0.28125,0.26953125 0.3046875,0 0.3867187,-0.26953125 0.5039062,-0.64453125 0.140625,-0.45703125 0.140625,-0.48046878 0.2695313,-0.97265628 z m 0,0"
         style="fill:#000000;fill-opacity:1;fill-rule:nonzero;stroke:none" />
    </g>
    <g
       id="g16"
       aria-label="−&#10;π"
       transform="matrix(1.3333333,0,0,1.3333333,141.504,175.9)">
      <path
         id="path17"
         d="m 6.5624297,-2.2980469 c 0.1757812,0 0.3515625,0 0.3515625,-0.1992187 0,-0.1992188 -0.1757813,-0.1992188 -0.3515625,-0.1992188 h -5.390625 c -0.1640625,0 -0.33984376,0 -0.33984376,0.1992188 0,0.1992187 0.17578126,0.1992187 0.33984376,0.1992187 z m 0,0"
         style="fill:#000000;fill-opacity:1;fill-rule:nonzero;stroke:none" />
      <path
         id="path18"
         d="m 11.112234,-6.4552734 h 0.832032 c -0.105469,0.421875 -0.257813,1.0546875 -0.257813,1.6054687 0,0.28125 0.03516,0.46875 0.07031,0.6210938 0.117187,0.3515625 0.210937,0.375 0.316406,0.375 0.164062,0 0.328125,-0.1523438 0.328125,-0.3164063 0,-0.058594 -0.01172,-0.082031 -0.05859,-0.1523437 -0.128906,-0.2578125 -0.257812,-0.65625 -0.257812,-1.2304688 0,-0.1289062 0,-0.4101562 0.105468,-0.9023437 h 0.867188 c 0.128906,0 0.1875,0 0.257812,-0.058594 0.09375,-0.070312 0.117188,-0.1757812 0.117188,-0.2109375 0,-0.1992187 -0.175781,-0.1992187 -0.292969,-0.1992187 H 10.50286 c -0.28125,0 -0.480468,0.058594 -0.7968746,0.3515625 -0.1757813,0.1640625 -0.4453125,0.5390625 -0.4453125,0.5976562 0,0.082031 0.09375,0.082031 0.1171875,0.082031 0.070312,0 0.082031,-0.011719 0.1289062,-0.070312 0.3515625,-0.4921875 0.7851564,-0.4921875 0.9375004,-0.4921875 h 0.421875 c -0.210938,0.7617187 -0.585938,1.59375 -0.796875,2.0039062 -0.04687,0.09375 -0.1171879,0.2460938 -0.1406254,0.2695313 0,0.023437 -0.011719,0.058594 -0.011719,0.1054687 0,0.1054688 0.082031,0.2226563 0.2460944,0.2226563 0.269531,0 0.351562,-0.3164063 0.515625,-0.9375 z m 0,0"
         style="fill:#000000;fill-opacity:1;fill-rule:nonzero;stroke:none" />
    </g>
    <path
       id="path19"
       d="M 0,0 H 4.909"
       style="fill:none;stroke:#000000;stroke-width:0.398;stroke-linecap:butt;stroke-linejoin:miter;stroke-miterlimit:10;stroke-dasharray:none;stroke-opacity:1"
       transform="matrix(1.3333333,0,0,-1.3333333,153.43067,172.57867)" />
    <path
       id="path20"
       d="m 3.5156406,-1.2662734 h -0.234375 c -0.023437,0.1523437 -0.082031,0.56249996 -0.1757812,0.63281246 -0.058594,0.0351563 -0.5976563,0.0351563 -0.6914063,0.0351563 H 1.1250156 c 0.7382813,-0.64453116 0.984375,-0.84374996 1.3945313,-1.17187496 0.515625,-0.4101562 0.9960937,-0.84375 0.9960937,-1.5 0,-0.84375 -0.7382812,-1.359375 -1.6289062,-1.359375 -0.8671875,0 -1.45312503,0.609375 -1.45312503,1.2421875 0,0.3632813 0.3046875,0.3984375 0.375,0.3984375 0.1640625,0 0.37500003,-0.1171875 0.37500003,-0.375 0,-0.1289062 -0.058594,-0.3632812 -0.42187503,-0.3632812 0.22265625,-0.5039063 0.69140623,-0.65625 1.01953123,-0.65625 0.703125,0 1.0664063,0.5507812 1.0664063,1.1132812 0,0.609375 -0.4335938,1.0898438 -0.65625,1.3359375 l -1.68750003,1.66406246 c -0.0703125,0.0585937 -0.0703125,0.0703125 -0.0703125,0.2695312525 H 3.3164219 Z m 0,0"
       style="fill:#000000;fill-opacity:1;fill-rule:nonzero;stroke:none"
       aria-label="2"
       transform="matrix(1.3333333,0,0,1.3333333,154.05467,180.48133)" />
    <path
       id="path21"
       d="m 2.1686016,-2.5303437 h 0.8320312 c -0.1054687,0.421875 -0.2578125,1.0546875 -0.2578125,1.6054687 0,0.28125 0.035156,0.46875 0.070312,0.62109375 0.1171875,0.3515625 0.2109375,0.375 0.3164063,0.375 0.1640625,0 0.328125,-0.15234375 0.328125,-0.31640625 0,-0.0585938 -0.011719,-0.0820313 -0.058594,-0.15234375 C 3.2701641,-0.65534375 3.1412578,-1.0537812 3.1412578,-1.628 c 0,-0.1289062 0,-0.4101562 0.1054688,-0.9023437 h 0.8671875 c 0.1289062,0 0.1875,0 0.2578125,-0.058594 0.09375,-0.070312 0.1171875,-0.1757812 0.1171875,-0.2109375 0,-0.1992187 -0.1757813,-0.1992187 -0.2929688,-0.1992187 H 1.5592266 c -0.28125,0 -0.4804688,0.058594 -0.79687504,0.3515625 -0.17578125,0.1640625 -0.4453125,0.5390625 -0.4453125,0.5976562 0,0.082031 0.09375,0.082031 0.1171875,0.082031 0.0703125,0 0.0820313,-0.011719 0.12890625,-0.070312 0.3515625,-0.4921875 0.78515629,-0.4921875 0.93749999,-0.4921875 h 0.421875 c -0.2109375,0.7617187 -0.5859375,1.59374995 -0.796875,2.0039062 -0.046875,0.09375 -0.1171875,0.24609375 -0.14062499,0.26953125 0,0.0234375 -0.0117188,0.0585938 -0.0117188,0.10546875 0,0.10546875 0.0820312,0.22265625 0.24609369,0.22265625 0.2695313,0 0.3515625,-0.31640625 0.515625,-0.9375 z m 0,0"
       style="fill:#000000;fill-opacity:1;fill-rule:nonzero;stroke:none"
       aria-label="π"
       transform="matrix(1.3333333,0,0,1.3333333,221.964,170.67067)" />
    <path
       id="path22"
       d="M 0,0 H 4.909"
       style="fill:none;stroke:#000000;stroke-width:0.398;stroke-linecap:butt;stroke-linejoin:miter;stroke-miterlimit:10;stroke-dasharray:none;stroke-opacity:1"
       transform="matrix(1.3333333,0,0,-1.3333333,221.964,172.57867)" />
    <path
       id="path23"
       d="m 3.5160078,-1.2662734 h -0.234375 c -0.023437,0.1523437 -0.082031,0.56249996 -0.1757812,0.63281246 -0.058594,0.0351563 -0.5976563,0.0351563 -0.6914063,0.0351563 H 1.1253828 c 0.7382813,-0.64453116 0.984375,-0.84374996 1.3945313,-1.17187496 0.515625,-0.4101562 0.9960937,-0.84375 0.9960937,-1.5 0,-0.84375 -0.7382812,-1.359375 -1.6289062,-1.359375 -0.8671875,0 -1.45312504,0.609375 -1.45312504,1.2421875 0,0.3632813 0.3046875,0.3984375 0.375,0.3984375 0.1640625,0 0.37500004,-0.1171875 0.37500004,-0.375 0,-0.1289062 -0.058594,-0.3632812 -0.42187504,-0.3632812 0.22265625,-0.5039063 0.69140624,-0.65625 1.01953124,-0.65625 0.703125,0 1.0664063,0.5507812 1.0664063,1.1132812 0,0.609375 -0.4335938,1.0898438 -0.65625,1.3359375 l -1.68750004,1.66406246 c -0.0703125,0.0585937 -0.0703125,0.0703125 -0.0703125,0.2695312525 H 3.3167891 Z m 0,0"
       style="fill:#000000;fill-opacity:1;fill-rule:nonzero;stroke:none"
       aria-label="2"
       transform="matrix(1.3333333,0,0,1.3333333,222.58933,180.48133)" />
    <g
       id="g23"
       aria-label="3π"
       transform="matrix(1.3333333,0,0,1.3333333,295.47333,172.65867)">
      <path
         id="path24"
         d="m 1.8979297,-2.3309141 c 0.5507812,0 0.9375,0.375 0.9375,1.125 0,0.86718754 -0.5039063,1.12500004 -0.9023438,1.12500004 -0.28125,0 -0.890625,-0.08203125 -1.18359371,-0.4921875 0.32812501,-0.0117188 0.39843751,-0.24609375 0.39843751,-0.38671875 0,-0.22265629 -0.16406251,-0.38671879 -0.38671876,-0.38671879 -0.1875,0 -0.38671875,0.1171875 -0.38671875,0.41015629 0,0.65625 0.72656251,1.078125 1.57031251,1.078125 0.9726562,0 1.640625,-0.64453125 1.640625,-1.34765629 0,-0.5390625 -0.4453125,-1.0898437 -1.21875,-1.2421875 0.7382812,-0.2695312 0.9960937,-0.796875 0.9960937,-1.21875 0,-0.5507812 -0.6328125,-0.9609375 -1.40625,-0.9609375 -0.7734375,0 -1.35937496,0.375 -1.35937496,0.9375 0,0.234375 0.15234375,0.3632813 0.36328125,0.3632813 0.21093751,0 0.35156251,-0.1640625 0.35156251,-0.3515625 0,-0.1992188 -0.140625,-0.3515625 -0.35156251,-0.3632813 0.23437501,-0.3046875 0.71484371,-0.3867187 0.97265621,-0.3867187 0.3164063,0 0.7617188,0.1523437 0.7617188,0.7617187 0,0.2929688 -0.1054688,0.609375 -0.28125,0.8320313 -0.234375,0.2578125 -0.421875,0.28125 -0.7734375,0.2929687 -0.1757813,0.023437 -0.1875,0.023437 -0.2226563,0.023437 -0.011719,0 -0.070312,0.011719 -0.070312,0.09375 0,0.09375 0.058594,0.09375 0.1757813,0.09375 z m 0,0"
         style="fill:#000000;fill-opacity:1;fill-rule:nonzero;stroke:none" />
      <path
         id="path25"
         d="m 6.1401172,-2.5301328 h 0.8320312 c -0.1054687,0.421875 -0.2578125,1.0546875 -0.2578125,1.60546874 0,0.28125 0.035156,0.46875 0.070312,0.62109375 0.1171875,0.3515625 0.2109375,0.375 0.3164063,0.375 0.1640625,0 0.328125,-0.15234375 0.328125,-0.31640625 0,-0.0585938 -0.011719,-0.0820313 -0.058594,-0.15234375 C 7.241679,-0.65513281 7.1127727,-1.0535703 7.1127727,-1.6277891 c 0,-0.1289062 0,-0.4101562 0.1054688,-0.9023437 H 8.085429 c 0.1289062,0 0.1875,0 0.2578125,-0.058594 0.09375,-0.070312 0.1171875,-0.1757812 0.1171875,-0.2109375 0,-0.1992187 -0.1757813,-0.1992187 -0.2929688,-0.1992187 h -2.636718 c -0.28125,0 -0.4804688,0.058594 -0.796875,0.3515625 -0.1757813,0.1640625 -0.4453125,0.5390625 -0.4453125,0.5976562 0,0.082031 0.09375,0.082031 0.1171875,0.082031 0.070312,0 0.082031,-0.011719 0.1289062,-0.070312 0.3515625,-0.4921875 0.7851563,-0.4921875 0.9375,-0.4921875 h 0.421875 c -0.2109375,0.7617187 -0.5859375,1.59374999 -0.796875,2.00390624 -0.046875,0.09375 -0.1171875,0.24609375 -0.140625,0.26953125 0,0.0234375 -0.011719,0.0585938 -0.011719,0.10546875 0,0.10546875 0.082031,0.22265625 0.2460937,0.22265625 0.2695313,0 0.3515625,-0.31640625 0.515625,-0.9375 z m 0,0"
         style="fill:#000000;fill-opacity:1;fill-rule:nonzero;stroke:none" />
    </g>
    <path
       id="path26"
       d="M 0,0 H 8.88"
       style="fill:none;stroke:#000000;stroke-width:0.398;stroke-linecap:butt;stroke-linejoin:miter;stroke-miterlimit:10;stroke-dasharray:none;stroke-opacity:1"
       transform="matrix(1.3333333,0,0,-1.3333333,295.47333,174.568)" />
    <path
       id="path27"
       d="m 3.5151953,-1.2660625 h -0.234375 c -0.023437,0.1523438 -0.082031,0.5625 -0.1757812,0.6328125 -0.058594,0.0351563 -0.5976563,0.0351563 -0.6914063,0.0351563 H 1.1245703 c 0.7382813,-0.6445313 0.984375,-0.84375 1.3945313,-1.171875 0.515625,-0.4101563 0.9960937,-0.84375 0.9960937,-1.5 0,-0.84375 -0.7382812,-1.359375 -1.6289062,-1.359375 -0.8671875,0 -1.45312504,0.609375 -1.45312504,1.2421875 0,0.3632812 0.3046875,0.3984375 0.375,0.3984375 0.1640625,0 0.37500004,-0.1171875 0.37500004,-0.375 0,-0.1289063 -0.058594,-0.3632813 -0.42187504,-0.3632813 0.22265625,-0.5039062 0.69140624,-0.65625 1.01953124,-0.65625 0.703125,0 1.0664063,0.5507813 1.0664063,1.1132813 0,0.609375 -0.4335938,1.0898437 -0.65625,1.3359375 l -1.68750004,1.66406245 c -0.0703125,0.0585937 -0.0703125,0.0703125 -0.0703125,0.26953125 H 3.3159766 Z m 0,0"
       style="fill:#000000;fill-opacity:1;fill-rule:nonzero;stroke:none"
       aria-label="2"
       transform="matrix(1.3333333,0,0,1.3333333,298.74667,182.46933)" />
    <g
       id="g27"
       aria-label="2π"
       transform="matrix(1.3333333,0,0,1.3333333,338.268,175.22667)">
      <path
         id="path28"
         d="M 1.2667734,-0.76179687 2.3214609,-1.7930469 c 1.5585938,-1.3710937 2.15625,-1.9101562 2.15625,-2.90625 0,-1.1367187 -0.9023437,-1.9335937 -2.1210937,-1.9335937 -1.125,0 -1.85156251,0.9140625 -1.85156251,1.8046875 0,0.5507812 0.4921875,0.5507812 0.52734371,0.5507812 0.1640625,0 0.515625,-0.1171875 0.515625,-0.5273437 0,-0.2578125 -0.1875,-0.515625 -0.5273437,-0.515625 -0.0820313,0 -0.10546876,0 -0.12890626,0.011719 0.22265626,-0.6445312 0.76171876,-1.0195312 1.33593746,-1.0195312 0.9140625,0 1.3359375,0.8085937 1.3359375,1.6289062 0,0.796875 -0.4921875,1.5820313 -1.0429687,2.203125 L 0.61052344,-0.36335937 C 0.50505469,-0.25789062 0.50505469,-0.23445312 0.50505469,-7.8125e-5 H 4.1964609 L 4.4777109,-1.7344531 H 4.2198984 c -0.046875,0.3046875 -0.1171875,0.73828123 -0.2109375,0.89062498 -0.070312,0.0820313 -0.7265625,0.0820313 -0.9492187,0.0820313 z m 0,0"
         style="fill:#000000;fill-opacity:1;fill-rule:nonzero;stroke:none" />
      <path
         id="path29"
         d="m 7.6183359,-3.7149219 h 1.125 c -0.328125,1.4765625 -0.4101562,1.8984375 -0.4101562,2.5664063 0,0.15234373 0,0.42187498 0.070312,0.76171873 0.1054687,0.43359375 0.2109375,0.4921875 0.3632812,0.4921875 0.1992188,0 0.4101563,-0.17578125 0.4101563,-0.375 0,-0.0585938 0,-0.0820313 -0.058594,-0.22265625 -0.292968,-0.71484378 -0.292968,-1.35937498 -0.292968,-1.64062498 0,-0.5273438 0.070312,-1.0664063 0.1757812,-1.5820313 h 1.1367186 c 0.128906,0 0.492188,0 0.492188,-0.3398437 0,-0.234375 -0.210938,-0.234375 -0.398438,-0.234375 H 6.8917734 c -0.2109375,0 -0.5976562,0 -1.03125,0.46875 -0.3515625,0.3867187 -0.609375,0.84375 -0.609375,0.890625 0,0.011719 0,0.1054687 0.1171875,0.1054687 0.082031,0 0.1054688,-0.046875 0.1640625,-0.1289062 0.4804688,-0.7617188 1.0664063,-0.7617188 1.265625,-0.7617188 h 0.5625 c -0.3164062,1.2070313 -0.8554687,2.4140625 -1.2773437,3.31640628 -0.070312,0.15234375 -0.070312,0.1640625 -0.070312,0.234375 0,0.19921875 0.1523437,0.26953125 0.28125,0.26953125 0.3046875,0 0.3867187,-0.26953125 0.5039062,-0.64453125 0.140625,-0.45703125 0.140625,-0.48046878 0.2695313,-0.97265628 z m 0,0"
         style="fill:#000000;fill-opacity:1;fill-rule:nonzero;stroke:none" />
    </g>
    <path
       id="path30"
       d="m 2.9302969,-6.3761016 c 0,-0.234375 0,-0.2578125 -0.234375,-0.2578125 -0.609375,0.6328125 -1.4882813,0.6328125 -1.80468752,0.6328125 v 0.3164063 c 0.19921872,0 0.78515622,0 1.30078122,-0.2578125 v 5.15624999 c 0,0.3515625 -0.035156,0.48046875 -0.9257812,0.48046875 H 0.94982813 v 0.3046875 C 1.3013906,-0.03625781 2.1568594,-0.03625781 2.5552969,-0.03625781 c 0.3984375,0 1.265625,0 1.6171875,0.03515625 v -0.3046875 H 3.8560781 c -0.9023437,0 -0.9257812,-0.1171875 -0.9257812,-0.48046875 z m 0,0"
       style="fill:#000000;fill-opacity:1;fill-rule:nonzero;stroke:none"
       aria-label="1"
       transform="matrix(1.3333333,0,0,1.3333333,176.632,133.896)" />
    <g
       id="g30"
       aria-label="−1"
       transform="matrix(1.3333333,0,0,1.3333333,166.3,197.216)">
      <path
         id="path31"
         d="m 6.5630859,-2.2977422 c 0.1757813,0 0.3515625,0 0.3515625,-0.1992187 0,-0.1992188 -0.1757812,-0.1992188 -0.3515625,-0.1992188 h -5.390625 c -0.1640625,0 -0.33984371,0 -0.33984371,0.1992188 0,0.1992187 0.17578121,0.1992187 0.33984371,0.1992187 z m 0,0"
         style="fill:#000000;fill-opacity:1;fill-rule:nonzero;stroke:none" />
      <path
         id="path32"
         d="m 10.679297,-6.3758672 c 0,-0.234375 0,-0.2578125 -0.234375,-0.2578125 -0.6093751,0.6328125 -1.4882814,0.6328125 -1.8046876,0.6328125 v 0.3164063 c 0.1992187,0 0.7851562,0 1.3007812,-0.2578125 v 5.15624996 c 0,0.3515625 -0.035156,0.48046875 -0.9257812,0.48046875 H 8.6988281 V -8.671875e-4 C 9.0503906,-0.03602344 9.9058594,-0.03602344 10.304297,-0.03602344 c 0.398437,0 1.265625,0 1.617187,0.0351562525 V -0.30555469 h -0.316406 c -0.902344,0 -0.925781,-0.1171875 -0.925781,-0.48046875 z m 0,0"
         style="fill:#000000;fill-opacity:1;fill-rule:nonzero;stroke:none" />
    </g>
    <g
       id="g32"
       aria-label="y=senx"
       transform="matrix(1.3333333,0,0,1.3333333,198.72267,126.27067)">
      <path
         id="path33"
         d="m 4.8398359,-3.7977266 c 0.046875,-0.140625 0.046875,-0.1523437 0.046875,-0.2226562 0,-0.1875 -0.140625,-0.2695313 -0.2929687,-0.2695313 -0.1054688,0 -0.2578125,0.058594 -0.3515625,0.1992188 -0.023437,0.058594 -0.09375,0.3632812 -0.140625,0.5390625 -0.070312,0.2578125 -0.140625,0.5273437 -0.1992188,0.796875 l -0.4453125,1.79296874 c -0.035156,0.15234375 -0.46875,0.85546875 -1.125,0.85546875 -0.5039062,0 -0.6210937,-0.4453125 -0.6210937,-0.80859375 0,-0.45703124 0.1757812,-1.07812504 0.515625,-1.95703124 0.1523437,-0.4101563 0.1992187,-0.515625 0.1992187,-0.7148438 0,-0.4453125 -0.328125,-0.8203125 -0.8203125,-0.8203125 -0.94921871,0 -1.31249996,1.453125 -1.31249996,1.5351563 0,0.1054687 0.09375,0.1054687 0.1171875,0.1054687 0.09375,0 0.10546875,-0.023437 0.15234375,-0.1875 0.26953125,-0.9375 0.66796871,-1.2304687 1.00781251,-1.2304687 0.082031,0 0.2578125,0 0.2578125,0.3164062 0,0.2460938 -0.1054688,0.515625 -0.1757813,0.703125 -0.3984375,1.0546875 -0.5742187,1.6171875 -0.5742187,2.0859375 0,0.89062504 0.6210937,1.18359379 1.21875,1.18359379 0.3867187,0 0.7265625,-0.1640625 0.9960937,-0.4453125 -0.1289062,0.515625 -0.2460937,1.0078125 -0.6445312,1.53515621 -0.2578125,0.3398438 -0.6328125,0.6328125 -1.0898438,0.6328125 -0.140625,0 -0.59765621,-0.035156 -0.76171871,-0.421875 0.1640625,0 0.29296871,0 0.43359371,-0.1171875 0.09375,-0.09375 0.1992188,-0.2226562 0.1992188,-0.41015621 0,-0.31640625 -0.2695313,-0.3515625 -0.375,-0.3515625 -0.22265626,0 -0.55078126,0.1640625 -0.55078126,0.64453121 0,0.5039063 0.43359375,0.8671875 1.05468746,0.8671875 1.0195313,0 2.0507813,-0.9023437 2.3320313,-2.02734371 z m 0,0"
         style="fill:#eb0a36;fill-opacity:1;fill-rule:nonzero;stroke:none" />
      <path
         id="path34"
         d="m 14.856437,-3.2586641 c 0.152344,0 0.339844,0 0.339844,-0.1992187 0,-0.1992188 -0.1875,-0.1992188 -0.328125,-0.1992188 H 8.9033125 c -0.140625,0 -0.328125,0 -0.328125,0.1992188 0,0.1992187 0.1875,0.1992187 0.3398437,0.1992187 z m 0.01172,1.9335938 c 0.140625,0 0.328125,0 0.328125,-0.1992188 0,-0.1992187 -0.1875,-0.1992187 -0.339844,-0.1992187 H 8.9150312 c -0.1523437,0 -0.3398437,0 -0.3398437,0.1992187 0,0.1992188 0.1875,0.1992188 0.328125,0.1992188 z m 5.727539,-0.609375 c 0.222657,0.035156 1.03125,0.1992187 1.03125,0.9140625 0,0.51562499 -0.351562,0.91406249 -1.125,0.91406249 -0.832031,0 -1.195312,-0.57421875 -1.382812,-1.41796879 -0.03516,-0.1289062 -0.03516,-0.1757812 -0.140625,-0.1757812 -0.128906,0 -0.128906,0.070312 -0.128906,0.2578125 v 1.31249999 c 0,0.1640625 0,0.234375 0.105468,0.234375 0.05859,0 0.07031,0 0.257813,-0.19921875 0.01172,-0.01171875 0.01172,-0.03515625 0.199219,-0.22265625 0.433593,0.421875 0.878906,0.421875 1.089843,0.421875 1.148438,0 1.605469,-0.66796875 1.605469,-1.38281249 0,-0.5273438 -0.292969,-0.8203125 -0.421875,-0.9492188 -0.328125,-0.3164062 -0.714844,-0.3984375 -1.136719,-0.46875 -0.550781,-0.1171875 -1.21875,-0.2460937 -1.21875,-0.8203125 0,-0.3515625 0.257813,-0.7617187 1.113282,-0.7617187 1.101562,0 1.148437,0.9023437 1.171875,1.2070312 0,0.09375 0.09375,0.09375 0.117187,0.09375 0.128906,0 0.128906,-0.046875 0.128906,-0.2460937 v -0.9960938 c 0,-0.1757812 0,-0.2460937 -0.117187,-0.2460937 -0.04687,0 -0.07031,0 -0.199219,0.1171875 -0.02344,0.046875 -0.128906,0.1289062 -0.164062,0.1640625 -0.375,-0.28125 -0.785157,-0.28125 -0.9375,-0.28125 -1.21875,0 -1.59375,0.6679687 -1.59375,1.2304687 0,0.3398438 0.164062,0.6210938 0.433593,0.84375 0.316407,0.2578125 0.597657,0.3164063 1.3125,0.4570313 z m 2.967774,-0.5742188 c 0.05859,-1.4882812 0.902343,-1.734375 1.242187,-1.734375 1.019531,0 1.125,1.3476563 1.125,1.734375 z m -0.01172,0.2109375 h 2.789062 c 0.210938,0 0.246094,0 0.246094,-0.2109375 0,-0.984375 -0.539062,-1.9570312 -1.78125,-1.9570312 -1.160156,0 -2.074219,1.03125 -2.074219,2.2734375 0,1.33593749 1.042969,2.29687499 2.191407,2.29687499 1.21875,0 1.664062,-1.1015625 1.664062,-1.28906249 0,-0.1054688 -0.08203,-0.1171875 -0.128906,-0.1171875 -0.09375,0 -0.117188,0.058594 -0.128906,0.140625 -0.351563,1.01953124 -1.253907,1.01953124 -1.347657,1.01953124 -0.503906,0 -0.902343,-0.29296875 -1.125,-0.66796875 C 23.55175,-1.2899141 23.55175,-1.9461641 23.55175,-2.2977266 Z m 4.426758,-1.125 v 2.66015629 c 0,0.45703125 -0.117188,0.45703125 -0.785156,0.45703125 v 0.3046874975 c 0.351562,-0.0117187475 0.855468,-0.0351562475 1.125,-0.0351562475 0.257812,0 0.785156,0.0234375 1.113281,0.0351562475 V -0.30553906 c -0.65625,0 -0.773438,0 -0.773438,-0.45703125 V -2.5906953 c 0,-1.03125 0.714844,-1.59375 1.347657,-1.59375 0.621093,0 0.738281,0.5390625 0.738281,1.1015625 v 2.32031249 c 0,0.45703125 -0.117188,0.45703125 -0.773438,0.45703125 v 0.3046874975 c 0.339844,-0.0117187475 0.855469,-0.0351562475 1.125,-0.0351562475 0.257813,0 0.773438,0.0234375 1.113282,0.0351562475 V -0.30553906 c -0.515625,0 -0.773438,0 -0.785157,-0.3046875 V -2.5086641 c 0,-0.8554687 0,-1.171875 -0.304687,-1.5234375 -0.140625,-0.1757812 -0.46875,-0.375 -1.042969,-0.375 -0.726562,0 -1.195312,0.4335938 -1.476562,1.0546875 v -1.0546875 l -1.40625,0.1171875 v 0.3046875 c 0.703125,0 0.785156,0.070312 0.785156,0.5625 z m 0,0"
         style="fill:#eb0a36;fill-opacity:1;fill-rule:nonzero;stroke:none" />
      <path
         id="path35"
         d="m 37.406242,-3.0125703 c 0.05859,-0.2578125 0.292969,-1.171875 0.984375,-1.171875 0.04687,0 0.292969,0 0.503906,0.1289062 -0.28125,0.046875 -0.480468,0.3046875 -0.480468,0.5390625 0,0.1640625 0.105468,0.3515625 0.375,0.3515625 0.222656,0 0.539062,-0.1875 0.539062,-0.5859375 0,-0.515625 -0.585937,-0.65625 -0.925781,-0.65625 -0.574219,0 -0.925781,0.5273438 -1.042969,0.7617188 -0.257812,-0.65625 -0.785156,-0.7617188 -1.078125,-0.7617188 -1.042969,0 -1.605469,1.2890625 -1.605469,1.5351563 0,0.1054687 0.105469,0.1054687 0.117188,0.1054687 0.08203,0 0.117187,-0.023437 0.128906,-0.1171875 0.339844,-1.0546875 0.996094,-1.3007812 1.335938,-1.3007812 0.1875,0 0.539062,0.09375 0.539062,0.6679687 0,0.3046875 -0.164062,0.9726563 -0.539062,2.3671875 -0.152344,0.62109379 -0.503907,1.04296879 -0.949219,1.04296879 -0.05859,0 -0.28125,0 -0.492188,-0.12890625 0.246094,-0.0585937 0.46875,-0.26953125 0.46875,-0.5390625 0,-0.26953124 -0.222656,-0.35156254 -0.375,-0.35156254 -0.292968,0 -0.539062,0.25781254 -0.539062,0.57421879 0,0.45703125 0.492187,0.65625 0.9375,0.65625 0.65625,0 1.007812,-0.69140625 1.042969,-0.75 0.117187,0.36328125 0.480468,0.75 1.078125,0.75 1.019531,0 1.59375,-1.27734379 1.59375,-1.53515629 0,-0.09375 -0.09375,-0.09375 -0.128907,-0.09375 -0.08203,0 -0.105468,0.035156 -0.128906,0.1054688 -0.328125,1.06640624 -0.996094,1.31249999 -1.324219,1.31249999 -0.386718,0 -0.539062,-0.328125 -0.539062,-0.65625 0,-0.22265625 0.05859,-0.44531249 0.164062,-0.87890629 z m 0,0"
         style="fill:#eb0a36;fill-opacity:1;fill-rule:nonzero;stroke:none" />
    </g>
    <g
       id="g35"
       aria-label="y=sen(2x)"
       transform="matrix(1.3333333,0,0,1.3333333,289.60933,201.724)">
      <path
         id="path36"
         d="m 4.839875,-3.7978828 c 0.046875,-0.140625 0.046875,-0.1523438 0.046875,-0.2226563 0,-0.1875 -0.140625,-0.2695312 -0.2929687,-0.2695312 -0.1054688,0 -0.2578125,0.058594 -0.3515625,0.1992187 -0.023437,0.058594 -0.09375,0.3632813 -0.140625,0.5390625 -0.070312,0.2578125 -0.140625,0.5273438 -0.1992188,0.796875 l -0.4453125,1.79296879 c -0.035156,0.15234375 -0.46875,0.85546875 -1.125,0.85546875 -0.5039062,0 -0.6210937,-0.4453125 -0.6210937,-0.80859375 0,-0.45703129 0.1757812,-1.07812499 0.515625,-1.95703129 0.1523437,-0.4101562 0.1992187,-0.515625 0.1992187,-0.7148437 0,-0.4453125 -0.328125,-0.8203125 -0.8203125,-0.8203125 -0.94921875,0 -1.3125,1.453125 -1.3125,1.5351562 0,0.1054688 0.09375,0.1054688 0.1171875,0.1054688 0.09375,0 0.10546875,-0.023437 0.15234375,-0.1875 0.26953125,-0.9375 0.66796875,-1.2304688 1.00781255,-1.2304688 0.082031,0 0.2578125,0 0.2578125,0.3164063 0,0.2460937 -0.1054688,0.515625 -0.1757813,0.703125 -0.3984375,1.0546875 -0.5742187,1.6171875 -0.5742187,2.0859375 0,0.89062499 0.6210937,1.18359374 1.21875,1.18359374 0.3867187,0 0.7265625,-0.1640625 0.9960937,-0.4453125 C 3.1640938,0.17477344 3.0469063,0.66696094 2.6484688,1.1943047 2.3906563,1.5341484 2.0156563,1.8271172 1.558625,1.8271172 c -0.140625,0 -0.59765625,-0.035156 -0.76171875,-0.421875 0.1640625,0 0.29296875,0 0.43359375,-0.1171875 0.09375,-0.09375 0.1992188,-0.2226563 0.1992188,-0.41015626 0,-0.31640625 -0.2695313,-0.3515625 -0.375,-0.3515625 -0.2226563,0 -0.5507813,0.1640625 -0.5507813,0.64453126 0,0.5039062 0.43359375,0.8671875 1.0546875,0.8671875 1.0195313,0 2.0507813,-0.9023438 2.3320313,-2.02734376 z m 0,0"
         style="fill:#008080;fill-opacity:1;fill-rule:nonzero;stroke:none" />
      <path
         id="path37"
         d="m 14.856477,-3.2588203 c 0.152343,0 0.339843,0 0.339843,-0.1992188 0,-0.1992187 -0.1875,-0.1992187 -0.328125,-0.1992187 H 8.9033516 c -0.140625,0 -0.328125,0 -0.328125,0.1992187 0,0.1992188 0.1875,0.1992188 0.3398437,0.1992188 z m 0.01172,1.9335937 c 0.140625,0 0.328125,0 0.328125,-0.1992187 0,-0.1992188 -0.1875,-0.1992188 -0.339843,-0.1992188 H 8.9150703 c -0.1523437,0 -0.3398437,0 -0.3398437,0.1992188 0,0.1992187 0.1875,0.1992187 0.328125,0.1992187 z m 5.727539,-0.609375 c 0.222657,0.035156 1.03125,0.1992188 1.03125,0.9140625 0,0.51562504 -0.351562,0.91406254 -1.125,0.91406254 -0.832031,0 -1.195312,-0.57421875 -1.382812,-1.41796874 -0.03516,-0.1289063 -0.03516,-0.1757813 -0.140625,-0.1757813 -0.128906,0 -0.128906,0.070312 -0.128906,0.2578125 v 1.31250004 c 0,0.1640625 0,0.234375 0.105468,0.234375 0.05859,0 0.07031,0 0.257813,-0.19921875 0.01172,-0.01171875 0.01172,-0.03515625 0.199219,-0.22265625 0.433593,0.421875 0.878906,0.421875 1.089843,0.421875 1.148438,0 1.605469,-0.66796875 1.605469,-1.38281254 0,-0.5273437 -0.292969,-0.8203125 -0.421875,-0.9492187 -0.328125,-0.3164063 -0.714844,-0.3984375 -1.136719,-0.46875 -0.550781,-0.1171875 -1.21875,-0.2460938 -1.21875,-0.8203125 0,-0.3515625 0.257813,-0.7617188 1.113282,-0.7617188 1.101562,0 1.148437,0.9023438 1.171875,1.2070313 0,0.09375 0.09375,0.09375 0.117187,0.09375 0.128906,0 0.128906,-0.046875 0.128906,-0.2460938 v -0.9960937 c 0,-0.1757813 0,-0.2460938 -0.117187,-0.2460938 -0.04687,0 -0.07031,0 -0.199219,0.1171875 -0.02344,0.046875 -0.128906,0.1289063 -0.164062,0.1640625 -0.375,-0.28125 -0.785157,-0.28125 -0.9375,-0.28125 -1.21875,0 -1.59375,0.6679688 -1.59375,1.2304688 0,0.3398437 0.164062,0.6210937 0.433593,0.84375 0.316407,0.2578125 0.597657,0.3164062 1.3125,0.4570312 z m 2.967774,-0.5742187 c 0.05859,-1.4882813 0.902344,-1.734375 1.242187,-1.734375 1.019532,0 1.125,1.3476562 1.125,1.734375 z m -0.01172,0.2109375 h 2.789063 c 0.210937,0 0.246093,0 0.246093,-0.2109375 0,-0.984375 -0.539062,-1.9570313 -1.78125,-1.9570313 -1.160156,0 -2.074218,1.03125 -2.074218,2.2734375 0,1.33593754 1.042968,2.29687504 2.191406,2.29687504 1.21875,0 1.664062,-1.1015625 1.664062,-1.28906254 0,-0.1054687 -0.08203,-0.1171875 -0.128906,-0.1171875 -0.09375,0 -0.117187,0.058594 -0.128906,0.140625 -0.351563,1.01953129 -1.253906,1.01953129 -1.347656,1.01953129 -0.503907,0 -0.902344,-0.29296875 -1.125,-0.66796875 C 23.551789,-1.2900703 23.551789,-1.9463203 23.551789,-2.2978828 Z m 4.426758,-1.125 v 2.66015624 c 0,0.45703125 -0.117188,0.45703125 -0.785156,0.45703125 v 0.3046875 c 0.351562,-0.01171875 0.855468,-0.03515625 1.125,-0.03515625 0.257812,0 0.785156,0.0234375 1.113281,0.03515625 v -0.3046875 c -0.65625,0 -0.773438,0 -0.773438,-0.45703125 V -2.5908516 c 0,-1.03125 0.714844,-1.59375 1.347657,-1.59375 0.621093,0 0.738281,0.5390625 0.738281,1.1015625 v 2.32031254 c 0,0.45703125 -0.117188,0.45703125 -0.773438,0.45703125 v 0.3046875 c 0.339844,-0.01171875 0.855469,-0.03515625 1.125,-0.03515625 0.257813,0 0.773438,0.0234375 1.113282,0.03515625 v -0.3046875 c -0.515625,0 -0.773438,0 -0.785157,-0.3046875 V -2.5088203 c 0,-0.8554688 0,-1.171875 -0.304687,-1.5234375 -0.140625,-0.1757813 -0.46875,-0.375 -1.042969,-0.375 -0.726562,0 -1.195312,0.4335937 -1.476562,1.0546875 v -1.0546875 l -1.40625,0.1171875 v 0.3046875 c 0.703125,0 0.785156,0.070312 0.785156,0.5625 z m 7.728516,5.8125 c 0,-0.035156 0,-0.046875 -0.164063,-0.2226563 -1.242187,-1.25390621 -1.570312,-3.12890621 -1.570312,-4.6640625 0,-1.7226562 0.386718,-3.4570312 1.605468,-4.7109375 0.128907,-0.1171875 0.128907,-0.1289062 0.128907,-0.1640625 0,-0.070312 -0.03516,-0.1054687 -0.09375,-0.1054687 -0.105469,0 -0.996094,0.6796875 -1.582032,1.9453125 -0.515625,1.1015625 -0.632812,2.203125 -0.632812,3.0351562 0,0.7851563 0.117187,1.99218754 0.65625,3.11718754 0.597656,1.21874996 1.453125,1.87499996 1.558594,1.87499996 0.05859,0 0.09375,-0.035156 0.09375,-0.1054687 z m 1.845703,-3.15234376 1.054687,-1.03125004 c 1.558594,-1.3710937 2.15625,-1.9101562 2.15625,-2.90625 0,-1.1367187 -0.902344,-1.9335937 -2.121094,-1.9335937 -1.125,0 -1.851562,0.9140625 -1.851562,1.8046875 0,0.5507812 0.492187,0.5507812 0.527344,0.5507812 0.164062,0 0.515625,-0.1171875 0.515625,-0.5273437 0,-0.2578125 -0.1875,-0.515625 -0.527344,-0.515625 -0.08203,0 -0.105469,0 -0.128906,0.011719 0.222656,-0.6445312 0.761718,-1.0195312 1.335937,-1.0195312 0.914063,0 1.335938,0.8085937 1.335938,1.6289062 0,0.796875 -0.492188,1.5820313 -1.042969,2.203125 l -1.910156,2.13281254 c -0.105469,0.10546875 -0.105469,0.12890625 -0.105469,0.36328125 h 3.691406 l 0.28125,-1.73437499 h -0.257812 c -0.04687,0.3046875 -0.117188,0.73828124 -0.210938,0.89062499 -0.07031,0.0820313 -0.726562,0.0820313 -0.949219,0.0820313 z m 0,0"
         style="fill:#008080;fill-opacity:1;fill-rule:nonzero;stroke:none" />
      <path
         id="path38"
         d="m 44.598664,-3.0127266 c 0.05859,-0.2578125 0.292969,-1.171875 0.984375,-1.171875 0.04687,0 0.292969,0 0.503906,0.1289063 -0.28125,0.046875 -0.480468,0.3046875 -0.480468,0.5390625 0,0.1640625 0.105468,0.3515625 0.375,0.3515625 0.222656,0 0.539062,-0.1875 0.539062,-0.5859375 0,-0.515625 -0.585937,-0.65625 -0.925781,-0.65625 -0.574219,0 -0.925781,0.5273437 -1.042969,0.7617187 -0.257812,-0.65625 -0.785156,-0.7617187 -1.078125,-0.7617187 -1.042969,0 -1.605469,1.2890625 -1.605469,1.5351562 0,0.1054688 0.105469,0.1054688 0.117188,0.1054688 0.08203,0 0.117187,-0.023437 0.128906,-0.1171875 0.339844,-1.0546875 0.996094,-1.3007813 1.335938,-1.3007813 0.1875,0 0.539062,0.09375 0.539062,0.6679688 0,0.3046875 -0.164062,0.9726562 -0.539062,2.3671875 -0.152344,0.62109374 -0.503907,1.04296874 -0.949219,1.04296874 -0.05859,0 -0.28125,0 -0.492188,-0.12890625 0.246094,-0.0585938 0.46875,-0.26953125 0.46875,-0.5390625 0,-0.26953129 -0.222656,-0.35156249 -0.375,-0.35156249 -0.292968,0 -0.539062,0.25781249 -0.539062,0.57421874 0,0.45703125 0.492187,0.65625 0.9375,0.65625 0.65625,0 1.007812,-0.69140625 1.042969,-0.75 0.117187,0.36328125 0.480468,0.75 1.078125,0.75 1.019531,0 1.59375,-1.27734374 1.59375,-1.53515624 0,-0.09375 -0.09375,-0.09375 -0.128907,-0.09375 -0.08203,0 -0.105468,0.035156 -0.128906,0.1054687 -0.328125,1.06640629 -0.996094,1.31250004 -1.324219,1.31250004 -0.386718,0 -0.539062,-0.328125 -0.539062,-0.65625 0,-0.22265625 0.05859,-0.44531254 0.164062,-0.87890624 z m 0,0"
         style="fill:#008080;fill-opacity:1;fill-rule:nonzero;stroke:none" />
      <path
         id="path39"
         d="m 49.845734,-2.4971016 c 0,-0.7734375 -0.117187,-1.9804687 -0.65625,-3.1054687 -0.597656,-1.21875 -1.464843,-1.875 -1.558593,-1.875 -0.05859,0 -0.105469,0.046875 -0.105469,0.1054687 0,0.035156 0,0.046875 0.199219,0.234375 0.972656,0.984375 1.535156,2.5664063 1.535156,4.640625 0,1.71093754 -0.363281,3.45703129 -1.59375,4.7226563 -0.140625,0.1171875 -0.140625,0.1289062 -0.140625,0.1640625 0,0.058594 0.04687,0.1054687 0.105469,0.1054687 0.09375,0 0.996093,-0.6796875 1.582031,-1.94531246 0.503906,-1.1015625 0.632812,-2.20312504 0.632812,-3.04687504 z m 0,0"
         style="fill:#008080;fill-opacity:1;fill-rule:nonzero;stroke:none" />
    </g>
    <path
       id="path40"
       d="m -57.85526,-0.02922 c 0,0 1.36341,-1.3635 1.88706,-1.88341 0.52364,-0.5199 1.3634,-1.35209 1.88705,-1.86372 0.52364,-0.51163 1.36342,-1.32582 1.88706,-1.82381 0.52365,-0.49797 1.36343,-1.28616 1.88705,-1.76532 0.52365,-0.47912 1.36342,-1.23277 1.88707,-1.688 0.52365,-0.45523 1.36341,-1.1664 1.88706,-1.59297 0.52365,-0.42661 1.36341,-1.08811 1.88707,-1.48165 0.52363,-0.39357 1.3634,-0.99856 1.88705,-1.35484 0.52364,-0.35631 1.36342,-0.89793 1.88706,-1.21315 0.52363,-0.31523 1.36343,-0.78784 1.88705,-1.05881 0.52365,-0.27095 1.36342,-0.67018 1.88707,-0.89404 0.52365,-0.22388 1.36341,-0.54506 1.88705,-0.71947 0.52366,-0.17439 1.36342,-0.41443 1.88706,-0.53753 0.52365,-0.12313 1.36342,-0.27919 1.88707,-0.34975 0.52363,-0.07056 1.36342,-0.14154 1.88705,-0.15886 0.52364,-0.0173 1.36342,-0.0023 1.88706,0.03401 0.52365,0.03627 1.3634,0.13797 1.88705,0.22745 0.52365,0.08949 1.36342,0.27588 1.88707,0.41751 0.52364,0.14163 1.3634,0.41103 1.88706,0.60333 0.52364,0.19232 1.36341,0.54178 1.88707,0.78273 0.52363,0.24095 1.36341,0.66682 1.88705,0.95392 0.52364,0.28711 1.36342,0.78508 1.88704,1.11531 0.52365,0.33025 1.36342,0.8949 1.88707,1.26488 0.52365,0.37001 1.36341,0.996 1.88707,1.40181 0.52364,0.40579 1.3634,1.08562 1.88705,1.52298 0.52365,0.43736 1.36342,1.16488 1.88707,1.62924 0.52362,0.46436 1.36341,1.23109 1.88706,1.71753 0.52363,0.48643 1.3634,1.28488 1.88704,1.78836 0.52365,0.50348 1.36342,1.32523 1.88707,1.84039 0.52365,0.51519 1.36341,1.35126 1.88705,1.87273 0.52365,0.52147 1.36339,1.36325 1.88702,1.8856 0.52366,0.52237 1.36342,1.36145 1.88708,1.87922 0.52363,0.51774 1.3634,1.34468 1.88705,1.85246 0.52363,0.50778 1.36342,1.31477 1.88704,1.8072 0.52365,0.49245 1.36341,1.2701 1.88707,1.74201 0.52365,0.47188 1.36342,1.2126 1.88707,1.65904 0.52363,0.44646 1.3634,1.1423 1.88705,1.55869 0.52365,0.41636 1.36342,1.06042 1.88707,1.44225 0.52364,0.38187 1.3634,0.96667 1.88705,1.3099 0.52363,0.34323 1.36341,0.86279 1.88704,1.16394 0.52366,0.30113 1.36344,0.75058 1.88707,1.0065 0.52366,0.25593 1.36342,0.63006 1.88706,0.8381 0.52365,0.20803 1.36342,0.50336 1.88707,0.66126 0.52365,0.1579 1.3634,0.3707 1.88706,0.47682 0.52364,0.10614 1.36341,0.23486 1.88706,0.28819 0.52362,0.0533 1.36341,0.09633 1.88704,0.09615 0.52365,-2e-4 1.36344,-0.04384 1.88707,-0.09756 0.52363,-0.05372 1.36342,-0.183 1.88706,-0.28957 0.52365,-0.10659 1.3634,-0.32024 1.88705,-0.47853 0.52365,-0.1583 1.36342,-0.454 1.88707,-0.66239 0.52365,-0.20839 1.36342,-0.58322 1.88705,-0.83951 0.52364,-0.25627 1.36342,-0.70611 1.88706,-1.00761 0.52365,-0.30151 1.36344,-0.82182 1.88707,-1.16536 0.52363,-0.34355 1.3634,-0.92863 1.88705,-1.3107 0.52365,-0.38208 1.36341,-1.02653 1.88706,-1.44315 0.52365,-0.41659 1.36342,-1.11283 1.88706,-1.55952 0.52364,-0.44667 1.36341,-1.18782 1.88706,-1.65988 0.52364,-0.47208 1.36342,-1.25 1.88706,-1.74256 0.52365,-0.49256 1.36343,-1.29965 1.88705,-1.80749 0.52365,-0.50784 1.36342,-1.33493 1.88706,-1.85275 0.52365,-0.51784 1.36341,-1.35708 1.88707,-1.87949 0.52365,-0.5224 1.36341,-1.36417 1.88706,-1.8856 0.52364,-0.52141 1.36341,-1.35733 1.88706,-1.87244 0.52363,-0.51511 1.36342,-1.33679 1.88707,-1.8401 0.52362,-0.50331 1.3634,-1.30126 1.88704,-1.78754 0.52365,-0.48627 1.3634,-1.2531 1.88705,-1.71724 0.52365,-0.46416 1.36342,-1.19099 1.88707,-1.62811 0.52365,-0.43714 1.36342,-1.11686 1.88705,-1.52243 0.52366,-0.40557 1.36343,-1.03096 1.88708,-1.40067 0.52363,-0.36972 1.36342,-0.93406 1.88707,-1.26404 0.52362,-0.32997 1.3634,-0.82742 1.88702,-1.11418 0.52365,-0.28676 1.36342,-0.71197 1.88707,-0.95253 0.52365,-0.24055 1.36342,-0.58935 1.88707,-0.78129 0.52364,-0.19196 1.3634,-0.46099 1.88705,-0.60224 0.52365,-0.14123 1.36342,-0.32676 1.88707,-0.41581 0.52364,-0.08905 1.36341,-0.19011 1.88706,-0.22605 0.52363,-0.03592 1.36341,-0.05055 1.88704,-0.0329 0.52365,0.01768 1.36342,0.08928 1.88707,0.16027 0.52365,0.07098 1.36342,0.22793 1.88707,0.35142 0.52363,0.12351 1.3634,0.36391 1.88705,0.53869 0.52365,0.17478 1.36342,0.49683 1.88707,0.72115 0.52362,0.22429 1.36341,0.62415 1.88705,0.89544 0.52363,0.27131 1.36341,0.74444 1.88704,1.05993 0.52366,0.31549 1.36342,0.85747 1.88707,1.21399 0.52365,0.35654 1.36342,0.96187 1.88706,1.35569 0.52365,0.39382 1.36342,1.05592 1.88707,1.48277 0.52365,0.42688 1.3634,1.13835 1.88705,1.59383 0.52365,0.45545 1.36342,1.20951 1.88706,1.68884 0.52363,0.47935 1.36341,1.26779 1.88705,1.7659 0.52366,0.49809 1.36344,1.31236 1.88707,1.82408 0.52364,0.5117 1.3634,1.34407 1.88706,1.864 0.52365,0.51994 1.36341,1.3608 1.88707,1.8834 0.52365,0.52257 1.3634,1.36315 1.88705,1.88309 0.52365,0.51994 1.36342,1.35237 1.88705,1.86427 0.52364,0.5119 1.36342,1.32683 1.88706,1.82522 0.52365,0.49836 1.36343,1.28707 1.88705,1.76672 0.52365,0.47964 1.36342,1.23436 1.88707,1.69026 0.52365,0.45589 1.36341,1.16815 1.88706,1.59552 0.52365,0.42737 1.88707,1.48472 1.88707,1.48472"
       style="fill:none;stroke:#eb0a36;stroke-width:0.79701;stroke-linecap:butt;stroke-linejoin:miter;stroke-miterlimit:10;stroke-dasharray:none;stroke-opacity:1"
       transform="matrix(1.3333333,0,0,-1.3333333,188.38667,161.55333)" />
    <path
       id="path41"
       d="m -57.85526,0.05846 c 0,0 1.36341,2.72903 1.88706,3.74656 0.52364,1.01754 1.3634,2.6346 1.88705,3.58715 0.52364,0.95256 1.36342,2.43037 1.88706,3.27818 0.52365,0.84781 1.36343,2.12471 1.88705,2.83229 0.52365,0.70755 1.36342,1.72972 1.88707,2.26744 0.52365,0.53774 1.36341,1.2627 1.88706,1.60815 0.52365,0.34547 1.36341,0.74292 1.88707,0.88167 0.52363,0.13877 1.3634,0.19222 1.88705,0.11838 0.52364,-0.07384 1.36342,-0.36723 1.88706,-0.65058 0.52363,-0.28335 1.36343,-0.91073 1.88705,-1.39167 0.52365,-0.48094 1.36342,-1.41621 1.88707,-2.07459 0.52365,-0.65838 1.36341,-1.86227 1.88705,-2.6706 0.52366,-0.80834 1.36342,-2.23075 1.88706,-3.15531 0.52365,-0.92459 1.36342,-2.50632 1.88707,-3.50843 0.52363,-1.00216 1.36342,-2.67663 1.88705,-3.71426 0.52364,-1.03761 1.36342,-2.73437 1.88706,-3.76423 0.52365,-1.02985 1.3634,-2.67917 1.88705,-3.65828 0.52365,-0.97911 1.36342,-2.51116 1.88707,-3.3985 0.52364,-0.88737 1.3634,-2.23851 1.88706,-2.99703 0.52364,-0.75854 1.36341,-1.87205 1.88707,-2.46989 0.52363,-0.59784 1.36341,-1.42671 1.88705,-1.83897 0.52364,-0.41228 1.36342,-0.92288 1.88704,-1.13248 0.52365,-0.20958 1.36342,-0.38017 1.88707,-0.37813 0.52365,0.002 1.36341,0.17916 1.88707,0.39277 0.52364,0.2136 1.3634,0.73066 1.88705,1.1468 0.52365,0.41614 1.36342,1.25131 1.88707,1.85246 0.52362,0.60117 1.36341,1.719 1.88706,2.48029 0.52363,0.76129 1.3634,2.11699 1.88704,3.00657 0.52365,0.88961 1.36342,2.42452 1.88707,3.40498 0.52365,0.98049 1.36341,2.63122 1.88705,3.66167 0.52365,1.03043 1.36339,2.72773 1.88702,3.76508 0.52366,1.03734 1.36342,2.71051 1.88708,3.71143 0.52363,1.0009 1.3634,2.57986 1.88705,3.50252 0.52363,0.92266 1.36342,2.3416 1.88704,3.14744 0.52365,0.80585 1.36341,2.00528 1.88707,2.66049 0.52365,0.65523 1.36342,1.5847 1.88707,2.06192 0.52363,0.47722 1.3634,1.0983 1.88705,1.37764 0.52365,0.27934 1.36342,0.56593 1.88707,0.63567 0.52364,0.06974 1.3634,0.0098 1.88705,-0.13298 0.52363,-0.14276 1.36341,-0.54665 1.88704,-0.89602 0.52366,-0.34935 1.36344,-1.08066 1.88707,-1.62193 0.52366,-0.54129 1.36342,-1.56873 1.88706,-2.27926 0.52365,-0.71055 1.36342,-1.99164 1.88707,-2.84183 0.52365,-0.85019 1.3634,-2.3315 1.88706,-3.28578 0.52364,-0.95426 1.36341,-2.57361 1.88706,-3.59194 0.52362,-1.01831 1.36341,-2.70755 1.88704,-3.74736 0.52365,-1.03984 1.36344,-2.72909 1.88707,-3.74711 0.52363,-1.01805 1.36342,-2.63666 1.88706,-3.59026 0.52365,-0.95361 1.3634,-2.43335 1.88705,-3.28267 0.52365,-0.84933 1.36342,-2.12938 1.88707,-2.83874 0.52365,-0.70937 1.36342,-1.73412 1.88705,-2.27393 0.52364,-0.53979 1.36342,-1.26874 1.88706,-1.61659 0.52365,-0.34784 1.36344,-0.74919 1.88707,-0.8904 0.52363,-0.14119 1.3634,-0.19868 1.88705,-0.12735 0.52365,0.07135 1.36341,0.36064 1.88706,0.64157 0.52365,0.28093 1.36342,0.90462 1.88706,1.38324 0.52364,0.47864 1.36341,1.41004 1.88706,2.06644 0.52364,0.65639 1.36342,1.85762 1.88706,2.66444 0.52365,0.8068 1.36343,2.22712 1.88705,3.15052 0.52365,0.92341 1.36342,2.5034 1.88706,3.50478 0.52365,1.00138 1.36341,2.67509 1.88707,3.71253 0.52365,1.03747 1.36341,2.73457 1.88706,3.76482 0.52364,1.03025 1.36341,2.68057 1.88706,3.66054 0.52363,0.97996 1.36342,2.51371 1.88707,3.40245 0.52362,0.88871 1.3634,2.24272 1.88704,3.00291 0.52365,0.76021 1.3634,1.87625 1.88705,2.47607 0.52365,0.59983 1.36342,1.43248 1.88707,1.84713 0.52365,0.41465 1.36342,0.92938 1.88705,1.14148 0.52366,0.21208 1.36343,0.3867 1.88708,0.38713 0.52363,4.2e-4 1.36342,-0.17287 1.88707,-0.38405 0.52362,-0.21118 1.3634,-0.72431 1.88702,-1.13808 0.52365,-0.4138 1.36342,-1.24521 1.88707,-1.84434 0.52365,-0.59912 1.36342,-1.71421 1.88707,-2.47382 0.52364,-0.7596 1.3634,-2.11269 1.88705,-3.00095 0.52365,-0.88825 1.36342,-2.42141 1.88707,-3.40104 0.52364,-0.97962 1.36341,-2.62932 1.88706,-3.6594 0.52363,-1.0301 1.36341,-2.72731 1.88704,-3.7648 0.52365,-1.0375 1.36342,-2.71121 1.88707,-3.71284 0.52365,-1.00162 1.36342,-2.58231 1.88707,-3.50617 0.52363,-0.92388 1.3634,-2.34512 1.88705,-3.15251 0.52365,-0.8074 1.36342,-2.00958 1.88707,-2.66668 0.52362,-0.65709 1.36341,-1.5898 1.88705,-2.06923 0.52363,-0.47946 1.36341,-1.10451 1.88704,-1.38634 0.52366,-0.28183 1.36342,-0.57272 1.88707,-0.64496 0.52365,-0.07223 1.36342,-0.01605 1.88706,0.12427 0.52365,0.1403 1.36342,0.54007 1.88707,0.88701 0.52365,0.34694 1.3634,1.07441 1.88705,1.61351 0.52365,0.53909 1.36342,1.56317 1.88706,2.27196 0.52363,0.70877 1.36341,1.9877 1.88705,2.83648 0.52366,0.84879 1.36344,2.32782 1.88707,3.28099 0.52364,0.95317 1.3634,2.571 1.88706,3.58885 0.52365,1.01783 1.36341,2.7072 1.88707,3.74712 0.52365,1.03989 1.3634,2.72945 1.88705,3.74794 0.52365,1.01848 1.36342,2.63792 1.88705,3.59248 0.52364,0.95458 1.36342,2.43673 1.88706,3.28746 0.52365,0.85074 1.36343,2.13289 1.88705,2.84408 0.52365,0.7112 1.36342,1.73976 1.88707,2.2818 0.52365,0.54202 1.36341,1.27448 1.88706,1.62473 0.52365,0.35025 1.88707,0.89968 1.88707,0.89968"
       style="fill:none;stroke:#008080;stroke-width:0.79701;stroke-linecap:butt;stroke-linejoin:miter;stroke-miterlimit:10;stroke-dasharray:none;stroke-opacity:1"
       transform="matrix(1.3333333,0,0,-1.3333333,188.38667,161.55333)" />
    <path
       id="path42"
       d="M -66.331,18.42523 H 128.97676"
       style="fill:none;stroke:#000000;stroke-width:0.3985;stroke-linecap:butt;stroke-linejoin:miter;stroke-miterlimit:10;stroke-dasharray:2.98883, 2.98883;stroke-dashoffset:0;stroke-opacity:0.5"
       transform="matrix(1.3333333,0,0,-1.3333333,188.38667,161.55333)" />
    <path
       id="path43"
       d="M -66.331,-18.42523 H 128.97676"
       style="fill:none;stroke:#000000;stroke-width:0.3985;stroke-linecap:butt;stroke-linejoin:miter;stroke-miterlimit:10;stroke-dasharray:2.98883, 2.98883;stroke-dashoffset:0;stroke-opacity:0.5"
       transform="matrix(1.3333333,0,0,-1.3333333,188.38667,161.55333)" />
  </g>
</svg>
