<?xml version="1.0" encoding="UTF-8" standalone="no"?>
<!-- Created with Inkscape (http://www.inkscape.org/) -->

<svg
   version="1.1"
   id="svg1"
   width="223.62764"
   height="174.82155"
   viewBox="0 0 223.62764 174.82155"
   sodipodi:docname="1.6-ejemplo-inversa-raiz.svg"
   inkscape:version="1.4.2 (f4327f4, 2025-05-13)"
   xmlns:inkscape="http://www.inkscape.org/namespaces/inkscape"
   xmlns:sodipodi="http://sodipodi.sourceforge.net/DTD/sodipodi-0.dtd"
   xmlns="http://www.w3.org/2000/svg"
   xmlns:svg="http://www.w3.org/2000/svg">
  <defs
     id="defs1" />
  <sodipodi:namedview
     id="namedview1"
     pagecolor="#ffffff"
     bordercolor="#000000"
     borderopacity="0.25"
     inkscape:showpageshadow="2"
     inkscape:pageopacity="0.0"
     inkscape:pagecheckerboard="0"
     inkscape:deskcolor="#d1d1d1"
     inkscape:zoom="2.2241536"
     inkscape:cx="114.87516"
     inkscape:cy="102.2861"
     inkscape:window-width="1920"
     inkscape:window-height="1009"
     inkscape:window-x="-8"
     inkscape:window-y="-8"
     inkscape:window-maximized="1"
     inkscape:current-layer="g1">
    <inkscape:page
       x="1.9048804e-07"
       y="2.2749738e-07"
       inkscape:label="21"
       id="page1"
       width="223.62764"
       height="174.82155"
       margin="0"
       bleed="0" />
  </sodipodi:namedview>
  <g
     id="g1"
     inkscape:groupmode="layer"
     inkscape:label="21"
     transform="translate(-127.24345,-78.910155)">
    <path
       id="path2"
       d="M -85.04042,0 H 56.23534"
       style="fill:none;stroke:#000000;stroke-width:0.3985;stroke-linecap:butt;stroke-linejoin:miter;stroke-miterlimit:10;stroke-dasharray:none;stroke-opacity:1"
       transform="matrix(1.3333333,0,0,-1.3333333,240.63067,159.22267)" />
    <path
       id="path3"
       d="M -1.19551,1.59401 C -1.09587,0.99626 0,0.09961 0.29886,0 0,-0.09961 -1.09587,-0.99626 -1.19551,-1.59401"
       style="fill:none;stroke:#000000;stroke-width:0.31879;stroke-linecap:round;stroke-linejoin:round;stroke-miterlimit:10;stroke-dasharray:none;stroke-opacity:1"
       transform="matrix(1.3333333,0,0,-1.3333333,315.61112,159.22267)" />
    <path
       id="path4"
       d="m 3.6453359,-3.2937266 c 0.070312,-0.28125 0.3164063,-1.2890625 1.078125,-1.2890625 0.058594,0 0.3164063,0 0.5507813,0.140625 -0.3046875,0.058594 -0.5273438,0.328125 -0.5273438,0.5859375 0,0.1757813 0.1171875,0.3867188 0.4101563,0.3867188 0.2460937,0 0.5976562,-0.1992188 0.5976562,-0.6328125 0,-0.5625 -0.6445312,-0.7265625 -1.0195312,-0.7265625 -0.6328125,0 -1.0195313,0.5859375 -1.1484375,0.8320312 -0.2695313,-0.7148437 -0.8554688,-0.8320312 -1.171875,-0.8320312 -1.1367188,0 -1.75781251,1.4179687 -1.75781251,1.6875 0,0.1054687 0.10546875,0.1054687 0.12890625,0.1054687 0.0820313,0 0.1171875,-0.023437 0.140625,-0.1171875 0.37499996,-1.1601562 1.08984376,-1.4296875 1.46484376,-1.4296875 0.2109375,0 0.5859375,0.09375 0.5859375,0.7265625 0,0.3398438 -0.1875,1.078125 -0.5859375,2.6015625 -0.1757813,0.67968754 -0.5625,1.13671879 -1.0429688,1.13671879 -0.058594,0 -0.3164062,0 -0.53906246,-0.140625 0.26953126,-0.0585938 0.51562496,-0.29296875 0.51562496,-0.59765625 0,-0.29296874 -0.2460937,-0.37500004 -0.41015621,-0.37500004 -0.328125,0 -0.59765625,0.28125004 -0.59765625,0.63281254 0,0.50390625 0.55078125,0.71484375 1.03124996,0.71484375 0.7148438,0 1.1015625,-0.76171875 1.1367188,-0.83203125 0.1289062,0.41015625 0.5273437,0.83203125 1.1835937,0.83203125 1.125,0 1.7460938,-1.40624999 1.7460938,-1.67578129 0,-0.1054687 -0.1054688,-0.1054687 -0.1289063,-0.1054687 -0.1054687,0 -0.1289062,0.035156 -0.140625,0.1171875 -0.3632812,1.16015624 -1.1132812,1.42968749 -1.453125,1.42968749 -0.4335937,0 -0.609375,-0.3515625 -0.609375,-0.7265625 0,-0.23437499 0.070312,-0.48046879 0.1875,-0.96093749 z m 0,0"
       style="fill:#000000;fill-opacity:1;fill-rule:nonzero;stroke:none"
       aria-label="x"
       transform="matrix(1.3333333,0,0,1.3333333,312.06533,170.59867)" />
    <path
       id="path5"
       d="M 0,-70.867 V 56.23534"
       style="fill:none;stroke:#000000;stroke-width:0.3985;stroke-linecap:butt;stroke-linejoin:miter;stroke-miterlimit:10;stroke-dasharray:none;stroke-opacity:1"
       transform="matrix(1.3333333,0,0,-1.3333333,240.63067,159.22267)" />
    <path
       id="path6"
       d="M -1.19551,1.59401 C -1.09587,0.99626 0,0.09961 0.29886,0 0,-0.09961 -1.09587,-0.99626 -1.19551,-1.59401"
       style="fill:none;stroke:#000000;stroke-width:0.31879;stroke-linecap:round;stroke-linejoin:round;stroke-miterlimit:10;stroke-dasharray:none;stroke-opacity:1"
       transform="matrix(0,-1.3333333,-1.3333333,0,240.63067,84.242213)" />
    <path
       id="path7"
       d="m 5.2963359,-4.1614141 c 0.046875,-0.1523437 0.046875,-0.1757812 0.046875,-0.2460937 0,-0.1992188 -0.1523437,-0.2929688 -0.3164062,-0.2929688 -0.1054688,0 -0.28125,0.058594 -0.375,0.2226563 -0.023437,0.058594 -0.1171875,0.3984375 -0.1523438,0.5976562 -0.082031,0.28125 -0.1523437,0.5742188 -0.2226562,0.8671875 l -0.4921875,1.96875 c -0.046875,0.16406254 -0.515625,0.92578129 -1.2304688,0.92578129 -0.5625,0 -0.6796875,-0.48046875 -0.6796875,-0.89062499 0,-0.4921875 0.1875,-1.171875 0.5625,-2.1328125 0.1757813,-0.4453125 0.2109375,-0.5742188 0.2109375,-0.7851563 0,-0.4921875 -0.3515625,-0.9023437 -0.890625,-0.9023437 -1.04296871,0 -1.44140621,1.5820312 -1.44140621,1.6875 0,0.1054687 0.10546875,0.1054687 0.12890625,0.1054687 0.10546875,0 0.1171875,-0.023437 0.17578125,-0.1992187 0.29296875,-1.0195313 0.72656251,-1.3476563 1.10156251,-1.3476563 0.09375,0 0.2695312,0 0.2695312,0.3515625 0,0.2695313 -0.1054687,0.5507813 -0.1757812,0.7617188 -0.4453125,1.1601562 -0.6328125,1.78125 -0.6328125,2.2851562 0,0.97265629 0.6796875,1.30078129 1.3242187,1.30078129 0.421875,0 0.796875,-0.1875 1.1015625,-0.4921875 -0.140625,0.57421875 -0.2695312,1.1015625 -0.703125,1.68750001 -0.2929687,0.3632812 -0.703125,0.6796875 -1.2070312,0.6796875 -0.1523438,0 -0.6445313,-0.023437 -0.83203126,-0.4570313 0.17578126,0 0.31640626,0 0.48046876,-0.1289062 0.1054687,-0.09375 0.2109375,-0.234375 0.2109375,-0.44531251 0,-0.33984375 -0.2929688,-0.38671875 -0.3984375,-0.38671875 -0.25781251,0 -0.60937501,0.17578125 -0.60937501,0.71484376 0,0.5390625 0.48046871,0.9492187 1.14843751,0.9492187 1.125,0 2.25,-0.9960937 2.5546875,-2.22656246 z m 0,0"
       style="fill:#000000;fill-opacity:1;fill-rule:nonzero;stroke:none"
       aria-label="y"
       transform="matrix(1.3333333,0,0,1.3333333,227.864,85.349333)" />
    <path
       id="path8"
       d="m -56.69362,24.5476 c 0,0 0.31018,-0.09048 0.42931,-0.12501 0.11912,-0.03453 0.31016,-0.08917 0.42929,-0.12393 0.11912,-0.03473 0.31018,-0.09158 0.4293,-0.12651 0.11913,-0.03493 0.31017,-0.09016 0.42929,-0.12521 0.11913,-0.03505 0.31017,-0.09201 0.4293,-0.1274 0.11912,-0.03537 0.31018,-0.09218 0.4293,-0.12758 0.11911,-0.03541 0.31017,-0.09202 0.42928,-0.12761 0.11912,-0.03558 0.31016,-0.09303 0.42929,-0.1289 0.11912,-0.03585 0.31018,-0.09345 0.4293,-0.12954 0.11913,-0.0361 0.31017,-0.09436 0.42929,-0.13063 0.11913,-0.03627 0.31017,-0.09438 0.4293,-0.13084 0.11912,-0.03645 0.31017,-0.09529 0.4293,-0.13193 0.11913,-0.03663 0.31017,-0.09526 0.42929,-0.13212 0.11911,-0.03689 0.31017,-0.0965 0.42928,-0.13366 0.11912,-0.03718 0.3102,-0.09707 0.4293,-0.13432 0.11913,-0.03721 0.31017,-0.0966 0.4293,-0.13408 0.11912,-0.03747 0.31016,-0.09816 0.42929,-0.13601 0.11912,-0.03788 0.31018,-0.0989 0.4293,-0.13692 0.11913,-0.03801 0.31017,-0.09895 0.42929,-0.1371 0.11912,-0.03818 0.31017,-0.09944 0.42929,-0.13799 0.11911,-0.03856 0.31018,-0.10113 0.42931,-0.13992 0.11911,-0.0388 0.31016,-0.10077 0.42927,-0.13971 0.11913,-0.03894 0.31019,-0.10181 0.42931,-0.14101 0.11913,-0.03923 0.31017,-0.10217 0.42929,-0.14166 0.11913,-0.03949 0.31017,-0.10318 0.42929,-0.14296 0.11913,-0.03978 0.31018,-0.10375 0.42931,-0.14381 0.11912,-0.04006 0.31016,-0.10459 0.42929,-0.1449 0.11912,-0.04033 0.31016,-0.10514 0.42929,-0.14577 0.11911,-0.04062 0.31018,-0.10617 0.42929,-0.14706 0.11913,-0.04089 0.31017,-0.10657 0.42929,-0.14771 0.11913,-0.04113 0.31017,-0.10733 0.42929,-0.1488 0.11913,-0.04146 0.31018,-0.10829 0.42931,-0.15009 0.11912,-0.04181 0.31016,-0.10879 0.42929,-0.15116 0.11912,-0.04238 0.31016,-0.11152 0.42929,-0.15421 0.11912,-0.04269 0.31018,-0.11098 0.42931,-0.15355 0.1191,-0.04257 0.31016,-0.11024 0.42927,-0.15333 0.11913,-0.04308 0.31017,-0.1137 0.42929,-0.15725 0.11913,-0.04353 0.31018,-0.11297 0.42931,-0.15655 0.11913,-0.0436 0.31016,-0.11353 0.42929,-0.15767 0.11912,-0.04414 0.31016,-0.11591 0.42929,-0.16046 0.11912,-0.04456 0.31018,-0.11597 0.42931,-0.16071 0.11912,-0.04474 0.31016,-0.11636 0.42929,-0.16176 0.11911,-0.04539 0.31016,-0.11966 0.42927,-0.16545 0.11913,-0.04579 0.31018,-0.11859 0.42931,-0.16456 0.11912,-0.04601 0.31017,-0.12038 0.42929,-0.16698 0.11912,-0.04658 0.31018,-0.12192 0.4293,-0.1689 0.11913,-0.047 0.31017,-0.12239 0.4293,-0.16978 0.11912,-0.04737 0.31016,-0.12381 0.42928,-0.17171 0.11913,-0.04788 0.31019,-0.12511 0.42931,-0.17345 0.11911,-0.04832 0.31017,-0.12605 0.42928,-0.17495 0.11912,-0.04891 0.31018,-0.12815 0.42929,-0.17757 0.11912,-0.04941 0.31018,-0.12879 0.4293,-0.17864 0.11913,-0.04983 0.31017,-0.13014 0.4293,-0.18058 0.11912,-0.05043 0.31016,-0.13198 0.42929,-0.18296 0.11912,-0.05098 0.31018,-0.13296 0.4293,-0.18449 0.11913,-0.05151 0.31017,-0.13467 0.42929,-0.18684 0.11911,-0.05219 0.31017,-0.1365 0.42929,-0.18924 0.11911,-0.05276 0.31018,-0.13762 0.42929,-0.19097 0.11913,-0.05336 0.31017,-0.13943 0.4293,-0.19356 0.11912,-0.05412 0.31016,-0.14177 0.42929,-0.19657 0.11912,-0.05483 0.31017,-0.1431 0.4293,-0.19855 0.11913,-0.05545 0.31017,-0.1449 0.42929,-0.20113 0.11913,-0.05624 0.31017,-0.14717 0.42929,-0.20415 0.11911,-0.05699 0.31019,-0.14875 0.42931,-0.20655 0.11911,-0.05779 0.31016,-0.15134 0.42928,-0.20998 0.11912,-0.05867 0.31016,-0.15356 0.42929,-0.21281 0.11912,-0.05927 0.31018,-0.15412 0.4293,-0.21434 0.11913,-0.06022 0.31017,-0.15836 0.42929,-0.21973 0.11913,-0.06136 0.31018,-0.16019 0.42931,-0.22254 0.11912,-0.06234 0.31016,-0.16331 0.42929,-0.22686 0.11912,-0.06354 0.31016,-0.16667 0.42929,-0.23119 0.11911,-0.06451 0.31018,-0.1681 0.42929,-0.23379 0.11913,-0.06568 0.31017,-0.17254 0.42929,-0.23961 0.11913,-0.06711 0.31017,-0.17553 0.42929,-0.24398 0.11913,-0.06843 0.31018,-0.17953 0.42931,-0.24935 0.11912,-0.06981 0.31016,-0.18248 0.42929,-0.2539 0.11912,-0.0714 0.31016,-0.18785 0.42929,-0.26083 0.11913,-0.07297 0.31018,-0.1906 0.42931,-0.26514 0.11911,-0.07452 0.31016,-0.19555 0.42927,-0.27206 0.11913,-0.07651 0.31017,-0.20093 0.42929,-0.27942 0.11913,-0.07849 0.31018,-0.20572 0.42931,-0.28633 0.11912,-0.08064 0.31016,-0.21179 0.42929,-0.29478 0.11912,-0.083 0.31016,-0.21807 0.42929,-0.30343 0.11913,-0.08537 0.31018,-0.22352 0.42931,-0.31185 0.11912,-0.08836 0.31016,-0.23336 0.42929,-0.32485 0.11911,-0.09149 0.31016,-0.23978 0.42927,-0.33456 0.11913,-0.09479 0.3102,-0.24991 0.42931,-0.34864 0.11913,-0.09871 0.31016,-0.25982 0.42929,-0.3629 0.11912,-0.10305 0.31016,-0.27177 0.42929,-0.37997 0.11913,-0.1082 0.31018,-0.28598 0.42931,-0.39989 0.11912,-0.11389 0.31016,-0.3005 0.42929,-0.42108 0.11912,-0.12056 0.31018,-0.31966 0.4293,-0.44787 0.11911,-0.12822 0.31017,-0.34012 0.42928,-0.47623 0.11912,-0.13611 0.31018,-0.35054 0.42929,-0.50478 0.11912,-0.15423 0.31018,-0.43236 0.4293,-0.60684 0.11913,-0.17448 0.31017,-0.4519 0.4293,-0.65077 0.11912,-0.19884 0.31016,-0.53878 0.42928,-0.78246 0.11913,-0.24367 0.31019,-0.55822 0.42931,-0.97386 0.11913,-0.41562 0.42929,-2.02166 0.42929,-2.02166"
       style="fill:none;stroke:#eb0a36;stroke-width:0.79701;stroke-linecap:butt;stroke-linejoin:miter;stroke-miterlimit:10;stroke-dasharray:none;stroke-opacity:1"
       transform="matrix(1.3333333,0,0,-1.3333333,240.63067,159.22267)" />
    <path
       id="path9"
       d="m 0,-14.17339 c 0,0 0.20671,-0.0025 0.2861,-0.0056 0.0794,-0.0032 0.20674,-0.01088 0.28612,-0.0173 0.07941,-0.0064 0.20674,-0.01935 0.28613,-0.02898 0.07939,-0.0096 0.20675,-0.02763 0.28612,-0.04045 0.07941,-0.0128 0.20674,-0.03587 0.28613,-0.05189 0.0794,-0.01602 0.20673,-0.04436 0.28612,-0.06359 0.07941,-0.01924 0.20673,-0.05259 0.28613,-0.07504 0.07939,-0.02243 0.20673,-0.06106 0.28612,-0.08673 0.07939,-0.02563 0.20673,-0.06935 0.28613,-0.09819 0.07938,-0.02882 0.20673,-0.07759 0.28612,-0.10963 0.07939,-0.03205 0.20673,-0.08608 0.28613,-0.12133 0.07938,-0.03525 0.20673,-0.09433 0.28612,-0.13279 0.07939,-0.03847 0.20673,-0.10279 0.28613,-0.14447 0.07938,-0.04168 0.20673,-0.11104 0.2861,-0.15593 0.07941,-0.04488 0.20675,-0.11951 0.28614,-0.16761 0.07939,-0.04809 0.20674,-0.1278 0.28612,-0.17907 0.0794,-0.05129 0.20674,-0.13605 0.28613,-0.19052 0.07939,-0.05451 0.20674,-0.14452 0.28611,-0.20223 0.07941,-0.05769 0.20675,-0.15277 0.28614,-0.21367 0.07939,-0.06091 0.20673,-0.16122 0.28612,-0.22534 0.0794,-0.06413 0.20672,-0.16952 0.28613,-0.23682 0.07938,-0.0673 0.20673,-0.17778 0.28612,-0.24829 0.07939,-0.07051 0.20672,-0.18623 0.28613,-0.25995 0.07938,-0.07373 0.20673,-0.19447 0.28612,-0.2714 0.07939,-0.07696 0.20672,-0.20298 0.28613,-0.28312 0.07938,-0.08015 0.20673,-0.21119 0.28612,-0.29455 0.07939,-0.08336 0.20673,-0.21969 0.28612,-0.30623 0.07939,-0.08655 0.20674,-0.22774 0.28611,-0.31749 0.07941,-0.08974 0.20675,-0.23639 0.28614,-0.32939 0.07939,-0.09299 0.20674,-0.24466 0.28612,-0.34082 0.0794,-0.09618 0.20674,-0.25296 0.28613,-0.35231 0.07939,-0.09935 0.20674,-0.2612 0.28611,-0.36377 0.07941,-0.10256 0.20673,-0.26964 0.28614,-0.37544 0.07939,-0.10579 0.20672,-0.27811 0.28612,-0.38712 0.0794,-0.10901 0.20672,-0.28639 0.28613,-0.39857 0.07937,-0.1122 0.20672,-0.29465 0.28612,-0.41005 0.07939,-0.11542 0.20672,-0.30312 0.28613,-0.42174 0.07937,-0.11861 0.20672,-0.31137 0.28612,-0.43318 0.07939,-0.1218 0.20672,-0.31964 0.28613,-0.44466 0.07937,-0.125 0.20672,-0.32809 0.2861,-0.45632 0.07941,-0.1282 0.20674,-0.33636 0.28613,-0.46778 0.0794,-0.13142 0.20674,-0.34484 0.28612,-0.47948 0.07941,-0.13463 0.20674,-0.35307 0.28613,-0.49094 0.07939,-0.13784 0.20675,-0.36154 0.28612,-0.5026 0.07941,-0.14106 0.20674,-0.36983 0.28613,-0.51407 0.0794,-0.14423 0.20673,-0.37807 0.28612,-0.52553 0.07941,-0.14745 0.20673,-0.38652 0.28613,-0.5372 0.07939,-0.1507 0.20673,-0.39504 0.28612,-0.5489 0.07939,-0.15388 0.20673,-0.40308 0.28614,-0.56014 0.07937,-0.15704 0.20671,-0.41153 0.28611,-0.57182 0.07938,-0.16028 0.20673,-0.41999 0.28612,-0.58349 0.07939,-0.16351 0.20673,-0.42828 0.28613,-0.59495 0.07938,-0.16669 0.20673,-0.43652 0.28612,-0.60643 0.07939,-0.16989 0.20673,-0.44499 0.28612,-0.61809 0.07939,-0.17311 0.20674,-0.45326 0.28612,-0.62956 0.07941,-0.17629 0.20674,-0.46152 0.28613,-0.64102 0.07939,-0.17949 0.20674,-0.46996 0.28612,-0.6527 0.0794,-0.18272 0.20674,-0.47842 0.28613,-0.66436 0.07939,-0.18596 0.20674,-0.48673 0.28612,-0.67586 0.07941,-0.18914 0.20672,-0.49497 0.28613,-0.6873 0.07939,-0.19236 0.20673,-0.50342 0.28612,-0.69898 0.07939,-0.19556 0.20672,-0.5117 0.28613,-0.71043 0.07938,-0.19875 0.20673,-0.51997 0.28612,-0.72193 0.07939,-0.20193 0.20672,-0.52842 0.28613,-0.73358 0.07938,-0.20516 0.20673,-0.53668 0.28612,-0.74504 0.07939,-0.20836 0.20672,-0.54515 0.28613,-0.75673 0.07938,-0.21156 0.20673,-0.5534 0.2861,-0.76819 0.07941,-0.21478 0.20674,-0.56186 0.28613,-0.77986 0.0794,-0.218 0.20675,-0.57016 0.28612,-0.79134 0.07941,-0.22117 0.20674,-0.5784 0.28614,-0.80279 0.07939,-0.22438 0.20674,-0.58687 0.28611,-0.81445 0.07941,-0.2276 0.20674,-0.59513 0.28613,-0.82595 0.0794,-0.2308 0.20673,-0.60359 0.28612,-0.83761 0.07941,-0.23401 0.20673,-0.61186 0.28614,-0.84906 0.07937,-0.23721 0.20672,-0.62014 0.28611,-0.86054 0.0794,-0.24041 0.20673,-0.62857 0.28613,-0.8722 0.07938,-0.24367 0.20673,-0.63706 0.28612,-0.8839 0.0794,-0.24683 0.20673,-0.6451 0.28614,-0.89514 0.07937,-0.25003 0.20672,-0.65378 0.28612,-0.90704 0.07939,-0.25325 0.20672,-0.66182 0.28612,-0.91828 0.07938,-0.25642 0.20673,-0.67029 0.28611,-0.92994 0.07941,-0.25965 0.20674,-0.67858 0.28613,-0.94143 0.07939,-0.26286 0.20674,-0.68702 0.28612,-0.95309 0.07941,-0.26607 0.20674,-0.69528 0.28614,-0.96457 0.07938,-0.26927 0.20673,-0.70374 0.28611,-0.97624 0.07941,-0.27248 0.20673,-0.71198 0.28613,-0.98769 0.0794,-0.27569 0.20673,-0.7205 0.28612,-0.99939 0.07941,-0.27889 0.20673,-0.72851 0.28614,-1.0106 0.07937,-0.28209 0.20672,-0.73723 0.28611,-1.02254 0.07939,-0.28529 0.20673,-0.74524 0.28613,-1.03377 0.07938,-0.2885 0.20673,-0.75392 0.28612,-1.04565 0.07939,-0.29172 0.20673,-0.762 0.28614,-1.0569 0.07937,-0.29491 0.20672,-0.77043 0.28611,-1.06859 0.07939,-0.29814 0.20673,-0.77893 0.28612,-1.08028 0.07939,-0.30131 0.20674,-0.78697 0.28612,-1.09149 0.0794,-0.30455 0.20674,-0.79565 0.28613,-1.10341 0.07939,-0.30776 0.20674,-0.80372 0.28612,-1.11466 0.0794,-0.31092 0.20674,-0.81214 0.28613,-1.12632 0.07939,-0.31416 0.28612,-1.138 0.28612,-1.138"
       style="fill:none;stroke:#008080;stroke-width:0.79701;stroke-linecap:butt;stroke-linejoin:miter;stroke-miterlimit:10;stroke-dasharray:none;stroke-opacity:1"
       transform="matrix(1.3333333,0,0,-1.3333333,240.63067,159.22267)" />
    <g
       id="g9"
       aria-label="y=&#10;√"
       transform="matrix(1.3333333,0,0,1.3333333,145.65333,116.436)">
      <path
         id="path10"
         d="m 4.8391016,-3.79575 c 0.046875,-0.140625 0.046875,-0.1523437 0.046875,-0.2226562 0,-0.1875 -0.140625,-0.2695313 -0.2929688,-0.2695313 -0.1054687,0 -0.2578125,0.058594 -0.3515625,0.1992188 -0.023437,0.058594 -0.09375,0.3632812 -0.140625,0.5390625 -0.070312,0.2578125 -0.140625,0.5273437 -0.1992187,0.796875 l -0.4453125,1.7929687 c -0.035156,0.15234375 -0.46875,0.85546875 -1.125,0.85546875 -0.5039063,0 -0.6210938,-0.4453125 -0.6210938,-0.80859375 0,-0.4570312 0.1757813,-1.078125 0.515625,-1.9570312 0.1523438,-0.4101563 0.1992188,-0.515625 0.1992188,-0.7148438 0,-0.4453125 -0.328125,-0.8203125 -0.8203125,-0.8203125 -0.94921879,0 -1.31250004,1.453125 -1.31250004,1.5351563 0,0.1054687 0.09375,0.1054687 0.1171875,0.1054687 0.09375,0 0.10546875,-0.023437 0.15234375,-0.1875 0.26953125,-0.9375 0.66796879,-1.2304687 1.00781249,-1.2304687 0.082031,0 0.2578125,0 0.2578125,0.3164062 0,0.2460938 -0.1054687,0.515625 -0.1757812,0.703125 C 1.2531641,-2.10825 1.0773828,-1.54575 1.0773828,-1.077 c 0,0.890625 0.6210938,1.18359375 1.21875,1.18359375 0.3867188,0 0.7265625,-0.1640625 0.9960938,-0.4453125 C 3.1633203,0.17690625 3.0461328,0.66909375 2.6476953,1.1964375 2.3898828,1.5362813 2.0148828,1.82925 1.5578516,1.82925 c -0.140625,0 -0.59765629,-0.035156 -0.76171879,-0.421875 0.1640625,0 0.29296879,0 0.43359379,-0.1171875 0.09375,-0.09375 0.1992187,-0.2226562 0.1992187,-0.41015625 0,-0.31640625 -0.2695312,-0.3515625 -0.375,-0.3515625 -0.22265624,0 -0.55078124,0.1640625 -0.55078124,0.64453125 0,0.5039063 0.43359375,0.8671875 1.05468754,0.8671875 1.0195312,0 2.0507812,-0.9023437 2.3320312,-2.02734375 z m 0,0"
         style="fill:#eb0a36;fill-opacity:1;fill-rule:nonzero;stroke:none" />
      <path
         id="path11"
         d="m 14.855703,-3.2566875 c 0.152344,0 0.339844,0 0.339844,-0.1992187 0,-0.1992188 -0.1875,-0.1992188 -0.328125,-0.1992188 H 8.9025781 c -0.140625,0 -0.328125,0 -0.328125,0.1992188 0,0.1992187 0.1875,0.1992187 0.3398438,0.1992187 z m 0.01172,1.9335938 c 0.140625,0 0.328125,0 0.328125,-0.1992188 0,-0.1992187 -0.1875,-0.1992187 -0.339844,-0.1992187 H 8.9142969 c -0.1523438,0 -0.3398438,0 -0.3398438,0.1992187 0,0.1992188 0.1875,0.1992188 0.328125,0.1992188 z m 0,0"
         style="fill:#eb0a36;fill-opacity:1;fill-rule:nonzero;stroke:none" />
      <path
         id="path12"
         d="M 22.402578,0.69253125 20.644766,-3.186375 c -0.07031,-0.1523437 -0.117188,-0.1523437 -0.152344,-0.1523437 -0.01172,0 -0.05859,0 -0.164063,0.070312 l -0.949218,0.7265625 c -0.128907,0.09375 -0.128907,0.1289062 -0.128907,0.1523437 0,0.046875 0.03516,0.1054688 0.105469,0.1054688 0.05859,0 0.222656,-0.1289063 0.328125,-0.2109375 0.07031,-0.046875 0.210938,-0.1640625 0.328125,-0.2460938 l 1.957031,4.3125 c 0.07031,0.164063 0.117188,0.164063 0.210938,0.164063 0.152344,0 0.175781,-0.058594 0.246094,-0.1992187 L 26.949453,-7.827 c 0.07031,-0.140625 0.07031,-0.1757812 0.07031,-0.1992187 0,-0.1054688 -0.08203,-0.1992188 -0.199219,-0.1992188 -0.08203,0 -0.152344,0.046875 -0.222656,0.2109375 z m 0,0"
         style="fill:#eb0a36;fill-opacity:1;fill-rule:nonzero;stroke:none" />
    </g>
    <path
       id="path13"
       d="M 0,0 H 30.6"
       style="fill:none;stroke:#eb0a36;stroke-width:0.398;stroke-linecap:butt;stroke-linejoin:miter;stroke-miterlimit:10;stroke-dasharray:none;stroke-opacity:1"
       transform="matrix(1.3333333,0,0,-1.3333333,181.42267,105.736)" />
    <g
       id="g13"
       aria-label="−1−x"
       transform="matrix(1.3333333,0,0,1.3333333,181.42267,116.436)">
      <path
         id="path14"
         d="m 6.5619063,-2.29575 c 0.1757812,0 0.3515625,0 0.3515625,-0.1992187 0,-0.1992188 -0.1757813,-0.1992188 -0.3515625,-0.1992188 h -5.390625 c -0.1640625,0 -0.3398438,0 -0.3398438,0.1992188 0,0.1992187 0.1757813,0.1992187 0.3398438,0.1992187 z m 0,0"
         style="fill:#eb0a36;fill-opacity:1;fill-rule:nonzero;stroke:none" />
      <path
         id="path15"
         d="m 10.678117,-6.373875 c 0,-0.234375 0,-0.2578125 -0.234375,-0.2578125 C 9.8343672,-5.998875 8.9554609,-5.998875 8.6390547,-5.998875 v 0.3164063 c 0.1992187,0 0.7851562,0 1.3007812,-0.2578125 v 5.15624995 c 0,0.3515625 -0.035156,0.48046875 -0.9257812,0.48046875 H 8.6976484 V 0.001125 c 0.3515625,-0.03515625 1.2070313,-0.03515625 1.6054686,-0.03515625 0.398438,0 1.265625,0 1.617188,0.03515625 v -0.3046875 h -0.316407 c -0.902343,0 -0.925781,-0.1171875 -0.925781,-0.48046875 z m 0,0"
         style="fill:#eb0a36;fill-opacity:1;fill-rule:nonzero;stroke:none" />
      <path
         id="path16"
         d="m 21.503313,-2.29575 c 0.175781,0 0.351562,0 0.351562,-0.1992187 0,-0.1992188 -0.175781,-0.1992188 -0.351562,-0.1992188 h -5.390625 c -0.164063,0 -0.339844,0 -0.339844,0.1992188 0,0.1992187 0.175781,0.1992187 0.339844,0.1992187 z m 0,0"
         style="fill:#eb0a36;fill-opacity:1;fill-rule:nonzero;stroke:none" />
      <path
         id="path17"
         d="m 28.229875,-3.0105937 c 0.05859,-0.2578125 0.292969,-1.171875 0.984375,-1.171875 0.04687,0 0.292969,0 0.503906,0.1289062 -0.28125,0.046875 -0.480468,0.3046875 -0.480468,0.5390625 0,0.1640625 0.105468,0.3515625 0.375,0.3515625 0.222656,0 0.539062,-0.1875 0.539062,-0.5859375 0,-0.515625 -0.585937,-0.65625 -0.925781,-0.65625 -0.574219,0 -0.925781,0.5273438 -1.042969,0.7617188 -0.257812,-0.65625 -0.785156,-0.7617188 -1.078125,-0.7617188 -1.042969,0 -1.605469,1.2890625 -1.605469,1.5351563 0,0.1054687 0.105469,0.1054687 0.117188,0.1054687 0.08203,0 0.117187,-0.023437 0.128906,-0.1171875 0.339844,-1.0546875 0.996094,-1.3007812 1.335938,-1.3007812 0.1875,0 0.539062,0.09375 0.539062,0.6679687 0,0.3046875 -0.164062,0.9726563 -0.539062,2.3671875 -0.152344,0.62109375 -0.503907,1.04296875 -0.949219,1.04296875 -0.05859,0 -0.28125,0 -0.492188,-0.12890625 0.246094,-0.0585938 0.46875,-0.26953125 0.46875,-0.5390625 0,-0.2695312 -0.222656,-0.3515625 -0.375,-0.3515625 -0.292968,0 -0.539062,0.2578125 -0.539062,0.57421875 0,0.45703125 0.492187,0.65625 0.9375,0.65625 0.65625,0 1.007812,-0.69140625 1.042969,-0.75 0.117187,0.36328125 0.480468,0.75 1.078125,0.75 1.019531,0 1.59375,-1.27734375 1.59375,-1.53515625 0,-0.09375 -0.09375,-0.09375 -0.128907,-0.09375 -0.08203,0 -0.105468,0.035156 -0.128906,0.1054688 -0.328125,1.0664062 -0.996094,1.31249995 -1.324219,1.31249995 -0.386718,0 -0.539062,-0.328125 -0.539062,-0.65625 0,-0.22265625 0.05859,-0.44531245 0.164062,-0.87890625 z m 0,0"
         style="fill:#eb0a36;fill-opacity:1;fill-rule:nonzero;stroke:none" />
    </g>
    <g
       id="g17"
       aria-label="y=−x&#10;2&#10;−1"
       transform="matrix(1.3333333,0,0,1.3333333,280.492,220.03067)">
      <path
         id="path18"
         d="m 4.8399844,-3.7964375 c 0.046875,-0.140625 0.046875,-0.1523437 0.046875,-0.2226562 0,-0.1875 -0.140625,-0.2695313 -0.2929688,-0.2695313 -0.1054687,0 -0.2578125,0.058594 -0.3515625,0.1992188 -0.023437,0.058594 -0.09375,0.3632812 -0.140625,0.5390625 -0.070312,0.2578125 -0.140625,0.5273437 -0.1992187,0.796875 L 3.4571719,-0.9605 c -0.035156,0.15234375 -0.46875,0.85546875 -1.125,0.85546875 -0.5039063,0 -0.6210938,-0.4453125 -0.6210938,-0.80859375 0,-0.4570312 0.1757813,-1.078125 0.515625,-1.9570312 0.1523438,-0.4101563 0.1992188,-0.515625 0.1992188,-0.7148438 0,-0.4453125 -0.328125,-0.8203125 -0.8203125,-0.8203125 -0.94921877,0 -1.31250002,1.453125 -1.31250002,1.5351563 0,0.1054687 0.09375,0.1054687 0.1171875,0.1054687 0.09375,0 0.10546875,-0.023437 0.15234375,-0.1875 0.26953125,-0.9375 0.66796877,-1.2304687 1.00781247,-1.2304687 0.082031,0 0.2578125,0 0.2578125,0.3164062 0,0.2460938 -0.1054687,0.515625 -0.1757812,0.703125 -0.3984375,1.0546875 -0.5742188,1.6171875 -0.5742188,2.0859375 0,0.890625 0.6210938,1.18359375 1.21875,1.18359375 0.3867188,0 0.7265625,-0.1640625 0.9960938,-0.4453125 C 3.1642031,0.17621875 3.0470156,0.66840625 2.6485781,1.19575 2.3907656,1.5355938 2.0157656,1.8285625 1.5587344,1.8285625 c -0.140625,0 -0.59765627,-0.035156 -0.76171877,-0.421875 0.1640625,0 0.29296877,0 0.43359377,-0.1171875 0.09375,-0.09375 0.1992187,-0.2226562 0.1992187,-0.41015625 0,-0.31640625 -0.2695312,-0.3515625 -0.375,-0.3515625 -0.22265622,0 -0.55078122,0.1640625 -0.55078122,0.64453125 0,0.5039063 0.43359375,0.8671875 1.05468752,0.8671875 1.0195312,0 2.0507812,-0.9023437 2.3320312,-2.02734375 z m 0,0"
         style="fill:#008080;fill-opacity:1;fill-rule:nonzero;stroke:none" />
      <path
         id="path19"
         d="m 14.856586,-3.257375 c 0.152344,0 0.339844,0 0.339844,-0.1992187 0,-0.1992188 -0.1875,-0.1992188 -0.328125,-0.1992188 H 8.9034609 c -0.140625,0 -0.328125,0 -0.328125,0.1992188 0,0.1992187 0.1875,0.1992187 0.3398438,0.1992187 z m 0.01172,1.9335938 c 0.140625,0 0.328125,0 0.328125,-0.1992188 0,-0.1992187 -0.1875,-0.1992187 -0.339844,-0.1992187 H 8.9151797 c -0.1523438,0 -0.3398438,0 -0.3398438,0.1992187 0,0.1992188 0.1875,0.1992188 0.328125,0.1992188 z m 0,0"
         style="fill:#008080;fill-opacity:1;fill-rule:nonzero;stroke:none" />
      <path
         id="path20"
         d="m 25.084125,-2.2964375 c 0.175781,0 0.351563,0 0.351563,-0.1992187 0,-0.1992188 -0.175782,-0.1992188 -0.351563,-0.1992188 H 19.6935 c -0.164062,0 -0.339844,0 -0.339844,0.1992188 0,0.1992187 0.175782,0.1992187 0.339844,0.1992187 z m 0,0"
         style="fill:#008080;fill-opacity:1;fill-rule:nonzero;stroke:none" />
      <path
         id="path21"
         d="m 29.598773,-3.0112812 c 0.05859,-0.2578125 0.292969,-1.171875 0.984375,-1.171875 0.04687,0 0.292969,0 0.503907,0.1289062 -0.28125,0.046875 -0.480469,0.3046875 -0.480469,0.5390625 0,0.1640625 0.105469,0.3515625 0.375,0.3515625 0.222656,0 0.539062,-0.1875 0.539062,-0.5859375 0,-0.515625 -0.585937,-0.65625 -0.925781,-0.65625 -0.574219,0 -0.925781,0.5273438 -1.042969,0.7617188 -0.257812,-0.65625 -0.785156,-0.7617188 -1.078125,-0.7617188 -1.042968,0 -1.605468,1.2890625 -1.605468,1.5351563 0,0.1054687 0.105468,0.1054687 0.117187,0.1054687 0.08203,0 0.117188,-0.023437 0.128906,-0.1171875 0.339844,-1.0546875 0.996094,-1.3007812 1.335938,-1.3007812 0.1875,0 0.539062,0.09375 0.539062,0.6679687 0,0.3046875 -0.164062,0.9726563 -0.539062,2.3671875 -0.152344,0.62109375 -0.503906,1.04296875 -0.949219,1.04296875 -0.05859,0 -0.28125,0 -0.492187,-0.12890625 0.246093,-0.0585938 0.46875,-0.26953125 0.46875,-0.5390625 0,-0.2695312 -0.222657,-0.3515625 -0.375,-0.3515625 -0.292969,0 -0.539063,0.2578125 -0.539063,0.57421875 0,0.45703125 0.492188,0.65625 0.9375,0.65625 0.65625,0 1.007813,-0.69140625 1.042969,-0.75 0.117187,0.36328125 0.480469,0.75 1.078125,0.75 1.019531,0 1.59375,-1.27734375 1.59375,-1.53515625 0,-0.09375 -0.09375,-0.09375 -0.128906,-0.09375 -0.08203,0 -0.105469,0.035156 -0.128907,0.1054688 -0.328125,1.0664062 -0.996093,1.31249995 -1.324218,1.31249995 -0.386719,0 -0.539063,-0.328125 -0.539063,-0.65625 0,-0.22265625 0.05859,-0.44531245 0.164063,-0.87890625 z m 0,0"
         style="fill:#008080;fill-opacity:1;fill-rule:nonzero;stroke:none" />
      <path
         id="path22"
         d="m 35.484516,-4.8804219 h -0.234375 c -0.02344,0.1523438 -0.08203,0.5625 -0.175782,0.6328125 -0.05859,0.035156 -0.597656,0.035156 -0.691406,0.035156 h -1.289062 c 0.738281,-0.6445313 0.984375,-0.84375 1.394531,-1.171875 0.515625,-0.4101563 0.996094,-0.84375 0.996094,-1.5 0,-0.84375 -0.738282,-1.359375 -1.628907,-1.359375 -0.867187,0 -1.453125,0.609375 -1.453125,1.2421875 0,0.3632812 0.304688,0.3984375 0.375,0.3984375 0.164063,0 0.375,-0.1171875 0.375,-0.375 0,-0.1289063 -0.05859,-0.3632813 -0.421875,-0.3632813 0.222657,-0.5039062 0.691407,-0.65625 1.019532,-0.65625 0.703125,0 1.066406,0.5507813 1.066406,1.1132813 0,0.609375 -0.433594,1.0898437 -0.65625,1.3359375 l -1.6875,1.6640625 c -0.07031,0.058594 -0.07031,0.070312 -0.07031,0.2695312 H 35.2853 Z m 0,0"
         style="fill:#008080;fill-opacity:1;fill-rule:nonzero;stroke:none" />
      <path
         id="path23"
         d="m 45.214008,-2.2964375 c 0.175781,0 0.351562,0 0.351562,-0.1992187 0,-0.1992188 -0.175781,-0.1992188 -0.351562,-0.1992188 h -5.390625 c -0.164063,0 -0.339844,0 -0.339844,0.1992188 0,0.1992187 0.175781,0.1992187 0.339844,0.1992187 z m 0,0"
         style="fill:#008080;fill-opacity:1;fill-rule:nonzero;stroke:none" />
      <path
         id="path24"
         d="m 51.542133,-6.3745625 c 0,-0.234375 0,-0.2578125 -0.234375,-0.2578125 -0.609375,0.6328125 -1.488281,0.6328125 -1.804688,0.6328125 v 0.3164063 c 0.199219,0 0.785157,0 1.300782,-0.2578125 v 5.15624995 c 0,0.3515625 -0.03516,0.48046875 -0.925782,0.48046875 H 49.561664 V 4.375e-4 c 0.351563,-0.03515625 1.207031,-0.03515625 1.605469,-0.03515625 0.398437,0 1.265625,0 1.617187,0.03515625 V -0.30425 h -0.316406 c -0.902344,0 -0.925781,-0.1171875 -0.925781,-0.48046875 z m 0,0"
         style="fill:#008080;fill-opacity:1;fill-rule:nonzero;stroke:none" />
    </g>
  </g>
</svg>
