<?xml version="1.0" encoding="UTF-8" standalone="no"?>
<!-- Created with Inkscape (http://www.inkscape.org/) -->

<svg
   version="1.1"
   id="svg1"
   width="184.92986"
   height="140.78148"
   viewBox="0 0 184.92986 140.78148"
   sodipodi:docname="4.3-ejemplo-funcion2.svg"
   inkscape:version="1.4.2 (f4327f4, 2025-05-13)"
   xmlns:inkscape="http://www.inkscape.org/namespaces/inkscape"
   xmlns:sodipodi="http://sodipodi.sourceforge.net/DTD/sodipodi-0.dtd"
   xmlns="http://www.w3.org/2000/svg"
   xmlns:svg="http://www.w3.org/2000/svg">
  <defs
     id="defs1" />
  <sodipodi:namedview
     id="namedview1"
     pagecolor="#ffffff"
     bordercolor="#000000"
     borderopacity="0.25"
     inkscape:showpageshadow="2"
     inkscape:pageopacity="0.0"
     inkscape:pagecheckerboard="0"
     inkscape:deskcolor="#d1d1d1"
     inkscape:zoom="2.2241536"
     inkscape:cx="95.092353"
     inkscape:cy="88.797824"
     inkscape:window-width="1920"
     inkscape:window-height="1009"
     inkscape:window-x="-8"
     inkscape:window-y="-8"
     inkscape:window-maximized="1"
     inkscape:current-layer="g1">
    <inkscape:page
       x="0"
       y="0"
       inkscape:label="41"
       id="page1"
       width="184.92986"
       height="140.78148"
       margin="0"
       bleed="0" />
  </sodipodi:namedview>
  <g
     id="g1"
     inkscape:groupmode="layer"
     inkscape:label="41"
     transform="translate(-146.81233,-92.58203)">
    <path
       id="path2"
       d="M -56.69275,0 H 78.91156"
       style="fill:none;stroke:#000000;stroke-width:0.3985;stroke-linecap:butt;stroke-linejoin:miter;stroke-miterlimit:10;stroke-dasharray:none;stroke-opacity:1"
       transform="matrix(1.3333333,0,0,-1.3333333,222.40267,188.00933)" />
    <path
       id="path3"
       d="M -1.19551,1.59401 C -1.09587,0.99626 0,0.09961 0.29886,0 0,-0.09961 -1.09587,-0.99626 -1.19551,-1.59401"
       style="fill:none;stroke:#000000;stroke-width:0.31879;stroke-linecap:round;stroke-linejoin:round;stroke-miterlimit:10;stroke-dasharray:none;stroke-opacity:1"
       transform="matrix(1.3333333,0,0,-1.3333333,327.61808,188.00933)" />
    <path
       id="path4"
       d="m 3.6442656,-3.2919297 c 0.070312,-0.28125 0.3164063,-1.2890625 1.078125,-1.2890625 0.058594,0 0.3164063,0 0.5507813,0.140625 -0.3046875,0.058594 -0.5273438,0.328125 -0.5273438,0.5859375 0,0.1757813 0.1171875,0.3867188 0.4101563,0.3867188 0.2460937,0 0.5976562,-0.1992188 0.5976562,-0.6328125 0,-0.5625 -0.6445312,-0.7265625 -1.0195312,-0.7265625 -0.6328125,0 -1.0195313,0.5859375 -1.1484375,0.8320312 -0.2695313,-0.7148437 -0.8554688,-0.8320312 -1.171875,-0.8320312 -1.1367188,0 -1.75781252,1.4179687 -1.75781252,1.6875 0,0.1054687 0.10546875,0.1054687 0.12890625,0.1054687 0.0820313,0 0.1171875,-0.023437 0.140625,-0.1171875 0.37499997,-1.1601562 1.08984377,-1.4296875 1.46484377,-1.4296875 0.2109375,0 0.5859375,0.09375 0.5859375,0.7265625 0,0.3398438 -0.1875,1.078125 -0.5859375,2.6015625 -0.1757813,0.67968751 -0.5625,1.13671876 -1.0429688,1.13671876 -0.058594,0 -0.3164062,0 -0.53906247,-0.140625 0.26953127,-0.0585938 0.51562497,-0.29296875 0.51562497,-0.59765625 0,-0.29296871 -0.2460937,-0.37500001 -0.41015622,-0.37500001 -0.328125,0 -0.59765625,0.28125001 -0.59765625,0.63281251 0,0.50390625 0.55078125,0.71484375 1.03124997,0.71484375 0.7148438,0 1.1015625,-0.76171875 1.1367188,-0.83203125 0.1289062,0.41015625 0.5273437,0.83203125 1.1835937,0.83203125 1.125,0 1.7460938,-1.40624996 1.7460938,-1.67578126 0,-0.1054687 -0.1054688,-0.1054687 -0.1289063,-0.1054687 -0.1054687,0 -0.1289062,0.035156 -0.140625,0.1171875 -0.3632812,1.16015621 -1.1132812,1.42968746 -1.453125,1.42968746 -0.4335937,0 -0.609375,-0.3515625 -0.609375,-0.7265625 0,-0.23437496 0.070312,-0.48046876 0.1875,-0.96093746 z m 0,0"
       style="fill:#000000;fill-opacity:1;fill-rule:nonzero;stroke:none"
       aria-label="x"
       transform="matrix(1.3333333,0,0,1.3333333,324.07067,199.38533)" />
    <path
       id="path5"
       d="M 0,-34.01564 V 67.57301"
       style="fill:none;stroke:#000000;stroke-width:0.3985;stroke-linecap:butt;stroke-linejoin:miter;stroke-miterlimit:10;stroke-dasharray:none;stroke-opacity:1"
       transform="matrix(1.3333333,0,0,-1.3333333,222.40267,188.00933)" />
    <path
       id="path6"
       d="M -1.19551,1.59401 C -1.09587,0.99626 0,0.09961 0.29886,0 0,-0.09961 -1.09587,-0.99626 -1.19551,-1.59401"
       style="fill:none;stroke:#000000;stroke-width:0.31879;stroke-linecap:round;stroke-linejoin:round;stroke-miterlimit:10;stroke-dasharray:none;stroke-opacity:1"
       transform="matrix(0,-1.3333333,-1.3333333,0,222.40267,97.911987)" />
    <path
       id="path7"
       d="m 5.2974141,-4.1595078 c 0.046875,-0.1523438 0.046875,-0.1757813 0.046875,-0.2460938 0,-0.1992187 -0.1523438,-0.2929687 -0.3164063,-0.2929687 -0.1054687,0 -0.28125,0.058594 -0.375,0.2226562 -0.023437,0.058594 -0.1171875,0.3984375 -0.1523437,0.5976563 -0.082031,0.28125 -0.1523438,0.5742187 -0.2226563,0.8671875 l -0.4921875,1.96875 c -0.046875,0.16406249 -0.515625,0.92578124 -1.2304687,0.92578124 -0.5625,0 -0.6796875,-0.48046875 -0.6796875,-0.89062504 0,-0.4921875 0.1875,-1.171875 0.5625,-2.1328125 0.1757812,-0.4453125 0.2109375,-0.5742187 0.2109375,-0.7851562 0,-0.4921875 -0.3515625,-0.9023438 -0.890625,-0.9023438 -1.04296879,0 -1.44140629,1.5820313 -1.44140629,1.6875 0,0.1054688 0.10546875,0.1054688 0.12890625,0.1054688 0.10546875,0 0.1171875,-0.023437 0.17578125,-0.1992188 0.29296875,-1.0195312 0.72656249,-1.3476562 1.10156249,-1.3476562 0.09375,0 0.2695313,0 0.2695313,0.3515625 0,0.2695312 -0.1054688,0.5507812 -0.1757813,0.7617187 -0.4453125,1.1601563 -0.6328125,1.78125 -0.6328125,2.2851563 0,0.97265624 0.6796875,1.30078124 1.3242188,1.30078124 0.421875,0 0.796875,-0.1875 1.1015625,-0.4921875 -0.140625,0.57421875 -0.2695313,1.1015625 -0.703125,1.68749996 -0.2929688,0.3632813 -0.703125,0.6796875 -1.2070313,0.6796875 -0.1523437,0 -0.6445312,-0.023437 -0.83203124,-0.4570312 0.17578124,0 0.31640624,0 0.48046874,-0.1289063 0.1054688,-0.09375 0.2109375,-0.234375 0.2109375,-0.44531246 0,-0.33984375 -0.2929687,-0.38671875 -0.3984375,-0.38671875 -0.25781249,0 -0.60937499,0.17578125 -0.60937499,0.71484371 0,0.5390625 0.48046879,0.9492188 1.14843749,0.9492188 1.125,0 2.25,-0.9960938 2.5546875,-2.22656251 z m 0,0"
       style="fill:#000000;fill-opacity:1;fill-rule:nonzero;stroke:none"
       aria-label="y"
       transform="matrix(1.3333333,0,0,1.3333333,209.636,99.018667)" />
    <path
       id="path8"
       d="m -22.6771,54.42558 c 0,0 0.51304,-4.00894 0.71006,-5.47048 0.19704,-1.46155 0.51301,-3.71215 0.71005,-5.06339 0.19702,-1.35124 0.513,-3.42919 0.71004,-4.67549 0.19702,-1.2463 0.51301,-3.16037 0.71005,-4.30698 0.19704,-1.14659 0.513,-2.90497 0.71004,-3.95697 0.19704,-1.05199 0.513,-2.6628 0.71004,-3.62512 0.19703,-0.96236 0.513,-2.43321 0.71003,-3.31078 0.19704,-0.87755 0.51302,-2.21649 0.71006,-3.01405 0.19703,-0.79756 0.51301,-2.01209 0.71003,-2.7343 0.19704,-0.72218 0.51302,-1.81947 0.71004,-2.47078 0.19704,-0.6513 0.51303,-1.63855 0.71006,-2.22339 0.19703,-0.58484 0.51301,-1.46905 0.71004,-1.99171 0.19703,-0.52266 0.51301,-1.31066 0.71004,-1.77529 0.19702,-0.46464 0.513,-1.16287 0.71004,-1.57355 0.19704,-0.41067 0.51302,-1.02564 0.71005,-1.38635 0.19704,-0.3607 0.513,-0.89885 0.71004,-1.21333 0.19704,-0.31448 0.51301,-0.78131 0.71005,-1.0533 0.19704,-0.27202 0.513,-0.67399 0.71004,-0.9071 C -9.69926,3.44011 -9.38329,3.09785 -9.18626,2.90019 -8.98923,2.70255 -8.67323,2.4142 -8.47621,2.24863 -8.27917,2.08304 -7.9632,1.84354 -7.76616,1.70674 -7.56914,1.56998 -7.25316,1.37387 -7.05612,1.2628 -6.8591,1.15172 -6.54312,0.99455 -6.34608,0.90623 -6.14906,0.81789 -5.83307,0.69466 -5.63603,0.62611 -5.439,0.55756 -5.12303,0.46364 -4.926,0.41211 -4.72896,0.36057 -4.413,0.29184 -4.21596,0.25465 -4.01892,0.21747 -3.70294,0.16945 -3.5059,0.1441 -3.30887,0.11876 -2.9929,0.08789 -2.79587,0.07196 -2.59883,0.05602 -2.28285,0.03807 -2.08583,0.02922 -1.8888,0.02037 -1.57281,0.01205 -1.3758,0.00812 -1.17876,0.00417 -0.86276,0.00197 -0.66573,8.4e-4 -0.4687,-2.4e-4 -0.15273,2.6e-4 0.04428,0 c 0.19702,-2.6e-4 0.513,9e-5 0.71004,-0.00119 0.19703,-0.00133 0.51301,-0.00424 0.71005,-0.0083 0.19703,-0.00406 0.513,-0.01256 0.71004,-0.02094 0.19703,-0.00837 0.513,-0.02523 0.71004,-0.03944 0.19703,-0.01422 0.513,-0.04155 0.71003,-0.06299 0.19704,-0.02144 0.51303,-0.06155 0.71005,-0.09152 0.19704,-0.02997 0.51302,-0.08495 0.71004,-0.12457 0.19704,-0.03963 0.51302,-0.11081 0.71004,-0.16108 0.19704,-0.05026 0.51303,-0.13934 0.71007,-0.2012 0.19702,-0.06187 0.513,-0.17037 0.71003,-0.24464 0.19703,-0.07427 0.513,-0.20333 0.71004,-0.29067 0.19704,-0.08736 0.51302,-0.23791 0.71005,-0.33892 0.19704,-0.10102 0.513,-0.27399 0.71004,-0.38912 0.19704,-0.11512 0.513,-0.31108 0.71004,-0.44066 0.19704,-0.12958 0.513,-0.34901 0.71004,-0.49326 0.19703,-0.14425 0.51303,-0.38738 0.71005,-0.54636 0.19703,-0.15899 0.51301,-0.42576 0.71003,-0.59951 0.19704,-0.17373 0.51302,-0.46437 0.71004,-0.65277 0.19704,-0.1884 0.51303,-0.50226 0.71007,-0.70502 0.19702,-0.20275 0.513,-0.53961 0.71004,-0.75642 0.19702,-0.21681 0.513,-0.57587 0.71003,-0.80623 0.19704,-0.23037 0.51302,-0.61081 0.71006,-0.85417 0.19703,-0.24335 0.513,-0.64422 0.71003,-0.89984 0.19704,-0.25558 0.51301,-0.67537 0.71004,-0.94238 0.19704,-0.26703 0.51302,-0.7045 0.71005,-0.98203 0.19704,-0.27751 0.51302,-0.73125 0.71004,-1.01819 0.19704,-0.28692 0.51302,-0.75464 0.71004,-1.04983 0.19704,-0.2952 0.51301,-0.7755 0.71005,-1.0777 0.19704,-0.3022 0.51301,-0.7926 0.71005,-1.10034 0.19703,-0.30776 0.513,-0.80589 0.71004,-1.11768 0.19702,-0.31177 0.513,-0.8152 0.71004,-1.12943 0.19704,-0.31422 0.51301,-0.8204 0.71005,-1.13531 0.19703,-0.31489 0.513,-0.82059 0.71004,-1.13426 0.19703,-0.31366 0.513,-0.81603 0.71004,-1.12648 0.19703,-0.31045 0.51301,-0.80592 0.71005,-1.11108 0.19703,-0.30519 0.51301,-0.79077 0.71003,-1.08843 0.19704,-0.29767 0.51302,-0.76914 0.71004,-1.05694 0.19704,-0.28779 0.51303,-0.7418 0.71007,-1.01731 0.19702,-0.27549 0.513,-0.7077 0.71004,-0.96835 0.19702,-0.26065 0.513,-0.66712 0.71003,-0.91024 0.19703,-0.24308 0.51302,-0.61909 0.71006,-0.84185 0.19703,-0.22278 0.513,-0.56416 0.71003,-0.76369 0.19704,-0.19954 0.513,-0.5012 0.71004,-0.67439 0.19704,-0.1732 0.513,-0.43013 0.71004,-0.5739 0.19704,-0.14375 0.51302,-0.3512 0.71005,-0.46228 0.19704,-0.1111 0.51302,-0.26343 0.71004,-0.33842 0.19703,-0.07497 0.51301,-0.16667 0.71003,-0.20207 0.19704,-0.03539 0.51304,-0.06089 0.71007,-0.05312 0.19703,0.0078 0.513,0.05452 0.71004,0.10917 0.19702,0.05466 0.513,0.17937 0.71004,0.28478 0.19702,0.10541 0.51301,0.3148 0.71005,0.47491 0.19704,0.16011 0.513,0.46015 0.71004,0.67908 0.19703,0.21892 0.513,0.61687 0.71003,0.8988 0.19704,0.28194 0.51302,0.78406 0.71006,1.13323 0.19703,0.3492 0.51301,0.96251 0.71003,1.38341 0.19704,0.42091 0.51302,1.15303 0.71004,1.65019 0.19704,0.49718 0.51303,1.35501 0.71005,1.93309 0.19704,0.57805 0.51302,1.56947 0.71005,2.23324 0.19703,0.66376 0.513,1.79639 0.71004,2.55072 0.19703,0.75432 0.513,2.03612 0.71004,2.88602 0.19704,0.8499 0.51302,2.2889 0.71005,3.23949 0.19704,0.95061 0.513,2.55527 0.71004,3.6118 0.19703,1.05656 0.513,2.83517 0.71004,4.00301 0.19703,1.16781 0.51301,3.1293 0.71005,4.41384 0.19704,1.2846 0.51302,3.43764 0.71004,4.84454 0.19703,1.40688 0.51301,3.76041 0.71004,5.29539 0.19703,1.53497 0.71005,5.76754 0.71005,5.76754"
       style="fill:none;stroke:#eb0a36;stroke-width:0.79701;stroke-linecap:butt;stroke-linejoin:miter;stroke-miterlimit:10;stroke-dasharray:none;stroke-opacity:1"
       transform="matrix(1.3333333,0,0,-1.3333333,222.40267,188.00933)" />
    <path
       id="path9"
       d="M 0.90707,0 C 0.90707,0.50096 0.50096,0.90707 0,0.90707 -0.50096,0.90707 -0.90707,0.50096 -0.90707,0 c 0,-0.50096 0.40611,-0.90707 0.90707,-0.90707 0.50096,0 0.90707,0.40611 0.90707,0.90707 z"
       style="fill:#eb0a36;fill-opacity:1;fill-rule:nonzero;stroke:#eb0a36;stroke-width:0.3985;stroke-linecap:butt;stroke-linejoin:miter;stroke-miterlimit:10;stroke-dasharray:none;stroke-opacity:1"
       transform="matrix(1.3333333,0,0,-1.3333333,222.40267,188.00933)" />
    <path
       id="path10"
       d="m 23.58417,-18.14172 c 0,0.50096 -0.40612,0.90707 -0.90707,0.90707 -0.50098,0 -0.9071,-0.40611 -0.9071,-0.90707 0,-0.50098 0.40612,-0.90709 0.9071,-0.90709 0.50095,0 0.90707,0.40611 0.90707,0.90709 z"
       style="fill:#eb0a36;fill-opacity:1;fill-rule:nonzero;stroke:#eb0a36;stroke-width:0.3985;stroke-linecap:butt;stroke-linejoin:miter;stroke-miterlimit:10;stroke-dasharray:none;stroke-opacity:1"
       transform="matrix(1.3333333,0,0,-1.3333333,222.40267,188.00933)" />
    <path
       id="path11"
       d="m 34.92273,-30.61404 c 0,0.50097 -0.40613,0.90709 -0.90709,0.90709 -0.50098,0 -0.90709,-0.40612 -0.90709,-0.90709 0,-0.50096 0.40611,-0.90709 0.90709,-0.90709 0.50096,0 0.90709,0.40613 0.90709,0.90709 z"
       style="fill:#eb0a36;fill-opacity:1;fill-rule:nonzero;stroke:#eb0a36;stroke-width:0.3985;stroke-linecap:butt;stroke-linejoin:miter;stroke-miterlimit:10;stroke-dasharray:none;stroke-opacity:1"
       transform="matrix(1.3333333,0,0,-1.3333333,222.40267,188.00933)" />
    <g
       id="g11"
       aria-label="f(x)=x&#10;4&#10;−4x&#10;3"
       transform="matrix(1.3333333,0,0,1.3333333,236.1,146.40133)">
      <path
         id="path12"
         d="m 3.6574219,-3.9836172 h 0.8554687 c 0.1992188,0 0.3046875,0 0.3046875,-0.1992187 0,-0.1054688 -0.1054687,-0.1054688 -0.2695312,-0.1054688 H 3.7160156 l 0.2109375,-1.1367187 c 0.035156,-0.2109375 0.1757813,-0.9140625 0.234375,-1.0429688 0.09375,-0.1875 0.2578125,-0.3398437 0.46875,-0.3398437 0.046875,0 0.3046875,0 0.4921875,0.1875 -0.4335937,0.035156 -0.5390625,0.3867187 -0.5390625,0.5390625 0,0.2226562 0.1757813,0.3398437 0.3632813,0.3398437 0.2695312,0 0.5507812,-0.2109375 0.5507812,-0.5976562 0,-0.4570313 -0.4570312,-0.6796875 -0.8671875,-0.6796875 -0.3398437,0 -0.9609375,0.1757812 -1.265625,1.1601562 -0.058594,0.2109375 -0.082031,0.3164063 -0.328125,1.5703125 H 2.3566406 c -0.1992187,0 -0.3046875,0 -0.3046875,0.1875 0,0.1171875 0.09375,0.1171875 0.28125,0.1171875 h 0.65625 l -0.75,3.93750001 C 2.0636719,0.91482031 1.8996094,1.8288828 1.3722656,1.8288828 c -0.035156,0 -0.28125,0 -0.46874998,-0.1875 C 1.3605469,1.6179453 1.4425781,1.2546641 1.4425781,1.1023203 c 0,-0.22265624 -0.1757812,-0.33984374 -0.3632812,-0.33984374 -0.25781253,0 -0.55078128,0.2109375 -0.55078128,0.59765624 0,0.4453125 0.43359375,0.6796875 0.84374998,0.6796875 0.5507813,0 0.9492188,-0.5859375 1.125,-0.9609375 0.328125,-0.63281249 0.5507813,-1.83984374 0.5625,-1.91015624 z m 0,0"
         style="fill:#eb0a36;fill-opacity:1;fill-rule:nonzero;stroke:none" />
      <path
         id="path13"
         d="m 9.2472656,2.3913828 c 0,-0.035156 0,-0.046875 -0.1640625,-0.2226562 -1.2421875,-1.25390629 -1.5703125,-3.12890629 -1.5703125,-4.6640625 0,-1.7226563 0.3867188,-3.4570313 1.6054688,-4.7109375 0.1289062,-0.1171875 0.1289062,-0.1289063 0.1289062,-0.1640625 0,-0.070312 -0.035156,-0.1054688 -0.09375,-0.1054688 -0.1054687,0 -0.9960937,0.6796875 -1.5820312,1.9453125 -0.515625,1.1015625 -0.6328125,2.203125 -0.6328125,3.0351563 0,0.7851562 0.1171875,1.99218746 0.65625,3.11718746 0.5976562,1.21875004 1.453125,1.87500004 1.5585937,1.87500004 0.058594,0 0.09375,-0.035156 0.09375,-0.1054688 z m 0,0"
         style="fill:#eb0a36;fill-opacity:1;fill-rule:nonzero;stroke:none" />
      <path
         id="path14"
         d="m 13.155469,-3.0109609 c 0.05859,-0.2578125 0.292968,-1.171875 0.984375,-1.171875 0.04687,0 0.292968,0 0.503906,0.1289062 -0.28125,0.046875 -0.480469,0.3046875 -0.480469,0.5390625 0,0.1640625 0.105469,0.3515625 0.375,0.3515625 0.222656,0 0.539063,-0.1875 0.539063,-0.5859375 0,-0.515625 -0.585938,-0.65625 -0.925782,-0.65625 -0.574218,0 -0.925781,0.5273438 -1.042968,0.7617188 -0.257813,-0.65625 -0.785157,-0.7617188 -1.078125,-0.7617188 -1.042969,0 -1.605469,1.2890625 -1.605469,1.5351563 0,0.1054687 0.105469,0.1054687 0.117187,0.1054687 0.08203,0 0.117188,-0.023437 0.128907,-0.1171875 0.339843,-1.0546875 0.996093,-1.3007812 1.335937,-1.3007812 0.1875,0 0.539063,0.09375 0.539063,0.6679687 0,0.3046875 -0.164063,0.9726563 -0.539063,2.3671875 -0.152344,0.62109376 -0.503906,1.04296876 -0.949219,1.04296876 -0.05859,0 -0.28125,0 -0.492187,-0.12890625 0.246094,-0.0585937 0.46875,-0.26953125 0.46875,-0.5390625 0,-0.26953121 -0.222656,-0.35156251 -0.375,-0.35156251 -0.292969,0 -0.539063,0.25781251 -0.539063,0.57421876 0,0.45703125 0.492188,0.65625 0.9375,0.65625 0.65625,0 1.007813,-0.69140625 1.042969,-0.75 0.117188,0.36328125 0.480469,0.75 1.078125,0.75 1.019531,0 1.59375,-1.27734376 1.59375,-1.53515626 0,-0.09375 -0.09375,-0.09375 -0.128906,-0.09375 -0.08203,0 -0.105469,0.035156 -0.128906,0.1054688 -0.328125,1.06640621 -0.996094,1.31249996 -1.324219,1.31249996 -0.386719,0 -0.539063,-0.328125 -0.539063,-0.65625 0,-0.22265625 0.05859,-0.44531246 0.164063,-0.87890626 z m 0,0"
         style="fill:#eb0a36;fill-opacity:1;fill-rule:nonzero;stroke:none" />
      <path
         id="path15"
         d="m 18.405469,-2.4953359 c 0,-0.7734375 -0.117188,-1.9804688 -0.65625,-3.1054688 -0.597657,-1.21875 -1.464844,-1.875 -1.558594,-1.875 -0.05859,0 -0.105469,0.046875 -0.105469,0.1054688 0,0.035156 0,0.046875 0.199219,0.234375 0.972656,0.984375 1.535156,2.5664062 1.535156,4.640625 0,1.71093746 -0.363281,3.45703121 -1.59375,4.7226562 -0.140625,0.1171875 -0.140625,0.1289063 -0.140625,0.1640625 0,0.058594 0.04687,0.1054688 0.105469,0.1054688 0.09375,0 0.996094,-0.6796875 1.582031,-1.94531254 0.503906,-1.1015625 0.632813,-2.20312496 0.632813,-3.04687496 z m 10.59375,-0.7617188 c 0.152343,0 0.339843,0 0.339843,-0.1992187 0,-0.1992188 -0.1875,-0.1992188 -0.328125,-0.1992188 h -5.964843 c -0.140625,0 -0.328125,0 -0.328125,0.1992188 0,0.1992187 0.1875,0.1992187 0.339843,0.1992187 z m 0.01172,1.9335938 c 0.140625,0 0.328125,0 0.328125,-0.1992188 0,-0.1992187 -0.1875,-0.1992187 -0.339843,-0.1992187 h -5.941407 c -0.152343,0 -0.339843,0 -0.339843,0.1992187 0,0.1992188 0.1875,0.1992188 0.328125,0.1992188 z m 0,0"
         style="fill:#eb0a36;fill-opacity:1;fill-rule:nonzero;stroke:none" />
      <path
         id="path16"
         d="m 36.001172,-3.0109609 c 0.05859,-0.2578125 0.292969,-1.171875 0.984375,-1.171875 0.04687,0 0.292969,0 0.503906,0.1289062 -0.28125,0.046875 -0.480469,0.3046875 -0.480469,0.5390625 0,0.1640625 0.105469,0.3515625 0.375,0.3515625 0.222657,0 0.539063,-0.1875 0.539063,-0.5859375 0,-0.515625 -0.585938,-0.65625 -0.925781,-0.65625 -0.574219,0 -0.925782,0.5273438 -1.042969,0.7617188 -0.257813,-0.65625 -0.785156,-0.7617188 -1.078125,-0.7617188 -1.042969,0 -1.605469,1.2890625 -1.605469,1.5351563 0,0.1054687 0.105469,0.1054687 0.117188,0.1054687 0.08203,0 0.117187,-0.023437 0.128906,-0.1171875 0.339844,-1.0546875 0.996094,-1.3007812 1.335937,-1.3007812 0.1875,0 0.539063,0.09375 0.539063,0.6679687 0,0.3046875 -0.164063,0.9726563 -0.539063,2.3671875 -0.152343,0.62109376 -0.503906,1.04296876 -0.949218,1.04296876 -0.05859,0 -0.28125,0 -0.492188,-0.12890625 0.246094,-0.0585937 0.46875,-0.26953125 0.46875,-0.5390625 0,-0.26953121 -0.222656,-0.35156251 -0.375,-0.35156251 -0.292969,0 -0.539062,0.25781251 -0.539062,0.57421876 0,0.45703125 0.492187,0.65625 0.9375,0.65625 0.65625,0 1.007812,-0.69140625 1.042968,-0.75 0.117188,0.36328125 0.480469,0.75 1.078125,0.75 1.019532,0 1.59375,-1.27734376 1.59375,-1.53515626 0,-0.09375 -0.09375,-0.09375 -0.128906,-0.09375 -0.08203,0 -0.105469,0.035156 -0.128906,0.1054688 -0.328125,1.06640621 -0.996094,1.31249996 -1.324219,1.31249996 -0.386719,0 -0.539062,-0.328125 -0.539062,-0.65625 0,-0.22265625 0.05859,-0.44531246 0.164062,-0.87890626 z m 0,0"
         style="fill:#eb0a36;fill-opacity:1;fill-rule:nonzero;stroke:none" />
      <path
         id="path17"
         d="m 42.062695,-4.7629141 v -0.2460937 h -0.773437 v -3.1054688 c 0,-0.1523437 0,-0.1992187 -0.152344,-0.1992187 -0.09375,0 -0.117187,0 -0.1875,0.09375 l -2.308594,3.2109375 v 0.2460937 h 2.050782 v 0.5742188 c 0,0.234375 0,0.328125 -0.5625,0.328125 h -0.1875 v 0.2460937 c 0.351562,-0.011719 0.796875,-0.023437 1.042968,-0.023437 0.257813,0 0.703125,0.011719 1.054688,0.023437 v -0.2460937 h -0.1875 c -0.5625,0 -0.5625,-0.09375 -0.5625,-0.328125 v -0.5742188 z m -1.324218,-2.8007812 v 2.5546875 h -1.839844 z m 0,0"
         style="fill:#eb0a36;fill-opacity:1;fill-rule:nonzero;stroke:none" />
      <path
         id="path18"
         d="m 51.616406,-2.2961172 c 0.175781,0 0.351563,0 0.351563,-0.1992187 0,-0.1992188 -0.175782,-0.1992188 -0.351563,-0.1992188 h -5.390625 c -0.164062,0 -0.339844,0 -0.339844,0.1992188 0,0.1992187 0.175782,0.1992187 0.339844,0.1992187 z m 0,0"
         style="fill:#eb0a36;fill-opacity:1;fill-rule:nonzero;stroke:none" />
      <path
         id="path19"
         d="m 57.944531,-1.6398672 v 0.86718751 c 0,0.3515625 -0.02344,0.46875 -0.761719,0.46875 H 56.971875 V 7.578125e-4 c 0.410156,-0.0351562525 0.9375,-0.0351562525 1.347656,-0.0351562525 0.421875,0 0.949219,0 1.359375,0.0351562525 V -0.30392969 h -0.210937 c -0.738282,0 -0.761719,-0.1171875 -0.761719,-0.46875 V -1.6398672 h 0.996094 V -1.9562734 H 58.70625 v -4.5234375 c 0,-0.1992188 0,-0.2578125 -0.152344,-0.2578125 -0.09375,0 -0.117187,0 -0.199219,0.1171875 l -3.058593,4.6640625 v 0.3164062 z m 0.05859,-0.3164062 H 55.57734 l 2.425781,-3.7148438 z m 0,0"
         style="fill:#eb0a36;fill-opacity:1;fill-rule:nonzero;stroke:none" />
      <path
         id="path20"
         d="m 63.323437,-3.0109609 c 0.05859,-0.2578125 0.292969,-1.171875 0.984375,-1.171875 0.04687,0 0.292969,0 0.503907,0.1289062 -0.28125,0.046875 -0.480469,0.3046875 -0.480469,0.5390625 0,0.1640625 0.105469,0.3515625 0.375,0.3515625 0.222656,0 0.539062,-0.1875 0.539062,-0.5859375 0,-0.515625 -0.585937,-0.65625 -0.925781,-0.65625 -0.574219,0 -0.925781,0.5273438 -1.042969,0.7617188 -0.257812,-0.65625 -0.785156,-0.7617188 -1.078125,-0.7617188 -1.042968,0 -1.605468,1.2890625 -1.605468,1.5351563 0,0.1054687 0.105468,0.1054687 0.117187,0.1054687 0.08203,0 0.117188,-0.023437 0.128906,-0.1171875 0.339844,-1.0546875 0.996094,-1.3007812 1.335938,-1.3007812 0.1875,0 0.539062,0.09375 0.539062,0.6679687 0,0.3046875 -0.164062,0.9726563 -0.539062,2.3671875 -0.152344,0.62109376 -0.503906,1.04296876 -0.949219,1.04296876 -0.05859,0 -0.28125,0 -0.492187,-0.12890625 0.246093,-0.0585937 0.46875,-0.26953125 0.46875,-0.5390625 0,-0.26953121 -0.222657,-0.35156251 -0.375,-0.35156251 -0.292969,0 -0.539063,0.25781251 -0.539063,0.57421876 0,0.45703125 0.492188,0.65625 0.9375,0.65625 0.65625,0 1.007813,-0.69140625 1.042969,-0.75 0.117187,0.36328125 0.480469,0.75 1.078125,0.75 1.019531,0 1.59375,-1.27734376 1.59375,-1.53515626 0,-0.09375 -0.09375,-0.09375 -0.128906,-0.09375 -0.08203,0 -0.105469,0.035156 -0.128907,0.1054688 -0.328125,1.06640621 -0.996093,1.31249996 -1.324218,1.31249996 -0.386719,0 -0.539063,-0.328125 -0.539063,-0.65625 0,-0.22265625 0.05859,-0.44531246 0.164063,-0.87890626 z m 0,0"
         style="fill:#eb0a36;fill-opacity:1;fill-rule:nonzero;stroke:none" />
      <path
         id="path21"
         d="m 67.589062,-5.9465078 c 0.550782,0 0.9375,0.375 0.9375,1.125 0,0.8671875 -0.503906,1.125 -0.902343,1.125 -0.28125,0 -0.890625,-0.082031 -1.183594,-0.4921875 0.328125,-0.011719 0.398437,-0.2460938 0.398437,-0.3867188 0,-0.2226562 -0.164062,-0.3867187 -0.386718,-0.3867187 -0.1875,0 -0.386719,0.1171875 -0.386719,0.4101562 0,0.65625 0.726562,1.078125 1.570312,1.078125 0.972657,0 1.640625,-0.6445312 1.640625,-1.3476562 0,-0.5390625 -0.445312,-1.0898438 -1.21875,-1.2421875 0.738282,-0.2695313 0.996094,-0.796875 0.996094,-1.21875 0,-0.5507813 -0.632812,-0.9609375 -1.40625,-0.9609375 -0.773437,0 -1.359375,0.375 -1.359375,0.9375 0,0.234375 0.152344,0.3632812 0.363281,0.3632812 0.210938,0 0.351563,-0.1640625 0.351563,-0.3515625 0,-0.1992187 -0.140625,-0.3515625 -0.351563,-0.3632812 0.234375,-0.3046875 0.714844,-0.3867188 0.972657,-0.3867188 0.316406,0 0.761718,0.1523438 0.761718,0.7617188 0,0.2929687 -0.105468,0.609375 -0.28125,0.8320312 -0.234375,0.2578125 -0.421875,0.28125 -0.773437,0.2929688 -0.175781,0.023437 -0.1875,0.023437 -0.222656,0.023437 -0.01172,0 -0.07031,0.011719 -0.07031,0.09375 0,0.09375 0.05859,0.09375 0.175781,0.09375 z m 0,0"
         style="fill:#eb0a36;fill-opacity:1;fill-rule:nonzero;stroke:none" />
    </g>
  </g>
</svg>
