<?xml version="1.0" encoding="UTF-8" standalone="no"?>
<!-- Created with Inkscape (http://www.inkscape.org/) -->

<svg
   version="1.1"
   id="svg1"
   width="223.92912"
   height="174.8"
   viewBox="0 0 223.92912 174.80001"
   sodipodi:docname="4.5-funcion2.svg"
   inkscape:version="1.4.2 (f4327f4, 2025-05-13)"
   xmlns:inkscape="http://www.inkscape.org/namespaces/inkscape"
   xmlns:sodipodi="http://sodipodi.sourceforge.net/DTD/sodipodi-0.dtd"
   xmlns="http://www.w3.org/2000/svg"
   xmlns:svg="http://www.w3.org/2000/svg">
  <defs
     id="defs1" />
  <sodipodi:namedview
     id="namedview1"
     pagecolor="#ffffff"
     bordercolor="#000000"
     borderopacity="0.25"
     inkscape:showpageshadow="2"
     inkscape:pageopacity="0.0"
     inkscape:pagecheckerboard="0"
     inkscape:deskcolor="#d1d1d1"
     inkscape:zoom="2.2241536"
     inkscape:cx="112.62711"
     inkscape:cy="102.73571"
     inkscape:window-width="1920"
     inkscape:window-height="1009"
     inkscape:window-x="-8"
     inkscape:window-y="-8"
     inkscape:window-maximized="1"
     inkscape:current-layer="g1">
    <inkscape:page
       x="0"
       y="0"
       inkscape:label="44"
       id="page1"
       width="223.92912"
       height="174.8"
       margin="0"
       bleed="0" />
  </sodipodi:namedview>
  <g
     id="g1"
     inkscape:groupmode="layer"
     inkscape:label="44"
     transform="translate(-129.32422,-78.867187)">
    <path
       id="path2"
       d="M -28.3468,0 H 112.92896"
       style="fill:none;stroke:#000000;stroke-width:0.3985;stroke-linecap:butt;stroke-linejoin:miter;stroke-miterlimit:10;stroke-dasharray:none;stroke-opacity:1"
       transform="matrix(1.3333333,0,0,-1.3333333,197.31467,234.76933)" />
    <path
       id="path3"
       d="M -1.19551,1.59401 C -1.09587,0.99626 0,0.09961 0.29886,0 0,-0.09961 -1.09587,-0.99626 -1.19551,-1.59401"
       style="fill:none;stroke:#000000;stroke-width:0.31879;stroke-linecap:round;stroke-linejoin:round;stroke-miterlimit:10;stroke-dasharray:none;stroke-opacity:1"
       transform="matrix(1.3333333,0,0,-1.3333333,347.88661,234.76933)" />
    <path
       id="path4"
       d="m 3.6454141,-3.2935703 c 0.070312,-0.28125 0.3164062,-1.2890625 1.078125,-1.2890625 0.058594,0 0.3164062,0 0.5507812,0.140625 -0.3046875,0.058594 -0.5273437,0.328125 -0.5273437,0.5859375 0,0.1757812 0.1171875,0.3867187 0.4101562,0.3867187 0.2460938,0 0.5976563,-0.1992187 0.5976563,-0.6328125 0,-0.5625 -0.6445313,-0.7265625 -1.0195313,-0.7265625 -0.6328125,0 -1.0195312,0.5859375 -1.1484375,0.8320313 -0.2695312,-0.7148438 -0.8554687,-0.8320313 -1.171875,-0.8320313 -1.1367187,0 -1.75781249,1.4179688 -1.75781249,1.6875 0,0.1054688 0.10546875,0.1054688 0.12890625,0.1054688 0.0820313,0 0.1171875,-0.023437 0.140625,-0.1171875 0.37500004,-1.1601563 1.08984374,-1.4296875 1.46484374,-1.4296875 0.2109375,0 0.5859375,0.09375 0.5859375,0.7265625 0,0.3398437 -0.1875,1.078125 -0.5859375,2.6015625 -0.1757812,0.67968749 -0.5625,1.13671874 -1.0429687,1.13671874 -0.058594,0 -0.3164063,0 -0.53906254,-0.140625 0.26953124,-0.0585938 0.51562504,-0.29296875 0.51562504,-0.59765625 0,-0.29296879 -0.2460938,-0.37499999 -0.41015629,-0.37499999 -0.328125,0 -0.59765625,0.28124999 -0.59765625,0.63281249 0,0.50390625 0.55078125,0.71484375 1.03125004,0.71484375 0.7148437,0 1.1015625,-0.76171875 1.1367187,-0.83203125 0.1289063,0.41015625 0.5273438,0.83203125 1.1835938,0.83203125 1.125,0 1.7460937,-1.40625004 1.7460937,-1.67578124 0,-0.1054688 -0.1054687,-0.1054688 -0.1289062,-0.1054688 -0.1054688,0 -0.1289063,0.035156 -0.140625,0.1171875 -0.3632813,1.16015629 -1.1132813,1.42968754 -1.453125,1.42968754 -0.4335938,0 -0.609375,-0.3515625 -0.609375,-0.7265625 0,-0.23437504 0.070312,-0.48046874 0.1875,-0.96093754 z m 0,0"
       style="fill:#000000;fill-opacity:1;fill-rule:nonzero;stroke:none"
       aria-label="x"
       transform="matrix(1.3333333,0,0,1.3333333,344.33867,246.14533)" />
    <path
       id="path5"
       d="M 0,-14.17339 V 112.92896"
       style="fill:none;stroke:#000000;stroke-width:0.3985;stroke-linecap:butt;stroke-linejoin:miter;stroke-miterlimit:10;stroke-dasharray:none;stroke-opacity:1"
       transform="matrix(1.3333333,0,0,-1.3333333,197.31467,234.76933)" />
    <path
       id="path6"
       d="M -1.19551,1.59401 C -1.09587,0.99626 0,0.09961 0.29886,0 0,-0.09961 -1.09587,-0.99626 -1.19551,-1.59401"
       style="fill:none;stroke:#000000;stroke-width:0.31879;stroke-linecap:round;stroke-linejoin:round;stroke-miterlimit:10;stroke-dasharray:none;stroke-opacity:1"
       transform="matrix(0,-1.3333333,-1.3333333,0,197.31467,84.197387)" />
    <path
       id="path7"
       d="m 5.2960312,-4.1606406 c 0.046875,-0.1523438 0.046875,-0.1757813 0.046875,-0.2460938 0,-0.1992187 -0.1523437,-0.2929687 -0.3164062,-0.2929687 -0.1054688,0 -0.28125,0.058594 -0.375,0.2226562 -0.023437,0.058594 -0.1171875,0.3984375 -0.1523438,0.5976563 -0.082031,0.28125 -0.1523437,0.5742187 -0.2226562,0.8671875 l -0.4921875,1.96875 c -0.046875,0.16406248 -0.515625,0.92578123 -1.2304688,0.92578123 -0.5625,0 -0.6796875,-0.48046875 -0.6796875,-0.89062503 0,-0.4921875 0.1875,-1.171875 0.5625,-2.1328125 0.1757813,-0.4453125 0.2109375,-0.5742187 0.2109375,-0.7851562 0,-0.4921875 -0.3515625,-0.9023438 -0.890625,-0.9023438 -1.0429687,0 -1.4414062,1.5820313 -1.4414062,1.6875 0,0.1054688 0.10546875,0.1054688 0.12890625,0.1054688 0.10546875,0 0.1171875,-0.023437 0.17578125,-0.1992188 0.29296875,-1.0195312 0.7265625,-1.3476562 1.1015625,-1.3476562 0.09375,0 0.2695312,0 0.2695312,0.3515625 0,0.2695312 -0.1054687,0.5507812 -0.1757812,0.7617187 -0.4453125,1.1601563 -0.6328125,1.78125 -0.6328125,2.2851563 0,0.97265623 0.6796875,1.30078123 1.3242187,1.30078123 0.421875,0 0.796875,-0.1875 1.1015625,-0.4921875 C 3.4679062,0.19873438 3.339,0.72607813 2.9054062,1.3120156 2.6124375,1.6752969 2.2022812,1.9917031 1.698375,1.9917031 c -0.1523438,0 -0.6445313,-0.023437 -0.83203125,-0.4570312 0.17578125,0 0.31640625,0 0.48046875,-0.1289063 0.1054687,-0.09375 0.2109375,-0.234375 0.2109375,-0.44531247 0,-0.33984375 -0.2929688,-0.38671875 -0.3984375,-0.38671875 -0.2578125,0 -0.609375,0.17578125 -0.609375,0.71484372 0,0.5390625 0.4804687,0.9492188 1.1484375,0.9492188 1.125,0 2.25,-0.9960938 2.5546875,-2.22656252 z m 0,0"
       style="fill:#000000;fill-opacity:1;fill-rule:nonzero;stroke:none"
       aria-label="y"
       transform="matrix(1.3333333,0,0,1.3333333,184.548,85.305333)" />
    <path
       id="path8"
       d="m -13.7482,76.9833 c 0,0 0.51408,-28.18995 0.71152,-34.79874 0.19745,-6.60882 0.51408,-10.08166 0.71153,-12.83298 0.19745,-2.75133 0.51407,-5.34568 0.71152,-6.99672 0.19743,-1.65108 0.51408,-3.71876 0.71153,-4.90305 0.19743,-1.18428 0.51408,-2.73913 0.71152,-3.63246 0.19745,-0.89332 0.51408,-2.1069 0.71153,-2.80609 C -9.2816,10.31407 -8.96498,9.3412 -8.76753,8.78008 -8.5701,8.21895 -8.25345,7.42659 -8.056,6.96904 -7.85857,6.5115 -7.54192,5.85902 -7.34448,5.4824 -7.14703,5.10579 -6.8304,4.5656 -6.63295,4.25464 -6.4355,3.9437 -6.11888,3.4975 -5.92143,3.24121 -5.724,2.98492 -5.40735,2.61752 -5.20992,2.40749 -5.01247,2.19743 -4.69582,1.89743 -4.49838,1.72733 -4.30093,1.55722 -3.9843,1.31654 -3.78685,1.18146 -3.5894,1.04637 -3.27278,0.85773 -3.07533,0.75368 -2.8779,0.64961 -2.56125,0.50763 -2.36382,0.43144 -2.16637,0.35526 -1.84972,0.2555 -1.65228,0.20457 -1.45483,0.15366 -1.1382,0.0923 -0.94075,0.06444 -0.7433,0.03656 -0.42667,0.01044 -0.22922,0.00366 -0.03178,-0.0031 0.28482,0.00269 0.48225,0.01556 0.6797,0.02843 0.99634,0.06535 1.19379,0.09644 1.39124,0.12752 1.70787,0.19145 1.90532,0.23961 2.10277,0.28777 2.4194,0.37926 2.61685,0.44356 2.81429,0.50786 3.13092,0.62363 3.32835,0.70306 3.5258,0.78253 3.84244,0.92265 4.03989,1.01624 4.23734,1.10983 4.55397,1.27043 4.75142,1.37761 4.94885,1.4848 5.2655,1.66861 5.46295,1.78874 5.66039,1.90889 5.97702,2.11101 6.17445,2.24356 6.3719,2.3761 6.68854,2.59947 6.88599,2.744 7.08344,2.88855 7.40007,3.12938 7.59752,3.28532 7.79495,3.44127 8.1116,3.70119 8.30905,3.86795 c 0.19743,0.16678 0.51407,0.44222 0.7115,0.61939 0.19745,0.1772 0.51409,0.47007 0.71154,0.65768 0.19744,0.18759 0.51408,0.49722 0.71153,0.69444 0.19743,0.19724 0.51408,0.52024 0.71152,0.7271 0.19744,0.20686 0.5141,0.54754 0.71153,0.76385 0.19745,0.21633 0.51407,0.57026 0.71152,0.79523 0.19744,0.22499 0.51408,0.59255 0.71153,0.82637 0.19743,0.23381 0.51408,0.61675 0.71152,0.85881 0.19744,0.24205 0.5141,0.63548 0.71153,0.88584 0.19745,0.25033 0.51407,0.65968 0.71152,0.91848 0.19744,0.25881 0.51408,0.68019 0.71153,0.94683 0.19743,0.26664 0.51408,0.70083 0.71152,0.97494 0.19744,0.27411 0.51408,0.71907 0.71153,1.00067 0.19745,0.28162 0.51407,0.73993 0.71152,1.02901 0.19744,0.28908 0.51408,0.75818 0.71153,1.05453 0.19743,0.29635 0.51408,0.77791 0.71152,1.08135 0.19744,0.30342 0.51408,0.79524 0.71153,1.10556 0.19745,0.31033 0.51407,0.8139 0.71152,1.13109 0.19743,0.3172 0.51408,0.8316 0.71153,1.15509 0.19743,0.3235 0.51408,0.84631 0.71152,1.17651 0.19744,0.33018 0.51408,0.86647 0.71153,1.20331 0.19745,0.33687 0.51407,0.88138 0.71152,1.22453 0.19743,0.34314 0.51408,0.89926 0.71153,1.24874 0.19743,0.34944 0.51408,0.9146 0.71152,1.26992 0.19744,0.35535 0.51408,0.92971 0.71153,1.29113 0.19745,0.36143 0.51408,0.94629 0.71153,1.31384 0.19743,0.36755 0.51407,0.96197 0.7115,1.33523 0.19745,0.37325 0.5141,0.97598 0.71154,1.35494 0.19744,0.37895 0.51408,0.99149 0.71153,1.37633 0.19745,0.38484 0.51408,1.00699 0.71153,1.39732 0.19743,0.39032 0.51407,1.02004 0.7115,1.41591 0.19745,0.39588 0.5141,1.03595 0.71154,1.43732 0.19744,0.40136 0.51408,1.04863 0.71153,1.45549 0.19745,0.40686 0.51408,1.06453 0.71153,1.47691 0.19743,0.41238 0.51407,1.07776 0.7115,1.49527 0.19745,0.41751 0.51409,1.09148 0.71153,1.51389 0.19745,0.42239 0.51409,1.10264 0.71154,1.53054 0.19745,0.42789 0.51408,1.12021 0.71153,1.55346 0.19743,0.43322 0.51407,1.13128 0.7115,1.56903 0.19745,0.43772 0.51409,1.14341 0.71153,1.5859 0.19745,0.44246 0.51409,1.1552 0.71154,1.6032 0.19743,0.448 0.51408,1.17262 0.71153,1.6257 0.19743,0.45307 0.51408,1.18234 0.71152,1.63974 0.19745,0.45738 0.51407,1.19493 0.71151,1.65683 0.19745,0.46193 0.51409,1.20476 0.71154,1.67242 0.19743,0.46764 0.51408,1.22617 0.71153,1.69814 0.19743,0.47197 0.51408,1.22786 0.71152,1.70355 0.19745,0.47569 0.51407,1.24434 0.71151,1.72496 0.19745,0.48063 0.51409,1.25388 0.71154,1.73902 0.19743,0.48516 0.51408,1.26756 0.71151,1.75762 0.19745,0.49007 0.5141,1.28013 0.71154,1.77448 0.19745,0.49437 0.51407,1.28966 0.71151,1.78854 0.19745,0.49891 0.51409,1.3037 0.71154,1.80717 0.19743,0.50343 0.51408,1.31362 0.71151,1.8214 0.19745,0.50777 0.5141,1.3264 0.71154,1.83829 0.19745,0.51189 0.51407,1.33505 0.71151,1.85105 0.19745,0.516 0.51409,1.34739 0.71154,1.86792 0.19743,0.52052 0.51408,1.35882 0.71151,1.88369 0.19745,0.52489 0.51409,1.37029 0.71154,1.89928 0.19745,0.52899 0.51407,1.38063 0.71151,1.91333 0.19745,0.53271 0.51409,1.38924 0.71154,1.9261 0.19743,0.53684 0.51408,1.40175 0.71151,1.94318 0.19745,0.54139 0.51409,1.41343 0.71154,1.95895 0.19745,0.54552 0.51408,1.42357 0.71153,1.97281 0.19743,0.54924 0.51407,1.43279 0.71152,1.9858 0.19743,0.55297 0.51408,1.44262 0.71151,1.99983 0.19745,0.55719 0.51409,1.45454 0.71154,2.01605 0.19745,0.56151 0.71153,2.03099 0.71153,2.03099"
       style="fill:none;stroke:#eb0a36;stroke-width:0.79701;stroke-linecap:butt;stroke-linejoin:miter;stroke-miterlimit:10;stroke-dasharray:none;stroke-opacity:1"
       transform="matrix(1.3333333,0,0,-1.3333333,197.31467,234.76933)" />
    <path
       id="path9"
       d="M -15.59082,-14.17339 V 99.21382"
       style="fill:none;stroke:#0000ff;stroke-width:0.79701;stroke-linecap:butt;stroke-linejoin:miter;stroke-miterlimit:10;stroke-dasharray:2.98883, 2.98883;stroke-dashoffset:0;stroke-opacity:0.5"
       transform="matrix(1.3333333,0,0,-1.3333333,197.31467,234.76933)" />
    <g
       id="g9"
       aria-label="x=−1"
       transform="matrix(1.3333333,0,0,1.3333333,128.932,200.70133)">
      <path
         id="path10"
         d="m 3.3293203,-3.010375 c 0.058594,-0.2578125 0.2929688,-1.171875 0.984375,-1.171875 0.046875,0 0.2929688,0 0.5039063,0.1289063 -0.28125,0.046875 -0.4804688,0.3046875 -0.4804688,0.5390625 0,0.1640625 0.1054688,0.3515625 0.375,0.3515625 0.2226563,0 0.5390625,-0.1875 0.5390625,-0.5859375 0,-0.515625 -0.5859375,-0.65625 -0.9257812,-0.65625 -0.5742188,0 -0.9257813,0.5273437 -1.0429688,0.7617187 -0.2578125,-0.65625 -0.7851562,-0.7617187 -1.078125,-0.7617187 -1.0429687,0 -1.60546874,1.2890625 -1.60546874,1.5351562 0,0.1054688 0.10546875,0.1054688 0.1171875,0.1054688 0.0820313,0 0.1171875,-0.023437 0.12890625,-0.1171875 C 1.1847891,-3.9361562 1.8410391,-4.18225 2.1808828,-4.18225 c 0.1875,0 0.5390625,0.09375 0.5390625,0.6679688 0,0.3046875 -0.1640625,0.9726562 -0.5390625,2.3671875 C 2.0285391,-0.526 1.6769766,-0.104125 1.2316641,-0.104125 c -0.058594,0 -0.28125004,0 -0.49218754,-0.12890625 0.24609375,-0.0585938 0.46875004,-0.26953125 0.46875004,-0.5390625 0,-0.26953125 -0.22265629,-0.35156245 -0.37500004,-0.35156245 -0.29296875,0 -0.5390625,0.25781245 -0.5390625,0.5742187 0,0.45703125 0.4921875,0.65625 0.93750004,0.65625 0.65625,0 1.0078125,-0.69140625 1.0429687,-0.75 0.1171875,0.36328125 0.4804688,0.75 1.078125,0.75 1.0195313,0 1.59375,-1.2773437 1.59375,-1.5351562 0,-0.09375 -0.09375,-0.09375 -0.1289062,-0.09375 -0.082031,0 -0.1054688,0.035156 -0.1289063,0.1054687 -0.328125,1.06640625 -0.9960937,1.3125 -1.3242187,1.3125 -0.3867188,0 -0.5390625,-0.328125 -0.5390625,-0.65625 0,-0.22265625 0.058594,-0.4453125 0.1640625,-0.8789062 z m 0,0"
         style="fill:#0000ff;fill-opacity:0.5;fill-rule:nonzero;stroke:none" />
      <path
         id="path11"
         d="m 15.305883,-3.2564687 c 0.152344,0 0.339844,0 0.339844,-0.1992188 0,-0.1992187 -0.1875,-0.1992187 -0.328125,-0.1992187 H 9.3527578 c -0.140625,0 -0.328125,0 -0.328125,0.1992187 0,0.1992188 0.1875,0.1992188 0.3398438,0.1992188 z m 0.01172,1.9335937 c 0.140625,0 0.328125,0 0.328125,-0.1992187 0,-0.1992188 -0.1875,-0.1992188 -0.339844,-0.1992188 H 9.3644766 c -0.1523438,0 -0.3398438,0 -0.3398438,0.1992188 0,0.1992187 0.1875,0.1992187 0.328125,0.1992187 z m 0,0"
         style="fill:#0000ff;fill-opacity:0.5;fill-rule:nonzero;stroke:none" />
      <path
         id="path12"
         d="m 25.545141,-2.2955312 c 0.175781,0 0.351562,0 0.351562,-0.1992188 0,-0.1992187 -0.175781,-0.1992187 -0.351562,-0.1992187 h -5.390625 c -0.164063,0 -0.339844,0 -0.339844,0.1992187 0,0.1992188 0.175781,0.1992188 0.339844,0.1992188 z m 0,0"
         style="fill:#0000ff;fill-opacity:0.5;fill-rule:nonzero;stroke:none" />
      <path
         id="path13"
         d="m 29.661352,-6.3736562 c 0,-0.234375 0,-0.2578125 -0.234375,-0.2578125 -0.609375,0.6328125 -1.488282,0.6328125 -1.804688,0.6328125 V -5.68225 c 0.199219,0 0.785156,0 1.300781,-0.2578125 v 5.15625 c 0,0.3515625 -0.03516,0.48046875 -0.925781,0.48046875 h -0.316406 v 0.3046875 c 0.351562,-0.03515625 1.207031,-0.03515625 1.605469,-0.03515625 0.398437,0 1.265625,0 1.617187,0.03515625 v -0.3046875 h -0.316406 c -0.902344,0 -0.925781,-0.1171875 -0.925781,-0.48046875 z m 0,0"
         style="fill:#0000ff;fill-opacity:0.5;fill-rule:nonzero;stroke:none" />
    </g>
    <path
       id="path14"
       d="M 1.13388,0 C 1.13388,0.62622 0.62622,1.13388 0,1.13388 -0.62622,1.13388 -1.13388,0.62622 -1.13388,0 c 0,-0.62622 0.50766,-1.13388 1.13388,-1.13388 0.62622,0 1.13388,0.50766 1.13388,1.13388 z"
       style="fill:#eb0a36;fill-opacity:1;fill-rule:nonzero;stroke:#eb0a36;stroke-width:0.3985;stroke-linecap:butt;stroke-linejoin:miter;stroke-miterlimit:10;stroke-dasharray:none;stroke-opacity:1"
       transform="matrix(1.3333333,0,0,-1.3333333,197.31467,234.76933)" />
    <g
       id="g14"
       aria-label="f(x)=&#10;x&#10;2"
       transform="matrix(1.3333333,0,0,1.3333333,266.55333,181.8)">
      <path
         id="path15"
         d="m 3.6572656,-3.9837891 h 0.8554688 c 0.1992187,0 0.3046875,0 0.3046875,-0.1992187 0,-0.1054688 -0.1054688,-0.1054688 -0.2695313,-0.1054688 H 3.7158594 l 0.2109375,-1.1367187 c 0.035156,-0.2109375 0.1757812,-0.9140625 0.234375,-1.0429688 0.09375,-0.1875 0.2578125,-0.3398437 0.46875,-0.3398437 0.046875,0 0.3046875,0 0.4921875,0.1875 -0.4335938,0.035156 -0.5390625,0.3867187 -0.5390625,0.5390625 0,0.2226562 0.1757812,0.3398437 0.3632812,0.3398437 0.2695313,0 0.5507813,-0.2109375 0.5507813,-0.5976562 0,-0.4570313 -0.4570313,-0.6796875 -0.8671875,-0.6796875 -0.3398438,0 -0.9609375,0.1757812 -1.265625,1.1601562 -0.058594,0.2109375 -0.082031,0.3164063 -0.328125,1.5703125 H 2.3564844 c -0.1992188,0 -0.3046875,0 -0.3046875,0.1875 0,0.1171875 0.09375,0.1171875 0.28125,0.1171875 h 0.65625 l -0.75,3.93750004 C 2.0635156,0.91464844 1.8994531,1.8287109 1.3721094,1.8287109 c -0.035156,0 -0.28125,0 -0.46875003,-0.1875 C 1.3603906,1.6177734 1.4424219,1.2544922 1.4424219,1.1021484 c 0,-0.22265621 -0.1757813,-0.33984371 -0.3632813,-0.33984371 -0.25781248,0 -0.55078123,0.2109375 -0.55078123,0.59765621 0,0.4453125 0.43359375,0.6796875 0.84375003,0.6796875 0.5507812,0 0.9492187,-0.5859375 1.125,-0.9609375 0.328125,-0.63281246 0.5507812,-1.83984371 0.5625,-1.91015621 z m 0,0"
         style="fill:#eb0a36;fill-opacity:1;fill-rule:nonzero;stroke:none" />
      <path
         id="path16"
         d="m 9.2471094,2.3912109 c 0,-0.035156 0,-0.046875 -0.1640625,-0.2226562 -1.2421875,-1.25390626 -1.5703125,-3.12890626 -1.5703125,-4.6640625 0,-1.7226563 0.3867187,-3.4570313 1.6054687,-4.7109375 0.1289063,-0.1171875 0.1289063,-0.1289063 0.1289063,-0.1640625 0,-0.070312 -0.035156,-0.1054688 -0.09375,-0.1054688 -0.1054688,0 -0.9960938,0.6796875 -1.5820313,1.9453125 -0.515625,1.1015625 -0.6328125,2.203125 -0.6328125,3.0351563 0,0.7851562 0.1171875,1.99218749 0.65625,3.11718749 0.5976563,1.21875001 1.453125,1.87500001 1.5585938,1.87500001 0.058594,0 0.09375,-0.035156 0.09375,-0.1054688 z m 0,0"
         style="fill:#eb0a36;fill-opacity:1;fill-rule:nonzero;stroke:none" />
      <path
         id="path17"
         d="m 13.155312,-3.0111328 c 0.05859,-0.2578125 0.292969,-1.171875 0.984375,-1.171875 0.04687,0 0.292969,0 0.503907,0.1289062 -0.28125,0.046875 -0.480469,0.3046875 -0.480469,0.5390625 0,0.1640625 0.105469,0.3515625 0.375,0.3515625 0.222656,0 0.539062,-0.1875 0.539062,-0.5859375 0,-0.515625 -0.585937,-0.65625 -0.925781,-0.65625 -0.574219,0 -0.925781,0.5273438 -1.042969,0.7617188 -0.257812,-0.65625 -0.785156,-0.7617188 -1.078125,-0.7617188 -1.042968,0 -1.605468,1.2890625 -1.605468,1.5351563 0,0.1054687 0.105468,0.1054687 0.117187,0.1054687 0.08203,0 0.117188,-0.023437 0.128906,-0.1171875 0.339844,-1.0546875 0.996094,-1.3007812 1.335938,-1.3007812 0.1875,0 0.539062,0.09375 0.539062,0.6679687 0,0.3046875 -0.164062,0.9726563 -0.539062,2.3671875 -0.152344,0.62109379 -0.503906,1.04296879 -0.949219,1.04296879 -0.05859,0 -0.28125,0 -0.492187,-0.12890625 0.246093,-0.0585938 0.46875,-0.26953125 0.46875,-0.5390625 0,-0.26953124 -0.222657,-0.35156254 -0.375,-0.35156254 -0.292969,0 -0.539063,0.25781254 -0.539063,0.57421879 0,0.45703125 0.492188,0.65625 0.9375,0.65625 0.65625,0 1.007813,-0.69140625 1.042969,-0.75 0.117187,0.36328125 0.480469,0.75 1.078125,0.75 1.019531,0 1.59375,-1.27734379 1.59375,-1.53515629 0,-0.09375 -0.09375,-0.09375 -0.128906,-0.09375 -0.08203,0 -0.105469,0.035156 -0.128907,0.1054688 -0.328125,1.06640624 -0.996093,1.31249999 -1.324218,1.31249999 -0.386719,0 -0.539063,-0.328125 -0.539063,-0.65625 0,-0.22265625 0.05859,-0.44531249 0.164063,-0.87890629 z m 0,0"
         style="fill:#eb0a36;fill-opacity:1;fill-rule:nonzero;stroke:none" />
      <path
         id="path18"
         d="m 18.405312,-2.4955078 c 0,-0.7734375 -0.117187,-1.9804688 -0.65625,-3.1054688 -0.597656,-1.21875 -1.464843,-1.875 -1.558593,-1.875 -0.05859,0 -0.105469,0.046875 -0.105469,0.1054688 0,0.035156 0,0.046875 0.199219,0.234375 0.972656,0.984375 1.535156,2.5664062 1.535156,4.640625 0,1.71093749 -0.363281,3.45703124 -1.59375,4.7226562 C 16.085,2.3443359 16.085,2.3560547 16.085,2.3912109 c 0,0.058594 0.04687,0.1054688 0.105469,0.1054688 0.09375,0 0.996093,-0.6796875 1.582031,-1.94531251 0.503906,-1.1015625 0.632812,-2.20312499 0.632812,-3.04687499 z m 10.59375,-0.7617188 c 0.152344,0 0.339844,0 0.339844,-0.1992187 0,-0.1992188 -0.1875,-0.1992188 -0.328125,-0.1992188 h -5.964844 c -0.140625,0 -0.328125,0 -0.328125,0.1992188 0,0.1992187 0.1875,0.1992187 0.339844,0.1992187 z m 0.01172,1.9335938 c 0.140625,0 0.328125,0 0.328125,-0.1992188 0,-0.1992187 -0.1875,-0.1992187 -0.339844,-0.1992187 h -5.941406 c -0.152344,0 -0.339844,0 -0.339844,0.1992187 0,0.1992188 0.1875,0.1992188 0.328125,0.1992188 z m 0,0"
         style="fill:#eb0a36;fill-opacity:1;fill-rule:nonzero;stroke:none" />
      <path
         id="path19"
         d="m 47.696328,-9.7523437 c 0.05859,-0.2578123 0.292969,-1.1718753 0.984375,-1.1718753 0.04687,0 0.292969,0 0.503906,0.128907 -0.28125,0.04687 -0.480468,0.304687 -0.480468,0.539062 0,0.164063 0.105468,0.3515625 0.375,0.3515625 0.222656,0 0.539062,-0.1874995 0.539062,-0.5859375 0,-0.515625 -0.585937,-0.65625 -0.925781,-0.65625 -0.574219,0 -0.925781,0.527344 -1.042969,0.761719 -0.257812,-0.65625 -0.785156,-0.761719 -1.078125,-0.761719 -1.042969,0 -1.605469,1.2890625 -1.605469,1.5351563 0,0.1054687 0.105469,0.1054687 0.117188,0.1054687 0.08203,0 0.117187,-0.023437 0.128906,-0.1171875 0.339844,-1.0546875 0.996094,-1.3007815 1.335938,-1.3007815 0.1875,0 0.539062,0.09375 0.539062,0.667969 0,0.3046875 -0.164062,0.9726563 -0.539062,2.3671875 -0.152344,0.6210938 -0.503907,1.0429688 -0.949219,1.0429688 -0.05859,0 -0.28125,0 -0.492188,-0.1289063 0.246094,-0.058594 0.46875,-0.2695312 0.46875,-0.5390625 0,-0.2695312 -0.222656,-0.3515625 -0.375,-0.3515625 -0.292968,0 -0.539062,0.2578125 -0.539062,0.5742188 0,0.4570312 0.492187,0.65625 0.9375,0.65625 0.65625,0 1.007812,-0.6914063 1.042969,-0.75 0.117187,0.3632812 0.480468,0.75 1.078125,0.75 1.019531,0 1.59375,-1.2773438 1.59375,-1.5351563 0,-0.09375 -0.09375,-0.09375 -0.128907,-0.09375 -0.08203,0 -0.105468,0.035156 -0.128906,0.1054688 -0.328125,1.0664062 -0.996094,1.3125 -1.324219,1.3125 -0.386718,0 -0.539062,-0.328125 -0.539062,-0.65625 0,-0.2226563 0.05859,-0.4453125 0.164062,-0.8789063 z m 0,0"
         style="fill:#eb0a36;fill-opacity:1;fill-rule:nonzero;stroke:none" />
      <path
         id="path20"
         d="m 53.576211,-11.621484 h -0.234375 c -0.02344,0.152343 -0.08203,0.5625 -0.175781,0.632812 -0.05859,0.03516 -0.597657,0.03516 -0.691407,0.03516 h -1.289062 c 0.738281,-0.644531 0.984375,-0.84375 1.394531,-1.171875 0.515625,-0.410156 0.996094,-0.84375 0.996094,-1.5 0,-0.84375 -0.738281,-1.359375 -1.628906,-1.359375 -0.867188,0 -1.453125,0.609375 -1.453125,1.242188 0,0.363281 0.304687,0.398437 0.375,0.398437 0.164062,0 0.375,-0.117187 0.375,-0.375 0,-0.128906 -0.05859,-0.363281 -0.421875,-0.363281 0.222656,-0.503906 0.691406,-0.65625 1.019531,-0.65625 0.703125,0 1.066406,0.550781 1.066406,1.113281 0,0.609375 -0.433594,1.089844 -0.65625,1.335938 l -1.6875,1.664062 c -0.07031,0.05859 -0.07031,0.07031 -0.07031,0.269532 h 2.882812 z m 0,0"
         style="fill:#eb0a36;fill-opacity:1;fill-rule:nonzero;stroke:none" />
    </g>
    <path
       id="path21"
       d="M 0,0 H 31.154"
       style="fill:none;stroke:#eb0a36;stroke-width:0.398;stroke-linecap:butt;stroke-linejoin:miter;stroke-miterlimit:10;stroke-dasharray:none;stroke-opacity:1"
       transform="matrix(1.3333333,0,0,-1.3333333,311.71467,178.47867)" />
    <path
       id="path22"
       d="M 3.8790391,8.5202891 2.1212266,4.6413828 C 2.0509141,4.4890391 2.0040391,4.4890391 1.9688828,4.4890391 c -0.011719,0 -0.058594,0 -0.1640625,0.070312 l -0.94921874,0.726563 c -0.12890625,0.09375 -0.12890625,0.1289062 -0.12890625,0.1523437 0,0.046875 0.0351563,0.1054688 0.10546875,0.1054688 0.0585938,0 0.22265624,-0.1289063 0.32812504,-0.2109375 0.070312,-0.046875 0.2109375,-0.1640625 0.328125,-0.2460938 l 1.9570312,4.3125 c 0.070312,0.1640625 0.1171875,0.1640625 0.2109375,0.1640625 0.1523438,0 0.1757813,-0.058594 0.2460938,-0.1992187 L 8.4259141,7.578125e-4 C 8.4962266,-0.13986719 8.4962266,-0.17502344 8.4962266,-0.19846094 c 0,-0.10546875 -0.082031,-0.19921875 -0.1992188,-0.19921875 -0.082031,0 -0.1523437,0.046875 -0.2226562,0.2109375 z m 0,0"
       style="fill:#eb0a36;fill-opacity:1;fill-rule:nonzero;stroke:none"
       aria-label="√"
       transform="matrix(1.3333333,0,0,1.3333333,311.71467,181.40133)" />
    <path
       id="path23"
       d="M 0,0 H 22.852"
       style="fill:none;stroke:#eb0a36;stroke-width:0.398;stroke-linecap:butt;stroke-linejoin:miter;stroke-miterlimit:10;stroke-dasharray:none;stroke-opacity:1"
       transform="matrix(1.3333333,0,0,-1.3333333,322.784,181.13467)" />
    <g
       id="g23"
       aria-label="x+1"
       transform="matrix(1.3333333,0,0,1.3333333,322.784,191.836)">
      <path
         id="path24"
         d="m 3.3289922,-3.0117656 c 0.058594,-0.2578125 0.2929687,-1.171875 0.984375,-1.171875 0.046875,0 0.2929687,0 0.5039062,0.1289062 -0.28125,0.046875 -0.4804687,0.3046875 -0.4804687,0.5390625 0,0.1640625 0.1054687,0.3515625 0.375,0.3515625 0.2226562,0 0.5390625,-0.1875 0.5390625,-0.5859375 0,-0.515625 -0.5859375,-0.65625 -0.9257813,-0.65625 -0.5742187,0 -0.9257812,0.5273438 -1.0429687,0.7617188 -0.2578125,-0.65625 -0.7851563,-0.7617188 -1.078125,-0.7617188 -1.0429688,0 -1.60546876,1.2890625 -1.60546876,1.5351563 0,0.1054687 0.10546875,0.1054687 0.1171875,0.1054687 0.0820313,0 0.1171875,-0.023437 0.12890625,-0.1171875 0.33984371,-1.0546875 0.99609371,-1.3007812 1.33593751,-1.3007812 0.1875,0 0.5390625,0.09375 0.5390625,0.6679687 0,0.3046875 -0.1640625,0.9726563 -0.5390625,2.3671875 -0.1523438,0.62109378 -0.5039063,1.04296878 -0.9492188,1.04296878 -0.058594,0 -0.28124996,0 -0.49218746,-0.12890625 0.24609375,-0.0585937 0.46874996,-0.26953125 0.46874996,-0.5390625 0,-0.26953123 -0.22265621,-0.35156253 -0.37499996,-0.35156253 -0.29296875,0 -0.5390625,0.25781253 -0.5390625,0.57421878 0,0.45703125 0.4921875,0.65625 0.93749996,0.65625 0.65625,0 1.0078125,-0.69140625 1.0429688,-0.75 0.1171875,0.36328125 0.4804687,0.75 1.078125,0.75 1.0195312,0 1.59375,-1.27734378 1.59375,-1.53515628 0,-0.09375 -0.09375,-0.09375 -0.1289063,-0.09375 -0.082031,0 -0.1054687,0.035156 -0.1289062,0.1054688 -0.328125,1.06640623 -0.9960938,1.31249998 -1.3242188,1.31249998 -0.3867187,0 -0.5390625,-0.328125 -0.5390625,-0.65625 0,-0.22265625 0.058594,-0.44531248 0.1640625,-0.87890628 z m 0,0"
         style="fill:#eb0a36;fill-opacity:1;fill-rule:nonzero;stroke:none" />
      <path
         id="path25"
         d="m 11.983289,-2.2969219 h 2.777344 c 0.140625,0 0.328125,0 0.328125,-0.1992187 0,-0.1992188 -0.1875,-0.1992188 -0.328125,-0.1992188 h -2.777344 v -2.7890625 c 0,-0.1289062 0,-0.328125 -0.199219,-0.328125 -0.199218,0 -0.199218,0.1992188 -0.199218,0.328125 v 2.7890625 H 8.7957891 c -0.140625,0 -0.328125,0 -0.328125,0.1992188 0,0.1992187 0.1875,0.1992187 0.328125,0.1992187 h 2.7890629 v 2.80078128 c 0,0.12890625 0,0.328125 0.199218,0.328125 0.199219,0 0.199219,-0.19921875 0.199219,-0.328125 z m 8.8125,-4.078125 c 0,-0.234375 0,-0.2578125 -0.234375,-0.2578125 -0.609375,0.6328125 -1.488281,0.6328125 -1.804687,0.6328125 v 0.3164063 c 0.199218,0 0.785156,0 1.300781,-0.2578125 v 5.15624998 c 0,0.3515625 -0.03516,0.48046875 -0.925781,0.48046875 H 18.81532 V -4.6875e-5 c 0.351563,-0.035156245 1.207032,-0.035156245 1.605469,-0.035156245 0.398438,0 1.265625,0 1.617188,0.035156245 V -0.30473437 H 21.72157 c -0.902343,0 -0.925781,-0.1171875 -0.925781,-0.48046875 z m 0,0"
         style="fill:#eb0a36;fill-opacity:1;fill-rule:nonzero;stroke:none" />
    </g>
  </g>
</svg>
