<?xml version="1.0" encoding="UTF-8" standalone="no"?>
<!-- Created with Inkscape (http://www.inkscape.org/) -->

<svg
   version="1.1"
   id="svg1"
   width="267.06787"
   height="236.49446"
   viewBox="0 0 267.06787 236.49446"
   sodipodi:docname="2.5-ejemplo-f2.svg"
   inkscape:version="1.4.2 (f4327f4, 2025-05-13)"
   xmlns:inkscape="http://www.inkscape.org/namespaces/inkscape"
   xmlns:sodipodi="http://sodipodi.sourceforge.net/DTD/sodipodi-0.dtd"
   xmlns="http://www.w3.org/2000/svg"
   xmlns:svg="http://www.w3.org/2000/svg">
  <defs
     id="defs1" />
  <sodipodi:namedview
     id="namedview1"
     pagecolor="#ffffff"
     bordercolor="#000000"
     borderopacity="0.25"
     inkscape:showpageshadow="2"
     inkscape:pageopacity="0.0"
     inkscape:pagecheckerboard="0"
     inkscape:deskcolor="#d1d1d1"
     inkscape:zoom="2.2241536"
     inkscape:cx="132.40992"
     inkscape:cy="130.16187"
     inkscape:window-width="1920"
     inkscape:window-height="1009"
     inkscape:window-x="-8"
     inkscape:window-y="-8"
     inkscape:window-maximized="1"
     inkscape:current-layer="g1">
    <inkscape:page
       x="7.2609799e-07"
       y="8.2835697e-07"
       inkscape:label="24"
       id="page1"
       width="267.06787"
       height="236.49446"
       margin="0"
       bleed="0" />
  </sodipodi:namedview>
  <g
     id="g1"
     inkscape:groupmode="layer"
     inkscape:label="24"
     transform="translate(-109.70465,-51.255451)">
    <path
       id="path2"
       d="M -63.7803,0 H 63.32202"
       style="fill:none;stroke:#000000;stroke-width:0.3985;stroke-linecap:butt;stroke-linejoin:miter;stroke-miterlimit:10;stroke-dasharray:none;stroke-opacity:1"
       transform="matrix(1.3333333,0,0,-1.3333333,221.10267,257.55333)" />
    <path
       id="path3"
       d="M -1.19551,1.59401 C -1.09587,0.99626 0,0.09961 0.29886,0 0,-0.09961 -1.09587,-0.99626 -1.19551,-1.59401"
       style="fill:none;stroke:#000000;stroke-width:0.31879;stroke-linecap:round;stroke-linejoin:round;stroke-miterlimit:10;stroke-dasharray:none;stroke-opacity:1"
       transform="matrix(1.3333333,0,0,-1.3333333,305.53203,257.55333)" />
    <path
       id="path4"
       d="m 3.6438125,-3.2927031 c 0.070312,-0.28125 0.3164062,-1.2890625 1.078125,-1.2890625 0.058594,0 0.3164062,0 0.5507812,0.140625 -0.3046875,0.058594 -0.5273437,0.328125 -0.5273437,0.5859375 0,0.1757812 0.1171875,0.3867187 0.4101562,0.3867187 0.2460938,0 0.5976563,-0.1992187 0.5976563,-0.6328125 0,-0.5625 -0.6445313,-0.7265625 -1.0195313,-0.7265625 -0.6328125,0 -1.0195312,0.5859375 -1.1484375,0.8320313 -0.2695312,-0.7148438 -0.8554687,-0.8320313 -1.171875,-0.8320313 -1.1367187,0 -1.75781245,1.4179688 -1.75781245,1.6875 0,0.1054688 0.10546875,0.1054688 0.12890625,0.1054688 0.0820313,0 0.1171875,-0.023437 0.140625,-0.1171875 0.375,-1.1601563 1.0898437,-1.4296875 1.4648437,-1.4296875 0.2109375,0 0.5859375,0.09375 0.5859375,0.7265625 0,0.3398437 -0.1875,1.078125 -0.5859375,2.6015625 -0.1757812,0.67968748 -0.5625,1.13671873 -1.0429687,1.13671873 -0.058594,0 -0.3164063,0 -0.5390625,-0.140625 0.2695312,-0.0585938 0.515625,-0.29296875 0.515625,-0.59765625 0,-0.29296878 -0.2460938,-0.37499998 -0.41015625,-0.37499998 -0.328125,0 -0.59765625,0.28124998 -0.59765625,0.63281248 0,0.50390625 0.55078125,0.71484375 1.03125,0.71484375 0.7148437,0 1.1015625,-0.76171875 1.1367187,-0.83203125 C 2.6125625,-0.30442187 3.011,0.11745313 3.66725,0.11745313 c 1.125,0 1.7460937,-1.40625003 1.7460937,-1.67578123 0,-0.1054688 -0.1054687,-0.1054688 -0.1289062,-0.1054688 -0.1054688,0 -0.1289063,0.035156 -0.140625,0.1171875 -0.3632813,1.16015628 -1.1132813,1.42968753 -1.453125,1.42968753 -0.4335938,0 -0.609375,-0.3515625 -0.609375,-0.7265625 0,-0.23437503 0.070312,-0.48046873 0.1875,-0.96093753 z m 0,0"
       style="fill:#000000;fill-opacity:1;fill-rule:nonzero;stroke:none"
       aria-label="x"
       transform="matrix(1.3333333,0,0,1.3333333,301.98533,268.92933)" />
    <path
       id="path5"
       d="M 0,-14.17339 V 141.27576"
       style="fill:none;stroke:#000000;stroke-width:0.3985;stroke-linecap:butt;stroke-linejoin:miter;stroke-miterlimit:10;stroke-dasharray:none;stroke-opacity:1"
       transform="matrix(1.3333333,0,0,-1.3333333,221.10267,257.55333)" />
    <path
       id="path6"
       d="M -1.19551,1.59401 C -1.09587,0.99626 0,0.09961 0.29886,0 0,-0.09961 -1.09587,-0.99626 -1.19551,-1.59401"
       style="fill:none;stroke:#000000;stroke-width:0.31879;stroke-linecap:round;stroke-linejoin:round;stroke-miterlimit:10;stroke-dasharray:none;stroke-opacity:1"
       transform="matrix(0,-1.3333333,-1.3333333,0,221.10267,69.185653)" />
    <path
       id="path7"
       d="m 5.2968281,-4.1604297 c 0.046875,-0.1523437 0.046875,-0.1757812 0.046875,-0.2460937 0,-0.1992188 -0.1523437,-0.2929688 -0.3164062,-0.2929688 -0.1054688,0 -0.28125,0.058594 -0.375,0.2226563 -0.023437,0.058594 -0.1171875,0.3984375 -0.1523438,0.5976562 -0.082031,0.28125 -0.1523437,0.5742188 -0.2226562,0.8671875 l -0.4921875,1.96875 c -0.046875,0.16406251 -0.515625,0.92578126 -1.2304688,0.92578126 -0.5625,0 -0.6796875,-0.48046875 -0.6796875,-0.89062496 0,-0.4921875 0.1875,-1.171875 0.5625,-2.1328125 0.1757813,-0.4453125 0.2109375,-0.5742188 0.2109375,-0.7851563 0,-0.4921875 -0.3515625,-0.9023437 -0.890625,-0.9023437 -1.04296873,0 -1.44140623,1.5820312 -1.44140623,1.6875 0,0.1054687 0.10546875,0.1054687 0.12890625,0.1054687 0.10546875,0 0.1171875,-0.023437 0.17578125,-0.1992187 0.29296875,-1.0195313 0.72656253,-1.3476563 1.10156253,-1.3476563 0.09375,0 0.2695312,0 0.2695312,0.3515625 0,0.2695313 -0.1054687,0.5507813 -0.1757812,0.7617188 -0.4453125,1.1601562 -0.6328125,1.78125 -0.6328125,2.2851562 0,0.97265626 0.6796875,1.30078126 1.3242187,1.30078126 0.421875,0 0.796875,-0.1875 1.1015625,-0.4921875 -0.140625,0.57421875 -0.2695312,1.1015625 -0.703125,1.68750004 -0.2929687,0.3632812 -0.703125,0.6796875 -1.2070312,0.6796875 -0.1523438,0 -0.6445313,-0.023437 -0.83203128,-0.4570313 0.17578128,0 0.31640628,0 0.48046878,-0.1289062 0.1054687,-0.09375 0.2109375,-0.234375 0.2109375,-0.44531254 0,-0.33984375 -0.2929688,-0.38671875 -0.3984375,-0.38671875 -0.25781253,0 -0.60937503,0.17578125 -0.60937503,0.71484379 0,0.5390625 0.48046873,0.9492187 1.14843753,0.9492187 1.125,0 2.25,-0.9960937 2.5546875,-2.22656249 z m 0,0"
       style="fill:#000000;fill-opacity:1;fill-rule:nonzero;stroke:none"
       aria-label="y"
       transform="matrix(1.3333333,0,0,1.3333333,208.336,70.293333)" />
    <path
       id="path8"
       d="m -56.69362,0.88583 c 0,0 0.37955,0.01198 0.52533,0.01664 0.14577,0.00468 0.37955,0.01229 0.52532,0.01709 0.14576,0.0048 0.37954,0.01257 0.52531,0.01751 0.14578,0.00496 0.37956,0.01308 0.52533,0.01818 0.14577,0.00509 0.37955,0.01332 0.52531,0.0186 0.14577,0.00528 0.37955,0.01407 0.52532,0.01945 0.14578,0.0054 0.37954,0.01393 0.52531,0.01947 0.14577,0.00556 0.37955,0.0148 0.52532,0.02054 0.14577,0.00577 0.37954,0.01509 0.52533,0.02098 0.14576,0.00592 0.37954,0.01553 0.52531,0.02164 0.14577,0.00609 0.37955,0.01597 0.52531,0.02227 0.14579,0.0063 0.37955,0.01662 0.52533,0.02314 0.14577,0.0065 0.37955,0.0171 0.52532,0.02379 0.14577,0.00668 0.37953,0.01754 0.5253,0.02444 0.14578,0.00688 0.37954,0.0182 0.52533,0.0253 0.14576,0.00711 0.37954,0.0186 0.52531,0.02596 0.14577,0.00735 0.37955,0.01939 0.52532,0.02703 0.14578,0.00765 0.37954,0.02022 0.52533,0.02811 0.14576,0.00789 0.37954,0.02065 0.52531,0.02876 0.14577,0.00814 0.37955,0.02143 0.52531,0.02985 0.14579,0.00844 0.37954,0.02223 0.52532,0.03093 0.14577,0.00869 0.37954,0.02275 0.52531,0.03179 0.14577,0.00903 0.37955,0.0239 0.52532,0.0333 0.14578,0.00939 0.37954,0.02469 0.52533,0.0344 0.14576,0.00967 0.37954,0.0254 0.52531,0.03546 0.14577,0.01005 0.37955,0.02658 0.52532,0.03699 0.14578,0.01039 0.37955,0.02728 0.52532,0.03807 0.14577,0.01075 0.37953,0.02835 0.5253,0.03956 0.14577,0.01122 0.37955,0.02968 0.52532,0.04131 0.14578,0.01164 0.37955,0.0305 0.52533,0.0426 0.14577,0.01208 0.37955,0.03194 0.52531,0.04456 0.14577,0.01263 0.37955,0.03338 0.52532,0.04649 0.14578,0.01312 0.37955,0.03442 0.52533,0.048 0.14576,0.0136 0.37954,0.03582 0.52531,0.04998 0.14577,0.01416 0.37953,0.03735 0.5253,0.0521 0.14578,0.01478 0.37956,0.03891 0.52533,0.0543 0.14577,0.01539 0.37955,0.04055 0.52531,0.05665 0.14577,0.01611 0.37955,0.04276 0.52532,0.0595 0.14578,0.01672 0.37956,0.0437 0.52533,0.0612 0.14576,0.01747 0.37954,0.04657 0.52531,0.06488 0.14577,0.01829 0.37955,0.04793 0.52533,0.06703 0.14577,0.01912 0.37953,0.05074 0.5253,0.07072 0.14577,0.01998 0.37955,0.05243 0.52531,0.07332 0.14579,0.02088 0.37955,0.05527 0.52533,0.0772 0.14577,0.02194 0.37955,0.05786 0.52532,0.08088 0.14577,0.02306 0.37955,0.06104 0.52532,0.08521 0.14578,0.0242 0.37954,0.06379 0.52532,0.08913 0.14577,0.0253 0.37955,0.06683 0.52532,0.09341 0.14576,0.02658 0.37953,0.07021 0.5253,0.09819 0.14578,0.028 0.37954,0.07414 0.52533,0.10359 0.14576,0.02947 0.37954,0.07773 0.52531,0.10878 0.14577,0.03105 0.37955,0.08232 0.52532,0.11505 0.14578,0.03274 0.37954,0.08637 0.52532,0.1209 0.14577,0.03453 0.37955,0.0914 0.52532,0.12804 0.14576,0.03663 0.37955,0.09733 0.52531,0.13603 0.14579,0.03871 0.37953,0.10208 0.52532,0.14294 0.14576,0.04087 0.37954,0.10823 0.52531,0.15161 0.14577,0.04338 0.37955,0.11501 0.52532,0.16114 0.14578,0.04609 0.37954,0.12237 0.52533,0.17128 0.14576,0.0489 0.37954,0.12919 0.52531,0.18122 0.14576,0.05204 0.37955,0.13833 0.52531,0.19379 0.14579,0.05544 0.37955,0.14671 0.52533,0.20587 0.14577,0.05918 0.37954,0.15735 0.5253,0.2206 0.14577,0.06325 0.37955,0.16769 0.52532,0.23531 0.14578,0.06759 0.37954,0.17939 0.52533,0.25195 0.14577,0.07254 0.37954,0.19316 0.52531,0.27099 0.14577,0.07784 0.37955,0.20647 0.52532,0.29001 0.14578,0.08353 0.37954,0.22217 0.52532,0.31208 0.14577,0.08988 0.37955,0.23852 0.52532,0.33586 0.14577,0.09733 0.37953,0.26027 0.5253,0.3657 0.14578,0.10546 0.37956,0.2804 0.52533,0.39428 0.14577,0.11386 0.37954,0.30301 0.52531,0.42646 0.14577,0.12349 0.37955,0.32878 0.52533,0.46348 0.14577,0.1347 0.37955,0.36048 0.52532,0.50736 0.14576,0.14689 0.37954,0.39061 0.52531,0.55127 0.14578,0.16065 0.37955,0.43001 0.52533,0.60663 0.14577,0.17662 0.37953,0.47222 0.5253,0.66634 0.14577,0.1941 0.37955,0.51858 0.52531,0.73271 0.14579,0.21413 0.37955,0.57323 0.52533,0.81058 0.14577,0.23735 0.37955,0.63641 0.52532,0.9001 0.14576,0.26371 0.37954,0.70625 0.52531,1.00047 0.14578,0.29421 0.37955,0.79038 0.52533,1.12006 0.14577,0.32968 0.37955,0.8849 0.52532,1.25608 0.14576,0.37119 0.37953,0.99923 0.52529,1.41916 0.14579,0.41994 0.37955,1.13036 0.52533,1.60754 0.14577,0.47715 0.37955,1.28571 0.52532,1.83158 0.14577,0.54584 0.37955,1.47429 0.52531,2.10257 0.14579,0.62828 0.37955,1.69815 0.52533,2.42568 0.14577,0.72749 0.37955,1.96812 0.52532,2.81775 0.14576,0.84964 0.37955,2.30468 0.52531,3.30589 0.14578,1.00122 0.37954,2.71989 0.52532,3.91014 0.14576,1.19026 0.37954,3.23886 0.52531,4.66839 0.14577,1.42952 0.37955,3.89592 0.52531,5.63468 0.14579,1.73874 0.37955,4.75328 0.52533,6.89703 0.14577,2.14376 0.37955,5.86846 0.52532,8.55365 0.14577,2.6852 0.37955,7.37203 0.52531,10.7994 0.14578,3.42734 0.37955,9.43238 0.52533,13.90263 0.14577,4.47024 0.37953,12.33342 0.5253,18.31581 0.14577,5.98239 0.52531,24.80109 0.52531,24.80109"
       style="fill:none;stroke:#eb0a36;stroke-width:0.79701;stroke-linecap:butt;stroke-linejoin:miter;stroke-miterlimit:10;stroke-dasharray:none;stroke-opacity:1"
       transform="matrix(1.3333333,0,0,-1.3333333,221.10267,257.55333)" />
    <path
       id="path9"
       d="m 4.67723,130.16191 c 0,0 0.37955,-18.95175 0.52532,-24.96976 C 5.34833,99.17415 5.58209,91.28021 5.72787,86.7883 5.87364,82.29639 6.10742,76.26083 6.25319,72.81755 6.39896,69.37425 6.63274,64.66899 6.7785,61.97144 6.92429,59.27388 7.15805,55.52838 7.30383,53.37538 7.4496,51.2224 7.68336,48.19957 7.82913,46.45413 7.9749,44.7087 8.20868,42.2305 8.35445,40.79546 8.50023,39.36041 8.734,37.30547 8.87978,36.11128 9.02554,34.9171 9.25932,33.19295 9.40509,32.1886 9.55086,31.18423 9.78464,29.72478 9.9304,28.87254 c 0.14579,-0.85222 0.37955,-2.09655 0.52533,-2.8262 0.14577,-0.72964 0.37955,-1.80275 0.52532,-2.4326 0.14577,-0.62984 0.37953,-1.55964 0.5253,-2.10689 0.14578,-0.54722 0.37955,-1.35864 0.52533,-1.8372 0.14576,-0.47855 0.37954,-1.19092 0.52531,-1.61185 0.14577,-0.42094 0.37955,-1.0498 0.52531,-1.42198 0.14579,-0.37218 0.37957,-0.92995 0.52534,-1.26041 0.14576,-0.33046 0.37954,-0.82658 0.52531,-1.12135 0.14577,-0.29479 0.37955,-0.73918 0.52533,-1.00328 0.14577,-0.26408 0.37953,-0.66234 0.5253,-0.9001 0.14577,-0.23778 0.37955,-0.59888 0.52532,-0.8136 0.14578,-0.21472 0.37954,-0.53974 0.52532,-0.73403 0.14577,-0.19429 0.37955,-0.48951 0.52532,-0.66632 C 16.9053,9.95993 17.13908,9.68983 17.28485,9.5288 17.43063,9.36775 17.6644,9.1233 17.81018,8.97601 17.95595,8.8287 18.18973,8.60222 18.3355,8.46713 18.48126,8.33205 18.71503,8.12605 18.8608,8.00238 19.00658,7.8787 19.24034,7.68954 19.38612,7.57567 19.53189,7.4618 19.76567,7.28705 19.91144,7.18164 20.0572,7.07622 20.29099,6.91325 20.43675,6.81592 20.58253,6.71858 20.8163,6.5702 20.96208,6.48004 21.10785,6.3899 21.34163,6.2499 21.4874,6.16603 21.63316,6.08217 21.86694,5.95341 22.01271,5.87558 22.1585,5.79776 22.39224,5.67746 22.53802,5.60503 22.68379,5.5326 22.91757,5.4212 23.06334,5.3535 23.2091,5.28581 23.44289,5.18056 23.58865,5.11713 23.73444,5.0537 23.9682,4.95564 24.11398,4.89632 24.25975,4.837 24.49353,4.7451 24.6393,4.68956 24.78506,4.63403 25.01884,4.54803 25.16461,4.496 25.3104,4.44397 25.54416,4.36353 25.68994,4.31456 25.83571,4.2656 26.06947,4.18921 26.21524,4.14305 26.36101,4.09691 26.59479,4.02534 26.74055,3.98192 26.88634,3.9385 27.1201,3.87106 27.26588,3.83011 27.41165,3.78915 27.64543,3.72545 27.7912,3.68672 27.93697,3.64798 28.17075,3.58754 28.31651,3.5509 28.4623,3.51427 28.69606,3.45729 28.84184,3.42265 28.98761,3.38805 29.22139,3.33412 29.36716,3.30133 29.51292,3.26854 29.74669,3.21736 29.89246,3.18628 30.03824,3.1552 30.27202,3.10675 30.41779,3.07729 30.56355,3.04782 30.79733,3.00192 30.9431,2.97389 31.08887,2.94588 31.32265,2.90193 31.46843,2.87527 31.6142,2.84865 31.84798,2.80717 31.99374,2.78185 32.13951,2.75653 32.37329,2.71696 32.51906,2.69275 32.66483,2.66855 32.8986,2.63039 33.04439,2.60733 33.19016,2.58426 33.42392,2.54836 33.56969,2.52644 33.71545,2.5045 33.94923,2.47018 34.095,2.44923 34.24078,2.4283 34.47455,2.3955 34.62033,2.37549 34.7661,2.35547 34.99988,2.32408 35.14565,2.30498 35.29141,2.28587 35.52519,2.256 35.67096,2.23772 35.81674,2.21945 36.0505,2.19077 36.19629,2.17326 36.34206,2.15579 36.57584,2.1284 36.7216,2.11163 36.86737,2.09486 37.10114,2.06848 37.2469,2.05238 37.39268,2.03627 37.62645,2.01093 37.77223,1.9955 37.918,1.98009 38.15178,1.95596 38.29755,1.94121 38.44331,1.92645 38.6771,1.90327 38.82286,1.8891 38.96864,1.8749 39.20241,1.85257 39.34819,1.83891 39.49396,1.82526 39.72774,1.80377 39.8735,1.7907 40.01927,1.7776 40.25305,1.75723 40.39882,1.74463 40.5446,1.73203 40.77835,1.712 40.92413,1.69986 41.0699,1.68771 41.30368,1.66867 41.44945,1.65704 41.59521,1.6454 41.829,1.62717 41.97476,1.61595 42.12054,1.60472 42.35431,1.58696 42.50009,1.57614 42.64586,1.56535 42.87964,1.5485 43.0254,1.53809 43.17117,1.52768 43.40495,1.51118 43.55072,1.50111 43.6965,1.49103 43.93027,1.47511 44.07605,1.46542 44.22182,1.45573 44.45558,1.44061 44.60135,1.43126 44.74712,1.42189 44.9809,1.40701 45.12666,1.39795 45.27245,1.38889 45.50621,1.37466 45.652,1.36594 45.79776,1.35721 46.03154,1.34343 46.1773,1.33502 46.32307,1.32658 46.55685,1.3133 46.70262,1.30518 46.8484,1.29704 47.08218,1.28424 47.22795,1.27641 47.37372,1.26859 47.6075,1.25635 47.75327,1.24873 47.89903,1.24112 48.1328,1.2289 48.27858,1.22147 48.42435,1.21407 48.65813,1.20244 48.8039,1.19531 48.94966,1.18817 49.18344,1.1769 49.32921,1.17 49.47498,1.16312 49.70876,1.15225 49.85454,1.14557 50.0003,1.13889 50.23409,1.12828 50.37985,1.12178 50.52562,1.11526 50.7594,1.10493 50.90517,1.09862 51.05095,1.09233 51.28471,1.08244 51.4305,1.07635 51.57626,1.07027 51.81003,1.06064 51.9558,1.05473 52.10156,1.04883 52.33534,1.0395 52.48111,1.03375 52.62689,1.028 52.86066,1.01875 53.00644,1.0132 53.1522,1.00766 53.38599,0.99915 53.53175,0.99374 53.67752,0.98834 53.9113,0.97955 54.05707,0.97427 54.20285,0.969 54.43661,0.96077 54.5824,0.95567 54.72816,0.95058 54.96194,0.94249 55.10771,0.93752 55.25348,0.93253 55.48724,0.9246 55.63301,0.91977 55.7788,0.91495 56.01256,0.90736 56.15834,0.90268 56.30411,0.89803 56.68365,0.88603 56.68365,0.88603"
       style="fill:none;stroke:#eb0a36;stroke-width:0.79701;stroke-linecap:butt;stroke-linejoin:miter;stroke-miterlimit:10;stroke-dasharray:none;stroke-opacity:1"
       transform="matrix(1.3333333,0,0,-1.3333333,221.10267,257.55333)" />
    <path
       id="path10"
       d="m 2.9304297,-6.373875 c 0,-0.234375 0,-0.2578125 -0.234375,-0.2578125 -0.609375,0.6328125 -1.4882813,0.6328125 -1.80468751,0.6328125 v 0.3164063 c 0.19921871,0 0.78515621,0 1.30078121,-0.2578125 v 5.15624995 c 0,0.3515625 -0.035156,0.48046875 -0.9257812,0.48046875 H 0.94996094 V 0.001125 C 1.3015234,-0.03403125 2.1569922,-0.03403125 2.5554297,-0.03403125 c 0.3984375,0 1.265625,0 1.6171875,0.03515625 V -0.3035625 H 3.8562109 c -0.9023437,0 -0.9257812,-0.1171875 -0.9257812,-0.48046875 z m 0,0"
       style="fill:#000000;fill-opacity:1;fill-rule:nonzero;stroke:none"
       aria-label="1"
       transform="matrix(1.3333333,0,0,1.3333333,209.34667,242.936)" />
    <path
       id="path11"
       d="m 1.70073,14.17339 c 0,0.9393 -0.76144,1.70074 -1.70073,1.70074 -0.93929,0 -1.70073,-0.76144 -1.70073,-1.70074 0,-0.9393 0.76144,-1.70073 1.70073,-1.70073 0.93929,0 1.70073,0.76143 1.70073,1.70073 z"
       style="fill:#eb0a36;fill-opacity:1;fill-rule:nonzero;stroke:#eb0a36;stroke-width:0.3985;stroke-linecap:butt;stroke-linejoin:miter;stroke-miterlimit:10;stroke-dasharray:none;stroke-opacity:1"
       transform="matrix(1.3333333,0,0,-1.3333333,221.10267,257.55333)" />
    <g
       id="g11"
       aria-label="y=f&#10;2&#10;(x)"
       transform="matrix(1.3333333,0,0,1.3333333,288.048,223.07867)">
      <path
         id="path12"
         d="m 4.839,-3.7972812 c 0.046875,-0.140625 0.046875,-0.1523438 0.046875,-0.2226563 0,-0.1875 -0.140625,-0.2695312 -0.2929688,-0.2695312 -0.1054687,0 -0.2578125,0.058594 -0.3515625,0.1992187 -0.023437,0.058594 -0.09375,0.3632813 -0.140625,0.5390625 -0.070312,0.2578125 -0.140625,0.5273438 -0.1992187,0.796875 l -0.4453125,1.79296875 c -0.035156,0.15234375 -0.46875,0.85546875 -1.125,0.85546875 -0.5039063,0 -0.6210938,-0.4453125 -0.6210938,-0.80859375 0,-0.45703125 0.1757813,-1.07812495 0.515625,-1.95703125 0.1523438,-0.4101562 0.1992188,-0.515625 0.1992188,-0.7148437 0,-0.4453125 -0.328125,-0.8203125 -0.8203125,-0.8203125 -0.94921875,0 -1.3125,1.453125 -1.3125,1.5351562 0,0.1054688 0.09375,0.1054688 0.1171875,0.1054688 0.09375,0 0.10546875,-0.023437 0.15234375,-0.1875 C 0.8311875,-3.8910312 1.229625,-4.184 1.5694687,-4.184 c 0.082031,0 0.2578125,0 0.2578125,0.3164063 0,0.2460937 -0.1054687,0.515625 -0.1757812,0.703125 -0.3984375,1.0546875 -0.5742188,1.6171875 -0.5742188,2.0859375 0,0.89062495 0.6210938,1.1835937 1.21875,1.1835937 C 2.68275,0.1050625 3.0225937,-0.059 3.292125,-0.34025 3.1632187,0.175375 3.0460312,0.6675625 2.6475937,1.1949063 2.3897812,1.53475 2.0147812,1.8277188 1.55775,1.8277188 c -0.140625,0 -0.59765625,-0.035156 -0.76171875,-0.421875 0.1640625,0 0.29296875,0 0.43359375,-0.1171875 C 1.323375,1.1949063 1.4288437,1.066 1.4288437,0.8785 c 0,-0.31640625 -0.2695312,-0.3515625 -0.375,-0.3515625 -0.2226562,0 -0.5507812,0.1640625 -0.5507812,0.6445313 0,0.5039062 0.43359375,0.8671875 1.0546875,0.8671875 1.0195312,0 2.0507812,-0.9023438 2.3320312,-2.0273438 z m 0,0"
         style="fill:#eb0a36;fill-opacity:1;fill-rule:nonzero;stroke:none" />
      <path
         id="path13"
         d="m 14.855602,-3.2582187 c 0.152343,0 0.339843,0 0.339843,-0.1992188 0,-0.1992187 -0.1875,-0.1992187 -0.328125,-0.1992187 H 8.9024766 c -0.140625,0 -0.328125,0 -0.328125,0.1992187 0,0.1992188 0.1875,0.1992188 0.3398437,0.1992188 z m 0.01172,1.9335937 c 0.140625,0 0.328125,0 0.328125,-0.1992187 0,-0.1992188 -0.1875,-0.1992188 -0.339843,-0.1992188 H 8.9141953 c -0.1523437,0 -0.3398437,0 -0.3398437,0.1992188 0,0.1992187 0.1875,0.1992187 0.328125,0.1992187 z m 0,0"
         style="fill:#eb0a36;fill-opacity:1;fill-rule:nonzero;stroke:none" />
      <path
         id="path14"
         d="m 22.176891,-3.9847812 h 0.855468 c 0.199219,0 0.304688,0 0.304688,-0.1992188 0,-0.1054687 -0.105469,-0.1054687 -0.269531,-0.1054687 h -0.832032 l 0.210938,-1.1367188 c 0.03516,-0.2109375 0.175781,-0.9140625 0.234375,-1.0429687 0.09375,-0.1875 0.257812,-0.3398438 0.46875,-0.3398438 0.04687,0 0.304687,0 0.492187,0.1875 -0.433593,0.035156 -0.539062,0.3867188 -0.539062,0.5390625 0,0.2226563 0.175781,0.3398438 0.363281,0.3398438 0.269531,0 0.550781,-0.2109375 0.550781,-0.5976563 0,-0.4570312 -0.457031,-0.6796875 -0.867187,-0.6796875 -0.339844,0 -0.960938,0.1757813 -1.265625,1.1601563 -0.05859,0.2109375 -0.08203,0.3164062 -0.328125,1.5703125 h -0.679688 c -0.199218,0 -0.304687,0 -0.304687,0.1875 0,0.1171875 0.09375,0.1171875 0.28125,0.1171875 h 0.65625 l -0.75,3.93749995 c -0.175781,0.9609375 -0.339844,1.87500005 -0.867188,1.87500005 -0.03516,0 -0.28125,0 -0.46875,-0.1875 0.457032,-0.023437 0.539063,-0.3867188 0.539063,-0.5390625 0,-0.2226563 -0.175781,-0.3398438 -0.363281,-0.3398438 -0.257813,0 -0.550782,0.2109375 -0.550782,0.5976563 0,0.4453125 0.433594,0.6796875 0.84375,0.6796875 0.550782,0 0.949219,-0.5859375 1.125,-0.9609375 0.328125,-0.63281255 0.550782,-1.8398438 0.5625,-1.9101563 z m 0,0"
         style="fill:#eb0a36;fill-opacity:1;fill-rule:nonzero;stroke:none" />
      <path
         id="path15"
         d="M 26.920055,0.22810938 H 26.68568 c -0.02344,0.15234375 -0.08203,0.5625 -0.175782,0.6328125 -0.05859,0.0351563 -0.597656,0.0351563 -0.691406,0.0351563 H 24.52943 c 0.738281,-0.64453125 0.984375,-0.84375 1.394531,-1.171875 0.515625,-0.41015625 0.996094,-0.84374998 0.996094,-1.49999998 0,-0.8437501 -0.738282,-1.3593751 -1.628907,-1.3593751 -0.867187,0 -1.453125,0.609375 -1.453125,1.2421876 0,0.3632813 0.304688,0.3984375 0.375,0.3984375 0.164063,0 0.375,-0.1171875 0.375,-0.375 0,-0.1289062 -0.05859,-0.3632812 -0.421875,-0.3632812 0.222657,-0.5039064 0.691407,-0.65625 1.019532,-0.65625 0.703125,0 1.066406,0.5507811 1.066406,1.1132812 0,0.609375 -0.433594,1.08984373 -0.65625,1.33593748 l -1.6875,1.66406252 c -0.07031,0.058594 -0.07031,0.070312 -0.07031,0.2695313 h 2.882813 z m 0,0"
         style="fill:#eb0a36;fill-opacity:1;fill-rule:nonzero;stroke:none" />
      <path
         id="path16"
         d="m 31.165172,2.3902188 c 0,-0.035156 0,-0.046875 -0.164063,-0.2226563 -1.242187,-1.25390625 -1.570312,-3.12890625 -1.570312,-4.6640625 0,-1.7226562 0.386719,-3.4570312 1.605469,-4.7109375 0.128906,-0.1171875 0.128906,-0.1289062 0.128906,-0.1640625 0,-0.070312 -0.03516,-0.1054687 -0.09375,-0.1054687 -0.105469,0 -0.996094,0.6796875 -1.582031,1.9453125 -0.515625,1.1015625 -0.632813,2.203125 -0.632813,3.0351562 0,0.7851563 0.117188,1.9921875 0.65625,3.1171875 0.597656,1.21875 1.453125,1.875 1.558594,1.875 0.05859,0 0.09375,-0.035156 0.09375,-0.1054687 z m 0,0"
         style="fill:#eb0a36;fill-opacity:1;fill-rule:nonzero;stroke:none" />
      <path
         id="path17"
         d="M 35.073375,-3.012125 C 35.131969,-3.2699375 35.366344,-4.184 36.05775,-4.184 c 0.04687,0 0.292969,0 0.503906,0.1289063 -0.28125,0.046875 -0.480469,0.3046875 -0.480469,0.5390625 0,0.1640625 0.105469,0.3515625 0.375,0.3515625 0.222657,0 0.539063,-0.1875 0.539063,-0.5859375 0,-0.515625 -0.585938,-0.65625 -0.925781,-0.65625 -0.574219,0 -0.925782,0.5273437 -1.042969,0.7617187 -0.257813,-0.65625 -0.785156,-0.7617187 -1.078125,-0.7617187 -1.042969,0 -1.605469,1.2890625 -1.605469,1.5351562 0,0.1054688 0.105469,0.1054688 0.117188,0.1054688 0.08203,0 0.117187,-0.023437 0.128906,-0.1171875 C 32.928844,-3.9379062 33.585094,-4.184 33.924937,-4.184 c 0.1875,0 0.539063,0.09375 0.539063,0.6679688 0,0.3046875 -0.164063,0.9726562 -0.539063,2.3671875 -0.152343,0.6210937 -0.503906,1.0429687 -0.949218,1.0429687 -0.05859,0 -0.28125,0 -0.492188,-0.12890625 0.246094,-0.0585938 0.46875,-0.26953125 0.46875,-0.5390625 0,-0.26953125 -0.222656,-0.35156245 -0.375,-0.35156245 -0.292969,0 -0.539062,0.25781245 -0.539062,0.5742187 0,0.45703125 0.492187,0.65625 0.9375,0.65625 0.65625,0 1.007812,-0.69140625 1.042968,-0.75 0.117188,0.36328125 0.480469,0.75 1.078125,0.75 1.019532,0 1.59375,-1.2773437 1.59375,-1.5351562 0,-0.09375 -0.09375,-0.09375 -0.128906,-0.09375 -0.08203,0 -0.105469,0.035156 -0.128906,0.1054687 -0.328125,1.06640625 -0.996094,1.3125 -1.324219,1.3125 -0.386719,0 -0.539062,-0.328125 -0.539062,-0.65625 0,-0.22265625 0.05859,-0.4453125 0.164062,-0.8789062 z m 0,0"
         style="fill:#eb0a36;fill-opacity:1;fill-rule:nonzero;stroke:none" />
      <path
         id="path18"
         d="m 40.323375,-2.4965 c 0,-0.7734375 -0.117188,-1.9804687 -0.65625,-3.1054687 -0.597656,-1.21875 -1.464844,-1.875 -1.558594,-1.875 -0.05859,0 -0.105469,0.046875 -0.105469,0.1054687 0,0.035156 0,0.046875 0.199219,0.234375 0.972656,0.984375 1.535156,2.5664063 1.535156,4.640625 0,1.7109375 -0.363281,3.45703125 -1.59375,4.7226563 -0.140625,0.1171875 -0.140625,0.1289062 -0.140625,0.1640625 0,0.058594 0.04687,0.1054687 0.105469,0.1054687 0.09375,0 0.996094,-0.6796875 1.582031,-1.9453125 0.503907,-1.1015625 0.632813,-2.203125 0.632813,-3.046875 z m 0,0"
         style="fill:#eb0a36;fill-opacity:1;fill-rule:nonzero;stroke:none" />
    </g>
    <rect
       style="opacity:0;fill:none"
       id="rect18"
       width="267.06787"
       height="236.49446"
       x="109.70465"
       y="51.255451" />
  </g>
</svg>
