<?xml version="1.0" encoding="UTF-8" standalone="no"?>
<!-- Created with Inkscape (http://www.inkscape.org/) -->

<svg
   version="1.1"
   id="svg1"
   width="173.59372"
   height="174.80119"
   viewBox="0 0 173.59372 174.8012"
   sodipodi:docname="2.6-exponencial.svg"
   inkscape:version="1.4.2 (f4327f4, 2025-05-13)"
   xmlns:inkscape="http://www.inkscape.org/namespaces/inkscape"
   xmlns:sodipodi="http://sodipodi.sourceforge.net/DTD/sodipodi-0.dtd"
   xmlns="http://www.w3.org/2000/svg"
   xmlns:svg="http://www.w3.org/2000/svg">
  <defs
     id="defs1" />
  <sodipodi:namedview
     id="namedview1"
     pagecolor="#ffffff"
     bordercolor="#000000"
     borderopacity="0.25"
     inkscape:showpageshadow="2"
     inkscape:pageopacity="0.0"
     inkscape:pagecheckerboard="0"
     inkscape:deskcolor="#d1d1d1"
     inkscape:zoom="2.2241536"
     inkscape:cx="89.697042"
     inkscape:cy="102.2861"
     inkscape:window-width="1920"
     inkscape:window-height="1009"
     inkscape:window-x="-8"
     inkscape:window-y="-8"
     inkscape:window-maximized="1"
     inkscape:current-layer="g1">
    <inkscape:page
       x="0"
       y="0"
       inkscape:label="28"
       id="page1"
       width="173.59372"
       height="174.80119"
       margin="0"
       bleed="0" />
  </sodipodi:namedview>
  <g
     id="g1"
     inkscape:groupmode="layer"
     inkscape:label="28"
     transform="translate(-152.48051,-78.972655)">
    <path
       id="path2"
       d="M -56.69362,0 H 70.40874"
       style="fill:none;stroke:#000000;stroke-width:0.3985;stroke-linecap:butt;stroke-linejoin:miter;stroke-miterlimit:10;stroke-dasharray:none;stroke-opacity:1"
       transform="matrix(1.3333333,0,0,-1.3333333,228.072,234.876)" />
    <path
       id="path3"
       d="M -1.19551,1.59401 C -1.09587,0.99626 0,0.09961 0.29886,0 0,-0.09961 -1.09587,-0.99626 -1.19551,-1.59401"
       style="fill:none;stroke:#000000;stroke-width:0.31879;stroke-linecap:round;stroke-linejoin:round;stroke-miterlimit:10;stroke-dasharray:none;stroke-opacity:1"
       transform="matrix(1.3333333,0,0,-1.3333333,321.95032,234.876)" />
    <path
       id="path4"
       d="m 3.6442891,-3.2915391 c 0.070312,-0.28125 0.3164062,-1.2890625 1.078125,-1.2890625 0.058594,0 0.3164062,0 0.5507812,0.140625 -0.3046875,0.058594 -0.5273437,0.328125 -0.5273437,0.5859375 0,0.1757813 0.1171875,0.3867188 0.4101562,0.3867188 0.2460938,0 0.5976563,-0.1992188 0.5976563,-0.6328125 0,-0.5625 -0.6445313,-0.7265625 -1.0195313,-0.7265625 -0.6328125,0 -1.0195312,0.5859375 -1.1484375,0.8320312 -0.2695312,-0.7148437 -0.8554687,-0.8320312 -1.171875,-0.8320312 -1.1367187,0 -1.75781249,1.4179687 -1.75781249,1.6875 0,0.1054687 0.10546875,0.1054687 0.12890625,0.1054687 0.0820313,0 0.1171875,-0.023437 0.140625,-0.1171875 0.37500004,-1.1601562 1.08984374,-1.4296875 1.46484374,-1.4296875 0.2109375,0 0.5859375,0.09375 0.5859375,0.7265625 0,0.3398438 -0.1875,1.078125 -0.5859375,2.6015625 -0.1757812,0.67968754 -0.5625,1.13671879 -1.0429687,1.13671879 -0.058594,0 -0.3164063,0 -0.53906254,-0.140625 0.26953124,-0.0585938 0.51562504,-0.29296875 0.51562504,-0.59765625 0,-0.29296874 -0.2460938,-0.37500004 -0.41015629,-0.37500004 -0.328125,0 -0.59765625,0.28125004 -0.59765625,0.63281254 0,0.50390625 0.55078125,0.71484375 1.03125004,0.71484375 0.7148437,0 1.1015625,-0.76171875 1.1367187,-0.83203125 0.1289063,0.41015625 0.5273438,0.83203125 1.1835938,0.83203125 1.125,0 1.7460937,-1.40624999 1.7460937,-1.67578129 0,-0.1054687 -0.1054687,-0.1054687 -0.1289062,-0.1054687 -0.1054688,0 -0.1289063,0.035156 -0.140625,0.1171875 -0.3632813,1.16015624 -1.1132813,1.42968749 -1.453125,1.42968749 -0.4335938,0 -0.609375,-0.3515625 -0.609375,-0.7265625 0,-0.23437499 0.070312,-0.48046879 0.1875,-0.96093749 z m 0,0"
       style="fill:#000000;fill-opacity:1;fill-rule:nonzero;stroke:none"
       aria-label="x"
       transform="matrix(1.3333333,0,0,1.3333333,318.40267,246.252)" />
    <path
       id="path5"
       d="M 0,-14.17339 V 112.92896"
       style="fill:none;stroke:#000000;stroke-width:0.3985;stroke-linecap:butt;stroke-linejoin:miter;stroke-miterlimit:10;stroke-dasharray:none;stroke-opacity:1"
       transform="matrix(1.3333333,0,0,-1.3333333,228.072,234.876)" />
    <path
       id="path6"
       d="M -1.19551,1.59401 C -1.09587,0.99626 0,0.09961 0.29886,0 0,-0.09961 -1.09587,-0.99626 -1.19551,-1.59401"
       style="fill:none;stroke:#000000;stroke-width:0.31879;stroke-linecap:round;stroke-linejoin:round;stroke-miterlimit:10;stroke-dasharray:none;stroke-opacity:1"
       transform="matrix(0,-1.3333333,-1.3333333,0,228.072,84.304053)" />
    <path
       id="path7"
       d="m 5.2963906,-4.1615391 c 0.046875,-0.1523437 0.046875,-0.1757812 0.046875,-0.2460937 0,-0.1992188 -0.1523437,-0.2929688 -0.3164062,-0.2929688 -0.1054688,0 -0.28125,0.058594 -0.375,0.2226563 -0.023437,0.058594 -0.1171875,0.3984375 -0.1523438,0.5976562 -0.082031,0.28125 -0.1523437,0.5742188 -0.2226562,0.8671875 l -0.4921875,1.96875 c -0.046875,0.16406254 -0.515625,0.92578129 -1.2304688,0.92578129 -0.5625,0 -0.6796875,-0.48046875 -0.6796875,-0.89062499 0,-0.4921875 0.1875,-1.171875 0.5625,-2.1328125 0.1757813,-0.4453125 0.2109375,-0.5742188 0.2109375,-0.7851563 0,-0.4921875 -0.3515625,-0.9023437 -0.890625,-0.9023437 -1.04296872,0 -1.44140622,1.5820312 -1.44140622,1.6875 0,0.1054687 0.10546875,0.1054687 0.12890625,0.1054687 0.10546875,0 0.1171875,-0.023437 0.17578125,-0.1992187 0.29296875,-1.0195313 0.72656252,-1.3476563 1.10156252,-1.3476563 0.09375,0 0.2695312,0 0.2695312,0.3515625 0,0.2695313 -0.1054687,0.5507813 -0.1757812,0.7617188 -0.4453125,1.1601562 -0.6328125,1.78125 -0.6328125,2.2851562 0,0.97265629 0.6796875,1.30078129 1.3242187,1.30078129 0.421875,0 0.796875,-0.1875 1.1015625,-0.4921875 -0.140625,0.57421875 -0.2695312,1.1015625 -0.703125,1.68750001 -0.2929687,0.3632812 -0.703125,0.6796875 -1.2070312,0.6796875 -0.1523438,0 -0.6445313,-0.023437 -0.83203127,-0.4570313 0.17578127,0 0.31640627,0 0.48046877,-0.1289062 0.1054687,-0.09375 0.2109375,-0.234375 0.2109375,-0.44531251 0,-0.33984375 -0.2929688,-0.38671875 -0.3984375,-0.38671875 -0.25781252,0 -0.60937502,0.17578125 -0.60937502,0.71484376 0,0.5390625 0.48046872,0.9492187 1.14843752,0.9492187 1.125,0 2.25,-0.9960937 2.5546875,-2.22656246 z m 0,0"
       style="fill:#000000;fill-opacity:1;fill-rule:nonzero;stroke:none"
       aria-label="y"
       transform="matrix(1.3333333,0,0,1.3333333,215.30533,85.412)" />
    <path
       id="path8"
       d="m -42.5202,0.70438 c 0,0 0.51706,0.02653 0.71563,0.03698 0.19858,0.01043 0.51705,0.02727 0.71564,0.03829 0.19858,0.011 0.51705,0.02946 0.71563,0.04107 0.19859,0.01162 0.51705,0.03061 0.71563,0.04261 0.19858,0.01201 0.51706,0.03112 0.71564,0.0439 0.19858,0.01278 0.51704,0.03489 0.71563,0.04823 0.19858,0.01335 0.51705,0.03406 0.71563,0.04802 0.19859,0.01393 0.51707,0.03758 0.71565,0.05255 0.19858,0.01495 0.51704,0.03981 0.71564,0.05536 0.19858,0.01553 0.51704,0.04034 0.71563,0.05666 0.19858,0.01632 0.51705,0.04368 0.71563,0.06098 0.19859,0.01731 0.51706,0.04572 0.71563,0.06382 0.19858,0.01808 0.51705,0.04751 0.71564,0.0666 0.19858,0.01907 0.51705,0.05086 0.71562,0.07094 0.1986,0.02006 0.51706,0.05271 0.71564,0.07375 0.19859,0.02102 0.51706,0.05564 0.71564,0.07785 0.19857,0.02221 0.51704,0.05879 0.71563,0.08218 0.19858,0.02341 0.51705,0.0619 0.71562,0.08652 0.1986,0.02459 0.51707,0.06506 0.71564,0.09081 0.19858,0.0258 0.51705,0.06783 0.71564,0.09495 0.19858,0.02713 0.51704,0.07208 0.71564,0.10058 0.19858,0.02851 0.51704,0.07479 0.71562,0.10487 0.19859,0.03011 0.51706,0.08036 0.71564,0.11204 0.19857,0.03169 0.51706,0.08311 0.71565,0.11636 0.19857,0.03325 0.51704,0.08826 0.71564,0.12328 0.19857,0.035 0.51704,0.09231 0.71562,0.1291 0.19859,0.03677 0.51706,0.09729 0.71564,0.13603 0.19857,0.03873 0.51704,0.10245 0.71563,0.14318 0.19858,0.04071 0.51704,0.10763 0.71562,0.1503 0.1986,0.04267 0.51706,0.11239 0.71564,0.15722 0.1986,0.04482 0.51706,0.11847 0.71564,0.16588 0.19858,0.04741 0.51704,0.12605 0.71564,0.17584 0.19857,0.04977 0.51704,0.13063 0.71562,0.18296 0.19859,0.05231 0.51706,0.13914 0.71564,0.19419 0.19857,0.05507 0.51704,0.14484 0.71564,0.20266 0.19857,0.05783 0.51704,0.15313 0.71563,0.21411 0.19858,0.06095 0.51704,0.16122 0.71562,0.22534 0.1986,0.06411 0.51706,0.16934 0.71564,0.23681 0.19858,0.0675 0.51706,0.17878 0.71565,0.2496 0.19858,0.07081 0.51705,0.18627 0.71564,0.26081 0.19858,0.07454 0.51704,0.19789 0.71562,0.27639 0.1986,0.07849 0.51706,0.20695 0.71564,0.28938 0.19858,0.08241 0.51704,0.218 0.71564,0.30472 0.19857,0.08671 0.51704,0.229 0.71562,0.32029 0.19859,0.09127 0.51706,0.24159 0.71563,0.33759 0.1986,0.09598 0.51707,0.25337 0.71564,0.35425 0.19858,0.10087 0.51705,0.26663 0.71564,0.37284 0.19858,0.10622 0.51704,0.28101 0.71562,0.39275 0.19859,0.11174 0.51706,0.2952 0.71564,0.41264 0.19858,0.11745 0.51704,0.31034 0.71563,0.43383 0.19858,0.12351 0.51705,0.32652 0.71564,0.45634 0.19858,0.12981 0.51705,0.34255 0.71562,0.47925 0.1986,0.1367 0.51706,0.36227 0.71564,0.50606 0.19858,0.1438 0.51705,0.37921 0.71564,0.5303 0.19858,0.15108 0.51706,0.3997 0.71565,0.55861 0.19858,0.15894 0.51705,0.41955 0.71562,0.58675 0.19859,0.16719 0.51706,0.44226 0.71564,0.61831 0.19858,0.17604 0.51705,0.46546 0.71564,0.65055 0.19858,0.18507 0.51704,0.48931 0.71562,0.68341 0.19859,0.19407 0.51703,0.51127 0.71561,0.7154 0.19859,0.20413 0.51706,0.54068 0.71563,0.75586 0.19858,0.21518 0.51705,0.5687 0.71564,0.79502 0.19858,0.2263 0.51704,0.59802 0.71562,0.83609 0.19859,0.23808 0.51706,0.62938 0.71564,0.87977 0.19858,0.25042 0.51705,0.66162 0.71564,0.92499 0.19857,0.26337 0.51704,0.69618 0.71563,0.9732 0.19858,0.27703 0.51705,0.73206 0.71563,1.0234 0.19859,0.29133 0.51705,0.76997 0.71563,1.07637 0.19858,0.3064 0.51705,0.80969 0.71564,1.13196 0.19858,0.32227 0.51704,0.85174 0.71562,1.19077 0.1986,0.339 0.51708,0.8961 0.71566,1.25263 0.19859,0.35654 0.51705,0.94211 0.71563,1.31708 0.19858,0.37495 0.51705,0.99099 0.71564,1.38542 0.19858,0.3944 0.51704,1.04228 0.71562,1.45722 0.19859,0.41493 0.51706,1.09692 0.71564,1.53334 0.19859,0.43641 0.51706,1.15318 0.71564,1.61207 0.19857,0.45889 0.51704,1.21271 0.71563,1.69533 0.19858,0.48264 0.51705,1.27545 0.71562,1.78314 0.1986,0.50767 0.51706,1.34177 0.71564,1.87592 0.19858,0.53415 0.51704,1.41218 0.71564,1.97389 0.19858,0.56169 0.51704,1.48379 0.71564,2.07445 0.19857,0.59065 0.51704,1.56129 0.71562,2.18258 0.19859,0.6213 0.51706,1.64168 0.71564,2.29526 0.19857,0.65358 0.51704,1.72787 0.71563,2.4153 0.19858,0.68742 0.51705,1.81633 0.71562,2.53922 0.1986,0.7229 0.51708,1.91064 0.71565,2.67091 0.1986,0.76028 0.51707,2.00877 0.71564,2.8087 0.19858,0.79993 0.51705,2.11533 0.71564,2.9566 0.19858,0.84127 0.51705,2.22202 0.71562,3.10672 0.1986,0.88468 0.51706,2.33892 0.71564,3.26955 0.19859,0.93062 0.51706,2.45911 0.71564,3.43781 0.19858,0.97869 0.51704,2.58654 0.71564,3.61601 0.19858,1.02948 0.51704,2.72088 0.71562,3.80375 0.19859,1.08284 0.51706,2.86182 0.71563,4.00075 0.19858,1.13895 0.51705,3.01 0.71564,4.20795 0.19858,1.19797 0.51705,3.16635 0.71564,4.42616 0.19858,1.25981 0.51705,3.32854 0.71562,4.65367 0.19859,1.32514 0.51706,3.50325 0.71564,4.89699 0.19858,1.39372 0.71564,5.14806 0.71564,5.14806"
       style="fill:none;stroke:#eb0a36;stroke-width:0.79701;stroke-linecap:butt;stroke-linejoin:miter;stroke-miterlimit:10;stroke-dasharray:none;stroke-opacity:1"
       transform="matrix(1.3333333,0,0,-1.3333333,228.072,234.876)" />
    <g
       id="g8"
       aria-label="y=e&#10;x"
       transform="matrix(1.3333333,0,0,1.3333333,284.876,181.304)">
      <path
         id="path9"
         d="m 4.8390938,-3.7963594 c 0.046875,-0.140625 0.046875,-0.1523437 0.046875,-0.2226562 0,-0.1875 -0.140625,-0.2695313 -0.2929688,-0.2695313 -0.1054687,0 -0.2578125,0.058594 -0.3515625,0.1992188 -0.023437,0.058594 -0.09375,0.3632812 -0.140625,0.5390625 -0.070312,0.2578125 -0.140625,0.5273437 -0.1992187,0.796875 l -0.4453125,1.79296873 c -0.035156,0.15234375 -0.46875,0.85546875 -1.125,0.85546875 -0.5039063,0 -0.6210938,-0.4453125 -0.6210938,-0.80859375 0,-0.45703123 0.1757813,-1.07812503 0.515625,-1.95703123 0.1523438,-0.4101563 0.1992188,-0.515625 0.1992188,-0.7148438 0,-0.4453125 -0.328125,-0.8203125 -0.8203125,-0.8203125 -0.9492188,0 -1.31250005,1.453125 -1.31250005,1.5351563 0,0.1054687 0.09375,0.1054687 0.1171875,0.1054687 0.09375,0 0.10546875,-0.023437 0.15234375,-0.1875 0.26953125,-0.9375 0.6679688,-1.2304687 1.0078125,-1.2304687 0.082031,0 0.2578125,0 0.2578125,0.3164062 0,0.2460938 -0.1054687,0.515625 -0.1757812,0.703125 -0.3984375,1.0546875 -0.5742188,1.6171875 -0.5742188,2.0859375 0,0.89062503 0.6210938,1.18359378 1.21875,1.18359378 0.3867188,0 0.7265625,-0.1640625 0.9960938,-0.4453125 C 3.1633125,0.17629688 3.046125,0.66848438 2.6476875,1.1958281 2.389875,1.5356719 2.014875,1.8286406 1.5578438,1.8286406 c -0.140625,0 -0.5976563,-0.035156 -0.7617188,-0.421875 0.1640625,0 0.2929688,0 0.4335938,-0.1171875 0.09375,-0.09375 0.1992187,-0.2226562 0.1992187,-0.41015622 0,-0.31640625 -0.2695312,-0.3515625 -0.375,-0.3515625 -0.22265625,0 -0.55078125,0.1640625 -0.55078125,0.64453122 0,0.5039063 0.43359375,0.8671875 1.05468755,0.8671875 1.0195312,0 2.0507812,-0.9023437 2.3320312,-2.02734372 z m 0,0"
         style="fill:#eb0a36;fill-opacity:1;fill-rule:nonzero;stroke:none" />
      <path
         id="path10"
         d="m 14.855695,-3.2572969 c 0.152344,0 0.339844,0 0.339844,-0.1992187 0,-0.1992188 -0.1875,-0.1992188 -0.328125,-0.1992188 H 8.9025703 c -0.140625,0 -0.328125,0 -0.328125,0.1992188 0,0.1992187 0.1875,0.1992187 0.3398438,0.1992187 z m 0.01172,1.9335938 c 0.140625,0 0.328125,0 0.328125,-0.1992188 0,-0.1992187 -0.1875,-0.1992187 -0.339844,-0.1992187 H 8.9142891 c -0.1523438,0 -0.3398438,0 -0.3398438,0.1992187 0,0.1992188 0.1875,0.1992188 0.328125,0.1992188 z m 0,0"
         style="fill:#eb0a36;fill-opacity:1;fill-rule:nonzero;stroke:none" />
      <path
         id="path11"
         d="m 20.384016,-2.2963594 c 0.292968,0 1.03125,-0.023437 1.523437,-0.234375 0.703125,-0.2929687 0.75,-0.890625 0.75,-1.0195312 0,-0.4453125 -0.386719,-0.8554688 -1.066406,-0.8554688 -1.113281,0 -2.613281,0.9726563 -2.613281,2.7070313 0,1.01953123 0.585937,1.80468748 1.570312,1.80468748 1.417969,0 2.261719,-1.0546875 2.261719,-1.17187498 0,-0.058594 -0.07031,-0.1289063 -0.128906,-0.1289063 -0.04687,0 -0.07031,0.023437 -0.128907,0.09375 -0.785156,0.99609378 -1.875,0.99609378 -1.992187,0.99609378 -0.773438,0 -0.867188,-0.84375 -0.867188,-1.16015628 0,-0.1171875 0.01172,-0.4335937 0.164063,-1.03125 z m -0.46875,-0.2226562 c 0.386718,-1.5117188 1.417968,-1.6640625 1.675781,-1.6640625 0.46875,0 0.738281,0.2929687 0.738281,0.6328125 0,1.03125 -1.59375,1.03125 -2.003906,1.03125 z m 0,0"
         style="fill:#eb0a36;fill-opacity:1;fill-rule:nonzero;stroke:none" />
      <path
         id="path12"
         d="m 24.898664,-4.353 c -0.07031,0.234375 -0.292969,0.609375 -0.65625,0.609375 -0.02344,0 -0.222656,0 -0.375,-0.09375 0.28125,-0.09375 0.304688,-0.3398437 0.304688,-0.3867187 0,-0.1523438 -0.117188,-0.2578125 -0.28125,-0.2578125 -0.1875,0 -0.386719,0.1640625 -0.386719,0.4335937 0,0.3398438 0.386719,0.5039063 0.726562,0.5039063 0.316407,0 0.609375,-0.1992188 0.785157,-0.4921875 0.164062,0.3632812 0.550781,0.4921875 0.820312,0.4921875 0.808594,0 1.230469,-0.8671875 1.230469,-1.0664063 0,-0.09375 -0.09375,-0.09375 -0.105469,-0.09375 -0.105469,0 -0.105469,0.035156 -0.140625,0.1171875 -0.140625,0.4804688 -0.5625,0.84375 -0.949219,0.84375 -0.28125,0 -0.421875,-0.1875 -0.421875,-0.4453125 0,-0.1875 0.164063,-0.8203125 0.363282,-1.59375 0.128906,-0.5390625 0.445312,-0.7148437 0.679687,-0.7148437 0.01172,0 0.222656,0 0.375,0.1054687 -0.222656,0.058594 -0.304687,0.2578125 -0.304687,0.375 0,0.1523438 0.117187,0.2578125 0.28125,0.2578125 0.152343,0 0.386718,-0.1289062 0.386718,-0.421875 0,-0.3867187 -0.445312,-0.5039062 -0.726562,-0.5039062 -0.351563,0 -0.632813,0.2226562 -0.785156,0.4921875 -0.117188,-0.2929688 -0.445313,-0.4921875 -0.832032,-0.4921875 -0.785156,0 -1.230468,0.8554687 -1.230468,1.0664062 0,0.082031 0.105468,0.082031 0.117187,0.082031 0.09375,0 0.105469,-0.023437 0.140625,-0.1171875 0.175781,-0.5390625 0.609375,-0.84375 0.949219,-0.84375 0.234375,0 0.421875,0.1289062 0.421875,0.46875 0,0.1289062 -0.08203,0.4804687 -0.152344,0.7148437 z m 0,0"
         style="fill:#eb0a36;fill-opacity:1;fill-rule:nonzero;stroke:none" />
    </g>
  </g>
</svg>
