<?xml version="1.0" encoding="UTF-8" standalone="no"?>
<!-- Created with Inkscape (http://www.inkscape.org/) -->

<svg
   version="1.1"
   id="svg1"
   width="190.60167"
   height="208.87891"
   viewBox="0 0 190.60167 208.87891"
   sodipodi:docname="2.8-pendienteinf.svg"
   inkscape:version="1.4.3 (0d15f75, 2025-12-25)"
   xmlns:inkscape="http://www.inkscape.org/namespaces/inkscape"
   xmlns:sodipodi="http://sodipodi.sourceforge.net/DTD/sodipodi-0.dtd"
   xmlns="http://www.w3.org/2000/svg"
   xmlns:svg="http://www.w3.org/2000/svg">
  <defs
     id="defs1">
    <clipPath
       clipPathUnits="userSpaceOnUse"
       id="clipPath14">
      <rect
         style="fill:none;stroke-width:0.751177"
         id="rect15"
         width="197.49376"
         height="192.21318"
         x="-45.879002"
         y="-168.95331" />
    </clipPath>
    <clipPath
       clipPathUnits="userSpaceOnUse"
       id="clipPath15">
      <rect
         style="fill:none;stroke-width:0.751177"
         id="rect16"
         width="197.49376"
         height="192.21318"
         x="-101.63"
         y="-135.14331" />
    </clipPath>
    <clipPath
       clipPathUnits="userSpaceOnUse"
       id="clipPath16">
      <rect
         style="fill:none;stroke-width:0.751177"
         id="rect17"
         width="197.49376"
         height="192.21318"
         x="-57.491001"
         y="-127.0183"
         transform="scale(1,-1)" />
    </clipPath>
    <clipPath
       clipPathUnits="userSpaceOnUse"
       id="clipPath17">
      <rect
         style="fill:none;stroke-width:0.751177"
         id="rect18"
         width="197.49376"
         height="192.21318"
         x="-57.491001"
         y="-127.0183"
         transform="scale(1,-1)" />
    </clipPath>
    <clipPath
       clipPathUnits="userSpaceOnUse"
       id="clipPath18">
      <rect
         style="fill:none;stroke-width:0.751177"
         id="rect19"
         width="197.49376"
         height="192.21318"
         x="-57.491001"
         y="-127.0183"
         transform="scale(1,-1)" />
    </clipPath>
    <clipPath
       clipPathUnits="userSpaceOnUse"
       id="clipPath19">
      <rect
         style="fill:none;stroke-width:0.751177"
         id="rect20"
         width="197.49376"
         height="192.21318"
         x="-47.916"
         y="-19.172298" />
    </clipPath>
    <clipPath
       clipPathUnits="userSpaceOnUse"
       id="clipPath20">
      <rect
         style="fill:none;stroke-width:0.751177"
         id="rect21"
         width="197.49376"
         height="192.21318"
         x="-57.491001"
         y="-18.340778"
         transform="matrix(0,-1,-1,0,0,0)" />
    </clipPath>
    <clipPath
       clipPathUnits="userSpaceOnUse"
       id="clipPath21">
      <rect
         style="fill:none;stroke-width:0.751177"
         id="rect22"
         width="197.49376"
         height="192.21318"
         x="-57.491001"
         y="-127.0183"
         transform="scale(1,-1)" />
    </clipPath>
    <clipPath
       clipPathUnits="userSpaceOnUse"
       id="clipPath22">
      <rect
         style="fill:none;stroke-width:0.751177"
         id="rect23"
         width="197.49376"
         height="192.21318"
         x="-163.50801"
         y="-135.55029" />
    </clipPath>
    <clipPath
       clipPathUnits="userSpaceOnUse"
       id="clipPath23">
      <rect
         style="fill:none;stroke-width:0.751177"
         id="rect24"
         width="197.49376"
         height="192.21318"
         x="-166.16853"
         y="-127.0183"
         transform="scale(1,-1)" />
    </clipPath>
    <clipPath
       clipPathUnits="userSpaceOnUse"
       id="clipPath24">
      <rect
         style="fill:none;stroke-width:0.751177"
         id="rect25"
         width="197.49376"
         height="192.21318"
         x="-57.491001"
         y="-127.0183"
         transform="scale(1,-1)" />
    </clipPath>
    <clipPath
       clipPathUnits="userSpaceOnUse"
       id="clipPath25">
      <rect
         style="fill:none;stroke-width:0.751177"
         id="rect26"
         width="197.49376"
         height="192.21318"
         x="31.459"
         y="31.489704" />
    </clipPath>
    <clipPath
       clipPathUnits="userSpaceOnUse"
       id="clipPath26">
      <rect
         style="fill:none;stroke-width:0.751177"
         id="rect27"
         width="197.49376"
         height="192.21318"
         x="81.673004"
         y="23.782703"
         transform="scale(1,-1)" />
    </clipPath>
    <clipPath
       clipPathUnits="userSpaceOnUse"
       id="clipPath27">
      <rect
         style="fill:none;stroke-width:0.751177"
         id="rect28"
         width="197.49376"
         height="192.21318"
         x="81.673004"
         y="-220.37631"
         transform="scale(1,-1)" />
    </clipPath>
  </defs>
  <sodipodi:namedview
     id="namedview1"
     pagecolor="#ffffff"
     bordercolor="#000000"
     borderopacity="0.25"
     inkscape:showpageshadow="2"
     inkscape:pageopacity="0.0"
     inkscape:pagecheckerboard="0"
     inkscape:deskcolor="#d1d1d1"
     inkscape:zoom="2.130447"
     inkscape:cx="97.866785"
     inkscape:cy="93.172934"
     inkscape:window-width="1920"
     inkscape:window-height="991"
     inkscape:window-x="-9"
     inkscape:window-y="-9"
     inkscape:window-maximized="1"
     inkscape:current-layer="g1">
    <inkscape:page
       x="0"
       y="0"
       inkscape:label="95"
       id="page1"
       width="190.60167"
       height="208.87891"
       margin="0"
       bleed="0" />
  </sodipodi:namedview>
  <g
     id="g1"
     inkscape:groupmode="layer"
     inkscape:label="95"
     transform="translate(-143.97646,-88.124999)">
    <path
       id="path2"
       d="M 0,0 H 362.835 V 27.967 H 0 Z"
       style="fill:#d2d2d2;fill-opacity:1;fill-rule:nonzero;stroke:none"
       transform="matrix(1.3333333,0,0,-1.3333333,0,37.289333)"
       clip-path="url(#clipPath26)" />
    <path
       id="path3"
       d="m 2.989125,-5.9777734 c -0.7382812,-0.1875 -1.3828125,-0.9140625 -1.3828125,-1.828125 0,-1.0078125 0.8085938,-1.9101563 1.921875,-1.9101563 2.3554688,0 2.671875,2.3320313 2.7539063,2.9414063 0.035156,0.1757812 0.035156,0.234375 0.1757812,0.234375 0.1523438,0 0.1523438,-0.070312 0.1523438,-0.328125 v -2.90625 c 0,-0.2578126 0,-0.3281246 -0.140625,-0.3281246 -0.046875,0 -0.1054688,0 -0.1992188,0.1874996 L 5.7899063,-9.0363672 C 5.1102188,-9.9269922 4.161,-10.102773 3.5281875,-10.102773 c -1.59375,0 -2.75390625,1.2773433 -2.75390625,2.7421871 0,0.6914062 0.24609375,1.3242187 0.77343755,1.8984375 0.5039062,0.5507812 1.0078125,0.6796875 2.0273437,0.9375 0.5039063,0.1171875 1.2890625,0.3164062 1.4882813,0.4101562 0.6796875,0.328125 1.125,1.1015625 1.125,1.9101563 0,1.0664062 -0.7617188,2.08593746 -1.9570313,2.08593746 -0.6445312,0 -1.5351562,-0.15234375 -2.2382812,-0.7734375 C 1.161,-1.6418359 1.1024063,-2.6730859 1.0906875,-3.1418359 1.0789688,-3.2590234 0.96178125,-3.2590234 0.93834375,-3.2590234 c -0.1640625,0 -0.1640625,0.070312 -0.1640625,0.328125 v 2.90624996 c 0,0.2578125 0,0.328125 0.140625,0.328125 0.0937499,0 0.10546875,-0.0351563 0.19921875,-0.19921875 0.058594,-0.1171875 0.3632813,-0.65625 0.4804688,-0.8671875 0.515625,0.57421875 1.4179687,1.06640625 2.6484375,1.06640625 1.6054687,0 2.7773437,-1.37109376 2.7773437,-2.94140626 0,-0.8789062 -0.3398437,-1.5234375 -0.7265625,-1.9921875 -0.5273437,-0.6445312 -1.171875,-0.8085937 -1.734375,-0.9492187 z m 10.3125,2.6484375 c 0.316406,0 0.339844,0 0.339844,-0.2695313 0,-1.453125 -0.773438,-2.8007812 -2.507813,-2.8007812 -1.6406247,0 -2.894531,1.4765625 -2.894531,3.2578125 0,1.8984375 1.4648438,3.28124996 3.046875,3.28124996 1.710938,0 2.355469,-1.54687496 2.355469,-1.85156246 0,-0.082031 -0.07031,-0.140625 -0.152344,-0.140625 -0.117187,0 -0.152344,0.070312 -0.175781,0.140625 -0.375,1.20703121 -1.335938,1.53515621 -1.933594,1.53515621 -0.609375,0 -2.0507812,-0.3984375 -2.0507812,-2.88281251 V -3.3293359 Z M 9.3406875,-3.5988672 c 0.1171875,-2.25 1.3710935,-2.5078125 1.7812505,-2.5078125 1.535156,0 1.617187,2.015625 1.628906,2.5078125 z m 9.8994145,-1.7109375 c -0.175782,0 -0.703125,0 -0.703125,0.5859375 0,0.3515625 0.246093,0.5859375 0.585937,0.5859375 0.328125,0 0.609375,-0.1992187 0.609375,-0.609375 0,-0.9609375 -1.007812,-1.6523437 -2.167969,-1.6523437 -1.675781,0 -3.011718,1.4882812 -3.011718,3.3046875 0,1.828125 1.371093,3.23437496 3,3.23437496 1.886718,0 2.320312,-1.72265626 2.320312,-1.85156246 0,-0.1289063 -0.105469,-0.1289063 -0.140625,-0.1289063 -0.128906,0 -0.152344,0.046875 -0.1875,0.2226563 -0.316406,1.01953121 -1.089844,1.44140621 -1.863281,1.44140621 -0.878906,0 -2.039063,-0.76171875 -2.039063,-2.94140621 0,-2.3789063 1.21875,-2.9648438 1.933594,-2.9648438 0.550781,0 1.335938,0.2109375 1.664063,0.7734375 z m 6.243164,0 c -0.175782,0 -0.703125,0 -0.703125,0.5859375 0,0.3515625 0.246093,0.5859375 0.585937,0.5859375 0.328125,0 0.609375,-0.1992187 0.609375,-0.609375 0,-0.9609375 -1.007812,-1.6523437 -2.167969,-1.6523437 -1.675781,0 -3.011718,1.4882812 -3.011718,3.3046875 0,1.828125 1.371093,3.23437496 3,3.23437496 1.886718,0 2.320312,-1.72265626 2.320312,-1.85156246 0,-0.1289063 -0.105469,-0.1289063 -0.140625,-0.1289063 -0.128906,0 -0.152344,0.046875 -0.1875,0.2226563 -0.316406,1.01953121 -1.089844,1.44140621 -1.863281,1.44140621 -0.878906,0 -2.039063,-0.76171875 -2.039063,-2.94140621 0,-2.3789063 1.21875,-2.9648438 1.933594,-2.9648438 0.550781,0 1.335938,0.2109375 1.664063,0.7734375 z m 3.547851,-3.5273437 c 0,-0.375 -0.304687,-0.703125 -0.703125,-0.703125 -0.375,0 -0.691406,0.3046875 -0.691406,0.6914062 0,0.4335938 0.351562,0.703125 0.691406,0.703125 0.445313,0 0.703125,-0.375 0.703125,-0.6914062 z m -1.980469,2.671875 v 0.4101562 c 0.914063,0 1.042969,0.09375 1.042969,0.7851563 v 3.9023437 c 0,0.65625001 -0.152344,0.65625001 -1.089844,0.65625001 v 0.41015625 c 0.410157,-0.0234375 1.089844,-0.0234375 1.511719,-0.0234375 0.152344,0 0.984375,0 1.476563,0.0234375 v -0.41015625 c -0.9375,0 -0.984375,-0.0820313 -0.984375,-0.63281251 v -5.2851562 z m 8.648438,-2.9414063 c 0.234375,-0.1875 0.234375,-0.3515625 0.234375,-0.421875 0,-0.2578125 -0.246094,-0.46875 -0.492188,-0.46875 -0.199218,0 -0.28125,0.09375 -0.398437,0.2578125 l -1.710938,2.1796875 c 0.07031,0.082031 0.140625,0.1523438 0.234375,0.234375 z m 1.318359,6.0351563 c 0,-1.8515625 -1.40625,-3.328125 -3.070312,-3.328125 -1.722656,0 -3.082031,1.5234375 -3.082031,3.328125 0,1.8398437 1.429687,3.21093746 3.070312,3.21093746 1.6875,0 3.082031,-1.40624996 3.082031,-3.21093746 z m -3.070312,2.89453121 c -0.527344,0 -1.171875,-0.22265625 -1.59375,-0.92578121 -0.386719,-0.6445313 -0.398438,-1.5 -0.398438,-2.0976563 0,-0.5390625 0,-1.4179687 0.445313,-2.0625 0.398437,-0.6210937 1.03125,-0.84375 1.535156,-0.84375 0.550781,0 1.160156,0.2578125 1.546875,0.8085938 0.445313,0.6679687 0.445313,1.5703125 0.445313,2.0976562 0,0.5039063 0,1.3945313 -0.375,2.0625 -0.398438,0.69140626 -1.066407,0.96093751 -1.605469,0.96093751 z m 9.893555,-3.30468751 c 0,-1.3359375 0,-1.7460937 -0.328125,-2.203125 -0.421875,-0.5507812 -1.089844,-0.6445312 -1.582032,-0.6445312 -1.394531,0 -1.933593,1.1953125 -2.050781,1.4765625 H 39.86803 V -6.3293359 L 37.911,-6.1652734 v 0.4101562 c 0.972656,0 1.089844,0.1054688 1.089844,0.8085938 v 3.8789062 c 0,0.65625001 -0.152344,0.65625001 -1.089844,0.65625001 v 0.41015625 c 0.375,-0.0234375 1.148438,-0.0234375 1.546875,-0.0234375 0.421875,0 1.195313,0 1.570313,0.0234375 v -0.41015625 c -0.925782,0 -1.089844,0 -1.089844,-0.65625001 v -2.6601562 c 0,-1.5117188 0.984375,-2.3085938 1.875,-2.3085938 0.890625,0 1.089844,0.7265625 1.089844,1.6054688 v 3.3632812 c 0,0.65625001 -0.152344,0.65625001 -1.089844,0.65625001 v 0.41015625 c 0.375,-0.0234375 1.148437,-0.0234375 1.546875,-0.0234375 0.421875,0 1.195312,0 1.570312,0.0234375 v -0.41015625 c -0.714843,0 -1.078125,0 -1.089843,-0.43359375 z m 12.427734,1.0664063 h -0.316406 c -0.04687,0.2460937 -0.164063,1.03125 -0.304688,1.265625 -0.105469,0.1289062 -0.914062,0.1289062 -1.347656,0.1289062 h -2.660156 c 0.386718,-0.328125 1.265625,-1.2421875 1.640625,-1.59375 2.179687,-2.0039062 2.988281,-2.7539062 2.988281,-4.171875 0,-1.6523437 -1.3125,-2.7539062 -2.976563,-2.7539062 -1.664062,0 -2.636718,1.4179687 -2.636718,2.6484375 0,0.7382812 0.632812,0.7382812 0.679687,0.7382812 0.292969,0 0.667969,-0.2109375 0.667969,-0.6796875 0,-0.3984375 -0.269531,-0.6679687 -0.667969,-0.6679687 -0.140625,0 -0.164062,0 -0.210937,0.011719 0.28125,-0.9726562 1.054687,-1.6289062 1.980468,-1.6289062 1.21875,0 1.96875,1.0078125 1.96875,2.3320312 0,1.21875 -0.703125,2.2851563 -1.523437,3.1992188 l -2.894531,3.24609371 v 0.33984375 h 5.238281 z m 3.342773,1.71093746 c 0,-0.38671876 -0.328125,-0.69140626 -0.691406,-0.69140626 -0.410156,0 -0.703125,0.328125 -0.703125,0.69140626 0,0.43359375 0.363281,0.703125 0.691406,0.703125 0.386719,0 0.703125,-0.3046875 0.703125,-0.703125 z m 5.542969,-4.47656246 c 0.714844,-0.3867188 1.757813,-1.0429688 1.757813,-2.25 0,-1.2539063 -1.207032,-2.109375 -2.519532,-2.109375 -1.417968,0 -2.542968,1.0429687 -2.542968,2.3554687 0,0.4804688 0.140625,0.9726563 0.550781,1.4648438 0.152344,0.1875 0.164062,0.1992187 1.171875,0.9023437 -1.394531,0.6445313 -2.109375,1.6054688 -2.109375,2.6484375 0,1.52343751 1.453125,2.47265626 2.917969,2.47265626 1.59375,0 2.917968,-1.18359375 2.917968,-2.68359376 0,-1.4648437 -1.03125,-2.109375 -2.144531,-2.8007812 z m -1.957031,-1.2890625 c -0.1875,-0.1289063 -0.761719,-0.5039063 -0.761719,-1.2070313 0,-0.9257812 0.984375,-1.5234375 1.945313,-1.5234375 1.03125,0 1.945312,0.75 1.945312,1.78125 0,0.8789063 -0.632812,1.5820313 -1.464844,2.0390625 z m 0.679687,1.8515625 1.734375,1.1367187 c 0.375,0.234375 1.03125,0.6796875 1.03125,1.5585938 0,1.08984371 -1.101562,1.83984371 -2.25,1.83984371 -1.21875,0 -2.273437,-0.890625 -2.273437,-2.08593751 0,-1.1132812 0.820312,-2.015625 1.757812,-2.4492187 z M 70.536,-5.4973047 c 0,-0.3867187 -0.328125,-0.6914062 -0.691406,-0.6914062 -0.410156,0 -0.703125,0.3398437 -0.703125,0.6914062 0,0.4335938 0.363281,0.703125 0.691406,0.703125 0.386719,0 0.703125,-0.3046875 0.703125,-0.703125 z m 0,4.79296876 c 0,-0.38671876 -0.328125,-0.69140626 -0.691406,-0.69140626 -0.410156,0 -0.703125,0.328125 -0.703125,0.69140626 0,0.43359375 0.363281,0.703125 0.691406,0.703125 0.386719,0 0.703125,-0.3046875 0.703125,-0.703125 z M 84.660023,-3.6691797 h -0.316406 c -0.140625,1.4296875 -0.328125,3.25781251 -2.847656,3.25781251 h -1.242188 c -0.632812,0 -0.65625,-0.10546875 -0.65625,-0.57421875 V -8.6965234 c 0,-0.515625 0.02344,-0.6796875 1.277344,-0.6796875 h 0.421875 v -0.421875 c -0.410156,0.023437 -1.675781,0.023437 -2.179687,0.023437 -0.433594,0 -1.699219,0 -2.050782,-0.023437 v 0.421875 h 0.292969 c 1.03125,0 1.066406,0.140625 1.066406,0.6679687 v 7.6171875 c 0,0.52734376 -0.03516,0.67968751 -1.066406,0.67968751 h -0.292969 v 0.41015625 h 7.21875 z m 6.128907,-0.1640625 c 0,-0.7734375 0,-1.3476562 -0.621094,-1.9101562 -0.503906,-0.4570313 -1.148438,-0.65625 -1.78125,-0.65625 -1.183594,0 -2.085938,0.7734375 -2.085938,1.7109375 0,0.4101562 0.28125,0.609375 0.609375,0.609375 0.339844,0 0.585938,-0.234375 0.585938,-0.5859375 0,-0.5859375 -0.515625,-0.5859375 -0.726563,-0.5859375 0.328125,-0.5976563 1.007813,-0.8554688 1.582032,-0.8554688 0.667968,0 1.511718,0.5390625 1.511718,1.828125 v 0.5742188 c -2.882812,0.046875 -3.972656,1.2539062 -3.972656,2.3554687 0,1.13671876 1.3125,1.48828126 2.191406,1.48828126 0.949219,0 1.59375,-0.57421875 1.863282,-1.25390626 0.05859,0.66796876 0.503906,1.18359376 1.125,1.18359376 0.292968,0 1.125,-0.19921875 1.125,-1.34765626 v -0.796875 h -0.316407 v 0.796875 c 0,0.82031251 -0.339843,0.93750001 -0.539062,0.93750001 -0.550781,0 -0.550781,-0.76171871 -0.550781,-0.98437501 z m -0.925782,1.8046875 c 0,1.40625001 -1.042968,1.88671876 -1.664062,1.88671876 -0.703125,0 -1.289063,-0.515625 -1.289063,-1.20703126 0,-1.8984375 2.4375,-2.0625 2.953125,-2.0976562 z M 101.2567,-9.7980859 v 0.421875 c 0.97266,0 1.08985,0.09375 1.08985,0.796875 v 3.1757812 c -0.29297,-0.421875 -0.91407,-0.9257812 -1.79297,-0.9257812 -1.664064,0 -3.093752,1.40625 -3.093752,3.2460937 0,1.8164063 1.359375,3.22265626 2.941402,3.22265626 1.08985,0 1.72266,-0.71484375 1.92188,-0.984375 v 0.984375 l 2.01562,-0.140625 v -0.41015625 c -0.97265,0 -1.08984,-0.10546875 -1.08984,-0.80859371 v -8.7304688 z m 1.06641,8.1210937 c 0,0.2578125 0,0.2929688 -0.19922,0.609375 -0.35156,0.50390626 -0.9375,0.92578126 -1.65234,0.92578126 -0.375,0 -1.921878,-0.140625 -1.921878,-2.92968746 0,-1.03125 0.175781,-1.6054688 0.480469,-2.0742188 0.292968,-0.4453125 0.867187,-0.890625 1.582029,-0.890625 0.89063,0 1.39453,0.6445313 1.53516,0.8671875 0.17578,0.2460938 0.17578,0.28125 0.17578,0.5390625 z m 7.93359,-1.6523437 c 0.31641,0 0.33985,0 0.33985,-0.2695313 0,-1.453125 -0.77344,-2.8007812 -2.50782,-2.8007812 -1.64062,0 -2.89453,1.4765625 -2.89453,3.2578125 0,1.8984375 1.46485,3.28124996 3.04688,3.28124996 1.71094,0 2.35547,-1.54687496 2.35547,-1.85156246 0,-0.082031 -0.0703,-0.140625 -0.15235,-0.140625 -0.11718,0 -0.15234,0.070312 -0.17578,0.140625 -0.375,1.20703121 -1.33594,1.53515621 -1.93359,1.53515621 -0.60938,0 -2.05078,-0.3984375 -2.05078,-2.88281251 v -0.2695312 z m -3.96093,-0.2695313 c 0.11718,-2.25 1.37109,-2.5078125 1.78125,-2.5078125 1.53515,0 1.61718,2.015625 1.6289,2.5078125 z m 7.09863,0.2578125 c 0,-1.3945312 0.57422,-2.6953125 1.6875,-2.6953125 0.10547,0 0.14062,0 0.19922,0.011719 -0.11719,0.058594 -0.35157,0.140625 -0.35157,0.5273437 0,0.421875 0.33985,0.5742188 0.5625,0.5742188 0.29297,0 0.57422,-0.1875 0.57422,-0.5742188 0,-0.4335937 -0.38672,-0.8320312 -1.00781,-0.8320312 -1.21875,0 -1.62891,1.3242187 -1.71094,1.59375 h -0.0234 v -1.59375 l -1.92188,0.1640625 v 0.4101562 c 0.98438,0 1.08984,0.1054688 1.08984,0.8085938 v 3.8789062 c 0,0.65625001 -0.15234,0.65625001 -1.08984,0.65625001 v 0.41015625 c 0.41016,-0.0234375 1.19531,-0.0234375 1.62891,-0.0234375 0.38672,0 1.40625,0 1.73437,0.0234375 v -0.41015625 h -0.29297 c -1.04297,0 -1.07812,-0.1640625 -1.07812,-0.67968751 z m 5.56933,-5.4960937 c 0,-0.375 -0.30468,-0.703125 -0.70312,-0.703125 -0.375,0 -0.69141,0.3046875 -0.69141,0.6914062 0,0.4335938 0.35157,0.703125 0.69141,0.703125 0.44531,0 0.70312,-0.375 0.70312,-0.6914062 z m -1.98046,2.671875 v 0.4101562 c 0.91406,0 1.04296,0.09375 1.04296,0.7851563 v 3.9023437 c 0,0.65625001 -0.15234,0.65625001 -1.08984,0.65625001 v 0.41015625 c 0.41016,-0.0234375 1.08984,-0.0234375 1.51172,-0.0234375 0.15234,0 0.98437,0 1.47656,0.0234375 v -0.41015625 c -0.9375,0 -0.98437,-0.0820313 -0.98437,-0.63281251 v -5.2851562 z m 9.23437,1.3476562 c 0.12891,-0.3164062 0.375,-0.9375 1.30078,-0.9492187 v -0.421875 c -0.42187,0.035156 -0.62109,0.035156 -1.0664,0.035156 -0.30469,0 -0.51563,0 -1.17188,-0.035156 v 0.421875 c 0.59766,0.023437 0.66797,0.4570312 0.66797,0.6210937 0,0.1289063 -0.0234,0.1992188 -0.0937,0.3632813 l -1.46484,3.703125 -1.60547,-4.0429688 c -0.0703,-0.1992187 -0.0937,-0.1992187 -0.0937,-0.2695312 0,-0.375 0.55078,-0.375 0.80859,-0.375 v -0.421875 c -0.36328,0.035156 -1.10156,0.035156 -1.48828,0.035156 -0.48047,0 -0.50391,0 -1.38281,-0.035156 v 0.421875 c 0.80859,0 0.94922,0.058594 1.125,0.5039062 l 2.05078,5.13281251 c 0.0703,0.19921875 0.0937,0.26953125 0.26953,0.26953125 0.0937,0 0.1875,-0.0234375 0.28125,-0.26953125 z m 6.32227,0.984375 c 0,-0.7734375 0,-1.3476562 -0.6211,-1.9101562 -0.5039,-0.4570313 -1.14844,-0.65625 -1.78125,-0.65625 -1.18359,0 -2.08594,0.7734375 -2.08594,1.7109375 0,0.4101562 0.28125,0.609375 0.60938,0.609375 0.33984,0 0.58594,-0.234375 0.58594,-0.5859375 0,-0.5859375 -0.51563,-0.5859375 -0.72657,-0.5859375 0.32813,-0.5976563 1.00782,-0.8554688 1.58204,-0.8554688 0.66796,0 1.51171,0.5390625 1.51171,1.828125 v 0.5742188 c -2.88281,0.046875 -3.97265,1.2539062 -3.97265,2.3554687 0,1.13671876 1.3125,1.48828126 2.1914,1.48828126 0.94922,0 1.59375,-0.57421875 1.86329,-1.25390626 0.0586,0.66796876 0.5039,1.18359376 1.125,1.18359376 0.29296,0 1.125,-0.19921875 1.125,-1.34765626 v -0.796875 h -0.31641 v 0.796875 c 0,0.82031251 -0.33984,0.93750001 -0.53906,0.93750001 -0.55078,0 -0.55078,-0.76171871 -0.55078,-0.98437501 z m -0.92579,1.8046875 c 0,1.40625001 -1.04296,1.88671876 -1.66406,1.88671876 -0.70312,0 -1.28906,-0.515625 -1.28906,-1.20703126 0,-1.8984375 2.4375,-2.0625 2.95312,-2.0976562 z m 6.72071,-7.7695312 v 0.421875 c 0.97265,0 1.08984,0.09375 1.08984,0.796875 v 3.1757812 c -0.29297,-0.421875 -0.91406,-0.9257812 -1.79297,-0.9257812 -1.66406,0 -3.09375,1.40625 -3.09375,3.2460937 0,1.8164063 1.35938,3.22265626 2.94141,3.22265626 1.08984,0 1.72266,-0.71484375 1.92187,-0.984375 v 0.984375 l 2.01563,-0.140625 v -0.41015625 c -0.97266,0 -1.08984,-0.10546875 -1.08984,-0.80859371 v -8.7304688 z m 1.0664,8.1210937 c 0,0.2578125 0,0.2929688 -0.19921,0.609375 -0.35157,0.50390626 -0.9375,0.92578126 -1.65235,0.92578126 -0.375,0 -1.92187,-0.140625 -1.92187,-2.92968746 0,-1.03125 0.17578,-1.6054688 0.48047,-2.0742188 0.29296,-0.4453125 0.86718,-0.890625 1.58203,-0.890625 0.89062,0 1.39453,0.6445313 1.53515,0.8671875 0.17578,0.2460938 0.17578,0.28125 0.17578,0.5390625 z m 7.96875,-2.15625 c 0,-0.7734375 0,-1.3476562 -0.62109,-1.9101562 -0.50391,-0.4570313 -1.14844,-0.65625 -1.78125,-0.65625 -1.18359,0 -2.08594,0.7734375 -2.08594,1.7109375 0,0.4101562 0.28125,0.609375 0.60938,0.609375 0.33984,0 0.58594,-0.234375 0.58594,-0.5859375 0,-0.5859375 -0.51563,-0.5859375 -0.72657,-0.5859375 0.32813,-0.5976563 1.00782,-0.8554688 1.58203,-0.8554688 0.66797,0 1.51172,0.5390625 1.51172,1.828125 v 0.5742188 c -2.88281,0.046875 -3.97265,1.2539062 -3.97265,2.3554687 0,1.13671876 1.3125,1.48828126 2.1914,1.48828126 0.94922,0 1.59375,-0.57421875 1.86328,-1.25390626 0.0586,0.66796876 0.50391,1.18359376 1.125,1.18359376 0.29297,0 1.125,-0.19921875 1.125,-1.34765626 v -0.796875 h -0.3164 v 0.796875 c 0,0.82031251 -0.33985,0.93750001 -0.53906,0.93750001 -0.55079,0 -0.55079,-0.76171871 -0.55079,-0.98437501 z m -0.92578,1.8046875 c 0,1.40625001 -1.04297,1.88671876 -1.66406,1.88671876 -0.70312,0 -1.28906,-0.515625 -1.28906,-1.20703126 0,-1.8984375 2.4375,-2.0625 2.95312,-2.0976562 z m 12.28711,-3.28125 c -0.17578,0 -0.70312,0 -0.70312,0.5859375 0,0.3515625 0.24609,0.5859375 0.58593,0.5859375 0.32813,0 0.60938,-0.1992187 0.60938,-0.609375 0,-0.9609375 -1.00781,-1.6523437 -2.16797,-1.6523437 -1.67578,0 -3.01172,1.4882812 -3.01172,3.3046875 0,1.828125 1.3711,3.23437496 3,3.23437496 1.88672,0 2.32031,-1.72265626 2.32031,-1.85156246 0,-0.1289063 -0.10546,-0.1289063 -0.14062,-0.1289063 -0.12891,0 -0.15234,0.046875 -0.1875,0.2226563 -0.31641,1.01953121 -1.08984,1.44140621 -1.86328,1.44140621 -0.87891,0 -2.03906,-0.76171875 -2.03906,-2.94140621 0,-2.3789063 1.21875,-2.9648438 1.93359,-2.9648438 0.55078,0 1.33594,0.2109375 1.66406,0.7734375 z m 7.6377,2.2382813 c 0,-1.8515625 -1.40625,-3.328125 -3.07031,-3.328125 -1.72266,0 -3.08204,1.5234375 -3.08204,3.328125 0,1.8398437 1.42969,3.21093746 3.07032,3.21093746 1.6875,0 3.08203,-1.40624996 3.08203,-3.21093746 z m -3.07031,2.89453121 c -0.52735,0 -1.17188,-0.22265625 -1.59375,-0.92578121 -0.38672,-0.6445313 -0.39844,-1.5 -0.39844,-2.0976563 0,-0.5390625 0,-1.4179687 0.44531,-2.0625 0.39844,-0.6210937 1.03125,-0.84375 1.53516,-0.84375 0.55078,0 1.16015,0.2578125 1.54687,0.8085938 0.44531,0.6679687 0.44531,1.5703125 0.44531,2.0976562 0,0.5039063 0,1.3945313 -0.375,2.0625 -0.39843,0.69140626 -1.0664,0.96093751 -1.60546,0.96093751 z m 13.79589,-3.30468751 c 0,-1.3359375 0,-1.7460937 -0.33984,-2.203125 -0.41016,-0.5507812 -1.08984,-0.6445312 -1.57031,-0.6445312 -1.19532,0 -1.79297,0.8671875 -2.02735,1.4179687 -0.19922,-1.1015625 -0.97265,-1.4179687 -1.875,-1.4179687 -1.39453,0 -1.93359,1.1953125 -2.05078,1.4765625 h -0.0117 v -1.4765625 l -1.95703,0.1640625 v 0.4101562 c 0.97266,0 1.08985,0.1054688 1.08985,0.8085938 v 3.8789062 c 0,0.65625001 -0.15235,0.65625001 -1.08985,0.65625001 v 0.41015625 c 0.375,-0.0234375 1.14844,-0.0234375 1.54688,-0.0234375 0.42187,0 1.19531,0 1.57031,0.0234375 v -0.41015625 c -0.92578,0 -1.08984,0 -1.08984,-0.65625001 v -2.6601562 c 0,-1.5117188 0.98437,-2.3085938 1.875,-2.3085938 0.89062,0 1.08984,0.7265625 1.08984,1.6054688 v 3.3632812 c 0,0.65625001 -0.15234,0.65625001 -1.08984,0.65625001 v 0.41015625 c 0.375,-0.0234375 1.14843,-0.0234375 1.54687,-0.0234375 0.42188,0 1.19531,0 1.57031,0.0234375 v -0.41015625 c -0.92578,0 -1.08984,0 -1.08984,-0.65625001 v -2.6601562 c 0,-1.5117188 0.98437,-2.3085938 1.875,-2.3085938 0.89062,0 1.08984,0.7265625 1.08984,1.6054688 v 3.3632812 c 0,0.65625001 -0.15234,0.65625001 -1.08984,0.65625001 v 0.41015625 c 0.375,-0.0234375 1.14844,-0.0234375 1.54687,-0.0234375 0.42188,0 1.19532,0 1.57032,0.0234375 v -0.41015625 c -0.72657,0 -1.07813,0 -1.08985,-0.43359375 z m 8.00391,0.4101563 c 0,-1.8515625 -1.40625,-3.328125 -3.07031,-3.328125 -1.72266,0 -3.08203,1.5234375 -3.08203,3.328125 0,1.8398437 1.42968,3.21093746 3.07031,3.21093746 1.6875,0 3.08203,-1.40624996 3.08203,-3.21093746 z m -3.07031,2.89453121 c -0.52735,0 -1.17188,-0.22265625 -1.59375,-0.92578121 -0.38672,-0.6445313 -0.39844,-1.5 -0.39844,-2.0976563 0,-0.5390625 0,-1.4179687 0.44531,-2.0625 0.39844,-0.6210937 1.03125,-0.84375 1.53516,-0.84375 0.55078,0 1.16015,0.2578125 1.54687,0.8085938 0.44532,0.6679687 0.44532,1.5703125 0.44532,2.0976562 0,0.5039063 0,1.3945313 -0.375,2.0625 -0.39844,0.69140626 -1.06641,0.96093751 -1.60547,0.96093751 z m 12.54492,-5.98828121 v 0.4101562 c 0.97266,0 1.08984,0.1054688 1.08984,0.8085938 v 2.5664062 c 0,1.21875 -0.64453,2.23828126 -1.72265,2.23828126 -1.17188,0 -1.24219,-0.6796875 -1.24219,-1.44140626 v -4.7460937 l -2.02734,0.1640625 v 0.4101562 c 1.08984,0 1.08984,0.046875 1.08984,1.3242188 v 2.1445312 c 0,0.890625 0,1.40625001 0.43359,1.88671876 0.33985,0.375 0.92578,0.5390625 1.66407,0.5390625 0.24609,0 0.70312,0 1.18359,-0.41015625 0.42187,-0.328125 0.65625,-0.87890621 0.65625,-0.87890621 v 1.28906246 l 1.99219,-0.140625 v -0.41015625 c -0.98438,0 -1.08985,-0.10546875 -1.08985,-0.80859371 v -5.109375 z m 9.83203,2.6835937 c 0,-1.3359375 0,-1.7460937 -0.32812,-2.203125 -0.42188,-0.5507812 -1.08985,-0.6445312 -1.58204,-0.6445312 -1.39453,0 -1.93359,1.1953125 -2.05078,1.4765625 h -0.0117 v -1.4765625 l -1.95703,0.1640625 v 0.4101562 c 0.97266,0 1.08985,0.1054688 1.08985,0.8085938 v 3.8789062 c 0,0.65625001 -0.15235,0.65625001 -1.08985,0.65625001 v 0.41015625 c 0.375,-0.0234375 1.14844,-0.0234375 1.54688,-0.0234375 0.42187,0 1.19531,0 1.57031,0.0234375 v -0.41015625 c -0.92578,0 -1.08984,0 -1.08984,-0.65625001 v -2.6601562 c 0,-1.5117188 0.98437,-2.3085938 1.875,-2.3085938 0.89062,0 1.08984,0.7265625 1.08984,1.6054688 v 3.3632812 c 0,0.65625001 -0.15234,0.65625001 -1.08984,0.65625001 v 0.41015625 c 0.375,-0.0234375 1.14843,-0.0234375 1.54687,-0.0234375 0.42188,0 1.19531,0 1.57031,0.0234375 v -0.41015625 c -0.71484,0 -1.07812,0 -1.08984,-0.43359375 z m 6.94922,-0.3515625 c 0,-0.7734375 0,-1.3476562 -0.62109,-1.9101562 -0.50391,-0.4570313 -1.14844,-0.65625 -1.78125,-0.65625 -1.1836,0 -2.08594,0.7734375 -2.08594,1.7109375 0,0.4101562 0.28125,0.609375 0.60937,0.609375 0.33985,0 0.58594,-0.234375 0.58594,-0.5859375 0,-0.5859375 -0.51562,-0.5859375 -0.72656,-0.5859375 0.32812,-0.5976563 1.00781,-0.8554688 1.58203,-0.8554688 0.66797,0 1.51172,0.5390625 1.51172,1.828125 v 0.5742188 c -2.88281,0.046875 -3.97266,1.2539062 -3.97266,2.3554687 0,1.13671876 1.3125,1.48828126 2.19141,1.48828126 0.94922,0 1.59375,-0.57421875 1.86328,-1.25390626 0.0586,0.66796876 0.50391,1.18359376 1.125,1.18359376 0.29297,0 1.125,-0.19921875 1.125,-1.34765626 v -0.796875 h -0.31641 v 0.796875 c 0,0.82031251 -0.33984,0.93750001 -0.53906,0.93750001 -0.55078,0 -0.55078,-0.76171871 -0.55078,-0.98437501 z m -0.92578,1.8046875 c 0,1.40625001 -1.04297,1.88671876 -1.66406,1.88671876 -0.70313,0 -1.28907,-0.515625 -1.28907,-1.20703126 0,-1.8984375 2.4375,-2.0625 2.95313,-2.0976562 z m 9.58008,-3.7382812 h 1.61718 v -0.421875 h -1.65234 v -1.6757813 c 0,-1.2890625 0.65625,-1.9453125 1.25391,-1.9453125 0.10546,0 0.32812,0.023437 0.49218,0.1171875 -0.0469,0.011719 -0.41015,0.140625 -0.41015,0.5507813 0,0.328125 0.22265,0.5625 0.5625,0.5625 0.33984,0 0.57422,-0.234375 0.57422,-0.5742188 0,-0.5273437 -0.51563,-0.9492183 -1.20704,-0.9492183 -1.00781,0 -2.14453,0.7734371 -2.14453,2.2382808 v 1.6757813 h -1.11328 v 0.421875 h 1.11328 v 4.6992187 c 0,0.65625001 -0.15234,0.65625001 -1.08984,0.65625001 v 0.41015625 c 0.41016,-0.0234375 1.19531,-0.0234375 1.62891,-0.0234375 0.38671,0 1.40625,0 1.73437,0.0234375 v -0.41015625 h -0.29297 c -1.04297,0 -1.0664,-0.1640625 -1.0664,-0.67968751 z m 6.18164,-0.3984375 v 0.4101562 c 0.97265,0 1.08984,0.1054688 1.08984,0.8085938 v 2.5664062 c 0,1.21875 -0.64453,2.23828126 -1.72266,2.23828126 -1.17187,0 -1.24218,-0.6796875 -1.24218,-1.44140626 v -4.7460937 l -2.02735,0.1640625 v 0.4101562 c 1.08985,0 1.08985,0.046875 1.08985,1.3242188 v 2.1445312 c 0,0.890625 0,1.40625001 0.43359,1.88671876 0.33984,0.375 0.92578,0.5390625 1.66406,0.5390625 0.2461,0 0.70313,0 1.1836,-0.41015625 0.42187,-0.328125 0.65625,-0.87890621 0.65625,-0.87890621 v 1.28906246 l 1.99218,-0.140625 v -0.41015625 c -0.98437,0 -1.08984,-0.10546875 -1.08984,-0.80859371 v -5.109375 z m 9.8291,2.6835937 c 0,-1.3359375 0,-1.7460937 -0.32813,-2.203125 -0.42187,-0.5507812 -1.08984,-0.6445312 -1.58203,-0.6445312 -1.39453,0 -1.93359,1.1953125 -2.05078,1.4765625 h -0.0117 v -1.4765625 l -1.95703,0.1640625 v 0.4101562 c 0.97266,0 1.08984,0.1054688 1.08984,0.8085938 v 3.8789062 c 0,0.65625001 -0.15234,0.65625001 -1.08984,0.65625001 v 0.41015625 c 0.375,-0.0234375 1.14844,-0.0234375 1.54688,-0.0234375 0.42187,0 1.19531,0 1.57031,0.0234375 v -0.41015625 c -0.92578,0 -1.08985,0 -1.08985,-0.65625001 v -2.6601562 c 0,-1.5117188 0.98438,-2.3085938 1.875,-2.3085938 0.89063,0 1.08985,0.7265625 1.08985,1.6054688 v 3.3632812 c 0,0.65625001 -0.15235,0.65625001 -1.08985,0.65625001 v 0.41015625 c 0.375,-0.0234375 1.14844,-0.0234375 1.54688,-0.0234375 0.42187,0 1.19531,0 1.57031,0.0234375 v -0.41015625 c -0.71484,0 -1.07812,0 -1.08984,-0.43359375 z m 6.60937,-1.828125 c -0.17578,0 -0.70312,0 -0.70312,0.5859375 0,0.3515625 0.24609,0.5859375 0.58594,0.5859375 0.32812,0 0.60937,-0.1992187 0.60937,-0.609375 0,-0.9609375 -1.00781,-1.6523437 -2.16797,-1.6523437 -1.67578,0 -3.01172,1.4882812 -3.01172,3.3046875 0,1.828125 1.3711,3.23437496 3,3.23437496 1.88672,0 2.32032,-1.72265626 2.32032,-1.85156246 0,-0.1289063 -0.10547,-0.1289063 -0.14063,-0.1289063 -0.12891,0 -0.15234,0.046875 -0.1875,0.2226563 -0.31641,1.01953121 -1.08984,1.44140621 -1.86328,1.44140621 -0.87891,0 -2.03906,-0.76171875 -2.03906,-2.94140621 0,-2.3789063 1.21875,-2.9648438 1.93359,-2.9648438 0.55078,0 1.33594,0.2109375 1.66406,0.7734375 z m 3.54785,-3.5273437 c 0,-0.375 -0.30468,-0.703125 -0.70312,-0.703125 -0.375,0 -0.69141,0.3046875 -0.69141,0.6914062 0,0.4335938 0.35157,0.703125 0.69141,0.703125 0.44531,0 0.70312,-0.375 0.70312,-0.6914062 z m -1.98046,2.671875 v 0.4101562 c 0.91406,0 1.04296,0.09375 1.04296,0.7851563 v 3.9023437 c 0,0.65625001 -0.15234,0.65625001 -1.08984,0.65625001 v 0.41015625 c 0.41016,-0.0234375 1.08984,-0.0234375 1.51172,-0.0234375 0.15234,0 0.98437,0 1.47656,0.0234375 v -0.41015625 c -0.9375,0 -0.98437,-0.0820313 -0.98437,-0.63281251 v -5.2851562 z m 8.64843,-2.9414063 c 0.23438,-0.1875 0.23438,-0.3515625 0.23438,-0.421875 0,-0.2578125 -0.2461,-0.46875 -0.49219,-0.46875 -0.19922,0 -0.28125,0.09375 -0.39844,0.2578125 l -1.71093,2.1796875 c 0.0703,0.082031 0.14062,0.1523438 0.23437,0.234375 z m 1.31836,6.0351563 c 0,-1.8515625 -1.40625,-3.328125 -3.07031,-3.328125 -1.72266,0 -3.08203,1.5234375 -3.08203,3.328125 0,1.8398437 1.42969,3.21093746 3.07031,3.21093746 1.6875,0 3.08203,-1.40624996 3.08203,-3.21093746 z m -3.07031,2.89453121 c -0.52734,0 -1.17187,-0.22265625 -1.59375,-0.92578121 -0.38672,-0.6445313 -0.39844,-1.5 -0.39844,-2.0976563 0,-0.5390625 0,-1.4179687 0.44532,-2.0625 0.39843,-0.6210937 1.03125,-0.84375 1.53515,-0.84375 0.55078,0 1.16016,0.2578125 1.54688,0.8085938 0.44531,0.6679687 0.44531,1.5703125 0.44531,2.0976562 0,0.5039063 0,1.3945313 -0.375,2.0625 -0.39844,0.69140626 -1.06641,0.96093751 -1.60547,0.96093751 z m 9.89648,-3.30468751 c 0,-1.3359375 0,-1.7460937 -0.32812,-2.203125 -0.42188,-0.5507812 -1.08984,-0.6445312 -1.58203,-0.6445312 -1.39453,0 -1.9336,1.1953125 -2.05078,1.4765625 h -0.0117 v -1.4765625 l -1.95703,0.1640625 v 0.4101562 c 0.97265,0 1.08984,0.1054688 1.08984,0.8085938 v 3.8789062 c 0,0.65625001 -0.15234,0.65625001 -1.08984,0.65625001 v 0.41015625 c 0.375,-0.0234375 1.14843,-0.0234375 1.54687,-0.0234375 0.42188,0 1.19531,0 1.57031,0.0234375 v -0.41015625 c -0.92578,0 -1.08984,0 -1.08984,-0.65625001 v -2.6601562 c 0,-1.5117188 0.98438,-2.3085938 1.875,-2.3085938 0.89063,0 1.08984,0.7265625 1.08984,1.6054688 v 3.3632812 c 0,0.65625001 -0.15234,0.65625001 -1.08984,0.65625001 v 0.41015625 c 0.375,-0.0234375 1.14844,-0.0234375 1.54688,-0.0234375 0.42187,0 1.19531,0 1.57031,0.0234375 v -0.41015625 c -0.71485,0 -1.07813,0 -1.08985,-0.43359375 z m 0,0"
       style="fill:#eb0a36;fill-opacity:1;fill-rule:nonzero;stroke:none"
       aria-label="Secci´on2.8:Laderivadacomounafunci´on"
       transform="matrix(1.3333333,0,0,1.3333333,66.952,27.013333)"
       clip-path="url(#clipPath25)" />
    <path
       id="path4"
       d="M -31.18166,0 H 108.67752"
       style="fill:none;stroke:#000000;stroke-width:0.3985;stroke-linecap:butt;stroke-linejoin:miter;stroke-miterlimit:10;stroke-dasharray:none;stroke-opacity:1"
       transform="matrix(1.3333333,0,0,-1.3333333,185.552,238.35733)"
       clip-path="url(#clipPath24)" />
    <path
       id="path5"
       d="M -1.19551,1.59401 C -1.09587,0.99626 0,0.09961 0.29886,0 0,-0.09961 -1.09587,-0.99626 -1.19551,-1.59401"
       style="fill:none;stroke:#000000;stroke-width:0.31879;stroke-linecap:round;stroke-linejoin:round;stroke-miterlimit:10;stroke-dasharray:none;stroke-opacity:1"
       transform="matrix(1.3333333,0,0,-1.3333333,330.45536,238.35733)"
       clip-path="url(#clipPath23)" />
    <path
       id="path6"
       d="m 3.6432188,-3.2921875 c 0.070312,-0.28125 0.3164062,-1.2890625 1.078125,-1.2890625 0.058594,0 0.3164062,0 0.5507812,0.140625 -0.3046875,0.058594 -0.5273437,0.328125 -0.5273437,0.5859375 0,0.1757813 0.1171875,0.3867188 0.4101562,0.3867188 0.2460938,0 0.5976563,-0.1992188 0.5976563,-0.6328125 0,-0.5625 -0.6445313,-0.7265625 -1.0195313,-0.7265625 -0.6328125,0 -1.0195312,0.5859375 -1.1484375,0.8320312 -0.2695312,-0.7148437 -0.8554687,-0.8320312 -1.171875,-0.8320312 -1.1367187,0 -1.7578125,1.4179687 -1.7578125,1.6875 0,0.1054687 0.10546875,0.1054687 0.12890625,0.1054687 0.0820313,0 0.1171875,-0.023437 0.140625,-0.1171875 C 1.2994688,-4.3117187 2.0143125,-4.58125 2.3893125,-4.58125 c 0.2109375,0 0.5859375,0.09375 0.5859375,0.7265625 0,0.3398438 -0.1875,1.078125 -0.5859375,2.6015625 -0.1757812,0.6796875 -0.5625,1.13671875 -1.0429687,1.13671875 -0.058594,0 -0.3164063,0 -0.53906255,-0.140625 C 1.0768125,-0.315625 1.3229063,-0.55 1.3229063,-0.8546875 c 0,-0.2929687 -0.2460938,-0.375 -0.4101563,-0.375 -0.328125,0 -0.59765625,0.28125 -0.59765625,0.6328125 0,0.50390625 0.55078125,0.71484375 1.03125005,0.71484375 0.7148437,0 1.1015625,-0.76171875 1.1367187,-0.83203125 0.1289063,0.41015625 0.5273438,0.83203125 1.1835938,0.83203125 1.125,0 1.7460937,-1.40624995 1.7460937,-1.67578125 0,-0.1054687 -0.1054687,-0.1054687 -0.1289062,-0.1054687 -0.1054688,0 -0.1289063,0.035156 -0.140625,0.1171875 -0.3632813,1.1601562 -1.1132813,1.42968745 -1.453125,1.42968745 -0.4335938,0 -0.609375,-0.3515625 -0.609375,-0.7265625 0,-0.23437495 0.070312,-0.48046875 0.1875,-0.96093745 z m 0,0"
       style="fill:#000000;fill-opacity:1;fill-rule:nonzero;stroke:none"
       aria-label="x"
       transform="matrix(1.3333333,0,0,1.3333333,326.908,249.73333)"
       clip-path="url(#clipPath22)" />
    <path
       id="path7"
       d="M 0,-15.59082 V 108.67752"
       style="fill:none;stroke:#000000;stroke-width:0.3985;stroke-linecap:butt;stroke-linejoin:miter;stroke-miterlimit:10;stroke-dasharray:none;stroke-opacity:1"
       transform="matrix(1.3333333,0,0,-1.3333333,185.552,238.35733)"
       clip-path="url(#clipPath21)" />
    <path
       id="path8"
       d="M -1.19551,1.59401 C -1.09587,0.99626 0,0.09961 0.29886,0 0,-0.09961 -1.09587,-0.99626 -1.19551,-1.59401"
       style="fill:none;stroke:#000000;stroke-width:0.31879;stroke-linecap:round;stroke-linejoin:round;stroke-miterlimit:10;stroke-dasharray:none;stroke-opacity:1"
       transform="matrix(0,-1.3333333,-1.3333333,0,185.552,93.453973)"
       clip-path="url(#clipPath20)" />
    <path
       id="path9"
       d="m 5.2967422,-4.1602812 c 0.046875,-0.1523438 0.046875,-0.1757813 0.046875,-0.2460938 0,-0.1992187 -0.1523438,-0.2929687 -0.3164063,-0.2929687 -0.1054687,0 -0.28125,0.058594 -0.375,0.2226562 -0.023437,0.058594 -0.1171875,0.3984375 -0.1523437,0.5976563 -0.082031,0.28125 -0.1523438,0.5742187 -0.2226563,0.8671875 l -0.4921875,1.96875 c -0.046875,0.16406245 -0.515625,0.9257812 -1.2304687,0.9257812 -0.5625,0 -0.6796875,-0.48046875 -0.6796875,-0.890625 0,-0.4921875 0.1875,-1.171875 0.5625,-2.1328125 0.1757812,-0.4453125 0.2109375,-0.5742187 0.2109375,-0.7851562 0,-0.4921875 -0.3515625,-0.9023438 -0.890625,-0.9023438 -1.04296876,0 -1.44140626,1.5820313 -1.44140626,1.6875 0,0.1054688 0.10546875,0.1054688 0.12890625,0.1054688 0.10546875,0 0.1171875,-0.023437 0.17578125,-0.1992188 0.29296875,-1.0195312 0.72656246,-1.3476562 1.10156246,-1.3476562 0.09375,0 0.2695313,0 0.2695313,0.3515625 0,0.2695312 -0.1054688,0.5507812 -0.1757813,0.7617187 -0.4453125,1.1601563 -0.6328125,1.78125 -0.6328125,2.2851563 0,0.9726562 0.6796875,1.3007812 1.3242188,1.3007812 0.421875,0 0.796875,-0.1875 1.1015625,-0.4921875 -0.140625,0.57421875 -0.2695313,1.1015625 -0.703125,1.6875 -0.2929688,0.3632813 -0.703125,0.6796875 -1.2070313,0.6796875 -0.1523437,0 -0.6445312,-0.023437 -0.83203121,-0.4570312 0.17578121,0 0.31640621,0 0.48046871,-0.1289063 0.1054688,-0.09375 0.2109375,-0.234375 0.2109375,-0.4453125 0,-0.33984375 -0.2929687,-0.38671875 -0.3984375,-0.38671875 -0.25781246,0 -0.60937496,0.17578125 -0.60937496,0.71484375 0,0.5390625 0.48046876,0.9492188 1.14843746,0.9492188 1.125,0 2.25,-0.9960938 2.5546875,-2.22656255 z m 0,0"
       style="fill:#000000;fill-opacity:1;fill-rule:nonzero;stroke:none"
       aria-label="y"
       transform="matrix(1.3333333,0,0,1.3333333,172.78533,94.562667)"
       clip-path="url(#clipPath19)" />
    <path
       id="path10"
       d="m 77.95415,15.59082 c 0,0 -1.34819,0.45497 -1.85157,0.62972 -0.50337,0.17472 -1.2936,0.45495 -1.77638,0.62971 -0.48277,0.17473 -1.2404,0.45495 -1.7031,0.6297 -0.46268,0.17475 -1.18868,0.45497 -1.63174,0.62971 -0.44305,0.17474 -1.13776,0.45499 -1.56155,0.62972 -0.42378,0.17474 -1.08786,0.45499 -1.4928,0.62972 -0.40495,0.17474 -1.03918,0.45497 -1.42572,0.62971 -0.38655,0.17474 -0.99171,0.45497 -1.3603,0.62971 -0.36858,0.17475 -0.94527,0.45498 -1.2963,0.62972 -0.35103,0.17473 -0.89981,0.45499 -1.23373,0.62971 -0.33394,0.17475 -0.85582,0.45498 -1.17308,0.62972 -0.31726,0.17474 -0.81261,0.45496 -1.11359,0.6297 -0.30099,0.17476 -0.7706,0.45499 -1.0558,0.62971 -0.28517,0.17475 -0.72988,0.45499 -0.99965,0.62972 -0.26978,0.17474 -0.6899,0.45499 -0.94467,0.62973 -0.25479,0.17473 -0.65138,0.45496 -0.89165,0.62971 -0.24025,0.17473 -0.61388,0.45498 -0.84001,0.6297 -0.22614,0.17476 -0.57739,0.45499 -0.78983,0.62972 -0.21243,0.17474 -0.54208,0.45499 -0.74128,0.62971 -0.19919,0.17475 -0.50806,0.45498 -0.69442,0.62973 -0.18637,0.17473 -0.47483,0.45496 -0.64874,0.6297 -0.17392,0.17475 -0.44278,0.45499 -0.60474,0.62972 -0.16195,0.17474 -0.41223,0.45497 -0.56263,0.62971 -0.15042,0.17473 -0.38222,0.45497 -0.52147,0.62972 -0.13925,0.17473 -0.35362,0.45497 -0.48223,0.62971 -0.12858,0.17474 -0.32629,0.45498 -0.44462,0.6297 -0.11833,0.17474 -0.29976,0.45499 -0.40823,0.62974 -0.10846,0.17472 -0.27443,0.45497 -0.37349,0.62971 -0.09906,0.17473 -0.25037,0.45495 -0.34044,0.62971 -0.09008,0.17473 -0.2273,0.45498 -0.30878,0.6297 -0.0815,0.17476 -0.20521,0.45499 -0.27858,0.62972 -0.07338,0.17474 -0.1846,0.45499 -0.25027,0.62973 -0.06569,0.17473 -0.16476,0.45497 -0.22315,0.6297 -0.05839,0.17474 -0.14613,0.45497 -0.19771,0.62971 -0.05154,0.17475 -0.12877,0.45497 -0.17389,0.62972 -0.04511,0.17473 -0.11219,0.45497 -0.1513,0.62971 -0.03911,0.17473 -0.09703,0.45499 -0.1306,0.62972 -0.03357,0.17474 -0.08291,0.45497 -0.11135,0.62971 -0.02844,0.17475 -0.07,0.45497 -0.09373,0.62972 -0.02371,0.17474 -0.05788,0.45497 -0.0773,0.62971 -0.01944,0.17473 -0.04723,0.45497 -0.06281,0.62972 -0.01559,0.17473 -0.03733,0.45497 -0.04948,0.62971 -0.01214,0.17475 -0.02893,0.45496 -0.03807,0.6297 -0.0091,0.17475 -0.02127,0.45499 -0.02783,0.62972 -0.0066,0.17474 -0.01506,0.45498 -0.0195,0.62971 -0.0045,0.17475 -0.0099,0.45499 -0.01262,0.62972 -0.0027,0.17474 -0.0055,0.45497 -0.0069,0.62973 -0.0014,0.17472 -0.0028,0.45495 -0.0033,0.6297 -5.7e-4,0.17474 -6.3e-4,0.45498 -7.2e-4,0.62972 -1e-4,0.17474 9e-5,0.45498 0,0.6297 -1e-4,0.17475 -2e-4,0.45498 -7.1e-4,0.62974 -5.3e-4,0.17473 -0.0017,0.45496 -0.0031,0.6297 -0.0014,0.17474 -0.0042,0.45497 -0.0069,0.6297 -0.0027,0.17474 -0.008,0.45498 -0.01236,0.62973 -0.0044,0.17473 -0.01254,0.45497 -0.01902,0.62971 -0.0065,0.17473 -0.01878,0.45497 -0.02785,0.62972 -0.0091,0.17474 -0.02557,0.45497 -0.03758,0.6297 -0.012,0.17476 -0.03355,0.45498 -0.049,0.62971 -0.01545,0.17475 -0.04305,0.45499 -0.06235,0.62973 -0.01928,0.17473 -0.05326,0.45496 -0.07682,0.62972 -0.02356,0.17473 -0.06476,0.45497 -0.09302,0.6297 -0.02826,0.17476 -0.07727,0.45498 -0.11063,0.62971 -0.03337,0.17475 -0.09094,0.45497 -0.1299,0.62972 -0.03893,0.17473 -0.10591,0.45498 -0.15083,0.62971 -0.0449,0.17475 -0.12163,0.45497 -0.17294,0.62972 -0.05132,0.17474 -0.13881,0.45497 -0.19698,0.62971 -0.05816,0.17475 -0.15678,0.45497 -0.2222,0.62972 -0.06543,0.17473 -0.17619,0.45498 -0.24931,0.62971 -0.07312,0.17474 -0.19643,0.45497 -0.27763,0.62972 -0.0812,0.17474 -0.21782,0.45497 -0.30759,0.6297 -0.08978,0.17476 -0.24072,0.45498 -0.33949,0.62972 -0.09876,0.17473 -0.26418,0.45498 -0.37232,0.62972 -0.10811,0.17473 -0.28906,0.45499 -0.40703,0.62972 -0.11796,0.17474 -0.31497,0.45496 -0.4432,0.62971 -0.12824,0.17473 -0.34213,0.45495 -0.48104,0.6297 -0.13888,0.17475 -0.37002,0.45499 -0.52003,0.62972 -0.15002,0.17474 -0.39964,0.45498 -0.5612,0.62971 -0.16156,0.17474 -0.4298,0.45497 -0.60331,0.62973 -0.17352,0.17473 -0.46142,0.45496 -0.64732,0.6297 -0.18588,0.17474 -0.49382,0.45497 -0.69252,0.62972 -0.1987,0.17472 -0.52765,0.45498 -0.73962,0.62971 -0.21198,0.17474 -0.56249,0.45499 -0.78815,0.62972 -0.22568,0.17474 -0.59859,0.45497 -0.83836,0.62971 -0.23976,0.17474 -0.63544,0.45497 -0.88973,0.6297 -0.25427,0.17474 -0.6738,0.45499 -0.94302,0.62973 -0.26924,0.17473 -0.71288,0.45497 -0.9975,0.62972 -0.28462,0.17472 -0.75343,0.45495 -1.05388,0.62971 -0.30047,0.17473 -0.79501,0.45497 -1.11171,0.6297 -0.31671,0.17476 -0.83755,0.45499 -1.17091,0.62972 -0.33339,0.17474 -0.8814,0.45498 -1.23184,0.62973 -0.35045,0.17472 -0.92597,0.45495 -1.29393,0.62971 -0.36797,0.17473 -0.9722,0.45496 -1.35816,0.6297 -0.38597,0.17474 -1.01925,0.45499 -1.42357,0.62971 -0.40431,0.17475 -1.06731,0.45498 -1.49041,0.62972 -0.42315,0.17473 -1.11683,0.45498 -1.5592,0.62972 -0.44236,0.17474 -1.1671,0.45496 -1.62913,0.62971 -0.46199,0.17475 -1.21861,0.45497 -1.70071,0.6297 -0.48212,0.17476 -1.27138,0.45499 -1.77402,0.62973 -0.50261,0.17473 -1.84868,0.62972 -1.84868,0.62972"
       style="fill:none;stroke:#eb0a36;stroke-width:0.79701;stroke-linecap:butt;stroke-linejoin:miter;stroke-miterlimit:10;stroke-dasharray:none;stroke-opacity:1"
       transform="matrix(1.3333333,0,0,-1.3333333,185.552,238.35733)"
       clip-path="url(#clipPath18)" />
    <path
       id="path11"
       d="M 46.77248,-1.55917 V 1.55917"
       style="fill:none;stroke:#000000;stroke-width:0.3985;stroke-linecap:butt;stroke-linejoin:miter;stroke-miterlimit:10;stroke-dasharray:none;stroke-opacity:1"
       transform="matrix(1.3333333,0,0,-1.3333333,185.552,238.35733)"
       clip-path="url(#clipPath17)" />
    <path
       id="path12"
       d="M 46.77248,15.59082 V 93.54497"
       style="fill:none;stroke:#0000ff;stroke-width:0.3985;stroke-linecap:butt;stroke-linejoin:miter;stroke-miterlimit:10;stroke-dasharray:none;stroke-opacity:0.5"
       transform="matrix(1.3333333,0,0,-1.3333333,185.552,238.35733)"
       clip-path="url(#clipPath16)" />
    <path
       id="path13"
       d="m 3.7136016,-3.7611641 c -0.1757813,-0.375 -0.46875,-0.6445312 -0.9140625,-0.6445312 -1.171875,0 -2.40234379,1.4648437 -2.40234379,2.9179687 0,0.93750004 0.55078125,1.59375004 1.32421879,1.59375004 0.1992187,0 0.703125,-0.03515625 1.3007812,-0.73828125 0.070312,0.41015625 0.421875,0.73828125 0.9023438,0.73828125 0.3515625,0 0.5742187,-0.22265625 0.7382812,-0.5390625 0.1640625,-0.36328125 0.2929688,-0.97265624 0.2929688,-0.99609374 0,-0.09375 -0.082031,-0.09375 -0.1171875,-0.09375 -0.09375,0 -0.1054688,0.035156 -0.140625,0.1757812 -0.1640625,0.64453129 -0.3515625,1.24218754 -0.75,1.24218754 -0.2695313,0 -0.3046875,-0.2578125 -0.3046875,-0.45703125 0,-0.22265625 0.023437,-0.3046875 0.1289062,-0.73828129 0.1171875,-0.421875 0.1289063,-0.5273437 0.2226563,-0.9023437 l 0.3515625,-1.3945313 c 0.070312,-0.28125 0.070312,-0.2929687 0.070312,-0.3398437 0,-0.1640625 -0.1171875,-0.2695313 -0.28125,-0.2695313 -0.2460938,0 -0.3867188,0.2226563 -0.4218745,0.4453125 z m -0.6445313,2.578125 c -0.046875,0.1757813 -0.046875,0.19921879 -0.1992187,0.36328129 -0.4453125,0.55078125 -0.84375,0.71484375 -1.125,0.71484375 -0.5039063,0 -0.6445313,-0.55078125 -0.6445313,-0.93750004 0,-0.5039062 0.328125,-1.7226562 0.5507813,-2.1796875 0.3046875,-0.5976562 0.7617187,-0.9609375 1.1601562,-0.9609375 0.6445313,0 0.7851563,0.8203125 0.7851563,0.8789063 0,0.058594 -0.023437,0.1171875 -0.035156,0.1640625 z m 0,0"
       style="fill:#0000ff;fill-opacity:0.5;fill-rule:nonzero;stroke:none"
       aria-label="a"
       transform="matrix(1.3333333,0,0,1.3333333,244.404,249.19067)"
       clip-path="url(#clipPath15)" />
    <path
       id="path14"
       d="m 2.2272969,-3.5164766 v -2.578125 c 0,-0.234375 0,-0.3515625 0.2226562,-0.3867187 0.1054688,-0.011719 0.3867188,-0.011719 0.5859375,-0.011719 0.9023438,0 2.015625,0.035156 2.015625,1.4765625 0,0.6914063 -0.234375,1.5 -1.7109375,1.5 z m 2.109375,0.1289063 c 0.9609375,-0.234375 1.7460937,-0.84375 1.7460937,-1.6289063 0,-0.9492187 -1.1367187,-1.7929687 -2.6015625,-1.7929687 H 0.35229688 v 0.3164062 h 0.234375 c 0.77343752,0 0.78515622,0.1054688 0.78515622,0.46875 v 5.25000004 c 0,0.3515625 -0.011719,0.46875 -0.78515622,0.46875 h -0.234375 V -8.515625e-4 C 0.70385938,-0.03600781 1.4187031,-0.03600781 1.8054219,-0.03600781 c 0.3867187,0 1.0898437,0 1.453125,0.0351562475 V -0.30553906 h -0.234375 c -0.7734375,0 -0.796875,-0.1171875 -0.796875,-0.46875 V -3.2938203 h 1.1484375 c 0.1640625,0 0.5742187,0 0.9257812,0.3398437 0.3867188,0.3515625 0.3867188,0.65625 0.3867188,1.3242188 0,0.65624999 0,1.05468749 0.3984375,1.42968749 0.4101562,0.36328125 0.9609375,0.421875 1.2539062,0.421875 0.7851563,0 0.9492188,-0.8203125 0.9492188,-1.1015625 0,-0.0585938 0,-0.16406249 -0.1289063,-0.16406249 -0.1054687,0 -0.1054687,0.0820312 -0.1171875,0.15234374 -0.058594,0.71484375 -0.4101562,0.8906249975 -0.65625,0.8906249975 -0.4921875,0 -0.5742187,-0.5039062475 -0.703125,-1.4296875375 l -0.140625,-0.796875 C 5.3679219,-2.8719453 4.8874531,-3.2000703 4.3366719,-3.3875703 Z m 4.1103515,0.8789062 c 0.058594,-1.4882812 0.9023438,-1.734375 1.2421875,-1.734375 1.0195311,0 1.1250001,1.3476563 1.1250001,1.734375 z m -0.011719,0.2109375 h 2.7890626 c 0.210938,0 0.246094,0 0.246094,-0.2109375 0,-0.984375 -0.539063,-1.9570312 -1.7812504,-1.9570312 -1.1601562,0 -2.0742187,1.03125 -2.0742187,2.2734375 0,1.33593749 1.0429687,2.29687499 2.1914062,2.29687499 1.2187499,0 1.6640629,-1.1015625 1.6640629,-1.28906249 0,-0.1054688 -0.08203,-0.1171875 -0.128906,-0.1171875 -0.09375,0 -0.117188,0.058594 -0.128907,0.140625 -0.351562,1.01953124 -1.2539061,1.01953124 -1.3476561,1.01953124 -0.5039063,0 -0.9023438,-0.29296875 -1.125,-0.66796875 C 8.4353047,-1.2899141 8.4353047,-1.9461641 8.4353044,-2.2977266 Z m 4.4853516,0.1289063 c 0,-1.6289063 0.820313,-2.0507813 1.347657,-2.0507813 0.09375,0 0.714843,0.011719 1.066406,0.375 -0.410156,0.023437 -0.46875,0.328125 -0.46875,0.4570313 0,0.2578125 0.1875,0.4570312 0.457031,0.4570312 0.257813,0 0.457031,-0.1640625 0.457031,-0.46875 0,-0.6796875 -0.75,-1.0664062 -1.523437,-1.0664062 -1.242188,0 -2.15625,1.078125 -2.15625,2.3085937 0,1.27734379 0.984375,2.26171879 2.144531,2.26171879 1.335938,0 1.652344,-1.19531249 1.652344,-1.28906249 0,-0.1054688 -0.105469,-0.1054688 -0.128906,-0.1054688 -0.09375,0 -0.117188,0.046875 -0.128907,0.1054688 -0.292968,0.92578124 -0.9375,1.04296874 -1.3125,1.04296874 -0.527343,0 -1.40625,-0.421875 -1.40625,-2.02734374 z m 4.989258,-1.8164063 h 1.429688 V -4.2899141 H 17.909914 V -6.1297578 H 17.66382 c -0.01172,0.8203125 -0.316406,1.8867187 -1.289062,1.921875 v 0.2226562 h 0.84375 v 2.7539063 c 0,1.21874999 0.925781,1.33593749 1.289062,1.33593749 0.703125,0 0.984375,-0.703125 0.984375,-1.33593749 v -0.5742188 h -0.246093 v 0.5507813 c 0,0.73828124 -0.304688,1.11328124 -0.667969,1.11328124 -0.667969,0 -0.667969,-0.90234374 -0.667969,-1.07812504 z m 5.469727,3.22265629 c 0.03516,0.3984375 0.304687,0.8203125 0.773437,0.8203125 0.210938,0 0.820313,-0.140625 0.820313,-0.94921875 V -1.4422578 h -0.246094 v 0.55078124 c 0,0.5859375 -0.246094,0.64453125 -0.363281,0.64453125 -0.328125,0 -0.363282,-0.45703125 -0.363282,-0.50390625 V -2.7430391 c 0,-0.4101562 0,-0.8085937 -0.363281,-1.171875 -0.386719,-0.3867187 -0.878906,-0.5507812 -1.359375,-0.5507812 -0.820312,0 -1.511719,0.46875 -1.511719,1.125 0,0.3046875 0.199219,0.46875 0.457032,0.46875 0.28125,0 0.46875,-0.1992188 0.46875,-0.4570313 0,-0.1171875 -0.05859,-0.4453125 -0.515625,-0.4570312 0.269531,-0.3515625 0.761718,-0.4570313 1.078125,-0.4570313 0.492187,0 1.054687,0.3867188 1.054687,1.2773438 v 0.3632812 c -0.503906,0.035156 -1.207031,0.058594 -1.828125,0.3632813 -0.75,0.3398437 -0.996094,0.8554687 -0.996094,1.28906249 0,0.80859375 0.960938,1.0546875 1.59375,1.0546875 0.65625,0 1.113282,-0.3984375 1.300782,-0.8671875 z m -0.07031,-1.62890629 v 0.9960938 c 0,0.94921874 -0.714844,1.28906249 -1.160156,1.28906249 -0.492188,0 -0.902344,-0.3515625 -0.902344,-0.85546875 0,-0.53906254 0.421875,-1.37109374 2.0625,-1.42968754 z m 6.773438,-1.59375 h 1.429687 v -0.3046875 h -1.429687 v -1.8398437 h -0.246094 c -0.01172,0.8203125 -0.316406,1.8867187 -1.289063,1.921875 v 0.2226562 h 0.84375 v 2.7539063 c 0,1.21874999 0.925782,1.33593749 1.289063,1.33593749 0.703125,0 0.984375,-0.703125 0.984375,-1.33593749 v -0.5742188 h -0.246094 v 0.5507813 c 0,0.73828124 -0.304687,1.11328124 -0.667969,1.11328124 -0.667968,0 -0.667968,-0.90234374 -0.667968,-1.07812504 z m 5.469726,3.22265629 c 0.03516,0.3984375 0.304688,0.8203125 0.773438,0.8203125 0.210937,0 0.820312,-0.140625 0.820312,-0.94921875 V -1.4422578 h -0.246094 v 0.55078124 c 0,0.5859375 -0.246093,0.64453125 -0.363281,0.64453125 -0.328125,0 -0.363281,-0.45703125 -0.363281,-0.50390625 V -2.7430391 c 0,-0.4101562 0,-0.8085937 -0.363281,-1.171875 -0.386719,-0.3867187 -0.878907,-0.5507812 -1.359375,-0.5507812 -0.820313,0 -1.511719,0.46875 -1.511719,1.125 0,0.3046875 0.199219,0.46875 0.457031,0.46875 0.28125,0 0.46875,-0.1992188 0.46875,-0.4570313 0,-0.1171875 -0.05859,-0.4453125 -0.515625,-0.4570312 0.269531,-0.3515625 0.761719,-0.4570313 1.078125,-0.4570313 0.492188,0 1.054688,0.3867188 1.054688,1.2773438 v 0.3632812 c -0.503907,0.035156 -1.207032,0.058594 -1.828125,0.3632813 -0.75,0.3398437 -0.996094,0.8554687 -0.996094,1.28906249 0,0.80859375 0.960937,1.0546875 1.59375,1.0546875 0.65625,0 1.113281,-0.3984375 1.300781,-0.8671875 z M 35.48218,-2.3914766 v 0.9960938 c 0,0.94921874 -0.714844,1.28906249 -1.160157,1.28906249 -0.492187,0 -0.902343,-0.3515625 -0.902343,-0.85546875 0,-0.53906254 0.421875,-1.37109374 2.0625,-1.42968754 z m 2.835937,-1.03125 v 2.66015629 c 0,0.45703125 -0.117187,0.45703125 -0.785156,0.45703125 v 0.3046874975 c 0.351562,-0.0117187475 0.855469,-0.0351562475 1.125,-0.0351562475 0.257812,0 0.785156,0.0234375 1.113281,0.0351562475 V -0.30553906 c -0.65625,0 -0.773437,0 -0.773437,-0.45703125 V -2.5906953 c 0,-1.03125 0.714843,-1.59375 1.347656,-1.59375 0.621094,0 0.738281,0.5390625 0.738281,1.1015625 v 2.32031249 c 0,0.45703125 -0.117187,0.45703125 -0.773437,0.45703125 v 0.3046874975 c 0.339843,-0.0117187475 0.855468,-0.0351562475 1.125,-0.0351562475 0.257812,0 0.773437,0.0234375 1.113281,0.0351562475 V -0.30553906 c -0.515625,0 -0.773438,0 -0.785156,-0.3046875 V -2.5086641 c 0,-0.8554687 0,-1.171875 -0.304688,-1.5234375 -0.140625,-0.1757812 -0.46875,-0.375 -1.042969,-0.375 -0.726562,0 -1.195312,0.4335938 -1.476562,1.0546875 v -1.0546875 l -1.40625,0.1171875 v 0.3046875 c 0.703125,0 0.785156,0.070312 0.785156,0.5625 z m 6.650391,1.7109375 c -0.867188,0 -0.867188,-0.9960937 -0.867188,-1.2304687 0,-0.2695313 0.01172,-0.5859375 0.152344,-0.8320313 0.08203,-0.1171875 0.316406,-0.3984375 0.714844,-0.3984375 0.867187,0 0.867187,0.9960938 0.867187,1.21875 0,0.2695313 -0.01172,0.5976563 -0.164062,0.84375 -0.08203,0.1171875 -0.304688,0.3984375 -0.703125,0.3984375 z m -1.160156,0.3867188 c 0,-0.035156 0,-0.2695313 0.175781,-0.46875 0.386719,0.28125 0.796875,0.3046875 0.984375,0.3046875 0.925781,0 1.605469,-0.6796875 1.605469,-1.453125 0,-0.3632813 -0.152344,-0.7382813 -0.398438,-0.9609375 0.351563,-0.3398438 0.714844,-0.3867188 0.890625,-0.3867188 0.02344,0 0.07031,0 0.105469,0 -0.117188,0.046875 -0.164063,0.1523438 -0.164063,0.2695313 0,0.1757812 0.128907,0.2929687 0.292969,0.2929687 0.09375,0 0.28125,-0.070312 0.28125,-0.2929687 0,-0.1757813 -0.117187,-0.4921875 -0.503906,-0.4921875 -0.199219,0 -0.632813,0.058594 -1.054688,0.46875 -0.421875,-0.328125 -0.84375,-0.3632813 -1.054687,-0.3632813 -0.925781,0 -1.617188,0.6914063 -1.617188,1.453125 0,0.4453125 0.222657,0.8203125 0.46875,1.03125 -0.128906,0.1523438 -0.304687,0.4804688 -0.304687,0.8203125 0,0.31640629 0.128906,0.69140629 0.433594,0.89062504 -0.597657,0.17578125 -0.914063,0.59765625 -0.914063,0.99609375 0,0.71484371 0.984375,1.26562501 2.203125,1.26562501 1.171875,0 2.203125,-0.5039063 2.203125,-1.28906251 0,-0.33984375 -0.140625,-0.85546875 -0.644531,-1.125 -0.527344,-0.28125 -1.101563,-0.28125 -1.710938,-0.28125 -0.246093,0 -0.679687,0 -0.75,-0.0117188 -0.316406,-0.046875 -0.527343,-0.35156249 -0.527343,-0.66796869 z m 1.441406,3.1523437 c -1.007813,0 -1.699219,-0.515625 -1.699219,-1.04296871 0,-0.45703125 0.375,-0.8203125 0.820313,-0.85546875 h 0.585937 c 0.855469,0 1.96875,0 1.96875,0.85546875 0,0.53906251 -0.703125,1.04296871 -1.675781,1.04296871 z m 3.597656,-4.3359375 c 0.05859,-1.4882812 0.902344,-1.734375 1.242188,-1.734375 1.019531,0 1.125,1.3476563 1.125,1.734375 z m -0.01172,0.2109375 h 2.789063 c 0.210937,0 0.246094,0 0.246094,-0.2109375 0,-0.984375 -0.539063,-1.9570312 -1.78125,-1.9570312 -1.160157,0 -2.074219,1.03125 -2.074219,2.2734375 0,1.33593749 1.042969,2.29687499 2.191406,2.29687499 1.21875,0 1.664063,-1.1015625 1.664063,-1.28906249 0,-0.1054688 -0.08203,-0.1171875 -0.128907,-0.1171875 -0.09375,0 -0.117187,0.058594 -0.128906,0.140625 -0.351562,1.01953124 -1.253906,1.01953124 -1.347656,1.01953124 -0.503906,0 -0.902344,-0.29296875 -1.125,-0.66796875 C 48.835695,-1.2899141 48.835695,-1.9461641 48.835694,-2.2977266 Z m 4.426758,-1.125 v 2.66015629 c 0,0.45703125 -0.117187,0.45703125 -0.785156,0.45703125 v 0.3046874975 c 0.351562,-0.0117187475 0.855469,-0.0351562475 1.125,-0.0351562475 0.257812,0 0.785156,0.0234375 1.113281,0.0351562475 V -0.30553906 c -0.65625,0 -0.773437,0 -0.773437,-0.45703125 V -2.5906953 c 0,-1.03125 0.714843,-1.59375 1.347656,-1.59375 0.621094,0 0.738281,0.5390625 0.738281,1.1015625 v 2.32031249 c 0,0.45703125 -0.117187,0.45703125 -0.773437,0.45703125 v 0.3046874975 c 0.339843,-0.0117187475 0.855468,-0.0351562475 1.125,-0.0351562475 0.257812,0 0.773437,0.0234375 1.113281,0.0351562475 V -0.30553906 c -0.515625,0 -0.773438,0 -0.785156,-0.3046875 V -2.5086641 c 0,-0.8554687 0,-1.171875 -0.304688,-1.5234375 -0.140625,-0.1757812 -0.46875,-0.375 -1.042969,-0.375 -0.726562,0 -1.195312,0.4335938 -1.476562,1.0546875 v -1.0546875 l -1.40625,0.1171875 v 0.3046875 c 0.703125,0 0.785156,0.070312 0.785156,0.5625 z m 5.888672,-0.5625 h 1.429688 V -4.2899141 H 59.151124 V -6.1297578 H 58.90503 c -0.01172,0.8203125 -0.316406,1.8867187 -1.289062,1.921875 v 0.2226562 h 0.84375 v 2.7539063 c 0,1.21874999 0.925781,1.33593749 1.289062,1.33593749 0.703125,0 0.984375,-0.703125 0.984375,-1.33593749 v -0.5742188 h -0.246093 v 0.5507813 c 0,0.73828124 -0.304688,1.11328124 -0.667969,1.11328124 -0.667969,0 -0.667969,-0.90234374 -0.667969,-1.07812504 z m 3.263672,1.4765625 c 0.05859,-1.4882812 0.902344,-1.734375 1.242187,-1.734375 1.019532,0 1.125,1.3476563 1.125,1.734375 z m -0.01172,0.2109375 h 2.789063 c 0.210937,0 0.246093,0 0.246093,-0.2109375 0,-0.984375 -0.539062,-1.9570312 -1.78125,-1.9570312 -1.160156,0 -2.074218,1.03125 -2.074218,2.2734375 0,1.33593749 1.042968,2.29687499 2.191406,2.29687499 1.21875,0 1.664062,-1.1015625 1.664062,-1.28906249 0,-0.1054688 -0.08203,-0.1171875 -0.128906,-0.1171875 -0.09375,0 -0.117187,0.058594 -0.128906,0.140625 -0.351563,1.01953124 -1.253906,1.01953124 -1.347656,1.01953124 -0.503907,0 -0.902344,-0.29296875 -1.125,-0.66796875 C 62.403078,-1.2899141 62.403078,-1.9461641 62.403078,-2.2977266 Z m 10.792969,-1.0195312 c 0.08203,-0.234375 0.257812,-0.65625 0.914062,-0.6679688 v -0.3046875 c -0.234375,0.011719 -0.515625,0.023437 -0.75,0.023437 -0.234375,0 -0.691406,-0.023437 -0.867187,-0.023437 v 0.3046875 c 0.375,0.011719 0.480469,0.234375 0.480469,0.4335938 0,0.082031 -0.02344,0.1289062 -0.05859,0.234375 l -1.019531,2.54296874 -1.113282,-2.77734374 c -0.05859,-0.140625 -0.05859,-0.1523438 -0.05859,-0.1757813 0,-0.2578125 0.386718,-0.2578125 0.5625,-0.2578125 v -0.3046875 c -0.292969,0 -0.855469,0.023437 -1.078125,0.023437 -0.269532,0 -0.667969,-0.011719 -0.972657,-0.023437 v 0.3046875 c 0.632813,0 0.667969,0.058594 0.796875,0.3632813 l 1.441407,3.53906249 c 0.05859,0.140625 0.07031,0.1875 0.199218,0.1875 0.128907,0 0.175782,-0.08203125 0.210938,-0.1875 z m 1.942383,0.8085937 c 0.05859,-1.4882812 0.902343,-1.734375 1.242187,-1.734375 1.019531,0 1.125,1.3476563 1.125,1.734375 z m -0.01172,0.2109375 h 2.789062 c 0.210938,0 0.246094,0 0.246094,-0.2109375 0,-0.984375 -0.539062,-1.9570312 -1.78125,-1.9570312 -1.160156,0 -2.074219,1.03125 -2.074219,2.2734375 0,1.33593749 1.042969,2.29687499 2.191407,2.29687499 1.21875,0 1.664062,-1.1015625 1.664062,-1.28906249 0,-0.1054688 -0.08203,-0.1171875 -0.128906,-0.1171875 -0.09375,0 -0.117188,0.058594 -0.128906,0.140625 -0.351563,1.01953124 -1.253907,1.01953124 -1.347657,1.01953124 -0.503906,0 -0.902343,-0.29296875 -1.125,-0.66796875 C 75.126711,-1.2899141 75.126711,-1.9461641 75.126711,-2.2977266 Z m 4.992187,-1.0078125 v -1.1015625 l -1.382812,0.1171875 v 0.3046875 c 0.691406,0 0.773437,0.070312 0.773437,0.5625 v 2.66015629 c 0,0.45703125 -0.105468,0.45703125 -0.773437,0.45703125 V -8.515625e-4 C 79.122805,-0.01257031 79.591555,-0.03600781 79.872805,-0.03600781 c 0.398437,0 0.867187,0 1.265625,0.0351562475 V -0.30553906 h -0.210938 c -0.738281,0 -0.761719,-0.1171875 -0.761719,-0.46875 V -2.3094453 c 0,-0.984375 0.421875,-1.875 1.183594,-1.875 0.05859,0 0.08203,0 0.105469,0.011719 -0.03516,0.011719 -0.234375,0.1289063 -0.234375,0.3867188 0,0.28125 0.210937,0.4335937 0.433594,0.4335937 0.175781,0 0.421875,-0.1289062 0.421875,-0.4453125 0,-0.3164062 -0.304688,-0.609375 -0.726563,-0.609375 -0.738281,0 -1.089844,0.6679688 -1.230469,1.1015625 z m 3.960938,-0.6796875 h 1.429687 v -0.3046875 h -1.429687 v -1.8398437 h -0.246094 c -0.01172,0.8203125 -0.316406,1.8867187 -1.289062,1.921875 v 0.2226562 h 0.84375 v 2.7539063 c 0,1.21874999 0.925781,1.33593749 1.289062,1.33593749 0.703125,0 0.984375,-0.703125 0.984375,-1.33593749 V -1.8055391 H 85.41577 v 0.5507813 c 0,0.73828124 -0.304687,1.11328124 -0.667968,1.11328124 -0.667969,0 -0.667969,-0.90234374 -0.667969,-1.07812504 z m 3.908203,-0.421875 -1.394531,0.1171875 v 0.3046875 c 0.65625,0 0.738281,0.058594 0.738281,0.5507813 v 2.67187499 c 0,0.45703125 -0.105469,0.45703125 -0.773437,0.45703125 V -8.515625e-4 C 86.874758,-0.01257031 87.41382,-0.03600781 87.659914,-0.03600781 c 0.339844,0 0.691406,0.0234375 1.03125,0.0351562475 V -0.30553906 c -0.65625,0 -0.703125,-0.0585938 -0.703125,-0.4453125 z m 0.04687,-1.734375 c 0,-0.3164062 -0.246094,-0.5273437 -0.527344,-0.5273437 -0.316406,0 -0.527343,0.2695312 -0.527343,0.5273437 0,0.2695313 0.210937,0.5273438 0.527343,0.5273438 0.28125,0 0.527344,-0.1992188 0.527344,-0.5273438 z m 2.124024,3.9726563 c 0,-1.6289063 0.820312,-2.0507813 1.347656,-2.0507813 0.09375,0 0.714844,0.011719 1.066406,0.375 -0.410156,0.023437 -0.46875,0.328125 -0.46875,0.4570313 0,0.2578125 0.1875,0.4570312 0.457031,0.4570312 0.257813,0 0.457032,-0.1640625 0.457032,-0.46875 0,-0.6796875 -0.75,-1.0664062 -1.523438,-1.0664062 -1.242187,0 -2.15625,1.078125 -2.15625,2.3085937 0,1.27734379 0.984375,2.26171879 2.144531,2.26171879 1.335938,0 1.652344,-1.19531249 1.652344,-1.28906249 0,-0.1054688 -0.105469,-0.1054688 -0.128906,-0.1054688 -0.09375,0 -0.117188,0.046875 -0.128906,0.1054688 -0.292969,0.92578124 -0.9375,1.04296874 -1.3125,1.04296874 -0.527344,0 -1.40625,-0.421875 -1.40625,-2.02734374 z m 6.583007,1.40624999 c 0.03516,0.3984375 0.304688,0.8203125 0.773438,0.8203125 0.210937,0 0.820312,-0.140625 0.820312,-0.94921875 V -1.4422578 h -0.246093 v 0.55078124 c 0,0.5859375 -0.246094,0.64453125 -0.363282,0.64453125 -0.328125,0 -0.363281,-0.45703125 -0.363281,-0.50390625 V -2.7430391 c 0,-0.4101562 0,-0.8085937 -0.363281,-1.171875 -0.386719,-0.3867187 -0.878906,-0.5507812 -1.359375,-0.5507812 -0.820313,0 -1.511719,0.46875 -1.511719,1.125 0,0.3046875 0.199219,0.46875 0.457031,0.46875 0.28125,0 0.46875,-0.1992188 0.46875,-0.4570313 0,-0.1171875 -0.05859,-0.4453125 -0.515625,-0.4570312 0.269532,-0.3515625 0.761719,-0.4570313 1.078125,-0.4570313 0.492188,0 1.054688,0.3867188 1.054688,1.2773438 v 0.3632812 c -0.503906,0.035156 -1.207031,0.058594 -1.828125,0.3632813 -0.75,0.3398437 -0.996094,0.8554687 -0.996094,1.28906249 0,0.80859375 0.960938,1.0546875 1.59375,1.0546875 0.65625,0 1.113281,-0.3984375 1.300781,-0.8671875 z m -0.07031,-1.62890629 v 0.9960938 c 0,0.94921874 -0.714844,1.28906249 -1.160156,1.28906249 -0.492188,0 -0.902344,-0.3515625 -0.902344,-0.85546875 0,-0.53906254 0.421875,-1.37109374 2.0625,-1.42968754 z m 3.492183,-4.5234375 -1.429683,0.1054688 v 0.3164062 c 0.703125,0 0.773437,0.070312 0.773437,0.5507813 v 5.17968749 c 0,0.45703125 -0.105468,0.45703125 -0.773437,0.45703125 V -8.515625e-4 C 99.062258,-0.01257031 99.589602,-0.03600781 99.835695,-0.03600781 c 0.257815,0 0.738285,0.0234375 1.113285,0.0351562475 V -0.30553906 c -0.66797,0 -0.78516,0 -0.78516,-0.45703125 z m 0,0"
       style="fill:#000000;fill-opacity:1;fill-rule:nonzero;stroke:none"
       aria-label="Rectatangentevertical"
       transform="matrix(1.3333333,0,0,1.3333333,170.06933,294.27067)"
       clip-path="url(#clipPath14)" />
  </g>
</svg>
