<?xml version="1.0" encoding="UTF-8" standalone="no"?>
<!-- Created with Inkscape (http://www.inkscape.org/) -->

<svg
   version="1.1"
   id="svg1"
   width="219.24219"
   height="231.49329"
   viewBox="0 0 219.24219 231.49329"
   sodipodi:docname="2.8-ejemplo-derivadas.svg"
   inkscape:version="1.4.3 (0d15f75, 2025-12-25)"
   xmlns:inkscape="http://www.inkscape.org/namespaces/inkscape"
   xmlns:sodipodi="http://sodipodi.sourceforge.net/DTD/sodipodi-0.dtd"
   xmlns="http://www.w3.org/2000/svg"
   xmlns:svg="http://www.w3.org/2000/svg">
  <defs
     id="defs1" />
  <sodipodi:namedview
     id="namedview1"
     pagecolor="#ffffff"
     bordercolor="#000000"
     borderopacity="0.25"
     inkscape:showpageshadow="2"
     inkscape:pageopacity="0.0"
     inkscape:pagecheckerboard="0"
     inkscape:deskcolor="#d1d1d1"
     inkscape:zoom="2.130447"
     inkscape:cx="109.60141"
     inkscape:cy="125.09112"
     inkscape:window-width="1920"
     inkscape:window-height="991"
     inkscape:window-x="-9"
     inkscape:window-y="-9"
     inkscape:window-maximized="1"
     inkscape:current-layer="g1">
    <inkscape:page
       x="0"
       y="0"
       inkscape:label="31"
       id="page1"
       width="219.24219"
       height="231.49329"
       margin="0"
       bleed="0" />
  </sodipodi:namedview>
  <g
     id="g1"
     inkscape:groupmode="layer"
     inkscape:label="31"
     transform="translate(-132.14453,-56.296874)">
    <path
       id="path2"
       d="M -42.5202,0 H 98.75554"
       style="fill:none;stroke:#000000;stroke-width:0.3985;stroke-linecap:butt;stroke-linejoin:miter;stroke-miterlimit:10;stroke-dasharray:none;stroke-opacity:1"
       transform="matrix(1.3333333,0,0,-1.3333333,215.58667,212.19867)" />
    <path
       id="path3"
       d="M -1.19551,1.59401 C -1.09587,0.99626 0,0.09961 0.29886,0 0,-0.09961 -1.09587,-0.99626 -1.19551,-1.59401"
       style="fill:none;stroke:#000000;stroke-width:0.31879;stroke-linecap:round;stroke-linejoin:round;stroke-miterlimit:10;stroke-dasharray:none;stroke-opacity:1"
       transform="matrix(1.3333333,0,0,-1.3333333,347.26072,212.19867)" />
    <path
       id="path4"
       d="m 3.6446641,-3.2933047 c 0.070312,-0.28125 0.3164062,-1.2890625 1.078125,-1.2890625 0.058594,0 0.3164062,0 0.5507812,0.140625 -0.3046875,0.058594 -0.5273437,0.328125 -0.5273437,0.5859375 0,0.1757813 0.1171875,0.3867188 0.4101562,0.3867188 0.2460938,0 0.5976563,-0.1992188 0.5976563,-0.6328125 0,-0.5625 -0.6445313,-0.7265625 -1.0195313,-0.7265625 -0.6328125,0 -1.0195312,0.5859375 -1.1484375,0.8320312 -0.2695312,-0.7148437 -0.8554687,-0.8320312 -1.171875,-0.8320312 -1.1367187,0 -1.75781249,1.4179687 -1.75781249,1.6875 0,0.1054687 0.10546875,0.1054687 0.12890625,0.1054687 0.0820313,0 0.1171875,-0.023437 0.140625,-0.1171875 0.37500004,-1.1601562 1.08984374,-1.4296875 1.46484374,-1.4296875 0.2109375,0 0.5859375,0.09375 0.5859375,0.7265625 0,0.3398438 -0.1875,1.078125 -0.5859375,2.6015625 -0.1757812,0.67968751 -0.5625,1.13671876 -1.0429687,1.13671876 -0.058594,0 -0.3164063,0 -0.53906254,-0.140625 0.26953124,-0.0585938 0.51562504,-0.29296875 0.51562504,-0.59765625 0,-0.29296871 -0.2460938,-0.37500001 -0.41015629,-0.37500001 -0.328125,0 -0.59765625,0.28125001 -0.59765625,0.63281251 0,0.50390625 0.55078125,0.71484375 1.03125004,0.71484375 0.7148437,0 1.1015625,-0.76171875 1.1367187,-0.83203125 0.1289063,0.41015625 0.5273438,0.83203125 1.1835938,0.83203125 1.125,0 1.7460937,-1.40624996 1.7460937,-1.67578126 0,-0.1054687 -0.1054687,-0.1054687 -0.1289062,-0.1054687 -0.1054688,0 -0.1289063,0.035156 -0.140625,0.1171875 -0.3632813,1.16015621 -1.1132813,1.42968746 -1.453125,1.42968746 -0.4335938,0 -0.609375,-0.3515625 -0.609375,-0.7265625 0,-0.23437496 0.070312,-0.48046876 0.1875,-0.96093746 z m 0,0"
       style="fill:#000000;fill-opacity:1;fill-rule:nonzero;stroke:none"
       aria-label="x"
       transform="matrix(1.3333333,0,0,1.3333333,343.71467,223.57467)" />
    <path
       id="path5"
       d="M 0,-56.69362 V 112.92896"
       style="fill:none;stroke:#000000;stroke-width:0.3985;stroke-linecap:butt;stroke-linejoin:miter;stroke-miterlimit:10;stroke-dasharray:none;stroke-opacity:1"
       transform="matrix(1.3333333,0,0,-1.3333333,215.58667,212.19867)" />
    <path
       id="path6"
       d="M -1.19551,1.59401 C -1.09587,0.99626 0,0.09961 0.29886,0 0,-0.09961 -1.09587,-0.99626 -1.19551,-1.59401"
       style="fill:none;stroke:#000000;stroke-width:0.31879;stroke-linecap:round;stroke-linejoin:round;stroke-miterlimit:10;stroke-dasharray:none;stroke-opacity:1"
       transform="matrix(0,-1.3333333,-1.3333333,0,215.58667,61.62672)" />
    <path
       id="path7"
       d="m 5.2971094,-4.160375 c 0.046875,-0.1523438 0.046875,-0.1757813 0.046875,-0.2460938 0,-0.1992187 -0.1523438,-0.2929687 -0.3164063,-0.2929687 -0.1054687,0 -0.28125,0.058594 -0.375,0.2226562 -0.023437,0.058594 -0.1171875,0.3984375 -0.1523437,0.5976563 -0.082031,0.28125 -0.1523438,0.5742187 -0.2226563,0.8671875 l -0.4921875,1.96875 c -0.046875,0.1640625 -0.515625,0.92578125 -1.2304687,0.92578125 -0.5625,0 -0.6796875,-0.48046875 -0.6796875,-0.89062505 0,-0.4921875 0.1875,-1.171875 0.5625,-2.1328125 0.1757812,-0.4453125 0.2109375,-0.5742187 0.2109375,-0.7851562 0,-0.4921875 -0.3515625,-0.9023438 -0.890625,-0.9023438 -1.04296877,0 -1.44140627,1.5820313 -1.44140627,1.6875 0,0.1054688 0.10546875,0.1054688 0.12890625,0.1054688 0.10546875,0 0.1171875,-0.023437 0.17578125,-0.1992188 C 0.91429688,-4.254125 1.3478906,-4.58225 1.7228906,-4.58225 c 0.09375,0 0.2695313,0 0.2695313,0.3515625 0,0.2695312 -0.1054688,0.5507812 -0.1757813,0.7617187 -0.4453125,1.1601563 -0.6328125,1.78125 -0.6328125,2.2851563 0,0.97265625 0.6796875,1.30078125 1.3242188,1.30078125 0.421875,0 0.796875,-0.1875 1.1015625,-0.4921875 C 3.4689844,0.199 3.3400781,0.72634375 2.9064844,1.3122812 2.6135156,1.6755625 2.2033594,1.9919687 1.6994531,1.9919687 c -0.1523437,0 -0.6445312,-0.023437 -0.83203122,-0.4570312 0.17578122,0 0.31640622,0 0.48046872,-0.1289063 C 1.4533594,1.3122812 1.5588281,1.1716562 1.5588281,0.96071875 1.5588281,0.620875 1.2658594,0.574 1.1603906,0.574 c -0.25781247,0 -0.60937497,0.17578125 -0.60937497,0.7148437 0,0.5390625 0.48046877,0.9492188 1.14843747,0.9492188 1.125,0 2.25,-0.9960938 2.5546875,-2.2265625 z m 0,0"
       style="fill:#000000;fill-opacity:1;fill-rule:nonzero;stroke:none"
       aria-label="y"
       transform="matrix(1.3333333,0,0,1.3333333,202.82,62.734667)" />
    <path
       id="path8"
       d="m -24.09473,-45.53867 c 0,0 0.37235,2.81362 0.51537,3.85825 0.143,1.04463 0.37236,2.67748 0.51536,3.67073 0.14303,0.99324 0.37238,2.54492 0.51539,3.48798 0.143,0.94305 0.37236,2.4149 0.51536,3.30893 0.14301,0.89401 0.37236,2.28848 0.51535,3.13459 0.14302,0.8461 0.37236,2.16428 0.51538,2.96354 0.14301,0.79927 0.37236,2.04341 0.51537,2.79699 0.14302,0.7536 0.37236,1.92536 0.51538,2.63439 0.143,0.70903 0.37236,1.81021 0.51537,2.47584 0.14301,0.66565 0.37234,1.69823 0.51536,2.32164 0.14301,0.62343 0.37236,1.58928 0.51537,2.17156 0.14302,0.58229 0.37237,1.48286 0.51537,2.02514 0.14301,0.5423 0.37237,1.37989 0.51537,1.88327 0.14301,0.50341 0.37236,1.27919 0.51537,1.74488 0.143,0.46566 0.37234,1.18228 0.51536,1.6114 0.14301,0.42914 0.37236,1.08783 0.51537,1.48144 0.14302,0.39364 0.37236,0.99628 0.51538,1.35558 0.14301,0.3593 0.37236,0.9079 0.51537,1.23404 0.14302,0.32614 0.37234,0.82251 0.51536,1.11659 0.14301,0.29407 0.37236,0.7399 0.51537,1.00302 0.14302,0.26314 0.37237,0.66005 0.51538,0.89341 0.143,0.23336 0.37236,0.58375 0.51537,0.78853 0.143,0.20475 0.37235,0.51011 0.51536,0.6873 0.14302,0.17718 0.37234,0.43895 0.51536,0.58975 0.14301,0.15082 0.37236,0.3716 0.51537,0.49722 0.14302,0.1256 0.37236,0.30664 0.51538,0.4081 0.14301,0.10146 0.37236,0.24461 0.51537,0.32309 0.14302,0.0785 0.37234,0.18599 0.51536,0.24266 0.143,0.05668 0.37236,0.12993 0.51537,0.16588 0.14302,0.03595 0.37237,0.07687 0.51538,0.09321 0.143,0.01636 0.37236,0.02672 0.51536,0.02466 0.14301,-0.00207 0.37236,-0.0202 0.51537,-0.03958 0.14302,-0.01938 0.37234,-0.06461 0.51537,-0.10013 0.143,-0.03553 0.37235,-0.10536 0.51536,-0.15593 0.14302,-0.05057 0.37236,-0.14401 0.51538,-0.20848 0.14301,-0.06448 0.37236,-0.17905 0.51537,-0.25629 0.14302,-0.07722 0.37234,-0.21151 0.51536,-0.3004 0.14301,-0.08888 0.37236,-0.24084 0.51537,-0.34017 0.14302,-0.09937 0.37237,-0.26719 0.51538,-0.37589 0.143,-0.10872 0.37236,-0.2907 0.51536,-0.40765 0.14301,-0.11698 0.37237,-0.31128 0.51537,-0.43537 0.14302,-0.12405 0.37235,-0.3289 0.51537,-0.45891 0.143,-0.13003 0.37236,-0.34335 0.51536,-0.47818 0.14302,-0.13481 0.37236,-0.35501 0.51538,-0.49351 0.14301,-0.13852 0.37236,-0.36369 0.51537,-0.50479 0.14302,-0.14108 0.37236,-0.36958 0.51536,-0.51212 0.14301,-0.14253 0.37236,-0.37234 0.51534,-0.51512 0.143,-0.14281 0.37237,-0.37212 0.51538,-0.51407 0.143,-0.14197 0.37236,-0.36912 0.51537,-0.50911 0.143,-0.13997 0.37236,-0.36297 0.51536,-0.49978 0.14302,-0.13684 0.37235,-0.35384 0.51537,-0.48639 0.143,-0.13259 0.37236,-0.34189 0.51536,-0.46909 0.14302,-0.1272 0.37236,-0.32699 0.51538,-0.44769 0.14301,-0.12067 0.37236,-0.30911 0.51537,-0.42215 0.14302,-0.11304 0.37236,-0.2883 0.51536,-0.39254 0.14301,-0.10424 0.37237,-0.26447 0.51537,-0.35877 0.143,-0.09432 0.37236,-0.23769 0.51537,-0.32096 0.143,-0.08327 0.37236,-0.20814 0.51538,-0.27919 0.143,-0.07106 0.37235,-0.1752 0.51536,-0.23292 0.14302,-0.05774 0.37235,-0.13992 0.51537,-0.18318 0.143,-0.04328 0.37236,-0.10103 0.51536,-0.1287 0.14302,-0.02765 0.37236,-0.05976 0.51538,-0.07071 0.14301,-0.01095 0.37236,-0.01515 0.51537,-0.0082 0.14302,0.00691 0.37236,0.03225 0.51538,0.05816 0.14299,0.02593 0.37235,0.08263 0.51535,0.12868 0.14301,0.04605 0.37236,0.13596 0.51537,0.20329 0.143,0.06732 0.37236,0.19231 0.51538,0.28202 0.143,0.08972 0.37236,0.25138 0.51536,0.36463 0.14302,0.11324 0.37235,0.31363 0.51537,0.45157 0.143,0.13793 0.37236,0.37885 0.51536,0.54262 0.14302,0.16377 0.37236,0.44707 0.51538,0.63777 0.14301,0.19072 0.37236,0.51805 0.51537,0.73682 0.14302,0.21879 0.37236,0.59202 0.51538,0.84001 0.14301,0.24797 0.37235,0.66895 0.51535,0.94725 0.14301,0.27829 0.37236,0.74878 0.51536,1.05859 0.14301,0.30983 0.37237,0.83193 0.51539,1.17437 0.14301,0.34242 0.37236,0.91757 0.51536,1.29371 0.14302,0.37613 0.37235,1.00618 0.51537,1.41721 0.143,0.41103 0.37236,1.09817 0.51536,1.54523 0.14302,0.44708 0.37236,1.1927 0.51539,1.67697 0.143,0.48423 0.37236,1.29066 0.51536,1.8132 0.14302,0.52253 0.37236,1.39096 0.51538,1.9529 0.14301,0.56193 0.37235,1.49467 0.51535,2.09716 0.14301,0.60247 0.37236,1.60091 0.51537,2.24509 0.143,0.64418 0.37236,1.71074 0.51538,2.39778 0.143,0.68703 0.37236,1.82294 0.51536,2.55391 0.14303,0.73096 0.37235,1.93832 0.51537,2.71439 0.14301,0.77607 0.37236,2.05671 0.51536,2.87898 0.14303,0.82228 0.37237,2.17778 0.51539,3.04744 0.143,0.86966 0.37236,2.30232 0.51536,3.22046 0.14302,0.91815 0.37236,2.42915 0.51538,3.39694 0.14301,0.96778 0.37235,2.55958 0.51535,3.57817 0.14301,1.01859 0.37236,2.69264 0.51537,3.76308 0.143,1.07043 0.37236,2.82841 0.51538,3.95189 0.14301,1.12349 0.37236,2.96774 0.51537,4.14544 0.14302,1.1777 0.37234,3.10971 0.51536,4.34269 0.14301,1.23298 0.37236,3.25445 0.51537,4.54381 0.14302,1.28936 0.37236,3.40211 0.51537,4.74905 0.14301,1.34695 0.51537,4.95883 0.51537,4.95883"
       style="fill:none;stroke:#eb0a36;stroke-width:0.79701;stroke-linecap:butt;stroke-linejoin:miter;stroke-miterlimit:10;stroke-dasharray:none;stroke-opacity:1"
       transform="matrix(1.3333333,0,0,-1.3333333,215.58667,212.19867)" />
    <path
       id="path9"
       d="m -21.2601,81.49707 c 0,0 0.31018,-2.77418 0.4293,-3.82472 0.11913,-1.05054 0.31017,-2.71802 0.4293,-3.74687 0.11912,-1.02884 0.31016,-2.66111 0.42929,-3.66834 0.11912,-1.00724 0.31018,-2.6056 0.4293,-3.59115 0.11913,-0.98554 0.31017,-2.54815 0.42929,-3.512 0.11912,-0.96385 0.31017,-2.49254 0.42929,-3.43478 0.11911,-0.94225 0.31018,-2.43564 0.42929,-3.35628 0.11913,-0.92064 0.31017,-2.38005 0.4293,-3.27907 0.11912,-0.89903 0.31016,-2.32332 0.42929,-3.20057 0.11912,-0.87725 0.31018,-2.26641 0.4293,-3.12206 0.11913,-0.85563 0.31017,-2.2108 0.42929,-3.04485 0.11913,-0.83404 0.31017,-2.154 0.42929,-2.96635 0.11913,-0.81233 0.31018,-2.09784 0.42931,-2.88847 0.11911,-0.79067 0.31016,-2.04094 0.42928,-2.81 0.11912,-0.76904 0.31016,-1.98534 0.42928,-2.73277 0.11913,-0.74744 0.31019,-1.92852 0.42931,-2.65427 0.11913,-0.72574 0.31017,-1.87227 0.42929,-2.57642 0.11913,-0.70413 0.31018,-1.8161 0.42931,-2.49855 0.11912,-0.68245 0.31016,-1.7593 0.42929,-2.42004 0.11912,-0.66075 0.31017,-1.70305 0.42929,-2.34219 0.11911,-0.63915 0.31018,-1.64681 0.42929,-2.26435 0.11912,-0.61755 0.31017,-1.59063 0.42929,-2.18647 0.11913,-0.59585 0.31017,-1.53374 0.42929,-2.10798 0.11913,-0.57423 0.31018,-1.47813 0.42931,-2.03077 0.11913,-0.55262 0.31016,-1.4214 0.42929,-1.95226 0.11912,-0.53085 0.31016,-1.3645 0.42929,-1.87376 C -9.97932,6.9025 -9.78827,6.10284 -9.66914,5.61519 -9.55003,5.12756 -9.35898,4.3631 -9.23987,3.89716 -9.12074,3.4312 -8.9297,2.70131 -8.81058,2.25697 -8.69145,1.81264 -8.5004,1.1173 -8.38127,0.69464 -8.26215,0.272 -8.0711,-0.3882 -7.95198,-0.78915 c 0.11912,-0.40095 0.31016,-1.02663 0.42929,-1.40596 0.11913,-0.37935 0.31018,-0.97037 0.42931,-1.32811 0.11912,-0.35775 0.31016,-0.91413 0.42928,-1.25025 0.11912,-0.33613 0.31017,-0.85795 0.42928,-1.17239 0.11913,-0.31444 0.3102,-0.80115 0.42931,-1.09389 0.11912,-0.29275 0.31016,-0.7449 0.42929,-1.01605 0.11912,-0.27113 0.31016,-0.68872 0.42929,-0.93817 0.11913,-0.24944 0.31018,-0.63183 0.42931,-0.85965 0.11912,-0.22785 0.31016,-0.57624 0.42929,-0.78248 0.11912,-0.20623 0.31018,-0.5195 0.4293,-0.70394 0.11911,-0.18445 0.31017,-0.46262 0.42929,-0.62546 0.11911,-0.16284 0.31017,-0.407 0.42928,-0.54825 0.11912,-0.14123 0.31018,-0.35019 0.42931,-0.46974 0.11912,-0.11952 0.31016,-0.29393 0.42929,-0.39188 0.11912,-0.09793 0.31016,-0.23768 0.42929,-0.31401 0.11912,-0.07634 0.31017,-0.18153 0.4293,-0.23617 0.11913,-0.05465 0.31017,-0.12471 0.42929,-0.15765 0.11911,-0.03295 0.31017,-0.06847 0.42929,-0.07981 0.11911,-0.01134 0.31015,-0.0123 0.42926,-0.0019 0.11913,0.01033 0.31017,0.0446 0.4293,0.07655 0.11912,0.03196 0.31016,0.10021 0.42929,0.15377 0.11912,0.05356 0.31018,0.15703 0.4293,0.23227 0.11913,0.07527 0.31017,0.21318 0.42929,0.31013 0.11913,0.09696 0.31017,0.27008 0.42929,0.38863 0.11913,0.11856 0.31018,0.32568 0.42931,0.46585 0.11911,0.14017 0.31017,0.38249 0.42928,0.54435 0.11912,0.16186 0.31016,0.43865 0.42929,0.6222 0.11912,0.18355 0.31018,0.49548 0.4293,0.70073 0.11913,0.20524 0.31017,0.5518 0.42929,0.77855 0.11913,0.22677 0.31017,0.60733 0.42929,0.85579 0.11913,0.24846 0.31018,0.66478 0.42931,0.93493 0.11912,0.27013 0.31017,0.72037 0.42929,1.01213 0.11911,0.29175 0.31018,0.77729 0.42929,1.09066 0.11913,0.31335 0.31017,0.83279 0.42929,1.16784 0.11912,0.33506 0.31017,0.89027 0.42929,1.24701 0.11913,0.35676 0.31018,0.94586 0.42931,1.32422 0.11912,0.37834 0.31016,1.00275 0.42929,1.40271 0.11913,0.39995 0.31016,1.05824 0.42929,1.47991 0.11913,0.42164 0.31018,1.11573 0.42931,1.55908 0.11911,0.44334 0.31016,1.17143 0.42927,1.63629 0.11913,0.46486 0.31018,1.2276 0.42929,1.71414 0.11913,0.48656 0.31018,1.28441 0.42931,1.79265 0.11912,0.50827 0.31016,1.34058 0.42929,1.87051 0.11912,0.52997 0.31017,1.39748 0.42929,1.94902 0.11913,0.55156 0.31018,1.45307 0.42931,2.02623 0.11912,0.57315 0.31016,1.50988 0.42929,2.10472 0.11911,0.59487 0.31016,1.56606 0.42928,2.18261 0.11912,0.61654 0.31019,1.62292 0.4293,2.26107 0.11912,0.63817 0.31016,1.67855 0.42929,2.3383 0.11912,0.65977 0.31016,1.73536 0.42929,2.41682 0.11912,0.68144 0.31018,1.79161 0.42931,2.49466 0.11912,0.70306 0.31016,1.84776 0.42929,2.57251 0.11912,0.72476 0.31016,1.90458 0.42929,2.65103 0.11911,0.74644 0.31018,1.96083 0.4293,2.72889 0.11911,0.76806 0.31017,2.01708 0.42928,2.80674 0.11912,0.78965 0.31018,2.07333 0.42931,2.88459 0.11912,0.81126 0.31016,2.12949 0.42929,2.96245 0.11912,0.83296 0.31016,2.18631 0.42929,3.04097 0.11912,0.85464 0.31018,2.24245 0.4293,3.11881 0.11913,0.87634 0.31017,2.29937 0.42929,3.19733 0.11913,0.89794 0.31017,2.35496 0.42929,3.27451 0.11911,0.91956 0.31018,2.41179 0.4293,3.35303 0.11912,0.94127 0.31016,2.46805 0.42928,3.43089 0.11913,0.96287 0.31017,2.52421 0.4293,3.50877 0.11912,0.98455 0.31018,2.5811 0.4293,3.58724 0.11913,1.00616 0.31017,2.63671 0.4293,3.66446 0.11912,1.02776 0.31016,2.69342 0.42928,3.74297 0.11913,1.04956 0.42931,3.82147 0.42931,3.82147"
       style="fill:none;stroke:#0000ff;stroke-width:0.79701;stroke-linecap:butt;stroke-linejoin:miter;stroke-miterlimit:10;stroke-dasharray:none;stroke-opacity:1"
       transform="matrix(1.3333333,0,0,-1.3333333,215.58667,212.19867)" />
    <path
       id="path10"
       d="m -7.08669,-42.5202 c 0,0 0.17579,1.05473 0.24331,1.45982 0.0675,0.40508 0.17578,1.05472 0.2433,1.45981 0.0675,0.40509 0.17579,1.05473 0.2433,1.45982 0.06752,0.40508 0.17578,1.05472 0.2433,1.45981 0.06751,0.40509 0.1758,1.05474 0.2433,1.45982 0.06752,0.40508 0.1758,1.05472 0.24332,1.45982 0.0675,0.40508 0.17578,1.05473 0.24328,1.45982 0.06751,0.40507 0.1758,1.05471 0.24331,1.45981 0.06752,0.40509 0.17579,1.05473 0.24331,1.4598 0.06751,0.40509 0.17578,1.05474 0.24329,1.45983 0.06752,0.40509 0.1758,1.05473 0.24332,1.45981 0.0675,0.40509 0.17579,1.05473 0.2433,1.45982 0.06752,0.40509 0.17578,1.05473 0.24328,1.45981 0.06752,0.40509 0.1758,1.05473 0.24332,1.45982 0.0675,0.40509 0.1758,1.05473 0.2433,1.45981 0.06752,0.40509 0.17578,1.05473 0.2433,1.45982 0.06751,0.40509 0.1758,1.05472 0.2433,1.45981 0.06752,0.40509 0.1758,1.05474 0.24332,1.45982 0.06751,0.4051 0.17577,1.05472 0.24329,1.45982 0.0675,0.40508 0.17579,1.05473 0.2433,1.45982 0.06752,0.40507 0.17579,1.05471 0.24331,1.45981 0.06751,0.40509 0.17579,1.05473 0.24329,1.45982 0.06752,0.40507 0.1758,1.05472 0.24332,1.45981 0.0675,0.40509 0.17579,1.05473 0.2433,1.45982 0.0675,0.40508 0.17578,1.05472 0.24328,1.45981 0.06753,0.40509 0.1758,1.05473 0.24332,1.45982 0.06751,0.40508 0.1758,1.05472 0.2433,1.45981 0.06752,0.40509 0.17578,1.05473 0.2433,1.45981 0.06751,0.40509 0.1758,1.05473 0.24331,1.45982 0.0675,0.40508 0.17576,1.05471 0.24327,1.45978 0.06752,0.40509 0.17578,1.05473 0.2433,1.45982 0.0675,0.40509 0.17579,1.05474 0.2433,1.45981 0.06752,0.40509 0.1758,1.05474 0.24332,1.45983 0.0675,0.40509 0.17578,1.05473 0.24328,1.45981 0.06752,0.40509 0.1758,1.05473 0.24332,1.45982 0.0675,0.40509 0.17578,1.05472 0.2433,1.45981 0.06751,0.40509 0.17578,1.05473 0.24329,1.45982 0.06752,0.40509 0.17579,1.05472 0.24331,1.45981 0.06751,0.40509 0.1758,1.05473 0.2433,1.45982 0.06752,0.40508 0.17579,1.05472 0.24331,1.45981 0.0675,0.40509 0.17579,1.05473 0.2433,1.45982 0.0675,0.40508 0.17579,1.05472 0.2433,1.45981 0.06752,0.40509 0.17578,1.05474 0.2433,1.45983 0.06751,0.40507 0.1758,1.05471 0.2433,1.4598 0.06752,0.40509 0.1758,1.05474 0.24332,1.45983 0.0675,0.40507 0.17578,1.05472 0.24329,1.45981 0.06751,0.40509 0.17579,1.05473 0.2433,1.45981 0.06752,0.40509 0.17579,1.05473 0.24331,1.45982 0.06751,0.40509 0.17579,1.05473 0.24329,1.45981 0.06752,0.40509 0.1758,1.05473 0.24331,1.45982 0.06751,0.40509 0.1758,1.05473 0.24331,1.45981 0.06752,0.40509 0.17578,1.05473 0.2433,1.45982 0.0675,0.40509 0.17579,1.05474 0.2433,1.45981 0.0675,0.40509 0.1758,1.05475 0.2433,1.45984 0.06752,0.40509 0.1758,1.05472 0.24332,1.45981 0.0675,0.40509 0.17578,1.05473 0.24328,1.45982 0.06752,0.40509 0.1758,1.05472 0.24332,1.45981 0.0675,0.40509 0.1758,1.05473 0.2433,1.45983 0.06751,0.40507 0.17578,1.05471 0.24329,1.4598 0.06752,0.40509 0.17579,1.05474 0.24331,1.45983 0.06751,0.40507 0.1758,1.05471 0.24331,1.4598 0.06752,0.40509 0.17578,1.05474 0.2433,1.45983 0.0675,0.40507 0.17579,1.05472 0.2433,1.45981 0.06752,0.40509 0.17579,1.05473 0.24331,1.45982 0.06751,0.40507 0.17577,1.05471 0.24329,1.45981 0.06751,0.40509 0.1758,1.05473 0.2433,1.4598 0.06752,0.4051 0.1758,1.05474 0.24332,1.45983 0.0675,0.40509 0.17578,1.05473 0.24329,1.45981 0.06752,0.40509 0.17579,1.05473 0.24331,1.45982 0.06751,0.40509 0.1758,1.05474 0.2433,1.45981 0.06751,0.40509 0.17578,1.05473 0.24329,1.45983 0.06752,0.40508 0.1758,1.05473 0.24332,1.4598 0.0675,0.4051 0.17579,1.05474 0.2433,1.45983 0.06752,0.40509 0.17578,1.05471 0.2433,1.4598 0.0675,0.40509 0.1758,1.05474 0.2433,1.45983 0.06752,0.40509 0.1758,1.05472 0.2433,1.45981 0.06752,0.40509 0.17578,1.05473 0.2433,1.45982 0.06751,0.40507 0.1758,1.05471 0.2433,1.45981 0.06752,0.40509 0.1758,1.05473 0.24332,1.45982 0.0675,0.40508 0.17578,1.05472 0.24329,1.45981 0.06751,0.40509 0.17579,1.05473 0.24331,1.45982 0.06751,0.40508 0.17579,1.05472 0.2433,1.45981 0.06751,0.40509 0.17579,1.05474 0.24329,1.45983 0.06752,0.40507 0.1758,1.05471 0.24332,1.45981 0.0675,0.40508 0.17579,1.05473 0.2433,1.4598 0.06752,0.4051 0.17578,1.05474 0.2433,1.45983 0.06751,0.40509 0.17579,1.05473 0.2433,1.4598 0.06751,0.40509 0.1758,1.05474 0.2433,1.45983 0.06752,0.40509 0.17579,1.05473 0.2433,1.45981 0.06751,0.40509 0.1758,1.05473 0.24331,1.45982 0.06752,0.40509 0.17579,1.05473 0.24331,1.45981 0.06751,0.40509 0.17578,1.05473 0.24329,1.45982 0.06752,0.40509 0.1758,1.05472 0.2433,1.45981 0.06752,0.40509 0.1758,1.05473 0.24332,1.45982 0.0675,0.40509 0.17578,1.05472 0.24328,1.45981 0.06752,0.40509 0.1758,1.05474 0.24332,1.45983 0.0675,0.40507 0.1758,1.05471 0.2433,1.45981 0.06752,0.40508 0.17578,1.05473 0.2433,1.45982 0.06751,0.40508 0.2433,1.45981 0.2433,1.45981"
       style="fill:none;stroke:#ec008c;stroke-width:0.79701;stroke-linecap:butt;stroke-linejoin:miter;stroke-miterlimit:10;stroke-dasharray:none;stroke-opacity:1"
       transform="matrix(1.3333333,0,0,-1.3333333,215.58667,212.19867)" />
    <g
       id="g10"
       aria-label="y=f(x)"
       transform="matrix(1.3333333,0,0,1.3333333,265.89867,158.82667)">
      <path
         id="path11"
         d="m 4.8396719,-3.7957812 c 0.046875,-0.140625 0.046875,-0.1523438 0.046875,-0.2226563 0,-0.1875 -0.140625,-0.2695312 -0.2929688,-0.2695312 -0.1054687,0 -0.2578125,0.058594 -0.3515625,0.1992187 -0.023437,0.058594 -0.09375,0.3632813 -0.140625,0.5390625 -0.070312,0.2578125 -0.140625,0.5273438 -0.1992187,0.796875 l -0.4453125,1.79296875 c -0.035156,0.15234375 -0.46875,0.85546875 -1.125,0.85546875 -0.5039063,0 -0.6210938,-0.4453125 -0.6210938,-0.80859375 0,-0.45703125 0.1757813,-1.07812495 0.515625,-1.95703125 0.1523438,-0.4101562 0.1992188,-0.515625 0.1992188,-0.7148437 0,-0.4453125 -0.328125,-0.8203125 -0.8203125,-0.8203125 -0.94921877,0 -1.31250002,1.453125 -1.31250002,1.5351562 0,0.1054688 0.09375,0.1054688 0.1171875,0.1054688 0.09375,0 0.10546875,-0.023437 0.15234375,-0.1875 C 0.83185938,-3.8895312 1.2302969,-4.1825 1.5701406,-4.1825 c 0.082031,0 0.2578125,0 0.2578125,0.3164063 0,0.2460937 -0.1054687,0.515625 -0.1757812,0.703125 -0.3984375,1.0546875 -0.5742188,1.6171875 -0.5742188,2.0859375 0,0.89062495 0.6210938,1.1835937 1.21875,1.1835937 0.3867188,0 0.7265625,-0.1640625 0.9960938,-0.4453125 C 3.1638906,0.176875 3.0467031,0.6690625 2.6482656,1.1964063 2.3904531,1.53625 2.0154531,1.8292188 1.5584219,1.8292188 c -0.140625,0 -0.59765627,-0.035156 -0.76171877,-0.421875 0.1640625,0 0.29296877,0 0.43359377,-0.1171875 C 1.3240469,1.1964063 1.4295156,1.0675 1.4295156,0.88 c 0,-0.31640625 -0.2695312,-0.3515625 -0.375,-0.3515625 -0.22265622,0 -0.55078122,0.1640625 -0.55078122,0.6445313 0,0.5039062 0.43359375,0.8671875 1.05468752,0.8671875 1.0195312,0 2.0507812,-0.9023438 2.3320312,-2.0273438 z m 0,0"
         style="fill:#eb0a36;fill-opacity:1;fill-rule:nonzero;stroke:none" />
      <path
         id="path12"
         d="m 14.853344,-3.2567187 c 0.152344,0 0.339844,0 0.339844,-0.1992188 0,-0.1992187 -0.1875,-0.1992187 -0.328125,-0.1992187 H 8.9002188 c -0.140625,0 -0.328125,0 -0.328125,0.1992187 0,0.1992188 0.1875,0.1992188 0.3398437,0.1992188 z m 0.01172,1.9335937 c 0.140625,0 0.328125,0 0.328125,-0.1992187 0,-0.1992188 -0.1875,-0.1992188 -0.339844,-0.1992188 H 8.9119375 c -0.1523437,0 -0.3398437,0 -0.3398437,0.1992188 0,0.1992187 0.1875,0.1992187 0.328125,0.1992187 z m 0,0"
         style="fill:#eb0a36;fill-opacity:1;fill-rule:nonzero;stroke:none" />
      <path
         id="path13"
         d="m 22.183422,-3.9832812 h 0.855469 c 0.199218,0 0.304687,0 0.304687,-0.1992188 0,-0.1054687 -0.105469,-0.1054687 -0.269531,-0.1054687 h -0.832031 l 0.210937,-1.1367188 c 0.03516,-0.2109375 0.175781,-0.9140625 0.234375,-1.0429687 0.09375,-0.1875 0.257813,-0.3398438 0.46875,-0.3398438 0.04687,0 0.304688,0 0.492188,0.1875 -0.433594,0.035156 -0.539063,0.3867188 -0.539063,0.5390625 0,0.2226563 0.175781,0.3398438 0.363281,0.3398438 0.269532,0 0.550782,-0.2109375 0.550782,-0.5976563 0,-0.4570312 -0.457032,-0.6796875 -0.867188,-0.6796875 -0.339844,0 -0.960937,0.1757813 -1.265625,1.1601563 -0.05859,0.2109375 -0.08203,0.3164062 -0.328125,1.5703125 h -0.679687 c -0.199219,0 -0.304688,0 -0.304688,0.1875 0,0.1171875 0.09375,0.1171875 0.28125,0.1171875 h 0.65625 l -0.75,3.93749995 c -0.175781,0.9609375 -0.339844,1.87500005 -0.867187,1.87500005 -0.03516,0 -0.28125,0 -0.46875,-0.1875 0.457031,-0.023437 0.539062,-0.3867188 0.539062,-0.5390625 0,-0.2226563 -0.175781,-0.3398438 -0.363281,-0.3398438 -0.257813,0 -0.550781,0.2109375 -0.550781,0.5976563 0,0.4453125 0.433593,0.6796875 0.84375,0.6796875 0.550781,0 0.949218,-0.5859375 1.125,-0.9609375 0.328125,-0.63281255 0.550781,-1.8398438 0.5625,-1.9101563 z m 0,0"
         style="fill:#eb0a36;fill-opacity:1;fill-rule:nonzero;stroke:none" />
      <path
         id="path14"
         d="m 27.770336,2.3917188 c 0,-0.035156 0,-0.046875 -0.164063,-0.2226563 C 26.364086,0.91515625 26.035961,-0.95984375 26.035961,-2.495 c 0,-1.7226562 0.386719,-3.4570312 1.605469,-4.7109375 0.128906,-0.1171875 0.128906,-0.1289062 0.128906,-0.1640625 0,-0.070312 -0.03516,-0.1054687 -0.09375,-0.1054687 -0.105469,0 -0.996094,0.6796875 -1.582031,1.9453125 -0.515625,1.1015625 -0.632813,2.203125 -0.632813,3.0351562 0,0.7851563 0.117188,1.9921875 0.65625,3.1171875 0.597656,1.21875 1.453125,1.875 1.558594,1.875 0.05859,0 0.09375,-0.035156 0.09375,-0.1054687 z m 0,0"
         style="fill:#eb0a36;fill-opacity:1;fill-rule:nonzero;stroke:none" />
      <path
         id="path15"
         d="m 31.678539,-3.010625 c 0.05859,-0.2578125 0.292969,-1.171875 0.984375,-1.171875 0.04687,0 0.292969,0 0.503906,0.1289063 -0.28125,0.046875 -0.480468,0.3046875 -0.480468,0.5390625 0,0.1640625 0.105468,0.3515625 0.375,0.3515625 0.222656,0 0.539062,-0.1875 0.539062,-0.5859375 0,-0.515625 -0.585937,-0.65625 -0.925781,-0.65625 -0.574219,0 -0.925781,0.5273437 -1.042969,0.7617187 -0.257812,-0.65625 -0.785156,-0.7617187 -1.078125,-0.7617187 -1.042969,0 -1.605469,1.2890625 -1.605469,1.5351562 0,0.1054688 0.105469,0.1054688 0.117188,0.1054688 0.08203,0 0.117187,-0.023437 0.128906,-0.1171875 0.339844,-1.0546875 0.996094,-1.3007813 1.335938,-1.3007813 0.1875,0 0.539062,0.09375 0.539062,0.6679688 0,0.3046875 -0.164062,0.9726562 -0.539062,2.3671875 -0.152344,0.6210937 -0.503907,1.0429687 -0.949219,1.0429687 -0.05859,0 -0.28125,0 -0.492188,-0.12890625 0.246094,-0.0585938 0.46875,-0.26953125 0.46875,-0.5390625 0,-0.26953125 -0.222656,-0.35156245 -0.375,-0.35156245 -0.292968,0 -0.539062,0.25781245 -0.539062,0.5742187 0,0.45703125 0.492187,0.65625 0.9375,0.65625 0.65625,0 1.007812,-0.69140625 1.042969,-0.75 0.117187,0.36328125 0.480468,0.75 1.078125,0.75 1.019531,0 1.59375,-1.2773437 1.59375,-1.5351562 0,-0.09375 -0.09375,-0.09375 -0.128907,-0.09375 -0.08203,0 -0.105468,0.035156 -0.128906,0.1054687 -0.328125,1.06640625 -0.996094,1.3125 -1.324219,1.3125 -0.386718,0 -0.539062,-0.328125 -0.539062,-0.65625 0,-0.22265625 0.05859,-0.4453125 0.164062,-0.8789062 z m 0,0"
         style="fill:#eb0a36;fill-opacity:1;fill-rule:nonzero;stroke:none" />
      <path
         id="path16"
         d="m 36.925609,-2.495 c 0,-0.7734375 -0.117187,-1.9804687 -0.65625,-3.1054687 -0.597656,-1.21875 -1.464843,-1.875 -1.558593,-1.875 -0.05859,0 -0.105469,0.046875 -0.105469,0.1054687 0,0.035156 0,0.046875 0.199219,0.234375 0.972656,0.984375 1.535156,2.5664063 1.535156,4.640625 0,1.7109375 -0.363281,3.45703125 -1.59375,4.7226563 -0.140625,0.1171875 -0.140625,0.1289062 -0.140625,0.1640625 0,0.058594 0.04687,0.1054687 0.105469,0.1054687 0.09375,0 0.996093,-0.6796875 1.582031,-1.9453125 0.503906,-1.1015625 0.632812,-2.203125 0.632812,-3.046875 z m 0,0"
         style="fill:#eb0a36;fill-opacity:1;fill-rule:nonzero;stroke:none" />
    </g>
    <g
       id="g16"
       aria-label="y=f&#10;′&#10;(x)"
       transform="matrix(1.3333333,0,0,1.3333333,131.752,196.63333)">
      <path
         id="path17"
         d="m 4.8412734,-3.7972656 c 0.046875,-0.140625 0.046875,-0.1523438 0.046875,-0.2226563 0,-0.1875 -0.140625,-0.2695312 -0.2929687,-0.2695312 -0.1054688,0 -0.2578125,0.058594 -0.3515625,0.1992187 -0.023437,0.058594 -0.09375,0.3632813 -0.140625,0.5390625 -0.070312,0.2578125 -0.140625,0.5273438 -0.1992188,0.796875 l -0.4453125,1.79296878 c -0.035156,0.15234375 -0.46875,0.85546875 -1.125,0.85546875 -0.5039062,0 -0.6210937,-0.4453125 -0.6210937,-0.80859375 0,-0.45703128 0.1757812,-1.07812498 0.515625,-1.95703128 0.1523437,-0.4101562 0.1992187,-0.515625 0.1992187,-0.7148437 0,-0.4453125 -0.328125,-0.8203125 -0.8203125,-0.8203125 -0.94921871,0 -1.31249996,1.453125 -1.31249996,1.5351562 0,0.1054688 0.09375,0.1054688 0.1171875,0.1054688 0.09375,0 0.10546875,-0.023437 0.15234375,-0.1875 0.26953125,-0.9375 0.66796871,-1.2304688 1.00781251,-1.2304688 0.082031,0 0.2578125,0 0.2578125,0.3164063 0,0.2460937 -0.1054688,0.515625 -0.1757813,0.703125 -0.3984375,1.0546875 -0.5742187,1.6171875 -0.5742187,2.0859375 0,0.89062498 0.6210937,1.18359373 1.21875,1.18359373 0.3867187,0 0.7265625,-0.1640625 0.9960937,-0.4453125 -0.1289062,0.515625 -0.2460937,1.0078125 -0.6445312,1.53515627 -0.2578125,0.3398437 -0.6328125,0.6328125 -1.0898438,0.6328125 -0.140625,0 -0.59765621,-0.035156 -0.76171871,-0.421875 0.1640625,0 0.29296871,0 0.43359371,-0.1171875 0.09375,-0.09375 0.1992188,-0.2226563 0.1992188,-0.41015627 0,-0.31640625 -0.2695313,-0.3515625 -0.375,-0.3515625 -0.22265626,0 -0.55078126,0.1640625 -0.55078126,0.64453127 0,0.5039062 0.43359375,0.8671875 1.05468746,0.8671875 1.0195313,0 2.0507813,-0.9023438 2.3320313,-2.02734377 z m 0,0"
         style="fill:#0000ff;fill-opacity:1;fill-rule:nonzero;stroke:none" />
      <path
         id="path18"
         d="m 14.854945,-3.2582031 c 0.152344,0 0.339844,0 0.339844,-0.1992188 0,-0.1992187 -0.1875,-0.1992187 -0.328125,-0.1992187 H 8.9018203 c -0.140625,0 -0.328125,0 -0.328125,0.1992187 0,0.1992188 0.1875,0.1992188 0.3398438,0.1992188 z m 0.01172,1.9335937 c 0.140625,0 0.328125,0 0.328125,-0.1992187 0,-0.1992188 -0.1875,-0.1992188 -0.339844,-0.1992188 H 8.9135391 c -0.1523438,0 -0.3398438,0 -0.3398438,0.1992188 0,0.1992187 0.1875,0.1992187 0.328125,0.1992187 z m 0,0"
         style="fill:#0000ff;fill-opacity:1;fill-rule:nonzero;stroke:none" />
      <path
         id="path19"
         d="m 22.182094,-3.9847656 h 0.855469 c 0.199218,0 0.304687,0 0.304687,-0.1992188 0,-0.1054687 -0.105469,-0.1054687 -0.269531,-0.1054687 h -0.832031 l 0.210937,-1.1367188 c 0.03516,-0.2109375 0.175781,-0.9140625 0.234375,-1.0429687 0.09375,-0.1875 0.257813,-0.3398438 0.46875,-0.3398438 0.04687,0 0.304688,0 0.492188,0.1875 -0.433594,0.035156 -0.539063,0.3867188 -0.539063,0.5390625 0,0.2226563 0.175781,0.3398438 0.363281,0.3398438 0.269532,0 0.550782,-0.2109375 0.550782,-0.5976563 0,-0.4570312 -0.457032,-0.6796875 -0.867188,-0.6796875 -0.339844,0 -0.960937,0.1757813 -1.265625,1.1601563 -0.05859,0.2109375 -0.08203,0.3164062 -0.328125,1.5703125 h -0.679687 c -0.199219,0 -0.304688,0 -0.304688,0.1875 0,0.1171875 0.09375,0.1171875 0.28125,0.1171875 h 0.65625 l -0.75,3.93749998 c -0.175781,0.9609375 -0.339844,1.87500002 -0.867187,1.87500002 -0.03516,0 -0.28125,0 -0.46875,-0.1875 0.457031,-0.023437 0.539062,-0.3867188 0.539062,-0.5390625 0,-0.22265627 -0.175781,-0.33984377 -0.363281,-0.33984377 -0.257813,0 -0.550781,0.2109375 -0.550781,0.59765627 0,0.4453125 0.433593,0.6796875 0.84375,0.6796875 0.550781,0 0.949218,-0.5859375 1.125,-0.9609375 0.328125,-0.63281252 0.550781,-1.83984377 0.5625,-1.91015627 z m 0,0"
         style="fill:#0000ff;fill-opacity:1;fill-rule:nonzero;stroke:none" />
      <path
         id="path20"
         d="m 26.503383,-6.9085937 c 0.04687,-0.1171875 0.05859,-0.1757813 0.05859,-0.2226563 0,-0.2109375 -0.199219,-0.3867187 -0.410157,-0.3867187 -0.269531,0 -0.351562,0.2226562 -0.386718,0.328125 l -0.914063,3.0234375 c -0.01172,0.011719 -0.03516,0.1054687 -0.03516,0.1171875 0,0.082031 0.210937,0.1523437 0.269531,0.1523437 0.04687,0 0.05859,-0.023437 0.105469,-0.1289062 z m 0,0"
         style="fill:#0000ff;fill-opacity:1;fill-rule:nonzero;stroke:none" />
      <path
         id="path21"
         d="m 30.56393,2.3902344 c 0,-0.035156 0,-0.046875 -0.164063,-0.2226563 -1.242187,-1.25390622 -1.570312,-3.12890622 -1.570312,-4.6640625 0,-1.7226562 0.386718,-3.4570312 1.605468,-4.7109375 0.128907,-0.1171875 0.128907,-0.1289062 0.128907,-0.1640625 0,-0.070312 -0.03516,-0.1054687 -0.09375,-0.1054687 -0.105469,0 -0.996094,0.6796875 -1.582032,1.9453125 -0.515625,1.1015625 -0.632812,2.203125 -0.632812,3.0351562 0,0.7851563 0.117187,1.99218753 0.65625,3.11718753 0.597656,1.21874997 1.453125,1.87499997 1.558594,1.87499997 0.05859,0 0.09375,-0.035156 0.09375,-0.1054687 z m 0,0"
         style="fill:#0000ff;fill-opacity:1;fill-rule:nonzero;stroke:none" />
      <path
         id="path22"
         d="m 34.472133,-3.0121094 c 0.05859,-0.2578125 0.292969,-1.171875 0.984375,-1.171875 0.04687,0 0.292969,0 0.503906,0.1289063 -0.28125,0.046875 -0.480469,0.3046875 -0.480469,0.5390625 0,0.1640625 0.105469,0.3515625 0.375,0.3515625 0.222657,0 0.539063,-0.1875 0.539063,-0.5859375 0,-0.515625 -0.585938,-0.65625 -0.925781,-0.65625 -0.574219,0 -0.925782,0.5273437 -1.042969,0.7617187 -0.257813,-0.65625 -0.785156,-0.7617187 -1.078125,-0.7617187 -1.042969,0 -1.605469,1.2890625 -1.605469,1.5351562 0,0.1054688 0.105469,0.1054688 0.117188,0.1054688 0.08203,0 0.117187,-0.023437 0.128906,-0.1171875 0.339844,-1.0546875 0.996094,-1.3007813 1.335937,-1.3007813 0.1875,0 0.539063,0.09375 0.539063,0.6679688 0,0.3046875 -0.164063,0.9726562 -0.539063,2.3671875 -0.152343,0.62109373 -0.503906,1.04296873 -0.949218,1.04296873 -0.05859,0 -0.28125,0 -0.492188,-0.12890625 0.246094,-0.0585938 0.46875,-0.26953125 0.46875,-0.5390625 0,-0.26953128 -0.222656,-0.35156248 -0.375,-0.35156248 -0.292969,0 -0.539062,0.25781248 -0.539062,0.57421873 0,0.45703125 0.492187,0.65625 0.9375,0.65625 0.65625,0 1.007812,-0.69140625 1.042968,-0.75 0.117188,0.36328125 0.480469,0.75 1.078125,0.75 1.019532,0 1.59375,-1.27734373 1.59375,-1.53515623 0,-0.09375 -0.09375,-0.09375 -0.128906,-0.09375 -0.08203,0 -0.105469,0.035156 -0.128906,0.1054687 -0.328125,1.06640628 -0.996094,1.31250003 -1.324219,1.31250003 -0.386719,0 -0.539062,-0.328125 -0.539062,-0.65625 0,-0.22265625 0.05859,-0.44531253 0.164062,-0.87890623 z m 0,0"
         style="fill:#0000ff;fill-opacity:1;fill-rule:nonzero;stroke:none" />
      <path
         id="path23"
         d="m 39.722133,-2.4964844 c 0,-0.7734375 -0.117188,-1.9804687 -0.65625,-3.1054687 -0.597656,-1.21875 -1.464844,-1.875 -1.558594,-1.875 -0.05859,0 -0.105469,0.046875 -0.105469,0.1054687 0,0.035156 0,0.046875 0.199219,0.234375 0.972656,0.984375 1.535156,2.5664063 1.535156,4.640625 0,1.71093753 -0.363281,3.45703128 -1.59375,4.7226563 -0.140625,0.1171875 -0.140625,0.1289062 -0.140625,0.1640625 0,0.058594 0.04687,0.1054687 0.105469,0.1054687 0.09375,0 0.996094,-0.6796875 1.582031,-1.94531247 0.503907,-1.1015625 0.632813,-2.20312503 0.632813,-3.04687503 z m 0,0"
         style="fill:#0000ff;fill-opacity:1;fill-rule:nonzero;stroke:none" />
    </g>
    <g
       id="g23"
       aria-label="y=f&#10;′′&#10;(x)"
       transform="matrix(1.3333333,0,0,1.3333333,249.276,92.697333)">
      <path
         id="path24"
         d="m 4.8408516,-3.7954609 c 0.046875,-0.140625 0.046875,-0.1523438 0.046875,-0.2226563 0,-0.1875 -0.140625,-0.2695312 -0.2929688,-0.2695312 -0.1054687,0 -0.2578125,0.058594 -0.3515625,0.1992187 -0.023437,0.058594 -0.09375,0.3632813 -0.140625,0.5390625 -0.070312,0.2578125 -0.140625,0.5273438 -0.1992187,0.796875 l -0.4453125,1.79296876 c -0.035156,0.15234375 -0.46875,0.85546875 -1.125,0.85546875 -0.5039063,0 -0.6210938,-0.4453125 -0.6210938,-0.80859375 0,-0.45703126 0.1757813,-1.07812496 0.515625,-1.95703126 0.1523438,-0.4101562 0.1992188,-0.515625 0.1992188,-0.7148437 0,-0.4453125 -0.328125,-0.8203125 -0.8203125,-0.8203125 -0.94921879,0 -1.31250004,1.453125 -1.31250004,1.5351562 0,0.1054688 0.09375,0.1054688 0.1171875,0.1054688 0.09375,0 0.10546875,-0.023437 0.15234375,-0.1875 0.26953125,-0.9375 0.66796879,-1.2304688 1.00781249,-1.2304688 0.082031,0 0.2578125,0 0.2578125,0.3164063 0,0.2460937 -0.1054687,0.515625 -0.1757812,0.703125 -0.3984375,1.0546875 -0.5742188,1.6171875 -0.5742188,2.0859375 0,0.89062496 0.6210938,1.18359371 1.21875,1.18359371 0.3867188,0 0.7265625,-0.1640625 0.9960938,-0.4453125 -0.1289063,0.515625 -0.2460938,1.0078125 -0.6445313,1.53515629 -0.2578125,0.3398437 -0.6328125,0.6328125 -1.0898437,0.6328125 -0.140625,0 -0.59765629,-0.035156 -0.76171879,-0.421875 0.1640625,0 0.29296879,0 0.43359379,-0.1171875 0.09375,-0.09375 0.1992187,-0.2226563 0.1992187,-0.41015629 0,-0.31640625 -0.2695312,-0.3515625 -0.375,-0.3515625 -0.22265624,0 -0.55078124,0.1640625 -0.55078124,0.64453129 0,0.5039062 0.43359375,0.8671875 1.05468754,0.8671875 1.0195312,0 2.0507812,-0.9023438 2.3320312,-2.02734379 z m 0,0"
         style="fill:#ec008c;fill-opacity:1;fill-rule:nonzero;stroke:none" />
      <path
         id="path25"
         d="m 14.851594,-3.2563984 c 0.152344,0 0.339844,0 0.339844,-0.1992188 0,-0.1992187 -0.1875,-0.1992187 -0.328125,-0.1992187 H 8.8984688 c -0.140625,0 -0.328125,0 -0.328125,0.1992187 0,0.1992188 0.1875,0.1992188 0.3398437,0.1992188 z m 0.01172,1.9335937 c 0.140625,0 0.328125,0 0.328125,-0.1992187 0,-0.1992188 -0.1875,-0.1992188 -0.339844,-0.1992188 H 8.9101875 c -0.1523437,0 -0.3398437,0 -0.3398437,0.1992188 0,0.1992187 0.1875,0.1992187 0.328125,0.1992187 z m 0,0"
         style="fill:#ec008c;fill-opacity:1;fill-rule:nonzero;stroke:none" />
      <path
         id="path26"
         d="m 22.181672,-3.9829609 h 0.855469 c 0.199218,0 0.304687,0 0.304687,-0.1992188 0,-0.1054687 -0.105469,-0.1054687 -0.269531,-0.1054687 h -0.832031 l 0.210937,-1.1367188 c 0.03516,-0.2109375 0.175781,-0.9140625 0.234375,-1.0429687 0.09375,-0.1875 0.257813,-0.3398438 0.46875,-0.3398438 0.04687,0 0.304688,0 0.492188,0.1875 -0.433594,0.035156 -0.539063,0.3867188 -0.539063,0.5390625 0,0.2226563 0.175781,0.3398438 0.363281,0.3398438 0.269532,0 0.550782,-0.2109375 0.550782,-0.5976563 0,-0.4570312 -0.457032,-0.6796875 -0.867188,-0.6796875 -0.339844,0 -0.960937,0.1757813 -1.265625,1.1601563 -0.05859,0.2109375 -0.08203,0.3164062 -0.328125,1.5703125 h -0.679687 c -0.199219,0 -0.304688,0 -0.304688,0.1875 0,0.1171875 0.09375,0.1171875 0.28125,0.1171875 h 0.65625 l -0.75,3.93749996 c -0.175781,0.9609375 -0.339844,1.87500004 -0.867187,1.87500004 -0.03516,0 -0.28125,0 -0.46875,-0.1875 0.457031,-0.023437 0.539062,-0.3867188 0.539062,-0.5390625 0,-0.22265629 -0.175781,-0.33984379 -0.363281,-0.33984379 -0.257813,0 -0.550781,0.2109375 -0.550781,0.59765629 0,0.4453125 0.433593,0.6796875 0.84375,0.6796875 0.550781,0 0.949218,-0.5859375 1.125,-0.9609375 0.328125,-0.63281254 0.550781,-1.83984379 0.5625,-1.91015629 z m 0,0"
         style="fill:#ec008c;fill-opacity:1;fill-rule:nonzero;stroke:none" />
      <path
         id="path27"
         d="m 26.502961,-6.9097188 c 0.04687,-0.1171875 0.05859,-0.1757812 0.05859,-0.2226562 0,-0.2109375 -0.199219,-0.3867188 -0.410157,-0.3867188 -0.269531,0 -0.351562,0.2226563 -0.386718,0.328125 l -0.914063,3.0234375 c -0.01172,0.011719 -0.03516,0.1054688 -0.03516,0.1171875 0,0.082031 0.210937,0.1523438 0.269531,0.1523438 0.04687,0 0.05859,-0.023437 0.105469,-0.1289063 z m 2.296875,0 c 0.04687,-0.1171875 0.05859,-0.1757812 0.05859,-0.2226562 0,-0.2109375 -0.199219,-0.3867188 -0.410157,-0.3867188 -0.269531,0 -0.351562,0.2226563 -0.386718,0.328125 l -0.914063,3.0234375 c -0.01172,0.011719 -0.03516,0.1054688 -0.03516,0.1171875 0,0.082031 0.210937,0.1523438 0.269531,0.1523438 0.04687,0 0.05859,-0.023437 0.105469,-0.1289063 z m 0,0"
         style="fill:#ec008c;fill-opacity:1;fill-rule:nonzero;stroke:none" />
      <path
         id="path28"
         d="m 32.860383,2.3920391 c 0,-0.035156 0,-0.046875 -0.164063,-0.2226563 -1.242187,-1.25390624 -1.570312,-3.12890624 -1.570312,-4.6640625 0,-1.7226562 0.386719,-3.4570312 1.605469,-4.7109375 0.128906,-0.1171875 0.128906,-0.1289062 0.128906,-0.1640625 0,-0.070312 -0.03516,-0.1054687 -0.09375,-0.1054687 -0.105469,0 -0.996094,0.6796875 -1.582031,1.9453125 -0.515625,1.1015625 -0.632813,2.203125 -0.632813,3.0351562 0,0.7851563 0.117188,1.99218751 0.65625,3.11718751 0.597656,1.21874999 1.453125,1.87499999 1.558594,1.87499999 0.05859,0 0.09375,-0.035156 0.09375,-0.1054687 z m 0,0"
         style="fill:#ec008c;fill-opacity:1;fill-rule:nonzero;stroke:none" />
      <path
         id="path29"
         d="m 36.771516,-3.0103047 c 0.05859,-0.2578125 0.292968,-1.171875 0.984375,-1.171875 0.04687,0 0.292968,0 0.503906,0.1289063 -0.28125,0.046875 -0.480469,0.3046875 -0.480469,0.5390625 0,0.1640625 0.105469,0.3515625 0.375,0.3515625 0.222656,0 0.539063,-0.1875 0.539063,-0.5859375 0,-0.515625 -0.585938,-0.65625 -0.925782,-0.65625 -0.574218,0 -0.925781,0.5273437 -1.042968,0.7617187 -0.257813,-0.65625 -0.785157,-0.7617187 -1.078125,-0.7617187 -1.042969,0 -1.605469,1.2890625 -1.605469,1.5351562 0,0.1054688 0.105469,0.1054688 0.117187,0.1054688 0.08203,0 0.117188,-0.023437 0.128907,-0.1171875 0.339843,-1.0546875 0.996093,-1.3007813 1.335937,-1.3007813 0.1875,0 0.539063,0.09375 0.539063,0.6679688 0,0.3046875 -0.164063,0.9726562 -0.539063,2.3671875 -0.152344,0.62109371 -0.503906,1.04296871 -0.949219,1.04296871 -0.05859,0 -0.28125,0 -0.492187,-0.12890625 0.246094,-0.0585938 0.46875,-0.26953125 0.46875,-0.5390625 0,-0.26953126 -0.222656,-0.35156246 -0.375,-0.35156246 -0.292969,0 -0.539063,0.25781246 -0.539063,0.57421871 0,0.45703125 0.492188,0.65625 0.9375,0.65625 0.65625,0 1.007813,-0.69140625 1.042969,-0.75 0.117188,0.36328125 0.480469,0.75 1.078125,0.75 1.019531,0 1.59375,-1.27734371 1.59375,-1.53515621 0,-0.09375 -0.09375,-0.09375 -0.128906,-0.09375 -0.08203,0 -0.105469,0.035156 -0.128906,0.1054687 -0.328125,1.06640626 -0.996094,1.31250001 -1.324219,1.31250001 -0.386719,0 -0.539063,-0.328125 -0.539063,-0.65625 0,-0.22265625 0.05859,-0.44531251 0.164063,-0.87890621 z m 0,0"
         style="fill:#ec008c;fill-opacity:1;fill-rule:nonzero;stroke:none" />
      <path
         id="path30"
         d="m 42.018586,-2.4946797 c 0,-0.7734375 -0.117188,-1.9804687 -0.65625,-3.1054687 -0.597656,-1.21875 -1.464844,-1.875 -1.558594,-1.875 -0.05859,0 -0.105469,0.046875 -0.105469,0.1054687 0,0.035156 0,0.046875 0.199219,0.234375 0.972656,0.984375 1.535156,2.5664063 1.535156,4.640625 0,1.71093751 -0.363281,3.45703126 -1.59375,4.7226563 -0.140625,0.1171875 -0.140625,0.1289062 -0.140625,0.1640625 0,0.058594 0.04687,0.1054687 0.105469,0.1054687 0.09375,0 0.996094,-0.6796875 1.582031,-1.94531249 0.503907,-1.1015625 0.632813,-2.20312501 0.632813,-3.04687501 z m 0,0"
         style="fill:#ec008c;fill-opacity:1;fill-rule:nonzero;stroke:none" />
    </g>
  </g>
</svg>
