<?xml version="1.0" encoding="UTF-8" standalone="no"?>
<!-- Created with Inkscape (http://www.inkscape.org/) -->

<svg
   version="1.1"
   id="svg1"
   width="165.69922"
   height="157.79193"
   viewBox="0 0 165.69922 157.79193"
   sodipodi:docname="6.1-ejemplo-seno-coseno.svg"
   inkscape:version="1.4.2 (f4327f4, 2025-05-13)"
   xmlns:inkscape="http://www.inkscape.org/namespaces/inkscape"
   xmlns:sodipodi="http://sodipodi.sourceforge.net/DTD/sodipodi-0.dtd"
   xmlns="http://www.w3.org/2000/svg"
   xmlns:svg="http://www.w3.org/2000/svg">
  <defs
     id="defs1" />
  <sodipodi:namedview
     id="namedview1"
     pagecolor="#ffffff"
     bordercolor="#000000"
     borderopacity="0.25"
     inkscape:showpageshadow="2"
     inkscape:pageopacity="0.0"
     inkscape:pagecheckerboard="0"
     inkscape:deskcolor="#d1d1d1"
     inkscape:zoom="2.2241536"
     inkscape:cx="198.95209"
     inkscape:cy="98.689227"
     inkscape:window-width="1920"
     inkscape:window-height="1009"
     inkscape:window-x="-8"
     inkscape:window-y="-8"
     inkscape:window-maximized="1"
     inkscape:current-layer="g1">
    <inkscape:page
       x="0"
       y="0"
       inkscape:label="6"
       id="page1"
       width="165.69922"
       height="157.79193"
       margin="0"
       bleed="0" />
  </sodipodi:namedview>
  <g
     id="g1"
     inkscape:groupmode="layer"
     inkscape:label="6"
     transform="translate(-43.035156,-82.61328)">
    <path
       id="path2"
       d="M -25.51193,0 H 76.07758"
       style="fill:none;stroke:#000000;stroke-width:0.3985;stroke-linecap:butt;stroke-linejoin:miter;stroke-miterlimit:10;stroke-dasharray:none;stroke-opacity:1"
       transform="matrix(1.3333333,0,0,-1.3333333,103.17333,189.38133)" />
    <path
       id="path3"
       d="M -1.19551,1.59401 C -1.09587,0.99626 0,0.09961 0.29886,0 0,-0.09961 -1.09587,-0.99626 -1.19551,-1.59401"
       style="fill:none;stroke:#000000;stroke-width:0.31879;stroke-linecap:round;stroke-linejoin:round;stroke-miterlimit:10;stroke-dasharray:none;stroke-opacity:1"
       transform="matrix(1.3333333,0,0,-1.3333333,204.61011,189.38133)" />
    <path
       id="path4"
       d="m 3.6434062,-3.2926094 c 0.070312,-0.28125 0.3164063,-1.2890625 1.078125,-1.2890625 0.058594,0 0.3164063,0 0.5507813,0.140625 -0.3046875,0.058594 -0.5273438,0.328125 -0.5273438,0.5859375 0,0.1757813 0.1171875,0.3867188 0.4101563,0.3867188 0.2460937,0 0.5976562,-0.1992188 0.5976562,-0.6328125 0,-0.5625 -0.6445312,-0.7265625 -1.0195312,-0.7265625 -0.6328125,0 -1.0195313,0.5859375 -1.1484375,0.8320312 -0.2695313,-0.7148437 -0.8554688,-0.8320312 -1.171875,-0.8320312 -1.1367188,0 -1.7578125,1.4179687 -1.7578125,1.6875 0,0.1054687 0.10546875,0.1054687 0.12890625,0.1054687 0.0820313,0 0.1171875,-0.023437 0.140625,-0.1171875 C 1.2996562,-4.3121406 2.0145,-4.5816719 2.3895,-4.5816719 c 0.2109375,0 0.5859375,0.09375 0.5859375,0.7265625 0,0.3398438 -0.1875,1.078125 -0.5859375,2.6015625 -0.1757813,0.67968753 -0.5625,1.13671878 -1.0429688,1.13671878 -0.058594,0 -0.3164062,0 -0.53906245,-0.140625 C 1.077,-0.31604687 1.3230937,-0.55042187 1.3230937,-0.85510937 1.3230937,-1.1480781 1.077,-1.2301094 0.9129375,-1.2301094 c -0.328125,0 -0.59765625,0.28125003 -0.59765625,0.63281253 0,0.50390625 0.55078125,0.71484375 1.03124995,0.71484375 0.7148438,0 1.1015625,-0.76171875 1.1367188,-0.83203125 0.1289062,0.41015625 0.5273437,0.83203125 1.1835937,0.83203125 1.125,0 1.7460938,-1.40624998 1.7460938,-1.67578128 0,-0.1054687 -0.1054688,-0.1054687 -0.1289063,-0.1054687 -0.1054687,0 -0.1289062,0.035156 -0.140625,0.1171875 -0.3632812,1.16015623 -1.1132812,1.42968748 -1.453125,1.42968748 -0.4335937,0 -0.609375,-0.3515625 -0.609375,-0.7265625 0,-0.23437498 0.070312,-0.48046878 0.1875,-0.96093748 z m 0,0"
       style="fill:#000000;fill-opacity:1;fill-rule:nonzero;stroke:none"
       aria-label="x"
       transform="matrix(1.3333333,0,0,1.3333333,201.064,200.75733)" />
    <path
       id="path5"
       d="M 0,-38.26791 V 76.07758"
       style="fill:none;stroke:#000000;stroke-width:0.3985;stroke-linecap:butt;stroke-linejoin:miter;stroke-miterlimit:10;stroke-dasharray:none;stroke-opacity:1"
       transform="matrix(1.3333333,0,0,-1.3333333,103.17333,189.38133)" />
    <path
       id="path6"
       d="M -1.19551,1.59401 C -1.09587,0.99626 0,0.09961 0.29886,0 0,-0.09961 -1.09587,-0.99626 -1.19551,-1.59401"
       style="fill:none;stroke:#000000;stroke-width:0.31879;stroke-linecap:round;stroke-linejoin:round;stroke-miterlimit:10;stroke-dasharray:none;stroke-opacity:1"
       transform="matrix(0,-1.3333333,-1.3333333,0,103.17333,87.94456)" />
    <path
       id="path7"
       d="m 5.2965625,-4.1610703 c 0.046875,-0.1523438 0.046875,-0.1757813 0.046875,-0.2460938 0,-0.1992187 -0.1523437,-0.2929687 -0.3164062,-0.2929687 -0.1054688,0 -0.28125,0.058594 -0.375,0.2226562 -0.023437,0.058594 -0.1171875,0.3984375 -0.1523438,0.5976563 -0.082031,0.28125 -0.1523437,0.5742187 -0.2226562,0.8671875 l -0.4921875,1.96875 c -0.046875,0.16406249 -0.515625,0.92578124 -1.2304688,0.92578124 -0.5625,0 -0.6796875,-0.48046875 -0.6796875,-0.89062504 0,-0.4921875 0.1875,-1.171875 0.5625,-2.1328125 0.1757813,-0.4453125 0.2109375,-0.5742187 0.2109375,-0.7851562 0,-0.4921875 -0.3515625,-0.9023438 -0.890625,-0.9023438 -1.04296875,0 -1.44140625,1.5820313 -1.44140625,1.6875 0,0.1054688 0.10546875,0.1054688 0.12890625,0.1054688 0.10546875,0 0.1171875,-0.023437 0.17578125,-0.1992188 C 0.91375,-4.2548203 1.3473438,-4.5829453 1.7223438,-4.5829453 c 0.09375,0 0.2695312,0 0.2695312,0.3515625 0,0.2695312 -0.1054687,0.5507812 -0.1757812,0.7617187 -0.4453125,1.1601563 -0.6328125,1.78125 -0.6328125,2.2851563 0,0.97265624 0.6796875,1.30078124 1.3242187,1.30078124 0.421875,0 0.796875,-0.1875 1.1015625,-0.4921875 -0.140625,0.57421875 -0.2695312,1.1015625 -0.703125,1.68749996 -0.2929687,0.3632813 -0.703125,0.6796875 -1.2070312,0.6796875 -0.1523438,0 -0.6445313,-0.023437 -0.8320313,-0.4570312 0.1757813,0 0.3164063,0 0.4804688,-0.1289063 0.1054687,-0.09375 0.2109375,-0.234375 0.2109375,-0.44531246 0,-0.33984375 -0.2929688,-0.38671875 -0.3984375,-0.38671875 -0.25781255,0 -0.60937505,0.17578125 -0.60937505,0.71484371 0,0.5390625 0.48046875,0.9492188 1.14843755,0.9492188 1.125,0 2.25,-0.9960938 2.5546875,-2.22656251 z m 0,0"
       style="fill:#000000;fill-opacity:1;fill-rule:nonzero;stroke:none"
       aria-label="y"
       transform="matrix(1.3333333,0,0,1.3333333,90.406667,89.052)" />
    <path
       id="path8"
       d="m -25.51193,-21.46652 0.35891,0.19621 0.35892,0.20007 0.35892,0.204 0.35892,0.20864 0.35891,0.21255 0.35892,0.21724 0.35892,0.22032 0.35891,0.22462 0.35892,0.2285 0.35894,0.23241 0.3589,0.23668 0.35893,0.24058 0.3589,0.2429 0.35893,0.2468 0.35891,0.25148 0.35891,0.25538 0.35892,0.2581 0.35892,0.26121 0.35893,0.26509 0.35892,0.26859 0.35891,0.27171 0.35892,0.27524 0.3589,0.27834 0.35894,0.28144 0.3589,0.28418 0.35893,0.28807 0.3589,0.29079 0.35894,0.29353 0.3589,0.29624 0.35893,0.29896 0.35892,0.30248 0.35891,0.30441 0.35892,0.30715 0.35892,0.30986 0.35892,0.31221 0.35891,0.3153 0.3589,0.31768 0.35894,0.3192 0.3589,0.32193 0.35895,0.32389 0.3589,0.32621 0.35893,0.32817 0.3589,0.3305 0.35892,0.33206 0.35892,0.334 0.35892,0.33596 0.35892,0.33749 0.35891,0.33985 0.35892,0.34063 0.35893,0.34217 0.3589,0.3445 0.35894,0.34531 0.3589,0.34685 0.35893,0.34801 0.3589,0.3492 0.35893,0.34996 0.35891,0.35151 0.35891,0.35231 0.35892,0.35347 0.35892,0.35384 0.35893,0.35504 0.35892,0.35579 0.35891,0.3562 0.35892,0.35697 0.3589,0.35697 0.35894,0.35814 0.3589,0.35814 0.35891,0.35854 0.35892,0.3589 0.35892,0.35814 0.35893,0.3593 L 0.3301,0.3301 0.68901,0.68823 1.04793,1.04713 1.40685,1.40567 1.76576,1.76382 2.12468,2.12195 2.4836,2.47893 2.8425,2.83589 3.20143,3.19247 3.56035,3.54826 3.91928,3.9033 4.27818,4.25755 4.63712,4.61101 4.99602,4.9637 5.35493,5.31523 5.71385,5.66559 6.07277,6.01477 6.43169,6.3628 6.7906,6.71002 7.14952,7.05609 7.50845,7.39983 7.86736,7.74239 8.22629,8.0838 l 0.3589,0.33983 0.35893,0.3383 0.3589,0.33554 0.35892,0.33441 0.35892,0.33283 0.35892,0.33011 0.35892,0.32896 0.35893,0.3266 0.35891,0.32427 0.35892,0.32231 0.35892,0.32 0.35892,0.31727 0.3589,0.3161 0.35891,0.31259 0.35892,0.31026 0.35892,0.30752 0.35892,0.30519 0.35893,0.30287 0.35892,0.29937 0.35891,0.29623 0.35892,0.29391 0.35892,0.29119 0.35891,0.28884 0.35891,0.28495 0.35893,0.28107 0.3589,0.27951 0.35892,0.27559 0.35892,0.27291 0.35893,0.26821 0.35891,0.26588 0.35892,0.262 0.35892,0.25885 0.35892,0.25538 0.3589,0.25186 0.35893,0.24758 0.35891,0.24409 0.35893,0.24097 0.3589,0.23708 0.35895,0.23315 0.3589,0.2289 0.35892,0.225 0.35891,0.2215 0.35892,0.21762 0.35892,0.21333 0.35891,0.20905 0.35892,0.20476 0.35892,0.20086 0.3589,0.19738 0.35895,0.19267 0.3589,0.18764 0.35893,0.18374 0.3589,0.17947 0.35894,0.17518 0.3589,0.17129 0.35893,0.16582 0.3589,0.16154 0.35892,0.1569 0.35892,0.15337 0.35891,0.14832 0.35894,0.14325 0.35891,0.13858 0.35892,0.13431 0.35892,0.12924 0.3589,0.12573 0.35893,0.11953 0.35891,0.1152 0.35893,0.10979 0.3589,0.10589 0.35894,0.10121 0.35891,0.09575 0.35892,0.0911 0.35891,0.08565 0.35892,0.08135 0.35892,0.07668 0.35892,0.07166 0.35891,0.06617 0.35892,0.06112 0.3589,0.05644 0.35893,0.05177 0.35892,0.0471 0.35893,0.04088 0.35891,0.03582 0.35893,0.03152 0.3589,0.02684 0.35892,0.02182 0.35892,0.01595 0.35891,0.01092 0.35892,0.0066 0.35892,0.0012 0.35891,-0.0031 0.35894,-0.0097 0.3589,-0.01442 0.35893,-0.01907 0.3589,-0.02373 0.35894,-0.0288 0.3589,-0.03388 0.35893,-0.03932 0.3589,-0.04437 0.35892,-0.04906 0.35892,-0.05371 0.35893,-0.05917 0.35892,-0.06463 0.35892,-0.0693 0.35891,-0.07396 0.35892,-0.07863"
       style="fill:none;stroke:#eb0a36;stroke-width:0.79701;stroke-linecap:butt;stroke-linejoin:miter;stroke-miterlimit:10;stroke-dasharray:none;stroke-opacity:1"
       transform="matrix(1.3333333,0,0,-1.3333333,103.17333,189.38133)" />
    <path
       id="path9"
       d="m -25.51193,13.78366 0.35891,0.30013 0.35892,0.2978 0.35892,0.29547 0.35892,0.29234 0.35891,0.28847 0.35892,0.28613 0.35892,0.283 0.35891,0.28028 0.35892,0.27717 0.35894,0.27288 0.3589,0.27017 0.35893,0.26665 0.3589,0.26395 0.35893,0.26002 0.35891,0.25615 0.35891,0.25266 0.35892,0.24951 0.35892,0.24565 0.35893,0.24213 0.35892,0.23823 0.35891,0.23397 0.35892,0.23007 0.3589,0.22694 0.35894,0.22306 0.3589,0.21878 0.35893,0.21449 0.3589,0.2106 0.35894,0.20671 0.3589,0.20243 0.35893,0.19853 0.35892,0.19348 0.35891,0.18957 0.35892,0.18531 0.35892,0.18141 0.35892,0.17673 0.35891,0.17205 0.3589,0.16779 0.35894,0.16312 0.3589,0.15921 0.35895,0.15452 0.3589,0.14911 0.35893,0.14481 0.3589,0.14054 0.35892,0.13587 0.35892,0.13194 0.35892,0.12573 0.35892,0.12186 0.35891,0.11679 0.35892,0.11211 0.35893,0.10783 0.3589,0.10159 0.35894,0.09772 0.3589,0.09265 0.35893,0.08837 0.3589,0.08331 0.35893,0.07787 0.35891,0.07278 0.35891,0.06773 0.35892,0.06385 0.35892,0.05838 0.35893,0.05294 0.35892,0.04789 0.35891,0.04321 0.35892,0.03816 0.3589,0.03346 0.35894,0.02842 0.3589,0.02258 0.35891,0.01791 0.35892,0.01284 0.35892,0.009 0.35893,0.0031 0.35888,-0.0027 0.35891,-0.0074 0.35892,-0.01207 0.35892,-0.01712 0.35891,-0.02219 0.35892,-0.02764 0.35892,-0.0327 0.3589,-0.03737 0.35893,-0.04204 0.35892,-0.04671 0.35893,-0.05334 0.3589,-0.05761 0.35894,-0.0619 0.3589,-0.06735 0.35891,-0.07199 0.35892,-0.07749 0.35892,-0.08253 0.35892,-0.0868 0.35891,-0.09227 0.35892,-0.09616 0.35893,-0.10238 0.35891,-0.10666 0.35893,-0.11093 0.3589,-0.11602 0.35893,-0.12066 0.3589,-0.12575 0.35892,-0.1308 0.35892,-0.1351 0.35892,-0.13972 0.35892,-0.14405 0.35893,-0.14869 0.35891,-0.15416 0.35892,-0.15805 0.35892,-0.16233 0.35892,-0.16702 0.3589,-0.17088 0.35891,-0.17673 0.35892,-0.18063 0.35892,-0.18453 0.35892,-0.18841 0.35893,-0.19307 0.35892,-0.19815 0.35891,-0.20203 0.35892,-0.20593 0.35892,-0.20945 0.35891,-0.21333 0.35891,-0.21876 0.35893,-0.22229 0.3589,-0.22617 0.35892,-0.22967 0.35892,-0.23319 0.35893,-0.23785 0.35891,-0.24173 0.35892,-0.24486 0.35892,-0.24875 0.35892,-0.25188 0.3589,-0.25615 0.35893,-0.25964 0.35891,-0.26315 0.35893,-0.26589 0.3589,-0.26938 0.35895,-0.27288 0.3589,-0.27678 0.35892,-0.27951 0.35891,-0.28223 0.35892,-0.28534 0.35892,-0.28885 0.35891,-0.29196 0.35892,-0.29467 0.35892,-0.29743 0.3589,-0.29935 0.35895,-0.30325 0.3589,-0.30557 0.35893,-0.30834 0.3589,-0.31102 0.35894,-0.313 0.3589,-0.31569 0.35893,-0.31805 0.3589,-0.32078 0.35892,-0.32232 0.35892,-0.32465 0.35891,-0.32661 0.35894,-0.32934 0.35891,-0.33126 0.35892,-0.33284 0.35892,-0.33478 0.3589,-0.33595 0.35893,-0.33867 0.35891,-0.33986 0.35893,-0.34178 0.3589,-0.34258 0.35894,-0.34451 0.35891,-0.34607 0.35892,-0.34724 0.35891,-0.34841 0.35892,-0.34956 0.35892,-0.35036 0.35892,-0.35191 0.35891,-0.35309 0.35892,-0.35345 0.3589,-0.35463 0.35893,-0.35503 0.35892,-0.3558 0.35893,-0.35621 0.35891,-0.35736 0.35893,-0.35735 0.3589,-0.35776 0.35892,-0.35813 0.35892,-0.3593 0.35891,-0.35815 0.35892,-0.35892 0.35892,-0.35849 0.35891,-0.35852 0.35894,-0.3589 0.3589,-0.35893 0.35893,-0.35814 0.3589,-0.35814 0.35894,-0.35774 0.3589,-0.35737 0.35893,-0.35659 0.3589,-0.35617 0.35892,-0.35543 0.35892,-0.35502 0.35893,-0.35387 0.35892,-0.35307 0.35892,-0.35231 0.35891,-0.35112 0.35892,-0.34996"
       style="fill:none;stroke:#008080;stroke-width:0.79701;stroke-linecap:butt;stroke-linejoin:miter;stroke-miterlimit:10;stroke-dasharray:none;stroke-opacity:1"
       transform="matrix(1.3333333,0,0,-1.3333333,103.17333,189.38133)" />
    <path
       id="path10"
       d="m 0,25.51193 0.20201,-0.0019 0.20204,-0.002 0.20203,-0.0047 0.20204,-0.0051 0.20204,-0.0078 0.20204,-0.009 0.20203,-0.01 L 1.61627,25.45937 1.8183,25.44652 2.02036,25.43018 2.22238,25.41461 2.42442,25.39554 2.62645,25.37607 2.8285,25.35428 3.03053,25.33131 3.23257,25.3064 3.4346,25.27992 3.63664,25.25189 3.83868,25.2223 4.04073,25.19194 4.24275,25.15886 4.4448,25.12538 4.64682,25.0884 4.84888,25.0518 5.0509,25.0125 5.25294,24.97202 5.45499,24.92996 5.65701,24.88597 5.85907,24.8412 6.0611,24.7941 6.26314,24.7466 6.46516,24.696 6.66722,24.6454 6.86925,24.59167 7.07129,24.53755 7.27332,24.48073 7.47536,24.42311 7.6774,24.36433 7.87943,24.304 8.08145,24.2421 8.2835,24.17787 8.48553,24.11325 8.68758,24.04588 8.8896,23.97816 9.09164,23.9077 9.29367,23.83685 9.49573,23.76366 9.69775,23.68971 9.8998,23.6138 l 0.20202,-0.07709 0.20204,-0.07824 0.20204,-0.08057 0.20205,-0.08058 0.20204,-0.08409 0.20202,-0.0837 0.20205,-0.08681 0.20204,-0.08722 0.20204,-0.08874 0.20203,-0.0907 0.20204,-0.09108 0.20204,-0.09343 0.20204,-0.09422 0.20203,-0.09654 0.20204,-0.09693 0.20203,-0.09927 0.20205,-0.09924 0.20203,-0.10241 0.20204,-0.10276 0.20203,-0.10433 0.20204,-0.1055 0.20204,-0.10705 0.20204,-0.10861 0.20203,-0.109 0.20204,-0.11172 0.20203,-0.11173 0.20205,-0.11444 0.20201,-0.11444 0.20205,-0.11681 0.20202,-0.11715 0.20206,-0.11952 0.20204,-0.12029 0.20203,-0.12108 0.20204,-0.123 0.20202,-0.12379 0.20206,-0.12574 0.20203,-0.12614 0.20204,-0.12883 0.20203,-0.12848 0.20204,-0.1304 0.20204,-0.1312 0.20204,-0.13311 0.20203,-0.13393 0.20204,-0.13507 0.20204,-0.13625 0.20204,-0.13704 0.20203,-0.13896 0.20204,-0.13936 0.20202,-0.14131 0.20206,-0.1421 0.0253,-0.03153 L 19.8249,17.88786 19.62288,17.74382 19.42084,17.59784 19.21881,17.4511 19.01677,17.30315 18.81474,17.15405 18.6127,17.0042 18.41068,16.85315 18.20863,16.70132 18.00658,16.54756 17.80455,16.3934 17.60251,16.23769 17.40048,16.08197 17.19844,15.92432 16.9964,15.76627 16.79436,15.60666 16.59233,15.44629 16.39029,15.28511 16.18826,15.1228 15.9862,14.96007 15.78418,14.79541 15.58214,14.63072 15.38011,14.46451 15.17807,14.2979 14.97603,14.12973 14.77399,13.96117 14.57196,13.79184 14.36992,13.62132 14.16788,13.45044 13.96584,13.27798 13.76381,13.10555 13.56177,12.93152 13.35974,12.75711 13.15768,12.58116 12.95566,12.40561 12.75362,12.22809 12.55157,12.05058 12.34955,11.8719 12.14749,11.69284 11.94547,11.51297 11.74342,11.33235 11.5414,11.15094 11.33936,10.96916 11.13731,10.78659 10.93529,10.60284 10.73326,10.41872 10.53122,10.23419 10.32918,10.04851 10.12714,9.86243 9.92511,9.67596 9.72307,9.48872 9.52104,9.30069 9.31898,9.11267 9.11696,8.92348 8.91492,8.73428 8.71289,8.54393 8.51085,8.35318 8.3088,8.16205 8.10677,7.9709 7.90474,7.77823 7.7027,7.58553 7.50066,7.39284 7.29861,7.19856 7.09657,7.00511 6.89455,6.81007 6.6925,6.61542 6.49046,6.42 6.28842,6.2242 6.0864,6.028 5.88435,5.8318 5.68233,5.63483 5.48027,5.43745 5.27824,5.2401 5.0762,5.04234 4.87418,4.8442 4.67213,4.64528 4.4701,4.44673 4.26805,4.24782 4.06602,4.04813 3.86398,3.84882 3.66194,3.64911 3.4599,3.44902 3.25789,3.24854 3.05585,3.04805 2.85382,2.84718 2.65176,2.6467 2.44974,2.44545 2.2477,2.24419 2.04565,2.04332 1.84361,1.84166 1.64157,1.64003 1.43954,1.43837 1.2375,1.23633 1.03548,1.03468 0.83342,0.83266 0.6314,0.631 0.42935,0.42935 0.22733,0.22733 0.02528,0.02528 Z"
       style="fill:#9999ff;fill-opacity:0.25;fill-rule:nonzero;stroke:none"
       transform="matrix(1.3333333,0,0,-1.3333333,103.17333,189.38133)" />
    <path
       id="path11"
       d="m 20.02696,18.03227 0.20203,0.1417 0.20204,0.1417 0.20203,0.13977 0.20205,0.13858 0.20203,0.13779 0.20204,0.13625 0.20203,0.13546 0.20204,0.13431 0.20204,0.13355 0.20204,0.13118 0.20203,0.1308 0.20204,0.12924 0.20203,0.12845 0.20205,0.12651 0.20203,0.12574 0.20204,0.12418 0.20203,0.1234 0.20204,0.12224 0.20206,0.11992 0.20202,0.11949 0.20204,0.11758 0.20203,0.11754 0.20204,0.11445 0.20204,0.11446 0.20205,0.11249 0.20202,0.11135 0.20204,0.11016 0.20204,0.10822 0.20205,0.10783 0.20202,0.10549 0.20205,0.10511 0.20202,0.10237 0.20204,0.10279 0.20203,0.10003 0.20204,0.09928 0.20203,0.09732 0.20205,0.09654 0.20203,0.09499 0.20204,0.09343 0.20203,0.09185 0.20204,0.09072 0.20204,0.08954 0.20204,0.08718 0.20203,0.08683 0.20204,0.08445 0.20204,0.0837 0.20204,0.08136 0.20205,0.0806 0.20202,0.07939 0.20204,0.07708 0.20203,0.0767 0.20206,0.07359 0.20202,0.07432 0.20205,0.07047 0.20202,0.07086 0.20206,0.06812 0.20203,0.06735 0.20204,0.0654 0.20202,0.06422 0.20205,0.06229 0.20204,0.06073 0.20204,0.05995 0.20203,0.05762 0.20204,0.05722 0.20202,0.05372 0.20206,0.05411 0.20203,0.05138 0.20204,0.05061 0.20202,0.04826 0.20205,0.04672 0.20202,0.04594 0.20204,0.04359 0.20205,0.04321 0.20202,0.0401 0.20206,0.04009 0.20202,0.03738 0.20205,0.03659 0.20202,0.03388 0.20204,0.03308 0.20205,0.03154 0.20204,0.02957 0.20203,0.02883 0.20204,0.02645 0.20202,0.02571 0.20206,0.02295 0.20203,0.0226 0.20204,0.01906 0.20202,0.01945 0.20206,0.01676 0.20203,0.01556 0.20204,0.01363 0.20202,0.01285 0.20204,0.01049 0.20205,0.009 0.20204,0.0086 0.20203,0.0051 0.20204,0.0055 0.20202,0.0019 0.20206,0.0016 L 40.05394,0.01984 39.8519,0.22188 39.64986,0.42392 39.44781,0.62595 39.24579,0.82759 39.04375,1.02962 38.8417,1.23167 38.63966,1.43332 38.43764,1.63496 38.2356,1.83662 38.03357,2.03825 37.83151,2.23952 37.6295,2.44038 37.42746,2.64125 37.22543,2.84212 37.02338,3.043 36.82135,3.24347 36.61931,3.44395 36.41727,3.64365 36.21524,3.84375 36.01318,4.04306 35.81116,4.24275 35.60912,4.44168 35.40709,4.64021 35.20505,4.83914 35.003,5.03728 34.80096,5.23503 34.59894,5.4324 34.3969,5.62978 34.19487,5.82674 33.99281,6.02293 33.79079,6.21953 33.58875,6.41493 33.38672,6.61075 33.18466,6.80539 32.98264,7.00005 32.7806,7.19391 32.57857,7.38737 32.37653,7.58046 32.17448,7.77316 31.97244,7.96547 31.77042,8.15698 31.56837,8.34889 31.36635,8.53926 31.16429,8.72923 30.96225,8.91881 30.76022,9.108 30.55818,9.29602 30.35616,9.48405 30.1541,9.6709 l -0.20203,0.18684 -0.20202,0.1861 -0.20203,0.18568 -0.20206,0.18491 -0.20202,0.18335 -0.20204,0.18412 -0.20203,0.1822 -0.20204,0.18257 -0.20205,0.18101 -0.20204,0.18102 -0.20202,0.17985 -0.20204,0.17906 -0.20203,0.17869 -0.20206,0.17752 -0.20202,0.1775 -0.20205,0.17557 -0.20202,0.17557 -0.20206,0.1744 -0.20203,0.1744 -0.20204,0.17206 -0.20202,0.17244 -0.20205,0.17129 -0.20205,0.1705 -0.20203,0.16973 -0.20204,0.16818 -0.20203,0.16815 -0.20204,0.16663 -0.20204,0.16621 -0.20204,0.16467 -0.20203,0.16428 -0.20204,0.16312 -0.20203,0.1627 -0.20205,0.16078 -0.20203,0.16037 -0.20204,0.15923 -0.20203,0.15843 -0.20205,0.15767 -0.20203,0.15611 -0.20204,0.15609 -0.20201,0.15339 -0.20205,0.15376 -0.20204,0.15181 -0.20204,0.15143 -0.20202,0.14987 -0.20205,0.14949 -0.20204,0.14792 -0.20204,0.14639 -0.20204,0.14597 -0.20203,0.14441 -0.20204,0.14404 -0.0253,0.0039 z"
       style="fill:#9999ff;fill-opacity:0.25;fill-rule:nonzero;stroke:none"
       transform="matrix(1.3333333,0,0,-1.3333333,103.17333,189.38133)" />
    <path
       id="path12"
       d="M 40.05394,0 V 25.51193"
       style="fill:none;stroke:#ec008c;stroke-width:0.3985;stroke-linecap:butt;stroke-linejoin:miter;stroke-miterlimit:10;stroke-dasharray:2.98883, 2.98883;stroke-dashoffset:0;stroke-opacity:1"
       transform="matrix(1.3333333,0,0,-1.3333333,103.17333,189.38133)" />
    <path
       id="path13"
       d="M 20.02696,0 V 18.03696"
       style="fill:none;stroke:#ec008c;stroke-width:0.3985;stroke-linecap:butt;stroke-linejoin:miter;stroke-miterlimit:10;stroke-dasharray:2.98883, 2.98883;stroke-dashoffset:0;stroke-opacity:1"
       transform="matrix(1.3333333,0,0,-1.3333333,103.17333,189.38133)" />
    <path
       id="path14"
       d="m 21.30261,18.03696 c 0,0.70453 -0.57112,1.27566 -1.27565,1.27566 -0.70454,0 -1.27566,-0.57113 -1.27566,-1.27566 0,-0.70453 0.57112,-1.27567 1.27566,-1.27567 0.70453,0 1.27565,0.57114 1.27565,1.27567 z"
       style="fill:#eb0a36;fill-opacity:1;fill-rule:nonzero;stroke:#eb0a36;stroke-width:0.3985;stroke-linecap:butt;stroke-linejoin:miter;stroke-miterlimit:10;stroke-dasharray:none;stroke-opacity:1"
       transform="matrix(1.3333333,0,0,-1.3333333,103.17333,189.38133)" />
    <g
       id="g14"
       aria-label="y=senx"
       transform="matrix(1.3333333,0,0,1.3333333,42.642667,235.17067)">
      <path
         id="path15"
         d="m 4.8412422,-3.7959687 c 0.046875,-0.140625 0.046875,-0.1523438 0.046875,-0.2226563 0,-0.1875 -0.140625,-0.2695312 -0.2929688,-0.2695312 -0.1054687,0 -0.2578125,0.058594 -0.3515625,0.1992187 -0.023437,0.058594 -0.09375,0.3632813 -0.140625,0.5390625 -0.070312,0.2578125 -0.140625,0.5273438 -0.1992187,0.796875 l -0.4453125,1.79296875 c -0.035156,0.15234375 -0.46875,0.85546875 -1.125,0.85546875 -0.5039063,0 -0.6210938,-0.4453125 -0.6210938,-0.80859375 0,-0.45703125 0.1757813,-1.07812495 0.515625,-1.95703125 0.1523438,-0.4101562 0.1992188,-0.515625 0.1992188,-0.7148437 0,-0.4453125 -0.328125,-0.8203125 -0.8203125,-0.8203125 -0.94921876,0 -1.31250001,1.453125 -1.31250001,1.5351562 0,0.1054688 0.09375,0.1054688 0.1171875,0.1054688 0.09375,0 0.10546875,-0.023437 0.15234375,-0.1875 0.26953125,-0.9375 0.66796876,-1.2304688 1.00781246,-1.2304688 0.082031,0 0.2578125,0 0.2578125,0.3164063 0,0.2460937 -0.1054687,0.515625 -0.1757812,0.703125 -0.3984375,1.0546875 -0.5742188,1.6171875 -0.5742188,2.0859375 0,0.89062495 0.6210938,1.1835937 1.21875,1.1835937 0.3867188,0 0.7265625,-0.1640625 0.9960938,-0.4453125 C 3.1654609,0.1766875 3.0482734,0.668875 2.6498359,1.1962188 2.3920234,1.5360625 2.0170234,1.8290313 1.5599922,1.8290313 c -0.140625,0 -0.59765626,-0.035156 -0.76171876,-0.421875 0.1640625,0 0.29296876,0 0.43359376,-0.1171875 0.09375,-0.09375 0.1992187,-0.2226563 0.1992187,-0.4101563 0,-0.31640625 -0.2695312,-0.3515625 -0.375,-0.3515625 -0.22265621,0 -0.55078121,0.1640625 -0.55078121,0.6445313 0,0.5039062 0.43359375,0.8671875 1.05468751,0.8671875 1.0195312,0 2.0507812,-0.9023438 2.3320312,-2.0273438 z m 0,0"
         style="fill:#eb0a36;fill-opacity:1;fill-rule:nonzero;stroke:none" />
      <path
         id="path16"
         d="m 14.857844,-3.2569062 c 0.152344,0 0.339844,0 0.339844,-0.1992188 0,-0.1992187 -0.1875,-0.1992187 -0.328125,-0.1992187 H 8.9047188 c -0.140625,0 -0.328125,0 -0.328125,0.1992187 0,0.1992188 0.1875,0.1992188 0.3398437,0.1992188 z m 0.01172,1.9335937 c 0.140625,0 0.328125,0 0.328125,-0.1992187 0,-0.1992188 -0.1875,-0.1992188 -0.339844,-0.1992188 H 8.9164375 c -0.1523437,0 -0.3398437,0 -0.3398437,0.1992188 0,0.1992187 0.1875,0.1992187 0.328125,0.1992187 z m 5.727539,-0.609375 c 0.222656,0.035156 1.03125,0.1992188 1.03125,0.9140625 0,0.515625 -0.351563,0.9140625 -1.125,0.9140625 -0.832032,0 -1.195313,-0.57421875 -1.382813,-1.4179687 -0.03516,-0.1289063 -0.03516,-0.1757813 -0.140625,-0.1757813 -0.128906,0 -0.128906,0.070312 -0.128906,0.2578125 v 1.3125 c 0,0.1640625 0,0.234375 0.105469,0.234375 0.05859,0 0.07031,0 0.257812,-0.19921875 C 19.226008,-0.1045625 19.226008,-0.128 19.413508,-0.3155 c 0.433594,0.421875 0.878906,0.421875 1.089844,0.421875 1.148437,0 1.605468,-0.66796875 1.605468,-1.3828125 0,-0.5273437 -0.292968,-0.8203125 -0.421875,-0.9492187 -0.328125,-0.3164063 -0.714843,-0.3984375 -1.136718,-0.46875 -0.550782,-0.1171875 -1.21875,-0.2460938 -1.21875,-0.8203125 0,-0.3515625 0.257812,-0.7617188 1.113281,-0.7617188 1.101562,0 1.148437,0.9023438 1.171875,1.2070313 0,0.09375 0.09375,0.09375 0.117187,0.09375 0.128907,0 0.128907,-0.046875 0.128907,-0.2460938 v -0.9960937 c 0,-0.1757813 0,-0.2460938 -0.117188,-0.2460938 -0.04687,0 -0.07031,0 -0.199219,0.1171875 -0.02344,0.046875 -0.128906,0.1289063 -0.164062,0.1640625 -0.375,-0.28125 -0.785156,-0.28125 -0.9375,-0.28125 -1.21875,0 -1.59375,0.6679688 -1.59375,1.2304688 0,0.3398437 0.164062,0.6210937 0.433594,0.84375 0.316406,0.2578125 0.597656,0.3164062 1.312501,0.4570312 z m 2.967773,-0.5742187 c 0.05859,-1.4882813 0.902344,-1.734375 1.242188,-1.734375 1.019531,0 1.125,1.3476562 1.125,1.734375 z m -0.01172,0.2109375 h 2.789063 c 0.210937,0 0.246094,0 0.246094,-0.2109375 0,-0.984375 -0.539063,-1.9570313 -1.78125,-1.9570313 -1.160157,0 -2.074219,1.03125 -2.074219,2.2734375 0,1.3359375 1.042969,2.296875 2.191406,2.296875 1.21875,0 1.664063,-1.1015625 1.664063,-1.2890625 0,-0.1054687 -0.08203,-0.1171875 -0.128907,-0.1171875 -0.09375,0 -0.117187,0.058594 -0.128906,0.140625 -0.351562,1.01953125 -1.253906,1.01953125 -1.347656,1.01953125 -0.503906,0 -0.902344,-0.29296875 -1.125,-0.66796875 -0.304688,-0.4804687 -0.304688,-1.1367187 -0.304688,-1.4882812 z m 4.435547,-1.125 v 2.6601562 c 0,0.45703125 -0.117187,0.45703125 -0.785156,0.45703125 v 0.3046875 c 0.351562,-0.01171875 0.855469,-0.03515625 1.125,-0.03515625 0.257812,0 0.785156,0.0234375 1.113281,0.03515625 v -0.3046875 c -0.65625,0 -0.773437,0 -0.773437,-0.45703125 v -1.828125 c 0,-1.03125 0.714843,-1.59375 1.347656,-1.59375 0.621094,0 0.738281,0.5390625 0.738281,1.1015625 v 2.3203125 c 0,0.45703125 -0.117187,0.45703125 -0.773437,0.45703125 v 0.3046875 c 0.339843,-0.01171875 0.855468,-0.03515625 1.125,-0.03515625 0.257812,0 0.773437,0.0234375 1.113281,0.03515625 v -0.3046875 c -0.515625,0 -0.773438,0 -0.785156,-0.3046875 V -2.5069062 c 0,-0.8554688 0,-1.171875 -0.304688,-1.5234375 -0.140625,-0.1757813 -0.46875,-0.375 -1.042969,-0.375 -0.726562,0 -1.195312,0.4335937 -1.476562,1.0546875 v -1.0546875 l -1.40625,0.1171875 v 0.3046875 c 0.703125,0 0.785156,0.070312 0.785156,0.5625 z m 0,0"
         style="fill:#eb0a36;fill-opacity:1;fill-rule:nonzero;stroke:none" />
      <path
         id="path17"
         d="m 37.404719,-3.0108125 c 0.05859,-0.2578125 0.292969,-1.171875 0.984375,-1.171875 0.04687,0 0.292969,0 0.503906,0.1289063 -0.28125,0.046875 -0.480469,0.3046875 -0.480469,0.5390625 0,0.1640625 0.105469,0.3515625 0.375,0.3515625 0.222657,0 0.539063,-0.1875 0.539063,-0.5859375 0,-0.515625 -0.585938,-0.65625 -0.925781,-0.65625 -0.574219,0 -0.925782,0.5273437 -1.042969,0.7617187 -0.257813,-0.65625 -0.785156,-0.7617187 -1.078125,-0.7617187 -1.042969,0 -1.605469,1.2890625 -1.605469,1.5351562 0,0.1054688 0.105469,0.1054688 0.117188,0.1054688 0.08203,0 0.117187,-0.023437 0.128906,-0.1171875 0.339844,-1.0546875 0.996094,-1.3007813 1.335937,-1.3007813 0.1875,0 0.539063,0.09375 0.539063,0.6679688 0,0.3046875 -0.164063,0.9726562 -0.539063,2.3671875 -0.152343,0.6210937 -0.503906,1.0429687 -0.949218,1.0429687 -0.05859,0 -0.28125,0 -0.492188,-0.12890625 0.246094,-0.0585938 0.46875,-0.26953125 0.46875,-0.5390625 0,-0.26953125 -0.222656,-0.35156245 -0.375,-0.35156245 -0.292969,0 -0.539062,0.25781245 -0.539062,0.5742187 0,0.45703125 0.492187,0.65625 0.9375,0.65625 0.65625,0 1.007812,-0.69140625 1.042968,-0.75 0.117188,0.36328125 0.480469,0.75 1.078125,0.75 1.019532,0 1.59375,-1.2773437 1.59375,-1.5351562 0,-0.09375 -0.09375,-0.09375 -0.128906,-0.09375 -0.08203,0 -0.105469,0.035156 -0.128906,0.1054687 -0.328125,1.06640625 -0.996094,1.3125 -1.324219,1.3125 -0.386719,0 -0.539062,-0.328125 -0.539062,-0.65625 0,-0.22265625 0.05859,-0.4453125 0.164062,-0.8789062 z m 0,0"
         style="fill:#eb0a36;fill-opacity:1;fill-rule:nonzero;stroke:none" />
    </g>
    <g
       id="g17"
       aria-label="y=cosx"
       transform="matrix(1.3333333,0,0,1.3333333,43.012,143.328)">
      <path
         id="path18"
         d="m 4.8396328,-3.7967812 c 0.046875,-0.140625 0.046875,-0.1523438 0.046875,-0.2226563 0,-0.1875 -0.140625,-0.2695312 -0.2929687,-0.2695312 -0.1054688,0 -0.2578125,0.058594 -0.3515625,0.1992187 -0.023437,0.058594 -0.09375,0.3632813 -0.140625,0.5390625 -0.070312,0.2578125 -0.140625,0.5273438 -0.1992188,0.796875 l -0.4453125,1.79296875 c -0.035156,0.15234375 -0.46875,0.85546875 -1.125,0.85546875 -0.5039062,0 -0.6210937,-0.4453125 -0.6210937,-0.80859375 0,-0.45703125 0.1757812,-1.07812495 0.515625,-1.95703125 0.1523437,-0.4101562 0.1992187,-0.515625 0.1992187,-0.7148437 0,-0.4453125 -0.328125,-0.8203125 -0.8203125,-0.8203125 -0.94921874,0 -1.31249999,1.453125 -1.31249999,1.5351562 0,0.1054688 0.09375,0.1054688 0.1171875,0.1054688 0.09375,0 0.10546875,-0.023437 0.15234375,-0.1875 C 0.83182031,-3.8905312 1.2302578,-4.1835 1.5701016,-4.1835 c 0.082031,0 0.2578125,0 0.2578125,0.3164063 0,0.2460937 -0.1054688,0.515625 -0.1757813,0.703125 -0.3984375,1.0546875 -0.5742187,1.6171875 -0.5742187,2.0859375 0,0.89062495 0.6210937,1.1835937 1.21875,1.1835937 0.3867187,0 0.7265625,-0.1640625 0.9960937,-0.4453125 C 3.1638516,0.175875 3.0466641,0.6680625 2.6482266,1.1954063 2.3904141,1.53525 2.0154141,1.8282188 1.5583828,1.8282188 c -0.140625,0 -0.59765624,-0.035156 -0.76171874,-0.421875 0.1640625,0 0.29296874,0 0.43359374,-0.1171875 C 1.3240078,1.1954063 1.4294766,1.0665 1.4294766,0.879 c 0,-0.31640625 -0.2695313,-0.3515625 -0.375,-0.3515625 -0.22265629,0 -0.55078129,0.1640625 -0.55078129,0.6445313 0,0.5039062 0.43359375,0.8671875 1.05468749,0.8671875 1.0195313,0 2.0507813,-0.9023438 2.3320313,-2.0273438 z m 0,0"
         style="fill:#008080;fill-opacity:1;fill-rule:nonzero;stroke:none" />
      <path
         id="path19"
         d="m 14.856234,-3.2577187 c 0.152344,0 0.339844,0 0.339844,-0.1992188 0,-0.1992187 -0.1875,-0.1992187 -0.328125,-0.1992187 H 8.9031094 c -0.140625,0 -0.328125,0 -0.328125,0.1992187 0,0.1992188 0.1875,0.1992188 0.3398437,0.1992188 z m 0.01172,1.9335937 c 0.140625,0 0.328125,0 0.328125,-0.1992187 0,-0.1992188 -0.1875,-0.1992188 -0.339844,-0.1992188 H 8.9148281 c -0.1523437,0 -0.3398437,0 -0.3398437,0.1992188 0,0.1992187 0.1875,0.1992187 0.328125,0.1992187 z m 4.813477,-0.84375 c 0,-1.6289062 0.820312,-2.0507812 1.347656,-2.0507812 0.09375,0 0.714844,0.011719 1.066406,0.375 -0.410156,0.023437 -0.46875,0.328125 -0.46875,0.4570312 0,0.2578125 0.1875,0.4570313 0.457031,0.4570313 0.257813,0 0.457032,-0.1640625 0.457032,-0.46875 0,-0.6796875 -0.75,-1.0664063 -1.523438,-1.0664063 -1.242187,0 -2.15625,1.078125 -2.15625,2.3085938 0,1.2773437 0.984375,2.2617187 2.144531,2.2617187 1.335938,0 1.652344,-1.1953125 1.652344,-1.2890625 0,-0.1054687 -0.105469,-0.1054687 -0.128906,-0.1054687 -0.09375,0 -0.117188,0.046875 -0.128906,0.1054687 -0.292969,0.92578125 -0.9375,1.04296875 -1.3125,1.04296875 -0.527344,0 -1.40625,-0.421875 -1.40625,-2.02734375 z m 7.954101,0.035156 c 0,-1.2773438 -0.996093,-2.3320313 -2.191406,-2.3320313 -1.253906,0 -2.214844,1.0898438 -2.214844,2.3320313 0,1.28906245 1.03125,2.2382812 2.203125,2.2382812 1.207032,0 2.203125,-0.97265625 2.203125,-2.2382812 z m -2.191406,1.99218745 c -0.433594,0 -0.867187,-0.2109375 -1.136719,-0.66796875 -0.257812,-0.4335937 -0.257812,-1.0429687 -0.257812,-1.40625 0,-0.3867187 0,-0.9257812 0.246094,-1.359375 0.269531,-0.4570312 0.738281,-0.6679687 1.136718,-0.6679687 0.433594,0 0.867188,0.2226562 1.125,0.6445312 0.257813,0.4335938 0.257813,1.0078125 0.257813,1.3828125 0,0.3632813 0,0.9023438 -0.222656,1.3359375 -0.222657,0.4453125 -0.65625,0.73828125 -1.148438,0.73828125 z M 30.005648,-1.9335 c 0.222657,0.035156 1.03125,0.1992188 1.03125,0.9140625 0,0.515625 -0.351562,0.9140625 -1.125,0.9140625 -0.832031,0 -1.195312,-0.57421875 -1.382812,-1.4179687 -0.03516,-0.1289063 -0.03516,-0.1757813 -0.140625,-0.1757813 -0.128906,0 -0.128906,0.070312 -0.128906,0.2578125 v 1.3125 c 0,0.1640625 0,0.234375 0.105468,0.234375 0.05859,0 0.07031,0 0.257813,-0.19921875 0.01172,-0.01171875 0.01172,-0.03515625 0.199219,-0.22265625 0.433593,0.421875 0.878906,0.421875 1.089843,0.421875 1.148438,0 1.605469,-0.66796875 1.605469,-1.3828125 0,-0.5273437 -0.292969,-0.8203125 -0.421875,-0.9492187 -0.328125,-0.3164063 -0.714844,-0.3984375 -1.136719,-0.46875 -0.550781,-0.1171875 -1.21875,-0.2460938 -1.21875,-0.8203125 0,-0.3515625 0.257813,-0.7617188 1.113282,-0.7617188 1.101562,0 1.148437,0.9023438 1.171875,1.2070313 0,0.09375 0.09375,0.09375 0.117187,0.09375 0.128906,0 0.128906,-0.046875 0.128906,-0.2460938 v -0.9960937 c 0,-0.1757813 0,-0.2460938 -0.117187,-0.2460938 -0.04687,0 -0.07031,0 -0.199219,0.1171875 -0.02344,0.046875 -0.128906,0.1289063 -0.164062,0.1640625 -0.375,-0.28125 -0.785157,-0.28125 -0.9375,-0.28125 -1.21875,0 -1.59375,0.6679688 -1.59375,1.2304688 0,0.3398437 0.164062,0.6210937 0.433593,0.84375 0.316407,0.2578125 0.597657,0.3164062 1.3125,0.4570312 z m 0,0"
         style="fill:#008080;fill-opacity:1;fill-rule:nonzero;stroke:none" />
      <path
         id="path20"
         d="m 36.852328,-3.011625 c 0.05859,-0.2578125 0.292969,-1.171875 0.984375,-1.171875 0.04687,0 0.292969,0 0.503906,0.1289063 -0.28125,0.046875 -0.480468,0.3046875 -0.480468,0.5390625 0,0.1640625 0.105468,0.3515625 0.375,0.3515625 0.222656,0 0.539062,-0.1875 0.539062,-0.5859375 0,-0.515625 -0.585937,-0.65625 -0.925781,-0.65625 -0.574219,0 -0.925781,0.5273437 -1.042969,0.7617187 -0.257812,-0.65625 -0.785156,-0.7617187 -1.078125,-0.7617187 -1.042969,0 -1.605469,1.2890625 -1.605469,1.5351562 0,0.1054688 0.105469,0.1054688 0.117188,0.1054688 0.08203,0 0.117187,-0.023437 0.128906,-0.1171875 0.339844,-1.0546875 0.996094,-1.3007813 1.335938,-1.3007813 0.1875,0 0.539062,0.09375 0.539062,0.6679688 0,0.3046875 -0.164062,0.9726562 -0.539062,2.3671875 -0.152344,0.6210937 -0.503907,1.0429687 -0.949219,1.0429687 -0.05859,0 -0.28125,0 -0.492188,-0.12890625 0.246094,-0.0585938 0.46875,-0.26953125 0.46875,-0.5390625 0,-0.26953125 -0.222656,-0.35156245 -0.375,-0.35156245 -0.292968,0 -0.539062,0.25781245 -0.539062,0.5742187 0,0.45703125 0.492187,0.65625 0.9375,0.65625 0.65625,0 1.007812,-0.69140625 1.042969,-0.75 0.117187,0.36328125 0.480468,0.75 1.078125,0.75 1.019531,0 1.59375,-1.2773437 1.59375,-1.5351562 0,-0.09375 -0.09375,-0.09375 -0.128907,-0.09375 -0.08203,0 -0.105468,0.035156 -0.128906,0.1054687 -0.328125,1.06640625 -0.996094,1.3125 -1.324219,1.3125 -0.386718,0 -0.539062,-0.328125 -0.539062,-0.65625 0,-0.22265625 0.05859,-0.4453125 0.164062,-0.8789062 z m 0,0"
         style="fill:#008080;fill-opacity:1;fill-rule:nonzero;stroke:none" />
    </g>
    <path
       id="path21"
       d="m 2.1671406,-2.53025 h 0.8320313 c -0.1054688,0.421875 -0.2578125,1.0546875 -0.2578125,1.60546875 0,0.28125 0.035156,0.46875 0.070312,0.62109375 0.1171875,0.3515625 0.2109375,0.375 0.3164062,0.375 0.1640625,0 0.328125,-0.15234375 0.328125,-0.31640625 0,-0.0585938 -0.011719,-0.0820313 -0.058594,-0.15234375 -0.1289063,-0.2578125 -0.2578125,-0.65625 -0.2578125,-1.2304687 0,-0.1289063 0,-0.4101563 0.1054687,-0.9023438 h 0.8671875 c 0.1289063,0 0.1875,0 0.2578125,-0.058594 0.09375,-0.070312 0.1171875,-0.1757813 0.1171875,-0.2109375 C 4.4874531,-2.999 4.3116719,-2.999 4.1944844,-2.999 H 1.5577656 c -0.28125,0 -0.4804687,0.058594 -0.79687497,0.3515625 -0.17578125,0.1640625 -0.4453125,0.5390625 -0.4453125,0.5976563 0,0.082031 0.09375,0.082031 0.1171875,0.082031 0.0703125,0 0.0820313,-0.011719 0.12890625,-0.070312 C 0.91323438,-2.53025 1.3468281,-2.53025 1.4991719,-2.53025 h 0.421875 c -0.2109375,0.7617188 -0.5859375,1.59375 -0.796875,2.00390625 -0.046875,0.09375 -0.1171875,0.24609375 -0.14062502,0.26953125 0,0.0234375 -0.0117188,0.0585938 -0.0117188,0.10546875 0,0.10546875 0.0820313,0.22265625 0.24609372,0.22265625 0.2695312,0 0.3515625,-0.31640625 0.515625,-0.9375 z m 0,0"
       style="fill:#ec008c;fill-opacity:1;fill-rule:nonzero;stroke:none"
       aria-label="π"
       transform="matrix(1.3333333,0,0,1.3333333,126.60267,198.49867)" />
    <path
       id="path22"
       d="M 0,0 H 4.909"
       style="fill:none;stroke:#ec008c;stroke-width:0.398;stroke-linecap:butt;stroke-linejoin:miter;stroke-miterlimit:10;stroke-dasharray:none;stroke-opacity:1"
       transform="matrix(1.3333333,0,0,-1.3333333,126.60267,200.408)" />
    <path
       id="path23"
       d="M 3.6903281,-1.1489922 V -1.3950859 H 2.9168906 v -3.1054688 c 0,-0.1523437 0,-0.1992187 -0.1523437,-0.1992187 -0.09375,0 -0.1171875,0 -0.1875,0.09375 l -2.30859377,3.2109375 v 0.2460937 H 2.3192344 v 0.57421876 c 0,0.234375 0,0.328125 -0.5625,0.328125 h -0.1875 V -5.546875e-4 C 1.9207969,-0.01227344 2.3661094,-0.02399219 2.6122031,-0.02399219 c 0.2578125,0 0.703125,0.01171875 1.0546875,0.0234375025 V -0.24664844 h -0.1875 c -0.5625,0 -0.5625,-0.09375 -0.5625,-0.328125 V -1.1489922 Z M 2.3661094,-3.9497734 v 2.5546875 H 0.52626563 Z m 0,0"
       style="fill:#ec008c;fill-opacity:1;fill-rule:nonzero;stroke:none"
       aria-label="4"
       transform="matrix(1.3333333,0,0,1.3333333,127.228,208.30933)" />
    <path
       id="path24"
       d="m 2.1674844,-2.53025 h 0.8320312 c -0.1054687,0.421875 -0.2578125,1.0546875 -0.2578125,1.60546875 0,0.28125 0.035156,0.46875 0.070312,0.62109375 0.1171875,0.3515625 0.2109375,0.375 0.3164063,0.375 0.1640625,0 0.328125,-0.15234375 0.328125,-0.31640625 0,-0.0585938 -0.011719,-0.0820313 -0.058594,-0.15234375 -0.1289062,-0.2578125 -0.2578125,-0.65625 -0.2578125,-1.2304687 0,-0.1289063 0,-0.4101563 0.1054688,-0.9023438 h 0.8671875 c 0.1289062,0 0.1875,0 0.2578125,-0.058594 0.09375,-0.070312 0.1171875,-0.1757813 0.1171875,-0.2109375 C 4.4877969,-2.999 4.3120156,-2.999 4.1948281,-2.999 H 1.5581094 c -0.28125,0 -0.4804688,0.058594 -0.79687502,0.3515625 -0.17578125,0.1640625 -0.4453125,0.5390625 -0.4453125,0.5976563 0,0.082031 0.09375,0.082031 0.1171875,0.082031 0.0703125,0 0.0820313,-0.011719 0.12890625,-0.070312 C 0.91357813,-2.53025 1.3471719,-2.53025 1.4995156,-2.53025 h 0.421875 c -0.2109375,0.7617188 -0.5859375,1.59375 -0.796875,2.00390625 -0.046875,0.09375 -0.1171875,0.24609375 -0.14062497,0.26953125 0,0.0234375 -0.0117188,0.0585938 -0.0117188,0.10546875 0,0.10546875 0.0820312,0.22265625 0.24609377,0.22265625 0.2695313,0 0.3515625,-0.31640625 0.515625,-0.9375 z m 0,0"
       style="fill:#ec008c;fill-opacity:1;fill-rule:nonzero;stroke:none"
       aria-label="π"
       transform="matrix(1.3333333,0,0,1.3333333,153.30533,198.49867)" />
    <path
       id="path25"
       d="M 0,0 H 4.909"
       style="fill:none;stroke:#ec008c;stroke-width:0.398;stroke-linecap:butt;stroke-linejoin:miter;stroke-miterlimit:10;stroke-dasharray:none;stroke-opacity:1"
       transform="matrix(1.3333333,0,0,-1.3333333,153.30533,200.408)" />
    <path
       id="path26"
       d="m 3.5148906,-1.2661797 h -0.234375 c -0.023437,0.1523438 -0.082031,0.56250001 -0.1757812,0.63281251 -0.058594,0.0351563 -0.5976563,0.0351563 -0.6914063,0.0351563 H 1.1242656 c 0.7382813,-0.64453121 0.984375,-0.84374991 1.3945313,-1.17187491 0.515625,-0.4101563 0.9960937,-0.8437501 0.9960937,-1.5000001 0,-0.8437499 -0.7382812,-1.3593749 -1.6289062,-1.3593749 -0.8671875,0 -1.45312502,0.609375 -1.45312502,1.2421874 0,0.3632812 0.3046875,0.3984375 0.375,0.3984375 0.1640625,0 0.37500002,-0.1171875 0.37500002,-0.375 0,-0.1289063 -0.058594,-0.3632813 -0.42187502,-0.3632813 0.22265625,-0.5039061 0.69140622,-0.6562499 1.01953122,-0.6562499 0.703125,0 1.0664063,0.5507813 1.0664063,1.1132812 0,0.609375 -0.4335938,1.0898438 -0.65625,1.3359376 l -1.68750002,1.66406241 c -0.0703125,0.0585938 -0.0703125,0.0703125 -0.0703125,0.2695312525 H 3.3156719 Z m 0,0"
       style="fill:#ec008c;fill-opacity:1;fill-rule:nonzero;stroke:none"
       aria-label="2"
       transform="matrix(1.3333333,0,0,1.3333333,153.93067,208.30933)" />
  </g>
</svg>
