<?xml version="1.0" encoding="UTF-8" standalone="no"?>
<!-- Created with Inkscape (http://www.inkscape.org/) -->

<svg
   version="1.1"
   id="svg1"
   width="297.3284"
   height="225.82048"
   viewBox="0 0 297.3284 225.82048"
   sodipodi:docname="6.1-area-entre-curvas.svg"
   inkscape:version="1.4.2 (f4327f4, 2025-05-13)"
   xmlns:inkscape="http://www.inkscape.org/namespaces/inkscape"
   xmlns:sodipodi="http://sodipodi.sourceforge.net/DTD/sodipodi-0.dtd"
   xmlns="http://www.w3.org/2000/svg"
   xmlns:svg="http://www.w3.org/2000/svg">
  <defs
     id="defs1" />
  <sodipodi:namedview
     id="namedview1"
     pagecolor="#ffffff"
     bordercolor="#000000"
     borderopacity="0.25"
     inkscape:showpageshadow="2"
     inkscape:pageopacity="0.0"
     inkscape:pagecheckerboard="0"
     inkscape:deskcolor="#d1d1d1"
     inkscape:zoom="2.2241536"
     inkscape:cx="151.74312"
     inkscape:cy="123.41773"
     inkscape:window-width="1920"
     inkscape:window-height="1009"
     inkscape:window-x="-8"
     inkscape:window-y="-8"
     inkscape:window-maximized="1"
     inkscape:current-layer="g1">
    <inkscape:page
       x="1.2391709e-07"
       y="7.6390825e-07"
       inkscape:label="17"
       id="page1"
       width="297.3284"
       height="225.82048"
       margin="0"
       bleed="0" />
  </sodipodi:namedview>
  <g
     id="g1"
     inkscape:groupmode="layer"
     inkscape:label="17"
     transform="translate(-90.206764,-57.800781)">
    <path
       id="path2"
       d="M -25.51193,0 H 178.1254"
       style="fill:none;stroke:#000000;stroke-width:0.3985;stroke-linecap:butt;stroke-linejoin:miter;stroke-miterlimit:10;stroke-dasharray:none;stroke-opacity:1"
       transform="matrix(1.3333333,0,0,-1.3333333,124.22267,266.61333)" />
    <path
       id="path3"
       d="M -1.19551,1.59401 C -1.09587,0.99626 0,0.09961 0.29886,0 0,-0.09961 -1.09587,-0.99626 -1.19551,-1.59401"
       style="fill:none;stroke:#000000;stroke-width:0.31879;stroke-linecap:round;stroke-linejoin:round;stroke-miterlimit:10;stroke-dasharray:none;stroke-opacity:1"
       transform="matrix(1.3333333,0,0,-1.3333333,361.7232,266.61333)" />
    <path
       id="path4"
       d="m 3.6453672,-3.2918281 c 0.070312,-0.28125 0.3164062,-1.2890625 1.078125,-1.2890625 0.058594,0 0.3164062,0 0.5507812,0.140625 -0.3046875,0.058594 -0.5273437,0.328125 -0.5273437,0.5859375 0,0.1757812 0.1171875,0.3867187 0.4101562,0.3867187 0.2460938,0 0.5976563,-0.1992187 0.5976563,-0.6328125 0,-0.5625 -0.6445313,-0.7265625 -1.0195313,-0.7265625 -0.6328125,0 -1.0195312,0.5859375 -1.1484375,0.8320313 -0.2695312,-0.7148438 -0.8554687,-0.8320313 -1.171875,-0.8320313 -1.1367187,0 -1.75781246,1.4179688 -1.75781246,1.6875 0,0.1054688 0.10546875,0.1054688 0.12890625,0.1054688 0.0820313,0 0.1171875,-0.023437 0.140625,-0.1171875 0.37500001,-1.1601563 1.08984371,-1.4296875 1.46484371,-1.4296875 0.2109375,0 0.5859375,0.09375 0.5859375,0.7265625 0,0.3398437 -0.1875,1.078125 -0.5859375,2.6015625 -0.1757812,0.67968747 -0.5625,1.13671872 -1.0429687,1.13671872 -0.058594,0 -0.3164063,0 -0.53906251,-0.140625 0.26953121,-0.0585938 0.51562501,-0.29296875 0.51562501,-0.59765625 0,-0.29296877 -0.2460938,-0.37499997 -0.41015626,-0.37499997 -0.328125,0 -0.59765625,0.28124997 -0.59765625,0.63281247 0,0.50390625 0.55078125,0.71484375 1.03125001,0.71484375 0.7148437,0 1.1015625,-0.76171875 1.1367187,-0.83203125 0.1289063,0.41015625 0.5273438,0.83203125 1.1835938,0.83203125 1.125,0 1.7460937,-1.40625002 1.7460937,-1.67578122 0,-0.1054688 -0.1054687,-0.1054688 -0.1289062,-0.1054688 -0.1054688,0 -0.1289063,0.035156 -0.140625,0.1171875 -0.3632813,1.16015627 -1.1132813,1.42968752 -1.453125,1.42968752 -0.4335938,0 -0.609375,-0.3515625 -0.609375,-0.7265625 0,-0.23437502 0.070312,-0.48046872 0.1875,-0.96093752 z m 0,0"
       style="fill:#000000;fill-opacity:1;fill-rule:nonzero;stroke:none"
       aria-label="x"
       transform="matrix(1.3333333,0,0,1.3333333,358.17467,277.99067)" />
    <path
       id="path5"
       d="m 0,-12.75595 v 165.3694"
       style="fill:none;stroke:#000000;stroke-width:0.3985;stroke-linecap:butt;stroke-linejoin:miter;stroke-miterlimit:10;stroke-dasharray:none;stroke-opacity:1"
       transform="matrix(1.3333333,0,0,-1.3333333,124.22267,266.61333)" />
    <path
       id="path6"
       d="M -1.19551,1.59401 C -1.09587,0.99626 0,0.09961 0.29886,0 0,-0.09961 -1.09587,-0.99626 -1.19551,-1.59401"
       style="fill:none;stroke:#000000;stroke-width:0.31879;stroke-linecap:round;stroke-linejoin:round;stroke-miterlimit:10;stroke-dasharray:none;stroke-opacity:1"
       transform="matrix(0,-1.3333333,-1.3333333,0,124.22267,63.128733)" />
    <path
       id="path7"
       d="m 5.2976484,-4.1594453 c 0.046875,-0.1523438 0.046875,-0.1757813 0.046875,-0.2460938 0,-0.1992187 -0.1523437,-0.2929687 -0.3164062,-0.2929687 -0.1054688,0 -0.28125,0.058594 -0.375,0.2226562 -0.023437,0.058594 -0.1171875,0.3984375 -0.1523438,0.5976563 -0.082031,0.28125 -0.1523437,0.5742187 -0.2226562,0.8671875 l -0.4921875,1.96875 c -0.046875,0.16406249 -0.515625,0.92578124 -1.2304688,0.92578124 -0.5625,0 -0.6796875,-0.48046875 -0.6796875,-0.89062504 0,-0.4921875 0.1875,-1.171875 0.5625,-2.1328125 0.1757813,-0.4453125 0.2109375,-0.5742187 0.2109375,-0.7851562 0,-0.4921875 -0.3515625,-0.9023438 -0.890625,-0.9023438 -1.04296871,0 -1.44140621,1.5820313 -1.44140621,1.6875 0,0.1054688 0.10546875,0.1054688 0.12890625,0.1054688 0.10546875,0 0.1171875,-0.023437 0.17578125,-0.1992188 0.29296875,-1.0195312 0.72656251,-1.3476562 1.10156251,-1.3476562 0.09375,0 0.2695312,0 0.2695312,0.3515625 0,0.2695312 -0.1054687,0.5507812 -0.1757812,0.7617187 -0.4453125,1.1601563 -0.6328125,1.78125 -0.6328125,2.2851563 0,0.97265624 0.6796875,1.30078124 1.3242187,1.30078124 0.421875,0 0.796875,-0.1875 1.1015625,-0.4921875 -0.140625,0.57421875 -0.2695312,1.1015625 -0.703125,1.68749996 -0.2929687,0.3632813 -0.703125,0.6796875 -1.2070312,0.6796875 -0.1523438,0 -0.6445313,-0.023437 -0.83203126,-0.4570312 0.17578126,0 0.31640626,0 0.48046876,-0.1289063 0.1054687,-0.09375 0.2109375,-0.234375 0.2109375,-0.44531246 0,-0.33984375 -0.2929688,-0.38671875 -0.3984375,-0.38671875 -0.25781251,0 -0.60937501,0.17578125 -0.60937501,0.71484371 0,0.5390625 0.48046871,0.9492188 1.14843751,0.9492188 1.125,0 2.25,-0.9960938 2.5546875,-2.22656251 z m 0,0"
       style="fill:#000000;fill-opacity:1;fill-rule:nonzero;stroke:none"
       aria-label="y"
       transform="matrix(1.3333333,0,0,1.3333333,111.456,64.237333)" />
    <path
       id="path8"
       d="m 25.51193,123.51434 c 0,0 0.46297,0.24715 0.64077,0.33945 0.17779,0.0923 0.46296,0.23741 0.64074,0.32582 0.1778,0.0884 0.46297,0.22693 0.64076,0.31145 0.1778,0.0845 0.46296,0.21727 0.64077,0.29779 0.17779,0.0805 0.46295,0.20605 0.64076,0.28262 0.17781,0.0766 0.46295,0.19692 0.64076,0.26938 0.17778,0.0725 0.46295,0.18466 0.64075,0.25304 0.17778,0.0684 0.46295,0.17547 0.64075,0.23979 0.17779,0.0643 0.46296,0.16379 0.64076,0.22385 0.17779,0.06 0.46296,0.15313 0.64076,0.20903 0.17779,0.0559 0.46297,0.14228 0.64076,0.19387 0.1778,0.0516 0.46297,0.13048 0.64075,0.17789 0.17779,0.0474 0.46295,0.12091 0.64075,0.16388 0.17782,0.043 0.46296,0.10744 0.64077,0.14598 0.17781,0.0386 0.46297,0.0977 0.64075,0.13199 0.17781,0.0343 0.46297,0.0854 0.64076,0.11522 0.1778,0.0298 0.46297,0.0742 0.64077,0.0996 0.17778,0.0255 0.46293,0.0631 0.64074,0.0841 0.17781,0.021 0.46295,0.0507 0.64078,0.0674 0.1778,0.0167 0.46295,0.0407 0.64075,0.0529 0.17779,0.0122 0.46295,0.0274 0.64076,0.0351 0.17778,0.008 0.46295,0.0173 0.64075,0.0206 0.17778,0.003 0.46295,0.004 0.64074,0.003 0.17781,-0.001 0.46297,-0.007 0.64078,-0.0125 0.1778,-0.006 0.46297,-0.0186 0.64075,-0.0288 0.17779,-0.0102 0.46297,-0.0302 0.64075,-0.0448 0.17781,-0.0146 0.46296,-0.0413 0.64076,-0.0603 0.17781,-0.019 0.46296,-0.0533 0.64076,-0.0767 0.17783,-0.0234 0.46296,-0.064 0.64076,-0.0919 0.1778,-0.0279 0.46297,-0.077 0.64075,-0.10939 0.1778,-0.0324 0.46297,-0.0871 0.64076,-0.12379 0.17779,-0.0367 0.46295,-0.0995 0.64076,-0.14052 0.1778,-0.041 0.46296,-0.11002 0.64077,-0.15534 0.17781,-0.0453 0.46295,-0.12161 0.64076,-0.17128 0.17778,-0.0497 0.46295,-0.13301 0.64075,-0.18685 0.17778,-0.0538 0.46295,-0.14304 0.64075,-0.20125 0.17779,-0.0582 0.46294,-0.15601 0.64076,-0.21839 0.17779,-0.0624 0.46296,-0.1647 0.64076,-0.23123 0.17779,-0.0665 0.46296,-0.17767 0.64076,-0.24837 0.1778,-0.0707 0.46297,-0.18652 0.64075,-0.2612 0.17779,-0.0747 0.46295,-0.19833 0.64074,-0.27719 0.17783,-0.0788 0.46297,-0.20848 0.64078,-0.29117 0.17781,-0.0827 0.46297,-0.21818 0.64075,-0.30482 0.17781,-0.0866 0.46297,-0.22911 0.64076,-0.31958 0.1778,-0.0905 0.46297,-0.23811 0.64076,-0.33246 0.17778,-0.0943 0.46294,-0.24948 0.64075,-0.34763 0.17781,-0.0981 0.46295,-0.25794 0.64078,-0.35969 0.17779,-0.10175 0.46295,-0.26828 0.64075,-0.3737 0.17779,-0.10544 0.46295,-0.27713 0.64076,-0.38619 0.17778,-0.10902 0.46294,-0.28721 0.64074,-0.39978 0.1778,-0.11255 0.46296,-0.29562 0.64077,-0.41148 0.17781,-0.11583 0.46296,-0.30432 0.64076,-0.42353 0.17778,-0.1192 0.46297,-0.31317 0.64075,-0.4356 0.17779,-0.12244 0.46296,-0.32112 0.64074,-0.4469 0.17781,-0.1258 0.46297,-0.33081 0.64077,-0.45974 0.17781,-0.12892 0.46296,-0.33764 0.64076,-0.46946 0.17782,-0.13184 0.46297,-0.34598 0.64076,-0.48079 0.17779,-0.1348 0.46297,-0.35325 0.64075,-0.49086 0.17779,-0.13762 0.46296,-0.36054 0.64076,-0.50102 0.1778,-0.14047 0.46295,-0.36834 0.64076,-0.51151 0.1778,-0.14317 0.46295,-0.37469 0.64076,-0.52046 0.17782,-0.14578 0.46296,-0.38196 0.64076,-0.53021 0.17779,-0.14826 0.46296,-0.38774 0.64075,-0.53838 0.17778,-0.15063 0.46294,-0.39431 0.64075,-0.54733 0.17781,-0.15302 0.46295,-0.40022 0.64078,-0.5555 0.17779,-0.15528 0.46297,-0.40625 0.64075,-0.56368 0.17779,-0.15745 0.46297,-0.41177 0.64076,-0.57108 0.17779,-0.15932 0.46296,-0.41597 0.64075,-0.5773 0.17779,-0.16132 0.46295,-0.42231 0.64074,-0.58548 0.17783,-0.16318 0.46297,-0.42571 0.64078,-0.59055 0.17781,-0.16483 0.46297,-0.43109 0.64074,-0.59755 0.17782,-0.16646 0.46297,-0.43419 0.64077,-0.6022 0.17779,-0.16803 0.46297,-0.43935 0.64076,-0.60884 0.17778,-0.16948 0.46294,-0.44208 0.64075,-0.61274 0.17781,-0.17066 0.46295,-0.44549 0.64078,-0.61741 0.17779,-0.17191 0.46295,-0.44873 0.64074,-0.62166 0.1778,-0.17294 0.46295,-0.45089 0.64077,-0.62479 0.17778,-0.17392 0.46293,-0.45388 0.64074,-0.6287 0.1778,-0.17484 0.46295,-0.45583 0.64076,-0.63143 0.17782,-0.17558 0.46297,-0.45785 0.64077,-0.63412 0.17778,-0.1763 0.46296,-0.45972 0.64074,-0.63649 0.1778,-0.17676 0.46297,-0.46054 0.64075,-0.63762 0.17781,-0.17711 0.46297,-0.46134 0.64077,-0.63883 0.1778,-0.17747 0.46296,-0.46267 0.64076,-0.64036 0.17782,-0.17771 0.46296,-0.46268 0.64076,-0.64037 0.17779,-0.17772 0.46297,-0.46268 0.64075,-0.64038 0.17779,-0.1777 0.46296,-0.4627 0.64074,-0.64036 0.17781,-0.17763 0.46297,-0.4626 0.64078,-0.63999 0.1778,-0.17735 0.46295,-0.46148 0.64076,-0.63841 0.1778,-0.17693 0.46295,-0.46036 0.64076,-0.63687 0.17779,-0.1765 0.46296,-0.45935 0.64075,-0.6353 0.17778,-0.17597 0.46294,-0.45777 0.64075,-0.63298 0.17781,-0.1752 0.46295,-0.45545 0.64078,-0.62985 0.17779,-0.1744 0.46296,-0.4536 0.64074,-0.62714 0.1778,-0.17354 0.46297,-0.45111 0.64077,-0.62361 0.17779,-0.17252 0.46296,-0.44838 0.64074,-0.61975 0.1778,-0.17139 0.46296,-0.44532 0.64075,-0.61547 0.17783,-0.17012 0.46297,-0.44206 0.64078,-0.61076 0.17781,-0.16873 0.46296,-0.43802 0.64074,-0.60535 0.17782,-0.16732 0.46297,-0.4349 0.64077,-0.60066 0.17779,-0.16575 0.46295,-0.42996 0.64074,-0.59404 0.17781,-0.16409 0.46297,-0.42624 0.64078,-0.58859 0.17781,-0.16234 0.46295,-0.42111 0.64076,-0.58159 0.17778,-0.16045 0.46296,-0.41656 0.64075,-0.57497 0.17779,-0.1584 0.46295,-0.41043 0.64076,-0.56678 0.17778,-0.15636 0.46294,-0.40595 0.64075,-0.56018 0.1778,-0.15425 0.46295,-0.39969 0.64076,-0.55161 0.17782,-0.15193 0.46297,-0.39383 0.64077,-0.54344 0.17778,-0.14961 0.46296,-0.38776 0.64074,-0.53487 0.1778,-0.14713 0.46297,-0.38095 0.64075,-0.52554 0.17781,-0.14459 0.46296,-0.37468 0.64076,-0.51657 0.17781,-0.14188 0.46297,-0.36688 0.64076,-0.50608 0.17783,-0.13919 0.46297,-0.36067 0.64077,-0.4971 0.17779,-0.13642 0.46297,-0.35281 0.64074,-0.48622 0.1778,-0.13339 0.46295,-0.34488 0.64075,-0.47529 0.17783,-0.13043 0.46297,-0.33742 0.64079,-0.46483 0.1778,-0.12738 0.46295,-0.32923 0.64075,-0.4535 0.1778,-0.12426 0.46295,-0.32125 0.64076,-0.44222 0.17778,-0.12101 0.46295,-0.31205 0.64075,-0.42978 0.17778,-0.11774 0.46293,-0.30452 0.64075,-0.41886 0.17781,-0.11433 0.46295,-0.29437 0.64078,-0.40524 0.17779,-0.11088 0.46296,-0.28657 0.64074,-0.39397 0.1778,-0.10736 0.46297,-0.27623 0.64076,-0.37993 0.1778,-0.10368 0.46297,-0.2674 0.64075,-0.36749 0.1778,-0.10008 0.46295,-0.25755 0.64075,-0.35385 0.17782,-0.09628 0.46296,-0.2476 0.64078,-0.34024 0.17781,-0.09262 0.46296,-0.23863 0.64074,-0.32738 0.17781,-0.08874 0.46297,-0.22737 0.64076,-0.31221 0.1778,-0.08483 0.46296,-0.21844 0.64075,-0.29936 0.17781,-0.08089 0.46297,-0.20692 0.64078,-0.28377 0.17781,-0.07685 0.46295,-0.1973 0.64076,-0.27017 0.17778,-0.07284 0.46295,-0.18628 0.64075,-0.25497 0.17779,-0.06871 0.46295,-0.17554 0.64076,-0.24019 0.17778,-0.06465 0.46294,-0.16535 0.64075,-0.22579 0.17779,-0.06044 0.46295,-0.15354 0.64076,-0.20982 0.17781,-0.05627 0.46297,-0.14386 0.64076,-0.1958 0.17778,-0.05194 0.46297,-0.131 0.64075,-0.17868 0.17778,-0.04768 0.46295,-0.12168 0.64075,-0.16505 0.17782,-0.04337 0.46296,-0.1086 0.64077,-0.14756 0.17782,-0.03892 0.46297,-0.0984 0.64075,-0.13311 0.17781,-0.03473 0.46297,-0.08701 0.64076,-0.11718 0.1778,-0.03019 0.46297,-0.07458 0.64075,-0.10045 0.1778,-0.02584 0.46295,-0.06465 0.64075,-0.08603 0.17782,-0.02137 0.46297,-0.05116 0.64079,-0.06811 0.1778,-0.01695 0.46295,-0.04155 0.64075,-0.05412 0.17779,-0.01257 0.46295,-0.02854 0.64076,-0.03658 0.17778,-0.008 0.46295,-0.01774 0.64075,-0.02142 0.17778,-0.0037 0.46293,-0.0059 0.64074,-0.005 0.17782,8.5e-4 0.46296,0.0059 0.64078,0.01129 0.1778,0.0053 0.46297,0.01742 0.64075,0.02724 0.17779,0.0098 0.46297,0.02945 0.64076,0.04361 0.17778,0.01413 0.46295,0.03971 0.64075,0.05838 0.17781,0.01867 0.46297,0.05319 0.64076,0.07631 0.17783,0.0231 0.46297,0.06288 0.64076,0.0903 0.1778,0.02745 0.46297,0.07547 0.64075,0.10745 0.17781,0.03197 0.46297,0.08667 0.64077,0.12302 0.17779,0.03633 0.46294,0.09825 0.64074,0.13898 0.17781,0.0407 0.46296,0.1096 0.64078,0.15452 0.17781,0.04494 0.46295,0.12004 0.64076,0.16934 0.17778,0.04932 0.46295,0.13255 0.64075,0.18608 0.17779,0.05353 0.46295,0.14191 0.64074,0.19971 0.1778,0.05778 0.46296,0.15472 0.64077,0.21683 0.17779,0.0621 0.46295,0.16464 0.64076,0.23085 0.17781,0.06619 0.46295,0.17602 0.64076,0.24639 0.17778,0.07038 0.46297,0.18647 0.64075,0.26084 0.17778,0.07437 0.46295,0.19679 0.64075,0.27522 0.17782,0.07843 0.46296,0.2077 0.64077,0.29001 0.17781,0.08231 0.46297,0.21691 0.64075,0.30325 0.17781,0.08636 0.46297,0.22898 0.64076,0.3192 0.1778,0.09026 0.46297,0.23725 0.64075,0.33129 0.17779,0.09402 0.46295,0.24864 0.64075,0.34645 0.17782,0.0978 0.46296,0.25711 0.64079,0.35855 0.17779,0.10141 0.46295,0.26736 0.64075,0.37253 0.17779,0.10516 0.46295,0.27677 0.64076,0.38539 0.17778,0.10862 0.46295,0.28523 0.64075,0.39745 0.17778,0.11224 0.46293,0.29583 0.64074,0.41148 0.17781,0.11562 0.46295,0.30305 0.64078,0.42198 0.17779,0.11891 0.46295,0.31299 0.64075,0.43521 0.17779,0.12222 0.46296,0.32028 0.64076,0.44574 0.17778,0.12546 0.46295,0.32991 0.64075,0.45856 0.17781,0.12866 0.46296,0.33714 0.64076,0.4687 0.17782,0.13155 0.46297,0.345 0.64076,0.4796 0.1778,0.13458 0.46297,0.35303 0.64075,0.49048 0.17781,0.13746 0.46296,0.35997 0.64076,0.50024 0.1778,0.14026 0.46295,0.36783 0.64075,0.51074 0.17781,0.1429 0.46296,0.37374 0.64078,0.51929 0.17781,0.14557 0.46295,0.38178 0.64076,0.52982 0.17778,0.14802 0.46295,0.38679 0.64074,0.5372 0.1778,0.15042 0.46294,0.39403 0.64075,0.54695 0.17782,0.15291 0.46295,0.40004 0.64078,0.55511 0.17779,0.15506 0.46295,0.40535 0.64074,0.5625 0.1778,0.15718 0.46296,0.41109 0.64077,0.57032 0.17778,0.15922 0.46297,0.41613 0.64075,0.5773 0.17778,0.16118 0.46295,0.42129 0.64074,0.5843 0.17783,0.163 0.46297,0.42581 0.64078,0.59055 0.17781,0.16472 0.46296,0.4304 0.64075,0.59675 0.17781,0.16637 0.46296,0.43438 0.64076,0.60224 0.1778,0.16786 0.46297,0.43834 0.64075,0.60766 0.1778,0.16933 0.64074,0.61274 0.64074,0.61274 l 0.0491,-23.44021 c 0,0 -0.46296,-0.55514 -0.64078,-0.76687 -0.1778,-0.21173 -0.46294,-0.54938 -0.64075,-0.7591 -0.17778,-0.20973 -0.46295,-0.54455 -0.64075,-0.75248 -0.17779,-0.20793 -0.46293,-0.5401 -0.64076,-0.74625 -0.17779,-0.20616 -0.46295,-0.53515 -0.64076,-0.73965 -0.1778,-0.20449 -0.46297,-0.53148 -0.64075,-0.73417 -0.17779,-0.20271 -0.46297,-0.52601 -0.64076,-0.7268 -0.17779,-0.20081 -0.46297,-0.52155 -0.64075,-0.72057 -0.17781,-0.19902 -0.46295,-0.51668 -0.64076,-0.71393 -0.17781,-0.19726 -0.46297,-0.51216 -0.64076,-0.70771 -0.17781,-0.19558 -0.46297,-0.50809 -0.64075,-0.70188 -0.17781,-0.19378 -0.46297,-0.50299 -0.64076,-0.69488 -0.1778,-0.1919 -0.46295,-0.49817 -0.64076,-0.68824 -0.17781,-0.19007 -0.46295,-0.49336 -0.64078,-0.68164 -0.17779,-0.18828 -0.46295,-0.48874 -0.64075,-0.6754 -0.17778,-0.18666 -0.46295,-0.48506 -0.64074,-0.66995 -0.1778,-0.18487 -0.46296,-0.47961 -0.64077,-0.66255 -0.17778,-0.18295 -0.46293,-0.47479 -0.64074,-0.65594 -0.17781,-0.18114 -0.46296,-0.47036 -0.64078,-0.64972 -0.1778,-0.17937 -0.46297,-0.4654 -0.64075,-0.64309 -0.17778,-0.1777 -0.46296,-0.46174 -0.64075,-0.63765 -0.17781,-0.1759 -0.46296,-0.45622 -0.64076,-0.63024 -0.17779,-0.17402 -0.46295,-0.45179 -0.64075,-0.62403 -0.17782,-0.17224 -0.46296,-0.44693 -0.64077,-0.6174 -0.17781,-0.17045 -0.46297,-0.44238 -0.64075,-0.61116 -0.1778,-0.16879 -0.46297,-0.4384 -0.64075,-0.60535 -0.17781,-0.16694 -0.46295,-0.43287 -0.64076,-0.59791 -0.17781,-0.16507 -0.46297,-0.42838 -0.64077,-0.59171 -0.1778,-0.16333 -0.46296,-0.42395 -0.64075,-0.58549 -0.1778,-0.16153 -0.46295,-0.41904 -0.64077,-0.57884 -0.17778,-0.15982 -0.46295,-0.41501 -0.64074,-0.57305 -0.1778,-0.15803 -0.46294,-0.40985 -0.64077,-0.566 -0.17779,-0.15615 -0.46295,-0.40505 -0.64076,-0.55941 -0.17779,-0.15434 -0.46296,-0.40059 -0.64075,-0.55316 -0.17779,-0.15257 -0.46296,-0.39565 -0.64076,-0.54656 -0.1778,-0.15091 -0.46296,-0.39198 -0.64074,-0.54109 -0.17782,-0.14912 -0.46296,-0.38649 -0.64076,-0.53372 -0.17782,-0.14723 -0.46297,-0.38202 -0.64077,-0.52746 -0.17781,-0.14545 -0.46297,-0.37719 -0.64075,-0.52086 -0.17781,-0.14368 -0.46296,-0.37278 -0.64076,-0.51465 -0.17779,-0.14186 -0.46295,-0.36785 -0.64075,-0.50799 -0.17782,-0.14016 -0.46297,-0.3638 -0.64079,-0.50218 -0.17779,-0.13838 -0.46295,-0.35862 -0.64075,-0.49516 -0.17778,-0.13655 -0.46295,-0.35419 -0.64074,-0.48894 -0.1778,-0.13475 -0.46295,-0.34941 -0.64076,-0.48232 -0.17779,-0.13293 -0.46294,-0.34446 -0.64075,-0.47571 -0.17781,-0.13124 -0.46295,-0.34079 -0.64078,-0.47025 -0.1778,-0.12945 -0.46297,-0.3353 -0.64075,-0.46284 -0.17778,-0.12758 -0.46296,-0.33085 -0.64075,-0.45664 -0.1778,-0.12579 -0.46295,-0.32602 -0.64076,-0.45001 -0.17781,-0.12402 -0.46296,-0.32146 -0.64076,-0.44379 -0.17781,-0.12233 -0.46297,-0.31738 -0.64076,-0.43792 -0.1778,-0.12056 -0.46297,-0.31229 -0.64075,-0.43094 -0.17779,-0.11867 -0.46297,-0.3075 -0.64074,-0.42434 -0.17782,-0.11682 -0.46296,-0.30261 -0.64077,-0.4177 -0.17781,-0.11507 -0.46296,-0.29842 -0.64077,-0.41186 -0.1778,-0.11341 -0.46296,-0.29405 -0.64075,-0.40562 -0.1778,-0.11158 -0.46295,-0.28894 -0.64076,-0.39862 -0.17778,-0.10969 -0.46296,-0.2841 -0.64075,-0.39201 -0.1778,-0.1079 -0.46293,-0.27959 -0.64076,-0.38578 -0.1778,-0.10618 -0.46296,-0.2751 -0.64077,-0.37954 -0.17779,-0.10445 -0.46296,-0.27071 -0.64074,-0.37333 -0.1778,-0.10261 -0.46297,-0.26553 -0.64076,-0.36631 -0.1778,-0.10077 -0.46296,-0.26108 -0.64075,-0.36008 -0.17783,-0.09901 -0.46297,-0.25626 -0.64078,-0.35347 -0.17781,-0.09721 -0.46297,-0.25171 -0.64075,-0.34724 -0.17779,-0.09554 -0.46296,-0.24765 -0.64074,-0.3414 -0.17781,-0.09377 -0.46297,-0.24253 -0.64077,-0.3344 -0.17779,-0.09186 -0.46295,-0.23775 -0.64074,-0.32777 -0.17783,-0.09002 -0.46297,-0.23285 -0.6408,-0.32117 -0.17779,-0.08829 -0.46295,-0.22873 -0.64074,-0.31531 -0.17778,-0.08656 -0.46296,-0.22395 -0.64075,-0.30868 -0.1778,-0.08475 -0.46295,-0.21915 -0.64076,-0.3021 -0.17778,-0.08296 -0.46294,-0.21467 -0.64075,-0.29587 -0.17781,-0.08116 -0.46295,-0.20988 -0.64077,-0.28923 -0.1778,-0.07933 -0.46297,-0.20501 -0.64075,-0.28262 -0.17778,-0.0776 -0.46297,-0.20088 -0.64075,-0.27678 -0.1778,-0.07587 -0.46295,-0.1961 -0.64076,-0.27015 -0.17781,-0.07404 -0.46297,-0.19133 -0.64077,-0.26355 -0.17781,-0.07221 -0.46297,-0.18648 -0.64076,-0.25692 -0.17779,-0.07042 -0.46297,-0.18206 -0.64075,-0.2507 -0.17779,-0.06863 -0.46296,-0.17715 -0.64074,-0.24408 -0.17782,-0.06692 -0.46295,-0.17311 -0.64077,-0.23825 -0.17781,-0.06512 -0.46296,-0.16792 -0.64077,-0.23122 -0.1778,-0.06329 -0.46295,-0.1635 -0.64075,-0.22502 -0.1778,-0.0615 -0.46295,-0.1587 -0.64076,-0.21837 -0.1778,-0.05956 -0.46297,-0.1537 -0.64077,-0.21164 C 97.14803,28.8423 96.86288,28.75053 96.68506,28.69432 96.50726,28.6381 96.2221,28.54938 96.0443,28.49501 95.8665,28.44061 95.58133,28.35486 95.40355,28.3023 95.22575,28.24976 94.94058,28.16698 94.76279,28.11623 94.585,28.06546 94.29984,27.98547 94.12204,27.93639 93.94421,27.8873 93.65907,27.80963 93.48126,27.76237 93.30345,27.71512 93.0183,27.64119 92.84052,27.59576 92.66272,27.55034 92.37755,27.47867 92.19977,27.43498 92.02196,27.3913 91.7368,27.3227 91.559,27.28084 91.38121,27.23897 91.09605,27.17336 90.91826,27.13329 90.74043,27.09322 90.45529,27.03032 90.27747,26.99199 90.09967,26.95364 89.81451,26.8934 89.63672,26.8569 89.45894,26.8204 89.17377,26.7635 88.99597,26.72882 88.81818,26.69417 88.53304,26.63992 88.35521,26.60698 88.17741,26.57404 87.89226,26.52258 87.71445,26.49136 87.53665,26.46016 87.2515,26.41135 87.07368,26.38197 86.8959,26.35258 86.61073,26.30714 86.43294,26.27959 86.25516,26.25204 85.96997,26.20924 85.79219,26.18344 85.6144,26.15764 85.32924,26.11755 85.15143,26.09352 84.97362,26.0695 84.68846,26.03246 84.51067,26.01021 84.33286,25.98798 84.0477,25.9536 83.8699,25.93314 c -0.17779,-0.02048 -0.46296,-0.05185 -0.64074,-0.07047 -0.1778,-0.01861 -0.46297,-0.047 -0.64075,-0.06384 -0.17781,-0.01685 -0.46295,-0.04256 -0.64076,-0.05762 -0.17781,-0.01506 -0.46297,-0.03771 -0.64078,-0.05098 -0.1778,-0.01329 -0.46295,-0.03328 -0.64075,-0.04477 -0.17779,-0.0115 -0.46295,-0.02844 -0.64076,-0.03816 -0.17778,-0.0097 -0.46294,-0.02399 -0.64075,-0.03192 -0.17781,-0.0079 -0.46295,-0.01917 -0.64077,-0.0253 -0.1778,-0.0062 -0.46296,-0.01469 -0.64075,-0.01906 -0.17778,-0.0044 -0.46295,-0.0099 -0.64075,-0.01247 -0.17779,-0.0026 -0.46297,-0.0054 -0.64076,-0.0062 -0.17778,-8.1e-4 -0.46295,-5.8e-4 -0.64075,4e-4 -0.17783,9.8e-4 -0.46297,0.0039 -0.64078,0.0066 -0.17781,0.0027 -0.46296,0.0086 -0.64075,0.01323 -0.17779,0.0046 -0.46296,0.01351 -0.64074,0.01985 -0.17781,0.0064 -0.46296,0.01799 -0.64076,0.02609 -0.1778,0.0081 -0.46295,0.02238 -0.64075,0.03231 -0.17783,0.0099 -0.46297,0.0276 -0.64079,0.03931 -0.1778,0.01173 -0.46296,0.03172 -0.64075,0.04516 -0.17778,0.01346 -0.46295,0.03649 -0.64075,0.05179 -0.17779,0.01527 -0.46293,0.04132 -0.64076,0.05838 -0.1778,0.01706 -0.46295,0.04578 -0.64076,0.06462 -0.1778,0.01885 -0.46295,0.05061 -0.64076,0.07124 -0.17778,0.02063 -0.46295,0.05506 -0.64075,0.07746 -0.17778,0.02243 -0.46297,0.05986 -0.64075,0.0841 -0.17779,0.02425 -0.46295,0.06467 -0.64076,0.09069 -0.17781,0.02603 -0.46297,0.06917 -0.64076,0.09694 -0.17781,0.02775 -0.46297,0.07362 -0.64076,0.10315 -0.1778,0.02954 -0.46297,0.07847 -0.64075,0.10978 -0.1778,0.03133 -0.46295,0.08286 -0.64075,0.11602 -0.17782,0.03315 -0.46297,0.08807 -0.64078,0.12301 -0.17781,0.03493 -0.46296,0.09217 -0.64076,0.12883 -0.17778,0.03667 -0.46295,0.09699 -0.64075,0.13548 -0.17779,0.0385 -0.46295,0.1018 -0.64076,0.14208 -0.17778,0.04031 -0.46293,0.10626 -0.64075,0.14833 -0.1778,0.04208 -0.46295,0.11108 -0.64077,0.15494 -0.1778,0.04384 -0.46295,0.11552 -0.64075,0.16116 -0.17778,0.04562 -0.46295,0.12036 -0.64075,0.16779 -0.17779,0.04741 -0.46296,0.1248 -0.64076,0.17399 -0.17778,0.04921 -0.46295,0.1296 -0.64075,0.18064 -0.17782,0.05102 -0.46296,0.13443 -0.64077,0.18724 -0.17781,0.05281 -0.46297,0.13893 -0.64075,0.19346 -0.1778,0.05455 -0.46297,0.14337 -0.64075,0.19971 -0.17781,0.05634 -0.46296,0.14815 -0.64076,0.20631 -0.17781,0.05817 -0.46297,0.153 -0.64076,0.21296 -0.17781,0.05995 -0.46297,0.15742 -0.64076,0.21916 -0.1778,0.06174 -0.46297,0.16226 -0.64077,0.22578 -0.17778,0.06349 -0.46295,0.16677 -0.64074,0.23201 -0.1778,0.06523 -0.46294,0.17121 -0.64076,0.23824 -0.1778,0.06701 -0.46296,0.17595 -0.64077,0.24486 -0.17779,0.06892 -0.46295,0.18117 -0.64076,0.25186 -0.17778,0.07071 -0.46295,0.18528 -0.64075,0.25771 -0.17778,0.0724 -0.46297,0.1901 -0.64075,0.26432 -0.17779,0.0742 -0.46295,0.19457 -0.64076,0.27055 -0.17781,0.07599 -0.46296,0.19941 -0.64076,0.27716 -0.17781,0.07778 -0.46297,0.2038 -0.64076,0.28341 -0.17779,0.07959 -0.46297,0.20901 -0.64075,0.2904 -0.17779,0.08139 -0.46295,0.21312 -0.64074,0.29625 -0.17783,0.08311 -0.46297,0.21796 -0.64078,0.30286 -0.17782,0.08488 -0.46297,0.22238 -0.64075,0.30908 -0.1778,0.08668 -0.46297,0.22714 -0.64077,0.31572 -0.17779,0.08856 -0.46294,0.23235 -0.64076,0.32271 -0.17778,0.09036 -0.46293,0.23646 -0.64074,0.32854 -0.17781,0.09208 -0.46295,0.24131 -0.64078,0.33517 -0.1778,0.09387 -0.46295,0.24582 -0.64075,0.34141 -0.17777,0.09559 -0.46295,0.25014 -0.64074,0.34762 -0.1778,0.0975 -0.46297,0.25578 -0.64077,0.35504 -0.17778,0.09924 -0.46295,0.25952 -0.64074,0.36046 -0.17783,0.10095 -0.46297,0.26432 -0.64078,0.36709 -0.17781,0.10278 -0.46297,0.26915 -0.64075,0.37372 -0.17779,0.10455 -0.46297,0.27349 -0.64075,0.37994 -0.17781,0.10645 -0.46296,0.27909 -0.64076,0.38733 -0.17781,0.10823 -0.46296,0.28288 -0.64076,0.39279 -0.17781,0.1099 -0.46297,0.28773 -0.64076,0.3994 -0.1778,0.1117 -0.46297,0.29215 -0.64076,0.40563 -0.17779,0.11348 -0.46296,0.29689 -0.64075,0.41226 -0.1778,0.11536 -0.46294,0.30211 -0.64076,0.41925 -0.1778,0.11713 -0.46296,0.30627 -0.64077,0.42509 -0.17779,0.11884 -0.46295,0.31073 -0.64076,0.43132 -0.17778,0.12062 -0.46295,0.31551 -0.64075,0.43795 -0.17778,0.12243 -0.46295,0.32023 -0.64074,0.44456 -0.17781,0.12433 -0.46297,0.3255 -0.64078,0.45155 -0.17781,0.12609 -0.46297,0.3293 -0.64075,0.45704 -0.17781,0.12773 -0.46296,0.33407 -0.64076,0.46363 -0.1778,0.12957 -0.46295,0.3389 -0.64075,0.47025 -0.17779,0.13135 -0.46295,0.34323 -0.64074,0.47649 -0.17783,0.13324 -0.46297,0.34886 -0.64078,0.48388 -0.17781,0.13503 -0.46297,0.35262 -0.64075,0.48932 -0.17779,0.13669 -0.46296,0.35745 -0.64076,0.49594 -0.1778,0.13849 -0.46295,0.36191 -0.64076,0.50217 -0.17778,0.14027 -0.64075,0.50879 -0.64075,0.50879 l -0.04906,77.63325 z"
       style="fill:#b3b3ff;fill-opacity:0.5;fill-rule:nonzero;stroke:none"
       transform="matrix(1.3333333,0,0,-1.3333333,124.22267,266.61333)" />
    <path
       id="path9"
       d="m 25.51193,123.51434 c 0,0 0.46297,0.24715 0.64077,0.33945 0.17779,0.0923 0.46296,0.23741 0.64074,0.32582 0.1778,0.0884 0.46297,0.22693 0.64076,0.31145 0.1778,0.0845 0.46296,0.21727 0.64077,0.29779 0.17779,0.0805 0.46295,0.20605 0.64076,0.28262 0.17781,0.0766 0.46295,0.19692 0.64076,0.26938 0.17778,0.0725 0.46295,0.18466 0.64075,0.25304 0.17778,0.0684 0.46295,0.17547 0.64075,0.23979 0.17779,0.0643 0.46296,0.16379 0.64076,0.22385 0.17779,0.06 0.46296,0.15313 0.64076,0.20903 0.17779,0.0559 0.46297,0.14228 0.64076,0.19387 0.1778,0.0516 0.46297,0.13048 0.64075,0.17789 0.17779,0.0474 0.46295,0.12091 0.64075,0.16388 0.17782,0.043 0.46296,0.10744 0.64077,0.14598 0.17781,0.0386 0.46297,0.0977 0.64075,0.13199 0.17781,0.0343 0.46297,0.0854 0.64076,0.11522 0.1778,0.0298 0.46297,0.0742 0.64077,0.0996 0.17778,0.0255 0.46293,0.0631 0.64074,0.0841 0.17781,0.021 0.46295,0.0507 0.64078,0.0674 0.1778,0.0167 0.46295,0.0407 0.64075,0.0529 0.17779,0.0122 0.46295,0.0274 0.64076,0.0351 0.17778,0.008 0.46295,0.0173 0.64075,0.0206 0.17778,0.003 0.46295,0.004 0.64074,0.003 0.17781,-0.001 0.46297,-0.007 0.64078,-0.0125 0.1778,-0.006 0.46297,-0.0186 0.64075,-0.0288 0.17779,-0.0102 0.46297,-0.0302 0.64075,-0.0448 0.17781,-0.0146 0.46296,-0.0413 0.64076,-0.0603 0.17781,-0.019 0.46296,-0.0533 0.64076,-0.0767 0.17783,-0.0234 0.46296,-0.064 0.64076,-0.0919 0.1778,-0.0279 0.46297,-0.077 0.64075,-0.10939 0.1778,-0.0324 0.46297,-0.0871 0.64076,-0.12379 0.17779,-0.0367 0.46295,-0.0995 0.64076,-0.14052 0.1778,-0.041 0.46296,-0.11002 0.64077,-0.15534 0.17781,-0.0453 0.46295,-0.12161 0.64076,-0.17128 0.17778,-0.0497 0.46295,-0.13301 0.64075,-0.18685 0.17778,-0.0538 0.46295,-0.14304 0.64075,-0.20125 0.17779,-0.0582 0.46294,-0.15601 0.64076,-0.21839 0.17779,-0.0624 0.46296,-0.1647 0.64076,-0.23123 0.17779,-0.0665 0.46296,-0.17767 0.64076,-0.24837 0.1778,-0.0707 0.46297,-0.18652 0.64075,-0.2612 0.17779,-0.0747 0.46295,-0.19833 0.64074,-0.27719 0.17783,-0.0788 0.46297,-0.20848 0.64078,-0.29117 0.17781,-0.0827 0.46297,-0.21818 0.64075,-0.30482 0.17781,-0.0866 0.46297,-0.22911 0.64076,-0.31958 0.1778,-0.0905 0.46297,-0.23811 0.64076,-0.33246 0.17778,-0.0943 0.46294,-0.24948 0.64075,-0.34763 0.17781,-0.0981 0.46295,-0.25794 0.64078,-0.35969 0.17779,-0.10175 0.46295,-0.26828 0.64075,-0.3737 0.17779,-0.10544 0.46295,-0.27713 0.64076,-0.38619 0.17778,-0.10902 0.46294,-0.28721 0.64074,-0.39978 0.1778,-0.11255 0.46296,-0.29562 0.64077,-0.41148 0.17781,-0.11583 0.46296,-0.30432 0.64076,-0.42353 0.17778,-0.1192 0.46297,-0.31317 0.64075,-0.4356 0.17779,-0.12244 0.46296,-0.32112 0.64074,-0.4469 0.17781,-0.1258 0.46297,-0.33081 0.64077,-0.45974 0.17781,-0.12892 0.46296,-0.33764 0.64076,-0.46946 0.17782,-0.13184 0.46297,-0.34598 0.64076,-0.48079 0.17779,-0.1348 0.46297,-0.35325 0.64075,-0.49086 0.17779,-0.13762 0.46296,-0.36054 0.64076,-0.50102 0.1778,-0.14047 0.46295,-0.36834 0.64076,-0.51151 0.1778,-0.14317 0.46295,-0.37469 0.64076,-0.52046 0.17782,-0.14578 0.46296,-0.38196 0.64076,-0.53021 0.17779,-0.14826 0.46296,-0.38774 0.64075,-0.53838 0.17778,-0.15063 0.46294,-0.39431 0.64075,-0.54733 0.17781,-0.15302 0.46295,-0.40022 0.64078,-0.5555 0.17779,-0.15528 0.46297,-0.40625 0.64075,-0.56368 0.17779,-0.15745 0.46297,-0.41177 0.64076,-0.57108 0.17779,-0.15932 0.46296,-0.41597 0.64075,-0.5773 0.17779,-0.16132 0.46295,-0.42231 0.64074,-0.58548 0.17783,-0.16318 0.46297,-0.42571 0.64078,-0.59055 0.17781,-0.16483 0.46297,-0.43109 0.64074,-0.59755 0.17782,-0.16646 0.46297,-0.43419 0.64077,-0.6022 0.17779,-0.16803 0.46297,-0.43935 0.64076,-0.60884 0.17778,-0.16948 0.46294,-0.44208 0.64075,-0.61274 0.17781,-0.17066 0.46295,-0.44549 0.64078,-0.61741 0.17779,-0.17191 0.46295,-0.44873 0.64074,-0.62166 0.1778,-0.17294 0.46295,-0.45089 0.64077,-0.62479 0.17778,-0.17392 0.46293,-0.45388 0.64074,-0.6287 0.1778,-0.17484 0.46295,-0.45583 0.64076,-0.63143 0.17782,-0.17558 0.46297,-0.45785 0.64077,-0.63412 0.17778,-0.1763 0.46296,-0.45972 0.64074,-0.63649 0.1778,-0.17676 0.46297,-0.46054 0.64075,-0.63762 0.17781,-0.17711 0.46297,-0.46134 0.64077,-0.63883 0.1778,-0.17747 0.46296,-0.46267 0.64076,-0.64036 0.17782,-0.17771 0.46296,-0.46268 0.64076,-0.64037 0.17779,-0.17772 0.46297,-0.46268 0.64075,-0.64038 0.17779,-0.1777 0.46296,-0.4627 0.64074,-0.64036 0.17781,-0.17763 0.46297,-0.4626 0.64078,-0.63999 0.1778,-0.17735 0.46295,-0.46148 0.64076,-0.63841 0.1778,-0.17693 0.46295,-0.46036 0.64076,-0.63687 0.17779,-0.1765 0.46296,-0.45935 0.64075,-0.6353 0.17778,-0.17597 0.46294,-0.45777 0.64075,-0.63298 0.17781,-0.1752 0.46295,-0.45545 0.64078,-0.62985 0.17779,-0.1744 0.46296,-0.4536 0.64074,-0.62714 0.1778,-0.17354 0.46297,-0.45111 0.64077,-0.62361 0.17779,-0.17252 0.46296,-0.44838 0.64074,-0.61975 0.1778,-0.17139 0.46296,-0.44532 0.64075,-0.61547 0.17783,-0.17012 0.46297,-0.44206 0.64078,-0.61076 0.17781,-0.16873 0.46296,-0.43802 0.64074,-0.60535 0.17782,-0.16732 0.46297,-0.4349 0.64077,-0.60066 0.17779,-0.16575 0.46295,-0.42996 0.64074,-0.59404 0.17781,-0.16409 0.46297,-0.42624 0.64078,-0.58859 0.17781,-0.16234 0.46295,-0.42111 0.64076,-0.58159 0.17778,-0.16045 0.46296,-0.41656 0.64075,-0.57497 0.17779,-0.1584 0.46295,-0.41043 0.64076,-0.56678 0.17778,-0.15636 0.46294,-0.40595 0.64075,-0.56018 0.1778,-0.15425 0.46295,-0.39969 0.64076,-0.55161 0.17782,-0.15193 0.46297,-0.39383 0.64077,-0.54344 0.17778,-0.14961 0.46296,-0.38776 0.64074,-0.53487 0.1778,-0.14713 0.46297,-0.38095 0.64075,-0.52554 0.17781,-0.14459 0.46296,-0.37468 0.64076,-0.51657 0.17781,-0.14188 0.46297,-0.36688 0.64076,-0.50608 0.17783,-0.13919 0.46297,-0.36067 0.64077,-0.4971 0.17779,-0.13642 0.46297,-0.35281 0.64074,-0.48622 0.1778,-0.13339 0.46295,-0.34488 0.64075,-0.47529 0.17783,-0.13043 0.46297,-0.33742 0.64079,-0.46483 0.1778,-0.12738 0.46295,-0.32923 0.64075,-0.4535 0.1778,-0.12426 0.46295,-0.32125 0.64076,-0.44222 0.17778,-0.12101 0.46295,-0.31205 0.64075,-0.42978 0.17778,-0.11774 0.46293,-0.30452 0.64075,-0.41886 0.17781,-0.11433 0.46295,-0.29437 0.64078,-0.40524 0.17779,-0.11088 0.46296,-0.28657 0.64074,-0.39397 0.1778,-0.10736 0.46297,-0.27623 0.64076,-0.37993 0.1778,-0.10368 0.46297,-0.2674 0.64075,-0.36749 0.1778,-0.10008 0.46295,-0.25755 0.64075,-0.35385 0.17782,-0.09628 0.46296,-0.2476 0.64078,-0.34024 0.17781,-0.09262 0.46296,-0.23863 0.64074,-0.32738 0.17781,-0.08874 0.46297,-0.22737 0.64076,-0.31221 0.1778,-0.08483 0.46296,-0.21844 0.64075,-0.29936 0.17781,-0.08089 0.46297,-0.20692 0.64078,-0.28377 0.17781,-0.07685 0.46295,-0.1973 0.64076,-0.27017 0.17778,-0.07284 0.46295,-0.18628 0.64075,-0.25497 0.17779,-0.06871 0.46295,-0.17554 0.64076,-0.24019 0.17778,-0.06465 0.46294,-0.16535 0.64075,-0.22579 0.17779,-0.06044 0.46295,-0.15354 0.64076,-0.20982 0.17781,-0.05627 0.46297,-0.14386 0.64076,-0.1958 0.17778,-0.05194 0.46297,-0.131 0.64075,-0.17868 0.17778,-0.04768 0.46295,-0.12168 0.64075,-0.16505 0.17782,-0.04337 0.46296,-0.1086 0.64077,-0.14756 0.17782,-0.03892 0.46297,-0.0984 0.64075,-0.13311 0.17781,-0.03473 0.46297,-0.08701 0.64076,-0.11718 0.1778,-0.03019 0.46297,-0.07458 0.64075,-0.10045 0.1778,-0.02584 0.46295,-0.06465 0.64075,-0.08603 0.17782,-0.02137 0.46297,-0.05116 0.64079,-0.06811 0.1778,-0.01695 0.46295,-0.04155 0.64075,-0.05412 0.17779,-0.01257 0.46295,-0.02854 0.64076,-0.03658 0.17778,-0.008 0.46295,-0.01774 0.64075,-0.02142 0.17778,-0.0037 0.46293,-0.0059 0.64074,-0.005 0.17782,8.5e-4 0.46296,0.0059 0.64078,0.01129 0.1778,0.0053 0.46297,0.01742 0.64075,0.02724 0.17779,0.0098 0.46297,0.02945 0.64076,0.04361 0.17778,0.01413 0.46295,0.03971 0.64075,0.05838 0.17781,0.01867 0.46297,0.05319 0.64076,0.07631 0.17783,0.0231 0.46297,0.06288 0.64076,0.0903 0.1778,0.02745 0.46297,0.07547 0.64075,0.10745 0.17781,0.03197 0.46297,0.08667 0.64077,0.12302 0.17779,0.03633 0.46294,0.09825 0.64074,0.13898 0.17781,0.0407 0.46296,0.1096 0.64078,0.15452 0.17781,0.04494 0.46295,0.12004 0.64076,0.16934 0.17778,0.04932 0.46295,0.13255 0.64075,0.18608 0.17779,0.05353 0.46295,0.14191 0.64074,0.19971 0.1778,0.05778 0.46296,0.15472 0.64077,0.21683 0.17779,0.0621 0.46295,0.16464 0.64076,0.23085 0.17781,0.06619 0.46295,0.17602 0.64076,0.24639 0.17778,0.07038 0.46297,0.18647 0.64075,0.26084 0.17778,0.07437 0.46295,0.19679 0.64075,0.27522 0.17782,0.07843 0.46296,0.2077 0.64077,0.29001 0.17781,0.08231 0.46297,0.21691 0.64075,0.30325 0.17781,0.08636 0.46297,0.22898 0.64076,0.3192 0.1778,0.09026 0.46297,0.23725 0.64075,0.33129 0.17779,0.09402 0.46295,0.24864 0.64075,0.34645 0.17782,0.0978 0.46296,0.25711 0.64079,0.35855 0.17779,0.10141 0.46295,0.26736 0.64075,0.37253 0.17779,0.10516 0.46295,0.27677 0.64076,0.38539 0.17778,0.10862 0.46295,0.28523 0.64075,0.39745 0.17778,0.11224 0.46293,0.29583 0.64074,0.41148 0.17781,0.11562 0.46295,0.30305 0.64078,0.42198 0.17779,0.11891 0.46295,0.31299 0.64075,0.43521 0.17779,0.12222 0.46296,0.32028 0.64076,0.44574 0.17778,0.12546 0.46295,0.32991 0.64075,0.45856 0.17781,0.12866 0.46296,0.33714 0.64076,0.4687 0.17782,0.13155 0.46297,0.345 0.64076,0.4796 0.1778,0.13458 0.46297,0.35303 0.64075,0.49048 0.17781,0.13746 0.46296,0.35997 0.64076,0.50024 0.1778,0.14026 0.46295,0.36783 0.64075,0.51074 0.17781,0.1429 0.46296,0.37374 0.64078,0.51929 0.17781,0.14557 0.46295,0.38178 0.64076,0.52982 0.17778,0.14802 0.46295,0.38679 0.64074,0.5372 0.1778,0.15042 0.46294,0.39403 0.64075,0.54695 0.17782,0.15291 0.46295,0.40004 0.64078,0.55511 0.17779,0.15506 0.46295,0.40535 0.64074,0.5625 0.1778,0.15718 0.46296,0.41109 0.64077,0.57032 0.17778,0.15922 0.46297,0.41613 0.64075,0.5773 0.17778,0.16118 0.46295,0.42129 0.64074,0.5843 0.17783,0.163 0.46297,0.42581 0.64078,0.59055 0.17781,0.16472 0.46296,0.4304 0.64075,0.59675 0.17781,0.16637 0.46296,0.43438 0.64076,0.60224 0.1778,0.16786 0.46297,0.43834 0.64075,0.60766 0.1778,0.16933 0.64074,0.61274 0.64074,0.61274"
       style="fill:none;stroke:#008000;stroke-width:0.79701;stroke-linecap:butt;stroke-linejoin:miter;stroke-miterlimit:10;stroke-dasharray:none;stroke-opacity:1"
       transform="matrix(1.3333333,0,0,-1.3333333,124.22267,266.61333)" />
    <g
       id="g9"
       aria-label="y=f(x)"
       transform="matrix(1.3333333,0,0,1.3333333,333.62933,143.75467)">
      <path
         id="path10"
         d="m 5.2965547,-4.1607266 c 0.046875,-0.1523437 0.046875,-0.1757812 0.046875,-0.2460937 0,-0.1992188 -0.1523438,-0.2929688 -0.3164063,-0.2929688 -0.1054687,0 -0.28125,0.058594 -0.375,0.2226563 -0.023437,0.058594 -0.1171875,0.3984375 -0.1523437,0.5976562 -0.082031,0.28125 -0.1523438,0.5742188 -0.2226563,0.8671875 l -0.4921875,1.96875 c -0.046875,0.16406254 -0.515625,0.92578129 -1.2304687,0.92578129 -0.5625,0 -0.6796875,-0.48046875 -0.6796875,-0.89062499 0,-0.4921875 0.1875,-1.171875 0.5625,-2.1328125 0.1757812,-0.4453125 0.2109375,-0.5742188 0.2109375,-0.7851563 0,-0.4921875 -0.3515625,-0.9023437 -0.890625,-0.9023437 -1.04296876,0 -1.44140626,1.5820312 -1.44140626,1.6875 0,0.1054687 0.10546875,0.1054687 0.12890625,0.1054687 0.10546875,0 0.1171875,-0.023437 0.17578125,-0.1992187 0.29296875,-1.0195313 0.72656246,-1.3476563 1.10156246,-1.3476563 0.09375,0 0.2695313,0 0.2695313,0.3515625 0,0.2695313 -0.1054688,0.5507813 -0.1757813,0.7617188 -0.4453125,1.1601562 -0.6328125,1.78125 -0.6328125,2.2851562 0,0.97265629 0.6796875,1.30078129 1.3242188,1.30078129 0.421875,0 0.796875,-0.1875 1.1015625,-0.4921875 -0.140625,0.57421875 -0.2695313,1.1015625 -0.703125,1.68750001 -0.2929688,0.3632812 -0.703125,0.6796875 -1.2070313,0.6796875 -0.1523437,0 -0.6445312,-0.023437 -0.83203121,-0.4570313 0.17578121,0 0.31640621,0 0.48046871,-0.1289062 0.1054688,-0.09375 0.2109375,-0.234375 0.2109375,-0.44531251 0,-0.33984375 -0.2929687,-0.38671875 -0.3984375,-0.38671875 -0.25781246,0 -0.60937496,0.17578125 -0.60937496,0.71484376 0,0.5390625 0.48046876,0.9492187 1.14843746,0.9492187 1.125,0 2.25,-0.9960937 2.5546875,-2.22656246 z m 0,0"
         style="fill:#008000;fill-opacity:1;fill-rule:nonzero;stroke:none" />
      <path
         id="path11"
         d="m 16.274094,-3.5630703 c 0.164062,0 0.363281,0 0.363281,-0.2226563 0,-0.2226562 -0.199219,-0.2226562 -0.351562,-0.2226562 H 9.74675 c -0.1523437,0 -0.3632812,0 -0.3632812,0.2226562 0,0.2226563 0.2109375,0.2226563 0.375,0.2226563 z m 0.01172,2.109375 c 0.152343,0 0.351562,0 0.351562,-0.2109375 0,-0.2226563 -0.199219,-0.2226563 -0.363281,-0.2226563 H 9.7584688 c -0.1640625,0 -0.375,0 -0.375,0.2226563 0,0.2109375 0.2109375,0.2109375 0.3632812,0.2109375 z m 0,0"
         style="fill:#008000;fill-opacity:1;fill-rule:nonzero;stroke:none" />
      <path
         id="path12"
         d="m 24.289719,-4.3599453 h 0.9375 c 0.210937,0 0.328125,0 0.328125,-0.2226563 0,-0.1171875 -0.117188,-0.1171875 -0.292969,-0.1171875 h -0.914062 l 0.234375,-1.2421875 c 0.04687,-0.234375 0.199218,-1.0078125 0.257812,-1.1367187 0.105469,-0.2109375 0.28125,-0.375 0.515625,-0.375 0.04687,0 0.328125,0 0.539063,0.1992187 -0.480469,0.046875 -0.597657,0.421875 -0.597657,0.5859375 0,0.2578125 0.199219,0.3867188 0.410157,0.3867188 0.28125,0 0.597656,-0.2460938 0.597656,-0.65625 0,-0.5039063 -0.503906,-0.75 -0.949219,-0.75 -0.375,0 -1.054687,0.1875 -1.382812,1.2773437 -0.07031,0.2226563 -0.105469,0.328125 -0.363282,1.7109375 h -0.75 c -0.210937,0 -0.328125,0 -0.328125,0.1992188 0,0.140625 0.09375,0.140625 0.304688,0.140625 h 0.714844 l -0.820313,4.30078124 c -0.1875,1.06640626 -0.375,2.05078126 -0.949219,2.05078126 -0.03516,0 -0.316406,0 -0.515625,-0.1875 0.503907,-0.035156 0.597657,-0.4335938 0.597657,-0.5976563 0,-0.24609371 -0.199219,-0.37499996 -0.398438,-0.37499996 -0.292969,0 -0.609375,0.23437496 -0.609375,0.65624996 0,0.4921875 0.480469,0.75 0.925781,0.75 0.609375,0 1.042969,-0.6445312 1.242188,-1.0546875 0.339844,-0.69140621 0.597656,-2.01562496 0.609375,-2.08593746 z m 0,0"
         style="fill:#008000;fill-opacity:1;fill-rule:nonzero;stroke:none" />
      <path
         id="path13"
         d="m 30.409836,2.6127109 c 0,-0.023437 0,-0.046875 -0.1875,-0.234375 -1.359375,-1.3710937 -1.710938,-3.4335937 -1.710938,-5.109375 0,-1.8984375 0.421875,-3.796875 1.757813,-5.15625 0.140625,-0.1289062 0.140625,-0.1523437 0.140625,-0.1875 0,-0.070312 -0.04687,-0.1054687 -0.105469,-0.1054687 -0.105469,0 -1.089844,0.7382812 -1.734375,2.1210937 -0.5625,1.2070313 -0.691406,2.4140625 -0.691406,3.328125 0,0.8554688 0.117187,2.17968754 0.726562,3.41015629 0.644532,1.33593751 1.59375,2.05078121 1.699219,2.05078121 0.05859,0 0.105469,-0.035156 0.105469,-0.1171875 z m 0,0"
         style="fill:#008000;fill-opacity:1;fill-rule:nonzero;stroke:none" />
      <path
         id="path14"
         d="m 34.68718,-3.2935391 c 0.07031,-0.28125 0.316406,-1.2890625 1.078125,-1.2890625 0.05859,0 0.316406,0 0.550781,0.140625 -0.304688,0.058594 -0.527344,0.328125 -0.527344,0.5859375 0,0.1757813 0.117188,0.3867188 0.410156,0.3867188 0.246094,0 0.597657,-0.1992188 0.597657,-0.6328125 0,-0.5625 -0.644532,-0.7265625 -1.019532,-0.7265625 -0.632812,0 -1.019531,0.5859375 -1.148437,0.8320312 -0.269531,-0.7148437 -0.855469,-0.8320312 -1.171875,-0.8320312 -1.136719,0 -1.757813,1.4179687 -1.757813,1.6875 0,0.1054687 0.105469,0.1054687 0.128907,0.1054687 0.08203,0 0.117187,-0.023437 0.140625,-0.1171875 0.375,-1.1601562 1.089843,-1.4296875 1.464843,-1.4296875 0.210938,0 0.585938,0.09375 0.585938,0.7265625 0,0.3398438 -0.1875,1.078125 -0.585938,2.6015625 -0.175781,0.67968754 -0.5625,1.13671879 -1.042968,1.13671879 -0.05859,0 -0.316407,0 -0.539063,-0.140625 0.269531,-0.0585938 0.515625,-0.29296875 0.515625,-0.59765625 0,-0.29296874 -0.246094,-0.37500004 -0.410156,-0.37500004 -0.328125,0 -0.597656,0.28125004 -0.597656,0.63281254 0,0.50390625 0.550781,0.71484375 1.03125,0.71484375 0.714843,0 1.101562,-0.76171875 1.136718,-0.83203125 0.128907,0.41015625 0.527344,0.83203125 1.183594,0.83203125 1.125,0 1.746094,-1.40624999 1.746094,-1.67578129 0,-0.1054687 -0.105469,-0.1054687 -0.128906,-0.1054687 -0.105469,0 -0.128907,0.035156 -0.140625,0.1171875 -0.363282,1.16015624 -1.113282,1.42968749 -1.453125,1.42968749 -0.433594,0 -0.609375,-0.3515625 -0.609375,-0.7265625 0,-0.23437499 0.07031,-0.48046879 0.1875,-0.96093749 z m 0,0"
         style="fill:#008000;fill-opacity:1;fill-rule:nonzero;stroke:none" />
      <path
         id="path15"
         d="m 40.429367,-2.7310391 c 0,-0.84375 -0.117187,-2.1679687 -0.714844,-3.3984375 -0.65625,-1.3476562 -1.59375,-2.0507812 -1.710937,-2.0507812 -0.05859,0 -0.105469,0.035156 -0.105469,0.1054687 0,0.035156 0,0.058594 0.210938,0.2460938 1.066406,1.0898437 1.6875,2.8242187 1.6875,5.0976562 0,1.86328129 -0.398438,3.7851563 -1.757813,5.1679688 -0.140625,0.1289062 -0.140625,0.1523437 -0.140625,0.1757812 0,0.070312 0.04687,0.1171875 0.105469,0.1171875 0.117187,0 1.089844,-0.75 1.734375,-2.13281246 0.5625,-1.1953125 0.691406,-2.41406254 0.691406,-3.32812504 z m 0,0"
         style="fill:#008000;fill-opacity:1;fill-rule:nonzero;stroke:none" />
    </g>
    <path
       id="path16"
       d="m 25.51193,45.92119 c 0,0 0.46297,-0.36983 0.64077,-0.51035 0.17779,-0.14054 0.46296,-0.36398 0.64074,-0.50256 0.1778,-0.13858 0.46297,-0.35947 0.64076,-0.49634 0.1778,-0.13685 0.46296,-0.35502 0.64077,-0.4901 0.17779,-0.13507 0.46295,-0.35014 0.64076,-0.4835 0.17781,-0.13334 0.46295,-0.34607 0.64076,-0.47763 0.17778,-0.13158 0.46295,-0.34099 0.64075,-0.47066 0.17778,-0.12967 0.46295,-0.33612 0.64075,-0.464 0.17779,-0.1279 0.46296,-0.33164 0.64076,-0.45781 0.17779,-0.12618 0.46296,-0.32714 0.64076,-0.45156 0.17779,-0.12445 0.46297,-0.32273 0.64076,-0.44534 0.1778,-0.1226 0.46297,-0.31758 0.64075,-0.43834 0.17779,-0.12076 0.46295,-0.31311 0.64075,-0.4321 0.17782,-0.11897 0.46296,-0.30829 0.64077,-0.42549 0.17781,-0.11719 0.46297,-0.30374 0.64075,-0.41925 0.17781,-0.11554 0.46297,-0.29971 0.64076,-0.4134 0.1778,-0.1137 0.46297,-0.29426 0.64077,-0.40604 0.17778,-0.11179 0.46293,-0.28974 0.64074,-0.3998 0.17781,-0.11007 0.46295,-0.28526 0.64078,-0.39354 0.1778,-0.1083 0.46295,-0.28039 0.64075,-0.38696 0.17779,-0.10655 0.46295,-0.27634 0.64076,-0.3811 0.17778,-0.10478 0.46295,-0.27122 0.64075,-0.37412 0.17778,-0.10287 0.46295,-0.26636 0.64074,-0.36748 0.17781,-0.1011 0.46297,-0.26187 0.64078,-0.36123 0.1778,-0.09938 0.46297,-0.25739 0.64075,-0.35503 0.17779,-0.09764 0.46297,-0.25299 0.64075,-0.34881 0.17781,-0.0958 0.46296,-0.24779 0.64076,-0.34177 0.17781,-0.09398 0.46296,-0.24336 0.64076,-0.33557 0.17783,-0.09218 0.46296,-0.23853 0.64076,-0.32894 0.1778,-0.0904 0.46297,-0.23403 0.64075,-0.3227 0.1778,-0.0887 0.46297,-0.22959 0.64076,-0.3165 0.17779,-0.0869 0.46295,-0.22482 0.64076,-0.30987 0.1778,-0.08506 0.46296,-0.21998 0.64077,-0.30326 0.17781,-0.08328 0.46295,-0.21551 0.64076,-0.29701 0.17778,-0.08151 0.46295,-0.2107 0.64075,-0.29043 0.17778,-0.07969 0.46295,-0.20622 0.64075,-0.28414 0.17779,-0.07794 0.46294,-0.20142 0.64076,-0.27757 0.17779,-0.07616 0.46296,-0.19696 0.64076,-0.27134 0.17779,-0.07437 0.46296,-0.19218 0.64076,-0.26469 0.1778,-0.07253 0.46297,-0.18736 0.64075,-0.25812 0.17779,-0.07074 0.46295,-0.18283 0.64074,-0.25186 0.17783,-0.06902 0.46297,-0.17839 0.64078,-0.24562 0.17781,-0.06723 0.46297,-0.17361 0.64075,-0.23901 0.17781,-0.0654 0.46297,-0.16881 0.64076,-0.23243 0.1778,-0.06361 0.46297,-0.16432 0.64076,-0.22616 0.17778,-0.06185 0.46294,-0.15946 0.64075,-0.21956 0.17781,-0.06009 0.46295,-0.15538 0.64078,-0.2137 0.17779,-0.05833 0.46295,-0.15028 0.64075,-0.20671 0.17779,-0.05644 0.46295,-0.14542 0.64076,-0.2001 0.17778,-0.05471 0.46294,-0.14133 0.64074,-0.19425 0.1778,-0.05292 0.46296,-0.13609 0.64077,-0.18724 0.17781,-0.05115 0.46296,-0.13203 0.64076,-0.1814 0.17778,-0.04937 0.46297,-0.12687 0.64075,-0.17442 0.17779,-0.04751 0.46296,-0.12238 0.64074,-0.16815 0.17781,-0.04581 0.46297,-0.11793 0.64077,-0.16196 0.17781,-0.044 0.46296,-0.11308 0.64076,-0.15532 0.17782,-0.04223 0.46297,-0.1087 0.64076,-0.14909 0.17779,-0.04038 0.46297,-0.10347 0.64075,-0.14208 0.17779,-0.03862 0.46296,-0.09942 0.64076,-0.13626 0.1778,-0.03683 0.46295,-0.09419 0.64076,-0.12922 0.1778,-0.03507 0.46295,-0.0901 0.64076,-0.12342 0.17782,-0.03332 0.46296,-0.08529 0.64076,-0.11678 0.17779,-0.03149 0.46296,-0.08047 0.64075,-0.11018 0.17778,-0.02969 0.46294,-0.07602 0.64075,-0.10392 0.17781,-0.02791 0.46295,-0.07126 0.64078,-0.09732 0.17779,-0.0261 0.46297,-0.06635 0.64075,-0.0907 0.17779,-0.02435 0.46297,-0.0623 0.64076,-0.08487 0.17779,-0.02258 0.46296,-0.05711 0.64075,-0.07785 0.17779,-0.02072 0.46295,-0.05263 0.64074,-0.07164 0.17783,-0.019 0.46297,-0.04817 0.64078,-0.0654 0.17781,-0.01721 0.46297,-0.04338 0.64074,-0.05878 0.17782,-0.01539 0.46297,-0.03857 0.64077,-0.05217 0.17779,-0.01359 0.46297,-0.0341 0.64076,-0.04593 0.17778,-0.01181 0.46294,-0.02928 0.64075,-0.03932 0.17781,-0.01004 0.46295,-0.02478 0.64078,-0.03308 0.17779,-0.0083 0.46295,-0.0204 0.64074,-0.02687 0.1778,-0.0065 0.46295,-0.01515 0.64077,-0.01985 0.17778,-0.0047 0.46293,-0.01109 0.64074,-0.01401 0.1778,-0.0029 0.46295,-0.0059 0.64076,-0.007 0.17782,-0.0011 0.46297,-0.0014 0.64077,-7.9e-4 0.17778,6.6e-4 0.46296,0.003 0.64074,0.0055 0.1778,0.0024 0.46297,0.0078 0.64075,0.01205 0.17781,0.0042 0.46297,0.01231 0.64077,0.01831 0.1778,0.006 0.46296,0.01709 0.64076,0.0249 0.17782,0.0078 0.46296,0.02193 0.64076,0.03154 0.17779,0.0096 0.46297,0.02642 0.64075,0.03775 0.17779,0.01136 0.46296,0.03083 0.64074,0.04401 0.17781,0.01316 0.46297,0.03604 0.64078,0.051 0.1778,0.01493 0.46295,0.04014 0.64076,0.05682 0.1778,0.01668 0.46295,0.04494 0.64076,0.06346 0.17779,0.01852 0.46296,0.04976 0.64075,0.07007 0.17778,0.02031 0.46294,0.05421 0.64075,0.07631 0.17781,0.02206 0.46295,0.05897 0.64078,0.08291 0.17779,0.02391 0.46296,0.06388 0.64074,0.08953 0.1778,0.02565 0.46297,0.06793 0.64077,0.09536 0.17779,0.02744 0.46296,0.07312 0.64074,0.10239 0.1778,0.02927 0.46296,0.07761 0.64075,0.10863 0.17783,0.03099 0.46297,0.08203 0.64078,0.11481 0.17781,0.03279 0.46296,0.08685 0.64074,0.12147 0.17782,0.03461 0.46297,0.09166 0.64077,0.12805 0.17779,0.03639 0.46295,0.09619 0.64074,0.13433 0.17781,0.03812 0.46297,0.10057 0.64078,0.14053 0.17781,0.03995 0.46295,0.10579 0.64076,0.14754 0.17778,0.04175 0.46296,0.10985 0.64075,0.15336 0.17779,0.04354 0.46295,0.11509 0.64076,0.1604 0.17778,0.04531 0.46294,0.11917 0.64075,0.16622 0.1778,0.04704 0.46295,0.12391 0.64076,0.17283 0.17782,0.04894 0.46297,0.12914 0.64077,0.17986 0.17778,0.0507 0.46296,0.13324 0.64074,0.18567 0.1778,0.05246 0.46297,0.13811 0.64075,0.19232 0.17781,0.05421 0.46296,0.14253 0.64076,0.19855 0.17781,0.05598 0.46297,0.14731 0.64076,0.20512 0.17783,0.05783 0.46297,0.15215 0.64077,0.21178 0.17779,0.05961 0.46297,0.15664 0.64074,0.218 0.1778,0.06134 0.46295,0.1611 0.64075,0.22423 0.17783,0.06312 0.46297,0.16586 0.64079,0.23083 0.1778,0.06498 0.46295,0.17066 0.64075,0.23748 0.1778,0.06678 0.46295,0.17553 0.64076,0.24407 0.17778,0.06853 0.46295,0.17965 0.64075,0.24993 0.17778,0.07025 0.46293,0.18442 0.64075,0.25653 0.17781,0.0721 0.46295,0.18925 0.64078,0.26314 0.17779,0.07388 0.46296,0.19374 0.64074,0.26939 0.1778,0.07567 0.46297,0.19852 0.64076,0.27602 0.1778,0.07748 0.46297,0.20331 0.64075,0.28261 0.1778,0.07926 0.46295,0.20784 0.64075,0.28883 0.17782,0.08101 0.46296,0.21229 0.64078,0.29509 0.17781,0.08276 0.46296,0.2171 0.64074,0.30168 0.17781,0.08458 0.46297,0.2215 0.64076,0.30792 0.1778,0.08641 0.46296,0.2267 0.64075,0.31494 0.17781,0.08826 0.46297,0.23119 0.64078,0.32114 0.17781,0.08998 0.46295,0.23569 0.64076,0.32739 0.17778,0.09172 0.46295,0.24013 0.64075,0.33364 0.17779,0.09347 0.46295,0.24485 0.64076,0.34022 0.17778,0.09537 0.46294,0.25009 0.64075,0.34723 0.17779,0.09715 0.46295,0.2542 0.64076,0.35309 0.17781,0.09889 0.46297,0.25902 0.64076,0.35969 0.17778,0.10068 0.46297,0.26352 0.64075,0.36593 0.17778,0.10238 0.46295,0.26785 0.64075,0.37216 0.17782,0.10428 0.46296,0.2734 0.64077,0.37953 0.17782,0.10614 0.46297,0.2776 0.64075,0.38541 0.17781,0.10778 0.46297,0.28202 0.64076,0.39161 0.1778,0.10958 0.46297,0.28685 0.64075,0.39823 0.1778,0.11137 0.46295,0.29127 0.64075,0.40446 0.17782,0.11321 0.46297,0.29643 0.64079,0.41147 0.1778,0.11504 0.46295,0.30093 0.64075,0.41771 0.17779,0.11676 0.46295,0.30542 0.64076,0.42392 0.17778,0.1185 0.46295,0.30987 0.64075,0.43016 0.17778,0.12027 0.46293,0.3146 0.64074,0.43676 0.17782,0.12217 0.46296,0.31983 0.64078,0.44378 0.1778,0.12396 0.46297,0.32394 0.64075,0.44963 0.17779,0.12567 0.46297,0.32878 0.64076,0.45624 0.17778,0.12745 0.46295,0.33328 0.64075,0.46246 0.17781,0.12919 0.46297,0.33762 0.64076,0.4687 0.17783,0.13108 0.46297,0.34317 0.64076,0.47611 0.1778,0.1329 0.46297,0.34733 0.64075,0.48192 0.17781,0.13458 0.46297,0.35177 0.64077,0.48816 0.17779,0.13638 0.46294,0.35661 0.64074,0.49476 0.17781,0.13816 0.46296,0.36096 0.64078,0.50101 0.17781,0.14004 0.46295,0.36658 0.64076,0.50841 0.17778,0.14182 0.46295,0.37034 0.64075,0.51385 0.17779,0.14351 0.46295,0.37512 0.64074,0.52047 0.1778,0.14533 0.46296,0.37995 0.64077,0.52708 0.17779,0.14712 0.46295,0.38446 0.64076,0.53332 0.17781,0.14885 0.46295,0.3888 0.64076,0.53954 0.17778,0.15076 0.46297,0.39436 0.64075,0.54695 0.17778,0.15257 0.46295,0.39853 0.64075,0.55277 0.17782,0.15424 0.46296,0.40303 0.64077,0.559 0.17781,0.15599 0.46297,0.40747 0.64075,0.56525 0.17781,0.15776 0.46297,0.41215 0.64076,0.57187 0.1778,0.1597 0.46297,0.41774 0.64075,0.57924 0.17779,0.16146 0.46295,0.42153 0.64075,0.5847 0.17782,0.16316 0.46296,0.42636 0.64079,0.59132 0.17779,0.16493 0.46295,0.43082 0.64075,0.59755 0.17779,0.16672 0.46295,0.4355 0.64076,0.60417 0.17778,0.16866 0.46295,0.4411 0.64075,0.61156 0.17778,0.17046 0.46293,0.44491 0.64074,0.617 0.17781,0.17208 0.46295,0.44939 0.64078,0.62323 0.17779,0.17385 0.46295,0.45423 0.64075,0.62987 0.17779,0.17565 0.46296,0.4585 0.64076,0.63609 0.17778,0.17757 0.46295,0.46448 0.64075,0.64385 0.17781,0.17937 0.46296,0.46796 0.64076,0.64894 0.17782,0.181 0.46297,0.47273 0.64076,0.65556 0.1778,0.18284 0.46297,0.47756 0.64075,0.66217 0.17781,0.1846 0.46296,0.48191 0.64076,0.66838 0.1778,0.18649 0.46295,0.48754 0.64075,0.6758 0.17781,0.18826 0.46296,0.49129 0.64078,0.68124 0.17781,0.18996 0.46295,0.49613 0.64076,0.68785 0.17778,0.19175 0.46295,0.5006 0.64074,0.69411 0.1778,0.19351 0.46294,0.50524 0.64075,0.7007 0.17782,0.19545 0.46295,0.51085 0.64078,0.7081 0.17779,0.19725 0.46295,0.51469 0.64074,0.71355 0.1778,0.19888 0.46296,0.51914 0.64077,0.71979 0.17778,0.20065 0.46297,0.52397 0.64075,0.72641 0.17778,0.20244 0.46295,0.52824 0.64074,0.73262 0.17783,0.20439 0.46297,0.53425 0.64078,0.7404 0.17781,0.20617 0.46296,0.5377 0.64075,0.74548 0.17781,0.2078 0.46296,0.54248 0.64076,0.75211 0.1778,0.20961 0.46297,0.5473 0.64075,0.75869 0.1778,0.2114 0.64074,0.76494 0.64074,0.76494"
       style="fill:none;stroke:#ff0000;stroke-width:0.79701;stroke-linecap:butt;stroke-linejoin:miter;stroke-miterlimit:10;stroke-dasharray:none;stroke-opacity:1"
       transform="matrix(1.3333333,0,0,-1.3333333,124.22267,266.61333)" />
    <g
       id="g16"
       aria-label="y=g(x)"
       transform="matrix(1.3333333,0,0,1.3333333,333.62933,175.088)">
      <path
         id="path17"
         d="m 5.2965547,-4.1587734 c 0.046875,-0.1523438 0.046875,-0.1757813 0.046875,-0.2460938 0,-0.1992187 -0.1523438,-0.2929687 -0.3164063,-0.2929687 -0.1054687,0 -0.28125,0.058594 -0.375,0.2226562 -0.023437,0.058594 -0.1171875,0.3984375 -0.1523437,0.5976563 -0.082031,0.28125 -0.1523438,0.5742187 -0.2226563,0.8671875 l -0.4921875,1.96875 c -0.046875,0.16406246 -0.515625,0.92578121 -1.2304687,0.92578121 -0.5625,0 -0.6796875,-0.48046875 -0.6796875,-0.89062501 0,-0.4921875 0.1875,-1.171875 0.5625,-2.1328125 0.1757812,-0.4453125 0.2109375,-0.5742187 0.2109375,-0.7851562 0,-0.4921875 -0.3515625,-0.9023438 -0.890625,-0.9023438 -1.04296876,0 -1.44140626,1.5820313 -1.44140626,1.6875 0,0.1054688 0.10546875,0.1054688 0.12890625,0.1054688 0.10546875,0 0.1171875,-0.023437 0.17578125,-0.1992188 0.29296875,-1.0195312 0.72656246,-1.3476562 1.10156246,-1.3476562 0.09375,0 0.2695313,0 0.2695313,0.3515625 0,0.2695312 -0.1054688,0.5507812 -0.1757813,0.7617187 -0.4453125,1.1601563 -0.6328125,1.78125 -0.6328125,2.2851563 0,0.97265621 0.6796875,1.30078121 1.3242188,1.30078121 0.421875,0 0.796875,-0.1875 1.1015625,-0.4921875 -0.140625,0.57421875 -0.2695313,1.1015625 -0.703125,1.68749999 -0.2929688,0.3632813 -0.703125,0.6796875 -1.2070313,0.6796875 -0.1523437,0 -0.6445312,-0.023437 -0.83203121,-0.4570312 0.17578121,0 0.31640621,0 0.48046871,-0.1289063 0.1054688,-0.09375 0.2109375,-0.234375 0.2109375,-0.44531249 0,-0.33984375 -0.2929687,-0.38671875 -0.3984375,-0.38671875 -0.25781246,0 -0.60937496,0.17578125 -0.60937496,0.71484374 0,0.5390625 0.48046876,0.9492188 1.14843746,0.9492188 1.125,0 2.25,-0.9960938 2.5546875,-2.22656254 z m 0,0"
         style="fill:#ff0000;fill-opacity:1;fill-rule:nonzero;stroke:none" />
      <path
         id="path18"
         d="m 16.274094,-3.5611172 c 0.164062,0 0.363281,0 0.363281,-0.2226562 0,-0.2226563 -0.199219,-0.2226563 -0.351562,-0.2226563 H 9.74675 c -0.1523437,0 -0.3632812,0 -0.3632812,0.2226563 0,0.2226562 0.2109375,0.2226562 0.375,0.2226562 z m 0.01172,2.109375 c 0.152343,0 0.351562,0 0.351562,-0.2109375 0,-0.2226562 -0.199219,-0.2226562 -0.363281,-0.2226562 H 9.7584688 c -0.1640625,0 -0.375,0 -0.375,0.2226562 0,0.2109375 0.2109375,0.2109375 0.3632812,0.2109375 z m 0,0"
         style="fill:#ff0000;fill-opacity:1;fill-rule:nonzero;stroke:none" />
      <path
         id="path19"
         d="m 25.426438,-4.1118984 c 0,-0.070312 0.02344,-0.1171875 0.02344,-0.1992188 0,-0.1875 -0.128906,-0.2929687 -0.316406,-0.2929687 -0.105469,0 -0.398438,0.082031 -0.445313,0.46875 -0.199218,-0.3984375 -0.574218,-0.6914063 -1.007812,-0.6914063 -1.253906,0 -2.601563,1.5351563 -2.601563,3.1054688 0,1.07812496 0.667969,1.72265621 1.453125,1.72265621 0.644532,0 1.148438,-0.515625 1.265625,-0.6328125 l 0.01172,0.0117188 c -0.234375,0.97265625 -0.363281,1.41796875 -0.363281,1.44140625 -0.04687,0.09375 -0.410156,1.17187504 -1.570313,1.17187504 -0.210937,0 -0.5625,-0.011719 -0.878906,-0.1054688 0.328125,-0.09375 0.457031,-0.3867187 0.457031,-0.5625 0,-0.1757812 -0.128906,-0.38671874 -0.421875,-0.38671874 -0.234375,0 -0.585937,0.19921874 -0.585937,0.63281254 0,0.4453125 0.398437,0.6679688 1.453125,0.6679688 1.359375,0 2.144531,-0.8554688 2.308594,-1.51171884 z m -1.429688,2.71875 c -0.05859,0.28125 -0.316406,0.55078121 -0.550781,0.76171871 -0.234375,0.19921875 -0.5625,0.3984375 -0.878906,0.3984375 -0.550782,0 -0.714844,-0.57421875 -0.714844,-1.00781251 0,-0.5273437 0.316406,-1.8164062 0.609375,-2.3671875 0.292969,-0.5390625 0.761719,-0.9726562 1.21875,-0.9726562 0.726562,0 0.878906,0.8789062 0.878906,0.9375 0,0.058594 -0.02344,0.1171875 -0.03516,0.1640625 z m 0,0"
         style="fill:#ff0000;fill-opacity:1;fill-rule:nonzero;stroke:none" />
      <path
         id="path20"
         d="m 29.486984,2.6146641 c 0,-0.023437 0,-0.046875 -0.1875,-0.234375 -1.359375,-1.3710938 -1.710937,-3.4335938 -1.710937,-5.109375 0,-1.8984375 0.421875,-3.796875 1.757812,-5.15625 0.140625,-0.1289063 0.140625,-0.1523438 0.140625,-0.1875 0,-0.070312 -0.04687,-0.1054688 -0.105468,-0.1054688 -0.105469,0 -1.089844,0.7382813 -1.734375,2.1210938 -0.5625,1.2070312 -0.691407,2.4140625 -0.691407,3.328125 0,0.8554687 0.117188,2.17968746 0.726563,3.41015621 0.644531,1.33593749 1.59375,2.05078129 1.699219,2.05078129 0.05859,0 0.105468,-0.035156 0.105468,-0.1171875 z m 0,0"
         style="fill:#ff0000;fill-opacity:1;fill-rule:nonzero;stroke:none" />
      <path
         id="path21"
         d="m 33.764328,-3.2915859 c 0.07031,-0.28125 0.316406,-1.2890625 1.078125,-1.2890625 0.05859,0 0.316406,0 0.550781,0.140625 -0.304687,0.058594 -0.527343,0.328125 -0.527343,0.5859375 0,0.1757812 0.117187,0.3867187 0.410156,0.3867187 0.246094,0 0.597656,-0.1992187 0.597656,-0.6328125 0,-0.5625 -0.644531,-0.7265625 -1.019531,-0.7265625 -0.632813,0 -1.019531,0.5859375 -1.148438,0.8320313 -0.269531,-0.7148438 -0.855468,-0.8320313 -1.171875,-0.8320313 -1.136718,0 -1.757812,1.4179688 -1.757812,1.6875 0,0.1054688 0.105469,0.1054688 0.128906,0.1054688 0.08203,0 0.117188,-0.023437 0.140625,-0.1171875 0.375,-1.1601563 1.089844,-1.4296875 1.464844,-1.4296875 0.210937,0 0.585937,0.09375 0.585937,0.7265625 0,0.3398437 -0.1875,1.078125 -0.585937,2.6015625 -0.175781,0.67968746 -0.5625,1.13671871 -1.042969,1.13671871 -0.05859,0 -0.316406,0 -0.539062,-0.140625 0.269531,-0.0585938 0.515625,-0.29296875 0.515625,-0.59765625 0,-0.29296876 -0.246094,-0.37499996 -0.410157,-0.37499996 -0.328125,0 -0.597656,0.28124996 -0.597656,0.63281246 0,0.50390625 0.550781,0.71484375 1.03125,0.71484375 0.714844,0 1.101563,-0.76171875 1.136719,-0.83203125 0.128906,0.41015625 0.527344,0.83203125 1.183594,0.83203125 1.125,0 1.746093,-1.40625001 1.746093,-1.67578121 0,-0.1054688 -0.105468,-0.1054688 -0.128906,-0.1054688 -0.105469,0 -0.128906,0.035156 -0.140625,0.1171875 -0.363281,1.16015626 -1.113281,1.42968751 -1.453125,1.42968751 -0.433594,0 -0.609375,-0.3515625 -0.609375,-0.7265625 0,-0.23437501 0.07031,-0.48046871 0.1875,-0.96093751 z m 0,0"
         style="fill:#ff0000;fill-opacity:1;fill-rule:nonzero;stroke:none" />
      <path
         id="path22"
         d="m 39.506516,-2.7290859 c 0,-0.84375 -0.117188,-2.1679688 -0.714844,-3.3984375 -0.65625,-1.3476563 -1.59375,-2.0507813 -1.710938,-2.0507813 -0.05859,0 -0.105468,0.035156 -0.105468,0.1054688 0,0.035156 0,0.058594 0.210937,0.2460937 1.066406,1.0898438 1.6875,2.8242188 1.6875,5.0976563 0,1.86328121 -0.398437,3.7851562 -1.757812,5.1679687 -0.140625,0.1289063 -0.140625,0.1523438 -0.140625,0.1757813 0,0.070312 0.04687,0.1171875 0.105468,0.1171875 0.117188,0 1.089844,-0.75 1.734375,-2.13281254 0.5625,-1.1953125 0.691407,-2.41406246 0.691407,-3.32812496 z m 0,0"
         style="fill:#ff0000;fill-opacity:1;fill-rule:nonzero;stroke:none" />
    </g>
    <path
       id="path23"
       d="M 25.51193,0 V 123.51434"
       style="fill:none;stroke:#ec008c;stroke-width:0.3985;stroke-linecap:butt;stroke-linejoin:miter;stroke-miterlimit:10;stroke-dasharray:2.98883, 2.98883;stroke-dashoffset:0;stroke-opacity:1"
       transform="matrix(1.3333333,0,0,-1.3333333,124.22267,266.61333)" />
    <path
       id="path24"
       d="m 3.7137656,-3.7627344 c -0.1757812,-0.375 -0.46875,-0.6445312 -0.9140625,-0.6445312 -1.171875,0 -2.40234373,1.4648437 -2.40234373,2.9179687 0,0.93750003 0.55078125,1.59375003 1.32421873,1.59375003 0.1992188,0 0.703125,-0.03515625 1.3007813,-0.73828125 0.070312,0.41015625 0.421875,0.73828125 0.9023437,0.73828125 0.3515625,0 0.5742188,-0.22265625 0.7382813,-0.5390625 0.1640625,-0.36328125 0.2929687,-0.97265623 0.2929687,-0.99609373 0,-0.09375 -0.082031,-0.09375 -0.1171875,-0.09375 -0.09375,0 -0.1054687,0.035156 -0.140625,0.1757812 -0.1640625,0.64453128 -0.3515625,1.24218753 -0.75,1.24218753 -0.2695312,0 -0.3046875,-0.2578125 -0.3046875,-0.45703125 0,-0.22265625 0.023437,-0.3046875 0.1289063,-0.73828128 0.1171875,-0.421875 0.1289062,-0.5273437 0.2226562,-0.9023437 l 0.3515625,-1.3945313 c 0.070312,-0.28125 0.070312,-0.2929687 0.070312,-0.3398437 0,-0.1640625 -0.1171875,-0.2695313 -0.28125,-0.2695313 -0.2460937,0 -0.3867187,0.2226563 -0.4218745,0.4453125 z m -0.6445312,2.578125 c -0.046875,0.1757813 -0.046875,0.19921878 -0.1992188,0.36328128 -0.4453125,0.55078125 -0.84375,0.71484375 -1.125,0.71484375 -0.5039062,0 -0.6445312,-0.55078125 -0.6445312,-0.93750003 0,-0.5039062 0.328125,-1.7226562 0.5507812,-2.1796875 0.3046875,-0.5976562 0.7617188,-0.9609375 1.1601563,-0.9609375 0.6445312,0 0.7851562,0.8203125 0.7851562,0.8789063 0,0.058594 -0.023437,0.1171875 -0.035156,0.1640625 z m 0,0"
       style="fill:#ec008c;fill-opacity:1;fill-rule:nonzero;stroke:none"
       aria-label="a"
       transform="matrix(1.3333333,0,0,1.3333333,154.728,277.44667)" />
    <path
       id="path25"
       d="m 2.3785391,-6.80775 c 0,0 0,-0.1054687 -0.1289063,-0.1054687 -0.2226562,0 -0.9492187,0.082031 -1.21875,0.1054687 -0.0703125,0 -0.18749999,0.011719 -0.18749999,0.1992188 0,0.1171875 0.09375,0.1171875 0.24609379,0.1171875 0.46875,0 0.4921875,0.070312 0.4921875,0.1640625 0,0.070312 -0.082031,0.4101562 -0.140625,0.6210937 l -0.80859379,3.2460938 c -0.12890625,0.5039062 -0.1640625,0.65625 -0.1640625,1.0078125 0,0.9492187 0.52734375,1.5585937 1.26562499,1.5585937 1.171875,0 2.4023438,-1.4765625 2.4023438,-2.9179687 0,-0.9023438 -0.5273438,-1.59375 -1.3242188,-1.59375 -0.4570312,0 -0.8671875,0.2929687 -1.171875,0.5976562 z m -0.9375,3.7734375 c 0.058594,-0.2226562 0.058594,-0.2460937 0.1523437,-0.3515625 0.4921875,-0.6445312 0.9375,-0.796875 1.1953125,-0.796875 0.3632813,0 0.6328125,0.2929688 0.6328125,0.9375 0,0.5859375 -0.328125,1.734375 -0.515625,2.109375 -0.328125,0.66796875 -0.7851562,1.03125 -1.171875,1.03125 -0.3398437,0 -0.6679687,-0.26953125 -0.6679687,-1.0078125 0,-0.1875 0,-0.3867187 0.1640625,-1.0078125 z m 0,0"
       style="fill:#ec008c;fill-opacity:1;fill-rule:nonzero;stroke:none"
       aria-label="b"
       transform="matrix(1.3333333,0,0,1.3333333,325.46533,280.952)" />
    <path
       id="path26"
       d="M 153.07172,0 V 94.92006"
       style="fill:none;stroke:#ec008c;stroke-width:0.3985;stroke-linecap:butt;stroke-linejoin:miter;stroke-miterlimit:10;stroke-dasharray:2.98883, 2.98883;stroke-dashoffset:0;stroke-opacity:1"
       transform="matrix(1.3333333,0,0,-1.3333333,124.22267,266.61333)" />
    <path
       id="path27"
       d="m 7.0310781,-7.580875 c 0,-0.035156 -0.011719,-0.1054687 -0.1171875,-0.1054687 -0.046875,0 -0.058594,0.011719 -0.1992187,0.1640625 l -0.515625,0.6210937 c -0.28125,-0.515625 -0.8554688,-0.7851562 -1.5585938,-0.7851562 -1.3945312,0 -2.6953125,1.2539062 -2.6953125,2.5664062 0,0.890625 0.5742188,1.3945313 1.1367188,1.5585938 l 1.1601562,0.3046875 c 0.4101563,0.09375 1.0078125,0.2578125 1.0078125,1.1484375 0,0.984375 -0.9023437,2.01562495 -1.96875,2.01562495 -0.6914062,0 -1.9101562,-0.24609375 -1.9101562,-1.59374995 0,-0.2695313 0.058594,-0.5273438 0.070312,-0.5976563 0.011719,-0.035156 0.023437,-0.046875 0.023437,-0.070312 0,-0.1054687 -0.082031,-0.1171875 -0.1289063,-0.1171875 -0.058594,0 -0.082031,0.011719 -0.1171875,0.035156 -0.035156,0.046875 -0.65624997,2.53124995 -0.65624997,2.5664062 0,0.0703125 0.0585938,0.10546875 0.12890625,0.10546875 0.046875,0 0.0585938,0 0.1875,-0.15234375 L 1.4177969,-0.549625 c 0.46875,0.6328125 1.2070312,0.78515625 1.8398437,0.78515625 1.4882813,0 2.7773438,-1.44140625 2.7773438,-2.80078125 0,-0.75 -0.375,-1.125 -0.5390625,-1.2773437 C 5.2498281,-4.0886875 5.0857656,-4.1355625 4.1131094,-4.3816562 3.8787344,-4.4519687 3.4802969,-4.5574375 3.3865469,-4.580875 3.0818594,-4.674625 2.7185781,-4.9910312 2.7185781,-5.5769687 c 0,-0.8789063 0.8671875,-1.8046875 1.9101563,-1.8046875 0.9023437,0 1.5703125,0.46875 1.5703125,1.6875 0,0.3515625 -0.046875,0.5507812 -0.046875,0.609375 0,0.011719 0,0.1054687 0.1289062,0.1054687 0.1171875,0 0.1171875,-0.023437 0.1640625,-0.2109375 z m 0,0"
       style="fill:#000000;fill-opacity:1;fill-rule:nonzero;stroke:none"
       aria-label="S"
       transform="matrix(1.3333333,0,0,1.3333333,238.39867,186.54533)" />
  </g>
</svg>
