<?xml version="1.0" encoding="UTF-8" standalone="no"?>
<!-- Created with Inkscape (http://www.inkscape.org/) -->

<svg
   version="1.1"
   id="svg1"
   width="343.67038"
   height="259.84009"
   viewBox="0 0 343.67038 259.84009"
   sodipodi:docname="6.1-funciones-cruzadas.svg"
   inkscape:version="1.4.2 (f4327f4, 2025-05-13)"
   xmlns:inkscape="http://www.inkscape.org/namespaces/inkscape"
   xmlns:sodipodi="http://sodipodi.sourceforge.net/DTD/sodipodi-0.dtd"
   xmlns="http://www.w3.org/2000/svg"
   xmlns:svg="http://www.w3.org/2000/svg">
  <defs
     id="defs1" />
  <sodipodi:namedview
     id="namedview1"
     pagecolor="#ffffff"
     bordercolor="#000000"
     borderopacity="0.25"
     inkscape:showpageshadow="2"
     inkscape:pageopacity="0.0"
     inkscape:pagecheckerboard="0"
     inkscape:deskcolor="#d1d1d1"
     inkscape:zoom="2.2241536"
     inkscape:cx="203.89779"
     inkscape:cy="138.70445"
     inkscape:window-width="1920"
     inkscape:window-height="1009"
     inkscape:window-x="-8"
     inkscape:window-y="-8"
     inkscape:window-maximized="1"
     inkscape:current-layer="g1">
    <inkscape:page
       x="5.6019921e-08"
       y="1.5166636e-07"
       inkscape:label="5"
       id="page1"
       width="343.67038"
       height="259.84009"
       margin="0"
       bleed="0" />
  </sodipodi:namedview>
  <g
     id="g1"
     inkscape:groupmode="layer"
     inkscape:label="5"
     transform="translate(-38.060093,-42.566406)">
    <path
       id="path2"
       d="M -25.51193,0 H 229.1493"
       style="fill:none;stroke:#000000;stroke-width:0.3985;stroke-linecap:butt;stroke-linejoin:miter;stroke-miterlimit:10;stroke-dasharray:none;stroke-opacity:1"
       transform="matrix(1.3333333,0,0,-1.3333333,72.076,217.36667)" />
    <path
       id="path3"
       d="M -1.19551,1.59401 C -1.09587,0.99626 0,0.09961 0.29886,0 0,-0.09961 -1.09587,-0.99626 -1.19551,-1.59401"
       style="fill:none;stroke:#000000;stroke-width:0.31879;stroke-linecap:round;stroke-linejoin:round;stroke-miterlimit:10;stroke-dasharray:none;stroke-opacity:1"
       transform="matrix(1.3333333,0,0,-1.3333333,377.6084,217.36667)" />
    <path
       id="path4"
       d="m 3.6434766,-3.2933281 c 0.070312,-0.28125 0.3164062,-1.2890625 1.078125,-1.2890625 0.058594,0 0.3164062,0 0.5507812,0.140625 -0.3046875,0.058594 -0.5273437,0.328125 -0.5273437,0.5859375 0,0.1757812 0.1171875,0.3867187 0.4101562,0.3867187 0.2460938,0 0.5976563,-0.1992187 0.5976563,-0.6328125 0,-0.5625 -0.6445313,-0.7265625 -1.0195313,-0.7265625 -0.6328125,0 -1.0195312,0.5859375 -1.1484375,0.8320313 -0.2695312,-0.7148438 -0.8554687,-0.8320313 -1.171875,-0.8320313 -1.1367187,0 -1.75781249,1.4179688 -1.75781249,1.6875 0,0.1054688 0.10546875,0.1054688 0.12890625,0.1054688 0.0820313,0 0.1171875,-0.023437 0.140625,-0.1171875 0.37500004,-1.1601563 1.08984374,-1.4296875 1.46484374,-1.4296875 0.2109375,0 0.5859375,0.09375 0.5859375,0.7265625 0,0.3398437 -0.1875,1.078125 -0.5859375,2.6015625 -0.1757812,0.67968748 -0.5625,1.13671873 -1.0429687,1.13671873 -0.058594,0 -0.3164063,0 -0.53906254,-0.140625 0.26953124,-0.0585938 0.51562504,-0.29296875 0.51562504,-0.59765625 0,-0.29296878 -0.2460938,-0.37499998 -0.41015629,-0.37499998 -0.328125,0 -0.59765625,0.28124998 -0.59765625,0.63281248 0,0.50390625 0.55078125,0.71484375 1.03125004,0.71484375 0.7148437,0 1.1015625,-0.76171875 1.1367187,-0.83203125 0.1289063,0.41015625 0.5273438,0.83203125 1.1835938,0.83203125 1.125,0 1.7460937,-1.40625003 1.7460937,-1.67578123 0,-0.1054688 -0.1054687,-0.1054688 -0.1289062,-0.1054688 -0.1054688,0 -0.1289063,0.035156 -0.140625,0.1171875 -0.3632813,1.16015628 -1.1132813,1.42968753 -1.453125,1.42968753 -0.4335938,0 -0.609375,-0.3515625 -0.609375,-0.7265625 0,-0.23437503 0.070312,-0.48046873 0.1875,-0.96093753 z m 0,0"
       style="fill:#000000;fill-opacity:1;fill-rule:nonzero;stroke:none"
       aria-label="x"
       transform="matrix(1.3333333,0,0,1.3333333,374.06,228.74267)" />
    <path
       id="path5"
       d="M 0,-63.77986 V 127.10149"
       style="fill:none;stroke:#000000;stroke-width:0.3985;stroke-linecap:butt;stroke-linejoin:miter;stroke-miterlimit:10;stroke-dasharray:none;stroke-opacity:1"
       transform="matrix(1.3333333,0,0,-1.3333333,72.076,217.36667)" />
    <path
       id="path6"
       d="M -1.19551,1.59401 C -1.09587,0.99626 0,0.09961 0.29886,0 0,-0.09961 -1.09587,-0.99626 -1.19551,-1.59401"
       style="fill:none;stroke:#000000;stroke-width:0.31879;stroke-linecap:round;stroke-linejoin:round;stroke-miterlimit:10;stroke-dasharray:none;stroke-opacity:1"
       transform="matrix(0,-1.3333333,-1.3333333,0,72.076,47.898013)" />
    <path
       id="path7"
       d="m 5.2963203,-4.1612266 c 0.046875,-0.1523437 0.046875,-0.1757812 0.046875,-0.2460937 0,-0.1992188 -0.1523437,-0.2929688 -0.3164062,-0.2929688 -0.1054688,0 -0.28125,0.058594 -0.375,0.2226563 -0.023437,0.058594 -0.1171875,0.3984375 -0.1523438,0.5976562 -0.082031,0.28125 -0.1523437,0.5742188 -0.2226562,0.8671875 l -0.4921875,1.96875 c -0.046875,0.16406254 -0.515625,0.92578129 -1.2304688,0.92578129 -0.5625,0 -0.6796875,-0.48046875 -0.6796875,-0.89062499 0,-0.4921875 0.1875,-1.171875 0.5625,-2.1328125 0.1757813,-0.4453125 0.2109375,-0.5742188 0.2109375,-0.7851563 0,-0.4921875 -0.3515625,-0.9023437 -0.890625,-0.9023437 -1.04296874,0 -1.44140624,1.5820312 -1.44140624,1.6875 0,0.1054687 0.10546875,0.1054687 0.12890625,0.1054687 0.10546875,0 0.1171875,-0.023437 0.17578125,-0.1992187 0.29296875,-1.0195313 0.72656254,-1.3476563 1.10156254,-1.3476563 0.09375,0 0.2695312,0 0.2695312,0.3515625 0,0.2695313 -0.1054687,0.5507813 -0.1757812,0.7617188 -0.4453125,1.1601562 -0.6328125,1.78125 -0.6328125,2.2851562 0,0.97265629 0.6796875,1.30078129 1.3242187,1.30078129 0.421875,0 0.796875,-0.1875 1.1015625,-0.4921875 -0.140625,0.57421875 -0.2695312,1.1015625 -0.703125,1.68750001 -0.2929687,0.3632812 -0.703125,0.6796875 -1.2070312,0.6796875 -0.1523438,0 -0.6445313,-0.023437 -0.83203129,-0.4570313 0.17578129,0 0.31640629,0 0.48046879,-0.1289062 0.1054687,-0.09375 0.2109375,-0.234375 0.2109375,-0.44531251 0,-0.33984375 -0.2929688,-0.38671875 -0.3984375,-0.38671875 -0.25781254,0 -0.60937504,0.17578125 -0.60937504,0.71484376 0,0.5390625 0.48046874,0.9492187 1.14843754,0.9492187 1.125,0 2.25,-0.9960937 2.5546875,-2.22656246 z m 0,0"
       style="fill:#000000;fill-opacity:1;fill-rule:nonzero;stroke:none"
       aria-label="y"
       transform="matrix(1.3333333,0,0,1.3333333,59.309333,49.005333)" />
    <path
       id="path8"
       d="m 25.51193,47.22606 0.89731,1.03627 0.89729,0.97826 0.89728,0.91636 0.89729,0.85448 0.89731,0.7914 0.89729,0.72718 0.8973,0.66295 0.89728,0.59522 0.89731,0.53097 0.89729,0.46248 0.89729,0.39551 0.89728,0.3262 0.89729,0.25772 0.89733,0.18958 0.89727,0.12068 0.8973,0.05061 0.89727,-0.01986 0.89733,-0.08837 0.89728,-0.15649 0.89729,-0.22695 0.89729,-0.29546 0.89731,-0.36321 0.89729,-0.4317 0.89728,-0.50023 0.89729,-0.56601 0.89731,-0.63181 0.8973,-0.69798 0.89729,-0.76146 0.89728,-0.82643 0.89732,-0.88717 0.89728,-0.95061 0.89729,-1.00982 0.89728,-1.06817 0.89732,-1.12775 0.8973,-1.18187 0.89727,-1.23829 0.89729,-1.29165 0.89732,-1.34185 0.89729,-1.39244 0.89728,-1.44153 0.89729,-1.48667 0.89729,-1.533 0.89731,-1.57581 0.89729,-1.61628 0.89728,-1.65447 0.8973,-1.69141 0.8973,-1.72724 0.8973,-1.7584 0.89729,-1.78912 0.89728,-1.81795 0.89732,-1.84324 0.89728,-1.8678 0.89729,-1.88838 0.89728,-1.90903 0.89732,-1.92269 0.89729,-1.93978 0.89728,-1.94991 0.8973,-1.95964 0.89731,-1.96625 0.89729,-1.9725 0.89729,-1.97167 0.89728,-1.97326 0.89732,-1.97055 0.89728,-1.96549 0.89729,-1.95848 0.89728,-1.94757 0.89731,-1.93552 0.89731,-1.92109 0.89728,-1.90358 0.89729,-1.88335 0.89729,-1.8627 0.89731,-1.8378 0.89728,-1.81134 0.89729,-1.78329 0.8973,-1.75217 0.8973,-1.71985 0.8973,-1.68362 0.89727,-1.6451 0.8973,-1.60736 0.89731,-1.56645 0.89729,-1.52289 0.89729,-1.47731 0.89728,-1.43022 0.89732,-1.38234 0.89728,-1.33175 0.89729,-1.27917 0.89728,-1.22584 0.89733,-1.17134 0.89729,-1.11335 0.89728,-1.05613 0.89729,-0.99695 0.89731,-0.9366 0.89729,-0.87474 0.89728,-0.81163 0.89729,-0.74782 0.89731,-0.6832 0.89729,-0.61856 0.8973,-0.55043 0.89727,-0.48504 0.89731,-0.41771 0.8973,-0.3488 0.89729,-0.28067 0.89729,-0.21059 0.89729,-0.1425 0.89731,-0.07357 0.89728,-0.0035 0.89729,0.06618 0.89728,0.13509 0.89733,0.2032 0.89729,0.27483 0.89728,0.34101 0.89729,0.40992 0.89731,0.47726 0.89729,0.5454 0.89728,0.61076 0.89729,0.67657 0.89733,0.74237 0.89727,0.80503 0.8973,0.8685 0.89728,0.92999 0.89732,0.9911 0.89729,1.04989 0.89728,1.10829 0.89729,1.16473 0.89731,1.22118 0.89729,1.27333 0.89728,1.32667 0.89729,1.37612 0.89731,1.42593 0.8973,1.47304 0.89729,1.5186 0.89728,1.5614 0.89731,1.60385 0.89729,1.64198 0.89729,1.68015 0.89729,1.71632 0.89729,1.74788 0.89732,1.7798 0.89728,1.80938 0.89729,1.83547 0.89727,1.8592 0.89733,1.88257 0.89729,1.90203 0.89728,1.91838 0.89729,1.93473 0.89731,1.94641 0.89729,1.95692 0.89728,1.96471 0.89729,1.97053 0.89733,1.97329 0.89728,1.97166 0.89729,1.9717 0.89728,1.96783 0.89732,1.96042 0.89728,1.95108 0.89729,1.94057 0.89729,1.92537 0.89732,1.90866 0.89729,1.89113 0.89727,1.87051 0.8973,1.84556 0.89731,1.82068 0.89729,1.79264 0.89729,1.76149 0.89728,1.73074 0.89731,1.69493 0.89729,1.65874 0.89729,1.62057 0.89728,1.57818 0.8973,1.53724 0.89732,1.49291 0.89728,1.44656 0.89729,1.39754 0.89728,1.34806 0.89732,1.29593 0.89728,1.24336 0.89729,1.18964 0.8973,1.13204 0.8973,1.07559 0.8973,1.01602 0.89727,0.95569 0.8973,0.89299 0.89732,0.83346 0.89728,0.76806 0.89729,0.70498 0.89728,0.63883 0.89732,0.57223 0.89728,0.50685 0.8973,0.43755 0.89729,0.37099 0.89731,0.30246 0.89729,0.23358 0.89728,0.16465 0.89729,0.09501 0.89731,0.02645 0.89729,-0.04437 0.89729,-0.11328 0.89728,-0.18063 0.8973,-0.25264"
       style="fill:none;stroke:#008080;stroke-width:0.79701;stroke-linecap:butt;stroke-linejoin:miter;stroke-miterlimit:10;stroke-dasharray:none;stroke-opacity:1"
       transform="matrix(1.3333333,0,0,-1.3333333,72.076,217.36667)" />
    <path
       id="path9"
       d="m 25.51193,62.2753 0.89731,-1.6564 0.89729,-1.64083 0.89728,-1.62524 0.89729,-1.60928 0.89731,-1.59336 0.89729,-1.57773 0.8973,-1.56181 0.89728,-1.54622 0.89731,-1.53027 0.89729,-1.5147 0.89729,-1.49873 0.89728,-1.48317 0.89729,-1.46719 0.89733,-1.45125 0.89727,-1.43567 0.8973,-1.42009 0.89727,-1.40414 0.89733,-1.38819 0.89728,-1.3726 0.89729,-1.35665 0.89729,-1.34108 0.89731,-1.3251 0.89729,-1.30955 0.89728,-1.29358 0.89729,-1.27802 0.89731,-1.26204 0.8973,-1.24649 0.89729,-1.2305 0.89728,-1.21458 0.89732,-1.19898 0.89728,-1.18341 0.89729,-1.16745 0.89728,-1.15149 0.89732,-1.13594 0.8973,-1.11996 0.89727,-1.10439 0.89729,-1.08842 0.89732,-1.07286 0.89729,-1.0569 0.89728,-1.04132 0.89729,-1.02538 0.89729,-1.00979 0.89731,-0.99384 0.89729,-0.97789 0.89728,-0.9623 0.8973,-0.94633 0.8973,-0.93077 0.8973,-0.91521 0.89729,-0.8992 0.89728,-0.88328 0.89732,-0.86771 0.89728,-0.85175 0.89729,-0.83617 0.89728,-0.82023 0.89732,-0.80424 0.89729,-0.78868 0.89728,-0.77311 0.8973,-0.75717 0.89731,-0.74118 0.89729,-0.72563 0.89729,-0.71005 0.89728,-0.69409 0.89732,-0.67814 0.89728,-0.66253 0.89729,-0.64661 0.89728,-0.63103 0.89731,-0.61505 0.89731,-0.5995 0.89728,-0.58353 0.89729,-0.56756 0.89729,-0.55202 0.89731,-0.53644 0.89728,-0.52046 0.89729,-0.50452 0.8973,-0.48893 0.8973,-0.47336 0.8973,-0.45702 0.89727,-0.44183 0.8973,-0.42586 0.89731,-0.40993 0.89729,-0.39396 0.89729,-0.37877 0.89728,-0.36241 0.89732,-0.34686 0.89728,-0.33127 0.89729,-0.31533 0.89728,-0.29934 0.89733,-0.2838 0.89729,-0.26821 0.89728,-0.25224 0.89729,-0.23631 0.89731,-0.22074 0.89729,-0.20474 0.89728,-0.18919 0.89729,-0.17323 0.89731,-0.15767 0.89729,-0.14168 0.8973,-0.12613 0.89727,-0.11017 0.89731,-0.09421 0.8973,-0.07863 0.89729,-0.06307 0.89729,-0.04709 0.89729,-0.03116 0.89731,-0.01558 0.89728,3.9e-4 0.89729,0.01597 0.89728,0.03192 0.89733,0.0475 0.89729,0.06344 0.89728,0.07903 0.89729,0.095 0.89731,0.11094 0.89729,0.12652 0.89728,0.14208 0.89729,0.15804 0.89733,0.174 0.89727,0.18959 0.8973,0.20517 0.89728,0.22148 0.89732,0.23669 0.89729,0.25304 0.89728,0.26822 0.89729,0.28456 0.89731,0.29975 0.89729,0.31608 0.89728,0.33168 0.89729,0.34723 0.89731,0.36321 0.8973,0.37915 0.89729,0.39474 0.89728,0.41029 0.89731,0.42628 0.89729,0.44221 0.89729,0.45781 0.89729,0.47375 0.89729,0.48932 0.89732,0.5053 0.89728,0.52084 0.89729,0.53683 0.89727,0.55277 0.89733,0.56836 0.89729,0.58392 0.89728,0.59989 0.89729,0.61583 0.89731,0.63144 0.89729,0.64697 0.89728,0.66334 0.89729,0.67852 0.89733,0.69485 0.89728,0.71005 0.89729,0.72643 0.89728,0.74156 0.89732,0.75793 0.89728,0.7735 0.89729,0.78908 0.89729,0.80502 0.89732,0.821 0.89729,0.83657 0.89727,0.85214 0.8973,0.8681 0.89731,0.88407 0.89729,0.89956 0.89729,0.91561 0.89728,0.93115 0.89731,0.94711 0.89729,0.96271 0.89729,0.97865 0.89728,0.99423 0.8973,1.01018 0.89732,1.02614 0.89728,1.04172 0.89729,1.05729 0.89728,1.07325 0.89732,1.08921 0.89728,1.10479 0.89729,1.12074 0.8973,1.13631 0.8973,1.15226 0.8973,1.16785 0.89727,1.18381 0.8973,1.19937 0.89732,1.21535 0.89728,1.23129 0.89729,1.24689 0.89728,1.26243 0.89732,1.2784 0.89728,1.29436 0.8973,1.30992 0.89729,1.32552 0.89731,1.34145 0.89729,1.35743 0.89728,1.373 0.89729,1.38896 0.89731,1.40491 0.89729,1.4201 0.89729,1.43645 0.89728,1.45201 0.8973,1.4676"
       style="fill:none;stroke:#eb0a36;stroke-width:0.79701;stroke-linecap:butt;stroke-linejoin:miter;stroke-miterlimit:10;stroke-dasharray:none;stroke-opacity:1"
       transform="matrix(1.3333333,0,0,-1.3333333,72.076,217.36667)" />
    <path
       id="path10"
       d="m 30.86961,52.50938 0.56679,0.42743 0.5668,0.40251 0.56679,0.37412 0.56681,0.34763 0.56678,0.32232 0.56681,0.29546 0.56678,0.26628 0.56681,0.24057 0.56678,0.21333 0.56681,0.18647 0.56678,0.15843 0.56679,0.13041 0.56681,0.10433 0.56678,0.07629 0.56681,0.04634 0.56678,0.0214 0.56679,-0.0051 0.5668,-0.03698 0.56679,-0.06347 0.5668,-0.08992 0.5668,-0.11638 0.56678,-0.14638 0.56679,-0.17323 0.5668,-0.19931 0.56679,-0.22698 0.5668,-0.25691 0.56679,-0.28105 0.56679,-0.30638 0.5668,-0.3375 0.56679,-0.36242 0.5668,-0.38695 0.56679,-0.41458 0.56678,-0.44263 0.5668,-0.46597 0.5668,-0.49164 0.5668,-0.51735 0.56679,-0.54382 0.56679,-0.5668 0.56678,-0.59017 0.56682,-0.6174 0.56679,-0.63997 0.5668,-0.66371 0.56679,-0.68515 0.56679,-0.71161 0.5668,-0.73222 0.5668,-0.75444 0.56679,-0.77583 0.56679,-0.7992 0.56679,-0.81946 0.56678,-0.83772 0.56682,-0.86148 0.56679,-0.87938 0.56679,-0.89923 0.56679,-0.91833 0.56678,-0.937 0.56682,-0.95492 0.56679,-0.97279 0.56679,-0.9884 0.56679,-1.00708 0.56678,-1.02263 0.56679,-1.03628 0.56682,-1.0534 0.56679,-1.06779 0.56678,-1.08182 0.56679,-1.09425 0.56679,-1.10906 0.56682,-1.12036 0.56678,-1.13205 0.5668,-1.14332 0.56678,-1.15537 0.56679,-1.16395 0.56682,-1.17408 0.56678,-1.18341 0.56679,-1.19238 0.56679,-1.19899 0.5668,-1.20754 0.56679,-1.21263 0.56682,-1.22038 0.56679,-1.22389 0.56678,-1.23055 0.56679,-1.23401 0.56681,-1.23867 0.5668,-1.23989 0.56679,-1.24258 0.56678,-1.24609 0.56679,-1.2453 0.56681,-1.24567 0.56678,-1.24687 0.56681,-1.2453 0.56678,-1.24533 0.56679,-1.24257 0.5668,-1.24025 0.56679,-1.2383 0.5668,-1.23404 0.56679,-1.22896 0.56679,-1.22389 0.56679,-1.21963 0.5668,-1.21183 0.5668,-1.20561 0.01361,0.1203 -0.56678,0.37137 -0.56681,0.37799 -0.56678,0.38422 -0.56681,0.39045 -0.56678,0.39667 -0.56679,0.40293 -0.56681,0.4095 -0.56678,0.41537 -0.56679,0.42198 -0.5668,0.42821 -0.56679,0.43483 -0.56681,0.44066 -0.56678,0.44731 -0.56679,0.45312 -0.5668,0.45972 -0.56679,0.46598 -0.5668,0.47259 -0.56679,0.47842 -0.56679,0.48503 -0.5668,0.49089 -0.56679,0.49752 -0.5668,0.50412 -0.56679,0.50995 -0.56679,0.51618 -0.56679,0.52282 -0.5668,0.52903 -0.5668,0.53527 -0.56679,0.54147 -0.56679,0.54773 -0.56679,0.55434 -0.5668,0.56057 -0.5668,0.56635 -0.56679,0.57341 -0.56679,0.57925 -0.56678,0.58548 -0.56681,0.59211 -0.5668,0.59793 -0.5668,0.60455 -0.56679,0.61079 -0.56679,0.6174 -0.56678,0.62322 -0.56681,0.62987 -0.5668,0.63609 -0.56679,0.64232 -0.56679,0.64853 -0.56679,0.65478 -0.5668,0.661 -0.5668,0.66762 -0.56679,0.67384 -0.56679,0.68007 -0.56678,0.68632 -0.56679,0.69292 -0.56682,0.69875 -0.56679,0.70538 -0.56679,0.71161 -0.56678,0.71783 -0.56679,0.72406 -0.56682,0.73029 -0.56678,0.73692 -0.5668,0.74314 -0.56678,0.74936 -0.56679,0.7556 -0.5668,0.76182 -0.56681,0.76805 -0.56678,0.77466 -0.56679,0.78091 -0.56679,0.78713 -0.5668,0.79336 -0.56681,0.79958 -0.56678,0.8062 -0.56679,0.81206 -0.5668,0.81865 -0.56679,0.82487 -0.5668,0.83113 -0.56681,0.83774 -0.56678,0.84357 -0.5668,0.85019 -0.56678,0.85641 -0.5668,0.86265 -0.56681,0.86889 -0.56678,0.87511 -0.56679,0.8817 -0.56679,0.88796 -0.5668,0.89418 -0.56681,0.90041 -0.56678,0.90663 -0.56679,0.91287 -0.56679,0.91948 -0.5668,0.92571 -0.5668,0.93194 -0.56679,0.93817 -0.56679,0.9444 -0.56679,0.951 -0.5668,0.95687 -0.56679,0.96347 -0.5668,0.96969 -0.56679,0.97594 -0.56679,0.98255 -0.5668,0.98838 -0.01363,-0.08487 z"
       style="fill:#9999ff;fill-opacity:0.25;fill-rule:nonzero;stroke:none"
       transform="matrix(1.3333333,0,0,-1.3333333,72.076,217.36667)" />
    <path
       id="path11"
       d="m 86.99583,-14.73311 0.67231,-0.43289 0.67227,-0.42354 0.67229,-0.41498 0.6723,-0.406 0.67228,-0.39708 0.67229,-0.38812 0.6723,-0.37954 0.67229,-0.37059 0.67229,-0.36166 0.6723,-0.35268 0.67227,-0.34413 0.67228,-0.33518 0.6723,-0.3262 0.67228,-0.31726 0.67229,-0.30871 0.6723,-0.29975 0.67229,-0.29078 0.67229,-0.28185 0.6723,-0.27328 0.67227,-0.26393 0.6723,-0.25576 0.67229,-0.24643 0.67227,-0.23744 0.6723,-0.22889 0.67229,-0.21996 0.67229,-0.21138 0.6723,-0.20203 0.67229,-0.19348 0.67227,-0.18451 0.6723,-0.17556 0.67228,-0.16701 0.6723,-0.15804 0.6723,-0.14911 0.67227,-0.14014 0.67229,-0.13117 0.6723,-0.12264 0.67228,-0.11366 0.67228,-0.10472 0.6723,-0.09616 0.67228,-0.08719 0.6723,-0.07825 0.6723,-0.06931 0.67228,-0.06033 0.6723,-0.05175 0.67228,-0.04284 0.67228,-0.03386 0.67229,-0.02531 0.67229,-0.01595 0.67228,-0.0074 0.6723,0.0015 0.6723,0.01014 0.67228,0.01907 0.6723,0.02841 0.67229,0.03659 0.67229,0.04595 0.67228,0.0545 0.67227,0.06345 0.67229,0.0724 0.6723,0.08136 0.67229,0.08992 0.67229,0.09888 0.6723,0.10785 0.67229,0.11677 0.67228,0.12534 0.67229,0.13431 0.67229,0.14325 0.6723,0.15221 0.67227,0.16077 0.67229,0.16974 0.6723,0.17867 0.67229,0.18763 0.67229,0.1962 0.6723,0.20555 0.67227,0.21411 0.67229,0.22266 0.6723,0.23201 0.67229,0.24057 0.67228,0.24954 0.67229,0.25847 0.67229,0.26706 0.67228,0.276 0.67231,0.28494 0.67227,0.29392 0.67228,0.30247 0.67231,0.31183 0.67228,0.32036 0.67229,0.32895 0.6723,0.33829 0.67229,0.34685 0.67229,0.3558 0.67228,0.36476 0.67228,0.37332 0.6723,0.38266 0.67228,0.39122 0.67229,0.40018 0.6723,0.40875 0.67229,0.4177 0.67229,0.42666 0.6723,0.4356 0.0296,-0.01363 -0.67228,-1.42243 -0.67228,-1.41308 -0.6723,-1.39948 -0.67229,-1.38585 -0.67227,-1.3726 -0.67231,-1.35742 -0.67228,-1.34108 -0.67229,-1.32512 -0.6723,-1.30682 -0.67229,-1.28891 -0.67229,-1.26827 -0.67228,-1.24805 -0.67227,-1.2262 -0.67229,-1.20486 -0.6723,-1.18185 -0.67229,-1.15811 -0.67229,-1.13281 -0.6723,-1.1075 -0.67229,-1.08182 -0.6723,-1.05417 -0.67229,-1.02693 -0.67227,-0.99771 -0.6723,-0.96933 -0.67227,-0.93933 -0.67229,-0.91053 -0.6723,-0.87626 -0.67229,-0.84669 -0.67228,-0.8136 -0.67231,-0.78286 -0.67228,-0.74704 -0.67228,-0.7151 -0.6723,-0.67891 -0.67229,-0.64581 -0.67228,-0.60807 -0.67229,-0.57534 -0.67229,-0.53643 -0.67228,-0.50257 -0.67231,-0.46248 -0.67228,-0.42897 -0.67229,-0.3889 -0.67229,-0.35386 -0.67228,-0.31259 -0.67231,-0.27717 -0.67228,-0.23473 -0.67229,-0.20204 -0.67229,-0.15767 -0.67228,-0.1234 -0.67229,-0.08058 -0.67228,-0.04633 -0.6723,-0.0031 -0.67228,0.0331 -0.6723,0.07474 -0.67229,0.11132 -0.67229,0.15145 -0.6723,0.1884 -0.67229,0.22889 -0.67227,0.26629 -0.67228,0.30636 -0.6723,0.34101 -0.67228,0.38189 -0.6723,0.41808 -0.67229,0.45468 -0.6723,0.49246 -0.67229,0.53019 -0.67228,0.56445 -0.67231,0.60105 -0.67227,0.63648 -0.67228,0.67035 -0.6723,0.70653 -0.67228,0.74004 -0.67229,0.77349 -0.6723,0.80582 -0.67229,0.83851 -0.67228,0.87005 -0.67231,0.90275 -0.67227,0.93153 -0.67228,0.96271 -0.6723,0.98993 -0.6723,1.02109 -0.67227,1.04718 -0.6723,1.07558 -0.67228,1.10049 -0.67229,1.12813 -0.6723,1.14994 -0.67228,1.17683 -0.6723,1.19897 -0.67228,1.22235 -0.67229,1.24179 -0.67231,1.26401 -0.67228,1.28268 -0.67227,1.3037 -0.6723,1.31966 -0.67229,1.33874 -0.67227,1.35314 -0.67231,1.36912 -0.67228,1.38232 -0.67229,1.39792 -0.6723,1.40764 -0.67229,1.42166 -0.02959,0.21216 z"
       style="fill:#9999ff;fill-opacity:0.25;fill-rule:nonzero;stroke:none"
       transform="matrix(1.3333333,0,0,-1.3333333,72.076,217.36667)" />
    <path
       id="path12"
       d="m 153.58205,-14.5669 0.50998,0.33674 0.50994,0.3414 0.50997,0.34684 0.50995,0.35192 0.50998,0.35696 0.50995,0.36203 0.50996,0.3671 0.50995,0.37216 0.50996,0.37759 0.50995,0.38228 0.50998,0.38773 0.50995,0.39239 0.50996,0.39785 0.50995,0.40291 0.50995,0.40797 0.50998,0.41301 0.50995,0.4181 0.50996,0.42314 0.50995,0.42821 0.50998,0.43366 0.50995,0.43834 0.50996,0.44377 0.50995,0.44845 0.50997,0.45391 0.50994,0.45897 0.50997,0.46402 0.50996,0.46907 0.50995,0.47416 0.50996,0.47921 0.50997,0.48425 0.50997,0.48971 0.50994,0.4944 0.50996,0.49984 0.50995,0.50451 0.50997,0.5099 0.50995,0.51504 0.50998,0.52008 0.50995,0.52513 0.50997,0.53019 0.50995,0.53528 0.50995,0.54032 0.50997,0.54577 0.50994,0.55043 0.50997,0.55591 0.50995,0.56096 0.50996,0.56561 0.50995,0.57109 0.50998,0.57613 0.50996,0.58119 0.50997,0.58627 0.50995,0.59171 0.50996,0.59639 0.50995,0.60143 0.50996,0.6069 0.50995,0.61195 0.50995,0.61661 0.50996,0.62205 0.50998,0.62716 0.50997,0.63218 0.50995,0.63726 0.50996,0.64231 0.50995,0.64737 0.50996,0.65284 0.50995,0.6575 0.50997,0.66294 0.50994,0.66762 0.50997,0.67305 0.50996,0.67813 0.50997,0.68322 0.50996,0.68823 0.50995,0.69331 0.50996,0.69838 0.50995,0.70343 0.50997,0.70888 0.50994,0.71355 0.50997,0.719 0.50996,0.72368 0.50997,0.72913 0.50994,0.73418 0.50997,0.73926 0.50996,0.74429 0.50995,0.74937 0.50997,0.75443 0.50995,0.75949 0.50996,0.76492 0.50994,0.76962 0.50999,0.77508 0.50995,0.7801 0.50996,0.78481 0.50996,0.79024 0.50997,0.79528 0.50995,0.80036 0.50996,0.80543 0.50995,0.81087 0.50995,0.81556 0.50998,0.82059 0.50995,0.82605 0.50996,0.83074 0.50995,0.83618 0.0276,12.04748 -0.50997,0.15337 -0.50996,0.13119 -0.50995,0.10628 -0.50996,0.08447 -0.50995,0.06269 -0.50997,0.04008 -0.50996,0.01908 -0.50995,-0.0035 -0.50996,-0.02646 -0.50995,-0.04982 -0.50998,-0.07202 -0.50995,-0.095 -0.50996,-0.11562 -0.50996,-0.13936 -0.50997,-0.16038 -0.50995,-0.18063 -0.50996,-0.20632 -0.50995,-0.22772 -0.50997,-0.24955 -0.50995,-0.27053 -0.50995,-0.29197 -0.50997,-0.31414 -0.50995,-0.334 -0.50997,-0.35737 -0.50996,-0.37837 -0.50996,-0.40019 -0.50995,-0.42042 -0.50997,-0.44028 -0.50995,-0.46051 -0.50996,-0.48039 -0.50995,-0.50295 -0.50996,-0.52164 -0.50997,-0.54188 -0.50996,-0.56095 -0.50996,-0.58003 -0.50996,-0.5995 -0.50996,-0.61661 -0.50994,-0.63687 -0.50997,-0.65633 -0.50995,-0.67306 -0.50996,-0.69098 -0.50995,-0.70927 -0.50998,-0.72446 -0.50997,-0.74236 -0.50996,-0.75987 -0.50995,-0.77585 -0.50995,-0.79217 -0.50996,-0.80661 -0.50995,-0.82334 -0.50996,-0.83732 -0.50995,-0.85214 -0.50997,-0.86849 -0.50996,-0.88135 -0.50998,-0.89492 -0.50995,-0.9086 -0.50996,-0.92066 -0.50995,-0.93273 -0.50997,-0.94633 -0.50994,-0.9584 -0.50995,-0.96932 -0.50997,-0.9806 -0.50994,-0.99073 -0.50998,-1.00199 -0.50997,-1.01059 -0.50996,-1.02108 -0.50995,-1.03004 -0.50996,-1.039 -0.50995,-1.04755 -0.50997,-1.05418 -0.50995,-1.06273 -0.50996,-1.06897 -0.50996,-1.07558 -0.50997,-1.08259 -0.50995,-1.08767 -0.50996,-1.09271 -0.50996,-1.09698 -0.50995,-1.10323 -0.50997,-1.10557 -0.50995,-1.10906 -0.50996,-1.11334 -0.50995,-1.1149 -0.50998,-1.11686 -0.50995,-1.12034 -0.50996,-1.11996 -0.50995,-1.1219 -0.50996,-1.11994 -0.50997,-1.12073 -0.50995,-1.12193 -0.50996,-1.12033 -0.50995,-1.11841 -0.50996,-1.11764 -0.50997,-1.11528 -0.50996,-1.11139 -0.50995,-1.10829 -0.50996,-1.10556 -0.50997,-1.10245 -0.50996,-1.09622 -0.50995,-1.09076 -0.50996,-1.08767 -0.0276,-0.0253 z"
       style="fill:#9999ff;fill-opacity:0.25;fill-rule:nonzero;stroke:none"
       transform="matrix(1.3333333,0,0,-1.3333333,72.076,217.36667)" />
    <path
       id="path13"
       d="M 30.86961,0 V 52.55455"
       style="fill:none;stroke:#ec008c;stroke-width:0.3985;stroke-linecap:butt;stroke-linejoin:miter;stroke-miterlimit:10;stroke-dasharray:2.98883, 2.98883;stroke-dashoffset:0;stroke-opacity:1"
       transform="matrix(1.3333333,0,0,-1.3333333,72.076,217.36667)" />
    <path
       id="path14"
       d="M 204.09563,0 V 55.51385"
       style="fill:none;stroke:#ec008c;stroke-width:0.3985;stroke-linecap:butt;stroke-linejoin:miter;stroke-miterlimit:10;stroke-dasharray:2.98883, 2.98883;stroke-dashoffset:0;stroke-opacity:1"
       transform="matrix(1.3333333,0,0,-1.3333333,72.076,217.36667)" />
    <path
       id="path15"
       d="M 86.99583,0 V -14.54198"
       style="fill:none;stroke:#ec008c;stroke-width:0.3985;stroke-linecap:butt;stroke-linejoin:miter;stroke-miterlimit:10;stroke-dasharray:2.98883, 2.98883;stroke-dashoffset:0;stroke-opacity:1"
       transform="matrix(1.3333333,0,0,-1.3333333,72.076,217.36667)" />
    <path
       id="path16"
       d="M 153.58205,0 V -14.54198"
       style="fill:none;stroke:#ec008c;stroke-width:0.3985;stroke-linecap:butt;stroke-linejoin:miter;stroke-miterlimit:10;stroke-dasharray:2.98883, 2.98883;stroke-dashoffset:0;stroke-opacity:1"
       transform="matrix(1.3333333,0,0,-1.3333333,72.076,217.36667)" />
    <path
       id="path17"
       d="m 3.7138359,-3.7613047 c -0.1757812,-0.375 -0.46875,-0.6445312 -0.9140625,-0.6445312 -1.171875,0 -2.40234371,1.4648437 -2.40234371,2.9179687 0,0.93750001 0.55078125,1.59375001 1.32421871,1.59375001 0.1992188,0 0.703125,-0.03515625 1.3007813,-0.73828125 0.070312,0.41015625 0.421875,0.73828125 0.9023437,0.73828125 0.3515625,0 0.5742188,-0.22265625 0.7382813,-0.5390625 0.1640625,-0.36328125 0.2929687,-0.97265621 0.2929687,-0.99609371 0,-0.09375 -0.082031,-0.09375 -0.1171875,-0.09375 -0.09375,0 -0.1054687,0.035156 -0.140625,0.1757812 -0.1640625,0.64453126 -0.3515625,1.24218751 -0.75,1.24218751 -0.2695312,0 -0.3046875,-0.2578125 -0.3046875,-0.45703125 0,-0.22265625 0.023437,-0.3046875 0.1289063,-0.73828126 0.1171875,-0.421875 0.1289062,-0.5273437 0.2226562,-0.9023437 l 0.3515625,-1.3945313 c 0.070312,-0.28125 0.070312,-0.2929687 0.070312,-0.3398437 0,-0.1640625 -0.1171875,-0.2695313 -0.28125,-0.2695313 -0.2460937,0 -0.3867187,0.2226563 -0.4218745,0.4453125 z m -0.6445312,2.578125 c -0.046875,0.1757813 -0.046875,0.19921876 -0.1992188,0.36328126 -0.4453125,0.55078125 -0.84375,0.71484375 -1.125,0.71484375 -0.5039062,0 -0.6445312,-0.55078125 -0.6445312,-0.93750001 0,-0.5039062 0.328125,-1.7226562 0.5507812,-2.1796875 0.3046875,-0.5976562 0.7617188,-0.9609375 1.1601563,-0.9609375 0.6445312,0 0.7851562,0.8203125 0.7851562,0.8789063 0,0.058594 -0.023437,0.1171875 -0.035156,0.1640625 z m 0,0"
       style="fill:#ec008c;fill-opacity:1;fill-rule:nonzero;stroke:none"
       aria-label="a"
       transform="matrix(1.3333333,0,0,1.3333333,109.724,228.19867)" />
    <path
       id="path18"
       d="m 2.3776484,-6.80925 c 0,0 0,-0.1054687 -0.1289062,-0.1054687 -0.2226563,0 -0.9492188,0.082031 -1.21875,0.1054687 -0.0703125,0 -0.18750001,0.011719 -0.18750001,0.1992188 0,0.1171875 0.09375,0.1171875 0.24609371,0.1171875 0.46875,0 0.4921875,0.070312 0.4921875,0.1640625 0,0.070312 -0.082031,0.4101562 -0.140625,0.6210937 l -0.80859371,3.2460938 c -0.12890625,0.5039062 -0.1640625,0.65625 -0.1640625,1.0078125 0,0.9492187 0.52734375,1.5585937 1.26562501,1.5585937 1.171875,0 2.4023437,-1.4765625 2.4023437,-2.9179687 0,-0.9023438 -0.5273437,-1.59375 -1.3242187,-1.59375 -0.4570313,0 -0.8671875,0.2929687 -1.171875,0.5976562 z m -0.9375,3.7734375 c 0.058594,-0.2226562 0.058594,-0.2460937 0.1523438,-0.3515625 0.4921875,-0.6445312 0.9375,-0.796875 1.1953125,-0.796875 0.3632812,0 0.6328125,0.2929688 0.6328125,0.9375 0,0.5859375 -0.328125,1.734375 -0.515625,2.109375 -0.328125,0.66796875 -0.7851563,1.03125 -1.171875,1.03125 -0.3398438,0 -0.6679688,-0.26953125 -0.6679688,-1.0078125 0,-0.1875 0,-0.3867187 0.1640625,-1.0078125 z m 0,0"
       style="fill:#ec008c;fill-opacity:1;fill-rule:nonzero;stroke:none"
       aria-label="b"
       transform="matrix(1.3333333,0,0,1.3333333,341.34933,231.704)" />
    <path
       id="path19"
       d="m 3.9497031,-3.7837266 c -0.1640625,0 -0.3046875,0 -0.4453125,0.140625 -0.1523437,0.1523438 -0.1757812,0.3164063 -0.1757812,0.3867188 0,0.234375 0.1757812,0.3515625 0.3632812,0.3515625 0.2929688,0 0.5625,-0.2460938 0.5625,-0.6445313 0,-0.4804687 -0.46875,-0.8554687 -1.171875,-0.8554687 -1.3476562,0 -2.67187497,1.4296875 -2.67187497,2.8359375 0,0.89062499 0.57421875,1.67578124 1.61718747,1.67578124 1.4179688,0 2.2617188,-1.0546875 2.2617188,-1.17187504 0,-0.058594 -0.070312,-0.1289062 -0.1289063,-0.1289062 -0.046875,0 -0.070312,0.023437 -0.1289062,0.09375 -0.7851563,0.99609374 -1.875,0.99609374 -1.9921875,0.99609374 -0.6210938,0 -0.890625,-0.4921875 -0.890625,-1.08984374 0,-0.4101563 0.1992187,-1.3710938 0.5390625,-1.9921875 0.3046875,-0.5625 0.8554687,-0.9960938 1.40625,-0.9960938 0.328125,0 0.7148437,0.1289063 0.8554687,0.3984375 z m 0,0"
       style="fill:#ec008c;fill-opacity:1;fill-rule:nonzero;stroke:none"
       aria-label="c"
       transform="matrix(1.3333333,0,0,1.3333333,185.19467,212.252)" />
    <path
       id="path20"
       d="m 5.1454297,-6.8071641 c 0,0 0,-0.1054687 -0.1289063,-0.1054687 -0.1523437,0 -1.1015625,0.09375 -1.265625,0.1054687 -0.082031,0.011719 -0.140625,0.070312 -0.140625,0.1992188 0,0.1171875 0.082031,0.1171875 0.234375,0.1171875 0.4804688,0 0.5039063,0.070312 0.5039063,0.1640625 l -0.035156,0.1992187 -0.5976562,2.3671875 c -0.1757813,-0.375 -0.46875,-0.6445312 -0.9140625,-0.6445312 -1.171875,0 -2.40234376,1.4648437 -2.40234376,2.9179687 0,0.93750004 0.55078125,1.59375004 1.32421876,1.59375004 0.1992187,0 0.703125,-0.03515625 1.3007812,-0.73828125 0.070312,0.41015625 0.421875,0.73828125 0.9023438,0.73828125 0.3515625,0 0.5742187,-0.22265625 0.7382812,-0.5390625 C 4.8290237,-0.79544531 4.95793,-1.4048203 4.95793,-1.4282578 c 0,-0.09375 -0.082031,-0.09375 -0.1171875,-0.09375 -0.09375,0 -0.1054688,0.035156 -0.140625,0.1757812 -0.1640625,0.64453129 -0.3515625,1.24218754 -0.75,1.24218754 -0.2695313,0 -0.3046875,-0.2578125 -0.3046875,-0.45703125 0,-0.24609375 0.023437,-0.31640625 0.058594,-0.48046879 z m -2.0742188,5.625 c -0.046875,0.1757813 -0.046875,0.19921879 -0.1992187,0.36328129 -0.4453125,0.55078125 -0.84375,0.71484375 -1.125,0.71484375 -0.5039063,0 -0.6445313,-0.55078125 -0.6445313,-0.93750004 0,-0.5039062 0.328125,-1.7226562 0.5507813,-2.1796875 0.3046875,-0.5976562 0.7617187,-0.9609375 1.1601562,-0.9609375 0.6445313,0 0.7851563,0.8203125 0.7851563,0.8789063 0,0.058594 -0.023437,0.1171875 -0.035156,0.1640625 z m 0,0"
       style="fill:#ec008c;fill-opacity:1;fill-rule:nonzero;stroke:none"
       aria-label="d"
       transform="matrix(1.3333333,0,0,1.3333333,273.39333,212.252)" />
    <g
       id="g20"
       aria-label="y=f(x)"
       transform="matrix(1.3333333,0,0,1.3333333,165.852,152.656)">
      <path
         id="path21"
         d="m 4.8395156,-3.7966875 c 0.046875,-0.140625 0.046875,-0.1523438 0.046875,-0.2226563 0,-0.1875 -0.140625,-0.2695312 -0.2929687,-0.2695312 -0.1054688,0 -0.2578125,0.058594 -0.3515625,0.1992187 -0.023437,0.058594 -0.09375,0.3632813 -0.140625,0.5390625 -0.070312,0.2578125 -0.140625,0.5273438 -0.1992188,0.796875 L 3.4567031,-0.96075 c -0.035156,0.15234375 -0.46875,0.85546875 -1.125,0.85546875 -0.5039062,0 -0.6210937,-0.4453125 -0.6210937,-0.80859375 0,-0.4570313 0.1757812,-1.078125 0.515625,-1.9570313 0.1523437,-0.4101562 0.1992187,-0.515625 0.1992187,-0.7148437 0,-0.4453125 -0.328125,-0.8203125 -0.8203125,-0.8203125 -0.94921872,0 -1.31249997,1.453125 -1.31249997,1.5351562 0,0.1054688 0.09375,0.1054688 0.1171875,0.1054688 0.09375,0 0.10546875,-0.023437 0.15234375,-0.1875 0.26953125,-0.9375 0.66796872,-1.2304688 1.00781252,-1.2304688 0.082031,0 0.2578125,0 0.2578125,0.3164063 0,0.2460937 -0.1054688,0.515625 -0.1757813,0.703125 -0.3984375,1.0546875 -0.5742187,1.6171875 -0.5742187,2.0859375 0,0.890625 0.6210937,1.18359375 1.21875,1.18359375 0.3867187,0 0.7265625,-0.1640625 0.9960937,-0.4453125 C 3.1637344,0.17596875 3.0465469,0.66815625 2.6481094,1.1955 2.3902969,1.5353437 2.0152969,1.8283125 1.5582656,1.8283125 c -0.140625,0 -0.59765622,-0.035156 -0.76171872,-0.421875 0.1640625,0 0.29296872,0 0.43359372,-0.1171875 0.09375,-0.09375 0.1992188,-0.2226563 0.1992188,-0.41015625 0,-0.31640625 -0.2695313,-0.3515625 -0.375,-0.3515625 -0.22265627,0 -0.55078127,0.1640625 -0.55078127,0.64453125 0,0.5039062 0.43359375,0.8671875 1.05468747,0.8671875 1.0195313,0 2.0507813,-0.9023438 2.3320313,-2.02734375 z m 0,0"
         style="fill:#008080;fill-opacity:1;fill-rule:nonzero;stroke:none" />
      <path
         id="path22"
         d="m 14.856117,-3.257625 c 0.152344,0 0.339844,0 0.339844,-0.1992188 0,-0.1992187 -0.1875,-0.1992187 -0.328125,-0.1992187 H 8.9029922 c -0.140625,0 -0.328125,0 -0.328125,0.1992187 0,0.1992188 0.1875,0.1992188 0.3398437,0.1992188 z m 0.01172,1.9335937 c 0.140625,0 0.328125,0 0.328125,-0.1992187 0,-0.1992188 -0.1875,-0.1992188 -0.339844,-0.1992188 H 8.9147109 c -0.1523437,0 -0.3398437,0 -0.3398437,0.1992188 0,0.1992187 0.1875,0.1992187 0.328125,0.1992187 z m 0,0"
         style="fill:#008080;fill-opacity:1;fill-rule:nonzero;stroke:none" />
      <path
         id="path23"
         d="m 22.177406,-3.9841875 h 0.855469 c 0.199219,0 0.304688,0 0.304688,-0.1992188 0,-0.1054687 -0.105469,-0.1054687 -0.269532,-0.1054687 H 22.236 l 0.210938,-1.1367188 c 0.03516,-0.2109375 0.175781,-0.9140625 0.234375,-1.0429687 0.09375,-0.1875 0.257812,-0.3398438 0.46875,-0.3398438 0.04687,0 0.304687,0 0.492187,0.1875 -0.433594,0.035156 -0.539062,0.3867188 -0.539062,0.5390625 0,0.2226563 0.175781,0.3398438 0.363281,0.3398438 0.269531,0 0.550781,-0.2109375 0.550781,-0.5976563 0,-0.4570312 -0.457031,-0.6796875 -0.867187,-0.6796875 -0.339844,0 -0.960938,0.1757813 -1.265625,1.1601563 -0.05859,0.2109375 -0.08203,0.3164062 -0.328125,1.5703125 h -0.679688 c -0.199219,0 -0.304687,0 -0.304687,0.1875 0,0.1171875 0.09375,0.1171875 0.28125,0.1171875 h 0.65625 l -0.75,3.9375 c -0.175782,0.9609375 -0.339844,1.875 -0.867188,1.875 -0.03516,0 -0.28125,0 -0.46875,-0.1875 0.457031,-0.023437 0.539063,-0.3867188 0.539063,-0.5390625 0,-0.22265625 -0.175782,-0.33984375 -0.363282,-0.33984375 -0.257812,0 -0.550781,0.2109375 -0.550781,0.59765625 0,0.4453125 0.433594,0.6796875 0.84375,0.6796875 0.550781,0 0.949219,-0.5859375 1.125,-0.9609375 0.328125,-0.6328125 0.550781,-1.83984375 0.5625,-1.91015625 z m 0,0"
         style="fill:#008080;fill-opacity:1;fill-rule:nonzero;stroke:none" />
      <path
         id="path24"
         d="m 27.76725,2.3908125 c 0,-0.035156 0,-0.046875 -0.164062,-0.2226563 C 26.361,0.91425 26.032875,-0.96075 26.032875,-2.4959063 c 0,-1.7226562 0.386719,-3.4570312 1.605469,-4.7109375 0.128906,-0.1171875 0.128906,-0.1289062 0.128906,-0.1640625 0,-0.070312 -0.03516,-0.1054687 -0.09375,-0.1054687 -0.105469,0 -0.996094,0.6796875 -1.582031,1.9453125 -0.515625,1.1015625 -0.632813,2.203125 -0.632813,3.0351562 0,0.7851563 0.117188,1.99218755 0.65625,3.11718755 0.597657,1.21874995 1.453125,1.87499995 1.558594,1.87499995 0.05859,0 0.09375,-0.035156 0.09375,-0.1054687 z m 0,0"
         style="fill:#008080;fill-opacity:1;fill-rule:nonzero;stroke:none" />
      <path
         id="path25"
         d="m 31.678383,-3.0115313 c 0.05859,-0.2578125 0.292969,-1.171875 0.984375,-1.171875 0.04687,0 0.292969,0 0.503906,0.1289063 -0.28125,0.046875 -0.480469,0.3046875 -0.480469,0.5390625 0,0.1640625 0.105469,0.3515625 0.375,0.3515625 0.222657,0 0.539063,-0.1875 0.539063,-0.5859375 0,-0.515625 -0.585938,-0.65625 -0.925781,-0.65625 -0.574219,0 -0.925782,0.5273437 -1.042969,0.7617187 -0.257813,-0.65625 -0.785156,-0.7617187 -1.078125,-0.7617187 -1.042969,0 -1.605469,1.2890625 -1.605469,1.5351562 0,0.1054688 0.105469,0.1054688 0.117188,0.1054688 0.08203,0 0.117187,-0.023437 0.128906,-0.1171875 0.339844,-1.0546875 0.996094,-1.3007813 1.335937,-1.3007813 0.1875,0 0.539063,0.09375 0.539063,0.6679688 0,0.3046875 -0.164063,0.9726562 -0.539063,2.3671875 -0.152343,0.62109375 -0.503906,1.04296875 -0.949218,1.04296875 -0.05859,0 -0.28125,0 -0.492188,-0.12890625 0.246094,-0.0585938 0.46875,-0.26953125 0.46875,-0.5390625 0,-0.2695313 -0.222656,-0.3515625 -0.375,-0.3515625 -0.292969,0 -0.539062,0.2578125 -0.539062,0.57421875 0,0.45703125 0.492187,0.65625 0.9375,0.65625 0.65625,0 1.007812,-0.69140625 1.042968,-0.75 0.117188,0.36328125 0.480469,0.75 1.078125,0.75 1.019532,0 1.59375,-1.27734375 1.59375,-1.53515625 0,-0.09375 -0.09375,-0.09375 -0.128906,-0.09375 -0.08203,0 -0.105469,0.035156 -0.128906,0.1054687 -0.328125,1.0664063 -0.996094,1.31250005 -1.324219,1.31250005 -0.386719,0 -0.539062,-0.328125 -0.539062,-0.65625 0,-0.22265625 0.05859,-0.44531255 0.164062,-0.87890625 z m 0,0"
         style="fill:#008080;fill-opacity:1;fill-rule:nonzero;stroke:none" />
      <path
         id="path26"
         d="m 36.925453,-2.4959063 c 0,-0.7734375 -0.117187,-1.9804687 -0.65625,-3.1054687 -0.597656,-1.21875 -1.464844,-1.875 -1.558594,-1.875 -0.05859,0 -0.105468,0.046875 -0.105468,0.1054687 0,0.035156 0,0.046875 0.199218,0.234375 0.972657,0.984375 1.535157,2.5664063 1.535157,4.640625 0,1.71093755 -0.363282,3.4570313 -1.59375,4.7226563 -0.140625,0.1171875 -0.140625,0.1289062 -0.140625,0.1640625 0,0.058594 0.04687,0.1054687 0.105468,0.1054687 0.09375,0 0.996094,-0.6796875 1.582032,-1.94531245 0.503906,-1.1015625 0.632812,-2.20312505 0.632812,-3.04687505 z m 0,0"
         style="fill:#008080;fill-opacity:1;fill-rule:nonzero;stroke:none" />
    </g>
    <g
       id="g26"
       aria-label="y=g(x)"
       transform="matrix(1.3333333,0,0,1.3333333,122.192,247.9)">
      <path
         id="path27"
         d="m 4.8393984,-3.7980469 c 0.046875,-0.140625 0.046875,-0.1523437 0.046875,-0.2226562 0,-0.1875 -0.140625,-0.2695313 -0.2929687,-0.2695313 -0.1054688,0 -0.2578125,0.058594 -0.3515625,0.1992188 -0.023437,0.058594 -0.09375,0.3632812 -0.140625,0.5390625 -0.070312,0.2578125 -0.140625,0.5273437 -0.1992188,0.796875 l -0.4453125,1.79296873 c -0.035156,0.15234375 -0.46875,0.85546875 -1.125,0.85546875 -0.5039062,0 -0.6210937,-0.4453125 -0.6210937,-0.80859375 0,-0.45703123 0.1757812,-1.07812503 0.515625,-1.95703123 0.1523437,-0.4101563 0.1992187,-0.515625 0.1992187,-0.7148438 0,-0.4453125 -0.328125,-0.8203125 -0.8203125,-0.8203125 -0.94921871,0 -1.31249996,1.453125 -1.31249996,1.5351563 0,0.1054687 0.09375,0.1054687 0.1171875,0.1054687 0.09375,0 0.10546875,-0.023437 0.15234375,-0.1875 0.26953125,-0.9375 0.66796871,-1.2304687 1.00781251,-1.2304687 0.082031,0 0.2578125,0 0.2578125,0.3164062 0,0.2460938 -0.1054688,0.515625 -0.1757813,0.703125 -0.3984375,1.0546875 -0.5742187,1.6171875 -0.5742187,2.0859375 0,0.89062503 0.6210937,1.18359378 1.21875,1.18359378 0.3867187,0 0.7265625,-0.1640625 0.9960937,-0.4453125 -0.1289062,0.515625 -0.2460937,1.0078125 -0.6445312,1.53515622 -0.2578125,0.3398438 -0.6328125,0.6328125 -1.0898438,0.6328125 -0.140625,0 -0.59765621,-0.035156 -0.76171871,-0.421875 0.1640625,0 0.29296871,0 0.43359371,-0.1171875 0.09375,-0.09375 0.1992188,-0.2226562 0.1992188,-0.41015622 0,-0.31640625 -0.2695313,-0.3515625 -0.375,-0.3515625 -0.22265626,0 -0.55078126,0.1640625 -0.55078126,0.64453122 0,0.5039063 0.43359375,0.8671875 1.05468746,0.8671875 1.0195313,0 2.0507813,-0.9023437 2.3320313,-2.02734372 z m 0,0"
         style="fill:#eb0a36;fill-opacity:1;fill-rule:nonzero;stroke:none" />
      <path
         id="path28"
         d="m 14.856,-3.2589844 c 0.152344,0 0.339844,0 0.339844,-0.1992187 0,-0.1992188 -0.1875,-0.1992188 -0.328125,-0.1992188 H 8.902875 c -0.140625,0 -0.328125,0 -0.328125,0.1992188 0,0.1992187 0.1875,0.1992187 0.3398438,0.1992187 z m 0.01172,1.9335938 c 0.140625,0 0.328125,0 0.328125,-0.1992188 0,-0.1992187 -0.1875,-0.1992187 -0.339844,-0.1992187 H 8.9145938 c -0.1523438,0 -0.3398438,0 -0.3398438,0.1992187 0,0.1992188 0.1875,0.1992188 0.328125,0.1992188 z m 0,0"
         style="fill:#eb0a36;fill-opacity:1;fill-rule:nonzero;stroke:none" />
      <path
         id="path29"
         d="m 23.208539,-3.7511719 c 0.01172,-0.070312 0.03516,-0.1171875 0.03516,-0.1875 0,-0.1640625 -0.117187,-0.2695312 -0.292968,-0.2695312 -0.09375,0 -0.363282,0.070312 -0.410157,0.4335937 -0.175781,-0.375 -0.527343,-0.6328125 -0.925781,-0.6328125 -1.136719,0 -2.367187,1.3945313 -2.367187,2.8359375 0,0.98437503 0.609375,1.57031253 1.324218,1.57031253 0.585938,0 1.054688,-0.46875 1.160157,-0.57421875 l 0.01172,0.0117188 c -0.210937,0.87890625 -0.328125,1.2890625 -0.328125,1.3125 -0.04687,0.0820313 -0.386718,1.07812492 -1.441406,1.07812492 -0.1875,0 -0.515625,-0.011719 -0.796875,-0.1054687 0.304688,-0.09375 0.410156,-0.3515625 0.410156,-0.515625 0,-0.1640625 -0.105468,-0.35156247 -0.375,-0.35156247 -0.222656,0 -0.539062,0.17578117 -0.539062,0.57421867 0,0.4101563 0.363281,0.609375 1.324219,0.609375 1.242187,0 1.957031,-0.7734375 2.109375,-1.37109367 z m -1.289062,2.4726563 c -0.05859,0.2578125 -0.292969,0.51562498 -0.503907,0.70312498 -0.210937,0.17578125 -0.527343,0.3515625 -0.808593,0.3515625 -0.503907,0 -0.65625,-0.515625 -0.65625,-0.91406248 0,-0.4804688 0.292968,-1.6523438 0.5625,-2.15625 0.269531,-0.4921875 0.703125,-0.890625 1.113281,-0.890625 0.65625,0 0.796875,0.8085937 0.796875,0.8554687 0,0.046875 -0.01172,0.1054688 -0.02344,0.1523438 z m 0,0"
         style="fill:#eb0a36;fill-opacity:1;fill-rule:nonzero;stroke:none" />
      <path
         id="path30"
         d="m 26.926313,2.3894531 c 0,-0.035156 0,-0.046875 -0.164063,-0.2226562 -1.242187,-1.25390627 -1.570312,-3.12890627 -1.570312,-4.6640625 0,-1.7226563 0.386718,-3.4570313 1.605468,-4.7109375 0.128907,-0.1171875 0.128907,-0.1289063 0.128907,-0.1640625 0,-0.070312 -0.03516,-0.1054688 -0.09375,-0.1054688 -0.105469,0 -0.996094,0.6796875 -1.582032,1.9453125 -0.515625,1.1015625 -0.632812,2.203125 -0.632812,3.0351563 0,0.7851562 0.117187,1.99218748 0.65625,3.11718748 0.597656,1.21875002 1.453125,1.87500002 1.558594,1.87500002 0.05859,0 0.09375,-0.035156 0.09375,-0.1054688 z m 0,0"
         style="fill:#eb0a36;fill-opacity:1;fill-rule:nonzero;stroke:none" />
      <path
         id="path31"
         d="m 30.834516,-3.0128906 c 0.05859,-0.2578125 0.292968,-1.171875 0.984375,-1.171875 0.04687,0 0.292968,0 0.503906,0.1289062 -0.28125,0.046875 -0.480469,0.3046875 -0.480469,0.5390625 0,0.1640625 0.105469,0.3515625 0.375,0.3515625 0.222656,0 0.539063,-0.1875 0.539063,-0.5859375 0,-0.515625 -0.585938,-0.65625 -0.925782,-0.65625 -0.574218,0 -0.925781,0.5273438 -1.042968,0.7617188 -0.257813,-0.65625 -0.785157,-0.7617188 -1.078125,-0.7617188 -1.042969,0 -1.605469,1.2890625 -1.605469,1.5351563 0,0.1054687 0.105469,0.1054687 0.117187,0.1054687 0.08203,0 0.117188,-0.023437 0.128907,-0.1171875 0.339843,-1.0546875 0.996093,-1.3007812 1.335937,-1.3007812 0.1875,0 0.539063,0.09375 0.539063,0.6679687 0,0.3046875 -0.164063,0.9726563 -0.539063,2.3671875 -0.152344,0.62109378 -0.503906,1.04296878 -0.949219,1.04296878 -0.05859,0 -0.28125,0 -0.492187,-0.12890625 0.246094,-0.0585938 0.46875,-0.26953125 0.46875,-0.5390625 0,-0.26953123 -0.222656,-0.35156253 -0.375,-0.35156253 -0.292969,0 -0.539063,0.25781253 -0.539063,0.57421878 0,0.45703125 0.492188,0.65625 0.9375,0.65625 0.65625,0 1.007813,-0.69140625 1.042969,-0.75 0.117188,0.36328125 0.480469,0.75 1.078125,0.75 1.019531,0 1.59375,-1.27734378 1.59375,-1.53515628 0,-0.09375 -0.09375,-0.09375 -0.128906,-0.09375 -0.08203,0 -0.105469,0.035156 -0.128906,0.1054688 -0.328125,1.06640623 -0.996094,1.31249998 -1.324219,1.31249998 -0.386719,0 -0.539063,-0.328125 -0.539063,-0.65625 0,-0.22265625 0.05859,-0.44531248 0.164063,-0.87890628 z m 0,0"
         style="fill:#eb0a36;fill-opacity:1;fill-rule:nonzero;stroke:none" />
      <path
         id="path32"
         d="m 36.084516,-2.4972656 c 0,-0.7734375 -0.117188,-1.9804688 -0.65625,-3.1054688 -0.597657,-1.21875 -1.464844,-1.875 -1.558594,-1.875 -0.05859,0 -0.105469,0.046875 -0.105469,0.1054688 0,0.035156 0,0.046875 0.199219,0.234375 0.972656,0.984375 1.535156,2.5664062 1.535156,4.640625 0,1.71093748 -0.363281,3.45703123 -1.59375,4.7226562 -0.140625,0.1171875 -0.140625,0.1289063 -0.140625,0.1640625 0,0.058594 0.04687,0.1054688 0.105469,0.1054688 0.09375,0 0.996094,-0.6796875 1.582031,-1.94531252 0.503906,-1.1015625 0.632813,-2.20312498 0.632813,-3.04687498 z m 0,0"
         style="fill:#eb0a36;fill-opacity:1;fill-rule:nonzero;stroke:none" />
    </g>
    <path
       id="path33"
       d="m 32.14528,52.55455 c 0,0.70455 -0.57112,1.27567 -1.27567,1.27567 -0.70453,0 -1.27565,-0.57112 -1.27565,-1.27567 0,-0.70453 0.57112,-1.27565 1.27565,-1.27565 0.70455,0 1.27567,0.57112 1.27567,1.27565 z"
       style="fill:#eb0a36;fill-opacity:1;fill-rule:nonzero;stroke:#eb0a36;stroke-width:0.3985;stroke-linecap:butt;stroke-linejoin:miter;stroke-miterlimit:10;stroke-dasharray:none;stroke-opacity:1"
       transform="matrix(1.3333333,0,0,-1.3333333,72.076,217.36667)" />
    <path
       id="path34"
       d="m 88.2715,-14.54198 c 0,0.70453 -0.57112,1.27567 -1.27567,1.27567 -0.70453,0 -1.27565,-0.57114 -1.27565,-1.27567 0,-0.70452 0.57112,-1.27566 1.27565,-1.27566 0.70455,0 1.27567,0.57114 1.27567,1.27566 z"
       style="fill:#eb0a36;fill-opacity:1;fill-rule:nonzero;stroke:#eb0a36;stroke-width:0.3985;stroke-linecap:butt;stroke-linejoin:miter;stroke-miterlimit:10;stroke-dasharray:none;stroke-opacity:1"
       transform="matrix(1.3333333,0,0,-1.3333333,72.076,217.36667)" />
    <path
       id="path35"
       d="m 154.85771,-14.54198 c 0,0.70453 -0.57112,1.27567 -1.27566,1.27567 -0.70453,0 -1.27565,-0.57114 -1.27565,-1.27567 0,-0.70452 0.57112,-1.27566 1.27565,-1.27566 0.70454,0 1.27566,0.57114 1.27566,1.27566 z"
       style="fill:#eb0a36;fill-opacity:1;fill-rule:nonzero;stroke:#eb0a36;stroke-width:0.3985;stroke-linecap:butt;stroke-linejoin:miter;stroke-miterlimit:10;stroke-dasharray:none;stroke-opacity:1"
       transform="matrix(1.3333333,0,0,-1.3333333,72.076,217.36667)" />
  </g>
</svg>
