<?xml version="1.0" encoding="UTF-8" standalone="no"?>
<!-- Created with Inkscape (http://www.inkscape.org/) -->

<svg
   version="1.1"
   id="svg1"
   width="418.34949"
   height="163.46379"
   viewBox="0 0 418.34949 163.46379"
   sodipodi:docname="6.1-areas-separadas.svg"
   inkscape:version="1.4.2 (f4327f4, 2025-05-13)"
   xmlns:inkscape="http://www.inkscape.org/namespaces/inkscape"
   xmlns:sodipodi="http://sodipodi.sourceforge.net/DTD/sodipodi-0.dtd"
   xmlns="http://www.w3.org/2000/svg"
   xmlns:svg="http://www.w3.org/2000/svg">
  <defs
     id="defs1" />
  <sodipodi:namedview
     id="namedview1"
     pagecolor="#ffffff"
     bordercolor="#000000"
     borderopacity="0.25"
     inkscape:showpageshadow="2"
     inkscape:pageopacity="0.0"
     inkscape:pagecheckerboard="0"
     inkscape:deskcolor="#d1d1d1"
     inkscape:zoom="2.2241536"
     inkscape:cx="203.89779"
     inkscape:cy="86.100168"
     inkscape:window-width="1920"
     inkscape:window-height="1009"
     inkscape:window-x="-8"
     inkscape:window-y="-8"
     inkscape:window-maximized="1"
     inkscape:current-layer="g1">
    <inkscape:page
       x="0"
       y="0"
       inkscape:label="18"
       id="page1"
       width="418.34949"
       height="163.46379"
       margin="0"
       bleed="0" />
  </sodipodi:namedview>
  <g
     id="g1"
     inkscape:groupmode="layer"
     inkscape:label="18"
     transform="translate(-38.060669,-95.144538)">
    <path
       id="path2"
       d="M -34.0165,0 H 118.59952"
       style="fill:none;stroke:#000000;stroke-width:0.3985;stroke-linecap:butt;stroke-linejoin:miter;stroke-miterlimit:10;stroke-dasharray:none;stroke-opacity:1"
       transform="matrix(1.3333333,0,0,-1.3333333,83.416,235.93067)" />
    <path
       id="path3"
       d="M -1.19551,1.59401 C -1.09587,0.99626 0,0.09961 0.29886,0 0,-0.09961 -1.09587,-0.99626 -1.19551,-1.59401"
       style="fill:none;stroke:#000000;stroke-width:0.31879;stroke-linecap:round;stroke-linejoin:round;stroke-miterlimit:10;stroke-dasharray:none;stroke-opacity:1"
       transform="matrix(1.3333333,0,0,-1.3333333,241.54869,235.93067)" />
    <path
       id="path4"
       d="m 3.6435313,-3.2915234 c 0.070312,-0.28125 0.3164062,-1.2890625 1.078125,-1.2890625 0.058594,0 0.3164062,0 0.5507812,0.140625 -0.3046875,0.058594 -0.5273437,0.328125 -0.5273437,0.5859375 0,0.1757812 0.1171875,0.3867187 0.4101562,0.3867187 0.2460938,0 0.5976563,-0.1992187 0.5976563,-0.6328125 0,-0.5625 -0.6445313,-0.7265625 -1.0195313,-0.7265625 -0.6328125,0 -1.0195312,0.5859375 -1.1484375,0.8320313 -0.2695312,-0.7148438 -0.8554687,-0.8320313 -1.171875,-0.8320313 -1.1367187,0 -1.7578125,1.4179688 -1.7578125,1.6875 0,0.1054688 0.10546875,0.1054688 0.12890625,0.1054688 0.0820313,0 0.1171875,-0.023437 0.140625,-0.1171875 C 1.2997813,-4.3110547 2.014625,-4.5805859 2.389625,-4.5805859 c 0.2109375,0 0.5859375,0.09375 0.5859375,0.7265625 0,0.3398437 -0.1875,1.078125 -0.5859375,2.6015625 -0.1757812,0.67968746 -0.5625,1.13671871 -1.0429687,1.13671871 -0.058594,0 -0.3164063,0 -0.53906255,-0.140625 0.26953125,-0.0585938 0.51562505,-0.29296875 0.51562505,-0.59765625 0,-0.29296876 -0.2460938,-0.37499996 -0.4101563,-0.37499996 -0.328125,0 -0.59765625,0.28124996 -0.59765625,0.63281246 0,0.50390625 0.55078125,0.71484375 1.03125005,0.71484375 0.7148437,0 1.1015625,-0.76171875 1.1367187,-0.83203125 0.1289063,0.41015625 0.5273438,0.83203125 1.1835938,0.83203125 1.125,0 1.7460937,-1.40625001 1.7460937,-1.67578121 0,-0.1054688 -0.1054687,-0.1054688 -0.1289062,-0.1054688 -0.1054688,0 -0.1289063,0.035156 -0.140625,0.1171875 -0.3632813,1.16015626 -1.1132813,1.42968751 -1.453125,1.42968751 -0.4335938,0 -0.609375,-0.3515625 -0.609375,-0.7265625 0,-0.23437501 0.070312,-0.48046871 0.1875,-0.96093751 z m 0,0"
       style="fill:#000000;fill-opacity:1;fill-rule:nonzero;stroke:none"
       aria-label="x"
       transform="matrix(1.3333333,0,0,1.3333333,238.00133,247.30667)" />
    <path
       id="path5"
       d="m 0,-17.00824 v 118.5995"
       style="fill:none;stroke:#000000;stroke-width:0.3985;stroke-linecap:butt;stroke-linejoin:miter;stroke-miterlimit:10;stroke-dasharray:none;stroke-opacity:1"
       transform="matrix(1.3333333,0,0,-1.3333333,83.416,235.93067)" />
    <path
       id="path6"
       d="M -1.19551,1.59401 C -1.09587,0.99626 0,0.09961 0.29886,0 0,-0.09961 -1.09587,-0.99626 -1.19551,-1.59401"
       style="fill:none;stroke:#000000;stroke-width:0.31879;stroke-linecap:round;stroke-linejoin:round;stroke-miterlimit:10;stroke-dasharray:none;stroke-opacity:1"
       transform="matrix(0,-1.3333333,-1.3333333,0,83.416,100.47565)" />
    <path
       id="path7"
       d="m 5.2962031,-4.1606328 c 0.046875,-0.1523438 0.046875,-0.1757813 0.046875,-0.2460938 0,-0.1992187 -0.1523437,-0.2929687 -0.3164062,-0.2929687 -0.1054688,0 -0.28125,0.058594 -0.375,0.2226562 -0.023437,0.058594 -0.1171875,0.3984375 -0.1523438,0.5976563 -0.082031,0.28125 -0.1523437,0.5742187 -0.2226562,0.8671875 l -0.4921875,1.96875 c -0.046875,0.16406249 -0.515625,0.92578124 -1.2304688,0.92578124 -0.5625,0 -0.6796875,-0.48046875 -0.6796875,-0.89062504 0,-0.4921875 0.1875,-1.171875 0.5625,-2.1328125 0.1757813,-0.4453125 0.2109375,-0.5742187 0.2109375,-0.7851562 0,-0.4921875 -0.3515625,-0.9023438 -0.890625,-0.9023438 -1.04296872,0 -1.44140622,1.5820313 -1.44140622,1.6875 0,0.1054688 0.10546875,0.1054688 0.12890625,0.1054688 0.10546875,0 0.1171875,-0.023437 0.17578125,-0.1992188 0.29296875,-1.0195312 0.72656252,-1.3476562 1.10156252,-1.3476562 0.09375,0 0.2695312,0 0.2695312,0.3515625 0,0.2695312 -0.1054687,0.5507812 -0.1757812,0.7617187 -0.4453125,1.1601563 -0.6328125,1.78125 -0.6328125,2.2851563 0,0.97265624 0.6796875,1.30078124 1.3242187,1.30078124 0.421875,0 0.796875,-0.1875 1.1015625,-0.4921875 -0.140625,0.57421875 -0.2695312,1.1015625 -0.703125,1.68749996 -0.2929687,0.3632813 -0.703125,0.6796875 -1.2070312,0.6796875 -0.1523438,0 -0.6445313,-0.023437 -0.83203127,-0.4570312 0.17578127,0 0.31640627,0 0.48046877,-0.1289063 0.1054687,-0.09375 0.2109375,-0.234375 0.2109375,-0.44531246 0,-0.33984375 -0.2929688,-0.38671875 -0.3984375,-0.38671875 -0.25781252,0 -0.60937502,0.17578125 -0.60937502,0.71484371 0,0.5390625 0.48046872,0.9492188 1.14843752,0.9492188 1.125,0 2.25,-0.9960938 2.5546875,-2.22656251 z m 0,0"
       style="fill:#000000;fill-opacity:1;fill-rule:nonzero;stroke:none"
       aria-label="y"
       transform="matrix(1.3333333,0,0,1.3333333,70.649333,101.58267)" />
    <path
       id="path8"
       d="m 17.00824,0 v 82.34428 c 0,0 2.70331,1.30682 3.74159,1.66072 1.03826,0.35389 2.70331,0.75556 3.74157,0.88991 1.03826,0.13434 2.7033,0.17005 3.74157,0.07837 1.03827,-0.09168 2.70331,-0.42575 3.74158,-0.73913 1.03827,-0.31339 2.70331,-0.99971 3.74158,-1.51952 1.03827,-0.51981 2.70332,-1.52562 3.74159,-2.22699 1.03827,-0.70137 2.70331,-1.979 3.74156,-2.82805 1.03827,-0.84904 2.70331,-2.33555 3.74158,-3.2913 1.03827,-0.95574 2.70332,-2.58062 3.74159,-3.59702 1.03825,-1.01642 2.70331,-2.70056 3.74158,-3.72861 1.03827,-1.02803 2.7033,-2.69061 3.74157,-3.68084 1.03827,-0.99024 2.70331,-2.5514 3.74158,-3.4561 1.03825,-0.90473 2.70331,-2.28898 3.74156,-3.06449 1.03829,-0.77551 2.70333,-1.91604 3.7416,-2.5249 1.03826,-0.60887 2.70332,-1.45039 3.74159,-1.8634 1.03825,-0.41301 2.70331,-0.91622 3.74156,-1.11336 1.03827,-0.19716 2.70331,-0.33579 3.74158,-0.30756 1.03827,0.02823 2.7033,0.2589 3.74159,0.51102 1.03825,0.25214 2.70329,0.84219 3.74156,1.30618 1.03827,0.46401 2.70332,1.38466 3.74159,2.03807 1.03827,0.65342 2.70331,1.85987 3.74157,2.6713 1.03826,0.8114 2.7033,2.24653 3.74157,3.17685 1.03827,0.93031 2.70333,2.524 3.74159,3.52824 1.03826,1.00424 3.74156,3.70966 3.74156,3.70966 L 106.81183,0 Z"
       style="fill:#9999ff;fill-opacity:0.2;fill-rule:nonzero;stroke:none"
       transform="matrix(1.3333333,0,0,-1.3333333,83.416,235.93067)" />
    <path
       id="path9"
       d="m 17.00824,82.34428 c 0,0 0.65535,0.34505 0.90704,0.46949 0.2517,0.12445 0.65534,0.31483 0.90705,0.42744 0.25167,0.11258 0.65535,0.28366 0.90704,0.38409 0.25169,0.10042 0.65535,0.25168 0.90703,0.33971 0.2517,0.08806 0.65535,0.21947 0.90704,0.29483 0.2517,0.07536 0.65536,0.18595 0.90705,0.24837 0.25169,0.06244 0.65536,0.15228 0.90704,0.20164 0.25169,0.04937 0.65533,0.11802 0.90704,0.15416 0.2517,0.03615 0.65535,0.08359 0.90705,0.10642 0.25169,0.02283 0.65535,0.04866 0.90704,0.05812 0.25169,0.0095 0.65534,0.01405 0.90703,0.01013 0.25171,-0.0039 0.65536,-0.02106 0.90704,-0.03841 0.25171,-0.01734 0.65537,-0.05597 0.90704,-0.08668 0.2517,-0.0307 0.65535,-0.09062 0.90705,-0.13469 0.25169,-0.04408 0.65535,-0.12575 0.90704,-0.18297 0.25169,-0.05722 0.65535,-0.15932 0.90704,-0.22943 0.2517,-0.0701 0.65534,-0.19299 0.90705,-0.27586 0.25169,-0.08289 0.65535,-0.22608 0.90703,-0.32157 0.25171,-0.09549 0.65536,-0.25897 0.90704,-0.36671 0.25171,-0.10771 0.65535,-0.29013 0.90704,-0.40978 0.2517,-0.11964 0.65537,-0.32133 0.90704,-0.45262 0.2517,-0.13127 0.65536,-0.35106 0.90705,-0.49362 0.25169,-0.14254 0.65533,-0.38043 0.90705,-0.53383 0.25169,-0.15338 0.65534,-0.40797 0.90702,-0.57174 0.25171,-0.16376 0.65537,-0.43485 0.90705,-0.60859 0.2517,-0.17373 0.65534,-0.4604 0.90704,-0.64361 0.25171,-0.18321 0.65536,-0.4847 0.90704,-0.67684 0.2517,-0.19215 0.65537,-0.50746 0.90705,-0.70799 0.25169,-0.20053 0.65535,-0.52896 0.90704,-0.7373 0.25169,-0.20834 0.65535,-0.54874 0.90704,-0.76432 0.2517,-0.21557 0.65535,-0.56733 0.90703,-0.78947 0.25171,-0.22212 0.65537,-0.58344 0.90704,-0.81154 0.25171,-0.22812 0.65537,-0.59907 0.90706,-0.83255 0.25169,-0.23349 0.65535,-0.61209 0.90703,-0.85022 0.25169,-0.23811 0.65536,-0.62392 0.90704,-0.86603 0.2517,-0.24212 0.65535,-0.63356 0.90706,-0.87903 0.25168,-0.24546 0.65534,-0.64208 0.90703,-0.89016 0.2517,-0.24805 0.65535,-0.64784 0.90703,-0.89771 0.25171,-0.24986 0.65536,-0.65208 0.90706,-0.90313 0.25169,-0.25104 0.65535,-0.65478 0.90703,-0.90627 0.25171,-0.25148 0.65536,-0.655 0.90704,-0.90627 0.25169,-0.25124 0.65537,-0.65429 0.90706,-0.90469 0.25168,-0.2504 0.65533,-0.65137 0.90703,-0.90004 0.25169,-0.24867 0.65535,-0.64595 0.90704,-0.89224 0.25169,-0.24631 0.65535,-0.63967 0.90704,-0.8829 0.2517,-0.24325 0.65535,-0.63074 0.90703,-0.8702 0.25171,-0.23945 0.65537,-0.62063 0.90705,-0.85565 0.2517,-0.23505 0.65536,-0.60835 0.90705,-0.83827 0.25168,-0.22992 0.65535,-0.59465 0.90703,-0.8188 0.2517,-0.22414 0.65535,-0.57906 0.90704,-0.79674 0.2517,-0.21771 0.65536,-0.56171 0.90706,-0.77236 0.25168,-0.21066 0.65534,-0.54286 0.90702,-0.74586 0.25171,-0.20303 0.65536,-0.52254 0.90704,-0.71735 0.25171,-0.19481 0.65537,-0.50061 0.90706,-0.6867 0.25168,-0.18607 0.65535,-0.47773 0.90703,-0.65451 0.25169,-0.17681 0.65535,-0.45275 0.90704,-0.61974 0.25169,-0.16702 0.65535,-0.42722 0.90706,-0.58394 0.25168,-0.15675 0.65533,-0.39982 0.90703,-0.54579 0.25169,-0.14598 0.65535,-0.37146 0.90703,-0.50635 0.25171,-0.13487 0.65536,-0.34244 0.90706,-0.46583 0.25169,-0.12338 0.65534,-0.31198 0.90704,-0.42354 0.25168,-0.11156 0.65535,-0.2811 0.90703,-0.38048 0.25169,-0.09936 0.65535,-0.24895 0.90706,-0.33583 0.25167,-0.08687 0.65533,-0.21619 0.90704,-0.29039 0.25168,-0.0742 0.65533,-0.1832 0.90704,-0.24449 0.2517,-0.06128 0.65534,-0.14905 0.90703,-0.19722 0.25169,-0.04819 0.65535,-0.1151 0.90704,-0.15001 0.2517,-0.03493 0.65535,-0.08017 0.90705,-0.10175 0.25169,-0.02154 0.65534,-0.04553 0.90704,-0.05371 0.25168,-0.0082 0.65534,-0.01045 0.90704,-0.0052 0.25168,0.0052 0.65534,0.0245 0.90705,0.04307 0.25169,0.0186 0.65533,0.05896 0.90704,0.09085 0.25168,0.03189 0.65534,0.09387 0.90703,0.1391 0.25169,0.04522 0.65535,0.12849 0.90704,0.18685 0.25171,0.05837 0.65535,0.16254 0.90705,0.23385 0.25167,0.07127 0.65535,0.19598 0.90704,0.28001 0.25168,0.08406 0.65533,0.22914 0.90704,0.32571 0.2517,0.09658 0.65534,0.26154 0.90705,0.37035 0.25168,0.10881 0.65533,0.29321 0.90704,0.41394 0.25168,0.12073 0.65533,0.32391 0.90703,0.45625 0.25171,0.13231 0.65535,0.35398 0.90704,0.4975 0.2517,0.14352 0.65535,0.38263 0.90705,0.53695 0.25167,0.15435 0.65535,0.41068 0.90704,0.57539 0.25169,0.1647 0.65533,0.43708 0.90704,0.61171 0.25168,0.17459 0.65534,0.46267 0.90705,0.64671 0.25167,0.18405 0.65535,0.48674 0.90703,0.67972 0.2517,0.19296 0.65534,0.50976 0.90704,0.71109 0.25169,0.20131 0.65535,0.53088 0.90704,0.7399 0.25169,0.20903 0.65537,0.55046 0.90704,0.76664 0.2517,0.21619 0.65535,0.56884 0.90705,0.79155 0.25168,0.2227 0.65533,0.58498 0.90704,0.81363 0.25168,0.22866 0.65535,0.60042 0.90704,0.83435 0.2517,0.23395 0.65534,0.61325 0.90703,0.85178 0.2517,0.23851 0.65535,0.62489 0.90705,0.86733 0.25169,0.24244 0.65536,0.6344 0.90704,0.88004 0.25171,0.24566 0.65535,0.64223 0.90704,0.89045 0.25169,0.24819 0.65535,0.64843 0.90705,0.89848 0.25168,0.25003 0.65534,0.65251 0.90704,0.90365 0.2517,0.25116 0.90704,0.90653 0.90704,0.90653"
       style="fill:none;stroke:#008000;stroke-width:0.79701;stroke-linecap:butt;stroke-linejoin:miter;stroke-miterlimit:10;stroke-dasharray:none;stroke-opacity:1"
       transform="matrix(1.3333333,0,0,-1.3333333,83.416,235.93067)" />
    <g
       id="g9"
       aria-label="y=f(x)"
       transform="matrix(1.3333333,0,0,1.3333333,171.524,125.864)">
      <path
         id="path10"
         d="m 4.8394219,-3.7974141 c 0.046875,-0.140625 0.046875,-0.1523437 0.046875,-0.2226562 0,-0.1875 -0.140625,-0.2695313 -0.2929688,-0.2695313 -0.1054687,0 -0.2578125,0.058594 -0.3515625,0.1992188 -0.023437,0.058594 -0.09375,0.3632812 -0.140625,0.5390625 -0.070312,0.2578125 -0.140625,0.5273437 -0.1992187,0.796875 l -0.4453125,1.79296874 c -0.035156,0.15234375 -0.46875,0.85546875 -1.125,0.85546875 -0.5039063,0 -0.6210938,-0.4453125 -0.6210938,-0.80859375 0,-0.45703124 0.1757813,-1.07812504 0.515625,-1.95703124 0.1523438,-0.4101563 0.1992188,-0.515625 0.1992188,-0.7148438 0,-0.4453125 -0.328125,-0.8203125 -0.8203125,-0.8203125 -0.94921878,0 -1.31250003,1.453125 -1.31250003,1.5351563 0,0.1054687 0.09375,0.1054687 0.1171875,0.1054687 0.09375,0 0.10546875,-0.023437 0.15234375,-0.1875 0.26953125,-0.9375 0.66796878,-1.2304687 1.00781248,-1.2304687 0.082031,0 0.2578125,0 0.2578125,0.3164062 0,0.2460938 -0.1054687,0.515625 -0.1757812,0.703125 -0.3984375,1.0546875 -0.5742188,1.6171875 -0.5742188,2.0859375 0,0.89062504 0.6210938,1.18359379 1.21875,1.18359379 0.3867188,0 0.7265625,-0.1640625 0.9960938,-0.4453125 -0.1289063,0.515625 -0.2460938,1.0078125 -0.6445313,1.53515621 -0.2578125,0.3398438 -0.6328125,0.6328125 -1.0898437,0.6328125 -0.140625,0 -0.59765628,-0.035156 -0.76171878,-0.421875 0.1640625,0 0.29296878,0 0.43359378,-0.1171875 0.09375,-0.09375 0.1992187,-0.2226562 0.1992187,-0.41015621 0,-0.31640625 -0.2695312,-0.3515625 -0.375,-0.3515625 -0.22265623,0 -0.55078123,0.1640625 -0.55078123,0.64453121 0,0.5039063 0.43359375,0.8671875 1.05468753,0.8671875 1.0195312,0 2.0507812,-0.9023437 2.3320312,-2.02734371 z m 0,0"
         style="fill:#008000;fill-opacity:1;fill-rule:nonzero;stroke:none" />
      <path
         id="path11"
         d="m 14.856023,-3.2583516 c 0.152344,0 0.339844,0 0.339844,-0.1992187 0,-0.1992188 -0.1875,-0.1992188 -0.328125,-0.1992188 H 8.9028984 c -0.140625,0 -0.328125,0 -0.328125,0.1992188 0,0.1992187 0.1875,0.1992187 0.3398438,0.1992187 z m 0.01172,1.9335938 c 0.140625,0 0.328125,0 0.328125,-0.1992188 0,-0.1992187 -0.1875,-0.1992187 -0.339844,-0.1992187 H 8.9146172 c -0.1523438,0 -0.3398438,0 -0.3398438,0.1992187 0,0.1992188 0.1875,0.1992188 0.328125,0.1992188 z m 0,0"
         style="fill:#008000;fill-opacity:1;fill-rule:nonzero;stroke:none" />
      <path
         id="path12"
         d="m 22.177312,-3.9849141 h 0.855469 c 0.199219,0 0.304688,0 0.304688,-0.1992187 0,-0.1054688 -0.105469,-0.1054688 -0.269532,-0.1054688 h -0.832031 l 0.210938,-1.1367187 c 0.03516,-0.2109375 0.175781,-0.9140625 0.234375,-1.0429688 0.09375,-0.1875 0.257812,-0.3398437 0.46875,-0.3398437 0.04687,0 0.304687,0 0.492187,0.1875 -0.433594,0.035156 -0.539062,0.3867187 -0.539062,0.5390625 0,0.2226562 0.175781,0.3398437 0.363281,0.3398437 0.269531,0 0.550781,-0.2109375 0.550781,-0.5976562 0,-0.4570313 -0.457031,-0.6796875 -0.867187,-0.6796875 -0.339844,0 -0.960938,0.1757812 -1.265625,1.1601562 -0.05859,0.2109375 -0.08203,0.3164063 -0.328125,1.5703125 h -0.679688 c -0.199219,0 -0.304687,0 -0.304687,0.1875 0,0.1171875 0.09375,0.1171875 0.28125,0.1171875 h 0.65625 l -0.75,3.93750004 C 20.583562,0.91352344 20.4195,1.8275859 19.892156,1.8275859 c -0.03516,0 -0.28125,0 -0.46875,-0.1875 0.457031,-0.023437 0.539063,-0.3867187 0.539063,-0.5390625 0,-0.22265621 -0.175782,-0.33984371 -0.363282,-0.33984371 -0.257812,0 -0.550781,0.2109375 -0.550781,0.59765621 0,0.4453125 0.433594,0.6796875 0.84375,0.6796875 0.550781,0 0.949219,-0.5859375 1.125,-0.9609375 0.328125,-0.63281246 0.550781,-1.83984371 0.5625,-1.91015621 z m 0,0"
         style="fill:#008000;fill-opacity:1;fill-rule:nonzero;stroke:none" />
      <path
         id="path13"
         d="m 27.767156,2.3900859 c 0,-0.035156 0,-0.046875 -0.164062,-0.2226562 -1.242188,-1.25390626 -1.570313,-3.12890626 -1.570313,-4.6640625 0,-1.7226563 0.386719,-3.4570313 1.605469,-4.7109375 0.128906,-0.1171875 0.128906,-0.1289063 0.128906,-0.1640625 0,-0.070312 -0.03516,-0.1054688 -0.09375,-0.1054688 -0.105469,0 -0.996094,0.6796875 -1.582031,1.9453125 -0.515625,1.1015625 -0.632813,2.203125 -0.632813,3.0351563 0,0.7851562 0.117188,1.99218749 0.65625,3.11718749 0.597657,1.21875001 1.453125,1.87500001 1.558594,1.87500001 0.05859,0 0.09375,-0.035156 0.09375,-0.1054688 z m 0,0"
         style="fill:#008000;fill-opacity:1;fill-rule:nonzero;stroke:none" />
      <path
         id="path14"
         d="m 31.678289,-3.0122578 c 0.05859,-0.2578125 0.292969,-1.171875 0.984375,-1.171875 0.04687,0 0.292969,0 0.503906,0.1289062 -0.28125,0.046875 -0.480468,0.3046875 -0.480468,0.5390625 0,0.1640625 0.105468,0.3515625 0.375,0.3515625 0.222656,0 0.539062,-0.1875 0.539062,-0.5859375 0,-0.515625 -0.585937,-0.65625 -0.925781,-0.65625 -0.574219,0 -0.925781,0.5273438 -1.042969,0.7617188 -0.257812,-0.65625 -0.785156,-0.7617188 -1.078125,-0.7617188 -1.042969,0 -1.605469,1.2890625 -1.605469,1.5351563 0,0.1054687 0.105469,0.1054687 0.117188,0.1054687 0.08203,0 0.117187,-0.023437 0.128906,-0.1171875 0.339844,-1.0546875 0.996094,-1.3007812 1.335938,-1.3007812 0.1875,0 0.539062,0.09375 0.539062,0.6679687 0,0.3046875 -0.164062,0.9726563 -0.539062,2.3671875 -0.152344,0.62109379 -0.503907,1.04296879 -0.949219,1.04296879 -0.05859,0 -0.28125,0 -0.492188,-0.12890625 0.246094,-0.0585937 0.46875,-0.26953125 0.46875,-0.5390625 0,-0.26953124 -0.222656,-0.35156254 -0.375,-0.35156254 -0.292968,0 -0.539062,0.25781254 -0.539062,0.57421879 0,0.45703125 0.492187,0.65625 0.9375,0.65625 0.65625,0 1.007812,-0.69140625 1.042969,-0.75 0.117187,0.36328125 0.480468,0.75 1.078125,0.75 1.019531,0 1.59375,-1.27734379 1.59375,-1.53515629 0,-0.09375 -0.09375,-0.09375 -0.128907,-0.09375 -0.08203,0 -0.105468,0.035156 -0.128906,0.1054688 -0.328125,1.06640624 -0.996094,1.31249999 -1.324219,1.31249999 -0.386718,0 -0.539062,-0.328125 -0.539062,-0.65625 0,-0.22265625 0.05859,-0.44531249 0.164062,-0.87890629 z m 0,0"
         style="fill:#008000;fill-opacity:1;fill-rule:nonzero;stroke:none" />
      <path
         id="path15"
         d="m 36.925359,-2.4966328 c 0,-0.7734375 -0.117187,-1.9804688 -0.65625,-3.1054688 -0.597656,-1.21875 -1.464843,-1.875 -1.558593,-1.875 -0.05859,0 -0.105469,0.046875 -0.105469,0.1054688 0,0.035156 0,0.046875 0.199219,0.234375 0.972656,0.984375 1.535156,2.5664062 1.535156,4.640625 0,1.71093749 -0.363281,3.45703124 -1.59375,4.7226562 -0.140625,0.1171875 -0.140625,0.1289063 -0.140625,0.1640625 0,0.058594 0.04687,0.1054688 0.105469,0.1054688 0.09375,0 0.996093,-0.6796875 1.582031,-1.94531251 0.503906,-1.1015625 0.632812,-2.20312499 0.632812,-3.04687499 z m 0,0"
         style="fill:#008000;fill-opacity:1;fill-rule:nonzero;stroke:none" />
    </g>
    <path
       id="path16"
       d="M 17.00824,0 V 82.31989"
       style="fill:none;stroke:#ec008c;stroke-width:0.3985;stroke-linecap:butt;stroke-linejoin:miter;stroke-miterlimit:10;stroke-dasharray:2.98883, 2.98883;stroke-dashoffset:0;stroke-opacity:1"
       transform="matrix(1.3333333,0,0,-1.3333333,83.416,235.93067)" />
    <path
       id="path17"
       d="M 106.81183,0 V 68.03302"
       style="fill:none;stroke:#ec008c;stroke-width:0.3985;stroke-linecap:butt;stroke-linejoin:miter;stroke-miterlimit:10;stroke-dasharray:2.98883, 2.98883;stroke-dashoffset:0;stroke-opacity:1"
       transform="matrix(1.3333333,0,0,-1.3333333,83.416,235.93067)" />
    <path
       id="path18"
       d="m 3.7143672,-3.7624297 c -0.1757813,-0.375 -0.46875,-0.6445312 -0.9140625,-0.6445312 -1.171875,0 -2.40234376,1.4648437 -2.40234376,2.9179687 0,0.93750001 0.55078125,1.59375001 1.32421876,1.59375001 0.1992187,0 0.703125,-0.03515625 1.3007812,-0.73828125 0.070312,0.41015625 0.421875,0.73828125 0.9023438,0.73828125 0.3515625,0 0.5742187,-0.22265625 0.7382812,-0.5390625 0.1640625,-0.36328125 0.2929688,-0.97265621 0.2929688,-0.99609371 0,-0.09375 -0.082031,-0.09375 -0.1171875,-0.09375 -0.09375,0 -0.1054688,0.035156 -0.140625,0.1757812 -0.1640625,0.64453126 -0.3515625,1.24218751 -0.75,1.24218751 -0.2695313,0 -0.3046875,-0.2578125 -0.3046875,-0.45703125 0,-0.22265625 0.023437,-0.3046875 0.1289062,-0.73828126 0.1171875,-0.421875 0.1289063,-0.5273437 0.2226563,-0.9023437 l 0.3515625,-1.3945313 c 0.070312,-0.28125 0.070312,-0.2929687 0.070312,-0.3398437 0,-0.1640625 -0.1171875,-0.2695313 -0.28125,-0.2695313 -0.2460938,0 -0.3867188,0.2226563 -0.4218745,0.4453125 z m -0.6445313,2.578125 c -0.046875,0.1757813 -0.046875,0.19921876 -0.1992187,0.36328126 -0.4453125,0.55078125 -0.84375,0.71484375 -1.125,0.71484375 -0.5039063,0 -0.6445313,-0.55078125 -0.6445313,-0.93750001 0,-0.5039062 0.328125,-1.7226562 0.5507813,-2.1796875 0.3046875,-0.5976562 0.7617187,-0.9609375 1.1601562,-0.9609375 0.6445313,0 0.7851563,0.8203125 0.7851563,0.8789063 0,0.058594 -0.023437,0.1171875 -0.035156,0.1640625 z m 0,0"
       style="fill:#ec008c;fill-opacity:1;fill-rule:nonzero;stroke:none"
       aria-label="a"
       transform="matrix(1.3333333,0,0,1.3333333,102.58267,246.76267)" />
    <path
       id="path19"
       d="m 2.3802578,-6.8085937 c 0,0 0,-0.1054688 -0.1289062,-0.1054688 -0.2226563,0 -0.9492188,0.082031 -1.21875,0.1054688 -0.0703125,0 -0.18750004,0.011719 -0.18750004,0.1992187 0,0.1171875 0.09375,0.1171875 0.24609374,0.1171875 0.46875,0 0.4921875,0.070312 0.4921875,0.1640625 0,0.070312 -0.082031,0.4101563 -0.140625,0.6210938 l -0.80859374,3.2460937 c -0.12890625,0.5039063 -0.1640625,0.65625 -0.1640625,1.0078125 0,0.94921875 0.52734375,1.55859375 1.26562504,1.55859375 1.171875,0 2.4023437,-1.47656245 2.4023437,-2.91796875 0,-0.9023438 -0.5273437,-1.59375 -1.3242187,-1.59375 -0.4570313,0 -0.8671875,0.2929688 -1.171875,0.5976562 z m -0.9375,3.7734374 c 0.058594,-0.2226562 0.058594,-0.2460937 0.1523438,-0.3515625 0.4921875,-0.6445312 0.9375,-0.7968749 1.1953125,-0.7968749 0.3632812,0 0.6328125,0.2929687 0.6328125,0.9374999 0,0.5859375 -0.328125,1.7343751 -0.515625,2.1093751 -0.328125,0.6679687 -0.7851563,1.03124995 -1.171875,1.03124995 -0.3398438,0 -0.6679688,-0.26953125 -0.6679688,-1.00781245 0,-0.1875 0,-0.3867188 0.1640625,-1.0078126 z m 0,0"
       style="fill:#ec008c;fill-opacity:1;fill-rule:nonzero;stroke:none"
       aria-label="b"
       transform="matrix(1.3333333,0,0,1.3333333,222.97867,248)" />
    <g
       id="g19"
       aria-label="A&#10;1"
       transform="matrix(1.3333333,0,0,1.3333333,154.17733,205.79333)">
      <path
         id="path20"
         d="m 1.9558672,-1.2541797 c -0.4453125,0.72656251 -0.8671875,0.87890626 -1.34765626,0.91406251 -0.12890625,0.0117188 -0.22265625,0.0117188 -0.22265625,0.22265625 0,0.05859375 0.046875,0.1171875025 0.140625,0.1171875025 0.29296875,0 0.63281251,-0.0351562525 0.93750001,-0.0351562525 0.3515625,0 0.7382812,0.0351562525 1.0898437,0.0351562525 0.058594,0 0.2109375,0 0.2109375,-0.2109375025 0,-0.1171875 -0.1054687,-0.12890625 -0.1757812,-0.12890625 -0.2578125,-0.0234375 -0.515625,-0.10546875 -0.515625,-0.375 0,-0.140625 0.058594,-0.2578125 0.1523437,-0.41015621 l 0.8320313,-1.3945313 h 2.7304687 c 0.023437,0.2226563 0.1757813,1.71093751 0.1757813,1.81640626 0,0.328125 -0.5625,0.36328125 -0.7851563,0.36328125 -0.1523437,0 -0.2578125,0 -0.2578125,0.22265625 0,0.1171875025 0.1289063,0.1171875025 0.1523438,0.1171875025 0.4453125,0 0.9140625,-0.0351562525 1.359375,-0.0351562525 0.28125,0 0.9609375,0.0351562525 1.2304687,0.0351562525 0.070312,0 0.1992188,0 0.1992188,-0.2226562525 0,-0.1171875 -0.1054688,-0.1171875 -0.2460938,-0.1171875 -0.6796875,0 -0.6796875,-0.0703125 -0.7148437,-0.38671875 l -0.65625,-6.82031246 c -0.023437,-0.2226563 -0.023437,-0.2695313 -0.2109375,-0.2695313 -0.1757813,0 -0.2226563,0.082031 -0.28125,0.1875 z m 1.3007812,-1.6054687 2.15625,-3.5976563 0.3515625,3.5976563 z m 0,0"
         style="fill:#0000ff;fill-opacity:0.5;fill-rule:nonzero;stroke:none" />
      <path
         id="path21"
         d="m 10.689266,-3.4367969 c 0,-0.2226562 -0.02344,-0.2226562 -0.234375,-0.2226562 -0.328125,0.3164062 -0.7500004,0.5039062 -1.5117191,0.5039062 v 0.2695313 c 0.2226562,0 0.6445312,0 1.1132811,-0.2226563 v 4.08984378 c 0,0.29296872 -0.02344,0.39843752 -0.7851561,0.39843752 h -0.28125 v 0.2578125 c 0.328125,-0.023437 1.0195311,-0.023437 1.3710941,-0.023437 0.363281,0 1.054687,0 1.382812,0.023437 V 1.3796094 h -0.28125 c -0.75,0 -0.773437,-0.1054688 -0.773437,-0.39843752 z m 0,0"
         style="fill:#0000ff;fill-opacity:0.5;fill-rule:nonzero;stroke:none" />
    </g>
    <path
       id="path22"
       d="M -34.0165,0 H 118.59952"
       style="fill:none;stroke:#000000;stroke-width:0.3985;stroke-linecap:butt;stroke-linejoin:miter;stroke-miterlimit:10;stroke-dasharray:none;stroke-opacity:1"
       transform="matrix(1.3333333,0,0,-1.3333333,294.152,235.93067)" />
    <path
       id="path23"
       d="M -1.19551,1.59401 C -1.09587,0.99626 0,0.09961 0.29886,0 0,-0.09961 -1.09587,-0.99626 -1.19551,-1.59401"
       style="fill:none;stroke:#000000;stroke-width:0.31879;stroke-linecap:round;stroke-linejoin:round;stroke-miterlimit:10;stroke-dasharray:none;stroke-opacity:1"
       transform="matrix(1.3333333,0,0,-1.3333333,452.28469,235.93067)" />
    <path
       id="path24"
       d="m 3.6452422,-3.2915234 c 0.070312,-0.28125 0.3164062,-1.2890625 1.078125,-1.2890625 0.058594,0 0.3164062,0 0.5507812,0.140625 -0.3046875,0.058594 -0.5273437,0.328125 -0.5273437,0.5859375 0,0.1757812 0.1171875,0.3867187 0.4101562,0.3867187 0.2460938,0 0.5976563,-0.1992187 0.5976563,-0.6328125 0,-0.5625 -0.6445313,-0.7265625 -1.0195313,-0.7265625 -0.6328125,0 -1.0195312,0.5859375 -1.1484375,0.8320313 -0.2695312,-0.7148438 -0.8554687,-0.8320313 -1.171875,-0.8320313 -1.1367187,0 -1.75781246,1.4179688 -1.75781246,1.6875 0,0.1054688 0.10546875,0.1054688 0.12890625,0.1054688 0.0820313,0 0.1171875,-0.023437 0.140625,-0.1171875 0.37500001,-1.1601563 1.08984371,-1.4296875 1.46484371,-1.4296875 0.2109375,0 0.5859375,0.09375 0.5859375,0.7265625 0,0.3398437 -0.1875,1.078125 -0.5859375,2.6015625 -0.1757812,0.67968746 -0.5625,1.13671871 -1.0429687,1.13671871 -0.058594,0 -0.3164063,0 -0.53906251,-0.140625 0.26953121,-0.0585938 0.51562501,-0.29296875 0.51562501,-0.59765625 0,-0.29296876 -0.2460938,-0.37499996 -0.41015626,-0.37499996 -0.328125,0 -0.59765625,0.28124996 -0.59765625,0.63281246 0,0.50390625 0.55078125,0.71484375 1.03125001,0.71484375 0.7148437,0 1.1015625,-0.76171875 1.1367187,-0.83203125 0.1289063,0.41015625 0.5273438,0.83203125 1.1835938,0.83203125 1.125,0 1.7460937,-1.40625001 1.7460937,-1.67578121 0,-0.1054688 -0.1054687,-0.1054688 -0.1289062,-0.1054688 -0.1054688,0 -0.1289063,0.035156 -0.140625,0.1171875 -0.3632813,1.16015626 -1.1132813,1.42968751 -1.453125,1.42968751 -0.4335938,0 -0.609375,-0.3515625 -0.609375,-0.7265625 0,-0.23437501 0.070312,-0.48046871 0.1875,-0.96093751 z m 0,0"
       style="fill:#000000;fill-opacity:1;fill-rule:nonzero;stroke:none"
       aria-label="x"
       transform="matrix(1.3333333,0,0,1.3333333,448.73733,247.30667)" />
    <path
       id="path25"
       d="m 0,-17.00824 v 118.5995"
       style="fill:none;stroke:#000000;stroke-width:0.3985;stroke-linecap:butt;stroke-linejoin:miter;stroke-miterlimit:10;stroke-dasharray:none;stroke-opacity:1"
       transform="matrix(1.3333333,0,0,-1.3333333,294.152,235.93067)" />
    <path
       id="path26"
       d="M -1.19551,1.59401 C -1.09587,0.99626 0,0.09961 0.29886,0 0,-0.09961 -1.09587,-0.99626 -1.19551,-1.59401"
       style="fill:none;stroke:#000000;stroke-width:0.31879;stroke-linecap:round;stroke-linejoin:round;stroke-miterlimit:10;stroke-dasharray:none;stroke-opacity:1"
       transform="matrix(0,-1.3333333,-1.3333333,0,294.152,100.47565)" />
    <path
       id="path27"
       d="m 5.2979141,-4.1606328 c 0.046875,-0.1523438 0.046875,-0.1757813 0.046875,-0.2460938 0,-0.1992187 -0.1523438,-0.2929687 -0.3164063,-0.2929687 -0.1054687,0 -0.28125,0.058594 -0.375,0.2226562 -0.023437,0.058594 -0.1171875,0.3984375 -0.1523437,0.5976563 -0.082031,0.28125 -0.1523438,0.5742187 -0.2226563,0.8671875 l -0.4921875,1.96875 c -0.046875,0.16406249 -0.515625,0.92578124 -1.2304687,0.92578124 -0.5625,0 -0.6796875,-0.48046875 -0.6796875,-0.89062504 0,-0.4921875 0.1875,-1.171875 0.5625,-2.1328125 0.1757812,-0.4453125 0.2109375,-0.5742187 0.2109375,-0.7851562 0,-0.4921875 -0.3515625,-0.9023438 -0.890625,-0.9023438 -1.04296879,0 -1.44140629,1.5820313 -1.44140629,1.6875 0,0.1054688 0.10546875,0.1054688 0.12890625,0.1054688 0.10546875,0 0.1171875,-0.023437 0.17578125,-0.1992188 0.29296875,-1.0195312 0.72656249,-1.3476562 1.10156249,-1.3476562 0.09375,0 0.2695313,0 0.2695313,0.3515625 0,0.2695312 -0.1054688,0.5507812 -0.1757813,0.7617187 -0.4453125,1.1601563 -0.6328125,1.78125 -0.6328125,2.2851563 0,0.97265624 0.6796875,1.30078124 1.3242188,1.30078124 0.421875,0 0.796875,-0.1875 1.1015625,-0.4921875 -0.140625,0.57421875 -0.2695313,1.1015625 -0.703125,1.68749996 -0.2929688,0.3632813 -0.703125,0.6796875 -1.2070313,0.6796875 -0.1523437,0 -0.6445312,-0.023437 -0.83203124,-0.4570312 0.17578124,0 0.31640624,0 0.48046874,-0.1289063 0.1054688,-0.09375 0.2109375,-0.234375 0.2109375,-0.44531246 0,-0.33984375 -0.2929687,-0.38671875 -0.3984375,-0.38671875 -0.25781249,0 -0.60937499,0.17578125 -0.60937499,0.71484371 0,0.5390625 0.48046879,0.9492188 1.14843749,0.9492188 1.125,0 2.25,-0.9960938 2.5546875,-2.22656251 z m 0,0"
       style="fill:#000000;fill-opacity:1;fill-rule:nonzero;stroke:none"
       aria-label="y"
       transform="matrix(1.3333333,0,0,1.3333333,281.38533,101.58267)" />
    <path
       id="path28"
       d="m 17.00824,0 v 30.61464 c 0,0 2.70331,-2.0898 3.74159,-2.82909 1.03826,-0.73927 2.70331,-1.85136 3.74157,-2.49922 1.03826,-0.64787 2.7033,-1.61365 3.74157,-2.17016 1.03827,-0.55651 2.70331,-1.37569 3.74158,-1.84081 1.03827,-0.46512 2.70331,-1.13766 3.74158,-1.51147 1.03827,-0.3738 2.70332,-0.90021 3.74159,-1.18265 1.03827,-0.28246 2.70331,-0.66202 3.74156,-0.85308 1.03827,-0.19106 2.70331,-0.42426 3.74158,-0.52398 1.03827,-0.09972 2.70332,-0.1863 3.74159,-0.19464 1.03825,-0.0084 2.70331,0.05146 3.74158,0.13443 1.03827,0.08294 2.7033,0.28917 3.74157,0.46351 1.03827,0.17437 2.70331,0.52736 3.74158,0.79311 1.03825,0.26575 2.70331,0.76514 3.74156,1.12219 1.03829,0.35707 2.70333,1.00282 3.7416,1.45128 1.03826,0.44844 2.70332,1.24106 3.74159,1.78087 1.03825,0.53978 2.70331,1.4785 3.74156,2.10967 1.03827,0.63114 2.70331,1.71671 3.74158,2.43926 1.03827,0.72254 2.7033,1.95454 3.74159,2.76836 1.03825,0.81384 2.70329,2.19194 3.74156,3.09718 1.03827,0.90526 2.70332,2.43067 3.74159,3.42731 1.03827,0.99663 2.70331,2.66795 3.74157,3.75584 1.03826,1.08788 2.7033,2.90558 3.74157,4.08493 1.03827,1.17936 2.70333,3.14434 3.74159,4.41504 1.03826,1.27071 3.74156,4.74335 3.74156,4.74335 L 106.81183,0 Z"
       style="fill:#9999ff;fill-opacity:0.2;fill-rule:nonzero;stroke:none"
       transform="matrix(1.3333333,0,0,-1.3333333,294.152,235.93067)" />
    <path
       id="path29"
       d="m 17.00824,30.61464 c 0,0 0.65535,-0.52004 0.90704,-0.71604 0.2517,-0.19598 0.65534,-0.50593 0.90705,-0.69654 0.25167,-0.19065 0.65535,-0.49211 0.90704,-0.67739 0.25169,-0.18525 0.65535,-0.47802 0.90703,-0.65788 0.2517,-0.17987 0.65535,-0.46394 0.90704,-0.63843 0.2517,-0.1745 0.65536,-0.45009 0.90705,-0.61923 0.25169,-0.16917 0.65536,-0.43623 0.90704,-0.60002 0.25169,-0.16381 0.65533,-0.42217 0.90704,-0.58057 0.2517,-0.15838 0.65535,-0.40806 0.90705,-0.56109 0.25169,-0.15302 0.65535,-0.39421 0.90704,-0.54189 0.25169,-0.14766 0.65534,-0.38016 0.90703,-0.52243 0.25171,-0.14226 0.65536,-0.36606 0.90704,-0.50296 0.25171,-0.13689 0.65537,-0.35219 0.90704,-0.48377 0.2517,-0.13156 0.65535,-0.33834 0.90705,-0.46455 0.25169,-0.12619 0.65535,-0.32426 0.90704,-0.44507 0.25169,-0.1208 0.65535,-0.31018 0.90704,-0.42561 0.2517,-0.11545 0.65534,-0.29636 0.90705,-0.40642 0.25169,-0.11007 0.65535,-0.28225 0.90703,-0.38696 0.25171,-0.10472 0.65536,-0.2684 0.90704,-0.36775 0.25171,-0.09934 0.65535,-0.25431 0.90704,-0.34828 0.2517,-0.09398 0.65537,-0.24046 0.90704,-0.32908 0.2517,-0.08862 0.65536,-0.2264 0.90705,-0.30961 0.25169,-0.08322 0.65533,-0.2123 0.90705,-0.29015 0.25169,-0.07785 0.65534,-0.19844 0.90702,-0.27095 0.25171,-0.07251 0.65537,-0.18463 0.90705,-0.25174 0.2517,-0.06712 0.65534,-0.17027 0.90704,-0.23202 0.25171,-0.06174 0.65536,-0.15663 0.90704,-0.21306 0.2517,-0.05643 0.65537,-0.14258 0.90705,-0.1936 0.25169,-0.05103 0.65535,-0.12853 0.90704,-0.17415 0.25169,-0.04561 0.65535,-0.11443 0.90704,-0.15468 0.2517,-0.04025 0.65535,-0.10054 0.90703,-0.13547 0.25171,-0.03493 0.65537,-0.08671 0.90704,-0.11627 0.25171,-0.02956 0.65537,-0.07265 0.90706,-0.0968 0.25169,-0.02416 0.65535,-0.05855 0.90703,-0.07733 0.25169,-0.01879 0.65536,-0.04471 0.90704,-0.05814 0.2517,-0.01343 0.65535,-0.03059 0.90706,-0.03867 0.25168,-0.0081 0.65534,-0.01676 0.90703,-0.01947 0.2517,-0.0027 0.65535,-0.0027 0.90703,0 0.25171,0.0027 0.65536,0.01119 0.90706,0.01922 0.25169,0.008 0.65535,0.02528 0.90703,0.03866 0.25171,0.0134 0.65536,0.03912 0.90704,0.05786 0.25169,0.01876 0.65537,0.05319 0.90706,0.07735 0.25168,0.02415 0.65533,0.06728 0.90703,0.0968 0.25169,0.02953 0.65535,0.08113 0.90704,0.11601 0.25169,0.03488 0.65535,0.09523 0.90704,0.13547 0.2517,0.04026 0.65535,0.10907 0.90703,0.15468 0.25171,0.04562 0.65537,0.12317 0.90705,0.17415 0.2517,0.05099 0.65536,0.13699 0.90705,0.19334 0.25168,0.05635 0.65535,0.15109 0.90703,0.21282 0.2517,0.0617 0.65535,0.16493 0.90704,0.23201 0.2517,0.06709 0.65536,0.179 0.90706,0.25148 0.25168,0.07249 0.65534,0.1931 0.90702,0.27093 0.25171,0.07785 0.65536,0.20697 0.90704,0.29016 0.25171,0.08318 0.65537,0.22078 0.90706,0.30934 0.25168,0.0886 0.65535,0.23515 0.90703,0.32909 0.25169,0.09395 0.65535,0.24872 0.90704,0.34802 0.25169,0.09931 0.65535,0.26308 0.90706,0.36775 0.25168,0.10468 0.65533,0.27666 0.90703,0.38669 0.25169,0.11005 0.65535,0.29097 0.90703,0.40642 0.25171,0.11545 0.65536,0.30486 0.90706,0.42563 0.25169,0.12075 0.65534,0.31869 0.90704,0.44482 0.25168,0.12615 0.65535,0.33275 0.90703,0.4643 0.25169,0.13153 0.65535,0.34685 0.90706,0.48375 0.25167,0.1369 0.65533,0.36068 0.90704,0.50296 0.25168,0.14227 0.65533,0.3748 0.90704,0.52243 0.2517,0.14761 0.65534,0.38862 0.90703,0.54162 0.25169,0.15299 0.65535,0.40268 0.90704,0.5611 0.2517,0.1584 0.65535,0.41678 0.90705,0.58055 0.25169,0.16376 0.65534,0.43068 0.90704,0.59976 0.25168,0.1691 0.65534,0.44452 0.90704,0.61898 0.25168,0.17445 0.65534,0.45857 0.90705,0.63842 0.25169,0.17986 0.65533,0.47269 0.90704,0.6579 0.25168,0.18524 0.65534,0.48651 0.90703,0.67711 0.25169,0.1906 0.65535,0.50061 0.90704,0.69656 0.25171,0.19596 0.65535,0.51447 0.90705,0.71578 0.25167,0.20131 0.65535,0.52853 0.90704,0.73523 0.25168,0.20669 0.65533,0.54238 0.90704,0.75444 0.2517,0.21205 0.65534,0.55647 0.90705,0.77391 0.25168,0.21745 0.65533,0.57056 0.90704,0.79336 0.25168,0.22281 0.65533,0.58445 0.90703,0.81258 0.25171,0.22814 0.65535,0.59825 0.90704,0.83177 0.2517,0.23352 0.65535,0.61234 0.90705,0.85126 0.25167,0.23891 0.65535,0.62642 0.90704,0.8707 0.25169,0.24428 0.65533,0.64029 0.90704,0.88992 0.25168,0.24964 0.65534,0.65433 0.90705,0.90938 0.25167,0.25502 0.65535,0.66841 0.90703,0.92883 0.2517,0.26043 0.65534,0.6823 0.90704,0.94805 0.25169,0.26574 0.65535,0.69616 0.90704,0.96725 0.25169,0.2711 0.65537,0.7102 0.90704,0.98673 0.2517,0.27648 0.65535,0.72428 0.90705,1.00616 0.25168,0.28187 0.65533,0.73814 0.90704,1.02539 0.25168,0.28725 0.65535,0.75226 0.90704,1.04485 0.2517,0.2926 0.65534,0.7662 0.90703,1.06407 0.2517,0.29785 0.65535,0.77951 0.90705,1.08271 0.25169,0.30324 0.65536,0.79404 0.90704,1.10274 0.25171,0.3087 0.65535,0.80811 0.90704,1.12218 0.25169,0.31407 0.65535,0.82196 0.90705,1.1414 0.25168,0.31943 0.65534,0.83602 0.90704,1.16086 0.2517,0.32481 0.90704,1.18033 0.90704,1.18033"
       style="fill:none;stroke:#eb0a36;stroke-width:0.79701;stroke-linecap:butt;stroke-linejoin:miter;stroke-miterlimit:10;stroke-dasharray:none;stroke-opacity:1"
       transform="matrix(1.3333333,0,0,-1.3333333,294.152,235.93067)" />
    <g
       id="g29"
       aria-label="y=g(x)"
       transform="matrix(1.3333333,0,0,1.3333333,382.82133,148.54133)">
      <path
         id="path30"
         d="m 4.8390781,-3.7956484 c 0.046875,-0.140625 0.046875,-0.1523438 0.046875,-0.2226563 0,-0.1875 -0.140625,-0.2695312 -0.2929687,-0.2695312 -0.1054688,0 -0.2578125,0.058594 -0.3515625,0.1992187 -0.023437,0.058594 -0.09375,0.3632813 -0.140625,0.5390625 -0.070312,0.2578125 -0.140625,0.5273438 -0.1992188,0.796875 l -0.4453125,1.79296876 c -0.035156,0.15234375 -0.46875,0.85546875 -1.125,0.85546875 -0.5039062,0 -0.6210937,-0.4453125 -0.6210937,-0.80859375 0,-0.45703126 0.1757812,-1.07812496 0.515625,-1.95703126 0.1523437,-0.4101562 0.1992187,-0.515625 0.1992187,-0.7148437 0,-0.4453125 -0.328125,-0.8203125 -0.8203125,-0.8203125 -0.94921873,0 -1.31249998,1.453125 -1.31249998,1.5351562 0,0.1054688 0.09375,0.1054688 0.1171875,0.1054688 0.09375,0 0.10546875,-0.023437 0.15234375,-0.1875 0.26953125,-0.9375 0.66796873,-1.2304688 1.00781253,-1.2304688 0.082031,0 0.2578125,0 0.2578125,0.3164063 0,0.2460937 -0.1054688,0.515625 -0.1757813,0.703125 -0.3984375,1.0546875 -0.5742187,1.6171875 -0.5742187,2.0859375 0,0.89062496 0.6210937,1.18359371 1.21875,1.18359371 0.3867187,0 0.7265625,-0.1640625 0.9960937,-0.4453125 -0.1289062,0.515625 -0.2460937,1.0078125 -0.6445312,1.53515629 -0.2578125,0.3398437 -0.6328125,0.6328125 -1.0898438,0.6328125 -0.140625,0 -0.59765623,-0.035156 -0.76171873,-0.421875 0.1640625,0 0.29296873,0 0.43359373,-0.1171875 0.09375,-0.09375 0.1992188,-0.2226563 0.1992188,-0.41015629 0,-0.31640625 -0.2695313,-0.3515625 -0.375,-0.3515625 -0.22265628,0 -0.55078128,0.1640625 -0.55078128,0.64453129 0,0.5039062 0.43359375,0.8671875 1.05468748,0.8671875 1.0195313,0 2.0507813,-0.9023438 2.3320313,-2.02734379 z m 0,0"
         style="fill:#eb0a36;fill-opacity:1;fill-rule:nonzero;stroke:none" />
      <path
         id="path31"
         d="m 14.85568,-3.2565859 c 0.152343,0 0.339843,0 0.339843,-0.1992188 0,-0.1992187 -0.1875,-0.1992187 -0.328125,-0.1992187 H 8.9025547 c -0.140625,0 -0.328125,0 -0.328125,0.1992187 0,0.1992188 0.1875,0.1992188 0.3398437,0.1992188 z m 0.01172,1.9335937 c 0.140625,0 0.328125,0 0.328125,-0.1992187 0,-0.1992188 -0.1875,-0.1992188 -0.339843,-0.1992188 H 8.9142734 c -0.1523437,0 -0.3398437,0 -0.3398437,0.1992188 0,0.1992187 0.1875,0.1992187 0.328125,0.1992187 z m 0,0"
         style="fill:#eb0a36;fill-opacity:1;fill-rule:nonzero;stroke:none" />
      <path
         id="path32"
         d="m 23.208219,-3.7487734 c 0.01172,-0.070312 0.03516,-0.1171875 0.03516,-0.1875 0,-0.1640625 -0.117188,-0.2695313 -0.292969,-0.2695313 -0.09375,0 -0.363281,0.070312 -0.410156,0.4335938 -0.175781,-0.375 -0.527344,-0.6328125 -0.925781,-0.6328125 -1.136719,0 -2.367188,1.3945312 -2.367188,2.8359375 0,0.98437496 0.609375,1.57031246 1.324219,1.57031246 0.585937,0 1.054687,-0.46875 1.160156,-0.57421875 l 0.01172,0.0117188 c -0.210938,0.87890625 -0.328125,1.2890625 -0.328125,1.3125 -0.04687,0.0820313 -0.386719,1.07812509 -1.441406,1.07812509 -0.1875,0 -0.515625,-0.011719 -0.796875,-0.1054688 0.304687,-0.09375 0.410156,-0.3515625 0.410156,-0.515625 0,-0.1640625 -0.105469,-0.35156254 -0.375,-0.35156254 -0.222656,0 -0.539063,0.17578134 -0.539063,0.57421884 0,0.4101562 0.363282,0.609375 1.324219,0.609375 1.242188,0 1.957031,-0.7734375 2.109375,-1.37109384 z m -1.289063,2.4726562 c -0.05859,0.2578125 -0.292969,0.51562501 -0.503906,0.70312501 -0.210938,0.17578125 -0.527344,0.3515625 -0.808594,0.3515625 -0.503906,0 -0.65625,-0.515625 -0.65625,-0.91406251 0,-0.4804687 0.292969,-1.6523437 0.5625,-2.15625 0.269531,-0.4921875 0.703125,-0.890625 1.113281,-0.890625 0.65625,0 0.796875,0.8085938 0.796875,0.8554688 0,0.046875 -0.01172,0.1054687 -0.02344,0.1523437 z m 0,0"
         style="fill:#eb0a36;fill-opacity:1;fill-rule:nonzero;stroke:none" />
      <path
         id="path33"
         d="m 26.925992,2.3918516 c 0,-0.035156 0,-0.046875 -0.164062,-0.2226563 -1.242188,-1.25390624 -1.570313,-3.12890624 -1.570313,-4.6640625 0,-1.7226562 0.386719,-3.4570312 1.605469,-4.7109375 0.128906,-0.1171875 0.128906,-0.1289062 0.128906,-0.1640625 0,-0.070312 -0.03516,-0.1054687 -0.09375,-0.1054687 -0.105469,0 -0.996094,0.6796875 -1.582031,1.9453125 -0.515625,1.1015625 -0.632813,2.203125 -0.632813,3.0351562 0,0.7851563 0.117188,1.99218751 0.65625,3.11718751 0.597657,1.21874999 1.453125,1.87499999 1.558594,1.87499999 0.05859,0 0.09375,-0.035156 0.09375,-0.1054687 z m 0,0"
         style="fill:#eb0a36;fill-opacity:1;fill-rule:nonzero;stroke:none" />
      <path
         id="path34"
         d="m 30.834195,-3.0104922 c 0.05859,-0.2578125 0.292969,-1.171875 0.984375,-1.171875 0.04687,0 0.292969,0 0.503907,0.1289063 -0.28125,0.046875 -0.480469,0.3046875 -0.480469,0.5390625 0,0.1640625 0.105469,0.3515625 0.375,0.3515625 0.222656,0 0.539062,-0.1875 0.539062,-0.5859375 0,-0.515625 -0.585937,-0.65625 -0.925781,-0.65625 -0.574219,0 -0.925781,0.5273437 -1.042969,0.7617187 -0.257812,-0.65625 -0.785156,-0.7617187 -1.078125,-0.7617187 -1.042968,0 -1.605468,1.2890625 -1.605468,1.5351562 0,0.1054688 0.105468,0.1054688 0.117187,0.1054688 0.08203,0 0.117188,-0.023437 0.128906,-0.1171875 0.339844,-1.0546875 0.996094,-1.3007813 1.335938,-1.3007813 0.1875,0 0.539062,0.09375 0.539062,0.6679688 0,0.3046875 -0.164062,0.9726562 -0.539062,2.3671875 -0.152344,0.62109371 -0.503906,1.04296871 -0.949219,1.04296871 -0.05859,0 -0.28125,0 -0.492187,-0.12890625 0.246093,-0.0585938 0.46875,-0.26953125 0.46875,-0.5390625 0,-0.26953126 -0.222657,-0.35156246 -0.375,-0.35156246 -0.292969,0 -0.539063,0.25781246 -0.539063,0.57421871 0,0.45703125 0.492188,0.65625 0.9375,0.65625 0.65625,0 1.007813,-0.69140625 1.042969,-0.75 0.117187,0.36328125 0.480469,0.75 1.078125,0.75 1.019531,0 1.59375,-1.27734371 1.59375,-1.53515621 0,-0.09375 -0.09375,-0.09375 -0.128906,-0.09375 -0.08203,0 -0.105469,0.035156 -0.128907,0.1054687 -0.328125,1.06640626 -0.996093,1.31250001 -1.324218,1.31250001 -0.386719,0 -0.539063,-0.328125 -0.539063,-0.65625 0,-0.22265625 0.05859,-0.44531251 0.164063,-0.87890621 z m 0,0"
         style="fill:#eb0a36;fill-opacity:1;fill-rule:nonzero;stroke:none" />
      <path
         id="path35"
         d="m 36.084195,-2.4948672 c 0,-0.7734375 -0.117187,-1.9804687 -0.65625,-3.1054687 -0.597656,-1.21875 -1.464843,-1.875 -1.558593,-1.875 -0.05859,0 -0.105469,0.046875 -0.105469,0.1054687 0,0.035156 0,0.046875 0.199219,0.234375 0.972656,0.984375 1.535156,2.5664063 1.535156,4.640625 0,1.71093751 -0.363281,3.45703126 -1.59375,4.7226563 -0.140625,0.1171875 -0.140625,0.1289062 -0.140625,0.1640625 0,0.058594 0.04687,0.1054687 0.105469,0.1054687 0.09375,0 0.996093,-0.6796875 1.582031,-1.94531249 0.503906,-1.1015625 0.632812,-2.20312501 0.632812,-3.04687501 z m 0,0"
         style="fill:#eb0a36;fill-opacity:1;fill-rule:nonzero;stroke:none" />
    </g>
    <path
       id="path36"
       d="M 17.00824,0 V 30.6149"
       style="fill:none;stroke:#ec008c;stroke-width:0.3985;stroke-linecap:butt;stroke-linejoin:miter;stroke-miterlimit:10;stroke-dasharray:2.98883, 2.98883;stroke-dashoffset:0;stroke-opacity:1"
       transform="matrix(1.3333333,0,0,-1.3333333,294.152,235.93067)" />
    <path
       id="path37"
       d="M 106.81183,0 V 53.60313"
       style="fill:none;stroke:#ec008c;stroke-width:0.3985;stroke-linecap:butt;stroke-linejoin:miter;stroke-miterlimit:10;stroke-dasharray:2.98883, 2.98883;stroke-dashoffset:0;stroke-opacity:1"
       transform="matrix(1.3333333,0,0,-1.3333333,294.152,235.93067)" />
    <path
       id="path38"
       d="m 3.7160781,-3.7624297 c -0.1757812,-0.375 -0.46875,-0.6445312 -0.9140625,-0.6445312 -1.171875,0 -2.40234373,1.4648437 -2.40234373,2.9179687 0,0.93750001 0.55078125,1.59375001 1.32421873,1.59375001 0.1992188,0 0.703125,-0.03515625 1.3007813,-0.73828125 0.070312,0.41015625 0.421875,0.73828125 0.9023437,0.73828125 0.3515625,0 0.5742188,-0.22265625 0.7382813,-0.5390625 0.1640625,-0.36328125 0.2929687,-0.97265621 0.2929687,-0.99609371 0,-0.09375 -0.082031,-0.09375 -0.1171875,-0.09375 -0.09375,0 -0.1054687,0.035156 -0.140625,0.1757812 -0.1640625,0.64453126 -0.3515625,1.24218751 -0.75,1.24218751 -0.2695312,0 -0.3046875,-0.2578125 -0.3046875,-0.45703125 0,-0.22265625 0.023437,-0.3046875 0.1289063,-0.73828126 0.1171875,-0.421875 0.1289062,-0.5273437 0.2226562,-0.9023437 l 0.3515625,-1.3945313 c 0.070312,-0.28125 0.070312,-0.2929687 0.070312,-0.3398437 0,-0.1640625 -0.1171875,-0.2695313 -0.28125,-0.2695313 -0.2460937,0 -0.3867187,0.2226563 -0.4218745,0.4453125 z m -0.6445312,2.578125 c -0.046875,0.1757813 -0.046875,0.19921876 -0.1992188,0.36328126 -0.4453125,0.55078125 -0.84375,0.71484375 -1.125,0.71484375 -0.5039062,0 -0.6445312,-0.55078125 -0.6445312,-0.93750001 0,-0.5039062 0.328125,-1.7226562 0.5507812,-2.1796875 0.3046875,-0.5976562 0.7617188,-0.9609375 1.1601563,-0.9609375 0.6445312,0 0.7851562,0.8203125 0.7851562,0.8789063 0,0.058594 -0.023437,0.1171875 -0.035156,0.1640625 z m 0,0"
       style="fill:#ec008c;fill-opacity:1;fill-rule:nonzero;stroke:none"
       aria-label="a"
       transform="matrix(1.3333333,0,0,1.3333333,313.31867,246.76267)" />
    <path
       id="path39"
       d="m 2.3780391,-6.8085937 c 0,0 0,-0.1054688 -0.1289063,-0.1054688 -0.2226562,0 -0.9492187,0.082031 -1.21875,0.1054688 -0.0703125,0 -0.18749999,0.011719 -0.18749999,0.1992187 0,0.1171875 0.09375,0.1171875 0.24609379,0.1171875 0.46875,0 0.4921875,0.070312 0.4921875,0.1640625 0,0.070312 -0.082031,0.4101563 -0.140625,0.6210938 l -0.80859379,3.2460937 c -0.12890625,0.5039063 -0.1640625,0.65625 -0.1640625,1.0078125 0,0.94921875 0.52734375,1.55859375 1.26562499,1.55859375 1.171875,0 2.4023438,-1.47656245 2.4023438,-2.91796875 0,-0.9023438 -0.5273438,-1.59375 -1.3242188,-1.59375 -0.4570312,0 -0.8671875,0.2929688 -1.171875,0.5976562 z m -0.9375,3.7734374 c 0.058594,-0.2226562 0.058594,-0.2460937 0.1523437,-0.3515625 0.4921875,-0.6445312 0.9375,-0.7968749 1.1953125,-0.7968749 0.3632813,0 0.6328125,0.2929687 0.6328125,0.9374999 0,0.5859375 -0.328125,1.7343751 -0.515625,2.1093751 -0.328125,0.6679687 -0.7851562,1.03124995 -1.171875,1.03124995 -0.3398437,0 -0.6679687,-0.26953125 -0.6679687,-1.00781245 0,-0.1875 0,-0.3867188 0.1640625,-1.0078126 z m 0,0"
       style="fill:#ec008c;fill-opacity:1;fill-rule:nonzero;stroke:none"
       aria-label="b"
       transform="matrix(1.3333333,0,0,1.3333333,433.716,248)" />
    <g
       id="g39"
       aria-label="A&#10;2"
       transform="matrix(1.3333333,0,0,1.3333333,398.92933,217.132)">
      <path
         id="path40"
         d="m 1.9572969,-1.2532969 c -0.4453125,0.72656253 -0.8671875,0.87890628 -1.34765628,0.91406253 -0.12890625,0.0117188 -0.22265625,0.0117188 -0.22265625,0.22265625 0,0.05859375 0.046875,0.117187495 0.140625,0.117187495 0.29296875,0 0.63281253,-0.035156245 0.93750003,-0.035156245 0.3515625,0 0.7382812,0.035156245 1.0898437,0.035156245 0.058594,0 0.2109375,0 0.2109375,-0.210937495 0,-0.1171875 -0.1054687,-0.12890625 -0.1757812,-0.12890625 -0.2578125,-0.0234375 -0.515625,-0.10546875 -0.515625,-0.375 0,-0.140625 0.058594,-0.2578125 0.1523437,-0.41015623 l 0.8320313,-1.3945313 h 2.7304687 c 0.023437,0.2226563 0.1757813,1.71093753 0.1757813,1.81640628 0,0.328125 -0.5625,0.36328125 -0.7851563,0.36328125 -0.1523437,0 -0.2578125,0 -0.2578125,0.22265625 0,0.117187495 0.1289063,0.117187495 0.1523438,0.117187495 0.4453125,0 0.9140625,-0.035156245 1.359375,-0.035156245 0.28125,0 0.9609375,0.035156245 1.2304687,0.035156245 0.070312,0 0.1992188,0 0.1992188,-0.222656245 0,-0.1171875 -0.1054688,-0.1171875 -0.2460938,-0.1171875 -0.6796875,0 -0.6796875,-0.0703125 -0.7148437,-0.38671875 l -0.65625,-6.82031248 c -0.023437,-0.2226563 -0.023437,-0.2695313 -0.2109375,-0.2695313 -0.1757813,0 -0.2226563,0.082031 -0.28125,0.1875 z m 1.3007812,-1.6054687 2.15625,-3.5976563 0.3515625,3.5976563 z m 0,0"
         style="fill:#0000ff;fill-opacity:0.5;fill-rule:nonzero;stroke:none" />
      <path
         id="path41"
         d="m 10.432883,0.00646875 c 0.128906,-0.1171875 0.457031,-0.375 0.585937,-0.4921875 0.492188,-0.45703125 0.960938,-0.89062495 0.960938,-1.61718745 0,-0.9492188 -0.796875,-1.5585938 -1.792969,-1.5585938 -0.9492187,0 -1.5820312,0.7265625 -1.5820312,1.4296875 0,0.3984375 0.3164063,0.4453125 0.421875,0.4453125 0.1640625,0 0.4101563,-0.1171875 0.4101563,-0.421875 0,-0.4101562 -0.3984375,-0.4101562 -0.4921875,-0.4101562 0.234375,-0.5859375 0.7734375,-0.7851563 1.1601564,-0.7851563 0.738281,0 1.125,0.6328125 1.125,1.3007813 0,0.8320312 -0.585938,1.42968745 -1.5234377,2.4023437 l -1.0078125,1.03125 c -0.09375,0.09375 -0.09375,0.1054688 -0.09375,0.3046875 h 3.1523442 l 0.222656,-1.4296875 h -0.246094 c -0.02344,0.1640625 -0.08203,0.5625 -0.175781,0.71484375 -0.04687,0.0585938 -0.65625,0.0585938 -0.785156,0.0585938 H 9.3547578 Z m 0,0"
         style="fill:#0000ff;fill-opacity:0.5;fill-rule:nonzero;stroke:none" />
    </g>
  </g>
</svg>
