<?xml version="1.0" encoding="UTF-8" standalone="no"?>
<!-- Created with Inkscape (http://www.inkscape.org/) -->

<svg
   version="1.1"
   id="svg1"
   width="169.15085"
   height="157.7905"
   viewBox="0 0 169.15085 157.7905"
   sodipodi:docname="6.1-ejemplo-parabolas.svg"
   inkscape:version="1.4.2 (f4327f4, 2025-05-13)"
   xmlns:inkscape="http://www.inkscape.org/namespaces/inkscape"
   xmlns:sodipodi="http://sodipodi.sourceforge.net/DTD/sodipodi-0.dtd"
   xmlns="http://www.w3.org/2000/svg"
   xmlns:svg="http://www.w3.org/2000/svg">
  <defs
     id="defs1" />
  <sodipodi:namedview
     id="namedview1"
     pagecolor="#ffffff"
     bordercolor="#000000"
     borderopacity="0.25"
     inkscape:showpageshadow="2"
     inkscape:pageopacity="0.0"
     inkscape:pagecheckerboard="0"
     inkscape:deskcolor="#d1d1d1"
     inkscape:zoom="2.2241536"
     inkscape:cx="203.67298"
     inkscape:cy="98.239618"
     inkscape:window-width="1920"
     inkscape:window-height="1009"
     inkscape:window-x="-8"
     inkscape:window-y="-8"
     inkscape:window-maximized="1"
     inkscape:current-layer="g1">
    <inkscape:page
       x="0"
       y="0"
       inkscape:label="20"
       id="page1"
       width="169.15085"
       height="157.7905"
       margin="0"
       bleed="0" />
  </sodipodi:namedview>
  <g
     id="g1"
     inkscape:groupmode="layer"
     inkscape:label="20"
     transform="translate(-38.060093,-83.386718)">
    <path
       id="path2"
       d="M -25.51193,0 H 76.07758"
       style="fill:none;stroke:#000000;stroke-width:0.3985;stroke-linecap:butt;stroke-linejoin:miter;stroke-miterlimit:10;stroke-dasharray:none;stroke-opacity:1"
       transform="matrix(1.3333333,0,0,-1.3333333,72.076,190.15333)" />
    <path
       id="path3"
       d="M -1.19551,1.59401 C -1.09587,0.99626 0,0.09961 0.29886,0 0,-0.09961 -1.09587,-0.99626 -1.19551,-1.59401"
       style="fill:none;stroke:#000000;stroke-width:0.31879;stroke-linecap:round;stroke-linejoin:round;stroke-miterlimit:10;stroke-dasharray:none;stroke-opacity:1"
       transform="matrix(1.3333333,0,0,-1.3333333,173.51277,190.15333)" />
    <path
       id="path4"
       d="m 3.6431641,-3.2925312 c 0.070312,-0.28125 0.3164062,-1.2890625 1.078125,-1.2890625 0.058594,0 0.3164062,0 0.5507812,0.140625 -0.3046875,0.058594 -0.5273437,0.328125 -0.5273437,0.5859375 0,0.1757812 0.1171875,0.3867187 0.4101562,0.3867187 0.2460938,0 0.5976563,-0.1992187 0.5976563,-0.6328125 0,-0.5625 -0.6445313,-0.7265625 -1.0195313,-0.7265625 -0.6328125,0 -1.0195312,0.5859375 -1.1484375,0.8320313 C 3.3150391,-4.7105 2.7291016,-4.8276875 2.4126953,-4.8276875 c -1.1367187,0 -1.75781249,1.4179688 -1.75781249,1.6875 0,0.1054688 0.10546875,0.1054688 0.12890625,0.1054688 0.0820313,0 0.1171875,-0.023437 0.140625,-0.1171875 0.37500004,-1.1601563 1.08984374,-1.4296875 1.46484374,-1.4296875 0.2109375,0 0.5859375,0.09375 0.5859375,0.7265625 0,0.3398437 -0.1875,1.078125 -0.5859375,2.6015625 -0.1757812,0.67968745 -0.5625,1.1367187 -1.0429687,1.1367187 -0.058594,0 -0.3164063,0 -0.53906254,-0.140625 0.26953124,-0.0585938 0.51562504,-0.29296875 0.51562504,-0.59765625 0,-0.29296875 -0.2460938,-0.37499995 -0.41015629,-0.37499995 -0.328125,0 -0.59765625,0.28124995 -0.59765625,0.63281245 0,0.50390625 0.55078125,0.71484375 1.03125004,0.71484375 0.7148437,0 1.1015625,-0.76171875 1.1367187,-0.83203125 C 2.6119141,-0.30425 3.0103516,0.117625 3.6666016,0.117625 c 1.125,0 1.7460937,-1.40625 1.7460937,-1.6757812 0,-0.1054688 -0.1054687,-0.1054688 -0.1289062,-0.1054688 -0.1054688,0 -0.1289063,0.035156 -0.140625,0.1171875 -0.3632813,1.16015625 -1.1132813,1.4296875 -1.453125,1.4296875 -0.4335938,0 -0.609375,-0.3515625 -0.609375,-0.7265625 0,-0.234375 0.070312,-0.4804687 0.1875,-0.9609375 z m 0,0"
       style="fill:#000000;fill-opacity:1;fill-rule:nonzero;stroke:none"
       aria-label="x"
       transform="matrix(1.3333333,0,0,1.3333333,169.96667,201.53067)" />
    <path
       id="path5"
       d="M 0,-38.26791 V 76.07758"
       style="fill:none;stroke:#000000;stroke-width:0.3985;stroke-linecap:butt;stroke-linejoin:miter;stroke-miterlimit:10;stroke-dasharray:none;stroke-opacity:1"
       transform="matrix(1.3333333,0,0,-1.3333333,72.076,190.15333)" />
    <path
       id="path6"
       d="M -1.19551,1.59401 C -1.09587,0.99626 0,0.09961 0.29886,0 0,-0.09961 -1.09587,-0.99626 -1.19551,-1.59401"
       style="fill:none;stroke:#000000;stroke-width:0.31879;stroke-linecap:round;stroke-linejoin:round;stroke-miterlimit:10;stroke-dasharray:none;stroke-opacity:1"
       transform="matrix(0,-1.3333333,-1.3333333,0,72.076,88.71656)" />
    <path
       id="path7"
       d="m 5.2963203,-4.1599922 c 0.046875,-0.1523437 0.046875,-0.1757812 0.046875,-0.2460937 0,-0.1992188 -0.1523437,-0.2929688 -0.3164062,-0.2929688 -0.1054688,0 -0.28125,0.058594 -0.375,0.2226563 -0.023437,0.058594 -0.1171875,0.3984375 -0.1523438,0.5976562 -0.082031,0.28125 -0.1523437,0.5742188 -0.2226562,0.8671875 l -0.4921875,1.96875 c -0.046875,0.16406251 -0.515625,0.92578126 -1.2304688,0.92578126 -0.5625,0 -0.6796875,-0.48046875 -0.6796875,-0.89062496 0,-0.4921875 0.1875,-1.171875 0.5625,-2.1328125 0.1757813,-0.4453125 0.2109375,-0.5742188 0.2109375,-0.7851563 0,-0.4921875 -0.3515625,-0.9023437 -0.890625,-0.9023437 -1.04296874,0 -1.44140624,1.5820312 -1.44140624,1.6875 0,0.1054687 0.10546875,0.1054687 0.12890625,0.1054687 0.10546875,0 0.1171875,-0.023437 0.17578125,-0.1992187 0.29296875,-1.0195313 0.72656254,-1.3476563 1.10156254,-1.3476563 0.09375,0 0.2695312,0 0.2695312,0.3515625 0,0.2695313 -0.1054687,0.5507813 -0.1757812,0.7617188 -0.4453125,1.1601562 -0.6328125,1.78125 -0.6328125,2.2851562 0,0.97265626 0.6796875,1.30078126 1.3242187,1.30078126 0.421875,0 0.796875,-0.1875 1.1015625,-0.4921875 -0.140625,0.57421875 -0.2695312,1.1015625 -0.703125,1.68750004 -0.2929687,0.3632812 -0.703125,0.6796875 -1.2070312,0.6796875 -0.1523438,0 -0.6445313,-0.023437 -0.83203129,-0.4570313 0.17578129,0 0.31640629,0 0.48046879,-0.1289062 0.1054687,-0.09375 0.2109375,-0.234375 0.2109375,-0.44531254 0,-0.33984375 -0.2929688,-0.38671875 -0.3984375,-0.38671875 -0.25781254,0 -0.60937504,0.17578125 -0.60937504,0.71484379 0,0.5390625 0.48046874,0.9492187 1.14843754,0.9492187 1.125,0 2.25,-0.9960937 2.5546875,-2.22656249 z m 0,0"
       style="fill:#000000;fill-opacity:1;fill-rule:nonzero;stroke:none"
       aria-label="y"
       transform="matrix(1.3333333,0,0,1.3333333,59.309333,89.824)" />
    <path
       id="path8"
       d="m -12.75595,6.37796 0.25615,-0.2538 0.25613,-0.24838 0.25615,-0.24329 0.25617,-0.23825 0.25615,-0.23279 0.25611,-0.22812 0.25615,-0.22265 0.25617,-0.21762 0.25613,-0.21216 0.25615,-0.20747 L -9.93832,3.87138 -9.68219,3.67441 -9.42604,3.4825 -9.16989,3.29562 -8.91374,3.11423 -8.65761,2.93788 -8.40146,2.7666 -8.14531,2.60039 -7.88916,2.43921 -7.63301,2.2835 -7.37686,2.13284 -7.12073,1.98727 -6.86456,1.84673 -6.60841,1.71164 -6.35228,1.58162 -6.09612,1.45628 -5.83998,1.33676 -5.58383,1.22194 -5.3277,1.11253 -5.07153,1.00784 -4.81538,0.90855 -4.55925,0.81474 -4.3031,0.7256 -4.04694,0.64189 -3.7908,0.56288 -3.53465,0.4897 -3.27852,0.42117 -3.02235,0.35774 -2.76622,0.29973 -2.51007,0.24678 -2.2539,0.19891 -1.99777,0.15608 -1.74162,0.11871 -1.48547,0.0864 -1.22932,0.05914 -0.97318,0.03696 -0.71703,0.01984 -0.46089,0.00816 -0.20474,0.00153 0.05136,0 0.30751,0.0035 0.56364,0.01205 0.81981,0.02606 1.07596,0.04512 1.33209,0.06927 1.58826,0.09885 1.8444,0.1331 2.10054,0.17282 2.35667,0.21759 2.61284,0.26743 2.86899,0.32231 3.12512,0.38264 3.38127,0.44804 3.63744,0.51851 3.89357,0.59401 4.14972,0.67459 4.40587,0.76064 4.66202,0.85173 4.91815,0.94788 5.1743,1.0491 5.43047,1.15575 5.6866,1.26749 5.94275,1.38425 6.1989,1.50612 6.45505,1.63303 6.7112,1.76537 6.96735,1.9024 7.22348,2.04488 7.47964,2.1928 l 0.25614,0.1526 0.25615,0.15803 0.25613,0.16312 0.25617,0.16817 0.25615,0.17325 0.25613,0.17868 0.25616,0.18333 0.25615,0.18881 0.25614,0.19385 0.25614,0.19934 0.25616,0.20398 0.25613,0.20943 0.25615,0.21449 0.25615,0.21954 0.25616,0.22501 0.25614,0.22969 0.25615,0.23512 0.25615,0.24018 0.25615,0.24525 0.25614,0.2507 0.25615,0.25575 0.25614,0.26043 0.25615,0.26628 0.25615,0.27093 0.25615,0.276 0.25615,0.28145 0.25614,0.2865 0.25615,0.29159 0.25614,0.29702 0.25616,0.3017 0.25615,0.30714 0.25612,0.31219 0.25615,0.31768 0.25616,0.32231 0.25614,0.32777 0.25615,0.33284 0.25616,0.33789 0.25615,0.34296 0.25614,0.34802 0.25614,0.35346 0.25617,0.35853 0.25613,0.36359 0.25614,0.36905 0.25614,0.37372 0.25616,0.37915 0.25614,0.38423 0.25615,0.38927 0.25614,0.39474 0.25616,0.3998 0.25615,0.40444 0.25615,0.40992 0.25615,0.41537 0.25614,0.42005 0.25614,0.42546 0.25614,0.43054 0.25616,0.43561 0.25615,0.44065 0.25614,0.44613 0.25615,0.4512 0.25616,0.45622 0.25613,0.46131 0.25615,0.46635 0.25615,0.4718 0.25615,0.47689 0.25614,0.48191 0.25615,0.487 0.25616,0.49243 0.25613,0.49712 0.25616,0.50258 0.25614,0.50799 0.25615,0.5127 0.25615,0.51775 0.25615,0.52319 0.25615,0.52824 0.25613,0.53333 0.25615,0.53877 0.25615,0.54343 0.25613,0.54887 0.25617,0.55396 0.25615,0.5594 0.25613,0.56406 0.25615,0.56951 0.25617,0.57459 0.25613,0.57965 0.25614,0.5847 0.25616,0.59015 0.25615,0.59482 0.25613,0.60028 0.25615,0.60571 0.25617,0.6104 0.25613,0.61584 0.25615,0.6205 0.25615,0.62598 0.25615,0.63141 0.25615,0.63609 0.25613,0.64154 0.25615,0.6466 0.25615,0.65165 0.25615,0.65672 0.25615,0.66217 0.25615,0.66683 0.25615,0.67228 0.25615,0.67736 0.25613,0.6828 0.25616,0.68747 0.25614,0.69292 0.25615,0.698 0.25613,0.70304 0.25617,0.7085 0.25615,0.71354 0.25613,0.71822 0.25615,0.7237 0.25617,0.7291 0.25613,0.73378 0.25615,0.73926 0.25616,0.74431 0.25612,0.74936 0.25615,0.75444 0.25615,0.75987 0.25617,0.76494"
       style="fill:none;stroke:#eb0a36;stroke-width:0.79701;stroke-linecap:butt;stroke-linejoin:miter;stroke-miterlimit:10;stroke-dasharray:none;stroke-opacity:1"
       transform="matrix(1.3333333,0,0,-1.3333333,72.076,190.15333)" />
    <path
       id="path9"
       d="m -12.75595,-31.88991 0.25615,0.7661 0.25613,0.76065 0.25615,0.7556 0.25617,0.75053 0.25615,0.74508 0.25611,0.74041 0.25615,0.73497 0.25617,0.72989 0.25613,0.72448 0.25615,0.71977 0.25617,0.71433 0.25613,0.70928 0.25615,0.70421 0.25615,0.69914 0.25615,0.6937 0.25613,0.68866 0.25615,0.68356 0.25615,0.67851 0.25615,0.67346 0.25615,0.66802 0.25615,0.66293 0.25613,0.65789 0.25617,0.65283 0.25615,0.64738 0.25613,0.64231 0.25616,0.63765 0.25614,0.6318 0.25615,0.62714 0.25613,0.62167 0.25617,0.61702 0.25615,0.61156 0.25613,0.60611 0.25615,0.60144 0.25616,0.59597 0.25614,0.59133 0.25615,0.58548 0.25613,0.58082 0.25617,0.57575 0.25613,0.57028 0.25615,0.56523 0.25617,0.56018 0.25613,0.55512 0.25615,0.54967 0.25615,0.54461 0.25615,0.53954 0.25614,0.53448 0.25615,0.52944 0.25614,0.52395 0.25615,0.51891 0.2561,0.51381 0.25615,0.5088 0.25613,0.50372 0.25617,0.49828 0.25615,0.49324 0.25613,0.48814 0.25617,0.48272 0.25614,0.47804 0.25614,0.47258 0.25613,0.46751 0.25617,0.46248 0.25615,0.45741 0.25613,0.45195 0.25615,0.4469 0.25617,0.44184 0.25613,0.43677 0.25615,0.43171 0.25615,0.42627 0.25615,0.4212 0.25613,0.41614 0.25615,0.41109 0.25617,0.40564 0.25613,0.40056 0.25615,0.39552 0.25615,0.39045 0.25615,0.38538 0.25615,0.37995 0.25615,0.37526 0.25613,0.36979 0.25616,0.36438 0.25614,0.35971 0.25615,0.35424 0.25613,0.34918 0.25617,0.34413 0.25615,0.33905 0.25613,0.33362 0.25616,0.32895 0.25615,0.3235 0.25614,0.31842 0.25614,0.31299 0.25616,0.30832 0.25613,0.30284 0.25615,0.29781 0.25615,0.29275 0.25616,0.28728 0.25614,0.28262 0.25615,0.27716 0.25615,0.27213 0.25615,0.26703 0.25614,0.26159 0.25615,0.25655 0.25614,0.25187 0.25615,0.246 0.25615,0.24137 0.25615,0.23628 0.25615,0.23087 0.25614,0.22577 0.25615,0.22071 0.25614,0.21529 0.25616,0.21059 0.25615,0.20515 0.25612,0.20011 0.25615,0.19462 0.25616,0.18999 0.25614,0.18452 0.25615,0.17945 0.25616,0.17439 0.25615,0.16934 0.25614,0.16428 0.25614,0.15883 0.25617,0.15378 0.25613,0.14869 0.25614,0.14325 0.25614,0.1386 0.25616,0.13313 0.25614,0.12807 0.25615,0.123 0.25614,0.11757 0.25616,0.11252 0.25615,0.10781 0.25615,0.10238 0.25615,0.09695 0.25614,0.09224 0.25614,0.08682 0.25614,0.08176 0.25616,0.07669 0.25615,0.07161 0.25614,0.06617 0.25615,0.06113 0.25616,0.05605 0.25613,0.05101 0.25615,0.04593 0.25615,0.04048 0.25615,0.03543 0.25614,0.03038 0.25615,0.02529 0.25616,0.01986 0.25613,0.01518 0.25616,0.0097 0.25614,0.0043 0.25615,-3.7e-4 0.25615,-0.0055 0.25615,-0.01089 0.25615,-0.01597 0.25613,-0.021 0.25615,-0.02649 0.25615,-0.03113 0.25613,-0.0366 0.25617,-0.04164 0.25615,-0.04712 0.25613,-0.05176 0.25615,-0.05724 0.25617,-0.06228 0.25613,-0.06736 0.25614,-0.07238 0.25616,-0.07787 0.25615,-0.08252 0.25613,-0.088 0.25615,-0.09341 0.25617,-0.09811 0.25613,-0.10353 0.25615,-0.10824 0.25615,-0.11366 0.25615,-0.11912 0.25615,-0.12381 0.25613,-0.12923 0.25615,-0.13429 0.25615,-0.13938 0.25615,-0.14441 0.25615,-0.14987 0.25615,-0.15455 0.25615,-0.15999 0.25615,-0.16505 0.25613,-0.17052 0.25616,-0.17518 0.25614,-0.18061 0.25615,-0.1857 0.25613,-0.19074 0.25617,-0.19619 0.25615,-0.20127 0.25613,-0.20593 0.25615,-0.2114 0.25617,-0.21682 0.25613,-0.2215 0.25615,-0.22694 0.25616,-0.23201 0.25612,-0.23708 0.25615,-0.24214 0.25615,-0.24757 0.25617,-0.25264"
       style="fill:none;stroke:#008080;stroke-width:0.79701;stroke-linecap:butt;stroke-linejoin:miter;stroke-miterlimit:10;stroke-dasharray:none;stroke-opacity:1"
       transform="matrix(1.3333333,0,0,-1.3333333,72.076,190.15333)" />
    <path
       id="path10"
       d="M 0,0 V 0 C 0,0 0.7678,1.51617 1.06271,2.08147 1.3576,2.64674 1.83055,3.53354 2.12544,4.0742 2.42035,4.61485 2.8933,5.4621 3.18819,5.97816 3.48308,6.49425 3.95604,7.30228 4.25092,7.7938 c 0.2949,0.49148 0.76785,1.2599 1.06274,1.72683 0.29491,0.46692 0.76785,1.19609 1.06274,1.63849 0.29491,0.44241 0.76786,1.13229 1.06275,1.55012 0.29489,0.41784 0.76785,1.0681 1.06273,1.46137 0.29489,0.39325 0.76783,1.00432 1.06274,1.373 0.29489,0.36867 0.76784,0.94012 1.06275,1.28423 0.29489,0.34411 0.76783,0.87637 1.06273,1.19587 0.29489,0.31954 0.76783,0.81217 1.06274,1.10712 0.29489,0.29495 0.76784,0.74832 1.06274,1.01875 0.29489,0.27043 0.76784,0.68452 1.06275,0.93039 0.29487,0.24587 0.76783,0.62033 1.06271,0.84163 0.29491,0.22127 0.76786,0.55655 1.06274,0.75325 0.29491,0.1967 0.76786,0.49243 1.06275,0.66451 0.2949,0.17207 0.76785,0.42819 1.06274,0.57572 0.29489,0.14757 0.76784,0.36475 1.06273,0.4878 0.29491,0.12304 0.76785,0.30061 1.06275,0.399 0.2949,0.0984 0.76785,0.23643 1.06274,0.31026 0.29489,0.07383 0.76785,0.17265 1.06273,0.22191 0.29489,0.04925 0.76784,0.10842 1.06274,0.13311 0.29489,0.02468 1.06274,0.04477 1.06274,0.04477 h 0.0062 z"
       style="fill:#9999ff;fill-opacity:0.2;fill-rule:nonzero;stroke:none"
       transform="matrix(1.3333333,0,0,-1.3333333,72.076,190.15333)" />
    <path
       id="path11"
       d="M 0,0 V 0 C 0,0 0.7678,0.01945 1.06271,0.04398 1.3576,0.0685 1.83055,0.12756 2.12544,0.17671 2.42035,0.22585 2.8933,0.3245 3.18819,0.39822 3.48308,0.47194 3.95604,0.60979 4.25092,0.70808 4.54582,0.80637 5.01877,0.98384 5.31366,1.1067 5.60857,1.22958 6.08151,1.4463 6.3764,1.59369 c 0.29491,0.1474 0.76786,0.4034 1.06275,0.57536 0.29489,0.17197 0.76785,0.46759 1.06273,0.66413 0.29489,0.19653 0.76783,0.53134 1.06274,0.75247 0.29489,0.22113 0.76784,0.59553 1.06275,0.84123 0.29489,0.2457 0.76783,0.65935 1.06273,0.92961 0.29489,0.27026 0.76783,0.72353 1.06274,1.01836 0.29489,0.29485 0.76784,0.78735 1.06274,1.10673 0.29489,0.31937 0.76784,0.85115 1.06275,1.19509 0.29487,0.34394 0.76783,0.91534 1.06271,1.28386 0.29491,0.36851 0.76786,0.97912 1.06274,1.37222 0.29491,0.3931 0.76786,1.04324 1.06275,1.46097 0.2949,0.41772 0.76785,1.10748 1.06274,1.54972 0.29489,0.44225 0.76784,1.17095 1.06273,1.63772 0.29491,0.46676 0.76785,1.23507 1.06275,1.72647 0.2949,0.49137 0.76785,1.29922 1.06274,1.8152 0.29489,0.51599 0.76785,1.36303 1.06273,1.90359 0.29489,0.54056 0.76784,1.42722 1.06274,1.99234 0.29489,0.56514 1.06274,2.08071 1.06274,2.08071 l 0.0062,0.01246 z"
       style="fill:#9999ff;fill-opacity:0.2;fill-rule:nonzero;stroke:none"
       transform="matrix(1.3333333,0,0,-1.3333333,72.076,190.15333)" />
    <path
       id="path12"
       d="M 1.27565,0 C 1.27565,0.70453 0.70453,1.27565 0,1.27565 -0.70453,1.27565 -1.27565,0.70453 -1.27565,0 c 0,-0.70453 0.57112,-1.27565 1.27565,-1.27565 0.70453,0 1.27565,0.57112 1.27565,1.27565 z"
       style="fill:#eb0a36;fill-opacity:1;fill-rule:nonzero;stroke:#eb0a36;stroke-width:0.3985;stroke-linecap:butt;stroke-linejoin:miter;stroke-miterlimit:10;stroke-dasharray:none;stroke-opacity:1"
       transform="matrix(1.3333333,0,0,-1.3333333,72.076,190.15333)" />
    <path
       id="path13"
       d="m 26.7876,25.51193 c 0,0.70455 -0.57112,1.27567 -1.27567,1.27567 -0.70453,0 -1.27565,-0.57112 -1.27565,-1.27567 0,-0.70453 0.57112,-1.27565 1.27565,-1.27565 0.70455,0 1.27567,0.57112 1.27567,1.27565 z"
       style="fill:#eb0a36;fill-opacity:1;fill-rule:nonzero;stroke:#eb0a36;stroke-width:0.3985;stroke-linecap:butt;stroke-linejoin:miter;stroke-miterlimit:10;stroke-dasharray:none;stroke-opacity:1"
       transform="matrix(1.3333333,0,0,-1.3333333,72.076,190.15333)" />
    <g
       id="g13"
       aria-label="y=x&#10;2"
       transform="matrix(1.3333333,0,0,1.3333333,137.98933,126.23733)">
      <path
         id="path14"
         d="m 4.8390547,-3.7961641 c 0.046875,-0.140625 0.046875,-0.1523437 0.046875,-0.2226562 0,-0.1875 -0.140625,-0.2695313 -0.2929688,-0.2695313 -0.1054687,0 -0.2578125,0.058594 -0.3515625,0.1992188 -0.023437,0.058594 -0.09375,0.3632812 -0.140625,0.5390625 -0.070312,0.2578125 -0.140625,0.5273437 -0.1992187,0.796875 l -0.4453125,1.79296874 c -0.035156,0.15234375 -0.46875,0.85546875 -1.125,0.85546875 -0.5039063,0 -0.6210938,-0.4453125 -0.6210938,-0.80859375 0,-0.45703124 0.1757813,-1.07812504 0.515625,-1.95703124 0.1523438,-0.4101563 0.1992188,-0.515625 0.1992188,-0.7148438 0,-0.4453125 -0.328125,-0.8203125 -0.8203125,-0.8203125 -0.94921876,0 -1.31250001,1.453125 -1.31250001,1.5351563 0,0.1054687 0.09375,0.1054687 0.1171875,0.1054687 0.09375,0 0.10546875,-0.023437 0.15234375,-0.1875 0.26953125,-0.9375 0.66796876,-1.2304687 1.00781246,-1.2304687 0.082031,0 0.2578125,0 0.2578125,0.3164062 0,0.2460938 -0.1054687,0.515625 -0.1757812,0.703125 -0.3984375,1.0546875 -0.5742188,1.6171875 -0.5742188,2.0859375 0,0.89062504 0.6210938,1.18359379 1.21875,1.18359379 0.3867188,0 0.7265625,-0.1640625 0.9960938,-0.4453125 -0.1289063,0.515625 -0.2460938,1.0078125 -0.6445313,1.53515621 -0.2578125,0.3398438 -0.6328125,0.6328125 -1.0898437,0.6328125 -0.140625,0 -0.59765626,-0.035156 -0.76171876,-0.421875 0.1640625,0 0.29296876,0 0.43359376,-0.1171875 0.09375,-0.09375 0.1992187,-0.2226562 0.1992187,-0.41015621 0,-0.31640625 -0.2695312,-0.3515625 -0.375,-0.3515625 -0.22265621,0 -0.55078121,0.1640625 -0.55078121,0.64453121 0,0.5039063 0.43359375,0.8671875 1.05468751,0.8671875 1.0195312,0 2.0507812,-0.9023437 2.3320312,-2.02734371 z m 0,0"
         style="fill:#eb0a36;fill-opacity:1;fill-rule:nonzero;stroke:none" />
      <path
         id="path15"
         d="m 14.855656,-3.2571016 c 0.152344,0 0.339844,0 0.339844,-0.1992187 0,-0.1992188 -0.1875,-0.1992188 -0.328125,-0.1992188 H 8.9025313 c -0.140625,0 -0.328125,0 -0.328125,0.1992188 0,0.1992187 0.1875,0.1992187 0.3398437,0.1992187 z m 0.01172,1.9335938 c 0.140625,0 0.328125,0 0.328125,-0.1992188 0,-0.1992187 -0.1875,-0.1992187 -0.339844,-0.1992187 H 8.91425 c -0.1523437,0 -0.3398437,0 -0.3398437,0.1992187 0,0.1992188 0.1875,0.1992188 0.328125,0.1992188 z m 0,0"
         style="fill:#eb0a36;fill-opacity:1;fill-rule:nonzero;stroke:none" />
      <path
         id="path16"
         d="m 21.84882,-3.0110078 c 0.05859,-0.2578125 0.292969,-1.171875 0.984375,-1.171875 0.04687,0 0.292969,0 0.503907,0.1289062 -0.28125,0.046875 -0.480469,0.3046875 -0.480469,0.5390625 0,0.1640625 0.105469,0.3515625 0.375,0.3515625 0.222656,0 0.539062,-0.1875 0.539062,-0.5859375 0,-0.515625 -0.585937,-0.65625 -0.925781,-0.65625 -0.574219,0 -0.925781,0.5273438 -1.042969,0.7617188 -0.257812,-0.65625 -0.785156,-0.7617188 -1.078125,-0.7617188 -1.042968,0 -1.605468,1.2890625 -1.605468,1.5351563 0,0.1054687 0.105468,0.1054687 0.117187,0.1054687 0.08203,0 0.117188,-0.023437 0.128906,-0.1171875 0.339844,-1.0546875 0.996094,-1.3007812 1.335938,-1.3007812 0.1875,0 0.539062,0.09375 0.539062,0.6679687 0,0.3046875 -0.164062,0.9726563 -0.539062,2.3671875 -0.152344,0.62109379 -0.503906,1.04296879 -0.949219,1.04296879 -0.05859,0 -0.28125,0 -0.492187,-0.12890625 0.246093,-0.0585938 0.46875,-0.26953125 0.46875,-0.5390625 0,-0.26953124 -0.222657,-0.35156254 -0.375,-0.35156254 -0.292969,0 -0.539063,0.25781254 -0.539063,0.57421879 0,0.45703125 0.492188,0.65625 0.9375,0.65625 0.65625,0 1.007813,-0.69140625 1.042969,-0.75 0.117187,0.36328125 0.480469,0.75 1.078125,0.75 1.019531,0 1.59375,-1.27734379 1.59375,-1.53515629 0,-0.09375 -0.09375,-0.09375 -0.128906,-0.09375 -0.08203,0 -0.105469,0.035156 -0.128907,0.1054688 -0.328125,1.06640624 -0.996093,1.31249999 -1.324218,1.31249999 -0.386719,0 -0.539063,-0.328125 -0.539063,-0.65625 0,-0.22265625 0.05859,-0.44531249 0.164063,-0.87890629 z m 0,0"
         style="fill:#eb0a36;fill-opacity:1;fill-rule:nonzero;stroke:none" />
      <path
         id="path17"
         d="m 27.734563,-4.8801484 h -0.234375 c -0.02344,0.1523437 -0.08203,0.5625 -0.175782,0.6328125 -0.05859,0.035156 -0.597656,0.035156 -0.691406,0.035156 h -1.289062 c 0.738281,-0.6445312 0.984375,-0.84375 1.394531,-1.171875 0.515625,-0.4101562 0.996094,-0.84375 0.996094,-1.5 0,-0.84375 -0.738282,-1.359375 -1.628907,-1.359375 -0.867187,0 -1.453125,0.609375 -1.453125,1.2421875 0,0.3632813 0.304688,0.3984375 0.375,0.3984375 0.164063,0 0.375,-0.1171875 0.375,-0.375 0,-0.1289062 -0.05859,-0.3632812 -0.421875,-0.3632812 0.222657,-0.5039063 0.691407,-0.65625 1.019532,-0.65625 0.703125,0 1.066406,0.5507812 1.066406,1.1132812 0,0.609375 -0.433594,1.0898438 -0.65625,1.3359375 l -1.6875,1.6640625 c -0.07031,0.058594 -0.07031,0.070312 -0.07031,0.2695313 h 2.882813 z m 0,0"
         style="fill:#eb0a36;fill-opacity:1;fill-rule:nonzero;stroke:none" />
    </g>
    <g
       id="g17"
       aria-label="y=2x−x&#10;2"
       transform="matrix(1.3333333,0,0,1.3333333,139.76267,160.25333)">
      <path
         id="path18"
         d="m 4.8391328,-3.7964453 c 0.046875,-0.140625 0.046875,-0.1523438 0.046875,-0.2226563 0,-0.1875 -0.140625,-0.2695312 -0.2929687,-0.2695312 -0.1054688,0 -0.2578125,0.058594 -0.3515625,0.1992187 -0.023437,0.058594 -0.09375,0.3632813 -0.140625,0.5390625 -0.070312,0.2578125 -0.140625,0.5273438 -0.1992188,0.796875 l -0.4453125,1.79296879 c -0.035156,0.15234375 -0.46875,0.85546875 -1.125,0.85546875 -0.5039062,0 -0.6210937,-0.4453125 -0.6210937,-0.80859375 0,-0.45703129 0.1757812,-1.07812499 0.515625,-1.95703129 0.1523437,-0.4101562 0.1992187,-0.515625 0.1992187,-0.7148437 0,-0.4453125 -0.328125,-0.8203125 -0.8203125,-0.8203125 -0.94921874,0 -1.31249999,1.453125 -1.31249999,1.5351562 0,0.1054688 0.09375,0.1054688 0.1171875,0.1054688 0.09375,0 0.10546875,-0.023437 0.15234375,-0.1875 0.26953125,-0.9375 0.66796874,-1.2304688 1.00781254,-1.2304688 0.082031,0 0.2578125,0 0.2578125,0.3164063 0,0.2460937 -0.1054688,0.515625 -0.1757813,0.703125 -0.3984375,1.0546875 -0.5742187,1.6171875 -0.5742187,2.0859375 0,0.89062499 0.6210937,1.18359374 1.21875,1.18359374 0.3867187,0 0.7265625,-0.1640625 0.9960937,-0.4453125 -0.1289062,0.515625 -0.2460937,1.0078125 -0.6445312,1.53515626 -0.2578125,0.3398437 -0.6328125,0.6328125 -1.0898438,0.6328125 -0.140625,0 -0.59765624,-0.035156 -0.76171874,-0.421875 0.1640625,0 0.29296874,0 0.43359374,-0.1171875 0.09375,-0.09375 0.1992188,-0.2226563 0.1992188,-0.41015626 0,-0.31640625 -0.2695313,-0.3515625 -0.375,-0.3515625 -0.22265629,0 -0.55078129,0.1640625 -0.55078129,0.64453126 0,0.5039062 0.43359375,0.8671875 1.05468749,0.8671875 1.0195313,0 2.0507813,-0.9023438 2.3320313,-2.02734376 z m 0,0"
         style="fill:#008080;fill-opacity:1;fill-rule:nonzero;stroke:none" />
      <path
         id="path19"
         d="m 14.855734,-3.2573828 c 0.152344,0 0.339844,0 0.339844,-0.1992188 0,-0.1992187 -0.1875,-0.1992187 -0.328125,-0.1992187 H 8.9026094 c -0.140625,0 -0.328125,0 -0.328125,0.1992187 0,0.1992188 0.1875,0.1992188 0.3398437,0.1992188 z m 0.01172,1.9335937 c 0.140625,0 0.328125,0 0.328125,-0.1992187 0,-0.1992188 -0.1875,-0.1992188 -0.339844,-0.1992188 H 8.9143281 c -0.1523437,0 -0.3398437,0 -0.3398437,0.1992188 0,0.1992187 0.1875,0.1992187 0.328125,0.1992187 z m 4.918945,0.56250004 1.054688,-1.03125004 c 1.558594,-1.3710937 2.15625,-1.9101562 2.15625,-2.90625 0,-1.1367187 -0.902344,-1.9335937 -2.121094,-1.9335937 -1.125,0 -1.851562,0.9140625 -1.851562,1.8046875 0,0.5507812 0.492187,0.5507812 0.527343,0.5507812 0.164063,0 0.515625,-0.1171875 0.515625,-0.5273437 0,-0.2578125 -0.1875,-0.515625 -0.527343,-0.515625 -0.08203,0 -0.105469,0 -0.128907,0.011719 0.222657,-0.6445312 0.761719,-1.0195312 1.335938,-1.0195312 0.914062,0 1.335937,0.8085937 1.335937,1.6289062 0,0.796875 -0.492187,1.5820313 -1.042968,2.203125 l -1.910157,2.13281254 C 19.02468,-0.25738281 19.02468,-0.23394531 19.02468,4.296875e-4 h 3.691406 L 22.997336,-1.7339453 h -0.257813 c -0.04687,0.3046875 -0.117187,0.73828124 -0.210937,0.89062499 -0.07031,0.0820313 -0.726563,0.0820313 -0.949219,0.0820313 z m 0,0"
         style="fill:#008080;fill-opacity:1;fill-rule:nonzero;stroke:none" />
      <path
         id="path20"
         d="m 26.832297,-3.0112891 c 0.05859,-0.2578125 0.292969,-1.171875 0.984375,-1.171875 0.04687,0 0.292969,0 0.503906,0.1289063 -0.28125,0.046875 -0.480469,0.3046875 -0.480469,0.5390625 0,0.1640625 0.105469,0.3515625 0.375,0.3515625 0.222657,0 0.539063,-0.1875 0.539063,-0.5859375 0,-0.515625 -0.585938,-0.65625 -0.925781,-0.65625 -0.574219,0 -0.925782,0.5273437 -1.042969,0.7617187 -0.257813,-0.65625 -0.785156,-0.7617187 -1.078125,-0.7617187 -1.042969,0 -1.605469,1.2890625 -1.605469,1.5351562 0,0.1054688 0.105469,0.1054688 0.117188,0.1054688 0.08203,0 0.117187,-0.023437 0.128906,-0.1171875 0.339844,-1.0546875 0.996094,-1.3007813 1.335937,-1.3007813 0.1875,0 0.539063,0.09375 0.539063,0.6679688 0,0.3046875 -0.164063,0.9726562 -0.539063,2.3671875 -0.152343,0.62109374 -0.503906,1.04296874 -0.949218,1.04296874 -0.05859,0 -0.28125,0 -0.492188,-0.12890625 0.246094,-0.0585938 0.46875,-0.26953125 0.46875,-0.5390625 0,-0.26953129 -0.222656,-0.35156249 -0.375,-0.35156249 -0.292969,0 -0.539062,0.25781249 -0.539062,0.57421874 0,0.45703125 0.492187,0.65625 0.9375,0.65625 0.65625,0 1.007812,-0.69140625 1.042968,-0.75 0.117188,0.36328125 0.480469,0.75 1.078125,0.75 1.019532,0 1.59375,-1.27734374 1.59375,-1.53515624 0,-0.09375 -0.09375,-0.09375 -0.128906,-0.09375 -0.08203,0 -0.105469,0.035156 -0.128906,0.1054687 -0.328125,1.06640629 -0.996094,1.31250004 -1.324219,1.31250004 -0.386719,0 -0.539062,-0.328125 -0.539062,-0.65625 0,-0.22265625 0.05859,-0.44531254 0.164062,-0.87890624 z m 0,0"
         style="fill:#008080;fill-opacity:1;fill-rule:nonzero;stroke:none" />
      <path
         id="path21"
         d="m 37.979758,-2.2964453 c 0.175781,0 0.351562,0 0.351562,-0.1992188 0,-0.1992187 -0.175781,-0.1992187 -0.351562,-0.1992187 h -5.390625 c -0.164063,0 -0.339844,0 -0.339844,0.1992187 0,0.1992188 0.175781,0.1992188 0.339844,0.1992188 z m 0,0"
         style="fill:#008080;fill-opacity:1;fill-rule:nonzero;stroke:none" />
      <path
         id="path22"
         d="m 44.70632,-3.0112891 c 0.05859,-0.2578125 0.292969,-1.171875 0.984375,-1.171875 0.04687,0 0.292969,0 0.503907,0.1289063 -0.28125,0.046875 -0.480469,0.3046875 -0.480469,0.5390625 0,0.1640625 0.105469,0.3515625 0.375,0.3515625 0.222656,0 0.539062,-0.1875 0.539062,-0.5859375 0,-0.515625 -0.585937,-0.65625 -0.925781,-0.65625 -0.574219,0 -0.925781,0.5273437 -1.042969,0.7617187 -0.257812,-0.65625 -0.785156,-0.7617187 -1.078125,-0.7617187 -1.042968,0 -1.605468,1.2890625 -1.605468,1.5351562 0,0.1054688 0.105468,0.1054688 0.117187,0.1054688 0.08203,0 0.117188,-0.023437 0.128906,-0.1171875 0.339844,-1.0546875 0.996094,-1.3007813 1.335938,-1.3007813 0.1875,0 0.539062,0.09375 0.539062,0.6679688 0,0.3046875 -0.164062,0.9726562 -0.539062,2.3671875 -0.152344,0.62109374 -0.503906,1.04296874 -0.949219,1.04296874 -0.05859,0 -0.28125,0 -0.492187,-0.12890625 0.246093,-0.0585938 0.46875,-0.26953125 0.46875,-0.5390625 0,-0.26953129 -0.222657,-0.35156249 -0.375,-0.35156249 -0.292969,0 -0.539063,0.25781249 -0.539063,0.57421874 0,0.45703125 0.492188,0.65625 0.9375,0.65625 0.65625,0 1.007813,-0.69140625 1.042969,-0.75 0.117187,0.36328125 0.480469,0.75 1.078125,0.75 1.019531,0 1.59375,-1.27734374 1.59375,-1.53515624 0,-0.09375 -0.09375,-0.09375 -0.128906,-0.09375 -0.08203,0 -0.105469,0.035156 -0.128907,0.1054687 -0.328125,1.06640629 -0.996093,1.31250004 -1.324218,1.31250004 -0.386719,0 -0.539063,-0.328125 -0.539063,-0.65625 0,-0.22265625 0.05859,-0.44531254 0.164063,-0.87890624 z m 0,0"
         style="fill:#008080;fill-opacity:1;fill-rule:nonzero;stroke:none" />
      <path
         id="path23"
         d="m 50.586203,-4.8804297 h -0.234375 c -0.02344,0.1523438 -0.08203,0.5625 -0.175781,0.6328125 -0.05859,0.035156 -0.597656,0.035156 -0.691406,0.035156 h -1.289063 c 0.738281,-0.6445313 0.984375,-0.84375 1.394531,-1.171875 0.515625,-0.4101563 0.996094,-0.84375 0.996094,-1.5 0,-0.84375 -0.738281,-1.359375 -1.628906,-1.359375 -0.867188,0 -1.453125,0.609375 -1.453125,1.2421875 0,0.3632812 0.304687,0.3984375 0.375,0.3984375 0.164062,0 0.375,-0.1171875 0.375,-0.375 0,-0.1289063 -0.05859,-0.3632813 -0.421875,-0.3632813 0.222656,-0.5039062 0.691406,-0.65625 1.019531,-0.65625 0.703125,0 1.066406,0.5507813 1.066406,1.1132813 0,0.609375 -0.433593,1.0898437 -0.65625,1.3359375 l -1.6875,1.6640625 c -0.07031,0.058594 -0.07031,0.070312 -0.07031,0.2695312 h 2.882812 z m 0,0"
         style="fill:#008080;fill-opacity:1;fill-rule:nonzero;stroke:none" />
    </g>
  </g>
</svg>
