<?xml version="1.0" encoding="UTF-8" standalone="no"?>
<!-- Created with Inkscape (http://www.inkscape.org/) -->

<svg
   version="1.1"
   id="svg1"
   width="228.35547"
   height="246.69531"
   viewBox="0 0 228.35547 246.69532"
   sodipodi:docname="6.2-solidos-recta-parabola.svg"
   inkscape:version="1.4.2 (f4327f4, 2025-05-13)"
   xmlns:inkscape="http://www.inkscape.org/namespaces/inkscape"
   xmlns:sodipodi="http://sodipodi.sourceforge.net/DTD/sodipodi-0.dtd"
   xmlns="http://www.w3.org/2000/svg"
   xmlns:svg="http://www.w3.org/2000/svg">
  <defs
     id="defs1" />
  <sodipodi:namedview
     id="namedview1"
     pagecolor="#ffffff"
     bordercolor="#000000"
     borderopacity="0.25"
     inkscape:showpageshadow="2"
     inkscape:pageopacity="0.0"
     inkscape:pagecheckerboard="0"
     inkscape:deskcolor="#d1d1d1"
     inkscape:zoom="2.2241536"
     inkscape:cx="198.95209"
     inkscape:cy="136.00679"
     inkscape:window-width="1920"
     inkscape:window-height="1009"
     inkscape:window-x="-8"
     inkscape:window-y="-8"
     inkscape:window-maximized="1"
     inkscape:current-layer="g1">
    <inkscape:page
       x="0"
       y="0"
       inkscape:label="16"
       id="page1"
       width="228.35547"
       height="246.69531"
       margin="0"
       bleed="0" />
  </sodipodi:namedview>
  <g
     id="g1"
     inkscape:groupmode="layer"
     inkscape:label="16"
     transform="translate(-43.035156,-45.605468)">
    <path
       id="path2"
       d="M -12.75595,0 H 101.58952"
       style="fill:none;stroke:#000000;stroke-width:0.3985;stroke-linecap:butt;stroke-linejoin:miter;stroke-miterlimit:10;stroke-dasharray:none;stroke-opacity:1"
       transform="matrix(1.3333333,0,0,-1.3333333,131.812,254.41867)" />
    <path
       id="path3"
       d="M -1.19551,1.59401 C -1.09587,0.99626 0,0.09961 0.29886,0 0,-0.09961 -1.09587,-0.99626 -1.19551,-1.59401"
       style="fill:none;stroke:#000000;stroke-width:0.31879;stroke-linecap:round;stroke-linejoin:round;stroke-miterlimit:10;stroke-dasharray:none;stroke-opacity:1"
       transform="matrix(1.3333333,0,0,-1.3333333,267.26469,254.41867)" />
    <path
       id="path4"
       d="m 3.6455938,-3.2942422 c 0.070312,-0.28125 0.3164062,-1.2890625 1.078125,-1.2890625 0.058594,0 0.3164062,0 0.5507812,0.140625 -0.3046875,0.058594 -0.5273437,0.328125 -0.5273437,0.5859375 0,0.1757813 0.1171875,0.3867188 0.4101562,0.3867188 0.2460938,0 0.5976563,-0.1992188 0.5976563,-0.6328125 0,-0.5625 -0.6445313,-0.7265625 -1.0195313,-0.7265625 -0.6328125,0 -1.0195312,0.5859375 -1.1484375,0.8320312 -0.2695312,-0.7148437 -0.8554687,-0.8320312 -1.171875,-0.8320312 -1.1367187,0 -1.7578125,1.4179687 -1.7578125,1.6875 0,0.1054687 0.10546875,0.1054687 0.12890625,0.1054687 0.0820313,0 0.1171875,-0.023437 0.140625,-0.1171875 0.37500005,-1.1601562 1.08984375,-1.4296875 1.46484375,-1.4296875 0.2109375,0 0.5859375,0.09375 0.5859375,0.7265625 0,0.3398438 -0.1875,1.078125 -0.5859375,2.6015625 -0.1757812,0.67968751 -0.5625,1.13671876 -1.0429687,1.13671876 -0.058594,0 -0.3164063,0 -0.53906255,-0.140625 0.26953125,-0.0585938 0.51562505,-0.29296875 0.51562505,-0.59765625 0,-0.29296871 -0.2460938,-0.37500001 -0.4101563,-0.37500001 -0.328125,0 -0.59765625,0.28125001 -0.59765625,0.63281251 0,0.50390625 0.55078125,0.71484375 1.03125005,0.71484375 0.7148437,0 1.1015625,-0.76171875 1.1367187,-0.83203125 0.1289063,0.41015625 0.5273438,0.83203125 1.1835938,0.83203125 1.125,0 1.7460937,-1.40624996 1.7460937,-1.67578126 0,-0.1054687 -0.1054687,-0.1054687 -0.1289062,-0.1054687 -0.1054688,0 -0.1289063,0.035156 -0.140625,0.1171875 -0.3632813,1.16015621 -1.1132813,1.42968746 -1.453125,1.42968746 -0.4335938,0 -0.609375,-0.3515625 -0.609375,-0.7265625 0,-0.23437496 0.070312,-0.48046876 0.1875,-0.96093746 z m 0,0"
       style="fill:#000000;fill-opacity:1;fill-rule:nonzero;stroke:none"
       aria-label="x"
       transform="matrix(1.3333333,0,0,1.3333333,263.71733,265.79467)" />
    <path
       id="path5"
       d="m 0,-12.75595 v 165.3694"
       style="fill:none;stroke:#000000;stroke-width:0.3985;stroke-linecap:butt;stroke-linejoin:miter;stroke-miterlimit:10;stroke-dasharray:none;stroke-opacity:1"
       transform="matrix(1.3333333,0,0,-1.3333333,131.812,254.41867)" />
    <path
       id="path6"
       d="M -1.19551,1.59401 C -1.09587,0.99626 0,0.09961 0.29886,0 0,-0.09961 -1.09587,-0.99626 -1.19551,-1.59401"
       style="fill:none;stroke:#000000;stroke-width:0.31879;stroke-linecap:round;stroke-linejoin:round;stroke-miterlimit:10;stroke-dasharray:none;stroke-opacity:1"
       transform="matrix(0,-1.3333333,-1.3333333,0,131.812,50.934067)" />
    <path
       id="path7"
       d="m 5.2980313,-4.1599297 c 0.046875,-0.1523437 0.046875,-0.1757812 0.046875,-0.2460937 0,-0.1992188 -0.1523438,-0.2929688 -0.3164063,-0.2929688 -0.1054687,0 -0.28125,0.058594 -0.375,0.2226563 -0.023437,0.058594 -0.1171875,0.3984375 -0.1523437,0.5976562 -0.082031,0.28125 -0.1523438,0.5742188 -0.2226563,0.8671875 l -0.4921875,1.96875 c -0.046875,0.16406251 -0.515625,0.92578126 -1.2304687,0.92578126 -0.5625,0 -0.6796875,-0.48046875 -0.6796875,-0.89062496 0,-0.4921875 0.1875,-1.171875 0.5625,-2.1328125 0.1757812,-0.4453125 0.2109375,-0.5742188 0.2109375,-0.7851563 0,-0.4921875 -0.3515625,-0.9023437 -0.890625,-0.9023437 -1.0429688,0 -1.4414063,1.5820312 -1.4414063,1.6875 0,0.1054687 0.10546875,0.1054687 0.12890625,0.1054687 0.10546875,0 0.1171875,-0.023437 0.17578125,-0.1992187 0.29296875,-1.0195313 0.7265625,-1.3476563 1.1015625,-1.3476563 0.09375,0 0.2695313,0 0.2695313,0.3515625 0,0.2695313 -0.1054688,0.5507813 -0.1757813,0.7617188 -0.4453125,1.1601562 -0.6328125,1.78125 -0.6328125,2.2851562 0,0.97265626 0.6796875,1.30078126 1.3242188,1.30078126 0.421875,0 0.796875,-0.1875 1.1015625,-0.4921875 C 3.4699063,0.19944531 3.341,0.72678906 2.9074063,1.3127266 2.6144375,1.6760078 2.2042813,1.9924141 1.700375,1.9924141 c -0.1523437,0 -0.6445312,-0.023437 -0.83203125,-0.4570313 0.17578125,0 0.31640625,0 0.48046875,-0.1289062 0.1054688,-0.09375 0.2109375,-0.234375 0.2109375,-0.44531254 0,-0.33984375 -0.2929687,-0.38671875 -0.3984375,-0.38671875 -0.2578125,0 -0.609375,0.17578125 -0.609375,0.71484379 0,0.5390625 0.4804688,0.9492187 1.1484375,0.9492187 1.125,0 2.25,-0.9960937 2.5546875,-2.22656249 z m 0,0"
       style="fill:#000000;fill-opacity:1;fill-rule:nonzero;stroke:none"
       aria-label="y"
       transform="matrix(1.3333333,0,0,1.3333333,119.04533,52.042667)" />
    <path
       id="path8"
       d="m 0,0 0.25612,0.51227 0.25615,0.5123 0.25615,0.5123 0.25615,0.51229 0.25615,0.51229 0.25615,0.5123 L 1.793,3.58603 2.04916,4.09834 2.30531,4.61063 2.56145,5.12292 2.81758,5.63521 3.07375,6.1475 3.3299,6.6598 3.58603,7.1721 3.8422,7.68439 l 0.25614,0.5123 0.25614,0.51229 0.25615,0.5123 0.25616,0.5123 0.25613,0.51228 0.25615,0.51232 0.25614,0.51227 0.25616,0.51231 0.25613,0.51228 0.25616,0.5123 0.25614,0.5123 0.25615,0.51228 0.25615,0.5123 0.25615,0.5123 0.25614,0.51228 0.25616,0.51232 0.25614,0.51228 0.25615,0.51229 0.25614,0.51231 0.25615,0.51228 0.25615,0.51232 0.25614,0.51226 0.25616,0.5123 0.25615,0.5123 0.25613,0.5123 0.25615,0.5123 0.25617,0.5123 0.25612,0.51227 0.25615,0.51231 0.25615,0.51228 0.25616,0.5123 0.25614,0.51232 0.25614,0.51226 0.25617,0.51232 0.25613,0.51228 0.25615,0.5123 0.25615,0.5123 0.25614,0.51228 0.25614,0.5123 0.25615,0.5123 0.25615,0.51228 0.25615,0.51232 0.25615,0.51228 0.25615,0.5123 0.25613,0.51228 0.25617,0.5123 0.25615,0.51231 0.25613,0.51229 0.25615,0.51229 0.25615,0.51229 0.25614,0.5123 0.25614,0.5123 0.25617,0.51229 0.25615,0.51229 0.25613,0.5123 0.25615,0.51228 0.25617,0.51232 0.25613,0.51228 0.25613,0.51228 0.25615,0.5123 0.25615,0.5123 0.25615,0.51231 0.25615,0.51228 0.25615,0.5123 0.25615,0.51229 0.25615,0.51229 0.25615,0.5123 0.25615,0.5123 0.25615,0.51228 0.25613,0.5123 0.25614,0.51229 0.25616,0.51231 0.25615,0.51229 0.25613,0.5123 0.25615,0.51228 0.25617,0.51229 0.25613,0.5123 0.25615,0.5123 0.25617,0.5123 0.25613,0.51228 0.25613,0.5123 0.25615,0.51229 0.25617,0.51231 0.25613,0.51228 0.25615,0.51232 0.25615,0.51226 0.25615,0.5123 0.25615,0.5123 0.25615,0.5123 0.25615,0.5123 0.25613,0.51228 0.25615,0.5123 0.25615,0.5123 0.25615,0.5123 0.25615,0.51228 0.25615,0.5123 0.25613,0.51228 0.25617,0.51232 0.25615,0.51228 0.25613,0.5123 0.25615,0.5123 0.25615,0.51228 0.25615,0.5123 0.25613,0.5123 0.25615,0.51228 0.25616,0.51232 0.25614,0.51228 0.25615,0.51229 0.25616,0.5123 0.25614,0.51229 0.25615,0.51231 0.25613,0.51227 0.25616,0.51231 0.25614,0.51229 0.25615,0.5123 0.25615,0.5123 0.25615,0.51228 0.25615,0.5123 0.25615,0.5123 0.25613,0.51228 0.25616,0.51231 0.25615,0.5123 0.25614,0.51227 0.25615,0.51231 0.25615,0.51228 0.25614,0.51232 0.25614,0.51228 0.25616,0.51229 0.25616,0.5123 0.25613,0.51229 0.25615,0.5123 0.25616,0.5123 0.25612,0.51227 0.25615,0.51231 0.25615,0.51229 0.25616,0.5123 0.25614,0.51231 0.25614,0.51228 0.25617,0.5123 0.25613,0.51228 0.25615,0.5123 0.25615,0.5123 0.25615,0.5123 0.25614,0.51228 0.25615,0.5123 0.25615,0.51229 0.25614,0.51231 0.25615,0.51228 0.25615,0.5123 0.25614,0.51228 0.25616,0.5123 0.25615,0.51232 0.25613,0.51228 0.25615,0.5123 0.25615,0.51228 0.25614,0.5123 0.25615,0.5123 0.25616,0.5123 0.25615,0.51228 0.25613,0.5123 0.25616,0.51228 0.25616,0.51232 0.25614,0.51228 0.25614,0.5123 0.25614,0.51228 0.25615,0.5123 0.25614,0.51232 0.25615,0.51228 0.25615,0.5123 0.25615,0.51228 0.25615,0.5123 0.25615,0.5123 0.25615,0.5123 0.25615,0.51228 0.25613,0.5123 0.25614,0.51228 0.25616,0.51231 0.25615,0.51229 0.25614,0.5123 0.25614,0.5123 0.25617,0.51228 0.25613,0.5123 0.25615,0.5123 0.25617,0.5123"
       style="fill:none;stroke:#eb0a36;stroke-width:0.79701;stroke-linecap:butt;stroke-linejoin:miter;stroke-miterlimit:10;stroke-dasharray:none;stroke-opacity:1"
       transform="matrix(1.3333333,0,0,-1.3333333,131.812,254.41867)" />
    <path
       id="path9"
       d="M 0,0 0.25612,0.0023 0.51227,0.0101 0.76842,0.02295 1.02457,0.04085 1.28072,0.06421 1.53687,0.09224 1.793,0.12572 2.04916,0.16426 2.30531,0.20824 2.56145,0.25691 2.81758,0.311 3.07375,0.3702 3.3299,0.43442 3.58603,0.50371 3.8422,0.57845 l 0.25614,0.0798 0.25614,0.08487 0.25615,0.0899 0.25616,0.095 0.25613,0.10045 0.25615,0.10549 0.25614,0.11056 0.25616,0.1156 0.25613,0.12108 0.25616,0.12613 0.25614,0.1308 0.25615,0.13663 0.25615,0.14131 0.25615,0.14676 0.25614,0.15142 0.25616,0.1569 0.25614,0.16232 0.25615,0.16701 0.25614,0.17244 0.25615,0.17712 0.25615,0.18297 0.25614,0.18762 0.25616,0.1927 0.25615,0.19815 0.25613,0.20321 0.25615,0.20826 0.25617,0.21334 0.25612,0.21876 0.25615,0.22383 0.25615,0.2289 0.25616,0.23396 0.25614,0.23902 0.25614,0.24447 0.25617,0.24953 0.25613,0.25459 0.25615,0.25965 0.25615,0.2647 0.25614,0.27018 0.25614,0.27522 0.25615,0.28027 0.25615,0.28574 0.25615,0.2904 0.25615,0.29586 0.25615,0.30092 0.25613,0.30597 0.25617,0.31104 0.25615,0.31647 0.25613,0.32157 0.25615,0.32661 0.25615,0.33164 0.25614,0.33674 0.25614,0.34218 0.25617,0.34724 0.25615,0.35231 0.25613,0.35735 0.25615,0.36281 0.25617,0.36787 0.25613,0.37294 0.25613,0.37798 0.25615,0.38307 0.25615,0.38849 0.25615,0.39317 0.25615,0.39864 0.25615,0.40408 0.25615,0.40872 0.25615,0.41422 0.25615,0.41923 0.25615,0.42432 0.25615,0.42938 0.25613,0.43485 0.25614,0.43948 0.25616,0.44494 0.25615,0.45002 0.25613,0.45546 0.25615,0.46014 0.25617,0.46558 0.25613,0.47064 0.25615,0.47569 0.25617,0.48116 0.25613,0.48581 0.25613,0.49129 0.25615,0.49633 0.25617,0.50139 0.25613,0.50685 0.25615,0.5119 0.25615,0.51658 0.25615,0.52241 0.25615,0.52709 0.25615,0.53215 0.25615,0.53759 0.25613,0.54267 0.25615,0.54771 0.25615,0.55318 0.25615,0.55783 0.25615,0.56329 0.25615,0.56836 0.25613,0.57381 0.25617,0.57846 0.25615,0.58392 0.25613,0.58899 0.25615,0.59404 0.25615,0.59911 0.25615,0.60415 0.25613,0.60962 0.25615,0.61469 0.25616,0.61973 0.25614,0.62519 0.25615,0.62985 0.25616,0.63532 0.25614,0.64034 0.25615,0.64545 0.25613,0.65087 0.25616,0.65594 0.25614,0.66061 0.25615,0.66607 0.25615,0.6715 0.25615,0.67618 0.25615,0.68164 0.25615,0.6867 0.25613,0.69174 0.25616,0.69683 0.25615,0.70226 0.25614,0.70731 0.25615,0.71238 0.25615,0.71746 0.25614,0.7225 0.25614,0.72797 0.25616,0.733 0.25616,0.7381 0.25613,0.74313 0.25615,0.74858 0.25616,0.75327 0.25612,0.75869 0.25615,0.76418 0.25615,0.76883 0.25616,0.77387 0.25614,0.77935 0.25614,0.78441 0.25617,0.78947 0.25613,0.79489 0.25615,0.7996 0.25615,0.80503 0.25615,0.81011 0.25614,0.81554 0.25615,0.8202 0.25615,0.82567 0.25614,0.83073 0.25615,0.8358 0.25615,0.84085 0.25614,0.8463 0.25616,0.85095 0.25615,0.85642 0.25613,0.86188 0.25615,0.86654 0.25615,0.87198 0.25614,0.87667 0.25615,0.88211 0.25616,0.88755 0.25615,0.89225 0.25613,0.89767 0.25616,0.90276 0.25616,0.9078 0.25614,0.91286 0.25614,0.91832 0.25614,0.92297 0.25615,0.92846 0.25614,0.9335 0.25615,0.93893 0.25615,0.94362 0.25615,0.94908 0.25615,0.95413 0.25615,0.95917 0.25615,0.96465 0.25615,0.96969 0.25613,0.97439 0.25614,0.97982 0.25616,0.98526 0.25615,0.98995 0.25614,0.9954 0.25614,1.00045 0.25617,1.00552 0.25613,1.01056 0.25615,1.01604 0.25617,1.02107"
       style="fill:none;stroke:#eb0a36;stroke-width:0.79701;stroke-linecap:butt;stroke-linejoin:miter;stroke-miterlimit:10;stroke-dasharray:none;stroke-opacity:1"
       transform="matrix(1.3333333,0,0,-1.3333333,131.812,254.41867)" />
    <path
       id="path10"
       d="m 2.9302656,-6.3736875 c 0,-0.234375 0,-0.2578125 -0.234375,-0.2578125 -0.609375,0.6328125 -1.4882812,0.6328125 -1.80468747,0.6328125 v 0.3164063 c 0.19921877,0 0.78515627,0 1.30078127,-0.2578125 v 5.15624995 c 0,0.3515625 -0.035156,0.48046875 -0.9257813,0.48046875 H 0.94979688 V 0.0013125 C 1.3013594,-0.03384375 2.1568281,-0.03384375 2.5552656,-0.03384375 c 0.3984375,0 1.265625,0 1.6171875,0.03515625 V -0.303375 H 3.8560469 c -0.9023438,0 -0.9257813,-0.1171875 -0.9257813,-0.48046875 z m 0,0"
       style="fill:#000000;fill-opacity:1;fill-rule:nonzero;stroke:none"
       aria-label="1"
       transform="matrix(1.3333333,0,0,1.3333333,196.52267,268.092)" />
    <path
       id="path11"
       d="m 0,0 0.51498,1.03001 0.51503,1.03003 0.51502,1.03005 0.51501,1.03003 0.51503,1.03004 0.51502,1.03004 0.51503,1.03005 0.515,1.03003 0.51503,1.03004 0.51501,1.03005 0.51503,1.03004 0.51501,1.03003 0.51504,1.03005 0.51501,1.03004 0.51502,1.03003 0.51501,1.03004 0.51503,1.03005 0.51501,1.03005 0.51503,1.03001 0.51502,1.03004 0.51501,1.03005 0.51503,1.03004 0.515,1.03003 0.51503,1.03005 0.51502,1.03003 0.51503,1.03004 0.51501,1.03003 0.51503,1.03004 0.51502,1.03005 0.51501,1.03003 0.51502,1.03004 0.51502,1.03005 0.51502,1.03004 0.51503,1.03003 0.51502,1.03005 0.51503,1.03004 0.51501,1.03003 0.515,1.03003 0.51503,1.03005 0.51501,1.03004 0.51503,1.03003 0.51502,1.03004 0.51503,1.03005 0.51501,1.03004 0.51502,1.03003 0.51501,1.03004 0.51503,1.03005 0.51502,1.03004 0.51503,1.03004 0.515,1.03002 0.51503,1.03005 0.51501,1.03004 0.51501,1.03003 0.51502,1.03005 0.51503,1.03004 0.51501,1.03001 0.51504,1.03005 0.51501,1.03004 0.51501,1.03005 0.51502,1.03002 0.51501,1.03005 0.51503,1.03005 0.51502,1.03004 0.51503,1.03003 0.51501,1.03004 0.51503,1.03005 0.51502,1.03003 0.51501,1.03004 0.51502,1.03005 0.51503,1.03004 0.51501,1.03003 0.51503,1.03005 0.51501,1.03003 0.51502,1.03002 0.51501,1.03003 0.51502,1.03005 0.51503,1.03004 0.51502,1.03005 0.51502,1.03003 0.51502,1.03004 0.51503,1.03005 0.515,1.03003 0.51503,1.03004 0.51501,1.03004 0.51503,1.03005 0.51502,1.03003 0.51503,1.03004 0.51501,1.03005 0.51503,1.03004 0.515,1.03003 0.51501,1.03003 0.51503,1.03005 0.51502,1.03004 0.51503,1.03003 0.51501,1.03004 0.51503,1.03005 0.515,1.03003 0.51504,1.03004 0.515,1.03003 0.037,0.074 -0.51503,-2.04995 -0.51502,-2.02893 -0.515,-2.00792 -0.51503,-1.98729 -0.51502,-1.96665 -0.51502,-1.94563 -0.51502,-1.925 -0.51503,-1.90398 -0.51501,-1.88333 -0.51503,-1.86272 -0.515,-1.84169 L 44.84366,78.82365 44.32864,77.02362 43.81361,75.2442 43.2986,73.48582 42.78357,71.74808 42.26855,70.03094 41.75354,68.33485 41.23853,66.6594 40.72351,65.00494 40.20848,63.37112 39.69347,61.75793 39.17844,60.16577 38.66342,58.59425 38.1484,57.04375 37.63339,55.51385 37.11836,54.00502 36.60335,52.5164 36.08832,51.0492 35.5733,49.60263 35.05827,48.17668 34.54326,46.7714 34.02824,45.3871 33.51323,44.02383 32.9982,42.6812 32.48318,41.35919 31.96817,40.05821 31.45314,38.77786 30.93813,37.51816 30.42311,36.27945 29.9081,35.06142 29.39307,33.86436 28.87805,32.68794 28.36302,31.53258 27.848,30.39781 27.33298,29.28369 26.81796,28.19058 26.30295,27.1185 25.78793,26.06665 25.27292,25.03584 24.7579,24.02603 24.24287,23.03688 23.72786,22.06836 23.21283,21.12085 22.69783,20.19397 22.18282,19.28772 21.66779,18.4025 21.15277,17.53828 20.63774,16.69472 20.12273,15.87177 19.6077,15.06985 19.09268,14.28854 18.57767,13.5279 18.06265,12.78827 17.54762,12.06926 17.03261,11.37129 16.51758,10.69392 16.00256,10.0376 15.48753,9.4019 14.97253,8.78683 14.4575,8.1928 13.94249,7.61938 13.42747,7.067 12.91245,6.53523 12.39743,6.02411 11.8824,5.53401 11.36739,5.06491 10.85237,4.61607 10.33736,4.18866 9.82233,3.78145 9.30731,3.3953 8.79228,3.02974 8.27727,2.68526 7.76224,2.36136 7.24724,2.0585 6.73221,1.77626 6.2172,1.51506 5.70216,1.27408 5.18715,1.05453 4.67213,0.85522 4.1571,0.67732 3.6421,0.51967 3.12708,0.38304 2.61206,0.26743 2.09703,0.17204 1.58202,0.09807 1.06699,0.04436 0.55197,0.01166 0.03696,0 Z"
       style="fill:#9999ff;fill-opacity:0.25;fill-rule:nonzero;stroke:none"
       transform="matrix(1.3333333,0,0,-1.3333333,131.812,254.41867)" />
    <path
       id="path12"
       d="M -51.0239,51.0239 H 25.51193"
       style="fill:none;stroke:#0000ff;stroke-width:0.79701;stroke-linecap:butt;stroke-linejoin:miter;stroke-miterlimit:10;stroke-dasharray:none;stroke-opacity:0.5"
       transform="matrix(1.3333333,0,0,-1.3333333,131.812,254.41867)" />
    <path
       id="path13"
       d="M -51.0239,63.77986 H 40.30891"
       style="fill:none;stroke:#0000ff;stroke-width:0.79701;stroke-linecap:butt;stroke-linejoin:miter;stroke-miterlimit:10;stroke-dasharray:none;stroke-opacity:0.5"
       transform="matrix(1.3333333,0,0,-1.3333333,131.812,254.41867)" />
    <path
       id="path14"
       d="M -51.0239,-12.75595 V 102.0478"
       style="fill:none;stroke:#008080;stroke-width:0.79701;stroke-linecap:butt;stroke-linejoin:miter;stroke-miterlimit:10;stroke-dasharray:2.98883, 2.98883;stroke-dashoffset:0;stroke-opacity:1"
       transform="matrix(1.3333333,0,0,-1.3333333,131.812,254.41867)" />
    <g
       id="g14"
       aria-label="x=−1"
       transform="matrix(1.3333333,0,0,1.3333333,42.642667,292.16)">
      <path
         id="path15"
         d="m 3.3295234,-3.0116016 c 0.058594,-0.2578125 0.2929688,-1.171875 0.984375,-1.171875 0.046875,0 0.2929688,0 0.5039063,0.1289063 -0.28125,0.046875 -0.4804688,0.3046875 -0.4804688,0.5390625 0,0.1640625 0.1054688,0.3515625 0.375,0.3515625 0.2226563,0 0.5390625,-0.1875 0.5390625,-0.5859375 0,-0.515625 -0.5859375,-0.65625 -0.9257812,-0.65625 -0.5742188,0 -0.9257813,0.5273437 -1.0429688,0.7617187 -0.2578125,-0.65625 -0.7851562,-0.7617187 -1.078125,-0.7617187 -1.0429687,0 -1.60546871,1.2890625 -1.60546871,1.5351562 0,0.1054688 0.10546875,0.1054688 0.1171875,0.1054688 0.0820313,0 0.1171875,-0.023437 0.12890625,-0.1171875 0.33984376,-1.0546875 0.99609376,-1.3007813 1.33593746,-1.3007813 0.1875,0 0.5390625,0.09375 0.5390625,0.6679688 0,0.3046875 -0.1640625,0.9726562 -0.5390625,2.3671875 -0.1523437,0.62109374 -0.5039062,1.04296874 -0.9492187,1.04296874 -0.058594,0 -0.28125001,0 -0.49218751,-0.12890625 0.24609375,-0.0585938 0.46875001,-0.26953125 0.46875001,-0.5390625 0,-0.26953129 -0.22265626,-0.35156249 -0.37500001,-0.35156249 -0.29296875,0 -0.5390625,0.25781249 -0.5390625,0.57421874 0,0.45703125 0.4921875,0.65625 0.93750001,0.65625 0.65625,0 1.0078125,-0.69140625 1.0429687,-0.75 0.1171875,0.36328125 0.4804688,0.75 1.078125,0.75 1.0195313,0 1.59375,-1.27734374 1.59375,-1.53515624 0,-0.09375 -0.09375,-0.09375 -0.1289062,-0.09375 -0.082031,0 -0.1054688,0.035156 -0.1289063,0.1054687 -0.328125,1.06640629 -0.9960937,1.31250004 -1.3242187,1.31250004 -0.3867188,0 -0.5390625,-0.328125 -0.5390625,-0.65625 0,-0.22265625 0.058594,-0.44531254 0.1640625,-0.87890624 z m 0,0"
         style="fill:#008080;fill-opacity:1;fill-rule:nonzero;stroke:none" />
      <path
         id="path16"
         d="m 15.306086,-3.2576953 c 0.152344,0 0.339844,0 0.339844,-0.1992188 0,-0.1992187 -0.1875,-0.1992187 -0.328125,-0.1992187 H 9.3529609 c -0.140625,0 -0.328125,0 -0.328125,0.1992187 0,0.1992188 0.1875,0.1992188 0.3398438,0.1992188 z m 0.01172,1.9335937 c 0.140625,0 0.328125,0 0.328125,-0.1992187 0,-0.1992188 -0.1875,-0.1992188 -0.339844,-0.1992188 H 9.3646797 c -0.1523438,0 -0.3398438,0 -0.3398438,0.1992188 0,0.1992187 0.1875,0.1992187 0.328125,0.1992187 z m 0,0"
         style="fill:#008080;fill-opacity:1;fill-rule:nonzero;stroke:none" />
      <path
         id="path17"
         d="m 25.545344,-2.2967578 c 0.175781,0 0.351562,0 0.351562,-0.1992188 0,-0.1992187 -0.175781,-0.1992187 -0.351562,-0.1992187 h -5.390625 c -0.164063,0 -0.339844,0 -0.339844,0.1992187 0,0.1992188 0.175781,0.1992188 0.339844,0.1992188 z m 0,0"
         style="fill:#008080;fill-opacity:1;fill-rule:nonzero;stroke:none" />
      <path
         id="path18"
         d="m 29.661555,-6.3748828 c 0,-0.234375 0,-0.2578125 -0.234375,-0.2578125 -0.609375,0.6328125 -1.488282,0.6328125 -1.804688,0.6328125 v 0.3164062 c 0.199219,0 0.785156,0 1.300781,-0.2578125 v 5.15625004 c 0,0.3515625 -0.03516,0.48046875 -0.925781,0.48046875 H 27.681086 V 1.171875e-4 C 28.032648,-0.03503906 28.888117,-0.03503906 29.286555,-0.03503906 c 0.398437,0 1.265625,0 1.617187,0.0351562475 V -0.30457031 h -0.316406 c -0.902344,0 -0.925781,-0.1171875 -0.925781,-0.48046875 z m 0,0"
         style="fill:#008080;fill-opacity:1;fill-rule:nonzero;stroke:none" />
    </g>
    <path
       id="path19"
       d="M 51.0239,0 V 102.0478"
       style="fill:none;stroke:#ec008c;stroke-width:0.3985;stroke-linecap:butt;stroke-linejoin:miter;stroke-miterlimit:10;stroke-dasharray:2.98883, 2.98883;stroke-dashoffset:0;stroke-opacity:1"
       transform="matrix(1.3333333,0,0,-1.3333333,131.812,254.41867)" />
    <g
       id="g19"
       aria-label="y=x"
       transform="matrix(1.3333333,0,0,1.3333333,139.47733,153.94)">
      <path
         id="path20"
         d="m 4.8392656,-3.7958203 c 0.046875,-0.140625 0.046875,-0.1523438 0.046875,-0.2226563 0,-0.1875 -0.140625,-0.2695312 -0.2929687,-0.2695312 -0.1054688,0 -0.2578125,0.058594 -0.3515625,0.1992187 -0.023437,0.058594 -0.09375,0.3632813 -0.140625,0.5390625 -0.070312,0.2578125 -0.140625,0.5273438 -0.1992188,0.796875 l -0.4453125,1.79296879 c -0.035156,0.15234375 -0.46875,0.85546875 -1.125,0.85546875 -0.5039062,0 -0.6210937,-0.4453125 -0.6210937,-0.80859375 0,-0.45703129 0.1757812,-1.07812499 0.515625,-1.95703129 0.1523437,-0.4101562 0.1992187,-0.515625 0.1992187,-0.7148437 0,-0.4453125 -0.328125,-0.8203125 -0.8203125,-0.8203125 -0.94921872,0 -1.31249997,1.453125 -1.31249997,1.5351562 0,0.1054688 0.09375,0.1054688 0.1171875,0.1054688 0.09375,0 0.10546875,-0.023437 0.15234375,-0.1875 0.26953125,-0.9375 0.66796872,-1.2304688 1.00781252,-1.2304688 0.082031,0 0.2578125,0 0.2578125,0.3164063 0,0.2460937 -0.1054688,0.515625 -0.1757813,0.703125 -0.3984375,1.0546875 -0.5742187,1.6171875 -0.5742187,2.0859375 0,0.89062499 0.6210937,1.18359374 1.21875,1.18359374 0.3867187,0 0.7265625,-0.1640625 0.9960937,-0.4453125 -0.1289062,0.515625 -0.2460937,1.0078125 -0.6445312,1.53515626 -0.2578125,0.3398437 -0.6328125,0.6328125 -1.0898438,0.6328125 -0.140625,0 -0.59765622,-0.035156 -0.76171872,-0.421875 0.1640625,0 0.29296872,0 0.43359372,-0.1171875 0.09375,-0.09375 0.1992188,-0.2226563 0.1992188,-0.41015626 0,-0.31640625 -0.2695313,-0.3515625 -0.375,-0.3515625 -0.22265627,0 -0.55078127,0.1640625 -0.55078127,0.64453126 0,0.5039062 0.43359375,0.8671875 1.05468747,0.8671875 1.0195313,0 2.0507813,-0.9023438 2.3320313,-2.02734376 z m 0,0"
         style="fill:#eb0a36;fill-opacity:1;fill-rule:nonzero;stroke:none" />
      <path
         id="path21"
         d="m 14.855867,-3.2567578 c 0.152344,0 0.339844,0 0.339844,-0.1992188 0,-0.1992187 -0.1875,-0.1992187 -0.328125,-0.1992187 H 8.9027422 c -0.140625,0 -0.328125,0 -0.328125,0.1992187 0,0.1992188 0.1875,0.1992188 0.3398437,0.1992188 z m 0.01172,1.9335937 c 0.140625,0 0.328125,0 0.328125,-0.1992187 0,-0.1992188 -0.1875,-0.1992188 -0.339844,-0.1992188 H 8.9144609 c -0.1523437,0 -0.3398437,0 -0.3398437,0.1992188 0,0.1992187 0.1875,0.1992187 0.328125,0.1992187 z m 0,0"
         style="fill:#eb0a36;fill-opacity:1;fill-rule:nonzero;stroke:none" />
      <path
         id="path22"
         d="m 21.849031,-3.0106641 c 0.05859,-0.2578125 0.292969,-1.171875 0.984375,-1.171875 0.04687,0 0.292969,0 0.503907,0.1289063 -0.28125,0.046875 -0.480469,0.3046875 -0.480469,0.5390625 0,0.1640625 0.105469,0.3515625 0.375,0.3515625 0.222656,0 0.539062,-0.1875 0.539062,-0.5859375 0,-0.515625 -0.585937,-0.65625 -0.925781,-0.65625 -0.574219,0 -0.925781,0.5273437 -1.042969,0.7617187 -0.257812,-0.65625 -0.785156,-0.7617187 -1.078125,-0.7617187 -1.042968,0 -1.605468,1.2890625 -1.605468,1.5351562 0,0.1054688 0.105468,0.1054688 0.117187,0.1054688 0.08203,0 0.117188,-0.023437 0.128906,-0.1171875 0.339844,-1.0546875 0.996094,-1.3007813 1.335938,-1.3007813 0.1875,0 0.539062,0.09375 0.539062,0.6679688 0,0.3046875 -0.164062,0.9726562 -0.539062,2.3671875 -0.152344,0.62109374 -0.503906,1.04296874 -0.949219,1.04296874 -0.05859,0 -0.28125,0 -0.492187,-0.12890625 0.246093,-0.0585937 0.46875,-0.26953125 0.46875,-0.5390625 0,-0.26953129 -0.222657,-0.35156249 -0.375,-0.35156249 -0.292969,0 -0.539063,0.25781249 -0.539063,0.57421874 0,0.45703125 0.492188,0.65625 0.9375,0.65625 0.65625,0 1.007813,-0.69140625 1.042969,-0.75 0.117187,0.36328125 0.480469,0.75 1.078125,0.75 1.019531,0 1.59375,-1.27734374 1.59375,-1.53515624 0,-0.09375 -0.09375,-0.09375 -0.128906,-0.09375 -0.08203,0 -0.105469,0.035156 -0.128907,0.1054687 -0.328125,1.06640629 -0.996093,1.31250004 -1.324218,1.31250004 -0.386719,0 -0.539063,-0.328125 -0.539063,-0.65625 0,-0.22265625 0.05859,-0.44531254 0.164063,-0.87890624 z m 0,0"
         style="fill:#eb0a36;fill-opacity:1;fill-rule:nonzero;stroke:none" />
    </g>
    <g
       id="g22"
       aria-label="y=x&#10;2"
       transform="matrix(1.3333333,0,0,1.3333333,160.308,241.52533)">
      <path
         id="path23"
         d="m 4.8402891,-3.7982969 c 0.046875,-0.140625 0.046875,-0.1523437 0.046875,-0.2226562 0,-0.1875 -0.140625,-0.2695313 -0.2929688,-0.2695313 -0.1054687,0 -0.2578125,0.058594 -0.3515625,0.1992188 -0.023437,0.058594 -0.09375,0.3632812 -0.140625,0.5390625 -0.070312,0.2578125 -0.140625,0.5273437 -0.1992187,0.796875 l -0.4453125,1.79296872 c -0.035156,0.15234375 -0.46875,0.85546875 -1.125,0.85546875 -0.5039063,0 -0.6210938,-0.4453125 -0.6210938,-0.80859375 0,-0.45703122 0.1757813,-1.07812502 0.515625,-1.95703122 0.1523438,-0.4101563 0.1992188,-0.515625 0.1992188,-0.7148438 0,-0.4453125 -0.328125,-0.8203125 -0.8203125,-0.8203125 -0.94921879,0 -1.31250004,1.453125 -1.31250004,1.5351563 0,0.1054687 0.09375,0.1054687 0.1171875,0.1054687 0.09375,0 0.10546875,-0.023437 0.15234375,-0.1875 0.26953125,-0.9375 0.66796879,-1.2304687 1.00781249,-1.2304687 0.082031,0 0.2578125,0 0.2578125,0.3164062 0,0.2460938 -0.1054687,0.515625 -0.1757812,0.703125 -0.3984375,1.0546875 -0.5742188,1.6171875 -0.5742188,2.0859375 0,0.89062502 0.6210938,1.18359377 1.21875,1.18359377 0.3867188,0 0.7265625,-0.1640625 0.9960938,-0.4453125 -0.1289063,0.515625 -0.2460938,1.0078125 -0.6445313,1.53515623 -0.2578125,0.3398438 -0.6328125,0.6328125 -1.0898437,0.6328125 -0.140625,0 -0.59765629,-0.035156 -0.76171879,-0.421875 0.1640625,0 0.29296879,0 0.43359379,-0.1171875 0.09375,-0.09375 0.1992187,-0.2226562 0.1992187,-0.41015623 0,-0.31640625 -0.2695312,-0.3515625 -0.375,-0.3515625 -0.22265624,0 -0.55078124,0.1640625 -0.55078124,0.64453123 0,0.5039063 0.43359375,0.8671875 1.05468754,0.8671875 1.0195312,0 2.0507812,-0.9023437 2.3320312,-2.02734373 z m 0,0"
         style="fill:#eb0a36;fill-opacity:1;fill-rule:nonzero;stroke:none" />
      <path
         id="path24"
         d="m 14.856891,-3.2592344 c 0.152343,0 0.339843,0 0.339843,-0.1992187 0,-0.1992188 -0.1875,-0.1992188 -0.328125,-0.1992188 H 8.9037656 c -0.140625,0 -0.328125,0 -0.328125,0.1992188 0,0.1992187 0.1875,0.1992187 0.3398438,0.1992187 z m 0.01172,1.9335938 c 0.140625,0 0.328125,0 0.328125,-0.1992188 0,-0.1992187 -0.1875,-0.1992187 -0.339843,-0.1992187 H 8.9154844 c -0.1523438,0 -0.3398438,0 -0.3398438,0.1992187 0,0.1992188 0.1875,0.1992188 0.328125,0.1992188 z m 0,0"
         style="fill:#eb0a36;fill-opacity:1;fill-rule:nonzero;stroke:none" />
      <path
         id="path25"
         d="m 21.850055,-3.0131406 c 0.05859,-0.2578125 0.292968,-1.171875 0.984375,-1.171875 0.04687,0 0.292968,0 0.503906,0.1289062 -0.28125,0.046875 -0.480469,0.3046875 -0.480469,0.5390625 0,0.1640625 0.105469,0.3515625 0.375,0.3515625 0.222656,0 0.539063,-0.1875 0.539063,-0.5859375 0,-0.515625 -0.585938,-0.65625 -0.925782,-0.65625 -0.574218,0 -0.925781,0.5273438 -1.042968,0.7617188 -0.257813,-0.65625 -0.785157,-0.7617188 -1.078125,-0.7617188 -1.042969,0 -1.605469,1.2890625 -1.605469,1.5351563 0,0.1054687 0.105469,0.1054687 0.117187,0.1054687 0.08203,0 0.117188,-0.023437 0.128907,-0.1171875 0.339843,-1.0546875 0.996093,-1.3007812 1.335937,-1.3007812 0.1875,0 0.539063,0.09375 0.539063,0.6679687 0,0.3046875 -0.164063,0.9726563 -0.539063,2.3671875 -0.152344,0.62109377 -0.503906,1.04296877 -0.949219,1.04296877 -0.05859,0 -0.28125,0 -0.492187,-0.12890625 0.246094,-0.0585938 0.46875,-0.26953125 0.46875,-0.5390625 0,-0.26953122 -0.222656,-0.35156252 -0.375,-0.35156252 -0.292969,0 -0.539063,0.25781252 -0.539063,0.57421877 0,0.45703125 0.492188,0.65625 0.9375,0.65625 0.65625,0 1.007813,-0.69140625 1.042969,-0.75 0.117188,0.36328125 0.480469,0.75 1.078125,0.75 1.019531,0 1.59375,-1.27734377 1.59375,-1.53515627 0,-0.09375 -0.09375,-0.09375 -0.128906,-0.09375 -0.08203,0 -0.105469,0.035156 -0.128906,0.1054688 -0.328125,1.06640622 -0.996094,1.31249997 -1.324219,1.31249997 -0.386719,0 -0.539063,-0.328125 -0.539063,-0.65625 0,-0.22265625 0.05859,-0.44531247 0.164063,-0.87890627 z m 0,0"
         style="fill:#eb0a36;fill-opacity:1;fill-rule:nonzero;stroke:none" />
      <path
         id="path26"
         d="m 27.735797,-4.8793516 h -0.234375 c -0.02344,0.1523438 -0.08203,0.5625 -0.175781,0.6328125 -0.05859,0.035156 -0.597657,0.035156 -0.691407,0.035156 h -1.289062 c 0.738281,-0.6445313 0.984375,-0.84375 1.394531,-1.171875 0.515625,-0.4101563 0.996094,-0.84375 0.996094,-1.5 0,-0.84375 -0.738281,-1.359375 -1.628906,-1.359375 -0.867188,0 -1.453125,0.609375 -1.453125,1.2421875 0,0.3632812 0.304687,0.3984375 0.375,0.3984375 0.164062,0 0.375,-0.1171875 0.375,-0.375 0,-0.1289063 -0.05859,-0.3632813 -0.421875,-0.3632813 0.222656,-0.5039062 0.691406,-0.65625 1.019531,-0.65625 0.703125,0 1.066406,0.5507813 1.066406,1.1132813 0,0.609375 -0.433594,1.0898437 -0.65625,1.3359375 l -1.6875,1.6640625 c -0.07031,0.058594 -0.07031,0.070312 -0.07031,0.2695312 h 2.882812 z m 0,0"
         style="fill:#eb0a36;fill-opacity:1;fill-rule:nonzero;stroke:none" />
    </g>
    <g
       id="g26"
       aria-label="r(y)"
       transform="matrix(1.3333333,0,0,1.3333333,85.956,201.464)">
      <path
         id="path27"
         d="m 0.87967969,-0.58530469 c -0.0351563,0.15234375 -0.09375,0.375 -0.09375,0.421875 0,0.1875 0.140625,0.26953125 0.29296871,0.26953125 0.1171875,0 0.2929688,-0.0703125 0.3632813,-0.26953125 0.023437,-0.046875 0.3632812,-1.39453121 0.3984375,-1.58203121 0.082031,-0.328125 0.2578125,-1.0195313 0.3164062,-1.2890625 0.046875,-0.1289063 0.328125,-0.5976563 0.5625,-0.8203125 0.082031,-0.070312 0.375,-0.328125 0.796875,-0.328125 0.2578125,0 0.4101563,0.1171875 0.421875,0.1171875 -0.3046875,0.046875 -0.515625,0.2929687 -0.515625,0.5507812 0,0.1640625 0.1054688,0.3515625 0.375,0.3515625 0.2695313,0 0.5507813,-0.234375 0.5507813,-0.5859375 0,-0.3515625 -0.328125,-0.65625 -0.8320313,-0.65625 -0.6445312,0 -1.0898437,0.4921875 -1.2773437,0.7734375 -0.082031,-0.4570312 -0.4335938,-0.7734375 -0.9023438,-0.7734375 -0.45703121,0 -0.64453121,0.3867188 -0.73828121,0.5742188 -0.17578125,0.3398437 -0.3046875,0.9375 -0.3046875,0.9609375 0,0.1054687 0.09375,0.1054687 0.1171875,0.1054687 0.09375,0 0.10546875,-0.011719 0.1640625,-0.234375 0.17578125,-0.703125 0.375,-1.1835937 0.72656251,-1.1835937 0.1757812,0 0.3164062,0.082031 0.3164062,0.4570312 0,0.2109375 -0.035156,0.3164063 -0.1640625,0.8320313 z m 0,0"
         style="fill:#0000ff;fill-opacity:0.5;fill-rule:nonzero;stroke:none" />
      <path
         id="path28"
         d="m 8.0662031,2.3912578 c 0,-0.035156 0,-0.046875 -0.1640625,-0.2226562 -1.2421875,-1.25390629 -1.5703125,-3.12890629 -1.5703125,-4.6640625 0,-1.7226563 0.3867188,-3.4570313 1.6054688,-4.7109375 0.1289062,-0.1171875 0.1289062,-0.1289063 0.1289062,-0.1640625 0,-0.070312 -0.035156,-0.1054688 -0.09375,-0.1054688 -0.1054687,0 -0.9960937,0.6796875 -1.5820312,1.9453125 -0.515625,1.1015625 -0.6328125,2.203125 -0.6328125,3.0351563 0,0.7851562 0.1171875,1.99218746 0.65625,3.11718746 0.5976562,1.21875004 1.453125,1.87500004 1.5585937,1.87500004 0.058594,0 0.09375,-0.035156 0.09375,-0.1054688 z m 0,0"
         style="fill:#0000ff;fill-opacity:0.5;fill-rule:nonzero;stroke:none" />
      <path
         id="path29"
         d="m 13.489055,-3.7962422 c 0.04687,-0.140625 0.04687,-0.1523437 0.04687,-0.2226562 0,-0.1875 -0.140625,-0.2695313 -0.292969,-0.2695313 -0.105469,0 -0.257813,0.058594 -0.351563,0.1992188 -0.02344,0.058594 -0.09375,0.3632812 -0.140625,0.5390625 -0.07031,0.2578125 -0.140625,0.5273437 -0.199218,0.796875 l -0.445313,1.79296871 c -0.03516,0.15234375 -0.46875,0.85546875 -1.125,0.85546875 -0.503906,0 -0.621094,-0.4453125 -0.621094,-0.80859375 0,-0.45703121 0.175782,-1.07812501 0.515625,-1.95703121 0.152344,-0.4101563 0.199219,-0.515625 0.199219,-0.7148438 0,-0.4453125 -0.328125,-0.8203125 -0.820312,-0.8203125 -0.9492191,0 -1.3125003,1.453125 -1.3125003,1.5351563 0,0.1054687 0.09375,0.1054687 0.1171875,0.1054687 0.09375,0 0.1054687,-0.023437 0.1523437,-0.1875 0.2695313,-0.9375 0.6679688,-1.2304687 1.0078121,-1.2304687 0.08203,0 0.257813,0 0.257813,0.3164062 0,0.2460938 -0.105469,0.515625 -0.175781,0.703125 -0.3984378,1.0546875 -0.5742191,1.6171875 -0.5742191,2.0859375 0,0.89062501 0.6210941,1.18359376 1.2187501,1.18359376 0.386719,0 0.726562,-0.1640625 0.996094,-0.4453125 -0.128907,0.515625 -0.246094,1.0078125 -0.644532,1.53515624 -0.257812,0.3398438 -0.632812,0.6328125 -1.089843,0.6328125 -0.140625,0 -0.5976566,-0.035156 -0.7617191,-0.421875 0.1640625,0 0.2929688,0 0.4335938,-0.1171875 0.09375,-0.09375 0.1992183,-0.2226562 0.1992183,-0.41015624 0,-0.31640625 -0.2695308,-0.3515625 -0.3749996,-0.3515625 -0.2226562,0 -0.5507812,0.1640625 -0.5507812,0.64453124 0,0.5039063 0.4335937,0.8671875 1.0546878,0.8671875 1.019531,0 2.050781,-0.9023437 2.332031,-2.02734374 z m 0,0"
         style="fill:#0000ff;fill-opacity:0.5;fill-rule:nonzero;stroke:none" />
      <path
         id="path30"
         d="m 16.773234,-2.4954609 c 0,-0.7734375 -0.117187,-1.9804688 -0.65625,-3.1054688 -0.597656,-1.21875 -1.464843,-1.875 -1.558593,-1.875 -0.05859,0 -0.105469,0.046875 -0.105469,0.1054688 0,0.035156 0,0.046875 0.199219,0.234375 0.972656,0.984375 1.535156,2.5664062 1.535156,4.640625 0,1.71093746 -0.363281,3.45703121 -1.59375,4.7226562 -0.140625,0.1171875 -0.140625,0.1289063 -0.140625,0.1640625 0,0.058594 0.04687,0.1054688 0.105469,0.1054688 0.09375,0 0.996093,-0.6796875 1.582031,-1.94531254 0.503906,-1.1015625 0.632812,-2.20312496 0.632812,-3.04687496 z m 0,0"
         style="fill:#0000ff;fill-opacity:0.5;fill-rule:nonzero;stroke:none" />
    </g>
    <g
       id="g30"
       aria-label="R(y)"
       transform="matrix(1.3333333,0,0,1.3333333,84.042667,160.94533)">
      <path
         id="path31"
         d="m 3.7385078,-6.1172031 c 0.058594,-0.234375 0.082031,-0.3398438 0.28125,-0.3632813 0.082031,-0.011719 0.3984375,-0.011719 0.5976563,-0.011719 0.7148437,0 1.8164062,0 1.8164062,0.984375 0,0.3398437 -0.1523437,1.0195312 -0.5507812,1.4179687 -0.2578125,0.2578125 -0.7851563,0.5742188 -1.6757813,0.5742188 H 3.0939766 Z m 1.4296875,2.7304687 c 1.0078125,-0.2226562 2.1914063,-0.9140625 2.1914063,-1.921875 0,-0.8554687 -0.890625,-1.5 -2.203125,-1.5 H 2.3205391 c -0.1992188,0 -0.2929688,0 -0.2929688,0.1992188 0,0.1171875 0.09375,0.1171875 0.28125,0.1171875 0.023437,0 0.2109375,0 0.3867188,0.011719 0.1757812,0.023437 0.2578125,0.035156 0.2578125,0.1640625 0,0.035156 0,0.070312 -0.035156,0.1875 l -1.3359375,5.35546878 c -0.09375,0.38671875 -0.1171875,0.46875 -0.90234374,0.46875 -0.17578125,0 -0.26953125,0 -0.26953125,0.19921875 0,0.105468745 0.1171875,0.105468745 0.140625,0.105468745 0.28125,0 0.97265629,-0.035156245 1.25390629,-0.035156245 0.28125,0 0.984375,0.035156245 1.265625,0.035156245 0.082031,0 0.1992187,0 0.1992187,-0.199218745 0,-0.10546875 -0.09375,-0.10546875 -0.28125,-0.10546875 -0.3632812,0 -0.6445312,0 -0.6445312,-0.1875 0,-0.0585938 0.011719,-0.10546875 0.023437,-0.1640625 l 0.65625,-2.63671878 h 1.1953125 c 0.9023437,0 1.078125,0.5507813 1.078125,0.9023438 0,0.1523437 -0.082031,0.4570312 -0.140625,0.6914062 -0.070312,0.2695313 -0.1523438,0.6445313 -0.1523438,0.84375003 0,1.078125 1.1953125,1.078125 1.3242188,1.078125 0.84375,0 1.1953125,-1.0078125 1.1953125,-1.1484375 0,-0.11718753 -0.1171875,-0.11718753 -0.1171875,-0.11718753 -0.09375,0 -0.1171875,0.0703125 -0.1289063,0.14062503 -0.2578125,0.73828125 -0.6796875,0.902343745 -0.9140625,0.902343745 -0.328125,0 -0.3984375,-0.222656245 -0.3984375,-0.609374995 0,-0.3046875 0.058594,-0.82031248 0.1054688,-1.13671878 0.011719,-0.140625 0.035156,-0.328125 0.035156,-0.46875 0,-0.7617187 -0.6679687,-1.078125 -0.9374996,-1.1718753 z m 0,0"
         style="fill:#0000ff;fill-opacity:0.5;fill-rule:nonzero;stroke:none" />
      <path
         id="path32"
         d="m 10.93675,2.3906094 c 0,-0.035156 0,-0.046875 -0.164062,-0.2226563 C 9.5305,0.91404688 9.202375,-0.96095312 9.202375,-2.4961094 c 0,-1.7226562 0.3867188,-3.4570312 1.605469,-4.7109375 0.128906,-0.1171875 0.128906,-0.1289062 0.128906,-0.1640625 0,-0.070312 -0.03516,-0.1054687 -0.09375,-0.1054687 -0.105469,0 -0.9960937,0.6796875 -1.5820312,1.9453125 -0.515625,1.1015625 -0.6328125,2.203125 -0.6328125,3.0351562 0,0.7851563 0.1171875,1.99218753 0.65625,3.11718753 C 9.8820625,1.8398281 10.737531,2.4960781 10.843,2.4960781 c 0.05859,0 0.09375,-0.035156 0.09375,-0.1054687 z m 0,0"
         style="fill:#0000ff;fill-opacity:0.5;fill-rule:nonzero;stroke:none" />
      <path
         id="path33"
         d="m 16.359602,-3.7968906 c 0.04687,-0.140625 0.04687,-0.1523438 0.04687,-0.2226563 0,-0.1875 -0.140625,-0.2695312 -0.292969,-0.2695312 -0.105469,0 -0.257813,0.058594 -0.351563,0.1992187 -0.02344,0.058594 -0.09375,0.3632813 -0.140625,0.5390625 -0.07031,0.2578125 -0.140625,0.5273438 -0.199218,0.796875 l -0.445313,1.79296878 c -0.03516,0.15234375 -0.46875,0.85546875 -1.125,0.85546875 -0.503906,0 -0.621094,-0.4453125 -0.621094,-0.80859375 0,-0.45703128 0.175782,-1.07812498 0.515625,-1.95703128 0.152344,-0.4101562 0.199219,-0.515625 0.199219,-0.7148437 0,-0.4453125 -0.328125,-0.8203125 -0.820312,-0.8203125 -0.949219,0 -1.3125,1.453125 -1.3125,1.5351562 0,0.1054688 0.09375,0.1054688 0.117187,0.1054688 0.09375,0 0.105469,-0.023437 0.152344,-0.1875 0.269531,-0.9375 0.667969,-1.2304688 1.007812,-1.2304688 0.08203,0 0.257813,0 0.257813,0.3164063 0,0.2460937 -0.105469,0.515625 -0.175781,0.703125 -0.398438,1.0546875 -0.574219,1.6171875 -0.574219,2.0859375 0,0.89062498 0.621094,1.18359373 1.21875,1.18359373 0.386719,0 0.726562,-0.1640625 0.996094,-0.4453125 -0.128907,0.515625 -0.246094,1.0078125 -0.644532,1.53515627 -0.257812,0.3398437 -0.632812,0.6328125 -1.089843,0.6328125 -0.140625,0 -0.597657,-0.035156 -0.761719,-0.421875 0.164062,0 0.292969,0 0.433594,-0.1171875 0.09375,-0.09375 0.199218,-0.2226563 0.199218,-0.41015627 0,-0.31640625 -0.269531,-0.3515625 -0.375,-0.3515625 -0.222656,0 -0.550781,0.1640625 -0.550781,0.64453127 0,0.5039062 0.433594,0.8671875 1.054688,0.8671875 1.019531,0 2.050781,-0.9023438 2.332031,-2.02734377 z m 0,0"
         style="fill:#0000ff;fill-opacity:0.5;fill-rule:nonzero;stroke:none" />
      <path
         id="path34"
         d="m 19.643781,-2.4961094 c 0,-0.7734375 -0.117187,-1.9804687 -0.65625,-3.1054687 -0.597656,-1.21875 -1.464843,-1.875 -1.558593,-1.875 -0.05859,0 -0.105469,0.046875 -0.105469,0.1054687 0,0.035156 0,0.046875 0.199219,0.234375 0.972656,0.984375 1.535156,2.5664063 1.535156,4.640625 0,1.71093753 -0.363281,3.45703128 -1.59375,4.7226563 -0.140625,0.1171875 -0.140625,0.1289062 -0.140625,0.1640625 0,0.058594 0.04687,0.1054687 0.105469,0.1054687 0.09375,0 0.996093,-0.6796875 1.582031,-1.94531247 0.503906,-1.1015625 0.632812,-2.20312503 0.632812,-3.04687503 z m 0,0"
         style="fill:#0000ff;fill-opacity:0.5;fill-rule:nonzero;stroke:none" />
    </g>
    <path
       id="path35"
       d="m -35.71657,127.55977 c -4.22693,2.44035 -13.58893,3.2765 -20.9102,1.86757 -7.32127,-1.40894 -9.82982,-4.52951 -5.60291,-6.96988 4.22693,-2.44036 13.58893,-3.27651 20.91021,-1.86757 2.32635,0.44765 4.25988,1.09215 4.99034,1.51389"
       style="fill:none;stroke:#008080;stroke-width:0.79701;stroke-linecap:butt;stroke-linejoin:miter;stroke-miterlimit:10;stroke-dasharray:none;stroke-opacity:1"
       transform="matrix(1.3333333,0,0,-1.3333333,131.812,254.41867)" />
    <path
       id="path36"
       d="M -1.55415,2.0722 C -1.42464,1.29512 0,0.1295 0.38852,0 0,-0.1295 -1.42464,-1.29512 -1.55415,-2.0722"
       style="fill:none;stroke:#008080;stroke-width:0.6376;stroke-linecap:round;stroke-linejoin:round;stroke-miterlimit:10;stroke-dasharray:none;stroke-opacity:1"
       transform="matrix(1.1546667,-0.66669333,-0.66669333,-1.1546667,83.373133,91.613627)" />
  </g>
</svg>
