<?xml version="1.0" encoding="UTF-8" standalone="no"?>
<!-- Created with Inkscape (http://www.inkscape.org/) -->

<svg
   version="1.1"
   id="svg1"
   width="332.74634"
   height="123.52042"
   viewBox="0 0 332.74634 123.52042"
   sodipodi:docname="6.2-cilindro-prisma.svg"
   inkscape:version="1.4.2 (f4327f4, 2025-05-13)"
   xmlns:inkscape="http://www.inkscape.org/namespaces/inkscape"
   xmlns:sodipodi="http://sodipodi.sourceforge.net/DTD/sodipodi-0.dtd"
   xmlns="http://www.w3.org/2000/svg"
   xmlns:svg="http://www.w3.org/2000/svg">
  <defs
     id="defs1" />
  <sodipodi:namedview
     id="namedview1"
     pagecolor="#ffffff"
     bordercolor="#000000"
     borderopacity="0.25"
     inkscape:showpageshadow="2"
     inkscape:pageopacity="0.0"
     inkscape:pagecheckerboard="0"
     inkscape:deskcolor="#d1d1d1"
     inkscape:zoom="2.2241536"
     inkscape:cx="151.29351"
     inkscape:cy="82.503294"
     inkscape:window-width="1920"
     inkscape:window-height="1009"
     inkscape:window-x="-8"
     inkscape:window-y="-8"
     inkscape:window-maximized="1"
     inkscape:current-layer="g1">
    <inkscape:page
       x="0"
       y="0"
       inkscape:label="10"
       id="page1"
       width="332.74634"
       height="123.52042"
       margin="0"
       bleed="0" />
  </sodipodi:namedview>
  <g
     id="g1"
     inkscape:groupmode="layer"
     inkscape:label="10"
     transform="translate(-90.635216,-98.860221)">
    <path
       id="path2"
       d="m -34.01608,-38.06877 c 0,-2.40975 15.22929,-4.36321 34.01608,-4.36321 18.78679,0 34.01608,1.95346 34.01608,4.36321 v 83.1169 C 34.01608,42.63838 18.78679,40.6849 0,40.6849 c -18.78679,0 -34.01608,1.95348 -34.01608,4.36323 z"
       style="fill:#9999ff;fill-opacity:0.4;fill-rule:nonzero;stroke:none"
       transform="matrix(1.3333333,0,0,-1.3333333,136.52133,165.27333)" />
    <path
       id="path3"
       d="m -34.01608,45.04813 c 0,2.40974 15.22929,4.3632 34.01608,4.3632 18.78679,0 34.01608,-1.95346 34.01608,-4.3632 0,-2.40975 -15.22929,-4.36323 -34.01608,-4.36323 -18.78679,0 -34.01608,1.95348 -34.01608,4.36323 z"
       style="fill:#9999ff;fill-opacity:0.4;fill-rule:nonzero;stroke:none"
       transform="matrix(1.3333333,0,0,-1.3333333,136.52133,165.27333)" />
    <path
       id="path4"
       d="m -34.01608,-38.06877 c 0,-2.40975 15.22929,-4.36321 34.01608,-4.36321 18.78679,0 34.01608,1.95346 34.01608,4.36321 v 83.1169 c 0,2.40974 -15.22929,4.3632 -34.01608,4.3632 -18.78679,0 -34.01608,-1.95346 -34.01608,-4.3632 z m 0,83.1169 c 0,-2.40975 15.22929,-4.36323 34.01608,-4.36323 18.78679,0 34.01608,1.95348 34.01608,4.36323"
       style="fill:none;stroke:#000080;stroke-width:0.79701;stroke-linecap:butt;stroke-linejoin:miter;stroke-miterlimit:10;stroke-dasharray:none;stroke-opacity:1"
       transform="matrix(1.3333333,0,0,-1.3333333,136.52133,165.27333)" />
    <path
       id="path5"
       d="m 0,0 h 90.71013 l 22.67753,22.67752 V 68.0326 H 22.67752 L 0,45.35506 Z"
       style="fill:#000080;fill-opacity:0.2;fill-rule:nonzero;stroke:#000080;stroke-width:0.79701;stroke-linecap:butt;stroke-linejoin:miter;stroke-miterlimit:10;stroke-dasharray:none;stroke-opacity:1"
       transform="matrix(1.3333333,0,0,-1.3333333,271.66667,214.50533)" />
    <path
       id="path6"
       d="M 0,45.35506 H 90.71013 V 0"
       style="fill:none;stroke:#000080;stroke-width:0.79701;stroke-linecap:butt;stroke-linejoin:miter;stroke-miterlimit:10;stroke-dasharray:none;stroke-opacity:1"
       transform="matrix(1.3333333,0,0,-1.3333333,271.66667,214.50533)" />
    <path
       id="path7"
       d="M 90.71013,45.35506 113.38766,68.0326"
       style="fill:none;stroke:#000080;stroke-width:0.79701;stroke-linecap:butt;stroke-linejoin:miter;stroke-miterlimit:10;stroke-dasharray:none;stroke-opacity:1"
       transform="matrix(1.3333333,0,0,-1.3333333,271.66667,214.50533)" />
  </g>
</svg>
