<?xml version="1.0" encoding="UTF-8" standalone="no"?>
<!-- Created with Inkscape (http://www.inkscape.org/) -->

<svg
   version="1.1"
   id="svg1"
   width="406.90796"
   height="172.1519"
   viewBox="0 0 406.90796 172.1519"
   sodipodi:docname="6.2-solidos-revolucion.svg"
   inkscape:version="1.4.2 (f4327f4, 2025-05-13)"
   xmlns:inkscape="http://www.inkscape.org/namespaces/inkscape"
   xmlns:sodipodi="http://sodipodi.sourceforge.net/DTD/sodipodi-0.dtd"
   xmlns="http://www.w3.org/2000/svg"
   xmlns:svg="http://www.w3.org/2000/svg">
  <defs
     id="defs1">
    <clipPath
       clipPathUnits="userSpaceOnUse"
       id="clipPath24">
      <path
         d="M 0,0 H 155.41794 V 129.11392 H 0 Z"
         transform="translate(2.5000001e-6)"
         id="path24" />
    </clipPath>
    <clipPath
       clipPathUnits="userSpaceOnUse"
       id="clipPath26">
      <path
         d="M 0,0 H 155.41794 V 129.11392 H 0 Z"
         transform="translate(2.5000001e-6)"
         id="path26" />
    </clipPath>
    <clipPath
       clipPathUnits="userSpaceOnUse"
       id="clipPath28">
      <path
         d="M 0,0 H 155.41794 V 129.11392 H 0 Z"
         transform="translate(2.5000001e-6)"
         id="path28" />
    </clipPath>
    <clipPath
       clipPathUnits="userSpaceOnUse"
       id="clipPath30">
      <path
         d="M 0,0 H 155.41794 V 129.11392 H 0 Z"
         transform="translate(2.5000001e-6)"
         id="path30" />
    </clipPath>
    <linearGradient
       x1="0"
       y1="0"
       x2="0"
       y2="100.00128"
       gradientUnits="userSpaceOnUse"
       id="linearGradient34">
      <stop
         style="stop-opacity:1;stop-color:#ffffff"
         offset="0"
         id="stop30" />
      <stop
         style="stop-opacity:1;stop-color:#ffffff"
         offset="0.25"
         id="stop31" />
      <stop
         style="stop-opacity:1;stop-color:#f5859a"
         offset="0.5"
         id="stop32" />
      <stop
         style="stop-opacity:1;stop-color:#eb0a36"
         offset="0.75"
         id="stop33" />
      <stop
         style="stop-opacity:1;stop-color:#eb0a36"
         offset="1"
         id="stop34" />
    </linearGradient>
    <clipPath
       clipPathUnits="userSpaceOnUse"
       id="clipPath34">
      <path
         d="m 17.18178,38.73416 c 0,17.28388 -2.53823,31.29484 -5.66936,31.29484 -3.13113,0 -5.66937,-14.01096 -5.66937,-31.29484 0,-17.28387 2.53824,-31.29483 5.66937,-31.29483 3.13113,0 5.66936,14.01096 5.66936,31.29483 z"
         transform="matrix(1.3333333,0,0,-1.3333333,248.79733,251.54267)"
         id="path34" />
    </clipPath>
    <clipPath
       clipPathUnits="userSpaceOnUse"
       id="clipPath36">
      <path
         d="m 17.18178,38.73416 c 0,17.28388 -2.53823,31.29484 -5.66936,31.29484 -3.13113,0 -5.66937,-14.01096 -5.66937,-31.29484 0,-17.28387 2.53824,-31.29483 5.66937,-31.29483 3.13113,0 5.66936,14.01096 5.66936,31.29483 z"
         transform="matrix(1.3333333,0,0,-1.3333333,248.79733,251.54267)"
         id="path36" />
    </clipPath>
    <clipPath
       clipPathUnits="userSpaceOnUse"
       id="clipPath38">
      <path
         d="M 0,0 H 155.41794 V 129.11392 H 0 Z"
         transform="translate(2.5000001e-6)"
         id="path38" />
    </clipPath>
    <linearGradient
       x1="0"
       y1="0"
       x2="0"
       y2="100.00128"
       gradientUnits="userSpaceOnUse"
       id="linearGradient42">
      <stop
         style="stop-opacity:1;stop-color:#eb0a36"
         offset="0"
         id="stop38" />
      <stop
         style="stop-opacity:1;stop-color:#eb0a36"
         offset="0.25"
         id="stop39" />
      <stop
         style="stop-opacity:1;stop-color:#f5859a"
         offset="0.5"
         id="stop40" />
      <stop
         style="stop-opacity:1;stop-color:#ffffff"
         offset="0.75"
         id="stop41" />
      <stop
         style="stop-opacity:1;stop-color:#ffffff"
         offset="1"
         id="stop42" />
    </linearGradient>
    <clipPath
       clipPathUnits="userSpaceOnUse"
       id="clipPath42">
      <path
         d="m 132.3062,38.73416 c 0,17.28388 -2.53823,31.29484 -5.66936,31.29484 -3.13115,0 -5.66937,-14.01096 -5.66937,-31.29484 0,-17.28387 2.53822,-31.29483 5.66937,-31.29483 3.13113,0 5.66936,14.01096 5.66936,31.29483 z"
         transform="matrix(1.3333333,0,0,-1.3333333,248.79733,251.54267)"
         id="path42" />
    </clipPath>
    <clipPath
       clipPathUnits="userSpaceOnUse"
       id="clipPath44">
      <path
         d="m 132.3062,38.73416 c 0,17.28388 -2.53823,31.29484 -5.66936,31.29484 -3.13115,0 -5.66937,-14.01096 -5.66937,-31.29484 0,-17.28387 2.53822,-31.29483 5.66937,-31.29483 3.13113,0 5.66936,14.01096 5.66936,31.29483 z"
         transform="matrix(1.3333333,0,0,-1.3333333,248.79733,251.54267)"
         id="path44" />
    </clipPath>
    <clipPath
       clipPathUnits="userSpaceOnUse"
       id="clipPath46">
      <path
         d="M 0,0 H 155.41794 V 129.11392 H 0 Z"
         transform="translate(2.5000001e-6)"
         id="path46" />
    </clipPath>
    <clipPath
       clipPathUnits="userSpaceOnUse"
       id="clipPath48">
      <path
         d="M 0,0 H 155.41794 V 129.11392 H 0 Z"
         transform="translate(2.5000001e-6)"
         id="path48" />
    </clipPath>
    <clipPath
       clipPathUnits="userSpaceOnUse"
       id="clipPath50">
      <path
         d="M 0,0 H 155.41794 V 129.11392 H 0 Z"
         transform="translate(2.5000001e-6)"
         id="path50" />
    </clipPath>
    <clipPath
       clipPathUnits="userSpaceOnUse"
       id="clipPath52">
      <path
         d="M 0,0 H 155.41794 V 129.11392 H 0 Z"
         transform="translate(2.5000001e-6)"
         id="path52" />
    </clipPath>
    <clipPath
       clipPathUnits="userSpaceOnUse"
       id="clipPath54">
      <path
         d="M 0,0 H 155.41794 V 129.11392 H 0 Z"
         transform="matrix(1,0,0,-1,-8.6290027,30.200998)"
         id="path54" />
    </clipPath>
    <clipPath
       clipPathUnits="userSpaceOnUse"
       id="clipPath56">
      <path
         d="M 0,0 H 155.41794 V 129.11392 H 0 Z"
         transform="matrix(1,0,0,-1,-124.29401,27.322003)"
         id="path56" />
    </clipPath>
    <clipPath
       clipPathUnits="userSpaceOnUse"
       id="clipPath61">
      <path
         d="M 0,0 H 155.41794 V 129.11392 H 0 Z"
         transform="matrix(1,0,0,-1,-81.641002,76.046002)"
         id="path61" />
    </clipPath>
  </defs>
  <sodipodi:namedview
     id="namedview1"
     pagecolor="#ffffff"
     bordercolor="#000000"
     borderopacity="0.25"
     inkscape:showpageshadow="2"
     inkscape:pageopacity="0.0"
     inkscape:pagecheckerboard="0"
     inkscape:deskcolor="#d1d1d1"
     inkscape:zoom="2.2241536"
     inkscape:cx="193.10717"
     inkscape:cy="101.83649"
     inkscape:window-width="1920"
     inkscape:window-height="1009"
     inkscape:window-x="-8"
     inkscape:window-y="-8"
     inkscape:window-maximized="1"
     inkscape:current-layer="g1">
    <inkscape:page
       x="1.3409505e-09"
       y="1.5015727e-06"
       inkscape:label="12"
       id="page1"
       width="406.90796"
       height="172.1519"
       margin="0"
       bleed="0" />
  </sodipodi:namedview>
  <g
     id="g1"
     inkscape:groupmode="layer"
     inkscape:label="12"
     transform="translate(-49.113281,-79.390777)">
    <path
       id="path2"
       d="M 0,0 H 118.59778"
       style="fill:none;stroke:#000000;stroke-width:0.3985;stroke-linecap:butt;stroke-linejoin:miter;stroke-miterlimit:10;stroke-dasharray:none;stroke-opacity:1"
       transform="matrix(1.3333333,0,0,-1.3333333,61.457333,197.41733)" />
    <path
       id="path3"
       d="M -1.19551,1.59401 C -1.09587,0.99626 0,0.09961 0.29886,0 0,-0.09961 -1.09587,-0.99626 -1.19551,-1.59401"
       style="fill:none;stroke:#000000;stroke-width:0.31879;stroke-linecap:round;stroke-linejoin:round;stroke-miterlimit:10;stroke-dasharray:none;stroke-opacity:1"
       transform="matrix(1.3333333,0,0,-1.3333333,219.58771,197.41733)" />
    <path
       id="path4"
       d="m 3.6438281,-3.2932422 c 0.070312,-0.28125 0.3164063,-1.2890625 1.078125,-1.2890625 0.058594,0 0.3164063,0 0.5507813,0.140625 -0.3046875,0.058594 -0.5273438,0.328125 -0.5273438,0.5859375 0,0.1757813 0.1171875,0.3867188 0.4101563,0.3867188 0.2460937,0 0.5976562,-0.1992188 0.5976562,-0.6328125 0,-0.5625 -0.6445312,-0.7265625 -1.0195312,-0.7265625 -0.6328125,0 -1.0195313,0.5859375 -1.1484375,0.8320312 -0.2695313,-0.7148437 -0.8554688,-0.8320312 -1.171875,-0.8320312 -1.1367188,0 -1.75781253,1.4179687 -1.75781253,1.6875 0,0.1054687 0.10546875,0.1054687 0.12890625,0.1054687 0.0820313,0 0.1171875,-0.023437 0.140625,-0.1171875 0.37499998,-1.1601562 1.08984378,-1.4296875 1.46484378,-1.4296875 0.2109375,0 0.5859375,0.09375 0.5859375,0.7265625 0,0.3398438 -0.1875,1.078125 -0.5859375,2.6015625 -0.1757813,0.67968751 -0.5625,1.13671876 -1.0429688,1.13671876 -0.058594,0 -0.3164062,0 -0.53906248,-0.140625 0.26953128,-0.0585938 0.51562498,-0.29296875 0.51562498,-0.59765625 0,-0.29296871 -0.2460937,-0.37500001 -0.41015623,-0.37500001 -0.328125,0 -0.59765625,0.28125001 -0.59765625,0.63281251 0,0.50390625 0.55078125,0.71484375 1.03124998,0.71484375 0.7148438,0 1.1015625,-0.76171875 1.1367188,-0.83203125 0.1289062,0.41015625 0.5273437,0.83203125 1.1835937,0.83203125 1.125,0 1.7460938,-1.40624996 1.7460938,-1.67578126 0,-0.1054687 -0.1054688,-0.1054687 -0.1289063,-0.1054687 -0.1054687,0 -0.1289062,0.035156 -0.140625,0.1171875 -0.3632812,1.16015621 -1.1132812,1.42968746 -1.453125,1.42968746 -0.4335937,0 -0.609375,-0.3515625 -0.609375,-0.7265625 0,-0.23437496 0.070312,-0.48046876 0.1875,-0.96093746 z m 0,0"
       style="fill:#000000;fill-opacity:1;fill-rule:nonzero;stroke:none"
       aria-label="x"
       transform="matrix(1.3333333,0,0,1.3333333,216.04,208.79333)" />
    <path
       id="path5"
       d="M 0,-29.764 V 68.99109"
       style="fill:none;stroke:#000000;stroke-width:0.3985;stroke-linecap:butt;stroke-linejoin:miter;stroke-miterlimit:10;stroke-dasharray:none;stroke-opacity:1"
       transform="matrix(1.3333333,0,0,-1.3333333,61.457333,197.41733)" />
    <path
       id="path6"
       d="M -1.19551,1.59401 C -1.09587,0.99626 0,0.09961 0.29886,0 0,-0.09961 -1.09587,-0.99626 -1.19551,-1.59401"
       style="fill:none;stroke:#000000;stroke-width:0.31879;stroke-linecap:round;stroke-linejoin:round;stroke-miterlimit:10;stroke-dasharray:none;stroke-opacity:1"
       transform="matrix(0,-1.3333333,-1.3333333,0,61.457333,105.42921)" />
    <path
       id="path7"
       d="m 5.2974297,-4.1588594 c 0.046875,-0.1523437 0.046875,-0.1757812 0.046875,-0.2460937 0,-0.1992188 -0.1523438,-0.2929688 -0.3164063,-0.2929688 -0.1054687,0 -0.28125,0.058594 -0.375,0.2226563 -0.023437,0.058594 -0.1171875,0.3984375 -0.1523437,0.5976562 -0.082031,0.28125 -0.1523438,0.5742188 -0.2226563,0.8671875 l -0.4921875,1.96875 c -0.046875,0.16406253 -0.515625,0.92578128 -1.2304687,0.92578128 -0.5625,0 -0.6796875,-0.48046875 -0.6796875,-0.89062498 0,-0.4921875 0.1875,-1.171875 0.5625,-2.1328125 0.1757812,-0.4453125 0.2109375,-0.5742188 0.2109375,-0.7851563 0,-0.4921875 -0.3515625,-0.9023437 -0.890625,-0.9023437 -1.04296876,0 -1.44140626,1.5820312 -1.44140626,1.6875 0,0.1054687 0.10546875,0.1054687 0.12890625,0.1054687 0.10546875,0 0.1171875,-0.023437 0.17578125,-0.1992187 0.29296875,-1.0195313 0.72656246,-1.3476563 1.10156246,-1.3476563 0.09375,0 0.2695313,0 0.2695313,0.3515625 0,0.2695313 -0.1054688,0.5507813 -0.1757813,0.7617188 -0.4453125,1.1601562 -0.6328125,1.78125 -0.6328125,2.2851562 0,0.97265628 0.6796875,1.30078128 1.3242188,1.30078128 0.421875,0 0.796875,-0.1875 1.1015625,-0.4921875 -0.140625,0.57421875 -0.2695313,1.1015625 -0.703125,1.68750002 -0.2929688,0.3632812 -0.703125,0.6796875 -1.2070313,0.6796875 -0.1523437,0 -0.6445312,-0.023437 -0.83203121,-0.4570313 0.17578121,0 0.31640621,0 0.48046871,-0.1289062 0.1054688,-0.09375 0.2109375,-0.234375 0.2109375,-0.44531252 0,-0.33984375 -0.2929687,-0.38671875 -0.3984375,-0.38671875 -0.25781246,0 -0.60937496,0.17578125 -0.60937496,0.71484377 0,0.5390625 0.48046876,0.9492187 1.14843746,0.9492187 1.125,0 2.25,-0.9960937 2.5546875,-2.22656247 z m 0,0"
       style="fill:#000000;fill-opacity:1;fill-rule:nonzero;stroke:none"
       aria-label="y"
       transform="matrix(1.3333333,0,0,1.3333333,48.690667,106.53733)" />
    <path
       id="path8"
       d="m 19.84267,37.69972 c 0,0 0.50663,-0.30092 0.70121,-0.41386 0.19458,-0.11298 0.50666,-0.29111 0.70124,-0.40029 0.19459,-0.10917 0.50663,-0.2812 0.70123,-0.38664 0.19458,-0.10543 0.50662,-0.27153 0.70123,-0.37332 0.19458,-0.10178 0.50662,-0.26208 0.70122,-0.36031 0.19458,-0.0982 0.50664,-0.2529 0.70122,-0.34758 0.19459,-0.09469 0.50664,-0.24368 0.70123,-0.33488 0.19458,-0.09119 0.50665,-0.23465 0.70123,-0.32245 0.19458,-0.08779 0.50664,-0.22586 0.70122,-0.31035 0.19458,-0.08445 0.50664,-0.21736 0.70123,-0.29852 0.1946,-0.08116 0.50664,-0.20856 0.70124,-0.28642 0.19458,-0.07788 0.50663,-0.2002 0.70122,-0.27494 0.19458,-0.07473 0.50665,-0.19209 0.70123,-0.26371 0.19459,-0.07161 0.50664,-0.18396 0.70122,-0.25252 0.19459,-0.06854 0.50665,-0.17604 0.70124,-0.24161 0.19458,-0.06557 0.50664,-0.16841 0.70122,-0.23102 0.19458,-0.06259 0.50664,-0.16043 0.70122,-0.2201 0.19461,-0.05968 0.50664,-0.15326 0.70122,-0.21015 0.19461,-0.05687 0.50665,-0.14572 0.70125,-0.19981 0.19458,-0.0541 0.50665,-0.13874 0.70123,-0.19016 0.19458,-0.0514 0.50664,-0.13173 0.70122,-0.18045 0.19459,-0.04872 0.50663,-0.12463 0.70123,-0.17076 0.19459,-0.04613 0.50662,-0.11804 0.70122,-0.16168 0.19459,-0.04364 0.50665,-0.11174 0.70123,-0.15289 0.19458,-0.04117 0.50664,-0.10514 0.70122,-0.14383 0.19459,-0.03867 0.50665,-0.09871 0.70124,-0.13504 0.19459,-0.03633 0.50664,-0.09284 0.70122,-0.12687 0.19458,-0.03401 0.50664,-0.08657 0.70124,-0.11839 0.19458,-0.03178 0.50663,-0.08119 0.70121,-0.11081 0.1946,-0.0296 0.50664,-0.07516 0.70124,-0.10263 0.19458,-0.02748 0.50665,-0.06996 0.70123,-0.09538 0.19458,-0.02541 0.50664,-0.06445 0.70122,-0.08782 0.19458,-0.02333 0.50665,-0.05911 0.70123,-0.08053 0.19459,-0.02142 0.50663,-0.05429 0.70123,-0.07387 0.19458,-0.01958 0.50664,-0.04954 0.70122,-0.06721 0.1946,-0.01769 0.50664,-0.04433 0.70122,-0.06025 0.19461,-0.01594 0.50665,-0.04031 0.70123,-0.0545 0.1946,-0.01421 0.50665,-0.03532 0.70125,-0.04784 0.19458,-0.01253 0.50664,-0.03148 0.70122,-0.04239 0.19458,-0.01092 0.50663,-0.027 0.70121,-0.03633 0.19461,-0.0093 0.50664,-0.02299 0.70124,-0.0309 0.19459,-0.0079 0.50663,-0.01957 0.70123,-0.02603 0.19458,-0.0065 0.50664,-0.0155 0.70122,-0.02058 0.19458,-0.0051 0.50665,-0.01227 0.70123,-0.01605 0.1946,-0.0038 0.50664,-0.0087 0.70123,-0.0112 0.19458,-0.0025 0.50663,-0.0056 0.70124,-0.007 0.19458,-0.0013 0.50663,-0.0026 0.70121,-0.0027 0.19458,-1.7e-4 0.50664,6.4e-4 0.70122,0.0015 0.1946,8.6e-4 0.50665,0.0029 0.70125,0.0048 0.19458,0.0019 0.50664,0.0059 0.70122,0.0088 0.19458,0.0029 0.50665,0.0083 0.70123,0.0121 0.19458,0.0038 0.50664,0.01054 0.70122,0.01515 0.19459,0.0046 0.50664,0.01274 0.70123,0.01815 0.19458,0.0054 0.50664,0.01471 0.70122,0.0209 0.19458,0.0062 0.50665,0.01678 0.70123,0.02361 0.19458,0.0068 0.50665,0.01836 0.70123,0.02575 0.1946,0.0074 0.50664,0.0196 0.70124,0.02754 0.19458,0.0079 0.50663,0.0212 0.70121,0.02969 0.1946,0.0085 0.50665,0.02258 0.70122,0.03148 0.19461,0.0089 0.50666,0.02342 0.70123,0.0327 0.1946,0.0093 0.50664,0.02457 0.70124,0.03421 0.19458,0.0096 0.50665,0.02553 0.70123,0.03543 0.19458,0.0099 0.50664,0.02596 0.70122,0.03603 0.19459,0.01008 0.50664,0.02638 0.70125,0.03662 0.19458,0.01025 0.50662,0.02693 0.70121,0.03724 0.19458,0.01035 0.50665,0.02694 0.70122,0.03725 0.19458,0.01035 0.50666,0.0269 0.70123,0.03725 0.1946,0.01031 0.50664,0.02698 0.70124,0.03724 0.19458,0.01024 0.50662,0.02651 0.70123,0.03664 0.19458,0.0101 0.50663,0.02642 0.70122,0.03632 0.19458,0.0099 0.50664,0.02551 0.70121,0.03512 0.1946,0.0096 0.50664,0.02489 0.70124,0.03423 0.19458,0.0093 0.50665,0.02405 0.70123,0.03299 0.19458,0.0089 0.50664,0.02296 0.70122,0.03149 0.19458,0.0085 0.50665,0.02196 0.70123,0.02997 0.1946,0.008 0.50664,0.0204 0.70124,0.02786 0.19459,0.0075 0.50664,0.0192 0.70121,0.02605 0.1946,0.0068 0.50666,0.01713 0.70123,0.02331 0.1946,0.0062 0.50664,0.01572 0.70122,0.02118 0.1946,0.0054 0.50666,0.01351 0.70125,0.01816 0.19458,0.0047 0.50664,0.0116 0.70122,0.01546 0.19458,0.0039 0.50664,0.0095 0.70123,0.0124 0.1946,0.0029 0.50663,0.0069 0.70122,0.0088 0.1946,0.0019 0.50664,0.0042 0.70123,0.0052 0.19458,9.1e-4 0.50666,0.0016 0.70123,0.0015 0.19459,-1.2e-4 0.50664,-0.0012 0.70122,-0.0024 0.1946,-0.0013 0.50664,-0.0042 0.70125,-0.0067 0.19458,-0.0024 0.50661,-0.0072 0.70122,-0.01089 0.19458,-0.0037 0.50664,-0.01072 0.70121,-0.01575 0.19459,-0.005 0.50664,-0.01421 0.70123,-0.0206 0.19459,-0.0064 0.50665,-0.01761 0.70124,-0.02543 0.19458,-0.0078 0.50663,-0.02156 0.70122,-0.03088 0.19458,-0.0093 0.50665,-0.02551 0.70123,-0.03634 0.19458,-0.01082 0.50664,-0.02935 0.70122,-0.04178 0.19461,-0.01244 0.50664,-0.03372 0.70123,-0.04784 0.1946,-0.0141 0.50666,-0.03806 0.70123,-0.05389 0.19459,-0.01583 0.50664,-0.04264 0.70122,-0.06025 0.19458,-0.0176 0.50666,-0.04716 0.70124,-0.06662 0.19459,-0.01944 0.70123,-0.07357 0.70123,-0.07357"
       style="fill:none;stroke:#eb0a36;stroke-width:0.79701;stroke-linecap:butt;stroke-linejoin:miter;stroke-miterlimit:10;stroke-dasharray:none;stroke-opacity:1"
       transform="matrix(1.3333333,0,0,-1.3333333,61.457333,197.41733)" />
    <g
       id="g8"
       aria-label="y=f(x)"
       transform="matrix(1.3333333,0,0,1.3333333,115.548,147.82533)">
      <path
         id="path9"
         d="m 4.839,-3.7977109 c 0.046875,-0.140625 0.046875,-0.1523438 0.046875,-0.2226563 0,-0.1875 -0.140625,-0.2695312 -0.2929688,-0.2695312 -0.1054687,0 -0.2578125,0.058594 -0.3515625,0.1992187 -0.023437,0.058594 -0.09375,0.3632813 -0.140625,0.5390625 -0.070312,0.2578125 -0.140625,0.5273438 -0.1992187,0.796875 l -0.4453125,1.79296876 c -0.035156,0.15234375 -0.46875,0.85546875 -1.125,0.85546875 -0.5039063,0 -0.6210938,-0.4453125 -0.6210938,-0.80859375 0,-0.45703126 0.1757813,-1.07812496 0.515625,-1.95703126 0.1523438,-0.4101562 0.1992188,-0.515625 0.1992188,-0.7148437 0,-0.4453125 -0.328125,-0.8203125 -0.8203125,-0.8203125 -0.94921875,0 -1.3125,1.453125 -1.3125,1.5351562 0,0.1054688 0.09375,0.1054688 0.1171875,0.1054688 0.09375,0 0.10546875,-0.023437 0.15234375,-0.1875 0.26953125,-0.9375 0.66796875,-1.2304688 1.00781245,-1.2304688 0.082031,0 0.2578125,0 0.2578125,0.3164063 0,0.2460937 -0.1054687,0.515625 -0.1757812,0.703125 -0.3984375,1.0546875 -0.5742188,1.6171875 -0.5742188,2.0859375 0,0.89062496 0.6210938,1.18359371 1.21875,1.18359371 0.3867188,0 0.7265625,-0.1640625 0.9960938,-0.4453125 C 3.1632187,0.17494531 3.0460312,0.66713281 2.6475937,1.1944766 2.3897812,1.5343203 2.0147812,1.8272891 1.55775,1.8272891 c -0.140625,0 -0.59765625,-0.035156 -0.76171875,-0.421875 0.1640625,0 0.29296875,0 0.43359375,-0.1171875 0.09375,-0.09375 0.1992187,-0.2226563 0.1992187,-0.41015629 0,-0.31640625 -0.2695312,-0.3515625 -0.375,-0.3515625 -0.2226562,0 -0.5507812,0.1640625 -0.5507812,0.64453129 0,0.5039062 0.43359375,0.8671875 1.0546875,0.8671875 1.0195312,0 2.0507812,-0.9023438 2.3320312,-2.02734379 z m 0,0"
         style="fill:#eb0a36;fill-opacity:1;fill-rule:nonzero;stroke:none" />
      <path
         id="path10"
         d="m 14.855602,-3.2586484 c 0.152343,0 0.339843,0 0.339843,-0.1992188 0,-0.1992187 -0.1875,-0.1992187 -0.328125,-0.1992187 H 8.9024766 c -0.140625,0 -0.328125,0 -0.328125,0.1992187 0,0.1992188 0.1875,0.1992188 0.3398437,0.1992188 z m 0.01172,1.9335937 c 0.140625,0 0.328125,0 0.328125,-0.1992187 0,-0.1992188 -0.1875,-0.1992188 -0.339843,-0.1992188 H 8.9141953 c -0.1523437,0 -0.3398437,0 -0.3398437,0.1992188 0,0.1992187 0.1875,0.1992187 0.328125,0.1992187 z m 0,0"
         style="fill:#eb0a36;fill-opacity:1;fill-rule:nonzero;stroke:none" />
      <path
         id="path11"
         d="m 22.176891,-3.9852109 h 0.855468 c 0.199219,0 0.304688,0 0.304688,-0.1992188 0,-0.1054687 -0.105469,-0.1054687 -0.269531,-0.1054687 h -0.832032 l 0.210938,-1.1367188 c 0.03516,-0.2109375 0.175781,-0.9140625 0.234375,-1.0429687 0.09375,-0.1875 0.257812,-0.3398438 0.46875,-0.3398438 0.04687,0 0.304687,0 0.492187,0.1875 -0.433593,0.035156 -0.539062,0.3867188 -0.539062,0.5390625 0,0.2226563 0.175781,0.3398438 0.363281,0.3398438 0.269531,0 0.550781,-0.2109375 0.550781,-0.5976563 0,-0.4570312 -0.457031,-0.6796875 -0.867187,-0.6796875 -0.339844,0 -0.960938,0.1757813 -1.265625,1.1601563 -0.05859,0.2109375 -0.08203,0.3164062 -0.328125,1.5703125 h -0.679688 c -0.199218,0 -0.304687,0 -0.304687,0.1875 0,0.1171875 0.09375,0.1171875 0.28125,0.1171875 h 0.65625 l -0.75,3.93749996 c -0.175781,0.9609375 -0.339844,1.87500004 -0.867188,1.87500004 -0.03516,0 -0.28125,0 -0.46875,-0.1875 0.457032,-0.023437 0.539063,-0.3867188 0.539063,-0.5390625 0,-0.22265629 -0.175781,-0.33984379 -0.363281,-0.33984379 -0.257813,0 -0.550782,0.2109375 -0.550782,0.59765629 0,0.4453125 0.433594,0.6796875 0.84375,0.6796875 0.550782,0 0.949219,-0.5859375 1.125,-0.9609375 0.328125,-0.63281254 0.550782,-1.83984379 0.5625,-1.91015629 z m 0,0"
         style="fill:#eb0a36;fill-opacity:1;fill-rule:nonzero;stroke:none" />
      <path
         id="path12"
         d="m 27.766734,2.3897891 c 0,-0.035156 0,-0.046875 -0.164062,-0.2226563 -1.242188,-1.25390624 -1.570313,-3.12890624 -1.570313,-4.6640625 0,-1.7226562 0.386719,-3.4570312 1.605469,-4.7109375 0.128906,-0.1171875 0.128906,-0.1289062 0.128906,-0.1640625 0,-0.070312 -0.03516,-0.1054687 -0.09375,-0.1054687 -0.105468,0 -0.996093,0.6796875 -1.582031,1.9453125 -0.515625,1.1015625 -0.632812,2.203125 -0.632812,3.0351562 0,0.7851563 0.117187,1.99218751 0.65625,3.11718751 0.597656,1.21874999 1.453125,1.87499999 1.558593,1.87499999 0.05859,0 0.09375,-0.035156 0.09375,-0.1054687 z m 0,0"
         style="fill:#eb0a36;fill-opacity:1;fill-rule:nonzero;stroke:none" />
      <path
         id="path13"
         d="m 31.677867,-3.0125547 c 0.05859,-0.2578125 0.292969,-1.171875 0.984375,-1.171875 0.04687,0 0.292969,0 0.503906,0.1289063 -0.28125,0.046875 -0.480468,0.3046875 -0.480468,0.5390625 0,0.1640625 0.105468,0.3515625 0.375,0.3515625 0.222656,0 0.539062,-0.1875 0.539062,-0.5859375 0,-0.515625 -0.585937,-0.65625 -0.925781,-0.65625 -0.574219,0 -0.925781,0.5273437 -1.042969,0.7617187 -0.257812,-0.65625 -0.785156,-0.7617187 -1.078125,-0.7617187 -1.042969,0 -1.605469,1.2890625 -1.605469,1.5351562 0,0.1054688 0.105469,0.1054688 0.117188,0.1054688 0.08203,0 0.117187,-0.023437 0.128906,-0.1171875 0.339844,-1.0546875 0.996094,-1.3007813 1.335938,-1.3007813 0.1875,0 0.539062,0.09375 0.539062,0.6679688 0,0.3046875 -0.164062,0.9726562 -0.539062,2.3671875 -0.152344,0.62109371 -0.503907,1.04296871 -0.949219,1.04296871 -0.05859,0 -0.28125,0 -0.492188,-0.12890625 0.246094,-0.0585937 0.46875,-0.26953125 0.46875,-0.5390625 0,-0.26953126 -0.222656,-0.35156246 -0.375,-0.35156246 -0.292968,0 -0.539062,0.25781246 -0.539062,0.57421871 0,0.45703125 0.492187,0.65625 0.9375,0.65625 0.65625,0 1.007812,-0.69140625 1.042969,-0.75 0.117187,0.36328125 0.480468,0.75 1.078125,0.75 1.019531,0 1.59375,-1.27734371 1.59375,-1.53515621 0,-0.09375 -0.09375,-0.09375 -0.128907,-0.09375 -0.08203,0 -0.105468,0.035156 -0.128906,0.1054687 -0.328125,1.06640626 -0.996094,1.31250001 -1.324219,1.31250001 -0.386718,0 -0.539062,-0.328125 -0.539062,-0.65625 0,-0.22265625 0.05859,-0.44531251 0.164062,-0.87890621 z m 0,0"
         style="fill:#eb0a36;fill-opacity:1;fill-rule:nonzero;stroke:none" />
      <path
         id="path14"
         d="m 36.924937,-2.4969297 c 0,-0.7734375 -0.117187,-1.9804687 -0.65625,-3.1054687 -0.597656,-1.21875 -1.464843,-1.875 -1.558593,-1.875 -0.05859,0 -0.105469,0.046875 -0.105469,0.1054687 0,0.035156 0,0.046875 0.199219,0.234375 0.972656,0.984375 1.535156,2.5664063 1.535156,4.640625 0,1.71093751 -0.363281,3.45703126 -1.59375,4.7226563 -0.140625,0.1171875 -0.140625,0.1289062 -0.140625,0.1640625 0,0.058594 0.04687,0.1054687 0.105469,0.1054687 0.09375,0 0.996093,-0.6796875 1.582031,-1.94531249 0.503906,-1.1015625 0.632812,-2.20312501 0.632812,-3.04687501 z m 0,0"
         style="fill:#eb0a36;fill-opacity:1;fill-rule:nonzero;stroke:none" />
    </g>
    <path
       id="path15"
       d="M 19.84267,0 V 37.70094"
       style="fill:none;stroke:#000000;stroke-width:0.3985;stroke-linecap:butt;stroke-linejoin:miter;stroke-miterlimit:10;stroke-dasharray:2.98883, 2.98883;stroke-dashoffset:0;stroke-opacity:1"
       transform="matrix(1.3333333,0,0,-1.3333333,61.457333,197.41733)" />
    <path
       id="path16"
       d="M 89.29204,0 V 30.06163"
       style="fill:none;stroke:#000000;stroke-width:0.3985;stroke-linecap:butt;stroke-linejoin:miter;stroke-miterlimit:10;stroke-dasharray:2.98883, 2.98883;stroke-dashoffset:0;stroke-opacity:1"
       transform="matrix(1.3333333,0,0,-1.3333333,61.457333,197.41733)" />
    <path
       id="path17"
       d="m 3.7146016,-3.7622187 c -0.1757813,-0.375 -0.46875,-0.6445313 -0.9140625,-0.6445313 -1.171875,0 -2.40234379,1.4648438 -2.40234379,2.9179688 0,0.93749995 0.55078125,1.59374995 1.32421879,1.59374995 0.1992187,0 0.703125,-0.03515625 1.3007812,-0.73828125 0.070312,0.41015625 0.421875,0.73828125 0.9023438,0.73828125 0.3515625,0 0.5742187,-0.22265625 0.7382812,-0.5390625 C 4.8278828,-0.797375 4.9567891,-1.40675 4.9567891,-1.4301875 c 0,-0.09375 -0.082031,-0.09375 -0.1171875,-0.09375 -0.09375,0 -0.1054688,0.035156 -0.140625,0.1757813 -0.1640625,0.6445312 -0.3515625,1.24218745 -0.75,1.24218745 -0.2695313,0 -0.3046875,-0.2578125 -0.3046875,-0.45703125 0,-0.22265625 0.023437,-0.3046875 0.1289062,-0.7382812 0.1171875,-0.421875 0.1289063,-0.5273438 0.2226563,-0.9023438 l 0.3515625,-1.3945312 c 0.070312,-0.28125 0.070312,-0.2929688 0.070312,-0.3398438 0,-0.1640625 -0.1171875,-0.2695312 -0.28125,-0.2695312 -0.2460938,0 -0.3867188,0.2226562 -0.4218745,0.4453125 z m -0.6445313,2.578125 c -0.046875,0.1757812 -0.046875,0.1992187 -0.1992187,0.3632812 -0.4453125,0.55078125 -0.84375,0.71484375 -1.125,0.71484375 -0.5039063,0 -0.6445313,-0.55078125 -0.6445313,-0.93749995 0,-0.5039063 0.328125,-1.7226563 0.5507813,-2.1796875 0.3046875,-0.5976563 0.7617187,-0.9609375 1.1601562,-0.9609375 0.6445313,0 0.7851563,0.8203125 0.7851563,0.8789062 0,0.058594 -0.023437,0.1171875 -0.035156,0.1640625 z m 0,0"
       style="fill:#000000;fill-opacity:1;fill-rule:nonzero;stroke:none"
       aria-label="a"
       transform="matrix(1.3333333,0,0,1.3333333,84.402667,208.25067)" />
    <path
       id="path18"
       d="m 2.3780234,-6.8095625 c 0,0 0,-0.1054687 -0.1289062,-0.1054687 -0.2226563,0 -0.9492188,0.082031 -1.21875,0.1054687 -0.0703125,0 -0.18750001,0.011719 -0.18750001,0.1992188 0,0.1171875 0.09375,0.1171875 0.24609371,0.1171875 0.46875,0 0.4921875,0.070312 0.4921875,0.1640625 0,0.070312 -0.082031,0.4101562 -0.140625,0.6210937 l -0.80859371,3.2460938 c -0.12890625,0.5039062 -0.1640625,0.65625 -0.1640625,1.0078125 0,0.9492187 0.52734375,1.5585937 1.26562501,1.5585937 1.171875,0 2.4023437,-1.4765625 2.4023437,-2.9179687 0,-0.9023438 -0.5273437,-1.59375 -1.3242187,-1.59375 -0.4570313,0 -0.8671875,0.2929687 -1.171875,0.5976562 z m -0.9375,3.7734375 c 0.058594,-0.2226562 0.058594,-0.2460937 0.1523438,-0.3515625 0.4921875,-0.6445312 0.9375,-0.796875 1.1953125,-0.796875 0.3632812,0 0.6328125,0.2929688 0.6328125,0.9375 0,0.5859375 -0.328125,1.734375 -0.515625,2.109375 -0.328125,0.66796875 -0.7851563,1.03125 -1.171875,1.03125 -0.3398438,0 -0.6679688,-0.26953125 -0.6679688,-1.0078125 0,-0.1875 0,-0.3867187 0.1640625,-1.0078125 z m 0,0"
       style="fill:#000000;fill-opacity:1;fill-rule:nonzero;stroke:none"
       aria-label="b"
       transform="matrix(1.3333333,0,0,1.3333333,177.66133,209.11067)" />
    <path
       id="path19"
       d="M 0,38.73416 H 153.42542"
       style="fill:none;stroke:#000000;stroke-width:0.3985;stroke-linecap:butt;stroke-linejoin:miter;stroke-miterlimit:10;stroke-dasharray:none;stroke-opacity:1"
       transform="matrix(1.3333333,0,0,-1.3333333,248.79733,251.54267)" />
    <path
       id="path20"
       d="M 1.99252,0 -1.19551,1.59401 0,0 -1.19551,-1.59401"
       style="fill:#000000;fill-opacity:1;fill-rule:nonzero;stroke:none"
       transform="matrix(1.3333333,0,0,-1.3333333,453.36456,199.89712)" />
    <path
       id="path21"
       d="M 0,0 V 127.1214"
       style="fill:none;stroke:#000000;stroke-width:0.3985;stroke-linecap:butt;stroke-linejoin:miter;stroke-miterlimit:10;stroke-dasharray:none;stroke-opacity:1"
       transform="matrix(1.3333333,0,0,-1.3333333,248.79733,251.54267)" />
    <path
       id="path22"
       d="M 1.99252,0 -1.19551,1.59401 0,0 -1.19551,-1.59401"
       style="fill:#000000;fill-opacity:1;fill-rule:nonzero;stroke:none"
       transform="matrix(0,-1.3333333,-1.3333333,0,248.79733,82.047467)" />
    <path
       id="path23"
       d="m 11.51242,69.72151 0.57849,-0.20555 0.57852,-0.20137 0.57848,-0.19729 0.57851,-0.19321 0.5785,-0.18917 0.57849,-0.18512 0.57851,-0.18116 0.57851,-0.1772 0.57849,-0.17328 0.5785,-0.16939 0.57848,-0.16554 0.57852,-0.1617 0.57849,-0.15793 0.57849,-0.15414 0.57853,-0.15041 0.57849,-0.14671 0.57849,-0.14304 0.57852,-0.13942 0.57849,-0.13578 0.57851,-0.13222 0.57849,-0.1287 0.57851,-0.12516 0.5785,-0.12168 0.57849,-0.11822 0.57851,-0.11482 0.57849,-0.11144 0.57851,-0.10808 0.5785,-0.10475 0.5785,-0.10145 0.57852,-0.09819 0.57847,-0.09499 0.57851,-0.09175 0.57851,-0.08861 0.57849,-0.08548 0.5785,-0.08235 0.57849,-0.07929 0.57851,-0.07624 0.57851,-0.07326 0.57847,-0.07027 0.57853,-0.06732 0.57849,-0.06439 0.57849,-0.06154 0.57852,-0.05866 0.57849,-0.05584 0.57849,-0.05307 0.57852,-0.0503 0.57848,-0.04757 0.57851,-0.04488 0.57852,-0.04222 0.57849,-0.0396 0.57849,-0.03698 0.57851,-0.03441 0.5785,-0.03187 0.57849,-0.02937 0.5785,-0.02691 0.57852,-0.02446 0.57847,-0.02204 0.57851,-0.01966 0.57852,-0.01731 0.57849,-0.01501 0.57849,-0.0127 0.57851,-0.01047 0.57851,-0.0082 0.57849,-0.006 0.5785,-0.0039 0.57851,-0.0018 0.57849,3.5e-4 0.57851,0.0024 0.57849,0.0044 0.57849,0.0065 0.57852,0.0084 0.57849,0.01036 0.5785,0.01225 0.5785,0.01414 0.57849,0.016 0.57851,0.01779 0.57849,0.01957 0.57851,0.02134 0.5785,0.02307 0.57849,0.02473 0.57851,0.0264 0.57851,0.02802 0.57849,0.02963 0.57851,0.03117 0.5785,0.0327 0.57849,0.03423 0.57851,0.03567 0.57849,0.03713 0.57851,0.03851 0.5785,0.0399 0.57849,0.04123 0.57851,0.04254 0.57851,0.04384 0.57849,0.04507 0.57851,0.04628 0.5785,0.04749 0.57849,0.04863 0.57849,0.04974 0.57851,0.05083 0.57851,0.0519 0.57852,0.05293 0.57844,0.05392 0.57856,0.0549 0.57844,0.05581 0.57852,0.05673 0.57856,0.0576 0.57843,0.05842 0.57853,0.05924 0.57846,0.06003 0.57854,0.06076 0.57852,0.06147 0.57846,0.06214 0.57854,0.06282 0.57843,0.06342 0.57855,0.06402 0.57854,0.06458 0.57843,0.06506 0.57855,0.06561 0.57845,0.06605 0.57853,0.06646 0.57853,0.06688 0.57844,0.06725 0.57854,0.06756 0.57844,0.06787 0.57856,0.06816 0.57853,0.06841 0.57843,0.0686 0.57856,0.06877 0.57844,0.06894 0.57854,0.06905 0.57853,0.06914 0.57845,0.06918 0.57852,0.0692 0.57846,0.06918 0.57854,0.06917 0.57852,0.06908 0.57846,0.06897 0.57854,0.06883 0.57843,0.06865 0.57855,0.06848 0.57853,0.06825 0.57845,0.06796 0.57854,0.06771 0.57843,0.06733 0.57854,0.06702 0.57854,0.06662 0.57846,0.06618 0.57854,0.06575 0.57842,0.06526 0.57856,0.06474 0.57852,0.06423 0.57846,0.06361 0.57854,0.06304 0.57843,0.06236 0.57853,0.06171 0.57855,0.06101 0.57845,0.06028 0.57852,0.05951 0.57846,0.05871 0.57854,0.05788 0.57852,0.05702 0.57846,0.05614 0.57854,0.0552 0.57843,0.05425 0.57855,0.05328 0.57852,0.05225 0.57845,0.05121 0.57854,0.05011 0.57846,0.04901 0.57852,0.04788 0.57853,0.04669 0.57847,0.04549 0.57853,0.04426 0.57843,0.04299 0.57855,0.04167 0.57854,0.04036 0.57843,0.039 0.57855,0.0376 0.57845,0.03616 0.57854,0.0347 0.57853,0.03325 0.57845,0.03168 0.57852,0.03016 0.57846,0.02858 0.57854,0.02694 0.57854,0.02531 0.57844,0.02364 0.57853,0.02192 0.57845,0.02017 0.57854,0.01842 0.57854,0.01662 0.57843,0.01475 0.57854,0.01291 0.57846,0.01102 0.57853,0.0091 0.57852,0.0071 0.57845,0.0051 0.57854,0.0031 0.57846,0.0011 0.003,-30.98735 H 11.51254 v 30.98735 z"
       style="fill:#f9b6c3;fill-opacity:0.3;fill-rule:nonzero;stroke:none"
       transform="matrix(1.3333333,0,0,-1.3333333,248.79733,251.54267)"
       clip-path="url(#clipPath24)" />
    <path
       id="path25"
       d="m 11.51242,38.73416 h 115.12442 l -0.003,-30.98735 -0.57846,0.00105 -0.57854,0.0031 -0.57845,0.00513 -0.57852,0.00712 -0.57853,0.00909 -0.57846,0.011 -0.57854,0.0129 -0.57843,0.01476 -0.57854,0.01662 -0.57854,0.01842 -0.57845,0.02018 -0.57853,0.02192 -0.57844,0.02363 -0.57854,0.02531 -0.57854,0.02695 -0.57846,0.02856 -0.57852,0.03017 -0.57845,0.03169 -0.57853,0.03325 -0.57854,0.0347 -0.57845,0.03616 -0.57855,0.0376 -0.57843,0.039 -0.57854,0.04036 -0.57855,0.04167 -0.57843,0.04299 -0.57853,0.04426 -0.57847,0.04549 -0.57853,0.04671 -0.57852,0.04785 -0.57846,0.04901 -0.57854,0.05014 -0.57845,0.0512 -0.57852,0.05224 -0.57855,0.05328 -0.57843,0.05425 -0.57854,0.0552 -0.57846,0.05614 -0.57852,0.05702 -0.57854,0.05788 -0.57846,0.05872 -0.57852,0.05952 -0.57845,0.06026 -0.57855,0.061 -0.57853,0.06172 L 100.023,9.4444 99.44446,9.50742 98.866,9.57103 98.28748,9.63525 97.70892,9.70001 97.1305,9.76526 96.55196,9.83101 95.9735,9.89722 l -0.57854,0.0666 -0.57854,0.067 -0.57843,0.06736 -0.57854,0.06768 -0.57845,0.06798 -0.57853,0.06824 -0.57855,0.06848 -0.57843,0.06866 -0.57854,0.06884 -0.57846,0.06897 -0.57852,0.06907 -0.57854,0.06917 -0.57846,0.06918 -0.57852,0.0692 -0.57845,0.06919 -0.57853,0.06912 -0.57854,0.06908 -0.57844,0.0689 -0.57856,0.06879 -0.57843,0.0686 -0.57853,0.06839 -0.57856,0.06818 -0.57844,0.06786 -0.57854,0.06758 -0.57844,0.06724 -0.57853,0.06688 -0.57853,0.06647 -0.57845,0.06604 -0.57855,0.0656 -0.57843,0.06508 -0.57854,0.06457 -0.57855,0.06403 -0.57843,0.06341 -0.57854,0.06282 -0.57846,0.06214 -0.57852,0.06148 -0.57854,0.06075 -0.57846,0.06002 -0.57853,0.05923 -0.57843,0.05843 -0.57856,0.0576 -0.57852,0.05673 -0.57844,0.0558 -0.57856,0.05492 -0.57844,0.05392 -0.57852,0.05294 -0.57851,0.05188 -0.57851,0.05084 -0.57849,0.04974 -0.57849,0.04862 -0.5785,0.0475 -0.57851,0.04626 -0.57849,0.04509 -0.57851,0.04383 -0.57851,0.04255 -0.57849,0.04123 -0.5785,0.03989 -0.57851,0.03853 -0.57849,0.03712 -0.57851,0.03568 -0.57849,0.0342 -0.5785,0.03272 -0.57851,0.03118 -0.57849,0.02963 -0.57851,0.02801 -0.57851,0.02642 -0.57849,0.02471 -0.5785,0.02308 -0.57851,0.02133 -0.57849,0.01957 -0.57851,0.0178 -0.57849,0.01599 -0.5785,0.01414 -0.5785,0.01226 -0.57849,0.01037 -0.57852,0.0084 -0.57849,0.0065 -0.57849,0.0044 -0.57851,0.0024 -0.57849,3.5e-4 -0.57851,-0.0018 -0.5785,-0.0039 -0.57849,-0.0061 -0.57851,-0.0082 -0.57851,-0.01045 -0.57849,-0.01271 -0.57849,-0.015 -0.57852,-0.0173 -0.57851,-0.01969 -0.57847,-0.02202 -0.57852,-0.02446 -0.5785,-0.02691 -0.57849,-0.02936 -0.5785,-0.03189 -0.57851,-0.03441 -0.57849,-0.03697 -0.57849,-0.0396 -0.57852,-0.04222 -0.57851,-0.04487 -0.57848,-0.04758 -0.57852,-0.05031 -0.57849,-0.05305 -0.57849,-0.05585 -0.57852,-0.05867 -0.57849,-0.06153 -0.57849,-0.06438 -0.57853,-0.06734 -0.57847,-0.07026 -0.57851,-0.07325 -0.57851,-0.07625 -0.57849,-0.07929 -0.5785,-0.08236 -0.57849,-0.08547 -0.57851,-0.08861 -0.57851,-0.09176 -0.57847,-0.09497 -0.57852,-0.09819 -0.5785,-0.10147 -0.5785,-0.10474 -0.57851,-0.10809 -0.57849,-0.11142 -0.57851,-0.11483 -0.57849,-0.11824 -0.5785,-0.12167 -0.57851,-0.12515 -0.57849,-0.12869 -0.57851,-0.13222 -0.57849,-0.13581 -0.57852,-0.1394 L 20.76842,10.5559 20.18993,10.4092 19.6114,10.25885 19.03291,10.1047 18.45442,9.9468 17.8759,9.78508 17.29742,9.61957 16.71892,9.45016 16.14043,9.27689 15.56192,9.09969 14.98341,8.91852 14.40492,8.73338 13.82642,8.54422 13.24791,8.35101 12.66943,8.15375 12.09091,7.95235 11.51242,7.74681 Z"
       style="fill:#f9b6c3;fill-opacity:0.3;fill-rule:nonzero;stroke:none"
       transform="matrix(1.3333333,0,0,-1.3333333,248.79733,251.54267)"
       clip-path="url(#clipPath26)" />
    <path
       id="path27"
       d="m 11.51242,69.72151 0.57849,-0.20555 0.57852,-0.20137 0.57848,-0.19729 0.57851,-0.19321 0.5785,-0.18917 0.57849,-0.18512 0.57851,-0.18116 0.57851,-0.1772 0.57849,-0.17328 0.5785,-0.16939 0.57848,-0.16554 0.57852,-0.1617 0.57849,-0.15793 0.57849,-0.15414 0.57853,-0.15041 0.57849,-0.14671 0.57849,-0.14304 0.57852,-0.13942 0.57849,-0.13578 0.57851,-0.13222 0.57849,-0.1287 0.57851,-0.12516 0.5785,-0.12168 0.57849,-0.11822 0.57851,-0.11482 0.57849,-0.11144 0.57851,-0.10808 0.5785,-0.10475 0.5785,-0.10145 0.57852,-0.09819 0.57847,-0.09499 0.57851,-0.09175 0.57851,-0.08861 0.57849,-0.08548 0.5785,-0.08235 0.57849,-0.07929 0.57851,-0.07624 0.57851,-0.07326 0.57847,-0.07027 0.57853,-0.06732 0.57849,-0.06439 0.57849,-0.06154 0.57852,-0.05866 0.57849,-0.05584 0.57849,-0.05307 0.57852,-0.0503 0.57848,-0.04757 0.57851,-0.04488 0.57852,-0.04222 0.57849,-0.0396 0.57849,-0.03698 0.57851,-0.03441 0.5785,-0.03187 0.57849,-0.02937 0.5785,-0.02691 0.57852,-0.02446 0.57847,-0.02204 0.57851,-0.01966 0.57852,-0.01731 0.57849,-0.01501 0.57849,-0.0127 0.57851,-0.01047 0.57851,-0.0082 0.57849,-0.006 0.5785,-0.0039 0.57851,-0.0018 0.57849,3.5e-4 0.57851,0.0024 0.57849,0.0044 0.57849,0.0065 0.57852,0.0084 0.57849,0.01036 0.5785,0.01225 0.5785,0.01414 0.57849,0.016 0.57851,0.01779 0.57849,0.01957 0.57851,0.02134 0.5785,0.02307 0.57849,0.02473 0.57851,0.0264 0.57851,0.02802 0.57849,0.02963 0.57851,0.03117 0.5785,0.0327 0.57849,0.03423 0.57851,0.03567 0.57849,0.03713 0.57851,0.03851 0.5785,0.0399 0.57849,0.04123 0.57851,0.04254 0.57851,0.04384 0.57849,0.04507 0.57851,0.04628 0.5785,0.04749 0.57849,0.04863 0.57849,0.04974 0.57851,0.05083 0.57851,0.0519 0.57852,0.05293 0.57844,0.05392 0.57856,0.0549 0.57844,0.05581 0.57852,0.05673 0.57856,0.0576 0.57843,0.05842 0.57853,0.05924 0.57846,0.06003 0.57854,0.06076 0.57852,0.06147 0.57846,0.06214 0.57854,0.06282 0.57843,0.06342 0.57855,0.06402 0.57854,0.06458 0.57843,0.06506 0.57855,0.06561 0.57845,0.06605 0.57853,0.06646 0.57853,0.06688 0.57844,0.06725 0.57854,0.06756 0.57844,0.06787 0.57856,0.06816 0.57853,0.06841 0.57843,0.0686 0.57856,0.06877 0.57844,0.06894 0.57854,0.06905 0.57853,0.06914 0.57845,0.06918 0.57852,0.0692 0.57846,0.06918 0.57854,0.06917 0.57852,0.06908 0.57846,0.06897 0.57854,0.06883 0.57843,0.06865 0.57855,0.06848 0.57853,0.06825 0.57845,0.06796 0.57854,0.06771 0.57843,0.06733 0.57854,0.06702 0.57854,0.06662 0.57846,0.06618 0.57854,0.06575 0.57842,0.06526 0.57856,0.06474 0.57852,0.06423 0.57846,0.06361 0.57854,0.06304 0.57843,0.06236 0.57853,0.06171 0.57855,0.06101 0.57845,0.06028 0.57852,0.05951 0.57846,0.05871 0.57854,0.05788 0.57852,0.05702 0.57846,0.05614 0.57854,0.0552 0.57843,0.05425 0.57855,0.05328 0.57852,0.05225 0.57845,0.05121 0.57854,0.05011 0.57846,0.04901 0.57852,0.04788 0.57853,0.04669 0.57847,0.04549 0.57853,0.04426 0.57843,0.04299 0.57855,0.04167 0.57854,0.04036 0.57843,0.039 0.57855,0.0376 0.57845,0.03616 0.57854,0.0347 0.57853,0.03325 0.57845,0.03168 0.57852,0.03016 0.57846,0.02858 0.57854,0.02694 0.57854,0.02531 0.57844,0.02364 0.57853,0.02192 0.57845,0.02017 0.57854,0.01842 0.57854,0.01662 0.57843,0.01475 0.57854,0.01291 0.57846,0.01102 0.57853,0.0091 0.57852,0.0071 0.57845,0.0051 0.57854,0.0031 0.57846,0.0011"
       style="fill:none;stroke:#eb0a36;stroke-width:0.79701;stroke-linecap:butt;stroke-linejoin:miter;stroke-miterlimit:10;stroke-dasharray:none;stroke-opacity:1"
       transform="matrix(1.3333333,0,0,-1.3333333,248.79733,251.54267)"
       clip-path="url(#clipPath28)" />
    <path
       id="path29"
       d="m 11.51242,7.74681 0.57849,0.20554 0.57852,0.2014 0.57848,0.19726 0.57851,0.19321 0.5785,0.18916 0.57849,0.18514 0.57851,0.18117 0.57851,0.1772 0.57849,0.17327 0.5785,0.16941 0.57848,0.16551 0.57852,0.16172 0.57849,0.1579 0.57849,0.15415 0.57853,0.15042 0.57849,0.1467 0.57849,0.14305 0.57852,0.1394 0.57849,0.13581 0.57851,0.13222 0.57849,0.12869 0.57851,0.12515 0.5785,0.12167 0.57849,0.11824 0.57851,0.11483 0.57849,0.11142 0.57851,0.10809 0.5785,0.10474 0.5785,0.10147 0.57852,0.09819 0.57847,0.09497 0.57851,0.09176 0.57851,0.08861 0.57849,0.08547 0.5785,0.08236 0.57849,0.07929 0.57851,0.07625 0.57851,0.07325 0.57847,0.07026 0.57853,0.06734 0.57849,0.06438 0.57849,0.06153 0.57852,0.05867 0.57849,0.05585 0.57849,0.05305 0.57852,0.05031 0.57848,0.04758 0.57851,0.04487 0.57852,0.04222 0.57849,0.0396 0.57849,0.03697 0.57851,0.03441 0.5785,0.03189 0.57849,0.02936 0.5785,0.02691 0.57852,0.02446 0.57847,0.02202 0.57851,0.01969 0.57852,0.0173 0.57849,0.015 0.57849,0.01271 0.57851,0.01045 0.57851,0.0082 0.57849,0.0061 0.5785,0.0039 0.57851,0.0018 0.57849,-3.5e-4 0.57851,-0.0024 0.57849,-0.0044 0.57849,-0.0065 0.57852,-0.0084 0.57849,-0.01037 0.5785,-0.01226 0.5785,-0.01414 0.57849,-0.01599 0.57851,-0.0178 0.57849,-0.01957 0.57851,-0.02133 0.5785,-0.02308 0.57849,-0.02471 0.57851,-0.02642 0.57851,-0.02801 0.57849,-0.02963 0.57851,-0.03118 0.5785,-0.03272 0.57849,-0.0342 0.57851,-0.03568 0.57849,-0.03712 0.57851,-0.03853 0.5785,-0.03989 0.57849,-0.04123 0.57851,-0.04255 0.57851,-0.04383 0.57849,-0.04509 0.57851,-0.04626 0.5785,-0.0475 0.57849,-0.04862 0.57849,-0.04974 0.57851,-0.05084 0.57851,-0.05188 0.57852,-0.05294 0.57844,-0.05392 0.57856,-0.05492 0.57844,-0.0558 0.57852,-0.05673 0.57856,-0.0576 0.57843,-0.05843 0.57853,-0.05923 0.57846,-0.06002 0.57854,-0.06075 0.57852,-0.06148 0.57846,-0.06214 0.57854,-0.06282 0.57843,-0.06341 0.57855,-0.06403 0.57854,-0.06457 0.57843,-0.06508 0.57855,-0.0656 0.57845,-0.06604 0.57853,-0.06647 0.57853,-0.06688 0.57844,-0.06724 0.57854,-0.06758 0.57844,-0.06786 0.57856,-0.06818 0.57853,-0.06839 0.57843,-0.0686 0.57856,-0.06879 0.57844,-0.0689 0.57854,-0.06908 0.57853,-0.06912 0.57845,-0.06919 0.57852,-0.0692 0.57846,-0.06918 0.57854,-0.06917 0.57852,-0.06907 0.57846,-0.06897 0.57854,-0.06884 0.57843,-0.06866 0.57855,-0.06848 0.57853,-0.06824 0.57845,-0.06798 0.57854,-0.06768 0.57843,-0.06736 0.57854,-0.067 L 95.9735,9.89722 96.55196,9.83101 97.1305,9.76526 97.70892,9.70001 98.28748,9.63525 98.866,9.57103 99.44446,9.50742 100.023,9.4444 l 0.57843,-0.06237 0.57853,-0.06172 0.57855,-0.061 0.57845,-0.06026 0.57852,-0.05952 0.57846,-0.05872 0.57854,-0.05788 0.57852,-0.05702 0.57846,-0.05614 0.57854,-0.0552 0.57843,-0.05425 0.57855,-0.05328 0.57852,-0.05224 0.57845,-0.0512 0.57854,-0.05014 0.57846,-0.04901 0.57852,-0.04785 0.57853,-0.04671 0.57847,-0.04549 0.57853,-0.04426 0.57843,-0.04299 0.57855,-0.04167 0.57854,-0.04036 0.57843,-0.039 0.57855,-0.0376 0.57845,-0.03616 0.57854,-0.0347 0.57853,-0.03325 0.57845,-0.03169 0.57852,-0.03017 0.57846,-0.02856 0.57854,-0.02695 0.57854,-0.02531 0.57844,-0.02363 0.57853,-0.02192 0.57845,-0.02018 0.57854,-0.01842 0.57854,-0.01662 0.57843,-0.01476 0.57854,-0.0129 0.57846,-0.011 0.57853,-0.00909 0.57852,-0.00712 0.57845,-0.00513 0.57854,-0.0031 0.57846,-0.00105"
       style="fill:none;stroke:#eb0a36;stroke-width:0.79701;stroke-linecap:butt;stroke-linejoin:miter;stroke-miterlimit:10;stroke-dasharray:none;stroke-opacity:1"
       transform="matrix(1.3333333,0,0,-1.3333333,248.79733,251.54267)"
       clip-path="url(#clipPath30)" />
    <g
       id="g36"
       clip-path="url(#clipPath36)">
      <g
         clip-path="url(#clipPath34)"
         id="g35">
        <path
           d="M 0,0 H 100 V 100 H 0 Z"
           transform="matrix(0,-1.6692533,-0.30238667,0,279.26656,283.35979)"
           style="fill:url(#linearGradient34);stroke:none"
           id="path35" />
      </g>
    </g>
    <path
       id="path37"
       d="m 17.18178,38.73416 c 0,17.28388 -2.53823,31.29484 -5.66936,31.29484 -3.13113,0 -5.66937,-14.01096 -5.66937,-31.29484 0,-17.28387 2.53824,-31.29483 5.66937,-31.29483 3.13113,0 5.66936,14.01096 5.66936,31.29483 z"
       style="fill:none;stroke:#eb0a36;stroke-width:0.79701;stroke-linecap:butt;stroke-linejoin:miter;stroke-miterlimit:10;stroke-dasharray:none;stroke-opacity:1"
       transform="matrix(1.3333333,0,0,-1.3333333,248.79733,251.54267)"
       clip-path="url(#clipPath38)" />
    <g
       id="g44"
       clip-path="url(#clipPath44)">
      <g
         clip-path="url(#clipPath42)"
         id="g43">
        <path
           d="M 0,0 H 100 V 100 H 0 Z"
           transform="matrix(0,-1.6692533,-0.30238667,0,432.76577,283.35979)"
           style="fill:url(#linearGradient42);stroke:none"
           id="path43" />
      </g>
    </g>
    <path
       id="path45"
       d="m 132.3062,38.73416 c 0,17.28388 -2.53823,31.29484 -5.66936,31.29484 -3.13115,0 -5.66937,-14.01096 -5.66937,-31.29484 0,-17.28387 2.53822,-31.29483 5.66937,-31.29483 3.13113,0 5.66936,14.01096 5.66936,31.29483 z"
       style="fill:none;stroke:#eb0a36;stroke-width:0.79701;stroke-linecap:butt;stroke-linejoin:miter;stroke-miterlimit:10;stroke-dasharray:none;stroke-opacity:1"
       transform="matrix(1.3333333,0,0,-1.3333333,248.79733,251.54267)"
       clip-path="url(#clipPath46)" />
    <path
       id="path47"
       d="m 112.76965,38.73416 c 0,16.84299 -1.52287,30.49654 -3.40147,30.49654 -1.8786,0 -3.40148,-13.65355 -3.40148,-30.49654 0,-16.84299 1.52288,-30.49653 3.40148,-30.49653 1.8786,0 3.40147,13.65354 3.40147,30.49653 z"
       style="fill:none;stroke:#eb0a36;stroke-width:0.3985;stroke-linecap:butt;stroke-linejoin:miter;stroke-miterlimit:10;stroke-dasharray:0.3985, 1.99255;stroke-dashoffset:0;stroke-opacity:1"
       transform="matrix(1.3333333,0,0,-1.3333333,248.79733,251.54267)"
       clip-path="url(#clipPath48)" />
    <path
       id="path49"
       d="m 89.74477,38.73416 c 0,15.44876 -1.52287,27.97211 -3.40148,27.97211 -1.8786,0 -3.40147,-12.52335 -3.40147,-27.97211 0,-15.44876 1.52287,-27.97211 3.40147,-27.97211 1.87861,0 3.40148,12.52335 3.40148,27.97211 z"
       style="fill:#8000ff;fill-opacity:0.5;fill-rule:nonzero;stroke:#eb0a36;stroke-width:0.3985;stroke-linecap:butt;stroke-linejoin:miter;stroke-miterlimit:10;stroke-dasharray:0.3985, 1.99255;stroke-dashoffset:0;stroke-opacity:1"
       transform="matrix(1.3333333,0,0,-1.3333333,248.79733,251.54267)"
       clip-path="url(#clipPath50)" />
    <path
       id="path51"
       d="m 49.45122,38.73416 c 0,13.89624 -1.52288,25.16104 -3.40148,25.16104 -1.8786,0 -3.40147,-11.2648 -3.40147,-25.16104 0,-13.89624 1.52287,-25.16104 3.40147,-25.16104 1.8786,0 3.40148,11.2648 3.40148,25.16104 z"
       style="fill:none;stroke:#eb0a36;stroke-width:0.3985;stroke-linecap:butt;stroke-linejoin:miter;stroke-miterlimit:10;stroke-dasharray:0.3985, 1.99255;stroke-dashoffset:0;stroke-opacity:1"
       transform="matrix(1.3333333,0,0,-1.3333333,248.79733,251.54267)"
       clip-path="url(#clipPath52)" />
    <path
       id="path53"
       d="m 4.0649922,-4.1259219 c -0.1875,-0.3984375 -0.5039063,-0.703125 -0.9960938,-0.703125 -1.2773437,0 -2.63671871,1.6054688 -2.63671871,3.1992188 0,1.03124998 0.59765621,1.74609373 1.45312501,1.74609373 0.2226562,0 0.7617187,-0.03515625 1.4179687,-0.8203125 0.09375,0.46875 0.46875,0.8203125 0.9960938,0.8203125 0.375,0 0.6328125,-0.24609375 0.8085937,-0.59765625 0.1875,-0.38671875 0.328125,-1.05468748 0.328125,-1.07812498 0,-0.1054688 -0.1054687,-0.1054688 -0.140625,-0.1054688 -0.1054687,0 -0.1171875,0.035156 -0.1523437,0.1875 -0.1757813,0.71484378 -0.375,1.35937503 -0.8203125,1.35937503 -0.2929688,0 -0.328125,-0.28125 -0.328125,-0.50390625 0,-0.24609375 0.023437,-0.328125 0.140625,-0.80859378 0.1171875,-0.4570312 0.140625,-0.5625 0.234375,-0.984375 l 0.3984375,-1.5234375 c 0.070312,-0.3046875 0.070312,-0.328125 0.070312,-0.375 0,-0.1875 -0.1289063,-0.2929687 -0.3164063,-0.2929687 -0.2578125,0 -0.421875,0.2460937 -0.4570307,0.4804687 z m -0.703125,2.8242188 c -0.058594,0.1992187 -0.058594,0.2226562 -0.2226563,0.41015623 -0.4804687,0.59765625 -0.9257812,0.7734375 -1.2304687,0.7734375 -0.5507813,0 -0.703125,-0.59765625 -0.703125,-1.03125003 0,-0.5390625 0.3515625,-1.8867187 0.609375,-2.390625 0.328125,-0.6445312 0.8203125,-1.0429687 1.265625,-1.0429687 0.703125,0 0.8554687,0.890625 0.8554687,0.9609375 0,0.058594 -0.023437,0.1289062 -0.035156,0.1875 z m 0,0"
       style="fill:#000000;fill-opacity:1;fill-rule:nonzero;stroke:none"
       aria-label="a"
       transform="matrix(1.3333333,0,0,1.3333333,260.30267,211.27467)"
       clip-path="url(#clipPath54)" />
    <path
       id="path55"
       d="m 2.6138594,-7.4531641 c 0,-0.011719 0,-0.1171875 -0.1523438,-0.1171875 -0.2460937,0 -1.0429687,0.082031 -1.3242187,0.1054688 -0.09375,0.011719 -0.21093752,0.023437 -0.21093752,0.2226562 0,0.1289063 0.10546872,0.1289063 0.25781252,0.1289063 0.5273437,0 0.5507812,0.082031 0.5507812,0.1875 0,0.070312 -0.09375,0.4453125 -0.1523437,0.6796875 l -0.89062502,3.5507812 c -0.140625,0.5507813 -0.17578125,0.7148438 -0.17578125,1.1015625 0,1.04296879 0.57421877,1.71093754 1.38281247,1.71093754 1.2890625,0 2.625,-1.61718754 2.625,-3.19921874 0,-0.984375 -0.5742187,-1.7460938 -1.4414062,-1.7460938 -0.5039063,0 -0.9492188,0.3164063 -1.2773438,0.65625 z m -1.03125,4.125 c 0.070312,-0.234375 0.070312,-0.2578125 0.1640625,-0.3867187 0.5390625,-0.703125 1.0195312,-0.8671875 1.3125,-0.8671875 0.3867187,0 0.6796875,0.328125 0.6796875,1.0195312 0,0.6445313 -0.3515625,1.8984375 -0.5507813,2.3203125 -0.3632812,0.72656254 -0.8671875,1.12500004 -1.2890625,1.12500004 -0.375,0 -0.7265625,-0.29296875 -0.7265625,-1.10156254 0,-0.2109375 0,-0.421875 0.1757813,-1.1015625 z m 0,0"
       style="fill:#000000;fill-opacity:1;fill-rule:nonzero;stroke:none"
       aria-label="b"
       transform="matrix(1.3333333,0,0,1.3333333,414.52267,215.11333)"
       clip-path="url(#clipPath56)" />
    <g
       id="g56"
       aria-label="A(x)"
       transform="matrix(1.3333333,0,0,1.3333333,357.652,150.148)"
       clip-path="url(#clipPath61)">
      <path
         id="path57"
         d="m 1.7815078,-1.1481094 c -0.3984375,0.66796878 -0.78515624,0.80859378 -1.21874999,0.84375003 -0.12890625,0 -0.2109375,0 -0.2109375,0.19921875 0,0.05859375 0.046875,0.105468745 0.12890625,0.105468745 0.26953125,0 0.57421874,-0.035156245 0.85546874,-0.035156245 0.328125,0 0.6796875,0.035156245 0.9960938,0.035156245 0.058594,0 0.1875,0 0.1875,-0.187499995 0,-0.1171875 -0.09375,-0.1171875 -0.1640625,-0.1171875 -0.2226563,-0.0234375 -0.4570313,-0.10546875 -0.4570313,-0.3515625 0,-0.1171875 0.058594,-0.234375 0.1289063,-0.37500003 l 0.7617187,-1.265625 h 2.4960938 c 0.023437,0.1992188 0.1640625,1.55859378 0.1640625,1.66406253 0,0.29296875 -0.515625,0.328125 -0.7148438,0.328125 -0.140625,0 -0.2460937,0 -0.2460937,0.19921875 0,0.105468745 0.1289062,0.105468745 0.140625,0.105468745 0.4101562,0 0.84375,-0.035156245 1.2539062,-0.035156245 0.2460938,0 0.8671875,0.035156245 1.125,0.035156245 0.058594,0 0.1757813,0 0.1757813,-0.199218745 0,-0.10546875 -0.1054688,-0.10546875 -0.234375,-0.10546875 -0.609375,0 -0.609375,-0.0703125 -0.6445313,-0.36328125 L 5.6955703,-6.8902969 c -0.011719,-0.1992187 -0.011719,-0.2460937 -0.1875,-0.2460937 -0.1640625,0 -0.1992187,0.070312 -0.2578125,0.1757812 z m 1.1953125,-1.4648437 1.96875,-3.28125 0.3164063,3.28125 z m 0,0"
         style="fill:#8000ff;fill-opacity:1;fill-rule:nonzero;stroke:none" />
      <path
         id="path58"
         d="m 10.76393,2.3909531 c 0,-0.035156 0,-0.046875 -0.164063,-0.2226562 -1.2421873,-1.25390627 -1.5703123,-3.12890627 -1.5703123,-4.6640625 0,-1.7226563 0.3867187,-3.4570313 1.6054683,-4.7109375 0.128907,-0.1171875 0.128907,-0.1289063 0.128907,-0.1640625 0,-0.070312 -0.03516,-0.1054688 -0.09375,-0.1054688 -0.105469,0 -0.9960941,0.6796875 -1.5820316,1.9453125 -0.515625,1.1015625 -0.6328125,2.203125 -0.6328125,3.0351563 0,0.7851562 0.1171875,1.99218748 0.65625,3.11718748 0.5976563,1.21875002 1.4531251,1.87500002 1.5585941,1.87500002 0.05859,0 0.09375,-0.035156 0.09375,-0.1054688 z m 0,0"
         style="fill:#8000ff;fill-opacity:1;fill-rule:nonzero;stroke:none" />
      <path
         id="path59"
         d="m 14.675063,-3.0113906 c 0.05859,-0.2578125 0.292968,-1.171875 0.984375,-1.171875 0.04687,0 0.292968,0 0.503906,0.1289062 -0.28125,0.046875 -0.480469,0.3046875 -0.480469,0.5390625 0,0.1640625 0.105469,0.3515625 0.375,0.3515625 0.222656,0 0.539063,-0.1875 0.539063,-0.5859375 0,-0.515625 -0.585938,-0.65625 -0.925782,-0.65625 -0.574218,0 -0.925781,0.5273438 -1.042968,0.7617188 -0.257813,-0.65625 -0.785157,-0.7617188 -1.078125,-0.7617188 -1.042969,0 -1.605469,1.2890625 -1.605469,1.5351563 0,0.1054687 0.105469,0.1054687 0.117187,0.1054687 0.08203,0 0.117188,-0.023437 0.128907,-0.1171875 0.339843,-1.0546875 0.996093,-1.3007812 1.335937,-1.3007812 0.1875,0 0.539063,0.09375 0.539063,0.6679687 0,0.3046875 -0.164063,0.9726563 -0.539063,2.3671875 -0.152344,0.62109378 -0.503906,1.04296878 -0.949219,1.04296878 -0.05859,0 -0.28125,0 -0.492187,-0.12890625 0.246094,-0.0585938 0.46875,-0.26953125 0.46875,-0.5390625 0,-0.26953123 -0.222656,-0.35156253 -0.375,-0.35156253 -0.292969,0 -0.539063,0.25781253 -0.539063,0.57421878 0,0.45703125 0.492188,0.65625 0.9375,0.65625 0.65625,0 1.007813,-0.69140625 1.042969,-0.75 0.117188,0.36328125 0.480469,0.75 1.078125,0.75 1.019531,0 1.59375,-1.27734378 1.59375,-1.53515628 0,-0.09375 -0.09375,-0.09375 -0.128906,-0.09375 -0.08203,0 -0.105469,0.035156 -0.128906,0.1054688 -0.328125,1.06640623 -0.996094,1.31249998 -1.324219,1.31249998 -0.386719,0 -0.539063,-0.328125 -0.539063,-0.65625 0,-0.22265625 0.05859,-0.44531248 0.164063,-0.87890628 z m 0,0"
         style="fill:#8000ff;fill-opacity:1;fill-rule:nonzero;stroke:none" />
      <path
         id="path60"
         d="m 19.922133,-2.4957656 c 0,-0.7734375 -0.117188,-1.9804688 -0.65625,-3.1054688 -0.597656,-1.21875 -1.464844,-1.875 -1.558594,-1.875 -0.05859,0 -0.105469,0.046875 -0.105469,0.1054688 0,0.035156 0,0.046875 0.199219,0.234375 0.972656,0.984375 1.535156,2.5664062 1.535156,4.640625 0,1.71093748 -0.363281,3.45703123 -1.59375,4.7226562 -0.140625,0.1171875 -0.140625,0.1289063 -0.140625,0.1640625 0,0.058594 0.04687,0.1054688 0.105469,0.1054688 0.09375,0 0.996094,-0.6796875 1.582031,-1.94531252 0.503907,-1.1015625 0.632813,-2.20312498 0.632813,-3.04687498 z m 0,0"
         style="fill:#8000ff;fill-opacity:1;fill-rule:nonzero;stroke:none" />
    </g>
    <path
       id="path62"
       d="m 3.6458438,-3.2921016 c 0.070312,-0.28125 0.3164062,-1.2890625 1.078125,-1.2890625 0.058594,0 0.3164062,0 0.5507812,0.140625 -0.3046875,0.058594 -0.5273437,0.328125 -0.5273437,0.5859375 0,0.1757813 0.1171875,0.3867188 0.4101562,0.3867188 0.2460938,0 0.5976563,-0.1992188 0.5976563,-0.6328125 0,-0.5625 -0.6445313,-0.7265625 -1.0195313,-0.7265625 -0.6328125,0 -1.0195312,0.5859375 -1.1484375,0.8320312 -0.2695312,-0.7148437 -0.8554687,-0.8320312 -1.171875,-0.8320312 -1.1367187,0 -1.7578125,1.4179687 -1.7578125,1.6875 0,0.1054687 0.10546875,0.1054687 0.12890625,0.1054687 0.0820313,0 0.1171875,-0.023437 0.140625,-0.1171875 0.37500005,-1.1601562 1.08984375,-1.4296875 1.46484375,-1.4296875 0.2109375,0 0.5859375,0.09375 0.5859375,0.7265625 0,0.3398438 -0.1875,1.078125 -0.5859375,2.6015625 -0.1757812,0.67968754 -0.5625,1.13671879 -1.0429687,1.13671879 -0.058594,0 -0.3164063,0 -0.53906255,-0.140625 0.26953125,-0.0585938 0.51562505,-0.29296875 0.51562505,-0.59765625 0,-0.29296874 -0.2460938,-0.37500004 -0.4101563,-0.37500004 -0.328125,0 -0.59765625,0.28125004 -0.59765625,0.63281254 0,0.50390625 0.55078125,0.71484375 1.03125005,0.71484375 0.7148437,0 1.1015625,-0.76171875 1.1367187,-0.83203125 0.1289063,0.41015625 0.5273438,0.83203125 1.1835938,0.83203125 1.125,0 1.7460937,-1.40624999 1.7460937,-1.67578129 0,-0.1054687 -0.1054687,-0.1054687 -0.1289062,-0.1054687 -0.1054688,0 -0.1289063,0.035156 -0.140625,0.1171875 -0.3632813,1.16015624 -1.1132813,1.42968749 -1.453125,1.42968749 -0.4335938,0 -0.609375,-0.3515625 -0.609375,-0.7265625 0,-0.23437499 0.070312,-0.48046879 0.1875,-0.96093749 z m 0,0"
       style="fill:#000000;fill-opacity:1;fill-rule:nonzero;stroke:none"
       aria-label="x"
       transform="matrix(1.3333333,0,0,1.3333333,442.592,194.784)" />
    <path
       id="path63"
       d="m 5.2964922,-4.1600078 c 0.046875,-0.1523438 0.046875,-0.1757813 0.046875,-0.2460938 0,-0.1992187 -0.1523438,-0.2929687 -0.3164063,-0.2929687 -0.1054687,0 -0.28125,0.058594 -0.375,0.2226562 -0.023437,0.058594 -0.1171875,0.3984375 -0.1523437,0.5976563 -0.082031,0.28125 -0.1523438,0.5742187 -0.2226563,0.8671875 l -0.4921875,1.96875 c -0.046875,0.16406249 -0.515625,0.92578124 -1.2304687,0.92578124 -0.5625,0 -0.6796875,-0.48046875 -0.6796875,-0.89062504 0,-0.4921875 0.1875,-1.171875 0.5625,-2.1328125 0.1757812,-0.4453125 0.2109375,-0.5742187 0.2109375,-0.7851562 0,-0.4921875 -0.3515625,-0.9023438 -0.890625,-0.9023438 -1.04296876,0 -1.44140626,1.5820313 -1.44140626,1.6875 0,0.1054688 0.10546875,0.1054688 0.12890625,0.1054688 0.10546875,0 0.1171875,-0.023437 0.17578125,-0.1992188 0.29296875,-1.0195312 0.72656246,-1.3476562 1.10156246,-1.3476562 0.09375,0 0.2695313,0 0.2695313,0.3515625 0,0.2695312 -0.1054688,0.5507812 -0.1757813,0.7617187 -0.4453125,1.1601563 -0.6328125,1.78125 -0.6328125,2.2851563 0,0.97265624 0.6796875,1.30078124 1.3242188,1.30078124 0.421875,0 0.796875,-0.1875 1.1015625,-0.4921875 -0.140625,0.57421875 -0.2695313,1.1015625 -0.703125,1.68749996 -0.2929688,0.3632813 -0.703125,0.6796875 -1.2070313,0.6796875 -0.1523437,0 -0.6445312,-0.023437 -0.83203121,-0.4570312 0.17578121,0 0.31640621,0 0.48046871,-0.1289063 0.1054688,-0.09375 0.2109375,-0.234375 0.2109375,-0.44531246 0,-0.33984375 -0.2929687,-0.38671875 -0.3984375,-0.38671875 -0.25781246,0 -0.60937496,0.17578125 -0.60937496,0.71484371 0,0.5390625 0.48046876,0.9492188 1.14843746,0.9492188 1.125,0 2.25,-0.9960938 2.5546875,-2.22656251 z m 0,0"
       style="fill:#000000;fill-opacity:1;fill-rule:nonzero;stroke:none"
       aria-label="y"
       transform="matrix(1.3333333,0,0,1.3333333,253.91067,90.769333)" />
  </g>
</svg>
