<?xml version="1.0" encoding="UTF-8" standalone="no"?>
<!-- Created with Inkscape (http://www.inkscape.org/) -->

<svg
   version="1.1"
   id="svg1"
   width="305.8815"
   height="231.65234"
   viewBox="0 0 305.8815 231.65235"
   sodipodi:docname="7.8-discontinua-medio.svg"
   inkscape:version="1.4.2 (f4327f4, 2025-05-13)"
   xmlns:inkscape="http://www.inkscape.org/namespaces/inkscape"
   xmlns:sodipodi="http://sodipodi.sourceforge.net/DTD/sodipodi-0.dtd"
   xmlns="http://www.w3.org/2000/svg"
   xmlns:svg="http://www.w3.org/2000/svg">
  <defs
     id="defs1" />
  <sodipodi:namedview
     id="namedview1"
     pagecolor="#ffffff"
     bordercolor="#000000"
     borderopacity="0.25"
     inkscape:showpageshadow="2"
     inkscape:pageopacity="0.0"
     inkscape:pagecheckerboard="0"
     inkscape:deskcolor="#d1d1d1"
     inkscape:zoom="2.2241536"
     inkscape:cx="203.89779"
     inkscape:cy="129.26265"
     inkscape:window-width="1920"
     inkscape:window-height="1009"
     inkscape:window-x="-8"
     inkscape:window-y="-8"
     inkscape:window-maximized="1"
     inkscape:current-layer="g1">
    <inkscape:page
       x="0"
       y="0"
       inkscape:label="6"
       id="page1"
       width="305.8815"
       height="231.65234"
       margin="0"
       bleed="0" />
  </sodipodi:namedview>
  <g
     id="g1"
     inkscape:groupmode="layer"
     inkscape:label="6"
     transform="translate(-38.059921,-52.007812)">
    <path
       id="path2"
       d="M -45.35506,0 H 180.96199"
       style="fill:none;stroke:#000000;stroke-width:0.3985;stroke-linecap:butt;stroke-linejoin:miter;stroke-miterlimit:10;stroke-dasharray:none;stroke-opacity:1"
       transform="matrix(1.3333333,0,0,-1.3333333,98.533333,268.384)" />
    <path
       id="path3"
       d="M -1.19551,1.59401 C -1.09587,0.99626 0,0.09961 0.29886,0 0,-0.09961 -1.09587,-0.99626 -1.19551,-1.59401"
       style="fill:none;stroke:#000000;stroke-width:0.31879;stroke-linecap:round;stroke-linejoin:round;stroke-miterlimit:10;stroke-dasharray:none;stroke-opacity:1"
       transform="matrix(1.3333333,0,0,-1.3333333,339.81599,268.384)" />
    <path
       id="path4"
       d="m 3.6456797,-3.2916797 c 0.070312,-0.28125 0.3164062,-1.2890625 1.078125,-1.2890625 0.058594,0 0.3164062,0 0.5507812,0.140625 -0.3046875,0.058594 -0.5273437,0.328125 -0.5273437,0.5859375 0,0.1757813 0.1171875,0.3867188 0.4101562,0.3867188 0.2460938,0 0.5976563,-0.1992188 0.5976563,-0.6328125 0,-0.5625 -0.6445313,-0.7265625 -1.0195313,-0.7265625 -0.6328125,0 -1.0195312,0.5859375 -1.1484375,0.8320312 -0.2695312,-0.7148437 -0.8554687,-0.8320312 -1.171875,-0.8320312 -1.1367187,0 -1.75781246,1.4179687 -1.75781246,1.6875 0,0.1054687 0.10546875,0.1054687 0.12890625,0.1054687 0.0820313,0 0.1171875,-0.023437 0.140625,-0.1171875 0.37500001,-1.1601562 1.08984371,-1.4296875 1.46484371,-1.4296875 0.2109375,0 0.5859375,0.09375 0.5859375,0.7265625 0,0.3398438 -0.1875,1.078125 -0.5859375,2.6015625 -0.1757812,0.67968751 -0.5625,1.13671876 -1.0429687,1.13671876 -0.058594,0 -0.3164063,0 -0.53906251,-0.140625 0.26953121,-0.0585938 0.51562501,-0.29296875 0.51562501,-0.59765625 0,-0.29296871 -0.2460938,-0.37500001 -0.41015626,-0.37500001 -0.328125,0 -0.59765625,0.28125001 -0.59765625,0.63281251 0,0.50390625 0.55078125,0.71484375 1.03125001,0.71484375 0.7148437,0 1.1015625,-0.76171875 1.1367187,-0.83203125 0.1289063,0.41015625 0.5273438,0.83203125 1.1835938,0.83203125 1.125,0 1.7460937,-1.40624996 1.7460937,-1.67578126 0,-0.1054687 -0.1054687,-0.1054687 -0.1289062,-0.1054687 -0.1054688,0 -0.1289063,0.035156 -0.140625,0.1171875 -0.3632813,1.16015621 -1.1132813,1.42968746 -1.453125,1.42968746 -0.4335938,0 -0.609375,-0.3515625 -0.609375,-0.7265625 0,-0.23437496 0.070312,-0.48046876 0.1875,-0.96093746 z m 0,0"
       style="fill:#000000;fill-opacity:1;fill-rule:nonzero;stroke:none"
       aria-label="x"
       transform="matrix(1.3333333,0,0,1.3333333,336.268,279.76)" />
    <path
       id="path5"
       d="M 0,-11.33876 V 158.28445"
       style="fill:none;stroke:#000000;stroke-width:0.3985;stroke-linecap:butt;stroke-linejoin:miter;stroke-miterlimit:10;stroke-dasharray:none;stroke-opacity:1"
       transform="matrix(1.3333333,0,0,-1.3333333,98.533333,268.384)" />
    <path
       id="path6"
       d="M -1.19551,1.59401 C -1.09587,0.99626 0,0.09961 0.29886,0 0,-0.09961 -1.09587,-0.99626 -1.19551,-1.59401"
       style="fill:none;stroke:#000000;stroke-width:0.31879;stroke-linecap:round;stroke-linejoin:round;stroke-miterlimit:10;stroke-dasharray:none;stroke-opacity:1"
       transform="matrix(0,-1.3333333,-1.3333333,0,98.533333,57.338067)" />
    <path
       id="path7"
       d="m 5.2960937,-4.1611719 c 0.046875,-0.1523437 0.046875,-0.1757812 0.046875,-0.2460937 0,-0.1992188 -0.1523437,-0.2929688 -0.3164062,-0.2929688 -0.1054688,0 -0.28125,0.058594 -0.375,0.2226563 -0.023437,0.058594 -0.1171875,0.3984375 -0.1523438,0.5976562 -0.082031,0.28125 -0.1523437,0.5742188 -0.2226562,0.8671875 l -0.4921875,1.96875 C 3.7375,-0.87992187 3.26875,-0.11820312 2.5539062,-0.11820312 c -0.5625,0 -0.6796875,-0.48046875 -0.6796875,-0.89062498 0,-0.4921875 0.1875,-1.171875 0.5625,-2.1328125 0.1757813,-0.4453125 0.2109375,-0.5742188 0.2109375,-0.7851563 0,-0.4921875 -0.3515625,-0.9023437 -0.890625,-0.9023437 -1.0429687,0 -1.4414062,1.5820312 -1.4414062,1.6875 0,0.1054687 0.10546875,0.1054687 0.12890625,0.1054687 0.10546875,0 0.1171875,-0.023437 0.17578125,-0.1992187 0.29296875,-1.0195313 0.7265625,-1.3476563 1.1015625,-1.3476563 0.09375,0 0.2695312,0 0.2695312,0.3515625 0,0.2695313 -0.1054687,0.5507813 -0.1757812,0.7617188 -0.4453125,1.1601562 -0.6328125,1.78125 -0.6328125,2.2851562 0,0.97265628 0.6796875,1.30078128 1.3242187,1.30078128 0.421875,0 0.796875,-0.1875 1.1015625,-0.4921875 C 3.4679687,0.19820313 3.3390625,0.72554688 2.9054687,1.3114844 2.6125,1.6747656 2.2023437,1.9911719 1.6984375,1.9911719 c -0.1523438,0 -0.6445313,-0.023437 -0.83203125,-0.4570313 0.17578125,0 0.31640625,0 0.48046875,-0.1289062 0.1054687,-0.09375 0.2109375,-0.234375 0.2109375,-0.44531252 0,-0.33984375 -0.2929688,-0.38671875 -0.3984375,-0.38671875 -0.2578125,0 -0.609375,0.17578125 -0.609375,0.71484377 0,0.5390625 0.4804687,0.9492187 1.1484375,0.9492187 1.125,0 2.25,-0.9960937 2.5546875,-2.22656247 z m 0,0"
       style="fill:#000000;fill-opacity:1;fill-rule:nonzero;stroke:none"
       aria-label="y"
       transform="matrix(1.3333333,0,0,1.3333333,85.766667,58.446667)" />
    <path
       id="path8"
       d="m 22.67752,0 v 11.33876 c 0,0 1.22881,0.31236 1.70075,0.43979 0.47193,0.12743 1.22879,0.34044 1.70073,0.47858 0.47195,0.13812 1.2288,0.36688 1.70075,0.51697 0.47195,0.15006 1.22879,0.4011 1.70073,0.56472 0.47196,0.16361 1.22881,0.43552 1.70076,0.61453 0.47194,0.17904 1.22881,0.47918 1.70075,0.67582 0.47195,0.19662 1.22879,0.52409 1.70074,0.74153 0.47194,0.21745 1.22881,0.58401 1.70075,0.82565 0.47195,0.24164 1.2288,0.64598 1.70076,0.91592 0.47194,0.26998 1.22879,0.72649 1.70073,1.02979 0.47195,0.30333 1.2288,0.81317 1.70076,1.15645 0.47194,0.34327 1.22879,0.92598 1.70073,1.31769 0.47195,0.39172 1.2288,1.05438 1.70076,1.50558 0.47194,0.4512 1.2288,1.22023 1.70074,1.74643 0.47194,0.52619 1.22879,1.42482 1.70074,2.04608 0.47194,0.62126 1.22881,1.68726 1.70075,2.43157 0.47194,0.74432 1.22879,2.02531 1.70073,2.93296 0.47195,0.90766 1.22882,2.4767 1.70076,3.60877 0.47194,1.13205 1.2288,3.09817 1.70074,4.55032 0.47196,1.45215 1.22879,3.98509 1.70075,5.91576 0.47194,1.93066 1.2288,5.30343 1.70074,7.99922 0.47194,2.69579 1.22881,7.39361 1.70076,11.4301 0.47194,4.03651 1.22879,10.92331 1.70073,17.66217 0.47196,6.73884 1.70076,30.90684 1.70076,30.90684 L 63.49713,0 Z"
       style="fill:#9999ff;fill-opacity:0.2;fill-rule:nonzero;stroke:none"
       transform="matrix(1.3333333,0,0,-1.3333333,98.533333,268.384)" />
    <path
       id="path9"
       d="m 22.67752,11.33876 c 0,0 0.30101,0.07491 0.41661,0.10414 0.11562,0.02924 0.30103,0.07668 0.41663,0.10658 0.11561,0.02991 0.30102,0.07848 0.41662,0.109 0.1156,0.03053 0.30102,0.07992 0.41662,0.11108 0.11561,0.03114 0.30102,0.08171 0.41662,0.11348 0.11562,0.03179 0.30103,0.08319 0.41663,0.11559 0.1156,0.03239 0.30101,0.08464 0.41661,0.11799 0.11561,0.03338 0.30102,0.08884 0.41662,0.1225 0.11562,0.03366 0.30103,0.08608 0.41663,0.12007 0.11561,0.03398 0.30101,0.08998 0.41662,0.12493 0.11562,0.03494 0.30101,0.09114 0.41663,0.12699 0.11562,0.03585 0.30101,0.09472 0.41663,0.13149 0.1156,0.03679 0.30101,0.09613 0.41661,0.13357 0.11561,0.03745 0.301,0.09827 0.41662,0.13634 0.11562,0.03806 0.30101,0.09937 0.41663,0.13806 0.11562,0.03868 0.30101,0.10118 0.41661,0.14083 0.11562,0.03965 0.30101,0.10444 0.41663,0.145 0.11561,0.04056 0.30101,0.10616 0.41662,0.1474 0.11562,0.04125 0.30101,0.10735 0.41663,0.14983 0.1156,0.04248 0.30101,0.113 0.41662,0.15642 0.1156,0.04338 0.30101,0.11204 0.41663,0.1564 0.1156,0.04434 0.30101,0.11772 0.41661,0.16331 0.1156,0.04561 0.30101,0.11919 0.41663,0.16542 0.1156,0.04624 0.30101,0.12029 0.41662,0.16782 0.1156,0.04752 0.30101,0.12598 0.41663,0.17474 0.11558,0.04877 0.30099,0.12714 0.41661,0.17682 0.1156,0.04967 0.30101,0.13007 0.41663,0.18132 0.1156,0.05129 0.30101,0.13602 0.41662,0.18825 0.1156,0.05223 0.30101,0.13441 0.4166,0.18823 0.11561,0.05382 0.30104,0.14427 0.41664,0.19966 0.11562,0.05541 0.30102,0.14302 0.41662,0.19966 0.1156,0.05666 0.30103,0.15049 0.41661,0.20867 0.11562,0.05818 0.30103,0.15158 0.41663,0.21074 0.11562,0.05913 0.30103,0.15455 0.41663,0.21557 0.11561,0.06101 0.30102,0.16134 0.41661,0.22423 0.11562,0.06288 0.30102,0.16457 0.41662,0.22908 0.11562,0.06452 0.30103,0.16959 0.41663,0.23598 0.11562,0.06639 0.30101,0.17432 0.41663,0.24257 0.1156,0.06827 0.30101,0.17932 0.41662,0.24948 0.11562,0.07019 0.30101,0.18437 0.41662,0.25644 0.11562,0.07205 0.30102,0.18841 0.41662,0.26297 0.11561,0.07455 0.30101,0.19765 0.41662,0.27439 0.11562,0.07677 0.30101,0.20028 0.41663,0.27892 0.11562,0.07863 0.30101,0.20641 0.41663,0.28788 0.1156,0.08148 0.30099,0.2156 0.4166,0.29933 0.11562,0.08371 0.30102,0.21762 0.41663,0.30415 0.11562,0.08656 0.30101,0.22977 0.41663,0.31973 0.11561,0.08999 0.30101,0.23627 0.41661,0.32874 0.1156,0.09247 0.30103,0.24209 0.41664,0.33772 0.1156,0.09563 0.30101,0.25278 0.41663,0.35158 0.11558,0.0988 0.30099,0.25798 0.41661,0.36055 0.1156,0.1026 0.30101,0.27287 0.41662,0.37892 0.1156,0.10605 0.30101,0.27631 0.41663,0.38547 0.1156,0.10917 0.30101,0.28752 0.41661,0.4014 0.1156,0.11389 0.30101,0.3011 0.41663,0.41938 0.1156,0.1183 0.30101,0.31053 0.41662,0.43325 0.1156,0.12271 0.30101,0.32376 0.41661,0.45123 0.1156,0.12745 0.30101,0.33499 0.41661,0.46748 0.11562,0.13251 0.30104,0.34972 0.41664,0.48757 0.11562,0.13783 0.30103,0.3624 0.41662,0.50589 0.11561,0.14351 0.30102,0.37889 0.41662,0.52838 0.11562,0.14952 0.30103,0.39303 0.41663,0.54916 0.11561,0.15614 0.30102,0.41315 0.41662,0.57614 0.1156,0.16298 0.30101,0.42841 0.41661,0.59863 0.11562,0.17025 0.30103,0.4503 0.41663,0.6284 0.11562,0.17812 0.30101,0.46876 0.41663,0.65539 0.11561,0.1866 0.30101,0.49385 0.41661,0.68963 0.11561,0.19581 0.30102,0.51628 0.41664,0.72148 0.11561,0.2052 0.30101,0.54189 0.41662,0.75747 0.1156,0.21557 0.301,0.5693 0.41661,0.79622 0.11562,0.22689 0.30101,0.59994 0.41663,0.83911 0.11561,0.2392 0.30101,0.63237 0.41663,0.88481 0.11561,0.25246 0.30101,0.66807 0.41661,0.93465 0.11561,0.26654 0.30101,0.70456 0.41662,0.98652 0.11562,0.28197 0.30101,0.74671 0.41663,1.04572 0.11562,0.29901 0.30101,0.79182 0.41662,1.10936 0.11559,0.31754 0.301,0.84129 0.41662,1.17927 0.1156,0.33802 0.30102,0.89677 0.41664,1.25679 0.1156,0.36005 0.30101,0.95356 0.41661,1.33811 0.1156,0.38457 0.30101,1.02165 0.41663,1.43362 0.1156,0.41197 0.301,1.09456 0.41662,1.53569 0.1156,0.44112 0.30101,1.16916 0.41663,1.64365 0.11558,0.47449 0.30099,1.26351 0.41661,1.77618 0.1156,0.51265 0.30101,1.36359 0.41662,1.91873 0.1156,0.55516 0.30102,1.47942 0.41662,2.08243 0.11561,0.60301 0.30102,1.60691 0.4166,2.26375 0.11562,0.65683 0.30103,1.75212 0.41663,2.47032 0.11562,0.71819 0.30104,1.91728 0.41664,2.70595 0.1156,0.78868 0.30101,2.10777 0.41661,2.97829 0.11562,0.87054 0.30102,2.33119 0.41663,3.29596 0.11561,0.96478 0.30102,2.58134 0.41662,3.65756 0.11562,1.07622 0.30103,2.88994 0.41661,4.09909 0.11562,1.20915 0.30103,3.2489 0.41663,4.61571 0.11562,1.36682 0.30101,3.67788 0.41663,5.23547 0.11561,1.55757 0.301,4.19954 0.41662,5.99049 0.1156,1.79096 0.301,4.83547 0.41661,6.91753 0.11562,2.08205 0.30103,5.63695 0.41664,8.0885 0.11562,2.45152 0.30101,6.6528 0.41661,9.58057 0.11562,2.92776 0.41663,11.52079 0.41663,11.52079"
       style="fill:none;stroke:#eb0a36;stroke-width:0.79701;stroke-linecap:butt;stroke-linejoin:miter;stroke-miterlimit:10;stroke-dasharray:none;stroke-opacity:1"
       transform="matrix(1.3333333,0,0,-1.3333333,98.533333,268.384)" />
    <path
       id="path10"
       d="m 72.56802,0 v 113.38766 c 0,0 1.91133,-33.3005 2.64542,-41.77122 0.73409,-8.47074 1.91132,-15.06506 2.6454,-19.27984 0.73409,-4.21482 1.91133,-8.55637 2.64542,-11.0976 0.73408,-2.54123 1.91133,-5.51334 2.64541,-7.21788 0.73409,-1.70453 1.91132,-3.84334 2.6454,-5.06729 0.73409,-1.22394 1.91133,-2.83199 2.64542,-3.75408 0.7341,-0.9221 1.91131,-2.17183 2.6454,-2.8918 0.7341,-0.71997 1.91133,-1.7196 2.64543,-2.2973 0.73409,-0.57773 1.91132,-1.39233 2.64542,-1.8665 0.73408,-0.47415 1.91133,-1.15477 2.64542,-1.5509 0.73408,-0.39614 1.91131,-0.96846 2.6454,-1.3042 0.73408,-0.33574 1.91131,-0.82711 2.6454,-1.11562 0.73408,-0.28848 1.91134,-0.71356 2.64543,-0.9637 0.73408,-0.2501 1.91131,-0.61981 2.6454,-0.83911 0.73409,-0.21932 1.91133,-0.54773 2.64541,-0.74156 0.7341,-0.1938 1.91132,-0.48293 2.6454,-0.65538 0.73411,-0.17246 1.91134,-0.43311 2.64544,-0.58756 0.73408,-0.15443 1.91131,-0.38668 2.64542,-0.52562 0.73408,-0.13893 1.91131,-0.34974 2.6454,-0.4758 0.73408,-0.12606 1.91133,-0.31814 2.64541,-0.43289 0.73409,-0.11474 1.91132,-0.28941 2.6454,-0.39411 0.73409,-0.10473 1.91135,-0.26461 2.64543,-0.36057 0.73407,-0.09598 1.91132,-0.24269 2.6454,-0.33116 0.73409,-0.08847 2.6454,-0.30658 2.6454,-0.30658 L 136.0652,0 Z"
       style="fill:#9999ff;fill-opacity:0.2;fill-rule:nonzero;stroke:none"
       transform="matrix(1.3333333,0,0,-1.3333333,98.533333,268.384)" />
    <path
       id="path11"
       d="m 72.11438,125.98807 c 0,0 0.46652,-13.00325 0.64569,-17.20437 0.17918,-4.20112 0.46651,-9.83645 0.64571,-13.07447 0.17917,-3.23803 0.46652,-7.69023 0.64567,-10.26294 0.17919,-2.57272 0.46652,-6.18469 0.64569,-8.27951 0.17917,-2.09482 0.46653,-5.0808 0.64571,-6.81856 0.17917,-1.73776 0.46652,-4.24118 0.64569,-5.70605 0.17918,-1.46487 0.46652,-3.59916 0.64571,-4.85172 0.17917,-1.25255 0.46653,-3.09262 0.64569,-4.1759 0.17916,-1.08328 0.4665,-2.68584 0.64569,-3.63162 0.17917,-0.94576 0.46651,-2.3518 0.64569,-3.18488 0.17918,-0.83308 0.46652,-2.08095 0.64569,-2.81946 0.17919,-0.73849 0.46652,-1.84367 0.64571,-2.50319 0.17917,-0.65953 0.46652,-1.65634 0.64568,-2.25024 0.17919,-0.5939 0.46655,-1.49359 0.64571,-2.03017 0.17917,-0.53656 0.46653,-1.34993 0.64569,-1.83708 0.17916,-0.48717 0.46653,-1.22937 0.6457,-1.67411 0.17918,-0.44471 0.4665,-1.12397 0.64569,-1.5312 0.17918,-0.40721 0.46652,-1.02964 0.64569,-1.40382 0.17918,-0.37419 0.46653,-0.94785 0.6457,-1.29312 0.17917,-0.34531 0.46652,-0.87581 0.64569,-1.19557 0.17916,-0.31974 0.46653,-0.81228 0.6457,-1.10903 0.17918,-0.29674 0.46652,-0.75376 0.6457,-1.02978 0.17917,-0.276 0.46653,-0.70212 0.64569,-0.95954 0.17919,-0.25743 0.46651,-0.65544 0.64571,-0.89589 0.17917,-0.24043 0.46652,-0.61169 0.64567,-0.83703 0.17917,-0.22536 0.46654,-0.57541 0.6457,-0.78725 0.17916,-0.21181 0.46652,-0.54025 0.6457,-0.73944 0.17917,-0.1992 0.46652,-0.50836 0.64569,-0.69623 0.17919,-0.18786 0.46652,-0.48002 0.64571,-0.6578 0.17916,-0.17778 0.46654,-0.45586 0.64569,-0.62355 0.17917,-0.1677 0.46652,-0.42692 0.64569,-0.58515 0.17917,-0.15822 0.46651,-0.40501 0.64569,-0.55537 0.17919,-0.15038 0.46652,-0.38521 0.64569,-0.52838 0.17919,-0.14318 0.46652,-0.3669 0.64571,-0.50348 0.17917,-0.1366 0.46652,-0.35137 0.64569,-0.48099 0.17918,-0.12961 0.46654,-0.33029 0.6457,-0.45329 0.17917,-0.123 0.46653,-0.31557 0.6457,-0.43325 0.17915,-0.11767 0.4665,-0.30192 0.64569,-0.4149 0.17918,-0.11296 0.46651,-0.29169 0.64569,-0.39932 0.17918,-0.10762 0.46652,-0.27392 0.64569,-0.37648 0.17918,-0.10252 0.46653,-0.26389 0.64571,-0.36264 0.17916,-0.09876 0.46652,-0.25441 0.64569,-0.34914 0.17915,-0.09471 0.46652,-0.24264 0.64569,-0.33357 0.17918,-0.09093 0.46652,-0.23405 0.6457,-0.32182 0.17917,-0.08776 0.46651,-0.2267 0.64569,-0.31073 0.17919,-0.084 0.46653,-0.21425 0.6457,-0.2948 0.17918,-0.08058 0.46653,-0.2081 0.6457,-0.28583 0.17915,-0.07773 0.46652,-0.19986 0.64568,-0.27441 0.17917,-0.07456 0.46652,-0.19063 0.6457,-0.26299 0.17917,-0.07234 0.46653,-0.18829 0.64569,-0.25847 0.17919,-0.07019 0.46654,-0.18007 0.64571,-0.24742 0.17918,-0.06735 0.46654,-0.17326 0.64571,-0.23808 0.17915,-0.06481 0.4665,-0.16648 0.64567,-0.22905 0.17917,-0.06261 0.46652,-0.16146 0.64569,-0.22217 0.17917,-0.06072 0.46653,-0.15677 0.64571,-0.21558 0.17917,-0.05882 0.46652,-0.15136 0.64569,-0.20831 0.17918,-0.05695 0.46652,-0.14702 0.6457,-0.20209 0.17918,-0.05505 0.46654,-0.14134 0.6457,-0.19481 0.17917,-0.05348 0.46652,-0.13871 0.64569,-0.19065 0.17917,-0.05196 0.46651,-0.13344 0.64571,-0.18375 0.17916,-0.05033 0.4665,-0.13017 0.64567,-0.17889 0.1792,-0.04874 0.46652,-0.12514 0.64571,-0.17232 0.17916,-0.0472 0.46652,-0.12189 0.64569,-0.16783 0.17918,-0.04596 0.46653,-0.11864 0.6457,-0.16333 0.17916,-0.0447 0.46653,-0.1151 0.64569,-0.15883 0.17916,-0.04375 0.46653,-0.11393 0.6457,-0.15642 0.17918,-0.04248 0.4665,-0.10891 0.6457,-0.14983 0.17917,-0.04089 0.46651,-0.10505 0.64568,-0.14498 0.1792,-0.03994 0.46653,-0.10389 0.6457,-0.14292 0.17916,-0.03902 0.46653,-0.10063 0.64569,-0.13841 0.17916,-0.03778 0.46653,-0.0972 0.64569,-0.13391 0.17919,-0.03672 0.46653,-0.09481 0.64571,-0.1308 0.17917,-0.036 0.46652,-0.09349 0.64569,-0.12874 0.17918,-0.03522 0.46651,-0.09097 0.64571,-0.12526 0.17917,-0.03426 0.46652,-0.08848 0.64567,-0.12179 0.17919,-0.03331 0.46653,-0.08565 0.6457,-0.11835 0.17916,-0.03269 0.46652,-0.08547 0.6457,-0.1173 0.17917,-0.03182 0.46652,-0.08114 0.64569,-0.11212 0.17919,-0.03096 0.46652,-0.08064 0.64571,-0.11107 0.17917,-0.03042 0.46654,-0.07869 0.64569,-0.1083 0.17917,-0.02962 0.46652,-0.07616 0.64569,-0.1052 0.17917,-0.02905 0.46651,-0.07574 0.64569,-0.10415 0.17918,-0.02843 0.46653,-0.0732 0.64569,-0.1007 0.17919,-0.02751 0.46652,-0.07055 0.64571,-0.09758 0.17917,-0.02702 0.46652,-0.07064 0.64569,-0.09724 0.17918,-0.0266 0.46654,-0.0686 0.64571,-0.09446 0.17916,-0.02587 0.46652,-0.06666 0.64569,-0.09206 0.17915,-0.02539 0.46652,-0.06604 0.64569,-0.09099 0.17918,-0.02497 0.4665,-0.06465 0.6457,-0.08895 0.17917,-0.02427 0.46651,-0.06243 0.64568,-0.08616 0.17918,-0.02371 0.46654,-0.0613 0.6457,-0.08476 0.17917,-0.02348 0.46653,-0.06164 0.6457,-0.08443 0.17915,-0.02281 0.46652,-0.05768 0.64569,-0.07995 0.17918,-0.02226 0.46652,-0.0585 0.6457,-0.08062 0.17917,-0.02211 0.46653,-0.05739 0.64569,-0.07889 0.17919,-0.02149 0.46653,-0.05509 0.64571,-0.07612 0.17917,-0.02105 0.46652,-0.05462 0.64569,-0.07544 0.17917,-0.02083 0.46652,-0.05445 0.64568,-0.07476 0.17917,-0.02029 0.64571,-0.07162 0.64571,-0.07162"
       style="fill:none;stroke:#eb0a36;stroke-width:0.79701;stroke-linecap:butt;stroke-linejoin:miter;stroke-miterlimit:10;stroke-dasharray:none;stroke-opacity:1"
       transform="matrix(1.3333333,0,0,-1.3333333,98.533333,268.384)" />
    <g
       id="g11"
       aria-label="y=f(x)"
       transform="matrix(1.3333333,0,0,1.3333333,209.31867,150.76)">
      <path
         id="path12"
         d="m 4.8410781,-3.7955859 c 0.046875,-0.140625 0.046875,-0.1523438 0.046875,-0.2226563 0,-0.1875 -0.140625,-0.2695312 -0.2929687,-0.2695312 -0.1054688,0 -0.2578125,0.058594 -0.3515625,0.1992187 -0.023437,0.058594 -0.09375,0.3632813 -0.140625,0.5390625 -0.070312,0.2578125 -0.140625,0.5273438 -0.1992188,0.796875 l -0.4453125,1.79296876 c -0.035156,0.15234375 -0.46875,0.85546875 -1.125,0.85546875 -0.5039062,0 -0.6210937,-0.4453125 -0.6210937,-0.80859375 0,-0.45703126 0.1757812,-1.07812496 0.515625,-1.95703126 0.1523437,-0.4101562 0.1992187,-0.515625 0.1992187,-0.7148437 0,-0.4453125 -0.328125,-0.8203125 -0.8203125,-0.8203125 -0.94921873,0 -1.31249998,1.453125 -1.31249998,1.5351562 0,0.1054688 0.09375,0.1054688 0.1171875,0.1054688 0.09375,0 0.10546875,-0.023437 0.15234375,-0.1875 0.26953125,-0.9375 0.66796873,-1.2304688 1.00781253,-1.2304688 0.082031,0 0.2578125,0 0.2578125,0.3164063 0,0.2460937 -0.1054688,0.515625 -0.1757813,0.703125 -0.3984375,1.0546875 -0.5742187,1.6171875 -0.5742187,2.0859375 0,0.89062496 0.6210937,1.18359371 1.21875,1.18359371 0.3867187,0 0.7265625,-0.1640625 0.9960937,-0.4453125 -0.1289062,0.515625 -0.2460937,1.0078125 -0.6445312,1.53515629 -0.2578125,0.3398437 -0.6328125,0.6328125 -1.0898438,0.6328125 -0.140625,0 -0.59765623,-0.035156 -0.76171873,-0.421875 0.1640625,0 0.29296873,0 0.43359373,-0.1171875 0.09375,-0.09375 0.1992188,-0.2226563 0.1992188,-0.41015629 0,-0.31640625 -0.2695313,-0.3515625 -0.375,-0.3515625 -0.22265628,0 -0.55078128,0.1640625 -0.55078128,0.64453129 0,0.5039062 0.43359375,0.8671875 1.05468748,0.8671875 1.0195313,0 2.0507813,-0.9023438 2.3320313,-2.02734379 z m 0,0"
         style="fill:#eb0a36;fill-opacity:1;fill-rule:nonzero;stroke:none" />
      <path
         id="path13"
         d="m 14.85768,-3.2565234 c 0.152343,0 0.339843,0 0.339843,-0.1992188 0,-0.1992187 -0.1875,-0.1992187 -0.328125,-0.1992187 H 8.9045547 c -0.140625,0 -0.328125,0 -0.328125,0.1992187 0,0.1992188 0.1875,0.1992188 0.3398437,0.1992188 z m 0.01172,1.9335937 c 0.140625,0 0.328125,0 0.328125,-0.1992187 0,-0.1992188 -0.1875,-0.1992188 -0.339843,-0.1992188 H 8.9162734 c -0.1523437,0 -0.3398437,0 -0.3398437,0.1992188 0,0.1992187 0.1875,0.1992187 0.328125,0.1992187 z m 0,0"
         style="fill:#eb0a36;fill-opacity:1;fill-rule:nonzero;stroke:none" />
      <path
         id="path14"
         d="m 22.178969,-3.9830859 h 0.855468 c 0.199219,0 0.304688,0 0.304688,-0.1992188 0,-0.1054687 -0.105469,-0.1054687 -0.269531,-0.1054687 H 22.237562 L 22.4485,-5.4244922 c 0.03516,-0.2109375 0.175781,-0.9140625 0.234375,-1.0429687 0.09375,-0.1875 0.257812,-0.3398438 0.46875,-0.3398438 0.04687,0 0.304687,0 0.492187,0.1875 -0.433593,0.035156 -0.539062,0.3867188 -0.539062,0.5390625 0,0.2226563 0.175781,0.3398438 0.363281,0.3398438 0.269531,0 0.550781,-0.2109375 0.550781,-0.5976563 0,-0.4570312 -0.457031,-0.6796875 -0.867187,-0.6796875 -0.339844,0 -0.960938,0.1757813 -1.265625,1.1601563 -0.05859,0.2109375 -0.08203,0.3164062 -0.328125,1.5703125 h -0.679688 c -0.199218,0 -0.304687,0 -0.304687,0.1875 0,0.1171875 0.09375,0.1171875 0.28125,0.1171875 H 21.511 l -0.75,3.93749996 c -0.175781,0.9609375 -0.339844,1.87500004 -0.867188,1.87500004 -0.03516,0 -0.28125,0 -0.46875,-0.1875 0.457032,-0.023437 0.539063,-0.3867188 0.539063,-0.5390625 0,-0.22265629 -0.175781,-0.33984379 -0.363281,-0.33984379 -0.257813,0 -0.550782,0.2109375 -0.550782,0.59765629 0,0.4453125 0.433594,0.6796875 0.84375,0.6796875 0.550782,0 0.949219,-0.5859375 1.125,-0.9609375 0.328125,-0.63281254 0.550782,-1.83984379 0.5625,-1.91015629 z m 0,0"
         style="fill:#eb0a36;fill-opacity:1;fill-rule:nonzero;stroke:none" />
      <path
         id="path15"
         d="m 27.768812,2.3919141 c 0,-0.035156 0,-0.046875 -0.164062,-0.2226563 -1.242188,-1.25390624 -1.570313,-3.12890624 -1.570313,-4.6640625 0,-1.7226562 0.386719,-3.4570312 1.605469,-4.7109375 0.128906,-0.1171875 0.128906,-0.1289062 0.128906,-0.1640625 0,-0.070312 -0.03516,-0.1054687 -0.09375,-0.1054687 -0.105468,0 -0.996093,0.6796875 -1.582031,1.9453125 -0.515625,1.1015625 -0.632812,2.203125 -0.632812,3.0351562 0,0.7851563 0.117187,1.99218751 0.65625,3.11718751 0.597656,1.21874999 1.453125,1.87499999 1.558593,1.87499999 0.05859,0 0.09375,-0.035156 0.09375,-0.1054687 z m 0,0"
         style="fill:#eb0a36;fill-opacity:1;fill-rule:nonzero;stroke:none" />
      <path
         id="path16"
         d="m 31.677016,-3.0104297 c 0.05859,-0.2578125 0.292968,-1.171875 0.984375,-1.171875 0.04687,0 0.292968,0 0.503906,0.1289063 -0.28125,0.046875 -0.480469,0.3046875 -0.480469,0.5390625 0,0.1640625 0.105469,0.3515625 0.375,0.3515625 0.222656,0 0.539063,-0.1875 0.539063,-0.5859375 0,-0.515625 -0.585938,-0.65625 -0.925782,-0.65625 -0.574218,0 -0.925781,0.5273437 -1.042968,0.7617187 -0.257813,-0.65625 -0.785157,-0.7617187 -1.078125,-0.7617187 -1.042969,0 -1.605469,1.2890625 -1.605469,1.5351562 0,0.1054688 0.105469,0.1054688 0.117187,0.1054688 0.08203,0 0.117188,-0.023437 0.128907,-0.1171875 0.339843,-1.0546875 0.996093,-1.3007813 1.335937,-1.3007813 0.1875,0 0.539063,0.09375 0.539063,0.6679688 0,0.3046875 -0.164063,0.9726562 -0.539063,2.3671875 -0.152344,0.62109371 -0.503906,1.04296871 -0.949219,1.04296871 -0.05859,0 -0.28125,0 -0.492187,-0.12890625 0.246094,-0.0585938 0.46875,-0.26953125 0.46875,-0.5390625 0,-0.26953126 -0.222656,-0.35156246 -0.375,-0.35156246 -0.292969,0 -0.539063,0.25781246 -0.539063,0.57421871 0,0.45703125 0.492188,0.65625 0.9375,0.65625 0.65625,0 1.007813,-0.69140625 1.042969,-0.75 0.117188,0.36328125 0.480469,0.75 1.078125,0.75 1.019531,0 1.59375,-1.27734371 1.59375,-1.53515621 0,-0.09375 -0.09375,-0.09375 -0.128906,-0.09375 -0.08203,0 -0.105469,0.035156 -0.128906,0.1054687 -0.328125,1.06640626 -0.996094,1.31250001 -1.324219,1.31250001 -0.386719,0 -0.539063,-0.328125 -0.539063,-0.65625 0,-0.22265625 0.05859,-0.44531251 0.164063,-0.87890621 z m 0,0"
         style="fill:#eb0a36;fill-opacity:1;fill-rule:nonzero;stroke:none" />
      <path
         id="path17"
         d="m 36.927016,-2.4948047 c 0,-0.7734375 -0.117188,-1.9804687 -0.65625,-3.1054687 -0.597657,-1.21875 -1.464844,-1.875 -1.558594,-1.875 -0.05859,0 -0.105469,0.046875 -0.105469,0.1054687 0,0.035156 0,0.046875 0.199219,0.234375 0.972656,0.984375 1.535156,2.5664063 1.535156,4.640625 0,1.71093751 -0.363281,3.45703126 -1.59375,4.7226563 -0.140625,0.1171875 -0.140625,0.1289062 -0.140625,0.1640625 0,0.058594 0.04687,0.1054687 0.105469,0.1054687 0.09375,0 0.996094,-0.6796875 1.582031,-1.94531249 0.503906,-1.1015625 0.632813,-2.20312501 0.632813,-3.04687501 z m 0,0"
         style="fill:#eb0a36;fill-opacity:1;fill-rule:nonzero;stroke:none" />
    </g>
    <path
       id="path18"
       d="M 22.67752,0 V 11.33876"
       style="fill:none;stroke:#ec008c;stroke-width:0.3985;stroke-linecap:butt;stroke-linejoin:miter;stroke-miterlimit:10;stroke-dasharray:2.98883, 2.98883;stroke-dashoffset:0;stroke-opacity:1"
       transform="matrix(1.3333333,0,0,-1.3333333,98.533333,268.384)" />
    <path
       id="path19"
       d="M 136.0652,0 V 7.48361"
       style="fill:none;stroke:#ec008c;stroke-width:0.3985;stroke-linecap:butt;stroke-linejoin:miter;stroke-miterlimit:10;stroke-dasharray:2.98883, 2.98883;stroke-dashoffset:0;stroke-opacity:1"
       transform="matrix(1.3333333,0,0,-1.3333333,98.533333,268.384)" />
    <path
       id="path20"
       d="M 63.49713,0 V 113.38766"
       style="fill:none;stroke:#000080;stroke-width:0.3985;stroke-linecap:butt;stroke-linejoin:miter;stroke-miterlimit:10;stroke-dasharray:2.98883, 2.98883;stroke-dashoffset:0;stroke-opacity:1"
       transform="matrix(1.3333333,0,0,-1.3333333,98.533333,268.384)" />
    <path
       id="path21"
       d="M 72.56802,0 V 113.38766"
       style="fill:none;stroke:#000080;stroke-width:0.3985;stroke-linecap:butt;stroke-linejoin:miter;stroke-miterlimit:10;stroke-dasharray:2.98883, 2.98883;stroke-dashoffset:0;stroke-opacity:1"
       transform="matrix(1.3333333,0,0,-1.3333333,98.533333,268.384)" />
    <path
       id="path22"
       d="m 3.7142031,-3.7606562 c -0.1757812,-0.375 -0.46875,-0.6445313 -0.9140625,-0.6445313 -1.171875,0 -2.40234373,1.4648438 -2.40234373,2.9179688 0,0.93749995 0.55078125,1.59374995 1.32421873,1.59374995 0.1992188,0 0.703125,-0.03515625 1.3007813,-0.73828125 0.070312,0.41015625 0.421875,0.73828125 0.9023437,0.73828125 0.3515625,0 0.5742188,-0.22265625 0.7382813,-0.5390625 0.1640625,-0.36328125 0.2929687,-0.97265625 0.2929687,-0.99609375 0,-0.09375 -0.082031,-0.09375 -0.1171875,-0.09375 -0.09375,0 -0.1054687,0.035156 -0.140625,0.1757813 -0.1640625,0.6445312 -0.3515625,1.24218745 -0.75,1.24218745 -0.2695312,0 -0.3046875,-0.2578125 -0.3046875,-0.45703125 0,-0.22265625 0.023437,-0.3046875 0.1289063,-0.7382812 0.1171875,-0.421875 0.1289062,-0.5273438 0.2226562,-0.9023438 l 0.3515625,-1.3945312 c 0.070312,-0.28125 0.070312,-0.2929688 0.070312,-0.3398438 0,-0.1640625 -0.1171875,-0.2695312 -0.28125,-0.2695312 -0.2460937,0 -0.3867187,0.2226562 -0.4218745,0.4453125 z m -0.6445312,2.578125 c -0.046875,0.1757812 -0.046875,0.1992187 -0.1992188,0.3632812 -0.4453125,0.55078125 -0.84375,0.71484375 -1.125,0.71484375 -0.5039062,0 -0.6445312,-0.55078125 -0.6445312,-0.93749995 0,-0.5039063 0.328125,-1.7226563 0.5507812,-2.1796875 0.3046875,-0.5976563 0.7617188,-0.9609375 1.1601563,-0.9609375 0.6445312,0 0.7851562,0.8203125 0.7851562,0.8789062 0,0.058594 -0.023437,0.1171875 -0.035156,0.1640625 z m 0,0"
       style="fill:#ec008c;fill-opacity:1;fill-rule:nonzero;stroke:none"
       aria-label="a"
       transform="matrix(1.3333333,0,0,1.3333333,125.25867,279.21733)" />
    <g
       id="g22"
       aria-label="t&#10;1"
       transform="matrix(1.3333333,0,0,1.3333333,167.32533,281.668)">
      <path
         id="path23"
         d="m 2.0499453,-3.9843984 h 0.9375 c 0.1992188,0 0.3046875,0 0.3046875,-0.1992188 0,-0.1054687 -0.1054687,-0.1054687 -0.28125,-0.1054687 H 2.1319766 c 0.3632812,-1.4179688 0.4101562,-1.6171875 0.4101562,-1.6757813 0,-0.1757812 -0.1171875,-0.2695312 -0.2929687,-0.2695312 -0.023437,0 -0.3046875,0.011719 -0.3984375,0.3515625 l -0.3867188,1.59375 H 0.52650781 c -0.19921875,0 -0.29296875,0 -0.29296875,0.1875 0,0.1171875 0.0703125,0.1171875 0.26953125,0.1171875 H 1.3819766 c -0.71484379,2.8242187 -0.75000004,2.99999996 -0.75000004,3.17578121 0,0.5390625 0.37500004,0.9140625 0.91406254,0.9140625 1.0078125,0 1.5820312,-1.45312501 1.5820312,-1.53515621 0,-0.09375 -0.082031,-0.09375 -0.1171875,-0.09375 -0.09375,0 -0.1054687,0.023437 -0.1523437,0.140625 -0.4335938,1.03124996 -0.9609375,1.27734371 -1.3007813,1.27734371 -0.1992187,0 -0.3046875,-0.12890625 -0.3046875,-0.45703125 0,-0.24609375 0.023437,-0.31640625 0.058594,-0.48046876 z m 0,0"
         style="fill:#000080;fill-opacity:1;fill-rule:nonzero;stroke:none" />
      <path
         id="path24"
         d="m 5.9288516,-2.9355703 c 0,-0.1875 -0.011719,-0.1992188 -0.2109375,-0.1992188 -0.4453125,0.4335938 -1.078125,0.4453125 -1.359375,0.4453125 v 0.2460938 c 0.1640625,0 0.6210937,0 1.0078125,-0.1875 v 3.55078124 c 0,0.23437496 0,0.32812496 -0.6914063,0.32812496 H 4.4054141 v 0.2460938 c 0.1289062,-0.011719 0.984375,-0.023437 1.2421875,-0.023437 0.2109375,0 1.0898437,0.011719 1.2421875,0.023437 V 1.2480234 H 6.6319766 c -0.703125,0 -0.703125,-0.09375 -0.703125,-0.32812496 z m 0,0"
         style="fill:#000080;fill-opacity:1;fill-rule:nonzero;stroke:none" />
    </g>
    <g
       id="g24"
       aria-label="t&#10;2"
       transform="matrix(1.3333333,0,0,1.3333333,200.40267,281.668)">
      <path
         id="path25"
         d="m 2.0505391,-3.9843984 h 0.9375 c 0.1992187,0 0.3046875,0 0.3046875,-0.1992188 0,-0.1054687 -0.1054688,-0.1054687 -0.28125,-0.1054687 H 2.1325703 c 0.3632813,-1.4179688 0.4101563,-1.6171875 0.4101563,-1.6757813 0,-0.1757812 -0.1171875,-0.2695312 -0.2929688,-0.2695312 -0.023437,0 -0.3046875,0.011719 -0.3984375,0.3515625 l -0.3867187,1.59375 H 0.52710156 c -0.19921875,0 -0.29296875,0 -0.29296875,0.1875 0,0.1171875 0.0703125,0.1171875 0.26953125,0.1171875 H 1.3825703 c -0.71484374,2.8242187 -0.74999999,2.99999996 -0.74999999,3.17578121 0,0.5390625 0.37499999,0.9140625 0.91406249,0.9140625 1.0078125,0 1.5820313,-1.45312501 1.5820313,-1.53515621 0,-0.09375 -0.082031,-0.09375 -0.1171875,-0.09375 -0.09375,0 -0.1054688,0.023437 -0.1523438,0.140625 -0.4335937,1.03124996 -0.9609375,1.27734371 -1.3007812,1.27734371 -0.1992188,0 -0.3046875,-0.12890625 -0.3046875,-0.45703125 0,-0.24609375 0.023437,-0.31640625 0.058594,-0.48046876 z m 0,0"
         style="fill:#000080;fill-opacity:1;fill-rule:nonzero;stroke:none" />
      <path
         id="path26"
         d="m 7.1130391,0.22849219 h -0.234375 c -0.023437,0.15234375 -0.082031,0.5625 -0.1757813,0.6328125 -0.058594,0.0351563 -0.5976562,0.0351563 -0.6914062,0.0351563 H 4.7224141 c 0.7382812,-0.64453125 0.984375,-0.84375 1.3945312,-1.171875 0.515625,-0.41015625 0.9960938,-0.84374999 0.9960938,-1.49999999 0,-0.8437501 -0.7382813,-1.3593751 -1.6289063,-1.3593751 -0.8671875,0 -1.453125,0.609375 -1.453125,1.2421875 0,0.3632813 0.3046875,0.3984375 0.375,0.3984375 0.1640625,0 0.375,-0.1171875 0.375,-0.375 0,-0.1289062 -0.058594,-0.3632812 -0.421875,-0.3632812 0.2226563,-0.5039063 0.6914063,-0.65625 1.0195313,-0.65625 0.703125,0 1.0664062,0.5507812 1.0664062,1.1132813 0,0.609375 -0.4335937,1.08984374 -0.65625,1.33593749 l -1.6875,1.66406241 c -0.070312,0.058594 -0.070312,0.070312 -0.070312,0.2695313 h 2.8828125 z m 0,0"
         style="fill:#000080;fill-opacity:1;fill-rule:nonzero;stroke:none" />
    </g>
    <path
       id="path27"
       d="M 68.0326,0 V 136.0652"
       style="fill:none;stroke:#ec008c;stroke-width:0.3985;stroke-linecap:butt;stroke-linejoin:miter;stroke-miterlimit:10;stroke-dasharray:2.98883, 2.98883;stroke-dashoffset:0;stroke-opacity:1"
       transform="matrix(1.3333333,0,0,-1.3333333,98.533333,268.384)" />
    <path
       id="path28"
       d="m 2.3790781,-6.8081797 c 0,0 0,-0.1054687 -0.1289062,-0.1054687 -0.2226563,0 -0.9492188,0.082031 -1.21875,0.1054687 -0.0703125,0 -0.18750003,0.011719 -0.18750003,0.1992188 0,0.1171875 0.09375,0.1171875 0.24609373,0.1171875 0.46875,0 0.4921875,0.070312 0.4921875,0.1640625 0,0.070312 -0.082031,0.4101562 -0.140625,0.6210937 l -0.80859373,3.2460938 c -0.12890625,0.5039062 -0.1640625,0.65625 -0.1640625,1.0078125 0,0.94921871 0.52734375,1.55859371 1.26562503,1.55859371 1.171875,0 2.4023437,-1.47656251 2.4023437,-2.91796871 0,-0.9023438 -0.5273437,-1.59375 -1.3242187,-1.59375 -0.4570313,0 -0.8671875,0.2929687 -1.171875,0.5976562 z m -0.9375,3.7734375 c 0.058594,-0.2226562 0.058594,-0.2460937 0.1523438,-0.3515625 0.4921875,-0.6445312 0.9375,-0.796875 1.1953125,-0.796875 0.3632812,0 0.6328125,0.2929688 0.6328125,0.9375 0,0.5859375 -0.328125,1.734375 -0.515625,2.109375 -0.328125,0.66796876 -0.7851563,1.03125001 -1.171875,1.03125001 -0.3398438,0 -0.6679688,-0.26953125 -0.6679688,-1.00781251 0,-0.1875 0,-0.3867187 0.1640625,-1.0078125 z m 0,0"
       style="fill:#ec008c;fill-opacity:1;fill-rule:nonzero;stroke:none"
       aria-label="b"
       transform="matrix(1.3333333,0,0,1.3333333,277.10133,279.69867)" />
    <path
       id="path29"
       d="m 3.9486094,-3.7840937 c -0.1640625,0 -0.3046875,0 -0.4453125,0.140625 -0.1523438,0.1523437 -0.1757813,0.3164062 -0.1757813,0.3867187 0,0.234375 0.1757813,0.3515625 0.3632813,0.3515625 0.2929687,0 0.5625,-0.2460937 0.5625,-0.6445312 0,-0.4804688 -0.46875,-0.8554688 -1.171875,-0.8554688 -1.3476563,0 -2.67187503,1.4296875 -2.67187503,2.8359375 0,0.890625 0.57421875,1.67578125 1.61718753,1.67578125 1.4179687,0 2.2617187,-1.0546875 2.2617187,-1.17187495 0,-0.058594 -0.070312,-0.1289063 -0.1289062,-0.1289063 -0.046875,0 -0.070312,0.023437 -0.1289063,0.09375 -0.7851562,0.99609375 -1.875,0.99609375 -1.9921875,0.99609375 -0.6210937,0 -0.890625,-0.4921875 -0.890625,-1.08984375 0,-0.4101562 0.1992188,-1.3710937 0.5390625,-1.9921875 0.3046875,-0.5625 0.8554688,-0.9960937 1.40625,-0.9960937 0.328125,0 0.7148438,0.1289062 0.8554688,0.3984375 z m 0,0"
       style="fill:#ec008c;fill-opacity:1;fill-rule:nonzero;stroke:none"
       aria-label="c"
       transform="matrix(1.3333333,0,0,1.3333333,186.368,279.21733)" />
  </g>
</svg>
