<?xml version="1.0" encoding="UTF-8" standalone="no"?>
<!-- Created with Inkscape (http://www.inkscape.org/) -->

<svg
   version="1.1"
   id="svg1"
   width="343.67038"
   height="191.80536"
   viewBox="0 0 343.67038 191.80536"
   sodipodi:docname="7.8-region-S-general.svg"
   inkscape:version="1.4.2 (f4327f4, 2025-05-13)"
   xmlns:inkscape="http://www.inkscape.org/namespaces/inkscape"
   xmlns:sodipodi="http://sodipodi.sourceforge.net/DTD/sodipodi-0.dtd"
   xmlns="http://www.w3.org/2000/svg"
   xmlns:svg="http://www.w3.org/2000/svg">
  <defs
     id="defs1" />
  <sodipodi:namedview
     id="namedview1"
     pagecolor="#ffffff"
     bordercolor="#000000"
     borderopacity="0.25"
     inkscape:showpageshadow="2"
     inkscape:pageopacity="0.0"
     inkscape:pagecheckerboard="0"
     inkscape:deskcolor="#d1d1d1"
     inkscape:zoom="2.2241536"
     inkscape:cx="203.89779"
     inkscape:cy="111.72789"
     inkscape:window-width="1920"
     inkscape:window-height="1009"
     inkscape:window-x="-8"
     inkscape:window-y="-8"
     inkscape:window-maximized="1"
     inkscape:current-layer="g1">
    <inkscape:page
       x="5.6019921e-08"
       y="4.1009062e-07"
       inkscape:label="3"
       id="page1"
       width="343.67038"
       height="191.80536"
       margin="0"
       bleed="0" />
  </sodipodi:namedview>
  <g
     id="g1"
     inkscape:groupmode="layer"
     inkscape:label="3"
     transform="translate(-38.060093,-69.781249)">
    <path
       id="path2"
       d="M -25.51193,0 H 229.1493"
       style="fill:none;stroke:#000000;stroke-width:0.3985;stroke-linecap:butt;stroke-linejoin:miter;stroke-miterlimit:10;stroke-dasharray:none;stroke-opacity:1"
       transform="matrix(1.3333333,0,0,-1.3333333,72.076,244.57867)" />
    <path
       id="path3"
       d="M -1.19551,1.59401 C -1.09587,0.99626 0,0.09961 0.29886,0 0,-0.09961 -1.09587,-0.99626 -1.19551,-1.59401"
       style="fill:none;stroke:#000000;stroke-width:0.31879;stroke-linecap:round;stroke-linejoin:round;stroke-miterlimit:10;stroke-dasharray:none;stroke-opacity:1"
       transform="matrix(1.3333333,0,0,-1.3333333,377.6084,244.57867)" />
    <path
       id="path4"
       d="m 3.6434766,-3.294125 c 0.070312,-0.28125 0.3164062,-1.2890625 1.078125,-1.2890625 0.058594,0 0.3164062,0 0.5507812,0.140625 -0.3046875,0.058594 -0.5273437,0.328125 -0.5273437,0.5859375 0,0.1757813 0.1171875,0.3867188 0.4101562,0.3867188 0.2460938,0 0.5976563,-0.1992188 0.5976563,-0.6328125 0,-0.5625 -0.6445313,-0.7265625 -1.0195313,-0.7265625 -0.6328125,0 -1.0195312,0.5859375 -1.1484375,0.8320312 -0.2695312,-0.7148437 -0.8554687,-0.8320312 -1.171875,-0.8320312 -1.1367187,0 -1.75781249,1.4179687 -1.75781249,1.6875 0,0.1054687 0.10546875,0.1054687 0.12890625,0.1054687 0.0820313,0 0.1171875,-0.023437 0.140625,-0.1171875 0.37500004,-1.1601562 1.08984374,-1.4296875 1.46484374,-1.4296875 0.2109375,0 0.5859375,0.09375 0.5859375,0.7265625 0,0.3398438 -0.1875,1.078125 -0.5859375,2.6015625 -0.1757812,0.6796875 -0.5625,1.13671875 -1.0429687,1.13671875 -0.058594,0 -0.3164063,0 -0.53906254,-0.140625 C 1.0770703,-0.3175625 1.3231641,-0.5519375 1.3231641,-0.856625 c 0,-0.2929687 -0.2460938,-0.375 -0.41015629,-0.375 -0.328125,0 -0.59765625,0.28125 -0.59765625,0.6328125 0,0.50390625 0.55078125,0.71484375 1.03125004,0.71484375 0.7148437,0 1.1015625,-0.76171875 1.1367187,-0.83203125 0.1289063,0.41015625 0.5273438,0.83203125 1.1835938,0.83203125 1.125,0 1.7460937,-1.40624995 1.7460937,-1.67578125 0,-0.1054687 -0.1054687,-0.1054687 -0.1289062,-0.1054687 -0.1054688,0 -0.1289063,0.035156 -0.140625,0.1171875 -0.3632813,1.1601562 -1.1132813,1.42968745 -1.453125,1.42968745 -0.4335938,0 -0.609375,-0.3515625 -0.609375,-0.7265625 0,-0.23437495 0.070312,-0.48046875 0.1875,-0.96093745 z m 0,0"
       style="fill:#000000;fill-opacity:1;fill-rule:nonzero;stroke:none"
       aria-label="x"
       transform="matrix(1.3333333,0,0,1.3333333,374.06,255.95467)" />
    <path
       id="path5"
       d="M 0,-12.75595 V 127.10149"
       style="fill:none;stroke:#000000;stroke-width:0.3985;stroke-linecap:butt;stroke-linejoin:miter;stroke-miterlimit:10;stroke-dasharray:none;stroke-opacity:1"
       transform="matrix(1.3333333,0,0,-1.3333333,72.076,244.57867)" />
    <path
       id="path6"
       d="M -1.19551,1.59401 C -1.09587,0.99626 0,0.09961 0.29886,0 0,-0.09961 -1.09587,-0.99626 -1.19551,-1.59401"
       style="fill:none;stroke:#000000;stroke-width:0.31879;stroke-linecap:round;stroke-linejoin:round;stroke-miterlimit:10;stroke-dasharray:none;stroke-opacity:1"
       transform="matrix(0,-1.3333333,-1.3333333,0,72.076,75.110013)" />
    <path
       id="path7"
       d="m 5.2963203,-4.1600937 c 0.046875,-0.1523438 0.046875,-0.1757813 0.046875,-0.2460938 0,-0.1992187 -0.1523437,-0.2929687 -0.3164062,-0.2929687 -0.1054688,0 -0.28125,0.058594 -0.375,0.2226562 -0.023437,0.058594 -0.1171875,0.3984375 -0.1523438,0.5976563 -0.082031,0.28125 -0.1523437,0.5742187 -0.2226562,0.8671875 l -0.4921875,1.96875 c -0.046875,0.16406245 -0.515625,0.9257812 -1.2304688,0.9257812 -0.5625,0 -0.6796875,-0.48046875 -0.6796875,-0.890625 0,-0.4921875 0.1875,-1.171875 0.5625,-2.1328125 0.1757813,-0.4453125 0.2109375,-0.5742187 0.2109375,-0.7851562 0,-0.4921875 -0.3515625,-0.9023438 -0.890625,-0.9023438 -1.04296874,0 -1.44140624,1.5820313 -1.44140624,1.6875 0,0.1054688 0.10546875,0.1054688 0.12890625,0.1054688 0.10546875,0 0.1171875,-0.023437 0.17578125,-0.1992188 0.29296875,-1.0195312 0.72656254,-1.3476562 1.10156254,-1.3476562 0.09375,0 0.2695312,0 0.2695312,0.3515625 0,0.2695312 -0.1054687,0.5507812 -0.1757812,0.7617187 -0.4453125,1.1601563 -0.6328125,1.78125 -0.6328125,2.2851563 0,0.9726562 0.6796875,1.3007812 1.3242187,1.3007812 0.421875,0 0.796875,-0.1875 1.1015625,-0.4921875 -0.140625,0.57421875 -0.2695312,1.1015625 -0.703125,1.6875 C 2.6127266,1.6758438 2.2025703,1.99225 1.6986641,1.99225 c -0.1523438,0 -0.6445313,-0.023437 -0.83203129,-0.4570312 0.17578129,0 0.31640629,0 0.48046879,-0.1289063 0.1054687,-0.09375 0.2109375,-0.234375 0.2109375,-0.4453125 0,-0.33984375 -0.2929688,-0.38671875 -0.3984375,-0.38671875 -0.25781254,0 -0.60937504,0.17578125 -0.60937504,0.71484375 0,0.5390625 0.48046874,0.9492188 1.14843754,0.9492188 1.125,0 2.25,-0.9960938 2.5546875,-2.22656255 z m 0,0"
       style="fill:#000000;fill-opacity:1;fill-rule:nonzero;stroke:none"
       aria-label="y"
       transform="matrix(1.3333333,0,0,1.3333333,59.309333,76.218667)" />
    <path
       id="path8"
       d="m 25.51193,83.10652 0.5127,1.19588 0.51267,1.16939 0.51269,1.13905 0.51268,1.11023 0.51269,1.07715 0.51268,1.04326 0.51267,1.00863 0.51271,0.97321 0.51266,0.93466 0.5127,0.89575 0.51266,0.85757 0.51271,0.81478 0.51267,0.77194 0.51268,0.72913 0.51268,0.68515 0.51269,0.63997 0.5127,0.59326 0.51266,0.54771 0.51271,0.49788 0.51267,0.45041 0.51269,0.40097 0.51267,0.35152 0.5127,0.3017 0.51268,0.25224 0.51268,0.20009 0.51267,0.14793 0.5127,0.0985 0.5127,0.0475 0.51266,-0.005 0.51268,-0.0569 0.5127,-0.10664 0.51268,-0.16039 0.51268,-0.20983 0.51268,-0.26081 0.51269,-0.31143 0.51268,-0.36164 0.51268,-0.40991 0.5127,-0.45935 0.51266,-0.5088 0.5127,-0.55628 0.51268,-0.60183 0.51269,-0.64893 0.51268,-0.69332 0.51268,-0.7369 0.51268,-0.78128 0.51268,-0.82373 0.5127,-0.8642 0.51266,-0.90353 0.5127,-0.94245 0.51268,-0.97905 0.51269,-1.01523 0.51269,-1.05107 0.51267,-1.08376 0.5127,-1.1149 0.51266,-1.14605 0.5127,-1.17367 0.51268,-1.20055 0.51269,-1.2274 0.51267,-1.25076 0.51269,-1.27297 0.51268,-1.29358 0.51268,-1.31189 0.5127,-1.32898 0.51266,-1.34343 0.51272,-1.35974 0.51266,-1.36912 0.5127,-1.38001 0.51266,-1.38659 0.51271,-1.39481 0.51267,-1.3983 0.51268,-1.40143 0.51269,-1.40256 0.51268,-1.4022 0.5127,-1.39908 0.51266,-1.3944 0.51271,-1.38818 0.51267,-1.38039 0.51268,-1.37106 0.51268,-1.35975 0.51269,-1.34731 0.51268,-1.33212 0.51268,-1.31539 0.5127,-1.29825 0.51268,-1.27879 0.51269,-1.25775 0.51267,-1.23521 0.51268,-1.2126 0.51269,-1.18575 0.51269,-1.16005 0.51267,-1.13205 0.51268,-1.10362 0.5127,-1.07285 0.51268,-1.04171 0.51268,-1.0102 0.51269,-0.97515 0.51268,-0.94088 0.51268,-0.90625 0.51268,-0.86926 0.5127,-0.83231 0.51268,-0.79529 0.51268,-0.75639 0.51268,-0.71742 0.51268,-0.67775 0.51269,-0.63841 0.51268,-0.59677 0.51268,-0.55667 0.5127,-0.51621 0.51268,-0.47298 0.51268,-0.43248 0.51267,-0.39239 0.51271,-0.34918 0.51266,-0.30793 0.51269,-0.26704 0.51269,-0.22618 0.51269,-0.18453 0.51267,-0.14441 0.51269,-0.10472 0.5127,-0.06306 0.51266,-0.02492 0.5127,0.01285 0.51266,0.05217 0.51271,0.08952 0.51267,0.12535 0.51269,0.16196 0.51267,0.19736 0.51269,0.23045 0.51268,0.26393 0.51268,0.29664 0.5127,0.32777 0.51268,0.35698 0.51269,0.38693 0.51267,0.41382 0.51271,0.44067 0.51266,0.46597 0.51268,0.49048 0.51268,0.5123 0.5127,0.53371 0.51268,0.55435 0.51268,0.57262 0.51269,0.59015 0.51268,0.60495 0.51268,0.61973 0.51268,0.63179 0.51269,0.64388 0.51269,0.65321 0.51268,0.66177 0.51268,0.66802 0.51268,0.67386 0.51269,0.67695 0.51268,0.67929 0.51269,0.68087 0.51269,0.67927 0.51268,0.67774 0.51268,0.67349 0.51268,0.66838 0.5127,0.66179 0.51268,0.65359 0.51266,0.64464 0.5127,0.63414 0.51268,0.62207 0.51269,0.60689 0.51268,0.59367 0.51268,0.5777 0.5127,0.56056 0.51268,0.54189 0.51268,0.52318 0.51266,0.5018 0.51271,0.48036 0.51267,0.45779 0.51269,0.43561 0.51268,0.40991 0.5127,0.38578 0.51268,0.36008 0.51266,0.33207 0.51271,0.30441 0.51267,0.27716 0.51269,0.24915 0.51267,0.21994 0.51271,0.18997 0.51266,0.16078 0.5127,0.12964 0.51266,0.09924 0.5127,0.06891 0.51269,0.03775 0.51267,0.0078 0.51269,-0.02298 0.51268,-0.05527 0.5127,-0.08525 0.51266,-0.11522 0.5127,-0.14676 0.51268,-0.17634 0.51268,-0.20516 0.51268,-0.23472 0.5127,-0.26512 0.51269,-0.29235 0.51267,-0.31959 0.51269,-0.34725 0.51268,-0.37292 0.51268,-0.39786"
       style="fill:none;stroke:#eb0a36;stroke-width:0.79701;stroke-linecap:butt;stroke-linejoin:miter;stroke-miterlimit:10;stroke-dasharray:none;stroke-opacity:1"
       transform="matrix(1.3333333,0,0,-1.3333333,72.076,244.57867)" />
    <path
       id="path9"
       d="m 127.55977,47.96259 0.44844,-0.35699 0.44846,-0.3554 0.44843,-0.3527 0.44846,-0.34997 0.44844,-0.34761 0.44847,-0.34529 0.44844,-0.34337 0.44846,-0.34061 0.44846,-0.3379 0.44845,-0.33554 0.44846,-0.33364 0.44846,-0.33165 0.44845,-0.32972 0.44844,-0.32662 0.44845,-0.32466 0.44845,-0.32271 0.44845,-0.32077 0.44847,-0.31845 0.44844,-0.31646 0.44846,-0.31415 0.44844,-0.3091 0.44845,-0.31221 0.44845,-0.30829 0.44847,-0.30676 0.44845,-0.30481 0.44844,-0.30131 0.44846,-0.30051 0.44844,-0.29819 0.44846,-0.29626 0.44845,-0.29468 0.44846,-0.29196 0.44845,-0.29119 0.44846,-0.28923 0.44845,-0.28729 0.44846,-0.28496 0.44846,-0.28378 0.44844,-0.28145 0.44845,-0.28105 0.44845,-0.27759 0.44845,-0.27636 0.44845,-0.27523 0.44846,-0.27327 0.44846,-0.27135 0.44844,-0.27015 0.44845,-0.26781 0.44844,-0.26706 0.44847,-0.26473 0.44844,-0.26353 0.44846,-0.26197 0.44846,-0.25967 0.44844,-0.25924 0.44845,-0.25733 0.44846,-0.25576 0.44845,-0.2538 0.44846,-0.25266 0.44846,-0.25148 0.44844,-0.24953 0.44845,-0.24874 0.44847,-0.24642 0.44844,-0.24525 0.44846,-0.24369 0.44844,-0.2425 0.44846,-0.24176 0.44844,-0.23941 0.44847,-0.23864 0.44844,-0.23668 0.44845,-0.23588 0.44846,-0.23436 0.44844,-0.23279 0.44846,-0.23163 0.44845,-0.23045 0.44846,-0.2293 0.44844,-0.22811 0.44845,-0.22617 0.44846,-0.22539 0.44844,-0.22345 0.44847,-0.22345 0.44846,-0.22111 0.44845,-0.22074 0.44844,-0.21916 0.44846,-0.21798 0.44844,-0.21644 0.44847,-0.21568 0.44846,-0.21448 0.44843,-0.21333 0.44846,-0.21216 0.44844,-0.21098 0.44846,-0.20982 0.44846,-0.20867 0.44845,-0.20747 0.44846,-0.20632 0.44844,-0.20555 0.44845,-0.20437 0.44844,-0.2032 0.44847,-0.20205 0.44845,-0.20125 0.44845,-0.19932 0.44844,-0.19969 0.44846,-0.19776 0.44845,-0.19699 0.44847,-0.19542 0.44846,-0.19502 0.44844,-0.19426 0.44845,-0.1927 0.44845,-0.19229 0.44845,-0.19075 0.44846,-0.18958 0.44845,-0.18919 0.44846,-0.18764 0.44844,-0.18724 0.44846,-0.1857 0.44843,-0.18606 0.44848,-0.18413 0.44844,-0.18296 0.44845,-0.1822 0.44846,-0.18178 0.44844,-0.18024 0.44847,-0.18025 0.44844,-0.17866 0.44846,-0.17752 0.44844,-0.17713 0.44846,-0.17595 0.44845,-0.17557 0.44847,-0.17439 0.44846,-0.17361 0.44844,-0.17247 0.44845,-0.17168 0.44844,-0.17166 0.44846,-0.17052 0.44846,-0.16856 0.44845,-0.16893 0.44844,-0.16739 0.44846,-0.16739 0.44845,-0.16624 0.44844,-0.16504 0.44848,-0.16467 0.44844,-0.16311 0.44845,-0.16429 0.44844,-0.16192 0.44846,-0.16155 0.44845,-0.1604 0.44846,-0.15998 0.44846,-0.15961 0.44844,-0.15844 0.44845,-0.15765 0.44846,-0.15689 0.44845,-0.1561 0.44846,-0.15611 0.44846,-0.15494 0.44845,-0.15376 0.44844,-0.15337 0.44846,-0.1526 0.44844,-0.15222 0.44847,-0.15143 0.44844,-0.15065 0.44846,-0.14986 0.44845,-0.14909 0.44844,-0.14911 0.44846,-0.14792 0.44845,-0.14715 0.44846,-0.14637 0.44844,-0.14598 0.44846,-0.14598 0.44844,-0.14442 0.44845,-0.14403 0.44847,-0.14326 0.44845,-0.14287 0.44845,-0.14208 0.44845,-0.14131 0.44846,-0.14053 0.44844,-0.14092 0.44847,-0.13897 0.44844,-0.13938 0.44846,-0.1382 0.44846,-0.1378 0.44844,-0.13702 0.44845,-0.13703 0.44846,-0.13586 0.44845,-0.13547 0.44844,-0.13469 0.44846,-0.13431 0.44846,-0.13351 0.44844,-0.13355 0.44847,-0.13272 0.44844,-0.13159 0.44846,-0.13157 0.44843,-0.13042 0.44846,-0.13078 0.44844,-0.13002 0.44847,-0.12923 0.44846,-0.12888 0.44845,-0.12805 0.44846,-0.1273 0.44844,-0.1273 0.44846,-0.12614 0.44845,-0.12651 0.44846,-0.12535 0.44844,-0.12535 0.44845,-0.12417"
       style="fill:none;stroke:#eb0a36;stroke-width:0.79701;stroke-linecap:butt;stroke-linejoin:miter;stroke-miterlimit:10;stroke-dasharray:none;stroke-opacity:1"
       transform="matrix(1.3333333,0,0,-1.3333333,72.076,244.57867)" />
    <path
       id="path10"
       d="m 25.51193,83.10652 1.03043,2.37619 1.03042,2.25977 1.03045,2.1286 1.03042,1.98962 1.03045,1.83663 1.0304,1.67546 1.03043,1.50378 1.03043,1.32434 1.03042,1.13749 1.03044,0.94479 1.03041,0.74664 1.03045,0.5446 1.03044,0.33711 1.03041,0.13199 1.03044,-0.0752 1.03041,-0.28573 1.03044,-0.48972 1.03043,-0.69213 1.03041,-0.89379 1.03044,-1.08687 1.03042,-1.27569 1.03043,-1.45708 1.03044,-1.63071 1.03043,-1.79535 1.03042,-1.94951 1.03043,-2.09397 1.03043,-2.2259 1.03042,-2.3466 1.03043,-2.45482 1.03042,-2.5482 1.03043,-2.62885 1.03044,-2.69732 1.03043,-2.74832 1.03044,-2.78533 1.03042,-2.81021 1.03042,-2.81839 1.03044,-2.81179 1.03041,-2.79272 1.03044,-2.75805 1.03042,-2.70823 1.03042,-2.64788 1.03044,-2.57355 1.03044,-2.48634 1.03042,-2.38785 1.03043,-2.27963 1.03043,-2.15895 1.03042,-2.03129 1.03043,-1.89384 1.03042,-1.74905 1.03043,-1.59955 1.03044,-1.44036 1.03042,-1.28151 1.03043,-1.11723 1.03045,-0.94946 1.03041,-0.78361 1.03044,-0.61585 1.03042,-0.44884 1.03041,-0.28497 1.03044,-0.12262 1.03042,0.03388 1.03044,0.18568 1.03042,0.33362 1.03043,0.47142 1.03044,0.60378 1.03043,0.72678 1.03042,0.83889 1.03043,0.94479 1.03044,1.03744 1.03041,1.11919 1.03042,1.19159 1.03043,1.24998 1.03043,1.29709 1.03044,1.33173 1.03043,1.35626 1.03042,1.36559 1.03045,1.36482 1.0304,1.35199 1.03045,1.3251 1.03042,1.28893 1.03041,1.24179 1.03044,1.18303 1.03041,1.11529 1.03045,1.03782 1.03044,0.95141 1.03042,0.85719 1.03043,0.75638 1.03043,0.64892 1.03042,0.53683 1.03043,0.41887 1.03044,0.29975 1.03041,0.17478 1.03043,0.05179 1.03042,-0.07202 1.03045,-0.19776 1.03043,-0.32039 1.03041,-0.4391 1.03043,-0.55705 1.03044,-0.66802 1.03041,-0.77389 L 127.55977,0 h -1.03044 -1.03043 -1.03042 -1.03043 -1.03044 -1.03041 -1.03044 -1.03043 -1.03043 -1.03044 -1.03041 -1.03042 -1.03045 -1.03041 -1.03044 -1.03043 -1.03042 -1.03044 -1.03041 -1.03044 -1.03043 -1.03042 -1.03043 -1.03043 -1.03042 -1.03043 H 99.73819 98.70776 97.67734 96.64691 95.61649 94.58604 93.55563 92.52519 91.49477 90.46436 89.43391 88.40347 87.37305 86.34262 85.31221 84.28177 83.25134 82.22092 81.19049 80.16006 79.12962 78.0992 77.06876 76.03835 75.0079 73.9775 72.94707 71.91663 70.88622 69.85577 68.82533 67.79492 66.76448 65.73405 64.70363 63.6732 62.64279 61.61235 60.58192 59.5515 58.52106 57.49062 56.4602 55.42978 54.39934 53.36893 52.33849 51.30807 50.27765 49.24721 48.21678 47.18634 46.15591 45.1255 44.09506 43.06464 42.03421 41.00378 39.97336 38.94293 37.91249 36.88206 35.85164 34.8212 33.79079 32.76036 31.72992 30.69951 29.66907 28.63866 27.60822 26.57777 25.54736 Z"
       style="fill:#9999ff;fill-opacity:0.25;fill-rule:nonzero;stroke:none"
       transform="matrix(1.3333333,0,0,-1.3333333,72.076,244.57867)" />
    <path
       id="path11"
       d="m 127.55977,47.96259 0.90156,-0.71668 0.90159,-0.70538 0.90156,-0.69681 0.90158,-0.6863 0.90158,-0.67812 0.90158,-0.6684 0.90157,-0.65866 0.90158,-0.65128 0.90156,-0.64114 0.9016,-0.63336 0.90157,-0.62519 0.90156,-0.6174 0.90158,-0.60924 0.90157,-0.60026 0.90159,-0.59364 0.90157,-0.58628 0.90158,-0.57808 0.90157,-0.57145 0.90158,-0.56408 0.90158,-0.55706 0.90158,-0.55007 0.90158,-0.54382 0.90156,-0.53682 0.90159,-0.52982 0.90156,-0.52513 0.9016,-0.51735 0.90156,-0.51152 0.90159,-0.50529 0.90156,-0.50023 0.90157,-0.49361 0.90159,-0.48814 0.90157,-0.48273 0.90158,-0.47685 0.90156,-0.47144 0.90158,-0.46635 0.90159,-0.46091 0.90158,-0.45546 0.90158,-0.45079 0.90156,-0.44574 0.90158,-0.44066 0.90158,-0.43599 0.90158,-0.43092 0.90157,-0.42706 0.90158,-0.42197 0.90157,-0.41731 0.90156,-0.41264 0.9016,-0.40874 0.90156,-0.40448 0.90158,-0.39978 0.90157,-0.39591 0.90158,-0.39239 0.90158,-0.38733 0.90158,-0.38344 0.90157,-0.37955 0.90158,-0.37643 0.90158,-0.37216 0.90158,-0.36788 0.90158,-0.36476 0.90157,-0.36085 0.90158,-0.35814 0.90157,-0.35387 0.90159,-0.34996 0.90156,-0.34724 0.90157,-0.34334 0.90158,-0.34061 0.90157,-0.33674 0.90159,-0.33361 0.90157,-0.3305 0.90158,-0.32778 0.90156,-0.32429 0.90159,-0.32114 0.90158,-0.31804 0.90158,-0.31572 0.90156,-0.31219 0.90158,-0.30949 0.90158,-0.30674 0.90157,-0.30403 0.90159,-0.30052 0.90157,-0.29858 0.90158,-0.29586 0.90157,-0.29313 0.90156,-0.29041 0.90158,-0.28767 0.90158,-0.28496 0.90159,-0.28221 0.90156,-0.28109 0.90158,-0.27793 0.90158,-0.27523 0.90158,-0.27249 0.90157,-0.27093 0.90158,-0.26822 0.90157,-0.26589 0.90159,-0.26394 0.90158,-0.2612 0.90157,-0.25965 0.90158,-0.25692 0.90156,-0.255 0.90159,-0.25303 0.90156,-0.25069 L 216.85158,0 h -0.90158 -0.90157 -0.90159 -0.90157 -0.90158 -0.90157 -0.90158 -0.90158 -0.90158 -0.90158 -0.90156 -0.90159 -0.90158 -0.90158 -0.90156 -0.90157 -0.90156 -0.9016 -0.90158 -0.90157 -0.90158 -0.90156 -0.90158 -0.90158 -0.90158 -0.90157 -0.90158 -0.90158 -0.90158 -0.90159 -0.90156 -0.90157 -0.90156 -0.9016 -0.90156 -0.90158 -0.90157 -0.90158 -0.9016 -0.90156 -0.90158 -0.90157 -0.90158 -0.90158 -0.90158 -0.90157 -0.90158 -0.90158 -0.90156 -0.90158 -0.90157 -0.90158 -0.90157 -0.90158 -0.90158 -0.90158 -0.90158 -0.90156 -0.90158 -0.90159 -0.90158 -0.90156 -0.90159 -0.90156 -0.90159 -0.90157 -0.90157 -0.90158 -0.90156 -0.9016 -0.90157 -0.90157 -0.90157 -0.90158 -0.9016 -0.90156 -0.90158 -0.90157 -0.90158 -0.90157 -0.90159 -0.90157 -0.90158 -0.90156 -0.90157 -0.90159 -0.90157 -0.90158 -0.90157 -0.90158 -0.90158 -0.90158 -0.90158 -0.90157 -0.90158 -0.90157 -0.90159 -0.90156 -0.90158 l -0.0358,47.96259 z"
       style="fill:#9999ff;fill-opacity:0.25;fill-rule:nonzero;stroke:none"
       transform="matrix(1.3333333,0,0,-1.3333333,72.076,244.57867)" />
    <path
       id="path12"
       d="M 25.51193,0 V 83.09251"
       style="fill:none;stroke:#ec008c;stroke-width:0.3985;stroke-linecap:butt;stroke-linejoin:miter;stroke-miterlimit:10;stroke-dasharray:2.98883, 2.98883;stroke-dashoffset:0;stroke-opacity:1"
       transform="matrix(1.3333333,0,0,-1.3333333,72.076,244.57867)" />
    <g
       id="g12"
       aria-label="y=f(x)"
       transform="matrix(1.3333333,0,0,1.3333333,182.86,145.85333)">
      <path
         id="path13"
         d="m 4.839375,-3.7982031 c 0.046875,-0.140625 0.046875,-0.1523438 0.046875,-0.2226563 0,-0.1875 -0.140625,-0.2695312 -0.2929687,-0.2695312 -0.1054688,0 -0.2578125,0.058594 -0.3515625,0.1992187 -0.023437,0.058594 -0.09375,0.3632813 -0.140625,0.5390625 -0.070312,0.2578125 -0.140625,0.5273438 -0.1992188,0.796875 l -0.4453125,1.79296878 c -0.035156,0.15234375 -0.46875,0.85546875 -1.125,0.85546875 -0.5039062,0 -0.6210937,-0.4453125 -0.6210937,-0.80859375 0,-0.45703128 0.1757812,-1.07812498 0.515625,-1.95703128 0.1523437,-0.4101562 0.1992187,-0.515625 0.1992187,-0.7148437 0,-0.4453125 -0.328125,-0.8203125 -0.8203125,-0.8203125 -0.94921875,0 -1.3125,1.453125 -1.3125,1.5351562 0,0.1054688 0.09375,0.1054688 0.1171875,0.1054688 0.09375,0 0.10546875,-0.023437 0.15234375,-0.1875 C 0.8315625,-3.8919531 1.23,-4.1849219 1.5698438,-4.1849219 c 0.082031,0 0.2578125,0 0.2578125,0.3164063 0,0.2460937 -0.1054688,0.515625 -0.1757813,0.703125 -0.3984375,1.0546875 -0.5742187,1.6171875 -0.5742187,2.0859375 0,0.89062498 0.6210937,1.18359373 1.21875,1.18359373 0.3867187,0 0.7265625,-0.1640625 0.9960937,-0.4453125 C 3.1635938,0.17445313 3.0464063,0.66664063 2.6479688,1.1939844 2.3901563,1.5338281 2.0151563,1.8267969 1.558125,1.8267969 c -0.140625,0 -0.59765625,-0.035156 -0.76171875,-0.421875 0.1640625,0 0.29296875,0 0.43359375,-0.1171875 0.09375,-0.09375 0.1992188,-0.2226563 0.1992188,-0.41015627 0,-0.31640625 -0.2695313,-0.3515625 -0.375,-0.3515625 -0.2226563,0 -0.5507813,0.1640625 -0.5507813,0.64453127 0,0.5039062 0.43359375,0.8671875 1.0546875,0.8671875 1.0195313,0 2.0507813,-0.9023438 2.3320313,-2.02734377 z m 0,0"
         style="fill:#eb0a36;fill-opacity:1;fill-rule:nonzero;stroke:none" />
      <path
         id="path14"
         d="m 14.855977,-3.2591406 c 0.152343,0 0.339843,0 0.339843,-0.1992188 0,-0.1992187 -0.1875,-0.1992187 -0.328125,-0.1992187 H 8.9028516 c -0.140625,0 -0.328125,0 -0.328125,0.1992187 0,0.1992188 0.1875,0.1992188 0.3398437,0.1992188 z m 0.01172,1.9335937 c 0.140625,0 0.328125,0 0.328125,-0.1992187 0,-0.1992188 -0.1875,-0.1992188 -0.339843,-0.1992188 H 8.9145703 c -0.1523437,0 -0.3398437,0 -0.3398437,0.1992188 0,0.1992187 0.1875,0.1992187 0.328125,0.1992187 z m 0,0"
         style="fill:#eb0a36;fill-opacity:1;fill-rule:nonzero;stroke:none" />
      <path
         id="path15"
         d="m 22.177266,-3.9857031 h 0.855468 c 0.199219,0 0.304688,0 0.304688,-0.1992188 0,-0.1054687 -0.105469,-0.1054687 -0.269531,-0.1054687 h -0.832032 l 0.210938,-1.1367188 c 0.03516,-0.2109375 0.175781,-0.9140625 0.234375,-1.0429687 0.09375,-0.1875 0.257812,-0.3398438 0.46875,-0.3398438 0.04687,0 0.304687,0 0.492187,0.1875 -0.433593,0.035156 -0.539062,0.3867188 -0.539062,0.5390625 0,0.2226563 0.175781,0.3398438 0.363281,0.3398438 0.269531,0 0.550781,-0.2109375 0.550781,-0.5976563 0,-0.4570312 -0.457031,-0.6796875 -0.867187,-0.6796875 -0.339844,0 -0.960938,0.1757813 -1.265625,1.1601563 -0.05859,0.2109375 -0.08203,0.3164062 -0.328125,1.5703125 h -0.679688 c -0.199218,0 -0.304687,0 -0.304687,0.1875 0,0.1171875 0.09375,0.1171875 0.28125,0.1171875 h 0.65625 l -0.75,3.93749998 c -0.175781,0.9609375 -0.339844,1.87500002 -0.867188,1.87500002 -0.03516,0 -0.28125,0 -0.46875,-0.1875 0.457032,-0.023437 0.539063,-0.3867188 0.539063,-0.5390625 0,-0.22265627 -0.175781,-0.33984377 -0.363281,-0.33984377 -0.257813,0 -0.550782,0.2109375 -0.550782,0.59765627 0,0.4453125 0.433594,0.6796875 0.84375,0.6796875 0.550782,0 0.949219,-0.5859375 1.125,-0.9609375 0.328125,-0.63281252 0.550782,-1.83984377 0.5625,-1.91015627 z m 0,0"
         style="fill:#eb0a36;fill-opacity:1;fill-rule:nonzero;stroke:none" />
      <path
         id="path16"
         d="m 27.767109,2.3892969 c 0,-0.035156 0,-0.046875 -0.164062,-0.2226563 -1.242188,-1.25390622 -1.570313,-3.12890622 -1.570313,-4.6640625 0,-1.7226562 0.386719,-3.4570312 1.605469,-4.7109375 0.128906,-0.1171875 0.128906,-0.1289062 0.128906,-0.1640625 0,-0.070312 -0.03516,-0.1054687 -0.09375,-0.1054687 -0.105468,0 -0.996093,0.6796875 -1.582031,1.9453125 -0.515625,1.1015625 -0.632812,2.203125 -0.632812,3.0351562 0,0.7851563 0.117187,1.99218753 0.65625,3.11718753 0.597656,1.21874997 1.453125,1.87499997 1.558593,1.87499997 0.05859,0 0.09375,-0.035156 0.09375,-0.1054687 z m 0,0"
         style="fill:#eb0a36;fill-opacity:1;fill-rule:nonzero;stroke:none" />
      <path
         id="path17"
         d="m 31.678242,-3.0130469 c 0.05859,-0.2578125 0.292969,-1.171875 0.984375,-1.171875 0.04687,0 0.292969,0 0.503906,0.1289063 -0.28125,0.046875 -0.480468,0.3046875 -0.480468,0.5390625 0,0.1640625 0.105468,0.3515625 0.375,0.3515625 0.222656,0 0.539062,-0.1875 0.539062,-0.5859375 0,-0.515625 -0.585937,-0.65625 -0.925781,-0.65625 -0.574219,0 -0.925781,0.5273437 -1.042969,0.7617187 -0.257812,-0.65625 -0.785156,-0.7617187 -1.078125,-0.7617187 -1.042969,0 -1.605469,1.2890625 -1.605469,1.5351562 0,0.1054688 0.105469,0.1054688 0.117188,0.1054688 0.08203,0 0.117187,-0.023437 0.128906,-0.1171875 0.339844,-1.0546875 0.996094,-1.3007813 1.335938,-1.3007813 0.1875,0 0.539062,0.09375 0.539062,0.6679688 0,0.3046875 -0.164062,0.9726562 -0.539062,2.3671875 -0.152344,0.62109373 -0.503907,1.04296873 -0.949219,1.04296873 -0.05859,0 -0.28125,0 -0.492188,-0.12890625 0.246094,-0.0585938 0.46875,-0.26953125 0.46875,-0.5390625 0,-0.26953128 -0.222656,-0.35156248 -0.375,-0.35156248 -0.292968,0 -0.539062,0.25781248 -0.539062,0.57421873 0,0.45703125 0.492187,0.65625 0.9375,0.65625 0.65625,0 1.007812,-0.69140625 1.042969,-0.75 0.117187,0.36328125 0.480468,0.75 1.078125,0.75 1.019531,0 1.59375,-1.27734373 1.59375,-1.53515623 0,-0.09375 -0.09375,-0.09375 -0.128907,-0.09375 -0.08203,0 -0.105468,0.035156 -0.128906,0.1054687 -0.328125,1.06640628 -0.996094,1.31250003 -1.324219,1.31250003 -0.386718,0 -0.539062,-0.328125 -0.539062,-0.65625 0,-0.22265625 0.05859,-0.44531253 0.164062,-0.87890623 z m 0,0"
         style="fill:#eb0a36;fill-opacity:1;fill-rule:nonzero;stroke:none" />
      <path
         id="path18"
         d="m 36.925313,-2.4974219 c 0,-0.7734375 -0.117188,-1.9804687 -0.65625,-3.1054687 -0.597657,-1.21875 -1.464844,-1.875 -1.558594,-1.875 -0.05859,0 -0.105469,0.046875 -0.105469,0.1054687 0,0.035156 0,0.046875 0.199219,0.234375 0.972656,0.984375 1.535156,2.5664063 1.535156,4.640625 0,1.71093753 -0.363281,3.45703128 -1.59375,4.7226563 C 34.605,2.3424219 34.605,2.3541406 34.605,2.3892969 c 0,0.058594 0.04687,0.1054687 0.105469,0.1054687 0.09375,0 0.996094,-0.6796875 1.582031,-1.94531247 0.503906,-1.1015625 0.632813,-2.20312503 0.632813,-3.04687503 z m 0,0"
         style="fill:#eb0a36;fill-opacity:1;fill-rule:nonzero;stroke:none" />
    </g>
    <path
       id="path19"
       d="m 6.4221328,-6.9256094 c 0,-0.023437 -0.011719,-0.09375 -0.1054687,-0.09375 -0.046875,0 -0.058594,0.011719 -0.1757813,0.140625 l -0.4804687,0.5742188 c -0.2578125,-0.46875 -0.7734375,-0.7148438 -1.4296875,-0.7148438 -1.265625,0 -2.4609375,1.1367188 -2.4609375,2.34375 0,0.8085938 0.5273437,1.265625 1.0429687,1.4179688 l 1.0664063,0.28125 c 0.3632812,0.082031 0.9140625,0.234375 0.9140625,1.0546875 0,0.890625 -0.8203125,1.82812498 -1.7929688,1.82812498 -0.6445312,0 -1.7460937,-0.2109375 -1.7460937,-1.45312498 0,-0.234375 0.046875,-0.4804688 0.058594,-0.5390625 0.011719,-0.035156 0.023437,-0.046875 0.023437,-0.070312 0,-0.09375 -0.070312,-0.1054688 -0.1171875,-0.1054688 -0.058594,0 -0.070312,0.011719 -0.1054687,0.035156 -0.035156,0.046875 -0.59765629,2.32031248 -0.59765629,2.34374998 0,0.0585938 0.046875,0.10546875 0.1171875,0.10546875 0.046875,0 0.0585938,-0.0117188 0.17578125,-0.15234375 L 1.3010391,-0.50373437 c 0.421875,0.5859375 1.1015625,0.7265625 1.6757812,0.7265625 1.359375,0 2.53125,-1.32421873 2.53125,-2.56640623 0,-0.6796875 -0.3398437,-1.0195313 -0.4921875,-1.1601563 -0.2226562,-0.234375 -0.375,-0.2695312 -1.265625,-0.5039062 -0.2109375,-0.058594 -0.5742187,-0.1523438 -0.65625,-0.1757813 -0.2695312,-0.09375 -0.609375,-0.375 -0.609375,-0.9023437 0,-0.8085938 0.796875,-1.6523438 1.734375,-1.6523438 0.8320313,0 1.4414063,0.421875 1.4414063,1.5351563 0,0.3164062 -0.046875,0.5039062 -0.046875,0.5625 0,0.011719 0,0.09375 0.1289062,0.09375 0.09375,0 0.1054688,-0.023437 0.140625,-0.1992188 z m 0,0"
       style="fill:#0000ff;fill-opacity:0.5;fill-rule:nonzero;stroke:none"
       aria-label="S"
       transform="matrix(1.3333333,0,0,1.3333333,135.652,215.10133)" />
    <path
       id="path20"
       d="m 3.7153672,-3.7631016 c -0.1757813,-0.375 -0.46875,-0.6445312 -0.9140625,-0.6445312 -1.171875,0 -2.40234376,1.4648437 -2.40234376,2.9179687 0,0.93750004 0.55078125,1.59375004 1.32421876,1.59375004 0.1992187,0 0.703125,-0.03515625 1.3007812,-0.73828125 0.070312,0.41015625 0.421875,0.73828125 0.9023438,0.73828125 0.3515625,0 0.5742187,-0.22265625 0.7382812,-0.5390625 0.1640625,-0.36328125 0.2929688,-0.97265624 0.2929688,-0.99609374 0,-0.09375 -0.082031,-0.09375 -0.1171875,-0.09375 -0.09375,0 -0.1054688,0.035156 -0.140625,0.1757812 -0.1640625,0.64453129 -0.3515625,1.24218754 -0.75,1.24218754 -0.2695313,0 -0.3046875,-0.2578125 -0.3046875,-0.45703125 0,-0.22265625 0.023437,-0.3046875 0.1289062,-0.73828129 0.1171875,-0.421875 0.1289063,-0.5273437 0.2226563,-0.9023437 l 0.3515625,-1.3945313 c 0.070312,-0.28125 0.070312,-0.2929687 0.070312,-0.3398437 0,-0.1640625 -0.1171875,-0.2695313 -0.28125,-0.2695313 -0.2460938,0 -0.3867188,0.2226563 -0.4218745,0.4453125 z m -0.6445313,2.578125 c -0.046875,0.1757813 -0.046875,0.19921879 -0.1992187,0.36328129 -0.4453125,0.55078125 -0.84375,0.71484375 -1.125,0.71484375 -0.5039063,0 -0.6445313,-0.55078125 -0.6445313,-0.93750004 0,-0.5039062 0.328125,-1.7226562 0.5507813,-2.1796875 0.3046875,-0.5976562 0.7617187,-0.9609375 1.1601562,-0.9609375 0.6445313,0 0.7851563,0.8203125 0.7851563,0.8789063 0,0.058594 -0.023437,0.1171875 -0.035156,0.1640625 z m 0,0"
       style="fill:#ec008c;fill-opacity:1;fill-rule:nonzero;stroke:none"
       aria-label="a"
       transform="matrix(1.3333333,0,0,1.3333333,102.58133,255.412)" />
  </g>
</svg>
