<?xml version="1.0" encoding="UTF-8" standalone="no"?>
<!-- Created with Inkscape (http://www.inkscape.org/) -->

<svg
   version="1.1"
   id="svg1"
   width="304.53412"
   height="218.92567"
   viewBox="0 0 304.53412 218.92568"
   sodipodi:docname="5.1-velocidad-area.svg"
   inkscape:version="1.4.2 (f4327f4, 2025-05-13)"
   xmlns:inkscape="http://www.inkscape.org/namespaces/inkscape"
   xmlns:sodipodi="http://sodipodi.sourceforge.net/DTD/sodipodi-0.dtd"
   xmlns="http://www.w3.org/2000/svg"
   xmlns:svg="http://www.w3.org/2000/svg">
  <defs
     id="defs1" />
  <sodipodi:namedview
     id="namedview1"
     pagecolor="#ffffff"
     bordercolor="#000000"
     borderopacity="0.25"
     inkscape:showpageshadow="2"
     inkscape:pageopacity="0.0"
     inkscape:pagecheckerboard="0"
     inkscape:deskcolor="#d1d1d1"
     inkscape:zoom="2.2241536"
     inkscape:cx="154.89038"
     inkscape:cy="119.82086"
     inkscape:window-width="1920"
     inkscape:window-height="1009"
     inkscape:window-x="-8"
     inkscape:window-y="-8"
     inkscape:window-maximized="1"
     inkscape:current-layer="g1">
    <inkscape:page
       x="0"
       y="0"
       inkscape:label="8"
       id="page1"
       width="304.53412"
       height="218.92567"
       margin="0"
       bleed="0" />
  </sodipodi:namedview>
  <g
     id="g1"
     inkscape:groupmode="layer"
     inkscape:label="8"
     transform="translate(-87.102585,-61.429687)">
    <path
       id="path2"
       d="M -45.35506,0 H 180.96199"
       style="fill:none;stroke:#000000;stroke-width:0.3985;stroke-linecap:butt;stroke-linejoin:miter;stroke-miterlimit:10;stroke-dasharray:none;stroke-opacity:1"
       transform="matrix(1.3333333,0,0,-1.3333333,147.576,250.11867)" />
    <path
       id="path3"
       d="M -1.19551,1.59401 C -1.09587,0.99626 0,0.09961 0.29886,0 0,-0.09961 -1.09587,-0.99626 -1.19551,-1.59401"
       style="fill:none;stroke:#000000;stroke-width:0.31879;stroke-linecap:round;stroke-linejoin:round;stroke-miterlimit:10;stroke-dasharray:none;stroke-opacity:1"
       transform="matrix(1.3333333,0,0,-1.3333333,388.85865,250.11867)" />
    <path
       id="path4"
       d="m 2.2488828,-4.3586094 h 1.0195313 c 0.2226562,0 0.328125,0 0.328125,-0.2226562 0,-0.1171875 -0.1054688,-0.1171875 -0.3046875,-0.1171875 H 2.3309141 c 0.3984375,-1.546875 0.4453125,-1.7695313 0.4453125,-1.8398438 0,-0.1757812 -0.1289063,-0.2929687 -0.3164063,-0.2929687 -0.023437,0 -0.328125,0.011719 -0.4335937,0.3984375 l -0.421875,1.734375 H 0.57310156 c -0.2109375,0 -0.328125,0 -0.328125,0.1992187 0,0.140625 0.09375,0.140625 0.3046875,0.140625 H 1.5106016 c -0.78515629,3.09375 -0.82031254,3.28125 -0.82031254,3.48046878 0,0.5859375 0.41015624,0.99609375 0.99609374,0.99609375 1.1132813,0 1.734375,-1.59375003 1.734375,-1.67578123 0,-0.1054688 -0.082031,-0.1054688 -0.1289062,-0.1054688 -0.09375,0 -0.1054688,0.023437 -0.1640625,0.1523438 -0.46875,1.12499998 -1.0429688,1.39453123 -1.4179688,1.39453123 -0.2226562,0 -0.3398437,-0.140625 -0.3398437,-0.50390625 0,-0.2578125 0.023437,-0.33984375 0.070312,-0.52734378 z m 0,0"
       style="fill:#000000;fill-opacity:1;fill-rule:nonzero;stroke:none"
       aria-label="t"
       transform="matrix(1.3333333,0,0,1.3333333,386.84133,264.17867)" />
    <path
       id="path5"
       d="M 0,-22.67752 V 135.60692"
       style="fill:none;stroke:#000000;stroke-width:0.3985;stroke-linecap:butt;stroke-linejoin:miter;stroke-miterlimit:10;stroke-dasharray:none;stroke-opacity:1"
       transform="matrix(1.3333333,0,0,-1.3333333,147.576,250.11867)" />
    <path
       id="path6"
       d="M -1.19551,1.59401 C -1.09587,0.99626 0,0.09961 0.29886,0 0,-0.09961 -1.09587,-0.99626 -1.19551,-1.59401"
       style="fill:none;stroke:#000000;stroke-width:0.31879;stroke-linecap:round;stroke-linejoin:round;stroke-miterlimit:10;stroke-dasharray:none;stroke-opacity:1"
       transform="matrix(0,-1.3333333,-1.3333333,0,147.576,69.30944)" />
    <g
       id="g6"
       aria-label="v(t)"
       transform="matrix(1.3333333,0,0,1.3333333,118.32533,72.337333)">
      <path
         id="path7"
         d="m 5.1085391,-4.0557344 c 0,-0.5976562 -0.28125,-0.7734375 -0.4804688,-0.7734375 -0.28125,0 -0.5390625,0.2929688 -0.5390625,0.5273438 0,0.140625 0.058594,0.2109375 0.1757813,0.328125 0.234375,0.2226562 0.375,0.5039062 0.375,0.890625 0,0.46875 -0.6679688,2.96484373 -1.9453125,2.96484373 -0.5625,0 -0.8085938,-0.38671875 -0.8085938,-0.94921873 0,-0.609375 0.2929688,-1.40625 0.6328125,-2.3203125 0.082031,-0.1757813 0.1289063,-0.328125 0.1289063,-0.5390625 0,-0.4921875 -0.3515625,-0.9023438 -0.890625,-0.9023438 -1.03125004,0 -1.44140629,1.5820313 -1.44140629,1.6875 0,0.1054688 0.10546875,0.1054688 0.12890625,0.1054688 0.10546875,0 0.1171875,-0.023437 0.17578125,-0.1992188 0.31640625,-1.1015625 0.78515629,-1.3476562 1.10156249,-1.3476562 0.09375,0 0.2695313,0 0.2695313,0.3515625 0,0.2695312 -0.1054688,0.5625 -0.1757813,0.7617187 -0.4804687,1.265625 -0.6328125,1.7695313 -0.6328125,2.2382813 0,1.17187498 0.9609375,1.34765623 1.4648438,1.34765623 1.8398437,0 2.4609375,-3.60937503 2.4609375,-4.17187503 z m 0,0"
         style="fill:#000000;fill-opacity:1;fill-rule:nonzero;stroke:none" />
      <path
         id="path8"
         d="m 9.2892031,2.6122344 c 0,-0.023437 0,-0.046875 -0.1875,-0.234375 -1.359375,-1.3710938 -1.7109375,-3.4335938 -1.7109375,-5.109375 0,-1.8984375 0.421875,-3.796875 1.7578125,-5.15625 0.140625,-0.1289063 0.140625,-0.1523438 0.140625,-0.1875 0,-0.070312 -0.046875,-0.1054688 -0.1054687,-0.1054688 -0.1054688,0 -1.0898438,0.7382813 -1.734375,2.1210938 -0.5625,1.2070312 -0.6914063,2.4140625 -0.6914063,3.328125 0,0.8554687 0.1171875,2.17968748 0.7265625,3.41015623 0.6445313,1.33593747 1.59375,2.05078127 1.6992188,2.05078127 0.058594,0 0.1054687,-0.035156 0.1054687,-0.1171875 z m 0,0"
         style="fill:#000000;fill-opacity:1;fill-rule:nonzero;stroke:none" />
      <path
         id="path9"
         d="m 12.172016,-4.3604219 h 1.019531 c 0.222656,0 0.328125,0 0.328125,-0.2226562 0,-0.1171875 -0.105469,-0.1171875 -0.304688,-0.1171875 h -0.960937 c 0.398437,-1.546875 0.445312,-1.7695313 0.445312,-1.8398438 0,-0.1757812 -0.128906,-0.2929687 -0.316406,-0.2929687 -0.02344,0 -0.328125,0.011719 -0.433594,0.3984375 l -0.421875,1.734375 h -1.03125 c -0.210937,0 -0.328125,0 -0.328125,0.1992187 0,0.140625 0.09375,0.140625 0.304688,0.140625 h 0.960937 c -0.785156,3.09375 -0.820312,3.28125 -0.820312,3.48046878 0,0.5859375 0.410156,0.99609375 0.996094,0.99609375 1.113281,0 1.734375,-1.59375003 1.734375,-1.67578123 0,-0.1054688 -0.08203,-0.1054688 -0.128907,-0.1054688 -0.09375,0 -0.105468,0.023437 -0.164062,0.1523438 -0.46875,1.12499998 -1.042969,1.39453123 -1.417969,1.39453123 -0.222656,0 -0.339844,-0.140625 -0.339844,-0.50390625 0,-0.2578125 0.02344,-0.33984375 0.07031,-0.52734378 z m 0,0"
         style="fill:#000000;fill-opacity:1;fill-rule:nonzero;stroke:none" />
      <path
         id="path10"
         d="m 17.014789,-2.7315156 c 0,-0.84375 -0.117187,-2.1679688 -0.714844,-3.3984375 -0.65625,-1.3476563 -1.59375,-2.0507813 -1.710937,-2.0507813 -0.05859,0 -0.105469,0.035156 -0.105469,0.1054688 0,0.035156 0,0.058594 0.210938,0.2460937 1.066406,1.0898438 1.6875,2.8242188 1.6875,5.0976563 0,1.86328123 -0.398438,3.7851562 -1.757813,5.1679687 -0.140625,0.1289063 -0.140625,0.1523438 -0.140625,0.1757813 0,0.070312 0.04687,0.1171875 0.105469,0.1171875 0.117187,0 1.089844,-0.75 1.734375,-2.13281252 0.5625,-1.1953125 0.691406,-2.41406248 0.691406,-3.32812498 z m 0,0"
         style="fill:#000000;fill-opacity:1;fill-rule:nonzero;stroke:none" />
    </g>
    <path
       id="path11"
       d="m 22.67752,0 v 61.90643 c 0,0 3.60438,1.58506 4.98874,2.22985 1.38435,0.64477 3.60439,1.73671 4.98874,2.41735 1.38434,0.68065 3.60438,1.80451 4.98872,2.48832 1.38436,0.68383 3.60439,1.78618 4.98874,2.44023 1.38436,0.65404 3.60442,1.68107 4.98876,2.27377 1.38433,0.5927 3.6044,1.49527 4.98873,1.99797 1.38436,0.50273 3.60439,1.23674 4.98875,1.62532 1.38433,0.38861 3.60438,0.91968 4.98872,1.17549 1.38435,0.25579 3.6044,0.55767 4.98874,0.66817 1.38435,0.11052 3.60441,0.16832 4.98875,0.12837 1.38434,-0.03993 3.6044,-0.22769 4.98874,-0.41627 1.38435,-0.18857 3.60439,-0.61482 4.98874,-0.94295 1.38434,-0.32809 3.60438,-0.97005 4.98872,-1.42181 1.38436,-0.4518 3.6044,-1.28054 4.98874,-1.83432 1.38435,-0.55382 3.60442,-1.52823 4.98875,-2.15717 1.38434,-0.62894 3.6044,-1.70209 4.98874,-2.37585 1.38436,-0.67379 3.60439,-1.7941 4.98874,-2.48037 1.38434,-0.68624 3.60439,-1.80015 4.98874,-2.46582 1.38434,-0.66566 3.60439,-1.71894 4.98873,-2.33191 1.38435,-0.61294 3.60441,-1.55513 4.98875,-2.08589 1.38434,-0.53074 3.6044,-1.31666 4.98874,-1.7395 1.38436,-0.42281 3.60439,-1.01344 4.98874,-1.30798 1.38434,-0.29454 3.60438,-0.66272 4.98874,-0.81491 1.38434,-0.15218 4.98872,-0.28202 4.98872,-0.28202 L 142.41486,0 Z"
       style="fill:#9999ff;fill-opacity:0.2;fill-rule:nonzero;stroke:none"
       transform="matrix(1.3333333,0,0,-1.3333333,147.576,250.11867)" />
    <path
       id="path12"
       d="m 22.67752,61.90643 c 0,0 0.8738,0.37157 1.20937,0.51732 0.3356,0.14575 0.87379,0.38325 1.20938,0.53325 0.33558,0.14998 0.87381,0.39398 1.20939,0.54775 0.33559,0.15377 0.8738,0.40345 1.20939,0.56057 0.33558,0.15715 0.87377,0.41198 1.20938,0.57199 0.33557,0.16002 0.87379,0.41892 1.20936,0.58135 0.33561,0.16241 0.8738,0.42485 1.20938,0.58928 0.33561,0.16444 0.8738,0.4299 1.20938,0.59586 0.33561,0.16598 0.87381,0.43334 1.2094,0.60037 0.33559,0.16703 0.8738,0.43594 1.20938,0.6035 0.33557,0.16755 0.87378,0.43652 1.20937,0.60417 0.33558,0.16765 0.87379,0.43686 1.20938,0.60417 0.3356,0.16731 0.87379,0.43529 1.20938,0.60173 0.3356,0.16646 0.87379,0.43283 1.20938,0.59795 0.3356,0.1651 0.87381,0.42874 1.2094,0.59207 0.33557,0.16333 0.87379,0.42405 1.20936,0.58513 0.33559,0.16107 0.87378,0.41751 1.20938,0.57579 0.33559,0.15829 0.8738,0.40991 1.20939,0.56508 0.3356,0.15516 0.87379,0.40168 1.20938,0.55331 0.3356,0.1516 0.87379,0.39192 1.20938,0.53944 0.33558,0.14754 0.87381,0.38088 1.20938,0.5239 0.33559,0.14302 0.87379,0.36879 1.20938,0.50694 0.33559,0.13817 0.87378,0.356 1.20938,0.48894 0.33559,0.13295 0.8738,0.34196 1.20938,0.46922 0.3356,0.12728 0.8738,0.32685 1.20938,0.44812 0.3356,0.12128 0.8738,0.31102 1.20938,0.42595 0.33559,0.11493 0.87381,0.29418 1.20939,0.40245 0.33558,0.10825 0.87379,0.27657 1.20938,0.37786 0.33558,0.1013 0.87379,0.25822 1.20938,0.35227 0.33558,0.09404 0.87379,0.23909 1.20938,0.32561 0.3356,0.0865 0.87379,0.21924 1.20938,0.29793 0.33558,0.07869 0.87379,0.19861 1.20937,0.26921 0.3356,0.07063 0.87381,0.17735 1.20939,0.23982 0.33559,0.06244 0.8738,0.15631 1.20938,0.21037 0.33559,0.05407 0.8738,0.13373 1.20938,0.17924 0.33559,0.04551 0.8738,0.11189 1.2094,0.1488 0.33557,0.03691 0.87378,0.08922 1.20935,0.11729 0.33561,0.0281 0.8738,0.06594 1.20938,0.08513 0.3356,0.01921 0.87381,0.04294 1.2094,0.0533 0.33559,0.01036 0.87379,0.02002 1.20938,0.02146 0.33559,0.0014 0.87379,-0.0035 1.20938,-0.0111 0.33557,-0.0075 0.8738,-0.02676 1.20938,-0.04322 0.33559,-0.01649 0.87378,-0.05016 1.20937,-0.07545 0.3356,-0.02529 0.87379,-0.07285 1.20938,-0.10691 0.3356,-0.03409 0.87381,-0.09597 1.2094,-0.13877 0.33558,-0.04283 0.87379,-0.1185 1.20938,-0.16992 0.33558,-0.05139 0.87379,-0.14087 1.20936,-0.20068 0.33559,-0.05982 0.8738,-0.1624 1.2094,-0.23046 0.33559,-0.06807 0.87378,-0.18401 1.20936,-0.26021 0.33561,-0.0762 0.8738,-0.20489 1.20939,-0.28895 0.3356,-0.08406 0.87381,-0.22525 1.20939,-0.31695 0.33559,-0.0917 0.8738,-0.24492 1.20938,-0.34397 0.33558,-0.09903 0.8738,-0.26379 1.20937,-0.3699 0.33559,-0.1061 0.87379,-0.282 1.2094,-0.39483 0.33558,-0.11282 0.87377,-0.29904 1.20936,-0.41834 0.3356,-0.11931 0.8738,-0.3161 1.20938,-0.44155 0.3356,-0.12544 0.87381,-0.33148 1.2094,-0.46264 0.33557,-0.13115 0.87379,-0.34613 1.20937,-0.48272 0.33558,-0.13658 0.87379,-0.36021 1.20938,-0.50174 0.33558,-0.14152 0.87379,-0.37221 1.20939,-0.51834 0.33559,-0.14614 0.87378,-0.38461 1.20938,-0.53497 0.33559,-0.15037 0.87378,-0.39474 1.20937,-0.54881 0.33558,-0.15406 0.87381,-0.40424 1.20938,-0.5616 0.33559,-0.15738 0.8738,-0.41245 1.20938,-0.57269 0.33559,-0.16027 0.8738,-0.41973 1.2094,-0.58239 0.33558,-0.16264 0.87378,-0.42538 1.20938,-0.58996 0.33558,-0.16458 0.87378,-0.43012 1.20938,-0.59622 0.33557,-0.16611 0.87379,-0.43393 1.20936,-0.60106 0.3356,-0.16713 0.8738,-0.43598 1.20939,-0.60349 0.33558,-0.16749 0.87379,-0.43622 1.20938,-0.60382 0.33558,-0.1676 0.87379,-0.4369 1.20939,-0.60416 0.33559,-0.16726 0.87378,-0.43505 1.20938,-0.6014 0.33559,-0.16637 0.87378,-0.43265 1.20939,-0.59762 0.33557,-0.16494 0.87379,-0.42823 1.20936,-0.59137 0.33561,-0.16313 0.8738,-0.42355 1.20938,-0.58444 0.33559,-0.16086 0.8738,-0.41704 1.20938,-0.5751 0.33559,-0.15805 0.8738,-0.40921 1.2094,-0.56404 0.33559,-0.15483 0.87378,-0.40067 1.20938,-0.5519 0.33557,-0.15123 0.87378,-0.39096 1.20937,-0.5381 0.33558,-0.14714 0.87379,-0.37987 1.20938,-0.52249 0.3356,-0.14264 0.87379,-0.36783 1.20938,-0.50556 0.33559,-0.13774 0.87379,-0.35476 1.20938,-0.48721 0.33559,-0.13244 0.8738,-0.34074 1.2094,-0.46748 0.33557,-0.12676 0.87378,-0.32535 1.20936,-0.44605 0.33559,-0.12069 0.87378,-0.30957 1.20938,-0.42389 0.33559,-0.1143 0.8738,-0.29237 1.20939,-0.40001 0.3356,-0.10763 0.87379,-0.27516 1.20938,-0.37579 0.33558,-0.10062 0.87379,-0.25621 1.20938,-0.34949 0.33557,-0.09329 0.87381,-0.23706 1.20938,-0.32284 0.33559,-0.08579 0.87378,-0.21756 1.20938,-0.29552 0.33559,-0.07797 0.87378,-0.19655 1.20938,-0.26645 0.33559,-0.06988 0.8738,-0.17564 1.20938,-0.23738 0.3356,-0.06172 0.8738,-0.15428 1.20938,-0.20761 0.33557,-0.05333 0.8738,-0.13208 1.20937,-0.17682 0.33559,-0.04474 0.87381,-0.10959 1.2094,-0.14567 0.33558,-0.03611 0.87377,-0.08717 1.20938,-0.11455 0.33558,-0.02736 0.87378,-0.06427 1.20938,-0.08269 0.33558,-0.01843 0.87379,-0.04068 1.20938,-0.05019 0.3356,-0.0095 1.20938,-0.01834 1.20938,-0.01834"
       style="fill:none;stroke:#eb0a36;stroke-width:0.79701;stroke-linecap:butt;stroke-linejoin:miter;stroke-miterlimit:10;stroke-dasharray:none;stroke-opacity:1"
       transform="matrix(1.3333333,0,0,-1.3333333,147.576,250.11867)" />
    <g
       id="g12"
       aria-label="y=f(t)"
       transform="matrix(1.3333333,0,0,1.3333333,274.87733,132.49467)">
      <path
         id="path13"
         d="m 4.8410234,-3.7958047 c 0.046875,-0.140625 0.046875,-0.1523437 0.046875,-0.2226562 0,-0.1875 -0.140625,-0.2695313 -0.2929687,-0.2695313 -0.1054688,0 -0.2578125,0.058594 -0.3515625,0.1992188 -0.023437,0.058594 -0.09375,0.3632812 -0.140625,0.5390625 -0.070312,0.2578125 -0.140625,0.5273437 -0.1992188,0.796875 l -0.4453125,1.79296871 c -0.035156,0.15234375 -0.46875,0.85546875 -1.125,0.85546875 -0.5039062,0 -0.6210937,-0.4453125 -0.6210937,-0.80859375 0,-0.45703121 0.1757812,-1.07812501 0.515625,-1.95703121 0.1523437,-0.4101563 0.1992187,-0.515625 0.1992187,-0.7148438 0,-0.4453125 -0.328125,-0.8203125 -0.8203125,-0.8203125 -0.94921871,0 -1.31249996,1.453125 -1.31249996,1.5351563 0,0.1054687 0.09375,0.1054687 0.1171875,0.1054687 0.09375,0 0.10546875,-0.023437 0.15234375,-0.1875 0.26953125,-0.9375 0.66796871,-1.2304687 1.00781251,-1.2304687 0.082031,0 0.2578125,0 0.2578125,0.3164062 0,0.2460938 -0.1054688,0.515625 -0.1757813,0.703125 -0.3984375,1.0546875 -0.5742187,1.6171875 -0.5742187,2.0859375 0,0.89062501 0.6210937,1.18359376 1.21875,1.18359376 0.3867187,0 0.7265625,-0.1640625 0.9960937,-0.4453125 -0.1289062,0.515625 -0.2460937,1.0078125 -0.6445312,1.53515624 -0.2578125,0.3398438 -0.6328125,0.6328125 -1.0898438,0.6328125 -0.140625,0 -0.59765621,-0.035156 -0.76171871,-0.421875 0.1640625,0 0.29296871,0 0.43359371,-0.1171875 0.09375,-0.09375 0.1992188,-0.2226562 0.1992188,-0.41015624 0,-0.31640625 -0.2695313,-0.3515625 -0.375,-0.3515625 -0.22265626,0 -0.55078126,0.1640625 -0.55078126,0.64453124 0,0.5039063 0.43359375,0.8671875 1.05468746,0.8671875 1.0195313,0 2.0507813,-0.9023437 2.3320313,-2.02734374 z m 0,0"
         style="fill:#eb0a36;fill-opacity:1;fill-rule:nonzero;stroke:none" />
      <path
         id="path14"
         d="m 14.857625,-3.2567422 c 0.152344,0 0.339844,0 0.339844,-0.1992187 0,-0.1992188 -0.1875,-0.1992188 -0.328125,-0.1992188 H 8.9045 c -0.140625,0 -0.328125,0 -0.328125,0.1992188 0,0.1992187 0.1875,0.1992187 0.3398438,0.1992187 z m 0.01172,1.9335938 c 0.140625,0 0.328125,0 0.328125,-0.1992188 0,-0.1992187 -0.1875,-0.1992187 -0.339844,-0.1992187 H 8.9162188 c -0.1523438,0 -0.3398438,0 -0.3398438,0.1992187 0,0.1992188 0.1875,0.1992188 0.328125,0.1992188 z m 0,0"
         style="fill:#eb0a36;fill-opacity:1;fill-rule:nonzero;stroke:none" />
      <path
         id="path15"
         d="m 22.178914,-3.9833047 h 0.855469 c 0.199219,0 0.304687,0 0.304687,-0.1992187 0,-0.1054688 -0.105468,-0.1054688 -0.269531,-0.1054688 h -0.832031 l 0.210937,-1.1367187 c 0.03516,-0.2109375 0.175782,-0.9140625 0.234375,-1.0429688 0.09375,-0.1875 0.257813,-0.3398437 0.46875,-0.3398437 0.04687,0 0.304688,0 0.492188,0.1875 -0.433594,0.035156 -0.539063,0.3867187 -0.539063,0.5390625 0,0.2226562 0.175782,0.3398437 0.363282,0.3398437 0.269531,0 0.550781,-0.2109375 0.550781,-0.5976562 0,-0.4570313 -0.457031,-0.6796875 -0.867188,-0.6796875 -0.339843,0 -0.960937,0.1757812 -1.265625,1.1601562 -0.05859,0.2109375 -0.08203,0.3164063 -0.328125,1.5703125 h -0.679687 c -0.199219,0 -0.304688,0 -0.304688,0.1875 0,0.1171875 0.09375,0.1171875 0.28125,0.1171875 h 0.65625 l -0.75,3.93750001 c -0.175781,0.9609375 -0.339843,1.87499999 -0.867187,1.87499999 -0.03516,0 -0.28125,0 -0.46875,-0.1875 0.457031,-0.023437 0.539062,-0.3867187 0.539062,-0.5390625 0,-0.22265624 -0.175781,-0.33984374 -0.363281,-0.33984374 -0.257812,0 -0.550781,0.2109375 -0.550781,0.59765624 0,0.4453125 0.433594,0.6796875 0.84375,0.6796875 0.550781,0 0.949219,-0.5859375 1.125,-0.9609375 0.328125,-0.63281249 0.550781,-1.83984374 0.5625,-1.91015624 z m 0,0"
         style="fill:#eb0a36;fill-opacity:1;fill-rule:nonzero;stroke:none" />
      <path
         id="path16"
         d="m 27.768758,2.3916953 c 0,-0.035156 0,-0.046875 -0.164063,-0.2226562 -1.242187,-1.25390629 -1.570312,-3.12890629 -1.570312,-4.6640625 0,-1.7226563 0.386719,-3.4570313 1.605469,-4.7109375 0.128906,-0.1171875 0.128906,-0.1289063 0.128906,-0.1640625 0,-0.070312 -0.03516,-0.1054688 -0.09375,-0.1054688 -0.105469,0 -0.996094,0.6796875 -1.582031,1.9453125 -0.515625,1.1015625 -0.632813,2.203125 -0.632813,3.0351563 0,0.7851562 0.117188,1.99218746 0.65625,3.11718746 0.597656,1.21875004 1.453125,1.87500004 1.558594,1.87500004 0.05859,0 0.09375,-0.035156 0.09375,-0.1054688 z m 0,0"
         style="fill:#eb0a36;fill-opacity:1;fill-rule:nonzero;stroke:none" />
      <path
         id="path17"
         d="m 30.399617,-3.9833047 h 0.9375 c 0.199219,0 0.304688,0 0.304688,-0.1992187 0,-0.1054688 -0.105469,-0.1054688 -0.28125,-0.1054688 h -0.878907 c 0.363282,-1.4179687 0.410157,-1.6171875 0.410157,-1.6757812 0,-0.1757813 -0.117188,-0.2695313 -0.292969,-0.2695313 -0.02344,0 -0.304688,0.011719 -0.398438,0.3515625 l -0.386718,1.59375 h -0.9375 c -0.199219,0 -0.292969,0 -0.292969,0.1875 0,0.1171875 0.07031,0.1171875 0.269531,0.1171875 h 0.878906 c -0.714843,2.8242188 -0.75,3.00000001 -0.75,3.17578126 0,0.5390625 0.375,0.9140625 0.914063,0.9140625 1.007812,0 1.582031,-1.45312496 1.582031,-1.53515626 0,-0.09375 -0.08203,-0.09375 -0.117187,-0.09375 -0.09375,0 -0.105469,0.023437 -0.152344,0.140625 -0.433594,1.03125001 -0.960938,1.27734376 -1.300781,1.27734376 -0.199219,0 -0.304688,-0.12890625 -0.304688,-0.45703125 0,-0.24609375 0.02344,-0.31640625 0.05859,-0.48046871 z m 0,0"
         style="fill:#eb0a36;fill-opacity:1;fill-rule:nonzero;stroke:none" />
      <path
         id="path18"
         d="m 34.829305,-2.4950234 c 0,-0.7734375 -0.117188,-1.9804688 -0.65625,-3.1054688 -0.597657,-1.21875 -1.464844,-1.875 -1.558594,-1.875 -0.05859,0 -0.105469,0.046875 -0.105469,0.1054688 0,0.035156 0,0.046875 0.199219,0.234375 0.972656,0.984375 1.535156,2.5664062 1.535156,4.640625 0,1.71093746 -0.363281,3.45703121 -1.59375,4.7226562 -0.140625,0.1171875 -0.140625,0.1289063 -0.140625,0.1640625 0,0.058594 0.04687,0.1054688 0.105469,0.1054688 0.09375,0 0.996094,-0.6796875 1.582031,-1.94531254 0.503906,-1.1015625 0.632813,-2.20312496 0.632813,-3.04687496 z m 0,0"
         style="fill:#eb0a36;fill-opacity:1;fill-rule:nonzero;stroke:none" />
    </g>
    <path
       id="path19"
       d="M 22.67752,0 V 61.90504"
       style="fill:none;stroke:#ec008c;stroke-width:0.3985;stroke-linecap:butt;stroke-linejoin:miter;stroke-miterlimit:10;stroke-dasharray:2.98883, 2.98883;stroke-dashoffset:0;stroke-opacity:1"
       transform="matrix(1.3333333,0,0,-1.3333333,147.576,250.11867)" />
    <path
       id="path20"
       d="M 142.41486,0 V 56.69382"
       style="fill:none;stroke:#ec008c;stroke-width:0.3985;stroke-linecap:butt;stroke-linejoin:miter;stroke-miterlimit:10;stroke-dasharray:2.98883, 2.98883;stroke-dashoffset:0;stroke-opacity:1"
       transform="matrix(1.3333333,0,0,-1.3333333,147.576,250.11867)" />
    <path
       id="path21"
       d="m 3.7134297,-3.760875 c -0.1757813,-0.375 -0.46875,-0.6445312 -0.9140625,-0.6445312 -1.171875,0 -2.40234376,1.4648437 -2.40234376,2.9179687 0,0.9375 0.55078125,1.59375 1.32421876,1.59375 0.1992187,0 0.703125,-0.03515625 1.3007812,-0.73828125 0.070312,0.41015625 0.421875,0.73828125 0.9023438,0.73828125 0.3515625,0 0.5742187,-0.22265625 0.7382812,-0.5390625 0.1640625,-0.36328125 0.2929688,-0.9726562 0.2929688,-0.9960937 0,-0.09375 -0.082031,-0.09375 -0.1171875,-0.09375 -0.09375,0 -0.1054688,0.035156 -0.140625,0.1757812 -0.1640625,0.64453125 -0.3515625,1.2421875 -0.75,1.2421875 -0.2695313,0 -0.3046875,-0.2578125 -0.3046875,-0.45703125 0,-0.22265625 0.023437,-0.3046875 0.1289062,-0.73828125 0.1171875,-0.421875 0.1289063,-0.5273437 0.2226563,-0.9023437 l 0.3515625,-1.3945313 c 0.070312,-0.28125 0.070312,-0.2929687 0.070312,-0.3398437 0,-0.1640625 -0.1171875,-0.2695313 -0.28125,-0.2695313 -0.2460938,0 -0.3867188,0.2226563 -0.4218745,0.4453125 z M 3.0688984,-1.18275 c -0.046875,0.1757813 -0.046875,0.19921875 -0.1992187,0.36328125 -0.4453125,0.55078125 -0.84375,0.71484375 -1.125,0.71484375 -0.5039063,0 -0.6445313,-0.55078125 -0.6445313,-0.9375 0,-0.5039062 0.328125,-1.7226562 0.5507813,-2.1796875 0.3046875,-0.5976562 0.7617187,-0.9609375 1.1601562,-0.9609375 0.6445313,0 0.7851563,0.8203125 0.7851563,0.8789063 0,0.058594 -0.023437,0.1171875 -0.035156,0.1640625 z m 0,0"
       style="fill:#ec008c;fill-opacity:1;fill-rule:nonzero;stroke:none"
       aria-label="a"
       transform="matrix(1.3333333,0,0,1.3333333,174.30267,260.952)" />
    <path
       id="path22"
       d="m 2.3779375,-6.8083984 c 0,0 0,-0.1054688 -0.1289062,-0.1054688 -0.2226563,0 -0.9492188,0.082031 -1.21875,0.1054688 -0.0703125,0 -0.18750005,0.011719 -0.18750005,0.1992187 0,0.1171875 0.09375,0.1171875 0.24609375,0.1171875 0.46875,0 0.4921875,0.070312 0.4921875,0.1640625 0,0.070312 -0.082031,0.4101563 -0.140625,0.6210938 l -0.80859375,3.2460937 c -0.12890625,0.5039063 -0.1640625,0.65625 -0.1640625,1.0078125 0,0.94921876 0.52734375,1.55859376 1.26562505,1.55859376 1.171875,0 2.4023437,-1.47656246 2.4023437,-2.91796876 0,-0.9023437 -0.5273437,-1.59375 -1.3242187,-1.59375 -0.4570313,0 -0.8671875,0.2929688 -1.171875,0.5976563 z m -0.9375,3.7734375 c 0.058594,-0.2226563 0.058594,-0.2460938 0.1523438,-0.3515625 0.4921875,-0.6445313 0.9375,-0.796875 1.1953125,-0.796875 0.3632812,0 0.6328125,0.2929687 0.6328125,0.9375 0,0.5859375 -0.328125,1.734375 -0.515625,2.109375 -0.328125,0.66796871 -0.7851563,1.03124996 -1.171875,1.03124996 -0.3398438,0 -0.6679688,-0.26953125 -0.6679688,-1.00781246 0,-0.1875 0,-0.3867188 0.1640625,-1.0078125 z m 0,0"
       style="fill:#ec008c;fill-opacity:1;fill-rule:nonzero;stroke:none"
       aria-label="b"
       transform="matrix(1.3333333,0,0,1.3333333,334.61067,261.43333)" />
  </g>
</svg>
