<?xml version="1.0" encoding="UTF-8" standalone="no"?>
<!-- Created with Inkscape (http://www.inkscape.org/) -->

<svg
   version="1.1"
   id="svg1"
   width="305.88016"
   height="216.37561"
   viewBox="0 0 305.88016 216.37561"
   sodipodi:docname="5.1-area-de-S.svg"
   inkscape:version="1.4.2 (f4327f4, 2025-05-13)"
   xmlns:inkscape="http://www.inkscape.org/namespaces/inkscape"
   xmlns:sodipodi="http://sodipodi.sourceforge.net/DTD/sodipodi-0.dtd"
   xmlns="http://www.w3.org/2000/svg"
   xmlns:svg="http://www.w3.org/2000/svg">
  <defs
     id="defs1" />
  <sodipodi:namedview
     id="namedview1"
     pagecolor="#ffffff"
     bordercolor="#000000"
     borderopacity="0.25"
     inkscape:showpageshadow="2"
     inkscape:pageopacity="0.0"
     inkscape:pagecheckerboard="0"
     inkscape:deskcolor="#d1d1d1"
     inkscape:zoom="2.2241536"
     inkscape:cx="155.7896"
     inkscape:cy="118.92164"
     inkscape:window-width="1920"
     inkscape:window-height="1009"
     inkscape:window-x="-8"
     inkscape:window-y="-8"
     inkscape:window-maximized="1"
     inkscape:current-layer="g1">
    <inkscape:page
       x="0"
       y="0"
       inkscape:label="1"
       id="page1"
       width="305.88016"
       height="216.37561"
       margin="0"
       bleed="0" />
  </sodipodi:namedview>
  <g
     id="g1"
     inkscape:groupmode="layer"
     inkscape:label="1"
     transform="translate(-86.338585,-62.343749)">
    <path
       id="path2"
       d="M -45.35506,0 H 180.96199"
       style="fill:none;stroke:#000000;stroke-width:0.3985;stroke-linecap:butt;stroke-linejoin:miter;stroke-miterlimit:10;stroke-dasharray:none;stroke-opacity:1"
       transform="matrix(1.3333333,0,0,-1.3333333,146.812,248.48267)" />
    <path
       id="path3"
       d="M -1.19551,1.59401 C -1.09587,0.99626 0,0.09961 0.29886,0 0,-0.09961 -1.09587,-0.99626 -1.19551,-1.59401"
       style="fill:none;stroke:#000000;stroke-width:0.31879;stroke-linecap:round;stroke-linejoin:round;stroke-miterlimit:10;stroke-dasharray:none;stroke-opacity:1"
       transform="matrix(1.3333333,0,0,-1.3333333,388.09465,248.48267)" />
    <path
       id="path4"
       d="M 3.6456875,-3.2924375 C 3.716,-3.5736875 3.9620938,-4.5815 4.7238125,-4.5815 c 0.058594,0 0.3164063,0 0.5507813,0.140625 C 4.9699063,-4.382281 4.74725,-4.11275 4.74725,-3.8549375 c 0,0.1757813 0.1171875,0.3867188 0.4101563,0.3867188 0.2460937,0 0.5976562,-0.1992188 0.5976562,-0.6328125 0,-0.5625 -0.6445312,-0.7265625 -1.0195312,-0.7265625 -0.6328125,0 -1.0195313,0.5859375 -1.1484375,0.8320312 -0.2695313,-0.7148437 -0.8554688,-0.8320312 -1.171875,-0.8320312 -1.1367188,0 -1.75781255,1.4179687 -1.75781255,1.6875 0,0.1054687 0.10546875,0.1054687 0.12890625,0.1054687 0.0820313,0 0.1171875,-0.023437 0.140625,-0.1171875 0.375,-1.1601562 1.0898438,-1.4296875 1.4648438,-1.4296875 0.2109375,0 0.5859375,0.09375 0.5859375,0.7265625 0,0.3398438 -0.1875,1.078125 -0.5859375,2.6015625 -0.1757813,0.6796875 -0.5625,1.13671875 -1.0429688,1.13671875 -0.058594,0 -0.3164062,0 -0.5390625,-0.140625 C 1.0792813,-0.315875 1.325375,-0.55025 1.325375,-0.8549375 c 0,-0.2929687 -0.2460937,-0.375 -0.41015625,-0.375 -0.328125,0 -0.59765625,0.28125 -0.59765625,0.6328125 0,0.50390625 0.55078125,0.71484375 1.03125,0.71484375 0.7148438,0 1.1015625,-0.76171875 1.1367188,-0.83203125 0.1289062,0.41015625 0.5273437,0.83203125 1.1835937,0.83203125 1.125,0 1.7460938,-1.40624995 1.7460938,-1.67578125 0,-0.1054687 -0.1054688,-0.1054687 -0.1289063,-0.1054687 -0.1054687,0 -0.1289062,0.035156 -0.140625,0.1171875 -0.3632812,1.1601562 -1.1132812,1.42968745 -1.453125,1.42968745 -0.4335937,0 -0.609375,-0.3515625 -0.609375,-0.7265625 0,-0.23437495 0.070312,-0.48046875 0.1875,-0.96093745 z m 0,0"
       style="fill:#000000;fill-opacity:1;fill-rule:nonzero;stroke:none"
       aria-label="x"
       transform="matrix(1.3333333,0,0,1.3333333,384.54533,259.85867)" />
    <path
       id="path5"
       d="M 0,-22.67752 V 135.60692"
       style="fill:none;stroke:#000000;stroke-width:0.3985;stroke-linecap:butt;stroke-linejoin:miter;stroke-miterlimit:10;stroke-dasharray:none;stroke-opacity:1"
       transform="matrix(1.3333333,0,0,-1.3333333,146.812,248.48267)" />
    <path
       id="path6"
       d="M -1.19551,1.59401 C -1.09587,0.99626 0,0.09961 0.29886,0 0,-0.09961 -1.09587,-0.99626 -1.19551,-1.59401"
       style="fill:none;stroke:#000000;stroke-width:0.31879;stroke-linecap:round;stroke-linejoin:round;stroke-miterlimit:10;stroke-dasharray:none;stroke-opacity:1"
       transform="matrix(0,-1.3333333,-1.3333333,0,146.812,67.67344)" />
    <path
       id="path7"
       d="m 5.2961016,-4.1602188 c 0.046875,-0.1523437 0.046875,-0.1757812 0.046875,-0.2460937 0,-0.1992188 -0.1523438,-0.2929688 -0.3164063,-0.2929688 -0.1054687,0 -0.28125,0.058594 -0.375,0.2226563 -0.023437,0.058594 -0.1171875,0.3984375 -0.1523437,0.5976562 -0.082031,0.28125 -0.1523438,0.5742188 -0.2226563,0.8671875 l -0.4921875,1.96875 c -0.046875,0.16406255 -0.515625,0.9257813 -1.2304687,0.9257813 -0.5625,0 -0.6796875,-0.48046875 -0.6796875,-0.890625 0,-0.4921875 0.1875,-1.171875 0.5625,-2.1328125 0.1757812,-0.4453125 0.2109375,-0.5742188 0.2109375,-0.7851563 0,-0.4921875 -0.3515625,-0.9023437 -0.890625,-0.9023437 -1.04296879,0 -1.44140629,1.5820312 -1.44140629,1.6875 0,0.1054687 0.10546875,0.1054687 0.12890625,0.1054687 0.10546875,0 0.1171875,-0.023437 0.17578125,-0.1992187 0.29296875,-1.0195313 0.72656249,-1.3476563 1.10156249,-1.3476563 0.09375,0 0.2695313,0 0.2695313,0.3515625 0,0.2695313 -0.1054688,0.5507813 -0.1757813,0.7617188 -0.4453125,1.1601562 -0.6328125,1.78125 -0.6328125,2.2851562 0,0.9726563 0.6796875,1.3007813 1.3242188,1.3007813 0.421875,0 0.796875,-0.1875 1.1015625,-0.4921875 C 3.4679766,0.19915625 3.3390703,0.7265 2.9054766,1.3124375 2.6125078,1.6757187 2.2023516,1.992125 1.6984453,1.992125 c -0.1523437,0 -0.6445312,-0.023437 -0.83203124,-0.4570313 0.17578124,0 0.31640624,0 0.48046874,-0.1289062 0.1054688,-0.09375 0.2109375,-0.234375 0.2109375,-0.4453125 0,-0.33984375 -0.2929687,-0.38671875 -0.3984375,-0.38671875 -0.25781249,0 -0.60937499,0.17578125 -0.60937499,0.71484375 0,0.5390625 0.48046879,0.9492187 1.14843749,0.9492187 1.125,0 2.25,-0.9960937 2.5546875,-2.22656245 z m 0,0"
       style="fill:#000000;fill-opacity:1;fill-rule:nonzero;stroke:none"
       aria-label="y"
       transform="matrix(1.3333333,0,0,1.3333333,134.044,68.781333)" />
    <path
       id="path8"
       d="m 22.67752,0 v 87.11415 c 0,0 3.60438,1.74242 4.98874,2.21426 1.38435,0.47185 3.60439,1.00741 4.98874,1.18654 1.38434,0.17913 3.60438,0.22675 4.98872,0.10451 1.38436,-0.12224 3.60439,-0.56767 4.98874,-0.9855 1.38436,-0.41785 3.60442,-1.33293 4.98876,-2.02602 1.38433,-0.69307 3.6044,-2.03415 4.98873,-2.9693 1.38436,-0.93514 3.60439,-2.63866 4.98875,-3.7707 1.38433,-1.13205 3.60438,-3.11406 4.98872,-4.38839 1.38435,-1.2743 3.6044,-3.44079 4.98874,-4.796 1.38435,-1.3552 3.60441,-3.60071 4.98875,-4.97142 1.38434,-1.37071 3.6044,-3.58745 4.98874,-4.90776 1.38435,-1.32032 3.60439,-3.40184 4.98874,-4.60813 1.38434,-1.20627 3.60438,-3.05192 4.98872,-4.08594 1.38436,-1.034 3.6044,-2.55471 4.98874,-3.36653 1.38435,-0.81182 3.60442,-1.93383 4.98875,-2.48451 1.38434,-0.55067 3.6044,-1.22162 4.98874,-1.48446 1.38436,-0.26287 3.60439,-0.44771 4.98874,-0.41007 1.38434,0.03764 3.60439,0.34519 4.98874,0.68134 1.38434,0.33618 3.60439,1.12291 4.98873,1.74157 1.38435,0.61867 3.60441,1.84619 4.98875,2.7174 1.38434,0.87121 3.6044,2.47984 4.98874,3.5617 1.38436,1.08188 3.60439,2.99536 4.98874,4.23578 1.38434,1.24042 3.60438,3.36531 4.98874,4.7043 1.38434,1.33898 4.98872,4.94617 4.98872,4.94617 L 142.41486,0 Z"
       style="fill:#9999ff;fill-opacity:0.2;fill-rule:nonzero;stroke:none"
       transform="matrix(1.3333333,0,0,-1.3333333,146.812,248.48267)" />
    <path
       id="path9"
       d="m 22.67752,87.11415 c 0,0 0.8738,0.46007 1.20937,0.62598 0.3356,0.16592 0.87379,0.41978 1.20938,0.5699 0.33558,0.15013 0.87381,0.37823 1.20939,0.51213 0.33559,0.13389 0.8738,0.33559 1.20939,0.45297 0.33558,0.11737 0.87377,0.2926 1.20938,0.39308 0.33557,0.10048 0.87379,0.24791 1.20936,0.33116 0.33561,0.08324 0.8738,0.20304 1.20938,0.26886 0.33561,0.06583 0.8738,0.15734 1.20938,0.20554 0.33561,0.0482 0.87381,0.11145 1.2094,0.14189 0.33559,0.03041 0.8738,0.06488 1.20938,0.0775 0.33557,0.01262 0.87378,0.01872 1.20937,0.01349 0.33558,-0.0052 0.87379,-0.02808 1.20938,-0.05121 0.3356,-0.02312 0.87379,-0.07463 1.20938,-0.11557 0.3356,-0.04095 0.87379,-0.12082 1.20938,-0.17959 0.3356,-0.05875 0.87381,-0.16767 1.2094,-0.24395 0.33557,-0.07629 0.87379,-0.21243 1.20936,-0.30591 0.33559,-0.09346 0.87378,-0.2573 1.20938,-0.36782 0.33559,-0.11051 0.8738,-0.30141 1.20939,-0.42873 0.3356,-0.12732 0.87379,-0.34531 1.20938,-0.48894 0.3356,-0.14364 0.87379,-0.38685 1.20938,-0.54637 0.33558,-0.15954 0.87381,-0.42846 1.20938,-0.6035 0.33559,-0.17505 0.87379,-0.46808 1.20938,-0.65816 0.33559,-0.19006 0.87378,-0.50724 1.20938,-0.71177 0.33559,-0.20452 0.8738,-0.54396 1.20938,-0.76232 0.3356,-0.21835 0.8738,-0.5798 1.20938,-0.81144 0.3356,-0.23165 0.8738,-0.61387 1.20938,-0.85816 0.33559,-0.24428 0.87381,-0.64625 1.20939,-0.90245 0.33558,-0.25618 0.87379,-0.6766 1.20938,-0.94397 0.33558,-0.26738 0.87379,-0.70529 1.20938,-0.98308 0.33558,-0.27778 0.87379,-0.73163 1.20938,-1.01907 0.3356,-0.28744 0.87379,-0.75645 1.20938,-1.05261 0.33558,-0.29619 0.87379,-0.77791 1.20937,-1.08205 0.3356,-0.30417 0.87381,-0.79878 1.20939,-1.11006 0.33559,-0.31131 0.8738,-0.81612 1.20938,-1.13361 0.33559,-0.31749 0.8738,-0.83189 1.20938,-1.15471 0.33559,-0.32283 0.8738,-0.84474 1.2094,-1.17202 0.33557,-0.32728 0.87378,-0.85613 1.20935,-1.18686 0.33561,-0.33075 0.8738,-0.8638 1.20938,-1.19695 0.3356,-0.33313 0.87381,-0.86946 1.2094,-1.20417 0.33559,-0.33474 0.87379,-0.87304 1.20938,-1.20835 0.33559,-0.33531 0.87379,-0.87332 1.20938,-1.20834 0.33557,-0.33502 0.8738,-0.87242 1.20938,-1.20627 0.33559,-0.33386 0.87378,-0.86847 1.20937,-1.20004 0.3356,-0.33156 0.87379,-0.86127 1.20938,-1.18967 0.3356,-0.32837 0.87381,-0.85287 1.2094,-1.17719 0.33558,-0.32432 0.87379,-0.84097 1.20938,-1.16024 0.33558,-0.31926 0.87379,-0.8275 1.20936,-1.14087 0.33559,-0.31337 0.8738,-0.81113 1.2094,-1.11768 0.33559,-0.30655 0.87378,-0.79287 1.20936,-1.09175 0.33561,-0.29884 0.8738,-0.77202 1.20939,-1.0623 0.3356,-0.29027 0.87381,-0.74893 1.20939,-1.02979 0.33559,-0.28085 0.8738,-0.72381 1.20938,-0.99451 0.33558,-0.27065 0.8738,-0.6967 1.20937,-0.95641 0.33559,-0.25975 0.87379,-0.6675 1.2094,-0.91559 0.33558,-0.24811 0.87377,-0.63698 1.20936,-0.8727 0.3356,-0.23575 0.8738,-0.60367 1.20938,-0.82632 0.3356,-0.22268 0.87381,-0.5696 1.2094,-0.77858 0.33557,-0.20899 0.87379,-0.53307 1.20937,-0.72771 0.33558,-0.19462 0.87379,-0.49527 1.20938,-0.67511 0.33558,-0.17985 0.87379,-0.4566 1.20939,-0.62112 0.33559,-0.16452 0.87378,-0.41599 1.20938,-0.56472 0.33559,-0.14874 0.87378,-0.3748 1.20937,-0.50729 0.33558,-0.13251 0.87381,-0.33194 1.20938,-0.44777 0.33559,-0.11584 0.8738,-0.28825 1.20938,-0.38721 0.33559,-0.09893 0.8738,-0.24424 1.2094,-0.32597 0.33558,-0.08171 0.87378,-0.19873 1.20938,-0.26297 0.33558,-0.06424 0.87378,-0.15344 1.20938,-0.20001 0.33557,-0.04657 0.87379,-0.10689 1.20936,-0.13564 0.3356,-0.02874 0.8738,-0.06073 1.20939,-0.07164 0.33558,-0.01089 0.87379,-0.01391 1.20938,-0.0069 0.33558,0.007 0.87379,0.03266 1.20939,0.05744 0.33559,0.02478 0.87378,0.07859 1.20938,0.1211 0.33559,0.04255 0.87378,0.12519 1.20939,0.18548 0.33557,0.0603 0.87379,0.17132 1.20936,0.24914 0.33561,0.07782 0.8738,0.21672 1.20938,0.31178 0.33559,0.09505 0.8738,0.26133 1.20938,0.37337 0.33559,0.11206 0.8738,0.30551 1.2094,0.43428 0.33559,0.12874 0.87378,0.34868 1.20938,0.49378 0.33557,0.14508 0.87378,0.39094 1.20937,0.55192 0.33558,0.16097 0.87379,0.43188 1.20938,0.60832 0.3356,0.17644 0.87379,0.47197 1.20938,0.66333 0.33559,0.19138 0.87379,0.51018 1.20938,0.71596 0.33559,0.20577 0.8738,0.54755 1.2094,0.76715 0.33557,0.21961 0.87378,0.5828 1.20936,0.8156 0.33559,0.23279 0.87378,0.61691 1.20938,0.8623 0.33559,0.2454 0.8738,0.64898 1.20939,0.90627 0.3356,0.25729 0.87379,0.6797 1.20938,0.94812 0.33558,0.26842 0.87379,0.70784 1.20938,0.98653 0.33557,0.2787 0.87381,0.73393 1.20938,1.02218 0.33559,0.28826 0.87378,0.75844 1.20938,1.05539 0.33559,0.29697 0.87378,0.77995 1.20938,1.08483 0.33559,0.30487 0.8738,0.80056 1.20938,1.11247 0.3356,0.31193 0.8738,0.81766 1.20938,1.13568 0.33557,0.31802 0.8738,0.83319 1.20937,1.15645 0.33559,0.32325 0.87381,0.84587 1.2094,1.1734 0.33558,0.3275 0.87377,0.8563 1.20938,1.18722 0.33558,0.33094 0.87378,0.86458 1.20938,1.19796 0.33558,0.3334 0.87379,0.87002 1.20938,1.20489 0.3356,0.33487 1.20938,1.20868 1.20938,1.20868"
       style="fill:none;stroke:#eb0a36;stroke-width:0.79701;stroke-linecap:butt;stroke-linejoin:miter;stroke-miterlimit:10;stroke-dasharray:none;stroke-opacity:1"
       transform="matrix(1.3333333,0,0,-1.3333333,146.812,248.48267)" />
    <g
       id="g9"
       aria-label="y=f(x)"
       transform="matrix(1.3333333,0,0,1.3333333,272.71467,130.85867)">
      <path
         id="path10"
         d="m 4.8399766,-3.7963437 c 0.046875,-0.140625 0.046875,-0.1523438 0.046875,-0.2226563 0,-0.1875 -0.140625,-0.2695312 -0.2929688,-0.2695312 -0.1054687,0 -0.2578125,0.058594 -0.3515625,0.1992187 -0.023437,0.058594 -0.09375,0.3632813 -0.140625,0.5390625 -0.070312,0.2578125 -0.140625,0.5273438 -0.1992187,0.796875 l -0.4453125,1.79296875 c -0.035156,0.15234375 -0.46875,0.85546875 -1.125,0.85546875 -0.5039063,0 -0.6210938,-0.4453125 -0.6210938,-0.80859375 0,-0.45703125 0.1757813,-1.07812495 0.515625,-1.95703125 0.1523438,-0.4101562 0.1992188,-0.515625 0.1992188,-0.7148437 0,-0.4453125 -0.328125,-0.8203125 -0.8203125,-0.8203125 -0.94921879,0 -1.31250004,1.453125 -1.31250004,1.5351562 0,0.1054688 0.09375,0.1054688 0.1171875,0.1054688 0.09375,0 0.10546875,-0.023437 0.15234375,-0.1875 0.26953125,-0.9375 0.66796879,-1.2304688 1.00781249,-1.2304688 0.082031,0 0.2578125,0 0.2578125,0.3164063 0,0.2460937 -0.1054687,0.515625 -0.1757812,0.703125 -0.3984375,1.0546875 -0.5742188,1.6171875 -0.5742188,2.0859375 0,0.89062495 0.6210938,1.1835937 1.21875,1.1835937 0.3867188,0 0.7265625,-0.1640625 0.9960938,-0.4453125 C 3.1641953,0.1763125 3.0470078,0.6685 2.6485703,1.1958438 2.3907578,1.5356875 2.0157578,1.8286563 1.5587266,1.8286563 c -0.140625,0 -0.59765629,-0.035156 -0.76171879,-0.421875 0.1640625,0 0.29296879,0 0.43359379,-0.1171875 0.09375,-0.09375 0.1992187,-0.2226563 0.1992187,-0.4101563 0,-0.31640625 -0.2695312,-0.3515625 -0.375,-0.3515625 -0.22265624,0 -0.55078124,0.1640625 -0.55078124,0.6445313 0,0.5039062 0.43359375,0.8671875 1.05468754,0.8671875 1.0195312,0 2.0507812,-0.9023438 2.3320312,-2.0273438 z m 0,0"
         style="fill:#eb0a36;fill-opacity:1;fill-rule:nonzero;stroke:none" />
      <path
         id="path11"
         d="m 14.856578,-3.2572812 c 0.152344,0 0.339844,0 0.339844,-0.1992188 0,-0.1992187 -0.1875,-0.1992187 -0.328125,-0.1992187 H 8.9034531 c -0.140625,0 -0.328125,0 -0.328125,0.1992187 0,0.1992188 0.1875,0.1992188 0.3398438,0.1992188 z m 0.01172,1.9335937 c 0.140625,0 0.328125,0 0.328125,-0.1992187 0,-0.1992188 -0.1875,-0.1992188 -0.339844,-0.1992188 H 8.9151719 c -0.1523438,0 -0.3398438,0 -0.3398438,0.1992188 0,0.1992187 0.1875,0.1992187 0.328125,0.1992187 z m 0,0"
         style="fill:#eb0a36;fill-opacity:1;fill-rule:nonzero;stroke:none" />
      <path
         id="path12"
         d="m 22.177867,-3.9838437 h 0.855469 c 0.199219,0 0.304687,0 0.304687,-0.1992188 0,-0.1054687 -0.105468,-0.1054687 -0.269531,-0.1054687 H 22.236461 L 22.447398,-5.42525 c 0.03516,-0.2109375 0.175782,-0.9140625 0.234375,-1.0429687 0.09375,-0.1875 0.257813,-0.3398438 0.46875,-0.3398438 0.04687,0 0.304688,0 0.492188,0.1875 -0.433594,0.035156 -0.539063,0.3867188 -0.539063,0.5390625 0,0.2226563 0.175782,0.3398438 0.363282,0.3398438 0.269531,0 0.550781,-0.2109375 0.550781,-0.5976563 0,-0.4570312 -0.457031,-0.6796875 -0.867188,-0.6796875 -0.339843,0 -0.960937,0.1757813 -1.265625,1.1601563 -0.05859,0.2109375 -0.08203,0.3164062 -0.328125,1.5703125 h -0.679687 c -0.199219,0 -0.304688,0 -0.304688,0.1875 0,0.1171875 0.09375,0.1171875 0.28125,0.1171875 h 0.65625 l -0.75,3.93749995 c -0.175781,0.9609375 -0.339843,1.87500005 -0.867187,1.87500005 -0.03516,0 -0.28125,0 -0.46875,-0.1875 0.457031,-0.023437 0.539062,-0.3867188 0.539062,-0.5390625 0,-0.2226563 -0.175781,-0.3398438 -0.363281,-0.3398438 -0.257812,0 -0.550781,0.2109375 -0.550781,0.5976563 0,0.4453125 0.433594,0.6796875 0.84375,0.6796875 0.550781,0 0.949219,-0.5859375 1.125,-0.9609375 0.328125,-0.63281255 0.550781,-1.8398438 0.5625,-1.9101563 z m 0,0"
         style="fill:#eb0a36;fill-opacity:1;fill-rule:nonzero;stroke:none" />
      <path
         id="path13"
         d="m 27.767711,2.3911563 c 0,-0.035156 0,-0.046875 -0.164063,-0.2226563 -1.242187,-1.25390625 -1.570312,-3.12890625 -1.570312,-4.6640625 0,-1.7226562 0.386719,-3.4570312 1.605469,-4.7109375 0.128906,-0.1171875 0.128906,-0.1289062 0.128906,-0.1640625 0,-0.070312 -0.03516,-0.1054687 -0.09375,-0.1054687 -0.105469,0 -0.996094,0.6796875 -1.582031,1.9453125 -0.515625,1.1015625 -0.632813,2.203125 -0.632813,3.0351562 0,0.7851563 0.117188,1.9921875 0.65625,3.1171875 0.597656,1.21875 1.453125,1.875 1.558594,1.875 0.05859,0 0.09375,-0.035156 0.09375,-0.1054687 z m 0,0"
         style="fill:#eb0a36;fill-opacity:1;fill-rule:nonzero;stroke:none" />
      <path
         id="path14"
         d="m 31.678844,-3.0111875 c 0.05859,-0.2578125 0.292969,-1.171875 0.984375,-1.171875 0.04687,0 0.292969,0 0.503906,0.1289063 -0.28125,0.046875 -0.480469,0.3046875 -0.480469,0.5390625 0,0.1640625 0.105469,0.3515625 0.375,0.3515625 0.222657,0 0.539063,-0.1875 0.539063,-0.5859375 0,-0.515625 -0.585938,-0.65625 -0.925781,-0.65625 -0.574219,0 -0.925782,0.5273437 -1.042969,0.7617187 -0.257813,-0.65625 -0.785156,-0.7617187 -1.078125,-0.7617187 -1.042969,0 -1.605469,1.2890625 -1.605469,1.5351562 0,0.1054688 0.105469,0.1054688 0.117188,0.1054688 0.08203,0 0.117187,-0.023437 0.128906,-0.1171875 0.339844,-1.0546875 0.996094,-1.3007813 1.335937,-1.3007813 0.1875,0 0.539063,0.09375 0.539063,0.6679688 0,0.3046875 -0.164063,0.9726562 -0.539063,2.3671875 -0.152343,0.6210937 -0.503906,1.0429687 -0.949218,1.0429687 -0.05859,0 -0.28125,0 -0.492188,-0.12890625 0.246094,-0.0585938 0.46875,-0.26953125 0.46875,-0.5390625 0,-0.26953125 -0.222656,-0.35156245 -0.375,-0.35156245 -0.292969,0 -0.539062,0.25781245 -0.539062,0.5742187 0,0.45703125 0.492187,0.65625 0.9375,0.65625 0.65625,0 1.007812,-0.69140625 1.042968,-0.75 0.117188,0.36328125 0.480469,0.75 1.078125,0.75 1.019532,0 1.59375,-1.2773437 1.59375,-1.5351562 0,-0.09375 -0.09375,-0.09375 -0.128906,-0.09375 -0.08203,0 -0.105469,0.035156 -0.128906,0.1054687 -0.328125,1.06640625 -0.996094,1.3125 -1.324219,1.3125 -0.386719,0 -0.539062,-0.328125 -0.539062,-0.65625 0,-0.22265625 0.05859,-0.4453125 0.164062,-0.8789062 z m 0,0"
         style="fill:#eb0a36;fill-opacity:1;fill-rule:nonzero;stroke:none" />
      <path
         id="path15"
         d="m 36.925914,-2.4955625 c 0,-0.7734375 -0.117187,-1.9804687 -0.65625,-3.1054687 -0.597656,-1.21875 -1.464844,-1.875 -1.558594,-1.875 -0.05859,0 -0.105468,0.046875 -0.105468,0.1054687 0,0.035156 0,0.046875 0.199218,0.234375 0.972657,0.984375 1.535157,2.5664063 1.535157,4.640625 0,1.7109375 -0.363282,3.45703125 -1.59375,4.7226563 -0.140625,0.1171875 -0.140625,0.1289062 -0.140625,0.1640625 0,0.058594 0.04687,0.1054687 0.105468,0.1054687 0.09375,0 0.996094,-0.6796875 1.582032,-1.9453125 0.503906,-1.1015625 0.632812,-2.203125 0.632812,-3.046875 z m 0,0"
         style="fill:#eb0a36;fill-opacity:1;fill-rule:nonzero;stroke:none" />
    </g>
    <path
       id="path16"
       d="M 22.67752,0 V 87.08162"
       style="fill:none;stroke:#ec008c;stroke-width:0.3985;stroke-linecap:butt;stroke-linejoin:miter;stroke-miterlimit:10;stroke-dasharray:2.98883, 2.98883;stroke-dashoffset:0;stroke-opacity:1"
       transform="matrix(1.3333333,0,0,-1.3333333,146.812,248.48267)" />
    <path
       id="path17"
       d="M 142.41486,0 V 68.0326"
       style="fill:none;stroke:#ec008c;stroke-width:0.3985;stroke-linecap:butt;stroke-linejoin:miter;stroke-miterlimit:10;stroke-dasharray:2.98883, 2.98883;stroke-dashoffset:0;stroke-opacity:1"
       transform="matrix(1.3333333,0,0,-1.3333333,146.812,248.48267)" />
    <path
       id="path18"
       d="m 3.7161406,-3.7614141 c -0.1757812,-0.375 -0.46875,-0.6445312 -0.9140625,-0.6445312 -1.171875,0 -2.40234372,1.4648437 -2.40234372,2.9179687 0,0.93750004 0.55078125,1.59375004 1.32421872,1.59375004 0.1992188,0 0.703125,-0.03515625 1.3007813,-0.73828125 0.070312,0.41015625 0.421875,0.73828125 0.9023437,0.73828125 0.3515625,0 0.5742188,-0.22265625 0.7382813,-0.5390625 0.1640625,-0.36328125 0.2929687,-0.97265624 0.2929687,-0.99609374 0,-0.09375 -0.082031,-0.09375 -0.1171875,-0.09375 -0.09375,0 -0.1054687,0.035156 -0.140625,0.1757812 -0.1640625,0.64453129 -0.3515625,1.24218754 -0.75,1.24218754 -0.2695312,0 -0.3046875,-0.2578125 -0.3046875,-0.45703125 0,-0.22265625 0.023437,-0.3046875 0.1289063,-0.73828129 0.1171875,-0.421875 0.1289062,-0.5273437 0.2226562,-0.9023437 l 0.3515625,-1.3945313 c 0.070312,-0.28125 0.070312,-0.2929687 0.070312,-0.3398437 0,-0.1640625 -0.1171875,-0.2695313 -0.28125,-0.2695313 -0.2460937,0 -0.3867187,0.2226563 -0.4218745,0.4453125 z m -0.6445312,2.578125 c -0.046875,0.1757813 -0.046875,0.19921879 -0.1992188,0.36328129 -0.4453125,0.55078125 -0.84375,0.71484375 -1.125,0.71484375 -0.5039062,0 -0.6445312,-0.55078125 -0.6445312,-0.93750004 0,-0.5039062 0.328125,-1.7226562 0.5507812,-2.1796875 0.3046875,-0.5976562 0.7617188,-0.9609375 1.1601563,-0.9609375 0.6445312,0 0.7851562,0.8203125 0.7851562,0.8789063 0,0.058594 -0.023437,0.1171875 -0.035156,0.1640625 z m 0,0"
       style="fill:#ec008c;fill-opacity:1;fill-rule:nonzero;stroke:none"
       aria-label="a"
       transform="matrix(1.3333333,0,0,1.3333333,173.53733,259.316)" />
    <path
       id="path19"
       d="m 2.3777188,-6.8089375 c 0,0 0,-0.1054687 -0.1289063,-0.1054687 -0.2226562,0 -0.9492187,0.082031 -1.21875,0.1054687 -0.0703125,0 -0.1875,0.011719 -0.1875,0.1992188 0,0.1171875 0.09375,0.1171875 0.2460938,0.1171875 0.46875,0 0.4921875,0.070312 0.4921875,0.1640625 0,0.070312 -0.082031,0.4101562 -0.140625,0.6210937 L 0.631625,-2.4612812 c -0.12890625,0.5039062 -0.1640625,0.65625 -0.1640625,1.0078125 0,0.9492187 0.52734375,1.5585937 1.265625,1.5585937 1.171875,0 2.4023438,-1.4765625 2.4023438,-2.9179687 0,-0.9023438 -0.5273438,-1.59375 -1.3242188,-1.59375 -0.4570312,0 -0.8671875,0.2929687 -1.171875,0.5976562 z m -0.9375,3.7734375 c 0.058594,-0.2226562 0.058594,-0.2460937 0.1523437,-0.3515625 0.4921875,-0.6445312 0.9375,-0.796875 1.1953125,-0.796875 0.3632813,0 0.6328125,0.2929688 0.6328125,0.9375 0,0.5859375 -0.328125,1.734375 -0.515625,2.109375 -0.328125,0.66796875 -0.7851562,1.03125 -1.171875,1.03125 -0.3398437,0 -0.6679687,-0.26953125 -0.6679687,-1.0078125 0,-0.1875 0,-0.3867187 0.1640625,-1.0078125 z m 0,0"
       style="fill:#ec008c;fill-opacity:1;fill-rule:nonzero;stroke:none"
       aria-label="b"
       transform="matrix(1.3333333,0,0,1.3333333,333.84533,259.79733)" />
    <path
       id="path20"
       d="m 6.4225703,-6.9245469 c 0,-0.023437 -0.011719,-0.09375 -0.1054687,-0.09375 -0.046875,0 -0.058594,0.011719 -0.1757813,0.140625 l -0.4804687,0.5742188 c -0.2578125,-0.46875 -0.7734375,-0.7148438 -1.4296875,-0.7148438 -1.265625,0 -2.4609375,1.1367188 -2.4609375,2.34375 0,0.8085938 0.5273437,1.265625 1.0429687,1.4179688 l 1.0664063,0.28125 c 0.3632812,0.082031 0.9140625,0.234375 0.9140625,1.0546875 0,0.890625 -0.8203125,1.82812498 -1.7929688,1.82812498 -0.6445312,0 -1.7460937,-0.2109375 -1.7460937,-1.45312498 0,-0.234375 0.046875,-0.4804688 0.058594,-0.5390625 0.011719,-0.035156 0.023437,-0.046875 0.023437,-0.070312 0,-0.09375 -0.070312,-0.1054688 -0.1171875,-0.1054688 -0.058594,0 -0.070312,0.011719 -0.1054687,0.035156 -0.035156,0.046875 -0.59765629,2.32031248 -0.59765629,2.34374998 0,0.0585938 0.046875,0.10546875 0.1171875,0.10546875 0.046875,0 0.0585938,-0.0117188 0.17578125,-0.15234375 L 1.3014766,-0.50267187 c 0.421875,0.5859375 1.1015625,0.7265625 1.6757812,0.7265625 1.359375,0 2.53125,-1.32421873 2.53125,-2.56640623 0,-0.6796875 -0.3398437,-1.0195313 -0.4921875,-1.1601563 -0.2226562,-0.234375 -0.375,-0.2695312 -1.265625,-0.5039062 -0.2109375,-0.058594 -0.5742187,-0.1523438 -0.65625,-0.1757813 -0.2695312,-0.09375 -0.609375,-0.375 -0.609375,-0.9023437 0,-0.8085938 0.796875,-1.6523438 1.734375,-1.6523438 0.8320313,0 1.4414063,0.421875 1.4414063,1.5351563 0,0.3164062 -0.046875,0.5039062 -0.046875,0.5625 0,0.011719 0,0.09375 0.1289062,0.09375 0.09375,0 0.1054688,-0.023437 0.140625,-0.1992188 z m 0,0"
       style="fill:#000000;fill-opacity:1;fill-rule:nonzero;stroke:none"
       aria-label="S"
       transform="matrix(1.3333333,0,0,1.3333333,248.18267,217.31867)" />
  </g>
</svg>
