<?xml version="1.0" encoding="UTF-8" standalone="no"?>
<!-- Created with Inkscape (http://www.inkscape.org/) -->

<svg
   version="1.1"
   id="svg1"
   width="399.02176"
   height="139.55424"
   viewBox="0 0 399.02176 139.55425"
   sodipodi:docname="5.1-velocidad.svg"
   inkscape:version="1.4.2 (f4327f4, 2025-05-13)"
   xmlns:inkscape="http://www.inkscape.org/namespaces/inkscape"
   xmlns:sodipodi="http://sodipodi.sourceforge.net/DTD/sodipodi-0.dtd"
   xmlns="http://www.w3.org/2000/svg"
   xmlns:svg="http://www.w3.org/2000/svg">
  <defs
     id="defs1" />
  <sodipodi:namedview
     id="namedview1"
     pagecolor="#ffffff"
     bordercolor="#000000"
     borderopacity="0.25"
     inkscape:showpageshadow="2"
     inkscape:pageopacity="0.0"
     inkscape:pagecheckerboard="0"
     inkscape:deskcolor="#d1d1d1"
     inkscape:zoom="2.2241536"
     inkscape:cx="203.89779"
     inkscape:cy="91.495479"
     inkscape:window-width="1920"
     inkscape:window-height="1009"
     inkscape:window-x="-8"
     inkscape:window-y="-8"
     inkscape:window-maximized="1"
     inkscape:current-layer="g1">
    <inkscape:page
       x="0"
       y="0"
       inkscape:label="9"
       id="page1"
       width="399.02176"
       height="139.55424"
       margin="0"
       bleed="0" />
  </sodipodi:namedview>
  <g
     id="g1"
     inkscape:groupmode="layer"
     inkscape:label="9"
     transform="translate(-38.060268,-89.960936)">
    <path
       id="path2"
       d="M -28.3468,0 H 112.92896"
       style="fill:none;stroke:#000000;stroke-width:0.3985;stroke-linecap:butt;stroke-linejoin:miter;stroke-miterlimit:10;stroke-dasharray:none;stroke-opacity:1"
       transform="matrix(1.3333333,0,0,-1.3333333,75.856,210.61733)" />
    <path
       id="path3"
       d="M -1.19551,1.59401 C -1.09587,0.99626 0,0.09961 0.29886,0 0,-0.09961 -1.09587,-0.99626 -1.19551,-1.59401"
       style="fill:none;stroke:#000000;stroke-width:0.31879;stroke-linecap:round;stroke-linejoin:round;stroke-miterlimit:10;stroke-dasharray:none;stroke-opacity:1"
       transform="matrix(1.3333333,0,0,-1.3333333,226.42795,210.61733)" />
    <path
       id="path4"
       d="m 2.2496172,-4.3605391 h 1.0195312 c 0.2226563,0 0.328125,0 0.328125,-0.2226562 0,-0.1171875 -0.1054687,-0.1171875 -0.3046875,-0.1171875 H 2.3316484 c 0.3984375,-1.546875 0.4453125,-1.7695313 0.4453125,-1.8398438 0,-0.1757812 -0.1289062,-0.2929687 -0.3164062,-0.2929687 -0.023437,0 -0.328125,0.011719 -0.4335938,0.3984375 l -0.421875,1.734375 H 0.57383594 c -0.2109375,0 -0.328125,0 -0.328125,0.1992187 0,0.140625 0.09375,0.140625 0.3046875,0.140625 H 1.5113359 c -0.78515621,3.09375 -0.82031246,3.28125 -0.82031246,3.48046879 0,0.5859375 0.41015626,0.99609375 0.99609376,0.99609375 1.1132812,0 1.734375,-1.59375004 1.734375,-1.67578124 0,-0.1054688 -0.082031,-0.1054688 -0.1289063,-0.1054688 -0.09375,0 -0.1054687,0.023437 -0.1640625,0.1523438 -0.46875,1.12499999 -1.0429687,1.39453124 -1.4179687,1.39453124 -0.2226563,0 -0.3398438,-0.140625 -0.3398438,-0.50390625 0,-0.2578125 0.023437,-0.33984375 0.070312,-0.52734379 z m 0,0"
       style="fill:#000000;fill-opacity:1;fill-rule:nonzero;stroke:none"
       aria-label="t"
       transform="matrix(1.3333333,0,0,1.3333333,224.41067,224.67733)" />
    <path
       id="path5"
       d="M 0,-14.17339 V 84.58214"
       style="fill:none;stroke:#000000;stroke-width:0.3985;stroke-linecap:butt;stroke-linejoin:miter;stroke-miterlimit:10;stroke-dasharray:none;stroke-opacity:1"
       transform="matrix(1.3333333,0,0,-1.3333333,75.856,210.61733)" />
    <path
       id="path6"
       d="M -1.19551,1.59401 C -1.09587,0.99626 0,0.09961 0.29886,0 0,-0.09961 -1.09587,-0.99626 -1.19551,-1.59401"
       style="fill:none;stroke:#000000;stroke-width:0.31879;stroke-linecap:round;stroke-linejoin:round;stroke-miterlimit:10;stroke-dasharray:none;stroke-opacity:1"
       transform="matrix(0,-1.3333333,-1.3333333,0,75.856,97.841147)" />
    <g
       id="g6"
       aria-label="v(t)"
       transform="matrix(1.3333333,0,0,1.3333333,46.604,100.86667)">
      <path
         id="path7"
         d="m 5.1104766,-4.0542969 c 0,-0.5976562 -0.28125,-0.7734375 -0.4804688,-0.7734375 -0.28125,0 -0.5390625,0.2929688 -0.5390625,0.5273438 0,0.140625 0.058594,0.2109375 0.1757813,0.328125 0.234375,0.2226562 0.375,0.5039062 0.375,0.890625 0,0.46875 -0.6679688,2.96484372 -1.9453125,2.96484372 -0.5625,0 -0.8085938,-0.38671875 -0.8085938,-0.94921872 0,-0.609375 0.2929688,-1.40625 0.6328125,-2.3203125 0.082031,-0.1757813 0.1289063,-0.328125 0.1289063,-0.5390625 0,-0.4921875 -0.3515625,-0.9023438 -0.890625,-0.9023438 -1.03125004,0 -1.44140629,1.5820313 -1.44140629,1.6875 0,0.1054688 0.10546875,0.1054688 0.12890625,0.1054688 0.10546875,0 0.1171875,-0.023437 0.17578125,-0.1992188 0.31640625,-1.1015625 0.78515629,-1.3476562 1.10156249,-1.3476562 0.09375,0 0.2695313,0 0.2695313,0.3515625 0,0.2695312 -0.1054688,0.5625 -0.1757813,0.7617187 -0.4804687,1.265625 -0.6328125,1.7695313 -0.6328125,2.2382813 0,1.17187497 0.9609375,1.34765622 1.4648438,1.34765622 1.8398437,0 2.4609375,-3.60937502 2.4609375,-4.17187502 z m 0,0"
         style="fill:#000000;fill-opacity:1;fill-rule:nonzero;stroke:none" />
      <path
         id="path8"
         d="m 9.2911406,2.6136719 c 0,-0.023437 0,-0.046875 -0.1875,-0.234375 -1.359375,-1.3710938 -1.7109375,-3.4335938 -1.7109375,-5.109375 0,-1.8984375 0.421875,-3.796875 1.7578125,-5.15625 0.140625,-0.1289063 0.140625,-0.1523438 0.140625,-0.1875 0,-0.070312 -0.046875,-0.1054688 -0.1054687,-0.1054688 -0.1054688,0 -1.0898438,0.7382813 -1.734375,2.1210938 -0.5625,1.2070312 -0.6914063,2.4140625 -0.6914063,3.328125 0,0.8554687 0.1171875,2.17968747 0.7265625,3.41015622 0.6445313,1.33593748 1.59375,2.05078128 1.6992188,2.05078128 0.058594,0 0.1054687,-0.035156 0.1054687,-0.1171875 z m 0,0"
         style="fill:#000000;fill-opacity:1;fill-rule:nonzero;stroke:none" />
      <path
         id="path9"
         d="m 12.173953,-4.3589844 h 1.019531 c 0.222657,0 0.328125,0 0.328125,-0.2226562 0,-0.1171875 -0.105468,-0.1171875 -0.304687,-0.1171875 h -0.960938 c 0.398438,-1.546875 0.445313,-1.7695313 0.445313,-1.8398438 0,-0.1757812 -0.128906,-0.2929687 -0.316406,-0.2929687 -0.02344,0 -0.328125,0.011719 -0.433594,0.3984375 l -0.421875,1.734375 h -1.03125 c -0.210938,0 -0.328125,0 -0.328125,0.1992187 0,0.140625 0.09375,0.140625 0.304687,0.140625 h 0.960938 c -0.785156,3.09375 -0.820313,3.28125 -0.820313,3.48046877 0,0.5859375 0.410157,0.99609375 0.996094,0.99609375 1.113281,0 1.734375,-1.59375002 1.734375,-1.67578122 0,-0.1054688 -0.08203,-0.1054688 -0.128906,-0.1054688 -0.09375,0 -0.105469,0.023437 -0.164063,0.1523438 -0.46875,1.12499997 -1.042968,1.39453122 -1.417968,1.39453122 -0.222657,0 -0.339844,-0.140625 -0.339844,-0.50390625 0,-0.2578125 0.02344,-0.33984375 0.07031,-0.52734377 z m 0,0"
         style="fill:#000000;fill-opacity:1;fill-rule:nonzero;stroke:none" />
      <path
         id="path10"
         d="m 17.013797,-2.7300781 c 0,-0.84375 -0.117188,-2.1679688 -0.714844,-3.3984375 -0.65625,-1.3476563 -1.59375,-2.0507813 -1.710937,-2.0507813 -0.05859,0 -0.105469,0.035156 -0.105469,0.1054688 0,0.035156 0,0.058594 0.210937,0.2460937 1.066407,1.0898438 1.6875,2.8242188 1.6875,5.0976563 0,1.86328122 -0.398437,3.7851562 -1.757812,5.1679687 -0.140625,0.1289063 -0.140625,0.1523438 -0.140625,0.1757813 0,0.070312 0.04687,0.1171875 0.105469,0.1171875 0.117187,0 1.089843,-0.75 1.734375,-2.13281253 0.5625,-1.1953125 0.691406,-2.41406247 0.691406,-3.32812497 z m 0,0"
         style="fill:#000000;fill-opacity:1;fill-rule:nonzero;stroke:none" />
    </g>
    <path
       id="path11"
       d="m 14.17339,38.69138 c 0,0 0.54612,0.23222 0.75585,0.32332 0.20975,0.09109 0.54612,0.23954 0.75586,0.33328 0.20975,0.09373 0.54613,0.24623 0.75588,0.34234 0.20975,0.0961 0.54611,0.25214 0.75586,0.35036 0.20973,0.09821 0.54611,0.25748 0.75586,0.3575 0.20973,0.09999 0.54611,0.26181 0.75586,0.36332 0.20973,0.10152 0.54611,0.26552 0.75584,0.3683 0.20975,0.10277 0.54613,0.2687 0.75586,0.37241 0.20975,0.10375 0.54614,0.27085 0.75588,0.37523 0.20974,0.1044 0.54611,0.27246 0.75586,0.37718 0.20974,0.10472 0.5461,0.27283 0.75585,0.3776 0.20975,0.10479 0.54612,0.27304 0.75586,0.37762 0.20974,0.10456 0.54612,0.27205 0.75586,0.37609 0.20973,0.10401 0.54611,0.27052 0.75586,0.3737 0.20973,0.10319 0.54613,0.26797 0.75586,0.37005 0.20975,0.10209 0.54613,0.26503 0.75586,0.3657 0.20975,0.10066 0.54613,0.26095 0.75586,0.35988 0.20975,0.09894 0.54611,0.25617 0.75586,0.35316 0.20975,0.09698 0.54611,0.25105 0.75586,0.34582 0.20975,0.09476 0.54611,0.24496 0.75586,0.33716 0.20975,0.09221 0.54613,0.23804 0.75587,0.32743 0.20974,0.08938 0.54612,0.2305 0.75586,0.31683 0.20973,0.08636 0.54611,0.2225 0.75586,0.3056 0.20973,0.08307 0.54612,0.2137 0.75585,0.29326 0.20974,0.07953 0.54612,0.20427 0.75586,0.28006 0.20974,0.07581 0.54612,0.1944 0.75585,0.26624 0.20975,0.07182 0.54613,0.18385 0.75588,0.25151 0.20975,0.06767 0.54611,0.17287 0.75586,0.23616 0.20975,0.06332 0.54611,0.16139 0.75586,0.22018 0.20973,0.05876 0.54611,0.14943 0.75586,0.20351 0.20973,0.05404 0.54611,0.13702 0.75586,0.1862 0.20973,0.04918 0.54611,0.12412 0.75584,0.16826 0.20975,0.04413 0.54614,0.11084 0.75588,0.14987 0.20974,0.03905 0.54612,0.0977 0.75585,0.13149 0.20975,0.0338 0.54612,0.08358 0.75587,0.11203 0.20974,0.02844 0.5461,0.06991 0.75585,0.093 0.20975,0.02306 0.54612,0.05575 0.75586,0.0733 0.20974,0.01757 0.54612,0.04122 0.75586,0.05321 0.20973,0.01201 0.54613,0.02682 0.75588,0.03331 0.20973,0.0065 0.54611,0.01251 0.75585,0.0134 0.20974,9e-4 0.54612,-0.0022 0.75585,-0.0069 0.20975,-0.0047 0.54613,-0.01673 0.75586,-0.02702 0.20975,-0.0103 0.54613,-0.03136 0.75586,-0.04716 0.20975,-0.01581 0.54611,-0.04554 0.75586,-0.06682 0.20975,-0.0213 0.54613,-0.05997 0.75587,-0.08673 0.20975,-0.02677 0.54612,-0.07405 0.75586,-0.10619 0.20974,-0.03212 0.54611,-0.08806 0.75586,-0.12543 0.20973,-0.03738 0.54611,-0.1015 0.75586,-0.14404 0.20973,-0.04254 0.54612,-0.115 0.75585,-0.16263 0.20974,-0.04762 0.54612,-0.12805 0.75585,-0.18058 0.20975,-0.05254 0.54615,-0.1408 0.75588,-0.19811 0.20974,-0.05731 0.54611,-0.15306 0.75586,-0.21497 0.20975,-0.0619 0.54611,-0.16488 0.75586,-0.23118 0.20975,-0.06632 0.54611,-0.17626 0.75586,-0.24678 0.20973,-0.07051 0.54611,-0.18689 0.75586,-0.26146 0.20973,-0.07457 0.54611,-0.19756 0.75586,-0.27596 0.20973,-0.07841 0.54612,-0.20718 0.75586,-0.28915 0.20974,-0.08197 0.54612,-0.21632 0.75586,-0.30172 0.20974,-0.08535 0.54612,-0.2251 0.75585,-0.31358 0.20975,-0.08844 0.54612,-0.23263 0.75587,-0.32396 0.20974,-0.09133 0.5461,-0.24038 0.75585,-0.33436 0.20975,-0.09398 0.54612,-0.2467 0.75586,-0.343 0.20975,-0.09629 0.54613,-0.25264 0.75588,-0.351 0.20973,-0.09834 0.54611,-0.25777 0.75586,-0.35793 0.20973,-0.10016 0.54611,-0.26233 0.75585,-0.36398 0.20974,-0.10165 0.54612,-0.26589 0.75585,-0.36873 0.20975,-0.10286 0.54613,-0.26883 0.75586,-0.37263 0.20975,-0.10384 0.54614,-0.27121 0.75587,-0.37566 0.20975,-0.10446 0.54612,-0.27249 0.75586,-0.37718 0.20975,-0.10469 0.54612,-0.27265 0.75586,-0.37738 0.20975,-0.10477 0.54611,-0.27309 0.75586,-0.37761 0.20974,-0.10454 0.54611,-0.2719 0.75586,-0.37589 0.20973,-0.10395 0.54611,-0.2704 0.75586,-0.37349 0.20973,-0.1031 0.54613,-0.26765 0.75586,-0.36961 0.20975,-0.10196 0.54613,-0.26472 0.75586,-0.36526 0.20975,-0.10056 0.54613,-0.26067 0.75586,-0.35944 0.20974,-0.09879 0.54611,-0.25577 0.75586,-0.35252 0.20975,-0.09678 0.54611,-0.25045 0.75586,-0.34496 0.20975,-0.09451 0.54611,-0.24434 0.75586,-0.33629 0.20973,-0.09198 0.54612,-0.23742 0.75587,-0.32657 0.20973,-0.08914 0.54611,-0.22989 0.75586,-0.31597 0.20973,-0.0861 0.54611,-0.22173 0.75586,-0.3045 0.20973,-0.08279 0.54611,-0.21296 0.75584,-0.29219 0.20975,-0.07921 0.54613,-0.20333 0.75586,-0.27876 0.20975,-0.07544 0.54613,-0.19349 0.75587,-0.26494 0.20974,-0.07144 0.54612,-0.18274 0.75587,-0.25 0.20975,-0.06727 0.54611,-0.17198 0.75586,-0.23487 0.20974,-0.06289 0.54611,-0.16014 0.75586,-0.21844 0.20973,-0.0583 0.54611,-0.14816 0.75586,-0.20178 0.20973,-0.05362 0.54611,-0.13597 0.75585,-0.18469 0.20974,-0.04873 0.54612,-0.12285 0.75585,-0.16652 0.20975,-0.04368 0.54614,-0.10979 0.75587,-0.14837 0.20975,-0.03858 0.54613,-0.09642 0.75586,-0.12975 0.20975,-0.03334 0.54612,-0.08257 0.75586,-0.11052 0.20975,-0.02797 0.54612,-0.06848 0.75586,-0.09103 0.20975,-0.02257 0.54611,-0.05449 0.75586,-0.0716 0.20974,-0.0171 0.54611,-0.04017 0.75586,-0.05168 0.20973,-0.01152 0.54613,-0.02544 0.75588,-0.03136 0.20973,-0.0059 0.75584,-0.01147 0.75584,-0.01147"
       style="fill:none;stroke:#eb0a36;stroke-width:0.79701;stroke-linecap:butt;stroke-linejoin:miter;stroke-miterlimit:10;stroke-dasharray:none;stroke-opacity:1"
       transform="matrix(1.3333333,0,0,-1.3333333,75.856,210.61733)" />
    <g
       id="g11"
       aria-label="y=f(t)"
       transform="matrix(1.3333333,0,0,1.3333333,146.46267,138.34667)">
      <path
         id="path12"
         d="m 4.8385469,-3.7961328 c 0.046875,-0.140625 0.046875,-0.1523438 0.046875,-0.2226563 0,-0.1875 -0.140625,-0.2695312 -0.2929688,-0.2695312 -0.1054687,0 -0.2578125,0.058594 -0.3515625,0.1992187 -0.023437,0.058594 -0.09375,0.3632813 -0.140625,0.5390625 -0.070312,0.2578125 -0.140625,0.5273438 -0.1992187,0.796875 l -0.4453125,1.79296879 c -0.035156,0.15234375 -0.46875,0.85546875 -1.125,0.85546875 -0.5039063,0 -0.6210938,-0.4453125 -0.6210938,-0.80859375 0,-0.45703129 0.1757813,-1.07812499 0.515625,-1.95703129 0.1523438,-0.4101562 0.1992188,-0.515625 0.1992188,-0.7148437 0,-0.4453125 -0.328125,-0.8203125 -0.8203125,-0.8203125 -0.94921877,0 -1.31250002,1.453125 -1.31250002,1.5351562 0,0.1054688 0.09375,0.1054688 0.1171875,0.1054688 0.09375,0 0.10546875,-0.023437 0.15234375,-0.1875 0.26953125,-0.9375 0.66796877,-1.2304688 1.00781247,-1.2304688 0.082031,0 0.2578125,0 0.2578125,0.3164063 0,0.2460937 -0.1054687,0.515625 -0.1757812,0.703125 -0.3984375,1.0546875 -0.5742188,1.6171875 -0.5742188,2.0859375 0,0.89062499 0.6210938,1.18359374 1.21875,1.18359374 0.3867188,0 0.7265625,-0.1640625 0.9960938,-0.4453125 -0.1289063,0.515625 -0.2460938,1.0078125 -0.6445313,1.53515626 -0.2578125,0.3398437 -0.6328125,0.6328125 -1.0898437,0.6328125 -0.140625,0 -0.59765627,-0.035156 -0.76171877,-0.421875 0.1640625,0 0.29296877,0 0.43359377,-0.1171875 0.09375,-0.09375 0.1992187,-0.2226563 0.1992187,-0.41015626 0,-0.31640625 -0.2695312,-0.3515625 -0.375,-0.3515625 -0.22265622,0 -0.55078122,0.1640625 -0.55078122,0.64453126 0,0.5039062 0.43359375,0.8671875 1.05468752,0.8671875 1.0195312,0 2.0507812,-0.9023438 2.3320312,-2.02734376 z m 0,0"
         style="fill:#eb0a36;fill-opacity:1;fill-rule:nonzero;stroke:none" />
      <path
         id="path13"
         d="m 14.858078,-3.2570703 c 0.152344,0 0.339844,0 0.339844,-0.1992188 0,-0.1992187 -0.1875,-0.1992187 -0.328125,-0.1992187 H 8.9049531 c -0.140625,0 -0.328125,0 -0.328125,0.1992187 0,0.1992188 0.1875,0.1992188 0.3398438,0.1992188 z m 0.01172,1.9335937 c 0.140625,0 0.328125,0 0.328125,-0.1992187 0,-0.1992188 -0.1875,-0.1992188 -0.339844,-0.1992188 H 8.9166719 c -0.1523438,0 -0.3398438,0 -0.3398438,0.1992188 0,0.1992187 0.1875,0.1992187 0.328125,0.1992187 z m 0,0"
         style="fill:#eb0a36;fill-opacity:1;fill-rule:nonzero;stroke:none" />
      <path
         id="path14"
         d="m 22.176438,-3.9836328 h 0.855468 c 0.199219,0 0.304688,0 0.304688,-0.1992188 0,-0.1054687 -0.105469,-0.1054687 -0.269531,-0.1054687 h -0.832032 l 0.210938,-1.1367188 c 0.03516,-0.2109375 0.175781,-0.9140625 0.234375,-1.0429687 0.09375,-0.1875 0.257812,-0.3398438 0.46875,-0.3398438 0.04687,0 0.304687,0 0.492187,0.1875 -0.433593,0.035156 -0.539062,0.3867188 -0.539062,0.5390625 0,0.2226563 0.175781,0.3398438 0.363281,0.3398438 0.269531,0 0.550781,-0.2109375 0.550781,-0.5976563 0,-0.4570312 -0.457031,-0.6796875 -0.867187,-0.6796875 -0.339844,0 -0.960938,0.1757813 -1.265625,1.1601563 -0.05859,0.2109375 -0.08203,0.3164062 -0.328125,1.5703125 h -0.679688 c -0.199218,0 -0.304687,0 -0.304687,0.1875 0,0.1171875 0.09375,0.1171875 0.28125,0.1171875 h 0.65625 l -0.75,3.93749999 c -0.175781,0.9609375 -0.339844,1.87500001 -0.867188,1.87500001 -0.03516,0 -0.28125,0 -0.46875,-0.1875 0.457032,-0.023437 0.539063,-0.3867188 0.539063,-0.5390625 0,-0.22265626 -0.175781,-0.33984376 -0.363281,-0.33984376 -0.257813,0 -0.550782,0.2109375 -0.550782,0.59765626 0,0.4453125 0.433594,0.6796875 0.84375,0.6796875 0.550782,0 0.949219,-0.5859375 1.125,-0.9609375 0.328125,-0.63281251 0.550782,-1.83984376 0.5625,-1.91015626 z m 0,0"
         style="fill:#eb0a36;fill-opacity:1;fill-rule:nonzero;stroke:none" />
      <path
         id="path15"
         d="m 27.769211,2.3913672 c 0,-0.035156 0,-0.046875 -0.164063,-0.2226563 -1.242187,-1.25390621 -1.570312,-3.12890621 -1.570312,-4.6640625 0,-1.7226562 0.386719,-3.4570312 1.605469,-4.7109375 0.128906,-0.1171875 0.128906,-0.1289062 0.128906,-0.1640625 0,-0.070312 -0.03516,-0.1054687 -0.09375,-0.1054687 -0.105469,0 -0.996094,0.6796875 -1.582031,1.9453125 -0.515625,1.1015625 -0.632813,2.203125 -0.632813,3.0351562 0,0.7851563 0.117188,1.99218754 0.65625,3.11718754 0.597656,1.21874996 1.453125,1.87499996 1.558594,1.87499996 0.05859,0 0.09375,-0.035156 0.09375,-0.1054687 z m 0,0"
         style="fill:#eb0a36;fill-opacity:1;fill-rule:nonzero;stroke:none" />
      <path
         id="path16"
         d="m 30.40007,-3.9836328 h 0.9375 c 0.199219,0 0.304688,0 0.304688,-0.1992188 0,-0.1054687 -0.105469,-0.1054687 -0.28125,-0.1054687 h -0.878906 c 0.363281,-1.4179688 0.410156,-1.6171875 0.410156,-1.6757813 0,-0.1757812 -0.117188,-0.2695312 -0.292969,-0.2695312 -0.02344,0 -0.304687,0.011719 -0.398437,0.3515625 l -0.386719,1.59375 h -0.9375 c -0.199219,0 -0.292969,0 -0.292969,0.1875 0,0.1171875 0.07031,0.1171875 0.269531,0.1171875 h 0.878907 c -0.714844,2.8242187 -0.75,2.99999999 -0.75,3.17578124 0,0.5390625 0.375,0.9140625 0.914062,0.9140625 1.007813,0 1.582031,-1.45312504 1.582031,-1.53515624 0,-0.09375 -0.08203,-0.09375 -0.117187,-0.09375 -0.09375,0 -0.105469,0.023437 -0.152344,0.140625 -0.433594,1.03124999 -0.960937,1.27734374 -1.300781,1.27734374 -0.199219,0 -0.304688,-0.12890625 -0.304688,-0.45703125 0,-0.24609375 0.02344,-0.31640625 0.05859,-0.48046879 z m 0,0"
         style="fill:#eb0a36;fill-opacity:1;fill-rule:nonzero;stroke:none" />
      <path
         id="path17"
         d="m 34.829758,-2.4953516 c 0,-0.7734375 -0.117188,-1.9804687 -0.65625,-3.1054687 -0.597656,-1.21875 -1.464844,-1.875 -1.558594,-1.875 -0.05859,0 -0.105469,0.046875 -0.105469,0.1054687 0,0.035156 0,0.046875 0.199219,0.234375 0.972656,0.984375 1.535156,2.5664063 1.535156,4.640625 0,1.71093754 -0.363281,3.45703129 -1.59375,4.7226563 -0.140625,0.1171875 -0.140625,0.1289062 -0.140625,0.1640625 0,0.058594 0.04687,0.1054687 0.105469,0.1054687 0.09375,0 0.996094,-0.6796875 1.582031,-1.94531246 0.503907,-1.1015625 0.632813,-2.20312504 0.632813,-3.04687504 z m 0,0"
         style="fill:#eb0a36;fill-opacity:1;fill-rule:nonzero;stroke:none" />
    </g>
    <path
       id="path18"
       d="M 14.17339,0 V 38.69138"
       style="fill:none;stroke:#ec008c;stroke-width:0.3985;stroke-linecap:butt;stroke-linejoin:miter;stroke-miterlimit:10;stroke-dasharray:2.98883, 2.98883;stroke-dashoffset:0;stroke-opacity:1"
       transform="matrix(1.3333333,0,0,-1.3333333,75.856,210.61733)" />
    <path
       id="path19"
       d="M 89.00894,0 V 35.4337"
       style="fill:none;stroke:#ec008c;stroke-width:0.3985;stroke-linecap:butt;stroke-linejoin:miter;stroke-miterlimit:10;stroke-dasharray:2.98883, 2.98883;stroke-dashoffset:0;stroke-opacity:1"
       transform="matrix(1.3333333,0,0,-1.3333333,75.856,210.61733)" />
    <path
       id="path20"
       d="m 3.7144844,-3.7618047 c -0.1757813,-0.375 -0.46875,-0.6445312 -0.9140625,-0.6445312 -1.171875,0 -2.40234378,1.4648437 -2.40234378,2.9179687 0,0.93750001 0.55078125,1.59375001 1.32421878,1.59375001 0.1992187,0 0.703125,-0.03515625 1.3007812,-0.73828125 0.070312,0.41015625 0.421875,0.73828125 0.9023438,0.73828125 0.3515625,0 0.5742187,-0.22265625 0.7382812,-0.5390625 0.1640625,-0.36328125 0.2929688,-0.97265621 0.2929688,-0.99609371 0,-0.09375 -0.082031,-0.09375 -0.1171875,-0.09375 -0.09375,0 -0.1054688,0.035156 -0.140625,0.1757812 -0.1640625,0.64453126 -0.3515625,1.24218751 -0.75,1.24218751 -0.2695313,0 -0.3046875,-0.2578125 -0.3046875,-0.45703125 0,-0.22265625 0.023437,-0.3046875 0.1289062,-0.73828126 0.1171875,-0.421875 0.1289063,-0.5273437 0.2226563,-0.9023437 l 0.3515625,-1.3945313 c 0.070312,-0.28125 0.070312,-0.2929687 0.070312,-0.3398437 0,-0.1640625 -0.1171875,-0.2695313 -0.28125,-0.2695313 -0.2460938,0 -0.3867188,0.2226563 -0.4218745,0.4453125 z m -0.6445313,2.578125 c -0.046875,0.1757813 -0.046875,0.19921876 -0.1992187,0.36328126 -0.4453125,0.55078125 -0.84375,0.71484375 -1.125,0.71484375 -0.5039063,0 -0.6445313,-0.55078125 -0.6445313,-0.93750001 0,-0.5039062 0.328125,-1.7226562 0.5507813,-2.1796875 0.3046875,-0.5976562 0.7617187,-0.9609375 1.1601562,-0.9609375 0.6445313,0 0.7851563,0.8203125 0.7851563,0.8789063 0,0.058594 -0.023437,0.1171875 -0.035156,0.1640625 z m 0,0"
       style="fill:#ec008c;fill-opacity:1;fill-rule:nonzero;stroke:none"
       aria-label="a"
       transform="matrix(1.3333333,0,0,1.3333333,91.242667,221.44933)" />
    <path
       id="path21"
       d="m 2.3796016,-6.8078203 c 0,0 0,-0.1054688 -0.1289063,-0.1054688 -0.2226562,0 -0.9492187,0.082031 -1.21875,0.1054688 -0.0703125,0 -0.18749999,0.011719 -0.18749999,0.1992187 0,0.1171875 0.09375,0.1171875 0.24609379,0.1171875 0.46875,0 0.4921875,0.070312 0.4921875,0.1640625 0,0.070312 -0.082031,0.4101563 -0.140625,0.6210938 l -0.80859379,3.2460937 c -0.12890625,0.5039063 -0.1640625,0.65625 -0.1640625,1.0078125 0,0.94921879 0.52734375,1.55859379 1.26562499,1.55859379 1.171875,0 2.4023438,-1.47656249 2.4023438,-2.91796879 0,-0.9023437 -0.5273438,-1.59375 -1.3242188,-1.59375 -0.4570312,0 -0.8671875,0.2929688 -1.171875,0.5976563 z m -0.9375,3.7734375 c 0.058594,-0.2226563 0.058594,-0.2460938 0.1523437,-0.3515625 0.4921875,-0.6445313 0.9375,-0.796875 1.1953125,-0.796875 0.3632813,0 0.6328125,0.2929687 0.6328125,0.9375 0,0.5859375 -0.328125,1.734375 -0.515625,2.109375 -0.328125,0.66796874 -0.7851562,1.03124999 -1.171875,1.03124999 -0.3398437,0 -0.6679687,-0.26953125 -0.6679687,-1.00781249 0,-0.1875 0,-0.3867188 0.1640625,-1.0078125 z m 0,0"
       style="fill:#ec008c;fill-opacity:1;fill-rule:nonzero;stroke:none"
       aria-label="b"
       transform="matrix(1.3333333,0,0,1.3333333,191.68267,224.956)" />
    <path
       id="path22"
       d="M 127.56068,0 H 268.83646"
       style="fill:none;stroke:#000000;stroke-width:0.3985;stroke-linecap:butt;stroke-linejoin:miter;stroke-miterlimit:10;stroke-dasharray:none;stroke-opacity:1"
       transform="matrix(1.3333333,0,0,-1.3333333,75.856,210.61733)" />
    <path
       id="path23"
       d="M -1.19551,1.59401 C -1.09587,0.99626 0,0.09961 0.29886,0 0,-0.09961 -1.09587,-0.99626 -1.19551,-1.59401"
       style="fill:none;stroke:#000000;stroke-width:0.31879;stroke-linecap:round;stroke-linejoin:round;stroke-miterlimit:10;stroke-dasharray:none;stroke-opacity:1"
       transform="matrix(1.3333333,0,0,-1.3333333,434.30461,210.61733)" />
    <path
       id="path24"
       d="m 2.2498672,-4.3586094 h 1.0195312 c 0.2226563,0 0.328125,0 0.328125,-0.2226562 0,-0.1171875 -0.1054687,-0.1171875 -0.3046875,-0.1171875 H 2.3318984 c 0.3984375,-1.546875 0.4453125,-1.7695313 0.4453125,-1.8398438 0,-0.1757812 -0.1289062,-0.2929687 -0.3164062,-0.2929687 -0.023437,0 -0.328125,0.011719 -0.4335938,0.3984375 l -0.421875,1.734375 H 0.57408594 c -0.2109375,0 -0.328125,0 -0.328125,0.1992187 0,0.140625 0.09375,0.140625 0.3046875,0.140625 H 1.5115859 c -0.78515621,3.09375 -0.82031246,3.28125 -0.82031246,3.48046878 0,0.5859375 0.41015626,0.99609375 0.99609376,0.99609375 1.1132812,0 1.734375,-1.59375003 1.734375,-1.67578123 0,-0.1054688 -0.082031,-0.1054688 -0.1289063,-0.1054688 -0.09375,0 -0.1054687,0.023437 -0.1640625,0.1523438 -0.46875,1.12499998 -1.0429687,1.39453123 -1.4179687,1.39453123 -0.2226563,0 -0.3398438,-0.140625 -0.3398438,-0.50390625 0,-0.2578125 0.023437,-0.33984375 0.070312,-0.52734378 z m 0,0"
       style="fill:#000000;fill-opacity:1;fill-rule:nonzero;stroke:none"
       aria-label="t"
       transform="matrix(1.3333333,0,0,1.3333333,432.28533,224.67867)" />
    <path
       id="path25"
       d="M 155.9075,-14.17339 V 84.58214"
       style="fill:none;stroke:#000000;stroke-width:0.3985;stroke-linecap:butt;stroke-linejoin:miter;stroke-miterlimit:10;stroke-dasharray:none;stroke-opacity:1"
       transform="matrix(1.3333333,0,0,-1.3333333,75.856,210.61733)" />
    <path
       id="path26"
       d="M -1.19551,1.59401 C -1.09587,0.99626 0,0.09961 0.29886,0 0,-0.09961 -1.09587,-0.99626 -1.19551,-1.59401"
       style="fill:none;stroke:#000000;stroke-width:0.31879;stroke-linecap:round;stroke-linejoin:round;stroke-miterlimit:10;stroke-dasharray:none;stroke-opacity:1"
       transform="matrix(0,-1.3333333,-1.3333333,0,283.73267,97.841147)" />
    <g
       id="g26"
       aria-label="v(t)"
       transform="matrix(1.3333333,0,0,1.3333333,254.47867,100.868)">
      <path
         id="path27"
         d="m 5.1107266,-4.0552969 c 0,-0.5976562 -0.28125,-0.7734375 -0.4804688,-0.7734375 -0.28125,0 -0.5390625,0.2929688 -0.5390625,0.5273438 0,0.140625 0.058594,0.2109375 0.1757813,0.328125 0.234375,0.2226562 0.375,0.5039062 0.375,0.890625 0,0.46875 -0.6679688,2.96484373 -1.9453125,2.96484373 -0.5625,0 -0.8085938,-0.38671875 -0.8085938,-0.94921873 0,-0.609375 0.2929688,-1.40625 0.6328125,-2.3203125 0.082031,-0.1757813 0.1289063,-0.328125 0.1289063,-0.5390625 0,-0.4921875 -0.3515625,-0.9023438 -0.890625,-0.9023438 -1.03125004,0 -1.44140629,1.5820313 -1.44140629,1.6875 0,0.1054688 0.10546875,0.1054688 0.12890625,0.1054688 0.10546875,0 0.1171875,-0.023437 0.17578125,-0.1992188 0.31640625,-1.1015625 0.78515629,-1.3476562 1.10156249,-1.3476562 0.09375,0 0.2695313,0 0.2695313,0.3515625 0,0.2695312 -0.1054688,0.5625 -0.1757813,0.7617187 -0.4804687,1.265625 -0.6328125,1.7695313 -0.6328125,2.2382813 0,1.17187498 0.9609375,1.34765623 1.4648438,1.34765623 1.8398437,0 2.4609375,-3.60937503 2.4609375,-4.17187503 z m 0,0"
         style="fill:#000000;fill-opacity:1;fill-rule:nonzero;stroke:none" />
      <path
         id="path28"
         d="m 9.2884609,2.6126719 c 0,-0.023437 0,-0.046875 -0.1875,-0.234375 -1.359375,-1.3710938 -1.7109375,-3.4335938 -1.7109375,-5.109375 0,-1.8984375 0.421875,-3.796875 1.7578125,-5.15625 0.140625,-0.1289063 0.140625,-0.1523438 0.140625,-0.1875 0,-0.070312 -0.046875,-0.1054688 -0.1054687,-0.1054688 -0.1054688,0 -1.0898438,0.7382813 -1.734375,2.1210938 -0.5625,1.2070312 -0.6914063,2.4140625 -0.6914063,3.328125 0,0.8554687 0.1171875,2.17968748 0.7265625,3.41015623 0.6445313,1.33593747 1.59375,2.05078127 1.6992188,2.05078127 0.058594,0 0.1054687,-0.035156 0.1054687,-0.1171875 z m 0,0"
         style="fill:#000000;fill-opacity:1;fill-rule:nonzero;stroke:none" />
      <path
         id="path29"
         d="m 12.174203,-4.3599844 h 1.019531 c 0.222657,0 0.328125,0 0.328125,-0.2226562 0,-0.1171875 -0.105468,-0.1171875 -0.304687,-0.1171875 h -0.960938 c 0.398438,-1.546875 0.445313,-1.7695313 0.445313,-1.8398438 0,-0.1757812 -0.128906,-0.2929687 -0.316406,-0.2929687 -0.02344,0 -0.328125,0.011719 -0.433594,0.3984375 l -0.421875,1.734375 h -1.03125 c -0.210938,0 -0.328125,0 -0.328125,0.1992187 0,0.140625 0.09375,0.140625 0.304687,0.140625 h 0.960938 c -0.785156,3.09375 -0.820313,3.28125 -0.820313,3.48046878 0,0.5859375 0.410157,0.99609375 0.996094,0.99609375 1.113281,0 1.734375,-1.59375003 1.734375,-1.67578123 0,-0.1054688 -0.08203,-0.1054688 -0.128906,-0.1054688 -0.09375,0 -0.105469,0.023437 -0.164063,0.1523438 -0.46875,1.12499998 -1.042968,1.39453123 -1.417968,1.39453123 -0.222657,0 -0.339844,-0.140625 -0.339844,-0.50390625 0,-0.2578125 0.02344,-0.33984375 0.07031,-0.52734378 z m 0,0"
         style="fill:#000000;fill-opacity:1;fill-rule:nonzero;stroke:none" />
      <path
         id="path30"
         d="m 17.014047,-2.7310781 c 0,-0.84375 -0.117188,-2.1679688 -0.714844,-3.3984375 -0.65625,-1.3476563 -1.59375,-2.0507813 -1.710937,-2.0507813 -0.05859,0 -0.105469,0.035156 -0.105469,0.1054688 0,0.035156 0,0.058594 0.210937,0.2460937 1.066407,1.0898438 1.6875,2.8242188 1.6875,5.0976563 0,1.86328123 -0.398437,3.7851562 -1.757812,5.1679687 -0.140625,0.1289063 -0.140625,0.1523438 -0.140625,0.1757813 0,0.070312 0.04687,0.1171875 0.105469,0.1171875 0.117187,0 1.089843,-0.75 1.734375,-2.13281252 0.5625,-1.1953125 0.691406,-2.41406248 0.691406,-3.32812498 z m 0,0"
         style="fill:#000000;fill-opacity:1;fill-rule:nonzero;stroke:none" />
    </g>
    <path
       id="path31"
       d="M 170.0809,0 V 45.825 H 185.048 V 0 Z"
       style="fill:#9999ff;fill-opacity:0.35;fill-rule:nonzero;stroke:#000000;stroke-width:0.3985;stroke-linecap:butt;stroke-linejoin:miter;stroke-miterlimit:10;stroke-dasharray:none;stroke-opacity:0.35"
       transform="matrix(1.3333333,0,0,-1.3333333,75.856,210.61733)" />
    <path
       id="path32"
       d="m 185.048,0 v 49.60344 h 14.96712 V 0 Z"
       style="fill:#9999ff;fill-opacity:0.35;fill-rule:nonzero;stroke:#000000;stroke-width:0.3985;stroke-linecap:butt;stroke-linejoin:miter;stroke-miterlimit:10;stroke-dasharray:none;stroke-opacity:0.35"
       transform="matrix(1.3333333,0,0,-1.3333333,75.856,210.61733)" />
    <path
       id="path33"
       d="m 200.01512,0 v 46.19029 h 14.96712 V 0 Z"
       style="fill:#9999ff;fill-opacity:0.35;fill-rule:nonzero;stroke:#000000;stroke-width:0.3985;stroke-linecap:butt;stroke-linejoin:miter;stroke-miterlimit:10;stroke-dasharray:none;stroke-opacity:0.35"
       transform="matrix(1.3333333,0,0,-1.3333333,75.856,210.61733)" />
    <path
       id="path34"
       d="m 214.98224,0 v 39.05103 h 14.9671 V 0 Z"
       style="fill:#9999ff;fill-opacity:0.35;fill-rule:nonzero;stroke:#000000;stroke-width:0.3985;stroke-linecap:butt;stroke-linejoin:miter;stroke-miterlimit:10;stroke-dasharray:none;stroke-opacity:0.35"
       transform="matrix(1.3333333,0,0,-1.3333333,75.856,210.61733)" />
    <path
       id="path35"
       d="m 229.94934,0 v 35.4337 h 14.96712 V 0 Z"
       style="fill:#9999ff;fill-opacity:0.35;fill-rule:nonzero;stroke:#000000;stroke-width:0.3985;stroke-linecap:butt;stroke-linejoin:miter;stroke-miterlimit:10;stroke-dasharray:none;stroke-opacity:0.35"
       transform="matrix(1.3333333,0,0,-1.3333333,75.856,210.61733)" />
    <path
       id="path36"
       d="m 170.0809,38.69138 c 0,0 0.54611,0.23222 0.75586,0.32332 0.20974,0.09109 0.54611,0.23954 0.75584,0.33328 0.20975,0.09373 0.54615,0.24623 0.75588,0.34234 0.20975,0.0961 0.54612,0.25214 0.75586,0.35036 0.20975,0.09821 0.54611,0.25748 0.75586,0.3575 0.20975,0.09999 0.54611,0.26181 0.75586,0.36332 0.20974,0.10152 0.54611,0.26552 0.75586,0.3683 0.20973,0.10277 0.54611,0.2687 0.75586,0.37241 0.20973,0.10375 0.54612,0.27085 0.75587,0.37523 0.20973,0.1044 0.54611,0.27246 0.75585,0.37718 0.20974,0.10472 0.54612,0.27283 0.75586,0.3776 0.20974,0.10479 0.54612,0.27304 0.75585,0.37762 0.20975,0.10456 0.54612,0.27205 0.75586,0.37609 0.20975,0.10401 0.54612,0.27052 0.75586,0.3737 0.20975,0.10319 0.54613,0.26797 0.75588,0.37005 0.20975,0.10209 0.54611,0.26503 0.75586,0.3657 0.20973,0.10066 0.54611,0.26095 0.75586,0.35988 0.20973,0.09894 0.54611,0.25617 0.75586,0.35316 0.20973,0.09698 0.54611,0.25105 0.75584,0.34582 0.20975,0.09476 0.54613,0.24496 0.75586,0.33716 0.20975,0.09221 0.54614,0.23804 0.75587,0.32743 0.20975,0.08938 0.54612,0.2305 0.75586,0.31683 0.20975,0.08636 0.54612,0.2225 0.75586,0.3056 0.20975,0.08307 0.54612,0.2137 0.75586,0.29326 0.20973,0.07953 0.54611,0.20427 0.75586,0.28006 0.20973,0.07581 0.54611,0.1944 0.75586,0.26624 0.20974,0.07182 0.54613,0.18385 0.75586,0.25151 0.20975,0.06767 0.54613,0.17287 0.75586,0.23616 0.20975,0.06332 0.54612,0.16139 0.75586,0.22018 0.20975,0.05876 0.54611,0.14943 0.75586,0.20351 0.20975,0.05404 0.54611,0.13702 0.75586,0.1862 0.20974,0.04918 0.54611,0.12412 0.75586,0.16826 0.20973,0.04413 0.54612,0.11084 0.75587,0.14987 0.20973,0.03905 0.54611,0.0977 0.75586,0.13149 0.20973,0.0338 0.54611,0.08358 0.75586,0.11203 0.20973,0.02844 0.54611,0.06991 0.75584,0.093 0.20975,0.02306 0.54613,0.05575 0.75586,0.0733 0.20975,0.01757 0.54613,0.04122 0.75586,0.05321 0.20975,0.01201 0.54613,0.02682 0.75588,0.03331 0.20975,0.0065 0.54611,0.01251 0.75585,0.0134 0.20975,9e-4 0.54612,-0.0022 0.75587,-0.0069 0.20973,-0.0047 0.54611,-0.01673 0.75586,-0.02702 0.20973,-0.0103 0.54611,-0.03136 0.75586,-0.04716 0.20973,-0.01581 0.54611,-0.04554 0.75584,-0.06682 0.20975,-0.0213 0.54614,-0.05997 0.75587,-0.08673 0.20975,-0.02677 0.54613,-0.07405 0.75586,-0.10619 0.20975,-0.03212 0.54612,-0.08806 0.75586,-0.12543 0.20975,-0.03738 0.54612,-0.1015 0.75586,-0.14404 0.20975,-0.04254 0.54612,-0.115 0.75586,-0.16263 0.20973,-0.04762 0.54611,-0.12805 0.75586,-0.18058 0.20973,-0.05254 0.54613,-0.1408 0.75588,-0.19811 0.20973,-0.05731 0.54611,-0.15306 0.75584,-0.21497 0.20975,-0.0619 0.54613,-0.16488 0.75586,-0.23118 0.20975,-0.06632 0.54612,-0.17626 0.75586,-0.24678 0.20975,-0.07051 0.54611,-0.18689 0.75586,-0.26146 0.20975,-0.07457 0.54611,-0.19756 0.75586,-0.27596 0.20974,-0.07841 0.54612,-0.20718 0.75587,-0.28915 0.20975,-0.08197 0.54611,-0.21632 0.75586,-0.30172 0.20973,-0.08535 0.54611,-0.2251 0.75586,-0.31358 0.20973,-0.08844 0.54611,-0.23263 0.75586,-0.32396 0.20973,-0.09133 0.54611,-0.24038 0.75584,-0.33436 0.20975,-0.09398 0.54613,-0.2467 0.75586,-0.343 0.20975,-0.09629 0.54615,-0.25264 0.75588,-0.351 0.20975,-0.09834 0.54611,-0.25777 0.75586,-0.35793 0.20975,-0.10016 0.54611,-0.26233 0.75585,-0.36398 0.20975,-0.10165 0.54612,-0.26589 0.75587,-0.36873 0.20973,-0.10286 0.54611,-0.26883 0.75586,-0.37263 0.20973,-0.10384 0.54612,-0.27121 0.75587,-0.37566 0.20973,-0.10446 0.54611,-0.27249 0.75584,-0.37718 0.20975,-0.10469 0.54613,-0.27265 0.75586,-0.37738 0.20975,-0.10477 0.54613,-0.27309 0.75586,-0.37761 0.20975,-0.10454 0.54612,-0.2719 0.75586,-0.37589 0.20975,-0.10395 0.54611,-0.2704 0.75586,-0.37349 0.20975,-0.1031 0.54613,-0.26765 0.75588,-0.36961 0.20973,-0.10196 0.54611,-0.26472 0.75586,-0.36526 0.20973,-0.10056 0.54611,-0.26067 0.75586,-0.35944 0.20973,-0.09879 0.54611,-0.25577 0.75586,-0.35252 0.20973,-0.09678 0.54611,-0.25045 0.75584,-0.34496 0.20975,-0.09451 0.54612,-0.24434 0.75586,-0.33629 0.20975,-0.09198 0.54614,-0.23742 0.75587,-0.32657 0.20975,-0.08914 0.54612,-0.22989 0.75586,-0.31597 0.20975,-0.0861 0.54611,-0.22173 0.75586,-0.3045 0.20975,-0.08279 0.54611,-0.21296 0.75586,-0.29219 0.20973,-0.07921 0.54611,-0.20333 0.75586,-0.27876 0.20973,-0.07544 0.54611,-0.19349 0.75586,-0.26494 0.20973,-0.07144 0.54613,-0.18274 0.75586,-0.25 0.20975,-0.06727 0.54613,-0.17198 0.75586,-0.23487 0.20975,-0.06289 0.54613,-0.16014 0.75586,-0.21844 0.20975,-0.0583 0.54611,-0.14816 0.75586,-0.20178 0.20975,-0.05362 0.54611,-0.13597 0.75585,-0.18469 0.20975,-0.04873 0.54612,-0.12285 0.75587,-0.16652 0.20973,-0.04368 0.54613,-0.10979 0.75587,-0.14837 0.20973,-0.03858 0.54611,-0.09642 0.75586,-0.12975 0.20973,-0.03334 0.54611,-0.08257 0.75584,-0.11052 0.20975,-0.02797 0.54613,-0.06848 0.75586,-0.09103 0.20975,-0.02257 0.54613,-0.05449 0.75586,-0.0716 0.20975,-0.0171 0.54612,-0.04017 0.75586,-0.05168 0.20975,-0.01152 0.54613,-0.02544 0.75588,-0.03136 0.20974,-0.0059 0.75586,-0.01147 0.75586,-0.01147"
       style="fill:none;stroke:#eb0a36;stroke-width:0.79701;stroke-linecap:butt;stroke-linejoin:miter;stroke-miterlimit:10;stroke-dasharray:none;stroke-opacity:1"
       transform="matrix(1.3333333,0,0,-1.3333333,75.856,210.61733)" />
    <g
       id="g36"
       aria-label="y=f(t)"
       transform="matrix(1.3333333,0,0,1.3333333,354.33733,138.348)">
      <path
         id="path37"
         d="m 4.8387969,-3.7971328 c 0.046875,-0.140625 0.046875,-0.1523438 0.046875,-0.2226563 0,-0.1875 -0.140625,-0.2695312 -0.2929688,-0.2695312 -0.1054687,0 -0.2578125,0.058594 -0.3515625,0.1992187 -0.023437,0.058594 -0.09375,0.3632813 -0.140625,0.5390625 -0.070312,0.2578125 -0.140625,0.5273438 -0.1992187,0.796875 l -0.4453125,1.79296879 c -0.035156,0.15234375 -0.46875,0.85546875 -1.125,0.85546875 -0.5039063,0 -0.6210938,-0.4453125 -0.6210938,-0.80859375 0,-0.45703129 0.1757813,-1.07812499 0.515625,-1.95703129 0.1523438,-0.4101562 0.1992188,-0.515625 0.1992188,-0.7148437 0,-0.4453125 -0.328125,-0.8203125 -0.8203125,-0.8203125 -0.94921877,0 -1.31250002,1.453125 -1.31250002,1.5351562 0,0.1054688 0.09375,0.1054688 0.1171875,0.1054688 0.09375,0 0.10546875,-0.023437 0.15234375,-0.1875 0.26953125,-0.9375 0.66796877,-1.2304688 1.00781247,-1.2304688 0.082031,0 0.2578125,0 0.2578125,0.3164063 0,0.2460937 -0.1054687,0.515625 -0.1757812,0.703125 -0.3984375,1.0546875 -0.5742188,1.6171875 -0.5742188,2.0859375 0,0.89062499 0.6210938,1.18359374 1.21875,1.18359374 0.3867188,0 0.7265625,-0.1640625 0.9960938,-0.4453125 -0.1289063,0.515625 -0.2460938,1.0078125 -0.6445313,1.53515626 -0.2578125,0.3398437 -0.6328125,0.6328125 -1.0898437,0.6328125 -0.140625,0 -0.59765627,-0.035156 -0.76171877,-0.421875 0.1640625,0 0.29296877,0 0.43359377,-0.1171875 0.09375,-0.09375 0.1992187,-0.2226563 0.1992187,-0.41015626 0,-0.31640625 -0.2695312,-0.3515625 -0.375,-0.3515625 -0.22265622,0 -0.55078122,0.1640625 -0.55078122,0.64453126 0,0.5039062 0.43359375,0.8671875 1.05468752,0.8671875 1.0195312,0 2.0507812,-0.9023438 2.3320312,-2.02734376 z m 0,0"
         style="fill:#eb0a36;fill-opacity:1;fill-rule:nonzero;stroke:none" />
      <path
         id="path38"
         d="m 14.855398,-3.2580703 c 0.152344,0 0.339844,0 0.339844,-0.1992188 0,-0.1992187 -0.1875,-0.1992187 -0.328125,-0.1992187 H 8.9022734 c -0.140625,0 -0.328125,0 -0.328125,0.1992187 0,0.1992188 0.1875,0.1992188 0.3398438,0.1992188 z m 0.01172,1.9335937 c 0.140625,0 0.328125,0 0.328125,-0.1992187 0,-0.1992188 -0.1875,-0.1992188 -0.339844,-0.1992188 H 8.9139922 c -0.1523438,0 -0.3398438,0 -0.3398438,0.1992188 0,0.1992187 0.1875,0.1992187 0.328125,0.1992187 z m 0,0"
         style="fill:#eb0a36;fill-opacity:1;fill-rule:nonzero;stroke:none" />
      <path
         id="path39"
         d="m 22.176688,-3.9846328 h 0.855468 c 0.199219,0 0.304688,0 0.304688,-0.1992188 0,-0.1054687 -0.105469,-0.1054687 -0.269531,-0.1054687 h -0.832032 l 0.210938,-1.1367188 c 0.03516,-0.2109375 0.175781,-0.9140625 0.234375,-1.0429687 0.09375,-0.1875 0.257812,-0.3398438 0.46875,-0.3398438 0.04687,0 0.304687,0 0.492187,0.1875 -0.433593,0.035156 -0.539062,0.3867188 -0.539062,0.5390625 0,0.2226563 0.175781,0.3398438 0.363281,0.3398438 0.269531,0 0.550781,-0.2109375 0.550781,-0.5976563 0,-0.4570312 -0.457031,-0.6796875 -0.867187,-0.6796875 -0.339844,0 -0.960938,0.1757813 -1.265625,1.1601563 -0.05859,0.2109375 -0.08203,0.3164062 -0.328125,1.5703125 h -0.679688 c -0.199218,0 -0.304687,0 -0.304687,0.1875 0,0.1171875 0.09375,0.1171875 0.28125,0.1171875 h 0.65625 l -0.75,3.93749999 c -0.175781,0.9609375 -0.339844,1.87500001 -0.867188,1.87500001 -0.03516,0 -0.28125,0 -0.46875,-0.1875 0.457032,-0.023437 0.539063,-0.3867188 0.539063,-0.5390625 0,-0.22265626 -0.175781,-0.33984376 -0.363281,-0.33984376 -0.257813,0 -0.550782,0.2109375 -0.550782,0.59765626 0,0.4453125 0.433594,0.6796875 0.84375,0.6796875 0.550782,0 0.949219,-0.5859375 1.125,-0.9609375 0.328125,-0.63281251 0.550782,-1.83984376 0.5625,-1.91015626 z m 0,0"
         style="fill:#eb0a36;fill-opacity:1;fill-rule:nonzero;stroke:none" />
      <path
         id="path40"
         d="m 27.769461,2.3903672 c 0,-0.035156 0,-0.046875 -0.164063,-0.2226563 -1.242187,-1.25390621 -1.570312,-3.12890621 -1.570312,-4.6640625 0,-1.7226562 0.386719,-3.4570312 1.605469,-4.7109375 0.128906,-0.1171875 0.128906,-0.1289062 0.128906,-0.1640625 0,-0.070312 -0.03516,-0.1054687 -0.09375,-0.1054687 -0.105469,0 -0.996094,0.6796875 -1.582031,1.9453125 -0.515625,1.1015625 -0.632813,2.203125 -0.632813,3.0351562 0,0.7851563 0.117188,1.99218754 0.65625,3.11718754 0.597656,1.21874996 1.453125,1.87499996 1.558594,1.87499996 0.05859,0 0.09375,-0.035156 0.09375,-0.1054687 z m 0,0"
         style="fill:#eb0a36;fill-opacity:1;fill-rule:nonzero;stroke:none" />
      <path
         id="path41"
         d="m 30.40032,-3.9846328 h 0.9375 c 0.199219,0 0.304688,0 0.304688,-0.1992188 0,-0.1054687 -0.105469,-0.1054687 -0.28125,-0.1054687 h -0.878906 c 0.363281,-1.4179688 0.410156,-1.6171875 0.410156,-1.6757813 0,-0.1757812 -0.117188,-0.2695312 -0.292969,-0.2695312 -0.02344,0 -0.304687,0.011719 -0.398437,0.3515625 l -0.386719,1.59375 h -0.9375 c -0.199219,0 -0.292969,0 -0.292969,0.1875 0,0.1171875 0.07031,0.1171875 0.269531,0.1171875 h 0.878907 c -0.714844,2.8242187 -0.75,2.99999999 -0.75,3.17578124 0,0.5390625 0.375,0.9140625 0.914062,0.9140625 1.007813,0 1.582031,-1.45312504 1.582031,-1.53515624 0,-0.09375 -0.08203,-0.09375 -0.117187,-0.09375 -0.09375,0 -0.105469,0.023437 -0.152344,0.140625 -0.433594,1.03124999 -0.960937,1.27734374 -1.300781,1.27734374 -0.199219,0 -0.304688,-0.12890625 -0.304688,-0.45703125 0,-0.24609375 0.02344,-0.31640625 0.05859,-0.48046879 z m 0,0"
         style="fill:#eb0a36;fill-opacity:1;fill-rule:nonzero;stroke:none" />
      <path
         id="path42"
         d="m 34.830008,-2.4963516 c 0,-0.7734375 -0.117188,-1.9804687 -0.65625,-3.1054687 -0.597656,-1.21875 -1.464844,-1.875 -1.558594,-1.875 -0.05859,0 -0.105469,0.046875 -0.105469,0.1054687 0,0.035156 0,0.046875 0.199219,0.234375 0.972656,0.984375 1.535156,2.5664063 1.535156,4.640625 0,1.71093754 -0.363281,3.45703129 -1.59375,4.7226563 -0.140625,0.1171875 -0.140625,0.1289062 -0.140625,0.1640625 0,0.058594 0.04687,0.1054687 0.105469,0.1054687 0.09375,0 0.996094,-0.6796875 1.582031,-1.94531246 0.503907,-1.1015625 0.632813,-2.20312504 0.632813,-3.04687504 z m 0,0"
         style="fill:#eb0a36;fill-opacity:1;fill-rule:nonzero;stroke:none" />
    </g>
    <path
       id="path43"
       d="M 170.0809,0 V 38.69138"
       style="fill:none;stroke:#ec008c;stroke-width:0.3985;stroke-linecap:butt;stroke-linejoin:miter;stroke-miterlimit:10;stroke-dasharray:2.98883, 2.98883;stroke-dashoffset:0;stroke-opacity:1"
       transform="matrix(1.3333333,0,0,-1.3333333,75.856,210.61733)" />
    <path
       id="path44"
       d="M 244.91646,0 V 35.4337"
       style="fill:none;stroke:#ec008c;stroke-width:0.3985;stroke-linecap:butt;stroke-linejoin:miter;stroke-miterlimit:10;stroke-dasharray:2.98883, 2.98883;stroke-dashoffset:0;stroke-opacity:1"
       transform="matrix(1.3333333,0,0,-1.3333333,75.856,210.61733)" />
    <path
       id="path45"
       d="m 3.7147344,-3.7628047 c -0.1757813,-0.375 -0.46875,-0.6445312 -0.9140625,-0.6445312 -1.171875,0 -2.40234377,1.4648437 -2.40234377,2.9179687 0,0.93750001 0.55078125,1.59375001 1.32421877,1.59375001 0.1992187,0 0.703125,-0.03515625 1.3007812,-0.73828125 0.070312,0.41015625 0.421875,0.73828125 0.9023438,0.73828125 0.3515625,0 0.5742187,-0.22265625 0.7382812,-0.5390625 0.1640625,-0.36328125 0.2929688,-0.97265621 0.2929688,-0.99609371 0,-0.09375 -0.082031,-0.09375 -0.1171875,-0.09375 -0.09375,0 -0.1054688,0.035156 -0.140625,0.1757812 -0.1640625,0.64453126 -0.3515625,1.24218751 -0.75,1.24218751 -0.2695313,0 -0.3046875,-0.2578125 -0.3046875,-0.45703125 0,-0.22265625 0.023437,-0.3046875 0.1289062,-0.73828126 0.1171875,-0.421875 0.1289063,-0.5273437 0.2226563,-0.9023437 l 0.3515625,-1.3945313 c 0.070312,-0.28125 0.070312,-0.2929687 0.070312,-0.3398437 0,-0.1640625 -0.1171875,-0.2695313 -0.28125,-0.2695313 -0.2460938,0 -0.3867188,0.2226563 -0.4218745,0.4453125 z m -0.6445313,2.578125 c -0.046875,0.1757813 -0.046875,0.19921876 -0.1992187,0.36328126 -0.4453125,0.55078125 -0.84375,0.71484375 -1.125,0.71484375 -0.5039063,0 -0.6445313,-0.55078125 -0.6445313,-0.93750001 0,-0.5039062 0.328125,-1.7226562 0.5507813,-2.1796875 0.3046875,-0.5976562 0.7617187,-0.9609375 1.1601562,-0.9609375 0.6445313,0 0.7851563,0.8203125 0.7851563,0.8789063 0,0.058594 -0.023437,0.1171875 -0.035156,0.1640625 z m 0,0"
       style="fill:#ec008c;fill-opacity:1;fill-rule:nonzero;stroke:none"
       aria-label="a"
       transform="matrix(1.3333333,0,0,1.3333333,299.11733,221.45067)" />
    <path
       id="path46"
       d="m 2.3798516,-6.8078203 c 0,0 0,-0.1054688 -0.1289063,-0.1054688 -0.2226562,0 -0.9492187,0.082031 -1.21875,0.1054688 -0.0703125,0 -0.18749999,0.011719 -0.18749999,0.1992187 0,0.1171875 0.09375,0.1171875 0.24609379,0.1171875 0.46875,0 0.4921875,0.070312 0.4921875,0.1640625 0,0.070312 -0.082031,0.4101563 -0.140625,0.6210938 l -0.80859379,3.2460937 c -0.12890625,0.5039063 -0.1640625,0.65625 -0.1640625,1.0078125 0,0.94921879 0.52734375,1.55859379 1.26562499,1.55859379 1.171875,0 2.4023438,-1.47656249 2.4023438,-2.91796879 0,-0.9023437 -0.5273438,-1.59375 -1.3242188,-1.59375 -0.4570312,0 -0.8671875,0.2929688 -1.171875,0.5976563 z m -0.9375,3.7734375 c 0.058594,-0.2226563 0.058594,-0.2460938 0.1523437,-0.3515625 0.4921875,-0.6445313 0.9375,-0.796875 1.1953125,-0.796875 0.3632813,0 0.6328125,0.2929687 0.6328125,0.9375 0,0.5859375 -0.328125,1.734375 -0.515625,2.109375 -0.328125,0.66796874 -0.7851562,1.03124999 -1.171875,1.03124999 -0.3398437,0 -0.6679687,-0.26953125 -0.6679687,-1.00781249 0,-0.1875 0,-0.3867188 0.1640625,-1.0078125 z m 0,0"
       style="fill:#ec008c;fill-opacity:1;fill-rule:nonzero;stroke:none"
       aria-label="b"
       transform="matrix(1.3333333,0,0,1.3333333,399.55733,224.956)" />
    <g
       id="g46"
       aria-label="t&#10;i−1"
       transform="matrix(1.3333333,0,0,1.3333333,332.18933,223.90133)">
      <path
         id="path47"
         d="m 2.0494063,-3.9836172 h 0.9375 c 0.1992187,0 0.3046875,0 0.3046875,-0.1992187 0,-0.1054688 -0.1054688,-0.1054688 -0.28125,-0.1054688 H 2.1314375 c 0.3632813,-1.4179687 0.4101563,-1.6171875 0.4101563,-1.6757812 0,-0.1757813 -0.1171875,-0.2695313 -0.2929688,-0.2695313 -0.023437,0 -0.3046875,0.011719 -0.3984375,0.3515625 l -0.3867187,1.59375 H 0.52596875 c -0.19921875,0 -0.29296875,0 -0.29296875,0.1875 0,0.1171875 0.0703125,0.1171875 0.26953125,0.1171875 H 1.3814375 c -0.71484375,2.8242188 -0.75,3.00000001 -0.75,3.17578126 0,0.5390625 0.375,0.9140625 0.9140625,0.9140625 1.0078125,0 1.5820313,-1.45312496 1.5820313,-1.53515626 0,-0.09375 -0.082031,-0.09375 -0.1171875,-0.09375 -0.09375,0 -0.1054688,0.023437 -0.1523438,0.140625 -0.4335937,1.03125001 -0.9609375,1.27734376 -1.3007812,1.27734376 -0.1992188,0 -0.3046875,-0.12890625 -0.3046875,-0.45703125 0,-0.24609375 0.023437,-0.31640625 0.058594,-0.48046871 z m 0,0"
         style="fill:#ec008c;fill-opacity:1;fill-rule:nonzero;stroke:none" />
      <path
         id="path48"
         d="m 5.8609297,-2.8644766 c 0,-0.1054687 -0.082031,-0.2578125 -0.28125,-0.2578125 -0.1875,0 -0.3867188,0.1757813 -0.3867188,0.375 0,0.1171875 0.082031,0.2695313 0.2695313,0.2695313 0.2109375,0 0.3984375,-0.1992188 0.3984375,-0.3867188 z M 4.4312422,0.67458594 c -0.023437,0.09375 -0.058594,0.17578125 -0.058594,0.29296875 0,0.32812501 0.28125,0.59765621 0.6679688,0.59765621 0.6914062,0 0.9960937,-0.96093746 0.9960937,-1.06640621 0,-0.09375 -0.082031,-0.09375 -0.1054687,-0.09375 -0.1054688,0 -0.1054688,0.046875 -0.140625,0.1171875 C 5.6382734,1.0847422 5.3335859,1.3659922 5.0523359,1.3659922 c -0.140625,0 -0.1757812,-0.082031 -0.1757812,-0.2460938 0,-0.15234371 0.058594,-0.29296871 0.1171875,-0.44531246 0.070312,-0.1875 0.140625,-0.375 0.2226562,-0.55078125 0.058594,-0.1640625 0.3164063,-0.80859375 0.3398438,-0.890625 0.023437,-0.0703125 0.046875,-0.15234375 0.046875,-0.22265625 0,-0.32812504 -0.28125,-0.58593754 -0.6679688,-0.58593754 -0.6914062,0 -1.0078125,0.94921879 -1.0078125,1.06640629 0,0.0820312 0.09375,0.0820312 0.1171875,0.0820312 0.09375,0 0.1054688,-0.0351563 0.1289063,-0.10546875 0.1757812,-0.59765624 0.4804687,-0.85546874 0.7382812,-0.85546874 0.1171875,0 0.1757813,0.058594 0.1757813,0.2460938 0,0.16406244 -0.035156,0.26953119 -0.2109375,0.70312494 z m 0,0"
         style="fill:#ec008c;fill-opacity:1;fill-rule:nonzero;stroke:none" />
      <path
         id="path49"
         d="m 11.608977,-0.07541406 c 0.105468,0 0.269531,0 0.269531,-0.17578125 0,-0.17578125 -0.152344,-0.17578125 -0.269531,-0.17578125 H 7.4488203 c -0.1054687,0 -0.28125,0 -0.28125,0.17578125 0,0.17578125 0.1640625,0.17578125 0.28125,0.17578125 z m 0,0"
         style="fill:#ec008c;fill-opacity:1;fill-rule:nonzero;stroke:none" />
      <path
         id="path50"
         d="m 14.975188,-2.9347891 c 0,-0.1875 -0.01172,-0.1992187 -0.210938,-0.1992187 -0.445312,0.4335937 -1.078125,0.4453125 -1.359375,0.4453125 v 0.2460937 c 0.164063,0 0.621094,0 1.007813,-0.1875 v 3.55078129 c 0,0.23437501 0,0.32812501 -0.691407,0.32812501 H 13.45175 v 0.2460937 c 0.128906,-0.011719 0.984375,-0.023437 1.242188,-0.023437 0.210937,0 1.089843,0.011719 1.242187,0.023437 V 1.2488047 h -0.257812 c -0.703125,0 -0.703125,-0.09375 -0.703125,-0.32812501 z m 0,0"
         style="fill:#ec008c;fill-opacity:1;fill-rule:nonzero;stroke:none" />
    </g>
    <g
       id="g50"
       aria-label="t&#10;i"
       transform="matrix(1.3333333,0,0,1.3333333,357.88533,223.90133)">
      <path
         id="path51"
         d="m 2.0518203,-3.9836172 h 0.9375 c 0.1992188,0 0.3046875,0 0.3046875,-0.1992187 0,-0.1054688 -0.1054687,-0.1054688 -0.28125,-0.1054688 H 2.1338516 c 0.3632812,-1.4179687 0.4101562,-1.6171875 0.4101562,-1.6757812 0,-0.1757813 -0.1171875,-0.2695313 -0.2929687,-0.2695313 -0.023437,0 -0.3046875,0.011719 -0.3984375,0.3515625 l -0.3867188,1.59375 H 0.52838281 c -0.19921875,0 -0.29296875,0 -0.29296875,0.1875 0,0.1171875 0.0703125,0.1171875 0.26953125,0.1171875 H 1.3838516 c -0.71484379,2.8242188 -0.75000004,3.00000001 -0.75000004,3.17578126 0,0.5390625 0.37500004,0.9140625 0.91406254,0.9140625 1.0078125,0 1.5820312,-1.45312496 1.5820312,-1.53515626 0,-0.09375 -0.082031,-0.09375 -0.1171875,-0.09375 -0.09375,0 -0.1054687,0.023437 -0.1523437,0.140625 -0.4335938,1.03125001 -0.9609375,1.27734376 -1.3007813,1.27734376 -0.1992187,0 -0.3046875,-0.12890625 -0.3046875,-0.45703125 0,-0.24609375 0.023437,-0.31640625 0.058594,-0.48046871 z m 0,0"
         style="fill:#ec008c;fill-opacity:1;fill-rule:nonzero;stroke:none" />
      <path
         id="path52"
         d="m 5.8604141,-2.8644766 c 0,-0.1054687 -0.082031,-0.2578125 -0.28125,-0.2578125 -0.1875,0 -0.3867188,0.1757813 -0.3867188,0.375 0,0.1171875 0.082031,0.2695313 0.2695313,0.2695313 0.2109375,0 0.3984375,-0.1992188 0.3984375,-0.3867188 z M 4.4307266,0.67458594 c -0.023437,0.09375 -0.058594,0.17578125 -0.058594,0.29296875 0,0.32812501 0.28125,0.59765621 0.6679688,0.59765621 0.6914062,0 0.9960937,-0.96093746 0.9960937,-1.06640621 0,-0.09375 -0.082031,-0.09375 -0.1054687,-0.09375 -0.1054688,0 -0.1054688,0.046875 -0.140625,0.1171875 C 5.6377578,1.0847422 5.3330703,1.3659922 5.0518203,1.3659922 c -0.140625,0 -0.1757812,-0.082031 -0.1757812,-0.2460938 0,-0.15234371 0.058594,-0.29296871 0.1171875,-0.44531246 0.070312,-0.1875 0.140625,-0.375 0.2226562,-0.55078125 0.058594,-0.1640625 0.3164063,-0.80859375 0.3398438,-0.890625 0.023437,-0.0703125 0.046875,-0.15234375 0.046875,-0.22265625 0,-0.32812504 -0.28125,-0.58593754 -0.6679688,-0.58593754 -0.6914062,0 -1.0078125,0.94921879 -1.0078125,1.06640629 0,0.0820312 0.09375,0.0820312 0.1171875,0.0820312 0.09375,0 0.1054688,-0.0351563 0.1289063,-0.10546875 0.1757812,-0.59765624 0.4804687,-0.85546874 0.7382812,-0.85546874 0.1171875,0 0.1757813,0.058594 0.1757813,0.2460938 0,0.16406244 -0.035156,0.26953119 -0.2109375,0.70312494 z m 0,0"
         style="fill:#ec008c;fill-opacity:1;fill-rule:nonzero;stroke:none" />
    </g>
  </g>
</svg>
