<?xml version="1.0" encoding="UTF-8" standalone="no"?>
<!-- Created with Inkscape (http://www.inkscape.org/) -->

<svg
   version="1.1"
   id="svg1"
   width="241.6234"
   height="157.79054"
   viewBox="0 0 241.6234 157.79054"
   sodipodi:docname="5.2-ejemplo-circunferencia.svg"
   inkscape:version="1.4.2 (f4327f4, 2025-05-13)"
   xmlns:inkscape="http://www.inkscape.org/namespaces/inkscape"
   xmlns:sodipodi="http://sodipodi.sourceforge.net/DTD/sodipodi-0.dtd"
   xmlns="http://www.w3.org/2000/svg"
   xmlns:svg="http://www.w3.org/2000/svg">
  <defs
     id="defs1" />
  <sodipodi:namedview
     id="namedview1"
     pagecolor="#ffffff"
     bordercolor="#000000"
     borderopacity="0.25"
     inkscape:showpageshadow="2"
     inkscape:pageopacity="0.0"
     inkscape:pagecheckerboard="0"
     inkscape:deskcolor="#d1d1d1"
     inkscape:zoom="2.2241536"
     inkscape:cx="203.89779"
     inkscape:cy="98.239618"
     inkscape:window-width="1920"
     inkscape:window-height="1009"
     inkscape:window-x="-8"
     inkscape:window-y="-8"
     inkscape:window-maximized="1"
     inkscape:current-layer="g1">
    <inkscape:page
       x="0"
       y="0"
       inkscape:label="13"
       id="page1"
       width="241.6234"
       height="157.79054"
       margin="0"
       bleed="0" />
  </sodipodi:namedview>
  <g
     id="g1"
     inkscape:groupmode="layer"
     inkscape:label="13"
     transform="translate(-38.060188,-83.386718)">
    <path
       id="path2"
       d="M -76.53586,0 H 101.58952"
       style="fill:none;stroke:#000000;stroke-width:0.3985;stroke-linecap:butt;stroke-linejoin:miter;stroke-miterlimit:10;stroke-dasharray:none;stroke-opacity:1"
       transform="matrix(1.3333333,0,0,-1.3333333,140.108,224.16933)" />
    <path
       id="path3"
       d="M -1.19551,1.59401 C -1.09587,0.99626 0,0.09961 0.29886,0 0,-0.09961 -1.09587,-0.99626 -1.19551,-1.59401"
       style="fill:none;stroke:#000000;stroke-width:0.31879;stroke-linecap:round;stroke-linejoin:round;stroke-miterlimit:10;stroke-dasharray:none;stroke-opacity:1"
       transform="matrix(1.3333333,0,0,-1.3333333,275.56069,224.16933)" />
    <path
       id="path4"
       d="m 3.6433203,-3.2918125 c 0.070312,-0.28125 0.3164063,-1.2890625 1.078125,-1.2890625 0.058594,0 0.3164063,0 0.5507813,0.140625 -0.3046875,0.058594 -0.5273438,0.328125 -0.5273438,0.5859375 0,0.1757813 0.1171875,0.3867188 0.4101563,0.3867188 0.2460937,0 0.5976562,-0.1992188 0.5976562,-0.6328125 0,-0.5625 -0.6445312,-0.7265625 -1.0195312,-0.7265625 -0.6328125,0 -1.0195313,0.5859375 -1.1484375,0.8320312 -0.2695313,-0.7148437 -0.8554688,-0.8320312 -1.171875,-0.8320312 -1.1367188,0 -1.75781254,1.4179687 -1.75781254,1.6875 0,0.1054687 0.10546875,0.1054687 0.12890625,0.1054687 0.0820313,0 0.1171875,-0.023437 0.140625,-0.1171875 C 1.2995703,-4.3113437 2.0144141,-4.580875 2.3894141,-4.580875 c 0.2109375,0 0.5859375,0.09375 0.5859375,0.7265625 0,0.3398438 -0.1875,1.078125 -0.5859375,2.6015625 -0.1757813,0.6796875 -0.5625,1.13671875 -1.0429688,1.13671875 -0.058594,0 -0.3164062,0 -0.53906249,-0.140625 C 1.0769141,-0.31525 1.3230078,-0.549625 1.3230078,-0.8543125 c 0,-0.2929687 -0.2460937,-0.375 -0.41015624,-0.375 -0.328125,0 -0.59765625,0.28125 -0.59765625,0.6328125 0,0.50390625 0.55078125,0.71484375 1.03124999,0.71484375 0.7148438,0 1.1015625,-0.76171875 1.1367188,-0.83203125 0.1289062,0.41015625 0.5273437,0.83203125 1.1835937,0.83203125 1.125,0 1.7460938,-1.40624995 1.7460938,-1.67578125 0,-0.1054687 -0.1054688,-0.1054687 -0.1289063,-0.1054687 -0.1054687,0 -0.1289062,0.035156 -0.140625,0.1171875 -0.3632812,1.1601562 -1.1132812,1.42968745 -1.453125,1.42968745 -0.4335937,0 -0.609375,-0.3515625 -0.609375,-0.7265625 0,-0.23437495 0.070312,-0.48046875 0.1875,-0.96093745 z m 0,0"
       style="fill:#000000;fill-opacity:1;fill-rule:nonzero;stroke:none"
       aria-label="x"
       transform="matrix(1.3333333,0,0,1.3333333,272.01333,235.54533)" />
    <path
       id="path5"
       d="M 0,-12.75595 V 101.58952"
       style="fill:none;stroke:#000000;stroke-width:0.3985;stroke-linecap:butt;stroke-linejoin:miter;stroke-miterlimit:10;stroke-dasharray:none;stroke-opacity:1"
       transform="matrix(1.3333333,0,0,-1.3333333,140.108,224.16933)" />
    <path
       id="path6"
       d="M -1.19551,1.59401 C -1.09587,0.99626 0,0.09961 0.29886,0 0,-0.09961 -1.09587,-0.99626 -1.19551,-1.59401"
       style="fill:none;stroke:#000000;stroke-width:0.31879;stroke-linecap:round;stroke-linejoin:round;stroke-miterlimit:10;stroke-dasharray:none;stroke-opacity:1"
       transform="matrix(0,-1.3333333,-1.3333333,0,140.108,88.71664)" />
    <path
       id="path7"
       d="m 5.2967578,-4.1599922 c 0.046875,-0.1523437 0.046875,-0.1757812 0.046875,-0.2460937 0,-0.1992188 -0.1523437,-0.2929688 -0.3164062,-0.2929688 -0.1054688,0 -0.28125,0.058594 -0.375,0.2226563 -0.023437,0.058594 -0.1171875,0.3984375 -0.1523438,0.5976562 -0.082031,0.28125 -0.1523437,0.5742188 -0.2226562,0.8671875 l -0.4921875,1.96875 c -0.046875,0.16406251 -0.515625,0.92578126 -1.2304688,0.92578126 -0.5625,0 -0.6796875,-0.48046875 -0.6796875,-0.89062496 0,-0.4921875 0.1875,-1.171875 0.5625,-2.1328125 0.1757813,-0.4453125 0.2109375,-0.5742188 0.2109375,-0.7851563 0,-0.4921875 -0.3515625,-0.9023437 -0.890625,-0.9023437 -1.04296874,0 -1.44140624,1.5820312 -1.44140624,1.6875 0,0.1054687 0.10546875,0.1054687 0.12890625,0.1054687 0.10546875,0 0.1171875,-0.023437 0.17578125,-0.1992187 0.29296875,-1.0195313 0.72656254,-1.3476563 1.10156254,-1.3476563 0.09375,0 0.2695312,0 0.2695312,0.3515625 0,0.2695313 -0.1054687,0.5507813 -0.1757812,0.7617188 -0.4453125,1.1601562 -0.6328125,1.78125 -0.6328125,2.2851562 0,0.97265626 0.6796875,1.30078126 1.3242187,1.30078126 0.421875,0 0.796875,-0.1875 1.1015625,-0.4921875 -0.140625,0.57421875 -0.2695312,1.1015625 -0.703125,1.68750004 -0.2929687,0.3632812 -0.703125,0.6796875 -1.2070312,0.6796875 -0.1523438,0 -0.6445313,-0.023437 -0.83203129,-0.4570313 0.17578129,0 0.31640629,0 0.48046879,-0.1289062 0.1054687,-0.09375 0.2109375,-0.234375 0.2109375,-0.44531254 0,-0.33984375 -0.2929688,-0.38671875 -0.3984375,-0.38671875 -0.25781254,0 -0.60937504,0.17578125 -0.60937504,0.71484379 0,0.5390625 0.48046874,0.9492187 1.14843754,0.9492187 1.125,0 2.25,-0.9960937 2.5546875,-2.22656249 z m 0,0"
       style="fill:#000000;fill-opacity:1;fill-rule:nonzero;stroke:none"
       aria-label="y"
       transform="matrix(1.3333333,0,0,1.3333333,127.34,89.824)" />
    <path
       id="path8"
       d="M 51.0239,0 C 51.0239,28.18007 28.18007,51.0239 0,51.0239 -28.18007,51.0239 -51.0239,28.18007 -51.0239,0"
       style="fill:none;stroke:#eb0a36;stroke-width:0.79701;stroke-linecap:butt;stroke-linejoin:miter;stroke-miterlimit:10;stroke-dasharray:none;stroke-opacity:1"
       transform="matrix(1.3333333,0,0,-1.3333333,140.108,224.16933)" />
    <path
       id="path9"
       d="m 0,0 v 51.0239 c 0,0 1.53593,-0.01976 2.12585,-0.0444 0.58991,-0.02462 1.53595,-0.08375 2.12586,-0.13311 0.58992,-0.04938 1.53596,-0.14832 2.12589,-0.22269 0.5899,-0.07437 1.53593,-0.21356 2.12585,-0.31335 0.5899,-0.09982 1.53596,-0.28025 2.12587,-0.40604 0.58992,-0.12579 1.53595,-0.34819 2.12587,-0.50061 0.58991,-0.15242 1.53595,-0.41792 2.12587,-0.59794 0.5899,-0.18001 1.53594,-0.49073 2.12585,-0.69953 0.58992,-0.20881 1.53595,-0.56656 2.12587,-0.80543 0.58991,-0.2389 1.53595,-0.64566 2.12587,-0.91637 0.58992,-0.27069 1.53595,-0.73009 2.12585,-1.03471 0.58993,-0.30463 1.53597,-0.81975 2.12589,-1.16085 0.58991,-0.34106 1.53595,-0.91674 2.12586,-1.29747 0.58992,-0.38072 1.53596,-1.02209 2.12587,-1.44656 0.58992,-0.42447 1.53595,-1.13939 2.12587,-1.61279 0.5899,-0.47342 1.53594,-1.27016 2.12585,-1.79926 0.58992,-0.52909 1.53596,-1.42012 2.12587,-2.01414 0.58992,-0.59401 1.53595,-1.59533 2.12587,-2.26719 0.5899,-0.67186 1.53596,-1.80596 2.12587,-2.5751 0.58992,-0.76913 1.53595,-2.07065 2.12587,-2.96826 0.5899,-0.89761 1.53595,-2.41762 2.12587,-3.5012 0.58991,-1.0836 1.53595,-2.90415 2.12585,-4.30857 0.58992,-1.4044 1.53596,-3.06161 2.12587,-5.81352 0.58991,-2.75192 2.12587,-14.02037 2.12587,-14.02037 L 51.0239,0 Z"
       style="fill:#9999ff;fill-opacity:0.2;fill-rule:nonzero;stroke:none"
       transform="matrix(1.3333333,0,0,-1.3333333,140.108,224.16933)" />
    <g
       id="g9"
       aria-label="y=&#10;√"
       transform="matrix(1.3333333,0,0,1.3333333,206.05467,160.91333)">
      <path
         id="path10"
         d="m 4.8398594,-3.7963281 c 0.046875,-0.140625 0.046875,-0.1523438 0.046875,-0.2226563 0,-0.1875 -0.140625,-0.2695312 -0.2929688,-0.2695312 -0.1054687,0 -0.2578125,0.058594 -0.3515625,0.1992187 -0.023437,0.058594 -0.09375,0.3632813 -0.140625,0.5390625 -0.070312,0.2578125 -0.140625,0.5273438 -0.1992187,0.796875 l -0.4453125,1.79296878 c -0.035156,0.15234375 -0.46875,0.85546875 -1.125,0.85546875 -0.5039063,0 -0.6210938,-0.4453125 -0.6210938,-0.80859375 0,-0.45703128 0.1757813,-1.07812498 0.515625,-1.95703128 0.1523438,-0.4101562 0.1992188,-0.515625 0.1992188,-0.7148437 0,-0.4453125 -0.328125,-0.8203125 -0.8203125,-0.8203125 -0.94921877,0 -1.31250002,1.453125 -1.31250002,1.5351562 0,0.1054688 0.09375,0.1054688 0.1171875,0.1054688 0.09375,0 0.10546875,-0.023437 0.15234375,-0.1875 0.26953125,-0.9375 0.66796877,-1.2304688 1.00781247,-1.2304688 0.082031,0 0.2578125,0 0.2578125,0.3164063 0,0.2460937 -0.1054687,0.515625 -0.1757812,0.703125 -0.3984375,1.0546875 -0.5742188,1.6171875 -0.5742188,2.0859375 0,0.89062498 0.6210938,1.18359373 1.21875,1.18359373 0.3867188,0 0.7265625,-0.1640625 0.9960938,-0.4453125 -0.1289063,0.515625 -0.2460938,1.0078125 -0.6445313,1.53515627 -0.2578125,0.3398437 -0.6328125,0.6328125 -1.0898437,0.6328125 -0.140625,0 -0.59765627,-0.035156 -0.76171877,-0.421875 0.1640625,0 0.29296877,0 0.43359377,-0.1171875 0.09375,-0.09375 0.1992187,-0.2226563 0.1992187,-0.41015627 0,-0.31640625 -0.2695312,-0.3515625 -0.375,-0.3515625 -0.22265622,0 -0.55078122,0.1640625 -0.55078122,0.64453127 0,0.5039062 0.43359375,0.8671875 1.05468752,0.8671875 1.0195312,0 2.0507812,-0.9023438 2.3320312,-2.02734377 z m 0,0"
         style="fill:#eb0a36;fill-opacity:1;fill-rule:nonzero;stroke:none" />
      <path
         id="path11"
         d="m 14.856461,-3.2572656 c 0.152344,0 0.339844,0 0.339844,-0.1992188 0,-0.1992187 -0.1875,-0.1992187 -0.328125,-0.1992187 H 8.9033359 c -0.140625,0 -0.328125,0 -0.328125,0.1992187 0,0.1992188 0.1875,0.1992188 0.3398438,0.1992188 z m 0.01172,1.9335937 c 0.140625,0 0.328125,0 0.328125,-0.1992187 0,-0.1992188 -0.1875,-0.1992188 -0.339844,-0.1992188 H 8.9150547 c -0.1523438,0 -0.3398438,0 -0.3398438,0.1992188 0,0.1992187 0.1875,0.1992187 0.328125,0.1992187 z m 0,0"
         style="fill:#eb0a36;fill-opacity:1;fill-rule:nonzero;stroke:none" />
      <path
         id="path12"
         d="M 22.403336,0.21734375 20.645523,-3.6615625 c -0.07031,-0.1523437 -0.117187,-0.1523437 -0.152343,-0.1523437 -0.01172,0 -0.05859,0 -0.164063,0.070312 l -0.949219,0.7265625 c -0.128906,0.09375 -0.128906,0.1289062 -0.128906,0.1523437 0,0.046875 0.03516,0.1054688 0.105469,0.1054688 0.05859,0 0.222656,-0.1289063 0.328125,-0.2109375 0.07031,-0.046875 0.210937,-0.1640625 0.328125,-0.2460938 l 1.957031,4.3125 c 0.07031,0.1640625 0.117188,0.1640625 0.210938,0.1640625 0.152343,0 0.175781,-0.058594 0.246093,-0.1992187 l 4.523438,-9.3632813 c 0.07031,-0.140625 0.07031,-0.1757812 0.07031,-0.1992187 0,-0.1054688 -0.08203,-0.1992188 -0.199218,-0.1992188 -0.08203,0 -0.152344,0.046875 -0.222657,0.2109375 z m 0,0"
         style="fill:#eb0a36;fill-opacity:1;fill-rule:nonzero;stroke:none" />
    </g>
    <path
       id="path13"
       d="M 0,0 H 27.321"
       style="fill:none;stroke:#eb0a36;stroke-width:0.398;stroke-linecap:butt;stroke-linejoin:miter;stroke-miterlimit:10;stroke-dasharray:none;stroke-opacity:1"
       transform="matrix(1.3333333,0,0,-1.3333333,241.82533,149.57733)" />
    <g
       id="g13"
       aria-label="1−x&#10;2"
       transform="matrix(1.3333333,0,0,1.3333333,241.82533,160.91333)">
      <path
         id="path14"
         d="m 2.9288516,-6.3744531 c 0,-0.234375 0,-0.2578125 -0.234375,-0.2578125 -0.609375,0.6328125 -1.4882813,0.6328125 -1.80468754,0.6328125 v 0.3164062 c 0.19921874,0 0.78515624,0 1.30078124,-0.2578125 v 5.15625003 c 0,0.3515625 -0.035156,0.48046875 -0.9257812,0.48046875 H 0.94838281 V 5.46875e-4 C 1.2999453,-0.03460937 2.1554141,-0.03460937 2.5538516,-0.03460937 c 0.3984375,0 1.265625,0 1.6171875,0.035156245 V -0.30414062 H 3.8546328 c -0.9023437,0 -0.9257812,-0.1171875 -0.9257812,-0.48046875 z m 0,0"
         style="fill:#eb0a36;fill-opacity:1;fill-rule:nonzero;stroke:none" />
      <path
         id="path15"
         d="m 13.754047,-2.2963281 c 0.175781,0 0.351562,0 0.351562,-0.1992188 0,-0.1992187 -0.175781,-0.1992187 -0.351562,-0.1992187 H 8.3634219 c -0.1640625,0 -0.3398438,0 -0.3398438,0.1992187 0,0.1992188 0.1757813,0.1992188 0.3398438,0.1992188 z m 0,0"
         style="fill:#eb0a36;fill-opacity:1;fill-rule:nonzero;stroke:none" />
      <path
         id="path16"
         d="m 20.480609,-3.0111719 c 0.05859,-0.2578125 0.292969,-1.171875 0.984375,-1.171875 0.04687,0 0.292969,0 0.503907,0.1289063 -0.28125,0.046875 -0.480469,0.3046875 -0.480469,0.5390625 0,0.1640625 0.105469,0.3515625 0.375,0.3515625 0.222656,0 0.539062,-0.1875 0.539062,-0.5859375 0,-0.515625 -0.585937,-0.65625 -0.925781,-0.65625 -0.574219,0 -0.925781,0.5273437 -1.042969,0.7617187 -0.257812,-0.65625 -0.785156,-0.7617187 -1.078125,-0.7617187 -1.042968,0 -1.605468,1.2890625 -1.605468,1.5351562 0,0.1054688 0.105468,0.1054688 0.117187,0.1054688 0.08203,0 0.117188,-0.023437 0.128906,-0.1171875 0.339844,-1.0546875 0.996094,-1.3007813 1.335938,-1.3007813 0.1875,0 0.539062,0.09375 0.539062,0.6679688 0,0.3046875 -0.164062,0.9726562 -0.539062,2.3671875 -0.152344,0.62109373 -0.503906,1.04296873 -0.949219,1.04296873 -0.05859,0 -0.28125,0 -0.492187,-0.12890625 0.246093,-0.0585937 0.46875,-0.26953125 0.46875,-0.5390625 0,-0.26953128 -0.222657,-0.35156248 -0.375,-0.35156248 -0.292969,0 -0.539063,0.25781248 -0.539063,0.57421873 0,0.45703125 0.492188,0.65625 0.9375,0.65625 0.65625,0 1.007813,-0.69140625 1.042969,-0.75 0.117187,0.36328125 0.480469,0.75 1.078125,0.75 1.019531,0 1.59375,-1.27734373 1.59375,-1.53515623 0,-0.09375 -0.09375,-0.09375 -0.128906,-0.09375 -0.08203,0 -0.105469,0.035156 -0.128907,0.1054687 -0.328125,1.06640628 -0.996093,1.31250003 -1.324218,1.31250003 -0.386719,0 -0.539063,-0.328125 -0.539063,-0.65625 0,-0.22265625 0.05859,-0.44531253 0.164063,-0.87890623 z m 0,0"
         style="fill:#eb0a36;fill-opacity:1;fill-rule:nonzero;stroke:none" />
      <path
         id="path17"
         d="m 26.366352,-4.1449609 h -0.234375 c -0.02344,0.1523437 -0.08203,0.5625 -0.175782,0.6328125 -0.05859,0.035156 -0.597656,0.035156 -0.691406,0.035156 h -1.289062 c 0.738281,-0.6445312 0.984375,-0.84375 1.394531,-1.171875 0.515625,-0.4101562 0.996094,-0.84375 0.996094,-1.5 0,-0.84375 -0.738282,-1.359375 -1.628907,-1.359375 -0.867187,0 -1.453125,0.609375 -1.453125,1.2421875 0,0.3632813 0.304688,0.3984375 0.375,0.3984375 0.164063,0 0.375,-0.1171875 0.375,-0.375 0,-0.1289062 -0.05859,-0.3632812 -0.421875,-0.3632812 0.222657,-0.5039063 0.691407,-0.65625 1.019532,-0.65625 0.703125,0 1.066406,0.5507812 1.066406,1.1132812 0,0.609375 -0.433594,1.0898438 -0.65625,1.3359375 l -1.6875,1.6640625 c -0.07031,0.058594 -0.07031,0.070312 -0.07031,0.2695313 h 2.882813 z m 0,0"
         style="fill:#eb0a36;fill-opacity:1;fill-rule:nonzero;stroke:none" />
    </g>
  </g>
</svg>
