<?xml version="1.0" encoding="UTF-8" standalone="no"?>
<!-- Created with Inkscape (http://www.inkscape.org/) -->

<svg
   version="1.1"
   id="svg1"
   width="274.29578"
   height="230.98897"
   viewBox="0 0 274.29578 230.98897"
   sodipodi:docname="5.4-despl-y-dist.svg"
   inkscape:version="1.4.2 (f4327f4, 2025-05-13)"
   xmlns:inkscape="http://www.inkscape.org/namespaces/inkscape"
   xmlns:sodipodi="http://sodipodi.sourceforge.net/DTD/sodipodi-0.dtd"
   xmlns="http://www.w3.org/2000/svg"
   xmlns:svg="http://www.w3.org/2000/svg">
  <defs
     id="defs1" />
  <sodipodi:namedview
     id="namedview1"
     pagecolor="#ffffff"
     bordercolor="#000000"
     borderopacity="0.25"
     inkscape:showpageshadow="2"
     inkscape:pageopacity="0.0"
     inkscape:pagecheckerboard="0"
     inkscape:deskcolor="#d1d1d1"
     inkscape:zoom="2.2241536"
     inkscape:cx="138.25484"
     inkscape:cy="124.76656"
     inkscape:window-width="1920"
     inkscape:window-height="1009"
     inkscape:window-x="-8"
     inkscape:window-y="-8"
     inkscape:window-maximized="1"
     inkscape:current-layer="g1">
    <inkscape:page
       x="0"
       y="0"
       inkscape:label="16"
       id="page1"
       width="274.29578"
       height="230.98897"
       margin="0"
       bleed="0" />
  </sodipodi:namedview>
  <g
     id="g1"
     inkscape:groupmode="layer"
     inkscape:label="16"
     transform="translate(-104.02064,-56.710937)">
    <path
       id="path2"
       d="M -22.67752,0 H 180.96199"
       style="fill:none;stroke:#000000;stroke-width:0.3985;stroke-linecap:butt;stroke-linejoin:miter;stroke-miterlimit:10;stroke-dasharray:none;stroke-opacity:1"
       transform="matrix(1.3333333,0,0,-1.3333333,134.25733,245.39733)" />
    <path
       id="path3"
       d="M -1.19551,1.59401 C -1.09587,0.99626 0,0.09961 0.29886,0 0,-0.09961 -1.09587,-0.99626 -1.19551,-1.59401"
       style="fill:none;stroke:#000000;stroke-width:0.31879;stroke-linecap:round;stroke-linejoin:round;stroke-miterlimit:10;stroke-dasharray:none;stroke-opacity:1"
       transform="matrix(1.3333333,0,0,-1.3333333,375.53999,245.39733)" />
    <path
       id="path4"
       d="m 2.2486484,-4.3596016 h 1.0195313 c 0.2226562,0 0.328125,0 0.328125,-0.2226562 0,-0.1171875 -0.1054688,-0.1171875 -0.3046875,-0.1171875 H 2.3306797 c 0.3984375,-1.546875 0.4453125,-1.7695313 0.4453125,-1.8398438 0,-0.1757812 -0.1289063,-0.2929687 -0.3164063,-0.2929687 -0.023437,0 -0.328125,0.011719 -0.4335937,0.3984375 l -0.421875,1.734375 H 0.57286719 c -0.2109375,0 -0.328125,0 -0.328125,0.1992187 0,0.140625 0.09375,0.140625 0.3046875,0.140625 H 1.5103672 c -0.78515626,3.09375 -0.82031251,3.28125 -0.82031251,3.48046879 0,0.5859375 0.41015621,0.99609375 0.99609371,0.99609375 1.1132813,0 1.734375,-1.59375004 1.734375,-1.67578124 0,-0.1054688 -0.082031,-0.1054688 -0.1289062,-0.1054688 -0.09375,0 -0.1054688,0.023437 -0.1640625,0.1523438 -0.46875,1.12499999 -1.0429688,1.39453124 -1.4179688,1.39453124 -0.2226562,0 -0.3398437,-0.140625 -0.3398437,-0.50390625 0,-0.2578125 0.023437,-0.33984375 0.070312,-0.52734379 z m 0,0"
       style="fill:#000000;fill-opacity:1;fill-rule:nonzero;stroke:none"
       aria-label="t"
       transform="matrix(1.3333333,0,0,1.3333333,373.52133,259.45733)" />
    <path
       id="path5"
       d="M 0,-22.67752 V 135.60692"
       style="fill:none;stroke:#000000;stroke-width:0.3985;stroke-linecap:butt;stroke-linejoin:miter;stroke-miterlimit:10;stroke-dasharray:none;stroke-opacity:1"
       transform="matrix(1.3333333,0,0,-1.3333333,134.25733,245.39733)" />
    <path
       id="path6"
       d="M -1.19551,1.59401 C -1.09587,0.99626 0,0.09961 0.29886,0 0,-0.09961 -1.09587,-0.99626 -1.19551,-1.59401"
       style="fill:none;stroke:#000000;stroke-width:0.31879;stroke-linecap:round;stroke-linejoin:round;stroke-miterlimit:10;stroke-dasharray:none;stroke-opacity:1"
       transform="matrix(0,-1.3333333,-1.3333333,0,134.25733,64.588107)" />
    <g
       id="g6"
       aria-label="v(t)"
       transform="matrix(1.3333333,0,0,1.3333333,105.00533,67.616)">
      <path
         id="path7"
         d="m 5.1083047,-4.0537969 c 0,-0.5976562 -0.28125,-0.7734375 -0.4804688,-0.7734375 -0.28125,0 -0.5390625,0.2929688 -0.5390625,0.5273438 0,0.140625 0.058594,0.2109375 0.1757813,0.328125 0.234375,0.2226562 0.375,0.5039062 0.375,0.890625 0,0.46875 -0.6679688,2.96484373 -1.9453125,2.96484373 -0.5625,0 -0.8085938,-0.38671875 -0.8085938,-0.94921873 0,-0.609375 0.2929688,-1.40625 0.6328125,-2.3203125 0.082031,-0.1757813 0.1289063,-0.328125 0.1289063,-0.5390625 0,-0.4921875 -0.3515625,-0.9023438 -0.890625,-0.9023438 -1.03125001,0 -1.44140626,1.5820313 -1.44140626,1.6875 0,0.1054688 0.10546875,0.1054688 0.12890625,0.1054688 0.10546875,0 0.1171875,-0.023437 0.17578125,-0.1992188 0.31640625,-1.1015625 0.78515626,-1.3476562 1.10156246,-1.3476562 0.09375,0 0.2695313,0 0.2695313,0.3515625 0,0.2695312 -0.1054688,0.5625 -0.1757813,0.7617187 -0.4804687,1.265625 -0.6328125,1.7695313 -0.6328125,2.2382813 0,1.17187498 0.9609375,1.34765623 1.4648438,1.34765623 1.8398437,0 2.4609375,-3.60937503 2.4609375,-4.17187503 z m 0,0"
         style="fill:#000000;fill-opacity:1;fill-rule:nonzero;stroke:none" />
      <path
         id="path8"
         d="m 9.2889688,2.6141719 c 0,-0.023437 0,-0.046875 -0.1875,-0.234375 -1.359375,-1.3710938 -1.7109375,-3.4335938 -1.7109375,-5.109375 0,-1.8984375 0.421875,-3.796875 1.7578125,-5.15625 0.140625,-0.1289063 0.140625,-0.1523438 0.140625,-0.1875 0,-0.070312 -0.046875,-0.1054688 -0.1054688,-0.1054688 -0.1054687,0 -1.0898437,0.7382813 -1.734375,2.1210938 -0.5625,1.2070312 -0.6914062,2.4140625 -0.6914062,3.328125 0,0.8554687 0.1171875,2.17968748 0.7265625,3.41015623 0.6445312,1.33593747 1.59375,2.05078127 1.6992187,2.05078127 0.058594,0 0.1054688,-0.035156 0.1054688,-0.1171875 z m 0,0"
         style="fill:#000000;fill-opacity:1;fill-rule:nonzero;stroke:none" />
      <path
         id="path9"
         d="m 12.171781,-4.3584844 h 1.019532 c 0.222656,0 0.328125,0 0.328125,-0.2226562 0,-0.1171875 -0.105469,-0.1171875 -0.304688,-0.1171875 h -0.960937 c 0.398437,-1.546875 0.445312,-1.7695313 0.445312,-1.8398438 0,-0.1757812 -0.128906,-0.2929687 -0.316406,-0.2929687 -0.02344,0 -0.328125,0.011719 -0.433594,0.3984375 l -0.421875,1.734375 H 10.496 c -0.210937,0 -0.328125,0 -0.328125,0.1992187 0,0.140625 0.09375,0.140625 0.304688,0.140625 H 11.4335 c -0.785156,3.09375 -0.820312,3.28125 -0.820312,3.48046878 0,0.5859375 0.410156,0.99609375 0.996093,0.99609375 1.113282,0 1.734375,-1.59375003 1.734375,-1.67578123 0,-0.1054688 -0.08203,-0.1054688 -0.128906,-0.1054688 -0.09375,0 -0.105469,0.023437 -0.164062,0.1523438 -0.46875,1.12499998 -1.042969,1.39453123 -1.417969,1.39453123 -0.222656,0 -0.339844,-0.140625 -0.339844,-0.50390625 0,-0.2578125 0.02344,-0.33984375 0.07031,-0.52734378 z m 0,0"
         style="fill:#000000;fill-opacity:1;fill-rule:nonzero;stroke:none" />
      <path
         id="path10"
         d="m 17.014555,-2.7295781 c 0,-0.84375 -0.117188,-2.1679688 -0.714844,-3.3984375 -0.65625,-1.3476563 -1.59375,-2.0507813 -1.710938,-2.0507813 -0.05859,0 -0.105468,0.035156 -0.105468,0.1054688 0,0.035156 0,0.058594 0.210937,0.2460937 1.066406,1.0898438 1.6875,2.8242188 1.6875,5.0976563 0,1.86328123 -0.398437,3.7851562 -1.757812,5.1679687 -0.140625,0.1289063 -0.140625,0.1523438 -0.140625,0.1757813 0,0.070312 0.04687,0.1171875 0.105468,0.1171875 0.117188,0 1.089844,-0.75 1.734375,-2.13281252 0.5625,-1.1953125 0.691407,-2.41406248 0.691407,-3.32812498 z m 0,0"
         style="fill:#000000;fill-opacity:1;fill-rule:nonzero;stroke:none" />
    </g>
    <path
       id="path11"
       d="m 15.12605,0.02213 c 0,0 0.8768,-3.52666 1.21355,-4.73645 0.33673,-1.20978 0.87678,-2.97641 1.21355,-3.98281 0.33673,-1.00642 0.87678,-2.45621 1.21351,-3.27069 0.33675,-0.81451 0.87679,-1.96587 1.21354,-2.59976 0.33674,-0.63388 0.87678,-1.50475 1.21353,-1.96892 0.33674,-0.46416 0.87678,-1.07144 1.21354,-1.3765 0.33673,-0.30508 0.87679,-0.66561 1.21352,-0.82217 0.33676,-0.15655 0.8768,-0.28799 1.21353,-0.30624 0.33675,-0.01825 0.8768,0.06462 1.21353,0.17474 0.33676,0.11014 0.8768,0.39034 1.21355,0.61907 0.33673,0.22872 0.87678,0.69157 1.21353,1.02941 0.33675,0.33786 0.8768,0.96782 1.21353,1.4056 0.33674,0.43776 0.87679,1.22085 1.21354,1.74954 0.33674,0.52869 0.87678,1.45007 1.21352,2.06096 0.33675,0.61089 0.87679,1.6573 1.21355,2.34193 0.33673,0.68465 0.87679,1.84244 1.21353,2.59247 0.33673,0.75005 0.87679,2.00575 1.21352,2.81325 0.33674,0.80749 0.8768,2.14943 1.21353,3.00667 0.33676,0.85724 0.8768,2.27221 1.21355,3.17169 0.33674,0.89949 0.87678,2.37668 1.21353,3.31117 0.33674,0.93448 0.87678,2.46155 1.21353,3.42398 0.33673,0.96243 0.87679,2.52893 1.21353,3.51259 0.33675,0.98364 0.8768,2.57854 1.21353,3.57691 0.33675,0.99839 0.87679,2.61193 1.21355,3.6188 0.33673,1.0069 0.87679,2.62889 1.21353,3.63818 0.33673,1.00928 0.87679,2.63018 1.21353,3.63611 0.33673,1.00591 0.87679,2.61685 1.21352,3.61396 0.33676,0.99708 0.87681,2.58944 1.21355,3.57243 0.33674,0.98297 0.87678,2.54834 1.21353,3.51221 0.33674,0.96386 0.87678,2.4947 1.21353,3.4347 0.33673,0.94002 0.87678,2.42865 1.21353,3.34024 0.33675,0.9116 0.8768,2.35099 1.21353,3.22988 0.33675,0.87887 0.8768,2.26248 1.21355,3.1046 0.33674,0.8421 0.87678,2.1632 1.21353,2.96479 0.33673,0.80158 0.87677,2.05493 1.21353,2.81255 0.33673,0.7576 0.87679,1.93756 1.21352,2.64783 0.33676,0.71028 0.8768,1.81151 1.21355,2.47135 0.33674,0.65987 0.87678,1.6778 1.21353,2.28452 0.33676,0.60669 0.87678,1.53731 1.21353,2.08829 0.33673,0.55096 0.87678,1.38975 1.21353,1.88277 0.33675,0.49301 0.8768,1.23764 1.21353,1.67064 0.33675,0.43301 0.8768,1.0791 1.21353,1.45022 0.33676,0.37113 0.87679,0.91689 1.21353,1.2246 0.33675,0.30769 0.87679,0.75018 1.21355,0.99311 0.33673,0.24292 0.87679,0.5806 1.21353,0.7578 0.33674,0.17722 0.87679,0.4088 1.21354,0.51941 0.33674,0.11061 0.8768,0.23436 1.21352,0.27786 0.33675,0.04348 0.87679,0.05953 1.21354,0.03563 0.33673,-0.02389 0.87678,-0.11655 1.21353,-0.20796 0.33674,-0.0914 0.8768,-0.29211 1.21354,-0.45088 0.33674,-0.15877 0.87679,-0.4677 1.21352,-0.69344 0.33676,-0.22575 0.8768,-0.64165 1.21353,-0.93359 0.33675,-0.29196 0.87679,-0.81338 1.21355,-1.17064 0.33673,-0.35724 0.87678,-0.9828 1.21353,-1.40421 0.33673,-0.42137 0.87679,-1.1488 1.21353,-1.6329 0.33675,-0.4841 0.87679,-1.31097 1.21352,-1.85613 0.33676,-0.54516 0.87681,-1.46875 1.21354,-2.07305 0.33675,-0.60431 0.87679,-1.62117 1.21354,-2.28243 0.33674,-0.66125 0.8768,-1.76762 1.21354,-2.48347 0.33673,-0.71585 0.87679,-1.90819 1.21352,-2.67588 0.33676,-0.76768 0.8768,-2.04047 1.21353,-2.85717 0.33675,-0.81672 0.87679,-2.1665 1.21355,-3.02916 0.33674,-0.86266 0.87678,-2.28334 1.21353,-3.18834 0.33673,-0.90502 0.87678,-2.39057 1.21354,-3.33437 0.33674,-0.94382 0.87678,-2.48917 1.2135,-3.46793 0.33677,-0.97875 0.87682,-2.5768 1.21355,-3.58627 0.33675,-1.00947 0.87679,-2.65353 1.21354,-3.68938 0.33674,-1.03585 0.8768,-2.71871 1.21354,-3.77625 0.33673,-1.05755 0.87679,-2.77135 1.21353,-3.8458 0.33675,-1.07445 0.87679,-2.81189 1.21352,-3.89804 0.33675,-1.08615 0.8768,-2.83783 1.21355,-3.93022 0.33674,-1.09241 0.87678,-2.84992 1.21353,-3.94304 0.33673,-1.09311 0.87678,-2.84747 1.21354,-3.93543 0.33674,-1.08793 0.87677,-2.82907 1.21352,-3.90565 0.33675,-1.07662 0.87678,-2.79483 1.21353,-3.85376 0.33675,-1.05893 0.8768,-2.74364 1.21353,-3.77828 0.33677,-1.03463 0.87679,-2.67523 1.21355,-3.67865 0.33673,-1.00344 0.87677,-2.58823 1.21352,-3.55342 0.33675,-0.96518 0.8768,-2.48336 1.21353,-3.40287 0.33674,-0.9195 0.8768,-2.35811 1.21353,-3.22432 0.33676,-0.86622 0.87682,-2.21364 1.21355,-3.01879 0.33674,-0.80511 0.87678,-2.04829 1.21353,-2.78416 0.33674,-0.73586 0.87678,-1.86122 1.21353,-2.51946 0.33673,-0.65821 0.87678,-1.65254 1.21353,-2.22464 0.33675,-0.57209 0.8768,-1.4216 1.21353,-1.89867 0.33675,-0.47707 0.87679,-1.16694 1.21355,-1.53985 0.33675,-0.37289 0.87677,-0.88833 1.21352,-1.1478 0.33674,-0.25943 0.8768,-0.58575 1.21354,-0.72215 0.33673,-0.1364 0.87679,-0.2575 1.21352,-0.26091 0.33676,-0.0034 0.87681,0.09667 1.21355,0.23633 0.33674,0.13968 0.87677,0.47742 1.21353,0.77028 0.33673,0.29286 0.87678,0.8838 1.21353,1.34053 0.33673,0.45673 0.87678,1.31959 1.21354,1.95127 0.33674,0.63168 0.87679,1.7839 1.21352,2.60146 0.33675,0.81758 0.8768,2.27651 1.21355,3.29111 0.33674,1.01463 0.87677,2.79829 1.21351,4.02158 0.33675,1.22328 0.8768,3.35103 1.21355,4.79496 0.33673,1.44394 0.87679,3.93535 1.21351,5.61196 0.33677,1.67659 1.21355,6.47182 1.21355,6.47182"
       style="fill:none;stroke:#eb0a36;stroke-width:0.79701;stroke-linecap:butt;stroke-linejoin:miter;stroke-miterlimit:10;stroke-dasharray:none;stroke-opacity:1"
       transform="matrix(1.3333333,0,0,-1.3333333,134.25733,245.39733)" />
    <path
       id="path12"
       d="m 15.12605,0 v 0.02213 c 0,0 0.67153,-2.73256 0.92945,-3.69628 0.25792,-0.96373 0.67154,-2.40752 0.92944,-3.24957 0.25792,-0.84208 0.67152,-2.09393 0.92944,-2.81946 0.25791,-0.72555 0.67154,-1.79553 0.92945,-2.40977 0.25792,-0.61426 0.67154,-1.50946 0.92944,-2.01737 0.25792,-0.50792 0.67153,-1.2368 0.92944,-1.64331 0.25792,-0.40651 0.67154,-0.97659 0.92945,-1.28653 0.2579,-0.30997 0.67152,-0.72924 0.92944,-0.94744 0.2579,-0.21821 0.67152,-0.49416 0.92943,-0.62528 0.25792,-0.13112 0.67154,-0.27106 0.92946,-0.31973 0.25789,-0.04869 0.67151,-0.06034 0.92942,-0.03115 0.25792,0.02918 0.67154,0.1388 0.92943,0.24152 0.25792,0.10274 0.67154,0.32701 0.92946,0.49898 0.25792,0.17196 0.67153,0.50373 0.92943,0.74052 0.25792,0.23679 0.67154,0.66869 0.92944,0.96611 0.25791,0.29743 0.67154,0.82349 0.92945,1.17755 0.25792,0.35408 0.67152,0.9677 0.92944,1.37444 0.2579,0.40675 0.67154,1.1017 0.92946,1.55714 0.2579,0.45542 0.67152,1.22505 0.92943,1.72531 0.25792,0.50028 0.67152,1.33893 0.92944,1.88034 0.25791,0.54142 0.67154,1.44303 0.92944,2.02187 0.25792,0.57881 0.67153,1.53722 0.92945,2.14988 0.2579,0.61268 0.67152,1.62278 0.92942,2.26583 0.25792,0.64307 0.92945,2.36893 0.92945,2.36893 L 37.44061,0 Z"
       style="fill:#ff9999;fill-opacity:0.2;fill-rule:nonzero;stroke:none"
       transform="matrix(1.3333333,0,0,-1.3333333,134.25733,245.39733)" />
    <path
       id="path13"
       d="m 37.44061,0 v -0.03493 c 0,0 2.09159,5.64076 2.8949,7.91023 0.80333,2.26949 2.0916,6.07236 2.89491,8.44665 0.8033,2.37429 2.09158,6.27111 2.89488,8.66568 0.80332,2.39454 2.0916,6.25436 2.89492,8.59265 0.80331,2.3383 2.0916,6.04632 2.89491,8.26012 0.8033,2.2138 2.09158,5.6665 2.89488,7.69541 0.80332,2.0289 2.09159,5.13591 2.89492,6.92754 0.80331,1.79162 2.09159,4.47528 2.89489,5.98532 0.80332,1.51005 2.09158,3.70587 2.8949,4.89807 0.80331,1.1922 2.09158,2.84854 2.89491,3.6946 0.80332,0.84603 2.09159,1.9236 2.8949,2.40318 0.80331,0.47958 2.09158,0.95245 2.8949,1.05333 0.8033,0.10086 2.0916,-0.04435 2.8949,-0.32631 0.80331,-0.28197 2.09158,-1.04498 2.89489,-1.70594 0.80332,-0.66096 2.09158,-2.02958 2.89492,-3.05789 0.80331,-1.02828 2.09159,-2.97766 2.89489,-4.35342 0.80332,-1.37576 2.09159,-3.86685 2.8949,-5.56212 0.8033,-1.69528 2.09158,-4.6773 2.8949,-6.65628 0.80333,-1.97896 2.0916,-5.38804 2.89491,-7.60679 0.8033,-2.21874 2.09158,-5.9778 2.8949,-8.38434 0.8033,-2.40657 2.09158,-6.42609 2.8949,-8.96051 0.80333,-2.53441 2.09159,-6.71151 2.89491,-9.30584 0.8033,-2.59432 2.09158,-6.81405 2.89488,-9.39233 0.80331,-2.57829 2.89491,-9.1902 2.89491,-9.1902 L 106.92447,0 Z"
       style="fill:#9999ff;fill-opacity:0.2;fill-rule:nonzero;stroke:none"
       transform="matrix(1.3333333,0,0,-1.3333333,134.25733,245.39733)" />
    <path
       id="path14"
       d="m 106.92447,0 v -0.02351 c 0,0 0.85403,-2.63172 1.18205,-3.62157 0.32802,-0.98984 0.85402,-2.55638 1.18202,-3.51256 0.32802,-0.95618 0.85406,-2.46315 1.18207,-3.37901 0.32802,-0.91586 0.85402,-2.35335 1.18202,-3.22189 0.32802,-0.86856 0.85405,-2.22414 1.18206,-3.03816 0.32801,-0.81402 0.85405,-2.07658 1.18205,-2.8288 0.32802,-0.75225 0.85402,-1.91002 1.18204,-2.59284 0.32802,-0.68281 0.85405,-1.72291 1.18205,-2.32844 0.328,-0.6055 0.85402,-1.51546 1.18204,-2.03571 0.32801,-0.52025 0.85403,-1.28721 1.18203,-1.71388 0.32802,-0.42667 0.85404,-1.03668 1.18206,-1.3613 0.32801,-0.32458 0.85403,-0.76443 1.18204,-0.97823 0.32801,-0.21379 0.85404,-0.4687 1.18205,-0.56265 0.32801,-0.09395 0.85403,-0.14937 1.18203,-0.11453 0.32802,0.03485 0.85404,0.19258 1.18206,0.36575 0.32801,0.17316 0.85403,0.56128 1.18203,0.88239 0.32802,0.32109 0.85404,0.95309 1.18206,1.43187 0.32801,0.47877 0.85403,1.37205 1.18202,2.01877 0.32802,0.6467 0.85405,1.81752 1.18207,2.64228 0.32801,0.82479 0.85403,2.28896 1.18203,3.30219 0.32802,1.01321 0.85404,2.78784 1.18205,4.00046 0.32801,1.21261 0.85404,3.31631 1.18206,4.73926 0.328,1.42294 0.854,3.87219 1.18202,5.51643 0.32802,1.64426 1.18207,6.33411 1.18207,6.33411 L 135.29422,0 Z"
       style="fill:#ff9999;fill-opacity:0.2;fill-rule:nonzero;stroke:none"
       transform="matrix(1.3333333,0,0,-1.3333333,134.25733,245.39733)" />
    <g
       id="g14"
       aria-label="v=f(t)"
       transform="matrix(1.3333333,0,0,1.3333333,261.59467,158.00933)">
      <path
         id="path15"
         d="m 4.663375,-3.7042656 c 0,-0.5390625 -0.2578125,-0.703125 -0.4453125,-0.703125 -0.2460937,0 -0.4804687,0.2578125 -0.4804687,0.4804687 0,0.1289063 0.046875,0.1875 0.1523437,0.3046875 0.2109375,0.1992188 0.3398438,0.4570313 0.3398438,0.8085938 0,0.421875 -0.609375,2.70703122 -1.7695313,2.70703122 -0.5039062,0 -0.7382812,-0.3515625 -0.7382812,-0.8671875 0,-0.56250002 0.2695312,-1.28906252 0.5742187,-2.12109372 0.070312,-0.1640625 0.1289063,-0.3046875 0.1289063,-0.4921875 0,-0.4453125 -0.328125,-0.8203125 -0.8203125,-0.8203125 -0.93750005,0 -1.31250005,1.453125 -1.31250005,1.5351562 0,0.1054688 0.09375,0.1054688 0.1171875,0.1054688 0.09375,0 0.10546875,-0.023437 0.15234375,-0.1875 0.29296875,-0.9960938 0.7265625,-1.2304688 1.0078125,-1.2304688 0.082031,0 0.2578125,0 0.2578125,0.3164063 0,0.2460937 -0.1054687,0.515625 -0.1757812,0.703125 -0.4335938,1.1484375 -0.5625,1.6054687 -0.5625,2.0390625 0,1.07812497 0.8671875,1.23046872 1.3359375,1.23046872 1.6640625,0 2.2382812,-3.29296872 2.2382812,-3.80859372 z m 0,0"
         style="fill:#eb0a36;fill-opacity:1;fill-rule:nonzero;stroke:none" />
      <path
         id="path16"
         d="m 14.800094,-3.2589531 c 0.152344,0 0.339844,0 0.339844,-0.1992188 0,-0.1992187 -0.1875,-0.1992187 -0.328125,-0.1992187 H 8.8469688 c -0.140625,0 -0.328125,0 -0.328125,0.1992187 0,0.1992188 0.1875,0.1992188 0.3398437,0.1992188 z m 0.01172,1.9335937 c 0.140625,0 0.328125,0 0.328125,-0.1992187 0,-0.1992188 -0.1875,-0.1992188 -0.339844,-0.1992188 H 8.8586875 c -0.1523437,0 -0.3398437,0 -0.3398437,0.1992188 0,0.1992187 0.1875,0.1992187 0.328125,0.1992187 z m 0,0"
         style="fill:#eb0a36;fill-opacity:1;fill-rule:nonzero;stroke:none" />
      <path
         id="path17"
         d="m 22.121383,-3.9855156 h 0.855469 c 0.199218,0 0.304687,0 0.304687,-0.1992188 0,-0.1054687 -0.105469,-0.1054687 -0.269531,-0.1054687 h -0.832031 l 0.210937,-1.1367188 c 0.03516,-0.2109375 0.175781,-0.9140625 0.234375,-1.0429687 0.09375,-0.1875 0.257813,-0.3398438 0.46875,-0.3398438 0.04687,0 0.304688,0 0.492188,0.1875 -0.433594,0.035156 -0.539063,0.3867188 -0.539063,0.5390625 0,0.2226563 0.175781,0.3398438 0.363281,0.3398438 0.269532,0 0.550782,-0.2109375 0.550782,-0.5976563 0,-0.4570312 -0.457032,-0.6796875 -0.867188,-0.6796875 -0.339844,0 -0.960937,0.1757813 -1.265625,1.1601563 -0.05859,0.2109375 -0.08203,0.3164062 -0.328125,1.5703125 h -0.679687 c -0.199219,0 -0.304688,0 -0.304688,0.1875 0,0.1171875 0.09375,0.1171875 0.28125,0.1171875 h 0.65625 l -0.75,3.93749997 c -0.175781,0.9609375 -0.339844,1.87500003 -0.867187,1.87500003 -0.03516,0 -0.28125,0 -0.46875,-0.1875 0.457031,-0.023437 0.539062,-0.3867188 0.539062,-0.5390625 0,-0.22265628 -0.175781,-0.33984378 -0.363281,-0.33984378 -0.257813,0 -0.550781,0.2109375 -0.550781,0.59765628 0,0.4453125 0.433593,0.6796875 0.84375,0.6796875 0.550781,0 0.949218,-0.5859375 1.125,-0.9609375 0.328125,-0.63281253 0.550781,-1.83984378 0.5625,-1.91015628 z m 0,0"
         style="fill:#eb0a36;fill-opacity:1;fill-rule:nonzero;stroke:none" />
      <path
         id="path18"
         d="m 27.711227,2.3894844 c 0,-0.035156 0,-0.046875 -0.164063,-0.2226563 -1.242187,-1.25390623 -1.570312,-3.12890623 -1.570312,-4.6640625 0,-1.7226562 0.386718,-3.4570312 1.605468,-4.7109375 0.128907,-0.1171875 0.128907,-0.1289062 0.128907,-0.1640625 0,-0.070312 -0.03516,-0.1054687 -0.09375,-0.1054687 -0.105469,0 -0.996094,0.6796875 -1.582032,1.9453125 -0.515625,1.1015625 -0.632812,2.203125 -0.632812,3.0351562 0,0.7851563 0.117187,1.99218752 0.65625,3.11718752 0.597656,1.21874998 1.453125,1.87499998 1.558594,1.87499998 0.05859,0 0.09375,-0.035156 0.09375,-0.1054687 z m 0,0"
         style="fill:#eb0a36;fill-opacity:1;fill-rule:nonzero;stroke:none" />
      <path
         id="path19"
         d="m 30.345016,-3.9855156 h 0.9375 c 0.199218,0 0.304687,0 0.304687,-0.1992188 0,-0.1054687 -0.105469,-0.1054687 -0.28125,-0.1054687 h -0.878906 c 0.363281,-1.4179688 0.410156,-1.6171875 0.410156,-1.6757813 0,-0.1757812 -0.117187,-0.2695312 -0.292969,-0.2695312 -0.02344,0 -0.304687,0.011719 -0.398437,0.3515625 l -0.386719,1.59375 h -0.9375 c -0.199219,0 -0.292969,0 -0.292969,0.1875 0,0.1171875 0.07031,0.1171875 0.269532,0.1171875 h 0.878906 c -0.714844,2.8242187 -0.75,2.99999997 -0.75,3.17578122 0,0.5390625 0.375,0.9140625 0.914062,0.9140625 1.007813,0 1.582032,-1.45312502 1.582032,-1.53515622 0,-0.09375 -0.08203,-0.09375 -0.117188,-0.09375 -0.09375,0 -0.105469,0.023437 -0.152344,0.140625 -0.433593,1.03124997 -0.960937,1.27734372 -1.300781,1.27734372 -0.199219,0 -0.304687,-0.12890625 -0.304687,-0.45703125 0,-0.24609375 0.02344,-0.31640625 0.05859,-0.48046877 z m 0,0"
         style="fill:#eb0a36;fill-opacity:1;fill-rule:nonzero;stroke:none" />
      <path
         id="path20"
         d="m 34.774703,-2.4972344 c 0,-0.7734375 -0.117187,-1.9804687 -0.65625,-3.1054687 -0.597656,-1.21875 -1.464844,-1.875 -1.558594,-1.875 -0.05859,0 -0.105468,0.046875 -0.105468,0.1054687 0,0.035156 0,0.046875 0.199218,0.234375 0.972657,0.984375 1.535157,2.5664063 1.535157,4.640625 0,1.71093752 -0.363282,3.45703127 -1.59375,4.7226563 -0.140625,0.1171875 -0.140625,0.1289062 -0.140625,0.1640625 0,0.058594 0.04687,0.1054687 0.105468,0.1054687 0.09375,0 0.996094,-0.6796875 1.582032,-1.94531248 0.503906,-1.1015625 0.632812,-2.20312502 0.632812,-3.04687502 z m 0,0"
         style="fill:#eb0a36;fill-opacity:1;fill-rule:nonzero;stroke:none" />
    </g>
    <g
       id="g20"
       aria-label="t&#10;1"
       transform="matrix(1.3333333,0,0,1.3333333,138.556,258.68133)">
      <path
         id="path21"
         d="m 2.0497969,-3.9856094 h 0.9375 c 0.1992187,0 0.3046875,0 0.3046875,-0.1992187 0,-0.1054688 -0.1054688,-0.1054688 -0.28125,-0.1054688 H 2.1318281 c 0.3632813,-1.4179687 0.4101563,-1.6171875 0.4101563,-1.6757812 0,-0.1757813 -0.1171875,-0.2695313 -0.2929688,-0.2695313 -0.023437,0 -0.3046875,0.011719 -0.3984375,0.3515625 l -0.3867187,1.59375 H 0.52635938 c -0.19921875,0 -0.29296875,0 -0.29296875,0.1875 0,0.1171875 0.0703125,0.1171875 0.26953125,0.1171875 H 1.3818281 c -0.71484372,2.8242188 -0.74999997,3.00000003 -0.74999997,3.17578128 0,0.5390625 0.37499997,0.9140625 0.91406247,0.9140625 1.0078125,0 1.5820313,-1.45312498 1.5820313,-1.53515628 0,-0.09375 -0.082031,-0.09375 -0.1171875,-0.09375 -0.09375,0 -0.1054688,0.023437 -0.1523438,0.140625 -0.4335937,1.03125003 -0.9609375,1.27734378 -1.3007812,1.27734378 -0.1992188,0 -0.3046875,-0.12890625 -0.3046875,-0.45703125 0,-0.24609375 0.023437,-0.31640625 0.058594,-0.48046873 z m 0,0"
         style="fill:#ec008c;fill-opacity:1;fill-rule:nonzero;stroke:none" />
      <path
         id="path22"
         d="m 5.9287031,-2.9367812 c 0,-0.1875 -0.011719,-0.1992188 -0.2109375,-0.1992188 -0.4453125,0.4335938 -1.078125,0.4453125 -1.359375,0.4453125 v 0.2460938 c 0.1640625,0 0.6210938,0 1.0078125,-0.1875 v 3.5507812 c 0,0.234375 0,0.328125 -0.6914062,0.328125 H 4.4052656 v 0.2460938 c 0.1289063,-0.011719 0.984375,-0.023437 1.2421875,-0.023437 0.2109375,0 1.0898438,0.011719 1.2421875,0.023437 V 1.2468125 H 6.6318281 c -0.703125,0 -0.703125,-0.09375 -0.703125,-0.328125 z m 0,0"
         style="fill:#ec008c;fill-opacity:1;fill-rule:nonzero;stroke:none" />
    </g>
    <g
       id="g22"
       aria-label="t&#10;2"
       transform="matrix(1.3333333,0,0,1.3333333,319.76133,258.68133)">
      <path
         id="path23"
         d="m 2.0510703,-3.9856094 h 0.9375 c 0.1992188,0 0.3046875,0 0.3046875,-0.1992187 0,-0.1054688 -0.1054687,-0.1054688 -0.28125,-0.1054688 H 2.1331016 c 0.3632812,-1.4179687 0.4101562,-1.6171875 0.4101562,-1.6757812 0,-0.1757813 -0.1171875,-0.2695313 -0.2929687,-0.2695313 -0.023437,0 -0.3046875,0.011719 -0.3984375,0.3515625 l -0.3867188,1.59375 H 0.52763281 c -0.19921875,0 -0.29296875,0 -0.29296875,0.1875 0,0.1171875 0.0703125,0.1171875 0.26953125,0.1171875 H 1.3831016 c -0.71484379,2.8242188 -0.75000004,3.00000003 -0.75000004,3.17578128 0,0.5390625 0.37500004,0.9140625 0.91406254,0.9140625 1.0078125,0 1.5820312,-1.45312498 1.5820312,-1.53515628 0,-0.09375 -0.082031,-0.09375 -0.1171875,-0.09375 -0.09375,0 -0.1054687,0.023437 -0.1523437,0.140625 -0.4335938,1.03125003 -0.9609375,1.27734378 -1.3007813,1.27734378 -0.1992187,0 -0.3046875,-0.12890625 -0.3046875,-0.45703125 0,-0.24609375 0.023437,-0.31640625 0.058594,-0.48046873 z m 0,0"
         style="fill:#ec008c;fill-opacity:1;fill-rule:nonzero;stroke:none" />
      <path
         id="path24"
         d="M 7.1135703,0.22728125 H 6.8791953 C 6.8557578,0.379625 6.7971641,0.78978125 6.7034141,0.86009375 6.6448203,0.89525 6.1057578,0.89525 6.0120078,0.89525 H 4.7229453 c 0.7382813,-0.64453125 0.984375,-0.84375 1.3945313,-1.171875 0.515625,-0.41015625 0.9960937,-0.84375 0.9960937,-1.5 0,-0.84375 -0.7382812,-1.359375 -1.6289062,-1.359375 -0.8671875,0 -1.453125,0.609375 -1.453125,1.2421875 0,0.3632813 0.3046875,0.3984375 0.375,0.3984375 0.1640625,0 0.375,-0.1171875 0.375,-0.375 0,-0.1289062 -0.058594,-0.3632812 -0.421875,-0.3632812 0.2226562,-0.5039063 0.6914062,-0.65625 1.0195312,-0.65625 0.703125,0 1.0664063,0.5507812 1.0664063,1.1132812 0,0.609375 -0.4335938,1.08984375 -0.65625,1.3359375 l -1.6875,1.6640625 c -0.070312,0.058594 -0.070312,0.070312 -0.070312,0.2695313 h 2.8828125 z m 0,0"
         style="fill:#ec008c;fill-opacity:1;fill-rule:nonzero;stroke:none" />
    </g>
    <g
       id="g24"
       aria-label="A&#10;1"
       transform="matrix(1.3333333,0,0,1.3333333,159.556,258.01067)">
      <path
         id="path25"
         d="m 1.7802656,-1.1476484 c -0.3984375,0.66796871 -0.78515622,0.80859371 -1.21874997,0.84374996 -0.12890625,0 -0.2109375,0 -0.2109375,0.19921875 0,0.05859375 0.046875,0.1054687525 0.12890625,0.1054687525 0.26953125,0 0.57421872,-0.0351562525 0.85546872,-0.0351562525 0.328125,0 0.6796875,0.0351562525 0.9960938,0.0351562525 0.058594,0 0.1875,0 0.1875,-0.1875000025 0,-0.1171875 -0.09375,-0.1171875 -0.1640625,-0.1171875 -0.2226563,-0.0234375 -0.4570313,-0.10546875 -0.4570313,-0.3515625 0,-0.1171875 0.058594,-0.234375 0.1289063,-0.37499996 l 0.7617187,-1.265625 h 2.4960938 c 0.023437,0.1992187 0.1640625,1.55859371 0.1640625,1.66406246 0,0.29296875 -0.515625,0.328125 -0.7148438,0.328125 -0.140625,0 -0.2460937,0 -0.2460937,0.19921875 0,0.1054687525 0.1289062,0.1054687525 0.140625,0.1054687525 0.4101562,0 0.84375,-0.0351562525 1.2539062,-0.0351562525 0.2460938,0 0.8671875,0.0351562525 1.125,0.0351562525 0.058594,0 0.1757813,0 0.1757813,-0.1992187525 0,-0.10546875 -0.1054688,-0.10546875 -0.234375,-0.10546875 -0.609375,0 -0.609375,-0.0703125 -0.6445313,-0.36328125 L 5.6943281,-6.8898359 c -0.011719,-0.1992188 -0.011719,-0.2460938 -0.1875,-0.2460938 -0.1640625,0 -0.1992187,0.070312 -0.2578125,0.1757813 z m 1.1953125,-1.4648438 1.96875,-3.28125 0.3164063,3.28125 z m 0,0"
         style="fill:#ff0000;fill-opacity:0.5;fill-rule:nonzero;stroke:none" />
      <path
         id="path26"
         d="m 9.8046797,-2.9347578 c 0,-0.1875 -0.011719,-0.1992188 -0.2109375,-0.1992188 -0.4453125,0.4335938 -1.078125,0.4453125 -1.359375,0.4453125 v 0.2460938 c 0.1640625,0 0.6210937,0 1.0078125,-0.1875 v 3.55078124 c 0,0.23437496 0,0.32812496 -0.6914063,0.32812496 H 8.2812422 v 0.2460938 c 0.1289062,-0.011719 0.984375,-0.023437 1.2421875,-0.023437 0.2109375,0 1.0898433,0.011719 1.2421873,0.023437 V 1.2488359 h -0.257812 c -0.7031253,0 -0.7031253,-0.09375 -0.7031253,-0.32812496 z m 0,0"
         style="fill:#ff0000;fill-opacity:0.5;fill-rule:nonzero;stroke:none" />
    </g>
    <g
       id="g26"
       aria-label="A&#10;2"
       transform="matrix(1.3333333,0,0,1.3333333,224.564,188.46667)">
      <path
         id="path27"
         d="m 1.780125,-1.1498047 c -0.3984375,0.66796876 -0.78515625,0.80859376 -1.21875,0.84375001 -0.12890625,0 -0.2109375,0 -0.2109375,0.19921875 0,0.05859375 0.046875,0.10546875 0.12890625,0.10546875 0.26953125,0 0.57421875,-0.03515625 0.85546875,-0.03515625 0.328125,0 0.6796875,0.03515625 0.9960937,0.03515625 0.058594,0 0.1875,0 0.1875,-0.1875 0,-0.1171875 -0.09375,-0.1171875 -0.1640625,-0.1171875 -0.2226562,-0.0234375 -0.4570312,-0.10546875 -0.4570312,-0.3515625 0,-0.1171875 0.058594,-0.234375 0.1289062,-0.37500001 l 0.7617188,-1.265625 h 2.4960937 c 0.023437,0.1992188 0.1640625,1.55859376 0.1640625,1.66406251 0,0.29296875 -0.515625,0.328125 -0.7148437,0.328125 -0.140625,0 -0.2460938,0 -0.2460938,0.19921875 0,0.10546875 0.1289063,0.10546875 0.140625,0.10546875 0.4101563,0 0.84375,-0.03515625 1.2539063,-0.03515625 0.2460937,0 0.8671875,0.03515625 1.125,0.03515625 0.058594,0 0.1757812,0 0.1757812,-0.19921875 0,-0.10546875 -0.1054687,-0.10546875 -0.234375,-0.10546875 -0.609375,0 -0.609375,-0.0703125 -0.6445312,-0.36328125 L 5.6941875,-6.8919922 c -0.011719,-0.1992187 -0.011719,-0.2460937 -0.1875,-0.2460937 -0.1640625,0 -0.1992188,0.070312 -0.2578125,0.1757812 z m 1.1953125,-1.4648437 1.96875,-3.28125 0.3164062,3.28125 z m 0,0"
         style="fill:#0000ff;fill-opacity:0.5;fill-rule:nonzero;stroke:none" />
      <path
         id="path28"
         d="m 10.988133,0.22714844 h -0.234375 c -0.02344,0.15234375 -0.08203,0.5625 -0.175781,0.6328125 -0.05859,0.0351563 -0.5976567,0.0351563 -0.6914067,0.0351563 H 8.5975078 c 0.7382813,-0.64453125 0.984375,-0.84375 1.3945313,-1.171875 0.5156249,-0.41015625 0.9960939,-0.84374994 0.9960939,-1.49999994 0,-0.84375 -0.738281,-1.359375 -1.6289064,-1.359375 -0.8671875,0 -1.453125,0.609375 -1.453125,1.2421875 0,0.3632812 0.3046875,0.3984375 0.375,0.3984375 0.1640625,0 0.375,-0.1171875 0.375,-0.375 0,-0.1289063 -0.058594,-0.3632814 -0.421875,-0.3632814 0.2226562,-0.5039061 0.6914062,-0.65625 1.0195312,-0.65625 0.703125,0 1.0664062,0.5507814 1.0664062,1.1132814 0,0.609375 -0.4335937,1.08984369 -0.6562499,1.33593744 l -1.6875,1.66406246 c -0.070312,0.058594 -0.070312,0.070312 -0.070312,0.2695313 h 2.8828119 z m 0,0"
         style="fill:#0000ff;fill-opacity:0.5;fill-rule:nonzero;stroke:none" />
    </g>
    <g
       id="g28"
       aria-label="A&#10;3"
       transform="matrix(1.3333333,0,0,1.3333333,289.572,264.05733)">
      <path
         id="path29"
         d="m 1.7799844,-1.1474922 c -0.3984375,0.66796876 -0.78515628,0.80859376 -1.21875003,0.84375001 -0.12890625,0 -0.2109375,0 -0.2109375,0.19921875 0,0.05859375 0.046875,0.1054687525 0.12890625,0.1054687525 0.26953125,0 0.57421878,-0.0351562525 0.85546878,-0.0351562525 0.328125,0 0.6796875,0.0351562525 0.9960937,0.0351562525 0.058594,0 0.1875,0 0.1875,-0.1875000025 0,-0.1171875 -0.09375,-0.1171875 -0.1640625,-0.1171875 -0.2226562,-0.0234375 -0.4570312,-0.10546875 -0.4570312,-0.3515625 0,-0.1171875 0.058594,-0.234375 0.1289062,-0.37500001 l 0.7617188,-1.265625 h 2.4960937 c 0.023437,0.1992188 0.1640625,1.55859376 0.1640625,1.66406251 0,0.29296875 -0.515625,0.328125 -0.7148437,0.328125 -0.140625,0 -0.2460938,0 -0.2460938,0.19921875 0,0.1054687525 0.1289063,0.1054687525 0.140625,0.1054687525 0.4101563,0 0.84375,-0.0351562525 1.2539063,-0.0351562525 0.2460937,0 0.8671875,0.0351562525 1.125,0.0351562525 0.058594,0 0.1757812,0 0.1757812,-0.1992187525 0,-0.10546875 -0.1054687,-0.10546875 -0.234375,-0.10546875 -0.609375,0 -0.609375,-0.0703125 -0.6445312,-0.36328125 L 5.6940469,-6.8896797 c -0.011719,-0.1992187 -0.011719,-0.2460937 -0.1875,-0.2460937 -0.1640625,0 -0.1992188,0.070312 -0.2578125,0.1757812 z m 1.1953125,-1.4648437 1.96875,-3.28125 0.3164062,3.28125 z m 0,0"
         style="fill:#ff0000;fill-opacity:0.5;fill-rule:nonzero;stroke:none" />
      <path
         id="path30"
         d="m 9.3708047,-0.83694531 c 0.5507812,0 0.9375003,0.375 0.9375003,1.125 0,0.86718751 -0.5039066,1.12500001 -0.9023441,1.12500001 -0.28125,0 -0.890625,-0.082031 -1.1835937,-0.49218751 0.328125,-0.0117188 0.3984375,-0.24609375 0.3984375,-0.38671875 0,-0.22265625 -0.1640625,-0.38671875 -0.3867188,-0.38671875 -0.1875,0 -0.3867187,0.1171875 -0.3867187,0.41015625 0,0.65624996 0.7265625,1.07812496 1.5703125,1.07812496 0.9726563,0 1.6406253,-0.64453121 1.6406253,-1.34765621 0,-0.5390625 -0.445313,-1.08984375 -1.2187503,-1.2421875 0.7382813,-0.26953129 0.9960933,-0.79687499 0.9960933,-1.21874999 0,-0.5507813 -0.632812,-0.9609375 -1.4062496,-0.9609375 -0.7734375,0 -1.359375,0.375 -1.359375,0.9375 0,0.234375 0.1523438,0.3632812 0.3632813,0.3632812 0.2109375,0 0.3515625,-0.1640625 0.3515625,-0.3515625 0,-0.1992187 -0.140625,-0.3515625 -0.3515625,-0.3632812 0.234375,-0.3046875 0.7148437,-0.3867188 0.9726562,-0.3867188 0.3164063,0 0.7617191,0.1523438 0.7617191,0.7617188 0,0.2929687 -0.105469,0.609375 -0.2812503,0.8320312 -0.234375,0.2578125 -0.421875,0.28125 -0.7734375,0.2929688 -0.1757813,0.023437 -0.1875,0.023437 -0.2226563,0.023437 -0.011719,0 -0.070312,0.011719 -0.070312,0.09375 0,0.09375 0.058594,0.09375 0.1757813,0.09375 z m 0,0"
         style="fill:#ff0000;fill-opacity:0.5;fill-rule:nonzero;stroke:none" />
    </g>
  </g>
</svg>
