<?xml version="1.0" encoding="UTF-8" standalone="no"?>
<!-- Created with Inkscape (http://www.inkscape.org/) -->

<svg
   version="1.1"
   id="svg1"
   width="124.45624"
   height="125.66367"
   viewBox="0 0 124.45624 125.66367"
   sodipodi:docname="4.1-cuadratica.svg"
   inkscape:version="1.4.2 (f4327f4, 2025-05-13)"
   xmlns:inkscape="http://www.inkscape.org/namespaces/inkscape"
   xmlns:sodipodi="http://sodipodi.sourceforge.net/DTD/sodipodi-0.dtd"
   xmlns="http://www.w3.org/2000/svg"
   xmlns:svg="http://www.w3.org/2000/svg">
  <defs
     id="defs1">
    <clipPath
       clipPathUnits="userSpaceOnUse"
       id="clipPath23">
      <rect
         style="opacity:0;fill:none;stroke-width:0.75"
         id="rect24"
         width="143.31294"
         height="117.68522"
         x="-250.87207"
         y="-54.060513" />
    </clipPath>
    <clipPath
       clipPathUnits="userSpaceOnUse"
       id="clipPath24">
      <rect
         style="opacity:0;fill:none;stroke-width:0.75"
         id="rect25"
         width="143.31294"
         height="117.68522"
         x="-219.86307"
         y="-84.989517"
         transform="scale(1,-1)" />
    </clipPath>
    <clipPath
       clipPathUnits="userSpaceOnUse"
       id="clipPath25">
      <rect
         style="opacity:0;fill:none;stroke-width:0.75"
         id="rect26"
         width="143.31294"
         height="117.68522"
         x="-210.28807"
         y="-18.246515" />
    </clipPath>
    <clipPath
       clipPathUnits="userSpaceOnUse"
       id="clipPath26">
      <rect
         style="opacity:0;fill:none;stroke-width:0.75"
         id="rect27"
         width="143.31294"
         height="117.68522"
         x="-219.86307"
         y="-17.416506"
         transform="matrix(0,-1,-1,0,0,0)" />
    </clipPath>
    <clipPath
       clipPathUnits="userSpaceOnUse"
       id="clipPath27">
      <rect
         style="opacity:0;fill:none;stroke-width:0.75"
         id="rect28"
         width="143.31294"
         height="117.68522"
         x="-219.86307"
         y="-84.989517"
         transform="scale(1,-1)" />
    </clipPath>
    <clipPath
       clipPathUnits="userSpaceOnUse"
       id="clipPath28">
      <rect
         style="opacity:0;fill:none;stroke-width:0.75"
         id="rect29"
         width="143.31294"
         height="117.68522"
         x="-273.43808"
         y="-93.521515" />
    </clipPath>
    <clipPath
       clipPathUnits="userSpaceOnUse"
       id="clipPath29">
      <rect
         style="opacity:0;fill:none;stroke-width:0.75"
         id="rect30"
         width="143.31294"
         height="117.68522"
         x="-276.09753"
         y="-84.989517"
         transform="scale(1,-1)" />
    </clipPath>
    <clipPath
       clipPathUnits="userSpaceOnUse"
       id="clipPath30">
      <rect
         style="opacity:0;fill:none;stroke-width:0.75"
         id="rect31"
         width="143.31294"
         height="117.68522"
         x="-219.86307"
         y="-84.989517"
         transform="scale(1,-1)" />
    </clipPath>
    <clipPath
       clipPathUnits="userSpaceOnUse"
       id="clipPath31">
      <rect
         style="opacity:0;fill:none;stroke-width:0.75"
         id="rect32"
         width="143.31294"
         height="117.68522"
         x="-92.820068"
         y="-54.060513" />
    </clipPath>
    <clipPath
       clipPathUnits="userSpaceOnUse"
       id="clipPath32">
      <rect
         style="opacity:0;fill:none;stroke-width:0.75"
         id="rect33"
         width="143.31294"
         height="117.68522"
         x="-61.811069"
         y="-84.989517"
         transform="scale(1,-1)" />
    </clipPath>
    <clipPath
       clipPathUnits="userSpaceOnUse"
       id="clipPath33">
      <rect
         style="opacity:0;fill:none;stroke-width:0.75"
         id="rect34"
         width="143.31294"
         height="117.68522"
         x="-52.236069"
         y="-18.246515" />
    </clipPath>
    <clipPath
       clipPathUnits="userSpaceOnUse"
       id="clipPath34">
      <rect
         style="opacity:0;fill:none;stroke-width:0.75"
         id="rect35"
         width="143.31294"
         height="117.68522"
         x="-61.811069"
         y="-17.416506"
         transform="matrix(0,-1,-1,0,0,0)" />
    </clipPath>
    <clipPath
       clipPathUnits="userSpaceOnUse"
       id="clipPath35">
      <rect
         style="opacity:0;fill:none;stroke-width:0.75"
         id="rect36"
         width="143.31294"
         height="117.68522"
         x="-61.811069"
         y="-84.989517"
         transform="scale(1,-1)" />
    </clipPath>
    <clipPath
       clipPathUnits="userSpaceOnUse"
       id="clipPath36">
      <rect
         style="opacity:0;fill:none;stroke-width:0.75"
         id="rect37"
         width="143.31294"
         height="117.68522"
         x="-115.38507"
         y="-93.521515" />
    </clipPath>
    <clipPath
       clipPathUnits="userSpaceOnUse"
       id="clipPath37">
      <rect
         style="opacity:0;fill:none;stroke-width:0.75"
         id="rect38"
         width="143.31294"
         height="117.68522"
         x="-118.04554"
         y="-84.989517"
         transform="scale(1,-1)" />
    </clipPath>
    <clipPath
       clipPathUnits="userSpaceOnUse"
       id="clipPath38">
      <rect
         style="opacity:0;fill:none;stroke-width:0.75"
         id="rect39"
         width="143.31294"
         height="117.68522"
         x="-61.811069"
         y="-84.989517"
         transform="scale(1,-1)" />
    </clipPath>
    <clipPath
       clipPathUnits="userSpaceOnUse"
       id="clipPath39">
      <rect
         style="opacity:0;fill:none;stroke-width:0.75"
         id="rect40"
         width="143.31294"
         height="117.68522"
         x="25.964933"
         y="-219.18452"
         transform="scale(1,-1)" />
    </clipPath>
  </defs>
  <sodipodi:namedview
     id="namedview1"
     pagecolor="#ffffff"
     bordercolor="#000000"
     borderopacity="0.25"
     inkscape:showpageshadow="2"
     inkscape:pageopacity="0.0"
     inkscape:pagecheckerboard="0"
     inkscape:deskcolor="#d1d1d1"
     inkscape:zoom="2.2241536"
     inkscape:cx="170.6267"
     inkscape:cy="92.844307"
     inkscape:window-width="1920"
     inkscape:window-height="1009"
     inkscape:window-x="-8"
     inkscape:window-y="-8"
     inkscape:window-maximized="1"
     inkscape:current-layer="g1">
    <inkscape:page
       x="0"
       y="0"
       inkscape:label="37"
       id="page1"
       width="124.45624"
       height="125.66367"
       margin="0"
       bleed="0" />
  </sodipodi:namedview>
  <g
     id="g1"
     inkscape:groupmode="layer"
     inkscape:label="37"
     transform="translate(-71.680481,-88.480468)">
    <path
       id="path2"
       d="M -34.01564,0 H 56.23447"
       style="fill:none;stroke:#000000;stroke-width:0.3985;stroke-linecap:butt;stroke-linejoin:miter;stroke-miterlimit:10;stroke-dasharray:none;stroke-opacity:1"
       transform="matrix(1.3333333,0,0,-1.3333333,117.03467,183.908)"
       clip-path="url(#clipPath38)" />
    <path
       id="path3"
       d="M -1.19551,1.59401 C -1.09587,0.99626 0,0.09961 0.29886,0 0,-0.09961 -1.09587,-0.99626 -1.19551,-1.59401"
       style="fill:none;stroke:#000000;stroke-width:0.31879;stroke-linecap:round;stroke-linejoin:round;stroke-miterlimit:10;stroke-dasharray:none;stroke-opacity:1"
       transform="matrix(1.3333333,0,0,-1.3333333,192.01396,183.908)"
       clip-path="url(#clipPath37)" />
    <path
       id="path4"
       d="m 3.6431641,-3.2921016 c 0.070312,-0.28125 0.3164062,-1.2890625 1.078125,-1.2890625 0.058594,0 0.3164062,0 0.5507812,0.140625 -0.3046875,0.058594 -0.5273437,0.328125 -0.5273437,0.5859375 0,0.1757813 0.1171875,0.3867188 0.4101562,0.3867188 0.2460938,0 0.5976563,-0.1992188 0.5976563,-0.6328125 0,-0.5625 -0.6445313,-0.7265625 -1.0195313,-0.7265625 -0.6328125,0 -1.0195312,0.5859375 -1.1484375,0.8320312 -0.2695312,-0.7148437 -0.8554687,-0.8320312 -1.171875,-0.8320312 -1.1367187,0 -1.75781249,1.4179687 -1.75781249,1.6875 0,0.1054687 0.10546875,0.1054687 0.12890625,0.1054687 0.0820313,0 0.1171875,-0.023437 0.140625,-0.1171875 0.37500004,-1.1601562 1.08984374,-1.4296875 1.46484374,-1.4296875 0.2109375,0 0.5859375,0.09375 0.5859375,0.7265625 0,0.3398438 -0.1875,1.078125 -0.5859375,2.6015625 -0.1757812,0.67968754 -0.5625,1.13671879 -1.0429687,1.13671879 -0.058594,0 -0.3164063,0 -0.53906254,-0.140625 0.26953124,-0.0585938 0.51562504,-0.29296875 0.51562504,-0.59765625 0,-0.29296874 -0.2460938,-0.37500004 -0.41015629,-0.37500004 -0.328125,0 -0.59765625,0.28125004 -0.59765625,0.63281254 0,0.50390625 0.55078125,0.71484375 1.03125004,0.71484375 0.7148437,0 1.1015625,-0.76171875 1.1367187,-0.83203125 0.1289063,0.41015625 0.5273438,0.83203125 1.1835938,0.83203125 1.125,0 1.7460937,-1.40624999 1.7460937,-1.67578129 0,-0.1054687 -0.1054687,-0.1054687 -0.1289062,-0.1054687 -0.1054688,0 -0.1289063,0.035156 -0.140625,0.1171875 -0.3632813,1.16015624 -1.1132813,1.42968749 -1.453125,1.42968749 -0.4335938,0 -0.609375,-0.3515625 -0.609375,-0.7265625 0,-0.23437499 0.070312,-0.48046879 0.1875,-0.96093749 z m 0,0"
       style="fill:#000000;fill-opacity:1;fill-rule:nonzero;stroke:none"
       aria-label="x"
       transform="matrix(1.3333333,0,0,1.3333333,188.46667,195.284)"
       clip-path="url(#clipPath36)" />
    <path
       id="path5"
       d="M 0,-22.6771 V 67.57301"
       style="fill:none;stroke:#000000;stroke-width:0.3985;stroke-linecap:butt;stroke-linejoin:miter;stroke-miterlimit:10;stroke-dasharray:none;stroke-opacity:1"
       transform="matrix(1.3333333,0,0,-1.3333333,117.03467,183.908)"
       clip-path="url(#clipPath35)" />
    <path
       id="path6"
       d="M -1.19551,1.59401 C -1.09587,0.99626 0,0.09961 0.29886,0 0,-0.09961 -1.09587,-0.99626 -1.19551,-1.59401"
       style="fill:none;stroke:#000000;stroke-width:0.31879;stroke-linecap:round;stroke-linejoin:round;stroke-miterlimit:10;stroke-dasharray:none;stroke-opacity:1"
       transform="matrix(0,-1.3333333,-1.3333333,0,117.03467,93.810653)"
       clip-path="url(#clipPath34)" />
    <path
       id="path7"
       d="m 5.2980234,-4.1596797 c 0.046875,-0.1523437 0.046875,-0.1757812 0.046875,-0.2460937 0,-0.1992188 -0.1523437,-0.2929688 -0.3164062,-0.2929688 -0.1054688,0 -0.28125,0.058594 -0.375,0.2226563 -0.023437,0.058594 -0.1171875,0.3984375 -0.1523438,0.5976562 -0.082031,0.28125 -0.1523437,0.5742188 -0.2226562,0.8671875 l -0.4921875,1.96875 c -0.046875,0.16406251 -0.515625,0.92578126 -1.2304688,0.92578126 -0.5625,0 -0.6796875,-0.48046875 -0.6796875,-0.89062496 0,-0.4921875 0.1875,-1.171875 0.5625,-2.1328125 0.1757813,-0.4453125 0.2109375,-0.5742188 0.2109375,-0.7851563 0,-0.4921875 -0.3515625,-0.9023437 -0.890625,-0.9023437 -1.04296871,0 -1.44140621,1.5820312 -1.44140621,1.6875 0,0.1054687 0.10546875,0.1054687 0.12890625,0.1054687 0.10546875,0 0.1171875,-0.023437 0.17578125,-0.1992187 0.29296875,-1.0195313 0.72656251,-1.3476563 1.10156251,-1.3476563 0.09375,0 0.2695312,0 0.2695312,0.3515625 0,0.2695313 -0.1054687,0.5507813 -0.1757812,0.7617188 -0.4453125,1.1601562 -0.6328125,1.78125 -0.6328125,2.2851562 0,0.97265626 0.6796875,1.30078126 1.3242187,1.30078126 0.421875,0 0.796875,-0.1875 1.1015625,-0.4921875 -0.140625,0.57421875 -0.2695312,1.1015625 -0.703125,1.68750004 -0.2929687,0.3632812 -0.703125,0.6796875 -1.2070312,0.6796875 -0.1523438,0 -0.6445313,-0.023437 -0.83203126,-0.4570313 0.17578126,0 0.31640626,0 0.48046876,-0.1289062 0.1054687,-0.09375 0.2109375,-0.234375 0.2109375,-0.44531254 0,-0.33984375 -0.2929688,-0.38671875 -0.3984375,-0.38671875 -0.25781251,0 -0.60937501,0.17578125 -0.60937501,0.71484379 0,0.5390625 0.48046871,0.9492187 1.14843751,0.9492187 1.125,0 2.25,-0.9960937 2.5546875,-2.22656249 z m 0,0"
       style="fill:#000000;fill-opacity:1;fill-rule:nonzero;stroke:none"
       aria-label="y"
       transform="matrix(1.3333333,0,0,1.3333333,104.268,94.917333)"
       clip-path="url(#clipPath33)" />
    <path
       id="path8"
       d="m -24.94476,54.87836 c 0,0 0.36403,-1.59178 0.50381,-2.19449 0.1398,-0.60272 0.36402,-1.55924 0.50382,-2.14952 0.1398,-0.59027 0.36401,-1.527 0.50381,-2.10486 0.1398,-0.57788 0.364,-1.49463 0.50382,-2.06007 0.1398,-0.56543 0.364,-1.46222 0.50381,-2.01523 0.1398,-0.55304 0.36401,-1.43004 0.5038,-1.97063 0.1398,-0.54059 0.36401,-1.39746 0.50381,-1.92563 0.13981,-0.52817 0.36402,-1.36522 0.50383,-1.88098 0.13979,-0.51578 0.364,-1.33304 0.5038,-1.83638 0.1398,-0.50331 0.36402,-1.30047 0.50382,-1.79135 0.1398,-0.49089 0.36401,-1.2681 0.5038,-1.74657 0.13981,-0.47847 0.36401,-1.23588 0.50381,-1.70192 0.13982,-0.46606 0.36402,-1.20349 0.50383,-1.65713 0.13979,-0.45363 0.36402,-1.17127 0.5038,-1.61248 0.1398,-0.4412 0.36402,-1.13872 0.50382,-1.56748 0.1398,-0.42878 0.36401,-1.1065 0.50383,-1.52286 0.13978,-0.41637 0.36398,-1.07411 0.5038,-1.47805 0.1398,-0.40393 0.36401,-1.04174 0.50381,-1.43324 0.1398,-0.39149 0.36401,-1.00934 0.5038,-1.38843 0.13982,-0.37907 0.36401,-0.97711 0.50381,-1.34378 0.13982,-0.36665 0.36403,-0.94458 0.50383,-1.29881 0.13979,-0.35422 0.364,-0.91235 0.5038,-1.25415 0.13981,-0.34182 0.36402,-0.87997 0.50382,-1.20937 0.1398,-0.3294 0.36401,-0.84775 0.50381,-1.16471 0.1398,-0.31699 0.364,-0.81539 0.50382,-1.11992 0.1398,-0.30452 0.36401,-0.78282 0.50381,-1.07492 0.13979,-0.2921 0.364,-0.7506 0.5038,-1.03029 0.13982,-0.27971 0.36402,-0.71839 0.50382,-0.98566 0.13981,-0.26727 0.36403,-0.68584 0.50381,-0.94065 0.1398,-0.25484 0.36402,-0.65362 0.50382,-0.89605 0.1398,-0.24242 0.36401,-0.62123 0.50381,-0.85121 0.13979,-0.23 0.36402,-0.58884 0.50382,-0.80643 0.1398,-0.21757 0.36399,-0.55662 0.50381,-0.76176 0.1398,-0.20514 0.36401,-0.5241 0.50382,-0.7168 0.13978,-0.19272 0.36399,-0.49185 0.50379,-0.67215 0.13981,-0.1803 0.36402,-0.45949 0.50382,-0.62733 0.13981,-0.16787 0.36403,-0.4271 0.50381,-0.58255 0.1398,-0.15546 0.36402,-0.39484 0.50382,-0.53789 0.1398,-0.14303 0.36401,-0.3625 0.50381,-0.49309 0.1398,-0.13058 0.364,-0.32992 0.50382,-0.4481 0.1398,-0.11818 0.364,-0.29789 0.50381,-0.40364 0.1398,-0.10576 0.36402,-0.26532 0.5038,-0.35866 0.1398,-0.09332 0.36402,-0.23313 0.50382,-0.31401 0.1398,-0.0809 0.36401,-0.20058 0.50382,-0.26903 0.1398,-0.06847 0.364,-0.16834 0.5038,-0.2244 0.13981,-0.05607 0.36402,-0.13612 0.50382,-0.17976 0.1398,-0.04364 0.36402,-0.10358 0.5038,-0.13478 0.13982,-0.03121 0.36401,-0.07135 0.50382,-0.09013 0.13981,-0.0188 0.36401,-0.03898 0.50383,-0.04534 0.13978,-0.00633 0.36396,-0.00654 0.50376,-5.2e-4 0.13981,0.00608 0.364,0.02582 0.50382,0.04428 0.1398,0.0185 0.36401,0.05803 0.50381,0.08895 0.1398,0.03091 0.364,0.09054 0.5038,0.13391 0.13982,0.04333 0.36402,0.12282 0.50382,0.17854 0.1398,0.05573 0.36402,0.15502 0.50382,0.22318 0.1398,0.06819 0.364,0.18756 0.5038,0.26818 0.13981,0.0806 0.36402,0.21976 0.50384,0.31281 0.13978,0.09303 0.36398,0.25233 0.5038,0.35779 0.1398,0.10545 0.364,0.28439 0.50381,0.40225 0.1398,0.11786 0.36402,0.31691 0.5038,0.44724 0.1398,0.13032 0.36401,0.34931 0.50382,0.49205 0.13981,0.14273 0.36403,0.38154 0.50383,0.53669 0.13978,0.15514 0.364,0.41391 0.5038,0.58149 0.1398,0.16757 0.36401,0.44631 0.50381,0.62631 0.1398,0.17999 0.36401,0.47851 0.5038,0.67093 0.13982,0.19243 0.36401,0.51107 0.50383,0.71593 0.1398,0.20486 0.364,0.5433 0.50381,0.76057 0.13979,0.21727 0.36402,0.57567 0.5038,0.80537 0.1398,0.22969 0.36402,0.60806 0.50382,0.85018 0.13981,0.24211 0.36401,0.64028 0.50381,0.89482 0.1398,0.25453 0.36402,0.67265 0.50382,0.93963 0.1398,0.26699 0.36401,0.70522 0.50381,0.98462 0.13979,0.27938 0.36402,0.73726 0.5038,1.02907 0.13982,0.29181 0.36402,0.76982 0.50383,1.07407 0.1398,0.30423 0.36401,0.80201 0.50382,1.11869 0.13978,0.31667 0.36399,0.83457 0.5038,1.16368 0.1398,0.3291 0.36401,0.86684 0.50381,1.20833 0.1398,0.34148 0.36401,0.89904 0.50381,1.25295 0.13981,0.35392 0.36402,0.93159 0.50382,1.29794 0.1398,0.36637 0.36401,0.96381 0.50381,1.34258 0.13981,0.37878 0.364,0.99618 0.5038,1.3874 0.13982,0.3912 0.36402,1.02855 0.50382,1.43219 0.13981,0.40364 0.36403,1.06095 0.50381,1.47701 0.1398,0.41604 0.36402,1.09315 0.50382,1.52163 0.1398,0.42849 0.36401,1.12572 0.50381,1.56664 0.13979,0.44093 0.36402,1.15796 0.50382,1.61127 0.1398,0.4533 0.364,1.19015 0.50381,1.65591 0.1398,0.46573 0.36402,1.22269 0.5038,1.70087 0.1398,0.47819 0.36401,1.25493 0.50382,1.74553 0.13981,0.49061 0.36401,1.28749 0.50381,1.79051 0.1398,0.50304 0.36403,1.31954 0.50382,1.83498 0.1398,0.51542 0.36401,1.35205 0.50381,1.87994 0.1398,0.52791 0.36401,1.38446 0.50383,1.92477 0.13979,0.5403 0.36398,1.41669 0.5038,1.96939 0.1398,0.55272 0.364,1.44906 0.50381,2.01423 0.1398,0.56515 0.36402,1.48144 0.5038,2.05902 0.1398,0.57756 0.36402,1.51365 0.50382,2.10366 0.13981,0.58999 0.36403,1.54621 0.50383,2.14862 0.13978,0.60245 0.5038,2.19329 0.5038,2.19329"
       style="fill:none;stroke:#eb0a36;stroke-width:0.79701;stroke-linecap:butt;stroke-linejoin:miter;stroke-miterlimit:10;stroke-dasharray:none;stroke-opacity:1"
       transform="matrix(1.3333333,0,0,-1.3333333,117.03467,183.908)"
       clip-path="url(#clipPath32)" />
    <g
       id="g8"
       aria-label="y=x&#10;2"
       transform="matrix(1.3333333,0,0,1.3333333,158.38,142.66933)"
       clip-path="url(#clipPath31)">
      <path
         id="path9"
         d="m 4.8390234,-3.7978984 c 0.046875,-0.140625 0.046875,-0.1523438 0.046875,-0.2226563 0,-0.1875 -0.140625,-0.2695312 -0.2929687,-0.2695312 -0.1054688,0 -0.2578125,0.058594 -0.3515625,0.1992187 -0.023437,0.058594 -0.09375,0.3632813 -0.140625,0.5390625 -0.070312,0.2578125 -0.140625,0.5273438 -0.1992188,0.796875 l -0.4453125,1.79296876 c -0.035156,0.15234375 -0.46875,0.85546875 -1.125,0.85546875 -0.5039062,0 -0.6210937,-0.4453125 -0.6210937,-0.80859375 0,-0.45703126 0.1757812,-1.07812496 0.515625,-1.95703126 0.1523437,-0.4101562 0.1992187,-0.515625 0.1992187,-0.7148437 0,-0.4453125 -0.328125,-0.8203125 -0.8203125,-0.8203125 -0.94921871,0 -1.31249996,1.453125 -1.31249996,1.5351562 0,0.1054688 0.09375,0.1054688 0.1171875,0.1054688 0.09375,0 0.10546875,-0.023437 0.15234375,-0.1875 0.26953125,-0.9375 0.66796871,-1.2304688 1.00781251,-1.2304688 0.082031,0 0.2578125,0 0.2578125,0.3164063 0,0.2460937 -0.1054688,0.515625 -0.1757813,0.703125 -0.3984375,1.0546875 -0.5742187,1.6171875 -0.5742187,2.0859375 0,0.89062496 0.6210937,1.18359371 1.21875,1.18359371 0.3867187,0 0.7265625,-0.1640625 0.9960937,-0.4453125 -0.1289062,0.515625 -0.2460937,1.0078125 -0.6445312,1.53515629 -0.2578125,0.3398437 -0.6328125,0.6328125 -1.0898438,0.6328125 -0.140625,0 -0.59765621,-0.035156 -0.76171871,-0.421875 0.1640625,0 0.29296871,0 0.43359371,-0.1171875 0.09375,-0.09375 0.1992188,-0.2226563 0.1992188,-0.41015629 0,-0.31640625 -0.2695313,-0.3515625 -0.375,-0.3515625 -0.22265626,0 -0.55078126,0.1640625 -0.55078126,0.64453129 0,0.5039062 0.43359375,0.8671875 1.05468746,0.8671875 1.0195313,0 2.0507813,-0.9023438 2.3320313,-2.02734379 z m 0,0"
         style="fill:#eb0a36;fill-opacity:1;fill-rule:nonzero;stroke:none" />
      <path
         id="path10"
         d="m 14.855625,-3.2588359 c 0.152344,0 0.339844,0 0.339844,-0.1992188 0,-0.1992187 -0.1875,-0.1992187 -0.328125,-0.1992187 H 8.9025 c -0.140625,0 -0.328125,0 -0.328125,0.1992187 0,0.1992188 0.1875,0.1992188 0.3398438,0.1992188 z m 0.01172,1.9335937 c 0.140625,0 0.328125,0 0.328125,-0.1992187 0,-0.1992188 -0.1875,-0.1992188 -0.339844,-0.1992188 H 8.9142188 c -0.1523438,0 -0.3398438,0 -0.3398438,0.1992188 0,0.1992187 0.1875,0.1992187 0.328125,0.1992187 z m 0,0"
         style="fill:#eb0a36;fill-opacity:1;fill-rule:nonzero;stroke:none" />
      <path
         id="path11"
         d="m 21.848789,-3.0127422 c 0.05859,-0.2578125 0.292969,-1.171875 0.984375,-1.171875 0.04687,0 0.292969,0 0.503906,0.1289063 -0.28125,0.046875 -0.480468,0.3046875 -0.480468,0.5390625 0,0.1640625 0.105468,0.3515625 0.375,0.3515625 0.222656,0 0.539062,-0.1875 0.539062,-0.5859375 0,-0.515625 -0.585937,-0.65625 -0.925781,-0.65625 -0.574219,0 -0.925781,0.5273437 -1.042969,0.7617187 -0.257812,-0.65625 -0.785156,-0.7617187 -1.078125,-0.7617187 -1.042969,0 -1.605469,1.2890625 -1.605469,1.5351562 0,0.1054688 0.105469,0.1054688 0.117188,0.1054688 0.08203,0 0.117187,-0.023437 0.128906,-0.1171875 0.339844,-1.0546875 0.996094,-1.3007813 1.335938,-1.3007813 0.1875,0 0.539062,0.09375 0.539062,0.6679688 0,0.3046875 -0.164062,0.9726562 -0.539062,2.3671875 -0.152344,0.62109371 -0.503907,1.04296871 -0.949219,1.04296871 -0.05859,0 -0.28125,0 -0.492188,-0.12890625 0.246094,-0.0585938 0.46875,-0.26953125 0.46875,-0.5390625 0,-0.26953126 -0.222656,-0.35156246 -0.375,-0.35156246 -0.292968,0 -0.539062,0.25781246 -0.539062,0.57421871 0,0.45703125 0.492187,0.65625 0.9375,0.65625 0.65625,0 1.007812,-0.69140625 1.042969,-0.75 0.117187,0.36328125 0.480468,0.75 1.078125,0.75 1.019531,0 1.59375,-1.27734371 1.59375,-1.53515621 0,-0.09375 -0.09375,-0.09375 -0.128907,-0.09375 -0.08203,0 -0.105468,0.035156 -0.128906,0.1054687 -0.328125,1.06640626 -0.996094,1.31250001 -1.324219,1.31250001 -0.386718,0 -0.539062,-0.328125 -0.539062,-0.65625 0,-0.22265625 0.05859,-0.44531251 0.164062,-0.87890621 z m 0,0"
         style="fill:#eb0a36;fill-opacity:1;fill-rule:nonzero;stroke:none" />
      <path
         id="path12"
         d="m 27.734531,-4.8818828 h -0.234375 c -0.02344,0.1523437 -0.08203,0.5625 -0.175781,0.6328125 -0.05859,0.035156 -0.597656,0.035156 -0.691406,0.035156 h -1.289063 c 0.738282,-0.6445312 0.984375,-0.84375 1.394532,-1.171875 0.515625,-0.4101562 0.996093,-0.84375 0.996093,-1.5 0,-0.84375 -0.738281,-1.359375 -1.628906,-1.359375 -0.867187,0 -1.453125,0.609375 -1.453125,1.2421875 0,0.3632813 0.304688,0.3984375 0.375,0.3984375 0.164063,0 0.375,-0.1171875 0.375,-0.375 0,-0.1289062 -0.05859,-0.3632812 -0.421875,-0.3632812 0.222656,-0.5039063 0.691406,-0.65625 1.019531,-0.65625 0.703125,0 1.066407,0.5507812 1.066407,1.1132812 0,0.609375 -0.433594,1.0898438 -0.65625,1.3359375 l -1.6875,1.6640625 c -0.07031,0.058594 -0.07031,0.070312 -0.07031,0.2695313 h 2.882813 z m 0,0"
         style="fill:#eb0a36;fill-opacity:1;fill-rule:nonzero;stroke:none" />
    </g>
    <path
       id="path13"
       d="M -34.01564,0 H 56.23447"
       style="fill:none;stroke:#000000;stroke-width:0.3985;stroke-linecap:butt;stroke-linejoin:miter;stroke-miterlimit:10;stroke-dasharray:none;stroke-opacity:1"
       transform="matrix(1.3333333,0,0,-1.3333333,327.77067,183.908)"
       clip-path="url(#clipPath30)" />
    <path
       id="path14"
       d="M -1.19551,1.59401 C -1.09587,0.99626 0,0.09961 0.29886,0 0,-0.09961 -1.09587,-0.99626 -1.19551,-1.59401"
       style="fill:none;stroke:#000000;stroke-width:0.31879;stroke-linecap:round;stroke-linejoin:round;stroke-miterlimit:10;stroke-dasharray:none;stroke-opacity:1"
       transform="matrix(1.3333333,0,0,-1.3333333,402.74996,183.908)"
       clip-path="url(#clipPath29)" />
    <path
       id="path15"
       d="m 3.643875,-3.2921016 c 0.070312,-0.28125 0.3164062,-1.2890625 1.078125,-1.2890625 0.058594,0 0.3164062,0 0.5507812,0.140625 -0.3046875,0.058594 -0.5273437,0.328125 -0.5273437,0.5859375 0,0.1757813 0.1171875,0.3867188 0.4101562,0.3867188 0.2460938,0 0.5976563,-0.1992188 0.5976563,-0.6328125 0,-0.5625 -0.6445313,-0.7265625 -1.0195313,-0.7265625 -0.6328125,0 -1.0195312,0.5859375 -1.1484375,0.8320312 -0.2695312,-0.7148437 -0.8554687,-0.8320312 -1.171875,-0.8320312 -1.1367187,0 -1.75781245,1.4179687 -1.75781245,1.6875 0,0.1054687 0.10546875,0.1054687 0.12890625,0.1054687 0.0820313,0 0.1171875,-0.023437 0.140625,-0.1171875 0.375,-1.1601562 1.0898437,-1.4296875 1.4648437,-1.4296875 0.2109375,0 0.5859375,0.09375 0.5859375,0.7265625 0,0.3398438 -0.1875,1.078125 -0.5859375,2.6015625 -0.1757812,0.67968754 -0.5625,1.13671879 -1.0429687,1.13671879 -0.058594,0 -0.3164063,0 -0.5390625,-0.140625 0.2695312,-0.0585938 0.515625,-0.29296875 0.515625,-0.59765625 0,-0.29296874 -0.2460938,-0.37500004 -0.41015625,-0.37500004 -0.328125,0 -0.59765625,0.28125004 -0.59765625,0.63281254 0,0.50390625 0.55078125,0.71484375 1.03125,0.71484375 0.7148437,0 1.1015625,-0.76171875 1.1367187,-0.83203125 0.1289063,0.41015625 0.5273438,0.83203125 1.1835938,0.83203125 1.125,0 1.7460937,-1.40624999 1.7460937,-1.67578129 0,-0.1054687 -0.1054687,-0.1054687 -0.1289062,-0.1054687 -0.1054688,0 -0.1289063,0.035156 -0.140625,0.1171875 -0.3632813,1.16015624 -1.1132813,1.42968749 -1.453125,1.42968749 -0.4335938,0 -0.609375,-0.3515625 -0.609375,-0.7265625 0,-0.23437499 0.070312,-0.48046879 0.1875,-0.96093749 z m 0,0"
       style="fill:#000000;fill-opacity:1;fill-rule:nonzero;stroke:none"
       aria-label="x"
       transform="matrix(1.3333333,0,0,1.3333333,399.204,195.284)"
       clip-path="url(#clipPath28)" />
    <path
       id="path16"
       d="M 0,-45.35419 V 67.57301"
       style="fill:none;stroke:#000000;stroke-width:0.3985;stroke-linecap:butt;stroke-linejoin:miter;stroke-miterlimit:10;stroke-dasharray:none;stroke-opacity:1"
       transform="matrix(1.3333333,0,0,-1.3333333,327.77067,183.908)"
       clip-path="url(#clipPath27)" />
    <path
       id="path17"
       d="M -1.19551,1.59401 C -1.09587,0.99626 0,0.09961 0.29886,0 0,-0.09961 -1.09587,-0.99626 -1.19551,-1.59401"
       style="fill:none;stroke:#000000;stroke-width:0.31879;stroke-linecap:round;stroke-linejoin:round;stroke-miterlimit:10;stroke-dasharray:none;stroke-opacity:1"
       transform="matrix(0,-1.3333333,-1.3333333,0,327.77067,93.810653)"
       clip-path="url(#clipPath26)" />
    <path
       id="path18"
       d="m 5.2968047,-4.1596797 c 0.046875,-0.1523437 0.046875,-0.1757812 0.046875,-0.2460937 0,-0.1992188 -0.1523438,-0.2929688 -0.3164063,-0.2929688 -0.1054687,0 -0.28125,0.058594 -0.375,0.2226563 -0.023437,0.058594 -0.1171875,0.3984375 -0.1523437,0.5976562 -0.082031,0.28125 -0.1523438,0.5742188 -0.2226563,0.8671875 l -0.4921875,1.96875 c -0.046875,0.16406251 -0.515625,0.92578126 -1.2304687,0.92578126 -0.5625,0 -0.6796875,-0.48046875 -0.6796875,-0.89062496 0,-0.4921875 0.1875,-1.171875 0.5625,-2.1328125 0.1757812,-0.4453125 0.2109375,-0.5742188 0.2109375,-0.7851563 0,-0.4921875 -0.3515625,-0.9023437 -0.890625,-0.9023437 -1.04296876,0 -1.44140626,1.5820312 -1.44140626,1.6875 0,0.1054687 0.10546875,0.1054687 0.12890625,0.1054687 0.10546875,0 0.1171875,-0.023437 0.17578125,-0.1992187 0.29296875,-1.0195313 0.72656246,-1.3476563 1.10156246,-1.3476563 0.09375,0 0.2695313,0 0.2695313,0.3515625 0,0.2695313 -0.1054688,0.5507813 -0.1757813,0.7617188 -0.4453125,1.1601562 -0.6328125,1.78125 -0.6328125,2.2851562 0,0.97265626 0.6796875,1.30078126 1.3242188,1.30078126 0.421875,0 0.796875,-0.1875 1.1015625,-0.4921875 -0.140625,0.57421875 -0.2695313,1.1015625 -0.703125,1.68750004 -0.2929688,0.3632812 -0.703125,0.6796875 -1.2070313,0.6796875 -0.1523437,0 -0.6445312,-0.023437 -0.83203121,-0.4570313 0.17578121,0 0.31640621,0 0.48046871,-0.1289062 0.1054688,-0.09375 0.2109375,-0.234375 0.2109375,-0.44531254 0,-0.33984375 -0.2929687,-0.38671875 -0.3984375,-0.38671875 -0.25781246,0 -0.60937496,0.17578125 -0.60937496,0.71484379 0,0.5390625 0.48046876,0.9492187 1.14843746,0.9492187 1.125,0 2.25,-0.9960937 2.5546875,-2.22656249 z m 0,0"
       style="fill:#000000;fill-opacity:1;fill-rule:nonzero;stroke:none"
       aria-label="y"
       transform="matrix(1.3333333,0,0,1.3333333,315.004,94.917333)"
       clip-path="url(#clipPath25)" />
    <path
       id="path19"
       d="m -22.6771,-45.35419 c 0,0 0.3309,1.9608 0.45798,2.69295 0.12708,0.73212 0.33088,1.88154 0.45797,2.58377 0.12707,0.70223 0.33088,1.80435 0.45796,2.47736 0.12709,0.673 0.33089,1.72881 0.45796,2.37321 0.12709,0.64441 0.33089,1.65491 0.45798,2.27132 0.12705,0.61639 0.33088,1.58229 0.45795,2.17129 0.12708,0.58902 0.33088,1.51166 0.45796,2.07392 0.12709,0.56224 0.33088,1.44227 0.45797,1.97839 0.12708,0.53613 0.33087,1.37506 0.45797,1.88567 0.12707,0.51061 0.33088,1.30879 0.45796,1.79448 0.12709,0.4857 0.33088,1.24459 0.45797,1.70607 0.12707,0.46146 0.33087,1.18209 0.45795,1.61993 0.12708,0.43782 0.33089,1.12086 0.45796,1.53564 0.12709,0.4148 0.33089,1.06145 0.45796,1.45383 0.1271,0.3924 0.33089,1.00363 0.45798,1.37426 0.12708,0.3706 0.33089,0.94743 0.45796,1.29688 0.1271,0.34948 0.33089,0.89292 0.45798,1.22182 0.12708,0.32892 0.33088,0.83981 0.45795,1.14882 0.12707,0.30898 0.33087,0.7885 0.45796,1.0782 0.12707,0.28972 0.33089,0.73885 0.45797,1.00988 0.12708,0.27104 0.33088,0.69062 0.45797,0.9436 0.12708,0.25299 0.33089,0.64418 0.45796,0.87977 0.12709,0.23558 0.33089,0.5994 0.45797,0.81818 0.12708,0.21878 0.33088,0.55609 0.45796,0.75865 0.12707,0.20259 0.33087,0.51439 0.45796,0.7014 0.12708,0.18703 0.33088,0.47447 0.45796,0.64655 0.12709,0.17209 0.33089,0.43603 0.45798,0.59378 0.12707,0.15776 0.33087,0.39918 0.45796,0.54326 0.12708,0.14409 0.33087,0.36415 0.45796,0.49517 0.12708,0.13102 0.33089,0.33059 0.45796,0.44914 0.12708,0.11857 0.33089,0.29864 0.45796,0.40536 0.12708,0.10672 0.3309,0.26834 0.45797,0.36384 0.12709,0.09552 0.33088,0.23963 0.45796,0.32459 0.12709,0.08494 0.33089,0.21274 0.45797,0.2877 0.12708,0.075 0.3309,0.18715 0.45797,0.25278 0.12707,0.06563 0.33089,0.16331 0.45796,0.22023 0.12707,0.05691 0.33089,0.14116 0.45797,0.18999 0.12707,0.04882 0.33086,0.12057 0.45796,0.16192 0.12707,0.04137 0.33088,0.10169 0.45796,0.13617 0.12709,0.03449 0.33088,0.08419 0.45796,0.11246 0.12709,0.02827 0.33089,0.06871 0.45798,0.09136 0.12707,0.02264 0.33088,0.0543 0.45796,0.07195 0.12709,0.01767 0.33088,0.04205 0.45795,0.05538 0.12709,0.01333 0.33088,0.03108 0.45797,0.04067 0.12708,0.00956 0.33089,0.0219 0.45796,0.02836 0.12708,0.00645 0.33089,0.01422 0.45797,0.01816 0.12709,0.00393 0.33088,0.00815 0.45797,0.01022 0.12708,0.00205 0.33088,0.00385 0.45796,0.00467 0.12708,8.2e-4 0.3309,0.00105 0.45797,0.00119 0.12707,1.4e-4 0.33084,-1.4e-4 0.45791,0 0.1271,1.4e-4 0.33089,4e-4 0.45798,0.00119 0.12708,7.9e-4 0.33087,0.00249 0.45796,0.0045 C 1.2641,0.0077 1.4679,0.01187 1.59499,0.01573 1.72206,0.01959 1.92587,0.0272 2.05295,0.03354 2.18004,0.03989 2.38383,0.05194 2.51093,0.06139 2.63799,0.07085 2.84181,0.08855 2.96887,0.10172 3.09596,0.11488 3.29976,0.13889 3.42683,0.15639 3.55392,0.17389 3.75772,0.20537 3.8848,0.22784 4.01189,0.2503 4.21568,0.29024 4.34277,0.31833 4.46985,0.34642 4.67366,0.396 4.80074,0.43025 4.92783,0.46454 5.13162,0.52429 5.25871,0.56538 5.38577,0.60648 5.58958,0.6779 5.71666,0.72647 5.84373,0.77502 6.04753,0.85876 6.17462,0.91539 6.3017,0.97202 6.50551,1.06927 6.63258,1.13461 6.75967,1.19994 6.96347,1.31168 7.09056,1.38634 7.21764,1.46098 7.42145,1.58809 7.54852,1.67267 7.67561,1.75726 7.87941,1.90088 8.00648,1.99603 8.13356,2.09117 8.33737,2.25217 8.46445,2.35849 8.59152,2.4648 8.79532,2.64418 8.92241,2.7623 c 0.12707,0.11812 0.33089,0.317 0.45796,0.44757 0.12709,0.13058 0.33089,0.35001 0.45798,0.49361 0.12707,0.14362 0.33087,0.38422 0.45796,0.54155 0.12708,0.15728 0.33089,0.4206 0.45796,0.59222 0.12709,0.1716 0.33089,0.45815 0.45795,0.64464 0.12709,0.18649 0.33088,0.49745 0.45798,0.69949 0.12707,0.20201 0.33088,0.53838 0.45796,0.75658 0.12709,0.21821 0.33089,0.58111 0.45796,0.8161 0.12709,0.23498 0.33088,0.62512 0.45798,0.87753 0.12707,0.25238 0.33087,0.67111 0.45796,0.94153 0.12708,0.27042 0.33089,0.7184 0.45796,1.00745 0.12708,0.28903 0.33088,0.76747 0.45796,1.07579 0.12708,0.30832 0.33088,0.81816 0.45797,1.14637 0.12707,0.32824 0.33088,0.87049 0.45796,1.21923 0.12709,0.34875 0.33089,0.92444 0.45796,1.29431 0.12709,0.36987 0.3309,0.97984 0.45798,1.37146 0.12707,0.39163 0.33088,1.03705 0.45796,1.45107 0.12707,0.41401 0.33089,1.09585 0.45795,1.53289 0.12709,0.43703 0.33088,1.15633 0.45797,1.61698 0.12708,0.46061 0.33087,1.21807 0.45797,1.70295 0.12707,0.48488 0.33088,1.28198 0.45796,1.79172 0.12709,0.50975 0.33088,1.34697 0.45797,1.8822 0.12708,0.53525 0.33087,1.4141 0.45797,1.97546 0.12706,0.56135 0.33088,1.48238 0.45794,2.07044 0.12709,0.58806 0.33089,1.55241 0.45796,2.16785 0.1271,0.61543 0.33091,1.62442 0.45798,2.26785 0.12708,0.64342 0.33089,1.69759 0.45797,2.36957 0.12709,0.67201 0.33088,1.77251 0.45795,2.47374 0.1271,0.70125 0.3309,1.84921 0.45798,2.58031 0.12708,0.73109 0.45795,2.68896 0.45795,2.68896"
       style="fill:none;stroke:#eb0a36;stroke-width:0.79701;stroke-linecap:butt;stroke-linejoin:miter;stroke-miterlimit:10;stroke-dasharray:none;stroke-opacity:1"
       transform="matrix(1.3333333,0,0,-1.3333333,327.77067,183.908)"
       clip-path="url(#clipPath24)" />
    <g
       id="g19"
       aria-label="y=x&#10;3"
       transform="matrix(1.3333333,0,0,1.3333333,369.116,142.66933)"
       clip-path="url(#clipPath23)">
      <path
         id="path20"
         d="m 4.8407344,-3.7978984 c 0.046875,-0.140625 0.046875,-0.1523438 0.046875,-0.2226563 0,-0.1875 -0.140625,-0.2695312 -0.2929688,-0.2695312 -0.1054687,0 -0.2578125,0.058594 -0.3515625,0.1992187 -0.023437,0.058594 -0.09375,0.3632813 -0.140625,0.5390625 -0.070312,0.2578125 -0.140625,0.5273438 -0.1992187,0.796875 l -0.4453125,1.79296876 c -0.035156,0.15234375 -0.46875,0.85546875 -1.125,0.85546875 -0.5039063,0 -0.6210938,-0.4453125 -0.6210938,-0.80859375 0,-0.45703126 0.1757813,-1.07812496 0.515625,-1.95703126 0.1523438,-0.4101562 0.1992188,-0.515625 0.1992188,-0.7148437 0,-0.4453125 -0.328125,-0.8203125 -0.8203125,-0.8203125 -0.94921877,0 -1.31250002,1.453125 -1.31250002,1.5351562 0,0.1054688 0.09375,0.1054688 0.1171875,0.1054688 0.09375,0 0.10546875,-0.023437 0.15234375,-0.1875 0.26953125,-0.9375 0.66796877,-1.2304688 1.00781247,-1.2304688 0.082031,0 0.2578125,0 0.2578125,0.3164063 0,0.2460937 -0.1054687,0.515625 -0.1757812,0.703125 -0.3984375,1.0546875 -0.5742188,1.6171875 -0.5742188,2.0859375 0,0.89062496 0.6210938,1.18359371 1.21875,1.18359371 0.3867188,0 0.7265625,-0.1640625 0.9960938,-0.4453125 -0.1289063,0.515625 -0.2460938,1.0078125 -0.6445313,1.53515629 -0.2578125,0.3398437 -0.6328125,0.6328125 -1.0898437,0.6328125 -0.140625,0 -0.59765627,-0.035156 -0.76171877,-0.421875 0.1640625,0 0.29296877,0 0.43359377,-0.1171875 0.09375,-0.09375 0.1992187,-0.2226563 0.1992187,-0.41015629 0,-0.31640625 -0.2695312,-0.3515625 -0.375,-0.3515625 -0.22265622,0 -0.55078122,0.1640625 -0.55078122,0.64453129 0,0.5039062 0.43359375,0.8671875 1.05468752,0.8671875 1.0195312,0 2.0507812,-0.9023438 2.3320312,-2.02734379 z m 0,0"
         style="fill:#eb0a36;fill-opacity:1;fill-rule:nonzero;stroke:none" />
      <path
         id="path21"
         d="m 14.857336,-3.2588359 c 0.152344,0 0.339844,0 0.339844,-0.1992188 0,-0.1992187 -0.1875,-0.1992187 -0.328125,-0.1992187 H 8.9042109 c -0.140625,0 -0.328125,0 -0.328125,0.1992187 0,0.1992188 0.1875,0.1992188 0.3398438,0.1992188 z m 0.01172,1.9335937 c 0.140625,0 0.328125,0 0.328125,-0.1992187 0,-0.1992188 -0.1875,-0.1992188 -0.339844,-0.1992188 H 8.9159297 c -0.1523438,0 -0.3398438,0 -0.3398438,0.1992188 0,0.1992187 0.1875,0.1992187 0.328125,0.1992187 z m 0,0"
         style="fill:#eb0a36;fill-opacity:1;fill-rule:nonzero;stroke:none" />
      <path
         id="path22"
         d="m 21.8505,-3.0127422 c 0.05859,-0.2578125 0.292969,-1.171875 0.984375,-1.171875 0.04687,0 0.292969,0 0.503906,0.1289063 -0.28125,0.046875 -0.480468,0.3046875 -0.480468,0.5390625 0,0.1640625 0.105468,0.3515625 0.375,0.3515625 0.222656,0 0.539062,-0.1875 0.539062,-0.5859375 0,-0.515625 -0.585937,-0.65625 -0.925781,-0.65625 -0.574219,0 -0.925781,0.5273437 -1.042969,0.7617187 -0.257812,-0.65625 -0.785156,-0.7617187 -1.078125,-0.7617187 -1.042969,0 -1.605469,1.2890625 -1.605469,1.5351562 0,0.1054688 0.105469,0.1054688 0.117188,0.1054688 0.08203,0 0.117187,-0.023437 0.128906,-0.1171875 0.339844,-1.0546875 0.996094,-1.3007813 1.335938,-1.3007813 0.1875,0 0.539062,0.09375 0.539062,0.6679688 0,0.3046875 -0.164062,0.9726562 -0.539062,2.3671875 -0.152344,0.62109371 -0.503907,1.04296871 -0.949219,1.04296871 -0.05859,0 -0.28125,0 -0.492188,-0.12890625 0.246094,-0.0585938 0.46875,-0.26953125 0.46875,-0.5390625 0,-0.26953126 -0.222656,-0.35156246 -0.375,-0.35156246 -0.292968,0 -0.539062,0.25781246 -0.539062,0.57421871 0,0.45703125 0.492187,0.65625 0.9375,0.65625 0.65625,0 1.007812,-0.69140625 1.042969,-0.75 0.117187,0.36328125 0.480468,0.75 1.078125,0.75 1.019531,0 1.59375,-1.27734371 1.59375,-1.53515621 0,-0.09375 -0.09375,-0.09375 -0.128907,-0.09375 -0.08203,0 -0.105468,0.035156 -0.128906,0.1054687 -0.328125,1.06640626 -0.996094,1.31250001 -1.324219,1.31250001 -0.386718,0 -0.539062,-0.328125 -0.539062,-0.65625 0,-0.22265625 0.05859,-0.44531251 0.164062,-0.87890621 z m 0,0"
         style="fill:#eb0a36;fill-opacity:1;fill-rule:nonzero;stroke:none" />
      <path
         id="path23"
         d="m 26.119055,-5.9482891 c 0.550781,0 0.9375,0.375 0.9375,1.125 0,0.8671875 -0.503907,1.125 -0.902344,1.125 -0.28125,0 -0.890625,-0.082031 -1.183594,-0.4921875 0.328125,-0.011719 0.398438,-0.2460937 0.398438,-0.3867187 0,-0.2226563 -0.164063,-0.3867188 -0.386719,-0.3867188 -0.1875,0 -0.386719,0.1171875 -0.386719,0.4101563 0,0.65625 0.726563,1.078125 1.570313,1.078125 0.972656,0 1.640625,-0.6445313 1.640625,-1.3476563 0,-0.5390625 -0.445313,-1.0898437 -1.21875,-1.2421875 0.738281,-0.2695312 0.996093,-0.796875 0.996093,-1.21875 0,-0.5507812 -0.632812,-0.9609375 -1.40625,-0.9609375 -0.773437,0 -1.359375,0.375 -1.359375,0.9375 0,0.234375 0.152344,0.3632813 0.363282,0.3632813 0.210937,0 0.351562,-0.1640625 0.351562,-0.3515625 0,-0.1992188 -0.140625,-0.3515625 -0.351562,-0.3632813 0.234375,-0.3046875 0.714843,-0.3867187 0.972656,-0.3867187 0.316406,0 0.761719,0.1523437 0.761719,0.7617187 0,0.2929688 -0.105469,0.609375 -0.28125,0.8320313 -0.234375,0.2578125 -0.421875,0.28125 -0.773438,0.2929687 -0.175781,0.023437 -0.1875,0.023437 -0.222656,0.023437 -0.01172,0 -0.07031,0.011719 -0.07031,0.09375 0,0.09375 0.05859,0.09375 0.175782,0.09375 z m 0,0"
         style="fill:#eb0a36;fill-opacity:1;fill-rule:nonzero;stroke:none" />
    </g>
  </g>
</svg>
