<?xml version="1.0" encoding="UTF-8" standalone="no"?>
<!-- Created with Inkscape (http://www.inkscape.org/) -->

<svg
   version="1.1"
   id="svg1"
   width="298.31882"
   height="102.98809"
   viewBox="0 0 298.31882 102.98809"
   sodipodi:docname="4.1-coseno.svg"
   inkscape:version="1.4.2 (f4327f4, 2025-05-13)"
   xmlns:inkscape="http://www.inkscape.org/namespaces/inkscape"
   xmlns:sodipodi="http://sodipodi.sourceforge.net/DTD/sodipodi-0.dtd"
   xmlns="http://www.w3.org/2000/svg"
   xmlns:svg="http://www.w3.org/2000/svg">
  <defs
     id="defs1" />
  <sodipodi:namedview
     id="namedview1"
     pagecolor="#ffffff"
     bordercolor="#000000"
     borderopacity="0.25"
     inkscape:showpageshadow="2"
     inkscape:pageopacity="0.0"
     inkscape:pagecheckerboard="0"
     inkscape:deskcolor="#d1d1d1"
     inkscape:zoom="2.2241536"
     inkscape:cx="152.19273"
     inkscape:cy="73.51111"
     inkscape:window-width="1920"
     inkscape:window-height="1009"
     inkscape:window-x="-8"
     inkscape:window-y="-8"
     inkscape:window-maximized="1"
     inkscape:current-layer="g1">
    <inkscape:page
       x="0"
       y="0"
       inkscape:label="36"
       id="page1"
       width="298.31882"
       height="102.98809"
       margin="0"
       bleed="0" />
  </sodipodi:namedview>
  <g
     id="g1"
     inkscape:groupmode="layer"
     inkscape:label="36"
     transform="translate(-90.118683,-107.69922)">
    <path
       id="path2"
       d="M -73.70099,0 H 146.94373"
       style="fill:none;stroke:#000000;stroke-width:0.3985;stroke-linecap:butt;stroke-linejoin:miter;stroke-miterlimit:10;stroke-dasharray:none;stroke-opacity:1"
       transform="matrix(1.3333333,0,0,-1.3333333,188.38667,161.55333)" />
    <path
       id="path3"
       d="M -1.19551,1.59401 C -1.09587,0.99626 0,0.09961 0.29886,0 0,-0.09961 -1.09587,-0.99626 -1.19551,-1.59401"
       style="fill:none;stroke:#000000;stroke-width:0.31879;stroke-linecap:round;stroke-linejoin:round;stroke-miterlimit:10;stroke-dasharray:none;stroke-opacity:1"
       transform="matrix(1.3333333,0,0,-1.3333333,384.31164,161.55333)" />
    <path
       id="path4"
       d="m 3.64575,-3.2927031 c 0.070312,-0.28125 0.3164063,-1.2890625 1.078125,-1.2890625 0.058594,0 0.3164063,0 0.5507813,0.140625 -0.3046875,0.058594 -0.5273438,0.328125 -0.5273438,0.5859375 0,0.1757812 0.1171875,0.3867187 0.4101563,0.3867187 0.2460937,0 0.5976562,-0.1992187 0.5976562,-0.6328125 0,-0.5625 -0.6445312,-0.7265625 -1.0195312,-0.7265625 -0.6328125,0 -1.0195313,0.5859375 -1.1484375,0.8320313 -0.2695313,-0.7148438 -0.8554688,-0.8320313 -1.171875,-0.8320313 -1.1367188,0 -1.75781255,1.4179688 -1.75781255,1.6875 0,0.1054688 0.10546875,0.1054688 0.12890625,0.1054688 0.0820313,0 0.1171875,-0.023437 0.140625,-0.1171875 0.375,-1.1601563 1.0898438,-1.4296875 1.4648438,-1.4296875 0.2109375,0 0.5859375,0.09375 0.5859375,0.7265625 0,0.3398437 -0.1875,1.078125 -0.5859375,2.6015625 -0.1757813,0.67968747 -0.5625,1.13671872 -1.0429688,1.13671872 -0.058594,0 -0.3164062,0 -0.5390625,-0.140625 0.2695313,-0.0585938 0.515625,-0.29296875 0.515625,-0.59765625 0,-0.29296877 -0.2460937,-0.37499997 -0.41015625,-0.37499997 -0.328125,0 -0.59765625,0.28124997 -0.59765625,0.63281247 0,0.50390625 0.55078125,0.71484375 1.03125,0.71484375 0.7148438,0 1.1015625,-0.76171875 1.1367188,-0.83203125 0.1289062,0.41015625 0.5273437,0.83203125 1.1835937,0.83203125 1.125,0 1.7460938,-1.40625002 1.7460938,-1.67578122 0,-0.1054688 -0.1054688,-0.1054688 -0.1289063,-0.1054688 -0.1054687,0 -0.1289062,0.035156 -0.140625,0.1171875 -0.3632812,1.16015627 -1.1132812,1.42968752 -1.453125,1.42968752 -0.4335937,0 -0.609375,-0.3515625 -0.609375,-0.7265625 0,-0.23437502 0.070312,-0.48046872 0.1875,-0.96093752 z m 0,0"
       style="fill:#000000;fill-opacity:1;fill-rule:nonzero;stroke:none"
       aria-label="x"
       transform="matrix(1.3333333,0,0,1.3333333,380.764,172.92933)" />
    <path
       id="path5"
       d="M -57.85526,-1.84262 V 1.84262"
       style="fill:none;stroke:#000000;stroke-width:0.3985;stroke-linecap:butt;stroke-linejoin:miter;stroke-miterlimit:10;stroke-dasharray:none;stroke-opacity:1"
       transform="matrix(1.3333333,0,0,-1.3333333,188.38667,161.55333)" />
    <path
       id="path6"
       d="M -28.92776,-1.84262 V 1.84262"
       style="fill:none;stroke:#000000;stroke-width:0.3985;stroke-linecap:butt;stroke-linejoin:miter;stroke-miterlimit:10;stroke-dasharray:none;stroke-opacity:1"
       transform="matrix(1.3333333,0,0,-1.3333333,188.38667,161.55333)" />
    <path
       id="path7"
       d="M 28.92776,-1.84262 V 1.84262"
       style="fill:none;stroke:#000000;stroke-width:0.3985;stroke-linecap:butt;stroke-linejoin:miter;stroke-miterlimit:10;stroke-dasharray:none;stroke-opacity:1"
       transform="matrix(1.3333333,0,0,-1.3333333,188.38667,161.55333)" />
    <path
       id="path8"
       d="M 57.85526,-1.84262 V 1.84262"
       style="fill:none;stroke:#000000;stroke-width:0.3985;stroke-linecap:butt;stroke-linejoin:miter;stroke-miterlimit:10;stroke-dasharray:none;stroke-opacity:1"
       transform="matrix(1.3333333,0,0,-1.3333333,188.38667,161.55333)" />
    <path
       id="path9"
       d="M 86.78304,-1.84262 V 1.84262"
       style="fill:none;stroke:#000000;stroke-width:0.3985;stroke-linecap:butt;stroke-linejoin:miter;stroke-miterlimit:10;stroke-dasharray:none;stroke-opacity:1"
       transform="matrix(1.3333333,0,0,-1.3333333,188.38667,161.55333)" />
    <path
       id="path10"
       d="M 115.71056,-1.84262 V 1.84262"
       style="fill:none;stroke:#000000;stroke-width:0.3985;stroke-linecap:butt;stroke-linejoin:miter;stroke-miterlimit:10;stroke-dasharray:none;stroke-opacity:1"
       transform="matrix(1.3333333,0,0,-1.3333333,188.38667,161.55333)" />
    <path
       id="path11"
       d="M 0,-36.85048 V 36.39221"
       style="fill:none;stroke:#000000;stroke-width:0.3985;stroke-linecap:butt;stroke-linejoin:miter;stroke-miterlimit:10;stroke-dasharray:none;stroke-opacity:1"
       transform="matrix(1.3333333,0,0,-1.3333333,188.38667,161.55333)" />
    <path
       id="path12"
       d="M -1.19551,1.59401 C -1.09587,0.99626 0,0.09961 0.29886,0 0,-0.09961 -1.09587,-0.99626 -1.19551,-1.59401"
       style="fill:none;stroke:#000000;stroke-width:0.31879;stroke-linecap:round;stroke-linejoin:round;stroke-miterlimit:10;stroke-dasharray:none;stroke-opacity:1"
       transform="matrix(0,-1.3333333,-1.3333333,0,188.38667,113.03039)" />
    <path
       id="path13"
       d="m 5.2976953,-4.1606172 c 0.046875,-0.1523437 0.046875,-0.1757812 0.046875,-0.2460937 0,-0.1992188 -0.1523437,-0.2929688 -0.3164062,-0.2929688 -0.1054688,0 -0.28125,0.058594 -0.375,0.2226563 -0.023437,0.058594 -0.1171875,0.3984375 -0.1523438,0.5976562 -0.082031,0.28125 -0.1523437,0.5742188 -0.2226562,0.8671875 l -0.4921875,1.96875 c -0.046875,0.16406251 -0.515625,0.92578126 -1.2304688,0.92578126 -0.5625,0 -0.6796875,-0.48046875 -0.6796875,-0.89062496 0,-0.4921875 0.1875,-1.171875 0.5625,-2.1328125 0.1757813,-0.4453125 0.2109375,-0.5742188 0.2109375,-0.7851563 0,-0.4921875 -0.3515625,-0.9023437 -0.890625,-0.9023437 -1.04296874,0 -1.44140624,1.5820312 -1.44140624,1.6875 0,0.1054687 0.10546875,0.1054687 0.12890625,0.1054687 0.10546875,0 0.1171875,-0.023437 0.17578125,-0.1992187 0.29296875,-1.0195313 0.72656254,-1.3476563 1.10156254,-1.3476563 0.09375,0 0.2695312,0 0.2695312,0.3515625 0,0.2695313 -0.1054687,0.5507813 -0.1757812,0.7617188 -0.4453125,1.1601562 -0.6328125,1.78125 -0.6328125,2.2851562 0,0.97265626 0.6796875,1.30078126 1.3242187,1.30078126 0.421875,0 0.796875,-0.1875 1.1015625,-0.4921875 -0.140625,0.57421875 -0.2695312,1.1015625 -0.703125,1.68750004 -0.2929687,0.3632812 -0.703125,0.6796875 -1.2070312,0.6796875 -0.1523438,0 -0.6445313,-0.023437 -0.83203129,-0.4570313 0.17578129,0 0.31640629,0 0.48046879,-0.1289062 0.1054687,-0.09375 0.2109375,-0.234375 0.2109375,-0.44531254 0,-0.33984375 -0.2929688,-0.38671875 -0.3984375,-0.38671875 -0.25781254,0 -0.60937504,0.17578125 -0.60937504,0.71484379 0,0.5390625 0.48046874,0.9492187 1.14843754,0.9492187 1.125,0 2.25,-0.9960937 2.5546875,-2.22656249 z m 0,0"
       style="fill:#000000;fill-opacity:1;fill-rule:nonzero;stroke:none"
       aria-label="y"
       transform="matrix(1.3333333,0,0,1.3333333,175.62,114.13733)" />
    <path
       id="path14"
       d="m 2.6365938,-3.7138047 h 1.125 c -0.328125,1.4765625 -0.4101563,1.8984375 -0.4101563,2.5664063 0,0.15234371 0,0.42187496 0.070312,0.76171871 0.1054688,0.43359375 0.2109375,0.4921875 0.3632813,0.4921875 0.1992187,0 0.4101562,-0.17578125 0.4101562,-0.375 0,-0.0585938 0,-0.0820313 -0.058594,-0.22265625 C 3.843625,-1.2059922 3.843625,-1.8505234 3.843625,-2.1317734 c 0,-0.5273438 0.070312,-1.0664063 0.1757813,-1.5820313 H 5.156125 c 0.1289063,0 0.4921875,0 0.4921875,-0.3398437 0,-0.234375 -0.2109375,-0.234375 -0.3984375,-0.234375 H 1.9100313 c -0.2109375,0 -0.5976563,0 -1.03125005,0.46875 -0.3515625,0.3867187 -0.609375,0.84375 -0.609375,0.890625 0,0.011719 0,0.1054687 0.1171875,0.1054687 0.0820313,0 0.10546875,-0.046875 0.1640625,-0.1289062 C 1.031125,-3.7138047 1.6170625,-3.7138047 1.8162813,-3.7138047 h 0.5625 c -0.3164063,1.2070313 -0.8554688,2.4140625 -1.2773438,3.31640626 -0.070312,0.15234375 -0.070312,0.1640625 -0.070312,0.234375 0,0.19921875 0.1523438,0.26953125 0.28125,0.26953125 0.3046875,0 0.3867188,-0.26953125 0.5039063,-0.64453125 0.140625,-0.45703125 0.140625,-0.48046876 0.2695312,-0.97265626 z m 0,0"
       style="fill:#000000;fill-opacity:1;fill-rule:nonzero;stroke:none"
       aria-label="π"
       transform="matrix(1.3333333,0,0,1.3333333,258.06267,172.38533)" />
    <g
       id="g14"
       aria-label="−π"
       transform="matrix(1.3333333,0,0,1.3333333,95.670667,174.41467)">
      <path
         id="path15"
         d="m 6.5634063,-2.2973281 c 0.1757812,0 0.3515625,0 0.3515625,-0.1992188 0,-0.1992187 -0.1757813,-0.1992187 -0.3515625,-0.1992187 h -5.390625 c -0.1640625,0 -0.3398438,0 -0.3398438,0.1992187 0,0.1992188 0.1757813,0.1992188 0.3398438,0.1992188 z m 0,0"
         style="fill:#000000;fill-opacity:1;fill-rule:nonzero;stroke:none" />
      <path
         id="path16"
         d="m 10.386648,-3.7152969 h 1.125 c -0.328125,1.4765625 -0.410156,1.8984375 -0.410156,2.5664063 0,0.15234373 0,0.42187498 0.07031,0.76171873 0.105468,0.43359375 0.210937,0.4921875 0.363281,0.4921875 0.199219,0 0.410156,-0.17578125 0.410156,-0.375 0,-0.0585938 0,-0.0820313 -0.05859,-0.22265625 C 11.59368,-1.2074844 11.59368,-1.8520156 11.59368,-2.1332656 c 0,-0.5273438 0.07031,-1.0664063 0.175781,-1.5820313 h 1.136719 c 0.128906,0 0.492187,0 0.492187,-0.3398437 0,-0.234375 -0.210937,-0.234375 -0.398437,-0.234375 H 9.6600859 c -0.2109375,0 -0.5976562,0 -1.03125,0.46875 -0.3515625,0.3867187 -0.609375,0.84375 -0.609375,0.890625 0,0.011719 0,0.1054687 0.1171875,0.1054687 0.082031,0 0.1054688,-0.046875 0.1640625,-0.1289062 0.4804688,-0.7617188 1.0664063,-0.7617188 1.265625,-0.7617188 h 0.5625001 c -0.3164063,1.2070313 -0.8554688,2.4140625 -1.2773438,3.31640628 -0.070312,0.15234375 -0.070312,0.1640625 -0.070312,0.234375 0,0.19921875 0.1523437,0.26953125 0.28125,0.26953125 0.3046875,0 0.3867187,-0.26953125 0.5039062,-0.64453125 0.140625,-0.45703125 0.140625,-0.48046878 0.2695313,-0.97265628 z m 0,0"
         style="fill:#000000;fill-opacity:1;fill-rule:nonzero;stroke:none" />
    </g>
    <g
       id="g16"
       aria-label="−&#10;π"
       transform="matrix(1.3333333,0,0,1.3333333,141.504,175.9)">
      <path
         id="path17"
         d="m 6.5624297,-2.2980469 c 0.1757812,0 0.3515625,0 0.3515625,-0.1992187 0,-0.1992188 -0.1757813,-0.1992188 -0.3515625,-0.1992188 h -5.390625 c -0.1640625,0 -0.33984376,0 -0.33984376,0.1992188 0,0.1992187 0.17578126,0.1992187 0.33984376,0.1992187 z m 0,0"
         style="fill:#000000;fill-opacity:1;fill-rule:nonzero;stroke:none" />
      <path
         id="path18"
         d="m 11.112234,-6.4552734 h 0.832032 c -0.105469,0.421875 -0.257813,1.0546875 -0.257813,1.6054687 0,0.28125 0.03516,0.46875 0.07031,0.6210938 0.117187,0.3515625 0.210937,0.375 0.316406,0.375 0.164062,0 0.328125,-0.1523438 0.328125,-0.3164063 0,-0.058594 -0.01172,-0.082031 -0.05859,-0.1523437 -0.128906,-0.2578125 -0.257812,-0.65625 -0.257812,-1.2304688 0,-0.1289062 0,-0.4101562 0.105468,-0.9023437 h 0.867188 c 0.128906,0 0.1875,0 0.257812,-0.058594 0.09375,-0.070312 0.117188,-0.1757812 0.117188,-0.2109375 0,-0.1992187 -0.175781,-0.1992187 -0.292969,-0.1992187 H 10.50286 c -0.28125,0 -0.480468,0.058594 -0.7968746,0.3515625 -0.1757813,0.1640625 -0.4453125,0.5390625 -0.4453125,0.5976562 0,0.082031 0.09375,0.082031 0.1171875,0.082031 0.070312,0 0.082031,-0.011719 0.1289062,-0.070312 0.3515625,-0.4921875 0.7851564,-0.4921875 0.9375004,-0.4921875 h 0.421875 c -0.210938,0.7617187 -0.585938,1.59375 -0.796875,2.0039062 -0.04687,0.09375 -0.1171879,0.2460938 -0.1406254,0.2695313 0,0.023437 -0.011719,0.058594 -0.011719,0.1054687 0,0.1054688 0.082031,0.2226563 0.2460944,0.2226563 0.269531,0 0.351562,-0.3164063 0.515625,-0.9375 z m 0,0"
         style="fill:#000000;fill-opacity:1;fill-rule:nonzero;stroke:none" />
    </g>
    <path
       id="path19"
       d="M 0,0 H 4.909"
       style="fill:none;stroke:#000000;stroke-width:0.398;stroke-linecap:butt;stroke-linejoin:miter;stroke-miterlimit:10;stroke-dasharray:none;stroke-opacity:1"
       transform="matrix(1.3333333,0,0,-1.3333333,153.43067,172.57867)" />
    <path
       id="path20"
       d="m 3.5156406,-1.2662734 h -0.234375 c -0.023437,0.1523437 -0.082031,0.56249996 -0.1757812,0.63281246 -0.058594,0.0351563 -0.5976563,0.0351563 -0.6914063,0.0351563 H 1.1250156 c 0.7382813,-0.64453116 0.984375,-0.84374996 1.3945313,-1.17187496 0.515625,-0.4101562 0.9960937,-0.84375 0.9960937,-1.5 0,-0.84375 -0.7382812,-1.359375 -1.6289062,-1.359375 -0.8671875,0 -1.45312503,0.609375 -1.45312503,1.2421875 0,0.3632813 0.3046875,0.3984375 0.375,0.3984375 0.1640625,0 0.37500003,-0.1171875 0.37500003,-0.375 0,-0.1289062 -0.058594,-0.3632812 -0.42187503,-0.3632812 0.22265625,-0.5039063 0.69140623,-0.65625 1.01953123,-0.65625 0.703125,0 1.0664063,0.5507812 1.0664063,1.1132812 0,0.609375 -0.4335938,1.0898438 -0.65625,1.3359375 l -1.68750003,1.66406246 c -0.0703125,0.0585937 -0.0703125,0.0703125 -0.0703125,0.2695312525 H 3.3164219 Z m 0,0"
       style="fill:#000000;fill-opacity:1;fill-rule:nonzero;stroke:none"
       aria-label="2"
       transform="matrix(1.3333333,0,0,1.3333333,154.05467,180.48133)" />
    <path
       id="path21"
       d="m 2.1686016,-2.5303437 h 0.8320312 c -0.1054687,0.421875 -0.2578125,1.0546875 -0.2578125,1.6054687 0,0.28125 0.035156,0.46875 0.070312,0.62109375 0.1171875,0.3515625 0.2109375,0.375 0.3164063,0.375 0.1640625,0 0.328125,-0.15234375 0.328125,-0.31640625 0,-0.0585938 -0.011719,-0.0820313 -0.058594,-0.15234375 C 3.2701641,-0.65534375 3.1412578,-1.0537812 3.1412578,-1.628 c 0,-0.1289062 0,-0.4101562 0.1054688,-0.9023437 h 0.8671875 c 0.1289062,0 0.1875,0 0.2578125,-0.058594 0.09375,-0.070312 0.1171875,-0.1757812 0.1171875,-0.2109375 0,-0.1992187 -0.1757813,-0.1992187 -0.2929688,-0.1992187 H 1.5592266 c -0.28125,0 -0.4804688,0.058594 -0.79687504,0.3515625 -0.17578125,0.1640625 -0.4453125,0.5390625 -0.4453125,0.5976562 0,0.082031 0.09375,0.082031 0.1171875,0.082031 0.0703125,0 0.0820313,-0.011719 0.12890625,-0.070312 0.3515625,-0.4921875 0.78515629,-0.4921875 0.93749999,-0.4921875 h 0.421875 c -0.2109375,0.7617187 -0.5859375,1.59374995 -0.796875,2.0039062 -0.046875,0.09375 -0.1171875,0.24609375 -0.14062499,0.26953125 0,0.0234375 -0.0117188,0.0585938 -0.0117188,0.10546875 0,0.10546875 0.0820312,0.22265625 0.24609369,0.22265625 0.2695313,0 0.3515625,-0.31640625 0.515625,-0.9375 z m 0,0"
       style="fill:#000000;fill-opacity:1;fill-rule:nonzero;stroke:none"
       aria-label="π"
       transform="matrix(1.3333333,0,0,1.3333333,221.964,170.67067)" />
    <path
       id="path22"
       d="M 0,0 H 4.909"
       style="fill:none;stroke:#000000;stroke-width:0.398;stroke-linecap:butt;stroke-linejoin:miter;stroke-miterlimit:10;stroke-dasharray:none;stroke-opacity:1"
       transform="matrix(1.3333333,0,0,-1.3333333,221.964,172.57867)" />
    <path
       id="path23"
       d="m 3.5160078,-1.2662734 h -0.234375 c -0.023437,0.1523437 -0.082031,0.56249996 -0.1757812,0.63281246 -0.058594,0.0351563 -0.5976563,0.0351563 -0.6914063,0.0351563 H 1.1253828 c 0.7382813,-0.64453116 0.984375,-0.84374996 1.3945313,-1.17187496 0.515625,-0.4101562 0.9960937,-0.84375 0.9960937,-1.5 0,-0.84375 -0.7382812,-1.359375 -1.6289062,-1.359375 -0.8671875,0 -1.45312504,0.609375 -1.45312504,1.2421875 0,0.3632813 0.3046875,0.3984375 0.375,0.3984375 0.1640625,0 0.37500004,-0.1171875 0.37500004,-0.375 0,-0.1289062 -0.058594,-0.3632812 -0.42187504,-0.3632812 0.22265625,-0.5039063 0.69140624,-0.65625 1.01953124,-0.65625 0.703125,0 1.0664063,0.5507812 1.0664063,1.1132812 0,0.609375 -0.4335938,1.0898438 -0.65625,1.3359375 l -1.68750004,1.66406246 c -0.0703125,0.0585937 -0.0703125,0.0703125 -0.0703125,0.2695312525 H 3.3167891 Z m 0,0"
       style="fill:#000000;fill-opacity:1;fill-rule:nonzero;stroke:none"
       aria-label="2"
       transform="matrix(1.3333333,0,0,1.3333333,222.58933,180.48133)" />
    <g
       id="g23"
       aria-label="3π"
       transform="matrix(1.3333333,0,0,1.3333333,295.47333,172.65867)">
      <path
         id="path24"
         d="m 1.8979297,-2.3309141 c 0.5507812,0 0.9375,0.375 0.9375,1.125 0,0.86718754 -0.5039063,1.12500004 -0.9023438,1.12500004 -0.28125,0 -0.890625,-0.08203125 -1.18359371,-0.4921875 0.32812501,-0.0117188 0.39843751,-0.24609375 0.39843751,-0.38671875 0,-0.22265629 -0.16406251,-0.38671879 -0.38671876,-0.38671879 -0.1875,0 -0.38671875,0.1171875 -0.38671875,0.41015629 0,0.65625 0.72656251,1.078125 1.57031251,1.078125 0.9726562,0 1.640625,-0.64453125 1.640625,-1.34765629 0,-0.5390625 -0.4453125,-1.0898437 -1.21875,-1.2421875 0.7382812,-0.2695312 0.9960937,-0.796875 0.9960937,-1.21875 0,-0.5507812 -0.6328125,-0.9609375 -1.40625,-0.9609375 -0.7734375,0 -1.35937496,0.375 -1.35937496,0.9375 0,0.234375 0.15234375,0.3632813 0.36328125,0.3632813 0.21093751,0 0.35156251,-0.1640625 0.35156251,-0.3515625 0,-0.1992188 -0.140625,-0.3515625 -0.35156251,-0.3632813 0.23437501,-0.3046875 0.71484371,-0.3867187 0.97265621,-0.3867187 0.3164063,0 0.7617188,0.1523437 0.7617188,0.7617187 0,0.2929688 -0.1054688,0.609375 -0.28125,0.8320313 -0.234375,0.2578125 -0.421875,0.28125 -0.7734375,0.2929687 -0.1757813,0.023437 -0.1875,0.023437 -0.2226563,0.023437 -0.011719,0 -0.070312,0.011719 -0.070312,0.09375 0,0.09375 0.058594,0.09375 0.1757813,0.09375 z m 0,0"
         style="fill:#000000;fill-opacity:1;fill-rule:nonzero;stroke:none" />
      <path
         id="path25"
         d="m 6.1401172,-2.5301328 h 0.8320312 c -0.1054687,0.421875 -0.2578125,1.0546875 -0.2578125,1.60546874 0,0.28125 0.035156,0.46875 0.070312,0.62109375 0.1171875,0.3515625 0.2109375,0.375 0.3164063,0.375 0.1640625,0 0.328125,-0.15234375 0.328125,-0.31640625 0,-0.0585938 -0.011719,-0.0820313 -0.058594,-0.15234375 C 7.241679,-0.65513281 7.1127727,-1.0535703 7.1127727,-1.6277891 c 0,-0.1289062 0,-0.4101562 0.1054688,-0.9023437 H 8.085429 c 0.1289062,0 0.1875,0 0.2578125,-0.058594 0.09375,-0.070312 0.1171875,-0.1757812 0.1171875,-0.2109375 0,-0.1992187 -0.1757813,-0.1992187 -0.2929688,-0.1992187 h -2.636718 c -0.28125,0 -0.4804688,0.058594 -0.796875,0.3515625 -0.1757813,0.1640625 -0.4453125,0.5390625 -0.4453125,0.5976562 0,0.082031 0.09375,0.082031 0.1171875,0.082031 0.070312,0 0.082031,-0.011719 0.1289062,-0.070312 0.3515625,-0.4921875 0.7851563,-0.4921875 0.9375,-0.4921875 h 0.421875 c -0.2109375,0.7617187 -0.5859375,1.59374999 -0.796875,2.00390624 -0.046875,0.09375 -0.1171875,0.24609375 -0.140625,0.26953125 0,0.0234375 -0.011719,0.0585938 -0.011719,0.10546875 0,0.10546875 0.082031,0.22265625 0.2460937,0.22265625 0.2695313,0 0.3515625,-0.31640625 0.515625,-0.9375 z m 0,0"
         style="fill:#000000;fill-opacity:1;fill-rule:nonzero;stroke:none" />
    </g>
    <path
       id="path26"
       d="M 0,0 H 8.88"
       style="fill:none;stroke:#000000;stroke-width:0.398;stroke-linecap:butt;stroke-linejoin:miter;stroke-miterlimit:10;stroke-dasharray:none;stroke-opacity:1"
       transform="matrix(1.3333333,0,0,-1.3333333,295.47333,174.568)" />
    <path
       id="path27"
       d="m 3.5151953,-1.2660625 h -0.234375 c -0.023437,0.1523438 -0.082031,0.5625 -0.1757812,0.6328125 -0.058594,0.0351563 -0.5976563,0.0351563 -0.6914063,0.0351563 H 1.1245703 c 0.7382813,-0.6445313 0.984375,-0.84375 1.3945313,-1.171875 0.515625,-0.4101563 0.9960937,-0.84375 0.9960937,-1.5 0,-0.84375 -0.7382812,-1.359375 -1.6289062,-1.359375 -0.8671875,0 -1.45312504,0.609375 -1.45312504,1.2421875 0,0.3632812 0.3046875,0.3984375 0.375,0.3984375 0.1640625,0 0.37500004,-0.1171875 0.37500004,-0.375 0,-0.1289063 -0.058594,-0.3632813 -0.42187504,-0.3632813 0.22265625,-0.5039062 0.69140624,-0.65625 1.01953124,-0.65625 0.703125,0 1.0664063,0.5507813 1.0664063,1.1132813 0,0.609375 -0.4335938,1.0898437 -0.65625,1.3359375 l -1.68750004,1.66406245 c -0.0703125,0.0585937 -0.0703125,0.0703125 -0.0703125,0.26953125 H 3.3159766 Z m 0,0"
       style="fill:#000000;fill-opacity:1;fill-rule:nonzero;stroke:none"
       aria-label="2"
       transform="matrix(1.3333333,0,0,1.3333333,298.74667,182.46933)" />
    <g
       id="g27"
       aria-label="2π"
       transform="matrix(1.3333333,0,0,1.3333333,338.268,175.22667)">
      <path
         id="path28"
         d="M 1.2667734,-0.76179687 2.3214609,-1.7930469 c 1.5585938,-1.3710937 2.15625,-1.9101562 2.15625,-2.90625 0,-1.1367187 -0.9023437,-1.9335937 -2.1210937,-1.9335937 -1.125,0 -1.85156251,0.9140625 -1.85156251,1.8046875 0,0.5507812 0.4921875,0.5507812 0.52734371,0.5507812 0.1640625,0 0.515625,-0.1171875 0.515625,-0.5273437 0,-0.2578125 -0.1875,-0.515625 -0.5273437,-0.515625 -0.0820313,0 -0.10546876,0 -0.12890626,0.011719 0.22265626,-0.6445312 0.76171876,-1.0195312 1.33593746,-1.0195312 0.9140625,0 1.3359375,0.8085937 1.3359375,1.6289062 0,0.796875 -0.4921875,1.5820313 -1.0429687,2.203125 L 0.61052344,-0.36335937 C 0.50505469,-0.25789062 0.50505469,-0.23445312 0.50505469,-7.8125e-5 H 4.1964609 L 4.4777109,-1.7344531 H 4.2198984 c -0.046875,0.3046875 -0.1171875,0.73828123 -0.2109375,0.89062498 -0.070312,0.0820313 -0.7265625,0.0820313 -0.9492187,0.0820313 z m 0,0"
         style="fill:#000000;fill-opacity:1;fill-rule:nonzero;stroke:none" />
      <path
         id="path29"
         d="m 7.6183359,-3.7149219 h 1.125 c -0.328125,1.4765625 -0.4101562,1.8984375 -0.4101562,2.5664063 0,0.15234373 0,0.42187498 0.070312,0.76171873 0.1054687,0.43359375 0.2109375,0.4921875 0.3632812,0.4921875 0.1992188,0 0.4101563,-0.17578125 0.4101563,-0.375 0,-0.0585938 0,-0.0820313 -0.058594,-0.22265625 -0.292968,-0.71484378 -0.292968,-1.35937498 -0.292968,-1.64062498 0,-0.5273438 0.070312,-1.0664063 0.1757812,-1.5820313 h 1.1367186 c 0.128906,0 0.492188,0 0.492188,-0.3398437 0,-0.234375 -0.210938,-0.234375 -0.398438,-0.234375 H 6.8917734 c -0.2109375,0 -0.5976562,0 -1.03125,0.46875 -0.3515625,0.3867187 -0.609375,0.84375 -0.609375,0.890625 0,0.011719 0,0.1054687 0.1171875,0.1054687 0.082031,0 0.1054688,-0.046875 0.1640625,-0.1289062 0.4804688,-0.7617188 1.0664063,-0.7617188 1.265625,-0.7617188 h 0.5625 c -0.3164062,1.2070313 -0.8554687,2.4140625 -1.2773437,3.31640628 -0.070312,0.15234375 -0.070312,0.1640625 -0.070312,0.234375 0,0.19921875 0.1523437,0.26953125 0.28125,0.26953125 0.3046875,0 0.3867187,-0.26953125 0.5039062,-0.64453125 0.140625,-0.45703125 0.140625,-0.48046878 0.2695313,-0.97265628 z m 0,0"
         style="fill:#000000;fill-opacity:1;fill-rule:nonzero;stroke:none" />
    </g>
    <path
       id="path30"
       d="m 2.9302969,-6.3761016 c 0,-0.234375 0,-0.2578125 -0.234375,-0.2578125 -0.609375,0.6328125 -1.4882813,0.6328125 -1.80468752,0.6328125 v 0.3164063 c 0.19921872,0 0.78515622,0 1.30078122,-0.2578125 v 5.15624999 c 0,0.3515625 -0.035156,0.48046875 -0.9257812,0.48046875 H 0.94982813 v 0.3046875 C 1.3013906,-0.03625781 2.1568594,-0.03625781 2.5552969,-0.03625781 c 0.3984375,0 1.265625,0 1.6171875,0.03515625 v -0.3046875 H 3.8560781 c -0.9023437,0 -0.9257812,-0.1171875 -0.9257812,-0.48046875 z m 0,0"
       style="fill:#000000;fill-opacity:1;fill-rule:nonzero;stroke:none"
       aria-label="1"
       transform="matrix(1.3333333,0,0,1.3333333,176.632,133.896)" />
    <g
       id="g30"
       aria-label="−1"
       transform="matrix(1.3333333,0,0,1.3333333,166.3,197.216)">
      <path
         id="path31"
         d="m 6.5630859,-2.2977422 c 0.1757813,0 0.3515625,0 0.3515625,-0.1992187 0,-0.1992188 -0.1757812,-0.1992188 -0.3515625,-0.1992188 h -5.390625 c -0.1640625,0 -0.33984371,0 -0.33984371,0.1992188 0,0.1992187 0.17578121,0.1992187 0.33984371,0.1992187 z m 0,0"
         style="fill:#000000;fill-opacity:1;fill-rule:nonzero;stroke:none" />
      <path
         id="path32"
         d="m 10.679297,-6.3758672 c 0,-0.234375 0,-0.2578125 -0.234375,-0.2578125 -0.6093751,0.6328125 -1.4882814,0.6328125 -1.8046876,0.6328125 v 0.3164063 c 0.1992187,0 0.7851562,0 1.3007812,-0.2578125 v 5.15624996 c 0,0.3515625 -0.035156,0.48046875 -0.9257812,0.48046875 H 8.6988281 V -8.671875e-4 C 9.0503906,-0.03602344 9.9058594,-0.03602344 10.304297,-0.03602344 c 0.398437,0 1.265625,0 1.617187,0.0351562525 V -0.30555469 h -0.316406 c -0.902344,0 -0.925781,-0.1171875 -0.925781,-0.48046875 z m 0,0"
         style="fill:#000000;fill-opacity:1;fill-rule:nonzero;stroke:none" />
    </g>
    <g
       id="g32"
       aria-label="y=cosx"
       transform="matrix(1.3333333,0,0,1.3333333,199.092,126.27067)">
      <path
         id="path33"
         d="m 4.8411563,-3.7977266 c 0.046875,-0.140625 0.046875,-0.1523437 0.046875,-0.2226562 0,-0.1875 -0.140625,-0.2695313 -0.2929688,-0.2695313 -0.1054687,0 -0.2578125,0.058594 -0.3515625,0.1992188 -0.023437,0.058594 -0.09375,0.3632812 -0.140625,0.5390625 -0.070312,0.2578125 -0.140625,0.5273437 -0.1992187,0.796875 l -0.4453125,1.79296874 c -0.035156,0.15234375 -0.46875,0.85546875 -1.125,0.85546875 -0.5039063,0 -0.6210938,-0.4453125 -0.6210938,-0.80859375 0,-0.45703124 0.1757813,-1.07812504 0.515625,-1.95703124 0.1523438,-0.4101563 0.1992188,-0.515625 0.1992188,-0.7148438 0,-0.4453125 -0.328125,-0.8203125 -0.8203125,-0.8203125 -0.9492188,0 -1.31250005,1.453125 -1.31250005,1.5351563 0,0.1054687 0.09375,0.1054687 0.1171875,0.1054687 0.09375,0 0.10546875,-0.023437 0.15234375,-0.1875 0.26953125,-0.9375 0.6679688,-1.2304687 1.0078125,-1.2304687 0.082031,0 0.2578125,0 0.2578125,0.3164062 0,0.2460938 -0.1054687,0.515625 -0.1757812,0.703125 -0.3984375,1.0546875 -0.5742188,1.6171875 -0.5742188,2.0859375 0,0.89062504 0.6210938,1.18359379 1.21875,1.18359379 0.3867188,0 0.7265625,-0.1640625 0.9960938,-0.4453125 C 3.165375,0.17492969 3.0481875,0.66711719 2.64975,1.1944609 2.3919375,1.5343047 2.0169375,1.8272734 1.5599063,1.8272734 c -0.140625,0 -0.5976563,-0.035156 -0.7617188,-0.421875 0.1640625,0 0.2929688,0 0.4335938,-0.1171875 C 1.3255313,1.1944609 1.431,1.0655547 1.431,0.87805469 c 0,-0.31640625 -0.2695312,-0.3515625 -0.375,-0.3515625 -0.22265625,0 -0.55078125,0.1640625 -0.55078125,0.64453121 0,0.5039063 0.43359375,0.8671875 1.05468755,0.8671875 1.0195312,0 2.0507812,-0.9023437 2.3320312,-2.02734371 z m 0,0"
         style="fill:#eb0a36;fill-opacity:1;fill-rule:nonzero;stroke:none" />
      <path
         id="path34"
         d="m 14.857758,-3.2586641 c 0.152344,0 0.339844,0 0.339844,-0.1992187 0,-0.1992188 -0.1875,-0.1992188 -0.328125,-0.1992188 H 8.9046328 c -0.140625,0 -0.328125,0 -0.328125,0.1992188 0,0.1992187 0.1875,0.1992187 0.3398438,0.1992187 z m 0.01172,1.9335938 c 0.140625,0 0.328125,0 0.328125,-0.1992188 0,-0.1992187 -0.1875,-0.1992187 -0.339844,-0.1992187 H 8.9163516 c -0.1523438,0 -0.3398438,0 -0.3398438,0.1992187 0,0.1992188 0.1875,0.1992188 0.328125,0.1992188 z m 4.813476,-0.84375 c 0,-1.6289063 0.820313,-2.0507813 1.347656,-2.0507813 0.09375,0 0.714844,0.011719 1.066407,0.375 -0.410157,0.023437 -0.46875,0.328125 -0.46875,0.4570313 0,0.2578125 0.1875,0.4570312 0.457031,0.4570312 0.257812,0 0.457031,-0.1640625 0.457031,-0.46875 0,-0.6796875 -0.75,-1.0664062 -1.523437,-1.0664062 -1.242188,0 -2.15625,1.078125 -2.15625,2.3085937 0,1.27734379 0.984375,2.26171879 2.144531,2.26171879 1.335937,0 1.652344,-1.19531249 1.652344,-1.28906249 0,-0.1054688 -0.105469,-0.1054688 -0.128907,-0.1054688 -0.09375,0 -0.117187,0.046875 -0.128906,0.1054688 -0.292969,0.92578124 -0.9375,1.04296874 -1.3125,1.04296874 -0.527344,0 -1.40625,-0.421875 -1.40625,-2.02734374 z m 7.954102,0.035156 c 0,-1.2773437 -0.996094,-2.3320312 -2.191407,-2.3320312 -1.253906,0 -2.214843,1.0898437 -2.214843,2.3320312 0,1.28906254 1.03125,2.23828129 2.203125,2.23828129 1.207031,0 2.203125,-0.97265625 2.203125,-2.23828129 z m -2.191407,1.99218754 c -0.433593,0 -0.867187,-0.2109375 -1.136718,-0.66796875 -0.257813,-0.43359379 -0.257813,-1.04296879 -0.257813,-1.40624999 0,-0.3867188 0,-0.9257813 0.246094,-1.359375 0.269531,-0.4570313 0.738281,-0.6679688 1.136719,-0.6679688 0.433593,0 0.867187,0.2226563 1.125,0.6445313 0.257812,0.4335937 0.257812,1.0078125 0.257812,1.3828125 0,0.3632812 0,0.9023437 -0.222656,1.33593749 -0.222656,0.4453125 -0.65625,0.73828125 -1.148438,0.73828125 z m 4.558594,-1.79296874 c 0.222656,0.035156 1.03125,0.1992187 1.03125,0.9140625 0,0.51562499 -0.351562,0.91406249 -1.125,0.91406249 -0.832031,0 -1.195312,-0.57421875 -1.382812,-1.41796879 -0.03516,-0.1289062 -0.03516,-0.1757812 -0.140625,-0.1757812 -0.128907,0 -0.128907,0.070312 -0.128907,0.2578125 v 1.31249999 c 0,0.1640625 0,0.234375 0.105469,0.234375 0.05859,0 0.07031,0 0.257813,-0.19921875 0.01172,-0.01171875 0.01172,-0.03515625 0.199218,-0.22265625 0.433594,0.421875 0.878907,0.421875 1.089844,0.421875 1.148438,0 1.605469,-0.66796875 1.605469,-1.38281249 0,-0.5273438 -0.292969,-0.8203125 -0.421875,-0.9492188 -0.328125,-0.3164062 -0.714844,-0.3984375 -1.136719,-0.46875 -0.550781,-0.1171875 -1.21875,-0.2460937 -1.21875,-0.8203125 0,-0.3515625 0.257813,-0.7617187 1.113281,-0.7617187 1.101563,0 1.148438,0.9023437 1.171875,1.2070312 0,0.09375 0.09375,0.09375 0.117188,0.09375 0.128906,0 0.128906,-0.046875 0.128906,-0.2460937 v -0.9960938 c 0,-0.1757812 0,-0.2460937 -0.117187,-0.2460937 -0.04687,0 -0.07031,0 -0.199219,0.1171875 -0.02344,0.046875 -0.128906,0.1289062 -0.164063,0.1640625 -0.375,-0.28125 -0.785156,-0.28125 -0.9375,-0.28125 -1.21875,0 -1.59375,0.6679687 -1.59375,1.2304687 0,0.3398438 0.164063,0.6210938 0.433594,0.84375 0.316406,0.2578125 0.597656,0.3164063 1.3125,0.4570313 z m 0,0"
         style="fill:#eb0a36;fill-opacity:1;fill-rule:nonzero;stroke:none" />
      <path
         id="path35"
         d="m 36.850922,-3.0125703 c 0.05859,-0.2578125 0.292969,-1.171875 0.984375,-1.171875 0.04687,0 0.292969,0 0.503906,0.1289062 -0.28125,0.046875 -0.480469,0.3046875 -0.480469,0.5390625 0,0.1640625 0.105469,0.3515625 0.375,0.3515625 0.222657,0 0.539063,-0.1875 0.539063,-0.5859375 0,-0.515625 -0.585938,-0.65625 -0.925781,-0.65625 -0.574219,0 -0.925782,0.5273438 -1.042969,0.7617188 -0.257813,-0.65625 -0.785156,-0.7617188 -1.078125,-0.7617188 -1.042969,0 -1.605469,1.2890625 -1.605469,1.5351563 0,0.1054687 0.105469,0.1054687 0.117188,0.1054687 0.08203,0 0.117187,-0.023437 0.128906,-0.1171875 0.339844,-1.0546875 0.996094,-1.3007812 1.335937,-1.3007812 0.1875,0 0.539063,0.09375 0.539063,0.6679687 0,0.3046875 -0.164063,0.9726563 -0.539063,2.3671875 -0.152343,0.62109379 -0.503906,1.04296879 -0.949218,1.04296879 -0.05859,0 -0.28125,0 -0.492188,-0.12890625 0.246094,-0.0585937 0.46875,-0.26953125 0.46875,-0.5390625 0,-0.26953124 -0.222656,-0.35156254 -0.375,-0.35156254 -0.292969,0 -0.539062,0.25781254 -0.539062,0.57421879 0,0.45703125 0.492187,0.65625 0.9375,0.65625 0.65625,0 1.007812,-0.69140625 1.042968,-0.75 0.117188,0.36328125 0.480469,0.75 1.078125,0.75 1.019532,0 1.59375,-1.27734379 1.59375,-1.53515629 0,-0.09375 -0.09375,-0.09375 -0.128906,-0.09375 -0.08203,0 -0.105469,0.035156 -0.128906,0.1054688 -0.328125,1.06640624 -0.996094,1.31249999 -1.324219,1.31249999 -0.386719,0 -0.539062,-0.328125 -0.539062,-0.65625 0,-0.22265625 0.05859,-0.44531249 0.164062,-0.87890629 z m 0,0"
         style="fill:#eb0a36;fill-opacity:1;fill-rule:nonzero;stroke:none" />
    </g>
    <path
       id="path36"
       d="m -57.85526,-18.42496 c 0,0 1.36341,0.04552 1.88706,0.09983 0.52364,0.05429 1.3634,0.18433 1.88705,0.29153 0.52364,0.1072 1.36342,0.32208 1.88706,0.48105 0.52365,0.15895 1.36343,0.45567 1.88705,0.66464 0.52365,0.20895 1.36342,0.58463 1.88707,0.84145 0.52365,0.25685 1.36341,0.70761 1.88706,1.00961 0.52365,0.302 1.36341,0.82303 1.88707,1.16704 0.52363,0.34401 1.3634,0.9299 1.88705,1.31241 0.52364,0.3825 1.36342,1.02755 1.88706,1.44452 0.52363,0.41696 1.36343,1.11361 1.88705,1.56065 0.52365,0.44702 1.36342,1.18895 1.88707,1.66128 0.52365,0.47235 1.36341,1.25037 1.88705,1.74312 0.52366,0.49275 1.36342,1.30034 1.88706,1.80833 0.52365,0.50802 1.36342,1.33514 1.88707,1.85305 0.52363,0.51791 1.36342,1.35735 1.88705,1.87975 0.52364,0.5224 1.36342,1.36396 1.88706,1.88534 0.52365,0.52139 1.3634,1.35741 1.88705,1.87244 0.52365,0.51502 1.36342,1.33636 1.88707,1.83954 0.52364,0.50317 1.3634,1.30098 1.88706,1.78698 0.52364,0.48601 1.36341,1.25199 1.88707,1.71582 0.52363,0.46386 1.36341,1.19048 1.88705,1.62729 0.52364,0.43682 1.36342,1.11583 1.88704,1.521 0.52365,0.40518 1.36342,1.02998 1.88707,1.39928 0.52365,0.36929 1.36341,0.93289 1.88707,1.26234 0.52364,0.32947 1.3634,0.82599 1.88705,1.11223 0.52365,0.28624 1.36342,0.71078 1.88707,0.95084 0.52362,0.24005 1.36341,0.588 1.88706,0.77932 0.52363,0.19133 1.3634,0.45908 1.88704,0.5997 0.52365,0.14063 1.36342,0.32543 1.88707,0.41385 0.52365,0.08841 1.36341,0.18822 1.88705,0.2235 0.52365,0.03531 1.36339,0.04918 1.88702,0.03094 0.52366,-0.01826 1.36342,-0.0909 1.88708,-0.16251 0.52363,-0.07162 1.3634,-0.22952 1.88705,-0.35368 0.52363,-0.12414 1.36342,-0.36575 1.88704,-0.54121 0.52365,-0.17546 1.36341,-0.49855 1.88707,-0.72339 0.52365,-0.22484 1.36342,-0.62534 1.88707,-0.89712 0.52363,-0.27183 1.3634,-0.74587 1.88705,-1.0619 0.52365,-0.31605 1.36342,-0.859 1.88707,-1.21598 0.52364,-0.35697 1.3634,-0.96263 1.88705,-1.35682 0.52363,-0.39418 1.36341,-1.05691 1.88704,-1.48417 0.52366,-0.42725 1.36344,-1.13945 1.88707,-1.59522 0.52366,-0.45576 1.36342,-1.21014 1.88706,-1.68969 0.52365,-0.47957 1.36342,-1.26845 1.88707,-1.76674 0.52365,-0.49828 1.3634,-1.31278 1.88706,-1.82465 0.52364,-0.51185 1.36341,-1.34457 1.88706,-1.86455 0.52362,-0.51998 1.36341,-1.36053 1.88704,-1.8831 0.52365,-0.5226 1.36344,-1.36346 1.88707,-1.88341 0.52363,-0.51992 1.36342,-1.35223 1.88706,-1.86398 0.52365,-0.51175 1.3634,-1.3262 1.88705,-1.82437 0.52365,-0.49817 1.36342,-1.28674 1.88707,-1.76618 0.52365,-0.4794 1.36342,-1.23359 1.88705,-1.68913 0.52364,-0.45553 1.36342,-1.16711 1.88706,-1.5941 0.52365,-0.42699 1.36344,-1.08934 1.88707,-1.48332 0.52363,-0.39399 1.3634,-0.99956 1.88705,-1.35625 0.52365,-0.3567 1.36341,-0.89886 1.88706,-1.21457 0.52365,-0.31569 1.36342,-0.78926 1.88706,-1.06076 0.52364,-0.27148 1.36341,-0.67152 1.88706,-0.89601 0.52364,-0.22449 1.36342,-0.54692 1.88706,-0.722 0.52365,-0.17506 1.36343,-0.41606 1.88705,-0.5398 0.52365,-0.12373 1.36342,-0.28082 1.88706,-0.35198 0.52365,-0.0712 1.36341,-0.14324 1.88707,-0.16111 0.52365,-0.01785 1.36341,-0.0034 1.88706,0.03234 0.52364,0.03569 1.36341,0.13609 1.88706,0.22491 0.52363,0.08884 1.36342,0.27425 1.88707,0.41527 0.52362,0.14101 1.3634,0.40939 1.88704,0.60107 0.52365,0.19168 1.3634,0.54006 1.88705,0.78046 0.52365,0.24042 1.36342,0.66567 1.88707,0.95226 0.52365,0.2866 1.36342,0.78361 1.88705,1.11334 0.52366,0.32974 1.36343,0.89363 1.88708,1.2632 0.52363,0.36955 1.36342,0.99496 1.88707,1.40039 0.52362,0.40542 1.3634,1.08455 1.88702,1.52156 0.52365,0.43701 1.36342,1.16405 1.88707,1.62813 0.52365,0.46408 1.36342,1.23048 1.88707,1.71667 0.52364,0.48621 1.3634,1.28426 1.88705,1.78754 0.52365,0.50329 1.36342,1.32477 1.88707,1.83984 0.52364,0.51506 1.36341,1.35105 1.88706,1.87242 0.52363,0.52139 1.36341,1.36293 1.88704,1.88533 0.52365,0.52242 1.36342,1.36188 1.88707,1.87976 0.52365,0.51787 1.36342,1.34488 1.88707,1.85276 0.52363,0.50789 1.3634,1.31514 1.88705,1.80778 0.52365,0.49263 1.36342,1.27063 1.88707,1.74283 0.52362,0.47218 1.36341,1.21365 1.88705,1.66045 0.52363,0.4468 1.36341,1.14308 1.88704,1.55979 0.52366,0.41674 1.36342,1.06145 1.88707,1.4437 0.52365,0.38225 1.36342,0.96759 1.88706,1.31128 0.52365,0.34369 1.36342,0.86423 1.88707,1.16591 0.52365,0.30168 1.3634,0.752 1.88705,1.00848 0.52365,0.25647 1.36342,0.63146 1.88706,0.84006 0.52363,0.20862 1.36341,0.50497 1.88705,0.66351 0.52366,0.15853 1.36344,0.3723 1.88707,0.47907 0.52364,0.10678 1.3634,0.23649 1.88706,0.29043 0.52365,0.05395 1.36341,0.09798 1.88707,0.09841 0.52365,4.2e-4 1.3634,-0.04224 1.88705,-0.09532 0.52365,-0.05307 1.36342,-0.18139 1.88705,-0.28733 0.52364,-0.10594 1.36342,-0.31859 1.88706,-0.47627 0.52365,-0.15765 1.36343,-0.45233 1.88705,-0.66013 0.52365,-0.20779 1.36342,-0.5818 1.88707,-0.83754 0.52365,-0.25573 1.36341,-0.70469 1.88706,-1.00566 0.52365,-0.30095 1.88707,-1.16339 1.88707,-1.16339"
       style="fill:none;stroke:#eb0a36;stroke-width:0.79701;stroke-linecap:butt;stroke-linejoin:miter;stroke-miterlimit:10;stroke-dasharray:none;stroke-opacity:1"
       transform="matrix(1.3333333,0,0,-1.3333333,188.38667,161.55333)" />
    <path
       id="path37"
       d="M -66.331,18.42523 H 128.97676"
       style="fill:none;stroke:#000000;stroke-width:0.3985;stroke-linecap:butt;stroke-linejoin:miter;stroke-miterlimit:10;stroke-dasharray:2.98883, 2.98883;stroke-dashoffset:0;stroke-opacity:0.5"
       transform="matrix(1.3333333,0,0,-1.3333333,188.38667,161.55333)" />
    <path
       id="path38"
       d="M -66.331,-18.42523 H 128.97676"
       style="fill:none;stroke:#000000;stroke-width:0.3985;stroke-linecap:butt;stroke-linejoin:miter;stroke-miterlimit:10;stroke-dasharray:2.98883, 2.98883;stroke-dashoffset:0;stroke-opacity:0.5"
       transform="matrix(1.3333333,0,0,-1.3333333,188.38667,161.55333)" />
  </g>
</svg>
