<?xml version="1.0" encoding="UTF-8" standalone="no"?>
<!-- Created with Inkscape (http://www.inkscape.org/) -->

<svg
   version="1.1"
   id="svg1"
   width="215.86832"
   height="186.13683"
   viewBox="0 0 215.86832 186.13683"
   sodipodi:docname="4.1-ejemplo-cubica.svg"
   inkscape:version="1.4.2 (f4327f4, 2025-05-13)"
   xmlns:inkscape="http://www.inkscape.org/namespaces/inkscape"
   xmlns:sodipodi="http://sodipodi.sourceforge.net/DTD/sodipodi-0.dtd"
   xmlns="http://www.w3.org/2000/svg"
   xmlns:svg="http://www.w3.org/2000/svg">
  <defs
     id="defs1" />
  <sodipodi:namedview
     id="namedview1"
     pagecolor="#ffffff"
     bordercolor="#000000"
     borderopacity="0.25"
     inkscape:showpageshadow="2"
     inkscape:pageopacity="0.0"
     inkscape:pagecheckerboard="0"
     inkscape:deskcolor="#d1d1d1"
     inkscape:zoom="2.2241536"
     inkscape:cx="110.82868"
     inkscape:cy="107.68141"
     inkscape:window-width="1920"
     inkscape:window-height="1009"
     inkscape:window-x="-8"
     inkscape:window-y="-8"
     inkscape:window-maximized="1"
     inkscape:current-layer="g1">
    <inkscape:page
       x="0"
       y="0"
       inkscape:label="38"
       id="page1"
       width="215.86832"
       height="186.13683"
       margin="0"
       bleed="0" />
  </sodipodi:namedview>
  <g
     id="g1"
     inkscape:groupmode="layer"
     inkscape:label="38"
     transform="translate(-131.12387,-73.695312)">
    <path
       id="path2"
       d="M -22.6771,0 H 73.2423"
       style="fill:none;stroke:#000000;stroke-width:0.3985;stroke-linecap:butt;stroke-linejoin:miter;stroke-miterlimit:10;stroke-dasharray:none;stroke-opacity:1"
       transform="matrix(1.3333333,0,0,-1.3333333,161.36,229.596)" />
    <path
       id="path3"
       d="M -1.19551,1.59401 C -1.09587,0.99626 0,0.09961 0.29886,0 0,-0.09961 -1.09587,-0.99626 -1.19551,-1.59401"
       style="fill:none;stroke:#000000;stroke-width:0.31879;stroke-linecap:round;stroke-linejoin:round;stroke-miterlimit:10;stroke-dasharray:none;stroke-opacity:1"
       transform="matrix(1.3333333,0,0,-1.3333333,259.0164,229.596)" />
    <path
       id="path4"
       d="m 3.6440938,-3.2924766 c 0.070312,-0.28125 0.3164062,-1.2890625 1.078125,-1.2890625 0.058594,0 0.3164062,0 0.5507812,0.140625 -0.3046875,0.058594 -0.5273437,0.328125 -0.5273437,0.5859375 0,0.1757813 0.1171875,0.3867188 0.4101562,0.3867188 0.2460938,0 0.5976563,-0.1992188 0.5976563,-0.6328125 0,-0.5625 -0.6445313,-0.7265625 -1.0195313,-0.7265625 -0.6328125,0 -1.0195312,0.5859375 -1.1484375,0.8320312 -0.2695312,-0.7148437 -0.8554687,-0.8320312 -1.171875,-0.8320312 -1.1367187,0 -1.7578125,1.4179687 -1.7578125,1.6875 0,0.1054687 0.10546875,0.1054687 0.12890625,0.1054687 0.0820313,0 0.1171875,-0.023437 0.140625,-0.1171875 0.37500005,-1.1601562 1.08984375,-1.4296875 1.46484375,-1.4296875 0.2109375,0 0.5859375,0.09375 0.5859375,0.7265625 0,0.3398438 -0.1875,1.078125 -0.5859375,2.6015625 -0.1757812,0.67968754 -0.5625,1.13671879 -1.0429687,1.13671879 -0.058594,0 -0.3164063,0 -0.53906255,-0.140625 0.26953125,-0.0585938 0.51562505,-0.29296875 0.51562505,-0.59765625 0,-0.29296874 -0.2460938,-0.37500004 -0.4101563,-0.37500004 -0.328125,0 -0.59765625,0.28125004 -0.59765625,0.63281254 0,0.50390625 0.55078125,0.71484375 1.03125005,0.71484375 0.7148437,0 1.1015625,-0.76171875 1.1367187,-0.83203125 0.1289063,0.41015625 0.5273438,0.83203125 1.1835938,0.83203125 1.125,0 1.7460937,-1.40624999 1.7460937,-1.67578129 0,-0.1054687 -0.1054687,-0.1054687 -0.1289062,-0.1054687 -0.1054688,0 -0.1289063,0.035156 -0.140625,0.1171875 -0.3632813,1.16015624 -1.1132813,1.42968749 -1.453125,1.42968749 -0.4335938,0 -0.609375,-0.3515625 -0.609375,-0.7265625 0,-0.23437499 0.070312,-0.48046879 0.1875,-0.96093749 z m 0,0"
       style="fill:#000000;fill-opacity:1;fill-rule:nonzero;stroke:none"
       aria-label="x"
       transform="matrix(1.3333333,0,0,1.3333333,255.46933,240.972)" />
    <path
       id="path5"
       d="M 0,-22.6771 V 112.92722"
       style="fill:none;stroke:#000000;stroke-width:0.3985;stroke-linecap:butt;stroke-linejoin:miter;stroke-miterlimit:10;stroke-dasharray:none;stroke-opacity:1"
       transform="matrix(1.3333333,0,0,-1.3333333,161.36,229.596)" />
    <path
       id="path6"
       d="M -1.19551,1.59401 C -1.09587,0.99626 0,0.09961 0.29886,0 0,-0.09961 -1.09587,-0.99626 -1.19551,-1.59401"
       style="fill:none;stroke:#000000;stroke-width:0.31879;stroke-linecap:round;stroke-linejoin:round;stroke-miterlimit:10;stroke-dasharray:none;stroke-opacity:1"
       transform="matrix(0,-1.3333333,-1.3333333,0,161.36,79.026373)" />
    <path
       id="path7"
       d="m 5.2971875,-4.1615469 c 0.046875,-0.1523437 0.046875,-0.1757812 0.046875,-0.2460937 0,-0.1992188 -0.1523437,-0.2929688 -0.3164062,-0.2929688 -0.1054688,0 -0.28125,0.058594 -0.375,0.2226563 -0.023437,0.058594 -0.1171875,0.3984375 -0.1523438,0.5976562 -0.082031,0.28125 -0.1523437,0.5742188 -0.2226562,0.8671875 l -0.4921875,1.96875 c -0.046875,0.16406253 -0.515625,0.92578128 -1.2304688,0.92578128 -0.5625,0 -0.6796875,-0.48046875 -0.6796875,-0.89062498 0,-0.4921875 0.1875,-1.171875 0.5625,-2.1328125 0.1757813,-0.4453125 0.2109375,-0.5742188 0.2109375,-0.7851563 0,-0.4921875 -0.3515625,-0.9023437 -0.890625,-0.9023437 -1.04296875,0 -1.44140625,1.5820312 -1.44140625,1.6875 0,0.1054687 0.10546875,0.1054687 0.12890625,0.1054687 0.10546875,0 0.1171875,-0.023437 0.17578125,-0.1992187 0.29296875,-1.0195313 0.72656255,-1.3476563 1.10156255,-1.3476563 0.09375,0 0.2695312,0 0.2695312,0.3515625 0,0.2695313 -0.1054687,0.5507813 -0.1757812,0.7617188 -0.4453125,1.1601562 -0.6328125,1.78125 -0.6328125,2.2851562 0,0.97265628 0.6796875,1.30078128 1.3242187,1.30078128 0.421875,0 0.796875,-0.1875 1.1015625,-0.4921875 C 3.4690625,0.19782813 3.3401563,0.72517188 2.9065625,1.3111094 2.6135938,1.6743906 2.2034375,1.9907969 1.6995313,1.9907969 1.5471875,1.9907969 1.055,1.9673594 0.8675,1.5337656 c 0.1757813,0 0.3164063,0 0.4804688,-0.1289062 0.1054687,-0.09375 0.2109375,-0.234375 0.2109375,-0.44531252 0,-0.33984375 -0.2929688,-0.38671875 -0.3984375,-0.38671875 -0.25781255,0 -0.60937505,0.17578125 -0.60937505,0.71484377 0,0.5390625 0.48046875,0.9492187 1.14843755,0.9492187 1.125,0 2.25,-0.9960937 2.5546875,-2.22656247 z m 0,0"
       style="fill:#000000;fill-opacity:1;fill-rule:nonzero;stroke:none"
       aria-label="y"
       transform="matrix(1.3333333,0,0,1.3333333,148.59333,80.134667)" />
    <path
       id="path8"
       d="m -5.66925,0.70865 c 0,0 0.37225,0.67457 0.51523,0.91402 0.14297,0.23943 0.37227,0.60022 0.51524,0.81176 0.14296,0.21155 0.37224,0.52852 0.51521,0.713 0.14297,0.18447 0.37226,0.4583 0.51523,0.61662 0.14298,0.1583 0.37227,0.39127 0.51523,0.52439 0.14298,0.13315 0.37227,0.32634 0.51524,0.43513 0.14298,0.10878 0.37227,0.26367 0.51523,0.34896 0.14298,0.08529 0.37226,0.2031 0.51523,0.26576 0.14296,0.06265 0.37225,0.14486 0.51523,0.18582 0.14298,0.04094 0.37227,0.0892 0.51524,0.10933 0.14296,0.02014 0.37226,0.0356 0.51523,0.03581 C 0.14124,5.66946 0.37051,5.65384 0.51349,5.635 0.65645,5.61617 0.88576,5.57045 1.02872,5.53345 1.17169,5.49643 1.40097,5.42247 1.54395,5.36823 1.6869,5.31395 1.9162,5.21294 2.05917,5.14226 2.20215,5.07158 2.43144,4.94505 2.5744,4.85887 2.71738,4.77267 2.94667,4.6218 3.08965,4.52097 3.23262,4.42015 3.46191,4.24673 3.60487,4.1322 3.74785,4.0177 3.97713,3.82289 4.1201,3.69553 4.26306,3.56818 4.49236,3.35358 4.63533,3.2142 4.7783,3.07483 5.0076,2.84148 5.15057,2.69101 5.29353,2.54056 5.52283,2.29039 5.6658,2.12978 5.80876,1.96915 6.03806,1.70332 6.18103,1.53339 6.324,1.36346 6.5533,1.08336 6.69626,0.90501 6.83922,0.72667 7.06851,0.43378 7.21149,0.24791 7.35446,0.06203 7.58376,-0.24207 7.72672,-0.43459 7.86969,-0.6271 8.09898,-0.94128 8.24196,-1.13962 8.38492,-1.33795 8.61423,-1.6608 8.75719,-1.86401 c 0.14297,-0.20322 0.37227,-0.53312 0.51524,-0.74033 0.14296,-0.20721 0.37224,-0.54285 0.51521,-0.75311 0.14298,-0.2103 0.37227,-0.54997 0.51523,-0.76247 0.14298,-0.21252 0.37227,-0.55534 0.51525,-0.76922 0.14295,-0.21389 0.37225,-0.55803 0.51522,-0.77233 0.14298,-0.21429 0.37227,-0.55829 0.51523,-0.77215 0.14298,-0.21386 0.37226,-0.55664 0.51523,-0.76922 0.14296,-0.21255 0.37227,-0.55246 0.51523,-0.76281 0.14297,-0.21036 0.37227,-0.54602 0.51524,-0.7533 0.14296,-0.20729 0.37226,-0.53738 0.51523,-0.74068 0.14297,-0.20329 0.37227,-0.52617 0.51524,-0.72456 0.14296,-0.19841 0.37226,-0.51272 0.51523,-0.70538 0.14298,-0.19266 0.37226,-0.49716 0.51521,-0.68321 0.14298,-0.18609 0.37227,-0.47928 0.51523,-0.65781 0.14298,-0.17851 0.37227,-0.45879 0.51525,-0.62889 0.14297,-0.17012 0.37227,-0.43642 0.51523,-0.59725 0.14297,-0.16081 0.37226,-0.41128 0.51524,-0.56193 0.14296,-0.15067 0.37224,-0.38428 0.51521,-0.5239 0.14298,-0.13961 0.37227,-0.35472 0.51525,-0.48236 0.14295,-0.12762 0.37225,-0.32275 0.51522,-0.43754 0.14298,-0.11478 0.37227,-0.28871 0.51523,-0.38979 0.14298,-0.10109 0.37227,-0.25227 0.51525,-0.33876 0.14297,-0.0865 0.37225,-0.21361 0.51521,-0.28461 0.14297,-0.071 0.37227,-0.17256 0.51523,-0.22717 0.14297,-0.0546 0.37227,-0.12909 0.51524,-0.16643 0.14296,-0.03735 0.37227,-0.08355 0.51523,-0.10278 0.14297,-0.01921 0.37227,-0.03564 0.51524,-0.03581 0.14296,-1.6e-4 0.37226,0.01487 0.51523,0.03461 0.14297,0.01974 0.37225,0.06709 0.51521,0.1076 0.14298,0.04053 0.37227,0.12219 0.51525,0.18445 0.14297,0.06224 0.37227,0.17936 0.51522,0.26417 0.14298,0.08481 0.37227,0.23882 0.51525,0.34706 0.14296,0.10828 0.37225,0.30062 0.51523,0.43323 0.14297,0.13263 0.37225,0.36482 0.51522,0.52268 0.14296,0.15785 0.37226,0.43112 0.51523,0.61505 0.14296,0.18394 0.37226,0.49977 0.51523,0.71074 0.14298,0.21098 0.37227,0.57101 0.51525,0.80987 0.14295,0.23888 0.37225,0.64414 0.51522,0.91178 0.14298,0.26762 0.37227,0.71986 0.51522,1.01715 0.14297,0.29727 0.37226,0.7976 0.51524,1.12544 0.14296,0.32783 0.37227,0.8781 0.51523,1.23738 0.14297,0.35928 0.37227,0.96051 0.51524,1.3521 0.14296,0.39158 0.37226,1.04547 0.51523,1.47026 0.14297,0.4248 0.37226,1.13247 0.51523,1.59137 0.14297,0.45889 0.37225,1.22209 0.51523,1.71594 0.14296,0.49385 0.37225,1.31375 0.51522,1.84344 0.14298,0.5297 0.37228,1.40776 0.51523,1.97422 0.14298,0.56645 0.37227,1.50421 0.51525,2.10832 0.14297,0.60411 0.37227,1.6031 0.51522,2.2457 0.14298,0.64262 0.37226,1.70385 0.51523,2.38585 0.14296,0.682 0.37225,1.80729 0.51523,2.52963 0.14298,0.7223 0.37227,1.91284 0.51524,2.67631 0.14296,0.76349 0.37226,2.0208 0.51523,2.82634 0.14298,0.80554 0.37227,2.13097 0.51523,2.97945 0.14298,0.84848 0.37227,2.24354 0.51523,3.13585 0.14297,0.89233 0.37225,2.35834 0.51523,3.29538 0.14297,0.93704 0.37226,2.47552 0.51523,3.45816 0.14297,0.98265 0.37226,2.59498 0.51524,3.62411 0.14296,1.0291 0.37227,2.71662 0.51523,3.79312 0.14297,1.07651 0.37226,2.84084 0.51524,3.96561 0.14296,1.1248 0.37224,2.96718 0.51522,4.14107 0.14297,1.1739 0.37226,3.09567 0.51522,4.31959 0.14298,1.22393 0.37227,3.22676 0.51525,4.50162 0.14297,1.27486 0.37227,3.36008 0.51523,4.68676 0.14297,1.32665 0.37226,3.49563 0.51522,4.87496 0.14298,1.37934 0.37226,3.63341 0.51523,5.06632 0.14296,1.43292 0.37227,3.77377 0.51523,5.26115 0.14297,1.48737 0.37227,3.91617 0.51524,5.45889 0.14296,1.54271 0.37226,4.06098 0.51523,5.65992 0.14298,1.59896 0.37227,4.20817 0.51523,5.86426 0.14297,1.6561 0.51524,6.07171 0.51524,6.07171"
       style="fill:none;stroke:#eb0a36;stroke-width:0.79701;stroke-linecap:butt;stroke-linejoin:miter;stroke-miterlimit:10;stroke-dasharray:none;stroke-opacity:1"
       transform="matrix(1.3333333,0,0,-1.3333333,161.36,229.596)" />
    <path
       id="path9"
       d="m 23.58417,-17.00781 c 0,0.50096 -0.40612,0.90709 -0.90707,0.90709 -0.50098,0 -0.9071,-0.40613 -0.9071,-0.90709 0,-0.50096 0.40612,-0.90709 0.9071,-0.90709 0.50095,0 0.90707,0.40613 0.90707,0.90709 z"
       style="fill:#eb0a36;fill-opacity:1;fill-rule:nonzero;stroke:#eb0a36;stroke-width:0.3985;stroke-linecap:butt;stroke-linejoin:miter;stroke-miterlimit:10;stroke-dasharray:none;stroke-opacity:1"
       transform="matrix(1.3333333,0,0,-1.3333333,161.36,229.596)" />
    <path
       id="path10"
       d="m 46.26128,96.37766 c 0,0.50097 -0.40613,0.90708 -0.90709,0.90708 -0.50098,0 -0.90709,-0.40611 -0.90709,-0.90708 0,-0.50096 0.40611,-0.90708 0.90709,-0.90708 0.50096,0 0.90709,0.40612 0.90709,0.90708 z"
       style="fill:#eb0a36;fill-opacity:1;fill-rule:nonzero;stroke:#eb0a36;stroke-width:0.3985;stroke-linecap:butt;stroke-linejoin:miter;stroke-miterlimit:10;stroke-dasharray:none;stroke-opacity:1"
       transform="matrix(1.3333333,0,0,-1.3333333,161.36,229.596)" />
    <path
       id="path11"
       d="M 22.6771,0 V -17.00781 H 0"
       style="fill:none;stroke:#0000ff;stroke-width:0.79701;stroke-linecap:butt;stroke-linejoin:miter;stroke-miterlimit:10;stroke-dasharray:2.98883, 2.98883;stroke-dashoffset:0;stroke-opacity:0.5"
       transform="matrix(1.3333333,0,0,-1.3333333,161.36,229.596)" />
    <path
       id="path12"
       d="M 45.35419,0 V 96.37766 H 0"
       style="fill:none;stroke:#0000ff;stroke-width:0.79701;stroke-linecap:butt;stroke-linejoin:miter;stroke-miterlimit:10;stroke-dasharray:2.98883, 2.98883;stroke-dashoffset:0;stroke-opacity:0.5"
       transform="matrix(1.3333333,0,0,-1.3333333,161.36,229.596)" />
    <g
       id="g12"
       aria-label="f(x)=x&#10;3&#10;−3x&#10;2&#10;+1"
       transform="matrix(1.3333333,0,0,1.3333333,231.64933,187.988)">
      <path
         id="path13"
         d="m 3.6555781,-3.9841641 h 0.8554688 c 0.1992187,0 0.3046875,0 0.3046875,-0.1992187 0,-0.1054688 -0.1054688,-0.1054688 -0.2695313,-0.1054688 H 3.7141719 l 0.2109375,-1.1367187 c 0.035156,-0.2109375 0.1757812,-0.9140625 0.234375,-1.0429688 0.09375,-0.1875 0.2578125,-0.3398437 0.46875,-0.3398437 0.046875,0 0.3046875,0 0.4921875,0.1875 -0.4335938,0.035156 -0.5390625,0.3867187 -0.5390625,0.5390625 0,0.2226562 0.1757812,0.3398437 0.3632812,0.3398437 0.2695313,0 0.5507813,-0.2109375 0.5507813,-0.5976562 0,-0.4570313 -0.4570313,-0.6796875 -0.8671875,-0.6796875 -0.3398438,0 -0.9609375,0.1757812 -1.265625,1.1601562 -0.058594,0.2109375 -0.082031,0.3164063 -0.328125,1.5703125 H 2.3547969 c -0.1992188,0 -0.3046875,0 -0.3046875,0.1875 0,0.1171875 0.09375,0.1171875 0.28125,0.1171875 h 0.65625 l -0.75,3.93750004 C 2.0618281,0.91427344 1.8977656,1.8283359 1.3704219,1.8283359 c -0.035156,0 -0.28125,0 -0.46875002,-0.1875 C 1.3587031,1.6173984 1.4407344,1.2541172 1.4407344,1.1017734 c 0,-0.22265621 -0.1757813,-0.33984371 -0.3632813,-0.33984371 -0.25781247,0 -0.55078122,0.2109375 -0.55078122,0.59765621 0,0.4453125 0.43359375,0.6796875 0.84375002,0.6796875 0.5507812,0 0.9492187,-0.5859375 1.125,-0.9609375 0.328125,-0.63281246 0.5507812,-1.83984371 0.5625,-1.91015621 z m 0,0"
         style="fill:#eb0a36;fill-opacity:1;fill-rule:nonzero;stroke:none" />
      <path
         id="path14"
         d="m 9.2454219,2.3908359 c 0,-0.035156 0,-0.046875 -0.1640625,-0.2226562 -1.2421875,-1.25390626 -1.5703125,-3.12890626 -1.5703125,-4.6640625 0,-1.7226563 0.3867187,-3.4570313 1.6054687,-4.7109375 0.1289063,-0.1171875 0.1289063,-0.1289063 0.1289063,-0.1640625 0,-0.070312 -0.035156,-0.1054688 -0.09375,-0.1054688 -0.1054688,0 -0.9960938,0.6796875 -1.5820313,1.9453125 -0.515625,1.1015625 -0.6328125,2.203125 -0.6328125,3.0351563 0,0.7851562 0.1171875,1.99218749 0.65625,3.11718749 0.5976563,1.21875001 1.453125,1.87500001 1.5585938,1.87500001 0.058594,0 0.09375,-0.035156 0.09375,-0.1054688 z m 0,0"
         style="fill:#eb0a36;fill-opacity:1;fill-rule:nonzero;stroke:none" />
      <path
         id="path15"
         d="m 13.156555,-3.0115078 c 0.05859,-0.2578125 0.292968,-1.171875 0.984375,-1.171875 0.04687,0 0.292968,0 0.503906,0.1289062 -0.28125,0.046875 -0.480469,0.3046875 -0.480469,0.5390625 0,0.1640625 0.105469,0.3515625 0.375,0.3515625 0.222656,0 0.539063,-0.1875 0.539063,-0.5859375 0,-0.515625 -0.585938,-0.65625 -0.925782,-0.65625 -0.574218,0 -0.925781,0.5273438 -1.042968,0.7617188 -0.257813,-0.65625 -0.785157,-0.7617188 -1.078125,-0.7617188 -1.042969,0 -1.605469,1.2890625 -1.605469,1.5351563 0,0.1054687 0.105469,0.1054687 0.117187,0.1054687 0.08203,0 0.117188,-0.023437 0.128907,-0.1171875 0.339843,-1.0546875 0.996093,-1.3007812 1.335937,-1.3007812 0.1875,0 0.539063,0.09375 0.539063,0.6679687 0,0.3046875 -0.164063,0.9726563 -0.539063,2.3671875 -0.152344,0.62109379 -0.503906,1.04296879 -0.949219,1.04296879 -0.05859,0 -0.28125,0 -0.492187,-0.12890625 0.246094,-0.0585938 0.46875,-0.26953125 0.46875,-0.5390625 0,-0.26953124 -0.222656,-0.35156254 -0.375,-0.35156254 -0.292969,0 -0.539063,0.25781254 -0.539063,0.57421879 0,0.45703125 0.492188,0.65625 0.9375,0.65625 0.65625,0 1.007813,-0.69140625 1.042969,-0.75 0.117188,0.36328125 0.480469,0.75 1.078125,0.75 1.019531,0 1.59375,-1.27734379 1.59375,-1.53515629 0,-0.09375 -0.09375,-0.09375 -0.128906,-0.09375 -0.08203,0 -0.105469,0.035156 -0.128906,0.1054688 -0.328125,1.06640624 -0.996094,1.31249999 -1.324219,1.31249999 -0.386719,0 -0.539063,-0.328125 -0.539063,-0.65625 0,-0.22265625 0.05859,-0.44531249 0.164063,-0.87890629 z m 0,0"
         style="fill:#eb0a36;fill-opacity:1;fill-rule:nonzero;stroke:none" />
      <path
         id="path16"
         d="m 18.403625,-2.4958828 c 0,-0.7734375 -0.117187,-1.9804688 -0.65625,-3.1054688 -0.597656,-1.21875 -1.464844,-1.875 -1.558594,-1.875 -0.05859,0 -0.105468,0.046875 -0.105468,0.1054688 0,0.035156 0,0.046875 0.199218,0.234375 0.972657,0.984375 1.535157,2.5664062 1.535157,4.640625 0,1.71093749 -0.363282,3.45703124 -1.59375,4.7226562 -0.140625,0.1171875 -0.140625,0.1289063 -0.140625,0.1640625 0,0.058594 0.04687,0.1054688 0.105468,0.1054688 0.09375,0 0.996094,-0.6796875 1.582032,-1.94531251 0.503906,-1.1015625 0.632812,-2.20312499 0.632812,-3.04687499 z m 10.59668,-0.7617188 c 0.152343,0 0.339843,0 0.339843,-0.1992187 0,-0.1992188 -0.1875,-0.1992188 -0.328125,-0.1992188 H 23.04718 c -0.140625,0 -0.328125,0 -0.328125,0.1992188 0,0.1992187 0.1875,0.1992187 0.339843,0.1992187 z m 0.01172,1.9335938 c 0.140625,0 0.328125,0 0.328125,-0.1992188 0,-0.1992187 -0.1875,-0.1992187 -0.339843,-0.1992187 H 23.0589 c -0.152343,0 -0.339843,0 -0.339843,0.1992187 0,0.1992188 0.1875,0.1992188 0.328125,0.1992188 z m 0,0"
         style="fill:#eb0a36;fill-opacity:1;fill-rule:nonzero;stroke:none" />
      <path
         id="path17"
         d="m 36.002258,-3.0115078 c 0.05859,-0.2578125 0.292969,-1.171875 0.984375,-1.171875 0.04687,0 0.292969,0 0.503906,0.1289062 -0.28125,0.046875 -0.480469,0.3046875 -0.480469,0.5390625 0,0.1640625 0.105469,0.3515625 0.375,0.3515625 0.222657,0 0.539063,-0.1875 0.539063,-0.5859375 0,-0.515625 -0.585938,-0.65625 -0.925781,-0.65625 -0.574219,0 -0.925782,0.5273438 -1.042969,0.7617188 -0.257813,-0.65625 -0.785156,-0.7617188 -1.078125,-0.7617188 -1.042969,0 -1.605469,1.2890625 -1.605469,1.5351563 0,0.1054687 0.105469,0.1054687 0.117188,0.1054687 0.08203,0 0.117187,-0.023437 0.128906,-0.1171875 0.339844,-1.0546875 0.996094,-1.3007812 1.335937,-1.3007812 0.1875,0 0.539063,0.09375 0.539063,0.6679687 0,0.3046875 -0.164063,0.9726563 -0.539063,2.3671875 -0.152343,0.62109379 -0.503906,1.04296879 -0.949218,1.04296879 -0.05859,0 -0.28125,0 -0.492188,-0.12890625 0.246094,-0.0585938 0.46875,-0.26953125 0.46875,-0.5390625 0,-0.26953124 -0.222656,-0.35156254 -0.375,-0.35156254 -0.292969,0 -0.539062,0.25781254 -0.539062,0.57421879 0,0.45703125 0.492187,0.65625 0.9375,0.65625 0.65625,0 1.007812,-0.69140625 1.042968,-0.75 0.117188,0.36328125 0.480469,0.75 1.078125,0.75 1.019532,0 1.59375,-1.27734379 1.59375,-1.53515629 0,-0.09375 -0.09375,-0.09375 -0.128906,-0.09375 -0.08203,0 -0.105469,0.035156 -0.128906,0.1054688 -0.328125,1.06640624 -0.996094,1.31249999 -1.324219,1.31249999 -0.386719,0 -0.539062,-0.328125 -0.539062,-0.65625 0,-0.22265625 0.05859,-0.44531249 0.164062,-0.87890629 z m 0,0"
         style="fill:#eb0a36;fill-opacity:1;fill-rule:nonzero;stroke:none" />
      <path
         id="path18"
         d="m 40.267883,-5.9470547 c 0.550781,0 0.9375,0.375 0.9375,1.125 0,0.8671875 -0.503906,1.125 -0.902344,1.125 -0.28125,0 -0.890625,-0.082031 -1.183594,-0.4921875 0.328125,-0.011719 0.398438,-0.2460937 0.398438,-0.3867187 0,-0.2226563 -0.164063,-0.3867188 -0.386719,-0.3867188 -0.1875,0 -0.386719,0.1171875 -0.386719,0.4101563 0,0.65625 0.726563,1.078125 1.570313,1.078125 0.972656,0 1.640625,-0.6445313 1.640625,-1.3476563 0,-0.5390625 -0.445313,-1.0898437 -1.21875,-1.2421875 0.738281,-0.2695312 0.996094,-0.796875 0.996094,-1.21875 0,-0.5507812 -0.632813,-0.9609375 -1.40625,-0.9609375 -0.773438,0 -1.359375,0.375 -1.359375,0.9375 0,0.234375 0.152343,0.3632813 0.363281,0.3632813 0.210937,0 0.351562,-0.1640625 0.351562,-0.3515625 0,-0.1992188 -0.140625,-0.3515625 -0.351562,-0.3632813 0.234375,-0.3046875 0.714844,-0.3867187 0.972656,-0.3867187 0.316406,0 0.761719,0.1523437 0.761719,0.7617187 0,0.2929688 -0.105469,0.609375 -0.28125,0.8320313 -0.234375,0.2578125 -0.421875,0.28125 -0.773438,0.2929687 -0.175781,0.023437 -0.1875,0.023437 -0.222656,0.023437 -0.01172,0 -0.07031,0.011719 -0.07031,0.09375 0,0.09375 0.05859,0.09375 0.175781,0.09375 z m 0,0"
         style="fill:#eb0a36;fill-opacity:1;fill-rule:nonzero;stroke:none" />
      <path
         id="path19"
         d="m 51.614563,-2.2966641 c 0.175781,0 0.351562,0 0.351562,-0.1992187 0,-0.1992188 -0.175781,-0.1992188 -0.351562,-0.1992188 h -5.390625 c -0.164063,0 -0.339844,0 -0.339844,0.1992188 0,0.1992187 0.175781,0.1992187 0.339844,0.1992187 z m 0,0"
         style="fill:#eb0a36;fill-opacity:1;fill-rule:nonzero;stroke:none" />
      <path
         id="path20"
         d="m 57.907531,-3.5036953 c 0.808594,-0.2695313 1.394532,-0.9726563 1.394532,-1.7578125 0,-0.8203125 -0.878907,-1.3710938 -1.839844,-1.3710938 -1.007813,0 -1.757813,0.5976563 -1.757813,1.3476563 0,0.3398437 0.210938,0.5273437 0.503907,0.5273437 0.304687,0 0.503906,-0.2226562 0.503906,-0.515625 0,-0.4921875 -0.46875,-0.4921875 -0.609375,-0.4921875 0.304687,-0.4921875 0.960937,-0.6210937 1.324219,-0.6210937 0.410156,0 0.949218,0.2226562 0.949218,1.1132812 0,0.1289063 -0.01172,0.703125 -0.269531,1.1367188 -0.304687,0.4804687 -0.644531,0.515625 -0.890625,0.515625 -0.08203,0.011719 -0.316406,0.035156 -0.386719,0.035156 -0.08203,0.011719 -0.152343,0.023437 -0.152343,0.1171875 0,0.1171875 0.07031,0.1171875 0.234375,0.1171875 h 0.445312 c 0.808594,0 1.183594,0.6679688 1.183594,1.6523438 0,1.34765624 -0.691406,1.64062499 -1.125,1.64062499 -0.433594,0 -1.171875,-0.17578125 -1.523438,-0.76171875 0.351563,0.0585938 0.65625,-0.1640625 0.65625,-0.53906254 0,-0.3632812 -0.269531,-0.5625 -0.5625,-0.5625 -0.234375,0 -0.550781,0.140625 -0.550781,0.5742188 0,0.91406249 0.925781,1.57031249 2.003906,1.57031249 1.21875,0 2.121094,-0.9140625 2.121094,-1.92187499 0,-0.8203125 -0.621094,-1.59375 -1.652344,-1.8046873 z m 0,0"
         style="fill:#eb0a36;fill-opacity:1;fill-rule:nonzero;stroke:none" />
      <path
         id="path21"
         d="m 63.321594,-3.0115078 c 0.05859,-0.2578125 0.292969,-1.171875 0.984375,-1.171875 0.04687,0 0.292969,0 0.503906,0.1289062 -0.28125,0.046875 -0.480469,0.3046875 -0.480469,0.5390625 0,0.1640625 0.105469,0.3515625 0.375,0.3515625 0.222657,0 0.539063,-0.1875 0.539063,-0.5859375 0,-0.515625 -0.585938,-0.65625 -0.925781,-0.65625 -0.574219,0 -0.925782,0.5273438 -1.042969,0.7617188 -0.257813,-0.65625 -0.785156,-0.7617188 -1.078125,-0.7617188 -1.042969,0 -1.605469,1.2890625 -1.605469,1.5351563 0,0.1054687 0.105469,0.1054687 0.117188,0.1054687 0.08203,0 0.117187,-0.023437 0.128906,-0.1171875 0.339844,-1.0546875 0.996094,-1.3007812 1.335937,-1.3007812 0.1875,0 0.539063,0.09375 0.539063,0.6679687 0,0.3046875 -0.164063,0.9726563 -0.539063,2.3671875 -0.152343,0.62109379 -0.503906,1.04296879 -0.949218,1.04296879 -0.05859,0 -0.28125,0 -0.492188,-0.12890625 0.246094,-0.0585938 0.46875,-0.26953125 0.46875,-0.5390625 0,-0.26953124 -0.222656,-0.35156254 -0.375,-0.35156254 -0.292969,0 -0.539062,0.25781254 -0.539062,0.57421879 0,0.45703125 0.492187,0.65625 0.9375,0.65625 0.65625,0 1.007812,-0.69140625 1.042968,-0.75 0.117188,0.36328125 0.480469,0.75 1.078125,0.75 1.019532,0 1.59375,-1.27734379 1.59375,-1.53515629 0,-0.09375 -0.09375,-0.09375 -0.128906,-0.09375 -0.08203,0 -0.105469,0.035156 -0.128906,0.1054688 -0.328125,1.06640624 -0.996094,1.31249999 -1.324219,1.31249999 -0.386719,0 -0.539062,-0.328125 -0.539062,-0.65625 0,-0.22265625 0.05859,-0.44531249 0.164062,-0.87890629 z m 0,0"
         style="fill:#eb0a36;fill-opacity:1;fill-rule:nonzero;stroke:none" />
      <path
         id="path22"
         d="m 69.207336,-4.8806484 h -0.234375 c -0.02344,0.1523437 -0.08203,0.5625 -0.175781,0.6328125 -0.05859,0.035156 -0.597657,0.035156 -0.691407,0.035156 h -1.289062 c 0.738281,-0.6445312 0.984375,-0.84375 1.394531,-1.171875 0.515625,-0.4101562 0.996094,-0.84375 0.996094,-1.5 0,-0.84375 -0.738281,-1.359375 -1.628906,-1.359375 -0.867188,0 -1.453125,0.609375 -1.453125,1.2421875 0,0.3632813 0.304687,0.3984375 0.375,0.3984375 0.164062,0 0.375,-0.1171875 0.375,-0.375 0,-0.1289062 -0.05859,-0.3632812 -0.421875,-0.3632812 0.222656,-0.5039063 0.691406,-0.65625 1.019531,-0.65625 0.703125,0 1.066406,0.5507812 1.066406,1.1132812 0,0.609375 -0.433594,1.0898438 -0.65625,1.3359375 l -1.6875,1.6640625 c -0.07031,0.058594 -0.07031,0.070312 -0.07031,0.2695313 h 2.882812 z m 0,0"
         style="fill:#eb0a36;fill-opacity:1;fill-rule:nonzero;stroke:none" />
      <path
         id="path23"
         d="m 76.452453,-2.2966641 h 2.777344 c 0.140625,0 0.328125,0 0.328125,-0.1992187 0,-0.1992188 -0.1875,-0.1992188 -0.328125,-0.1992188 h -2.777344 v -2.7890625 c 0,-0.1289062 0,-0.328125 -0.199219,-0.328125 -0.199218,0 -0.199218,0.1992188 -0.199218,0.328125 v 2.7890625 h -2.789063 c -0.140625,0 -0.328125,0 -0.328125,0.1992188 0,0.1992187 0.1875,0.1992187 0.328125,0.1992187 h 2.789063 v 2.80078129 c 0,0.12890625 0,0.328125 0.199218,0.328125 0.199219,0 0.199219,-0.19921875 0.199219,-0.328125 z m 8.8125,-4.078125 c 0,-0.234375 0,-0.2578125 -0.234375,-0.2578125 -0.609375,0.6328125 -1.488281,0.6328125 -1.804687,0.6328125 v 0.3164063 c 0.199218,0 0.785156,0 1.300781,-0.2578125 v 5.15624999 c 0,0.3515625 -0.03516,0.48046875 -0.925781,0.48046875 H 83.284484 V 2.109375e-4 C 83.636047,-0.03494531 84.491516,-0.03494531 84.889953,-0.03494531 c 0.398438,0 1.265625,0 1.617188,0.0351562475 V -0.30447656 h -0.316407 c -0.902343,0 -0.925781,-0.1171875 -0.925781,-0.48046875 z m 0,0"
         style="fill:#eb0a36;fill-opacity:1;fill-rule:nonzero;stroke:none" />
    </g>
    <path
       id="path24"
       d="m 1.2647031,-0.7604375 1.0546875,-1.03125 c 1.5585938,-1.3710937 2.15625,-1.9101562 2.15625,-2.90625 0,-1.1367187 -0.9023437,-1.9335937 -2.1210937,-1.9335937 -1.125,0 -1.85156252,0.9140625 -1.85156252,1.8046875 0,0.5507812 0.4921875,0.5507812 0.52734372,0.5507812 0.1640625,0 0.515625,-0.1171875 0.515625,-0.5273437 0,-0.2578125 -0.1875,-0.515625 -0.5273437,-0.515625 -0.0820313,0 -0.10546877,0 -0.12890627,0.011719 0.22265627,-0.6445312 0.76171877,-1.0195312 1.33593747,-1.0195312 0.9140625,0 1.3359375,0.8085937 1.3359375,1.6289062 0,0.796875 -0.4921875,1.5820313 -1.0429687,2.203125 L 0.60845313,-0.362 C 0.50298438,-0.25653125 0.50298438,-0.23309375 0.50298438,0.00128125 H 4.1943906 l 0.28125,-1.73437495 H 4.2178281 c -0.046875,0.3046875 -0.1171875,0.7382812 -0.2109375,0.89062495 -0.070312,0.0820313 -0.7265625,0.0820313 -0.9492187,0.0820313 z m 0,0"
       style="fill:#000000;fill-opacity:1;fill-rule:nonzero;stroke:none"
       aria-label="2"
       transform="matrix(1.3333333,0,0,1.3333333,188.27467,224.48267)" />
    <g
       id="g24"
       aria-label="−3"
       transform="matrix(1.3333333,0,0,1.3333333,139.272,256)">
      <path
         id="path25"
         d="m 6.5635781,-2.296875 c 0.1757813,0 0.3515625,0 0.3515625,-0.1992188 0,-0.1992187 -0.1757812,-0.1992187 -0.3515625,-0.1992187 h -5.390625 c -0.1640625,0 -0.33984372,0 -0.33984372,0.1992187 0,0.1992188 0.17578122,0.1992188 0.33984372,0.1992188 z m 0,0"
         style="fill:#000000;fill-opacity:1;fill-rule:nonzero;stroke:none" />
      <path
         id="path26"
         d="m 10.644633,-3.5039063 c 0.808594,-0.2695312 1.394531,-0.9726562 1.394531,-1.7578124 0,-0.8203125 -0.878906,-1.3710938 -1.839844,-1.3710938 -1.0078122,0 -1.7578122,0.5976563 -1.7578122,1.3476563 0,0.3398437 0.2109375,0.5273437 0.5039063,0.5273437 0.3046875,0 0.5039062,-0.2226562 0.5039062,-0.515625 0,-0.4921875 -0.46875,-0.4921875 -0.609375,-0.4921875 0.3046875,-0.4921875 0.9609375,-0.6210937 1.3242187,-0.6210937 0.410156,0 0.949219,0.2226562 0.949219,1.1132812 0,0.1289063 -0.01172,0.703125 -0.269531,1.1367188 -0.304688,0.4804687 -0.644532,0.5156249 -0.8906254,0.5156249 -0.082031,0.011719 -0.3164063,0.035156 -0.3867188,0.035156 -0.082031,0.011719 -0.1523437,0.023437 -0.1523437,0.1171875 0,0.1171875 0.070312,0.1171875 0.234375,0.1171875 h 0.4453129 c 0.808593,0 1.183593,0.6679687 1.183593,1.6523438 0,1.3476562 -0.691406,1.64062495 -1.125,1.64062495 -0.4335934,0 -1.1718747,-0.17578125 -1.5234372,-0.76171875 0.3515625,0.0585938 0.65625,-0.1640625 0.65625,-0.5390625 0,-0.3632812 -0.2695312,-0.5625 -0.5625,-0.5625 -0.234375,0 -0.5507812,0.140625 -0.5507812,0.5742188 0,0.91406245 0.9257812,1.57031245 2.0039064,1.57031245 1.21875,0 2.121094,-0.9140625 2.121094,-1.92187495 0,-0.8203126 -0.621094,-1.5937501 -1.652344,-1.8046873 z m 0,0"
         style="fill:#000000;fill-opacity:1;fill-rule:nonzero;stroke:none" />
    </g>
    <path
       id="path27"
       d="m 2.9304766,-1.6414766 v 0.86718754 c 0,0.3515625 -0.023437,0.46875 -0.7617188,0.46875 H 1.9578203 V -8.515625e-4 C 2.3679766,-0.03600781 2.8953203,-0.03600781 3.3054766,-0.03600781 c 0.421875,0 0.9492187,0 1.359375,0.0351562475 V -0.30553906 H 4.4539141 c -0.7382813,0 -0.7617188,-0.1171875 -0.7617188,-0.46875 V -1.6414766 H 4.6882891 V -1.9578828 H 3.6921953 v -4.5234375 c 0,-0.1992188 0,-0.2578125 -0.1523437,-0.2578125 -0.09375,0 -0.1171875,0 -0.1992188,0.1171875 l -3.05859374,4.6640625 v 0.3164062 z m 0.058594,-0.3164062 H 0.56328906 L 2.9890703,-5.6727266 Z m 0,0"
       style="fill:#000000;fill-opacity:1;fill-rule:nonzero;stroke:none"
       aria-label="4"
       transform="matrix(1.3333333,0,0,1.3333333,218.51067,243.27067)" />
    <path
       id="path28"
       d="m 2.9283906,-6.37475 c 0,-0.234375 0,-0.2578125 -0.234375,-0.2578125 C 2.0846406,-5.99975 1.2057344,-5.99975 0.88932813,-5.99975 v 0.3164063 c 0.19921877,0 0.78515627,0 1.30078127,-0.2578125 v 5.15624995 c 0,0.3515625 -0.035156,0.48046875 -0.9257813,0.48046875 H 0.94792188 V 2.5e-4 C 1.2994844,-0.03490625 2.1549531,-0.03490625 2.5533906,-0.03490625 c 0.3984375,0 1.265625,0 1.6171875,0.03515625 V -0.3044375 H 3.8541719 c -0.9023438,0 -0.9257813,-0.1171875 -0.9257813,-0.48046875 z m 6.7998047,0.3046875 c 0.082031,-0.1171875 0.082031,-0.140625 0.082031,-0.3398437 H 7.3961641 c -1.21875,0 -1.2421875,-0.1289063 -1.2773438,-0.328125 H 5.8727266 L 5.5446016,-4.68725 h 0.2460937 c 0.023437,-0.1523437 0.1171875,-0.7851562 0.2460938,-0.9023437 0.070312,-0.058594 0.84375,-0.058594 0.9726562,-0.058594 h 2.0625 C 8.9664766,-5.484125 8.1813203,-4.406 7.9586641,-4.077875 c -0.890625,1.3476563 -1.21875,2.7304688 -1.21875,3.75 0,0.09375 0,0.55078125 0.4570312,0.55078125 0.4570313,0 0.4570313,-0.45703125 0.4570313,-0.55078125 v -0.50390625 c 0,-0.55078125 0.023437,-1.10156245 0.1054687,-1.64062495 0.046875,-0.2226563 0.1757813,-1.078125 0.6210938,-1.6992188 z m 0,0"
       style="fill:#000000;fill-opacity:1;fill-rule:nonzero;stroke:none"
       aria-label="17"
       transform="matrix(1.3333333,0,0,1.3333333,142.96267,105.37467)" />
  </g>
</svg>
