<?xml version="1.0" encoding="UTF-8" standalone="no"?>
<!-- Created with Inkscape (http://www.inkscape.org/) -->

<svg
   version="1.1"
   id="svg1"
   width="200.82956"
   height="174.80174"
   viewBox="0 0 200.82956 174.80174"
   sodipodi:docname="4.5-funcion3.svg"
   inkscape:version="1.4.2 (f4327f4, 2025-05-13)"
   xmlns:inkscape="http://www.inkscape.org/namespaces/inkscape"
   xmlns:sodipodi="http://sodipodi.sourceforge.net/DTD/sodipodi-0.dtd"
   xmlns="http://www.w3.org/2000/svg"
   xmlns:svg="http://www.w3.org/2000/svg">
  <defs
     id="defs1" />
  <sodipodi:namedview
     id="namedview1"
     pagecolor="#ffffff"
     bordercolor="#000000"
     borderopacity="0.25"
     inkscape:showpageshadow="2"
     inkscape:pageopacity="0.0"
     inkscape:pagecheckerboard="0"
     inkscape:deskcolor="#d1d1d1"
     inkscape:zoom="2.2241536"
     inkscape:cx="103.63493"
     inkscape:cy="102.2861"
     inkscape:window-width="1920"
     inkscape:window-height="1009"
     inkscape:window-x="-8"
     inkscape:window-y="-8"
     inkscape:window-maximized="1"
     inkscape:current-layer="g1">
    <inkscape:page
       x="0"
       y="0"
       inkscape:label="45"
       id="page1"
       width="200.82956"
       height="174.80174"
       margin="0"
       bleed="0" />
  </sodipodi:namedview>
  <g
     id="g1"
     inkscape:groupmode="layer"
     inkscape:label="45"
     transform="translate(-138.54935,-78.972655)">
    <path
       id="path2"
       d="M -70.867,0 H 70.40874"
       style="fill:none;stroke:#000000;stroke-width:0.3985;stroke-linecap:butt;stroke-linejoin:miter;stroke-miterlimit:10;stroke-dasharray:none;stroke-opacity:1"
       transform="matrix(1.3333333,0,0,-1.3333333,233.03867,215.97867)" />
    <path
       id="path3"
       d="M -1.19551,1.59401 C -1.09587,0.99626 0,0.09961 0.29886,0 0,-0.09961 -1.09587,-0.99626 -1.19551,-1.59401"
       style="fill:none;stroke:#000000;stroke-width:0.31879;stroke-linecap:round;stroke-linejoin:round;stroke-miterlimit:10;stroke-dasharray:none;stroke-opacity:1"
       transform="matrix(1.3333333,0,0,-1.3333333,326.91699,215.97867)" />
    <path
       id="path4"
       d="m 3.6448516,-3.2923672 c 0.070312,-0.28125 0.3164062,-1.2890625 1.078125,-1.2890625 0.058594,0 0.3164062,0 0.5507812,0.140625 -0.3046875,0.058594 -0.5273437,0.328125 -0.5273437,0.5859375 0,0.1757813 0.1171875,0.3867188 0.4101562,0.3867188 0.2460938,0 0.5976563,-0.1992188 0.5976563,-0.6328125 0,-0.5625 -0.6445313,-0.7265625 -1.0195313,-0.7265625 -0.6328125,0 -1.0195312,0.5859375 -1.1484375,0.8320312 -0.2695312,-0.7148437 -0.8554687,-0.8320312 -1.171875,-0.8320312 -1.1367187,0 -1.75781249,1.4179687 -1.75781249,1.6875 0,0.1054687 0.10546875,0.1054687 0.12890625,0.1054687 0.0820313,0 0.1171875,-0.023437 0.140625,-0.1171875 0.37500004,-1.1601562 1.08984374,-1.4296875 1.46484374,-1.4296875 0.2109375,0 0.5859375,0.09375 0.5859375,0.7265625 0,0.3398438 -0.1875,1.078125 -0.5859375,2.6015625 -0.1757812,0.67968751 -0.5625,1.13671876 -1.0429687,1.13671876 -0.058594,0 -0.3164063,0 -0.53906254,-0.140625 0.26953124,-0.0585938 0.51562504,-0.29296875 0.51562504,-0.59765625 0,-0.29296871 -0.2460938,-0.37500001 -0.41015629,-0.37500001 -0.328125,0 -0.59765625,0.28125001 -0.59765625,0.63281251 0,0.50390625 0.55078125,0.71484375 1.03125004,0.71484375 0.7148437,0 1.1015625,-0.76171875 1.1367187,-0.83203125 0.1289063,0.41015625 0.5273438,0.83203125 1.1835938,0.83203125 1.125,0 1.7460937,-1.40624996 1.7460937,-1.67578126 0,-0.1054687 -0.1054687,-0.1054687 -0.1289062,-0.1054687 -0.1054688,0 -0.1289063,0.035156 -0.140625,0.1171875 -0.3632813,1.16015621 -1.1132813,1.42968746 -1.453125,1.42968746 -0.4335938,0 -0.609375,-0.3515625 -0.609375,-0.7265625 0,-0.23437496 0.070312,-0.48046876 0.1875,-0.96093746 z m 0,0"
       style="fill:#000000;fill-opacity:1;fill-rule:nonzero;stroke:none"
       aria-label="x"
       transform="matrix(1.3333333,0,0,1.3333333,323.37067,227.35467)" />
    <path
       id="path5"
       d="M 0,-28.3468 V 98.75554"
       style="fill:none;stroke:#000000;stroke-width:0.3985;stroke-linecap:butt;stroke-linejoin:miter;stroke-miterlimit:10;stroke-dasharray:none;stroke-opacity:1"
       transform="matrix(1.3333333,0,0,-1.3333333,233.03867,215.97867)" />
    <path
       id="path6"
       d="M -1.19551,1.59401 C -1.09587,0.99626 0,0.09961 0.29886,0 0,-0.09961 -1.09587,-0.99626 -1.19551,-1.59401"
       style="fill:none;stroke:#000000;stroke-width:0.31879;stroke-linecap:round;stroke-linejoin:round;stroke-miterlimit:10;stroke-dasharray:none;stroke-opacity:1"
       transform="matrix(0,-1.3333333,-1.3333333,0,233.03867,84.304613)" />
    <path
       id="path7"
       d="m 5.2979531,-4.1615391 c 0.046875,-0.1523437 0.046875,-0.1757812 0.046875,-0.2460937 0,-0.1992188 -0.1523437,-0.2929688 -0.3164062,-0.2929688 -0.1054688,0 -0.28125,0.058594 -0.375,0.2226563 -0.023437,0.058594 -0.1171875,0.3984375 -0.1523438,0.5976562 -0.082031,0.28125 -0.1523437,0.5742188 -0.2226562,0.8671875 l -0.4921875,1.96875 c -0.046875,0.16406254 -0.515625,0.92578129 -1.2304688,0.92578129 -0.5625,0 -0.6796875,-0.48046875 -0.6796875,-0.89062499 0,-0.4921875 0.1875,-1.171875 0.5625,-2.1328125 0.1757813,-0.4453125 0.2109375,-0.5742188 0.2109375,-0.7851563 0,-0.4921875 -0.3515625,-0.9023437 -0.890625,-0.9023437 -1.04296872,0 -1.44140622,1.5820312 -1.44140622,1.6875 0,0.1054687 0.10546875,0.1054687 0.12890625,0.1054687 0.10546875,0 0.1171875,-0.023437 0.17578125,-0.1992187 0.29296875,-1.0195313 0.72656252,-1.3476563 1.10156252,-1.3476563 0.09375,0 0.2695312,0 0.2695312,0.3515625 0,0.2695313 -0.1054687,0.5507813 -0.1757812,0.7617188 -0.4453125,1.1601562 -0.6328125,1.78125 -0.6328125,2.2851562 0,0.97265629 0.6796875,1.30078129 1.3242187,1.30078129 0.421875,0 0.796875,-0.1875 1.1015625,-0.4921875 -0.140625,0.57421875 -0.2695312,1.1015625 -0.703125,1.68750001 -0.2929687,0.3632812 -0.703125,0.6796875 -1.2070312,0.6796875 -0.1523438,0 -0.6445313,-0.023437 -0.83203127,-0.4570313 0.17578127,0 0.31640627,0 0.48046877,-0.1289062 0.1054687,-0.09375 0.2109375,-0.234375 0.2109375,-0.44531251 0,-0.33984375 -0.2929688,-0.38671875 -0.3984375,-0.38671875 -0.25781252,0 -0.60937502,0.17578125 -0.60937502,0.71484376 0,0.5390625 0.48046872,0.9492187 1.14843752,0.9492187 1.125,0 2.25,-0.9960937 2.5546875,-2.22656246 z m 0,0"
       style="fill:#000000;fill-opacity:1;fill-rule:nonzero;stroke:none"
       aria-label="y"
       transform="matrix(1.3333333,0,0,1.3333333,220.272,85.412)" />
    <path
       id="path8"
       d="m -56.69362,-1.0372 c 0,0 0.56879,-0.02966 0.78723,-0.04175 0.21845,-0.01208 0.56877,-0.03236 0.78722,-0.04541 0.21844,-0.01306 0.56879,-0.03531 0.78722,-0.04866 0.21845,-0.01335 0.56878,-0.034 0.78721,-0.04759 0.21846,-0.01358 0.56879,-0.03591 0.78722,-0.05039 0.21846,-0.01449 0.56878,-0.03874 0.78723,-0.05406 0.21844,-0.01534 0.56877,-0.04103 0.78722,-0.05646 0.21844,-0.01541 0.56878,-0.03921 0.78721,-0.05471 0.21846,-0.01551 0.56879,-0.04027 0.78722,-0.0571 0.21846,-0.01683 0.56878,-0.04679 0.78721,-0.06423 0.21846,-0.01742 0.56879,-0.04417 0.78723,-0.06141 0.21845,-0.01726 0.56878,-0.04454 0.78722,-0.06295 0.21845,-0.01837 0.56879,-0.05081 0.78722,-0.06964 0.21846,-0.0188 0.56878,-0.04681 0.78721,-0.06594 0.21846,-0.01915 0.56879,-0.05199 0.78722,-0.07203 0.21846,-0.02005 0.56879,-0.05223 0.78723,-0.07245 0.21845,-0.02022 0.56877,-0.05233 0.78722,-0.07332 0.21844,-0.02096 0.56878,-0.05558 0.78721,-0.07784 0.21847,-0.02228 0.56879,-0.05991 0.78722,-0.08263 0.21846,-0.02271 0.56879,-0.05809 0.78722,-0.0811 0.21846,-0.023 0.56878,-0.06143 0.78723,-0.08476 0.21844,-0.02335 0.56877,-0.05941 0.78721,-0.0835 0.21845,-0.02409 0.56879,-0.0654 0.78722,-0.09018 0.21846,-0.02478 0.56879,-0.06325 0.78722,-0.08845 0.21845,-0.02521 0.56878,-0.06719 0.78721,-0.0932 0.21846,-0.02602 0.56879,-0.06801 0.78724,-0.0943 0.21844,-0.02629 0.56876,-0.06834 0.78721,-0.09517 0.21844,-0.02681 0.56879,-0.07099 0.78722,-0.09818 0.21846,-0.02717 0.56878,-0.06991 0.78721,-0.09776 0.21846,-0.02783 0.56879,-0.07456 0.78722,-0.10293 0.21846,-0.0284 0.56878,-0.07294 0.78723,-0.10166 0.21844,-0.0287 0.56877,-0.07613 0.78721,-0.10532 0.21845,-0.0292 0.5688,-0.07606 0.78722,-0.1051 0.21846,-0.02905 0.56879,-0.07506 0.78722,-0.10425 0.21846,-0.02919 0.56878,-0.07672 0.78721,-0.10618 0.21846,-0.02945 0.56879,-0.07643 0.78724,-0.1062 0.21844,-0.02976 0.56877,-0.07882 0.78721,-0.10834 0.21845,-0.02953 0.56879,-0.07506 0.78722,-0.10445 0.21846,-0.0294 0.56878,-0.07823 0.78721,-0.1075 0.21847,-0.02925 0.56879,-0.0749 0.78722,-0.10338 0.21846,-0.02847 0.56879,-0.0738 0.78723,-0.10186 0.21845,-0.02805 0.56877,-0.0728 0.78722,-0.10034 0.21844,-0.02755 0.56879,-0.07149 0.78721,-0.09819 0.21846,-0.02671 0.56879,-0.06882 0.78722,-0.09429 0.21846,-0.02548 0.56879,-0.06489 0.78722,-0.08932 0.21845,-0.02442 0.56878,-0.06357 0.78723,-0.08672 0.21844,-0.02316 0.56877,-0.05907 0.78722,-0.08023 0.21844,-0.02119 0.56878,-0.05347 0.78721,-0.07247 0.21846,-0.01898 0.56879,-0.04771 0.78722,-0.06445 0.21846,-0.01674 0.56878,-0.04178 0.78721,-0.05623 0.21846,-0.01445 0.56879,-0.0366 0.78723,-0.048 0.21845,-0.0114 0.56878,-0.02632 0.78722,-0.03418 0.21845,-0.00786 0.56879,-0.01819 0.78721,-0.02248 0.21847,-0.00428 0.5688,-0.00839 0.78722,-0.00843 0.21846,-7e-5 0.56879,0.00329 0.78722,0.00799 0.21846,0.00472 0.56879,0.01588 0.78723,0.02596 0.21845,0.01008 0.56877,0.03077 0.78722,0.0467 0.21844,0.01593 0.56878,0.04593 0.78721,0.06813 0.21846,0.02221 0.56879,0.06255 0.78722,0.09192 0.21846,0.02937 0.56878,0.0824 0.78722,0.1198 0.21846,0.03741 0.56878,0.10368 0.78723,0.14989 0.21844,0.0462 0.56877,0.12742 0.78721,0.18318 0.21845,0.05574 0.56879,0.15242 0.78722,0.21864 0.21846,0.06623 0.56879,0.18086 0.78722,0.25867 0.21846,0.0778 0.56878,0.21165 0.78721,0.30212 0.21846,0.09047 0.56879,0.24559 0.78723,0.34992 0.21845,0.10434 0.56877,0.28253 0.78722,0.40205 0.21844,0.1195 0.56879,0.3233 0.78722,0.45935 0.21846,0.13605 0.56878,0.36716 0.78721,0.52121 0.21846,0.15405 0.56879,0.41538 0.78722,0.58911 0.21846,0.17374 0.56878,0.46793 0.78723,0.66309 0.21844,0.19516 0.56877,0.52518 0.78722,0.74353 0.21841,0.21832 0.56875,0.58664 0.78718,0.83023 0.21846,0.24359 0.56877,0.6543 0.78722,0.92541 C 1.77902,2.01314 2.12935,2.46968 2.3478,2.77061 2.56624,3.07155 2.91656,3.57774 3.13503,3.911 3.35345,4.24425 3.70378,4.80423 3.92224,5.1725 4.14067,5.54076 4.49101,6.15903 4.70946,6.56526 4.9279,6.97148 5.27823,7.65297 5.49667,8.10034 5.71512,8.54771 6.06544,9.2978 6.28389,9.78961 c 0.21844,0.49181 0.56877,1.31549 0.78723,1.85538 0.21843,0.53987 0.56876,1.44389 0.78722,2.03574 0.21843,0.59185 0.56877,1.58197 0.78721,2.22995 0.21845,0.64796 0.56877,1.73159 0.78722,2.44017 0.21844,0.70858 0.56877,1.89279 0.78723,2.6668 0.21843,0.77402 0.56876,2.06716 0.78722,2.91185 0.21843,0.84469 0.56875,2.25525 0.78721,3.17612 0.21843,0.92087 0.56877,2.4581 0.78722,3.46095 0.21845,1.00287 0.56877,2.67575 0.78722,3.76699 0.21844,1.09123 0.56877,2.91127 0.78723,4.09785 0.21843,1.1866 0.56875,3.16498 0.78721,4.45429 0.21843,1.2893 0.56876,3.43847 0.78722,4.83815 0.21843,1.39967 0.56877,3.73126 0.78722,5.24972 0.21844,1.51846 0.56877,4.04785 0.78721,5.69435 0.21844,1.64652 0.56877,4.38854 0.78724,6.17253 0.21842,1.784 0.56875,4.75341 0.78721,6.68532 0.21843,1.9319 0.56876,5.14754 0.78722,7.23851 0.21843,2.09098 0.56877,5.57009 0.78721,7.83176 0.21845,2.26167 0.78722,8.46887 0.78722,8.46887"
       style="fill:none;stroke:#eb0a36;stroke-width:0.79701;stroke-linecap:butt;stroke-linejoin:miter;stroke-miterlimit:10;stroke-dasharray:none;stroke-opacity:1"
       transform="matrix(1.3333333,0,0,-1.3333333,233.03867,215.97867)" />
    <path
       id="path9"
       d="m -27.21292,-3.82686 c 0,0.62622 -0.50765,1.13388 -1.13388,1.13388 -0.62624,0 -1.13388,-0.50766 -1.13388,-1.13388 0,-0.62624 0.50764,-1.13389 1.13388,-1.13389 0.62623,0 1.13388,0.50765 1.13388,1.13389 z"
       style="fill:#eb0a36;fill-opacity:1;fill-rule:nonzero;stroke:#eb0a36;stroke-width:0.3985;stroke-linecap:butt;stroke-linejoin:miter;stroke-miterlimit:10;stroke-dasharray:none;stroke-opacity:1"
       transform="matrix(1.3333333,0,0,-1.3333333,233.03867,215.97867)" />
    <path
       id="path10"
       d="m -13.0395,-5.24408 c 0,0.62622 -0.50766,1.13388 -1.13389,1.13388 -0.62623,0 -1.13389,-0.50766 -1.13389,-1.13388 0,-0.62624 0.50766,-1.13388 1.13389,-1.13388 0.62623,0 1.13389,0.50764 1.13389,1.13388 z"
       style="fill:#eb0a36;fill-opacity:1;fill-rule:nonzero;stroke:#eb0a36;stroke-width:0.3985;stroke-linecap:butt;stroke-linejoin:miter;stroke-miterlimit:10;stroke-dasharray:none;stroke-opacity:1"
       transform="matrix(1.3333333,0,0,-1.3333333,233.03867,215.97867)" />
    <g
       id="g10"
       aria-label="f(x)=xe&#10;x"
       transform="matrix(1.3333333,0,0,1.3333333,276.61333,162.60667)">
      <path
         id="path11"
         d="m 3.6562109,-3.9852734 h 0.8554688 c 0.1992187,0 0.3046875,0 0.3046875,-0.1992188 0,-0.1054687 -0.1054688,-0.1054687 -0.2695313,-0.1054687 H 3.7148047 l 0.2109375,-1.1367188 c 0.035156,-0.2109375 0.1757812,-0.9140625 0.234375,-1.0429687 0.09375,-0.1875 0.2578125,-0.3398438 0.46875,-0.3398438 0.046875,0 0.3046875,0 0.4921875,0.1875 -0.4335938,0.035156 -0.5390625,0.3867188 -0.5390625,0.5390625 0,0.2226563 0.1757812,0.3398438 0.3632812,0.3398438 0.2695313,0 0.5507813,-0.2109375 0.5507813,-0.5976563 0,-0.4570312 -0.4570313,-0.6796875 -0.8671875,-0.6796875 -0.3398438,0 -0.9609375,0.1757813 -1.265625,1.1601563 -0.058594,0.2109375 -0.082031,0.3164062 -0.328125,1.5703125 H 2.3554297 c -0.1992188,0 -0.3046875,0 -0.3046875,0.1875 0,0.1171875 0.09375,0.1171875 0.28125,0.1171875 h 0.65625 l -0.75,3.93749996 C 2.0624609,0.91316406 1.8983984,1.8272266 1.3710547,1.8272266 c -0.035156,0 -0.28125,0 -0.46875001,-0.1875 C 1.3593359,1.6162891 1.4413672,1.2530078 1.4413672,1.1006641 c 0,-0.22265629 -0.1757813,-0.33984379 -0.3632813,-0.33984379 -0.25781246,0 -0.55078121,0.2109375 -0.55078121,0.59765629 0,0.4453125 0.43359375,0.6796875 0.84375001,0.6796875 0.5507812,0 0.9492187,-0.5859375 1.125,-0.9609375 0.328125,-0.63281254 0.5507812,-1.83984379 0.5625,-1.91015629 z m 0,0"
         style="fill:#eb0a36;fill-opacity:1;fill-rule:nonzero;stroke:none" />
      <path
         id="path12"
         d="m 9.2460547,2.3897266 c 0,-0.035156 0,-0.046875 -0.1640625,-0.2226563 -1.2421875,-1.25390624 -1.5703125,-3.12890624 -1.5703125,-4.6640625 0,-1.7226562 0.3867187,-3.4570312 1.6054687,-4.7109375 0.1289063,-0.1171875 0.1289063,-0.1289062 0.1289063,-0.1640625 0,-0.070312 -0.035156,-0.1054687 -0.09375,-0.1054687 -0.1054688,0 -0.9960938,0.6796875 -1.5820313,1.9453125 -0.515625,1.1015625 -0.6328125,2.203125 -0.6328125,3.0351562 0,0.7851563 0.1171875,1.99218751 0.65625,3.11718751 0.5976563,1.21874999 1.453125,1.87499999 1.5585938,1.87499999 0.058594,0 0.09375,-0.035156 0.09375,-0.1054687 z m 0,0"
         style="fill:#eb0a36;fill-opacity:1;fill-rule:nonzero;stroke:none" />
      <path
         id="path13"
         d="m 13.157188,-3.0126172 c 0.05859,-0.2578125 0.292968,-1.171875 0.984375,-1.171875 0.04687,0 0.292968,0 0.503906,0.1289063 -0.28125,0.046875 -0.480469,0.3046875 -0.480469,0.5390625 0,0.1640625 0.105469,0.3515625 0.375,0.3515625 0.222656,0 0.539063,-0.1875 0.539063,-0.5859375 0,-0.515625 -0.585938,-0.65625 -0.925782,-0.65625 -0.574218,0 -0.925781,0.5273437 -1.042968,0.7617187 -0.257813,-0.65625 -0.785157,-0.7617187 -1.078125,-0.7617187 -1.042969,0 -1.605469,1.2890625 -1.605469,1.5351562 0,0.1054688 0.105469,0.1054688 0.117187,0.1054688 0.08203,0 0.117188,-0.023437 0.128907,-0.1171875 0.339843,-1.0546875 0.996093,-1.3007813 1.335937,-1.3007813 0.1875,0 0.539063,0.09375 0.539063,0.6679688 0,0.3046875 -0.164063,0.9726562 -0.539063,2.3671875 -0.152344,0.62109371 -0.503906,1.04296871 -0.949219,1.04296871 -0.05859,0 -0.28125,0 -0.492187,-0.12890625 0.246094,-0.0585938 0.46875,-0.26953125 0.46875,-0.5390625 0,-0.26953126 -0.222656,-0.35156246 -0.375,-0.35156246 -0.292969,0 -0.539063,0.25781246 -0.539063,0.57421871 0,0.45703125 0.492188,0.65625 0.9375,0.65625 0.65625,0 1.007813,-0.69140625 1.042969,-0.75 0.117188,0.36328125 0.480469,0.75 1.078125,0.75 1.019531,0 1.59375,-1.27734371 1.59375,-1.53515621 0,-0.09375 -0.09375,-0.09375 -0.128906,-0.09375 -0.08203,0 -0.105469,0.035156 -0.128906,0.1054687 -0.328125,1.06640626 -0.996094,1.31250001 -1.324219,1.31250001 -0.386719,0 -0.539063,-0.328125 -0.539063,-0.65625 0,-0.22265625 0.05859,-0.44531251 0.164063,-0.87890621 z m 0,0"
         style="fill:#eb0a36;fill-opacity:1;fill-rule:nonzero;stroke:none" />
      <path
         id="path14"
         d="m 18.404258,-2.4969922 c 0,-0.7734375 -0.117188,-1.9804687 -0.65625,-3.1054687 -0.597656,-1.21875 -1.464844,-1.875 -1.558594,-1.875 -0.05859,0 -0.105469,0.046875 -0.105469,0.1054687 0,0.035156 0,0.046875 0.199219,0.234375 0.972656,0.984375 1.535156,2.5664063 1.535156,4.640625 0,1.71093751 -0.363281,3.45703126 -1.59375,4.7226563 -0.140625,0.1171875 -0.140625,0.1289062 -0.140625,0.1640625 0,0.058594 0.04687,0.1054687 0.105469,0.1054687 0.09375,0 0.996094,-0.6796875 1.582031,-1.94531249 0.503907,-1.1015625 0.632813,-2.20312501 0.632813,-3.04687501 z m 10.59668,-0.7617187 c 0.152343,0 0.339843,0 0.339843,-0.1992188 0,-0.1992187 -0.1875,-0.1992187 -0.328125,-0.1992187 h -5.964843 c -0.140625,0 -0.328125,0 -0.328125,0.1992187 0,0.1992188 0.1875,0.1992188 0.339843,0.1992188 z m 0.01172,1.9335937 c 0.140625,0 0.328125,0 0.328125,-0.1992187 0,-0.1992188 -0.1875,-0.1992188 -0.339843,-0.1992188 h -5.941407 c -0.152343,0 -0.339843,0 -0.339843,0.1992188 0,0.1992187 0.1875,0.1992187 0.328125,0.1992187 z m 0,0"
         style="fill:#eb0a36;fill-opacity:1;fill-rule:nonzero;stroke:none" />
      <path
         id="path15"
         d="m 36.002891,-3.0126172 c 0.05859,-0.2578125 0.292968,-1.171875 0.984375,-1.171875 0.04687,0 0.292968,0 0.503906,0.1289063 -0.28125,0.046875 -0.480469,0.3046875 -0.480469,0.5390625 0,0.1640625 0.105469,0.3515625 0.375,0.3515625 0.222656,0 0.539063,-0.1875 0.539063,-0.5859375 0,-0.515625 -0.585938,-0.65625 -0.925782,-0.65625 -0.574218,0 -0.925781,0.5273437 -1.042968,0.7617187 -0.257813,-0.65625 -0.785157,-0.7617187 -1.078125,-0.7617187 -1.042969,0 -1.605469,1.2890625 -1.605469,1.5351562 0,0.1054688 0.105469,0.1054688 0.117187,0.1054688 0.08203,0 0.117188,-0.023437 0.128907,-0.1171875 0.339843,-1.0546875 0.996093,-1.3007813 1.335937,-1.3007813 0.1875,0 0.539063,0.09375 0.539063,0.6679688 0,0.3046875 -0.164063,0.9726562 -0.539063,2.3671875 -0.152344,0.62109371 -0.503906,1.04296871 -0.949219,1.04296871 -0.05859,0 -0.28125,0 -0.492187,-0.12890625 0.246094,-0.0585938 0.46875,-0.26953125 0.46875,-0.5390625 0,-0.26953126 -0.222656,-0.35156246 -0.375,-0.35156246 -0.292969,0 -0.539063,0.25781246 -0.539063,0.57421871 0,0.45703125 0.492188,0.65625 0.9375,0.65625 0.65625,0 1.007813,-0.69140625 1.042969,-0.75 0.117188,0.36328125 0.480469,0.75 1.078125,0.75 1.019531,0 1.59375,-1.27734371 1.59375,-1.53515621 0,-0.09375 -0.09375,-0.09375 -0.128906,-0.09375 -0.08203,0 -0.105469,0.035156 -0.128906,0.1054687 -0.328125,1.06640626 -0.996094,1.31250001 -1.324219,1.31250001 -0.386719,0 -0.539063,-0.328125 -0.539063,-0.65625 0,-0.22265625 0.05859,-0.44531251 0.164063,-0.87890621 z m 4.227539,0.7148438 c 0.292968,0 1.03125,-0.023437 1.523437,-0.234375 0.703125,-0.2929688 0.75,-0.890625 0.75,-1.0195313 0,-0.4453125 -0.386719,-0.8554687 -1.066406,-0.8554687 -1.113281,0 -2.613281,0.9726562 -2.613281,2.7070312 0,1.01953126 0.585937,1.80468751 1.570312,1.80468751 1.417969,0 2.261719,-1.0546875 2.261719,-1.17187501 0,-0.058594 -0.07031,-0.1289062 -0.128906,-0.1289062 -0.04687,0 -0.07031,0.023437 -0.128907,0.09375 -0.785156,0.99609371 -1.875,0.99609371 -1.992187,0.99609371 -0.773438,0 -0.867188,-0.84375 -0.867188,-1.16015621 0,-0.1171875 0.01172,-0.4335938 0.164063,-1.03125 z m -0.46875,-0.2226563 c 0.386718,-1.5117187 1.417968,-1.6640625 1.675781,-1.6640625 0.46875,0 0.738281,0.2929688 0.738281,0.6328125 0,1.03125 -1.59375,1.03125 -2.003906,1.03125 z m 0,0"
         style="fill:#eb0a36;fill-opacity:1;fill-rule:nonzero;stroke:none" />
      <path
         id="path16"
         d="m 44.742148,-4.3544141 c -0.07031,0.234375 -0.292968,0.609375 -0.65625,0.609375 -0.02344,0 -0.222656,0 -0.375,-0.09375 0.28125,-0.09375 0.304688,-0.3398437 0.304688,-0.3867187 0,-0.1523438 -0.117188,-0.2578125 -0.28125,-0.2578125 -0.1875,0 -0.386719,0.1640625 -0.386719,0.4335937 0,0.3398438 0.386719,0.5039063 0.726563,0.5039063 0.316406,0 0.609375,-0.1992188 0.785156,-0.4921875 0.164062,0.3632812 0.550781,0.4921875 0.820312,0.4921875 0.808594,0 1.230469,-0.8671875 1.230469,-1.0664063 0,-0.09375 -0.09375,-0.09375 -0.105469,-0.09375 -0.105468,0 -0.105468,0.035156 -0.140625,0.1171875 -0.140625,0.4804688 -0.5625,0.84375 -0.949218,0.84375 -0.28125,0 -0.421875,-0.1875 -0.421875,-0.4453125 0,-0.1875 0.164062,-0.8203125 0.363281,-1.59375 0.128906,-0.5390625 0.445312,-0.7148437 0.679687,-0.7148437 0.01172,0 0.222657,0 0.375,0.1054687 -0.222656,0.058594 -0.304687,0.2578125 -0.304687,0.375 0,0.1523438 0.117187,0.2578125 0.28125,0.2578125 0.152344,0 0.386719,-0.1289062 0.386719,-0.421875 0,-0.3867187 -0.445313,-0.5039062 -0.726563,-0.5039062 -0.351562,0 -0.632812,0.2226562 -0.785156,0.4921875 -0.117188,-0.2929688 -0.445313,-0.4921875 -0.832031,-0.4921875 -0.785157,0 -1.230469,0.8554687 -1.230469,1.0664062 0,0.082031 0.105469,0.082031 0.117187,0.082031 0.09375,0 0.105469,-0.023437 0.140625,-0.1171875 0.175782,-0.5390625 0.609375,-0.84375 0.949219,-0.84375 0.234375,0 0.421875,0.1289062 0.421875,0.46875 0,0.1289062 -0.08203,0.4804687 -0.152344,0.7148437 z m 0,0"
         style="fill:#eb0a36;fill-opacity:1;fill-rule:nonzero;stroke:none" />
    </g>
  </g>
</svg>
