<?xml version="1.0" encoding="UTF-8" standalone="no"?>
<!-- Created with Inkscape (http://www.inkscape.org/) -->

<svg
   version="1.1"
   id="svg1"
   width="173.74112"
   height="235.27251"
   viewBox="0 0 173.74112 235.27251"
   sodipodi:docname="3.7-ejemplo-funciones.svg"
   inkscape:version="1.4.2 (f4327f4, 2025-05-13)"
   xmlns:inkscape="http://www.inkscape.org/namespaces/inkscape"
   xmlns:sodipodi="http://sodipodi.sourceforge.net/DTD/sodipodi-0.dtd"
   xmlns="http://www.w3.org/2000/svg"
   xmlns:svg="http://www.w3.org/2000/svg">
  <defs
     id="defs1" />
  <sodipodi:namedview
     id="namedview1"
     pagecolor="#ffffff"
     bordercolor="#000000"
     borderopacity="0.25"
     inkscape:showpageshadow="2"
     inkscape:pageopacity="0.0"
     inkscape:pagecheckerboard="0"
     inkscape:deskcolor="#d1d1d1"
     inkscape:zoom="2.2241536"
     inkscape:cx="90.146651"
     inkscape:cy="126.565"
     inkscape:window-width="1920"
     inkscape:window-height="1009"
     inkscape:window-x="-8"
     inkscape:window-y="-8"
     inkscape:window-maximized="1"
     inkscape:current-layer="g1">
    <inkscape:page
       x="0"
       y="0"
       inkscape:label="35"
       id="page1"
       width="173.74112"
       height="235.27251"
       margin="0"
       bleed="0" />
  </sodipodi:namedview>
  <g
     id="g1"
     inkscape:groupmode="layer"
     inkscape:label="35"
     transform="translate(-152.06747,-54.785156)">
    <path
       id="path2"
       d="M -14.17339,0 H 84.58214"
       style="fill:none;stroke:#000000;stroke-width:0.3985;stroke-linecap:butt;stroke-linejoin:miter;stroke-miterlimit:10;stroke-dasharray:none;stroke-opacity:1"
       transform="matrix(1.3333333,0,0,-1.3333333,170.96533,210.68667)" />
    <path
       id="path3"
       d="M -1.19551,1.59401 C -1.09587,0.99626 0,0.09961 0.29886,0 0,-0.09961 -1.09587,-0.99626 -1.19551,-1.59401"
       style="fill:none;stroke:#000000;stroke-width:0.31879;stroke-linecap:round;stroke-linejoin:round;stroke-miterlimit:10;stroke-dasharray:none;stroke-opacity:1"
       transform="matrix(1.3333333,0,0,-1.3333333,283.74152,210.68667)" />
    <path
       id="path4"
       d="m 2.2509219,-4.3598047 h 1.0195312 c 0.2226563,0 0.328125,0 0.328125,-0.2226562 0,-0.1171875 -0.1054687,-0.1171875 -0.3046875,-0.1171875 H 2.3329531 c 0.3984375,-1.546875 0.4453125,-1.7695313 0.4453125,-1.8398438 0,-0.1757812 -0.1289062,-0.2929687 -0.3164062,-0.2929687 -0.023437,0 -0.328125,0.011719 -0.4335938,0.3984375 l -0.421875,1.734375 H 0.57514063 c -0.2109375,0 -0.328125,0 -0.328125,0.1992187 0,0.140625 0.09375,0.140625 0.3046875,0.140625 H 1.5126406 c -0.78515622,3.09375 -0.82031247,3.28125 -0.82031247,3.48046876 0,0.5859375 0.41015627,0.99609375 0.99609377,0.99609375 1.1132812,0 1.734375,-1.59375001 1.734375,-1.67578121 0,-0.1054688 -0.082031,-0.1054688 -0.1289063,-0.1054688 -0.09375,0 -0.1054687,0.023437 -0.1640625,0.1523438 -0.46875,1.12499996 -1.0429687,1.39453121 -1.4179687,1.39453121 -0.2226563,0 -0.3398438,-0.140625 -0.3398438,-0.50390625 0,-0.2578125 0.023437,-0.33984375 0.070312,-0.52734376 z m 0,0"
       style="fill:#000000;fill-opacity:1;fill-rule:nonzero;stroke:none"
       aria-label="t"
       transform="matrix(1.3333333,0,0,1.3333333,281.72533,224.74667)" />
    <path
       id="path5"
       d="m 0,-59.52824 v 172.4572"
       style="fill:none;stroke:#000000;stroke-width:0.3985;stroke-linecap:butt;stroke-linejoin:miter;stroke-miterlimit:10;stroke-dasharray:none;stroke-opacity:1"
       transform="matrix(1.3333333,0,0,-1.3333333,170.96533,210.68667)" />
    <path
       id="path6"
       d="M -1.19551,1.59401 C -1.09587,0.99626 0,0.09961 0.29886,0 0,-0.09961 -1.09587,-0.99626 -1.19551,-1.59401"
       style="fill:none;stroke:#000000;stroke-width:0.31879;stroke-linecap:round;stroke-linejoin:round;stroke-miterlimit:10;stroke-dasharray:none;stroke-opacity:1"
       transform="matrix(0,-1.3333333,-1.3333333,0,170.96533,60.11472)" />
    <path
       id="path7"
       d="m 5.2972891,-4.1601641 c 0.046875,-0.1523437 0.046875,-0.1757812 0.046875,-0.2460937 0,-0.1992188 -0.1523438,-0.2929688 -0.3164063,-0.2929688 -0.1054687,0 -0.28125,0.058594 -0.375,0.2226563 -0.023437,0.058594 -0.1171875,0.3984375 -0.1523437,0.5976562 -0.082031,0.28125 -0.1523438,0.5742188 -0.2226563,0.8671875 l -0.4921875,1.96875 c -0.046875,0.16406254 -0.515625,0.92578129 -1.2304687,0.92578129 -0.5625,0 -0.6796875,-0.48046875 -0.6796875,-0.89062499 0,-0.4921875 0.1875,-1.171875 0.5625,-2.1328125 0.1757812,-0.4453125 0.2109375,-0.5742188 0.2109375,-0.7851563 0,-0.4921875 -0.3515625,-0.9023437 -0.890625,-0.9023437 -1.04296879,0 -1.44140629,1.5820312 -1.44140629,1.6875 0,0.1054687 0.10546875,0.1054687 0.12890625,0.1054687 0.10546875,0 0.1171875,-0.023437 0.17578125,-0.1992187 0.29296875,-1.0195313 0.72656249,-1.3476563 1.10156249,-1.3476563 0.09375,0 0.2695313,0 0.2695313,0.3515625 0,0.2695313 -0.1054688,0.5507813 -0.1757813,0.7617188 -0.4453125,1.1601562 -0.6328125,1.78125 -0.6328125,2.2851562 0,0.97265629 0.6796875,1.30078129 1.3242188,1.30078129 0.421875,0 0.796875,-0.1875 1.1015625,-0.4921875 -0.140625,0.57421875 -0.2695313,1.1015625 -0.703125,1.68750001 -0.2929688,0.3632812 -0.703125,0.6796875 -1.2070313,0.6796875 -0.1523437,0 -0.6445312,-0.023437 -0.83203124,-0.4570313 0.17578124,0 0.31640624,0 0.48046874,-0.1289062 0.1054688,-0.09375 0.2109375,-0.234375 0.2109375,-0.44531251 0,-0.33984375 -0.2929687,-0.38671875 -0.3984375,-0.38671875 -0.25781249,0 -0.60937499,0.17578125 -0.60937499,0.71484376 0,0.5390625 0.48046879,0.9492187 1.14843749,0.9492187 1.125,0 2.25,-0.9960937 2.5546875,-2.22656246 z m 0,0"
       style="fill:#000000;fill-opacity:1;fill-rule:nonzero;stroke:none"
       aria-label="y"
       transform="matrix(1.3333333,0,0,1.3333333,158.19867,61.222667)" />
    <path
       id="path8"
       d="m 0,0 c 0,0 0.51704,1.36699 0.71562,1.86768 0.1986,0.50068 0.51706,1.275 0.71564,1.74098 0.19858,0.46597 0.51704,1.18533 0.71564,1.61748 0.19857,0.43211 0.51704,1.09774 0.71562,1.497 0.19859,0.39926 0.51706,1.01339 0.71564,1.38066 0.19859,0.36728 0.51705,0.93035 0.71564,1.26649 0.19857,0.33611 0.51704,0.85017 0.71563,1.15615 0.19858,0.30599 0.51704,0.77243 0.71562,1.04914 0.1986,0.27668 0.51706,0.69673 0.71564,0.94508 0.19858,0.24837 0.51704,0.62402 0.71564,0.84497 0.19857,0.22093 0.51704,0.55301 0.71563,0.74742 0.19858,0.1944 0.51704,0.48495 0.71563,0.65378 0.19859,0.16882 0.51705,0.41885 0.71563,0.56294 0.19858,0.14411 0.51705,0.35535 0.71564,0.47559 0.19858,0.12022 0.51704,0.29364 0.71562,0.39101 0.19859,0.09736 0.51708,0.23532 0.71565,0.31079 0.1986,0.07545 0.51707,0.17875 0.71564,0.23314 0.19858,0.05435 0.51705,0.12452 0.71564,0.15873 0.19858,0.0342 0.51704,0.07283 0.71562,0.0878 0.19859,0.01497 0.51706,0.02344 0.71564,0.02011 0.19859,-0.0033 0.51706,-0.02339 0.71563,-0.04411 0.19858,-0.02073 0.51705,-0.06803 0.71564,-0.10533 0.19858,-0.0373 0.51705,-0.11063 0.71562,-0.1635 0.1986,-0.05286 0.51706,-0.15004 0.71564,-0.21756 0.19858,-0.0675 0.51705,-0.18773 0.71564,-0.26904 0.19858,-0.08132 0.51704,-0.22289 0.71564,-0.31705 0.19857,-0.09416 0.51704,-0.25551 0.71562,-0.3616 0.19859,-0.10611 0.51706,-0.28598 0.71563,-0.40312 0.19858,-0.11715 0.51705,-0.31391 0.71564,-0.4412 0.19858,-0.12729 0.51705,-0.33976 0.71563,-0.47623 0.19859,-0.13647 0.51705,-0.36257 0.71563,-0.50736 0.19859,-0.14478 0.51707,-0.38393 0.71565,-0.53614 0.19858,-0.15217 0.51705,-0.40213 0.71564,-0.56077 0.19858,-0.15865 0.51705,-0.41841 0.71562,-0.58264 0.1986,-0.16422 0.51706,-0.4321 0.71564,-0.601 0.19859,-0.1689 0.51706,-0.44374 0.71564,-0.61638 0.19858,-0.17261 0.51704,-0.45235 0.71563,-0.62782 C 26.67703,10.00061 26.9955,9.71661 27.19408,9.53917 27.39267,9.36176 27.71114,9.07568 27.90971,8.89728 28.10829,8.7189 28.42676,8.43196 28.62535,8.25346 28.82393,8.07495 29.1424,7.7884 29.34099,7.61072 29.53957,7.43301 29.85803,7.14867 30.05661,6.97272 30.2552,6.79675 30.57367,6.51582 30.77225,6.3425 30.97083,6.16919 31.28929,5.89334 31.48788,5.72354 31.68646,5.55373 32.00493,5.284 32.2035,5.11864 32.4021,4.95326 32.72057,4.69164 32.91914,4.5317 33.11774,4.37172 33.43622,4.1194 33.6348,3.9657 33.83337,3.81201 34.15184,3.57047 34.35043,3.42395 34.54901,3.27744 34.86748,3.04808 35.06606,2.90967 35.26465,2.77126 35.58311,2.5557 35.7817,2.4263 35.98029,2.29692 36.29875,2.0966 36.49733,1.97711 36.6959,1.85764 37.01437,1.67375 37.21297,1.56512 37.41154,1.45651 37.73001,1.2911 37.92859,1.19423 38.12718,1.09734 38.44565,0.95105 38.64423,0.86679 38.8428,0.78253 39.16127,0.65756 39.35986,0.58694 39.55844,0.5163 39.8769,0.41386 40.0755,0.3577 40.27408,0.30153 40.59254,0.22289 40.79112,0.18208 40.98972,0.14128 41.30818,0.08806 41.50676,0.06357 41.70534,0.0391 42.0238,0.01286 42.2224,0.0056 c 0.19857,-0.00723 0.51704,-0.0052 0.71562,0.00563 0.19859,0.01083 0.51706,0.04259 0.71564,0.07245 0.19859,0.02986 0.51706,0.09289 0.71564,0.14275 0.19857,0.04983 0.51705,0.14578 0.71565,0.21647 0.19857,0.0707 0.51704,0.2006 0.71562,0.29305 0.19859,0.09245 0.51706,0.25815 0.71563,0.37329 0.19858,0.11513 0.51705,0.31781 0.71564,0.45653 0.19858,0.13871 0.51705,0.38005 0.71564,0.54327 0.19858,0.16324 0.51704,0.44458 0.71562,0.63324 0.1986,0.18864 0.51706,0.51149 0.71564,0.72644 0.19858,0.21497 0.51704,0.5807 0.71564,0.82291 0.19857,0.24221 0.51704,0.65246 0.71563,0.92282 0.19858,0.27035 0.51705,0.72636 0.71562,1.02575 0.1986,0.29941 0.51707,0.80277 0.71564,1.13218 0.19858,0.3294 0.51705,0.88174 0.71564,1.24203 0.19858,0.36028 0.51704,0.96265 0.71562,1.35471 0.19859,0.39207 0.51706,1.04629 0.71564,1.47107 0.19859,0.42477 0.51706,1.13205 0.71563,1.59043 0.19858,0.45839 0.51706,1.22037 0.71566,1.71329 0.19858,0.49292 0.51704,1.31099 0.71562,1.83936 0.19859,0.52836 0.51706,1.40397 0.71564,1.9687 0.19858,0.56474 0.51704,1.4995 0.71563,2.10149 0.19858,0.602 0.51705,1.59717 0.71564,2.2373 0.19858,0.64014 0.51705,1.69713 0.71562,2.37636 0.19859,0.67923 0.51706,1.79987 0.71564,2.5191 0.19858,0.71924 0.51705,1.90453 0.71564,2.66466 0.19858,0.76013 0.51704,2.01192 0.71564,2.81388 0.19857,0.80195 0.51704,2.12146 0.71562,2.96612 0.19859,0.84465 0.51705,2.23331 0.71563,3.12163 0.19858,0.88832 0.51705,2.34791 0.71564,3.28079 0.19858,0.9329 0.51705,2.46446 0.71562,3.4428 0.1986,0.97834 0.51706,2.5837 0.71564,3.60844 0.19859,1.02473 0.51706,2.70512 0.71564,3.77715 0.19858,1.07201 0.51704,2.82905 0.71564,3.94927 0.19857,1.12023 0.51705,2.95521 0.71563,4.12449 0.1986,1.16926 0.51706,3.08355 0.71564,4.30287 0.19857,1.21933 0.51704,3.21493 0.71564,4.4852 0.19857,1.27028 0.51704,3.34803 0.71563,4.67012 0.19858,1.32206 0.51705,3.48362 0.71563,4.85849 0.19859,1.37484 0.71563,5.05052 0.71563,5.05052"
       style="fill:none;stroke:#eb0a36;stroke-width:0.79701;stroke-linecap:butt;stroke-linejoin:miter;stroke-miterlimit:10;stroke-dasharray:none;stroke-opacity:1"
       transform="matrix(1.3333333,0,0,-1.3333333,170.96533,210.68667)" />
    <path
       id="path9"
       d="m 0,38.26857 c 0,0 0.51704,-1.84711 0.71562,-2.54397 0.1986,-0.69687 0.51706,-1.79986 0.71564,-2.47867 C 1.62984,32.56711 1.9483,31.49294 2.1469,30.83215 2.34547,30.17137 2.66394,29.12622 2.86252,28.48349 3.06111,27.84073 3.37958,26.82436 3.57816,26.19968 3.77675,25.575 4.09521,24.58781 4.2938,23.98119 4.49237,23.37457 4.81084,22.41617 5.00943,21.82759 5.20801,21.239 5.52647,20.30956 5.72505,19.73907 5.92365,19.1686 6.24211,18.26833 6.44069,17.71588 6.63927,17.16342 6.95773,16.29178 7.15633,15.75734 7.3549,15.22289 7.67337,14.38031 7.87196,13.8639 8.07054,13.34753 8.389,12.53392 8.58759,12.03557 8.78618,11.53722 9.10464,10.7524 9.30322,10.27211 9.5018,9.79182 9.82027,9.03616 10.01886,8.57397 10.21744,8.11179 10.5359,7.38512 10.73448,6.94093 c 0.19859,-0.4442 0.51708,-1.14224 0.71565,-1.56839 0.1986,-0.42616 0.51707,-1.09498 0.71564,-1.50306 0.19858,-0.4081 0.51705,-1.04816 0.71564,-1.43821 0.19858,-0.39001 0.51704,-1.00094 0.71562,-1.37287 0.19859,-0.37194 0.51706,-0.95385 0.71564,-1.30774 0.19859,-0.35393 0.51706,-0.90718 0.71563,-1.24312 0.19858,-0.33592 0.51705,-0.86019 0.71564,-1.17801 0.19858,-0.31784 0.51705,-0.8129 0.71562,-1.1127 0.1986,-0.29981 0.51706,-0.76628 0.71564,-1.04803 0.19858,-0.28178 0.51705,-0.71908 0.71564,-0.98275 0.19858,-0.26367 0.51704,-0.672 0.71564,-0.91763 0.19857,-0.24564 0.51704,-0.62512 0.71562,-0.85274 0.19859,-0.22763 0.51706,-0.57829 0.71563,-0.78788 0.19858,-0.20956 0.51705,-0.53104 0.71564,-0.72254 0.19858,-0.1915 0.51705,-0.48421 0.71563,-0.65769 0.19859,-0.17346 0.51705,-0.43716 0.71563,-0.59257 0.19859,-0.1554 0.51707,-0.3901 0.71565,-0.52748 0.19858,-0.13736 0.51705,-0.34329 0.71564,-0.46259 0.19858,-0.11931 0.51705,-0.29602 0.71562,-0.39729 0.1986,-0.10126 0.51706,-0.24942 0.71564,-0.33263 0.19859,-0.08321 0.51706,-0.20195 0.71564,-0.26709 0.19858,-0.06514 0.51704,-0.15529 0.71563,-0.20244 0.19858,-0.04711 0.51705,-0.10824 0.71563,-0.13731 0.19859,-0.02908 0.51706,-0.06123 0.71563,-0.07223 0.19858,-0.01102 0.51705,-0.01416 0.71564,-0.0071 0.19858,0.007 0.51705,0.03268 0.71564,0.05773 0.19858,0.02506 0.51704,0.07972 0.71562,0.12285 0.19859,0.04315 0.51706,0.12697 0.71564,0.18816 0.19858,0.06117 0.51704,0.17363 0.71563,0.25281 0.19858,0.07919 0.51705,0.22064 0.71562,0.31791 0.1986,0.09729 0.51707,0.26793 0.71564,0.38323 0.1986,0.11532 0.51708,0.31454 0.71566,0.44791 0.19857,0.13333 0.51704,0.36175 0.71563,0.5132 0.19858,0.15144 0.51705,0.40885 0.71563,0.57829 0.19859,0.16944 0.51705,0.4555 0.71564,0.64297 0.19859,0.18749 0.51705,0.50272 0.71563,0.7083 0.19857,0.20556 0.51704,0.54976 0.71564,0.77336 0.19857,0.2236 0.51704,0.59658 0.71562,0.83827 0.19859,0.24167 0.51706,0.64386 0.71564,0.90357 0.19857,0.2597 0.51704,0.69052 0.71563,0.96823 0.19858,0.27771 0.51704,0.73753 0.71564,1.03334 0.19858,0.2958 0.51704,0.78477 0.71562,1.09865 0.1986,0.31385 0.51706,0.83165 0.71564,1.16351 0.19858,0.33188 0.51704,0.87851 0.71564,1.22841 0.19857,0.34991 0.51704,0.92552 0.71562,1.29349 0.19859,0.36798 0.51706,0.97256 0.71564,1.35859 0.19859,0.38603 0.51706,1.01962 0.71564,1.42369 0.19857,0.40407 0.51705,1.06645 0.71565,1.4886 0.19857,0.42213 0.51704,1.11367 0.71562,1.55388 0.19859,0.44023 0.51706,1.16074 0.71563,1.61901 0.19858,0.45825 0.51705,1.20759 0.71564,1.68385 0.19858,0.47627 0.51705,1.25446 0.71564,1.74876 0.19858,0.4943 0.51704,1.30147 0.71562,1.81385 0.1986,0.51236 0.51706,1.34851 0.71564,1.87893 0.19858,0.53045 0.51704,1.39555 0.71564,1.94405 0.19857,0.54849 0.51704,1.44258 0.71563,2.00914 0.19858,0.56656 0.51705,1.48964 0.71562,2.07423 0.1986,0.5846 0.51707,1.53649 0.71564,2.13912 0.19858,0.60263 0.51705,1.58357 0.71564,2.20422 0.19858,0.62067 0.51704,1.63039 0.71562,2.26909 0.19859,0.63869 0.51706,1.67743 0.71564,2.33418 0.19859,0.65676 0.51706,1.72447 0.71563,2.39931 0.19858,0.67481 0.51706,1.7715 0.71566,2.46437 0.19858,0.69289 0.51704,1.81857 0.71562,2.52948 0.19859,0.71092 0.51706,1.86542 0.71564,2.59438 0.19858,0.72895 0.51704,1.91247 0.71563,2.65945 0.19858,0.74699 0.51705,1.95929 0.71564,2.72435 0.19858,0.76505 0.51705,2.00653 0.71562,2.78964 0.19859,0.78313 0.51706,2.05338 0.71564,2.85454 0.19858,0.80115 0.51705,2.10042 0.71564,2.91963 0.19858,0.81922 0.51704,2.14748 0.71564,2.98473 0.19857,0.83725 0.51704,2.19429 0.71562,3.04961 0.19859,0.85531 0.51705,2.24154 0.71563,3.11491 0.19858,0.87338 0.51705,2.28841 0.71564,3.17982 0.19858,0.8914 0.51705,2.33548 0.71562,3.24489 0.1986,0.90941 0.51706,2.3821 0.71564,3.30956 0.19859,0.92749 0.51706,2.42955 0.71564,3.3751 0.19858,0.94555 0.51704,2.47619 0.71564,3.43976 0.19857,0.96358 0.51705,2.52339 0.71563,3.50507 0.1986,0.98167 0.51706,2.57046 0.71564,3.57017 0.19857,0.99971 0.51704,2.6173 0.71564,3.63505 0.19857,1.01774 0.51704,2.66435 0.71563,3.70014 0.19858,1.0358 0.51705,2.71141 0.71563,3.76525 0.19859,1.05385 0.71563,3.83012 0.71563,3.83012"
       style="fill:none;stroke:#008080;stroke-width:0.79701;stroke-linecap:butt;stroke-linejoin:miter;stroke-miterlimit:10;stroke-dasharray:none;stroke-opacity:1"
       transform="matrix(1.3333333,0,0,-1.3333333,170.96533,210.68667)" />
    <path
       id="path10"
       d="m 0,-51.02477 c 0,0 0.51704,0.93085 0.71562,1.28834 0.1986,0.35745 0.51706,0.93064 0.71564,1.28808 0.19858,0.35744 0.51704,0.93063 0.71564,1.2881 0.19857,0.35747 0.51704,0.93085 0.71562,1.28832 0.19859,0.35746 0.51706,0.93065 0.71564,1.2881 0.19859,0.35742 0.51705,0.93066 0.71564,1.28808 0.19857,0.35745 0.51704,0.93064 0.71563,1.28812 0.19858,0.35745 0.51704,0.93083 0.71562,1.2883 0.1986,0.35747 0.51706,0.93066 0.71564,1.2881 0.19858,0.35744 0.51704,0.93067 0.71564,1.2881 0.19857,0.35744 0.51704,0.93062 0.71563,1.2881 0.19858,0.35746 0.51704,0.93085 0.71563,1.2883 0.19859,0.35749 0.51705,0.93067 0.71563,1.28812 0.19858,0.35742 0.51705,0.93065 0.71564,1.28809 0.19858,0.35743 0.51704,0.93063 0.71562,1.2881 0.19859,0.35746 0.51708,0.93084 0.71565,1.28831 0.1986,0.35747 0.51707,0.93065 0.71564,1.28811 0.19858,0.35741 0.51705,0.93066 0.71564,1.28808 0.19858,0.35745 0.51704,0.93063 0.71562,1.2881 0.19859,0.35747 0.51706,0.93085 0.71564,1.28832 0.19859,0.35746 0.51706,0.93066 0.71563,1.2881 0.19858,0.35743 0.51705,0.93066 0.71564,1.28808 0.19858,0.35745 0.51705,0.93064 0.71562,1.28812 0.1986,0.35745 0.51706,0.93085 0.71564,1.2883 0.19858,0.35748 0.51705,0.93066 0.71564,1.2881 0.19858,0.35744 0.51704,0.93063 0.71564,1.2881 0.19857,0.35747 0.51704,0.93085 0.71562,1.28832 0.19859,0.35746 0.51706,0.93066 0.71563,1.2881 0.19858,0.35743 0.51705,0.93066 0.71564,1.2881 0.19858,0.35742 0.51705,0.93063 0.71563,1.2881 0.19859,0.35747 0.51705,0.93085 0.71563,1.28831 0.19859,0.35746 0.51707,0.93065 0.71565,1.2881 0.19858,0.35743 0.51705,0.93067 0.71564,1.28809 0.19858,0.35745 0.51705,0.93063 0.71562,1.2881 0.1986,0.35747 0.51706,0.93085 0.71564,1.28832 0.19859,0.35746 0.51706,0.93066 0.71564,1.2881 0.19858,0.35744 0.51704,0.93066 0.71563,1.28808 0.19858,0.35746 0.51705,0.93064 0.71563,1.28812 0.19859,0.35746 0.51706,0.93088 0.71563,1.2883 0.19858,0.35745 0.51705,0.93045 0.71564,1.28786 0.19858,0.3574 0.51705,0.93066 0.71564,1.28808 0.19858,0.35746 0.51704,0.93064 0.71562,1.28812 0.19859,0.35745 0.51706,0.93085 0.71564,1.2883 0.19858,0.35748 0.51704,0.93066 0.71563,1.28812 0.19858,0.35742 0.51705,0.93064 0.71562,1.28808 0.1986,0.35744 0.51707,0.93063 0.71564,1.2881 0.1986,0.35747 0.51708,0.93085 0.71566,1.28832 0.19857,0.35747 0.51704,0.93065 0.71563,1.2881 0.19858,0.35742 0.51705,0.93063 0.71563,1.28808 0.19859,0.35749 0.51705,0.93085 0.71564,1.28833 0.19859,0.35746 0.51705,0.93065 0.71563,1.28809 0.19857,0.35744 0.51704,0.93066 0.71564,1.2881 0.19857,0.35744 0.51704,0.93064 0.71562,1.28809 0.19859,0.35748 0.51706,0.93084 0.71564,1.28833 0.19857,0.35745 0.51704,0.93066 0.71563,1.28808 0.19858,0.35746 0.51704,0.93068 0.71564,1.2881 0.19858,0.35744 0.51704,0.93064 0.71562,1.28812 0.1986,0.35746 0.51706,0.93085 0.71564,1.2883 0.19858,0.35747 0.51704,0.93066 0.71564,1.2881 0.19857,0.35744 0.51704,0.93066 0.71562,1.2881 0.19859,0.35744 0.51706,0.93064 0.71564,1.2881 0.19859,0.35747 0.51706,0.93085 0.71564,1.28832 0.19857,0.35747 0.51705,0.93065 0.71565,1.2881 0.19857,0.35742 0.51704,0.93066 0.71562,1.28809 0.19859,0.35745 0.51706,0.93063 0.71563,1.2881 0.19858,0.35747 0.51705,0.93085 0.71564,1.28831 0.19858,0.35747 0.51705,0.93067 0.71564,1.2881 0.19858,0.35744 0.51704,0.93067 0.71562,1.28809 0.1986,0.35745 0.51706,0.93063 0.71564,1.28812 0.19858,0.35745 0.51704,0.93084 0.71564,1.2883 0.19857,0.35748 0.51704,0.93066 0.71563,1.2881 0.19858,0.35743 0.51705,0.93063 0.71562,1.2881 0.1986,0.35747 0.51707,0.93085 0.71564,1.28831 0.19858,0.35747 0.51705,0.93067 0.71564,1.28809 0.19858,0.35745 0.51704,0.93066 0.71562,1.28812 0.19859,0.35741 0.51706,0.93061 0.71564,1.28808 0.19859,0.35747 0.51706,0.93085 0.71563,1.28832 0.19858,0.35746 0.51706,0.93066 0.71566,1.2881 0.19858,0.35743 0.51704,0.93066 0.71562,1.2881 0.19859,0.35744 0.51706,0.93063 0.71564,1.28808 0.19858,0.35749 0.51704,0.93085 0.71563,1.28833 0.19858,0.35746 0.51705,0.93067 0.71564,1.28809 0.19858,0.35745 0.51705,0.93066 0.71562,1.2881 0.19859,0.35744 0.51706,0.93064 0.71564,1.28811 0.19858,0.35746 0.51705,0.93084 0.71564,1.2883 0.19858,0.35748 0.51704,0.93067 0.71564,1.2881 0.19857,0.35745 0.51704,0.93067 0.71562,1.28811 0.19859,0.35742 0.51705,0.93062 0.71563,1.2881 0.19858,0.35745 0.51705,0.93085 0.71564,1.2883 0.19858,0.35747 0.51705,0.93066 0.71562,1.28812 0.1986,0.35742 0.51706,0.93065 0.71564,1.28808 0.19859,0.35744 0.51706,0.93064 0.71564,1.2881 0.19858,0.35747 0.51704,0.93085 0.71564,1.28832 0.19857,0.35747 0.51705,0.93065 0.71563,1.2881 0.1986,0.35742 0.51706,0.93063 0.71564,1.28809 0.19857,0.35748 0.51704,0.93084 0.71564,1.28833 0.19857,0.35745 0.51704,0.93066 0.71563,1.28808 0.19858,0.35745 0.51705,0.93067 0.71563,1.2881 0.19859,0.35744 0.71563,1.2881 0.71563,1.2881"
       style="fill:none;stroke:#8000ff;stroke-width:0.79701;stroke-linecap:butt;stroke-linejoin:miter;stroke-miterlimit:10;stroke-dasharray:none;stroke-opacity:1"
       transform="matrix(1.3333333,0,0,-1.3333333,170.96533,210.68667)" />
    <g
       id="g10"
       aria-label="y=f(t)"
       transform="matrix(1.3333333,0,0,1.3333333,279.368,119.52)">
      <path
         id="path11"
         d="m 4.8392344,-3.7972266 c 0.046875,-0.140625 0.046875,-0.1523437 0.046875,-0.2226562 0,-0.1875 -0.140625,-0.2695313 -0.2929688,-0.2695313 -0.1054687,0 -0.2578125,0.058594 -0.3515625,0.1992188 -0.023437,0.058594 -0.09375,0.3632812 -0.140625,0.5390625 -0.070312,0.2578125 -0.140625,0.5273437 -0.1992187,0.796875 l -0.4453125,1.79296874 c -0.035156,0.15234375 -0.46875,0.85546875 -1.125,0.85546875 -0.5039063,0 -0.6210938,-0.4453125 -0.6210938,-0.80859375 0,-0.45703124 0.1757813,-1.07812504 0.515625,-1.95703124 0.1523438,-0.4101563 0.1992188,-0.515625 0.1992188,-0.7148438 0,-0.4453125 -0.328125,-0.8203125 -0.8203125,-0.8203125 -0.94921877,0 -1.31250002,1.453125 -1.31250002,1.5351563 0,0.1054687 0.09375,0.1054687 0.1171875,0.1054687 0.09375,0 0.10546875,-0.023437 0.15234375,-0.1875 0.26953125,-0.9375 0.66796877,-1.2304687 1.00781247,-1.2304687 0.082031,0 0.2578125,0 0.2578125,0.3164062 0,0.2460938 -0.1054687,0.515625 -0.1757812,0.703125 -0.3984375,1.0546875 -0.5742188,1.6171875 -0.5742188,2.0859375 0,0.89062504 0.6210938,1.18359379 1.21875,1.18359379 0.3867188,0 0.7265625,-0.1640625 0.9960938,-0.4453125 -0.1289063,0.515625 -0.2460938,1.0078125 -0.6445313,1.53515621 -0.2578125,0.3398438 -0.6328125,0.6328125 -1.0898437,0.6328125 -0.140625,0 -0.59765627,-0.035156 -0.76171877,-0.421875 0.1640625,0 0.29296877,0 0.43359377,-0.1171875 0.09375,-0.09375 0.1992187,-0.2226562 0.1992187,-0.41015621 0,-0.31640625 -0.2695312,-0.3515625 -0.375,-0.3515625 -0.22265622,0 -0.55078122,0.1640625 -0.55078122,0.64453121 0,0.5039063 0.43359375,0.8671875 1.05468752,0.8671875 1.0195312,0 2.0507812,-0.9023437 2.3320312,-2.02734371 z m 0,0"
         style="fill:#eb0a36;fill-opacity:1;fill-rule:nonzero;stroke:none" />
      <path
         id="path12"
         d="m 14.855836,-3.2581641 c 0.152344,0 0.339844,0 0.339844,-0.1992187 0,-0.1992188 -0.1875,-0.1992188 -0.328125,-0.1992188 H 8.9027109 c -0.140625,0 -0.328125,0 -0.328125,0.1992188 0,0.1992187 0.1875,0.1992187 0.3398438,0.1992187 z m 0.01172,1.9335938 c 0.140625,0 0.328125,0 0.328125,-0.1992188 0,-0.1992187 -0.1875,-0.1992187 -0.339844,-0.1992187 H 8.9144297 c -0.1523438,0 -0.3398438,0 -0.3398438,0.1992187 0,0.1992188 0.1875,0.1992188 0.328125,0.1992188 z m 0,0"
         style="fill:#eb0a36;fill-opacity:1;fill-rule:nonzero;stroke:none" />
      <path
         id="path13"
         d="m 22.177125,-3.9847266 h 0.855469 c 0.199219,0 0.304687,0 0.304687,-0.1992187 0,-0.1054688 -0.105468,-0.1054688 -0.269531,-0.1054688 h -0.832031 l 0.210937,-1.1367187 c 0.03516,-0.2109375 0.175782,-0.9140625 0.234375,-1.0429688 0.09375,-0.1875 0.257813,-0.3398437 0.46875,-0.3398437 0.04687,0 0.304688,0 0.492188,0.1875 -0.433594,0.035156 -0.539063,0.3867187 -0.539063,0.5390625 0,0.2226562 0.175782,0.3398437 0.363282,0.3398437 0.269531,0 0.550781,-0.2109375 0.550781,-0.5976562 0,-0.4570313 -0.457031,-0.6796875 -0.867188,-0.6796875 -0.339843,0 -0.960937,0.1757812 -1.265625,1.1601562 -0.05859,0.2109375 -0.08203,0.3164063 -0.328125,1.5703125 h -0.679687 c -0.199219,0 -0.304688,0 -0.304688,0.1875 0,0.1171875 0.09375,0.1171875 0.28125,0.1171875 h 0.65625 l -0.75,3.93750004 c -0.175781,0.9609375 -0.339843,1.87499996 -0.867187,1.87499996 -0.03516,0 -0.28125,0 -0.46875,-0.1875 0.457031,-0.023437 0.539062,-0.3867187 0.539062,-0.5390625 0,-0.22265621 -0.175781,-0.33984371 -0.363281,-0.33984371 -0.257812,0 -0.550781,0.2109375 -0.550781,0.59765621 0,0.4453125 0.433594,0.6796875 0.84375,0.6796875 0.550781,0 0.949219,-0.5859375 1.125,-0.9609375 0.328125,-0.63281246 0.550781,-1.83984371 0.5625,-1.91015621 z m 0,0"
         style="fill:#eb0a36;fill-opacity:1;fill-rule:nonzero;stroke:none" />
      <path
         id="path14"
         d="m 27.766969,2.3902734 c 0,-0.035156 0,-0.046875 -0.164063,-0.2226562 -1.242187,-1.25390626 -1.570312,-3.12890626 -1.570312,-4.6640625 0,-1.7226563 0.386719,-3.4570313 1.605469,-4.7109375 0.128906,-0.1171875 0.128906,-0.1289063 0.128906,-0.1640625 0,-0.070312 -0.03516,-0.1054688 -0.09375,-0.1054688 -0.105469,0 -0.996094,0.6796875 -1.582031,1.9453125 -0.515625,1.1015625 -0.632813,2.203125 -0.632813,3.0351563 0,0.7851562 0.117188,1.99218749 0.65625,3.11718749 0.597656,1.21875001 1.453125,1.87500001 1.558594,1.87500001 0.05859,0 0.09375,-0.035156 0.09375,-0.1054688 z m 0,0"
         style="fill:#eb0a36;fill-opacity:1;fill-rule:nonzero;stroke:none" />
      <path
         id="path15"
         d="m 30.400758,-3.9847266 h 0.9375 c 0.199219,0 0.304687,0 0.304687,-0.1992187 0,-0.1054688 -0.105468,-0.1054688 -0.28125,-0.1054688 h -0.878906 c 0.363281,-1.4179687 0.410156,-1.6171875 0.410156,-1.6757812 0,-0.1757813 -0.117187,-0.2695313 -0.292968,-0.2695313 -0.02344,0 -0.304688,0.011719 -0.398438,0.3515625 l -0.386719,1.59375 h -0.9375 c -0.199218,0 -0.292968,0 -0.292968,0.1875 0,0.1171875 0.07031,0.1171875 0.269531,0.1171875 h 0.878906 c -0.714844,2.8242188 -0.75,3.00000004 -0.75,3.17578129 0,0.5390625 0.375,0.9140625 0.914063,0.9140625 1.007812,0 1.582031,-1.45312499 1.582031,-1.53515629 0,-0.09375 -0.08203,-0.09375 -0.117188,-0.09375 -0.09375,0 -0.105468,0.023437 -0.152343,0.140625 -0.433594,1.03125004 -0.960938,1.27734379 -1.300782,1.27734379 -0.199218,0 -0.304687,-0.12890625 -0.304687,-0.45703125 0,-0.24609375 0.02344,-0.31640625 0.05859,-0.48046874 z m 0,0"
         style="fill:#eb0a36;fill-opacity:1;fill-rule:nonzero;stroke:none" />
      <path
         id="path16"
         d="m 34.830445,-2.4964453 c 0,-0.7734375 -0.117187,-1.9804688 -0.65625,-3.1054688 -0.597656,-1.21875 -1.464843,-1.875 -1.558593,-1.875 -0.05859,0 -0.105469,0.046875 -0.105469,0.1054688 0,0.035156 0,0.046875 0.199219,0.234375 0.972656,0.984375 1.535156,2.5664062 1.535156,4.640625 0,1.71093749 -0.363281,3.45703124 -1.59375,4.7226562 -0.140625,0.1171875 -0.140625,0.1289063 -0.140625,0.1640625 0,0.058594 0.04687,0.1054688 0.105469,0.1054688 0.09375,0 0.996093,-0.6796875 1.582031,-1.94531251 0.503906,-1.1015625 0.632812,-2.20312499 0.632812,-3.04687499 z m 0,0"
         style="fill:#eb0a36;fill-opacity:1;fill-rule:nonzero;stroke:none" />
    </g>
    <g
       id="g16"
       aria-label="y=v(t)"
       transform="matrix(1.3333333,0,0,1.3333333,279.876,138.41733)">
      <path
         id="path17"
         d="m 4.8390938,-3.7963984 c 0.046875,-0.140625 0.046875,-0.1523438 0.046875,-0.2226563 0,-0.1875 -0.140625,-0.2695312 -0.2929688,-0.2695312 -0.1054687,0 -0.2578125,0.058594 -0.3515625,0.1992187 -0.023437,0.058594 -0.09375,0.3632813 -0.140625,0.5390625 -0.070312,0.2578125 -0.140625,0.5273438 -0.1992187,0.796875 l -0.4453125,1.79296876 c -0.035156,0.15234375 -0.46875,0.85546875 -1.125,0.85546875 -0.5039063,0 -0.6210938,-0.4453125 -0.6210938,-0.80859375 0,-0.45703126 0.1757813,-1.07812496 0.515625,-1.95703126 0.1523438,-0.4101562 0.1992188,-0.515625 0.1992188,-0.7148437 0,-0.4453125 -0.328125,-0.8203125 -0.8203125,-0.8203125 -0.9492188,0 -1.31250005,1.453125 -1.31250005,1.5351562 0,0.1054688 0.09375,0.1054688 0.1171875,0.1054688 0.09375,0 0.10546875,-0.023437 0.15234375,-0.1875 0.26953125,-0.9375 0.6679688,-1.2304688 1.0078125,-1.2304688 0.082031,0 0.2578125,0 0.2578125,0.3164063 0,0.2460937 -0.1054687,0.515625 -0.1757812,0.703125 -0.3984375,1.0546875 -0.5742188,1.6171875 -0.5742188,2.0859375 0,0.89062496 0.6210938,1.18359371 1.21875,1.18359371 0.3867188,0 0.7265625,-0.1640625 0.9960938,-0.4453125 C 3.1633125,0.17625781 3.046125,0.66844531 2.6476875,1.1957891 2.389875,1.5356328 2.014875,1.8286016 1.5578438,1.8286016 c -0.140625,0 -0.5976563,-0.035156 -0.7617188,-0.421875 0.1640625,0 0.2929688,0 0.4335938,-0.1171875 0.09375,-0.09375 0.1992187,-0.2226563 0.1992187,-0.41015629 0,-0.31640625 -0.2695312,-0.3515625 -0.375,-0.3515625 -0.22265625,0 -0.55078125,0.1640625 -0.55078125,0.64453129 0,0.5039062 0.43359375,0.8671875 1.05468755,0.8671875 1.0195312,0 2.0507812,-0.9023438 2.3320312,-2.02734379 z m 0,0"
         style="fill:#008080;fill-opacity:1;fill-rule:nonzero;stroke:none" />
      <path
         id="path18"
         d="m 14.855695,-3.2573359 c 0.152344,0 0.339844,0 0.339844,-0.1992188 0,-0.1992187 -0.1875,-0.1992187 -0.328125,-0.1992187 H 8.9025703 c -0.140625,0 -0.328125,0 -0.328125,0.1992187 0,0.1992188 0.1875,0.1992188 0.3398438,0.1992188 z m 0.01172,1.9335937 c 0.140625,0 0.328125,0 0.328125,-0.1992187 0,-0.1992188 -0.1875,-0.1992188 -0.339844,-0.1992188 H 8.9142891 c -0.1523438,0 -0.3398438,0 -0.3398438,0.1992188 0,0.1992187 0.1875,0.1992187 0.328125,0.1992187 z m 0,0"
         style="fill:#008080;fill-opacity:1;fill-rule:nonzero;stroke:none" />
      <path
         id="path19"
         d="m 23.184797,-3.7026484 c 0,-0.5390625 -0.257813,-0.703125 -0.445313,-0.703125 -0.246093,0 -0.480468,0.2578125 -0.480468,0.4804687 0,0.1289063 0.04687,0.1875 0.152343,0.3046875 0.210938,0.1992188 0.339844,0.4570313 0.339844,0.8085938 0,0.421875 -0.609375,2.70703121 -1.769531,2.70703121 -0.503906,0 -0.738281,-0.3515625 -0.738281,-0.8671875 0,-0.56250001 0.269531,-1.28906251 0.574218,-2.12109371 0.07031,-0.1640625 0.128907,-0.3046875 0.128907,-0.4921875 0,-0.4453125 -0.328125,-0.8203125 -0.820313,-0.8203125 -0.9375,0 -1.3125,1.453125 -1.3125,1.5351562 0,0.1054688 0.09375,0.1054688 0.117188,0.1054688 0.09375,0 0.105468,-0.023437 0.152343,-0.1875 0.292969,-0.9960938 0.726563,-1.2304688 1.007813,-1.2304688 0.08203,0 0.257812,0 0.257812,0.3164063 0,0.2460937 -0.105468,0.515625 -0.175781,0.703125 -0.433594,1.1484375 -0.5625,1.6054687 -0.5625,2.0390625 0,1.07812496 0.867188,1.23046871 1.335938,1.23046871 1.664062,0 2.238281,-3.29296871 2.238281,-3.80859371 z m 0,0"
         style="fill:#008080;fill-opacity:1;fill-rule:nonzero;stroke:none" />
      <path
         id="path20"
         d="m 27.00218,2.3911016 c 0,-0.035156 0,-0.046875 -0.164063,-0.2226563 -1.242187,-1.25390624 -1.570312,-3.12890624 -1.570312,-4.6640625 0,-1.7226562 0.386718,-3.4570312 1.605468,-4.7109375 0.128907,-0.1171875 0.128907,-0.1289062 0.128907,-0.1640625 0,-0.070312 -0.03516,-0.1054687 -0.09375,-0.1054687 -0.105469,0 -0.996094,0.6796875 -1.582032,1.9453125 -0.515625,1.1015625 -0.632812,2.203125 -0.632812,3.0351562 0,0.7851563 0.117187,1.99218751 0.65625,3.11718751 0.597656,1.21874999 1.453125,1.87499999 1.558594,1.87499999 0.05859,0 0.09375,-0.035156 0.09375,-0.1054687 z m 0,0"
         style="fill:#008080;fill-opacity:1;fill-rule:nonzero;stroke:none" />
      <path
         id="path21"
         d="m 29.633039,-3.9838984 h 0.9375 c 0.199219,0 0.304688,0 0.304688,-0.1992188 0,-0.1054687 -0.105469,-0.1054687 -0.28125,-0.1054687 H 29.71507 c 0.363282,-1.4179688 0.410157,-1.6171875 0.410157,-1.6757813 0,-0.1757812 -0.117188,-0.2695312 -0.292969,-0.2695312 -0.02344,0 -0.304688,0.011719 -0.398438,0.3515625 l -0.386718,1.59375 h -0.9375 c -0.199219,0 -0.292969,0 -0.292969,0.1875 0,0.1171875 0.07031,0.1171875 0.269531,0.1171875 h 0.878906 c -0.714843,2.8242187 -0.75,2.99999996 -0.75,3.17578121 0,0.5390625 0.375,0.9140625 0.914063,0.9140625 1.007812,0 1.582031,-1.45312501 1.582031,-1.53515621 0,-0.09375 -0.08203,-0.09375 -0.117187,-0.09375 -0.09375,0 -0.105469,0.023437 -0.152344,0.140625 -0.433594,1.03124996 -0.960938,1.27734371 -1.300781,1.27734371 -0.199219,0 -0.304688,-0.12890625 -0.304688,-0.45703125 0,-0.24609375 0.02344,-0.31640625 0.05859,-0.48046876 z m 0,0"
         style="fill:#008080;fill-opacity:1;fill-rule:nonzero;stroke:none" />
      <path
         id="path22"
         d="m 34.062727,-2.4956172 c 0,-0.7734375 -0.117188,-1.9804687 -0.65625,-3.1054687 -0.597657,-1.21875 -1.464844,-1.875 -1.558594,-1.875 -0.05859,0 -0.105469,0.046875 -0.105469,0.1054687 0,0.035156 0,0.046875 0.199219,0.234375 0.972656,0.984375 1.535156,2.5664063 1.535156,4.640625 0,1.71093751 -0.363281,3.45703126 -1.59375,4.7226563 -0.140625,0.1171875 -0.140625,0.1289062 -0.140625,0.1640625 0,0.058594 0.04687,0.1054687 0.105469,0.1054687 0.09375,0 0.996094,-0.6796875 1.582031,-1.94531249 0.503906,-1.1015625 0.632813,-2.20312501 0.632813,-3.04687501 z m 0,0"
         style="fill:#008080;fill-opacity:1;fill-rule:nonzero;stroke:none" />
    </g>
    <g
       id="g22"
       aria-label="y=a(t)"
       transform="matrix(1.3333333,0,0,1.3333333,279.824,157.31467)">
      <path
         id="path23"
         d="m 4.8400078,-3.7955703 c 0.046875,-0.140625 0.046875,-0.1523438 0.046875,-0.2226563 0,-0.1875 -0.140625,-0.2695312 -0.2929687,-0.2695312 -0.1054688,0 -0.2578125,0.058594 -0.3515625,0.1992187 -0.023437,0.058594 -0.09375,0.3632813 -0.140625,0.5390625 -0.070312,0.2578125 -0.140625,0.5273438 -0.1992188,0.796875 l -0.4453125,1.79296879 c -0.035156,0.15234375 -0.46875,0.85546875 -1.125,0.85546875 -0.5039062,0 -0.6210937,-0.4453125 -0.6210937,-0.80859375 0,-0.45703129 0.1757812,-1.07812499 0.515625,-1.95703129 0.1523437,-0.4101562 0.1992187,-0.515625 0.1992187,-0.7148437 0,-0.4453125 -0.328125,-0.8203125 -0.8203125,-0.8203125 -0.94921874,0 -1.31249999,1.453125 -1.31249999,1.5351562 0,0.1054688 0.09375,0.1054688 0.1171875,0.1054688 0.09375,0 0.10546875,-0.023437 0.15234375,-0.1875 0.26953125,-0.9375 0.66796874,-1.2304688 1.00781254,-1.2304688 0.082031,0 0.2578125,0 0.2578125,0.3164063 0,0.2460937 -0.1054688,0.515625 -0.1757813,0.703125 -0.3984375,1.0546875 -0.5742187,1.6171875 -0.5742187,2.0859375 0,0.89062499 0.6210937,1.18359374 1.21875,1.18359374 0.3867187,0 0.7265625,-0.1640625 0.9960937,-0.4453125 -0.1289062,0.515625 -0.2460937,1.0078125 -0.6445312,1.53515626 -0.2578125,0.3398437 -0.6328125,0.6328125 -1.0898438,0.6328125 -0.140625,0 -0.59765624,-0.035156 -0.76171874,-0.421875 0.1640625,0 0.29296874,0 0.43359374,-0.1171875 0.09375,-0.09375 0.1992188,-0.2226563 0.1992188,-0.41015626 0,-0.31640625 -0.2695313,-0.3515625 -0.375,-0.3515625 -0.22265629,0 -0.55078129,0.1640625 -0.55078129,0.64453126 0,0.5039062 0.43359375,0.8671875 1.05468749,0.8671875 1.0195313,0 2.0507813,-0.9023438 2.3320313,-2.02734376 z m 0,0"
         style="fill:#8000ff;fill-opacity:1;fill-rule:nonzero;stroke:none" />
      <path
         id="path24"
         d="m 14.856609,-3.2565078 c 0.152344,0 0.339844,0 0.339844,-0.1992188 0,-0.1992187 -0.1875,-0.1992187 -0.328125,-0.1992187 H 8.9034844 c -0.140625,0 -0.328125,0 -0.328125,0.1992187 0,0.1992188 0.1875,0.1992188 0.3398437,0.1992188 z m 0.01172,1.9335937 c 0.140625,0 0.328125,0 0.328125,-0.1992187 0,-0.1992188 -0.1875,-0.1992188 -0.339844,-0.1992188 H 8.9152031 c -0.1523437,0 -0.3398437,0 -0.3398437,0.1992188 0,0.1992187 0.1875,0.1992187 0.328125,0.1992187 z m 0,0"
         style="fill:#8000ff;fill-opacity:1;fill-rule:nonzero;stroke:none" />
      <path
         id="path25"
         d="m 22.236492,-3.7604141 c -0.175781,-0.375 -0.46875,-0.6445312 -0.914062,-0.6445312 -1.171875,0 -2.402344,1.4648437 -2.402344,2.9179687 0,0.93750004 0.550781,1.59375004 1.324219,1.59375004 0.199218,0 0.703125,-0.03515625 1.300781,-0.73828125 0.07031,0.41015625 0.421875,0.73828125 0.902344,0.73828125 0.351562,0 0.574218,-0.22265625 0.738281,-0.5390625 0.164062,-0.36328125 0.292969,-0.97265624 0.292969,-0.99609374 0,-0.09375 -0.08203,-0.09375 -0.117188,-0.09375 -0.09375,0 -0.105469,0.035156 -0.140625,0.1757812 -0.164062,0.64453129 -0.351562,1.24218754 -0.75,1.24218754 -0.269531,0 -0.304687,-0.2578125 -0.304687,-0.45703125 0,-0.22265625 0.02344,-0.3046875 0.128906,-0.73828129 0.117187,-0.421875 0.128906,-0.5273437 0.222656,-0.9023437 l 0.351563,-1.3945313 c 0.07031,-0.28125 0.07031,-0.2929687 0.07031,-0.3398437 0,-0.1640625 -0.117187,-0.2695313 -0.28125,-0.2695313 -0.246094,0 -0.386719,0.2226563 -0.421875,0.4453125 z m -0.644531,2.578125 c -0.04687,0.1757813 -0.04687,0.19921879 -0.199219,0.36328129 -0.445312,0.55078125 -0.84375,0.71484375 -1.125,0.71484375 -0.503906,0 -0.644531,-0.55078125 -0.644531,-0.93750004 0,-0.5039062 0.328125,-1.7226562 0.550781,-2.1796875 0.304688,-0.5976562 0.761719,-0.9609375 1.160156,-0.9609375 0.644532,0 0.785157,0.8203125 0.785157,0.8789063 0,0.058594 -0.02344,0.1171875 -0.03516,0.1640625 z m 0,0"
         style="fill:#8000ff;fill-opacity:1;fill-rule:nonzero;stroke:none" />
      <path
         id="path26"
         d="m 27.079266,2.3919297 c 0,-0.035156 0,-0.046875 -0.164063,-0.2226563 -1.242187,-1.25390621 -1.570312,-3.12890621 -1.570312,-4.6640625 0,-1.7226562 0.386718,-3.4570312 1.605468,-4.7109375 0.128907,-0.1171875 0.128907,-0.1289062 0.128907,-0.1640625 0,-0.070312 -0.03516,-0.1054687 -0.09375,-0.1054687 -0.105469,0 -0.996094,0.6796875 -1.582032,1.9453125 -0.515625,1.1015625 -0.632812,2.203125 -0.632812,3.0351562 0,0.7851563 0.117187,1.99218754 0.65625,3.11718754 0.597656,1.21874996 1.453125,1.87499996 1.558594,1.87499996 0.05859,0 0.09375,-0.035156 0.09375,-0.1054687 z m 0,0"
         style="fill:#8000ff;fill-opacity:1;fill-rule:nonzero;stroke:none" />
      <path
         id="path27"
         d="m 29.713055,-3.9830703 h 0.9375 c 0.199218,0 0.304687,0 0.304687,-0.1992188 0,-0.1054687 -0.105469,-0.1054687 -0.28125,-0.1054687 h -0.878906 c 0.363281,-1.4179688 0.410156,-1.6171875 0.410156,-1.6757813 0,-0.1757812 -0.117187,-0.2695312 -0.292969,-0.2695312 -0.02344,0 -0.304687,0.011719 -0.398437,0.3515625 l -0.386719,1.59375 h -0.9375 c -0.199219,0 -0.292969,0 -0.292969,0.1875 0,0.1171875 0.07031,0.1171875 0.269532,0.1171875 h 0.878906 c -0.714844,2.8242187 -0.75,2.99999999 -0.75,3.17578124 0,0.5390625 0.375,0.9140625 0.914062,0.9140625 1.007813,0 1.582032,-1.45312504 1.582032,-1.53515624 0,-0.09375 -0.08203,-0.09375 -0.117188,-0.09375 -0.09375,0 -0.105469,0.023437 -0.152344,0.140625 -0.433593,1.03124999 -0.960937,1.27734374 -1.300781,1.27734374 -0.199219,0 -0.304687,-0.12890625 -0.304687,-0.45703125 0,-0.24609375 0.02344,-0.31640625 0.05859,-0.48046879 z m 0,0"
         style="fill:#8000ff;fill-opacity:1;fill-rule:nonzero;stroke:none" />
      <path
         id="path28"
         d="m 34.142742,-2.4947891 c 0,-0.7734375 -0.117187,-1.9804687 -0.65625,-3.1054687 -0.597656,-1.21875 -1.464844,-1.875 -1.558594,-1.875 -0.05859,0 -0.105468,0.046875 -0.105468,0.1054687 0,0.035156 0,0.046875 0.199218,0.234375 0.972657,0.984375 1.535157,2.5664063 1.535157,4.640625 0,1.71093754 -0.363282,3.45703129 -1.59375,4.7226563 -0.140625,0.1171875 -0.140625,0.1289062 -0.140625,0.1640625 0,0.058594 0.04687,0.1054687 0.105468,0.1054687 0.09375,0 0.996094,-0.6796875 1.582032,-1.94531246 0.503906,-1.1015625 0.632812,-2.20312504 0.632812,-3.04687504 z m 0,0"
         style="fill:#8000ff;fill-opacity:1;fill-rule:nonzero;stroke:none" />
    </g>
  </g>
</svg>
