<?xml version="1.0" encoding="UTF-8" standalone="no"?>
<!-- Created with Inkscape (http://www.inkscape.org/) -->

<svg
   version="1.1"
   id="svg1"
   width="267.28906"
   height="156.01224"
   viewBox="0 0 267.28906 156.01224"
   sodipodi:docname="1.3-ejemplo-parabola.svg"
   inkscape:version="1.4.2 (f4327f4, 2025-05-13)"
   xmlns:inkscape="http://www.inkscape.org/namespaces/inkscape"
   xmlns:sodipodi="http://sodipodi.sourceforge.net/DTD/sodipodi-0.dtd"
   xmlns="http://www.w3.org/2000/svg"
   xmlns:svg="http://www.w3.org/2000/svg">
  <defs
     id="defs1">
    <clipPath
       clipPathUnits="userSpaceOnUse"
       id="clipPath21">
      <rect
         style="opacity:0;fill:none;stroke-width:0.75"
         id="rect22"
         width="232.67279"
         height="150.05708"
         x="-12.901408"
         y="-113.96783" />
    </clipPath>
    <clipPath
       clipPathUnits="userSpaceOnUse"
       id="clipPath22">
      <rect
         style="opacity:0;fill:none;stroke-width:0.75"
         id="rect23"
         width="232.67279"
         height="150.05708"
         x="-168.56841"
         y="-107.15783" />
    </clipPath>
    <clipPath
       clipPathUnits="userSpaceOnUse"
       id="clipPath23">
      <rect
         style="opacity:0;fill:none;stroke-width:0.75"
         id="rect24"
         width="232.67279"
         height="150.05708"
         x="-140.39241"
         y="-118.24483"
         transform="scale(1,-1)" />
    </clipPath>
    <clipPath
       clipPathUnits="userSpaceOnUse"
       id="clipPath24">
      <rect
         style="opacity:0;fill:none;stroke-width:0.75"
         id="rect25"
         width="232.67279"
         height="150.05708"
         x="-140.39241"
         y="-118.24483"
         transform="scale(1,-1)" />
    </clipPath>
    <clipPath
       clipPathUnits="userSpaceOnUse"
       id="clipPath25">
      <rect
         style="opacity:0;fill:none;stroke-width:0.75"
         id="rect26"
         width="232.67279"
         height="150.05708"
         x="-144.22742"
         y="-34.492821" />
    </clipPath>
    <clipPath
       clipPathUnits="userSpaceOnUse"
       id="clipPath26">
      <rect
         style="opacity:0;fill:none;stroke-width:0.75"
         id="rect27"
         width="232.67279"
         height="150.05708"
         x="-140.39241"
         y="-33.662685"
         transform="matrix(0,-1,-1,0,0,0)" />
    </clipPath>
    <clipPath
       clipPathUnits="userSpaceOnUse"
       id="clipPath27">
      <rect
         style="opacity:0;fill:none;stroke-width:0.75"
         id="rect28"
         width="232.67279"
         height="150.05708"
         x="-140.39241"
         y="-118.24483"
         transform="scale(1,-1)" />
    </clipPath>
    <clipPath
       clipPathUnits="userSpaceOnUse"
       id="clipPath28">
      <rect
         style="opacity:0;fill:none;stroke-width:0.75"
         id="rect29"
         width="232.67279"
         height="150.05708"
         x="-208.14142"
         y="-126.77683" />
    </clipPath>
    <clipPath
       clipPathUnits="userSpaceOnUse"
       id="clipPath29">
      <rect
         style="opacity:0;fill:none;stroke-width:0.75"
         id="rect30"
         width="232.67279"
         height="150.05708"
         x="-210.80115"
         y="-118.24483"
         transform="scale(1,-1)" />
    </clipPath>
    <clipPath
       clipPathUnits="userSpaceOnUse"
       id="clipPath30">
      <rect
         style="opacity:0;fill:none;stroke-width:0.75"
         id="rect31"
         width="232.67279"
         height="150.05708"
         x="-140.39241"
         y="-118.24483"
         transform="scale(1,-1)" />
    </clipPath>
    <clipPath
       clipPathUnits="userSpaceOnUse"
       id="clipPath31">
      <rect
         style="opacity:0;fill:none;stroke-width:0.75"
         id="rect32"
         width="232.67279"
         height="150.05708"
         x="67.778587"
         y="-224.57983"
         transform="scale(1,-1)" />
    </clipPath>
  </defs>
  <sodipodi:namedview
     id="namedview1"
     pagecolor="#ffffff"
     bordercolor="#000000"
     borderopacity="0.25"
     inkscape:showpageshadow="2"
     inkscape:pageopacity="0.0"
     inkscape:pagecheckerboard="0"
     inkscape:deskcolor="#d1d1d1"
     inkscape:zoom="2.2241536"
     inkscape:cx="133.75875"
     inkscape:cy="97.340399"
     inkscape:window-width="1920"
     inkscape:window-height="1009"
     inkscape:window-x="-8"
     inkscape:window-y="-8"
     inkscape:window-maximized="1"
     inkscape:current-layer="g1">
    <inkscape:page
       x="0"
       y="0"
       inkscape:label="11"
       id="page1"
       width="267.28906"
       height="156.01224"
       margin="0"
       bleed="0" />
  </sodipodi:namedview>
  <g
     id="g1"
     inkscape:groupmode="layer"
     inkscape:label="11"
     transform="translate(-108.27734,-83.940284)">
    <path
       id="path2"
       d="M -70.867,0 H 70.40874"
       style="fill:none;stroke:#000000;stroke-width:0.3985;stroke-linecap:butt;stroke-linejoin:miter;stroke-miterlimit:10;stroke-dasharray:none;stroke-opacity:1"
       transform="matrix(1.3333333,0,0,-1.3333333,277.56133,221.05467)"
       clip-path="url(#clipPath30)" />
    <path
       id="path3"
       d="M -1.19551,1.59401 C -1.09587,0.99626 0,0.09961 0.29886,0 0,-0.09961 -1.09587,-0.99626 -1.19551,-1.59401"
       style="fill:none;stroke:#000000;stroke-width:0.31879;stroke-linecap:round;stroke-linejoin:round;stroke-miterlimit:10;stroke-dasharray:none;stroke-opacity:1"
       transform="matrix(1.3333333,0,0,-1.3333333,371.43965,221.05467)"
       clip-path="url(#clipPath29)" />
    <path
       id="path4"
       d="m 3.6454297,-3.2937031 c 0.070312,-0.28125 0.3164062,-1.2890625 1.078125,-1.2890625 0.058594,0 0.3164062,0 0.5507812,0.140625 -0.3046875,0.058594 -0.5273437,0.328125 -0.5273437,0.5859375 0,0.1757812 0.1171875,0.3867187 0.4101562,0.3867187 0.2460938,0 0.5976563,-0.1992187 0.5976563,-0.6328125 0,-0.5625 -0.6445313,-0.7265625 -1.0195313,-0.7265625 -0.6328125,0 -1.0195312,0.5859375 -1.1484375,0.8320313 -0.2695312,-0.7148438 -0.8554687,-0.8320313 -1.171875,-0.8320313 -1.1367187,0 -1.75781246,1.4179688 -1.75781246,1.6875 0,0.1054688 0.10546875,0.1054688 0.12890625,0.1054688 0.0820313,0 0.1171875,-0.023437 0.140625,-0.1171875 0.37500001,-1.1601563 1.08984371,-1.4296875 1.46484371,-1.4296875 0.2109375,0 0.5859375,0.09375 0.5859375,0.7265625 0,0.3398437 -0.1875,1.078125 -0.5859375,2.6015625 -0.1757812,0.67968748 -0.5625,1.13671873 -1.0429687,1.13671873 -0.058594,0 -0.3164063,0 -0.53906251,-0.140625 0.26953121,-0.0585938 0.51562501,-0.29296875 0.51562501,-0.59765625 0,-0.29296878 -0.2460938,-0.37499998 -0.41015626,-0.37499998 -0.328125,0 -0.59765625,0.28124998 -0.59765625,0.63281248 0,0.50390625 0.55078125,0.71484375 1.03125001,0.71484375 0.7148437,0 1.1015625,-0.76171875 1.1367187,-0.83203125 0.1289063,0.41015625 0.5273438,0.83203125 1.1835938,0.83203125 1.125,0 1.7460937,-1.40625003 1.7460937,-1.67578123 0,-0.1054688 -0.1054687,-0.1054688 -0.1289062,-0.1054688 -0.1054688,0 -0.1289063,0.035156 -0.140625,0.1171875 -0.3632813,1.16015628 -1.1132813,1.42968753 -1.453125,1.42968753 -0.4335938,0 -0.609375,-0.3515625 -0.609375,-0.7265625 0,-0.23437503 0.070312,-0.48046873 0.1875,-0.96093753 z m 0,0"
       style="fill:#000000;fill-opacity:1;fill-rule:nonzero;stroke:none"
       aria-label="x"
       transform="matrix(1.3333333,0,0,1.3333333,367.89333,232.43067)"
       clip-path="url(#clipPath28)" />
    <path
       id="path5"
       d="M 0,-14.17339 V 84.58214"
       style="fill:none;stroke:#000000;stroke-width:0.3985;stroke-linecap:butt;stroke-linejoin:miter;stroke-miterlimit:10;stroke-dasharray:none;stroke-opacity:1"
       transform="matrix(1.3333333,0,0,-1.3333333,277.56133,221.05467)"
       clip-path="url(#clipPath27)" />
    <path
       id="path6"
       d="M -1.19551,1.59401 C -1.09587,0.99626 0,0.09961 0.29886,0 0,-0.09961 -1.09587,-0.99626 -1.19551,-1.59401"
       style="fill:none;stroke:#000000;stroke-width:0.31879;stroke-linecap:round;stroke-linejoin:round;stroke-miterlimit:10;stroke-dasharray:none;stroke-opacity:1"
       transform="matrix(0,-1.3333333,-1.3333333,0,277.56133,108.27848)"
       clip-path="url(#clipPath26)" />
    <path
       id="path7"
       d="m 5.2977109,-4.1591172 c 0.046875,-0.1523437 0.046875,-0.1757812 0.046875,-0.2460937 0,-0.1992188 -0.1523437,-0.2929688 -0.3164062,-0.2929688 -0.1054688,0 -0.28125,0.058594 -0.375,0.2226563 -0.023437,0.058594 -0.1171875,0.3984375 -0.1523438,0.5976562 -0.082031,0.28125 -0.1523437,0.5742188 -0.2226562,0.8671875 l -0.4921875,1.96875 c -0.046875,0.16406251 -0.515625,0.92578126 -1.2304688,0.92578126 -0.5625,0 -0.6796875,-0.48046875 -0.6796875,-0.89062496 0,-0.4921875 0.1875,-1.171875 0.5625,-2.1328125 0.1757813,-0.4453125 0.2109375,-0.5742188 0.2109375,-0.7851563 0,-0.4921875 -0.3515625,-0.9023437 -0.890625,-0.9023437 -1.04296871,0 -1.44140621,1.5820312 -1.44140621,1.6875 0,0.1054687 0.10546875,0.1054687 0.12890625,0.1054687 0.10546875,0 0.1171875,-0.023437 0.17578125,-0.1992187 0.29296875,-1.0195313 0.72656251,-1.3476563 1.10156251,-1.3476563 0.09375,0 0.2695312,0 0.2695312,0.3515625 0,0.2695313 -0.1054687,0.5507813 -0.1757812,0.7617188 -0.4453125,1.1601562 -0.6328125,1.78125 -0.6328125,2.2851562 0,0.97265626 0.6796875,1.30078126 1.3242187,1.30078126 0.421875,0 0.796875,-0.1875 1.1015625,-0.4921875 -0.140625,0.57421875 -0.2695312,1.1015625 -0.703125,1.68750004 -0.2929687,0.3632812 -0.703125,0.6796875 -1.2070312,0.6796875 -0.1523438,0 -0.6445313,-0.023437 -0.83203126,-0.4570313 0.17578126,0 0.31640626,0 0.48046876,-0.1289062 0.1054687,-0.09375 0.2109375,-0.234375 0.2109375,-0.44531254 0,-0.33984375 -0.2929688,-0.38671875 -0.3984375,-0.38671875 -0.25781251,0 -0.60937501,0.17578125 -0.60937501,0.71484379 0,0.5390625 0.48046871,0.9492187 1.14843751,0.9492187 1.125,0 2.25,-0.9960937 2.5546875,-2.22656249 z m 0,0"
       style="fill:#000000;fill-opacity:1;fill-rule:nonzero;stroke:none"
       aria-label="y"
       transform="matrix(1.3333333,0,0,1.3333333,282.67467,109.38533)"
       clip-path="url(#clipPath25)" />
    <path
       id="path8"
       d="m -35.43349,88.58376 c 0,0 0.51705,-2.56916 0.71563,-3.54204 0.19859,-0.97289 0.51706,-2.517 0.71563,-3.46982 0.19858,-0.95285 0.51705,-2.46483 0.71564,-3.39758 0.19858,-0.93277 0.51704,-2.41242 0.71564,-3.32515 0.19857,-0.91271 0.51704,-2.36045 0.71562,-3.25312 0.19859,-0.89268 0.51706,-2.30807 0.71563,-3.18066 0.19858,-0.87262 0.51705,-2.25589 0.71564,-3.10844 0.19858,-0.85255 0.51705,-2.20372 0.71562,-3.0362 0.1986,-0.83247 0.51706,-2.15132 0.71564,-2.96375 0.1986,-0.81245 0.51706,-2.09934 0.71564,-2.89173 0.19858,-0.79239 0.51704,-2.04694 0.71564,-2.81929 0.19857,-0.77234 0.51706,-1.99495 0.71563,-2.74726 0.19859,-0.7523 0.51706,-1.94259 0.71564,-2.67482 0.19858,-0.73223 0.51705,-1.89042 0.71564,-2.60257 0.19858,-0.71215 0.51704,-1.83803 0.71564,-2.53015 0.19857,-0.69209 0.51704,-1.78601 0.71562,-2.45811 0.19859,-0.67207 0.51705,-1.73386 0.71563,-2.38587 0.19858,-0.65202 0.51705,-1.6815 0.71564,-2.31343 0.19858,-0.63194 0.51705,-1.6293 0.71564,-2.24119 0.19858,-0.61189 0.51704,-1.57712 0.71562,-2.16898 0.19859,-0.59184 0.51706,-1.5249 0.71564,-2.09671 0.19858,-0.57181 0.51704,-1.47278 0.71564,-2.02449 0.19857,-0.55174 0.51704,-1.42038 0.71562,-1.95206 0.19859,-0.53169 0.51706,-1.36837 0.71563,-1.88002 0.19859,-0.51165 0.51706,-1.316 0.71564,-1.80757 0.19858,-0.49157 0.51705,-1.26382 0.71564,-1.73535 0.19858,-0.47153 0.51704,-1.21162 0.71562,-1.66311 0.19859,-0.45148 0.51708,-1.15944 0.71565,-1.59087 0.19858,-0.43144 0.51704,-1.10729 0.71564,-1.51863 0.19858,-0.41138 0.51704,-1.05489 0.71564,-1.4462 0.19858,-0.39131 0.51704,-1.00291 0.71562,-1.37419 0.19859,-0.37126 0.51706,-0.95052 0.71564,-1.30171 0.19857,-0.3512 0.51704,-0.89835 0.71563,-1.22949 0.19858,-0.33117 0.51705,-0.84614 0.71563,-1.15725 0.19859,-0.31111 0.51706,-0.794 0.71564,-1.08503 0.19859,-0.29103 0.51705,-0.74158 0.71563,-1.01258 C -9.47209,6.32736 -9.15363,5.90874 -8.95503,5.6578 -8.75645,5.40685 -8.43799,5.02057 -8.23941,4.78969 -8.04082,4.55882 -7.72235,4.20465 -7.52377,3.99382 -7.32518,3.78299 -7.00671,3.46097 -6.80814,3.27019 -6.60956,3.0794 -6.29109,2.78952 -6.0925,2.61879 -5.89392,2.44806 -5.57545,2.19028 -5.37688,2.03961 -5.17828,1.88896 -4.8598,1.66351 -4.66122,1.5329 -4.46265,1.40228 -4.14418,1.20877 -3.94559,1.0982 -3.74701,0.98764 -3.42854,0.82645 -3.22995,0.73595 -3.03137,0.64545 -2.7129,0.51639 -2.51433,0.44592 -2.31573,0.37549 -1.99727,0.27855 -1.79869,0.22815 -1.60011,0.17773 -1.28165,0.11293 -1.08305,0.0826 -0.88448,0.05226 -0.56601,0.01979 -0.36743,0.00949 -0.16884,-7.6e-4 0.1496,-0.00131 0.34818,0.0084 0.54677,0.01817 0.86523,0.04996 1.06381,0.07979 1.26239,0.10962 1.58086,0.17355 1.77945,0.22339 1.97803,0.27324 2.2965,0.3691 2.49507,0.43901 2.69366,0.50893 3.01213,0.6373 3.21071,0.7273 3.4093,0.81728 3.72777,0.9776 3.92635,1.0876 4.12492,1.1976 4.44339,1.39006 4.64198,1.52014 4.84056,1.6502 5.15903,1.87497 5.3576,2.02513 5.5562,2.17528 5.87466,2.43219 6.07324,2.60234 6.27182,2.7725 6.5903,3.06139 6.7889,3.25159 6.98747,3.4418 7.30594,3.76297 7.50453,3.97327 7.70311,4.1836 8.02158,4.53705 8.22015,4.76743 8.41875,4.99777 8.73721,5.3832 8.93579,5.63358 9.13437,5.88394 9.45284,6.30151 9.65143,6.57196 9.85,6.84242 10.16847,7.2923 10.36705,7.58281 c 0.19859,0.29053 0.51706,0.77251 0.71564,1.08307 0.19859,0.31058 0.51706,0.82469 0.71563,1.1553 0.19858,0.33062 0.51705,0.87689 0.71564,1.22756 0.19858,0.35066 0.51704,0.92907 0.71562,1.29977 0.1986,0.3707 0.51706,0.98123 0.71564,1.37201 0.19859,0.39076 0.51706,1.03362 0.71564,1.44446 0.19858,0.41086 0.51704,1.08578 0.71564,1.51669 0.19857,0.43089 0.51704,1.13799 0.71562,1.58894 0.19859,0.45093 0.51706,1.19016 0.71563,1.66115 0.19858,0.471 0.51705,1.24237 0.71564,1.7334 0.19858,0.49103 0.51706,1.29456 0.71565,1.80564 0.19858,0.51107 0.51705,1.3467 0.71563,1.87785 0.19859,0.53115 0.51706,1.39911 0.71563,1.95033 0.19858,0.55122 0.51705,1.45126 0.71564,2.02254 0.19858,0.57126 0.51704,1.50346 0.71562,2.09477 0.1986,0.59131 0.51706,1.55566 0.71564,2.16704 0.1986,0.61134 0.51706,1.60783 0.71564,2.23923 0.19857,0.63139 0.51704,1.66001 0.71563,2.31149 0.19858,0.65147 0.51705,1.71242 0.71563,2.38392 0.19859,0.67154 0.51706,1.76439 0.71563,2.45597 0.1986,0.69156 0.51707,1.81676 0.71564,2.52838 0.19858,0.71165 0.51704,1.86897 0.71564,2.60066 0.19858,0.73168 0.51704,1.9211 0.71562,2.67285 0.19859,0.75177 0.51706,1.97353 0.71564,2.74533 0.19857,0.77181 0.51704,2.02547 0.71563,2.81734 0.19858,0.79184 0.51706,2.0779 0.71566,2.88979 0.19857,0.81189 0.51704,2.12985 0.71562,2.96179 0.19859,0.83194 0.51706,2.18225 0.71564,3.03425 0.19858,0.85202 0.51704,2.23443 0.71563,3.10648 0.19858,0.87207 0.51705,2.28659 0.71562,3.17874 0.1986,0.89212 0.51706,2.33899 0.71564,3.25118 0.19859,0.91217 0.51706,2.39096 0.71564,3.32318 0.19858,0.93223 0.51705,2.44333 0.71564,3.39563 0.19857,0.9523 0.51704,2.49554 0.71562,3.46788 0.19859,0.97235 0.71564,3.54011 0.71564,3.54011"
       style="fill:none;stroke:#eb0a36;stroke-width:0.79701;stroke-linecap:butt;stroke-linejoin:miter;stroke-miterlimit:10;stroke-dasharray:none;stroke-opacity:1"
       transform="matrix(1.3333333,0,0,-1.3333333,277.56133,221.05467)"
       clip-path="url(#clipPath24)" />
    <path
       id="path9"
       d="m -77.95372,102.75717 c 0,0 0.51706,-2.56918 0.71564,-3.54205 0.19858,-0.97289 0.51704,-2.51698 0.71563,-3.46983 0.19858,-0.95282 0.51705,-2.46482 0.71563,-3.39759 0.19859,-0.93275 0.51707,-2.41241 0.71565,-3.32512 0.19859,-0.91273 0.51706,-2.36044 0.71564,-3.25311 0.19857,-0.89268 0.51704,-2.30807 0.71563,-3.18068 0.19858,-0.8726 0.51705,-2.25589 0.71563,-3.10843 0.19859,-0.85256 0.51705,-2.20372 0.71563,-3.03621 0.1986,-0.83247 0.51706,-2.15132 0.71564,-2.96375 0.19858,-0.81243 0.51704,-2.09934 0.71564,-2.89173 0.19857,-0.79237 0.51704,-2.04694 0.71562,-2.81927 0.19859,-0.77236 0.51706,-1.99497 0.71564,-2.74727 0.19857,-0.75231 0.51704,-1.94259 0.71563,-2.67483 0.19858,-0.73222 0.51705,-1.89042 0.71564,-2.60258 0.19858,-0.71214 0.51704,-1.83802 0.71562,-2.53012 0.1986,-0.69212 0.51706,-1.78604 0.71564,-2.45812 0.19857,-0.67208 0.51704,-1.73385 0.71564,-2.38588 0.19857,-0.652 0.51704,-1.68148 0.71562,-2.31343 0.19859,-0.63192 0.51706,-1.6293 0.71564,-2.24119 0.19859,-0.61189 0.51707,-1.57712 0.71565,-2.16896 0.19858,-0.59186 0.51704,-1.52493 0.71564,-2.09672 0.19858,-0.57181 0.51704,-1.47277 0.71562,-2.02451 0.19859,-0.55173 0.51706,-1.42035 0.71563,-1.95204 0.1986,-0.53168 0.51706,-1.36837 0.71564,-1.88002 0.19858,-0.51165 0.51705,-1.31601 0.71564,-1.80758 0.19858,-0.49157 0.51705,-1.26382 0.71562,-1.73533 0.19859,-0.47154 0.51706,-1.21164 0.71564,-1.66312 0.19858,-0.45149 0.51704,-1.15944 0.71564,-1.59088 0.19857,-0.43142 0.51704,-1.10727 0.71563,-1.51865 0.19858,-0.41134 0.51705,-1.05487 0.71562,-1.44618 0.1986,-0.39133 0.51706,-1.00291 0.71564,-1.37417 0.19858,-0.37128 0.51705,-0.95054 0.71564,-1.30173 0.19858,-0.3512 0.51704,-0.89833 0.71562,-1.22949 0.1986,-0.33115 0.51706,-0.84615 0.71564,-1.15725 0.19859,-0.31111 0.51706,-0.79399 0.71564,-1.08503 0.19857,-0.29102 0.51705,-0.74156 0.71565,-1.01256 0.19857,-0.27098 0.51704,-0.68961 0.71562,-0.94056 0.19859,-0.25094 0.51706,-0.63723 0.71564,-0.86811 0.19857,-0.23087 0.51706,-0.58504 0.71563,-0.79587 0.19858,-0.21082 0.51705,-0.53285 0.71564,-0.72363 0.19858,-0.19079 0.51704,-0.48067 0.71562,-0.6514 0.1986,-0.17073 0.51706,-0.42851 0.71564,-0.57916 0.19858,-0.15067 0.51704,-0.3761 0.71564,-0.50672 0.19858,-0.13061 0.51704,-0.32414 0.71564,-0.43471 0.19857,-0.11057 0.51704,-0.27175 0.71562,-0.36225 0.19859,-0.0905 0.51706,-0.21956 0.71563,-0.29001 0.19858,-0.07047 0.51705,-0.16737 0.71564,-0.21779 0.19858,-0.0504 0.51705,-0.1152 0.71562,-0.14555 0.19859,-0.03034 0.51706,-0.06281 0.71564,-0.0731 0.19859,-0.0103 0.51706,-0.01083 0.71564,-0.0011 0.19858,0.0098 0.51706,0.04155 0.71565,0.07138 0.19858,0.02982 0.51704,0.09375 0.71562,0.1436 0.1986,0.04982 0.51706,0.14571 0.71564,0.21563 0.19858,0.06991 0.51704,0.19828 0.71564,0.28827 0.19857,0.08999 0.51704,0.2503 0.71563,0.3603 0.19858,0.11 0.51705,0.30248 0.71563,0.43254 0.19859,0.13008 0.51705,0.35485 0.71563,0.50499 0.19858,0.15017 0.51705,0.40706 0.71564,0.57723 0.19858,0.17014 0.51704,0.45901 0.71563,0.64923 0.19859,0.1902 0.51705,0.51138 0.71563,0.72169 0.19859,0.21032 0.51706,0.56378 0.71564,0.79415 0.19857,0.23036 0.51704,0.61578 0.71563,0.86616 0.19858,0.25037 0.51705,0.66792 0.71563,0.93839 0.19859,0.27043 0.51705,0.7203 0.71563,1.01083 0.1986,0.29053 0.51706,0.77251 0.71564,1.08309 0.19858,0.31056 0.51704,0.82469 0.71564,1.1553 0.19858,0.33061 0.51706,0.87688 0.71563,1.22754 0.1986,0.35064 0.51706,0.92907 0.71564,1.29977 0.19858,0.3707 0.51705,0.98125 0.71564,1.37201 0.19858,0.39078 0.51705,1.03362 0.71564,1.44446 0.19857,0.41086 0.51704,1.0858 0.71562,1.51671 0.19859,0.43089 0.51706,1.13798 0.71564,1.58893 0.19857,0.45094 0.51704,1.19017 0.71563,1.66116 0.19858,0.47098 0.51705,1.24235 0.71564,1.73338 0.19858,0.49104 0.51704,1.29456 0.71562,1.80564 0.19859,0.51107 0.51706,1.3467 0.71564,1.87786 0.19858,0.53114 0.51704,1.39908 0.71564,1.95031 0.19858,0.55122 0.51704,1.45129 0.71562,2.02255 0.19859,0.57128 0.51706,1.50348 0.71564,2.09478 0.19859,0.59132 0.51705,1.55567 0.71563,2.16701 0.19858,0.61138 0.51705,1.60787 0.71564,2.23926 0.19858,0.6314 0.51706,1.65999 0.71564,2.31148 0.19859,0.65147 0.51706,1.7124 0.71563,2.38394 0.19858,0.67151 0.51705,1.76437 0.71564,2.45593 0.19858,0.69158 0.51704,1.81676 0.71564,2.52842 0.19858,0.71163 0.51704,1.86894 0.71562,2.60063 0.19859,0.73169 0.51706,1.92111 0.71564,2.67288 0.19858,0.75175 0.51704,1.97349 0.71564,2.7453 0.19857,0.7718 0.51704,2.0255 0.71563,2.81734 0.19858,0.79185 0.51705,2.07789 0.71562,2.8898 0.1986,0.81189 0.51706,2.12987 0.71564,2.96179 0.19858,0.83194 0.51705,2.18225 0.71564,3.03426 0.19857,0.852 0.51704,2.23443 0.71562,3.10649 0.19859,0.87207 0.51706,2.28659 0.71564,3.17872 0.19859,0.89214 0.51706,2.33899 0.71563,3.25116 0.19858,0.91219 0.51705,2.39098 0.71564,3.32321 0.19858,0.93221 0.51704,2.44333 0.71562,3.39563 0.1986,0.95231 0.51708,2.49553 0.71566,3.46788 0.19857,0.97232 0.71563,3.5401 0.71563,3.5401"
       style="fill:none;stroke:#008080;stroke-width:0.79701;stroke-linecap:butt;stroke-linejoin:miter;stroke-miterlimit:10;stroke-dasharray:none;stroke-opacity:1"
       transform="matrix(1.3333333,0,0,-1.3333333,277.56133,221.05467)"
       clip-path="url(#clipPath23)" />
    <g
       id="g9"
       aria-label="y=x&#10;2"
       transform="matrix(1.3333333,0,0,1.3333333,315.12933,206.272)"
       clip-path="url(#clipPath22)">
      <path
         id="path10"
         d="m 4.8395234,-3.7957969 c 0.046875,-0.140625 0.046875,-0.1523437 0.046875,-0.2226562 0,-0.1875 -0.140625,-0.2695313 -0.2929687,-0.2695313 -0.1054688,0 -0.2578125,0.058594 -0.3515625,0.1992188 -0.023437,0.058594 -0.09375,0.3632812 -0.140625,0.5390625 -0.070312,0.2578125 -0.140625,0.5273437 -0.1992188,0.796875 l -0.4453125,1.79296872 c -0.035156,0.15234375 -0.46875,0.85546875 -1.125,0.85546875 -0.5039062,0 -0.6210937,-0.4453125 -0.6210937,-0.80859375 0,-0.45703122 0.1757812,-1.07812502 0.515625,-1.95703122 0.1523437,-0.4101563 0.1992187,-0.515625 0.1992187,-0.7148438 0,-0.4453125 -0.328125,-0.8203125 -0.8203125,-0.8203125 -0.94921871,0 -1.31249996,1.453125 -1.31249996,1.5351563 0,0.1054687 0.09375,0.1054687 0.1171875,0.1054687 0.09375,0 0.10546875,-0.023437 0.15234375,-0.1875 0.26953125,-0.9375 0.66796871,-1.2304687 1.00781251,-1.2304687 0.082031,0 0.2578125,0 0.2578125,0.3164062 0,0.2460938 -0.1054688,0.515625 -0.1757813,0.703125 -0.3984375,1.0546875 -0.5742187,1.6171875 -0.5742187,2.0859375 0,0.89062502 0.6210937,1.18359377 1.21875,1.18359377 0.3867187,0 0.7265625,-0.1640625 0.9960937,-0.4453125 -0.1289062,0.515625 -0.2460937,1.0078125 -0.6445312,1.53515623 -0.2578125,0.3398438 -0.6328125,0.6328125 -1.0898438,0.6328125 -0.140625,0 -0.59765621,-0.035156 -0.76171871,-0.421875 0.1640625,0 0.29296871,0 0.43359371,-0.1171875 0.09375,-0.09375 0.1992188,-0.2226562 0.1992188,-0.41015623 0,-0.31640625 -0.2695313,-0.3515625 -0.375,-0.3515625 -0.22265626,0 -0.55078126,0.1640625 -0.55078126,0.64453123 0,0.5039063 0.43359375,0.8671875 1.05468746,0.8671875 1.0195313,0 2.0507813,-0.9023437 2.3320313,-2.02734373 z m 0,0"
         style="fill:#eb0a36;fill-opacity:1;fill-rule:nonzero;stroke:none" />
      <path
         id="path11"
         d="m 14.856125,-3.2567344 c 0.152344,0 0.339844,0 0.339844,-0.1992187 0,-0.1992188 -0.1875,-0.1992188 -0.328125,-0.1992188 H 8.903 c -0.140625,0 -0.328125,0 -0.328125,0.1992188 0,0.1992187 0.1875,0.1992187 0.3398438,0.1992187 z m 0.01172,1.9335938 c 0.140625,0 0.328125,0 0.328125,-0.1992188 0,-0.1992187 -0.1875,-0.1992187 -0.339844,-0.1992187 H 8.9147188 c -0.1523438,0 -0.3398438,0 -0.3398438,0.1992187 0,0.1992188 0.1875,0.1992188 0.328125,0.1992188 z m 0,0"
         style="fill:#eb0a36;fill-opacity:1;fill-rule:nonzero;stroke:none" />
      <path
         id="path12"
         d="m 21.849289,-3.0106406 c 0.05859,-0.2578125 0.292969,-1.171875 0.984375,-1.171875 0.04687,0 0.292969,0 0.503906,0.1289062 -0.28125,0.046875 -0.480468,0.3046875 -0.480468,0.5390625 0,0.1640625 0.105468,0.3515625 0.375,0.3515625 0.222656,0 0.539062,-0.1875 0.539062,-0.5859375 0,-0.515625 -0.585937,-0.65625 -0.925781,-0.65625 -0.574219,0 -0.925781,0.5273438 -1.042969,0.7617188 -0.257812,-0.65625 -0.785156,-0.7617188 -1.078125,-0.7617188 -1.042969,0 -1.605469,1.2890625 -1.605469,1.5351563 0,0.1054687 0.105469,0.1054687 0.117188,0.1054687 0.08203,0 0.117187,-0.023437 0.128906,-0.1171875 0.339844,-1.0546875 0.996094,-1.3007812 1.335938,-1.3007812 0.1875,0 0.539062,0.09375 0.539062,0.6679687 0,0.3046875 -0.164062,0.9726563 -0.539062,2.3671875 -0.152344,0.62109377 -0.503907,1.04296877 -0.949219,1.04296877 -0.05859,0 -0.28125,0 -0.492188,-0.12890625 0.246094,-0.0585937 0.46875,-0.26953125 0.46875,-0.5390625 0,-0.26953122 -0.222656,-0.35156252 -0.375,-0.35156252 -0.292968,0 -0.539062,0.25781252 -0.539062,0.57421877 0,0.45703125 0.492187,0.65625 0.9375,0.65625 0.65625,0 1.007812,-0.69140625 1.042969,-0.75 0.117187,0.36328125 0.480468,0.75 1.078125,0.75 1.019531,0 1.59375,-1.27734377 1.59375,-1.53515627 0,-0.09375 -0.09375,-0.09375 -0.128907,-0.09375 -0.08203,0 -0.105468,0.035156 -0.128906,0.1054688 -0.328125,1.06640622 -0.996094,1.31249997 -1.324219,1.31249997 -0.386718,0 -0.539062,-0.328125 -0.539062,-0.65625 0,-0.22265625 0.05859,-0.44531247 0.164062,-0.87890627 z m 0,0"
         style="fill:#eb0a36;fill-opacity:1;fill-rule:nonzero;stroke:none" />
      <path
         id="path13"
         d="m 27.735031,-4.8797813 h -0.234375 c -0.02344,0.1523438 -0.08203,0.5625 -0.175781,0.6328125 -0.05859,0.035156 -0.597656,0.035156 -0.691406,0.035156 h -1.289063 c 0.738282,-0.6445313 0.984375,-0.84375 1.394532,-1.171875 0.515625,-0.4101563 0.996093,-0.84375 0.996093,-1.5 0,-0.84375 -0.738281,-1.359375 -1.628906,-1.359375 -0.867187,0 -1.453125,0.609375 -1.453125,1.2421875 0,0.3632812 0.304688,0.3984375 0.375,0.3984375 0.164063,0 0.375,-0.1171875 0.375,-0.375 0,-0.1289063 -0.05859,-0.3632813 -0.421875,-0.3632813 0.222656,-0.5039062 0.691406,-0.65625 1.019531,-0.65625 0.703125,0 1.066407,0.5507813 1.066407,1.1132813 0,0.609375 -0.433594,1.0898437 -0.65625,1.3359375 l -1.6875,1.6640625 C 24.653,-3.8250938 24.653,-3.813375 24.653,-3.6141563 h 2.882813 z m 0,0"
         style="fill:#eb0a36;fill-opacity:1;fill-rule:nonzero;stroke:none" />
    </g>
    <g
       id="g13"
       aria-label="f(x)=(x+3)&#10;2&#10;+1"
       transform="matrix(1.3333333,0,0,1.3333333,107.57333,215.352)"
       clip-path="url(#clipPath21)">
      <path
         id="path14"
         d="m 3.6569141,-3.9847031 h 0.8554687 c 0.1992188,0 0.3046875,0 0.3046875,-0.1992188 0,-0.1054687 -0.1054687,-0.1054687 -0.2695312,-0.1054687 H 3.7155078 l 0.2109375,-1.1367188 c 0.035156,-0.2109375 0.1757813,-0.9140625 0.234375,-1.0429687 0.09375,-0.1875 0.2578125,-0.3398438 0.46875,-0.3398438 0.046875,0 0.3046875,0 0.4921875,0.1875 -0.4335937,0.035156 -0.5390625,0.3867188 -0.5390625,0.5390625 0,0.2226563 0.1757813,0.3398438 0.3632813,0.3398438 0.2695312,0 0.5507812,-0.2109375 0.5507812,-0.5976563 0,-0.4570312 -0.4570312,-0.6796875 -0.8671875,-0.6796875 -0.3398437,0 -0.9609375,0.1757813 -1.265625,1.1601563 -0.058594,0.2109375 -0.082031,0.3164062 -0.328125,1.5703125 H 2.3561328 c -0.1992187,0 -0.3046875,0 -0.3046875,0.1875 0,0.1171875 0.09375,0.1171875 0.28125,0.1171875 h 0.65625 l -0.75,3.93749998 C 2.0631641,0.91373438 1.8991016,1.8277969 1.3717578,1.8277969 c -0.035156,0 -0.28125,0 -0.46874999,-0.1875 C 1.3600391,1.6168594 1.4420703,1.2535781 1.4420703,1.1012344 c 0,-0.22265627 -0.1757812,-0.33984377 -0.3632812,-0.33984377 -0.25781254,0 -0.55078129,0.2109375 -0.55078129,0.59765627 0,0.4453125 0.43359375,0.6796875 0.84374999,0.6796875 0.5507813,0 0.9492188,-0.5859375 1.125,-0.9609375 0.328125,-0.63281252 0.5507813,-1.83984377 0.5625,-1.91015627 z m 0,0"
         style="fill:#008080;fill-opacity:1;fill-rule:nonzero;stroke:none" />
      <path
         id="path15"
         d="m 9.2467578,2.3902969 c 0,-0.035156 0,-0.046875 -0.1640625,-0.2226563 -1.2421875,-1.25390622 -1.5703125,-3.12890622 -1.5703125,-4.6640625 0,-1.7226562 0.3867188,-3.4570312 1.6054688,-4.7109375 0.1289062,-0.1171875 0.1289062,-0.1289062 0.1289062,-0.1640625 0,-0.070312 -0.035156,-0.1054687 -0.09375,-0.1054687 -0.1054687,0 -0.9960937,0.6796875 -1.5820312,1.9453125 -0.515625,1.1015625 -0.6328125,2.203125 -0.6328125,3.0351562 0,0.7851563 0.1171875,1.99218753 0.65625,3.11718753 0.5976562,1.21874997 1.453125,1.87499997 1.5585937,1.87499997 0.058594,0 0.09375,-0.035156 0.09375,-0.1054687 z m 0,0"
         style="fill:#008080;fill-opacity:1;fill-rule:nonzero;stroke:none" />
      <path
         id="path16"
         d="m 13.154961,-3.0120469 c 0.05859,-0.2578125 0.292969,-1.171875 0.984375,-1.171875 0.04687,0 0.292969,0 0.503906,0.1289063 -0.28125,0.046875 -0.480469,0.3046875 -0.480469,0.5390625 0,0.1640625 0.105469,0.3515625 0.375,0.3515625 0.222657,0 0.539063,-0.1875 0.539063,-0.5859375 0,-0.515625 -0.585938,-0.65625 -0.925781,-0.65625 -0.574219,0 -0.925782,0.5273437 -1.042969,0.7617187 -0.257813,-0.65625 -0.785156,-0.7617187 -1.078125,-0.7617187 -1.042969,0 -1.605469,1.2890625 -1.605469,1.5351562 0,0.1054688 0.105469,0.1054688 0.117188,0.1054688 0.08203,0 0.117187,-0.023437 0.128906,-0.1171875 0.339844,-1.0546875 0.996094,-1.3007813 1.335937,-1.3007813 0.1875,0 0.539063,0.09375 0.539063,0.6679688 0,0.3046875 -0.164063,0.9726562 -0.539063,2.3671875 -0.152343,0.62109373 -0.503906,1.04296873 -0.949218,1.04296873 -0.05859,0 -0.28125,0 -0.492188,-0.12890625 0.246094,-0.0585938 0.46875,-0.26953125 0.46875,-0.5390625 0,-0.26953128 -0.222656,-0.35156248 -0.375,-0.35156248 -0.292969,0 -0.539062,0.25781248 -0.539062,0.57421873 0,0.45703125 0.492187,0.65625 0.9375,0.65625 0.65625,0 1.007812,-0.69140625 1.042968,-0.75 0.117188,0.36328125 0.480469,0.75 1.078125,0.75 1.019532,0 1.59375,-1.27734373 1.59375,-1.53515623 0,-0.09375 -0.09375,-0.09375 -0.128906,-0.09375 -0.08203,0 -0.105469,0.035156 -0.128906,0.1054687 -0.328125,1.06640628 -0.996094,1.31250003 -1.324219,1.31250003 -0.386719,0 -0.539062,-0.328125 -0.539062,-0.65625 0,-0.22265625 0.05859,-0.44531253 0.164062,-0.87890623 z m 0,0"
         style="fill:#008080;fill-opacity:1;fill-rule:nonzero;stroke:none" />
      <path
         id="path17"
         d="m 18.404961,-2.4964219 c 0,-0.7734375 -0.117188,-1.9804687 -0.65625,-3.1054687 -0.597656,-1.21875 -1.464844,-1.875 -1.558594,-1.875 -0.05859,0 -0.105469,0.046875 -0.105469,0.1054687 0,0.035156 0,0.046875 0.199219,0.234375 0.972656,0.984375 1.535156,2.5664063 1.535156,4.640625 0,1.71093753 -0.363281,3.45703128 -1.59375,4.7226563 -0.140625,0.1171875 -0.140625,0.1289062 -0.140625,0.1640625 0,0.058594 0.04687,0.1054687 0.105469,0.1054687 0.09375,0 0.996094,-0.6796875 1.582031,-1.94531247 0.503907,-1.1015625 0.632813,-2.20312503 0.632813,-3.04687503 z m 10.59375,-0.7617187 c 0.152344,0 0.339844,0 0.339844,-0.1992188 0,-0.1992187 -0.1875,-0.1992187 -0.328125,-0.1992187 h -5.964844 c -0.140625,0 -0.328125,0 -0.328125,0.1992187 0,0.1992188 0.1875,0.1992188 0.339844,0.1992188 z m 0.01172,1.9335937 c 0.140625,0 0.328125,0 0.328125,-0.1992187 0,-0.1992188 -0.1875,-0.1992188 -0.339844,-0.1992188 h -5.941406 c -0.152344,0 -0.339844,0 -0.339844,0.1992188 0,0.1992187 0.1875,0.1992187 0.328125,0.1992187 z m 6.958008,3.7148438 c 0,-0.035156 0,-0.046875 -0.164063,-0.2226563 -1.242187,-1.25390622 -1.570312,-3.12890622 -1.570312,-4.6640625 0,-1.7226562 0.386718,-3.4570312 1.605468,-4.7109375 0.128907,-0.1171875 0.128907,-0.1289062 0.128907,-0.1640625 0,-0.070312 -0.03516,-0.1054687 -0.09375,-0.1054687 -0.105469,0 -0.996094,0.6796875 -1.582032,1.9453125 -0.515625,1.1015625 -0.632812,2.203125 -0.632812,3.0351562 0,0.7851563 0.117187,1.99218753 0.65625,3.11718753 0.597656,1.21874997 1.453125,1.87499997 1.558594,1.87499997 0.05859,0 0.09375,-0.035156 0.09375,-0.1054687 z m 0,0"
         style="fill:#008080;fill-opacity:1;fill-rule:nonzero;stroke:none" />
      <path
         id="path18"
         d="m 39.876641,-3.0120469 c 0.05859,-0.2578125 0.292968,-1.171875 0.984375,-1.171875 0.04687,0 0.292968,0 0.503906,0.1289063 -0.28125,0.046875 -0.480469,0.3046875 -0.480469,0.5390625 0,0.1640625 0.105469,0.3515625 0.375,0.3515625 0.222656,0 0.539063,-0.1875 0.539063,-0.5859375 0,-0.515625 -0.585938,-0.65625 -0.925782,-0.65625 -0.574218,0 -0.925781,0.5273437 -1.042968,0.7617187 -0.257813,-0.65625 -0.785157,-0.7617187 -1.078125,-0.7617187 -1.042969,0 -1.605469,1.2890625 -1.605469,1.5351562 0,0.1054688 0.105469,0.1054688 0.117187,0.1054688 0.08203,0 0.117188,-0.023437 0.128907,-0.1171875 0.339843,-1.0546875 0.996093,-1.3007813 1.335937,-1.3007813 0.1875,0 0.539063,0.09375 0.539063,0.6679688 0,0.3046875 -0.164063,0.9726562 -0.539063,2.3671875 -0.152344,0.62109373 -0.503906,1.04296873 -0.949219,1.04296873 -0.05859,0 -0.28125,0 -0.492187,-0.12890625 0.246094,-0.0585938 0.46875,-0.26953125 0.46875,-0.5390625 0,-0.26953128 -0.222656,-0.35156248 -0.375,-0.35156248 -0.292969,0 -0.539063,0.25781248 -0.539063,0.57421873 0,0.45703125 0.492188,0.65625 0.9375,0.65625 0.65625,0 1.007813,-0.69140625 1.042969,-0.75 0.117188,0.36328125 0.480469,0.75 1.078125,0.75 1.019531,0 1.59375,-1.27734373 1.59375,-1.53515623 0,-0.09375 -0.09375,-0.09375 -0.128906,-0.09375 -0.08203,0 -0.105469,0.035156 -0.128906,0.1054687 -0.328125,1.06640628 -0.996094,1.31250003 -1.324219,1.31250003 -0.386719,0 -0.539063,-0.328125 -0.539063,-0.65625 0,-0.22265625 0.05859,-0.44531253 0.164063,-0.87890623 z m 0,0"
         style="fill:#008080;fill-opacity:1;fill-rule:nonzero;stroke:none" />
      <path
         id="path19"
         d="m 48.530938,-2.2972031 h 2.777343 c 0.140625,0 0.328125,0 0.328125,-0.1992188 0,-0.1992187 -0.1875,-0.1992187 -0.328125,-0.1992187 h -2.777343 v -2.7890625 c 0,-0.1289063 0,-0.328125 -0.199219,-0.328125 -0.199219,0 -0.199219,0.1992187 -0.199219,0.328125 v 2.7890625 h -2.789062 c -0.140625,0 -0.328125,0 -0.328125,0.1992187 0,0.1992188 0.1875,0.1992188 0.328125,0.1992188 H 48.1325 v 2.80078123 c 0,0.12890625 0,0.328125 0.199219,0.328125 0.199219,0 0.199219,-0.19921875 0.199219,-0.328125 z M 57.32,-3.5042344 c 0.808594,-0.2695312 1.394531,-0.9726562 1.394531,-1.7578125 0,-0.8203125 -0.878906,-1.3710937 -1.839843,-1.3710937 -1.007813,0 -1.757813,0.5976562 -1.757813,1.3476562 0,0.3398438 0.210938,0.5273438 0.503906,0.5273438 0.304688,0 0.503907,-0.2226563 0.503907,-0.515625 0,-0.4921875 -0.46875,-0.4921875 -0.609375,-0.4921875 0.304687,-0.4921875 0.960937,-0.6210938 1.324218,-0.6210938 0.410157,0 0.949219,0.2226563 0.949219,1.1132813 0,0.1289062 -0.01172,0.703125 -0.269531,1.1367187 -0.304688,0.4804688 -0.644531,0.515625 -0.890625,0.515625 -0.08203,0.011719 -0.316406,0.035156 -0.386719,0.035156 -0.08203,0.011719 -0.152344,0.023437 -0.152344,0.1171875 0,0.1171875 0.07031,0.1171875 0.234375,0.1171875 h 0.445313 c 0.808594,0 1.183594,0.6679687 1.183594,1.6523437 0,1.34765628 -0.691407,1.64062503 -1.125,1.64062503 -0.433594,0 -1.171875,-0.17578125 -1.523438,-0.76171875 0.351563,0.0585938 0.65625,-0.1640625 0.65625,-0.53906248 0,-0.3632813 -0.269531,-0.5625 -0.5625,-0.5625 -0.234375,0 -0.550781,0.140625 -0.550781,0.5742187 0,0.91406253 0.925781,1.57031253 2.003906,1.57031253 1.21875,0 2.121094,-0.9140625 2.121094,-1.92187503 0,-0.8203125 -0.621094,-1.59375 -1.652344,-1.8046872 z m 4.96875,1.0078125 c 0,-0.7734375 -0.117187,-1.9804687 -0.65625,-3.1054687 -0.597656,-1.21875 -1.464844,-1.875 -1.558594,-1.875 -0.05859,0 -0.105468,0.046875 -0.105468,0.1054687 0,0.035156 0,0.046875 0.199218,0.234375 0.972657,0.984375 1.535157,2.5664063 1.535157,4.640625 0,1.71093753 -0.363282,3.45703128 -1.59375,4.7226563 -0.140625,0.1171875 -0.140625,0.1289062 -0.140625,0.1640625 0,0.058594 0.04687,0.1054687 0.105468,0.1054687 0.09375,0 0.996094,-0.6796875 1.582032,-1.94531247 0.503906,-1.1015625 0.632812,-2.20312503 0.632812,-3.04687503 z m 0,0"
         style="fill:#008080;fill-opacity:1;fill-rule:nonzero;stroke:none" />
      <path
         id="path20"
         d="m 66.79168,-4.8811875 h -0.234375 c -0.02344,0.1523438 -0.08203,0.5625 -0.175782,0.6328125 -0.05859,0.035156 -0.597656,0.035156 -0.691406,0.035156 h -1.289062 c 0.738281,-0.6445313 0.984375,-0.84375 1.394531,-1.171875 0.515625,-0.4101563 0.996094,-0.84375 0.996094,-1.5 0,-0.84375 -0.738282,-1.359375 -1.628907,-1.359375 -0.867187,0 -1.453125,0.609375 -1.453125,1.2421875 0,0.3632812 0.304688,0.3984375 0.375,0.3984375 0.164063,0 0.375,-0.1171875 0.375,-0.375 0,-0.1289063 -0.05859,-0.3632813 -0.421875,-0.3632813 0.222657,-0.5039062 0.691407,-0.65625 1.019532,-0.65625 0.703125,0 1.066406,0.5507813 1.066406,1.1132813 0,0.609375 -0.433594,1.0898437 -0.65625,1.3359375 l -1.6875,1.6640625 c -0.07031,0.058594 -0.07031,0.070312 -0.07031,0.2695312 h 2.882813 z m 0,0"
         style="fill:#008080;fill-opacity:1;fill-rule:nonzero;stroke:none" />
      <path
         id="path21"
         d="m 74.036797,-2.2972031 h 2.777344 c 0.140625,0 0.328125,0 0.328125,-0.1992188 0,-0.1992187 -0.1875,-0.1992187 -0.328125,-0.1992187 h -2.777344 v -2.7890625 c 0,-0.1289063 0,-0.328125 -0.199219,-0.328125 -0.199219,0 -0.199219,0.1992187 -0.199219,0.328125 v 2.7890625 h -2.789062 c -0.140625,0 -0.328125,0 -0.328125,0.1992187 0,0.1992188 0.1875,0.1992188 0.328125,0.1992188 h 2.789062 v 2.80078123 c 0,0.12890625 0,0.328125 0.199219,0.328125 0.199219,0 0.199219,-0.19921875 0.199219,-0.328125 z m 8.8125,-4.078125 c 0,-0.234375 0,-0.2578125 -0.234375,-0.2578125 -0.609375,0.6328125 -1.488281,0.6328125 -1.804688,0.6328125 v 0.3164062 c 0.199219,0 0.785157,0 1.300782,-0.2578125 v 5.15625003 c 0,0.3515625 -0.03516,0.48046875 -0.925782,0.48046875 h -0.316406 v 0.304687495 c 0.351563,-0.035156245 1.207031,-0.035156245 1.605469,-0.035156245 0.398437,0 1.265625,0 1.617187,0.035156245 V -0.30501562 h -0.316406 c -0.902344,0 -0.925781,-0.1171875 -0.925781,-0.48046875 z m 0,0"
         style="fill:#008080;fill-opacity:1;fill-rule:nonzero;stroke:none" />
    </g>
  </g>
</svg>
