<?xml version="1.0" encoding="UTF-8" standalone="no"?>
<!-- Created with Inkscape (http://www.inkscape.org/) -->

<svg
   version="1.1"
   id="svg1"
   width="374.88263"
   height="153.36235"
   viewBox="0 0 374.88263 153.36235"
   sodipodi:docname="1.3-valor-absoluto-funcion.svg"
   inkscape:version="1.4.2 (f4327f4, 2025-05-13)"
   xmlns:inkscape="http://www.inkscape.org/namespaces/inkscape"
   xmlns:sodipodi="http://sodipodi.sourceforge.net/DTD/sodipodi-0.dtd"
   xmlns="http://www.w3.org/2000/svg"
   xmlns:svg="http://www.w3.org/2000/svg">
  <defs
     id="defs1" />
  <sodipodi:namedview
     id="namedview1"
     pagecolor="#ffffff"
     bordercolor="#000000"
     borderopacity="0.25"
     inkscape:showpageshadow="2"
     inkscape:pageopacity="0.0"
     inkscape:pagecheckerboard="0"
     inkscape:deskcolor="#d1d1d1"
     inkscape:zoom="2.2241536"
     inkscape:cx="190.40951"
     inkscape:cy="91.945088"
     inkscape:window-width="1920"
     inkscape:window-height="1009"
     inkscape:window-x="-8"
     inkscape:window-y="-8"
     inkscape:window-maximized="1"
     inkscape:current-layer="g1">
    <inkscape:page
       x="4.7076135e-08"
       y="1.3168473e-06"
       inkscape:label="15"
       id="page1"
       width="374.88263"
       height="153.36235"
       margin="0"
       bleed="0" />
  </sodipodi:namedview>
  <g
     id="g1"
     inkscape:groupmode="layer"
     inkscape:label="15"
     transform="translate(-51.83614,-89.546874)">
    <path
       id="path2"
       d="M -49.6069,0 H 70.40874"
       style="fill:none;stroke:#000000;stroke-width:0.3985;stroke-linecap:butt;stroke-linejoin:miter;stroke-miterlimit:10;stroke-dasharray:none;stroke-opacity:1"
       transform="matrix(1.3333333,0,0,-1.3333333,117.97867,207.652)" />
    <path
       id="path3"
       d="M -1.19551,1.59401 C -1.09587,0.99626 0,0.09961 0.29886,0 0,-0.09961 -1.09587,-0.99626 -1.19551,-1.59401"
       style="fill:none;stroke:#000000;stroke-width:0.31879;stroke-linecap:round;stroke-linejoin:round;stroke-miterlimit:10;stroke-dasharray:none;stroke-opacity:1"
       transform="matrix(1.3333333,0,0,-1.3333333,211.85699,207.652)" />
    <path
       id="path4"
       d="m 3.6459062,-3.2934609 c 0.070312,-0.28125 0.3164063,-1.2890625 1.078125,-1.2890625 0.058594,0 0.3164063,0 0.5507813,0.140625 -0.3046875,0.058594 -0.5273438,0.328125 -0.5273438,0.5859375 0,0.1757812 0.1171875,0.3867187 0.4101563,0.3867187 0.2460937,0 0.5976562,-0.1992187 0.5976562,-0.6328125 0,-0.5625 -0.6445312,-0.7265625 -1.0195312,-0.7265625 -0.6328125,0 -1.0195313,0.5859375 -1.1484375,0.8320313 -0.2695313,-0.7148438 -0.8554688,-0.8320313 -1.171875,-0.8320313 -1.1367188,0 -1.7578125,1.4179688 -1.7578125,1.6875 0,0.1054688 0.10546875,0.1054688 0.12890625,0.1054688 0.0820313,0 0.1171875,-0.023437 0.140625,-0.1171875 C 1.3021562,-4.3129922 2.017,-4.5825234 2.392,-4.5825234 c 0.2109375,0 0.5859375,0.09375 0.5859375,0.7265625 0,0.3398437 -0.1875,1.078125 -0.5859375,2.6015625 -0.1757813,0.67968746 -0.5625,1.13671871 -1.0429688,1.13671871 -0.058594,0 -0.3164062,0 -0.53906245,-0.140625 C 1.0795,-0.31689844 1.3255937,-0.55127344 1.3255937,-0.85596094 c 0,-0.29296876 -0.2460937,-0.37499996 -0.4101562,-0.37499996 -0.328125,0 -0.59765625,0.28124996 -0.59765625,0.63281246 0,0.50390625 0.55078125,0.71484375 1.03124995,0.71484375 0.7148438,0 1.1015625,-0.76171875 1.1367188,-0.83203125 0.1289062,0.41015625 0.5273437,0.83203125 1.1835937,0.83203125 1.125,0 1.7460938,-1.40625001 1.7460938,-1.67578121 0,-0.1054688 -0.1054688,-0.1054688 -0.1289063,-0.1054688 -0.1054687,0 -0.1289062,0.035156 -0.140625,0.1171875 -0.3632812,1.16015626 -1.1132812,1.42968751 -1.453125,1.42968751 -0.4335937,0 -0.609375,-0.3515625 -0.609375,-0.7265625 0,-0.23437501 0.070312,-0.48046871 0.1875,-0.96093751 z m 0,0"
       style="fill:#000000;fill-opacity:1;fill-rule:nonzero;stroke:none"
       aria-label="x"
       transform="matrix(1.3333333,0,0,1.3333333,208.31067,219.028)" />
    <path
       id="path5"
       d="M 0,-14.17339 V 84.58214"
       style="fill:none;stroke:#000000;stroke-width:0.3985;stroke-linecap:butt;stroke-linejoin:miter;stroke-miterlimit:10;stroke-dasharray:none;stroke-opacity:1"
       transform="matrix(1.3333333,0,0,-1.3333333,117.97867,207.652)" />
    <path
       id="path6"
       d="M -1.19551,1.59401 C -1.09587,0.99626 0,0.09961 0.29886,0 0,-0.09961 -1.09587,-0.99626 -1.19551,-1.59401"
       style="fill:none;stroke:#000000;stroke-width:0.31879;stroke-linecap:round;stroke-linejoin:round;stroke-miterlimit:10;stroke-dasharray:none;stroke-opacity:1"
       transform="matrix(0,-1.3333333,-1.3333333,0,117.97867,94.875813)" />
    <path
       id="path7"
       d="m 5.2981875,-4.159875 c 0.046875,-0.1523437 0.046875,-0.1757812 0.046875,-0.2460937 0,-0.1992188 -0.1523438,-0.2929688 -0.3164063,-0.2929688 -0.1054687,0 -0.28125,0.058594 -0.375,0.2226563 -0.023437,0.058594 -0.1171875,0.3984375 -0.1523437,0.5976562 -0.082031,0.28125 -0.1523438,0.5742188 -0.2226563,0.8671875 l -0.4921875,1.96875 C 3.7395937,-0.878625 3.2708437,-0.11690625 2.556,-0.11690625 c -0.5625,0 -0.6796875,-0.48046875 -0.6796875,-0.89062495 0,-0.4921875 0.1875,-1.171875 0.5625,-2.1328125 C 2.6145937,-3.5856562 2.64975,-3.7145625 2.64975,-3.9255 c 0,-0.4921875 -0.3515625,-0.9023437 -0.890625,-0.9023437 -1.04296875,0 -1.44140625,1.5820312 -1.44140625,1.6875 0,0.1054687 0.10546875,0.1054687 0.12890625,0.1054687 0.10546875,0 0.1171875,-0.023437 0.17578125,-0.1992187 C 0.915375,-4.253625 1.3489687,-4.58175 1.7239687,-4.58175 c 0.09375,0 0.2695313,0 0.2695313,0.3515625 0,0.2695313 -0.1054688,0.5507813 -0.1757813,0.7617188 -0.4453125,1.1601562 -0.6328125,1.78125 -0.6328125,2.2851562 0,0.97265625 0.6796875,1.30078125 1.3242188,1.30078125 0.421875,0 0.796875,-0.1875 1.1015625,-0.4921875 C 3.4700625,0.1995 3.3411562,0.72684375 2.9075625,1.3127813 2.6145937,1.6760625 2.2044375,1.9924688 1.7005312,1.9924688 1.5481875,1.9924688 1.056,1.9690313 0.8685,1.5354375 c 0.1757812,0 0.3164062,0 0.4804687,-0.1289062 C 1.4544375,1.3127813 1.5599062,1.1721563 1.5599062,0.96121875 1.5599062,0.621375 1.2669375,0.5745 1.1614687,0.5745 c -0.25781245,0 -0.60937495,0.17578125 -0.60937495,0.7148438 0,0.5390625 0.48046875,0.9492187 1.14843745,0.9492187 1.125,0 2.25,-0.9960937 2.5546875,-2.2265625 z m 0,0"
       style="fill:#000000;fill-opacity:1;fill-rule:nonzero;stroke:none"
       aria-label="y"
       transform="matrix(1.3333333,0,0,1.3333333,123.092,95.984)" />
    <path
       id="path8"
       d="m -31.18144,-26.38437 c 0,0 0.33096,2.23525 0.45807,3.06302 0.1271,0.82776 0.33094,2.11911 0.45805,2.90297 0.12711,0.78388 0.33096,2.00572 0.45807,2.74663 0.1271,0.74089 0.33095,1.89445 0.45804,2.59327 0.12711,0.69883 0.33096,1.7856 0.45807,2.44341 0.1271,0.65781 0.33094,1.67993 0.45805,2.29764 0.12711,0.61772 0.33096,1.57591 0.45807,2.15448 0.1271,0.57855 0.33095,1.47503 0.45805,2.01541 0.12711,0.54036 0.33097,1.37598 0.45807,1.87916 0.12709,0.50319 0.33093,1.28048 0.45804,1.74746 0.12711,0.46695 0.33095,1.1865 0.45806,1.61813 0.1271,0.43161 0.33096,1.09535 0.45806,1.49264 0.12711,0.3973 0.33095,1.00689 0.45806,1.37072 0.1271,0.36383 0.33096,0.92021 0.45806,1.25155 0.12711,0.33133 0.33095,0.8366 0.45804,1.13648 0.12711,0.2999 0.33097,0.75557 0.45807,1.0249 0.12711,0.26935 0.33095,0.67656 0.45806,0.91634 0.1271,0.23977 0.33096,0.60075 0.45806,0.81187 0.12711,0.21112 0.33095,0.52634 0.45806,0.70979 0.1271,0.18346 0.33096,0.45568 0.45807,0.61248 0.12709,0.15682 0.33093,0.38676 0.45803,0.51774 0.12711,0.13101 0.33095,0.32027 0.45806,0.42648 0.1271,0.10622 0.33096,0.25672 0.45807,0.33912 0.1271,0.08239 0.33094,0.19529 0.45805,0.25478 0.12711,0.05946 0.33096,0.13636 0.45807,0.17387 0.12709,0.0375 0.33095,0.07992 0.45804,0.09645 0.1271,0.01654 0.33096,0.02614 0.45807,0.02272 0.1271,-0.0034 0.33094,-0.02487 0.45805,-0.04738 0.12711,-0.02249 0.33096,-0.07423 0.45807,-0.11482 0.1271,-0.04062 0.33095,-0.12006 0.45805,-0.17778 0.12711,-0.05774 0.33097,-0.16437 0.45807,-0.23835 0.12709,-0.07394 0.33093,-0.20558 0.45804,-0.29475 0.12711,-0.08919 0.33095,-0.24451 0.45805,-0.34798 0.12711,-0.1035 0.33097,-0.28109 0.45807,-0.39795 0.12711,-0.11683 0.33095,-0.31497 0.45806,-0.44421 0.1271,-0.12922 0.33096,-0.3466 0.45806,-0.48726 0.1271,-0.14062 0.33095,-0.37533 0.45805,-0.5264 0.1271,-0.15104 0.33096,-0.40171 0.45806,-0.56228 0.12711,-0.16057 0.33095,-0.42586 0.45806,-0.59496 0.1271,-0.16912 0.33096,-0.44723 0.45806,-0.62393 0.12711,-0.17671 0.33095,-0.46634 0.45806,-0.64967 0.1271,-0.18334 0.33096,-0.4827 0.45805,-0.67174 0.12711,-0.18903 0.33095,-0.49695 0.45806,-0.69077 0.1271,-0.1938 0.33095,-0.50854 0.45805,-0.70611 0.1271,-0.19756 0.33096,-0.51744 0.45807,-0.7178 0.1271,-0.20035 0.33095,-0.52402 0.45805,-0.72623 0.12711,-0.2022 0.33096,-0.52809 0.45807,-0.7312 0.12709,-0.20311 0.33095,-0.52961 0.45804,-0.73268 0.1271,-0.2031 0.33096,-0.52894 0.45807,-0.73099 0.1271,-0.20207 0.33095,-0.52533 0.45805,-0.72539 0.12711,-0.20004 0.33096,-0.51936 0.45807,-0.71649 0.12711,-0.19715 0.33095,-0.51108 0.45805,-0.70439 0.12711,-0.19329 0.33097,-0.50034 0.45806,-0.68882 0.1271,-0.18846 0.33094,-0.48686 0.45805,-0.66957 0.12711,-0.18269 0.33095,-0.47134 0.45805,-0.64729 0.12711,-0.17596 0.33097,-0.4527 0.45807,-0.62091 0.12711,-0.16821 0.33095,-0.43192 0.45806,-0.59149 0.1271,-0.15958 0.33096,-0.40866 0.45807,-0.55863 0.12709,-0.14996 0.33093,-0.38287 0.45803,-0.52229 0.12711,-0.1394 0.33097,-0.35463 0.45807,-0.4825 0.12711,-0.12783 0.33095,-0.32362 0.45806,-0.43901 0.1271,-0.11542 0.33096,-0.29075 0.45806,-0.39274 0.12711,-0.10199 0.33095,-0.25481 0.45806,-0.34237 0.12709,-0.08755 0.33096,-0.21649 0.45805,-0.28872 0.12711,-0.07222 0.33095,-0.17591 0.45806,-0.23184 0.1271,-0.05593 0.33096,-0.1326 0.45806,-0.17128 0.12711,-0.03867 0.33095,-0.08701 0.45806,-0.10747 0.1271,-0.02046 0.33095,-0.03877 0.45805,-0.04003 0.12709,-0.00125 0.33093,0.01206 0.45804,0.03093 0.12709,0.01888 0.33093,0.06517 0.45804,0.1051 0.1271,0.03994 0.33096,0.12081 0.45807,0.18275 0.1271,0.06193 0.33095,0.17869 0.45805,0.26364 0.12711,0.08494 0.33096,0.2397 0.45807,0.34861 0.12711,0.10894 0.33094,0.30265 0.45805,0.43644 0.12709,0.13382 0.33097,0.36825 0.45806,0.52792 0.1271,0.15967 0.33094,0.43636 0.45805,0.62286 0.12711,0.18648 0.33096,0.50698 0.45807,0.72126 0.12711,0.21426 0.33095,0.58015 0.45805,0.8231 0.12711,0.24297 0.33095,0.65535 0.45806,0.92801 0.1271,0.27267 0.33096,0.7339 0.45807,1.03723 0.12709,0.30335 0.33093,0.81413 0.45803,1.14905 0.12711,0.3349 0.33097,0.89728 0.45807,1.26474 0.12711,0.36746 0.33095,0.98269 0.45806,1.38368 0.1271,0.40096 0.33096,1.07083 0.45807,1.50629 0.1271,0.43544 0.33094,1.16134 0.45805,1.63217 0.12709,0.47084 0.33096,1.25406 0.45805,1.76131 0.12711,0.50723 0.33095,1.34994 0.45806,1.89451 0.1271,0.54457 0.33096,1.44753 0.45806,2.03033 0.12711,0.58279 0.33095,1.54798 0.45806,2.17004 0.1271,0.62208 0.33095,1.65112 0.45805,2.31344 0.12711,0.66229 0.33097,1.75659 0.45806,2.46005 0.1271,0.70345 0.33094,1.86437 0.45805,2.60994 0.1271,0.74558 0.33096,1.97509 0.45807,2.76369 0.1271,0.78862 0.33095,2.08748 0.45805,2.92008 0.12711,0.83259 0.33096,2.20307 0.45807,3.08075 0.12711,0.87768 0.33095,2.32128 0.45805,3.2449 0.12709,0.92361 0.33097,2.44141 0.45806,3.41185 0.1271,0.97044 0.33095,2.56419 0.45805,3.5825 0.12711,1.01831 0.45807,3.75681 0.45807,3.75681"
       style="fill:none;stroke:#eb0a36;stroke-width:0.79701;stroke-linecap:butt;stroke-linejoin:miter;stroke-miterlimit:10;stroke-dasharray:none;stroke-opacity:1"
       transform="matrix(1.3333333,0,0,-1.3333333,117.97867,207.652)" />
    <g
       id="g8"
       aria-label="y=f(x)"
       transform="matrix(1.3333333,0,0,1.3333333,149.39333,192.076)">
      <path
         id="path9"
         d="m 4.8407422,-3.7982109 c 0.046875,-0.140625 0.046875,-0.1523438 0.046875,-0.2226563 0,-0.1875 -0.140625,-0.2695312 -0.2929688,-0.2695312 -0.1054687,0 -0.2578125,0.058594 -0.3515625,0.1992187 -0.023437,0.058594 -0.09375,0.3632813 -0.140625,0.5390625 -0.070312,0.2578125 -0.140625,0.5273438 -0.1992187,0.796875 l -0.4453125,1.79296876 c -0.035156,0.15234375 -0.46875,0.85546875 -1.125,0.85546875 -0.5039063,0 -0.6210938,-0.4453125 -0.6210938,-0.80859375 0,-0.45703126 0.1757813,-1.07812496 0.515625,-1.95703126 0.1523438,-0.4101562 0.1992188,-0.515625 0.1992188,-0.7148437 0,-0.4453125 -0.328125,-0.8203125 -0.8203125,-0.8203125 -0.94921876,0 -1.31250001,1.453125 -1.31250001,1.5351562 0,0.1054688 0.09375,0.1054688 0.1171875,0.1054688 0.09375,0 0.10546875,-0.023437 0.15234375,-0.1875 0.26953125,-0.9375 0.66796876,-1.2304688 1.00781246,-1.2304688 0.082031,0 0.2578125,0 0.2578125,0.3164063 0,0.2460937 -0.1054687,0.515625 -0.1757812,0.703125 -0.3984375,1.0546875 -0.5742188,1.6171875 -0.5742188,2.0859375 0,0.89062496 0.6210938,1.18359371 1.21875,1.18359371 0.3867188,0 0.7265625,-0.1640625 0.9960938,-0.4453125 -0.1289063,0.515625 -0.2460938,1.0078125 -0.6445313,1.53515629 -0.2578125,0.3398437 -0.6328125,0.6328125 -1.0898437,0.6328125 -0.140625,0 -0.59765626,-0.035156 -0.76171876,-0.421875 0.1640625,0 0.29296876,0 0.43359376,-0.1171875 0.09375,-0.09375 0.1992187,-0.2226563 0.1992187,-0.41015629 0,-0.31640625 -0.2695312,-0.3515625 -0.375,-0.3515625 -0.22265621,0 -0.55078121,0.1640625 -0.55078121,0.64453129 0,0.5039062 0.43359375,0.8671875 1.05468751,0.8671875 1.0195312,0 2.0507812,-0.9023438 2.3320312,-2.02734379 z m 0,0"
         style="fill:#eb0a36;fill-opacity:1;fill-rule:nonzero;stroke:none" />
      <path
         id="path10"
         d="m 14.857344,-3.2591484 c 0.152343,0 0.339843,0 0.339843,-0.1992188 0,-0.1992187 -0.1875,-0.1992187 -0.328125,-0.1992187 H 8.9042187 c -0.140625,0 -0.328125,0 -0.328125,0.1992187 0,0.1992188 0.1875,0.1992188 0.3398438,0.1992188 z m 0.01172,1.9335937 c 0.140625,0 0.328125,0 0.328125,-0.1992187 0,-0.1992188 -0.1875,-0.1992188 -0.339843,-0.1992188 H 8.9159375 c -0.1523438,0 -0.3398438,0 -0.3398438,0.1992188 0,0.1992187 0.1875,0.1992187 0.328125,0.1992187 z m 0,0"
         style="fill:#eb0a36;fill-opacity:1;fill-rule:nonzero;stroke:none" />
      <path
         id="path11"
         d="m 22.178633,-3.9857109 h 0.855469 c 0.199218,0 0.304687,0 0.304687,-0.1992188 0,-0.1054687 -0.105469,-0.1054687 -0.269531,-0.1054687 h -0.832031 l 0.210937,-1.1367188 c 0.03516,-0.2109375 0.175781,-0.9140625 0.234375,-1.0429687 0.09375,-0.1875 0.257813,-0.3398438 0.46875,-0.3398438 0.04687,0 0.304688,0 0.492188,0.1875 -0.433594,0.035156 -0.539063,0.3867188 -0.539063,0.5390625 0,0.2226563 0.175781,0.3398438 0.363281,0.3398438 0.269532,0 0.550782,-0.2109375 0.550782,-0.5976563 0,-0.4570312 -0.457032,-0.6796875 -0.867188,-0.6796875 -0.339844,0 -0.960937,0.1757813 -1.265625,1.1601563 -0.05859,0.2109375 -0.08203,0.3164062 -0.328125,1.5703125 h -0.679687 c -0.199219,0 -0.304688,0 -0.304688,0.1875 0,0.1171875 0.09375,0.1171875 0.28125,0.1171875 h 0.65625 l -0.75,3.93749996 c -0.175781,0.9609375 -0.339844,1.87500004 -0.867187,1.87500004 -0.03516,0 -0.28125,0 -0.46875,-0.1875 0.457031,-0.023437 0.539062,-0.3867188 0.539062,-0.5390625 0,-0.22265629 -0.175781,-0.33984379 -0.363281,-0.33984379 -0.257813,0 -0.550781,0.2109375 -0.550781,0.59765629 0,0.4453125 0.433593,0.6796875 0.84375,0.6796875 0.550781,0 0.949218,-0.5859375 1.125,-0.9609375 0.328125,-0.63281254 0.550781,-1.83984379 0.5625,-1.91015629 z m 0,0"
         style="fill:#eb0a36;fill-opacity:1;fill-rule:nonzero;stroke:none" />
      <path
         id="path12"
         d="m 27.768477,2.3892891 c 0,-0.035156 0,-0.046875 -0.164063,-0.2226563 -1.242187,-1.25390624 -1.570312,-3.12890624 -1.570312,-4.6640625 0,-1.7226562 0.386718,-3.4570312 1.605468,-4.7109375 0.128907,-0.1171875 0.128907,-0.1289062 0.128907,-0.1640625 0,-0.070312 -0.03516,-0.1054687 -0.09375,-0.1054687 -0.105469,0 -0.996094,0.6796875 -1.582032,1.9453125 -0.515625,1.1015625 -0.632812,2.203125 -0.632812,3.0351562 0,0.7851563 0.117187,1.99218751 0.65625,3.11718751 0.597656,1.21874999 1.453125,1.87499999 1.558594,1.87499999 0.05859,0 0.09375,-0.035156 0.09375,-0.1054687 z m 0,0"
         style="fill:#eb0a36;fill-opacity:1;fill-rule:nonzero;stroke:none" />
      <path
         id="path13"
         d="m 31.67668,-3.0130547 c 0.05859,-0.2578125 0.292968,-1.171875 0.984375,-1.171875 0.04687,0 0.292968,0 0.503906,0.1289063 -0.28125,0.046875 -0.480469,0.3046875 -0.480469,0.5390625 0,0.1640625 0.105469,0.3515625 0.375,0.3515625 0.222656,0 0.539063,-0.1875 0.539063,-0.5859375 0,-0.515625 -0.585938,-0.65625 -0.925782,-0.65625 -0.574218,0 -0.925781,0.5273437 -1.042968,0.7617187 -0.257813,-0.65625 -0.785157,-0.7617187 -1.078125,-0.7617187 -1.042969,0 -1.605469,1.2890625 -1.605469,1.5351562 0,0.1054688 0.105469,0.1054688 0.117187,0.1054688 0.08203,0 0.117188,-0.023437 0.128907,-0.1171875 0.339843,-1.0546875 0.996093,-1.3007813 1.335937,-1.3007813 0.1875,0 0.539063,0.09375 0.539063,0.6679688 0,0.3046875 -0.164063,0.9726562 -0.539063,2.3671875 -0.152344,0.62109371 -0.503906,1.04296871 -0.949219,1.04296871 -0.05859,0 -0.28125,0 -0.492187,-0.12890625 0.246094,-0.0585937 0.46875,-0.26953125 0.46875,-0.5390625 0,-0.26953126 -0.222656,-0.35156246 -0.375,-0.35156246 -0.292969,0 -0.539063,0.25781246 -0.539063,0.57421871 0,0.45703125 0.492188,0.65625 0.9375,0.65625 0.65625,0 1.007813,-0.69140625 1.042969,-0.75 0.117188,0.36328125 0.480469,0.75 1.078125,0.75 1.019531,0 1.59375,-1.27734371 1.59375,-1.53515621 0,-0.09375 -0.09375,-0.09375 -0.128906,-0.09375 -0.08203,0 -0.105469,0.035156 -0.128906,0.1054687 -0.328125,1.06640626 -0.996094,1.31250001 -1.324219,1.31250001 -0.386719,0 -0.539063,-0.328125 -0.539063,-0.65625 0,-0.22265625 0.05859,-0.44531251 0.164063,-0.87890621 z m 0,0"
         style="fill:#eb0a36;fill-opacity:1;fill-rule:nonzero;stroke:none" />
      <path
         id="path14"
         d="m 36.92668,-2.4974297 c 0,-0.7734375 -0.117188,-1.9804687 -0.65625,-3.1054687 -0.597657,-1.21875 -1.464844,-1.875 -1.558594,-1.875 -0.05859,0 -0.105469,0.046875 -0.105469,0.1054687 0,0.035156 0,0.046875 0.199219,0.234375 0.972656,0.984375 1.535156,2.5664063 1.535156,4.640625 0,1.71093751 -0.363281,3.45703126 -1.59375,4.7226563 -0.140625,0.1171875 -0.140625,0.1289062 -0.140625,0.1640625 0,0.058594 0.04687,0.1054687 0.105469,0.1054687 0.09375,0 0.996094,-0.6796875 1.582031,-1.94531249 0.503906,-1.1015625 0.632813,-2.20312501 0.632813,-3.04687501 z m 0,0"
         style="fill:#eb0a36;fill-opacity:1;fill-rule:nonzero;stroke:none" />
    </g>
    <path
       id="path15"
       d="M -49.6069,0 H 70.40874"
       style="fill:none;stroke:#000000;stroke-width:0.3985;stroke-linecap:butt;stroke-linejoin:miter;stroke-miterlimit:10;stroke-dasharray:none;stroke-opacity:1"
       transform="matrix(1.3333333,0,0,-1.3333333,328.716,207.652)" />
    <path
       id="path16"
       d="M -1.19551,1.59401 C -1.09587,0.99626 0,0.09961 0.29886,0 0,-0.09961 -1.09587,-0.99626 -1.19551,-1.59401"
       style="fill:none;stroke:#000000;stroke-width:0.31879;stroke-linecap:round;stroke-linejoin:round;stroke-miterlimit:10;stroke-dasharray:none;stroke-opacity:1"
       transform="matrix(1.3333333,0,0,-1.3333333,422.59432,207.652)" />
    <path
       id="path17"
       d="m 3.6446875,-3.2934609 c 0.070312,-0.28125 0.3164062,-1.2890625 1.078125,-1.2890625 0.058594,0 0.3164062,0 0.5507812,0.140625 -0.3046875,0.058594 -0.5273437,0.328125 -0.5273437,0.5859375 0,0.1757812 0.1171875,0.3867187 0.4101562,0.3867187 0.2460938,0 0.5976563,-0.1992187 0.5976563,-0.6328125 0,-0.5625 -0.6445313,-0.7265625 -1.0195313,-0.7265625 -0.6328125,0 -1.0195312,0.5859375 -1.1484375,0.8320313 -0.2695312,-0.7148438 -0.8554687,-0.8320313 -1.171875,-0.8320313 -1.1367187,0 -1.75781245,1.4179688 -1.75781245,1.6875 0,0.1054688 0.10546875,0.1054688 0.12890625,0.1054688 0.0820313,0 0.1171875,-0.023437 0.140625,-0.1171875 0.375,-1.1601563 1.0898437,-1.4296875 1.4648437,-1.4296875 0.2109375,0 0.5859375,0.09375 0.5859375,0.7265625 0,0.3398437 -0.1875,1.078125 -0.5859375,2.6015625 -0.1757812,0.67968746 -0.5625,1.13671871 -1.0429687,1.13671871 -0.058594,0 -0.3164063,0 -0.5390625,-0.140625 0.2695312,-0.0585938 0.515625,-0.29296875 0.515625,-0.59765625 0,-0.29296876 -0.2460938,-0.37499996 -0.41015625,-0.37499996 -0.328125,0 -0.59765625,0.28124996 -0.59765625,0.63281246 0,0.50390625 0.55078125,0.71484375 1.03125,0.71484375 0.7148437,0 1.1015625,-0.76171875 1.1367187,-0.83203125 0.1289063,0.41015625 0.5273438,0.83203125 1.1835938,0.83203125 1.125,0 1.7460937,-1.40625001 1.7460937,-1.67578121 0,-0.1054688 -0.1054687,-0.1054688 -0.1289062,-0.1054688 -0.1054688,0 -0.1289063,0.035156 -0.140625,0.1171875 -0.3632813,1.16015626 -1.1132813,1.42968751 -1.453125,1.42968751 -0.4335938,0 -0.609375,-0.3515625 -0.609375,-0.7265625 0,-0.23437501 0.070312,-0.48046871 0.1875,-0.96093751 z m 0,0"
       style="fill:#000000;fill-opacity:1;fill-rule:nonzero;stroke:none"
       aria-label="x"
       transform="matrix(1.3333333,0,0,1.3333333,419.04667,219.028)" />
    <path
       id="path18"
       d="M 0,-14.17339 V 84.58214"
       style="fill:none;stroke:#000000;stroke-width:0.3985;stroke-linecap:butt;stroke-linejoin:miter;stroke-miterlimit:10;stroke-dasharray:none;stroke-opacity:1"
       transform="matrix(1.3333333,0,0,-1.3333333,328.716,207.652)" />
    <path
       id="path19"
       d="M -1.19551,1.59401 C -1.09587,0.99626 0,0.09961 0.29886,0 0,-0.09961 -1.09587,-0.99626 -1.19551,-1.59401"
       style="fill:none;stroke:#000000;stroke-width:0.31879;stroke-linecap:round;stroke-linejoin:round;stroke-miterlimit:10;stroke-dasharray:none;stroke-opacity:1"
       transform="matrix(0,-1.3333333,-1.3333333,0,328.716,94.875813)" />
    <path
       id="path20"
       d="m 5.2978984,-4.159875 c 0.046875,-0.1523437 0.046875,-0.1757812 0.046875,-0.2460937 0,-0.1992188 -0.1523437,-0.2929688 -0.3164062,-0.2929688 -0.1054688,0 -0.28125,0.058594 -0.375,0.2226563 -0.023437,0.058594 -0.1171875,0.3984375 -0.1523438,0.5976562 -0.082031,0.28125 -0.1523437,0.5742188 -0.2226562,0.8671875 l -0.4921875,1.96875 c -0.046875,0.1640625 -0.515625,0.92578125 -1.2304688,0.92578125 -0.5625,0 -0.6796875,-0.48046875 -0.6796875,-0.89062495 0,-0.4921875 0.1875,-1.171875 0.5625,-2.1328125 0.1757813,-0.4453125 0.2109375,-0.5742188 0.2109375,-0.7851563 0,-0.4921875 -0.3515625,-0.9023437 -0.890625,-0.9023437 -1.04296871,0 -1.44140621,1.5820312 -1.44140621,1.6875 0,0.1054687 0.10546875,0.1054687 0.12890625,0.1054687 0.10546875,0 0.1171875,-0.023437 0.17578125,-0.1992187 C 0.91508594,-4.253625 1.3486797,-4.58175 1.7236797,-4.58175 c 0.09375,0 0.2695312,0 0.2695312,0.3515625 0,0.2695313 -0.1054687,0.5507813 -0.1757812,0.7617188 -0.4453125,1.1601562 -0.6328125,1.78125 -0.6328125,2.2851562 0,0.97265625 0.6796875,1.30078125 1.3242187,1.30078125 0.421875,0 0.796875,-0.1875 1.1015625,-0.4921875 C 3.4697734,0.1995 3.3408672,0.72684375 2.9072734,1.3127813 2.6143047,1.6760625 2.2041484,1.9924688 1.7002422,1.9924688 c -0.1523438,0 -0.6445313,-0.023437 -0.83203126,-0.4570313 0.17578126,0 0.31640626,0 0.48046876,-0.1289062 C 1.4541484,1.3127813 1.5596172,1.1721563 1.5596172,0.96121875 1.5596172,0.621375 1.2666484,0.5745 1.1611797,0.5745 c -0.25781251,0 -0.60937501,0.17578125 -0.60937501,0.7148438 0,0.5390625 0.48046871,0.9492187 1.14843751,0.9492187 1.125,0 2.25,-0.9960937 2.5546875,-2.2265625 z m 0,0"
       style="fill:#000000;fill-opacity:1;fill-rule:nonzero;stroke:none"
       aria-label="y"
       transform="matrix(1.3333333,0,0,1.3333333,333.83067,95.984)" />
    <path
       id="path21"
       d="m -31.18144,-26.38437 c 0,0 0.33096,2.23525 0.45807,3.06302 0.1271,0.82776 0.33094,2.11911 0.45805,2.90297 0.12711,0.78388 0.33096,2.00572 0.45807,2.74663 0.1271,0.74089 0.33095,1.89445 0.45804,2.59327 0.12711,0.69883 0.33096,1.7856 0.45807,2.44341 0.1271,0.65781 0.33094,1.67993 0.45805,2.29764 0.12711,0.61772 0.33096,1.57591 0.45807,2.15448 0.1271,0.57855 0.33095,1.47503 0.45805,2.01541 0.12711,0.54036 0.33097,1.37598 0.45807,1.87916 0.12709,0.50319 0.33093,1.28048 0.45804,1.74746 0.12711,0.46695 0.33095,1.1865 0.45806,1.61813 0.1271,0.43161 0.33096,1.09535 0.45806,1.49264 0.12711,0.3973 0.33095,1.00689 0.45806,1.37072 0.1271,0.36383 0.33096,0.92021 0.45806,1.25155 0.12711,0.33133 0.33095,0.8366 0.45804,1.13648 0.12711,0.2999 0.33097,0.75557 0.45807,1.0249 0.12711,0.26935 0.33095,0.67656 0.45806,0.91634 0.1271,0.23977 0.33096,0.60075 0.45806,0.81187 0.12711,0.21112 0.33095,0.52634 0.45806,0.70979 0.1271,0.18346 0.33096,0.45568 0.45807,0.61248 0.12709,0.15682 0.33093,0.38676 0.45803,0.51774 0.12711,0.13101 0.33095,0.32027 0.45806,0.42648 0.1271,0.10622 0.33096,0.25672 0.45807,0.33912 0.1271,0.08239 0.33094,0.19529 0.45805,0.25478 0.12711,0.05946 0.33096,0.13636 0.45807,0.17387 0.12709,0.0375 0.33095,0.07992 0.45804,0.09645 0.1271,0.01654 0.33096,0.02614 0.45807,0.02272 0.1271,-0.0034 0.33094,-0.02487 0.45805,-0.04738 0.12711,-0.02249 0.33096,-0.07423 0.45807,-0.11482 0.1271,-0.04062 0.33095,-0.12006 0.45805,-0.17778 0.12711,-0.05774 0.33097,-0.16437 0.45807,-0.23835 0.12709,-0.07394 0.33093,-0.20558 0.45804,-0.29475 0.12711,-0.08919 0.33095,-0.24451 0.45805,-0.34798 0.12711,-0.1035 0.33097,-0.28109 0.45807,-0.39795 0.12711,-0.11683 0.33095,-0.31497 0.45806,-0.44421 0.1271,-0.12922 0.33096,-0.3466 0.45806,-0.48726 0.1271,-0.14062 0.33095,-0.37533 0.45805,-0.5264 0.1271,-0.15104 0.33096,-0.40171 0.45806,-0.56228 0.12711,-0.16057 0.33095,-0.42586 0.45806,-0.59496 0.1271,-0.16912 0.33096,-0.44723 0.45806,-0.62393 0.12711,-0.17671 0.33095,-0.46634 0.45806,-0.64967 0.1271,-0.18334 0.33096,-0.4827 0.45805,-0.67174 0.12711,-0.18903 0.33095,-0.49695 0.45806,-0.69077 0.1271,-0.1938 0.33095,-0.50854 0.45805,-0.70611 0.1271,-0.19756 0.33096,-0.51744 0.45807,-0.7178 0.1271,-0.20035 0.33095,-0.52402 0.45805,-0.72623 0.12711,-0.2022 0.33096,-0.52809 0.45807,-0.7312 0.12709,-0.20311 0.33095,-0.52961 0.45804,-0.73268 0.1271,-0.2031 0.33096,-0.52894 0.45807,-0.73099 0.1271,-0.20207 0.33095,-0.52533 0.45805,-0.72539 0.12711,-0.20004 0.33096,-0.51936 0.45807,-0.71649 0.12711,-0.19715 0.33095,-0.51108 0.45805,-0.70439 0.12711,-0.19329 0.33097,-0.50034 0.45806,-0.68882 0.1271,-0.18846 0.33094,-0.48686 0.45805,-0.66957 0.12711,-0.18269 0.33095,-0.47134 0.45805,-0.64729 0.12711,-0.17596 0.33097,-0.4527 0.45807,-0.62091 0.12711,-0.16821 0.33095,-0.43192 0.45806,-0.59149 0.1271,-0.15958 0.33096,-0.40866 0.45807,-0.55863 0.12709,-0.14996 0.33093,-0.38287 0.45803,-0.52229 0.12711,-0.1394 0.33097,-0.35463 0.45807,-0.4825 0.12711,-0.12783 0.33095,-0.32362 0.45806,-0.43901 0.1271,-0.11542 0.33096,-0.29075 0.45806,-0.39274 0.12711,-0.10199 0.33095,-0.25481 0.45806,-0.34237 0.12709,-0.08755 0.33096,-0.21649 0.45805,-0.28872 0.12711,-0.07222 0.33095,-0.17591 0.45806,-0.23184 0.1271,-0.05593 0.33096,-0.1326 0.45806,-0.17128 0.12711,-0.03867 0.33095,-0.08701 0.45806,-0.10747 0.1271,-0.02046 0.33095,-0.03877 0.45805,-0.04003 0.12709,-0.00125 0.33093,0.01206 0.45804,0.03093 0.12709,0.01888 0.33093,0.06517 0.45804,0.1051 0.1271,0.03994 0.33096,0.12081 0.45807,0.18275 0.1271,0.06193 0.33095,0.17869 0.45805,0.26364 0.12711,0.08494 0.33096,0.2397 0.45807,0.34861 0.12711,0.10894 0.33094,0.30265 0.45805,0.43644 0.12709,0.13382 0.33097,0.36825 0.45806,0.52792 0.1271,0.15967 0.33094,0.43636 0.45805,0.62286 0.12711,0.18648 0.33096,0.50698 0.45807,0.72126 0.12711,0.21426 0.33095,0.58015 0.45805,0.8231 0.12711,0.24297 0.33095,0.65535 0.45806,0.92801 0.1271,0.27267 0.33096,0.7339 0.45807,1.03723 0.12709,0.30335 0.33093,0.81413 0.45803,1.14905 0.12711,0.3349 0.33097,0.89728 0.45807,1.26474 0.12711,0.36746 0.33095,0.98269 0.45806,1.38368 0.1271,0.40096 0.33096,1.07083 0.45807,1.50629 0.1271,0.43544 0.33094,1.16134 0.45805,1.63217 0.12709,0.47084 0.33096,1.25406 0.45805,1.76131 0.12711,0.50723 0.33095,1.34994 0.45806,1.89451 0.1271,0.54457 0.33096,1.44753 0.45806,2.03033 0.12711,0.58279 0.33095,1.54798 0.45806,2.17004 0.1271,0.62208 0.33095,1.65112 0.45805,2.31344 0.12711,0.66229 0.33097,1.75659 0.45806,2.46005 0.1271,0.70345 0.33094,1.86437 0.45805,2.60994 0.1271,0.74558 0.33096,1.97509 0.45807,2.76369 0.1271,0.78862 0.33095,2.08748 0.45805,2.92008 0.12711,0.83259 0.33096,2.20307 0.45807,3.08075 0.12711,0.87768 0.33095,2.32128 0.45805,3.2449 0.12709,0.92361 0.33097,2.44141 0.45806,3.41185 0.1271,0.97044 0.33095,2.56419 0.45805,3.5825 0.12711,1.01831 0.45807,3.75681 0.45807,3.75681"
       style="fill:none;stroke:#eb0a36;stroke-width:0.79701;stroke-linecap:butt;stroke-linejoin:miter;stroke-miterlimit:10;stroke-dasharray:2.98883, 2.98883;stroke-dashoffset:0;stroke-opacity:0.5"
       transform="matrix(1.3333333,0,0,-1.3333333,328.716,207.652)" />
    <path
       id="path22"
       d="m -31.18144,26.38437 c 0,0 0.03924,-0.26901 0.05429,-0.37177 0.01506,-0.10273 0.03923,-0.26663 0.05429,-0.36874 0.01506,-0.10211 0.03921,-0.26575 0.05427,-0.36722 0.01507,-0.10148 0.03924,-0.26338 0.05429,-0.36419 0.01505,-0.10082 0.03922,-0.2622 0.0543,-0.36248 0.01504,-0.10028 0.03921,-0.26068 0.05426,-0.3603 0.01507,-0.09961 0.03924,-0.25875 0.05429,-0.3577 0.01506,-0.09897 0.03923,-0.25719 0.05429,-0.35554 0.01504,-0.09836 0.03921,-0.25571 0.05429,-0.3534 0.01504,-0.0977 0.03921,-0.25371 0.05427,-0.35078 0.01506,-0.09708 0.03923,-0.25238 0.05428,-0.34885 0.01506,-0.09648 0.03923,-0.2506 0.05429,-0.34645 0.01506,-0.09589 0.03923,-0.24925 0.05428,-0.34453 0.01507,-0.09527 0.03923,-0.24748 0.05429,-0.34213 0.01504,-0.09464 0.03921,-0.246 0.05429,-0.33998 0.01504,-0.09398 0.03921,-0.24396 0.05427,-0.33737 0.01506,-0.0934 0.03923,-0.24302 0.05428,-0.33588 0.01507,-0.09286 0.03924,-0.24127 0.05429,-0.33348 0.01506,-0.09221 0.03923,-0.2395 0.05429,-0.3311 0.01506,-0.09162 0.03922,-0.23819 0.05428,-0.32918 0.01506,-0.09096 0.03923,-0.23625 0.05429,-0.32657 0.01504,-0.09031 0.03921,-0.23465 0.05427,-0.32438 0.01506,-0.08975 0.03923,-0.2333 0.05428,-0.32247 0.01507,-0.08917 0.03924,-0.23175 0.05429,-0.3203 0.01506,-0.08853 0.03923,-0.22995 0.05429,-0.31791 0.01504,-0.08797 0.03921,-0.22881 0.05429,-0.3162 0.01505,-0.08735 0.03922,-0.2268 0.05428,-0.31358 0.01506,-0.08678 0.03923,-0.22568 0.05427,-0.31184 0.01506,-0.08618 0.03923,-0.22371 0.05429,-0.30928 0.01506,-0.08557 0.03923,-0.22249 0.05428,-0.30753 0.01507,-0.08502 0.03923,-0.22093 0.05429,-0.30537 0.01504,-0.08444 0.03921,-0.21947 0.05429,-0.30321 0.01505,-0.08376 0.03921,-0.21722 0.05426,-0.3004 0.01507,-0.08318 0.03924,-0.21643 0.05429,-0.29909 0.01506,-0.08267 0.03925,-0.2146 0.05429,-0.29673 0.01506,-0.08213 0.03921,-0.21367 0.05429,-0.2952 0.01505,-0.08154 0.03922,-0.21155 0.05428,-0.29241 0.01506,-0.08087 0.03923,-0.21006 0.05429,-0.29045 0.01505,-0.08038 0.03921,-0.20915 0.05427,-0.28892 0.01506,-0.07977 0.03923,-0.20703 0.05428,-0.28613 0.01507,-0.07911 0.03924,-0.20536 0.05429,-0.28396 0.01506,-0.07862 0.03923,-0.20457 0.05429,-0.28267 0.01505,-0.0781 0.03922,-0.20277 0.05429,-0.28027 0.01505,-0.07751 0.03922,-0.20148 0.05426,-0.27835 0.01507,-0.07688 0.03925,-0.19946 0.05429,-0.27574 0.01506,-0.07628 0.03923,-0.19821 0.05429,-0.27402 0.01506,-0.07579 0.03922,-0.19705 0.05428,-0.27228 0.01506,-0.07524 0.03923,-0.19522 0.05429,-0.26991 0.01504,-0.07469 0.03922,-0.19424 0.05429,-0.26839 0.01505,-0.07414 0.03921,-0.1925 0.05426,-0.266 0.01507,-0.07352 0.03925,-0.19094 0.05429,-0.26384 0.01506,-0.07294 0.03925,-0.1893 0.05429,-0.26169 0.01506,-0.07242 0.03922,-0.18831 0.05429,-0.26018 0.01505,-0.07185 0.03922,-0.18647 0.05428,-0.25778 0.01506,-0.07133 0.03923,-0.18548 0.05429,-0.2563 0.01504,-0.0708 0.03921,-0.18387 0.05427,-0.25411 0.01506,-0.07023 0.03923,-0.18254 0.05428,-0.25218 0.01508,-0.06964 0.03923,-0.18069 0.05429,-0.24977 0.01505,-0.06908 0.03923,-0.17949 0.05429,-0.24808 0.01505,-0.06858 0.03922,-0.17826 0.05429,-0.24631 0.01505,-0.06806 0.03921,-0.17663 0.05426,-0.24418 0.01508,-0.06754 0.03925,-0.17566 0.05429,-0.24265 0.01506,-0.06701 0.03923,-0.17388 0.05429,-0.24027 0.01507,-0.06641 0.03922,-0.17249 0.05428,-0.23833 0.01506,-0.06583 0.03923,-0.17081 0.05429,-0.23617 0.01505,-0.06535 0.03922,-0.17005 0.05429,-0.23487 0.01505,-0.06482 0.03921,-0.16799 0.05426,-0.23227 0.01508,-0.06427 0.03925,-0.16719 0.05429,-0.23097 0.01506,-0.0638 0.03923,-0.16558 0.05429,-0.22881 0.01505,-0.06326 0.03922,-0.16441 0.05429,-0.22708 0.01505,-0.06268 0.03922,-0.16258 0.05428,-0.2247 0.01506,-0.06215 0.03923,-0.16155 0.05427,-0.2232 0.01506,-0.06167 0.03923,-0.16013 0.0543,-0.22124 0.01506,-0.06113 0.03923,-0.15863 0.05427,-0.2193 0.01508,-0.06067 0.03923,-0.15784 0.05429,-0.218 0.01505,-0.06017 0.03922,-0.15606 0.05429,-0.21563 0.01505,-0.05955 0.03922,-0.15458 0.05429,-0.21367 0.01505,-0.05908 0.03922,-0.15362 0.05426,-0.21216 0.01508,-0.05854 0.03925,-0.15177 0.05429,-0.20977 0.01506,-0.05802 0.03922,-0.15076 0.05429,-0.20827 0.01505,-0.05752 0.03922,-0.14931 0.05428,-0.20631 0.01506,-0.05703 0.03923,-0.14807 0.05429,-0.20459 0.01505,-0.05655 0.03922,-0.14682 0.05428,-0.20288 0.01506,-0.05605 0.03923,-0.14568 0.05427,-0.20111 0.01508,-0.05547 0.03925,-0.14364 0.05429,-0.19855 0.01506,-0.0549 0.03924,-0.14269 0.05429,-0.19724 0.01505,-0.05455 0.03922,-0.14184 0.05429,-0.19595 0.01505,-0.05408 0.03922,-0.14046 0.05428,-0.19399 0.01506,-0.05352 0.03923,-0.13887 0.05428,-0.19181 0.01506,-0.05297 0.03923,-0.13738 0.05429,-0.1899 0.01506,-0.0525 0.03923,-0.13655 0.05427,-0.18858 0.01508,-0.05204 0.03923,-0.13488 0.05429,-0.18643 0.01505,-0.05155 0.03922,-0.13412 0.05429,-0.18511 0.01505,-0.05102 0.03922,-0.13203 0.05428,-0.18254 0.01506,-0.05049 0.03923,-0.13133 0.05428,-0.18144 0.01507,-0.05011 0.03924,-0.13013 0.05429,-0.17973 0.01506,-0.0496 0.03921,-0.1287 0.05429,-0.17779 0.01504,-0.04908 0.03921,-0.12738 0.05427,-0.17601 0.01506,-0.04863 0.05429,-0.17453 0.05429,-0.17453"
       style="fill:none;stroke:#008080;stroke-width:0.79701;stroke-linecap:butt;stroke-linejoin:miter;stroke-miterlimit:10;stroke-dasharray:none;stroke-opacity:1"
       transform="matrix(1.3333333,0,0,-1.3333333,328.716,207.652)" />
    <path
       id="path23"
       d="m -9.34021,0.0162 c 0,0 0.11813,0.18917 0.1635,0.26168 0.04538,0.07254 0.11813,0.18861 0.1635,0.26106 0.04536,0.07242 0.11813,0.18871 0.16349,0.26103 0.04538,0.07231 0.11814,0.18807 0.16352,0.26016 0.04536,0.0721 0.11813,0.18764 0.1635,0.25953 0.04536,0.0719 0.11813,0.18702 0.1635,0.25866 0.04536,0.07161 0.11811,0.18628 0.16349,0.25757 0.04537,0.07129 0.11813,0.18533 0.1635,0.25627 0.04538,0.07094 0.11813,0.18445 0.1635,0.25499 0.04536,0.07055 0.11813,0.18335 0.16349,0.25348 0.04535,0.0701 0.11814,0.1823 0.1635,0.25194 0.04537,0.06964 0.11814,0.18093 0.16352,0.25001 0.04534,0.06911 0.11813,0.17957 0.16348,0.24807 0.04536,0.06849 0.11813,0.17779 0.1635,0.24568 0.04536,0.06785 0.11813,0.17625 0.16349,0.24351 0.04538,0.06728 0.11814,0.17476 0.1635,0.24135 0.04537,0.06659 0.11813,0.17279 0.1635,0.23856 0.04536,0.06576 0.11813,0.17053 0.1635,0.23552 0.04538,0.06498 0.11813,0.1687 0.16351,0.23291 0.04537,0.06421 0.11813,0.16662 0.1635,0.2299 0.04536,0.06328 0.11813,0.16385 0.1635,0.22622 0.04536,0.06234 0.11812,0.16172 0.16349,0.22317 0.04537,0.06145 0.11814,0.1593 0.1635,0.21974 0.04538,0.06042 0.11813,0.15648 0.1635,0.21584 0.04537,0.05934 0.11813,0.15367 0.1635,0.21194 0.04538,0.05827 0.11813,0.15092 0.16351,0.20805 0.04537,0.05713 0.11814,0.1478 0.1635,0.20372 0.04536,0.05593 0.11813,0.14469 0.1635,0.19941 0.04536,0.05473 0.11812,0.1416 0.1635,0.19506 0.04536,0.05347 0.11813,0.13819 0.16349,0.19033 0.04538,0.05215 0.11813,0.13479 0.1635,0.18556 0.04537,0.05077 0.11813,0.13098 0.1635,0.18036 0.04536,0.04939 0.11813,0.12764 0.1635,0.17561 0.04538,0.04798 0.11813,0.12373 0.16351,0.1702 0.04535,0.04649 0.11813,0.11989 0.1635,0.16481 0.04535,0.0449 0.11812,0.1156 0.16348,0.15895 0.04537,0.04336 0.11815,0.11182 0.1635,0.15356 0.04538,0.04172 0.11815,0.10721 0.1635,0.14728 0.04536,0.04006 0.11813,0.103 0.16349,0.14143 0.04537,0.03844 0.11814,0.09894 0.1635,0.13561 0.04538,0.03667 0.11814,0.09387 0.16352,0.12867 0.04536,0.03481 0.11813,0.0892 0.16349,0.1222 0.04537,0.033 0.11814,0.08456 0.1635,0.1157 0.04537,0.03113 0.11812,0.07952 0.1635,0.10879 0.04536,0.02925 0.11814,0.07476 0.1635,0.10206 0.04538,0.02732 0.11813,0.06951 0.1635,0.09475 0.04536,0.02523 0.11813,0.06397 0.16349,0.08715 0.04538,0.02315 0.11814,0.0587 0.16352,0.07979 0.04536,0.0211 0.11813,0.05326 0.16349,0.07224 0.04537,0.01899 0.11814,0.04788 0.1635,0.06468 0.04537,0.0168 0.11812,0.04185 0.1635,0.05644 0.04536,0.01457 0.11814,0.03636 0.1635,0.04866 0.04538,0.0123 0.11813,0.03006 0.1635,0.04001 0.04536,0.00996 0.11813,0.02414 0.16349,0.03178 0.04537,0.00765 0.11814,0.01815 0.1635,0.02336 0.04538,0.00521 0.11814,0.01149 0.16352,0.01427 C -0.13887,9.91827 -0.0661,9.921 -0.02074,9.92133 0.02458,9.92166 0.09737,9.92009 0.14273,9.91786 0.18808,9.91565 0.26086,9.91011 0.30623,9.90533 0.3516,9.90053 0.42436,9.89067 0.46971,9.88326 0.51508,9.87585 0.58786,9.86192 0.63321,9.85191 0.67857,9.84189 0.75134,9.82378 0.7967,9.81104 0.84209,9.79828 0.91484,9.77551 0.96022,9.75998 1.00558,9.74445 1.07835,9.71732 1.12372,9.699 1.16908,9.68071 1.24184,9.64919 1.28722,9.62805 1.33258,9.60695 1.40535,9.57076 1.45071,9.54674 1.4961,9.52274 1.56885,9.482 1.61421,9.45505 1.65958,9.4281 1.73235,9.38245 1.77771,9.35254 1.82307,9.32262 1.89584,9.2723 1.94121,9.23944 1.98659,9.20659 2.05934,9.15164 2.10472,9.11572 2.15009,9.07982 2.22285,9.01962 2.26822,8.98056 2.31358,8.9415 2.38635,8.87633 2.43172,8.83414 2.47708,8.79195 2.54984,8.72182 2.59521,8.67648 2.64058,8.63115 2.71335,8.55591 2.75871,8.50735 2.8041,8.45882 2.87685,8.37842 2.92221,8.32655 2.96758,8.27472 3.04034,8.18883 3.08571,8.13364 3.13109,8.07848 3.20384,7.98735 3.24922,7.92885 3.29459,7.87033 3.36736,7.77386 3.41272,7.71193 3.45808,7.65 3.53085,7.54782 3.57622,7.48247 3.62158,7.41711 3.69434,7.30972 3.73972,7.24089 3.78506,7.17206 3.85785,7.05872 3.90321,6.98633 3.94858,6.91396 4.02135,6.79515 4.06671,6.71925 4.11206,6.64333 4.18484,6.51872 4.2302,6.43916 4.27556,6.35963 4.34834,6.22916 4.39369,6.14592 4.43907,6.0627 4.51183,5.92618 4.5572,5.83925 4.60257,5.75233 4.67534,5.61005 4.7207,5.5194 4.76607,5.42874 4.83882,5.28032 4.8842,5.1859 4.92957,5.09148 5.00233,4.93707 5.0477,4.83878 5.09308,4.74048 5.16583,4.5796 5.2112,4.4774 5.25656,4.3752 5.32933,4.20825 5.3747,4.10217 5.42006,3.99611 5.49283,3.82289 5.5382,3.71289 5.58357,3.60289 5.65633,3.42336 5.7017,3.30933 5.74707,3.19531 5.81984,3.00919 5.8652,2.89107 5.91057,2.77296 5.98334,2.58032 6.0287,2.45808 6.07407,2.33588 6.14682,2.1365 6.1922,2.01021 6.23756,1.88391 6.31033,1.67831 6.3557,1.54782 6.40108,1.41733 6.47383,1.20442 6.5192,1.06966 6.56456,0.9349 6.63733,0.71555 6.6827,0.57655 6.72807,0.43756 6.8462,0.0679 6.8462,0.0679"
       style="fill:none;stroke:#008080;stroke-width:0.79701;stroke-linecap:butt;stroke-linejoin:miter;stroke-miterlimit:10;stroke-dasharray:none;stroke-opacity:1"
       transform="matrix(1.3333333,0,0,-1.3333333,328.716,207.652)" />
    <path
       id="path24"
       d="m -25.79568,0.21928 c 0,0 0.12001,0.37934 0.16608,0.52185 0.04609,0.14254 0.12002,0.36734 0.1661,0.50542 0.0461,0.13809 0.12001,0.35613 0.16609,0.48985 0.0461,0.13375 0.12003,0.34469 0.16609,0.47406 0.0461,0.12938 0.12003,0.33342 0.16611,0.4585 0.04608,0.12506 0.12,0.32205 0.16609,0.44292 0.04608,0.12086 0.12001,0.31143 0.16609,0.4282 0.04609,0.1168 0.12001,0.30094 0.16611,0.41352 0.04607,0.1126 0.12,0.28949 0.16608,0.39793 0.04609,0.10845 0.12002,0.2793 0.16609,0.38367 0.0461,0.10435 0.12003,0.26811 0.16611,0.36853 0.04608,0.10039 0.12001,0.25865 0.16609,0.3551 0.0461,0.09644 0.12001,0.24747 0.16609,0.33997 0.04608,0.09251 0.12001,0.23816 0.16611,0.32678 0.04606,0.08865 0.11999,0.22729 0.16609,0.31209 0.04608,0.08479 0.12001,0.21802 0.16608,0.2991 0.04609,0.08107 0.12002,0.20799 0.1661,0.28526 0.04608,0.07726 0.12001,0.19808 0.1661,0.27163 0.04609,0.07353 0.12001,0.18843 0.16608,0.25844 0.04609,0.07 0.12002,0.17971 0.16611,0.24612 0.04607,0.06639 0.12,0.16964 0.16609,0.23248 0.04609,0.06282 0.12002,0.161 0.1661,0.22038 0.04608,0.05938 0.12001,0.15178 0.16609,0.20762 0.04608,0.05583 0.12001,0.1424 0.16609,0.19485 0.0461,0.05245 0.12002,0.13409 0.16609,0.18318 0.0461,0.04909 0.12001,0.12489 0.16611,0.17064 0.04607,0.04576 0.12,0.11668 0.16609,0.15918 0.04608,0.04248 0.12,0.10782 0.1661,0.14705 0.04608,0.03926 0.12001,0.09976 0.16609,0.13582 0.04608,0.03607 0.12001,0.09123 0.16609,0.12414 0.0461,0.03292 0.12001,0.08329 0.16609,0.11312 0.0461,0.02982 0.12003,0.07507 0.16609,0.10185 0.0461,0.02681 0.12001,0.06752 0.16611,0.09127 0.04606,0.02376 0.12,0.0592 0.16609,0.08002 0.04608,0.02082 0.12001,0.05216 0.16609,0.07007 0.04608,0.01791 0.12001,0.04404 0.16611,0.05905 0.04607,0.01499 0.12,0.03688 0.16608,0.04909 0.04609,0.01221 0.12002,0.02944 0.16609,0.03893 0.0461,0.0095 0.12003,0.02262 0.1661,0.02942 0.04609,0.0068 0.12,0.01547 0.1661,0.01945 0.04608,0.004 0.12001,0.0079 0.16609,0.0093 0.04608,0.0013 0.12001,0.0016 0.16611,4.3e-4 0.04606,-0.0012 0.12,-0.0053 0.16607,-0.0091 0.0461,-0.0038 0.12003,-0.01169 0.1661,-0.01796 0.04609,-0.0063 0.12002,-0.01853 0.1661,-0.02726 0.04609,-0.0087 0.12001,-0.02457 0.1661,-0.03567 0.04609,-0.01111 0.12001,-0.03087 0.16609,-0.04433 0.04608,-0.01347 0.12001,-0.03694 0.1661,-0.05277 0.04607,-0.01586 0.12,-0.04331 0.1661,-0.06142 0.04608,-0.01813 0.12001,-0.04889 0.16607,-0.06922 0.0461,-0.02031 0.12003,-0.0547 0.16611,-0.07721 0.04608,-0.02249 0.12001,-0.06036 0.16609,-0.08499 0.0461,-0.02464 0.12001,-0.06586 0.16609,-0.09256 0.0461,-0.0267 0.12001,-0.07118 0.16611,-0.09993 0.04607,-0.02873 0.12,-0.07647 0.16609,-0.10725 0.04608,-0.03079 0.12,-0.08185 0.1661,-0.11462 0.04608,-0.03277 0.12001,-0.08687 0.16607,-0.12156 0.0461,-0.03468 0.12003,-0.09198 0.16611,-0.12846 0.0461,-0.03648 0.12001,-0.09622 0.16609,-0.13451 0.0461,-0.0383 0.12001,-0.10132 0.16609,-0.14143 0.04608,-0.04014 0.12002,-0.10587 0.16611,-0.14772 0.04607,-0.04186 0.12,-0.11048 0.16609,-0.15399 0.04608,-0.04351 0.12002,-0.11446 0.16609,-0.15961 0.04609,-0.04515 0.12001,-0.11916 0.1661,-0.16588 0.04608,-0.04671 0.12001,-0.12257 0.16609,-0.17085 0.04609,-0.04828 0.12002,-0.12732 0.16609,-0.17713 0.0461,-0.0498 0.12001,-0.13066 0.16611,-0.18186 0.04606,-0.05123 0.11999,-0.1346 0.16609,-0.18729 0.04608,-0.05269 0.12001,-0.13848 0.16609,-0.19249 0.04608,-0.054 0.12001,-0.1415 0.16611,-0.19681 0.04606,-0.05528 0.11999,-0.14516 0.16607,-0.20177 0.0461,-0.05664 0.12003,-0.14848 0.1661,-0.20633 0.04609,-0.05786 0.12002,-0.15162 0.1661,-0.21064 0.04608,-0.05902 0.12,-0.15462 0.1661,-0.21476 0.04608,-0.06013 0.12001,-0.15744 0.16608,-0.21864 0.04609,-0.06122 0.12002,-0.16026 0.16611,-0.22255 0.04607,-0.06228 0.12,-0.16316 0.16609,-0.22642 0.04609,-0.0633 0.12002,-0.16545 0.16608,-0.2297 0.0461,-0.06423 0.12003,-0.1682 0.16611,-0.23335 0.04608,-0.06514 0.12001,-0.17015 0.16609,-0.23615 0.0461,-0.06603 0.12,-0.17281 0.16609,-0.23963 0.04609,-0.06682 0.12001,-0.17444 0.16611,-0.242 0.04607,-0.06759 0.12,-0.1767 0.16609,-0.24505 0.04608,-0.06834 0.12,-0.1786 0.16608,-0.24762 0.0461,-0.069 0.12003,-0.1802 0.16609,-0.24978 0.0461,-0.06958 0.12003,-0.18157 0.16611,-0.25176 0.0461,-0.07016 0.12001,-0.1833 0.16609,-0.2541 0.0461,-0.07082 0.12001,-0.18503 0.16609,-0.25629 0.04608,-0.07126 0.12001,-0.18564 0.16611,-0.25735 0.04606,-0.07172 0.12,-0.1874 0.16609,-0.25952 0.04608,-0.07213 0.12001,-0.1879 0.16608,-0.2604 0.04609,-0.07247 0.12002,-0.18933 0.16611,-0.26211 0.04608,-0.0728 0.12001,-0.18953 0.16609,-0.26256 0.04609,-0.07303 0.12002,-0.19053 0.16609,-0.26384 0.0461,-0.0733 0.12001,-0.19104 0.1661,-0.26449 0.04607,-0.07346 0.12,-0.19133 0.1661,-0.26493 0.04608,-0.07361 0.12001,-0.19186 0.16609,-0.26557 0.04608,-0.07374 0.12001,-0.19211 0.16609,-0.2658 0.04608,-0.0737 0.16609,-0.26537 0.16609,-0.26537"
       style="fill:none;stroke:#008080;stroke-width:0.79701;stroke-linecap:butt;stroke-linejoin:miter;stroke-miterlimit:10;stroke-dasharray:none;stroke-opacity:1"
       transform="matrix(1.3333333,0,0,-1.3333333,328.716,207.652)" />
    <path
       id="path25"
       d="m 6.85982,-0.02486 c 0,0 0.05328,0.16938 0.07374,0.23506 C 6.95403,0.27588 6.98685,0.38194 7.00731,0.44853 7.02777,0.5151 7.0606,0.62262 7.08105,0.6901 7.10152,0.75758 7.13435,0.86656 7.15482,0.93492 7.17528,1.00328 7.2081,1.11354 7.22856,1.18277 7.24902,1.25198 7.28185,1.36371 7.3023,1.43384 7.32277,1.504 7.35559,1.61731 7.37605,1.6884 7.39651,1.75949 7.42934,1.8742 7.4498,1.9462 7.47026,2.01817 7.5031,2.13431 7.52356,2.20723 7.54402,2.28014 7.57684,2.3979 7.5973,2.47173 7.61777,2.54553 7.65059,2.6645 7.67105,2.73926 7.69151,2.81398 7.72433,2.93475 7.7448,3.01045 7.76526,3.08617 7.79808,3.2083 7.81854,3.2849 7.839,3.3615 7.87183,3.48508 7.89229,3.56259 c 0.02046,0.0775 0.0533,0.20242 0.07376,0.28093 0.02046,0.07849 0.05327,0.2054 0.07373,0.28482 0.02046,0.07942 0.05328,0.20729 0.07375,0.28765 0.02046,0.08035 0.05328,0.2102 0.07374,0.29153 0.02046,0.08131 0.05328,0.21228 0.07375,0.29454 0.02046,0.08228 0.0533,0.21516 0.07376,0.29846 0.02046,0.0833 0.05328,0.21771 0.07374,0.30191 C 8.42899,5.68663 8.4618,5.82222 8.48227,5.90738 8.50273,5.99252 8.53555,6.13005 8.55602,6.2162 8.57648,6.30235 8.6093,6.44121 8.62976,6.52829 8.65022,6.61536 8.68306,6.75575 8.70352,6.84381 8.72398,6.93188 8.7568,7.07397 8.77727,7.16302 8.79773,7.25208 8.83055,7.39561 8.85101,7.4857 8.87148,7.57578 8.9043,7.72116 8.92476,7.81227 8.94522,7.90337 8.97804,8.05025 8.9985,8.14229 9.01897,8.23436 9.0518,8.38272 9.07227,8.47578 9.09273,8.56883 9.12555,8.7189 9.14601,8.81294 c 0.02046,0.09404 0.05327,0.24558 0.07373,0.34064 0.02046,0.09505 0.05329,0.24843 0.07375,0.3445 0.02046,0.09608 0.05328,0.2509 0.07374,0.34799 0.02047,0.09709 0.0533,0.25371 0.07377,0.35187 0.02046,0.09814 0.05328,0.25639 0.07374,0.35554 0.02046,0.09914 0.05328,0.25881 0.07375,0.35901 0.02046,0.10017 0.05328,0.26191 0.07374,0.36311 0.02047,0.1012 0.05329,0.26415 0.07375,0.36635 0.02046,0.10221 0.05328,0.26699 0.07374,0.37027 0.02046,0.10328 0.0533,0.26979 0.07376,0.37413 0.02047,0.10433 0.05329,0.27245 0.07375,0.37783 0.02046,0.10539 0.05328,0.27532 0.07375,0.38172 0.02046,0.1064 0.05328,0.27773 0.07374,0.38518 0.02046,0.10744 0.05328,0.28072 0.07375,0.38927 0.02046,0.10858 0.0533,0.28357 0.07376,0.39319 0.02046,0.1096 0.05328,0.28622 0.07374,0.39685 0.02047,0.11064 0.05327,0.28881 0.07373,0.40053 0.02047,0.11171 0.05329,0.29181 0.07375,0.40464 0.02046,0.11281 0.05328,0.29459 0.07375,0.40853 0.02046,0.11393 0.0533,0.29767 0.07376,0.41263 0.02046,0.11498 0.05328,0.30004 0.07374,0.41612 0.02046,0.11606 0.05329,0.30326 0.07375,0.42042 0.02046,0.11714 0.05328,0.30567 0.07375,0.42389 0.02046,0.11823 0.05328,0.30884 0.07374,0.42821 0.02046,0.11937 0.0533,0.31166 0.07376,0.4321 0.02046,0.12045 0.05328,0.31442 0.07375,0.436 0.02046,0.12159 0.05328,0.31761 0.07374,0.44031 0.02046,0.1227 0.05329,0.32023 0.07375,0.44402 0.02046,0.12376 0.05328,0.32319 0.07374,0.4481 0.02047,0.12491 0.0533,0.32621 0.07376,0.45223 0.02046,0.12602 0.05329,0.32894 0.07375,0.4561 0.02046,0.12716 0.05328,0.33213 0.07375,0.46045 0.02046,0.12829 0.05328,0.33491 0.07373,0.46432 0.02046,0.12941 0.05328,0.33788 0.07374,0.46843 0.02046,0.13055 0.0533,0.34087 0.07376,0.47256 0.02046,0.13169 0.05329,0.34379 0.07375,0.47666 0.02046,0.13286 0.05328,0.34694 0.07374,0.48097 0.02047,0.13403 0.05329,0.34998 0.07375,0.48509 0.02046,0.13512 0.05329,0.35247 0.07375,0.48877 0.02046,0.13633 0.05328,0.35622 0.07374,0.49375 0.02046,0.13751 0.0533,0.35876 0.07376,0.49742 0.02046,0.13866 0.05329,0.3621 0.07375,0.50196 0.02046,0.13987 0.05328,0.36509 0.07374,0.50606 0.02047,0.14096 0.05329,0.3678 0.07375,0.50997 0.02046,0.14217 0.05328,0.37135 0.07375,0.51472 0.02045,0.14337 0.05329,0.37404 0.07375,0.51862 0.02047,0.14456 0.05329,0.37761 0.07375,0.52336 0.02046,0.14574 0.05329,0.38011 0.07375,0.52705 0.02046,0.14695 0.05328,0.38388 0.07374,0.53202 0.02046,0.14814 0.05327,0.3864 0.07373,0.5357 0.02047,0.14932 0.0533,0.38993 0.07377,0.54045 0.02046,0.15055 0.05328,0.39281 0.07374,0.54456 0.02046,0.15178 0.05328,0.39633 0.07375,0.54933 0.02046,0.153 0.05328,0.39929 0.07374,0.55344 0.02046,0.15414 0.05329,0.40214 0.07375,0.55754 0.02046,0.15541 0.0533,0.40582 0.07376,0.56251 0.02046,0.15671 0.05328,0.40895 0.07374,0.56684 0.02047,0.15791 0.05329,0.41208 0.07375,0.57116 0.02046,0.15911 0.05328,0.4152 0.07375,0.5755 0.02046,0.16033 0.05328,0.41843 0.07374,0.58004 0.02046,0.16162 0.0533,0.42192 0.07376,0.58479 0.02046,0.16287 0.05328,0.42504 0.07375,0.58911 0.02046,0.16408 0.05328,0.42815 0.07374,0.59345 0.02047,0.16531 0.05329,0.43136 0.07375,0.59798 0.02046,0.16662 0.05328,0.43504 0.07374,0.60296 0.02047,0.16791 0.05327,0.43817 0.07374,0.60728 0.02046,0.16912 0.0533,0.44121 0.07376,0.61162 0.02046,0.1704 0.07374,0.61658 0.07374,0.61658"
       style="fill:none;stroke:#008080;stroke-width:0.79701;stroke-linecap:butt;stroke-linejoin:miter;stroke-miterlimit:10;stroke-dasharray:none;stroke-opacity:1"
       transform="matrix(1.3333333,0,0,-1.3333333,328.716,207.652)" />
    <g
       id="g25"
       aria-label="y=|f(x)|"
       transform="matrix(1.3333333,0,0,1.3333333,356.44,192.076)">
      <path
         id="path26"
         d="m 4.8408984,-3.7982109 c 0.046875,-0.140625 0.046875,-0.1523438 0.046875,-0.2226563 0,-0.1875 -0.140625,-0.2695312 -0.2929687,-0.2695312 -0.1054688,0 -0.2578125,0.058594 -0.3515625,0.1992187 -0.023437,0.058594 -0.09375,0.3632813 -0.140625,0.5390625 -0.070312,0.2578125 -0.140625,0.5273438 -0.1992188,0.796875 l -0.4453125,1.79296876 c -0.035156,0.15234375 -0.46875,0.85546875 -1.125,0.85546875 -0.5039062,0 -0.6210937,-0.4453125 -0.6210937,-0.80859375 0,-0.45703126 0.1757812,-1.07812496 0.515625,-1.95703126 0.1523437,-0.4101562 0.1992187,-0.515625 0.1992187,-0.7148437 0,-0.4453125 -0.328125,-0.8203125 -0.8203125,-0.8203125 -0.94921871,0 -1.31249996,1.453125 -1.31249996,1.5351562 0,0.1054688 0.09375,0.1054688 0.1171875,0.1054688 0.09375,0 0.10546875,-0.023437 0.15234375,-0.1875 0.26953125,-0.9375 0.66796871,-1.2304688 1.00781251,-1.2304688 0.082031,0 0.2578125,0 0.2578125,0.3164063 0,0.2460937 -0.1054688,0.515625 -0.1757813,0.703125 -0.3984375,1.0546875 -0.5742187,1.6171875 -0.5742187,2.0859375 0,0.89062496 0.6210937,1.18359371 1.21875,1.18359371 0.3867187,0 0.7265625,-0.1640625 0.9960937,-0.4453125 -0.1289062,0.515625 -0.2460937,1.0078125 -0.6445312,1.53515629 -0.2578125,0.3398437 -0.6328125,0.6328125 -1.0898438,0.6328125 -0.140625,0 -0.59765621,-0.035156 -0.76171871,-0.421875 0.1640625,0 0.29296871,0 0.43359371,-0.1171875 0.09375,-0.09375 0.1992188,-0.2226563 0.1992188,-0.41015629 0,-0.31640625 -0.2695313,-0.3515625 -0.375,-0.3515625 -0.22265626,0 -0.55078126,0.1640625 -0.55078126,0.64453129 0,0.5039062 0.43359375,0.8671875 1.05468746,0.8671875 1.0195313,0 2.0507813,-0.9023438 2.3320313,-2.02734379 z m 0,0"
         style="fill:#008080;fill-opacity:1;fill-rule:nonzero;stroke:none" />
      <path
         id="path27"
         d="m 14.8575,-3.2591484 c 0.152344,0 0.339844,0 0.339844,-0.1992188 0,-0.1992187 -0.1875,-0.1992187 -0.328125,-0.1992187 H 8.904375 c -0.140625,0 -0.328125,0 -0.328125,0.1992187 0,0.1992188 0.1875,0.1992188 0.3398438,0.1992188 z m 0.01172,1.9335937 c 0.140625,0 0.328125,0 0.328125,-0.1992187 0,-0.1992188 -0.1875,-0.1992188 -0.339844,-0.1992188 H 8.9160938 c -0.1523438,0 -0.3398438,0 -0.3398438,0.1992188 0,0.1992187 0.1875,0.1992187 0.328125,0.1992187 z m 0,0"
         style="fill:#008080;fill-opacity:1;fill-rule:nonzero;stroke:none" />
      <path
         id="path28"
         d="m 20.10457,-7.1146172 c 0,-0.1757812 0,-0.3632812 -0.199218,-0.3632812 -0.199219,0 -0.199219,0.1875 -0.199219,0.3632812 v 9.2460938 c 0,0.1757812 0,0.3632812 0.199219,0.3632812 0.199218,0 0.199218,-0.1875 0.199218,-0.3632812 z m 0,0"
         style="fill:#008080;fill-opacity:1;fill-rule:nonzero;stroke:none" />
      <path
         id="path29"
         d="m 24.944414,-3.9857109 h 0.855469 c 0.199219,0 0.304687,0 0.304687,-0.1992188 0,-0.1054687 -0.105468,-0.1054687 -0.269531,-0.1054687 h -0.832031 l 0.210937,-1.1367188 c 0.03516,-0.2109375 0.175782,-0.9140625 0.234375,-1.0429687 0.09375,-0.1875 0.257813,-0.3398438 0.46875,-0.3398438 0.04687,0 0.304688,0 0.492188,0.1875 -0.433594,0.035156 -0.539063,0.3867188 -0.539063,0.5390625 0,0.2226563 0.175782,0.3398438 0.363282,0.3398438 0.269531,0 0.550781,-0.2109375 0.550781,-0.5976563 0,-0.4570312 -0.457031,-0.6796875 -0.867188,-0.6796875 -0.339843,0 -0.960937,0.1757813 -1.265625,1.1601563 -0.05859,0.2109375 -0.08203,0.3164062 -0.328125,1.5703125 h -0.679687 c -0.199219,0 -0.304688,0 -0.304688,0.1875 0,0.1171875 0.09375,0.1171875 0.28125,0.1171875 h 0.65625 l -0.75,3.93749996 c -0.175781,0.9609375 -0.339843,1.87500004 -0.867187,1.87500004 -0.03516,0 -0.28125,0 -0.46875,-0.1875 0.457031,-0.023437 0.539062,-0.3867188 0.539062,-0.5390625 0,-0.22265629 -0.175781,-0.33984379 -0.363281,-0.33984379 -0.257812,0 -0.550781,0.2109375 -0.550781,0.59765629 0,0.4453125 0.433594,0.6796875 0.84375,0.6796875 0.550781,0 0.949219,-0.5859375 1.125,-0.9609375 0.328125,-0.63281254 0.550781,-1.83984379 0.5625,-1.91015629 z m 0,0"
         style="fill:#008080;fill-opacity:1;fill-rule:nonzero;stroke:none" />
      <path
         id="path30"
         d="m 30.534258,2.3892891 c 0,-0.035156 0,-0.046875 -0.164063,-0.2226563 -1.242187,-1.25390624 -1.570312,-3.12890624 -1.570312,-4.6640625 0,-1.7226562 0.386719,-3.4570312 1.605469,-4.7109375 0.128906,-0.1171875 0.128906,-0.1289062 0.128906,-0.1640625 0,-0.070312 -0.03516,-0.1054687 -0.09375,-0.1054687 -0.105469,0 -0.996094,0.6796875 -1.582031,1.9453125 -0.515625,1.1015625 -0.632813,2.203125 -0.632813,3.0351562 0,0.7851563 0.117188,1.99218751 0.65625,3.11718751 0.597656,1.21874999 1.453125,1.87499999 1.558594,1.87499999 0.05859,0 0.09375,-0.035156 0.09375,-0.1054687 z m 0,0"
         style="fill:#008080;fill-opacity:1;fill-rule:nonzero;stroke:none" />
      <path
         id="path31"
         d="m 34.445391,-3.0130547 c 0.05859,-0.2578125 0.292968,-1.171875 0.984375,-1.171875 0.04687,0 0.292968,0 0.503906,0.1289063 -0.28125,0.046875 -0.480469,0.3046875 -0.480469,0.5390625 0,0.1640625 0.105469,0.3515625 0.375,0.3515625 0.222656,0 0.539063,-0.1875 0.539063,-0.5859375 0,-0.515625 -0.585938,-0.65625 -0.925782,-0.65625 -0.574218,0 -0.925781,0.5273437 -1.042968,0.7617187 -0.257813,-0.65625 -0.785157,-0.7617187 -1.078125,-0.7617187 -1.042969,0 -1.605469,1.2890625 -1.605469,1.5351562 0,0.1054688 0.105469,0.1054688 0.117187,0.1054688 0.08203,0 0.117188,-0.023437 0.128907,-0.1171875 0.339843,-1.0546875 0.996093,-1.3007813 1.335937,-1.3007813 0.1875,0 0.539063,0.09375 0.539063,0.6679688 0,0.3046875 -0.164063,0.9726562 -0.539063,2.3671875 -0.152344,0.62109371 -0.503906,1.04296871 -0.949219,1.04296871 -0.05859,0 -0.28125,0 -0.492187,-0.12890625 0.246094,-0.0585937 0.46875,-0.26953125 0.46875,-0.5390625 0,-0.26953126 -0.222656,-0.35156246 -0.375,-0.35156246 -0.292969,0 -0.539063,0.25781246 -0.539063,0.57421871 0,0.45703125 0.492188,0.65625 0.9375,0.65625 0.65625,0 1.007813,-0.69140625 1.042969,-0.75 0.117188,0.36328125 0.480469,0.75 1.078125,0.75 1.019531,0 1.59375,-1.27734371 1.59375,-1.53515621 0,-0.09375 -0.09375,-0.09375 -0.128906,-0.09375 -0.08203,0 -0.105469,0.035156 -0.128906,0.1054687 -0.328125,1.06640626 -0.996094,1.31250001 -1.324219,1.31250001 -0.386719,0 -0.539063,-0.328125 -0.539063,-0.65625 0,-0.22265625 0.05859,-0.44531251 0.164063,-0.87890621 z m 0,0"
         style="fill:#008080;fill-opacity:1;fill-rule:nonzero;stroke:none" />
      <path
         id="path32"
         d="m 39.692461,-2.4974297 c 0,-0.7734375 -0.117188,-1.9804687 -0.65625,-3.1054687 -0.597656,-1.21875 -1.464844,-1.875 -1.558594,-1.875 -0.05859,0 -0.105469,0.046875 -0.105469,0.1054687 0,0.035156 0,0.046875 0.199219,0.234375 0.972656,0.984375 1.535156,2.5664063 1.535156,4.640625 0,1.71093751 -0.363281,3.45703126 -1.59375,4.7226563 -0.140625,0.1171875 -0.140625,0.1289062 -0.140625,0.1640625 0,0.058594 0.04687,0.1054687 0.105469,0.1054687 0.09375,0 0.996094,-0.6796875 1.582031,-1.94531249 0.503907,-1.1015625 0.632813,-2.20312501 0.632813,-3.04687501 z m 0,0"
         style="fill:#008080;fill-opacity:1;fill-rule:nonzero;stroke:none" />
      <path
         id="path33"
         d="m 42.267656,-7.1146172 c 0,-0.1757812 0,-0.3632812 -0.199218,-0.3632812 -0.199219,0 -0.199219,0.1875 -0.199219,0.3632812 v 9.2460938 c 0,0.1757812 0,0.3632812 0.199219,0.3632812 0.199218,0 0.199218,-0.1875 0.199218,-0.3632812 z m 0,0"
         style="fill:#008080;fill-opacity:1;fill-rule:nonzero;stroke:none" />
    </g>
  </g>
</svg>
