<?xml version="1.0" encoding="UTF-8" standalone="no"?>
<!-- Created with Inkscape (http://www.inkscape.org/) -->

<svg
   version="1.1"
   id="svg1"
   width="154.69485"
   height="165.35049"
   viewBox="0 0 154.69486 165.3505"
   sodipodi:docname="1.3-ejemplo-traslacion-raiz.svg"
   inkscape:version="1.4.2 (f4327f4, 2025-05-13)"
   xmlns:inkscape="http://www.inkscape.org/namespaces/inkscape"
   xmlns:sodipodi="http://sodipodi.sourceforge.net/DTD/sodipodi-0.dtd"
   xmlns="http://www.w3.org/2000/svg"
   xmlns:svg="http://www.w3.org/2000/svg">
  <defs
     id="defs1" />
  <sodipodi:namedview
     id="namedview1"
     pagecolor="#ffffff"
     bordercolor="#000000"
     borderopacity="0.25"
     inkscape:showpageshadow="2"
     inkscape:pageopacity="0.0"
     inkscape:pagecheckerboard="0"
     inkscape:deskcolor="#d1d1d1"
     inkscape:zoom="2.2241536"
     inkscape:cx="80.255248"
     inkscape:cy="99.588445"
     inkscape:window-width="1920"
     inkscape:window-height="1009"
     inkscape:window-x="-8"
     inkscape:window-y="-8"
     inkscape:window-maximized="1"
     inkscape:current-layer="g1">
    <inkscape:page
       x="0"
       y="0"
       inkscape:label="6"
       id="page1"
       width="154.69485"
       height="165.35049"
       margin="0"
       bleed="0" />
  </sodipodi:namedview>
  <g
     id="g1"
     inkscape:groupmode="layer"
     inkscape:label="6"
     transform="translate(-161.93014,-81.910155)">
    <path
       id="path2"
       d="M -14.17339,0 H 98.75554"
       style="fill:none;stroke:#000000;stroke-width:0.3985;stroke-linecap:butt;stroke-linejoin:miter;stroke-miterlimit:10;stroke-dasharray:none;stroke-opacity:1"
       transform="matrix(1.3333333,0,0,-1.3333333,180.828,200.016)" />
    <path
       id="path3"
       d="M -1.19551,1.59401 C -1.09587,0.99626 0,0.09961 0.29886,0 0,-0.09961 -1.09587,-0.99626 -1.19551,-1.59401"
       style="fill:none;stroke:#000000;stroke-width:0.31879;stroke-linecap:round;stroke-linejoin:round;stroke-miterlimit:10;stroke-dasharray:none;stroke-opacity:1"
       transform="matrix(1.3333333,0,0,-1.3333333,312.50205,200.016)" />
    <path
       id="path4"
       d="m 3.643375,-3.294 c 0.070312,-0.28125 0.3164063,-1.2890625 1.078125,-1.2890625 0.058594,0 0.3164063,0 0.5507813,0.140625 -0.3046875,0.058594 -0.5273438,0.328125 -0.5273438,0.5859375 0,0.1757813 0.1171875,0.3867188 0.4101563,0.3867188 0.2460937,0 0.5976562,-0.1992188 0.5976562,-0.6328125 0,-0.5625 -0.6445312,-0.7265625 -1.0195312,-0.7265625 -0.6328125,0 -1.0195313,0.5859375 -1.1484375,0.8320312 -0.2695313,-0.7148437 -0.8554688,-0.8320312 -1.171875,-0.8320312 -1.1367188,0 -1.75781255,1.4179687 -1.75781255,1.6875 0,0.1054687 0.10546875,0.1054687 0.12890625,0.1054687 0.0820313,0 0.1171875,-0.023437 0.140625,-0.1171875 0.375,-1.1601562 1.0898438,-1.4296875 1.4648438,-1.4296875 0.2109375,0 0.5859375,0.09375 0.5859375,0.7265625 0,0.3398438 -0.1875,1.078125 -0.5859375,2.6015625 -0.1757813,0.6796875 -0.5625,1.13671875 -1.0429688,1.13671875 -0.058594,0 -0.3164062,0 -0.5390625,-0.140625 0.2695313,-0.0585938 0.515625,-0.29296875 0.515625,-0.59765625 0,-0.2929687 -0.2460937,-0.375 -0.41015625,-0.375 -0.328125,0 -0.59765625,0.28125 -0.59765625,0.6328125 0,0.50390625 0.55078125,0.71484375 1.03125,0.71484375 0.7148438,0 1.1015625,-0.76171875 1.1367188,-0.83203125 0.1289062,0.41015625 0.5273437,0.83203125 1.1835937,0.83203125 1.125,0 1.7460938,-1.40624995 1.7460938,-1.67578125 0,-0.1054687 -0.1054688,-0.1054687 -0.1289063,-0.1054687 -0.1054687,0 -0.1289062,0.035156 -0.140625,0.1171875 -0.3632812,1.1601562 -1.1132812,1.42968745 -1.453125,1.42968745 -0.4335937,0 -0.609375,-0.3515625 -0.609375,-0.7265625 0,-0.23437495 0.070312,-0.48046875 0.1875,-0.96093745 z m 0,0"
       style="fill:#000000;fill-opacity:1;fill-rule:nonzero;stroke:none"
       aria-label="x"
       transform="matrix(1.3333333,0,0,1.3333333,308.95467,211.392)" />
    <path
       id="path5"
       d="M 0,-35.43349 V 84.58214"
       style="fill:none;stroke:#000000;stroke-width:0.3985;stroke-linecap:butt;stroke-linejoin:miter;stroke-miterlimit:10;stroke-dasharray:none;stroke-opacity:1"
       transform="matrix(1.3333333,0,0,-1.3333333,180.828,200.016)" />
    <path
       id="path6"
       d="M -1.19551,1.59401 C -1.09587,0.99626 0,0.09961 0.29886,0 0,-0.09961 -1.09587,-0.99626 -1.19551,-1.59401"
       style="fill:none;stroke:#000000;stroke-width:0.31879;stroke-linecap:round;stroke-linejoin:round;stroke-miterlimit:10;stroke-dasharray:none;stroke-opacity:1"
       transform="matrix(0,-1.3333333,-1.3333333,0,180.828,87.239813)" />
    <path
       id="path7"
       d="m 5.29775,-4.1604141 c 0.046875,-0.1523437 0.046875,-0.1757812 0.046875,-0.2460937 0,-0.1992188 -0.1523437,-0.2929688 -0.3164062,-0.2929688 -0.1054688,0 -0.28125,0.058594 -0.375,0.2226563 -0.023437,0.058594 -0.1171875,0.3984375 -0.1523438,0.5976562 -0.082031,0.28125 -0.1523437,0.5742188 -0.2226562,0.8671875 l -0.4921875,1.96875 c -0.046875,0.16406254 -0.515625,0.92578129 -1.2304688,0.92578129 -0.5625,0 -0.6796875,-0.48046875 -0.6796875,-0.89062499 0,-0.4921875 0.1875,-1.171875 0.5625,-2.1328125 0.1757813,-0.4453125 0.2109375,-0.5742188 0.2109375,-0.7851563 0,-0.4921875 -0.3515625,-0.9023437 -0.890625,-0.9023437 -1.04296875,0 -1.44140625,1.5820312 -1.44140625,1.6875 0,0.1054687 0.10546875,0.1054687 0.12890625,0.1054687 0.10546875,0 0.1171875,-0.023437 0.17578125,-0.1992187 0.29296875,-1.0195313 0.72656255,-1.3476563 1.10156255,-1.3476563 0.09375,0 0.2695312,0 0.2695312,0.3515625 0,0.2695313 -0.1054687,0.5507813 -0.1757812,0.7617188 -0.4453125,1.1601562 -0.6328125,1.78125 -0.6328125,2.2851562 0,0.97265629 0.6796875,1.30078129 1.3242187,1.30078129 0.421875,0 0.796875,-0.1875 1.1015625,-0.4921875 C 3.469625,0.19896094 3.3407188,0.72630469 2.907125,1.3122422 2.6141563,1.6755234 2.204,1.9919297 1.7000938,1.9919297 c -0.1523438,0 -0.6445313,-0.023437 -0.8320313,-0.4570313 0.1757813,0 0.3164063,0 0.4804688,-0.1289062 0.1054687,-0.09375 0.2109375,-0.234375 0.2109375,-0.44531251 0,-0.33984375 -0.2929688,-0.38671875 -0.3984375,-0.38671875 -0.25781255,0 -0.60937505,0.17578125 -0.60937505,0.71484376 0,0.5390625 0.48046875,0.9492187 1.14843755,0.9492187 1.125,0 2.25,-0.9960937 2.5546875,-2.22656246 z m 0,0"
       style="fill:#000000;fill-opacity:1;fill-rule:nonzero;stroke:none"
       aria-label="y"
       transform="matrix(1.3333333,0,0,1.3333333,168.06133,88.348)" />
    <path
       id="path8"
       d="M 0,0 C 0,0 0.51704,2.56143 0.71562,3.1867 0.91422,3.812 1.23268,4.17929 1.43126,4.5066 1.62984,4.83392 1.9483,5.2867 2.1469,5.54576 2.34547,5.80486 2.66394,6.15512 2.86252,6.37386 3.06111,6.59262 3.37958,6.92413 3.57816,7.12238 3.77675,7.32063 4.09521,7.62161 4.2938,7.80276 4.49237,7.9839 4.81084,8.26057 5.00943,8.42798 5.20801,8.59538 5.52647,8.85274 5.72505,9.00932 5.92365,9.1659 6.24211,9.40875 6.44069,9.55647 6.63927,9.7042 6.95773,9.93416 7.15633,10.074 c 0.19857,0.13987 0.51704,0.35717 0.71563,0.49051 0.19858,0.13334 0.51704,0.34296 0.71563,0.4706 0.19859,0.12766 0.51705,0.32687 0.71563,0.44942 0.19858,0.12254 0.51705,0.31561 0.71564,0.43384 0.19858,0.11822 0.51704,0.30395 0.71562,0.41824 0.19859,0.11429 0.51708,0.29497 0.71565,0.40552 0.1986,0.11053 0.51707,0.28404 0.71564,0.39122 0.19858,0.10719 0.51705,0.27722 0.71564,0.38128 0.19858,0.10405 0.51704,0.26773 0.71562,0.36873 0.19859,0.10102 0.51706,0.26059 0.71564,0.35922 0.19859,0.09864 0.51706,0.25524 0.71563,0.35167 0.19858,0.09645 0.51705,0.24921 0.71564,0.34343 0.19858,0.09421 0.51705,0.2435 0.71562,0.33565 0.1986,0.09215 0.51706,0.2383 0.71564,0.32851 0.19858,0.09024 0.51705,0.23347 0.71564,0.32182 0.19858,0.08834 0.51704,0.22826 0.71564,0.31488 0.19857,0.08662 0.51704,0.22446 0.71562,0.30949 0.19859,0.08503 0.51706,0.21988 0.71563,0.30341 0.19858,0.08354 0.51705,0.21666 0.71564,0.29868 0.19858,0.082 0.51705,0.21182 0.71563,0.2924 0.19859,0.08055 0.51705,0.20882 0.71563,0.28828 0.19859,0.07946 0.51707,0.20626 0.71565,0.28438 0.19858,0.07814 0.51705,0.20194 0.71564,0.27878 0.19858,0.07684 0.51705,0.19942 0.71562,0.2751 0.1986,0.07567 0.51706,0.19562 0.71564,0.27034 0.19859,0.0747 0.51706,0.19444 0.71564,0.26817 0.19858,0.07372 0.51704,0.19074 0.71563,0.26319 0.19858,0.07248 0.51705,0.18738 0.71563,0.25909 0.19859,0.07172 0.51706,0.18677 0.71563,0.2578 0.19858,0.07101 0.51705,0.18417 0.71564,0.25412 0.19858,0.06993 0.51705,0.18104 0.71564,0.25 0.19858,0.06894 0.51704,0.17885 0.71562,0.24698 0.19859,0.06815 0.51706,0.17673 0.71564,0.24417 0.19858,0.06746 0.51704,0.17534 0.71563,0.242 0.19858,0.06667 0.51705,0.17273 0.71562,0.23854 0.1986,0.0658 0.51707,0.17058 0.71564,0.23575 0.1986,0.06517 0.51708,0.16954 0.71566,0.23399 0.19857,0.06446 0.51704,0.16686 0.71563,0.23055 0.19858,0.06366 0.51705,0.16521 0.71563,0.22838 0.19859,0.06316 0.51705,0.16427 0.71564,0.22685 0.19859,0.06261 0.51705,0.16251 0.71563,0.22428 0.19857,0.06178 0.51704,0.15988 0.71564,0.22104 0.19857,0.06114 0.51704,0.15893 0.71562,0.21972 0.19859,0.06081 0.51706,0.15828 0.71564,0.21843 0.19857,0.06017 0.51704,0.15569 0.71563,0.21518 0.19858,0.05951 0.51704,0.15469 0.71564,0.21368 0.19858,0.05899 0.51704,0.15288 0.71562,0.21151 0.1986,0.05864 0.51706,0.15303 0.71564,0.21107 0.19858,0.05808 0.51704,0.15003 0.71564,0.20743 0.19857,0.0574 0.51704,0.14932 0.71562,0.2063 0.19859,0.05698 0.51706,0.14786 0.71564,0.20438 0.19859,0.05653 0.51706,0.147 0.71564,0.20307 0.19857,0.05609 0.51705,0.14536 0.71565,0.20113 0.19857,0.05577 0.51704,0.14564 0.71562,0.20093 0.19859,0.05525 0.51706,0.14271 0.71563,0.19743 0.19858,0.05474 0.51705,0.14267 0.71564,0.19704 0.19858,0.05436 0.51705,0.14094 0.71564,0.19487 0.19858,0.05391 0.51704,0.14026 0.71562,0.19375 0.1986,0.0535 0.51706,0.13874 0.71564,0.19184 0.19858,0.05311 0.51704,0.13804 0.71564,0.19096 0.19857,0.05293 0.51704,0.13796 0.71563,0.19055 0.19858,0.0526 0.51705,0.13663 0.71562,0.18857 0.1986,0.05194 0.51707,0.13417 0.71564,0.18578 0.19858,0.0516 0.51705,0.1349 0.71564,0.1862 0.19858,0.05131 0.51704,0.1328 0.71562,0.18362 0.19859,0.05083 0.51706,0.13219 0.71564,0.18276 0.19859,0.05054 0.51706,0.1311 0.71563,0.18165 0.19858,0.05057 0.51706,0.1325 0.71566,0.18275 0.19858,0.05026 0.51704,0.12962 0.71562,0.1795 0.19859,0.04991 0.51706,0.13055 0.71564,0.18016 0.19858,0.04959 0.51704,0.12831 0.71563,0.17734 0.19858,0.04902 0.51705,0.12738 0.71564,0.17605 0.19858,0.04866 0.51705,0.12628 0.71562,0.17473 0.19859,0.04846 0.51706,0.12625 0.71564,0.17453 0.19858,0.04828 0.51705,0.12553 0.71564,0.17346 0.19858,0.04791 0.51704,0.12433 0.71564,0.17194 0.19857,0.04757 0.51704,0.12361 0.71562,0.17106 0.19859,0.04743 0.51705,0.12377 0.71563,0.17086 0.19858,0.04706 0.51705,0.12169 0.71564,0.16847 0.19858,0.04677 0.51705,0.12204 0.71562,0.16869 0.1986,0.04666 0.51706,0.12124 0.71564,0.1676 0.19859,0.04635 0.51706,0.12045 0.71564,0.16651 0.19858,0.0461 0.51704,0.11986 0.71564,0.16569 0.19857,0.04582 0.51705,0.11903 0.71563,0.16458 0.1986,0.04553 0.51706,0.11831 0.71564,0.16369 0.19857,0.0454 0.51704,0.11837 0.71564,0.1635 0.19857,0.04517 0.51704,0.11717 0.71563,0.162 0.19858,0.04484 0.51705,0.11651 0.71563,0.16112 0.19859,0.04462 0.71563,0.16048 0.71563,0.16048"
       style="fill:none;stroke:#eb0a36;stroke-width:0.79701;stroke-linecap:butt;stroke-linejoin:miter;stroke-miterlimit:10;stroke-dasharray:none;stroke-opacity:1"
       transform="matrix(1.3333333,0,0,-1.3333333,180.828,200.016)" />
    <path
       id="path9"
       d="m 0,-28.3468 c 0,0 0.51704,2.56146 0.71562,3.18674 0.1986,0.62527 0.51706,0.99256 0.71564,1.31988 0.19858,0.32732 0.51704,0.78009 0.71564,1.03917 0.19857,0.25908 0.51704,0.60936 0.71562,0.82809 0.19859,0.21875 0.51706,0.55027 0.71564,0.74852 0.19859,0.19825 0.51705,0.49923 0.71564,0.68038 0.19857,0.18115 0.51704,0.45782 0.71563,0.62522 0.19858,0.16741 0.51704,0.42477 0.71562,0.58134 0.1986,0.15656 0.51706,0.39944 0.71564,0.54715 0.19858,0.14771 0.51704,0.37768 0.71564,0.51754 0.19857,0.13985 0.51704,0.35715 0.71563,0.49051 0.19858,0.13333 0.51704,0.34296 0.71563,0.47058 0.19859,0.12766 0.51705,0.32688 0.71563,0.44942 0.19858,0.12254 0.51705,0.31561 0.71564,0.43384 0.19858,0.11822 0.51704,0.30397 0.71562,0.41826 0.19859,0.11429 0.51708,0.29495 0.71565,0.4055 0.1986,0.11053 0.51707,0.28406 0.71564,0.39122 0.19858,0.10719 0.51705,0.27724 0.71564,0.38129 0.19858,0.10406 0.51704,0.26773 0.71562,0.36874 0.19859,0.101 0.51706,0.26059 0.71564,0.35922 0.19859,0.09864 0.51706,0.25522 0.71563,0.35167 0.19858,0.09644 0.51705,0.24921 0.71564,0.34343 0.19858,0.09419 0.51705,0.2435 0.71562,0.33563 0.1986,0.09216 0.51706,0.2383 0.71564,0.32853 0.19858,0.09023 0.51705,0.23347 0.71564,0.3218 0.19858,0.08833 0.51704,0.22826 0.71564,0.3149 0.19857,0.08663 0.51704,0.22444 0.71562,0.30948 0.19859,0.08502 0.51706,0.21988 0.71563,0.30342 0.19858,0.08353 0.51705,0.21666 0.71564,0.29867 0.19858,0.08201 0.51705,0.21183 0.71563,0.29239 0.19859,0.08055 0.51705,0.20884 0.71563,0.28829 0.19859,0.07945 0.51707,0.20627 0.71565,0.28439 0.19858,0.07814 0.51705,0.20192 0.71564,0.27878 0.19858,0.07684 0.51705,0.19941 0.71562,0.27508 0.1986,0.07569 0.51706,0.19563 0.71564,0.27034 0.19859,0.07471 0.51706,0.19445 0.71564,0.26818 0.19858,0.07371 0.51704,0.19075 0.71563,0.2632 0.19858,0.07246 0.51705,0.18737 0.71563,0.25908 0.19859,0.07173 0.51706,0.18678 0.71563,0.25779 0.19858,0.07104 0.51705,0.18418 0.71564,0.25412 0.19858,0.06995 0.51705,0.18106 0.71564,0.25002 0.19858,0.06894 0.51704,0.17883 0.71562,0.24696 0.19859,0.06816 0.51706,0.17673 0.71564,0.24417 0.19858,0.06746 0.51704,0.17536 0.71563,0.24201 0.19858,0.06668 0.51705,0.17274 0.71562,0.23856 0.1986,0.06579 0.51707,0.17056 0.71564,0.23573 0.1986,0.06517 0.51708,0.16955 0.71566,0.234 0.19857,0.06444 0.51704,0.16686 0.71563,0.23053 0.19858,0.06368 0.51705,0.16523 0.71563,0.22838 0.19859,0.06317 0.51705,0.16428 0.71564,0.22687 0.19859,0.06259 0.51705,0.16249 0.71563,0.22427 0.19857,0.06179 0.51704,0.15989 0.71564,0.22104 0.19857,0.06115 0.51704,0.15894 0.71562,0.21973 0.19859,0.06079 0.51706,0.15826 0.71564,0.21841 0.19857,0.06018 0.51704,0.15569 0.71563,0.2152 0.19858,0.05949 0.51704,0.15469 0.71564,0.21367 0.19858,0.059 0.51704,0.15289 0.71562,0.21151 0.1986,0.05863 0.51706,0.15302 0.71564,0.21108 0.19858,0.05808 0.51704,0.15001 0.71564,0.20741 0.19857,0.05741 0.51704,0.14934 0.71562,0.20632 0.19859,0.05697 0.51706,0.14784 0.71564,0.20437 0.19859,0.05654 0.51706,0.14701 0.71564,0.20308 0.19857,0.05608 0.51705,0.14534 0.71565,0.20113 0.19857,0.05577 0.51704,0.14564 0.71562,0.20091 0.19859,0.05527 0.51706,0.14272 0.71563,0.19745 0.19858,0.05473 0.51705,0.14265 0.71564,0.19704 0.19858,0.05435 0.51705,0.14093 0.71564,0.19485 0.19858,0.05392 0.51704,0.14027 0.71562,0.19377 0.1986,0.05348 0.51706,0.13874 0.71564,0.19184 0.19858,0.05311 0.51704,0.13804 0.71564,0.19096 0.19857,0.05293 0.51704,0.13794 0.71563,0.19054 0.19858,0.05259 0.51705,0.13664 0.71562,0.18858 0.1986,0.05193 0.51707,0.13415 0.71564,0.18576 0.19858,0.05162 0.51705,0.1349 0.71564,0.18622 0.19858,0.0513 0.51704,0.13278 0.71562,0.18362 0.19859,0.05081 0.51706,0.13217 0.71564,0.18274 0.19859,0.05055 0.51706,0.13111 0.71563,0.18167 0.19858,0.05056 0.51706,0.13248 0.71566,0.18274 0.19858,0.05026 0.51704,0.12961 0.71562,0.17951 0.19859,0.04987 0.51706,0.13052 0.71564,0.18013 0.19858,0.04959 0.51704,0.12829 0.71563,0.17732 0.19858,0.04902 0.51705,0.12738 0.71564,0.17605 0.19858,0.04867 0.51705,0.12629 0.71562,0.17473 0.19859,0.04848 0.51706,0.12625 0.71564,0.17455 0.19858,0.04828 0.51705,0.12553 0.71564,0.17344 0.19858,0.04792 0.51704,0.12435 0.71564,0.17194 0.19857,0.04758 0.51704,0.12363 0.71562,0.17107 0.19859,0.04744 0.51705,0.12378 0.71563,0.17085 0.19858,0.04707 0.51705,0.1217 0.71564,0.16847 0.19858,0.04679 0.51705,0.12204 0.71562,0.1687 0.1986,0.04665 0.51706,0.12123 0.71564,0.16761 0.19859,0.04634 0.51706,0.12043 0.71564,0.16651 0.19858,0.0461 0.51704,0.11986 0.71564,0.16567 0.19857,0.04582 0.51705,0.11903 0.71563,0.16458 0.1986,0.04555 0.51706,0.11832 0.71564,0.16371 0.19857,0.0454 0.51704,0.11835 0.71564,0.1635 0.19857,0.04517 0.51704,0.11716 0.71563,0.16199 0.19858,0.04483 0.51705,0.11651 0.71563,0.16113 0.19859,0.04462 0.71563,0.16046 0.71563,0.16046"
       style="fill:none;stroke:#008080;stroke-width:0.79701;stroke-linecap:butt;stroke-linejoin:miter;stroke-miterlimit:10;stroke-dasharray:none;stroke-opacity:1"
       transform="matrix(1.3333333,0,0,-1.3333333,180.828,200.016)" />
    <g
       id="g9"
       aria-label="f(x)=&#10;√"
       transform="matrix(1.3333333,0,0,1.3333333,206.40533,146.97867)">
      <path
         id="path10"
         d="m 3.6569375,-3.9830234 h 0.8554687 c 0.1992188,0 0.3046875,0 0.3046875,-0.1992188 0,-0.1054687 -0.1054687,-0.1054687 -0.2695312,-0.1054687 H 3.7155312 l 0.2109375,-1.1367188 c 0.035156,-0.2109375 0.1757813,-0.9140625 0.234375,-1.0429687 0.09375,-0.1875 0.2578125,-0.3398438 0.46875,-0.3398438 0.046875,0 0.3046875,0 0.4921875,0.1875 -0.4335937,0.035156 -0.5390625,0.3867188 -0.5390625,0.5390625 0,0.2226563 0.1757813,0.3398438 0.3632813,0.3398438 0.2695312,0 0.5507812,-0.2109375 0.5507812,-0.5976563 0,-0.4570312 -0.4570312,-0.6796875 -0.8671875,-0.6796875 -0.3398437,0 -0.9609375,0.1757813 -1.265625,1.1601563 -0.058594,0.2109375 -0.082031,0.3164062 -0.328125,1.5703125 H 2.3561562 c -0.1992187,0 -0.3046875,0 -0.3046875,0.1875 0,0.1171875 0.09375,0.1171875 0.28125,0.1171875 h 0.65625 l -0.75,3.93749996 C 2.0631875,0.91541406 1.899125,1.8294766 1.3717812,1.8294766 c -0.035156,0 -0.28125,0 -0.46874995,-0.1875 C 1.3600625,1.6185391 1.4420937,1.2552578 1.4420937,1.1029141 c 0,-0.22265629 -0.1757812,-0.33984379 -0.3632812,-0.33984379 -0.2578125,0 -0.55078125,0.2109375 -0.55078125,0.59765629 0,0.4453125 0.43359375,0.6796875 0.84374995,0.6796875 0.5507813,0 0.9492188,-0.5859375 1.125,-0.9609375 0.328125,-0.63281254 0.5507813,-1.83984379 0.5625,-1.91015629 z m 0,0"
         style="fill:#eb0a36;fill-opacity:1;fill-rule:nonzero;stroke:none" />
      <path
         id="path11"
         d="m 9.2467812,2.3919766 c 0,-0.035156 0,-0.046875 -0.1640625,-0.2226563 -1.2421875,-1.25390624 -1.5703125,-3.12890624 -1.5703125,-4.6640625 0,-1.7226562 0.3867188,-3.4570312 1.6054688,-4.7109375 0.1289062,-0.1171875 0.1289062,-0.1289062 0.1289062,-0.1640625 0,-0.070312 -0.035156,-0.1054687 -0.09375,-0.1054687 -0.1054687,0 -0.9960937,0.6796875 -1.5820312,1.9453125 -0.515625,1.1015625 -0.6328125,2.203125 -0.6328125,3.0351562 0,0.7851563 0.1171875,1.99218751 0.65625,3.11718751 0.5976562,1.21874999 1.453125,1.87499999 1.5585937,1.87499999 0.058594,0 0.09375,-0.035156 0.09375,-0.1054687 z m 0,0"
         style="fill:#eb0a36;fill-opacity:1;fill-rule:nonzero;stroke:none" />
      <path
         id="path12"
         d="m 13.154984,-3.0103672 c 0.05859,-0.2578125 0.292969,-1.171875 0.984375,-1.171875 0.04687,0 0.292969,0 0.503907,0.1289063 -0.28125,0.046875 -0.480469,0.3046875 -0.480469,0.5390625 0,0.1640625 0.105469,0.3515625 0.375,0.3515625 0.222656,0 0.539062,-0.1875 0.539062,-0.5859375 0,-0.515625 -0.585937,-0.65625 -0.925781,-0.65625 -0.574219,0 -0.925781,0.5273437 -1.042969,0.7617187 -0.257812,-0.65625 -0.785156,-0.7617187 -1.078125,-0.7617187 -1.042968,0 -1.605468,1.2890625 -1.605468,1.5351562 0,0.1054688 0.105468,0.1054688 0.117187,0.1054688 0.08203,0 0.117188,-0.023437 0.128906,-0.1171875 0.339844,-1.0546875 0.996094,-1.3007813 1.335938,-1.3007813 0.1875,0 0.539062,0.09375 0.539062,0.6679688 0,0.3046875 -0.164062,0.9726562 -0.539062,2.3671875 -0.152344,0.62109371 -0.503906,1.04296871 -0.949219,1.04296871 -0.05859,0 -0.28125,0 -0.492187,-0.12890625 0.246093,-0.0585938 0.46875,-0.26953125 0.46875,-0.5390625 0,-0.26953126 -0.222657,-0.35156246 -0.375,-0.35156246 -0.292969,0 -0.539063,0.25781246 -0.539063,0.57421871 0,0.45703125 0.492188,0.65625 0.9375,0.65625 0.65625,0 1.007813,-0.69140625 1.042969,-0.75 0.117187,0.36328125 0.480469,0.75 1.078125,0.75 1.019531,0 1.59375,-1.27734371 1.59375,-1.53515621 0,-0.09375 -0.09375,-0.09375 -0.128906,-0.09375 -0.08203,0 -0.105469,0.035156 -0.128907,0.1054687 -0.328125,1.06640626 -0.996093,1.31250001 -1.324218,1.31250001 -0.386719,0 -0.539063,-0.328125 -0.539063,-0.65625 0,-0.22265625 0.05859,-0.44531251 0.164063,-0.87890621 z m 0,0"
         style="fill:#eb0a36;fill-opacity:1;fill-rule:nonzero;stroke:none" />
      <path
         id="path13"
         d="m 18.404984,-2.4947422 c 0,-0.7734375 -0.117187,-1.9804687 -0.65625,-3.1054687 -0.597656,-1.21875 -1.464843,-1.875 -1.558593,-1.875 -0.05859,0 -0.105469,0.046875 -0.105469,0.1054687 0,0.035156 0,0.046875 0.199219,0.234375 0.972656,0.984375 1.535156,2.5664063 1.535156,4.640625 0,1.71093751 -0.363281,3.45703126 -1.59375,4.7226563 -0.140625,0.1171875 -0.140625,0.1289062 -0.140625,0.1640625 0,0.058594 0.04687,0.1054687 0.105469,0.1054687 0.09375,0 0.996093,-0.6796875 1.582031,-1.94531249 0.503906,-1.1015625 0.632812,-2.20312501 0.632812,-3.04687501 z m 10.59375,-0.7617187 c 0.152344,0 0.339844,0 0.339844,-0.1992188 0,-0.1992187 -0.1875,-0.1992187 -0.328125,-0.1992187 h -5.964844 c -0.140625,0 -0.328125,0 -0.328125,0.1992187 0,0.1992188 0.1875,0.1992188 0.339844,0.1992188 z m 0.01172,1.9335937 c 0.140625,0 0.328125,0 0.328125,-0.1992187 0,-0.1992188 -0.1875,-0.1992188 -0.339844,-0.1992188 h -5.941406 c -0.152344,0 -0.339844,0 -0.339844,0.1992188 0,0.1992187 0.1875,0.1992187 0.328125,0.1992187 z m 0,0"
         style="fill:#eb0a36;fill-opacity:1;fill-rule:nonzero;stroke:none" />
      <path
         id="path14"
         d="m 36.554398,1.3431484 -1.757812,-3.8789062 c -0.07031,-0.1523438 -0.117188,-0.1523438 -0.152344,-0.1523438 -0.01172,0 -0.05859,0 -0.164062,0.070312 l -0.949219,0.7265625 c -0.128906,0.09375 -0.128906,0.1289063 -0.128906,0.1523438 0,0.046875 0.03516,0.1054687 0.105468,0.1054687 0.05859,0 0.222657,-0.1289062 0.328125,-0.2109375 0.07031,-0.046875 0.210938,-0.1640625 0.328125,-0.2460937 l 1.957032,4.3125 c 0.07031,0.1640625 0.117187,0.1640625 0.210937,0.1640625 0.152344,0 0.175781,-0.058594 0.246094,-0.1992188 l 4.523437,-9.3632812 c 0.07031,-0.140625 0.07031,-0.1757813 0.07031,-0.1992188 0,-0.1054687 -0.08203,-0.1992187 -0.199219,-0.1992187 -0.08203,0 -0.152344,0.046875 -0.222656,0.2109375 z m 0,0"
         style="fill:#eb0a36;fill-opacity:1;fill-rule:nonzero;stroke:none" />
    </g>
    <path
       id="path15"
       d="M 0,0 H 5.694"
       style="fill:none;stroke:#eb0a36;stroke-width:0.398;stroke-linecap:butt;stroke-linejoin:miter;stroke-miterlimit:10;stroke-dasharray:none;stroke-opacity:1"
       transform="matrix(1.3333333,0,0,-1.3333333,261.04267,137.14533)" />
    <path
       id="path16"
       d="m 3.3283516,-3.0103672 c 0.058594,-0.2578125 0.2929687,-1.171875 0.984375,-1.171875 0.046875,0 0.2929687,0 0.5039062,0.1289063 -0.28125,0.046875 -0.4804687,0.3046875 -0.4804687,0.5390625 0,0.1640625 0.1054687,0.3515625 0.375,0.3515625 0.2226562,0 0.5390625,-0.1875 0.5390625,-0.5859375 0,-0.515625 -0.5859375,-0.65625 -0.9257813,-0.65625 -0.5742187,0 -0.9257812,0.5273437 -1.0429687,0.7617187 -0.2578125,-0.65625 -0.7851563,-0.7617187 -1.078125,-0.7617187 -1.0429688,0 -1.60546879,1.2890625 -1.60546879,1.5351562 0,0.1054688 0.10546875,0.1054688 0.1171875,0.1054688 0.0820313,0 0.1171875,-0.023437 0.12890625,-0.1171875 0.33984374,-1.0546875 0.99609374,-1.3007813 1.33593754,-1.3007813 0.1875,0 0.5390625,0.09375 0.5390625,0.6679688 0,0.3046875 -0.1640625,0.9726562 -0.5390625,2.3671875 -0.1523438,0.62109371 -0.5039063,1.04296871 -0.9492188,1.04296871 -0.058594,0 -0.28124999,0 -0.49218749,-0.12890625 0.24609375,-0.0585938 0.46874999,-0.26953125 0.46874999,-0.5390625 0,-0.26953126 -0.22265624,-0.35156246 -0.37499999,-0.35156246 -0.29296875,0 -0.5390625,0.25781246 -0.5390625,0.57421871 0,0.45703125 0.4921875,0.65625 0.93749999,0.65625 0.65625,0 1.0078125,-0.69140625 1.0429688,-0.75 0.1171875,0.36328125 0.4804687,0.75 1.078125,0.75 1.0195312,0 1.59375,-1.27734371 1.59375,-1.53515621 0,-0.09375 -0.09375,-0.09375 -0.1289063,-0.09375 -0.082031,0 -0.1054687,0.035156 -0.1289062,0.1054687 -0.328125,1.06640626 -0.9960938,1.31250001 -1.3242188,1.31250001 -0.3867187,0 -0.5390625,-0.328125 -0.5390625,-0.65625 0,-0.22265625 0.058594,-0.44531251 0.1640625,-0.87890621 z m 0,0"
       style="fill:#eb0a36;fill-opacity:1;fill-rule:nonzero;stroke:none"
       aria-label="x"
       transform="matrix(1.3333333,0,0,1.3333333,261.04267,146.97867)" />
    <g
       id="g16"
       aria-label="f&#10;1&#10;(x)=&#10;√"
       transform="matrix(1.3333333,0,0,1.3333333,192.70267,241.46667)">
      <path
         id="path17"
         d="m 3.6565938,-3.9857422 h 0.8554687 c 0.1992188,0 0.3046875,0 0.3046875,-0.1992187 0,-0.1054688 -0.1054687,-0.1054688 -0.2695312,-0.1054688 H 3.7151875 L 3.926125,-5.4271484 c 0.035156,-0.2109375 0.1757813,-0.9140625 0.234375,-1.0429688 0.09375,-0.1875 0.2578125,-0.3398437 0.46875,-0.3398437 0.046875,0 0.3046875,0 0.4921875,0.1875 -0.4335937,0.035156 -0.5390625,0.3867187 -0.5390625,0.5390625 0,0.2226562 0.1757813,0.3398437 0.3632813,0.3398437 0.2695312,0 0.5507812,-0.2109375 0.5507812,-0.5976562 0,-0.4570313 -0.4570312,-0.6796875 -0.8671875,-0.6796875 -0.3398437,0 -0.9609375,0.1757812 -1.265625,1.1601562 C 3.305031,-5.6498047 3.281594,-5.5443359 3.0355,-4.2904297 H 2.3558125 c -0.1992187,0 -0.3046875,0 -0.3046875,0.1875 0,0.1171875 0.09375,0.1171875 0.28125,0.1171875 h 0.65625 l -0.75,3.93750001 C 2.0628438,0.91269531 1.8987813,1.8267578 1.3714375,1.8267578 c -0.035156,0 -0.28125,0 -0.46875,-0.1875 C 1.3597188,1.6158203 1.44175,1.2525391 1.44175,1.1001953 c 0,-0.22265624 -0.1757812,-0.33984374 -0.3632812,-0.33984374 -0.25781255,0 -0.5507813,0.2109375 -0.5507813,0.59765624 0,0.4453125 0.43359375,0.6796875 0.84375,0.6796875 0.5507813,0 0.9492188,-0.5859375 1.125,-0.9609375 0.328125,-0.63281249 0.5507813,-1.83984374 0.5625,-1.91015624 z m 0,0"
         style="fill:#008080;fill-opacity:1;fill-rule:nonzero;stroke:none" />
      <path
         id="path18"
         d="m 7.2103047,-2.9369141 c 0,-0.1875 -0.011719,-0.1992187 -0.2109375,-0.1992187 -0.4453125,0.4335937 -1.078125,0.4453125 -1.359375,0.4453125 v 0.2460937 c 0.1640625,0 0.6210937,0 1.0078125,-0.1875 v 3.55078129 c 0,0.23437501 0,0.32812501 -0.6914063,0.32812501 H 5.6868672 v 0.2460937 c 0.1289062,-0.011719 0.984375,-0.023437 1.2421875,-0.023437 0.2109375,0 1.0898437,0.011719 1.2421875,0.023437 V 1.2466797 H 7.9134297 c -0.703125,0 -0.703125,-0.09375 -0.703125,-0.32812501 z m 0,0"
         style="fill:#008080;fill-opacity:1;fill-rule:nonzero;stroke:none" />
      <path
         id="path19"
         d="m 12.639016,2.3892578 c 0,-0.035156 0,-0.046875 -0.164063,-0.2226562 -1.242187,-1.25390629 -1.570312,-3.12890629 -1.570312,-4.6640625 0,-1.7226563 0.386718,-3.4570313 1.605468,-4.7109375 0.128907,-0.1171875 0.128907,-0.1289063 0.128907,-0.1640625 0,-0.070312 -0.03516,-0.1054688 -0.09375,-0.1054688 -0.105469,0 -0.996094,0.6796875 -1.582032,1.9453125 -0.515625,1.1015625 -0.632812,2.203125 -0.632812,3.0351563 0,0.7851562 0.117187,1.99218746 0.65625,3.11718746 0.597656,1.21875004 1.453125,1.87500004 1.558594,1.87500004 0.05859,0 0.09375,-0.035156 0.09375,-0.1054688 z m 0,0"
         style="fill:#008080;fill-opacity:1;fill-rule:nonzero;stroke:none" />
      <path
         id="path20"
         d="m 16.550148,-3.0130859 c 0.05859,-0.2578125 0.292969,-1.171875 0.984375,-1.171875 0.04687,0 0.292969,0 0.503907,0.1289062 -0.28125,0.046875 -0.480469,0.3046875 -0.480469,0.5390625 0,0.1640625 0.105469,0.3515625 0.375,0.3515625 0.222656,0 0.539062,-0.1875 0.539062,-0.5859375 0,-0.515625 -0.585937,-0.65625 -0.925781,-0.65625 -0.574219,0 -0.925781,0.5273438 -1.042969,0.7617188 -0.257812,-0.65625 -0.785156,-0.7617188 -1.078125,-0.7617188 -1.042968,0 -1.605468,1.2890625 -1.605468,1.5351563 0,0.1054687 0.105468,0.1054687 0.117187,0.1054687 0.08203,0 0.117188,-0.023437 0.128906,-0.1171875 0.339844,-1.0546875 0.996094,-1.3007812 1.335938,-1.3007812 0.1875,0 0.539062,0.09375 0.539062,0.6679687 0,0.3046875 -0.164062,0.9726563 -0.539062,2.3671875 -0.152344,0.62109376 -0.503906,1.04296876 -0.949219,1.04296876 -0.05859,0 -0.28125,0 -0.492187,-0.12890625 0.246093,-0.0585938 0.46875,-0.26953125 0.46875,-0.5390625 0,-0.26953121 -0.222657,-0.35156251 -0.375,-0.35156251 -0.292969,0 -0.539063,0.25781251 -0.539063,0.57421876 0,0.45703125 0.492188,0.65625 0.9375,0.65625 0.65625,0 1.007813,-0.69140625 1.042969,-0.75 0.117187,0.36328125 0.480469,0.75 1.078125,0.75 1.019531,0 1.59375,-1.27734376 1.59375,-1.53515626 0,-0.09375 -0.09375,-0.09375 -0.128906,-0.09375 -0.08203,0 -0.105469,0.035156 -0.128907,0.1054688 -0.328125,1.06640621 -0.996093,1.31249996 -1.324218,1.31249996 -0.386719,0 -0.539063,-0.328125 -0.539063,-0.65625 0,-0.22265625 0.05859,-0.44531246 0.164063,-0.87890626 z m 0,0"
         style="fill:#008080;fill-opacity:1;fill-rule:nonzero;stroke:none" />
      <path
         id="path21"
         d="m 21.797219,-2.4974609 c 0,-0.7734375 -0.117188,-1.9804688 -0.65625,-3.1054688 -0.597656,-1.21875 -1.464844,-1.875 -1.558594,-1.875 -0.05859,0 -0.105469,0.046875 -0.105469,0.1054688 0,0.035156 0,0.046875 0.199219,0.234375 0.972656,0.984375 1.535156,2.5664062 1.535156,4.640625 0,1.71093746 -0.363281,3.45703121 -1.59375,4.7226562 -0.140625,0.1171875 -0.140625,0.1289063 -0.140625,0.1640625 0,0.058594 0.04687,0.1054688 0.105469,0.1054688 0.09375,0 0.996094,-0.6796875 1.582031,-1.94531254 0.503907,-1.1015625 0.632813,-2.20312496 0.632813,-3.04687496 z m 10.605469,-0.7617188 c 0.152343,0 0.339843,0 0.339843,-0.1992187 0,-0.1992188 -0.1875,-0.1992188 -0.328125,-0.1992188 h -5.964843 c -0.140625,0 -0.328125,0 -0.328125,0.1992188 0,0.1992187 0.1875,0.1992187 0.339843,0.1992187 z m 0.01172,1.9335938 c 0.140625,0 0.328125,0 0.328125,-0.1992188 0,-0.1992187 -0.1875,-0.1992187 -0.339843,-0.1992187 h -5.941407 c -0.152343,0 -0.339843,0 -0.339843,0.1992187 0,0.1992188 0.1875,0.1992188 0.328125,0.1992188 z m 0,0"
         style="fill:#008080;fill-opacity:1;fill-rule:nonzero;stroke:none" />
      <path
         id="path22"
         d="M 39.952492,1.3433594 38.19468,-2.5355469 c -0.07031,-0.1523437 -0.117188,-0.1523437 -0.152344,-0.1523437 -0.01172,0 -0.05859,0 -0.164063,0.070312 l -0.949218,0.7265625 c -0.128907,0.09375 -0.128907,0.1289062 -0.128907,0.1523437 0,0.046875 0.03516,0.1054688 0.105469,0.1054688 0.05859,0 0.222656,-0.1289063 0.328125,-0.2109375 0.07031,-0.046875 0.210938,-0.1640625 0.328125,-0.2460938 l 1.957031,4.3125 c 0.07031,0.1640625 0.117188,0.1640625 0.210938,0.1640625 0.152344,0 0.175781,-0.058594 0.246094,-0.1992187 l 4.523437,-9.3632813 c 0.07031,-0.140625 0.07031,-0.1757812 0.07031,-0.1992187 0,-0.1054688 -0.08203,-0.1992188 -0.199219,-0.1992188 -0.08203,0 -0.152344,0.046875 -0.222656,0.2109375 z m 0,0"
         style="fill:#008080;fill-opacity:1;fill-rule:nonzero;stroke:none" />
    </g>
    <path
       id="path23"
       d="M 0,0 H 5.694"
       style="fill:none;stroke:#008080;stroke-width:0.398;stroke-linecap:butt;stroke-linejoin:miter;stroke-miterlimit:10;stroke-dasharray:none;stroke-opacity:1"
       transform="matrix(1.3333333,0,0,-1.3333333,251.86933,231.63333)" />
    <g
       id="g23"
       aria-label="x−2"
       transform="matrix(1.3333333,0,0,1.3333333,251.86933,241.46667)">
      <path
         id="path24"
         d="m 3.3294453,-3.0130859 c 0.058594,-0.2578125 0.2929688,-1.171875 0.984375,-1.171875 0.046875,0 0.2929688,0 0.5039063,0.1289062 -0.28125,0.046875 -0.4804688,0.3046875 -0.4804688,0.5390625 0,0.1640625 0.1054688,0.3515625 0.375,0.3515625 0.2226563,0 0.5390625,-0.1875 0.5390625,-0.5859375 0,-0.515625 -0.5859375,-0.65625 -0.9257812,-0.65625 -0.5742188,0 -0.9257813,0.5273438 -1.0429688,0.7617188 -0.2578125,-0.65625 -0.7851562,-0.7617188 -1.078125,-0.7617188 -1.0429687,0 -1.60546874,1.2890625 -1.60546874,1.5351563 0,0.1054687 0.10546875,0.1054687 0.1171875,0.1054687 0.0820313,0 0.1171875,-0.023437 0.12890625,-0.1171875 0.33984379,-1.0546875 0.99609379,-1.3007812 1.33593749,-1.3007812 0.1875,0 0.5390625,0.09375 0.5390625,0.6679687 0,0.3046875 -0.1640625,0.9726563 -0.5390625,2.3671875 -0.1523437,0.62109376 -0.5039062,1.04296876 -0.9492187,1.04296876 -0.058594,0 -0.28125004,0 -0.49218754,-0.12890625 0.24609375,-0.0585938 0.46875004,-0.26953125 0.46875004,-0.5390625 0,-0.26953121 -0.22265629,-0.35156251 -0.37500004,-0.35156251 -0.29296875,0 -0.5390625,0.25781251 -0.5390625,0.57421876 0,0.45703125 0.4921875,0.65625 0.93750004,0.65625 0.65625,0 1.0078125,-0.69140625 1.0429687,-0.75 0.1171875,0.36328125 0.4804688,0.75 1.078125,0.75 1.0195313,0 1.59375,-1.27734376 1.59375,-1.53515626 0,-0.09375 -0.09375,-0.09375 -0.1289062,-0.09375 -0.082031,0 -0.1054688,0.035156 -0.1289063,0.1054688 -0.328125,1.06640621 -0.9960937,1.31249996 -1.3242187,1.31249996 -0.3867188,0 -0.5390625,-0.328125 -0.5390625,-0.65625 0,-0.22265625 0.058594,-0.44531246 0.1640625,-0.87890626 z m 0,0"
         style="fill:#008080;fill-opacity:1;fill-rule:nonzero;stroke:none" />
      <path
         id="path25"
         d="m 14.468117,-2.2982422 c 0.175781,0 0.351563,0 0.351563,-0.1992187 0,-0.1992188 -0.175782,-0.1992188 -0.351563,-0.1992188 H 9.0774922 c -0.1640625,0 -0.3398438,0 -0.3398438,0.1992188 0,0.1992187 0.1757813,0.1992187 0.3398438,0.1992187 z m 0,0"
         style="fill:#008080;fill-opacity:1;fill-rule:nonzero;stroke:none" />
      <path
         id="path26"
         d="m 19.13218,-0.76308594 1.054687,-1.03124996 c 1.558594,-1.3710938 2.15625,-1.9101563 2.15625,-2.90625 0,-1.1367188 -0.902344,-1.9335938 -2.121094,-1.9335938 -1.125,0 -1.851562,0.9140625 -1.851562,1.8046875 0,0.5507813 0.492187,0.5507813 0.527344,0.5507813 0.164062,0 0.515625,-0.1171875 0.515625,-0.5273438 0,-0.2578125 -0.1875,-0.515625 -0.527344,-0.515625 -0.08203,0 -0.105469,0 -0.128906,0.011719 0.222656,-0.6445313 0.761718,-1.0195313 1.335937,-1.0195313 0.914063,0 1.335938,0.8085938 1.335938,1.6289063 0,0.796875 -0.492188,1.5820312 -1.042969,2.203125 l -1.910156,2.13281246 c -0.105469,0.10546875 -0.105469,0.12890625 -0.105469,0.36328125 h 3.691406 l 0.28125,-1.73437501 h -0.257812 c -0.04687,0.3046875 -0.117188,0.73828126 -0.210938,0.89062501 -0.07031,0.0820313 -0.726562,0.0820313 -0.949219,0.0820313 z m 0,0"
         style="fill:#008080;fill-opacity:1;fill-rule:nonzero;stroke:none" />
    </g>
  </g>
</svg>
