<?xml version="1.0" encoding="UTF-8" standalone="no"?>
<!-- Created with Inkscape (http://www.inkscape.org/) -->

<svg
   version="1.1"
   id="svg1"
   width="164.14743"
   height="153.36433"
   viewBox="0 0 164.14743 153.36434"
   sodipodi:docname="1.3-valor-absoluto-funcion1.svg"
   inkscape:version="1.4.2 (f4327f4, 2025-05-13)"
   xmlns:inkscape="http://www.inkscape.org/namespaces/inkscape"
   xmlns:sodipodi="http://sodipodi.sourceforge.net/DTD/sodipodi-0.dtd"
   xmlns="http://www.w3.org/2000/svg"
   xmlns:svg="http://www.w3.org/2000/svg">
  <defs
     id="defs1" />
  <sodipodi:namedview
     id="namedview1"
     pagecolor="#ffffff"
     bordercolor="#000000"
     borderopacity="0.25"
     inkscape:showpageshadow="2"
     inkscape:pageopacity="0.0"
     inkscape:pagecheckerboard="0"
     inkscape:deskcolor="#d1d1d1"
     inkscape:zoom="2.2241536"
     inkscape:cx="84.751341"
     inkscape:cy="93.743525"
     inkscape:window-width="1920"
     inkscape:window-height="1009"
     inkscape:window-x="-8"
     inkscape:window-y="-8"
     inkscape:window-maximized="1"
     inkscape:current-layer="g1">
    <inkscape:page
       x="0"
       y="0"
       inkscape:label="15"
       id="page1"
       width="164.14743"
       height="153.36433"
       margin="0"
       bleed="0" />
  </sodipodi:namedview>
  <g
     id="g1"
     inkscape:groupmode="layer"
     inkscape:label="15"
     transform="translate(-157.20413,-87.472655)">
    <path
       id="path2"
       d="M -49.6069,0 H 70.40874"
       style="fill:none;stroke:#000000;stroke-width:0.3985;stroke-linecap:butt;stroke-linejoin:miter;stroke-miterlimit:10;stroke-dasharray:none;stroke-opacity:1"
       transform="matrix(1.3333333,0,0,-1.3333333,223.34667,205.58)" />
    <path
       id="path3"
       d="M -1.19551,1.59401 C -1.09587,0.99626 0,0.09961 0.29886,0 0,-0.09961 -1.09587,-0.99626 -1.19551,-1.59401"
       style="fill:none;stroke:#000000;stroke-width:0.31879;stroke-linecap:round;stroke-linejoin:round;stroke-miterlimit:10;stroke-dasharray:none;stroke-opacity:1"
       transform="matrix(1.3333333,0,0,-1.3333333,317.22499,205.58)" />
    <path
       id="path4"
       d="m 3.6452969,-3.2921953 c 0.070312,-0.28125 0.3164062,-1.2890625 1.078125,-1.2890625 0.058594,0 0.3164062,0 0.5507812,0.140625 -0.3046875,0.058594 -0.5273437,0.328125 -0.5273437,0.5859375 0,0.1757812 0.1171875,0.3867187 0.4101562,0.3867187 0.2460938,0 0.5976563,-0.1992187 0.5976563,-0.6328125 0,-0.5625 -0.6445313,-0.7265625 -1.0195313,-0.7265625 -0.6328125,0 -1.0195312,0.5859375 -1.1484375,0.8320313 -0.2695312,-0.7148438 -0.8554687,-0.8320313 -1.171875,-0.8320313 -1.1367187,0 -1.75781247,1.4179688 -1.75781247,1.6875 0,0.1054688 0.10546875,0.1054688 0.12890625,0.1054688 0.0820313,0 0.1171875,-0.023437 0.140625,-0.1171875 0.37500002,-1.1601563 1.08984372,-1.4296875 1.46484372,-1.4296875 0.2109375,0 0.5859375,0.09375 0.5859375,0.7265625 0,0.3398437 -0.1875,1.078125 -0.5859375,2.6015625 -0.1757812,0.67968749 -0.5625,1.13671874 -1.0429687,1.13671874 -0.058594,0 -0.3164063,0 -0.53906252,-0.140625 0.26953122,-0.0585938 0.51562502,-0.29296875 0.51562502,-0.59765625 0,-0.29296879 -0.2460938,-0.37499999 -0.41015627,-0.37499999 -0.328125,0 -0.59765625,0.28124999 -0.59765625,0.63281249 0,0.50390625 0.55078125,0.71484375 1.03125002,0.71484375 0.7148437,0 1.1015625,-0.76171875 1.1367187,-0.83203125 0.1289063,0.41015625 0.5273438,0.83203125 1.1835938,0.83203125 1.125,0 1.7460937,-1.40625004 1.7460937,-1.67578124 0,-0.1054688 -0.1054687,-0.1054688 -0.1289062,-0.1054688 -0.1054688,0 -0.1289063,0.035156 -0.140625,0.1171875 -0.3632813,1.16015629 -1.1132813,1.42968754 -1.453125,1.42968754 -0.4335938,0 -0.609375,-0.3515625 -0.609375,-0.7265625 0,-0.23437504 0.070312,-0.48046874 0.1875,-0.96093754 z m 0,0"
       style="fill:#000000;fill-opacity:1;fill-rule:nonzero;stroke:none"
       aria-label="x"
       transform="matrix(1.3333333,0,0,1.3333333,313.67867,216.956)" />
    <path
       id="path5"
       d="M 0,-14.17339 V 84.58214"
       style="fill:none;stroke:#000000;stroke-width:0.3985;stroke-linecap:butt;stroke-linejoin:miter;stroke-miterlimit:10;stroke-dasharray:none;stroke-opacity:1"
       transform="matrix(1.3333333,0,0,-1.3333333,223.34667,205.58)" />
    <path
       id="path6"
       d="M -1.19551,1.59401 C -1.09587,0.99626 0,0.09961 0.29886,0 0,-0.09961 -1.09587,-0.99626 -1.19551,-1.59401"
       style="fill:none;stroke:#000000;stroke-width:0.31879;stroke-linecap:round;stroke-linejoin:round;stroke-miterlimit:10;stroke-dasharray:none;stroke-opacity:1"
       transform="matrix(0,-1.3333333,-1.3333333,0,223.34667,92.803813)" />
    <path
       id="path7"
       d="m 5.2965781,-4.1605391 c 0.046875,-0.1523437 0.046875,-0.1757812 0.046875,-0.2460937 0,-0.1992188 -0.1523437,-0.2929688 -0.3164062,-0.2929688 -0.1054688,0 -0.28125,0.058594 -0.375,0.2226563 -0.023437,0.058594 -0.1171875,0.3984375 -0.1523438,0.5976562 -0.082031,0.28125 -0.1523437,0.5742188 -0.2226562,0.8671875 l -0.4921875,1.96875 c -0.046875,0.16406254 -0.515625,0.92578129 -1.2304688,0.92578129 -0.5625,0 -0.6796875,-0.48046875 -0.6796875,-0.89062499 0,-0.4921875 0.1875,-1.171875 0.5625,-2.1328125 0.1757813,-0.4453125 0.2109375,-0.5742188 0.2109375,-0.7851563 0,-0.4921875 -0.3515625,-0.9023437 -0.890625,-0.9023437 -1.04296872,0 -1.44140622,1.5820312 -1.44140622,1.6875 0,0.1054687 0.10546875,0.1054687 0.12890625,0.1054687 0.10546875,0 0.1171875,-0.023437 0.17578125,-0.1992187 0.29296875,-1.0195313 0.72656252,-1.3476563 1.10156252,-1.3476563 0.09375,0 0.2695312,0 0.2695312,0.3515625 0,0.2695313 -0.1054687,0.5507813 -0.1757812,0.7617188 -0.4453125,1.1601562 -0.6328125,1.78125 -0.6328125,2.2851562 0,0.97265629 0.6796875,1.30078129 1.3242187,1.30078129 0.421875,0 0.796875,-0.1875 1.1015625,-0.4921875 -0.140625,0.57421875 -0.2695312,1.1015625 -0.703125,1.68750001 -0.2929687,0.3632812 -0.703125,0.6796875 -1.2070312,0.6796875 -0.1523438,0 -0.6445313,-0.023437 -0.83203127,-0.4570313 0.17578127,0 0.31640627,0 0.48046877,-0.1289062 0.1054687,-0.09375 0.2109375,-0.234375 0.2109375,-0.44531251 0,-0.33984375 -0.2929688,-0.38671875 -0.3984375,-0.38671875 -0.25781252,0 -0.60937502,0.17578125 -0.60937502,0.71484376 0,0.5390625 0.48046872,0.9492187 1.14843752,0.9492187 1.125,0 2.25,-0.9960937 2.5546875,-2.22656246 z m 0,0"
       style="fill:#000000;fill-opacity:1;fill-rule:nonzero;stroke:none"
       aria-label="y"
       transform="matrix(1.3333333,0,0,1.3333333,228.46133,93.910667)" />
    <path
       id="path8"
       d="m -31.18144,-26.38437 c 0,0 0.33096,2.23525 0.45807,3.06302 0.1271,0.82776 0.33094,2.11911 0.45805,2.90297 0.12711,0.78388 0.33096,2.00572 0.45807,2.74663 0.1271,0.74089 0.33095,1.89445 0.45804,2.59327 0.12711,0.69883 0.33096,1.7856 0.45807,2.44341 0.1271,0.65781 0.33094,1.67993 0.45805,2.29764 0.12711,0.61772 0.33096,1.57591 0.45807,2.15448 0.1271,0.57855 0.33095,1.47503 0.45805,2.01541 0.12711,0.54036 0.33097,1.37598 0.45807,1.87916 0.12709,0.50319 0.33093,1.28048 0.45804,1.74746 0.12711,0.46695 0.33095,1.1865 0.45806,1.61813 0.1271,0.43161 0.33096,1.09535 0.45806,1.49264 0.12711,0.3973 0.33095,1.00689 0.45806,1.37072 0.1271,0.36383 0.33096,0.92021 0.45806,1.25155 0.12711,0.33133 0.33095,0.8366 0.45804,1.13648 0.12711,0.2999 0.33097,0.75557 0.45807,1.0249 0.12711,0.26935 0.33095,0.67656 0.45806,0.91634 0.1271,0.23977 0.33096,0.60075 0.45806,0.81187 0.12711,0.21112 0.33095,0.52634 0.45806,0.70979 0.1271,0.18346 0.33096,0.45568 0.45807,0.61248 0.12709,0.15682 0.33093,0.38676 0.45803,0.51774 0.12711,0.13101 0.33095,0.32027 0.45806,0.42648 0.1271,0.10622 0.33096,0.25672 0.45807,0.33912 0.1271,0.08239 0.33094,0.19529 0.45805,0.25478 0.12711,0.05946 0.33096,0.13636 0.45807,0.17387 0.12709,0.0375 0.33095,0.07992 0.45804,0.09645 0.1271,0.01654 0.33096,0.02614 0.45807,0.02272 0.1271,-0.0034 0.33094,-0.02487 0.45805,-0.04738 0.12711,-0.02249 0.33096,-0.07423 0.45807,-0.11482 0.1271,-0.04062 0.33095,-0.12006 0.45805,-0.17778 0.12711,-0.05774 0.33097,-0.16437 0.45807,-0.23835 0.12709,-0.07394 0.33093,-0.20558 0.45804,-0.29475 0.12711,-0.08919 0.33095,-0.24451 0.45805,-0.34798 0.12711,-0.1035 0.33097,-0.28109 0.45807,-0.39795 0.12711,-0.11683 0.33095,-0.31497 0.45806,-0.44421 0.1271,-0.12922 0.33096,-0.3466 0.45806,-0.48726 0.1271,-0.14062 0.33095,-0.37533 0.45805,-0.5264 0.1271,-0.15104 0.33096,-0.40171 0.45806,-0.56228 0.12711,-0.16057 0.33095,-0.42586 0.45806,-0.59496 0.1271,-0.16912 0.33096,-0.44723 0.45806,-0.62393 0.12711,-0.17671 0.33095,-0.46634 0.45806,-0.64967 0.1271,-0.18334 0.33096,-0.4827 0.45805,-0.67174 0.12711,-0.18903 0.33095,-0.49695 0.45806,-0.69077 0.1271,-0.1938 0.33095,-0.50854 0.45805,-0.70611 0.1271,-0.19756 0.33096,-0.51744 0.45807,-0.7178 0.1271,-0.20035 0.33095,-0.52402 0.45805,-0.72623 0.12711,-0.2022 0.33096,-0.52809 0.45807,-0.7312 0.12709,-0.20311 0.33095,-0.52961 0.45804,-0.73268 0.1271,-0.2031 0.33096,-0.52894 0.45807,-0.73099 0.1271,-0.20207 0.33095,-0.52533 0.45805,-0.72539 0.12711,-0.20004 0.33096,-0.51936 0.45807,-0.71649 0.12711,-0.19715 0.33095,-0.51108 0.45805,-0.70439 0.12711,-0.19329 0.33097,-0.50034 0.45806,-0.68882 0.1271,-0.18846 0.33094,-0.48686 0.45805,-0.66957 0.12711,-0.18269 0.33095,-0.47134 0.45805,-0.64729 0.12711,-0.17596 0.33097,-0.4527 0.45807,-0.62091 0.12711,-0.16821 0.33095,-0.43192 0.45806,-0.59149 0.1271,-0.15958 0.33096,-0.40866 0.45807,-0.55863 0.12709,-0.14996 0.33093,-0.38287 0.45803,-0.52229 0.12711,-0.1394 0.33097,-0.35463 0.45807,-0.4825 0.12711,-0.12783 0.33095,-0.32362 0.45806,-0.43901 0.1271,-0.11542 0.33096,-0.29075 0.45806,-0.39274 0.12711,-0.10199 0.33095,-0.25481 0.45806,-0.34237 0.12709,-0.08755 0.33096,-0.21649 0.45805,-0.28872 0.12711,-0.07222 0.33095,-0.17591 0.45806,-0.23184 0.1271,-0.05593 0.33096,-0.1326 0.45806,-0.17128 0.12711,-0.03867 0.33095,-0.08701 0.45806,-0.10747 0.1271,-0.02046 0.33095,-0.03877 0.45805,-0.04003 0.12709,-0.00125 0.33093,0.01206 0.45804,0.03093 0.12709,0.01888 0.33093,0.06517 0.45804,0.1051 0.1271,0.03994 0.33096,0.12081 0.45807,0.18275 0.1271,0.06193 0.33095,0.17869 0.45805,0.26364 0.12711,0.08494 0.33096,0.2397 0.45807,0.34861 0.12711,0.10894 0.33094,0.30265 0.45805,0.43644 0.12709,0.13382 0.33097,0.36825 0.45806,0.52792 0.1271,0.15967 0.33094,0.43636 0.45805,0.62286 0.12711,0.18648 0.33096,0.50698 0.45807,0.72126 0.12711,0.21426 0.33095,0.58015 0.45805,0.8231 0.12711,0.24297 0.33095,0.65535 0.45806,0.92801 0.1271,0.27267 0.33096,0.7339 0.45807,1.03723 0.12709,0.30335 0.33093,0.81413 0.45803,1.14905 0.12711,0.3349 0.33097,0.89728 0.45807,1.26474 0.12711,0.36746 0.33095,0.98269 0.45806,1.38368 0.1271,0.40096 0.33096,1.07083 0.45807,1.50629 0.1271,0.43544 0.33094,1.16134 0.45805,1.63217 0.12709,0.47084 0.33096,1.25406 0.45805,1.76131 0.12711,0.50723 0.33095,1.34994 0.45806,1.89451 0.1271,0.54457 0.33096,1.44753 0.45806,2.03033 0.12711,0.58279 0.33095,1.54798 0.45806,2.17004 0.1271,0.62208 0.33095,1.65112 0.45805,2.31344 0.12711,0.66229 0.33097,1.75659 0.45806,2.46005 0.1271,0.70345 0.33094,1.86437 0.45805,2.60994 0.1271,0.74558 0.33096,1.97509 0.45807,2.76369 0.1271,0.78862 0.33095,2.08748 0.45805,2.92008 0.12711,0.83259 0.33096,2.20307 0.45807,3.08075 0.12711,0.87768 0.33095,2.32128 0.45805,3.2449 0.12709,0.92361 0.33097,2.44141 0.45806,3.41185 0.1271,0.97044 0.33095,2.56419 0.45805,3.5825 0.12711,1.01831 0.45807,3.75681 0.45807,3.75681"
       style="fill:none;stroke:#eb0a36;stroke-width:0.79701;stroke-linecap:butt;stroke-linejoin:miter;stroke-miterlimit:10;stroke-dasharray:none;stroke-opacity:1"
       transform="matrix(1.3333333,0,0,-1.3333333,223.34667,205.58)" />
    <g
       id="g8"
       aria-label="y=f(x)"
       transform="matrix(1.3333333,0,0,1.3333333,254.76133,190.00267)">
      <path
         id="path9"
         d="m 4.8401328,-3.7959453 c 0.046875,-0.140625 0.046875,-0.1523438 0.046875,-0.2226563 0,-0.1875 -0.140625,-0.2695312 -0.2929687,-0.2695312 -0.1054688,0 -0.2578125,0.058594 -0.3515625,0.1992187 -0.023437,0.058594 -0.09375,0.3632813 -0.140625,0.5390625 -0.070312,0.2578125 -0.140625,0.5273438 -0.1992188,0.796875 l -0.4453125,1.79296879 c -0.035156,0.15234375 -0.46875,0.85546875 -1.125,0.85546875 -0.5039062,0 -0.6210937,-0.4453125 -0.6210937,-0.80859375 0,-0.45703129 0.1757812,-1.07812499 0.515625,-1.95703129 0.1523437,-0.4101562 0.1992187,-0.515625 0.1992187,-0.7148437 0,-0.4453125 -0.328125,-0.8203125 -0.8203125,-0.8203125 -0.94921874,0 -1.31249999,1.453125 -1.31249999,1.5351562 0,0.1054688 0.09375,0.1054688 0.1171875,0.1054688 0.09375,0 0.10546875,-0.023437 0.15234375,-0.1875 0.26953125,-0.9375 0.66796874,-1.2304688 1.00781254,-1.2304688 0.082031,0 0.2578125,0 0.2578125,0.3164063 0,0.2460937 -0.1054688,0.515625 -0.1757813,0.703125 -0.3984375,1.0546875 -0.5742187,1.6171875 -0.5742187,2.0859375 0,0.89062499 0.6210937,1.18359374 1.21875,1.18359374 0.3867187,0 0.7265625,-0.1640625 0.9960937,-0.4453125 -0.1289062,0.515625 -0.2460937,1.0078125 -0.6445312,1.53515626 -0.2578125,0.3398437 -0.6328125,0.6328125 -1.0898438,0.6328125 -0.140625,0 -0.59765624,-0.035156 -0.76171874,-0.421875 0.1640625,0 0.29296874,0 0.43359374,-0.1171875 0.09375,-0.09375 0.1992188,-0.2226563 0.1992188,-0.41015626 0,-0.31640625 -0.2695313,-0.3515625 -0.375,-0.3515625 -0.22265629,0 -0.55078129,0.1640625 -0.55078129,0.64453126 0,0.5039062 0.43359375,0.8671875 1.05468749,0.8671875 1.0195313,0 2.0507813,-0.9023438 2.3320313,-2.02734376 z m 0,0"
         style="fill:#eb0a36;fill-opacity:1;fill-rule:nonzero;stroke:none" />
      <path
         id="path10"
         d="m 14.856734,-3.2568828 c 0.152344,0 0.339844,0 0.339844,-0.1992188 0,-0.1992187 -0.1875,-0.1992187 -0.328125,-0.1992187 H 8.9036094 c -0.140625,0 -0.328125,0 -0.328125,0.1992187 0,0.1992188 0.1875,0.1992188 0.3398437,0.1992188 z m 0.01172,1.9335937 c 0.140625,0 0.328125,0 0.328125,-0.1992187 0,-0.1992188 -0.1875,-0.1992188 -0.339844,-0.1992188 H 8.9153281 c -0.1523437,0 -0.3398437,0 -0.3398437,0.1992188 0,0.1992187 0.1875,0.1992187 0.328125,0.1992187 z m 0,0"
         style="fill:#eb0a36;fill-opacity:1;fill-rule:nonzero;stroke:none" />
      <path
         id="path11"
         d="m 22.178023,-3.9834453 h 0.855469 c 0.199219,0 0.304688,0 0.304688,-0.1992188 0,-0.1054687 -0.105469,-0.1054687 -0.269532,-0.1054687 h -0.832031 l 0.210938,-1.1367188 c 0.03516,-0.2109375 0.175781,-0.9140625 0.234375,-1.0429687 0.09375,-0.1875 0.257812,-0.3398438 0.46875,-0.3398438 0.04687,0 0.304687,0 0.492187,0.1875 -0.433594,0.035156 -0.539062,0.3867188 -0.539062,0.5390625 0,0.2226563 0.175781,0.3398438 0.363281,0.3398438 0.269531,0 0.550781,-0.2109375 0.550781,-0.5976563 0,-0.4570312 -0.457031,-0.6796875 -0.867187,-0.6796875 -0.339844,0 -0.960938,0.1757813 -1.265625,1.1601563 -0.05859,0.2109375 -0.08203,0.3164062 -0.328125,1.5703125 h -0.679688 c -0.199219,0 -0.304687,0 -0.304687,0.1875 0,0.1171875 0.09375,0.1171875 0.28125,0.1171875 h 0.65625 l -0.75,3.93749999 c -0.175782,0.9609375 -0.339844,1.87500001 -0.867188,1.87500001 -0.03516,0 -0.28125,0 -0.46875,-0.1875 0.457031,-0.023437 0.539063,-0.3867188 0.539063,-0.5390625 0,-0.22265626 -0.175782,-0.33984376 -0.363282,-0.33984376 -0.257812,0 -0.550781,0.2109375 -0.550781,0.59765626 0,0.4453125 0.433594,0.6796875 0.84375,0.6796875 0.550781,0 0.949219,-0.5859375 1.125,-0.9609375 0.328125,-0.63281251 0.550781,-1.83984376 0.5625,-1.91015626 z m 0,0"
         style="fill:#eb0a36;fill-opacity:1;fill-rule:nonzero;stroke:none" />
      <path
         id="path12"
         d="m 27.767867,2.3915547 c 0,-0.035156 0,-0.046875 -0.164062,-0.2226563 -1.242188,-1.25390621 -1.570313,-3.12890621 -1.570313,-4.6640625 0,-1.7226562 0.386719,-3.4570312 1.605469,-4.7109375 0.128906,-0.1171875 0.128906,-0.1289062 0.128906,-0.1640625 0,-0.070312 -0.03516,-0.1054687 -0.09375,-0.1054687 -0.105469,0 -0.996094,0.6796875 -1.582031,1.9453125 -0.515625,1.1015625 -0.632813,2.203125 -0.632813,3.0351562 0,0.7851563 0.117188,1.99218754 0.65625,3.11718754 0.597657,1.21874996 1.453125,1.87499996 1.558594,1.87499996 0.05859,0 0.09375,-0.035156 0.09375,-0.1054687 z m 0,0"
         style="fill:#eb0a36;fill-opacity:1;fill-rule:nonzero;stroke:none" />
      <path
         id="path13"
         d="m 31.679,-3.0107891 c 0.05859,-0.2578125 0.292969,-1.171875 0.984375,-1.171875 0.04687,0 0.292969,0 0.503906,0.1289063 -0.28125,0.046875 -0.480468,0.3046875 -0.480468,0.5390625 0,0.1640625 0.105468,0.3515625 0.375,0.3515625 0.222656,0 0.539062,-0.1875 0.539062,-0.5859375 0,-0.515625 -0.585937,-0.65625 -0.925781,-0.65625 -0.574219,0 -0.925781,0.5273437 -1.042969,0.7617187 -0.257812,-0.65625 -0.785156,-0.7617187 -1.078125,-0.7617187 -1.042969,0 -1.605469,1.2890625 -1.605469,1.5351562 0,0.1054688 0.105469,0.1054688 0.117188,0.1054688 0.08203,0 0.117187,-0.023437 0.128906,-0.1171875 0.339844,-1.0546875 0.996094,-1.3007813 1.335938,-1.3007813 0.1875,0 0.539062,0.09375 0.539062,0.6679688 0,0.3046875 -0.164062,0.9726562 -0.539062,2.3671875 -0.152344,0.62109374 -0.503907,1.04296874 -0.949219,1.04296874 -0.05859,0 -0.28125,0 -0.492188,-0.12890625 0.246094,-0.0585938 0.46875,-0.26953125 0.46875,-0.5390625 0,-0.26953129 -0.222656,-0.35156249 -0.375,-0.35156249 -0.292968,0 -0.539062,0.25781249 -0.539062,0.57421874 0,0.45703125 0.492187,0.65625 0.9375,0.65625 0.65625,0 1.007812,-0.69140625 1.042969,-0.75 0.117187,0.36328125 0.480468,0.75 1.078125,0.75 1.019531,0 1.59375,-1.27734374 1.59375,-1.53515624 0,-0.09375 -0.09375,-0.09375 -0.128907,-0.09375 -0.08203,0 -0.105468,0.035156 -0.128906,0.1054687 -0.328125,1.06640629 -0.996094,1.31250004 -1.324219,1.31250004 -0.386718,0 -0.539062,-0.328125 -0.539062,-0.65625 0,-0.22265625 0.05859,-0.44531254 0.164062,-0.87890624 z m 0,0"
         style="fill:#eb0a36;fill-opacity:1;fill-rule:nonzero;stroke:none" />
      <path
         id="path14"
         d="m 36.92607,-2.4951641 c 0,-0.7734375 -0.117187,-1.9804687 -0.65625,-3.1054687 -0.597656,-1.21875 -1.464843,-1.875 -1.558593,-1.875 -0.05859,0 -0.105469,0.046875 -0.105469,0.1054687 0,0.035156 0,0.046875 0.199219,0.234375 0.972656,0.984375 1.535156,2.5664063 1.535156,4.640625 0,1.71093754 -0.363281,3.45703129 -1.59375,4.7226563 -0.140625,0.1171875 -0.140625,0.1289062 -0.140625,0.1640625 0,0.058594 0.04687,0.1054687 0.105469,0.1054687 0.09375,0 0.996093,-0.6796875 1.582031,-1.94531246 0.503906,-1.1015625 0.632812,-2.20312504 0.632812,-3.04687504 z m 0,0"
         style="fill:#eb0a36;fill-opacity:1;fill-rule:nonzero;stroke:none" />
    </g>
  </g>
</svg>
