<?xml version="1.0" encoding="UTF-8" standalone="no"?>
<!-- Created with Inkscape (http://www.inkscape.org/) -->

<svg
   version="1.1"
   id="svg1"
   width="286.98178"
   height="306.99948"
   viewBox="0 0 286.98178 306.99948"
   sodipodi:docname="1.5-exponenciales.svg"
   inkscape:version="1.4.2 (f4327f4, 2025-05-13)"
   xmlns:inkscape="http://www.inkscape.org/namespaces/inkscape"
   xmlns:sodipodi="http://sodipodi.sourceforge.net/DTD/sodipodi-0.dtd"
   xmlns="http://www.w3.org/2000/svg"
   xmlns:svg="http://www.w3.org/2000/svg">
  <defs
     id="defs1">
    <clipPath
       clipPathUnits="userSpaceOnUse"
       id="clipPath49">
      <rect
         style="opacity:0;fill:none;stroke-width:0.75"
         id="rect50"
         width="256.95169"
         height="237.05647"
         x="-178.26218"
         y="-195.91515" />
    </clipPath>
    <clipPath
       clipPathUnits="userSpaceOnUse"
       id="clipPath50">
      <rect
         style="opacity:0;fill:none;stroke-width:0.75"
         id="rect51"
         width="256.95169"
         height="237.05647"
         x="-48.474171"
         y="-122.84414" />
    </clipPath>
    <clipPath
       clipPathUnits="userSpaceOnUse"
       id="clipPath51">
      <rect
         style="opacity:0;fill:none;stroke-width:0.75"
         id="rect52"
         width="256.95169"
         height="237.05647"
         x="-48.474171"
         y="-116.91814"
         transform="scale(1,-1)" />
    </clipPath>
    <clipPath
       clipPathUnits="userSpaceOnUse"
       id="clipPath52">
      <rect
         style="opacity:0;fill:none;stroke-width:0.75"
         id="rect53"
         width="256.95169"
         height="237.05647"
         x="-24.186169"
         y="-119.40813" />
    </clipPath>
    <clipPath
       clipPathUnits="userSpaceOnUse"
       id="clipPath53">
      <rect
         style="opacity:0;fill:none;stroke-width:0.75"
         id="rect54"
         width="256.95169"
         height="237.05647"
         x="-59.103168"
         y="-48.434132" />
    </clipPath>
    <clipPath
       clipPathUnits="userSpaceOnUse"
       id="clipPath54">
      <rect
         style="opacity:0;fill:none;stroke-width:0.75"
         id="rect55"
         width="256.95169"
         height="237.05647"
         x="-59.103168"
         y="-42.508137"
         transform="scale(1,-1)" />
    </clipPath>
    <clipPath
       clipPathUnits="userSpaceOnUse"
       id="clipPath55">
      <rect
         style="opacity:0;fill:none;stroke-width:0.75"
         id="rect56"
         width="256.95169"
         height="237.05647"
         x="-34.816166"
         y="-44.999134" />
    </clipPath>
    <clipPath
       clipPathUnits="userSpaceOnUse"
       id="clipPath56">
      <rect
         style="opacity:0;fill:none;stroke-width:0.75"
         id="rect57"
         width="256.95169"
         height="237.05647"
         x="-106.01617"
         y="-37.804134" />
    </clipPath>
    <clipPath
       clipPathUnits="userSpaceOnUse"
       id="clipPath57">
      <rect
         style="opacity:0;fill:none;stroke-width:0.75"
         id="rect58"
         width="256.95169"
         height="237.05647"
         x="-106.01617"
         y="-31.878136"
         transform="scale(1,-1)" />
    </clipPath>
    <clipPath
       clipPathUnits="userSpaceOnUse"
       id="clipPath58">
      <rect
         style="opacity:0;fill:none;stroke-width:0.75"
         id="rect59"
         width="256.95169"
         height="237.05647"
         x="-81.728172"
         y="-34.369137" />
    </clipPath>
    <clipPath
       clipPathUnits="userSpaceOnUse"
       id="clipPath59">
      <rect
         style="opacity:0;fill:none;stroke-width:0.75"
         id="rect60"
         width="256.95169"
         height="237.05647"
         x="-143.88217"
         y="-25.836136" />
    </clipPath>
    <clipPath
       clipPathUnits="userSpaceOnUse"
       id="clipPath60">
      <rect
         style="opacity:0;fill:none;stroke-width:0.75"
         id="rect61"
         width="256.95169"
         height="237.05647"
         x="-178.26218"
         y="-47.096134" />
    </clipPath>
    <clipPath
       clipPathUnits="userSpaceOnUse"
       id="clipPath61">
      <rect
         style="opacity:0;fill:none;stroke-width:0.75"
         id="rect62"
         width="256.95169"
         height="237.05647"
         x="-199.52217"
         y="-89.615135" />
    </clipPath>
    <clipPath
       clipPathUnits="userSpaceOnUse"
       id="clipPath62">
      <rect
         style="opacity:0;fill:none;stroke-width:0.75"
         id="rect63"
         width="256.95169"
         height="237.05647"
         x="-128.74417"
         y="-222.94714"
         transform="scale(1,-1)" />
    </clipPath>
    <clipPath
       clipPathUnits="userSpaceOnUse"
       id="clipPath63">
      <rect
         style="opacity:0;fill:none;stroke-width:0.75"
         id="rect64"
         width="256.95169"
         height="237.05647"
         x="-128.74417"
         y="-222.94714"
         transform="scale(1,-1)" />
    </clipPath>
    <clipPath
       clipPathUnits="userSpaceOnUse"
       id="clipPath64">
      <rect
         style="opacity:0;fill:none;stroke-width:0.75"
         id="rect65"
         width="256.95169"
         height="237.05647"
         x="-128.74417"
         y="-222.94714"
         transform="scale(1,-1)" />
    </clipPath>
    <clipPath
       clipPathUnits="userSpaceOnUse"
       id="clipPath65">
      <rect
         style="opacity:0;fill:none;stroke-width:0.75"
         id="rect66"
         width="256.95169"
         height="237.05647"
         x="-128.74417"
         y="-222.94714"
         transform="scale(1,-1)" />
    </clipPath>
    <clipPath
       clipPathUnits="userSpaceOnUse"
       id="clipPath66">
      <rect
         style="opacity:0;fill:none;stroke-width:0.75"
         id="rect67"
         width="256.95169"
         height="237.05647"
         x="-128.74417"
         y="-222.94714"
         transform="scale(1,-1)" />
    </clipPath>
    <clipPath
       clipPathUnits="userSpaceOnUse"
       id="clipPath67">
      <rect
         style="opacity:0;fill:none;stroke-width:0.75"
         id="rect68"
         width="256.95169"
         height="237.05647"
         x="-128.74417"
         y="-222.94714"
         transform="scale(1,-1)" />
    </clipPath>
    <clipPath
       clipPathUnits="userSpaceOnUse"
       id="clipPath68">
      <rect
         style="opacity:0;fill:none;stroke-width:0.75"
         id="rect69"
         width="256.95169"
         height="237.05647"
         x="-128.74417"
         y="-222.94714"
         transform="scale(1,-1)" />
    </clipPath>
    <clipPath
       clipPathUnits="userSpaceOnUse"
       id="clipPath69">
      <rect
         style="opacity:0;fill:none;stroke-width:0.75"
         id="rect70"
         width="256.95169"
         height="237.05647"
         x="-119.16917"
         y="-11.636135" />
    </clipPath>
    <clipPath
       clipPathUnits="userSpaceOnUse"
       id="clipPath70">
      <rect
         style="opacity:0;fill:none;stroke-width:0.75"
         id="rect71"
         width="256.95169"
         height="237.05647"
         x="-128.74417"
         y="-10.804355"
         transform="matrix(0,-1,-1,0,0,0)" />
    </clipPath>
    <clipPath
       clipPathUnits="userSpaceOnUse"
       id="clipPath71">
      <rect
         style="opacity:0;fill:none;stroke-width:0.75"
         id="rect72"
         width="256.95169"
         height="237.05647"
         x="-128.74417"
         y="-222.94714"
         transform="scale(1,-1)" />
    </clipPath>
    <clipPath
       clipPathUnits="userSpaceOnUse"
       id="clipPath72">
      <rect
         style="opacity:0;fill:none;stroke-width:0.75"
         id="rect73"
         width="256.95169"
         height="237.05647"
         x="-231.92618"
         y="-231.47914" />
    </clipPath>
    <clipPath
       clipPathUnits="userSpaceOnUse"
       id="clipPath73">
      <rect
         style="opacity:0;fill:none;stroke-width:0.75"
         id="rect74"
         width="256.95169"
         height="237.05647"
         x="-234.58641"
         y="-222.94714"
         transform="scale(1,-1)" />
    </clipPath>
    <clipPath
       clipPathUnits="userSpaceOnUse"
       id="clipPath74">
      <rect
         style="opacity:0;fill:none;stroke-width:0.75"
         id="rect75"
         width="256.95169"
         height="237.05647"
         x="-128.74417"
         y="-222.94714"
         transform="scale(1,-1)" />
    </clipPath>
    <clipPath
       clipPathUnits="userSpaceOnUse"
       id="clipPath75">
      <rect
         style="opacity:0;fill:none;stroke-width:0.75"
         id="rect76"
         width="256.95169"
         height="237.05647"
         x="-18.622169"
         y="12.111866" />
    </clipPath>
    <clipPath
       clipPathUnits="userSpaceOnUse"
       id="clipPath76">
      <rect
         style="opacity:0;fill:none;stroke-width:0.75"
         id="rect77"
         width="256.95169"
         height="237.05647"
         x="50.243832"
         y="4.4048657"
         transform="scale(1,-1)" />
    </clipPath>
    <clipPath
       clipPathUnits="userSpaceOnUse"
       id="clipPath77">
      <rect
         style="opacity:0;fill:none;stroke-width:0.75"
         id="rect78"
         width="256.95169"
         height="237.05647"
         x="50.243832"
         y="-239.75415"
         transform="scale(1,-1)" />
    </clipPath>
  </defs>
  <sodipodi:namedview
     id="namedview1"
     pagecolor="#ffffff"
     bordercolor="#000000"
     borderopacity="0.25"
     inkscape:showpageshadow="2"
     inkscape:pageopacity="0.0"
     inkscape:pagecheckerboard="0"
     inkscape:deskcolor="#d1d1d1"
     showgrid="false"
     inkscape:zoom="2.2241536"
     inkscape:cx="144.54937"
     inkscape:cy="128.81305"
     inkscape:window-width="1920"
     inkscape:window-height="1009"
     inkscape:window-x="-8"
     inkscape:window-y="-8"
     inkscape:window-maximized="1"
     inkscape:current-layer="g39">
    <inkscape:page
       x="5.8423484e-07"
       y="8.1458523e-07"
       inkscape:label="64"
       id="page1"
       width="286.98178"
       height="306.99948"
       margin="0"
       bleed="0" />
  </sodipodi:namedview>
  <g
     id="g1"
     inkscape:groupmode="layer"
     inkscape:label="64"
     transform="translate(-96.916649,-52.238281)">
    <path
       id="path2"
       d="M 0,0 H 362.835 V 27.967 H 0 Z"
       style="fill:#d2d2d2;fill-opacity:1;fill-rule:nonzero;stroke:none"
       transform="matrix(1.3333333,0,0,-1.3333333,0,37.289333)"
       clip-path="url(#clipPath76)" />
    <path
       id="path3"
       d="m 2.9875156,-5.9777734 c -0.7382812,-0.1875 -1.3828125,-0.9140625 -1.3828125,-1.828125 0,-1.0078125 0.8085938,-1.9101563 1.921875,-1.9101563 2.3554688,0 2.671875,2.3320313 2.7539063,2.9414063 0.035156,0.1757812 0.035156,0.234375 0.1757812,0.234375 0.1523438,0 0.1523438,-0.070312 0.1523438,-0.328125 v -2.90625 c 0,-0.2578126 0,-0.3281246 -0.140625,-0.3281246 -0.046875,0 -0.1054688,0 -0.1992188,0.1874996 l -0.4804687,0.8789062 c -0.6796875,-0.890625 -1.6289063,-1.0664058 -2.2617188,-1.0664058 -1.59375,0 -2.75390622,1.2773433 -2.75390622,2.7421871 0,0.6914062 0.24609372,1.3242187 0.77343752,1.8984375 0.5039062,0.5507812 1.0078125,0.6796875 2.0273437,0.9375 0.5039063,0.1171875 1.2890625,0.3164062 1.4882813,0.4101562 0.6796875,0.328125 1.125,1.1015625 1.125,1.9101563 0,1.0664062 -0.7617188,2.08593746 -1.9570313,2.08593746 -0.6445312,0 -1.5351562,-0.15234375 -2.2382812,-0.7734375 C 1.1593906,-1.6418359 1.1007969,-2.6730859 1.0890781,-3.1418359 1.0773594,-3.2590234 0.96017188,-3.2590234 0.93673438,-3.2590234 c -0.1640625,0 -0.1640625,0.070312 -0.1640625,0.328125 v 2.90624996 c 0,0.2578125 0,0.328125 0.140625,0.328125 0.09375,0 0.10546872,-0.0351563 0.19921872,-0.19921875 0.058594,-0.1171875 0.3632813,-0.65625 0.4804688,-0.8671875 0.515625,0.57421875 1.4179687,1.06640625 2.6484375,1.06640625 1.6054687,0 2.7773437,-1.37109376 2.7773437,-2.94140626 0,-0.8789062 -0.3398437,-1.5234375 -0.7265625,-1.9921875 -0.5273437,-0.6445312 -1.171875,-0.8085937 -1.734375,-0.9492187 z m 10.3125004,2.6484375 c 0.316406,0 0.339843,0 0.339843,-0.2695313 0,-1.453125 -0.773437,-2.8007812 -2.507812,-2.8007812 -1.6406251,0 -2.8945314,1.4765625 -2.8945314,3.2578125 0,1.8984375 1.4648438,3.28124996 3.0468754,3.28124996 1.710937,0 2.355468,-1.54687496 2.355468,-1.85156246 0,-0.082031 -0.07031,-0.140625 -0.152343,-0.140625 -0.117188,0 -0.152344,0.070312 -0.175782,0.140625 -0.375,1.20703121 -1.335937,1.53515621 -1.933593,1.53515621 -0.609375,0 -2.0507816,-0.3984375 -2.0507816,-2.88281251 V -3.3293359 Z M 9.3390781,-3.5988672 c 0.1171875,-2.25 1.3710939,-2.5078125 1.7812499,-2.5078125 1.535156,0 1.617188,2.015625 1.628906,2.5078125 z m 9.8994139,-1.7109375 c -0.175781,0 -0.703125,0 -0.703125,0.5859375 0,0.3515625 0.246094,0.5859375 0.585938,0.5859375 0.328125,0 0.609375,-0.1992187 0.609375,-0.609375 0,-0.9609375 -1.007813,-1.6523437 -2.167969,-1.6523437 -1.675781,0 -3.011719,1.4882812 -3.011719,3.3046875 0,1.828125 1.371094,3.23437496 3,3.23437496 1.886719,0 2.320313,-1.72265626 2.320313,-1.85156246 0,-0.1289063 -0.105469,-0.1289063 -0.140625,-0.1289063 -0.128907,0 -0.152344,0.046875 -0.1875,0.2226563 -0.316407,1.01953121 -1.089844,1.44140621 -1.863282,1.44140621 -0.878906,0 -2.039062,-0.76171875 -2.039062,-2.94140621 0,-2.3789063 1.21875,-2.9648438 1.933594,-2.9648438 0.550781,0 1.335937,0.2109375 1.664062,0.7734375 z m 6.243164,0 c -0.175781,0 -0.703125,0 -0.703125,0.5859375 0,0.3515625 0.246094,0.5859375 0.585938,0.5859375 0.328125,0 0.609375,-0.1992187 0.609375,-0.609375 0,-0.9609375 -1.007813,-1.6523437 -2.167969,-1.6523437 -1.675781,0 -3.011719,1.4882812 -3.011719,3.3046875 0,1.828125 1.371094,3.23437496 3,3.23437496 1.886719,0 2.320313,-1.72265626 2.320313,-1.85156246 0,-0.1289063 -0.105469,-0.1289063 -0.140625,-0.1289063 -0.128907,0 -0.152344,0.046875 -0.1875,0.2226563 -0.316407,1.01953121 -1.089844,1.44140621 -1.863282,1.44140621 -0.878906,0 -2.039062,-0.76171875 -2.039062,-2.94140621 0,-2.3789063 1.21875,-2.9648438 1.933594,-2.9648438 0.550781,0 1.335937,0.2109375 1.664062,0.7734375 z m 3.547852,-3.5273437 c 0,-0.375 -0.304688,-0.703125 -0.703125,-0.703125 -0.375,0 -0.691406,0.3046875 -0.691406,0.6914062 0,0.4335938 0.351562,0.703125 0.691406,0.703125 0.445312,0 0.703125,-0.375 0.703125,-0.6914062 z m -1.980469,2.671875 v 0.4101562 c 0.914063,0 1.042969,0.09375 1.042969,0.7851563 v 3.9023437 c 0,0.65625001 -0.152344,0.65625001 -1.089844,0.65625001 v 0.41015625 c 0.410156,-0.0234375 1.089844,-0.0234375 1.511719,-0.0234375 0.152344,0 0.984375,0 1.476562,0.0234375 v -0.41015625 c -0.9375,0 -0.984375,-0.0820313 -0.984375,-0.63281251 v -5.2851562 z m 8.648438,-2.9414063 c 0.234375,-0.1875 0.234375,-0.3515625 0.234375,-0.421875 0,-0.2578125 -0.246094,-0.46875 -0.492188,-0.46875 -0.199219,0 -0.28125,0.09375 -0.398437,0.2578125 l -1.710938,2.1796875 c 0.07031,0.082031 0.140625,0.1523438 0.234375,0.234375 z m 1.318359,6.0351563 c 0,-1.8515625 -1.40625,-3.328125 -3.070313,-3.328125 -1.722656,0 -3.082031,1.5234375 -3.082031,3.328125 0,1.8398437 1.429688,3.21093746 3.070313,3.21093746 1.6875,0 3.082031,-1.40624996 3.082031,-3.21093746 z m -3.070313,2.89453121 c -0.527343,0 -1.171875,-0.22265625 -1.59375,-0.92578121 -0.386718,-0.6445313 -0.398437,-1.5 -0.398437,-2.0976563 0,-0.5390625 0,-1.4179687 0.445312,-2.0625 0.398438,-0.6210937 1.03125,-0.84375 1.535157,-0.84375 0.550781,0 1.160156,0.2578125 1.546875,0.8085938 0.445312,0.6679687 0.445312,1.5703125 0.445312,2.0976562 0,0.5039063 0,1.3945313 -0.375,2.0625 -0.398437,0.69140626 -1.066406,0.96093751 -1.605469,0.96093751 z m 9.896485,-3.30468751 c 0,-1.3359375 0,-1.7460937 -0.328125,-2.203125 -0.421875,-0.5507812 -1.089844,-0.6445312 -1.582031,-0.6445312 -1.394532,0 -1.933594,1.1953125 -2.050782,1.4765625 h -0.01172 v -1.4765625 l -1.957032,0.1640625 v 0.4101562 c 0.972657,0 1.089844,0.1054688 1.089844,0.8085938 v 3.8789062 c 0,0.65625001 -0.152344,0.65625001 -1.089844,0.65625001 v 0.41015625 c 0.375,-0.0234375 1.148438,-0.0234375 1.546875,-0.0234375 0.421875,0 1.195313,0 1.570313,0.0234375 v -0.41015625 c -0.925781,0 -1.089844,0 -1.089844,-0.65625001 v -2.6601562 c 0,-1.5117188 0.984375,-2.3085938 1.875,-2.3085938 0.890625,0 1.089844,0.7265625 1.089844,1.6054688 v 3.3632812 c 0,0.65625001 -0.152344,0.65625001 -1.089844,0.65625001 v 0.41015625 c 0.375,-0.0234375 1.148438,-0.0234375 1.546875,-0.0234375 0.421875,0 1.195313,0 1.570313,0.0234375 v -0.41015625 c -0.714844,0 -1.078125,0 -1.089844,-0.43359375 z m 10.245117,-5.71875 c 0,-0.328125 0,-0.3398437 -0.292969,-0.3398437 -0.339844,0.3867187 -1.066406,0.9140625 -2.542969,0.9140625 v 0.421875 c 0.339844,0 1.054688,0 1.839844,-0.375 v 7.4765625 c 0,0.51562496 -0.04687,0.69140621 -1.300781,0.69140621 h -0.445313 v 0.41015625 c 0.386719,-0.0234375 1.78125,-0.0234375 2.25,-0.0234375 0.46875,0 1.851563,0 2.238282,0.0234375 v -0.41015625 h -0.445313 c -1.265625,0 -1.300781,-0.17578125 -1.300781,-0.69140621 z m 5.525391,8.49609376 c 0,-0.38671876 -0.328125,-0.69140626 -0.691407,-0.69140626 -0.410156,0 -0.703125,0.328125 -0.703125,0.69140626 0,0.43359375 0.363282,0.703125 0.691407,0.703125 0.386718,0 0.703125,-0.3046875 0.703125,-0.703125 z m 3.102539,-7.51171876 c 0.609375,0.1992188 1.113281,0.2109375 1.277343,0.2109375 1.617188,0 2.648438,-1.1953125 2.648438,-1.3945312 0,-0.058594 -0.02344,-0.1289063 -0.117188,-0.1289063 -0.02344,0 -0.05859,0 -0.1875,0.058594 -0.796875,0.3515625 -1.488281,0.3867187 -1.863281,0.3867187 -0.949219,0 -1.617187,-0.28125 -1.886719,-0.3984375 -0.105468,-0.046875 -0.128906,-0.046875 -0.152343,-0.046875 -0.105469,0 -0.105469,0.09375 -0.105469,0.3164063 v 4.265625 c 0,0.2578125 0,0.3398437 0.164062,0.3398437 0.07031,0 0.09375,-0.011719 0.234375,-0.1875 0.398438,-0.5859375 1.078125,-0.9257812 1.792969,-0.9257812 0.761719,0 1.136719,0.703125 1.242188,0.9375 0.246093,0.5625 0.257812,1.265625 0.257812,1.8164062 0,0.5390625 0,1.359375 -0.398437,2.00390626 -0.316407,0.515625 -0.878907,0.87890625 -1.5,0.87890625 -0.949219,0 -1.886719,-0.64453125 -2.144532,-1.69921871 0.07031,0.035156 0.164063,0.046875 0.234375,0.046875 0.246094,0 0.632813,-0.140625 0.632813,-0.6328125 0,-0.3984375 -0.28125,-0.6328125 -0.632813,-0.6328125 -0.257812,0 -0.632812,0.1289062 -0.632812,0.6914062 0,1.21875 0.972656,2.61328126 2.566406,2.61328126 1.617188,0 3.046875,-1.37109376 3.046875,-3.18749996 0,-1.7109375 -1.148437,-3.1289063 -2.660156,-3.1289063 -0.820313,0 -1.453125,0.3632813 -1.816406,0.7617188 z m 7.822265,2.71875 c 0,-0.3867187 -0.328125,-0.6914062 -0.691406,-0.6914062 -0.410156,0 -0.703125,0.3398437 -0.703125,0.6914062 0,0.4335938 0.363281,0.703125 0.691406,0.703125 0.386719,0 0.703125,-0.3046875 0.703125,-0.703125 z m 0,4.79296876 c 0,-0.38671876 -0.328125,-0.69140626 -0.691406,-0.69140626 -0.410156,0 -0.703125,0.328125 -0.703125,0.69140626 0,0.43359375 0.363281,0.703125 0.691406,0.703125 0.386719,0 0.703125,-0.3046875 0.703125,-0.703125 z M 84.670133,-9.7746484 h -7.605469 v 0.421875 h 0.292969 c 1.03125,0 1.066406,0.140625 1.066406,0.6679687 v 7.59375 c 0,0.52734376 -0.03516,0.67968751 -1.066406,0.67968751 h -0.292969 v 0.41015625 c 0.351563,-0.0234375 1.617188,-0.0234375 2.050781,-0.0234375 0.503907,0 1.769532,0 2.179688,0.0234375 v -0.41015625 h -0.421875 c -1.253906,0 -1.277344,-0.17578125 -1.277344,-0.69140621 v -3.5742188 h 1.253906 c 1.347657,0 1.5,0.46875 1.5,1.6757813 h 0.316407 V -6.7746484 H 82.34982 c 0,1.2070312 -0.152343,1.6757812 -1.5,1.6757812 h -1.253906 v -3.6796875 c 0,-0.46875 0.02344,-0.5742187 0.65625,-0.5742187 h 1.792969 c 2.0625,0 2.484375,0.7617187 2.683594,2.7773437 h 0.316406 z m 4.160156,3.609375 v 0.4101562 c 0.972656,0 1.089844,0.1054688 1.089844,0.8085938 v 2.5664062 c 0,1.21875 -0.644531,2.23828126 -1.722656,2.23828126 -1.171875,0 -1.242188,-0.6796875 -1.242188,-1.44140626 v -4.7460937 l -2.027344,0.1640625 v 0.4101562 c 1.089844,0 1.089844,0.046875 1.089844,1.3242188 v 2.1445312 c 0,0.890625 0,1.40625001 0.433594,1.88671876 0.339844,0.375 0.925781,0.5390625 1.664062,0.5390625 0.246094,0 0.703125,0 1.183594,-0.41015625 0.421875,-0.328125 0.65625,-0.87890621 0.65625,-0.87890621 v 1.28906246 l 1.992188,-0.140625 v -0.41015625 c -0.984375,0 -1.089844,-0.10546875 -1.089844,-0.80859371 v -5.109375 z m 9.832031,2.6835937 c 0,-1.3359375 0,-1.7460937 -0.328125,-2.203125 -0.421875,-0.5507812 -1.089843,-0.6445312 -1.582031,-0.6445312 -1.394531,0 -1.933594,1.1953125 -2.050781,1.4765625 h -0.01172 v -1.4765625 l -1.957031,0.1640625 v 0.4101562 c 0.972656,0 1.089844,0.1054688 1.089844,0.8085938 v 3.8789062 c 0,0.65625001 -0.152344,0.65625001 -1.089844,0.65625001 v 0.41015625 c 0.375,-0.0234375 1.148437,-0.0234375 1.546875,-0.0234375 0.421875,0 1.195312,0 1.570312,0.0234375 v -0.41015625 c -0.925781,0 -1.089843,0 -1.089843,-0.65625001 v -2.6601562 c 0,-1.5117188 0.984375,-2.3085938 1.875,-2.3085938 0.890625,0 1.089843,0.7265625 1.089843,1.6054688 v 3.3632812 c 0,0.65625001 -0.152343,0.65625001 -1.089843,0.65625001 v 0.41015625 c 0.375,-0.0234375 1.148437,-0.0234375 1.546875,-0.0234375 0.421875,0 1.195312,0 1.570312,0.0234375 v -0.41015625 c -0.714844,0 -1.078125,0 -1.089844,-0.43359375 z m 6.60938,-1.828125 c -0.17579,0 -0.70313,0 -0.70313,0.5859375 0,0.3515625 0.24609,0.5859375 0.58594,0.5859375 0.32812,0 0.60937,-0.1992187 0.60937,-0.609375 0,-0.9609375 -1.00781,-1.6523437 -2.16797,-1.6523437 -1.67578,0 -3.01171,1.4882812 -3.01171,3.3046875 0,1.828125 1.37109,3.23437496 3,3.23437496 1.88671,0 2.32031,-1.72265626 2.32031,-1.85156246 0,-0.1289063 -0.10547,-0.1289063 -0.14063,-0.1289063 -0.1289,0 -0.15234,0.046875 -0.1875,0.2226563 -0.3164,1.01953121 -1.08984,1.44140621 -1.86328,1.44140621 -0.8789,0 -2.03906,-0.76171875 -2.03906,-2.94140621 0,-2.3789063 1.21875,-2.9648438 1.93359,-2.9648438 0.55078,0 1.33594,0.2109375 1.66407,0.7734375 z m 3.54785,-3.5273437 c 0,-0.375 -0.30469,-0.703125 -0.70313,-0.703125 -0.375,0 -0.6914,0.3046875 -0.6914,0.6914062 0,0.4335938 0.35156,0.703125 0.6914,0.703125 0.44531,0 0.70313,-0.375 0.70313,-0.6914062 z m -1.98047,2.671875 v 0.4101562 c 0.91406,0 1.04297,0.09375 1.04297,0.7851563 v 3.9023437 c 0,0.65625001 -0.15235,0.65625001 -1.08985,0.65625001 v 0.41015625 c 0.41016,-0.0234375 1.08985,-0.0234375 1.51172,-0.0234375 0.15235,0 0.98438,0 1.47656,0.0234375 v -0.41015625 c -0.9375,0 -0.98437,-0.0820313 -0.98437,-0.63281251 v -5.2851562 z m 9.97265,3.09375 c 0,-1.8515625 -1.40625,-3.328125 -3.07031,-3.328125 -1.72265,0 -3.08203,1.5234375 -3.08203,3.328125 0,1.8398437 1.42969,3.21093746 3.07031,3.21093746 1.6875,0 3.08203,-1.40624996 3.08203,-3.21093746 z m -3.07031,2.89453121 c -0.52734,0 -1.17187,-0.22265625 -1.59375,-0.92578121 -0.38672,-0.6445313 -0.39844,-1.5 -0.39844,-2.0976563 0,-0.5390625 0,-1.4179687 0.44532,-2.0625 0.39843,-0.6210937 1.03125,-0.84375 1.53515,-0.84375 0.55078,0 1.16016,0.2578125 1.54688,0.8085938 0.44531,0.6679687 0.44531,1.5703125 0.44531,2.0976562 0,0.5039063 0,1.3945313 -0.375,2.0625 -0.39844,0.69140626 -1.06641,0.96093751 -1.60547,0.96093751 z m 9.89356,-3.30468751 c 0,-1.3359375 0,-1.7460937 -0.32813,-2.203125 -0.42187,-0.5507812 -1.08984,-0.6445312 -1.58203,-0.6445312 -1.39453,0 -1.93359,1.1953125 -2.05078,1.4765625 h -0.0117 v -1.4765625 l -1.95703,0.1640625 v 0.4101562 c 0.97266,0 1.08984,0.1054688 1.08984,0.8085938 v 3.8789062 c 0,0.65625001 -0.15234,0.65625001 -1.08984,0.65625001 v 0.41015625 c 0.375,-0.0234375 1.14844,-0.0234375 1.54687,-0.0234375 0.42188,0 1.19532,0 1.57032,0.0234375 v -0.41015625 c -0.92578,0 -1.08985,0 -1.08985,-0.65625001 v -2.6601562 c 0,-1.5117188 0.98438,-2.3085938 1.875,-2.3085938 0.89063,0 1.08985,0.7265625 1.08985,1.6054688 v 3.3632812 c 0,0.65625001 -0.15235,0.65625001 -1.08985,0.65625001 v 0.41015625 c 0.375,-0.0234375 1.14844,-0.0234375 1.54688,-0.0234375 0.42187,0 1.19531,0 1.57031,0.0234375 v -0.41015625 c -0.71484,0 -1.07812,0 -1.08984,-0.43359375 z m 6.91406,0.1523438 c 0.31641,0 0.33984,0 0.33984,-0.2695313 0,-1.453125 -0.77343,-2.8007812 -2.50781,-2.8007812 -1.64062,0 -2.89453,1.4765625 -2.89453,3.2578125 0,1.8984375 1.46484,3.28124996 3.04687,3.28124996 1.71094,0 2.35547,-1.54687496 2.35547,-1.85156246 0,-0.082031 -0.0703,-0.140625 -0.15234,-0.140625 -0.11719,0 -0.15234,0.070312 -0.17578,0.140625 -0.375,1.20703121 -1.33594,1.53515621 -1.9336,1.53515621 -0.60937,0 -2.05078,-0.3984375 -2.05078,-2.88281251 v -0.2695312 z m -3.96094,-0.2695313 c 0.11719,-2.25 1.3711,-2.5078125 1.78125,-2.5078125 1.53516,0 1.61719,2.015625 1.62891,2.5078125 z m 9.40723,-2.4726562 c 0,-0.2578125 0,-0.328125 -0.14063,-0.328125 -0.11718,0 -0.38672,0.3164062 -0.48047,0.4453125 -0.44531,-0.3632813 -0.89062,-0.4453125 -1.34765,-0.4453125 -1.7461,0 -2.26172,0.9492187 -2.26172,1.734375 0,0.1640625 0,0.6679687 0.55078,1.1601562 0.45703,0.4101563 0.94922,0.5039063 1.60547,0.6328125 0.78516,0.1640625 0.97266,0.1992188 1.33594,0.4921875 0.25781,0.2109375 0.44531,0.5273438 0.44531,0.9257813 0,0.62109371 -0.36328,1.31249996 -1.62891,1.31249996 -0.9375,0 -1.6289,-0.55078125 -1.94531,-1.98046876 -0.0586,-0.2578125 -0.0586,-0.2695312 -0.0703,-0.2929687 -0.0352,-0.058594 -0.082,-0.058594 -0.12891,-0.058594 -0.16406,0 -0.16406,0.082031 -0.16406,0.3398438 v 1.94531246 c 0,0.2578125 0,0.328125 0.15234,0.328125 0.0703,0 0.082,-0.0117188 0.32813,-0.31640625 0.0703,-0.09375 0.0703,-0.12890625 0.28125,-0.3515625 0.55078,0.66796875 1.32422,0.66796875 1.57031,0.66796875 1.5,0 2.25,-0.83203125 2.25,-1.95703126 0,-0.7851562 -0.48047,-1.2421875 -0.60937,-1.3710937 -0.51563,-0.4453125 -0.90235,-0.5273438 -1.83985,-0.703125 -0.43359,-0.082031 -1.48828,-0.28125 -1.48828,-1.1484375 0,-0.4453125 0.30469,-1.1015625 1.59375,-1.1015625 1.57031,0 1.65234,1.3359375 1.6875,1.78125 0.0117,0.1171875 0.10547,0.1171875 0.15234,0.1171875 0.15235,0 0.15235,-0.070312 0.15235,-0.328125 z m 11.03027,2.7421875 c 0.31641,0 0.33985,0 0.33985,-0.2695313 0,-1.453125 -0.77344,-2.8007812 -2.50782,-2.8007812 -1.64062,0 -2.89453,1.4765625 -2.89453,3.2578125 0,1.8984375 1.46485,3.28124996 3.04688,3.28124996 1.71093,0 2.35547,-1.54687496 2.35547,-1.85156246 0,-0.082031 -0.0703,-0.140625 -0.15235,-0.140625 -0.11719,0 -0.15234,0.070312 -0.17578,0.140625 -0.375,1.20703121 -1.33594,1.53515621 -1.93359,1.53515621 -0.60938,0 -2.05078,-0.3984375 -2.05078,-2.88281251 v -0.2695312 z m -3.96094,-0.2695313 c 0.11719,-2.25 1.3711,-2.5078125 1.78125,-2.5078125 1.53516,0 1.61719,2.015625 1.62891,2.5078125 z m 8.72754,0.2109375 c 0.41016,-0.5390625 1.01953,-1.3125 1.28907,-1.6171875 0.58593,-0.65625 1.26562,-0.7617187 1.72265,-0.7617187 v -0.421875 c -0.62109,0.035156 -0.64453,0.035156 -1.20703,0.035156 -0.55078,0 -0.57422,0 -1.28906,-0.035156 v 0.421875 c 0.1875,0.023437 0.41015,0.1171875 0.41015,0.4453125 0,0.2460937 -0.1289,0.3984375 -0.21093,0.515625 l -0.91407,1.1601562 -1.125,-1.4765625 c -0.0469,-0.058594 -0.1289,-0.1875 -0.1289,-0.28125 0,-0.09375 0.0703,-0.3515625 0.5039,-0.3632812 v -0.421875 c -0.36328,0.035156 -1.08984,0.035156 -1.47656,0.035156 -0.48047,0 -0.5039,0 -1.38281,-0.035156 v 0.421875 c 0.73828,0 1.00781,0.023437 1.3125,0.4101562 l 1.67578,2.203125 c 0.0234,0.023437 0.082,0.1171875 0.082,0.1523438 0,0.046875 -1.11328,1.453125 -1.2539,1.640625 -0.63282,0.77343746 -1.26563,0.92578121 -1.88672,0.94921871 v 0.41015625 c 0.55078,-0.0234375 0.57422,-0.0234375 1.19531,-0.0234375 0.53906,0 0.57422,0 1.28906,0.0234375 v -0.41015625 c -0.33984,-0.046875 -0.39844,-0.26953125 -0.39844,-0.46875 0,-0.22265621 0.0937,-0.33984371 0.2461,-0.52734371 0.21094,-0.3046875 0.67969,-0.890625 1.03125,-1.3359375 l 1.17187,1.5351562 c 0.2461,0.31640626 0.2461,0.35156251 0.2461,0.43359376 0,0.1171875 -0.11719,0.33984375 -0.50391,0.36328125 v 0.41015625 c 0.375,-0.0234375 1.07813,-0.0234375 1.47656,-0.0234375 0.46875,0 0.50391,0 1.35938,0.0234375 v -0.41015625 c -0.76172,0 -1.01953,-0.0351563 -1.35938,-0.4921875 z m 6.90821,5.7539063 c -0.91407,0 -1.08985,0 -1.08985,-0.6445313 v -2.49609374 c 0.25782,0.36328125 0.84375,0.9140625 1.75782,0.9140625 1.65234,0 3.10546,-1.38281246 3.10546,-3.23437496 0,-1.828125 -1.34765,-3.234375 -2.91796,-3.234375 -1.25391,0 -1.9336,0.9023437 -1.98047,0.9609375 v -0.9609375 l -1.99219,0.1640625 v 0.4101562 c 1.00781,0 1.08984,0.1054688 1.08984,0.7382813 v 6.7382812 c 0,0.6445313 -0.15234,0.6445313 -1.08984,0.6445313 v 0.4101562 c 0.375,-0.023437 1.14844,-0.023437 1.54687,-0.023437 0.42188,0 1.19532,0 1.57032,0.023437 z m -1.08985,-6.9375 c 0,-0.28125 0,-0.2929688 0.15235,-0.5273438 0.43359,-0.6445312 1.13672,-0.9140625 1.6875,-0.9140625 1.0664,0 1.93359,1.3125 1.93359,2.9179688 0,1.6992187 -0.97266,2.95312496 -2.08594,2.95312496 -0.44531,0 -0.85547,-0.1875 -1.14843,-0.45703125 -0.32813,-0.33984375 -0.53907,-0.62109371 -0.53907,-1.01953121 z m 12.35157,1.5 c 0,-1.8515625 -1.40625,-3.328125 -3.07032,-3.328125 -1.72265,0 -3.08203,1.5234375 -3.08203,3.328125 0,1.8398437 1.42969,3.21093746 3.07031,3.21093746 1.6875,0 3.08204,-1.40624996 3.08204,-3.21093746 z m -3.07032,2.89453121 c -0.52734,0 -1.17187,-0.22265625 -1.59375,-0.92578121 -0.38672,-0.6445313 -0.39843,-1.5 -0.39843,-2.0976563 0,-0.5390625 0,-1.4179687 0.44531,-2.0625 0.39844,-0.6210937 1.03125,-0.84375 1.53515,-0.84375 0.55079,0 1.16016,0.2578125 1.54688,0.8085938 0.44531,0.6679687 0.44531,1.5703125 0.44531,2.0976562 0,0.5039063 0,1.3945313 -0.375,2.0625 -0.39844,0.69140626 -1.0664,0.96093751 -1.60547,0.96093751 z m 9.89649,-3.30468751 c 0,-1.3359375 0,-1.7460937 -0.32813,-2.203125 -0.42187,-0.5507812 -1.08984,-0.6445312 -1.58203,-0.6445312 -1.39453,0 -1.93359,1.1953125 -2.05078,1.4765625 h -0.0117 v -1.4765625 l -1.95703,0.1640625 v 0.4101562 c 0.97266,0 1.08984,0.1054688 1.08984,0.8085938 v 3.8789062 c 0,0.65625001 -0.15234,0.65625001 -1.08984,0.65625001 v 0.41015625 c 0.375,-0.0234375 1.14844,-0.0234375 1.54687,-0.0234375 0.42188,0 1.19532,0 1.57032,0.0234375 v -0.41015625 c -0.92578,0 -1.08985,0 -1.08985,-0.65625001 v -2.6601562 c 0,-1.5117188 0.98438,-2.3085938 1.875,-2.3085938 0.89063,0 1.08985,0.7265625 1.08985,1.6054688 v 3.3632812 c 0,0.65625001 -0.15235,0.65625001 -1.08985,0.65625001 v 0.41015625 c 0.375,-0.0234375 1.14844,-0.0234375 1.54688,-0.0234375 0.42187,0 1.19531,0 1.57031,0.0234375 v -0.41015625 c -0.71484,0 -1.07812,0 -1.08984,-0.43359375 z m 6.91406,0.1523438 c 0.31641,0 0.33984,0 0.33984,-0.2695313 0,-1.453125 -0.77343,-2.8007812 -2.50781,-2.8007812 -1.64062,0 -2.89453,1.4765625 -2.89453,3.2578125 0,1.8984375 1.46484,3.28124996 3.04687,3.28124996 1.71094,0 2.35547,-1.54687496 2.35547,-1.85156246 0,-0.082031 -0.0703,-0.140625 -0.15234,-0.140625 -0.11719,0 -0.15234,0.070312 -0.17578,0.140625 -0.375,1.20703121 -1.33594,1.53515621 -1.9336,1.53515621 -0.60937,0 -2.05078,-0.3984375 -2.05078,-2.88281251 v -0.2695312 z m -3.96094,-0.2695313 c 0.11719,-2.25 1.3711,-2.5078125 1.78125,-2.5078125 1.53516,0 1.61719,2.015625 1.62891,2.5078125 z m 11.09473,0.1171875 c 0,-1.3359375 0,-1.7460937 -0.32813,-2.203125 -0.42187,-0.5507812 -1.08984,-0.6445312 -1.58203,-0.6445312 -1.39453,0 -1.93359,1.1953125 -2.05078,1.4765625 h -0.0117 v -1.4765625 l -1.95703,0.1640625 v 0.4101562 c 0.97266,0 1.08984,0.1054688 1.08984,0.8085938 v 3.8789062 c 0,0.65625001 -0.15234,0.65625001 -1.08984,0.65625001 v 0.41015625 c 0.375,-0.0234375 1.14844,-0.0234375 1.54688,-0.0234375 0.42187,0 1.19531,0 1.57031,0.0234375 v -0.41015625 c -0.92578,0 -1.08985,0 -1.08985,-0.65625001 v -2.6601562 c 0,-1.5117188 0.98438,-2.3085938 1.875,-2.3085938 0.89063,0 1.08985,0.7265625 1.08985,1.6054688 v 3.3632812 c 0,0.65625001 -0.15235,0.65625001 -1.08985,0.65625001 v 0.41015625 c 0.375,-0.0234375 1.14844,-0.0234375 1.54688,-0.0234375 0.42187,0 1.19531,0 1.57031,0.0234375 v -0.41015625 c -0.71484,0 -1.07812,0 -1.08984,-0.43359375 z m 6.60937,-1.828125 c -0.17578,0 -0.70312,0 -0.70312,0.5859375 0,0.3515625 0.24609,0.5859375 0.58594,0.5859375 0.32812,0 0.60937,-0.1992187 0.60937,-0.609375 0,-0.9609375 -1.00781,-1.6523437 -2.16797,-1.6523437 -1.67578,0 -3.01172,1.4882812 -3.01172,3.3046875 0,1.828125 1.3711,3.23437496 3,3.23437496 1.88672,0 2.32032,-1.72265626 2.32032,-1.85156246 0,-0.1289063 -0.10547,-0.1289063 -0.14063,-0.1289063 -0.12891,0 -0.15234,0.046875 -0.1875,0.2226563 -0.31641,1.01953121 -1.08984,1.44140621 -1.86328,1.44140621 -0.87891,0 -2.03906,-0.76171875 -2.03906,-2.94140621 0,-2.3789063 1.21875,-2.9648438 1.93359,-2.9648438 0.55078,0 1.33594,0.2109375 1.66406,0.7734375 z m 3.54786,-3.5273437 c 0,-0.375 -0.30469,-0.703125 -0.70313,-0.703125 -0.375,0 -0.69141,0.3046875 -0.69141,0.6914062 0,0.4335938 0.35157,0.703125 0.69141,0.703125 0.44531,0 0.70313,-0.375 0.70313,-0.6914062 z m -1.98047,2.671875 v 0.4101562 c 0.91406,0 1.04297,0.09375 1.04297,0.7851563 v 3.9023437 c 0,0.65625001 -0.15235,0.65625001 -1.08985,0.65625001 v 0.41015625 c 0.41016,-0.0234375 1.08985,-0.0234375 1.51172,-0.0234375 0.15234,0 0.98438,0 1.47656,0.0234375 v -0.41015625 c -0.9375,0 -0.98437,-0.0820313 -0.98437,-0.63281251 v -5.2851562 z m 8.91797,2.3320312 c 0,-0.7734375 0,-1.3476562 -0.6211,-1.9101562 -0.5039,-0.4570313 -1.14844,-0.65625 -1.78125,-0.65625 -1.18359,0 -2.08594,0.7734375 -2.08594,1.7109375 0,0.4101562 0.28125,0.609375 0.60938,0.609375 0.33984,0 0.58594,-0.234375 0.58594,-0.5859375 0,-0.5859375 -0.51563,-0.5859375 -0.72657,-0.5859375 0.32813,-0.5976563 1.00782,-0.8554688 1.58204,-0.8554688 0.66796,0 1.51171,0.5390625 1.51171,1.828125 v 0.5742188 c -2.88281,0.046875 -3.97265,1.2539062 -3.97265,2.3554687 0,1.13671876 1.3125,1.48828126 2.1914,1.48828126 0.94922,0 1.59375,-0.57421875 1.86329,-1.25390626 0.0586,0.66796876 0.5039,1.18359376 1.125,1.18359376 0.29296,0 1.125,-0.19921875 1.125,-1.34765626 v -0.796875 h -0.31641 v 0.796875 c 0,0.82031251 -0.33984,0.93750001 -0.53906,0.93750001 -0.55078,0 -0.55078,-0.76171871 -0.55078,-0.98437501 z m -0.92579,1.8046875 c 0,1.40625001 -1.04296,1.88671876 -1.66406,1.88671876 -0.70312,0 -1.28906,-0.515625 -1.28906,-1.20703126 0,-1.8984375 2.4375,-2.0625 2.95312,-2.0976562 z m 4.88965,-7.921875 -2.0039,0.1523438 v 0.421875 c 0.98437,0 1.08984,0.09375 1.08984,0.796875 v 7.5117187 c 0,0.65625001 -0.15234,0.65625001 -1.08984,0.65625001 v 0.41015625 c 0.41015,-0.0234375 1.11328,-0.0234375 1.53515,-0.0234375 0.4336,0 1.14844,0 1.5586,0.0234375 v -0.41015625 c -0.92579,0 -1.08985,0 -1.08985,-0.65625001 z m 6.92578,6.6210938 c 0.31641,0 0.33985,0 0.33985,-0.2695313 0,-1.453125 -0.77344,-2.8007812 -2.50782,-2.8007812 -1.64062,0 -2.89453,1.4765625 -2.89453,3.2578125 0,1.8984375 1.46485,3.28124996 3.04688,3.28124996 1.71094,0 2.35547,-1.54687496 2.35547,-1.85156246 0,-0.082031 -0.0703,-0.140625 -0.15235,-0.140625 -0.11718,0 -0.15234,0.070312 -0.17578,0.140625 -0.375,1.20703121 -1.33594,1.53515621 -1.93359,1.53515621 -0.60938,0 -2.05078,-0.3984375 -2.05078,-2.88281251 v -0.2695312 z m -3.96093,-0.2695313 c 0.11718,-2.25 1.37109,-2.5078125 1.78125,-2.5078125 1.53515,0 1.61718,2.015625 1.6289,2.5078125 z m 9.40722,-2.4726562 c 0,-0.2578125 0,-0.328125 -0.14062,-0.328125 -0.11719,0 -0.38672,0.3164062 -0.48047,0.4453125 -0.44531,-0.3632813 -0.89063,-0.4453125 -1.34766,-0.4453125 -1.74609,0 -2.26172,0.9492187 -2.26172,1.734375 0,0.1640625 0,0.6679687 0.55079,1.1601562 0.45703,0.4101563 0.94921,0.5039063 1.60546,0.6328125 0.78516,0.1640625 0.97266,0.1992188 1.33594,0.4921875 0.25781,0.2109375 0.44531,0.5273438 0.44531,0.9257813 0,0.62109371 -0.36328,1.31249996 -1.6289,1.31249996 -0.9375,0 -1.62891,-0.55078125 -1.94531,-1.98046876 -0.0586,-0.2578125 -0.0586,-0.2695312 -0.0703,-0.2929687 -0.0351,-0.058594 -0.082,-0.058594 -0.1289,-0.058594 -0.16407,0 -0.16407,0.082031 -0.16407,0.3398438 v 1.94531246 c 0,0.2578125 0,0.328125 0.15235,0.328125 0.0703,0 0.082,-0.0117188 0.32812,-0.31640625 0.0703,-0.09375 0.0703,-0.12890625 0.28125,-0.3515625 0.55078,0.66796875 1.32422,0.66796875 1.57032,0.66796875 1.5,0 2.25,-0.83203125 2.25,-1.95703126 0,-0.7851562 -0.48047,-1.2421875 -0.60938,-1.3710937 -0.51562,-0.4453125 -0.90234,-0.5273438 -1.83984,-0.703125 -0.4336,-0.082031 -1.48828,-0.28125 -1.48828,-1.1484375 0,-0.4453125 0.30468,-1.1015625 1.59375,-1.1015625 1.57031,0 1.65234,1.3359375 1.6875,1.78125 0.0117,0.1171875 0.10546,0.1171875 0.15234,0.1171875 0.15234,0 0.15234,-0.070312 0.15234,-0.328125 z m 0,0"
       style="fill:#eb0a36;fill-opacity:1;fill-rule:nonzero;stroke:none"
       aria-label="Secci´on1.5:Funcionesexponenciales"
       transform="matrix(1.3333333,0,0,1.3333333,91.821333,27.013333)"
       clip-path="url(#clipPath75)" />
    <path
       id="path4"
       d="M -106.30052,0 H 105.84224"
       style="fill:none;stroke:#000000;stroke-width:0.3985;stroke-linecap:butt;stroke-linejoin:miter;stroke-miterlimit:10;stroke-dasharray:none;stroke-opacity:1"
       transform="matrix(1.3333333,0,0,-1.3333333,238.65067,340.42533)"
       clip-path="url(#clipPath74)" />
    <path
       id="path5"
       d="M -1.19551,1.59401 C -1.09587,0.99626 0,0.09961 0.29886,0 0,-0.09961 -1.09587,-0.99626 -1.19551,-1.59401"
       style="fill:none;stroke:#000000;stroke-width:0.31879;stroke-linecap:round;stroke-linejoin:round;stroke-miterlimit:10;stroke-dasharray:none;stroke-opacity:1"
       transform="matrix(1.3333333,0,0,-1.3333333,379.77365,340.42533)"
       clip-path="url(#clipPath73)" />
    <path
       id="path6"
       d="m 3.6444531,-3.2933828 c 0.070312,-0.28125 0.3164063,-1.2890625 1.078125,-1.2890625 0.058594,0 0.3164063,0 0.5507813,0.140625 -0.3046875,0.058594 -0.5273438,0.328125 -0.5273438,0.5859375 0,0.1757812 0.1171875,0.3867187 0.4101563,0.3867187 0.2460937,0 0.5976562,-0.1992187 0.5976562,-0.6328125 0,-0.5625 -0.6445312,-0.7265625 -1.0195312,-0.7265625 -0.6328125,0 -1.0195313,0.5859375 -1.1484375,0.8320313 -0.2695313,-0.7148438 -0.8554688,-0.8320313 -1.171875,-0.8320313 -1.1367188,0 -1.75781253,1.4179688 -1.75781253,1.6875 0,0.1054688 0.10546875,0.1054688 0.12890625,0.1054688 0.0820313,0 0.1171875,-0.023437 0.140625,-0.1171875 0.37499998,-1.1601563 1.08984378,-1.4296875 1.46484378,-1.4296875 0.2109375,0 0.5859375,0.09375 0.5859375,0.7265625 0,0.3398437 -0.1875,1.078125 -0.5859375,2.6015625 -0.1757813,0.67968749 -0.5625,1.13671874 -1.0429688,1.13671874 -0.058594,0 -0.3164062,0 -0.53906248,-0.140625 0.26953128,-0.0585938 0.51562498,-0.29296875 0.51562498,-0.59765625 0,-0.29296879 -0.2460937,-0.37499999 -0.41015623,-0.37499999 -0.328125,0 -0.59765625,0.28124999 -0.59765625,0.63281249 0,0.50390625 0.55078125,0.71484375 1.03124998,0.71484375 0.7148438,0 1.1015625,-0.76171875 1.1367188,-0.83203125 0.1289062,0.41015625 0.5273437,0.83203125 1.1835937,0.83203125 1.125,0 1.7460938,-1.40625004 1.7460938,-1.67578124 0,-0.1054688 -0.1054688,-0.1054688 -0.1289063,-0.1054688 -0.1054687,0 -0.1289062,0.035156 -0.140625,0.1171875 -0.3632812,1.16015629 -1.1132812,1.42968754 -1.453125,1.42968754 -0.4335937,0 -0.609375,-0.3515625 -0.609375,-0.7265625 0,-0.23437504 0.070312,-0.48046874 0.1875,-0.96093754 z m 0,0"
       style="fill:#000000;fill-opacity:1;fill-rule:nonzero;stroke:none"
       aria-label="x"
       transform="matrix(1.3333333,0,0,1.3333333,376.22667,351.80133)"
       clip-path="url(#clipPath72)" />
    <path
       id="path7"
       d="M 0,-21.2601 V 212.14278"
       style="fill:none;stroke:#000000;stroke-width:0.3985;stroke-linecap:butt;stroke-linejoin:miter;stroke-miterlimit:10;stroke-dasharray:none;stroke-opacity:1"
       transform="matrix(1.3333333,0,0,-1.3333333,238.65067,340.42533)"
       clip-path="url(#clipPath71)" />
    <path
       id="path8"
       d="M -1.19551,1.59401 C -1.09587,0.99626 0,0.09961 0.29886,0 0,-0.09961 -1.09587,-0.99626 -1.19551,-1.59401"
       style="fill:none;stroke:#000000;stroke-width:0.31879;stroke-linecap:round;stroke-linejoin:round;stroke-miterlimit:10;stroke-dasharray:none;stroke-opacity:1"
       transform="matrix(0,-1.3333333,-1.3333333,0,238.65067,57.568293)"
       clip-path="url(#clipPath70)" />
    <path
       id="path9"
       d="m 5.2959844,-4.1613203 c 0.046875,-0.1523438 0.046875,-0.1757813 0.046875,-0.2460938 0,-0.1992187 -0.1523438,-0.2929687 -0.3164063,-0.2929687 -0.1054687,0 -0.28125,0.058594 -0.375,0.2226562 -0.023437,0.058594 -0.1171875,0.3984375 -0.1523437,0.5976563 -0.082031,0.28125 -0.1523438,0.5742187 -0.2226563,0.8671875 l -0.4921875,1.96875 c -0.046875,0.16406249 -0.515625,0.92578124 -1.2304687,0.92578124 -0.5625,0 -0.6796875,-0.48046875 -0.6796875,-0.89062504 0,-0.4921875 0.1875,-1.171875 0.5625,-2.1328125 0.1757812,-0.4453125 0.2109375,-0.5742187 0.2109375,-0.7851562 0,-0.4921875 -0.3515625,-0.9023438 -0.890625,-0.9023438 -1.04296878,0 -1.44140628,1.5820313 -1.44140628,1.6875 0,0.1054688 0.10546875,0.1054688 0.12890625,0.1054688 0.10546875,0 0.1171875,-0.023437 0.17578125,-0.1992188 0.29296875,-1.0195312 0.72656248,-1.3476562 1.10156248,-1.3476562 0.09375,0 0.2695313,0 0.2695313,0.3515625 0,0.2695312 -0.1054688,0.5507812 -0.1757813,0.7617187 -0.4453125,1.1601563 -0.6328125,1.78125 -0.6328125,2.2851563 0,0.97265624 0.6796875,1.30078124 1.3242188,1.30078124 0.421875,0 0.796875,-0.1875 1.1015625,-0.4921875 -0.140625,0.57421875 -0.2695313,1.1015625 -0.703125,1.68749996 -0.2929688,0.3632813 -0.703125,0.6796875 -1.2070313,0.6796875 -0.1523437,0 -0.6445312,-0.023437 -0.83203123,-0.4570312 0.17578123,0 0.31640623,0 0.48046873,-0.1289063 0.1054688,-0.09375 0.2109375,-0.234375 0.2109375,-0.44531246 0,-0.33984375 -0.2929687,-0.38671875 -0.3984375,-0.38671875 -0.25781248,0 -0.60937498,0.17578125 -0.60937498,0.71484371 0,0.5390625 0.48046878,0.9492188 1.14843748,0.9492188 1.125,0 2.25,-0.9960938 2.5546875,-2.22656251 z m 0,0"
       style="fill:#000000;fill-opacity:1;fill-rule:nonzero;stroke:none"
       aria-label="y"
       transform="matrix(1.3333333,0,0,1.3333333,225.884,58.677333)"
       clip-path="url(#clipPath69)" />
    <path
       id="path10"
       d="m -85.04042,1.32874 1.50297,0.06617 1.50297,0.07009 1.50296,0.07429 1.50297,0.07655 1.50293,0.08111 1.50298,0.08497 1.50296,0.09149 1.50296,0.09343 1.50297,0.09796 1.50295,0.10415 1.50297,0.10835 1.50296,0.11484 1.50297,0.12132 1.50295,0.12521 1.50296,0.13203 1.50295,0.14048 1.50297,0.14664 1.50297,0.1531 1.50295,0.16156 1.50296,0.16803 1.50296,0.17844 1.50298,0.18718 1.50295,0.19562 1.50297,0.20631 1.50296,0.21703 1.50295,0.22741 1.50297,0.23842 1.50295,0.25078 1.50297,0.26147 1.50296,0.27639 1.50296,0.29164 1.50296,0.30395 1.50296,0.32115 1.50298,0.3361 1.50296,0.35296 1.50296,0.37209 1.50294,0.38895 1.50296,0.40842 1.50296,0.42951 1.50298,0.45094 1.50295,0.47426 1.50297,0.49765 1.50296,0.52293 1.50296,0.54856 1.50297,0.57648 1.50295,0.60598 1.50298,0.63582 1.50294,0.66762 1.50296,0.70201 1.50298,0.73575 1.50294,0.77405 1.50298,0.81228 1.50296,0.85286 1.50295,0.89504 1.50297,0.94206 1.50296,0.98878 1.50293,1.03226 1.50296,1.08966 1.50296,1.14418 1.50294,1.20192 1.50298,1.26192 1.50296,1.32551 1.50296,1.3917 1.50296,1.4624 1.50296,1.53476 1.50297,1.61261 1.50296,1.69371 1.50296,1.77872 1.50295,1.86757 1.50296,1.96136 1.50296,2.05995 1.50298,2.16376 1.50294,2.27278 1.50298,2.38567 1.50296,2.50634 1.50296,2.63155 1.50297,2.76523 1.50295,2.90178 1.50297,3.04973 1.50295,3.20054 1.50296,3.36246 1.50296,3.53113 1.50296,3.7089 1.50297,3.89641 1.50296,4.09041 1.50296,4.29445 1.50297,4.51311 1.50295,4.73598 1.50296,4.97796 1.50298,5.22582 1.50294,5.48661 1.50297,5.76532 1.50295,6.05433 1.50297,6.357 1.50297,6.67818 1.50295,7.01134 1.50297,7.36298 1.50296,7.73606 1.50296,8.12208"
       style="fill:none;stroke:#eb0a36;stroke-width:0.79701;stroke-linecap:butt;stroke-linejoin:miter;stroke-miterlimit:10;stroke-dasharray:none;stroke-opacity:1"
       transform="matrix(1.3333333,0,0,-1.3333333,238.65067,340.42533)"
       clip-path="url(#clipPath68)" />
    <path
       id="path11"
       d="m -85.04042,0.08302 1.18083,0.0065 1.18083,0.00713 1.18082,0.00778 1.18083,0.00844 1.18083,0.00909 1.18084,0.00972 1.18083,0.01039 1.18081,0.01136 1.18084,0.01233 1.18083,0.01329 1.18083,0.0146 1.18083,0.01525 1.18082,0.01621 1.18083,0.0172 1.18083,0.01913 1.18083,0.02109 1.18084,0.02337 1.18082,0.02561 1.18082,0.02564 1.18084,0.02952 1.18083,0.02983 1.18083,0.03408 1.18082,0.03633 1.18083,0.03828 1.18083,0.0425 1.18083,0.04671 1.18083,0.04898 1.18082,0.05322 1.18083,0.05742 1.18084,0.06163 1.18083,0.06779 1.18083,0.07234 1.18082,0.07657 1.18083,0.08531 1.18083,0.09116 1.18083,0.09798 1.18083,0.1064 1.18082,0.11483 1.18083,0.12328 1.18083,0.13397 1.18084,0.14469 1.18083,0.15733 1.18081,0.16804 1.18084,0.18266 1.18083,0.19787 1.18083,0.21054 1.18083,0.22967 1.18082,0.24883 1.18083,0.26796 1.18083,0.28903 1.18083,0.31273 1.18084,0.33803 1.18081,0.36364 1.18083,0.39351 1.18084,0.42531 1.18083,0.45934 1.18083,0.49537 1.18082,0.53592 1.18083,0.5784 1.18083,0.62514 1.18083,0.67411 1.18083,0.72958 1.18082,0.78668 1.18083,0.85059 1.18084,0.91676 1.18083,0.99299 1.18083,1.06957 1.18082,1.15681 1.18083,1.25025 1.18083,1.34855 1.18083,1.45658 1.18083,1.57368 1.18079,1.69467 1.18082,1.83515 1.18083,1.98212 1.18083,2.14042 1.18083,2.31265 1.18082,2.49695 1.18083,2.69677 1.18083,2.91346 1.18083,3.14606 1.18083,3.39813 1.18082,3.66997 1.18083,3.96324 1.18084,4.28018 1.18083,4.62439 1.18083,4.99256 1.18082,5.39354 1.18083,5.82466 1.18083,6.29244 1.18083,6.79528 1.18084,7.33769 1.18081,7.92583 1.18083,8.56035 1.18084,9.2455 1.18082,9.98451 1.18084,10.78381 1.18082,11.64997 1.18083,12.58168"
       style="fill:none;stroke:#ec008c;stroke-width:0.79701;stroke-linecap:butt;stroke-linejoin:miter;stroke-miterlimit:10;stroke-dasharray:none;stroke-opacity:1"
       transform="matrix(1.3333333,0,0,-1.3333333,238.65067,340.42533)"
       clip-path="url(#clipPath67)" />
    <path
       id="path12"
       d="m -85.04042,0.00192 1.05205,-0.00162 1.05204,0.00228 1.05203,3.3e-4 1.05204,3.2e-4 1.05206,3.3e-4 1.05204,3.2e-4 1.05203,6.4e-4 1.05205,6.5e-4 1.05204,6.6e-4 1.05204,6.4e-4 1.05204,6.4e-4 1.05204,9.9e-4 1.05203,9.6e-4 1.05205,0.0013 1.05203,0.00131 1.05203,0.00128 1.05206,0.00164 1.05204,0.00161 1.05203,0.00226 1.05205,0.00196 1.05204,0.00261 1.05204,0.00291 1.05204,0.00323 1.05204,0.00325 1.05204,0.00423 1.05205,0.0042 1.05204,0.0052 1.05204,0.00551 1.05204,0.00616 1.05203,0.00682 1.05205,0.00811 1.05203,0.00875 1.05205,0.00974 1.05204,0.01102 1.05203,0.01233 1.05204,0.01396 1.05206,0.01556 1.05203,0.0172 1.05204,0.01947 1.05204,0.02173 1.05205,0.0227 1.05204,0.02791 1.05204,0.03178 1.05203,0.03406 1.05203,0.03829 1.05205,0.04249 1.05204,0.049 1.05203,0.05514 1.05206,0.05968 1.05203,0.07008 1.05204,0.07428 1.05205,0.08727 1.05204,0.09571 1.05204,0.10835 1.05204,0.11938 1.05204,0.13591 1.05204,0.15085 1.05205,0.17031 1.05203,0.19141 1.05204,0.21248 1.05204,0.23844 1.05204,0.26764 1.05204,0.30006 1.05204,0.33577 1.05204,0.37857 1.05205,0.42108 1.05203,0.47427 1.05204,0.53171 1.05206,0.59333 1.05203,0.66763 1.05203,0.74643 1.05205,0.83795 1.05205,0.93785 1.05204,1.05042 1.05204,1.17791 1.05203,1.32064 1.05203,1.48027 1.05205,1.65638 1.05204,1.85852 1.05203,2.08202 1.05203,2.32985 1.05203,2.61438 1.05204,2.93034 1.05204,3.28394 1.05204,3.6797 1.05203,4.12481 1.05205,4.62144 1.05203,5.18006 1.05205,5.80553 1.05204,6.50592 1.05204,7.28966 1.05203,8.17206 1.05205,9.15532 1.05204,10.26315 1.05204,11.50075 1.05204,12.88821 1.05204,14.4431 1.05206,16.18676 1.05203,18.14324"
       style="fill:none;stroke:#0000ff;stroke-width:0.79701;stroke-linecap:butt;stroke-linejoin:miter;stroke-miterlimit:10;stroke-dasharray:none;stroke-opacity:1"
       transform="matrix(1.3333333,0,0,-1.3333333,238.65067,340.42533)"
       clip-path="url(#clipPath66)" />
    <path
       id="path13"
       d="m -63.7803,170.08086 1.50296,-8.10588 1.50297,-7.74611 1.50295,-7.37758 1.50297,-7.02109 1.50296,-6.68594 1.50295,-6.36966 1.50296,-6.06212 1.50296,-5.77406 1.50297,-5.49769 1.50296,-5.23196 1.50296,-4.98544 1.50296,-4.7457 1.50297,-4.51732 1.50295,-4.30256 1.50298,-4.09755 1.50294,-3.90061 1.50296,-3.71345 1.50297,-3.53601 1.50296,-3.36763 1.50297,-3.20542 1.50295,-3.05428 1.50297,-2.90664 1.50296,-2.76878 1.50296,-2.63514 1.50298,-2.5086 1.50294,-2.39055 1.50298,-2.27439 1.50294,-2.16668 1.50296,-2.0632 1.50296,-1.96329 1.50297,-1.87053 1.50295,-1.78064 1.50298,-1.69598 1.50296,-1.61423 1.50296,-1.53703 1.50296,-1.46434 1.50296,-1.39333 1.50297,-1.32681 1.50293,-1.26354 1.50298,-1.20323 1.50296,-1.14578 1.50296,-1.09097 1.50293,-1.03452 1.50296,-0.98878 1.50296,-0.94208 1.50296,-0.89762 1.50298,-0.85253 1.50294,-0.81458 1.50296,-0.77403 1.50296,-0.73575 1.50296,-0.70393 1.50298,-0.66764 1.50294,-0.63583 1.50298,-0.60599 1.50296,-0.5784 1.50296,-0.54889 1.50296,-0.52293 L 23.39142,9.91795 24.8944,9.4437 26.39734,8.99083 27.9003,8.56133 29.40326,8.15094 30.90622,7.76167 32.40918,7.39151 33.91216,7.03662 35.41512,6.70053 36.91808,6.37938 38.42104,6.07541 39.924,5.7841 41.42697,5.50739 42.9299,5.24396 44.43288,4.99289 45.93584,4.75476 47.4388,4.52704 48.94177,4.31033 50.44472,4.104 51.9477,3.90839 53.45065,3.7212 54.95361,3.54247 56.45657,3.37248 57.95953,3.21092 59.46248,3.05782 60.96545,2.91118 62.46841,2.77264 63.97137,2.64095 65.47433,2.51346 66.9773,2.3944 68.48027,2.27956 69.98322,2.16895 71.48619,2.06676 72.98915,1.96684 74.4921,1.87341 75.99507,1.78387 77.49802,1.69888 79.00099,1.61584 80.50395,1.53929 82.00691,1.465 83.50987,1.39491 85.01283,1.32874"
       style="fill:none;stroke:#008000;stroke-width:0.79701;stroke-linecap:butt;stroke-linejoin:miter;stroke-miterlimit:10;stroke-dasharray:none;stroke-opacity:1"
       transform="matrix(1.3333333,0,0,-1.3333333,238.65067,340.42533)"
       clip-path="url(#clipPath65)" />
    <path
       id="path14"
       d="m -31.89014,170.0669 1.18084,-12.59919 1.18081,-11.67106 1.18083,-10.8062 1.18084,-10.00235 1.18082,-9.26204 1.18084,-8.57691 1.18082,-7.94009 1.18083,-7.3526 1.18083,-6.80664 1.18083,-6.30284 1.18083,-5.83765 1.18082,-5.40196 1.18083,-5.00327 1.18083,-4.6315 1.18084,-4.28895 1.18083,-3.97069 1.18081,-3.67712 1.18084,-3.40364 1.18083,-3.15223 1.18083,-2.91799 1.18083,-2.70197 1.18082,-2.50148 1.18083,-2.31657 1.18083,-2.14495 1.18083,-1.98535 1.18084,-1.83873 1.18081,-1.70215 L 1.17302,19.69775 2.35385,18.23892 3.53468,16.88649 4.71552,15.63623 5.89633,14.47714 7.07716,13.40337 8.258,12.41037 9.43883,11.49164 10.61966,10.6388 11.80048,9.84984 12.98131,9.12059 14.16214,8.4442 15.34297,7.81909 16.5238,7.2384 17.70462,6.70248 18.88545,6.20485 20.06628,5.7458 21.24712,5.32051 22.42795,4.92474 23.60876,4.56108 24.7896,4.22305 25.97043,3.90839 27.15126,3.61902 28.33209,3.35107 29.51291,3.10225 30.69374,2.8729 31.87457,2.6601 33.0554,2.4622 34.23624,2.27956 35.41705,2.11151 36.59789,1.9542 37.77872,1.8095 38.95955,1.67552 40.14038,1.54999 41.3212,1.43513 42.50203,1.32874 43.68286,1.2311 44.8637,1.1396 46.04453,1.05461 47.22534,0.97578 48.40617,0.90344 49.587,0.83759 50.76784,0.77594 51.94867,0.7166 53.12949,0.66338 54.31032,0.6144 55.49115,0.56964 56.67198,0.52713 57.85281,0.48691 59.03363,0.45058 60.21446,0.4188 61.3953,0.38667 62.57613,0.3591 63.75696,0.33151 64.93777,0.3059 66.1186,0.2848 67.29944,0.2634 68.48027,0.24426 69.6611,0.22511 70.84192,0.20955 72.02275,0.19397 73.20358,0.17938 74.38441,0.16608 75.56525,0.15375 76.74606,0.1424 77.9269,0.13202 79.10773,0.12196 80.28856,0.11287 81.46939,0.10477 82.6502,0.09698 83.83104,0.08983 85.01187,0.08302"
       style="fill:none;stroke:#bf8040;stroke-width:0.79701;stroke-linecap:butt;stroke-linejoin:miter;stroke-miterlimit:10;stroke-dasharray:none;stroke-opacity:1"
       transform="matrix(1.3333333,0,0,-1.3333333,238.65067,340.42533)"
       clip-path="url(#clipPath64)" />
    <path
       id="path15"
       d="m -19.13394,168.6645 1.05203,-18.15328 1.05203,-16.20042 1.05207,-14.45411 1.05203,-12.90152 1.05203,-11.51082 1.05205,-10.27482 1.05205,-9.16668 1.05203,-8.17982 1.05205,-7.29877 1.05203,-6.51564 1.05203,-5.81233 1.05205,-5.1882 1.05203,-4.62891 1.05203,-4.13029 1.05205,-3.68589 1.05205,-3.28976 1.05203,-2.93554 1.05205,-2.61924 1.052,-2.3331 L 1.90681,17.29913 2.95886,15.4364 4.0109,13.77545 5.06294,12.29326 6.11499,10.96838 7.16702,9.78821 8.21907,8.73552 9.2711,7.79572 10.32315,6.95584 11.3752,6.2071 12.42723,5.5395 13.47926,4.94194 14.53133,4.41025 15.58336,3.93597 16.63539,3.51068 17.68744,3.13437 18.73947,2.79634 19.7915,2.49432 20.84355,2.22636 21.89558,1.98598 22.94763,1.77316 23.99968,1.58177 25.05171,1.41179 26.10374,1.25867 27.1558,1.12274 28.20784,1.00337 29.25987,0.895 30.31192,0.79736 31.36397,0.71204 32.416,0.63548 33.46805,0.56769 34.52008,0.50606 35.57211,0.45058 36.62416,0.4016 37.6762,0.3591 38.72823,0.32082 39.78029,0.2848 40.83232,0.25496 41.88437,0.22739 42.9364,0.20372 43.98845,0.18164 45.0405,0.16219 46.09253,0.14465 47.14456,0.1291 48.19662,0.11514 49.24866,0.10281 50.30069,0.0918 51.35274,0.08173 52.40477,0.07297 53.4568,0.0652 54.50885,0.05804 55.56088,0.0519 56.61293,0.04605 57.66498,0.04117 58.71701,0.03665 59.76904,0.03273 60.8211,0.02917 61.87314,0.02594 62.92517,0.02335 63.97722,0.02074 65.02927,0.01846 66.0813,0.01653 l 1.05205,-0.00194 1.05203,-0.00164 1.05203,-0.00128 1.05205,-0.00131 1.05203,-0.0013 1.05203,-9.6e-4 1.05207,-6.5e-4 1.05203,-9.8e-4 1.05203,-6.4e-4 1.05205,-6.6e-4 1.05205,-6.5e-4 1.05205,-3.4e-4 1.05203,-6.2e-4 1.05203,-3.3e-4 1.05206,-3.2e-4 1.05204,-3.3e-4 L 83.96599,3e-4 h 1.05205"
       style="fill:none;stroke:#bf0040;stroke-width:0.79701;stroke-linecap:butt;stroke-linejoin:miter;stroke-miterlimit:10;stroke-dasharray:none;stroke-opacity:1"
       transform="matrix(1.3333333,0,0,-1.3333333,238.65067,340.42533)"
       clip-path="url(#clipPath63)" />
    <path
       id="path16"
       d="M -85.04042,21.2601 H 85.04042"
       style="fill:none;stroke:#20b2aa;stroke-width:0.79701;stroke-linecap:butt;stroke-linejoin:miter;stroke-miterlimit:10;stroke-dasharray:none;stroke-opacity:1"
       transform="matrix(1.3333333,0,0,-1.3333333,238.65067,340.42533)"
       clip-path="url(#clipPath62)" />
    <g
       id="g16"
       aria-label="y=2&#10;x"
       transform="matrix(1.3333333,0,0,1.3333333,333.02133,162.64933)"
       clip-path="url(#clipPath61)">
      <path
         id="path17"
         d="m 4.8384922,-3.7975469 c 0.046875,-0.140625 0.046875,-0.1523437 0.046875,-0.2226562 0,-0.1875 -0.140625,-0.2695313 -0.2929688,-0.2695313 -0.1054687,0 -0.2578125,0.058594 -0.3515625,0.1992188 -0.023437,0.058594 -0.09375,0.3632812 -0.140625,0.5390625 -0.070312,0.2578125 -0.140625,0.5273437 -0.1992187,0.796875 l -0.4453125,1.79296873 c -0.035156,0.15234375 -0.46875,0.85546875 -1.125,0.85546875 -0.5039063,0 -0.6210938,-0.4453125 -0.6210938,-0.80859375 0,-0.45703123 0.1757813,-1.07812503 0.515625,-1.95703123 0.1523438,-0.4101563 0.1992188,-0.515625 0.1992188,-0.7148438 0,-0.4453125 -0.328125,-0.8203125 -0.8203125,-0.8203125 -0.94921876,0 -1.31250001,1.453125 -1.31250001,1.5351563 0,0.1054687 0.09375,0.1054687 0.1171875,0.1054687 0.09375,0 0.10546875,-0.023437 0.15234375,-0.1875 0.26953125,-0.9375 0.66796876,-1.2304687 1.00781246,-1.2304687 0.082031,0 0.2578125,0 0.2578125,0.3164062 0,0.2460938 -0.1054687,0.515625 -0.1757812,0.703125 -0.3984375,1.0546875 -0.5742188,1.6171875 -0.5742188,2.0859375 0,0.89062503 0.6210938,1.18359378 1.21875,1.18359378 0.3867188,0 0.7265625,-0.1640625 0.9960938,-0.4453125 -0.1289063,0.515625 -0.2460938,1.0078125 -0.6445313,1.53515622 -0.2578125,0.3398438 -0.6328125,0.6328125 -1.0898437,0.6328125 -0.140625,0 -0.59765626,-0.035156 -0.76171876,-0.421875 0.1640625,0 0.29296876,0 0.43359376,-0.1171875 0.09375,-0.09375 0.1992187,-0.2226562 0.1992187,-0.41015622 0,-0.31640625 -0.2695312,-0.3515625 -0.375,-0.3515625 -0.22265621,0 -0.55078121,0.1640625 -0.55078121,0.64453122 0,0.5039063 0.43359375,0.8671875 1.05468751,0.8671875 1.0195312,0 2.0507812,-0.9023437 2.3320312,-2.02734372 z m 0,0"
         style="fill:#eb0a36;fill-opacity:1;fill-rule:nonzero;stroke:none" />
      <path
         id="path18"
         d="m 14.858023,-3.2584844 c 0.152344,0 0.339844,0 0.339844,-0.1992187 0,-0.1992188 -0.1875,-0.1992188 -0.328125,-0.1992188 H 8.9048984 c -0.140625,0 -0.328125,0 -0.328125,0.1992188 0,0.1992187 0.1875,0.1992187 0.3398438,0.1992187 z m 0.01172,1.9335938 c 0.140625,0 0.328125,0 0.328125,-0.1992188 0,-0.1992187 -0.1875,-0.1992187 -0.339844,-0.1992187 H 8.9166172 c -0.1523438,0 -0.3398438,0 -0.3398438,0.1992187 0,0.1992188 0.1875,0.1992188 0.328125,0.1992188 z m 4.916016,0.56249998 1.054687,-1.03124998 c 1.558594,-1.3710938 2.15625,-1.9101563 2.15625,-2.90625 0,-1.1367188 -0.902343,-1.9335938 -2.121093,-1.9335938 -1.125,0 -1.851563,0.9140625 -1.851563,1.8046875 0,0.5507813 0.492188,0.5507813 0.527344,0.5507813 0.164062,0 0.515625,-0.1171875 0.515625,-0.5273438 0,-0.2578125 -0.1875,-0.515625 -0.527344,-0.515625 -0.08203,0 -0.105469,0 -0.128906,0.011719 0.222656,-0.6445313 0.761719,-1.0195313 1.335937,-1.0195313 0.914063,0 1.335938,0.8085938 1.335938,1.6289063 0,0.796875 -0.492188,1.5820312 -1.042969,2.203125 l -1.910156,2.13281248 C 19.02404,-0.25848417 19.02404,-0.23504667 19.02404,-6.71675e-4 h 3.691406 l 0.28125,-1.734375025 h -0.257812 c -0.04687,0.3046875 -0.117188,0.73828128 -0.210938,0.89062503 -0.07031,0.0820313 -0.726562,0.0820313 -0.949218,0.0820313 z m 0,0"
         style="fill:#eb0a36;fill-opacity:1;fill-rule:nonzero;stroke:none" />
      <path
         id="path19"
         d="m 25.240836,-4.3541875 c -0.07031,0.234375 -0.292969,0.609375 -0.65625,0.609375 -0.02344,0 -0.222656,0 -0.375,-0.09375 0.28125,-0.09375 0.304687,-0.3398437 0.304687,-0.3867187 0,-0.1523438 -0.117187,-0.2578125 -0.28125,-0.2578125 -0.1875,0 -0.386718,0.1640625 -0.386718,0.4335937 0,0.3398438 0.386718,0.5039063 0.726562,0.5039063 0.316406,0 0.609375,-0.1992188 0.785156,-0.4921875 0.164063,0.3632812 0.550782,0.4921875 0.820313,0.4921875 0.808594,0 1.230469,-0.8671875 1.230469,-1.0664063 0,-0.09375 -0.09375,-0.09375 -0.105469,-0.09375 -0.105469,0 -0.105469,0.035156 -0.140625,0.1171875 -0.140625,0.4804688 -0.5625,0.84375 -0.949219,0.84375 -0.28125,0 -0.421875,-0.1875 -0.421875,-0.4453125 0,-0.1875 0.164063,-0.8203125 0.363281,-1.59375 0.128907,-0.5390625 0.445313,-0.7148437 0.679688,-0.7148437 0.01172,0 0.222656,0 0.375,0.1054687 -0.222656,0.058594 -0.304688,0.2578125 -0.304688,0.375 0,0.1523438 0.117188,0.2578125 0.28125,0.2578125 0.152344,0 0.386719,-0.1289062 0.386719,-0.421875 0,-0.3867187 -0.445312,-0.5039062 -0.726562,-0.5039062 -0.351563,0 -0.632813,0.2226562 -0.785157,0.4921875 -0.117187,-0.2929688 -0.445312,-0.4921875 -0.832031,-0.4921875 -0.785156,0 -1.230469,0.8554687 -1.230469,1.0664062 0,0.082031 0.105469,0.082031 0.117188,0.082031 0.09375,0 0.105469,-0.023437 0.140625,-0.1171875 0.175781,-0.5390625 0.609375,-0.84375 0.949219,-0.84375 0.234375,0 0.421875,0.1289062 0.421875,0.46875 0,0.1289062 -0.08203,0.4804687 -0.152344,0.7148437 z m 0,0"
         style="fill:#eb0a36;fill-opacity:1;fill-rule:nonzero;stroke:none" />
    </g>
    <g
       id="g19"
       aria-label="y=4&#10;x"
       transform="matrix(1.3333333,0,0,1.3333333,304.67467,105.95733)"
       clip-path="url(#clipPath60)">
      <path
         id="path20"
         d="m 4.8406797,-3.7971016 c 0.046875,-0.140625 0.046875,-0.1523437 0.046875,-0.2226562 0,-0.1875 -0.140625,-0.2695313 -0.2929688,-0.2695313 -0.1054687,0 -0.2578125,0.058594 -0.3515625,0.1992188 -0.023437,0.058594 -0.09375,0.3632812 -0.140625,0.5390625 -0.070312,0.2578125 -0.140625,0.5273437 -0.1992187,0.796875 l -0.4453125,1.79296874 c -0.035156,0.15234375 -0.46875,0.85546875 -1.125,0.85546875 -0.5039063,0 -0.6210938,-0.4453125 -0.6210938,-0.80859375 0,-0.45703124 0.1757813,-1.07812504 0.515625,-1.95703124 0.1523438,-0.4101563 0.1992188,-0.515625 0.1992188,-0.7148438 0,-0.4453125 -0.328125,-0.8203125 -0.8203125,-0.8203125 -0.94921876,0 -1.31250001,1.453125 -1.31250001,1.5351563 0,0.1054687 0.09375,0.1054687 0.1171875,0.1054687 0.09375,0 0.10546875,-0.023437 0.15234375,-0.1875 0.26953125,-0.9375 0.66796876,-1.2304687 1.00781246,-1.2304687 0.082031,0 0.2578125,0 0.2578125,0.3164062 0,0.2460938 -0.1054687,0.515625 -0.1757812,0.703125 -0.3984375,1.0546875 -0.5742188,1.6171875 -0.5742188,2.0859375 0,0.89062504 0.6210938,1.18359379 1.21875,1.18359379 0.3867188,0 0.7265625,-0.1640625 0.9960938,-0.4453125 -0.1289063,0.515625 -0.2460938,1.0078125 -0.6445313,1.53515621 -0.2578125,0.3398438 -0.6328125,0.6328125 -1.0898437,0.6328125 -0.140625,0 -0.59765626,-0.035156 -0.76171876,-0.421875 0.1640625,0 0.29296876,0 0.43359376,-0.1171875 0.09375,-0.09375 0.1992187,-0.2226562 0.1992187,-0.41015621 0,-0.31640625 -0.2695312,-0.3515625 -0.375,-0.3515625 -0.22265621,0 -0.55078121,0.1640625 -0.55078121,0.64453121 0,0.5039063 0.43359375,0.8671875 1.05468751,0.8671875 1.0195312,0 2.0507812,-0.9023437 2.3320312,-2.02734371 z m 0,0"
         style="fill:#ec008c;fill-opacity:1;fill-rule:nonzero;stroke:none" />
      <path
         id="path21"
         d="m 14.857281,-3.2580391 c 0.152344,0 0.339844,0 0.339844,-0.1992187 0,-0.1992188 -0.1875,-0.1992188 -0.328125,-0.1992188 H 8.9041563 c -0.140625,0 -0.328125,0 -0.328125,0.1992188 0,0.1992187 0.1875,0.1992187 0.3398437,0.1992187 z m 0.01172,1.9335938 c 0.140625,0 0.328125,0 0.328125,-0.1992188 0,-0.1992187 -0.1875,-0.1992187 -0.339844,-0.1992187 H 8.915875 c -0.1523437,0 -0.3398437,0 -0.3398437,0.1992187 0,0.1992188 0.1875,0.1992188 0.328125,0.1992188 z m 6.583008,-0.3164063 v 0.86718754 c 0,0.3515625 -0.02344,0.46875 -0.761719,0.46875 h -0.210937 v 0.3046874975 c 0.410156,-0.0351562475 0.9375,-0.0351562475 1.347656,-0.0351562475 0.421875,0 0.949219,0 1.359375,0.0351562475 V -0.30491406 h -0.210938 c -0.738281,0 -0.761718,-0.1171875 -0.761718,-0.46875 V -1.6408516 h 0.996093 v -0.3164062 h -0.996093 v -4.5234375 c 0,-0.1992188 0,-0.2578125 -0.152344,-0.2578125 -0.09375,0 -0.117188,0 -0.199219,0.1171875 l -3.058594,4.6640625 v 0.3164062 z m 0.05859,-0.3164062 H 19.08482 l 2.425782,-3.7148438 z m 0,0"
         style="fill:#ec008c;fill-opacity:1;fill-rule:nonzero;stroke:none" />
      <path
         id="path22"
         d="m 25.240094,-4.3537422 c -0.07031,0.234375 -0.292969,0.609375 -0.65625,0.609375 -0.02344,0 -0.222657,0 -0.375,-0.09375 0.28125,-0.09375 0.304687,-0.3398437 0.304687,-0.3867187 0,-0.1523438 -0.117187,-0.2578125 -0.28125,-0.2578125 -0.1875,0 -0.386719,0.1640625 -0.386719,0.4335937 0,0.3398438 0.386719,0.5039063 0.726563,0.5039063 0.316406,0 0.609375,-0.1992188 0.785156,-0.4921875 0.164063,0.3632812 0.550781,0.4921875 0.820313,0.4921875 0.808593,0 1.230468,-0.8671875 1.230468,-1.0664063 0,-0.09375 -0.09375,-0.09375 -0.105468,-0.09375 -0.105469,0 -0.105469,0.035156 -0.140625,0.1171875 -0.140625,0.4804688 -0.5625,0.84375 -0.949219,0.84375 -0.28125,0 -0.421875,-0.1875 -0.421875,-0.4453125 0,-0.1875 0.164062,-0.8203125 0.363281,-1.59375 0.128906,-0.5390625 0.445313,-0.7148437 0.679688,-0.7148437 0.01172,0 0.222656,0 0.375,0.1054687 -0.222657,0.058594 -0.304688,0.2578125 -0.304688,0.375 0,0.1523438 0.117188,0.2578125 0.28125,0.2578125 0.152344,0 0.386719,-0.1289062 0.386719,-0.421875 0,-0.3867187 -0.445313,-0.5039062 -0.726563,-0.5039062 -0.351562,0 -0.632812,0.2226562 -0.785156,0.4921875 -0.117187,-0.2929688 -0.445312,-0.4921875 -0.832031,-0.4921875 -0.785156,0 -1.230469,0.8554687 -1.230469,1.0664062 0,0.082031 0.105469,0.082031 0.117188,0.082031 0.09375,0 0.105468,-0.023437 0.140625,-0.1171875 0.175781,-0.5390625 0.609375,-0.84375 0.949218,-0.84375 0.234375,0 0.421875,0.1289062 0.421875,0.46875 0,0.1289062 -0.08203,0.4804687 -0.152343,0.7148437 z m 0,0"
         style="fill:#ec008c;fill-opacity:1;fill-rule:nonzero;stroke:none" />
    </g>
    <g
       id="g22"
       aria-label="y=10&#10;x"
       transform="matrix(1.3333333,0,0,1.3333333,258.83467,77.610667)"
       clip-path="url(#clipPath59)">
      <path
         id="path23"
         d="m 4.8407969,-3.7978437 c 0.046875,-0.140625 0.046875,-0.1523438 0.046875,-0.2226563 0,-0.1875 -0.140625,-0.2695312 -0.2929688,-0.2695312 -0.1054687,0 -0.2578125,0.058594 -0.3515625,0.1992187 -0.023437,0.058594 -0.09375,0.3632813 -0.140625,0.5390625 -0.070312,0.2578125 -0.140625,0.5273438 -0.1992187,0.796875 l -0.4453125,1.79296875 c -0.035156,0.15234375 -0.46875,0.85546875 -1.125,0.85546875 -0.5039063,0 -0.6210938,-0.4453125 -0.6210938,-0.80859375 0,-0.45703125 0.1757813,-1.07812495 0.515625,-1.95703125 0.1523438,-0.4101562 0.1992188,-0.515625 0.1992188,-0.7148437 0,-0.4453125 -0.328125,-0.8203125 -0.8203125,-0.8203125 -0.94921878,0 -1.31250003,1.453125 -1.31250003,1.5351562 0,0.1054688 0.09375,0.1054688 0.1171875,0.1054688 0.09375,0 0.10546875,-0.023437 0.15234375,-0.1875 0.26953125,-0.9375 0.66796878,-1.2304688 1.00781248,-1.2304688 0.082031,0 0.2578125,0 0.2578125,0.3164063 0,0.2460937 -0.1054687,0.515625 -0.1757812,0.703125 -0.3984375,1.0546875 -0.5742188,1.6171875 -0.5742188,2.0859375 0,0.89062495 0.6210938,1.1835937 1.21875,1.1835937 0.3867188,0 0.7265625,-0.1640625 0.9960938,-0.4453125 C 3.1650156,0.1748125 3.0478281,0.667 2.6493906,1.1943438 2.3915781,1.5341875 2.0165781,1.8271563 1.5595469,1.8271563 c -0.140625,0 -0.59765628,-0.035156 -0.76171878,-0.421875 0.1640625,0 0.29296878,0 0.43359378,-0.1171875 0.09375,-0.09375 0.1992187,-0.2226563 0.1992187,-0.4101563 0,-0.31640625 -0.2695312,-0.3515625 -0.375,-0.3515625 -0.22265623,0 -0.55078123,0.1640625 -0.55078123,0.6445313 0,0.5039062 0.43359375,0.8671875 1.05468753,0.8671875 1.0195312,0 2.0507812,-0.9023438 2.3320312,-2.0273438 z m 0,0"
         style="fill:#0000ff;fill-opacity:1;fill-rule:nonzero;stroke:none" />
      <path
         id="path24"
         d="m 14.857398,-3.2587812 c 0.152344,0 0.339844,0 0.339844,-0.1992188 0,-0.1992187 -0.1875,-0.1992187 -0.328125,-0.1992187 H 8.9042734 c -0.140625,0 -0.328125,0 -0.328125,0.1992187 0,0.1992188 0.1875,0.1992188 0.3398438,0.1992188 z m 0.01172,1.9335937 c 0.140625,0 0.328125,0 0.328125,-0.1992187 0,-0.1992188 -0.1875,-0.1992188 -0.339844,-0.1992188 H 8.9159922 c -0.1523438,0 -0.3398438,0 -0.3398438,0.1992188 0,0.1992187 0.1875,0.1992187 0.328125,0.1992187 z m 6.583008,-5.0507812 c 0,-0.234375 0,-0.2578125 -0.234375,-0.2578125 -0.609375,0.6328125 -1.488281,0.6328125 -1.804688,0.6328125 v 0.3164062 c 0.199219,0 0.785157,0 1.300782,-0.2578125 v 5.15625 c 0,0.3515625 -0.03516,0.48046875 -0.925782,0.48046875 h -0.316406 v 0.3046875 c 0.351562,-0.03515625 1.20703,-0.03515625 1.605468,-0.03515625 0.398437,0 1.265625,0 1.617187,0.03515625 v -0.3046875 h -0.316406 c -0.902344,0 -0.925781,-0.1171875 -0.925781,-0.48046875 z m 6.632812,3.1875 c 0,-0.796875 -0.04687,-1.59375 -0.398437,-2.3320313 -0.457031,-0.9609375 -1.277344,-1.1132812 -1.6875,-1.1132812 -0.597656,0 -1.335938,0.2578125 -1.734375,1.1835937 -0.328125,0.6914063 -0.375,1.4648438 -0.375,2.2617188 0,0.75 0.04687,1.640625 0.445312,2.4023437 0.433594,0.80859375 1.160157,1.0078125 1.652344,1.0078125 0.539063,0 1.289063,-0.2109375 1.734375,-1.16015625 0.316406,-0.69140625 0.363281,-1.46484375 0.363281,-2.24999995 z m -2.097656,3.18749995 c -0.386719,0 -0.984375,-0.24609375 -1.160156,-1.20703125 -0.105469,-0.5976562 -0.105469,-1.5117187 -0.105469,-2.0976562 0,-0.6445313 0,-1.3007813 0.08203,-1.8398438 0.1875,-1.1835937 0.925782,-1.265625 1.183594,-1.265625 0.328125,0 0.984375,0.1757813 1.171875,1.1601563 0.09375,0.5625 0.09375,1.3125 0.09375,1.9453125 0,0.75 0,1.4179687 -0.105469,2.0625 -0.152343,0.93749995 -0.714843,1.24218745 -1.160156,1.24218745 z m 0,0"
         style="fill:#0000ff;fill-opacity:1;fill-rule:nonzero;stroke:none" />
      <path
         id="path25"
         d="m 30.223609,-4.6943281 c -0.07031,0.234375 -0.292968,0.609375 -0.65625,0.609375 -0.02344,0 -0.222656,0 -0.375,-0.09375 0.28125,-0.09375 0.304688,-0.3398438 0.304688,-0.3867188 0,-0.1523437 -0.117188,-0.2578125 -0.28125,-0.2578125 -0.1875,0 -0.386719,0.1640625 -0.386719,0.4335938 0,0.3398437 0.386719,0.5039062 0.726563,0.5039062 0.316406,0 0.609375,-0.1992187 0.785156,-0.4921875 0.164062,0.3632813 0.550781,0.4921875 0.820312,0.4921875 0.808594,0 1.230469,-0.8671875 1.230469,-1.0664062 0,-0.09375 -0.09375,-0.09375 -0.105469,-0.09375 -0.105468,0 -0.105468,0.035156 -0.140625,0.1171875 -0.140625,0.4804687 -0.5625,0.84375 -0.949218,0.84375 -0.28125,0 -0.421875,-0.1875 -0.421875,-0.4453125 0,-0.1875 0.164062,-0.8203125 0.363281,-1.59375 0.128906,-0.5390625 0.445312,-0.7148438 0.679687,-0.7148438 0.01172,0 0.222657,0 0.375,0.1054688 -0.222656,0.058594 -0.304687,0.2578125 -0.304687,0.375 0,0.1523437 0.117187,0.2578125 0.28125,0.2578125 0.152344,0 0.386719,-0.1289063 0.386719,-0.421875 0,-0.3867188 -0.445313,-0.5039063 -0.726563,-0.5039063 -0.351562,0 -0.632812,0.2226563 -0.785156,0.4921875 -0.117188,-0.2929687 -0.445313,-0.4921875 -0.832031,-0.4921875 -0.785157,0 -1.230469,0.8554688 -1.230469,1.0664063 0,0.082031 0.105469,0.082031 0.117187,0.082031 0.09375,0 0.105469,-0.023437 0.140625,-0.1171875 0.175782,-0.5390625 0.609375,-0.84375 0.949219,-0.84375 0.234375,0 0.421875,0.1289063 0.421875,0.46875 0,0.1289063 -0.08203,0.4804688 -0.152344,0.7148438 z m 0,0"
         style="fill:#0000ff;fill-opacity:1;fill-rule:nonzero;stroke:none" />
    </g>
    <g
       id="g25"
       aria-label="y=&#10;&#10;1"
       transform="matrix(1.3333333,0,0,1.3333333,175.96267,88.988)"
       clip-path="url(#clipPath58)">
      <path
         id="path26"
         d="m 4.8385469,-3.7966641 c 0.046875,-0.140625 0.046875,-0.1523437 0.046875,-0.2226562 0,-0.1875 -0.140625,-0.2695313 -0.2929688,-0.2695313 -0.1054687,0 -0.2578125,0.058594 -0.3515625,0.1992188 -0.023437,0.058594 -0.09375,0.3632812 -0.140625,0.5390625 -0.070312,0.2578125 -0.140625,0.5273437 -0.1992187,0.796875 l -0.4453125,1.79296874 c -0.035156,0.15234375 -0.46875,0.85546875 -1.125,0.85546875 -0.5039063,0 -0.6210938,-0.4453125 -0.6210938,-0.80859375 0,-0.45703124 0.1757813,-1.07812504 0.515625,-1.95703124 0.1523438,-0.4101563 0.1992188,-0.515625 0.1992188,-0.7148438 0,-0.4453125 -0.328125,-0.8203125 -0.8203125,-0.8203125 -0.94921878,0 -1.31250003,1.453125 -1.31250003,1.5351563 0,0.1054687 0.09375,0.1054687 0.1171875,0.1054687 0.09375,0 0.10546875,-0.023437 0.15234375,-0.1875 0.26953125,-0.9375 0.66796878,-1.2304687 1.00781248,-1.2304687 0.082031,0 0.2578125,0 0.2578125,0.3164062 0,0.2460938 -0.1054687,0.515625 -0.1757812,0.703125 -0.3984375,1.0546875 -0.5742188,1.6171875 -0.5742188,2.0859375 0,0.89062504 0.6210938,1.18359379 1.21875,1.18359379 0.3867188,0 0.7265625,-0.1640625 0.9960938,-0.4453125 -0.1289063,0.515625 -0.2460938,1.0078125 -0.6445313,1.53515621 -0.2578125,0.3398438 -0.6328125,0.6328125 -1.0898437,0.6328125 -0.140625,0 -0.59765628,-0.035156 -0.76171878,-0.421875 0.1640625,0 0.29296878,0 0.43359378,-0.1171875 0.09375,-0.09375 0.1992187,-0.2226562 0.1992187,-0.41015621 0,-0.31640625 -0.2695312,-0.3515625 -0.375,-0.3515625 -0.22265623,0 -0.55078123,0.1640625 -0.55078123,0.64453121 0,0.5039063 0.43359375,0.8671875 1.05468753,0.8671875 1.0195312,0 2.0507812,-0.9023437 2.3320312,-2.02734371 z m 0,0"
         style="fill:#bf0040;fill-opacity:1;fill-rule:nonzero;stroke:none" />
      <path
         id="path27"
         d="m 14.858078,-3.2576016 c 0.152344,0 0.339844,0 0.339844,-0.1992187 0,-0.1992188 -0.1875,-0.1992188 -0.328125,-0.1992188 H 8.9049531 c -0.140625,0 -0.328125,0 -0.328125,0.1992188 0,0.1992187 0.1875,0.1992187 0.3398438,0.1992187 z m 0.01172,1.9335938 c 0.140625,0 0.328125,0 0.328125,-0.1992188 0,-0.1992187 -0.1875,-0.1992187 -0.339844,-0.1992187 H 8.9166719 c -0.1523438,0 -0.3398438,0 -0.3398438,0.1992187 0,0.1992188 0.1875,0.1992188 0.328125,0.1992188 z m 0,0"
         style="fill:#bf0040;fill-opacity:1;fill-rule:nonzero;stroke:none" />
      <path
         id="path28"
         d="m 22.639328,3.3781406 c 0,-0.046875 -0.02344,-0.058594 -0.03516,-0.09375 -0.457027,-0.4921875 -1.136715,-1.2890625 -1.55859,-2.91796872 -0.222656,-0.90234375 -0.316406,-1.93359378 -0.316406,-2.85937498 0,-2.625 0.621094,-4.453125 1.816406,-5.7421875 0.09375,-0.09375 0.09375,-0.1171875 0.09375,-0.140625 0,-0.09375 -0.08203,-0.09375 -0.117187,-0.09375 -0.152344,0 -0.691407,0.5976562 -0.820313,0.75 -1.019531,1.2070312 -1.664062,3 -1.664062,5.2148437 0,1.4179688 0.246093,3.42187503 1.558593,5.0976563 0.09375,0.1289062 0.75,0.8789062 0.925782,0.8789062 0.03516,0 0.117187,0 0.117187,-0.09375 z m 0,0"
         style="fill:#bf0040;fill-opacity:1;fill-rule:nonzero;stroke:none" />
      <path
         id="path29"
         d="m 28.604172,-8.3523281 c 0,-0.1875 -0.01172,-0.1992188 -0.210938,-0.1992188 -0.445312,0.4335938 -1.078125,0.4453125 -1.359375,0.4453125 v 0.2460938 c 0.164063,0 0.621094,0 1.007813,-0.1875 v 3.5507812 c 0,0.234375 0,0.328125 -0.691406,0.328125 h -0.269532 v 0.2460938 c 0.128907,-0.011719 0.984375,-0.023437 1.242188,-0.023437 0.210937,0 1.089844,0.011719 1.242187,0.023437 v -0.2460938 h -0.257812 c -0.703125,0 -0.703125,-0.09375 -0.703125,-0.328125 z m 0,0"
         style="fill:#bf0040;fill-opacity:1;fill-rule:nonzero;stroke:none" />
      <path
         id="path28-1"
         d="m 33.476698,-8.5035042 c 0,0.04687 0.02344,0.05859 0.03516,0.09375 0.457027,0.492187 1.136715,1.289062 1.55859,2.917968 0.222656,0.902344 0.316406,1.933594 0.316406,2.859375 0,2.62499999 -0.621094,4.453125 -1.816406,5.742188 -0.09375,0.09375 -0.09375,0.117187 -0.09375,0.140625 0,0.09375 0.08203,0.09375 0.117187,0.09375 0.152344,0 0.691407,-0.597657 0.820313,-0.75 1.019531,-1.207032 1.664062,-3.00000001 1.664062,-5.214844 0,-1.417969 -0.246093,-3.421875 -1.558593,-5.097656 -0.09375,-0.128906 -0.75,-0.878906 -0.925782,-0.878906 -0.03516,0 -0.117187,0 -0.117187,0.09375 z m 0,0"
         style="fill:#bf0040;fill-opacity:1;fill-rule:nonzero;stroke:none" />
    </g>
    <path
       id="path30"
       d="M 0,0 H 7.942"
       style="fill:none;stroke:#bf0040;stroke-width:0.398;stroke-linecap:butt;stroke-linejoin:miter;stroke-miterlimit:10;stroke-dasharray:none;stroke-opacity:1"
       transform="matrix(1.3333333,0,0,-1.3333333,208.34667,85.666667)"
       clip-path="url(#clipPath57)" />
    <g
       id="g30"
       aria-label="10&#10;&#10;x"
       transform="matrix(1.3333333,0,0,1.3333333,208.34667,93.568)"
       clip-path="url(#clipPath56)">
      <path
         id="path31"
         d="m 2.3327734,-4.4308828 c 0,-0.1875 -0.011719,-0.1992188 -0.2109375,-0.1992188 -0.4453125,0.4335938 -1.078125,0.4453125 -1.35937496,0.4453125 v 0.2460938 c 0.1640625,0 0.62109376,0 1.00781246,-0.1875 v 3.55078124 c 0,0.234375 0,0.328125 -0.6914062,0.328125 H 0.80933594 v 0.24609375 c 0.12890625,-0.01171875 0.98437496,-0.0234375 1.24218746,-0.0234375 0.2109375,0 1.0898438,0.01171875 1.2421875,0.0234375 V -0.24728906 H 3.0358984 c -0.703125,0 -0.703125,-0.09375 -0.703125,-0.328125 z m 5.2353516,2.203125 c 0,-0.7617188 -0.09375,-1.3125 -0.4101562,-1.8046875 -0.2226563,-0.3164063 -0.6445313,-0.5976563 -1.2070313,-0.5976563 -1.6171875,0 -1.6171875,1.8984375 -1.6171875,2.4023438 0,0.5039062 0,2.36718749 1.6171875,2.36718749 1.6171875,0 1.6171875,-1.86328129 1.6171875,-2.36718749 z m -1.6171875,2.16796874 c -0.3164062,0 -0.75,-0.1875 -0.890625,-0.76171875 -0.09375,-0.41015629 -0.09375,-0.98437499 -0.09375,-1.49999999 0,-0.5039063 0,-1.03125 0.1054688,-1.4179688 0.1523437,-0.5507812 0.5976562,-0.6914062 0.8789062,-0.6914062 0.375,0 0.7382813,0.2226562 0.8671875,0.6328125 0.1054688,0.375 0.1171875,0.8789062 0.1171875,1.4765625 0,0.515625 0,1.0429687 -0.09375,1.47656249 -0.140625,0.6328125 -0.609375,0.78515625 -0.890625,0.78515625 z m 0,0"
         style="fill:#bf0040;fill-opacity:1;fill-rule:nonzero;stroke:none" />
      <path
         id="path32"
         d="m 15.437266,-10.17893 c -0.07031,0.2343753 -0.292969,0.6093753 -0.65625,0.6093753 -0.02344,0 -0.222657,0 -0.375,-0.09375 0.28125,-0.09375 0.304687,-0.3398433 0.304687,-0.3867183 0,-0.152344 -0.117187,-0.257813 -0.28125,-0.257813 -0.1875,0 -0.386719,0.164063 -0.386719,0.4335938 0,0.3398438 0.386719,0.5039063 0.726563,0.5039063 0.316406,0 0.609375,-0.1992188 0.785156,-0.4921875 0.164063,0.3632812 0.550781,0.4921875 0.820313,0.4921875 0.808593,0 1.230468,-0.8671871 1.230468,-1.0664061 0,-0.09375 -0.09375,-0.09375 -0.105468,-0.09375 -0.105469,0 -0.105469,0.03516 -0.140625,0.117187 -0.140625,0.4804691 -0.5625,0.8437503 -0.949219,0.8437503 -0.28125,0 -0.421875,-0.1875 -0.421875,-0.4453123 0,-0.1875 0.164062,-0.820313 0.363281,-1.59375 0.128906,-0.539063 0.445313,-0.714844 0.679688,-0.714844 0.01172,0 0.222656,0 0.375,0.105469 -0.222657,0.05859 -0.304688,0.257812 -0.304688,0.375 0,0.152344 0.117188,0.257812 0.28125,0.257812 0.152344,0 0.386719,-0.128906 0.386719,-0.421875 0,-0.386718 -0.445313,-0.503906 -0.726563,-0.503906 -0.351562,0 -0.632812,0.222656 -0.785156,0.492188 -0.117187,-0.292969 -0.445312,-0.492188 -0.832031,-0.492188 -0.785156,0 -1.230469,0.855469 -1.230469,1.066406 0,0.08203 0.105469,0.08203 0.117188,0.08203 0.09375,0 0.105468,-0.02344 0.140625,-0.117188 0.175781,-0.539062 0.609375,-0.84375 0.949218,-0.84375 0.234375,0 0.421875,0.128906 0.421875,0.46875 0,0.128906 -0.08203,0.480469 -0.152343,0.714844 z m 0,0"
         style="fill:#bf0040;fill-opacity:1;fill-rule:nonzero;stroke:none" />
    </g>
    <g
       id="g32"
       aria-label="y=&#10;&#10;1"
       transform="matrix(1.3333333,0,0,1.3333333,113.41333,103.16133)"
       clip-path="url(#clipPath55)">
      <path
         id="path33"
         d="m 4.8403906,-3.7977578 c 0.046875,-0.140625 0.046875,-0.1523438 0.046875,-0.2226563 0,-0.1875 -0.140625,-0.2695312 -0.2929687,-0.2695312 -0.1054688,0 -0.2578125,0.058594 -0.3515625,0.1992187 -0.023437,0.058594 -0.09375,0.3632813 -0.140625,0.5390625 -0.070312,0.2578125 -0.140625,0.5273438 -0.1992188,0.796875 l -0.4453125,1.79296879 c -0.035156,0.15234375 -0.46875,0.85546875 -1.125,0.85546875 -0.5039062,0 -0.6210937,-0.4453125 -0.6210937,-0.80859375 0,-0.45703129 0.1757812,-1.07812499 0.515625,-1.95703129 0.1523437,-0.4101562 0.1992187,-0.515625 0.1992187,-0.7148437 0,-0.4453125 -0.328125,-0.8203125 -0.8203125,-0.8203125 -0.94921873,0 -1.31249998,1.453125 -1.31249998,1.5351562 0,0.1054688 0.09375,0.1054688 0.1171875,0.1054688 0.09375,0 0.10546875,-0.023437 0.15234375,-0.1875 0.26953125,-0.9375 0.66796873,-1.2304688 1.00781253,-1.2304688 0.082031,0 0.2578125,0 0.2578125,0.3164063 0,0.2460937 -0.1054688,0.515625 -0.1757813,0.703125 -0.3984375,1.0546875 -0.5742187,1.6171875 -0.5742187,2.0859375 0,0.89062499 0.6210937,1.18359374 1.21875,1.18359374 0.3867187,0 0.7265625,-0.1640625 0.9960937,-0.4453125 -0.1289062,0.515625 -0.2460937,1.0078125 -0.6445312,1.53515626 -0.2578125,0.3398437 -0.6328125,0.6328125 -1.0898438,0.6328125 -0.140625,0 -0.59765623,-0.035156 -0.76171873,-0.421875 0.1640625,0 0.29296873,0 0.43359373,-0.1171875 0.09375,-0.09375 0.1992188,-0.2226563 0.1992188,-0.41015626 0,-0.31640625 -0.2695313,-0.3515625 -0.375,-0.3515625 -0.22265628,0 -0.55078128,0.1640625 -0.55078128,0.64453126 0,0.5039062 0.43359375,0.8671875 1.05468748,0.8671875 1.0195313,0 2.0507813,-0.9023438 2.3320313,-2.02734376 z m 0,0"
         style="fill:#bf8040;fill-opacity:1;fill-rule:nonzero;stroke:none" />
      <path
         id="path34"
         d="m 14.856992,-3.2586953 c 0.152344,0 0.339844,0 0.339844,-0.1992188 0,-0.1992187 -0.1875,-0.1992187 -0.328125,-0.1992187 H 8.9038672 c -0.140625,0 -0.328125,0 -0.328125,0.1992187 0,0.1992188 0.1875,0.1992188 0.3398437,0.1992188 z m 0.01172,1.9335937 c 0.140625,0 0.328125,0 0.328125,-0.1992187 0,-0.1992188 -0.1875,-0.1992188 -0.339844,-0.1992188 H 8.9155859 c -0.1523437,0 -0.3398437,0 -0.3398437,0.1992188 0,0.1992187 0.1875,0.1992187 0.328125,0.1992187 z m 0,0"
         style="fill:#bf8040;fill-opacity:1;fill-rule:nonzero;stroke:none" />
      <path
         id="path35"
         d="m 22.638242,3.3799766 c 0,-0.046875 -0.02344,-0.058594 -0.03516,-0.09375 -0.457027,-0.4921875 -1.136715,-1.2890625 -1.55859,-2.91796879 -0.222656,-0.90234375 -0.316406,-1.93359371 -0.316406,-2.85937501 0,-2.625 0.621094,-4.453125 1.816406,-5.7421875 0.09375,-0.09375 0.09375,-0.1171875 0.09375,-0.140625 0,-0.09375 -0.08203,-0.09375 -0.117187,-0.09375 -0.152344,0 -0.691407,0.5976563 -0.820313,0.75 -1.019531,1.2070313 -1.664062,3 -1.664062,5.2148438 0,1.4179687 0.246093,3.42187496 1.558593,5.0976562 0.09375,0.1289063 0.75,0.8789063 0.925782,0.8789063 0.03516,0 0.117187,0 0.117187,-0.09375 z m 0,0"
         style="fill:#bf8040;fill-opacity:1;fill-rule:nonzero;stroke:none" />
      <path
         id="path36"
         d="m 26.619687,-8.3534219 c 0,-0.1875 -0.01172,-0.1992187 -0.210937,-0.1992187 -0.445313,0.4335937 -1.078125,0.4453125 -1.359375,0.4453125 v 0.2460937 c 0.164062,0 0.621094,0 1.007812,-0.1875 v 3.5507813 c 0,0.234375 0,0.328125 -0.691406,0.328125 H 25.09625 v 0.2460937 c 0.128906,-0.011719 0.984375,-0.023437 1.242187,-0.023437 0.210938,0 1.089844,0.011719 1.242188,0.023437 v -0.2460937 h -0.257813 c -0.703125,0 -0.703125,-0.09375 -0.703125,-0.328125 z m 0,0"
         style="fill:#bf8040;fill-opacity:1;fill-rule:nonzero;stroke:none" />
      <path
         id="path35-8"
         d="m 30.499355,-8.3080168 c 0,0.04687 0.02344,0.05859 0.03516,0.09375 0.457027,0.492188 1.136715,1.289063 1.55859,2.917969 0.222656,0.902344 0.316406,1.933594 0.316406,2.859375 0,2.62499993 -0.621094,4.453125 -1.816406,5.742188 -0.09375,0.09375 -0.09375,0.117187 -0.09375,0.140625 0,0.09375 0.08203,0.09375 0.117187,0.09375 0.152344,0 0.691407,-0.597657 0.820313,-0.75 1.019531,-1.207032 1.664062,-3.00000007 1.664062,-5.214844 0,-1.417969 -0.246093,-3.421875 -1.558593,-5.097656 -0.09375,-0.128907 -0.75,-0.878907 -0.925782,-0.878907 -0.03516,0 -0.117187,0 -0.117187,0.09375 z m 0,0"
         style="fill:#bf8040;fill-opacity:1;fill-rule:nonzero;stroke:none" />
    </g>
    <path
       id="path37"
       d="M 0,0 H 3.971"
       style="fill:none;stroke:#bf8040;stroke-width:0.398;stroke-linecap:butt;stroke-linejoin:miter;stroke-miterlimit:10;stroke-dasharray:none;stroke-opacity:1"
       transform="matrix(1.3333333,0,0,-1.3333333,145.796,99.84)"
       clip-path="url(#clipPath54)" />
    <g
       id="g37"
       aria-label="4&#10;&#10;x"
       transform="matrix(1.3333333,0,0,1.3333333,145.796,107.74133)"
       clip-path="url(#clipPath53)">
      <path
         id="path38"
         d="M 3.6920625,-1.1477969 V -1.3938906 H 2.918625 v -3.1054688 c 0,-0.1523437 0,-0.1992187 -0.1523438,-0.1992187 -0.09375,0 -0.1171875,0 -0.1875,0.09375 l -2.3085937,3.2109375 v 0.2460937 h 2.0507812 v 0.57421878 c 0,0.234375 0,0.328125 -0.5625,0.328125 h -0.1875 V 6.40625e-4 c 0.3515625,-0.011718745 0.796875,-0.023437495 1.0429688,-0.023437495 0.2578125,0 0.703125,0.01171875 1.0546875,0.023437495 V -0.24545312 h -0.1875 c -0.5625,0 -0.5625,-0.09375 -0.5625,-0.328125 V -1.1477969 Z M 2.3678437,-3.9485781 v 2.5546875 H 0.528 Z m 0,0"
         style="fill:#bf8040;fill-opacity:1;fill-rule:nonzero;stroke:none" />
      <path
         id="path39"
         d="m 11.467453,-10.180023 c -0.07031,0.2343746 -0.292969,0.6093746 -0.65625,0.6093746 -0.02344,0 -0.222656,0 -0.375,-0.09375 0.28125,-0.09375 0.304688,-0.3398436 0.304688,-0.3867186 0,-0.152344 -0.117188,-0.257813 -0.28125,-0.257813 -0.1875,0 -0.386719,0.164063 -0.386719,0.4335941 0,0.3398437 0.386719,0.5039062 0.726562,0.5039062 0.316407,0 0.609375,-0.1992187 0.785157,-0.4921875 0.164062,0.3632813 0.550781,0.4921875 0.820312,0.4921875 0.808594,0 1.230469,-0.8671873 1.230469,-1.0664063 0,-0.09375 -0.09375,-0.09375 -0.105469,-0.09375 -0.105469,0 -0.105469,0.03516 -0.140625,0.117188 -0.140625,0.4804683 -0.5625,0.8437496 -0.949219,0.8437496 -0.28125,0 -0.421875,-0.1875 -0.421875,-0.4453126 0,-0.1875 0.164063,-0.820312 0.363282,-1.59375 0.128906,-0.539062 0.445312,-0.714844 0.679687,-0.714844 0.01172,0 0.222656,0 0.375,0.105469 -0.222656,0.05859 -0.304687,0.257813 -0.304687,0.375 0,0.152344 0.117187,0.257813 0.28125,0.257813 0.152343,0 0.386718,-0.128907 0.386718,-0.421875 0,-0.386719 -0.445312,-0.503907 -0.726562,-0.503907 -0.351563,0 -0.632813,0.222657 -0.785156,0.492188 -0.117188,-0.292969 -0.445313,-0.492188 -0.832032,-0.492188 -0.785156,0 -1.230468,0.855469 -1.230468,1.066407 0,0.08203 0.105468,0.08203 0.117187,0.08203 0.09375,0 0.105469,-0.02344 0.140625,-0.117188 0.175781,-0.539062 0.609375,-0.84375 0.949219,-0.84375 0.234375,0 0.421875,0.128907 0.421875,0.46875 0,0.128907 -0.08203,0.480469 -0.152344,0.714844 z m 0,0"
         style="fill:#bf8040;fill-opacity:1;fill-rule:nonzero;stroke:none" />
    </g>
    <g
       id="g39"
       aria-label="y=&#10;&#10;1"
       transform="matrix(1.3333333,0,0,1.3333333,99.24,202.37333)"
       clip-path="url(#clipPath52)">
      <path
         id="path40"
         d="m 4.8385547,-3.795625 c 0.046875,-0.140625 0.046875,-0.1523437 0.046875,-0.2226562 0,-0.1875 -0.140625,-0.2695313 -0.2929688,-0.2695313 -0.1054687,0 -0.2578125,0.058594 -0.3515625,0.1992188 -0.023437,0.058594 -0.09375,0.3632812 -0.140625,0.5390625 -0.070312,0.2578125 -0.140625,0.5273437 -0.1992187,0.796875 l -0.4453125,1.7929687 c -0.035156,0.15234375 -0.46875,0.85546875 -1.125,0.85546875 -0.5039063,0 -0.6210938,-0.4453125 -0.6210938,-0.80859375 0,-0.4570312 0.1757813,-1.078125 0.515625,-1.9570312 C 2.3776172,-3.28 2.4244922,-3.3854687 2.4244922,-3.5846875 2.4244922,-4.03 2.0963672,-4.405 1.6041797,-4.405 c -0.94921876,0 -1.31250001,1.453125 -1.31250001,1.5351563 0,0.1054687 0.09375,0.1054687 0.1171875,0.1054687 0.09375,0 0.10546875,-0.023437 0.15234375,-0.1875 0.26953125,-0.9375 0.66796876,-1.2304687 1.00781246,-1.2304687 0.082031,0 0.2578125,0 0.2578125,0.3164062 0,0.2460938 -0.1054687,0.515625 -0.1757812,0.703125 -0.3984375,1.0546875 -0.5742188,1.6171875 -0.5742188,2.0859375 0,0.890625 0.6210938,1.18359375 1.21875,1.18359375 0.3867188,0 0.7265625,-0.1640625 0.9960938,-0.4453125 C 3.1627734,0.17703125 3.0455859,0.66921875 2.6471484,1.1965625 2.3893359,1.5364063 2.0143359,1.829375 1.5573047,1.829375 c -0.140625,0 -0.59765626,-0.035156 -0.76171876,-0.421875 0.1640625,0 0.29296876,0 0.43359376,-0.1171875 0.09375,-0.09375 0.1992187,-0.2226562 0.1992187,-0.41015625 0,-0.31640625 -0.2695312,-0.3515625 -0.375,-0.3515625 -0.22265621,0 -0.55078121,0.1640625 -0.55078121,0.64453125 0,0.5039063 0.43359375,0.8671875 1.05468751,0.8671875 1.0195312,0 2.0507812,-0.9023437 2.3320312,-2.02734375 z m 0,0"
         style="fill:#008000;fill-opacity:1;fill-rule:nonzero;stroke:none" />
      <path
         id="path41"
         d="m 14.858086,-3.2565625 c 0.152344,0 0.339844,0 0.339844,-0.1992187 C 15.19793,-3.655 15.01043,-3.655 14.869805,-3.655 H 8.9049609 c -0.140625,0 -0.328125,0 -0.328125,0.1992188 0,0.1992187 0.1875,0.1992187 0.3398438,0.1992187 z m 0.01172,1.9335938 c 0.140625,0 0.328125,0 0.328125,-0.1992188 0,-0.1992187 -0.1875,-0.1992187 -0.339844,-0.1992187 H 8.9166797 c -0.1523438,0 -0.3398438,0 -0.3398438,0.1992187 0,0.1992188 0.1875,0.1992188 0.328125,0.1992188 z m 0,0"
         style="fill:#008000;fill-opacity:1;fill-rule:nonzero;stroke:none" />
      <path
         id="path42"
         d="m 22.639336,3.3791797 c 0,-0.046875 -0.02344,-0.058594 -0.03516,-0.09375 C 22.147148,2.7932422 21.467461,1.9963672 21.045586,0.36746094 20.82293,-0.53488281 20.72918,-1.5661328 20.72918,-2.4919141 c 0,-2.625 0.621093,-4.453125 1.816406,-5.7421875 0.09375,-0.09375 0.09375,-0.1171875 0.09375,-0.140625 0,-0.09375 -0.08203,-0.09375 -0.117188,-0.09375 -0.152343,0 -0.691406,0.5976563 -0.820312,0.75 -1.019531,1.2070313 -1.664063,3 -1.664063,5.2148438 0,1.4179687 0.246094,3.42187499 1.558594,5.0976562 0.09375,0.1289063 0.75,0.8789063 0.925781,0.8789063 0.03516,0 0.117188,0 0.117188,-0.09375 z m 0,0"
         style="fill:#008000;fill-opacity:1;fill-rule:nonzero;stroke:none" />
      <path
         id="path43"
         d="m 26.620781,-8.3512891 c 0,-0.1875 -0.01172,-0.1992187 -0.210937,-0.1992187 -0.445313,0.4335937 -1.078125,0.4453125 -1.359375,0.4453125 v 0.2460937 c 0.164062,0 0.621093,0 1.007812,-0.1875 v 3.5507813 c 0,0.234375 0,0.328125 -0.691406,0.328125 h -0.269531 v 0.2460937 c 0.128906,-0.011719 0.984375,-0.023437 1.242187,-0.023437 0.210938,0 1.089844,0.011719 1.242188,0.023437 v -0.2460937 h -0.257813 c -0.703125,0 -0.703125,-0.09375 -0.703125,-0.328125 z m 0,0"
         style="fill:#008000;fill-opacity:1;fill-rule:nonzero;stroke:none" />
      <path
         id="path42-2"
         d="m 29.966661,-8.2112554 c 0,0.04687 0.02344,0.05859 0.03516,0.09375 0.457028,0.492188 1.136715,1.289063 1.55859,2.917969 0.222656,0.902344 0.316406,1.933594 0.316406,2.859375 0,2.62500004 -0.621093,4.453125 -1.816406,5.742188 -0.09375,0.09375 -0.09375,0.117187 -0.09375,0.140625 0,0.09375 0.08203,0.09375 0.117188,0.09375 0.152343,0 0.691406,-0.597657 0.820312,-0.75 1.019531,-1.207032 1.664063,-2.99999996 1.664063,-5.214844 0,-1.417969 -0.246094,-3.421875 -1.558594,-5.097656 -0.09375,-0.128907 -0.75,-0.878907 -0.925781,-0.878907 -0.03516,0 -0.117188,0 -0.117188,0.09375 z m 0,0"
         style="fill:#008000;fill-opacity:1;fill-rule:nonzero;stroke:none" />
    </g>
    <path
       id="path44"
       d="M 0,0 H 3.971"
       style="fill:none;stroke:#008000;stroke-width:0.398;stroke-linecap:butt;stroke-linejoin:miter;stroke-miterlimit:10;stroke-dasharray:none;stroke-opacity:1"
       transform="matrix(1.3333333,0,0,-1.3333333,131.624,199.05333)"
       clip-path="url(#clipPath51)" />
    <g
       id="g44"
       aria-label="2&#10;&#10;x"
       transform="matrix(1.3333333,0,0,1.3333333,131.624,206.95467)"
       clip-path="url(#clipPath50)">
      <path
         id="path45"
         d="M 3.516375,-1.2667812 H 3.282 c -0.023437,0.1523437 -0.082031,0.56249995 -0.1757813,0.63281245 -0.058594,0.0351563 -0.5976562,0.0351563 -0.6914062,0.0351563 H 1.12575 C 1.8640312,-1.2433436 2.110125,-1.4425625 2.5202812,-1.7706875 c 0.515625,-0.4101562 0.9960938,-0.84375 0.9960938,-1.5 0,-0.84375 -0.7382813,-1.359375 -1.6289063,-1.359375 -0.8671875,0 -1.45312495,0.609375 -1.45312495,1.2421875 0,0.3632813 0.3046875,0.3984375 0.375,0.3984375 0.1640625,0 0.37499995,-0.1171875 0.37499995,-0.375 0,-0.1289062 -0.058594,-0.3632812 -0.42187495,-0.3632812 C 0.985125,-4.231625 1.453875,-4.3839687 1.782,-4.3839687 c 0.703125,0 1.0664062,0.5507812 1.0664062,1.1132812 0,0.609375 -0.4335937,1.0898438 -0.65625,1.3359375 l -1.68749995,1.6640625 c -0.0703125,0.0585938 -0.0703125,0.0703125 -0.0703125,0.26953125 H 3.3171562 Z m 0,0"
         style="fill:#008000;fill-opacity:1;fill-rule:nonzero;stroke:none" />
      <path
         id="path46"
         d="m 11.467547,-10.178891 c -0.07031,0.2343754 -0.292969,0.6093754 -0.65625,0.6093754 -0.02344,0 -0.222656,0 -0.375,-0.09375 0.28125,-0.09375 0.304687,-0.3398434 0.304687,-0.3867184 0,-0.152344 -0.117187,-0.257813 -0.28125,-0.257813 -0.1875,0 -0.386718,0.164063 -0.386718,0.4335939 0,0.3398437 0.386718,0.5039062 0.726562,0.5039062 0.316406,0 0.609375,-0.1992187 0.785156,-0.4921875 0.164063,0.3632813 0.550782,0.4921875 0.820313,0.4921875 0.808594,0 1.230469,-0.8671871 1.230469,-1.0664061 0,-0.09375 -0.09375,-0.09375 -0.105469,-0.09375 -0.105469,0 -0.105469,0.03516 -0.140625,0.117187 -0.140625,0.4804691 -0.5625,0.8437504 -0.949219,0.8437504 -0.28125,0 -0.421875,-0.1875 -0.421875,-0.4453124 0,-0.1875 0.164063,-0.820313 0.363281,-1.59375 0.128907,-0.539063 0.445313,-0.714844 0.679688,-0.714844 0.01172,0 0.222656,0 0.375,0.105469 -0.222656,0.05859 -0.304688,0.257812 -0.304688,0.375 0,0.152344 0.117188,0.257812 0.28125,0.257812 0.152344,0 0.386719,-0.128906 0.386719,-0.421875 0,-0.386718 -0.445312,-0.503906 -0.726562,-0.503906 -0.351563,0 -0.632813,0.222656 -0.785157,0.492188 -0.117187,-0.292969 -0.445312,-0.492188 -0.832031,-0.492188 -0.785156,0 -1.230469,0.855469 -1.230469,1.066406 0,0.08203 0.105469,0.08203 0.117188,0.08203 0.09375,0 0.105469,-0.02344 0.140625,-0.117188 0.175781,-0.539062 0.609375,-0.84375 0.949219,-0.84375 0.234375,0 0.421875,0.128906 0.421875,0.46875 0,0.128906 -0.08203,0.480469 -0.152344,0.714844 z m 0,0"
         style="fill:#008000;fill-opacity:1;fill-rule:nonzero;stroke:none" />
    </g>
    <g
       id="g46"
       aria-label="y=1&#10;x"
       transform="matrix(1.3333333,0,0,1.3333333,304.67467,304.38267)"
       clip-path="url(#clipPath49)">
      <path
         id="path47"
         d="m 4.8406797,-3.7967656 c 0.046875,-0.140625 0.046875,-0.1523438 0.046875,-0.2226563 0,-0.1875 -0.140625,-0.2695312 -0.2929688,-0.2695312 -0.1054687,0 -0.2578125,0.058594 -0.3515625,0.1992187 -0.023437,0.058594 -0.09375,0.3632813 -0.140625,0.5390625 -0.070312,0.2578125 -0.140625,0.5273438 -0.1992187,0.796875 l -0.4453125,1.79296878 c -0.035156,0.15234375 -0.46875,0.85546875 -1.125,0.85546875 -0.5039063,0 -0.6210938,-0.4453125 -0.6210938,-0.80859375 0,-0.45703128 0.1757813,-1.07812498 0.515625,-1.95703128 0.1523438,-0.4101562 0.1992188,-0.515625 0.1992188,-0.7148437 0,-0.4453125 -0.328125,-0.8203125 -0.8203125,-0.8203125 -0.94921876,0 -1.31250001,1.453125 -1.31250001,1.5351562 0,0.1054688 0.09375,0.1054688 0.1171875,0.1054688 0.09375,0 0.10546875,-0.023437 0.15234375,-0.1875 0.26953125,-0.9375 0.66796876,-1.2304688 1.00781246,-1.2304688 0.082031,0 0.2578125,0 0.2578125,0.3164063 0,0.2460937 -0.1054687,0.515625 -0.1757812,0.703125 -0.3984375,1.0546875 -0.5742188,1.6171875 -0.5742188,2.0859375 0,0.89062498 0.6210938,1.18359373 1.21875,1.18359373 0.3867188,0 0.7265625,-0.1640625 0.9960938,-0.4453125 -0.1289063,0.515625 -0.2460938,1.0078125 -0.6445313,1.53515627 -0.2578125,0.3398437 -0.6328125,0.6328125 -1.0898437,0.6328125 -0.140625,0 -0.59765626,-0.035156 -0.76171876,-0.421875 0.1640625,0 0.29296876,0 0.43359376,-0.1171875 0.09375,-0.09375 0.1992187,-0.2226563 0.1992187,-0.41015627 0,-0.31640625 -0.2695312,-0.3515625 -0.375,-0.3515625 -0.22265621,0 -0.55078121,0.1640625 -0.55078121,0.64453127 0,0.5039062 0.43359375,0.8671875 1.05468751,0.8671875 1.0195312,0 2.0507812,-0.9023438 2.3320312,-2.02734377 z m 0,0"
         style="fill:#20b2aa;fill-opacity:1;fill-rule:nonzero;stroke:none" />
      <path
         id="path48"
         d="m 14.857281,-3.2577031 c 0.152344,0 0.339844,0 0.339844,-0.1992188 0,-0.1992187 -0.1875,-0.1992187 -0.328125,-0.1992187 H 8.9041563 c -0.140625,0 -0.328125,0 -0.328125,0.1992187 0,0.1992188 0.1875,0.1992188 0.3398437,0.1992188 z m 0.01172,1.9335937 c 0.140625,0 0.328125,0 0.328125,-0.1992187 0,-0.1992188 -0.1875,-0.1992188 -0.339844,-0.1992188 H 8.915875 c -0.1523437,0 -0.3398437,0 -0.3398437,0.1992188 0,0.1992187 0.1875,0.1992187 0.328125,0.1992187 z m 6.583008,-5.0507812 c 0,-0.234375 0,-0.2578125 -0.234375,-0.2578125 -0.609375,0.6328125 -1.488281,0.6328125 -1.804688,0.6328125 v 0.3164062 c 0.199219,0 0.785157,0 1.300782,-0.2578125 v 5.15625003 c 0,0.3515625 -0.03516,0.48046875 -0.925782,0.48046875 H 19.471539 V 1.09375e-4 c 0.351563,-0.035156245 1.207031,-0.035156245 1.605469,-0.035156245 0.398437,0 1.265625,0 1.617187,0.035156245 V -0.30457812 h -0.316406 c -0.902344,0 -0.925781,-0.1171875 -0.925781,-0.48046875 z m 0,0"
         style="fill:#20b2aa;fill-opacity:1;fill-rule:nonzero;stroke:none" />
      <path
         id="path49"
         d="m 25.240094,-4.3534062 c -0.07031,0.234375 -0.292969,0.609375 -0.65625,0.609375 -0.02344,0 -0.222657,0 -0.375,-0.09375 0.28125,-0.09375 0.304687,-0.3398438 0.304687,-0.3867188 0,-0.1523437 -0.117187,-0.2578125 -0.28125,-0.2578125 -0.1875,0 -0.386719,0.1640625 -0.386719,0.4335938 0,0.3398437 0.386719,0.5039062 0.726563,0.5039062 0.316406,0 0.609375,-0.1992187 0.785156,-0.4921875 0.164063,0.3632813 0.550781,0.4921875 0.820313,0.4921875 0.808593,0 1.230468,-0.8671875 1.230468,-1.0664062 0,-0.09375 -0.09375,-0.09375 -0.105468,-0.09375 -0.105469,0 -0.105469,0.035156 -0.140625,0.1171875 -0.140625,0.4804687 -0.5625,0.84375 -0.949219,0.84375 -0.28125,0 -0.421875,-0.1875 -0.421875,-0.4453125 0,-0.1875 0.164062,-0.8203125 0.363281,-1.59375 0.128906,-0.5390625 0.445313,-0.7148438 0.679688,-0.7148438 0.01172,0 0.222656,0 0.375,0.1054688 -0.222657,0.058594 -0.304688,0.2578125 -0.304688,0.375 0,0.1523437 0.117188,0.2578125 0.28125,0.2578125 0.152344,0 0.386719,-0.1289063 0.386719,-0.421875 0,-0.3867188 -0.445313,-0.5039063 -0.726563,-0.5039063 -0.351562,0 -0.632812,0.2226563 -0.785156,0.4921875 -0.117187,-0.2929687 -0.445312,-0.4921875 -0.832031,-0.4921875 -0.785156,0 -1.230469,0.8554688 -1.230469,1.0664063 0,0.082031 0.105469,0.082031 0.117188,0.082031 0.09375,0 0.105468,-0.023437 0.140625,-0.1171875 0.175781,-0.5390625 0.609375,-0.84375 0.949218,-0.84375 0.234375,0 0.421875,0.1289063 0.421875,0.46875 0,0.1289063 -0.08203,0.4804688 -0.152343,0.7148438 z m 0,0"
         style="fill:#20b2aa;fill-opacity:1;fill-rule:nonzero;stroke:none" />
    </g>
  </g>
</svg>
