<?xml version="1.0" encoding="UTF-8" standalone="no"?>
<!-- Created with Inkscape (http://www.inkscape.org/) -->

<svg
   version="1.1"
   id="svg1"
   width="211.82422"
   height="193.69594"
   viewBox="0 0 211.82422 193.69594"
   sodipodi:docname="1.5-ejemplo-exponenciales.svg"
   inkscape:version="1.4.2 (f4327f4, 2025-05-13)"
   xmlns:inkscape="http://www.inkscape.org/namespaces/inkscape"
   xmlns:sodipodi="http://sodipodi.sourceforge.net/DTD/sodipodi-0.dtd"
   xmlns="http://www.w3.org/2000/svg"
   xmlns:svg="http://www.w3.org/2000/svg">
  <defs
     id="defs1" />
  <sodipodi:namedview
     id="namedview1"
     pagecolor="#ffffff"
     bordercolor="#000000"
     borderopacity="0.25"
     inkscape:showpageshadow="2"
     inkscape:pageopacity="0.0"
     inkscape:pagecheckerboard="0"
     inkscape:deskcolor="#d1d1d1"
     inkscape:zoom="2.2241536"
     inkscape:cx="106.33258"
     inkscape:cy="110.37907"
     inkscape:window-width="1920"
     inkscape:window-height="1009"
     inkscape:window-x="-8"
     inkscape:window-y="-8"
     inkscape:window-maximized="1"
     inkscape:current-layer="g1">
    <inkscape:page
       x="0"
       y="0"
       inkscape:label="18"
       id="page1"
       width="211.82422"
       height="193.69594"
       margin="0"
       bleed="0" />
  </sodipodi:namedview>
  <g
     id="g1"
     inkscape:groupmode="layer"
     inkscape:label="18"
     transform="translate(-135.85156,-71.230468)">
    <path
       id="path2"
       d="M -56.69362,0 H 70.40874"
       style="fill:none;stroke:#000000;stroke-width:0.3985;stroke-linecap:butt;stroke-linejoin:miter;stroke-miterlimit:10;stroke-dasharray:none;stroke-opacity:1"
       transform="matrix(1.3333333,0,0,-1.3333333,249.672,227.13067)" />
    <path
       id="path3"
       d="M -1.19551,1.59401 C -1.09587,0.99626 0,0.09961 0.29886,0 0,-0.09961 -1.09587,-0.99626 -1.19551,-1.59401"
       style="fill:none;stroke:#000000;stroke-width:0.31879;stroke-linecap:round;stroke-linejoin:round;stroke-miterlimit:10;stroke-dasharray:none;stroke-opacity:1"
       transform="matrix(1.3333333,0,0,-1.3333333,343.55032,227.13067)" />
    <path
       id="path4"
       d="m 3.6454609,-3.2921094 c 0.070312,-0.28125 0.3164063,-1.2890625 1.078125,-1.2890625 0.058594,0 0.3164063,0 0.5507813,0.140625 -0.3046875,0.058594 -0.5273438,0.328125 -0.5273438,0.5859375 0,0.1757813 0.1171875,0.3867188 0.4101563,0.3867188 0.2460937,0 0.5976562,-0.1992188 0.5976562,-0.6328125 0,-0.5625 -0.6445312,-0.7265625 -1.0195312,-0.7265625 -0.6328125,0 -1.0195313,0.5859375 -1.1484375,0.8320312 -0.2695313,-0.7148437 -0.8554688,-0.8320312 -1.171875,-0.8320312 -1.1367188,0 -1.75781251,1.4179687 -1.75781251,1.6875 0,0.1054687 0.10546875,0.1054687 0.12890625,0.1054687 0.0820313,0 0.1171875,-0.023437 0.140625,-0.1171875 0.37499996,-1.1601562 1.08984376,-1.4296875 1.46484376,-1.4296875 0.2109375,0 0.5859375,0.09375 0.5859375,0.7265625 0,0.3398438 -0.1875,1.078125 -0.5859375,2.6015625 -0.1757813,0.67968753 -0.5625,1.13671878 -1.0429688,1.13671878 -0.058594,0 -0.3164062,0 -0.53906246,-0.140625 0.26953126,-0.0585938 0.51562496,-0.29296875 0.51562496,-0.59765625 0,-0.29296873 -0.2460937,-0.37500003 -0.41015621,-0.37500003 -0.328125,0 -0.59765625,0.28125003 -0.59765625,0.63281253 0,0.50390625 0.55078125,0.71484375 1.03124996,0.71484375 0.7148438,0 1.1015625,-0.76171875 1.1367188,-0.83203125 0.1289062,0.41015625 0.5273437,0.83203125 1.1835937,0.83203125 1.125,0 1.7460938,-1.40624998 1.7460938,-1.67578128 0,-0.1054687 -0.1054688,-0.1054687 -0.1289063,-0.1054687 -0.1054687,0 -0.1289062,0.035156 -0.140625,0.1171875 -0.3632812,1.16015623 -1.1132812,1.42968748 -1.453125,1.42968748 -0.4335937,0 -0.609375,-0.3515625 -0.609375,-0.7265625 0,-0.23437498 0.070312,-0.48046878 0.1875,-0.96093748 z m 0,0"
       style="fill:#000000;fill-opacity:1;fill-rule:nonzero;stroke:none"
       aria-label="x"
       transform="matrix(1.3333333,0,0,1.3333333,340.00267,238.50667)" />
    <path
       id="path5"
       d="M 0,-28.3468 V 112.92896"
       style="fill:none;stroke:#000000;stroke-width:0.3985;stroke-linecap:butt;stroke-linejoin:miter;stroke-miterlimit:10;stroke-dasharray:none;stroke-opacity:1"
       transform="matrix(1.3333333,0,0,-1.3333333,249.672,227.13067)" />
    <path
       id="path6"
       d="M -1.19551,1.59401 C -1.09587,0.99626 0,0.09961 0.29886,0 0,-0.09961 -1.09587,-0.99626 -1.19551,-1.59401"
       style="fill:none;stroke:#000000;stroke-width:0.31879;stroke-linecap:round;stroke-linejoin:round;stroke-miterlimit:10;stroke-dasharray:none;stroke-opacity:1"
       transform="matrix(0,-1.3333333,-1.3333333,0,249.672,76.55872)" />
    <path
       id="path7"
       d="m 5.2967422,-4.1591797 c 0.046875,-0.1523437 0.046875,-0.1757812 0.046875,-0.2460937 0,-0.1992188 -0.1523438,-0.2929688 -0.3164063,-0.2929688 -0.1054687,0 -0.28125,0.058594 -0.375,0.2226563 -0.023437,0.058594 -0.1171875,0.3984375 -0.1523437,0.5976562 -0.082031,0.28125 -0.1523438,0.5742188 -0.2226563,0.8671875 l -0.4921875,1.96875 c -0.046875,0.16406251 -0.515625,0.92578126 -1.2304687,0.92578126 -0.5625,0 -0.6796875,-0.48046875 -0.6796875,-0.89062496 0,-0.4921875 0.1875,-1.171875 0.5625,-2.1328125 0.1757812,-0.4453125 0.2109375,-0.5742188 0.2109375,-0.7851563 0,-0.4921875 -0.3515625,-0.9023437 -0.890625,-0.9023437 -1.04296876,0 -1.44140626,1.5820312 -1.44140626,1.6875 0,0.1054687 0.10546875,0.1054687 0.12890625,0.1054687 0.10546875,0 0.1171875,-0.023437 0.17578125,-0.1992187 0.29296875,-1.0195313 0.72656246,-1.3476563 1.10156246,-1.3476563 0.09375,0 0.2695313,0 0.2695313,0.3515625 0,0.2695313 -0.1054688,0.5507813 -0.1757813,0.7617188 -0.4453125,1.1601562 -0.6328125,1.78125 -0.6328125,2.2851562 0,0.97265626 0.6796875,1.30078126 1.3242188,1.30078126 0.421875,0 0.796875,-0.1875 1.1015625,-0.4921875 -0.140625,0.57421875 -0.2695313,1.1015625 -0.703125,1.68750004 -0.2929688,0.3632812 -0.703125,0.6796875 -1.2070313,0.6796875 -0.1523437,0 -0.6445312,-0.023437 -0.83203121,-0.4570313 0.17578121,0 0.31640621,0 0.48046871,-0.1289062 0.1054688,-0.09375 0.2109375,-0.234375 0.2109375,-0.44531254 0,-0.33984375 -0.2929687,-0.38671875 -0.3984375,-0.38671875 -0.25781246,0 -0.60937496,0.17578125 -0.60937496,0.71484379 0,0.5390625 0.48046876,0.9492187 1.14843746,0.9492187 1.125,0 2.25,-0.9960937 2.5546875,-2.22656249 z m 0,0"
       style="fill:#000000;fill-opacity:1;fill-rule:nonzero;stroke:none"
       aria-label="y"
       transform="matrix(1.3333333,0,0,1.3333333,254.78533,77.666667)" />
    <path
       id="path8"
       d="M -56.69362,-14.17339 H 56.69362"
       style="fill:none;stroke:#808080;stroke-width:0.3985;stroke-linecap:butt;stroke-linejoin:miter;stroke-miterlimit:10;stroke-dasharray:2.98883, 2.98883;stroke-dashoffset:0;stroke-opacity:0.5"
       transform="matrix(1.3333333,0,0,-1.3333333,249.672,227.13067)" />
    <path
       id="path9"
       d="m -42.5202,0.70438 c 0,0 0.51706,0.02653 0.71563,0.03698 0.19858,0.01043 0.51705,0.02727 0.71564,0.03829 0.19858,0.011 0.51705,0.02946 0.71563,0.04107 0.19859,0.01162 0.51705,0.03061 0.71563,0.04261 0.19858,0.01201 0.51706,0.03112 0.71564,0.0439 0.19858,0.01278 0.51704,0.03489 0.71563,0.04823 0.19858,0.01335 0.51705,0.03406 0.71563,0.04802 0.19859,0.01393 0.51707,0.03758 0.71565,0.05255 0.19858,0.01495 0.51704,0.03981 0.71564,0.05536 0.19858,0.01553 0.51704,0.04034 0.71563,0.05666 0.19858,0.01632 0.51705,0.04368 0.71563,0.06098 0.19859,0.01731 0.51706,0.04572 0.71563,0.06382 0.19858,0.01808 0.51705,0.04751 0.71564,0.0666 0.19858,0.01907 0.51705,0.05086 0.71562,0.07094 0.1986,0.02006 0.51706,0.05271 0.71564,0.07375 0.19859,0.02102 0.51706,0.05564 0.71564,0.07785 0.19857,0.02221 0.51704,0.05879 0.71563,0.08218 0.19858,0.02341 0.51705,0.0619 0.71562,0.08652 0.1986,0.02459 0.51707,0.06506 0.71564,0.09081 0.19858,0.0258 0.51705,0.06783 0.71564,0.09495 0.19858,0.02713 0.51704,0.07208 0.71564,0.10058 0.19858,0.02851 0.51704,0.07479 0.71562,0.10487 0.19859,0.03011 0.51706,0.08036 0.71564,0.11204 0.19857,0.03169 0.51706,0.08311 0.71565,0.11636 0.19857,0.03325 0.51704,0.08826 0.71564,0.12328 0.19857,0.035 0.51704,0.09231 0.71562,0.1291 0.19859,0.03677 0.51706,0.09729 0.71564,0.13603 0.19857,0.03873 0.51704,0.10245 0.71563,0.14318 0.19858,0.04071 0.51704,0.10763 0.71562,0.1503 0.1986,0.04267 0.51706,0.11239 0.71564,0.15722 0.1986,0.04482 0.51706,0.11847 0.71564,0.16588 0.19858,0.04741 0.51704,0.12605 0.71564,0.17584 0.19857,0.04977 0.51704,0.13063 0.71562,0.18296 0.19859,0.05231 0.51706,0.13914 0.71564,0.19419 0.19857,0.05507 0.51704,0.14484 0.71564,0.20266 0.19857,0.05783 0.51704,0.15313 0.71563,0.21411 0.19858,0.06095 0.51704,0.16122 0.71562,0.22534 0.1986,0.06411 0.51706,0.16934 0.71564,0.23681 0.19858,0.0675 0.51706,0.17878 0.71565,0.2496 0.19858,0.07081 0.51705,0.18627 0.71564,0.26081 0.19858,0.07454 0.51704,0.19789 0.71562,0.27639 0.1986,0.07849 0.51706,0.20695 0.71564,0.28938 0.19858,0.08241 0.51704,0.218 0.71564,0.30472 0.19857,0.08671 0.51704,0.229 0.71562,0.32029 0.19859,0.09127 0.51706,0.24159 0.71563,0.33759 0.1986,0.09598 0.51707,0.25337 0.71564,0.35425 0.19858,0.10087 0.51705,0.26663 0.71564,0.37284 0.19858,0.10622 0.51704,0.28101 0.71562,0.39275 0.19859,0.11174 0.51706,0.2952 0.71564,0.41264 0.19858,0.11745 0.51704,0.31034 0.71563,0.43383 0.19858,0.12351 0.51705,0.32652 0.71564,0.45634 0.19858,0.12981 0.51705,0.34255 0.71562,0.47925 0.1986,0.1367 0.51706,0.36227 0.71564,0.50606 0.19858,0.1438 0.51705,0.37921 0.71564,0.5303 0.19858,0.15108 0.51706,0.3997 0.71565,0.55861 0.19858,0.15894 0.51705,0.41955 0.71562,0.58675 0.19859,0.16719 0.51706,0.44226 0.71564,0.61831 0.19858,0.17604 0.51705,0.46546 0.71564,0.65055 0.19858,0.18507 0.51704,0.48931 0.71562,0.68341 0.19859,0.19407 0.51703,0.51127 0.71561,0.7154 0.19859,0.20413 0.51706,0.54068 0.71563,0.75586 0.19858,0.21518 0.51705,0.5687 0.71564,0.79502 0.19858,0.2263 0.51704,0.59802 0.71562,0.83609 0.19859,0.23808 0.51706,0.62938 0.71564,0.87977 0.19858,0.25042 0.51705,0.66162 0.71564,0.92499 0.19857,0.26337 0.51704,0.69618 0.71563,0.9732 0.19858,0.27703 0.51705,0.73206 0.71563,1.0234 0.19859,0.29133 0.51705,0.76997 0.71563,1.07637 0.19858,0.3064 0.51705,0.80969 0.71564,1.13196 0.19858,0.32227 0.51704,0.85174 0.71562,1.19077 0.1986,0.339 0.51708,0.8961 0.71566,1.25263 0.19859,0.35654 0.51705,0.94211 0.71563,1.31708 0.19858,0.37495 0.51705,0.99099 0.71564,1.38542 0.19858,0.3944 0.51704,1.04228 0.71562,1.45722 0.19859,0.41493 0.51706,1.09692 0.71564,1.53334 0.19859,0.43641 0.51706,1.15318 0.71564,1.61207 0.19857,0.45889 0.51704,1.21271 0.71563,1.69533 0.19858,0.48264 0.51705,1.27545 0.71562,1.78314 0.1986,0.50767 0.51706,1.34177 0.71564,1.87592 0.19858,0.53415 0.51704,1.41218 0.71564,1.97389 0.19858,0.56169 0.51704,1.48379 0.71564,2.07445 0.19857,0.59065 0.51704,1.56129 0.71562,2.18258 0.19859,0.6213 0.51706,1.64168 0.71564,2.29526 0.19857,0.65358 0.51704,1.72787 0.71563,2.4153 0.19858,0.68742 0.51705,1.81633 0.71562,2.53922 0.1986,0.7229 0.51708,1.91064 0.71565,2.67091 0.1986,0.76028 0.51707,2.00877 0.71564,2.8087 0.19858,0.79993 0.51705,2.11533 0.71564,2.9566 0.19858,0.84127 0.51705,2.22202 0.71562,3.10672 0.1986,0.88468 0.51706,2.33892 0.71564,3.26955 0.19859,0.93062 0.51706,2.45911 0.71564,3.43781 0.19858,0.97869 0.51704,2.58654 0.71564,3.61601 0.19858,1.02948 0.51704,2.72088 0.71562,3.80375 0.19859,1.08284 0.51706,2.86182 0.71563,4.00075 0.19858,1.13895 0.51705,3.01 0.71564,4.20795 0.19858,1.19797 0.51705,3.16635 0.71564,4.42616 0.19858,1.25981 0.51705,3.32854 0.71562,4.65367 0.19859,1.32514 0.51706,3.50325 0.71564,4.89699 0.19858,1.39372 0.71564,5.14806 0.71564,5.14806"
       style="fill:none;stroke:#eb0a36;stroke-width:0.79701;stroke-linecap:butt;stroke-linejoin:miter;stroke-miterlimit:10;stroke-dasharray:none;stroke-opacity:1"
       transform="matrix(1.3333333,0,0,-1.3333333,249.672,227.13067)" />
    <path
       id="path10"
       d="m -28.3468,104.72652 c 0,0 0.51706,-3.76291 0.71565,-5.15889 0.19858,-1.39598 0.51705,-3.57533 0.71562,-4.90238 0.1986,-1.32705 0.51706,-3.40065 0.71564,-4.66211 0.19859,-1.26146 0.51706,-3.23024 0.71564,-4.42961 0.19857,-1.19938 0.51704,-3.07417 0.71563,-4.21466 0.19858,-1.1405 0.51705,-2.92088 0.71562,-4.00529 0.1986,-1.08443 0.51707,-2.77948 0.71564,-3.81046 0.19858,-1.03097 0.51705,-2.64009 0.71564,-3.62012 0.19858,-0.98002 0.51704,-2.5114 0.71564,-3.44322 0.19858,-0.93184 0.51704,-2.38692 0.71562,-3.27281 0.19859,-0.88588 0.51706,-2.26976 0.71564,-3.11209 0.19857,-0.84236 0.51704,-2.1581 0.71563,-2.95902 0.19858,-0.8009 0.51705,-2.05194 0.71563,-2.81343 0.19859,-0.76147 0.51706,-1.95085 0.71563,-2.67482 0.1986,-0.72396 0.51706,-1.85478 0.71564,-2.54311 0.19858,-0.68832 0.51706,-1.7634 0.71565,-2.41789 0.19858,-0.65446 0.51704,-1.67698 0.71562,-2.29916 0.1986,-0.62215 0.51706,-1.59352 0.71564,-2.18495 0.1986,-0.59145 0.51706,-1.51524 0.71564,-2.0777 0.19858,-0.56244 0.51704,-1.44127 0.71564,-1.97606 0.19857,-0.53477 0.51704,-1.36996 0.71562,-1.87829 0.19859,-0.5083 0.51706,-1.30197 0.71564,-1.78528 0.19857,-0.48332 0.51704,-1.23851 0.71564,-1.69815 0.19857,-0.45964 0.51704,-1.17768 0.71563,-1.61467 0.19858,-0.43698 0.51704,-1.11943 0.71562,-1.53487 0.1986,-0.41543 0.51706,-1.06439 0.71564,-1.45938 0.19858,-0.39497 0.51704,-1.01189 0.71564,-1.38736 0.19857,-0.37547 0.51704,-0.96179 0.71562,-1.31882 0.19859,-0.35701 0.51706,-0.91492 0.71564,-1.25436 0.19859,-0.33943 0.51706,-0.86934 0.71563,-1.19206 0.19858,-0.32273 0.51705,-0.82703 0.71564,-1.1339 0.19858,-0.30688 0.51706,-0.78612 0.71564,-1.07788 0.19859,-0.29176 0.51706,-0.74752 0.71563,-1.0249 0.1986,-0.27739 0.51707,-0.71057 0.71564,-0.97429 0.19858,-0.26373 0.51705,-0.6758 0.71564,-0.9265 0.19858,-0.2507 0.51704,-0.64206 0.71562,-0.88043 0.19859,-0.23837 0.51706,-0.61095 0.71564,-0.83762 0.19858,-0.22667 0.51704,-0.58064 0.71563,-0.79608 0.19858,-0.21544 0.51705,-0.55224 0.71564,-0.75671 0.19858,-0.20447 0.51702,-0.52246 0.71559,-0.71695 0.1986,-0.19446 0.51707,-0.49942 0.71564,-0.68471 0.19858,-0.18529 0.51705,-0.4747 0.71564,-0.65076 C 1.90839,12.38873 2.22685,12.11406 2.42543,11.94669 2.62402,11.77931 2.94249,11.51756 3.14107,11.35844 3.33966,11.19931 3.65813,10.95128 3.8567,10.7998 4.05528,10.64835 4.37375,10.41068 4.57234,10.26671 4.77092,10.12273 5.0894,9.89886 5.28798,9.76216 5.48657,9.62544 5.80504,9.4116 6.00362,9.28137 6.20221,9.15115 6.52068,8.94725 6.71925,8.82355 6.91783,8.69983 7.2363,8.50734 7.43489,8.38971 7.63347,8.2721 7.95193,8.08769 8.15051,7.97577 8.3491,7.86385 8.66757,7.68924 8.86615,7.58302 9.06473,7.4768 9.3832,7.31126 9.58179,7.21019 9.78036,7.10909 10.09883,6.95058 10.29742,6.85442 10.496,6.75824 10.81447,6.6083 11.01305,6.51703 11.21164,6.42575 11.5301,6.28328 11.72868,6.19653 11.92726,6.10979 12.24573,5.97441 12.44432,5.89182 12.6429,5.8092 12.96136,5.67963 13.15994,5.60114 13.35854,5.52264 13.677,5.40057 13.87558,5.32603 14.07417,5.2515 14.39264,5.13492 14.59122,5.06392 14.7898,4.99294 15.10826,4.88184 15.30685,4.81435 15.50543,4.74687 15.8239,4.64188 16.02248,4.57753 16.22107,4.5132 16.53955,4.41185 16.73813,4.35066 16.9367,4.28949 17.25519,4.19438 17.45377,4.13655 17.65234,4.07875 17.97081,3.98898 18.1694,3.93391 18.36798,3.87886 18.68645,3.79222 18.88503,3.73972 19.08362,3.6872 19.40208,3.60521 19.60066,3.55545 19.79924,3.5057 20.1177,3.42854 20.3163,3.38113 20.51488,3.33372 20.83334,3.25899 21.03194,3.21373 21.23051,3.16849 21.54898,3.09789 21.74756,3.055 21.94615,3.01213 22.26462,2.9454 22.4632,2.9047 22.66177,2.86397 22.98024,2.80026 23.17883,2.76152 23.37741,2.7228 23.69588,2.66226 23.89445,2.62549 24.09305,2.5887 24.41151,2.5314 24.61009,2.49638 24.80869,2.46136 25.12715,2.40634 25.32573,2.3731 25.5243,2.33984 25.84277,2.28822 26.04137,2.25676 26.23994,2.22528 26.55841,2.17633 26.75699,2.14624 26.95558,2.11615 27.27406,2.06856 27.47264,2.03984 27.67122,2.01112 27.98969,1.96638 28.18828,1.93927 28.38686,1.91214 28.70532,1.87009 28.90392,1.84433 29.1025,1.81854 29.42096,1.77809 29.61954,1.7535 29.81813,1.72888 30.1366,1.6904 30.33517,1.66698 30.53375,1.64359 30.85222,1.60701 31.05081,1.5848 31.24939,1.5626 31.56786,1.52818 31.76645,1.50694 31.96503,1.48572 32.2835,1.45177 32.48207,1.43169 32.68066,1.41162 32.99913,1.38133 33.19771,1.36226 33.39629,1.34319 33.71475,1.31244 33.91335,1.29414 34.11192,1.27583 34.43039,1.24744 34.62897,1.23033 34.82756,1.21323 35.14603,1.1872 35.3446,1.17087 35.5432,1.15456 35.86166,1.1284 36.06024,1.11269 36.25882,1.09697 36.57729,1.07248 36.77588,1.05753 36.97446,1.04259 37.29292,1.01915 37.4915,1.00497 37.6901,0.99083 38.00856,0.96884 38.20714,0.95546 38.40572,0.9421 38.7242,0.92113 38.92279,0.90852 39.12137,0.89592 39.43983,0.87663 39.63843,0.86464 39.837,0.85263 40.15547,0.83362 40.35405,0.82202 40.55264,0.81041 40.87111,0.79195 41.06969,0.78093 41.26826,0.76993 41.58673,0.75305 41.78532,0.74266 41.9839,0.73224 42.50096,0.70589 42.50096,0.70589"
       style="fill:none;stroke:#ec008c;stroke-width:0.79701;stroke-linecap:butt;stroke-linejoin:miter;stroke-miterlimit:10;stroke-dasharray:none;stroke-opacity:1"
       transform="matrix(1.3333333,0,0,-1.3333333,249.672,227.13067)" />
    <path
       id="path11"
       d="m -39.68556,102.36249 c 0,0 0.59986,-4.84331 0.83026,-6.63103 0.23038,-1.78772 0.59987,-4.56776 0.83025,-6.25365 0.23039,-1.68586 0.59986,-4.30702 0.83025,-5.89698 0.2304,-1.58999 0.59988,-4.06289 0.83027,-5.56246 0.23037,-1.49956 0.59987,-3.83125 0.83024,-5.24537 0.23039,-1.41414 0.59987,-3.613 0.83026,-4.94674 0.2304,-1.33374 0.59987,-3.40814 0.83027,-4.666 0.23037,-1.25786 0.59986,-3.21357 0.83024,-4.39978 0.23039,-1.1862 0.59987,-3.0307 0.83026,-4.14953 0.23038,-1.11884 0.59987,-2.85929 0.83026,-3.91428 0.2304,-1.05496 0.59987,-2.6944 0.83027,-3.68932 0.23039,-0.99493 0.59986,-2.54293 0.83026,-3.48149 0.23037,-0.93856 0.59987,-2.39782 0.83026,-3.28297 0.23038,-0.88515 0.59987,-2.26177 0.83024,-3.09654 0.2304,-0.8348 0.59987,-2.13297 0.83027,-2.92006 0.23037,-0.78711 0.59986,-2.01056 0.83026,-2.7529 0.23037,-0.74233 0.59987,-1.89717 0.83024,-2.5974 0.2304,-0.70019 0.59987,-1.78889 0.83026,-2.44923 0.23038,-0.66033 0.59987,-1.6872 0.83026,-2.30997 0.23038,-0.62279 0.59988,-1.59134 0.83025,-2.17869 0.23039,-0.58736 0.59987,-1.50062 0.83026,-2.05456 0.23038,-0.55397 0.59986,-1.41561 0.83025,-1.938 0.23039,-0.52238 0.59988,-1.33435 0.83026,-1.82702 0.23041,-0.49268 0.59987,-1.25924 0.83026,-1.72388 0.23038,-0.46466 0.59987,-1.18683 0.83025,-1.62505 0.23039,-0.43823 0.59988,-1.12007 0.83026,-1.53334 0.23039,-0.41328 0.59987,-1.05555 0.83026,-1.44533 0.23038,-0.3898 0.59987,-0.99642 0.83024,-1.36401 0.23039,-0.36758 0.59989,-0.93867 0.83027,-1.28529 0.23039,-0.34661 0.59986,-0.88587 0.83026,-1.21285 0.23037,-0.32697 0.59986,-0.83547 0.83024,-1.14383 0.2304,-0.30839 0.59989,-0.78796 0.83026,-1.07875 0.2304,-0.2908 0.59987,-0.74289 0.83026,-1.01712 0.23038,-0.27423 0.59987,-0.7007 0.83025,-0.95937 0.23039,-0.25865 0.59989,-0.66088 0.83026,-0.90487 0.23041,-0.24399 0.59987,-0.62358 0.83028,-0.85358 0.23038,-0.23002 0.59987,-0.58735 0.83025,-0.80429 0.23039,-0.21695 0.59986,-0.5547 0.83026,-0.75934 0.23039,-0.20463 0.59987,-0.52266 0.83026,-0.71562 0.23038,-0.19298 0.59987,-0.49321 0.83024,-0.6752 0.2304,-0.18199 0.59987,-0.46487 0.83027,-0.63647 0.23039,-0.17162 0.59986,-0.43847 0.83026,-0.60038 0.23037,-0.16191 0.59987,-0.41392 0.83024,-0.56662 0.23039,-0.15271 0.59987,-0.39003 0.83026,-0.53396 0.2304,-0.14394 0.59987,-0.36769 0.83027,-0.50348 0.23037,-0.13577 0.59986,-0.34708 0.83024,-0.47515 0.23039,-0.12806 0.59987,-0.32736 0.83026,-0.44789 C -0.4331,-6.86769 -0.06363,-7.05424 0.16673,-7.168 0.39711,-7.28175 0.7666,-7.45955 0.99698,-7.56702 1.22737,-7.6745 1.59685,-7.84138 1.82724,-7.94267 2.05763,-8.04398 2.42711,-8.20155 2.6575,-8.29713 2.88788,-8.39275 3.25737,-8.54152 3.48775,-8.6317 3.71814,-8.7219 4.08762,-8.86227 4.31801,-8.94725 4.5484,-9.03223 4.91788,-9.16405 5.14827,-9.24419 5.37865,-9.32434 5.74814,-9.44925 5.97852,-9.5249 c 0.23039,-0.07564 0.59986,-0.19321 0.83026,-0.2645 0.23039,-0.07129 0.59987,-0.18211 0.83026,-0.24936 0.23038,-0.06723 0.59986,-0.17187 0.83024,-0.2353 0.2304,-0.06344 0.59987,-0.1621 0.83027,-0.2219 0.2304,-0.05978 0.59986,-0.15277 0.83027,-0.20914 0.23038,-0.05633 0.59987,-0.14379 0.83025,-0.197 0.23039,-0.05319 0.59987,-0.13617 0.83026,-0.18643 0.23037,-0.05025 0.59987,-0.12851 0.83026,-0.17583 0.23038,-0.04732 0.59987,-0.12067 0.83025,-0.16522 0.23039,-0.04456 0.59986,-0.11383 0.83026,-0.15593 0.23037,-0.0421 0.59987,-0.10779 0.83026,-0.14751 0.23038,-0.03972 0.59987,-0.10136 0.83024,-0.13884 0.2304,-0.03747 0.59987,-0.09594 0.83027,-0.13127 0.23037,-0.03531 0.59986,-0.09006 0.83026,-0.12327 0.23037,-0.0332 0.59987,-0.08478 0.83024,-0.11614 0.2304,-0.03134 0.59986,-0.08017 0.83026,-0.10986 0.23038,-0.02971 0.59987,-0.07633 0.83027,-0.10425 0.23039,-0.02794 0.59986,-0.07085 0.83024,-0.09711 0.23039,-0.02626 0.59987,-0.06724 0.83026,-0.09211 0.23038,-0.02488 0.59987,-0.06365 0.83025,-0.08716 0.23039,-0.02353 0.59988,-0.06026 0.83026,-0.08241 0.23039,-0.02213 0.59987,-0.05636 0.83026,-0.0772 0.23038,-0.02086 0.59987,-0.05345 0.83025,-0.0731 0.23039,-0.01964 0.59988,-0.05008 0.83026,-0.06856 0.23039,-0.01848 0.59987,-0.04724 0.83026,-0.06465 0.23038,-0.01745 0.59987,-0.04451 0.83025,-0.06099 0.23039,-0.01651 0.59988,-0.04247 0.83026,-0.05797 0.23039,-0.0155 0.59987,-0.03919 0.83026,-0.05385 0.23039,-0.01466 0.59987,-0.03802 0.83026,-0.05191 0.23039,-0.01388 0.59988,-0.03528 0.83026,-0.04823 0.23039,-0.01296 0.59987,-0.03292 0.83026,-0.04518 0.23038,-0.01227 0.59987,-0.03167 0.83025,-0.04328 0.23039,-0.01159 0.59986,-0.02951 0.83026,-0.04044 0.23039,-0.0109 0.59987,-0.02795 0.83026,-0.03828 0.23038,-0.01032 0.59987,-0.02635 0.83024,-0.03612 0.2304,-0.0097 0.59987,-0.02493 0.83027,-0.03416 0.23039,-0.0092 0.59987,-0.02382 0.83026,-0.03244 0.23037,-0.0086 0.59987,-0.02168 0.83024,-0.02985 0.2304,-0.0082 0.59987,-0.02121 0.83027,-0.02897 0.23039,-0.0078 0.59985,-0.01975 0.83026,-0.02703 0.23037,-0.0073 0.59987,-0.01875 0.83024,-0.02552 0.23041,-0.0068 0.59987,-0.01699 0.83026,-0.02337 0.2304,-0.0064 0.59987,-0.01661 0.83027,-0.0227 0.23037,-0.0061 0.83024,-0.02121 0.83024,-0.02121"
       style="fill:none;stroke:#008080;stroke-width:0.79701;stroke-linecap:butt;stroke-linejoin:miter;stroke-miterlimit:10;stroke-dasharray:none;stroke-opacity:1"
       transform="matrix(1.3333333,0,0,-1.3333333,249.672,227.13067)" />
    <g
       id="g11"
       aria-label="y=e&#10;x"
       transform="matrix(1.3333333,0,0,1.3333333,306.476,154.66)">
      <path
         id="path12"
         d="m 4.8402656,-3.7967578 c 0.046875,-0.140625 0.046875,-0.1523438 0.046875,-0.2226563 0,-0.1875 -0.140625,-0.2695312 -0.2929687,-0.2695312 -0.1054688,0 -0.2578125,0.058594 -0.3515625,0.1992187 -0.023437,0.058594 -0.09375,0.3632813 -0.140625,0.5390625 -0.070312,0.2578125 -0.140625,0.5273438 -0.1992188,0.796875 l -0.4453125,1.79296879 c -0.035156,0.15234375 -0.46875,0.85546875 -1.125,0.85546875 -0.5039062,0 -0.6210937,-0.4453125 -0.6210937,-0.80859375 0,-0.45703129 0.1757812,-1.07812499 0.515625,-1.95703129 0.1523437,-0.4101562 0.1992187,-0.515625 0.1992187,-0.7148437 0,-0.4453125 -0.328125,-0.8203125 -0.8203125,-0.8203125 -0.94921872,0 -1.31249997,1.453125 -1.31249997,1.5351562 0,0.1054688 0.09375,0.1054688 0.1171875,0.1054688 0.09375,0 0.10546875,-0.023437 0.15234375,-0.1875 0.26953125,-0.9375 0.66796872,-1.2304688 1.00781252,-1.2304688 0.082031,0 0.2578125,0 0.2578125,0.3164063 0,0.2460937 -0.1054688,0.515625 -0.1757813,0.703125 -0.3984375,1.0546875 -0.5742187,1.6171875 -0.5742187,2.0859375 0,0.89062499 0.6210937,1.18359374 1.21875,1.18359374 0.3867187,0 0.7265625,-0.1640625 0.9960937,-0.4453125 -0.1289062,0.515625 -0.2460937,1.0078125 -0.6445312,1.53515626 -0.2578125,0.3398437 -0.6328125,0.6328125 -1.0898438,0.6328125 -0.140625,0 -0.59765622,-0.035156 -0.76171872,-0.421875 0.1640625,0 0.29296872,0 0.43359372,-0.1171875 0.09375,-0.09375 0.1992188,-0.2226563 0.1992188,-0.41015626 0,-0.31640625 -0.2695313,-0.3515625 -0.375,-0.3515625 -0.22265627,0 -0.55078127,0.1640625 -0.55078127,0.64453126 0,0.5039062 0.43359375,0.8671875 1.05468747,0.8671875 1.0195313,0 2.0507813,-0.9023438 2.3320313,-2.02734376 z m 0,0"
         style="fill:#eb0a36;fill-opacity:1;fill-rule:nonzero;stroke:none" />
      <path
         id="path13"
         d="m 14.856867,-3.2576953 c 0.152344,0 0.339844,0 0.339844,-0.1992188 0,-0.1992187 -0.1875,-0.1992187 -0.328125,-0.1992187 H 8.9037422 c -0.140625,0 -0.328125,0 -0.328125,0.1992187 0,0.1992188 0.1875,0.1992188 0.3398437,0.1992188 z m 0.01172,1.9335937 c 0.140625,0 0.328125,0 0.328125,-0.1992187 0,-0.1992188 -0.1875,-0.1992188 -0.339844,-0.1992188 H 8.9154609 c -0.1523437,0 -0.3398437,0 -0.3398437,0.1992188 0,0.1992187 0.1875,0.1992187 0.328125,0.1992187 z m 0,0"
         style="fill:#eb0a36;fill-opacity:1;fill-rule:nonzero;stroke:none" />
      <path
         id="path14"
         d="m 20.385187,-2.2967578 c 0.292969,0 1.03125,-0.023437 1.523438,-0.234375 0.703125,-0.2929688 0.75,-0.890625 0.75,-1.0195313 0,-0.4453125 -0.386719,-0.8554687 -1.066406,-0.8554687 -1.113282,0 -2.613282,0.9726562 -2.613282,2.7070312 0,1.01953129 0.585938,1.80468754 1.570313,1.80468754 1.417969,0 2.261719,-1.0546875 2.261719,-1.17187504 0,-0.058594 -0.07031,-0.1289062 -0.128907,-0.1289062 -0.04687,0 -0.07031,0.023437 -0.128906,0.09375 -0.785156,0.99609374 -1.875,0.99609374 -1.992187,0.99609374 -0.773438,0 -0.867188,-0.84375 -0.867188,-1.16015624 0,-0.1171875 0.01172,-0.4335938 0.164063,-1.03125 z m -0.46875,-0.2226563 c 0.386719,-1.5117187 1.417969,-1.6640625 1.675782,-1.6640625 0.46875,0 0.738281,0.2929688 0.738281,0.6328125 0,1.03125 -1.59375,1.03125 -2.003906,1.03125 z m 0,0"
         style="fill:#eb0a36;fill-opacity:1;fill-rule:nonzero;stroke:none" />
      <path
         id="path15"
         d="m 24.899836,-4.3533984 c -0.07031,0.234375 -0.292969,0.609375 -0.65625,0.609375 -0.02344,0 -0.222656,0 -0.375,-0.09375 0.28125,-0.09375 0.304687,-0.3398438 0.304687,-0.3867188 0,-0.1523437 -0.117187,-0.2578125 -0.28125,-0.2578125 -0.1875,0 -0.386718,0.1640625 -0.386718,0.4335938 0,0.3398437 0.386718,0.5039062 0.726562,0.5039062 0.316406,0 0.609375,-0.1992187 0.785156,-0.4921875 0.164063,0.3632813 0.550782,0.4921875 0.820313,0.4921875 0.808594,0 1.230469,-0.8671875 1.230469,-1.0664062 0,-0.09375 -0.09375,-0.09375 -0.105469,-0.09375 -0.105469,0 -0.105469,0.035156 -0.140625,0.1171875 -0.140625,0.4804687 -0.5625,0.84375 -0.949219,0.84375 -0.28125,0 -0.421875,-0.1875 -0.421875,-0.4453125 0,-0.1875 0.164063,-0.8203125 0.363281,-1.59375 0.128907,-0.5390625 0.445313,-0.7148438 0.679688,-0.7148438 0.01172,0 0.222656,0 0.375,0.1054688 -0.222656,0.058594 -0.304688,0.2578125 -0.304688,0.375 0,0.1523437 0.117188,0.2578125 0.28125,0.2578125 0.152344,0 0.386719,-0.1289063 0.386719,-0.421875 0,-0.3867188 -0.445312,-0.5039063 -0.726562,-0.5039063 -0.351563,0 -0.632813,0.2226563 -0.785157,0.4921875 -0.117187,-0.2929687 -0.445312,-0.4921875 -0.832031,-0.4921875 -0.785156,0 -1.230469,0.8554688 -1.230469,1.0664063 0,0.082031 0.105469,0.082031 0.117188,0.082031 0.09375,0 0.105469,-0.023437 0.140625,-0.1171875 0.175781,-0.5390625 0.609375,-0.84375 0.949219,-0.84375 0.234375,0 0.421875,0.1289063 0.421875,0.46875 0,0.1289063 -0.08203,0.4804688 -0.152344,0.7148438 z m 0,0"
         style="fill:#eb0a36;fill-opacity:1;fill-rule:nonzero;stroke:none" />
    </g>
    <g
       id="g15"
       aria-label="y=e&#10;−x"
       transform="matrix(1.3333333,0,0,1.3333333,283.42667,212.22933)">
      <path
         id="path16"
         d="m 4.8391797,-3.7960234 c 0.046875,-0.140625 0.046875,-0.1523438 0.046875,-0.2226563 0,-0.1875 -0.140625,-0.2695312 -0.2929688,-0.2695312 -0.1054687,0 -0.2578125,0.058594 -0.3515625,0.1992187 -0.023437,0.058594 -0.09375,0.3632813 -0.140625,0.5390625 -0.070312,0.2578125 -0.140625,0.5273438 -0.1992187,0.796875 l -0.4453125,1.79296876 c -0.035156,0.15234375 -0.46875,0.85546875 -1.125,0.85546875 -0.5039063,0 -0.6210938,-0.4453125 -0.6210938,-0.80859375 0,-0.45703126 0.1757813,-1.07812496 0.515625,-1.95703126 0.1523438,-0.4101562 0.1992188,-0.515625 0.1992188,-0.7148437 0,-0.4453125 -0.328125,-0.8203125 -0.8203125,-0.8203125 -0.94921876,0 -1.31250001,1.453125 -1.31250001,1.5351562 0,0.1054688 0.09375,0.1054688 0.1171875,0.1054688 0.09375,0 0.10546875,-0.023437 0.15234375,-0.1875 0.26953125,-0.9375 0.66796876,-1.2304688 1.00781246,-1.2304688 0.082031,0 0.2578125,0 0.2578125,0.3164063 0,0.2460937 -0.1054687,0.515625 -0.1757812,0.703125 -0.3984375,1.0546875 -0.5742188,1.6171875 -0.5742188,2.0859375 0,0.89062496 0.6210938,1.18359371 1.21875,1.18359371 0.3867188,0 0.7265625,-0.1640625 0.9960938,-0.4453125 -0.1289063,0.515625 -0.2460938,1.0078125 -0.6445313,1.53515629 -0.2578125,0.3398437 -0.6328125,0.6328125 -1.0898437,0.6328125 -0.140625,0 -0.59765626,-0.035156 -0.76171876,-0.421875 0.1640625,0 0.29296876,0 0.43359376,-0.1171875 0.09375,-0.09375 0.1992187,-0.2226563 0.1992187,-0.41015629 0,-0.31640625 -0.2695312,-0.3515625 -0.375,-0.3515625 -0.22265621,0 -0.55078121,0.1640625 -0.55078121,0.64453129 0,0.5039062 0.43359375,0.8671875 1.05468751,0.8671875 1.0195312,0 2.0507812,-0.9023438 2.3320312,-2.02734379 z m 0,0"
         style="fill:#ec008c;fill-opacity:1;fill-rule:nonzero;stroke:none" />
      <path
         id="path17"
         d="m 14.855781,-3.2569609 c 0.152344,0 0.339844,0 0.339844,-0.1992188 0,-0.1992187 -0.1875,-0.1992187 -0.328125,-0.1992187 H 8.9026563 c -0.140625,0 -0.328125,0 -0.328125,0.1992187 0,0.1992188 0.1875,0.1992188 0.3398437,0.1992188 z m 0.01172,1.9335937 c 0.140625,0 0.328125,0 0.328125,-0.1992187 0,-0.1992188 -0.1875,-0.1992188 -0.339844,-0.1992188 H 8.914375 c -0.1523437,0 -0.3398437,0 -0.3398437,0.1992188 0,0.1992187 0.1875,0.1992187 0.328125,0.1992187 z m 0,0"
         style="fill:#ec008c;fill-opacity:1;fill-rule:nonzero;stroke:none" />
      <path
         id="path18"
         d="m 20.384102,-2.2960234 c 0.292968,0 1.03125,-0.023437 1.523437,-0.234375 0.703125,-0.2929688 0.75,-0.890625 0.75,-1.0195313 0,-0.4453125 -0.386719,-0.8554687 -1.066406,-0.8554687 -1.113281,0 -2.613281,0.9726562 -2.613281,2.7070312 0,1.01953126 0.585937,1.80468751 1.570312,1.80468751 1.417969,0 2.261719,-1.0546875 2.261719,-1.17187501 0,-0.058594 -0.07031,-0.1289062 -0.128906,-0.1289062 -0.04687,0 -0.07031,0.023437 -0.128907,0.09375 -0.785156,0.99609371 -1.875,0.99609371 -1.992187,0.99609371 -0.773438,0 -0.867188,-0.84375 -0.867188,-1.16015621 0,-0.1171875 0.01172,-0.4335938 0.164063,-1.03125 z m -0.46875,-0.2226563 c 0.386718,-1.5117187 1.417968,-1.6640625 1.675781,-1.6640625 0.46875,0 0.738281,0.2929688 0.738281,0.6328125 0,1.03125 -1.59375,1.03125 -2.003906,1.03125 z m 0,0"
         style="fill:#ec008c;fill-opacity:1;fill-rule:nonzero;stroke:none" />
      <path
         id="path19"
         d="m 28.355781,-5.1846953 c 0.105469,0 0.269532,0 0.269532,-0.1757813 0,-0.1757812 -0.152344,-0.1757812 -0.269532,-0.1757812 h -4.160156 c -0.105469,0 -0.28125,0 -0.28125,0.1757812 0,0.1757813 0.164063,0.1757813 0.28125,0.1757813 z m 0,0"
         style="fill:#ec008c;fill-opacity:1;fill-rule:nonzero;stroke:none" />
      <path
         id="path20"
         d="m 31.124336,-4.3526641 c -0.07031,0.234375 -0.292969,0.609375 -0.65625,0.609375 -0.02344,0 -0.222656,0 -0.375,-0.09375 0.28125,-0.09375 0.304687,-0.3398437 0.304687,-0.3867187 0,-0.1523438 -0.117187,-0.2578125 -0.28125,-0.2578125 -0.1875,0 -0.386718,0.1640625 -0.386718,0.4335937 0,0.3398438 0.386718,0.5039063 0.726562,0.5039063 0.316406,0 0.609375,-0.1992188 0.785156,-0.4921875 0.164063,0.3632812 0.550782,0.4921875 0.820313,0.4921875 0.808594,0 1.230469,-0.8671875 1.230469,-1.0664063 0,-0.09375 -0.09375,-0.09375 -0.105469,-0.09375 -0.105469,0 -0.105469,0.035156 -0.140625,0.1171875 -0.140625,0.4804688 -0.5625,0.84375 -0.949219,0.84375 -0.28125,0 -0.421875,-0.1875 -0.421875,-0.4453125 0,-0.1875 0.164063,-0.8203125 0.363281,-1.59375 0.128907,-0.5390625 0.445313,-0.7148437 0.679688,-0.7148437 0.01172,0 0.222656,0 0.375,0.1054687 -0.222656,0.058594 -0.304688,0.2578125 -0.304688,0.375 0,0.1523438 0.117188,0.2578125 0.28125,0.2578125 0.152344,0 0.386719,-0.1289062 0.386719,-0.421875 0,-0.3867187 -0.445312,-0.5039062 -0.726562,-0.5039062 -0.351563,0 -0.632813,0.2226562 -0.785157,0.4921875 -0.117187,-0.2929688 -0.445312,-0.4921875 -0.832031,-0.4921875 -0.785156,0 -1.230469,0.8554687 -1.230469,1.0664062 0,0.082031 0.105469,0.082031 0.117188,0.082031 0.09375,0 0.105469,-0.023437 0.140625,-0.1171875 0.175781,-0.5390625 0.609375,-0.84375 0.949219,-0.84375 0.234375,0 0.421875,0.1289062 0.421875,0.46875 0,0.1289062 -0.08203,0.4804687 -0.152344,0.7148437 z m 0,0"
         style="fill:#ec008c;fill-opacity:1;fill-rule:nonzero;stroke:none" />
    </g>
    <g
       id="g20"
       aria-label="y=&#10;1"
       transform="matrix(1.3333333,0,0,1.3333333,135.46267,211.55333)">
      <path
         id="path21"
         d="m 4.8385469,-3.7958594 c 0.046875,-0.140625 0.046875,-0.1523437 0.046875,-0.2226562 0,-0.1875 -0.140625,-0.2695313 -0.2929688,-0.2695313 -0.1054687,0 -0.2578125,0.058594 -0.3515625,0.1992188 -0.023437,0.058594 -0.09375,0.3632812 -0.140625,0.5390625 -0.070312,0.2578125 -0.140625,0.5273437 -0.1992187,0.796875 l -0.4453125,1.79296873 c -0.035156,0.15234375 -0.46875,0.85546875 -1.125,0.85546875 -0.5039063,0 -0.6210938,-0.4453125 -0.6210938,-0.80859375 0,-0.45703123 0.1757813,-1.07812503 0.515625,-1.95703123 0.1523438,-0.4101563 0.1992188,-0.515625 0.1992188,-0.7148438 0,-0.4453125 -0.328125,-0.8203125 -0.8203125,-0.8203125 -0.94921877,0 -1.31250002,1.453125 -1.31250002,1.5351563 0,0.1054687 0.09375,0.1054687 0.1171875,0.1054687 0.09375,0 0.10546875,-0.023437 0.15234375,-0.1875 0.26953125,-0.9375 0.66796877,-1.2304687 1.00781247,-1.2304687 0.082031,0 0.2578125,0 0.2578125,0.3164062 0,0.2460938 -0.1054687,0.515625 -0.1757812,0.703125 -0.3984375,1.0546875 -0.5742188,1.6171875 -0.5742188,2.0859375 0,0.89062503 0.6210938,1.18359378 1.21875,1.18359378 0.3867188,0 0.7265625,-0.1640625 0.9960938,-0.4453125 -0.1289063,0.515625 -0.2460938,1.0078125 -0.6445313,1.53515622 -0.2578125,0.3398438 -0.6328125,0.6328125 -1.0898437,0.6328125 -0.140625,0 -0.59765627,-0.035156 -0.76171877,-0.421875 0.1640625,0 0.29296877,0 0.43359377,-0.1171875 0.09375,-0.09375 0.1992187,-0.2226562 0.1992187,-0.41015622 0,-0.31640625 -0.2695312,-0.3515625 -0.375,-0.3515625 -0.22265622,0 -0.55078122,0.1640625 -0.55078122,0.64453122 0,0.5039063 0.43359375,0.8671875 1.05468752,0.8671875 1.0195312,0 2.0507812,-0.9023437 2.3320312,-2.02734372 z m 0,0"
         style="fill:#008080;fill-opacity:1;fill-rule:nonzero;stroke:none" />
      <path
         id="path22"
         d="m 14.858078,-3.2567969 c 0.152344,0 0.339844,0 0.339844,-0.1992187 0,-0.1992188 -0.1875,-0.1992188 -0.328125,-0.1992188 H 8.9049531 c -0.140625,0 -0.328125,0 -0.328125,0.1992188 0,0.1992187 0.1875,0.1992187 0.3398438,0.1992187 z m 0.01172,1.9335938 c 0.140625,0 0.328125,0 0.328125,-0.1992188 0,-0.1992187 -0.1875,-0.1992187 -0.339844,-0.1992187 H 8.9166719 c -0.1523438,0 -0.3398438,0 -0.3398438,0.1992187 0,0.1992188 0.1875,0.1992188 0.328125,0.1992188 z m 0,0"
         style="fill:#008080;fill-opacity:1;fill-rule:nonzero;stroke:none" />
      <path
         id="path23"
         d="m 22.053391,-8.3515234 c 0,-0.1875 -0.01172,-0.1992188 -0.210938,-0.1992188 -0.445312,0.4335938 -1.078125,0.4453125 -1.359375,0.4453125 v 0.2460938 c 0.164063,0 0.621094,0 1.007813,-0.1875 v 3.5507812 c 0,0.234375 0,0.328125 -0.691407,0.328125 h -0.269531 v 0.2460938 c 0.128906,-0.011719 0.984375,-0.023437 1.242188,-0.023437 0.210937,0 1.089843,0.011719 1.242187,0.023437 v -0.2460938 h -0.257812 c -0.703125,0 -0.703125,-0.09375 -0.703125,-0.328125 z m 0,0"
         style="fill:#008080;fill-opacity:1;fill-rule:nonzero;stroke:none" />
    </g>
    <path
       id="path24"
       d="M 0,0 H 3.971"
       style="fill:none;stroke:#008080;stroke-width:0.398;stroke-linecap:butt;stroke-linejoin:miter;stroke-miterlimit:10;stroke-dasharray:none;stroke-opacity:1"
       transform="matrix(1.3333333,0,0,-1.3333333,161.75733,208.23333)" />
    <g
       id="g24"
       aria-label="2&#10;e&#10;−x&#10;−1"
       transform="matrix(1.3333333,0,0,1.3333333,161.75733,216.13467)">
      <path
         id="path25"
         d="m 3.5159844,-1.2670156 h -0.234375 c -0.023437,0.1523437 -0.082031,0.56249998 -0.1757813,0.63281248 -0.058594,0.0351563 -0.5976562,0.0351563 -0.6914062,0.0351563 H 1.1253594 C 1.8636406,-1.243578 2.1097344,-1.4427968 2.5198906,-1.7709218 c 0.515625,-0.4101563 0.9960938,-0.84375 0.9960938,-1.5 0,-0.84375 -0.7382813,-1.359375 -1.6289063,-1.359375 -0.8671875,0 -1.45312497,0.609375 -1.45312497,1.2421875 0,0.3632813 0.3046875,0.3984375 0.375,0.3984375 0.1640625,0 0.37499997,-0.1171875 0.37499997,-0.375 0,-0.1289062 -0.058594,-0.3632812 -0.42187497,-0.3632812 0.22265625,-0.5039063 0.69140627,-0.65625 1.01953127,-0.65625 0.703125,0 1.0664062,0.5507811 1.0664062,1.1132812 0,0.609375 -0.4335937,1.0898437 -0.65625,1.3359375 l -1.68749997,1.66406248 c -0.0703125,0.0585938 -0.0703125,0.0703125 -0.0703125,0.26953125 H 3.3167656 Z m 0,0"
         style="fill:#008080;fill-opacity:1;fill-rule:nonzero;stroke:none" />
      <path
         id="path26"
         d="m 7.0316094,-5.7318594 c 0.2929687,0 1.03125,-0.023437 1.5234375,-0.234375 0.703125,-0.2929687 0.75,-0.890625 0.75,-1.0195312 0,-0.4453125 -0.3867188,-0.8554688 -1.0664063,-0.8554688 -1.1132812,0 -2.6132812,0.9726563 -2.6132812,2.7070313 0,1.0195312 0.5859375,1.8046875 1.5703125,1.8046875 1.4179687,0 2.2617187,-1.0546875 2.2617187,-1.171875 0,-0.058594 -0.070312,-0.1289063 -0.1289062,-0.1289063 -0.046875,0 -0.070312,0.023437 -0.1289063,0.09375 -0.7851562,0.9960938 -1.875,0.9960938 -1.9921875,0.9960938 -0.7734375,0 -0.8671875,-0.84375 -0.8671875,-1.1601563 0,-0.1171875 0.011719,-0.4335937 0.1640625,-1.03125 z m -0.46875,-0.2226562 c 0.3867187,-1.5117188 1.4179687,-1.6640625 1.6757812,-1.6640625 0.46875,0 0.7382813,0.2929687 0.7382813,0.6328125 0,1.03125 -1.59375,1.03125 -2.0039063,1.03125 z m 0,0"
         style="fill:#008080;fill-opacity:1;fill-rule:nonzero;stroke:none" />
      <path
         id="path27"
         d="m 14.99743,-8.6205312 c 0.105468,0 0.269531,0 0.269531,-0.1757813 0,-0.1757812 -0.152344,-0.1757812 -0.269531,-0.1757812 h -4.160157 c -0.105468,0 -0.28125,0 -0.28125,0.1757812 0,0.1757813 0.164063,0.1757813 0.28125,0.1757813 z m 0,0"
         style="fill:#008080;fill-opacity:1;fill-rule:nonzero;stroke:none" />
      <path
         id="path28"
         d="m 17.765984,-7.7885 c -0.07031,0.234375 -0.292968,0.609375 -0.65625,0.609375 -0.02344,0 -0.222656,0 -0.375,-0.09375 0.28125,-0.09375 0.304688,-0.3398437 0.304688,-0.3867187 0,-0.1523438 -0.117188,-0.2578125 -0.28125,-0.2578125 -0.1875,0 -0.386719,0.1640625 -0.386719,0.4335937 0,0.3398438 0.386719,0.5039063 0.726563,0.5039063 0.316406,0 0.609375,-0.1992188 0.785156,-0.4921875 0.164062,0.3632812 0.550781,0.4921875 0.820312,0.4921875 0.808594,0 1.230469,-0.8671875 1.230469,-1.0664063 0,-0.09375 -0.09375,-0.09375 -0.105469,-0.09375 -0.105468,0 -0.105468,0.035156 -0.140625,0.1171875 -0.140625,0.4804688 -0.5625,0.84375 -0.949218,0.84375 -0.28125,0 -0.421875,-0.1875 -0.421875,-0.4453125 0,-0.1875 0.164062,-0.8203125 0.363281,-1.59375 0.128906,-0.5390625 0.445312,-0.7148437 0.679687,-0.7148437 0.01172,0 0.222657,0 0.375,0.1054687 -0.222656,0.058594 -0.304687,0.2578125 -0.304687,0.375 0,0.1523438 0.117187,0.2578125 0.28125,0.2578125 0.152344,0 0.386719,-0.1289062 0.386719,-0.421875 0,-0.386719 -0.445313,-0.503906 -0.726563,-0.503906 -0.351562,0 -0.632812,0.222656 -0.785156,0.4921873 -0.117188,-0.2929688 -0.445313,-0.4921873 -0.832031,-0.4921873 -0.785157,0 -1.230469,0.8554685 -1.230469,1.066406 0,0.082031 0.105469,0.082031 0.117187,0.082031 0.09375,0 0.105469,-0.023437 0.140625,-0.1171875 0.175782,-0.5390625 0.609375,-0.84375 0.949219,-0.84375 0.234375,0 0.421875,0.1289062 0.421875,0.46875 0,0.1289062 -0.08203,0.4804687 -0.152344,0.7148437 z m 0,0"
         style="fill:#008080;fill-opacity:1;fill-rule:nonzero;stroke:none" />
      <path
         id="path29"
         d="m 29.824578,-5.7318594 c 0.175781,0 0.351563,0 0.351563,-0.1992187 0,-0.1992188 -0.175782,-0.1992188 -0.351563,-0.1992188 h -5.390625 c -0.164062,0 -0.339844,0 -0.339844,0.1992188 0,0.1992187 0.175782,0.1992187 0.339844,0.1992187 z m 0,0"
         style="fill:#008080;fill-opacity:1;fill-rule:nonzero;stroke:none" />
      <path
         id="path30"
         d="m 36.152703,-9.8099844 c 0,-0.2343746 0,-0.2578126 -0.234375,-0.2578126 -0.609375,0.6328126 -1.488281,0.6328126 -1.804687,0.6328126 v 0.3164063 c 0.199218,0 0.785156,0 1.300781,-0.2578125 v 5.15625 c 0,0.3515625 -0.03516,0.4804687 -0.925781,0.4804687 h -0.316407 v 0.3046875 c 0.351563,-0.035156 1.207032,-0.035156 1.605469,-0.035156 0.398438,0 1.265625,0 1.617188,0.035156 v -0.3046875 h -0.316407 c -0.902343,0 -0.925781,-0.1171875 -0.925781,-0.4804687 z m 0,0"
         style="fill:#008080;fill-opacity:1;fill-rule:nonzero;stroke:none" />
    </g>
    <g
       id="g30"
       aria-label="−1"
       transform="matrix(1.3333333,0,0,1.3333333,227.584,259.70267)">
      <path
         id="path31"
         d="m 6.5639531,-2.2965312 c 0.1757813,0 0.3515625,0 0.3515625,-0.1992188 0,-0.1992187 -0.1757812,-0.1992187 -0.3515625,-0.1992187 h -5.390625 c -0.1640625,0 -0.33984372,0 -0.33984372,0.1992187 0,0.1992188 0.17578122,0.1992188 0.33984372,0.1992188 z m 0,0"
         style="fill:#000000;fill-opacity:1;fill-rule:nonzero;stroke:none" />
      <path
         id="path32"
         d="m 10.677234,-6.3746562 c 0,-0.234375 0,-0.2578125 -0.234375,-0.2578125 -0.6093746,0.6328125 -1.4882809,0.6328125 -1.8046871,0.6328125 V -5.68325 c 0.1992187,0 0.7851562,0 1.3007812,-0.2578125 v 5.15625 c 0,0.3515625 -0.035156,0.48046875 -0.9257812,0.48046875 H 8.6967656 V 3.4375e-4 C 9.0483281,-0.0348125 9.9037969,-0.0348125 10.302234,-0.0348125 c 0.398438,0 1.265625,0 1.617188,0.03515625 v -0.3046875 h -0.316406 c -0.902344,0 -0.925782,-0.1171875 -0.925782,-0.48046875 z m 0,0"
         style="fill:#000000;fill-opacity:1;fill-rule:nonzero;stroke:none" />
    </g>
  </g>
</svg>
