<?xml version="1.0" encoding="UTF-8" standalone="no"?>
<!-- Created with Inkscape (http://www.inkscape.org/) -->

<svg
   version="1.1"
   id="svg1"
   width="140.69019"
   height="137.00278"
   viewBox="0 0 140.69019 137.00278"
   sodipodi:docname="1.6-ejemplo-cuadratica.svg"
   inkscape:version="1.4.2 (f4327f4, 2025-05-13)"
   xmlns:inkscape="http://www.inkscape.org/namespaces/inkscape"
   xmlns:sodipodi="http://sodipodi.sourceforge.net/DTD/sodipodi-0.dtd"
   xmlns="http://www.w3.org/2000/svg"
   xmlns:svg="http://www.w3.org/2000/svg">
  <defs
     id="defs1" />
  <sodipodi:namedview
     id="namedview1"
     pagecolor="#ffffff"
     bordercolor="#000000"
     borderopacity="0.25"
     inkscape:showpageshadow="2"
     inkscape:pageopacity="0.0"
     inkscape:pagecheckerboard="0"
     inkscape:deskcolor="#d1d1d1"
     inkscape:zoom="2.2241536"
     inkscape:cx="73.51111"
     inkscape:cy="87.448996"
     inkscape:window-width="1920"
     inkscape:window-height="1009"
     inkscape:window-x="-8"
     inkscape:window-y="-8"
     inkscape:window-maximized="1"
     inkscape:current-layer="g1">
    <inkscape:page
       x="0"
       y="0"
       inkscape:label="20"
       id="page1"
       width="140.69019"
       height="137.00278"
       margin="0"
       bleed="0" />
  </sodipodi:namedview>
  <g
     id="g1"
     inkscape:groupmode="layer"
     inkscape:label="20"
     transform="translate(-168.61841,-94.093757)">
    <path
       id="path2"
       d="M -42.5202,0 H 56.23534"
       style="fill:none;stroke:#000000;stroke-width:0.3985;stroke-linecap:butt;stroke-linejoin:miter;stroke-miterlimit:10;stroke-dasharray:none;stroke-opacity:1"
       transform="matrix(1.3333333,0,0,-1.3333333,225.312,212.19867)" />
    <path
       id="path3"
       d="M -1.19551,1.59401 C -1.09587,0.99626 0,0.09961 0.29886,0 0,-0.09961 -1.09587,-0.99626 -1.19551,-1.59401"
       style="fill:none;stroke:#000000;stroke-width:0.31879;stroke-linecap:round;stroke-linejoin:round;stroke-miterlimit:10;stroke-dasharray:none;stroke-opacity:1"
       transform="matrix(1.3333333,0,0,-1.3333333,300.29245,212.19867)" />
    <path
       id="path4"
       d="m 3.6451016,-3.2933047 c 0.070312,-0.28125 0.3164062,-1.2890625 1.078125,-1.2890625 0.058594,0 0.3164062,0 0.5507812,0.140625 -0.3046875,0.058594 -0.5273437,0.328125 -0.5273437,0.5859375 0,0.1757813 0.1171875,0.3867188 0.4101562,0.3867188 0.2460938,0 0.5976563,-0.1992188 0.5976563,-0.6328125 0,-0.5625 -0.6445313,-0.7265625 -1.0195313,-0.7265625 -0.6328125,0 -1.0195312,0.5859375 -1.1484375,0.8320312 -0.2695312,-0.7148437 -0.8554687,-0.8320312 -1.171875,-0.8320312 -1.1367187,0 -1.75781249,1.4179687 -1.75781249,1.6875 0,0.1054687 0.10546875,0.1054687 0.12890625,0.1054687 0.0820313,0 0.1171875,-0.023437 0.140625,-0.1171875 0.37500004,-1.1601562 1.08984374,-1.4296875 1.46484374,-1.4296875 0.2109375,0 0.5859375,0.09375 0.5859375,0.7265625 0,0.3398438 -0.1875,1.078125 -0.5859375,2.6015625 -0.1757812,0.67968751 -0.5625,1.13671876 -1.0429687,1.13671876 -0.058594,0 -0.3164063,0 -0.53906254,-0.140625 0.26953124,-0.0585938 0.51562504,-0.29296875 0.51562504,-0.59765625 0,-0.29296871 -0.2460938,-0.37500001 -0.41015629,-0.37500001 -0.328125,0 -0.59765625,0.28125001 -0.59765625,0.63281251 0,0.50390625 0.55078125,0.71484375 1.03125004,0.71484375 0.7148437,0 1.1015625,-0.76171875 1.1367187,-0.83203125 0.1289063,0.41015625 0.5273438,0.83203125 1.1835938,0.83203125 1.125,0 1.7460937,-1.40624996 1.7460937,-1.67578126 0,-0.1054687 -0.1054687,-0.1054687 -0.1289062,-0.1054687 -0.1054688,0 -0.1289063,0.035156 -0.140625,0.1171875 -0.3632813,1.16015621 -1.1132813,1.42968746 -1.453125,1.42968746 -0.4335938,0 -0.609375,-0.3515625 -0.609375,-0.7265625 0,-0.23437496 0.070312,-0.48046876 0.1875,-0.96093746 z m 0,0"
       style="fill:#000000;fill-opacity:1;fill-rule:nonzero;stroke:none"
       aria-label="x"
       transform="matrix(1.3333333,0,0,1.3333333,296.74533,223.57467)" />
    <path
       id="path5"
       d="M 0,-14.17339 V 84.58214"
       style="fill:none;stroke:#000000;stroke-width:0.3985;stroke-linecap:butt;stroke-linejoin:miter;stroke-miterlimit:10;stroke-dasharray:none;stroke-opacity:1"
       transform="matrix(1.3333333,0,0,-1.3333333,225.312,212.19867)" />
    <path
       id="path6"
       d="M -1.19551,1.59401 C -1.09587,0.99626 0,0.09961 0.29886,0 0,-0.09961 -1.09587,-0.99626 -1.19551,-1.59401"
       style="fill:none;stroke:#000000;stroke-width:0.31879;stroke-linecap:round;stroke-linejoin:round;stroke-miterlimit:10;stroke-dasharray:none;stroke-opacity:1"
       transform="matrix(0,-1.3333333,-1.3333333,0,225.312,99.42248)" />
    <path
       id="path7"
       d="m 5.2961016,-4.1597187 c 0.046875,-0.1523438 0.046875,-0.1757813 0.046875,-0.2460938 0,-0.1992187 -0.1523438,-0.2929687 -0.3164063,-0.2929687 -0.1054687,0 -0.28125,0.058594 -0.375,0.2226562 -0.023437,0.058594 -0.1171875,0.3984375 -0.1523437,0.5976563 -0.082031,0.28125 -0.1523438,0.5742187 -0.2226563,0.8671875 l -0.4921875,1.96875 c -0.046875,0.16406245 -0.515625,0.9257812 -1.2304687,0.9257812 -0.5625,0 -0.6796875,-0.48046875 -0.6796875,-0.890625 0,-0.4921875 0.1875,-1.171875 0.5625,-2.1328125 0.1757812,-0.4453125 0.2109375,-0.5742187 0.2109375,-0.7851562 0,-0.4921875 -0.3515625,-0.9023438 -0.890625,-0.9023438 -1.04296879,0 -1.44140629,1.5820313 -1.44140629,1.6875 0,0.1054688 0.10546875,0.1054688 0.12890625,0.1054688 0.10546875,0 0.1171875,-0.023437 0.17578125,-0.1992188 0.29296875,-1.0195312 0.72656249,-1.3476562 1.10156249,-1.3476562 0.09375,0 0.2695313,0 0.2695313,0.3515625 0,0.2695312 -0.1054688,0.5507812 -0.1757813,0.7617187 -0.4453125,1.1601563 -0.6328125,1.78125 -0.6328125,2.2851563 0,0.9726562 0.6796875,1.3007812 1.3242188,1.3007812 0.421875,0 0.796875,-0.1875 1.1015625,-0.4921875 C 3.4679766,0.19965625 3.3390703,0.727 2.9054766,1.3129375 2.6125078,1.6762188 2.2023516,1.992625 1.6984453,1.992625 c -0.1523437,0 -0.6445312,-0.023437 -0.83203124,-0.4570312 0.17578124,0 0.31640624,0 0.48046874,-0.1289063 0.1054688,-0.09375 0.2109375,-0.234375 0.2109375,-0.4453125 0,-0.33984375 -0.2929687,-0.38671875 -0.3984375,-0.38671875 -0.25781249,0 -0.60937499,0.17578125 -0.60937499,0.71484375 0,0.5390625 0.48046879,0.9492188 1.14843749,0.9492188 1.125,0 2.25,-0.9960938 2.5546875,-2.22656255 z m 0,0"
       style="fill:#000000;fill-opacity:1;fill-rule:nonzero;stroke:none"
       aria-label="y"
       transform="matrix(1.3333333,0,0,1.3333333,212.544,100.53067)" />
    <path
       id="path8"
       d="M -35.43349,56.69362 H 35.43349"
       style="fill:none;stroke:#ec008c;stroke-width:0.3985;stroke-linecap:butt;stroke-linejoin:miter;stroke-miterlimit:10;stroke-dasharray:none;stroke-opacity:0.7"
       transform="matrix(1.3333333,0,0,-1.3333333,225.312,212.19867)" />
    <path
       id="path9"
       d="m -26.64607,56.69362 c 0,0.9393 -0.76143,1.70073 -1.70073,1.70073 -0.9393,0 -1.70075,-0.76143 -1.70075,-1.70073 0,-0.9393 0.76145,-1.70075 1.70075,-1.70075 0.9393,0 1.70073,0.76145 1.70073,1.70075 z"
       style="fill:#0000ff;fill-opacity:0.5;fill-rule:nonzero;stroke:#0000ff;stroke-width:0.3985;stroke-linecap:butt;stroke-linejoin:miter;stroke-miterlimit:10;stroke-dasharray:none;stroke-opacity:1"
       transform="matrix(1.3333333,0,0,-1.3333333,225.312,212.19867)" />
    <path
       id="path10"
       d="m 30.04755,56.69362 c 0,0.9393 -0.76145,1.70073 -1.70075,1.70073 -0.9393,0 -1.70073,-0.76143 -1.70073,-1.70073 0,-0.9393 0.76143,-1.70075 1.70073,-1.70075 0.9393,0 1.70075,0.76145 1.70075,1.70075 z"
       style="fill:#0000ff;fill-opacity:0.5;fill-rule:nonzero;stroke:#0000ff;stroke-width:0.3985;stroke-linecap:butt;stroke-linejoin:miter;stroke-miterlimit:10;stroke-dasharray:none;stroke-opacity:1"
       transform="matrix(1.3333333,0,0,-1.3333333,225.312,212.19867)" />
    <path
       id="path11"
       d="m -31.18144,68.599 c 0,0 0.45503,-1.98975 0.62979,-2.74315 0.17475,-0.75342 0.45502,-1.94907 0.62977,-2.68694 0.17475,-0.73786 0.45502,-1.90878 0.62977,-2.63113 0.17477,-0.72235 0.45503,-1.8683 0.62977,-2.5751 0.17476,-0.70682 0.45504,-1.82782 0.62978,-2.51911 0.17476,-0.6913 0.45503,-1.78755 0.62979,-2.4633 0.17474,-0.67575 0.455,-1.74687 0.62977,-2.40707 0.17475,-0.66022 0.45502,-1.70656 0.62977,-2.35129 0.17475,-0.64471 0.45503,-1.66631 0.62977,-2.29547 0.17476,-0.62918 0.45503,-1.62564 0.62978,-2.23924 0.17476,-0.61362 0.45501,-1.58515 0.62979,-2.18325 0.17474,-0.5981 0.455,-1.54486 0.62976,-2.12744 0.17476,-0.58258 0.45502,-1.50436 0.62978,-2.07143 0.17474,-0.56706 0.45503,-1.46409 0.62977,-2.01562 0.17476,-0.55151 0.45502,-1.42342 0.62978,-1.95938 0.17476,-0.53598 0.45501,-1.38315 0.62977,-1.90361 0.17476,-0.52048 0.45502,-1.34265 0.62978,-1.8476 0.17475,-0.50491 0.45502,-1.30218 0.62978,-1.79156 0.17474,-0.48938 0.45501,-1.26169 0.62977,-1.73557 0.17476,-0.47386 0.45502,-1.22144 0.62976,-1.67974 0.17478,-0.45833 0.45504,-1.18076 0.62979,-1.62354 0.17475,-0.44278 0.45502,-1.14047 0.62978,-1.56773 0.17474,-0.42727 0.455,-1.09998 0.62977,-1.51174 0.17475,-0.41174 0.45502,-1.05968 0.62977,-1.45592 0.17477,-0.39624 0.45503,-1.01922 0.62977,-1.3999 0.17476,-0.38066 0.45503,-0.97856 0.62979,-1.34367 0.17475,-0.36513 0.45502,-0.93825 0.62978,-1.28789 0.17474,-0.34964 0.455,-0.89799 0.62976,-1.23209 0.17476,-0.33409 0.45503,-0.8573 0.62978,-1.17585 0.17475,-0.31855 0.45503,-0.81702 0.62977,-1.12006 0.17476,-0.30302 0.45503,-0.77655 0.62978,-1.06404 0.17476,-0.28749 0.45502,-0.73605 0.62979,-1.00803 0.17474,-0.27198 0.455,-0.6958 0.62976,-0.95224 0.17476,-0.25642 0.45503,-0.65512 0.62978,-0.89601 C -9.59431,6.4924 -9.31404,6.11847 -9.1393,5.8931 -8.96454,5.66771 -8.68428,5.31874 -8.50952,5.1089 -8.33476,4.89908 -8.0545,4.57504 -7.87975,4.38074 -7.70499,4.1864 -7.42473,3.88715 -7.24997,3.70834 -7.07523,3.52954 -6.79494,3.2552 -6.6202,3.09198 -6.44543,2.92874 -6.16518,2.67957 -5.99042,2.53185 -5.81566,2.38414 -5.5354,2.1595 -5.36066,2.0273 -5.18588,1.89508 -4.90562,1.69563 -4.73087,1.57896 -4.55612,1.4623 -4.27585,1.28755 -4.10109,1.18643 -3.92635,1.08531 -3.64607,0.9357 -3.47131,0.85013 -3.29655,0.76456 -3.0163,0.63972 -2.84155,0.56964 c 0.17477,-0.0701 0.45503,-0.17015 0.62977,-0.2247 0.17476,-0.05457 0.45504,-0.12947 0.62979,-0.16849 0.17475,-0.039 0.45502,-0.08917 0.62978,-0.11267 0.17474,-0.02348 0.455,-0.0487 0.62976,-0.05665 0.17476,-0.00794 0.455,-0.00821 0.62975,-6.6e-4 C 0.48206,0.01405 0.76233,0.03874 0.93707,0.06183 1.11183,0.08495 1.3921,0.13437 1.56686,0.173 1.74161,0.21165 2.02187,0.2862 2.19664,0.3404 2.37138,0.39458 2.65164,0.49391 2.8264,0.56357 3.00114,0.63324 3.28143,0.75735 3.45618,0.84256 3.63094,0.92778 3.91121,1.07703 4.08595,1.17778 4.26071,1.27853 4.54097,1.4525 4.71574,1.5688 4.89049,1.6851 5.17075,1.88423 5.3455,2.01605 5.52026,2.14786 5.80052,2.37155 5.97528,2.51888 6.15002,2.66621 6.43031,2.91502 6.60506,3.07793 6.77982,3.24083 7.06007,3.51459 7.23483,3.693 7.40959,3.87141 7.68985,4.16992 7.86461,4.36386 8.03937,4.55779 8.31963,4.88127 8.49438,5.09074 8.66913,5.30022 8.9494,5.64865 9.12416,5.87364 9.2989,6.09863 9.57918,6.47179 9.75394,6.71233 c 0.17476,0.24054 0.45501,0.63884 0.62976,0.89491 0.17477,0.25609 0.45503,0.67914 0.62977,0.95073 0.17476,0.27159 0.45503,0.71959 0.62979,1.00673 0.17475,0.28714 0.45501,0.7601 0.62978,1.06274 0.17474,0.30266 0.45502,0.80039 0.62976,1.11855 0.17478,0.31816 0.45503,0.84083 0.62978,1.17456 0.17476,0.33372 0.45503,0.88153 0.62977,1.23079 0.17476,0.34922 0.45504,0.9216 0.62979,1.28636 0.17475,0.36476 0.45501,0.9623 0.62976,1.3426 0.17476,0.3803 0.45504,1.00254 0.62978,1.39838 0.17476,0.39584 0.45503,1.04324 0.62978,1.45464 0.17476,0.41138 0.45503,1.08355 0.62977,1.51042 0.17477,0.42688 0.45502,1.12381 0.62979,1.56622 0.17475,0.44241 0.45501,1.16449 0.62977,1.62245 0.17474,0.45796 0.45503,1.20478 0.62977,1.67824 0.17476,0.47348 0.45504,1.24525 0.62978,1.73427 0.17476,0.48903 0.45501,1.28572 0.62977,1.79027 0.17476,0.50456 0.45502,1.32621 0.62978,1.84629 0.17476,0.52007 0.45501,1.36646 0.62978,1.90209 0.17474,0.53561 0.45501,1.40715 0.62977,1.95831 0.17475,0.55117 0.45502,1.44747 0.62978,2.01412 0.17476,0.56663 0.45501,1.48771 0.62976,2.0699 0.17477,0.5822 0.45503,1.52841 0.62979,2.12614 0.17474,0.59773 0.45502,1.56866 0.62978,2.18195 0.17474,0.61328 0.455,1.60937 0.62977,2.23817 0.17475,0.62879 0.45502,1.64943 0.62976,2.29374 0.17478,0.6443 0.45503,1.6901 0.62978,2.34998 0.17476,0.65989 0.45503,1.73061 0.62979,2.406 0.17475,0.67539 0.45502,1.77088 0.62978,2.46177 0.17474,0.69092 0.455,1.81137 0.62976,2.51782 0.17476,0.70646 0.45503,1.85184 0.62977,2.57381 0.17476,0.72197 0.45504,1.89211 0.62978,2.62961 0.17476,0.73751 0.45503,1.9328 0.62979,2.68587 0.17474,0.75304 0.62977,2.74162 0.62977,2.74162"
       style="fill:none;stroke:#eb0a36;stroke-width:0.79701;stroke-linecap:butt;stroke-linejoin:miter;stroke-miterlimit:10;stroke-dasharray:none;stroke-opacity:1"
       transform="matrix(1.3333333,0,0,-1.3333333,225.312,212.19867)" />
    <g
       id="g11"
       aria-label="y=x&#10;2"
       transform="matrix(1.3333333,0,0,1.3333333,272.328,159.62133)">
      <path
         id="path12"
         d="m 4.8399375,-3.7970547 c 0.046875,-0.140625 0.046875,-0.1523437 0.046875,-0.2226562 0,-0.1875 -0.140625,-0.2695313 -0.2929688,-0.2695313 -0.1054687,0 -0.2578125,0.058594 -0.3515625,0.1992188 -0.023437,0.058594 -0.09375,0.3632812 -0.140625,0.5390625 -0.070312,0.2578125 -0.140625,0.5273437 -0.1992187,0.796875 L 3.457125,-0.96111719 c -0.035156,0.15234375 -0.46875,0.85546875 -1.125,0.85546875 -0.5039063,0 -0.6210938,-0.4453125 -0.6210938,-0.80859375 0,-0.45703121 0.1757813,-1.07812501 0.515625,-1.95703121 C 2.379,-3.2814297 2.425875,-3.3868984 2.425875,-3.5861172 c 0,-0.4453125 -0.328125,-0.8203125 -0.8203125,-0.8203125 -0.94921875,0 -1.3125,1.453125 -1.3125,1.5351563 0,0.1054687 0.09375,0.1054687 0.1171875,0.1054687 0.09375,0 0.10546875,-0.023437 0.15234375,-0.1875 0.26953125,-0.9375 0.66796875,-1.2304687 1.00781245,-1.2304687 0.082031,0 0.2578125,0 0.2578125,0.3164062 0,0.2460938 -0.1054687,0.515625 -0.1757812,0.703125 -0.3984375,1.0546875 -0.5742188,1.6171875 -0.5742188,2.0859375 0,0.89062501 0.6210938,1.18359376 1.21875,1.18359376 0.3867188,0 0.7265625,-0.1640625 0.9960938,-0.4453125 -0.1289063,0.515625 -0.2460938,1.0078125 -0.6445313,1.53515624 -0.2578125,0.3398438 -0.6328125,0.6328125 -1.0898437,0.6328125 -0.140625,0 -0.59765625,-0.035156 -0.76171875,-0.421875 0.1640625,0 0.29296875,0 0.43359375,-0.1171875 0.09375,-0.09375 0.1992187,-0.2226562 0.1992187,-0.41015624 0,-0.31640625 -0.2695312,-0.3515625 -0.375,-0.3515625 -0.2226562,0 -0.5507812,0.1640625 -0.5507812,0.64453124 0,0.5039063 0.43359375,0.8671875 1.0546875,0.8671875 1.0195312,0 2.0507812,-0.9023437 2.3320312,-2.02734374 z m 0,0"
         style="fill:#eb0a36;fill-opacity:1;fill-rule:nonzero;stroke:none" />
      <path
         id="path13"
         d="m 14.856539,-3.2579922 c 0.152344,0 0.339844,0 0.339844,-0.1992187 0,-0.1992188 -0.1875,-0.1992188 -0.328125,-0.1992188 H 8.9034141 c -0.140625,0 -0.328125,0 -0.328125,0.1992188 0,0.1992187 0.1875,0.1992187 0.3398437,0.1992187 z m 0.01172,1.9335938 c 0.140625,0 0.328125,0 0.328125,-0.1992188 0,-0.1992187 -0.1875,-0.1992187 -0.339844,-0.1992187 H 8.9151328 c -0.1523437,0 -0.3398437,0 -0.3398437,0.1992187 0,0.1992188 0.1875,0.1992188 0.328125,0.1992188 z m 0,0"
         style="fill:#eb0a36;fill-opacity:1;fill-rule:nonzero;stroke:none" />
      <path
         id="path14"
         d="m 21.849703,-3.0118984 c 0.05859,-0.2578125 0.292969,-1.171875 0.984375,-1.171875 0.04687,0 0.292969,0 0.503906,0.1289062 -0.28125,0.046875 -0.480468,0.3046875 -0.480468,0.5390625 0,0.1640625 0.105468,0.3515625 0.375,0.3515625 0.222656,0 0.539062,-0.1875 0.539062,-0.5859375 0,-0.515625 -0.585937,-0.65625 -0.925781,-0.65625 -0.574219,0 -0.925781,0.5273438 -1.042969,0.7617188 -0.257812,-0.65625 -0.785156,-0.7617188 -1.078125,-0.7617188 -1.042969,0 -1.605469,1.2890625 -1.605469,1.5351563 0,0.1054687 0.105469,0.1054687 0.117188,0.1054687 0.08203,0 0.117187,-0.023437 0.128906,-0.1171875 0.339844,-1.0546875 0.996094,-1.3007812 1.335938,-1.3007812 0.1875,0 0.539062,0.09375 0.539062,0.6679687 0,0.3046875 -0.164062,0.9726563 -0.539062,2.3671875 -0.152344,0.62109376 -0.503907,1.04296876 -0.949219,1.04296876 -0.05859,0 -0.28125,0 -0.492188,-0.12890625 0.246094,-0.0585938 0.46875,-0.26953125 0.46875,-0.5390625 0,-0.26953121 -0.222656,-0.35156251 -0.375,-0.35156251 -0.292968,0 -0.539062,0.25781251 -0.539062,0.57421876 0,0.45703125 0.492187,0.65625 0.9375,0.65625 0.65625,0 1.007812,-0.69140625 1.042969,-0.75 0.117187,0.36328125 0.480468,0.75 1.078125,0.75 1.019531,0 1.59375,-1.27734376 1.59375,-1.53515626 0,-0.09375 -0.09375,-0.09375 -0.128907,-0.09375 -0.08203,0 -0.105468,0.035156 -0.128906,0.1054688 -0.328125,1.06640621 -0.996094,1.31249996 -1.324219,1.31249996 -0.386718,0 -0.539062,-0.328125 -0.539062,-0.65625 0,-0.22265625 0.05859,-0.44531246 0.164062,-0.87890626 z m 0,0"
         style="fill:#eb0a36;fill-opacity:1;fill-rule:nonzero;stroke:none" />
      <path
         id="path15"
         d="M 27.735445,-4.8810391 H 27.50107 c -0.02344,0.1523438 -0.08203,0.5625 -0.175781,0.6328125 -0.05859,0.035156 -0.597656,0.035156 -0.691406,0.035156 H 25.34482 c 0.738282,-0.6445313 0.984375,-0.84375 1.394532,-1.171875 0.515625,-0.4101563 0.996093,-0.84375 0.996093,-1.5 0,-0.84375 -0.738281,-1.359375 -1.628906,-1.359375 -0.867187,0 -1.453125,0.609375 -1.453125,1.2421875 0,0.3632812 0.304688,0.3984375 0.375,0.3984375 0.164063,0 0.375,-0.1171875 0.375,-0.375 0,-0.1289063 -0.05859,-0.3632813 -0.421875,-0.3632813 0.222656,-0.5039062 0.691406,-0.65625 1.019531,-0.65625 0.703125,0 1.066407,0.5507813 1.066407,1.1132813 0,0.609375 -0.433594,1.0898437 -0.65625,1.3359375 l -1.6875,1.6640625 c -0.07031,0.058594 -0.07031,0.070312 -0.07031,0.2695312 h 2.882813 z m 0,0"
         style="fill:#eb0a36;fill-opacity:1;fill-rule:nonzero;stroke:none" />
    </g>
  </g>
</svg>
