<?xml version="1.0" encoding="UTF-8" standalone="no"?>
<!-- Created with Inkscape (http://www.inkscape.org/) -->

<svg
   version="1.1"
   id="svg1"
   width="177.40099"
   height="155.90448"
   viewBox="0 0 177.40099 155.90448"
   sodipodi:docname="2.5-ejemplo-f1.svg"
   inkscape:version="1.4.2 (f4327f4, 2025-05-13)"
   xmlns:inkscape="http://www.inkscape.org/namespaces/inkscape"
   xmlns:sodipodi="http://sodipodi.sourceforge.net/DTD/sodipodi-0.dtd"
   xmlns="http://www.w3.org/2000/svg"
   xmlns:svg="http://www.w3.org/2000/svg">
  <defs
     id="defs1" />
  <sodipodi:namedview
     id="namedview1"
     pagecolor="#ffffff"
     bordercolor="#000000"
     borderopacity="0.25"
     inkscape:showpageshadow="2"
     inkscape:pageopacity="0.0"
     inkscape:pagecheckerboard="0"
     inkscape:deskcolor="#d1d1d1"
     inkscape:zoom="2.2241536"
     inkscape:cx="91.945088"
     inkscape:cy="95.092353"
     inkscape:window-width="1920"
     inkscape:window-height="1009"
     inkscape:window-x="-8"
     inkscape:window-y="-8"
     inkscape:window-maximized="1"
     inkscape:current-layer="g1">
    <inkscape:page
       x="0"
       y="0"
       inkscape:label="23"
       id="page1"
       width="177.40099"
       height="155.90448"
       margin="0"
       bleed="0" />
  </sodipodi:namedview>
  <g
     id="g1"
     inkscape:groupmode="layer"
     inkscape:label="23"
     transform="translate(-150.23573,-86.531249)">
    <path
       id="path2"
       d="M -42.5202,0 H 56.23534"
       style="fill:none;stroke:#000000;stroke-width:0.3985;stroke-linecap:butt;stroke-linejoin:miter;stroke-miterlimit:10;stroke-dasharray:none;stroke-opacity:1"
       transform="matrix(1.3333333,0,0,-1.3333333,206.92933,204.64)" />
    <path
       id="path3"
       d="M -1.19551,1.59401 C -1.09587,0.99626 0,0.09961 0.29886,0 0,-0.09961 -1.09587,-0.99626 -1.19551,-1.59401"
       style="fill:none;stroke:#000000;stroke-width:0.31879;stroke-linecap:round;stroke-linejoin:round;stroke-miterlimit:10;stroke-dasharray:none;stroke-opacity:1"
       transform="matrix(1.3333333,0,0,-1.3333333,281.90979,204.64)" />
    <path
       id="path4"
       d="m 3.6439922,-3.29325 c 0.070312,-0.28125 0.3164062,-1.2890625 1.078125,-1.2890625 0.058594,0 0.3164062,0 0.5507812,0.140625 -0.3046875,0.058594 -0.5273437,0.328125 -0.5273437,0.5859375 0,0.1757813 0.1171875,0.3867188 0.4101562,0.3867188 0.2460938,0 0.5976563,-0.1992188 0.5976563,-0.6328125 0,-0.5625 -0.6445313,-0.7265625 -1.0195313,-0.7265625 -0.6328125,0 -1.0195312,0.5859375 -1.1484375,0.8320312 -0.2695312,-0.7148437 -0.8554687,-0.8320312 -1.171875,-0.8320312 -1.1367187,0 -1.75781246,1.4179687 -1.75781246,1.6875 0,0.1054687 0.10546875,0.1054687 0.12890625,0.1054687 0.0820313,0 0.1171875,-0.023437 0.140625,-0.1171875 0.37500001,-1.1601562 1.08984371,-1.4296875 1.46484371,-1.4296875 0.2109375,0 0.5859375,0.09375 0.5859375,0.7265625 0,0.3398438 -0.1875,1.078125 -0.5859375,2.6015625 -0.1757812,0.6796875 -0.5625,1.13671875 -1.0429687,1.13671875 -0.058594,0 -0.3164063,0 -0.53906251,-0.140625 C 1.0775859,-0.3166875 1.3236797,-0.5510625 1.3236797,-0.85575 c 0,-0.2929687 -0.2460938,-0.375 -0.41015626,-0.375 -0.328125,0 -0.59765625,0.28125 -0.59765625,0.6328125 0,0.50390625 0.55078125,0.71484375 1.03125001,0.71484375 0.7148437,0 1.1015625,-0.76171875 1.1367187,-0.83203125 0.1289063,0.41015625 0.5273438,0.83203125 1.1835938,0.83203125 1.125,0 1.7460937,-1.40624995 1.7460937,-1.67578125 0,-0.1054687 -0.1054687,-0.1054687 -0.1289062,-0.1054687 -0.1054688,0 -0.1289063,0.035156 -0.140625,0.1171875 -0.3632813,1.1601562 -1.1132813,1.42968745 -1.453125,1.42968745 -0.4335938,0 -0.609375,-0.3515625 -0.609375,-0.7265625 0,-0.23437495 0.070312,-0.48046875 0.1875,-0.96093745 z m 0,0"
       style="fill:#000000;fill-opacity:1;fill-rule:nonzero;stroke:none"
       aria-label="x"
       transform="matrix(1.3333333,0,0,1.3333333,278.364,216.016)" />
    <path
       id="path5"
       d="M 0,-28.3468 V 84.58214"
       style="fill:none;stroke:#000000;stroke-width:0.3985;stroke-linecap:butt;stroke-linejoin:miter;stroke-miterlimit:10;stroke-dasharray:none;stroke-opacity:1"
       transform="matrix(1.3333333,0,0,-1.3333333,206.92933,204.64)" />
    <path
       id="path6"
       d="M -1.19551,1.59401 C -1.09587,0.99626 0,0.09961 0.29886,0 0,-0.09961 -1.09587,-0.99626 -1.19551,-1.59401"
       style="fill:none;stroke:#000000;stroke-width:0.31879;stroke-linecap:round;stroke-linejoin:round;stroke-miterlimit:10;stroke-dasharray:none;stroke-opacity:1"
       transform="matrix(0,-1.3333333,-1.3333333,0,206.92933,91.863813)" />
    <path
       id="path7"
       d="m 5.2979219,-4.1615937 c 0.046875,-0.1523438 0.046875,-0.1757813 0.046875,-0.2460938 0,-0.1992187 -0.1523438,-0.2929687 -0.3164063,-0.2929687 -0.1054687,0 -0.28125,0.058594 -0.375,0.2226562 -0.023437,0.058594 -0.1171875,0.3984375 -0.1523437,0.5976563 -0.082031,0.28125 -0.1523438,0.5742187 -0.2226563,0.8671875 l -0.4921875,1.96875 c -0.046875,0.16406245 -0.515625,0.9257812 -1.2304687,0.9257812 -0.5625,0 -0.6796875,-0.48046875 -0.6796875,-0.890625 0,-0.4921875 0.1875,-1.171875 0.5625,-2.1328125 0.1757812,-0.4453125 0.2109375,-0.5742187 0.2109375,-0.7851562 0,-0.4921875 -0.3515625,-0.9023438 -0.890625,-0.9023438 -1.04296877,0 -1.44140627,1.5820313 -1.44140627,1.6875 0,0.1054688 0.10546875,0.1054688 0.12890625,0.1054688 0.10546875,0 0.1171875,-0.023437 0.17578125,-0.1992188 0.29296875,-1.0195312 0.72656247,-1.3476562 1.10156247,-1.3476562 0.09375,0 0.2695313,0 0.2695313,0.3515625 0,0.2695312 -0.1054688,0.5507812 -0.1757813,0.7617187 -0.4453125,1.1601563 -0.6328125,1.78125 -0.6328125,2.2851563 0,0.9726562 0.6796875,1.3007812 1.3242188,1.3007812 0.421875,0 0.796875,-0.1875 1.1015625,-0.4921875 -0.140625,0.57421875 -0.2695313,1.1015625 -0.703125,1.6875 C 2.6143281,1.6743438 2.2041719,1.99075 1.7002656,1.99075 c -0.1523437,0 -0.6445312,-0.023437 -0.83203122,-0.4570312 0.17578122,0 0.31640622,0 0.48046872,-0.1289063 0.1054688,-0.09375 0.2109375,-0.234375 0.2109375,-0.4453125 0,-0.33984375 -0.2929687,-0.38671875 -0.3984375,-0.38671875 -0.25781247,0 -0.60937497,0.17578125 -0.60937497,0.71484375 0,0.5390625 0.48046877,0.9492188 1.14843747,0.9492188 1.125,0 2.25,-0.9960938 2.5546875,-2.22656255 z m 0,0"
       style="fill:#000000;fill-opacity:1;fill-rule:nonzero;stroke:none"
       aria-label="y"
       transform="matrix(1.3333333,0,0,1.3333333,194.16267,92.970667)" />
    <path
       id="path8"
       d="m -28.3468,-14.17339 c 0,0 0.6205,0.62049 0.85881,0.8588 0.23831,0.23831 0.62049,0.62049 0.85879,0.85881 0.23833,0.23831 0.6205,0.62048 0.85881,0.85881 0.23833,0.2383 0.6205,0.62048 0.85881,0.8588 0.23832,0.23831 0.6205,0.62048 0.8588,0.85881 0.23833,0.23831 0.6205,0.62048 0.85881,0.85881 0.23833,0.23829 0.62048,0.62048 0.85881,0.85878 0.2383,0.23832 0.62048,0.62049 0.8588,0.85881 0.23831,0.23832 0.62048,0.6205 0.85881,0.85881 0.23831,0.23831 0.62048,0.6205 0.85881,0.85879 0.23829,0.23833 0.62048,0.6205 0.85879,0.85881 0.23831,0.23833 0.62049,0.6205 0.85881,0.85881 0.23831,0.23831 0.62049,0.62049 0.8588,0.8588 0.23831,0.23831 0.6205,0.62048 0.85879,0.85881 0.23833,0.23831 0.6205,0.62048 0.85881,0.85881 0.23833,0.2383 0.6205,0.62048 0.85881,0.85879 0.23832,0.23832 0.6205,0.62046 0.8588,0.85878 0.23833,0.23832 0.6205,0.62049 0.85881,0.85881 0.23832,0.2383 0.6205,0.62049 0.85881,0.8588 0.23831,0.23831 0.62048,0.62048 0.85879,0.8588 0.23832,0.23832 0.62049,0.62049 0.85882,0.85881 0.2383,0.23831 0.62048,0.62049 0.8588,0.85879 0.2383,0.23833 0.62049,0.6205 0.8588,0.85881 0.23831,0.23833 0.62048,0.6205 0.85881,0.85881 0.23831,0.23832 0.62049,0.6205 0.85881,0.8588 0.2383,0.23832 0.62048,0.62048 0.85878,0.85881 0.23833,0.23831 0.6205,0.62048 0.85881,0.85881 0.23833,0.2383 0.6205,0.62048 0.85881,0.8588 0.23831,0.2383 0.6205,0.62048 0.8588,0.8588 0.23832,0.23831 0.6205,0.62049 0.85881,0.85881 0.23832,0.2383 0.6205,0.62049 0.85881,0.8588 0.23831,0.23831 0.6205,0.62049 0.85879,0.85881 0.23833,0.23831 0.6205,0.62048 0.85881,0.85879 0.23829,0.23832 0.62046,0.6205 0.85878,0.8588 0.2383,0.23833 0.62048,0.62051 0.8588,0.85881 0.23831,0.23833 0.62048,0.6205 0.85881,0.85881 0.23831,0.23831 0.62048,0.6205 0.85881,0.8588 0.2383,0.23832 0.62048,0.62051 0.85879,0.85881 0.23832,0.23832 0.62049,0.62048 0.8588,0.85881 0.23833,0.23829 0.6205,0.62048 0.85881,0.85879 0.23831,0.23831 0.6205,0.6205 0.8588,0.85881 0.23832,0.23831 0.62049,0.62049 0.85881,0.85881 0.23832,0.2383 0.62049,0.62049 0.85881,0.8588 0.23831,0.23831 0.6205,0.6205 0.85879,0.85881 0.23833,0.23831 0.6205,0.62048 0.85881,0.85881 0.23833,0.23829 0.62049,0.62048 0.85881,0.85878 0.2383,0.23833 0.62049,0.62051 0.8588,0.85881 0.23831,0.23833 0.62048,0.6205 0.85881,0.85881 0.23831,0.23831 0.62048,0.6205 0.85881,0.85881 0.2383,0.23831 0.62048,0.6205 0.85879,0.85879 0.23832,0.23833 0.62049,0.6205 0.85882,0.85882 0.2383,0.2383 0.62048,0.62048 0.85879,0.8588 0.23831,0.2383 0.6205,0.62049 0.85879,0.8588 0.23833,0.23831 0.6205,0.62048 0.85882,0.85881 0.23832,0.23829 0.6205,0.62049 0.8588,0.85881 0.23832,0.2383 0.6205,0.62048 0.8588,0.8588 0.23833,0.23831 0.6205,0.62048 0.85881,0.85881 0.23833,0.23829 0.62049,0.62048 0.85881,0.85879 0.2383,0.23831 0.62048,0.6205 0.8588,0.8588 0.23831,0.23832 0.62048,0.6205 0.85881,0.85881 0.23831,0.23831 0.62048,0.6205 0.85881,0.85881 0.23829,0.23831 0.62048,0.6205 0.85879,0.85879 0.23831,0.23833 0.62049,0.6205 0.85881,0.85881 0.23831,0.23832 0.62049,0.6205 0.85881,0.85881 0.2383,0.23832 0.62049,0.62049 0.85878,0.8588 0.23833,0.23831 0.6205,0.62048 0.85881,0.85881 0.23833,0.23831 0.6205,0.62048 0.85881,0.85881 0.23832,0.2383 0.6205,0.62048 0.8588,0.8588 0.23833,0.23831 0.6205,0.62048 0.85881,0.85881 0.23833,0.23831 0.6205,0.62048 0.85881,0.85881 0.23831,0.23829 0.62048,0.62048 0.8588,0.85878 0.23831,0.23833 0.62048,0.62049 0.85881,0.85881 0.23831,0.23832 0.62048,0.6205 0.85881,0.85881 0.23829,0.23831 0.62048,0.6205 0.85879,0.85879 0.23832,0.23833 0.62048,0.6205 0.85881,0.85882 0.23831,0.23832 0.62049,0.62049 0.85881,0.8588 0.2383,0.23831 0.62049,0.6205 0.8588,0.8588 0.23831,0.23833 0.62048,0.62048 0.8588,0.85881 0.23832,0.23831 0.62049,0.62048 0.8588,0.85881 0.23831,0.2383 0.6205,0.62048 0.8588,0.85879 0.23833,0.23832 0.6205,0.62049 0.85881,0.85881 0.23833,0.23832 0.62049,0.62049 0.85881,0.85882 0.23831,0.23829 0.6205,0.62048 0.85879,0.85879 0.23833,0.23831 0.6205,0.62048 0.85881,0.8588 0.23832,0.23832 0.62049,0.62049 0.85882,0.85881 0.23829,0.23831 0.62048,0.62049 0.85879,0.85879 0.23831,0.23833 0.6205,0.6205 0.85881,0.85881 0.23831,0.23833 0.62048,0.6205 0.85881,0.85881 0.2383,0.23831 0.62048,0.6205 0.8588,0.8588 0.23831,0.23832 0.62049,0.6205 0.85881,0.85881 0.23831,0.23832 0.62048,0.62048 0.85879,0.85881 0.23831,0.23829 0.6205,0.62048 0.8588,0.85879 0.23832,0.23831 0.62051,0.62049 0.85881,0.85881 0.23832,0.23832 0.6205,0.62049 0.85881,0.85881 0.23831,0.2383 0.6205,0.62049 0.85879,0.8588 0.23833,0.23831 0.62052,0.62048 0.85881,0.85881 0.23833,0.23831 0.62049,0.62048 0.85881,0.85879 0.2383,0.23832 0.62049,0.6205 0.85882,0.8588 0.23829,0.23832 0.85879,0.85881 0.85879,0.85881"
       style="fill:none;stroke:#eb0a36;stroke-width:0.79701;stroke-linecap:butt;stroke-linejoin:miter;stroke-miterlimit:10;stroke-dasharray:none;stroke-opacity:1"
       transform="matrix(1.3333333,0,0,-1.3333333,206.92933,204.64)" />
    <path
       id="path9"
       d="m 30.04755,42.5202 c 0,0.9393 -0.76145,1.70073 -1.70075,1.70073 -0.9393,0 -1.70073,-0.76143 -1.70073,-1.70073 0,-0.9393 0.76143,-1.70074 1.70073,-1.70074 0.9393,0 1.70075,0.76144 1.70075,1.70074 z"
       style="fill:#ffffff;fill-opacity:1;fill-rule:nonzero;stroke:#eb0a36;stroke-width:0.3985;stroke-linecap:butt;stroke-linejoin:miter;stroke-miterlimit:10;stroke-dasharray:none;stroke-opacity:1"
       transform="matrix(1.3333333,0,0,-1.3333333,206.92933,204.64)" />
    <path
       id="path10"
       d="M 0,42.5202 H 28.3468 V 0"
       style="fill:none;stroke:#0000ff;stroke-width:0.79701;stroke-linecap:butt;stroke-linejoin:miter;stroke-miterlimit:10;stroke-dasharray:2.98883, 2.98883;stroke-dashoffset:0;stroke-opacity:0.5"
       transform="matrix(1.3333333,0,0,-1.3333333,206.92933,204.64)" />
    <g
       id="g10"
       aria-label="y=f&#10;1&#10;(x)"
       transform="matrix(1.3333333,0,0,1.3333333,273.87467,170.16533)">
      <path
         id="path11"
         d="m 4.8400937,-3.7978281 c 0.046875,-0.140625 0.046875,-0.1523438 0.046875,-0.2226563 0,-0.1875 -0.140625,-0.2695312 -0.2929687,-0.2695312 -0.1054688,0 -0.2578125,0.058594 -0.3515625,0.1992187 -0.023437,0.058594 -0.09375,0.3632813 -0.140625,0.5390625 -0.070312,0.2578125 -0.140625,0.5273438 -0.1992188,0.796875 l -0.4453125,1.79296878 c -0.035156,0.15234375 -0.46875,0.85546875 -1.125,0.85546875 -0.5039062,0 -0.6210937,-0.4453125 -0.6210937,-0.80859375 0,-0.45703128 0.1757812,-1.07812498 0.515625,-1.95703128 0.1523437,-0.4101562 0.1992187,-0.515625 0.1992187,-0.7148437 0,-0.4453125 -0.328125,-0.8203125 -0.8203125,-0.8203125 -0.9492187,0 -1.31249995,1.453125 -1.31249995,1.5351562 0,0.1054688 0.09375,0.1054688 0.1171875,0.1054688 0.09375,0 0.10546875,-0.023437 0.15234375,-0.1875 0.26953125,-0.9375 0.6679687,-1.2304688 1.0078125,-1.2304688 0.082031,0 0.2578125,0 0.2578125,0.3164063 0,0.2460937 -0.1054688,0.515625 -0.1757813,0.703125 -0.3984375,1.0546875 -0.5742187,1.6171875 -0.5742187,2.0859375 0,0.89062498 0.6210937,1.18359373 1.21875,1.18359373 0.3867187,0 0.7265625,-0.1640625 0.9960937,-0.4453125 C 3.1643125,0.17482813 3.047125,0.66701563 2.6486875,1.1943594 2.390875,1.5342031 2.015875,1.8271719 1.5588437,1.8271719 c -0.140625,0 -0.5976562,-0.035156 -0.7617187,-0.421875 0.1640625,0 0.2929687,0 0.4335937,-0.1171875 0.09375,-0.09375 0.1992188,-0.2226563 0.1992188,-0.41015627 0,-0.31640625 -0.2695313,-0.3515625 -0.375,-0.3515625 -0.22265625,0 -0.55078125,0.1640625 -0.55078125,0.64453127 0,0.5039062 0.43359375,0.8671875 1.05468745,0.8671875 1.0195313,0 2.0507813,-0.9023438 2.3320313,-2.02734377 z m 0,0"
         style="fill:#eb0a36;fill-opacity:1;fill-rule:nonzero;stroke:none" />
      <path
         id="path12"
         d="m 14.856695,-3.2587656 c 0.152344,0 0.339844,0 0.339844,-0.1992188 0,-0.1992187 -0.1875,-0.1992187 -0.328125,-0.1992187 H 8.9035703 c -0.140625,0 -0.328125,0 -0.328125,0.1992187 0,0.1992188 0.1875,0.1992188 0.3398438,0.1992188 z m 0.01172,1.9335937 c 0.140625,0 0.328125,0 0.328125,-0.1992187 0,-0.1992188 -0.1875,-0.1992188 -0.339844,-0.1992188 H 8.9152891 c -0.1523438,0 -0.3398438,0 -0.3398438,0.1992188 0,0.1992187 0.1875,0.1992187 0.328125,0.1992187 z m 0,0"
         style="fill:#eb0a36;fill-opacity:1;fill-rule:nonzero;stroke:none" />
      <path
         id="path13"
         d="m 22.177984,-3.9853281 h 0.855469 c 0.199219,0 0.304688,0 0.304688,-0.1992188 0,-0.1054687 -0.105469,-0.1054687 -0.269532,-0.1054687 h -0.832031 l 0.210938,-1.1367188 c 0.03516,-0.2109375 0.175781,-0.9140625 0.234375,-1.0429687 0.09375,-0.1875 0.257812,-0.3398438 0.46875,-0.3398438 0.04687,0 0.304687,0 0.492187,0.1875 -0.433594,0.035156 -0.539062,0.3867188 -0.539062,0.5390625 0,0.2226563 0.175781,0.3398438 0.363281,0.3398438 0.269531,0 0.550781,-0.2109375 0.550781,-0.5976563 0,-0.4570312 -0.457031,-0.6796875 -0.867187,-0.6796875 -0.339844,0 -0.960938,0.1757813 -1.265625,1.1601563 -0.05859,0.2109375 -0.08203,0.3164062 -0.328125,1.5703125 h -0.679688 c -0.199219,0 -0.304687,0 -0.304687,0.1875 0,0.1171875 0.09375,0.1171875 0.28125,0.1171875 h 0.65625 l -0.75,3.93749998 c -0.175782,0.9609375 -0.339844,1.87500002 -0.867188,1.87500002 -0.03516,0 -0.28125,0 -0.46875,-0.1875 0.457031,-0.023437 0.539063,-0.3867188 0.539063,-0.5390625 0,-0.22265627 -0.175782,-0.33984377 -0.363282,-0.33984377 -0.257812,0 -0.550781,0.2109375 -0.550781,0.59765627 0,0.4453125 0.433594,0.6796875 0.84375,0.6796875 0.550781,0 0.949219,-0.5859375 1.125,-0.9609375 0.328125,-0.63281252 0.550781,-1.83984377 0.5625,-1.91015627 z m 0,0"
         style="fill:#eb0a36;fill-opacity:1;fill-rule:nonzero;stroke:none" />
      <path
         id="path14"
         d="m 25.734625,-2.9365 c 0,-0.1875 -0.01172,-0.1992187 -0.210938,-0.1992187 -0.445312,0.4335937 -1.078125,0.4453125 -1.359375,0.4453125 v 0.2460937 c 0.164063,0 0.621094,0 1.007813,-0.1875 v 3.55078125 c 0,0.23437505 0,0.32812505 -0.691406,0.32812505 h -0.269532 v 0.2460937 c 0.128907,-0.011719 0.984375,-0.023437 1.242188,-0.023437 0.210937,0 1.089844,0.011719 1.242187,0.023437 V 1.2470938 H 26.43775 c -0.703125,0 -0.703125,-0.09375 -0.703125,-0.32812505 z m 0,0"
         style="fill:#eb0a36;fill-opacity:1;fill-rule:nonzero;stroke:none" />
      <path
         id="path15"
         d="m 31.166266,2.3896719 c 0,-0.035156 0,-0.046875 -0.164063,-0.2226563 -1.242187,-1.25390622 -1.570312,-3.12890622 -1.570312,-4.6640625 0,-1.7226562 0.386718,-3.4570312 1.605468,-4.7109375 0.128907,-0.1171875 0.128907,-0.1289062 0.128907,-0.1640625 0,-0.070312 -0.03516,-0.1054687 -0.09375,-0.1054687 -0.105469,0 -0.996094,0.6796875 -1.582032,1.9453125 -0.515625,1.1015625 -0.632812,2.203125 -0.632812,3.0351562 0,0.7851563 0.117187,1.99218753 0.65625,3.11718753 0.597656,1.21874997 1.453125,1.87499997 1.558594,1.87499997 0.05859,0 0.09375,-0.035156 0.09375,-0.1054687 z m 0,0"
         style="fill:#eb0a36;fill-opacity:1;fill-rule:nonzero;stroke:none" />
      <path
         id="path16"
         d="m 35.074469,-3.0126719 c 0.05859,-0.2578125 0.292968,-1.171875 0.984375,-1.171875 0.04687,0 0.292968,0 0.503906,0.1289063 -0.28125,0.046875 -0.480469,0.3046875 -0.480469,0.5390625 0,0.1640625 0.105469,0.3515625 0.375,0.3515625 0.222656,0 0.539063,-0.1875 0.539063,-0.5859375 0,-0.515625 -0.585938,-0.65625 -0.925782,-0.65625 -0.574218,0 -0.925781,0.5273437 -1.042968,0.7617187 -0.257813,-0.65625 -0.785157,-0.7617187 -1.078125,-0.7617187 -1.042969,0 -1.605469,1.2890625 -1.605469,1.5351562 0,0.1054688 0.105469,0.1054688 0.117187,0.1054688 0.08203,0 0.117188,-0.023437 0.128907,-0.1171875 0.339843,-1.0546875 0.996093,-1.3007813 1.335937,-1.3007813 0.1875,0 0.539063,0.09375 0.539063,0.6679688 0,0.3046875 -0.164063,0.9726562 -0.539063,2.3671875 -0.152344,0.62109373 -0.503906,1.04296873 -0.949219,1.04296873 -0.05859,0 -0.28125,0 -0.492187,-0.12890625 0.246094,-0.0585937 0.46875,-0.26953125 0.46875,-0.5390625 0,-0.26953128 -0.222656,-0.35156248 -0.375,-0.35156248 -0.292969,0 -0.539063,0.25781248 -0.539063,0.57421873 0,0.45703125 0.492188,0.65625 0.9375,0.65625 0.65625,0 1.007813,-0.69140625 1.042969,-0.75 0.117188,0.36328125 0.480469,0.75 1.078125,0.75 1.019531,0 1.59375,-1.27734373 1.59375,-1.53515623 0,-0.09375 -0.09375,-0.09375 -0.128906,-0.09375 -0.08203,0 -0.105469,0.035156 -0.128906,0.1054687 -0.328125,1.06640628 -0.996094,1.31250003 -1.324219,1.31250003 -0.386719,0 -0.539063,-0.328125 -0.539063,-0.65625 0,-0.22265625 0.05859,-0.44531253 0.164063,-0.87890623 z m 0,0"
         style="fill:#eb0a36;fill-opacity:1;fill-rule:nonzero;stroke:none" />
      <path
         id="path17"
         d="m 40.321539,-2.4970469 c 0,-0.7734375 -0.117187,-1.9804687 -0.65625,-3.1054687 -0.597656,-1.21875 -1.464844,-1.875 -1.558594,-1.875 -0.05859,0 -0.105468,0.046875 -0.105468,0.1054687 0,0.035156 0,0.046875 0.199218,0.234375 0.972657,0.984375 1.535157,2.5664063 1.535157,4.640625 0,1.71093753 -0.363282,3.45703128 -1.59375,4.7226563 -0.140625,0.1171875 -0.140625,0.1289062 -0.140625,0.1640625 0,0.058594 0.04687,0.1054687 0.105468,0.1054687 0.09375,0 0.996094,-0.6796875 1.582032,-1.94531247 0.503906,-1.1015625 0.632812,-2.20312503 0.632812,-3.04687503 z m 0,0"
         style="fill:#eb0a36;fill-opacity:1;fill-rule:nonzero;stroke:none" />
    </g>
    <path
       id="path18"
       d="M 1.2643828,-0.76234375 2.3190703,-1.7935937 c 1.5585938,-1.3710938 2.15625,-1.9101563 2.15625,-2.90625 0,-1.1367188 -0.9023437,-1.9335938 -2.1210937,-1.9335938 -1.125,0 -1.85156254,0.9140625 -1.85156254,1.8046875 0,0.5507813 0.4921875,0.5507813 0.52734374,0.5507813 0.1640625,0 0.515625,-0.1171875 0.515625,-0.5273438 0,-0.2578125 -0.1875,-0.515625 -0.5273437,-0.515625 -0.0820313,0 -0.10546879,0 -0.12890629,0.011719 C 1.1120391,-5.95375 1.6511016,-6.32875 2.2253203,-6.32875 c 0.9140625,0 1.3359375,0.8085938 1.3359375,1.6289063 0,0.796875 -0.4921875,1.5820312 -1.0429687,2.203125 L 0.60813281,-0.36390625 C 0.50266406,-0.2584375 0.50266406,-0.235 0.50266406,-6.25e-4 H 4.1940703 L 4.4753203,-1.735 H 4.2175078 c -0.046875,0.3046875 -0.1171875,0.73828125 -0.2109375,0.890625 -0.070312,0.0820313 -0.7265625,0.0820313 -0.9492187,0.0820313 z m 0,0"
       style="fill:#000000;fill-opacity:1;fill-rule:nonzero;stroke:none"
       aria-label="2"
       transform="matrix(1.3333333,0,0,1.3333333,241.404,218.31333)" />
    <path
       id="path19"
       d="m 2.8953672,-3.5039844 c 0.8085937,-0.2695312 1.3945312,-0.9726562 1.3945312,-1.7578125 0,-0.8203125 -0.8789062,-1.3710937 -1.8398437,-1.3710937 -1.0078125,0 -1.75781251,0.5976562 -1.75781251,1.3476562 0,0.3398438 0.2109375,0.5273438 0.50390621,0.5273438 0.3046875,0 0.5039063,-0.2226563 0.5039063,-0.515625 0,-0.4921875 -0.46875,-0.4921875 -0.609375,-0.4921875 0.3046875,-0.4921875 0.9609375,-0.6210938 1.3242187,-0.6210938 0.4101563,0 0.9492188,0.2226563 0.9492188,1.1132813 0,0.1289062 -0.011719,0.703125 -0.2695313,1.1367187 -0.3046875,0.4804688 -0.6445312,0.515625 -0.890625,0.515625 -0.082031,0.011719 -0.3164062,0.035156 -0.3867187,0.035156 -0.082031,0.011719 -0.1523438,0.023437 -0.1523438,0.1171875 0,0.1171875 0.070312,0.1171875 0.234375,0.1171875 h 0.4453125 c 0.8085938,0 1.1835938,0.6679687 1.1835938,1.6523437 0,1.34765628 -0.6914063,1.64062503 -1.125,1.64062503 -0.4335938,0 -1.171875,-0.17578125 -1.52343751,-0.76171875 0.35156251,0.0585938 0.65625001,-0.1640625 0.65625001,-0.53906248 0,-0.3632813 -0.2695313,-0.5625 -0.56250001,-0.5625 -0.234375,0 -0.55078125,0.140625 -0.55078125,0.5742187 0,0.91406253 0.92578126,1.57031253 2.00390626,1.57031253 1.21875,0 2.1210937,-0.9140625 2.1210937,-1.92187503 0,-0.8203125 -0.6210937,-1.59375 -1.6523437,-1.8046872 z m 0,0"
       style="fill:#000000;fill-opacity:1;fill-rule:nonzero;stroke:none"
       aria-label="3"
       transform="matrix(1.3333333,0,0,1.3333333,195.17467,152.22667)" />
    <path
       id="path20"
       d="M 28.3468,-1.4174 V 1.4174"
       style="fill:none;stroke:#000000;stroke-width:0.3985;stroke-linecap:butt;stroke-linejoin:miter;stroke-miterlimit:10;stroke-dasharray:none;stroke-opacity:1"
       transform="matrix(1.3333333,0,0,-1.3333333,206.92933,204.64)" />
    <path
       id="path21"
       d="M -1.4174,42.5202 H 1.4174"
       style="fill:none;stroke:#000000;stroke-width:0.3985;stroke-linecap:butt;stroke-linejoin:miter;stroke-miterlimit:10;stroke-dasharray:none;stroke-opacity:1"
       transform="matrix(1.3333333,0,0,-1.3333333,206.92933,204.64)" />
  </g>
</svg>
