<?xml version="1.0" encoding="UTF-8" standalone="no"?>
<!-- Created with Inkscape (http://www.inkscape.org/) -->

<svg
   version="1.1"
   id="svg1"
   width="286.98343"
   height="224.91272"
   viewBox="0 0 286.98343 224.91272"
   sodipodi:docname="2.6-ejemplo-asintotas.svg"
   inkscape:version="1.4.2 (f4327f4, 2025-05-13)"
   xmlns:inkscape="http://www.inkscape.org/namespaces/inkscape"
   xmlns:sodipodi="http://sodipodi.sourceforge.net/DTD/sodipodi-0.dtd"
   xmlns="http://www.w3.org/2000/svg"
   xmlns:svg="http://www.w3.org/2000/svg">
  <defs
     id="defs1" />
  <sodipodi:namedview
     id="namedview1"
     pagecolor="#ffffff"
     bordercolor="#000000"
     borderopacity="0.25"
     inkscape:showpageshadow="2"
     inkscape:pageopacity="0.0"
     inkscape:pagecheckerboard="0"
     inkscape:deskcolor="#d1d1d1"
     inkscape:zoom="2.2241536"
     inkscape:cx="146.34781"
     inkscape:cy="122.51852"
     inkscape:window-width="1920"
     inkscape:window-height="1009"
     inkscape:window-x="-8"
     inkscape:window-y="-8"
     inkscape:window-maximized="1"
     inkscape:current-layer="g1">
    <inkscape:page
       x="0"
       y="0"
       inkscape:label="27"
       id="page1"
       width="286.98343"
       height="224.91272"
       margin="0"
       bleed="0" />
  </sodipodi:namedview>
  <g
     id="g1"
     inkscape:groupmode="layer"
     inkscape:label="27"
     transform="translate(-95.78611,-58.832031)">
    <path
       id="path2"
       d="M -85.04042,0 H 127.10236"
       style="fill:none;stroke:#000000;stroke-width:0.3985;stroke-linecap:butt;stroke-linejoin:miter;stroke-miterlimit:10;stroke-dasharray:none;stroke-opacity:1"
       transform="matrix(1.3333333,0,0,-1.3333333,209.17333,195.836)" />
    <path
       id="path3"
       d="M -1.19551,1.59401 C -1.09587,0.99626 0,0.09961 0.29886,0 0,-0.09961 -1.09587,-0.99626 -1.19551,-1.59401"
       style="fill:none;stroke:#000000;stroke-width:0.31879;stroke-linecap:round;stroke-linejoin:round;stroke-miterlimit:10;stroke-dasharray:none;stroke-opacity:1"
       transform="matrix(1.3333333,0,0,-1.3333333,378.64315,195.836)" />
    <path
       id="path4"
       d="m 3.6457734,-3.2937656 c 0.070312,-0.28125 0.3164063,-1.2890625 1.078125,-1.2890625 0.058594,0 0.3164063,0 0.5507813,0.140625 -0.3046875,0.058594 -0.5273438,0.328125 -0.5273438,0.5859375 0,0.1757812 0.1171875,0.3867187 0.4101563,0.3867187 0.2460937,0 0.5976562,-0.1992187 0.5976562,-0.6328125 0,-0.5625 -0.6445312,-0.7265625 -1.0195312,-0.7265625 -0.6328125,0 -1.0195313,0.5859375 -1.1484375,0.8320313 -0.2695313,-0.7148438 -0.8554688,-0.8320313 -1.171875,-0.8320313 -1.1367188,0 -1.75781251,1.4179688 -1.75781251,1.6875 0,0.1054688 0.10546875,0.1054688 0.12890625,0.1054688 0.0820313,0 0.1171875,-0.023437 0.140625,-0.1171875 0.37499996,-1.1601563 1.08984376,-1.4296875 1.46484376,-1.4296875 0.2109375,0 0.5859375,0.09375 0.5859375,0.7265625 0,0.3398437 -0.1875,1.078125 -0.5859375,2.6015625 -0.1757813,0.67968748 -0.5625,1.13671873 -1.0429688,1.13671873 -0.058594,0 -0.3164062,0 -0.53906246,-0.140625 0.26953126,-0.0585938 0.51562496,-0.29296875 0.51562496,-0.59765625 0,-0.29296878 -0.2460937,-0.37499998 -0.41015621,-0.37499998 -0.328125,0 -0.59765625,0.28124998 -0.59765625,0.63281248 0,0.50390625 0.55078125,0.71484375 1.03124996,0.71484375 0.7148438,0 1.1015625,-0.76171875 1.1367188,-0.83203125 0.1289062,0.41015625 0.5273437,0.83203125 1.1835937,0.83203125 1.125,0 1.7460938,-1.40625003 1.7460938,-1.67578123 0,-0.1054688 -0.1054688,-0.1054688 -0.1289063,-0.1054688 -0.1054687,0 -0.1289062,0.035156 -0.140625,0.1171875 -0.3632812,1.16015628 -1.1132812,1.42968753 -1.453125,1.42968753 -0.4335937,0 -0.609375,-0.3515625 -0.609375,-0.7265625 0,-0.23437503 0.070312,-0.48046873 0.1875,-0.96093753 z m 0,0"
       style="fill:#000000;fill-opacity:1;fill-rule:nonzero;stroke:none"
       aria-label="x"
       transform="matrix(1.3333333,0,0,1.3333333,375.096,207.212)" />
    <path
       id="path5"
       d="M 0,-63.7803 V 98.75554"
       style="fill:none;stroke:#000000;stroke-width:0.3985;stroke-linecap:butt;stroke-linejoin:miter;stroke-miterlimit:10;stroke-dasharray:none;stroke-opacity:1"
       transform="matrix(1.3333333,0,0,-1.3333333,209.17333,195.836)" />
    <path
       id="path6"
       d="M -1.19551,1.59401 C -1.09587,0.99626 0,0.09961 0.29886,0 0,-0.09961 -1.09587,-0.99626 -1.19551,-1.59401"
       style="fill:none;stroke:#000000;stroke-width:0.31879;stroke-linecap:round;stroke-linejoin:round;stroke-miterlimit:10;stroke-dasharray:none;stroke-opacity:1"
       transform="matrix(0,-1.3333333,-1.3333333,0,209.17333,64.161947)" />
    <path
       id="path7"
       d="m 5.2965625,-4.1600078 c 0.046875,-0.1523438 0.046875,-0.1757813 0.046875,-0.2460938 0,-0.1992187 -0.1523438,-0.2929687 -0.3164063,-0.2929687 -0.1054687,0 -0.28125,0.058594 -0.375,0.2226562 -0.023437,0.058594 -0.1171875,0.3984375 -0.1523437,0.5976563 -0.082031,0.28125 -0.1523438,0.5742187 -0.2226563,0.8671875 l -0.4921875,1.96875 c -0.046875,0.16406249 -0.515625,0.92578124 -1.2304687,0.92578124 -0.5625,0 -0.6796875,-0.48046875 -0.6796875,-0.89062504 0,-0.4921875 0.1875,-1.171875 0.5625,-2.1328125 0.1757812,-0.4453125 0.2109375,-0.5742187 0.2109375,-0.7851562 0,-0.4921875 -0.3515625,-0.9023438 -0.890625,-0.9023438 -1.04296875,0 -1.44140625,1.5820313 -1.44140625,1.6875 0,0.1054688 0.10546875,0.1054688 0.12890625,0.1054688 0.10546875,0 0.1171875,-0.023437 0.17578125,-0.1992188 C 0.91375,-4.2537578 1.3473437,-4.5818828 1.7223437,-4.5818828 c 0.09375,0 0.2695313,0 0.2695313,0.3515625 0,0.2695312 -0.1054688,0.5507812 -0.1757813,0.7617187 -0.4453125,1.1601563 -0.6328125,1.78125 -0.6328125,2.2851563 0,0.97265624 0.6796875,1.30078124 1.3242188,1.30078124 0.421875,0 0.796875,-0.1875 1.1015625,-0.4921875 -0.140625,0.57421875 -0.2695313,1.1015625 -0.703125,1.68749996 -0.2929688,0.3632813 -0.703125,0.6796875 -1.2070313,0.6796875 -0.1523437,0 -0.6445312,-0.023437 -0.8320312,-0.4570312 0.1757812,0 0.3164062,0 0.4804687,-0.1289063 0.1054688,-0.09375 0.2109375,-0.234375 0.2109375,-0.44531246 0,-0.33984375 -0.2929687,-0.38671875 -0.3984375,-0.38671875 -0.25781245,0 -0.60937495,0.17578125 -0.60937495,0.71484371 0,0.5390625 0.48046875,0.9492188 1.14843745,0.9492188 1.125,0 2.25,-0.9960938 2.5546875,-2.22656251 z m 0,0"
       style="fill:#000000;fill-opacity:1;fill-rule:nonzero;stroke:none"
       aria-label="y"
       transform="matrix(1.3333333,0,0,1.3333333,196.40667,65.269333)" />
    <path
       id="path8"
       d="M -77.95372,-6.6615 H 120.47392"
       style="fill:none;stroke:#0000ff;stroke-width:0.79701;stroke-linecap:butt;stroke-linejoin:miter;stroke-miterlimit:10;stroke-dasharray:2.98883, 2.98883;stroke-dashoffset:0;stroke-opacity:0.5"
       transform="matrix(1.3333333,0,0,-1.3333333,209.17333,195.836)" />
    <path
       id="path9"
       d="M -77.95372,6.6615 H 120.47392"
       style="fill:none;stroke:#0000ff;stroke-width:0.79701;stroke-linecap:butt;stroke-linejoin:miter;stroke-miterlimit:10;stroke-dasharray:2.98883, 2.98883;stroke-dashoffset:0;stroke-opacity:0.5"
       transform="matrix(1.3333333,0,0,-1.3333333,209.17333,195.836)" />
    <path
       id="path10"
       d="M 23.52788,-56.69362 V 85.04042"
       style="fill:none;stroke:#ec008c;stroke-width:0.79701;stroke-linecap:butt;stroke-linejoin:miter;stroke-miterlimit:10;stroke-dasharray:2.98883, 2.98883;stroke-dashoffset:0;stroke-opacity:0.5"
       transform="matrix(1.3333333,0,0,-1.3333333,209.17333,195.836)" />
    <path
       id="path11"
       d="m -70.867,-5.06046 c 0,0 0.6722,0.01104 0.93039,0.01536 0.25817,0.00431 0.67221,0.01136 0.93038,0.01577 0.25818,0.00441 0.67222,0.01151 0.93039,0.01601 0.25818,0.0045 0.6722,0.01187 0.93038,0.01643 0.25818,0.00457 0.67222,0.01177 0.93039,0.01644 0.25817,0.00468 0.67222,0.01254 0.93039,0.0173 0.25818,0.00478 0.67222,0.01227 0.9304,0.01709 0.25816,0.00484 0.67221,0.01276 0.93039,0.01775 0.25818,0.00495 0.67221,0.01307 0.93039,0.01815 0.25818,0.00507 0.67221,0.01326 0.93039,0.01839 0.25818,0.00513 0.6722,0.01332 0.93037,0.0186 0.25818,0.00528 0.67223,0.0141 0.93039,0.01946 0.25818,0.00537 0.67223,0.01379 0.93039,0.01925 0.25818,0.00545 0.67223,0.01447 0.93041,0.02011 0.25816,0.00563 0.67221,0.01485 0.93039,0.02055 0.25816,0.0057 0.67221,0.0147 0.93039,0.02055 0.25817,0.00584 0.67219,0.01559 0.93037,0.02162 0.25818,0.00603 0.67221,0.01568 0.93039,0.02185 0.25818,0.00613 0.67221,0.01625 0.93039,0.02248 0.25818,0.00625 0.67222,0.01614 0.93039,0.0225 0.25818,0.00635 0.67223,0.01682 0.9304,0.02335 0.25817,0.00655 0.67221,0.01716 0.93039,0.02379 0.25817,0.00663 0.67221,0.01719 0.93039,0.024 0.25818,0.00682 0.6722,0.01808 0.93038,0.0251 0.25817,0.00702 0.67221,0.01836 0.93039,0.02551 0.25818,0.00717 0.67221,0.01885 0.93038,0.02618 0.25818,0.00731 0.67223,0.01911 0.9304,0.0266 0.25817,0.00749 0.67222,0.01977 0.93038,0.02745 0.25818,0.00769 0.67223,0.02007 0.93041,0.02791 0.25816,0.00783 0.67221,0.02051 0.93039,0.02855 0.25818,0.00804 0.67219,0.0211 0.93037,0.0294 0.25818,0.00832 0.67221,0.02202 0.93039,0.0305 0.25818,0.0085 0.67221,0.02206 0.93039,0.03071 0.25818,0.00866 0.67223,0.02285 0.93039,0.03179 0.25818,0.00893 0.67223,0.02352 0.93039,0.03267 0.25818,0.00914 0.67223,0.02395 0.9304,0.0333 0.25817,0.00935 0.6722,0.02453 0.93038,0.03416 0.25816,0.00965 0.67221,0.02539 0.93039,0.03525 0.25818,0.00988 0.67221,0.0258 0.93039,0.03592 0.25818,0.0101 0.67221,0.0266 0.93039,0.03697 0.25818,0.01038 0.67222,0.02715 0.93039,0.03784 0.25817,0.01073 0.67222,0.02839 0.93039,0.03937 0.25817,0.01098 0.67222,0.02858 0.9304,0.0398 0.25816,0.01121 0.6722,0.02954 0.93037,0.04109 0.25817,0.01153 0.67221,0.03032 0.93039,0.04217 0.25818,0.01186 0.67221,0.0311 0.9304,0.04325 0.25817,0.01214 0.6722,0.03183 0.93038,0.04434 0.25818,0.01251 0.67222,0.03294 0.93039,0.04585 0.25818,0.0129 0.67223,0.03395 0.93039,0.04714 0.25818,0.0132 0.67223,0.03454 0.93041,0.04802 0.25816,0.01345 0.67219,0.03526 0.93037,0.0491 0.25816,0.01381 0.67221,0.03638 0.93039,0.0506 0.25818,0.01422 0.67221,0.03738 0.93039,0.05189 0.25818,0.01453 0.67221,0.03792 0.93039,0.05277 0.25818,0.01486 0.67221,0.03912 0.93039,0.05429 0.25818,0.01518 0.67222,0.03969 0.93039,0.05516 0.25818,0.01544 0.67222,0.04048 0.93039,0.05623 0.25818,0.01574 0.67221,0.04132 0.93039,0.05731 0.25816,0.01599 0.67221,0.04185 0.93039,0.05795 0.25817,0.01612 0.67221,0.04198 0.93038,0.05817 0.25818,0.0162 0.67222,0.04233 0.93039,0.05862 0.25818,0.01628 0.67221,0.0426 0.93039,0.05883 0.25818,0.01623 0.67223,0.0422 0.93039,0.05816 0.25818,0.01598 0.67221,0.04135 0.93038,0.0569 0.25818,0.01554 0.67222,0.04021 0.9304,0.05513 0.25817,0.01494 0.67221,0.03853 0.93039,0.05255 0.25816,0.01406 0.67221,0.03595 0.93039,0.04866 0.25818,0.01273 0.67221,0.03206 0.93039,0.04305 0.25818,0.01097 0.67221,0.0273 0.93039,0.03612 0.25818,0.00882 0.67221,0.0215 0.93039,0.02746 0.25818,0.00597 0.67221,0.01322 0.93037,0.01557 0.25818,0.00238 0.67223,0.00349 0.93041,0.00152 0.25816,-0.00198 0.67221,-0.00847 0.93038,-0.01579 0.25817,-0.00731 0.67222,-0.02324 0.9304,-0.03697 0.25817,-0.01375 0.6722,-0.04093 0.93039,-0.06208 0.25817,-0.02116 0.67221,-0.06078 0.93039,-0.0904 0.25814,-0.02962 0.67218,-0.08381 0.93035,-0.12307 0.25818,-0.03923 0.67221,-0.10995 0.93038,-0.15981 0.25818,-0.04987 0.67222,-0.138 0.93039,-0.19962 0.25818,-0.06163 0.67222,-0.16991 0.9304,-0.2446 0.25817,-0.07468 0.67221,-0.20473 0.93039,-0.2937 0.25818,-0.08896 0.67221,-0.24275 0.93039,-0.34754 0.25818,-0.10478 0.67221,-0.28521 0.93039,-0.40767 0.25818,-0.12245 0.67221,-0.33233 0.93039,-0.47493 0.25818,-0.14259 0.67221,-0.38693 0.93037,-0.55278 0.25818,-0.16584 0.67223,-0.4497 0.93039,-0.64253 0.25818,-0.19283 0.67223,-0.52221 0.93041,-0.74721 0.25816,-0.22499 0.67221,-0.61044 0.93039,-0.87439 0.25816,-0.26393 0.67221,-0.71591 0.93038,-1.02792 0.25819,-0.312 0.67222,-0.8483 0.9304,-1.22082 0.25817,-0.37255 0.67219,-1.01325 0.93037,-1.46415 0.25818,-0.45092 0.67221,-1.2308 0.93039,-1.78573 0.25818,-0.55495 0.67223,-1.51642 0.93039,-2.21396 0.25818,-0.69753 0.67223,-1.91158 0.9304,-2.81343 0.25817,-0.90186 0.67221,-2.47752 0.93039,-3.68652 0.25816,-1.20902 0.67221,-3.3248 0.93039,-5.02718 0.25818,-1.70238 0.67221,-4.66506 0.93039,-7.24242 0.25818,-2.57734 0.6722,-6.95604 0.93038,-11.33336 0.25817,-4.37732 0.93039,-20.2153 0.93039,-20.2153"
       style="fill:none;stroke:#eb0a36;stroke-width:0.79701;stroke-linecap:butt;stroke-linejoin:miter;stroke-miterlimit:10;stroke-dasharray:none;stroke-opacity:1"
       transform="matrix(1.3333333,0,0,-1.3333333,209.17333,195.836)" />
    <path
       id="path12"
       d="m 25.79568,85.06787 c 0,0 0.63924,-17.89381 0.88476,-22.80122 0.24551,-4.90743 0.63925,-9.72031 0.88475,-12.56804 0.24551,-2.84775 0.63925,-6.09134 0.88476,-7.95654 0.24552,-1.86521 0.63925,-4.16858 0.88477,-5.48653 0.24551,-1.31796 0.63925,-3.03078 0.88475,-4.01244 0.24551,-0.98169 0.63925,-2.30294 0.88476,-3.0628 0.24552,-0.75987 0.63924,-1.80849 0.88475,-2.41379 0.24552,-0.6053 0.63924,-1.45538 0.88475,-1.94879 0.24552,-0.49341 0.63926,-1.19715 0.88477,-1.60732 0.24551,-0.41017 0.63924,-1.00245 0.88475,-1.34887 0.24551,-0.34639 0.63924,-0.85153 0.88475,-1.14774 0.24551,-0.29619 0.63925,-0.73074 0.88477,-0.98704 0.24549,-0.25632 0.63923,-0.6363 0.88475,-0.86033 0.24551,-0.22401 0.63923,-0.55744 0.88475,-0.75433 0.24551,-0.19691 0.63926,-0.49007 0.88478,-0.66482 0.2455,-0.17477 0.63923,-0.43825 0.88475,-0.59475 0.24551,-0.15648 0.63923,-0.39248 0.88475,-0.53309 0.24551,-0.14061 0.63925,-0.35335 0.88475,-0.48033 0.24551,-0.12699 0.63925,-0.31948 0.88476,-0.43493 0.24552,-0.11543 0.63924,-0.29177 0.88475,-0.39706 0.24552,-0.10529 0.63926,-0.26553 0.88475,-0.36181 0.24552,-0.0963 0.63926,-0.24369 0.88477,-0.3322 0.24551,-0.0885 0.63924,-0.22416 0.88475,-0.3058 0.24552,-0.08164 0.63924,-0.20711 0.88475,-0.28268 0.24551,-0.07554 0.63925,-0.19177 0.88477,-0.2619 0.24551,-0.07011 0.63923,-0.17834 0.88475,-0.24351 0.24551,-0.06517 0.63925,-0.16554 0.88476,-0.22623 0.24552,-0.06067 0.63925,-0.15423 0.88477,-0.21106 0.2455,-0.05684 0.63923,-0.14519 0.88475,-0.19853 0.24551,-0.05336 0.63923,-0.13606 0.88475,-0.18601 0.24552,-0.04992 0.63925,-0.12688 0.88476,-0.17387 0.2455,-0.047 0.63924,-0.12039 0.88476,-0.16479 0.24551,-0.04441 0.63923,-0.11367 0.88475,-0.15529 0.24551,-0.04161 0.63925,-0.10538 0.88475,-0.14467 0.24551,-0.03932 0.63925,-0.10121 0.88476,-0.13864 0.24552,-0.03745 0.63924,-0.09584 0.88475,-0.13127 0.24552,-0.03545 0.63925,-0.09057 0.88475,-0.12415 0.24552,-0.03357 0.63927,-0.0859 0.88478,-0.11786 0.24552,-0.03195 0.63924,-0.08203 0.88476,-0.11246 0.2455,-0.03042 0.63923,-0.07788 0.88474,-0.10684 0.24552,-0.02894 0.63926,-0.07417 0.88477,-0.10185 0.24551,-0.02771 0.63924,-0.0713 0.88475,-0.09776 0.24551,-0.02648 0.63924,-0.0678 0.88475,-0.09301 0.24551,-0.02519 0.63925,-0.06454 0.88477,-0.08866 0.24549,-0.02413 0.63923,-0.062 0.88475,-0.08521 0.24551,-0.02322 0.63923,-0.05995 0.88475,-0.08218 0.24551,-0.02224 0.63925,-0.05681 0.88476,-0.07808 0.2455,-0.02127 0.63924,-0.05486 0.88475,-0.07526 0.24551,-0.0204 0.63924,-0.05218 0.88475,-0.07181 0.24552,-0.0196 0.63927,-0.05069 0.88477,-0.06964 0.24551,-0.01892 0.63925,-0.04868 0.88476,-0.06682 0.24552,-0.01816 0.63924,-0.04646 0.88475,-0.06402 0.24552,-0.01754 0.63926,-0.04555 0.88475,-0.06249 C 72.93329,9.9738 73.32703,9.94734 73.57254,9.93105 73.81805,9.91476 74.21178,9.88904 74.45729,9.8733 74.7028,9.85759 75.09653,9.8329 75.34204,9.81773 75.58755,9.80255 75.9813,9.77853 76.2268,9.76389 76.47232,9.74925 76.86604,9.72635 77.11156,9.71219 77.35707,9.69803 77.7508,9.67555 77.9963,9.6618 78.24182,9.64807 78.63556,9.62634 78.88107,9.61314 79.12657,9.59995 79.52032,9.57942 79.76584,9.56665 80.01135,9.55388 80.40508,9.53346 80.65059,9.52101 80.8961,9.50856 81.28984,9.48898 81.53535,9.47688 81.78085,9.4648 82.17459,9.44556 82.4201,9.43385 82.66562,9.42216 83.05934,9.40385 83.30486,9.39255 83.55037,9.38124 83.9441,9.36336 84.1896,9.35233 84.43512,9.3413 84.82886,9.32367 85.07437,9.31297 85.31989,9.30225 85.71361,9.28548 85.95912,9.27512 86.20464,9.26472 86.59837,9.24823 86.84387,9.23813 87.08939,9.22801 87.48312,9.21204 87.72864,9.20224 87.97415,9.19243 88.36787,9.17696 88.61339,9.1674 88.8589,9.15788 89.25262,9.14275 89.49814,9.13347 89.74365,9.12416 90.1374,9.10942 90.38292,9.10037 90.62843,9.09131 91.02216,9.07695 91.26767,9.06815 91.51318,9.05933 91.9069,9.04535 92.15242,9.03677 92.39793,9.0282 92.79167,9.01463 93.03719,9.0063 93.28268,8.99796 93.67642,8.98482 93.92194,8.97667 94.16745,8.9685 94.56117,8.95541 94.80669,8.94746 95.0522,8.93951 95.44594,8.92712 95.69145,8.91936 95.93695,8.91159 96.33069,8.89903 96.5762,8.89145 96.82172,8.88387 97.21544,8.87202 97.46095,8.86462 97.70647,8.85725 98.1002,8.84541 98.3457,8.83826 c 0.24552,-0.00717 0.63925,-0.0183 0.88477,-0.02532 0.24551,-0.007 0.63925,-0.0184 0.88476,-0.0253 0.24552,-0.00689 0.63926,-0.01771 0.88475,-0.02444 0.24552,-0.00672 0.63926,-0.01737 0.88477,-0.024 0.24551,-0.00663 0.63924,-0.01741 0.88475,-0.02379 0.24551,-0.00638 0.63924,-0.01607 0.88475,-0.02228 0.24552,-0.00621 0.63925,-0.01637 0.88477,-0.02249 0.24551,-0.00612 0.63923,-0.01563 0.88475,-0.02162 0.24551,-0.006 0.63923,-0.01576 0.88475,-0.02162 0.24551,-0.0059 0.63925,-0.01502 0.88476,-0.02077 0.2455,-0.00575 0.63924,-0.01511 0.88475,-0.02077 0.24552,-0.00568 0.63924,-0.0146 0.88475,-0.02011 0.24552,-0.00552 0.63926,-0.01431 0.88477,-0.01968 0.2455,-0.00536 0.63925,-0.01378 0.88477,-0.01903 0.24551,-0.00525 0.63923,-0.01366 0.88475,-0.01882 0.24551,-0.00515 0.63925,-0.01338 0.88475,-0.01838 0.24551,-0.00502 0.88476,-0.01774 0.88476,-0.01774"
       style="fill:none;stroke:#eb0a36;stroke-width:0.79701;stroke-linecap:butt;stroke-linejoin:miter;stroke-miterlimit:10;stroke-dasharray:none;stroke-opacity:1"
       transform="matrix(1.3333333,0,0,-1.3333333,209.17333,195.836)" />
    <g
       id="g12"
       aria-label="y=f(x)"
       transform="matrix(1.3333333,0,0,1.3333333,259.48533,142.464)">
      <path
         id="path13"
         d="M 4.839125,-3.7962422 C 4.886,-3.9368672 4.886,-3.9485859 4.886,-4.0188984 c 0,-0.1875 -0.140625,-0.2695313 -0.2929688,-0.2695313 -0.1054687,0 -0.2578125,0.058594 -0.3515625,0.1992188 -0.023437,0.058594 -0.09375,0.3632812 -0.140625,0.5390625 -0.070312,0.2578125 -0.140625,0.5273437 -0.1992187,0.796875 l -0.4453125,1.79296871 c -0.035156,0.15234375 -0.46875,0.85546875 -1.125,0.85546875 -0.5039063,0 -0.6210938,-0.4453125 -0.6210938,-0.80859375 0,-0.45703121 0.1757813,-1.07812501 0.515625,-1.95703121 0.1523438,-0.4101563 0.1992188,-0.515625 0.1992188,-0.7148438 0,-0.4453125 -0.328125,-0.8203125 -0.8203125,-0.8203125 -0.94921875,0 -1.3125,1.453125 -1.3125,1.5351563 0,0.1054687 0.09375,0.1054687 0.1171875,0.1054687 0.09375,0 0.10546875,-0.023437 0.15234375,-0.1875 0.26953125,-0.9375 0.66796875,-1.2304687 1.00781245,-1.2304687 0.082031,0 0.2578125,0 0.2578125,0.3164062 0,0.2460938 -0.1054687,0.515625 -0.1757812,0.703125 -0.3984375,1.0546875 -0.5742188,1.6171875 -0.5742188,2.0859375 0,0.89062501 0.6210938,1.18359376 1.21875,1.18359376 0.3867188,0 0.7265625,-0.1640625 0.9960938,-0.4453125 C 3.1633437,0.17641406 3.0461562,0.66860156 2.6477187,1.1959453 2.3899062,1.5357891 2.0149062,1.8287578 1.557875,1.8287578 c -0.140625,0 -0.59765625,-0.035156 -0.76171875,-0.421875 0.1640625,0 0.29296875,0 0.43359375,-0.1171875 0.09375,-0.09375 0.1992187,-0.2226562 0.1992187,-0.41015624 0,-0.31640625 -0.2695312,-0.3515625 -0.375,-0.3515625 -0.2226562,0 -0.5507812,0.1640625 -0.5507812,0.64453124 0,0.5039063 0.43359375,0.8671875 1.0546875,0.8671875 1.0195312,0 2.0507812,-0.9023437 2.3320312,-2.02734374 z m 0,0"
         style="fill:#eb0a36;fill-opacity:1;fill-rule:nonzero;stroke:none" />
      <path
         id="path14"
         d="m 14.855727,-3.2571797 c 0.152343,0 0.339843,0 0.339843,-0.1992187 0,-0.1992188 -0.1875,-0.1992188 -0.328125,-0.1992188 H 8.9026016 c -0.140625,0 -0.328125,0 -0.328125,0.1992188 0,0.1992187 0.1875,0.1992187 0.3398437,0.1992187 z m 0.01172,1.9335938 c 0.140625,0 0.328125,0 0.328125,-0.1992188 0,-0.1992187 -0.1875,-0.1992187 -0.339843,-0.1992187 H 8.9143203 c -0.1523437,0 -0.3398437,0 -0.3398437,0.1992187 0,0.1992188 0.1875,0.1992188 0.328125,0.1992188 z m 0,0"
         style="fill:#eb0a36;fill-opacity:1;fill-rule:nonzero;stroke:none" />
      <path
         id="path15"
         d="m 22.177016,-3.9837422 h 0.855468 c 0.199219,0 0.304688,0 0.304688,-0.1992187 0,-0.1054688 -0.105469,-0.1054688 -0.269531,-0.1054688 h -0.832032 l 0.210938,-1.1367187 c 0.03516,-0.2109375 0.175781,-0.9140625 0.234375,-1.0429688 0.09375,-0.1875 0.257812,-0.3398437 0.46875,-0.3398437 0.04687,0 0.304687,0 0.492187,0.1875 -0.433593,0.035156 -0.539062,0.3867187 -0.539062,0.5390625 0,0.2226562 0.175781,0.3398437 0.363281,0.3398437 0.269531,0 0.550781,-0.2109375 0.550781,-0.5976562 0,-0.4570313 -0.457031,-0.6796875 -0.867187,-0.6796875 -0.339844,0 -0.960938,0.1757812 -1.265625,1.1601562 -0.05859,0.2109375 -0.08203,0.3164063 -0.328125,1.5703125 h -0.679688 c -0.199218,0 -0.304687,0 -0.304687,0.1875 0,0.1171875 0.09375,0.1171875 0.28125,0.1171875 h 0.65625 l -0.75,3.93750001 c -0.175781,0.9609375 -0.339844,1.87499999 -0.867188,1.87499999 -0.03516,0 -0.28125,0 -0.46875,-0.1875 0.457032,-0.023437 0.539063,-0.3867187 0.539063,-0.5390625 0,-0.22265624 -0.175781,-0.33984374 -0.363281,-0.33984374 -0.257813,0 -0.550782,0.2109375 -0.550782,0.59765624 0,0.4453125 0.433594,0.6796875 0.84375,0.6796875 0.550782,0 0.949219,-0.5859375 1.125,-0.9609375 0.328125,-0.63281249 0.550782,-1.83984374 0.5625,-1.91015624 z m 0,0"
         style="fill:#eb0a36;fill-opacity:1;fill-rule:nonzero;stroke:none" />
      <path
         id="path16"
         d="m 27.766859,2.3912578 c 0,-0.035156 0,-0.046875 -0.164062,-0.2226562 -1.242188,-1.25390629 -1.570313,-3.12890629 -1.570313,-4.6640625 0,-1.7226563 0.386719,-3.4570313 1.605469,-4.7109375 0.128906,-0.1171875 0.128906,-0.1289063 0.128906,-0.1640625 0,-0.070312 -0.03516,-0.1054688 -0.09375,-0.1054688 -0.105468,0 -0.996093,0.6796875 -1.582031,1.9453125 -0.515625,1.1015625 -0.632812,2.203125 -0.632812,3.0351563 0,0.7851562 0.117187,1.99218746 0.65625,3.11718746 0.597656,1.21875004 1.453125,1.87500004 1.558593,1.87500004 0.05859,0 0.09375,-0.035156 0.09375,-0.1054688 z m 0,0"
         style="fill:#eb0a36;fill-opacity:1;fill-rule:nonzero;stroke:none" />
      <path
         id="path17"
         d="m 31.677992,-3.0110859 c 0.05859,-0.2578125 0.292969,-1.171875 0.984375,-1.171875 0.04687,0 0.292969,0 0.503906,0.1289062 -0.28125,0.046875 -0.480468,0.3046875 -0.480468,0.5390625 0,0.1640625 0.105468,0.3515625 0.375,0.3515625 0.222656,0 0.539062,-0.1875 0.539062,-0.5859375 0,-0.515625 -0.585937,-0.65625 -0.925781,-0.65625 -0.574219,0 -0.925781,0.5273438 -1.042969,0.7617188 -0.257812,-0.65625 -0.785156,-0.7617188 -1.078125,-0.7617188 -1.042969,0 -1.605469,1.2890625 -1.605469,1.5351563 0,0.1054687 0.105469,0.1054687 0.117188,0.1054687 0.08203,0 0.117187,-0.023437 0.128906,-0.1171875 0.339844,-1.0546875 0.996094,-1.3007812 1.335938,-1.3007812 0.1875,0 0.539062,0.09375 0.539062,0.6679687 0,0.3046875 -0.164062,0.9726563 -0.539062,2.3671875 -0.152344,0.62109376 -0.503907,1.04296876 -0.949219,1.04296876 -0.05859,0 -0.28125,0 -0.492188,-0.12890625 0.246094,-0.0585938 0.46875,-0.26953125 0.46875,-0.5390625 0,-0.26953121 -0.222656,-0.35156251 -0.375,-0.35156251 -0.292968,0 -0.539062,0.25781251 -0.539062,0.57421876 0,0.45703125 0.492187,0.65625 0.9375,0.65625 0.65625,0 1.007812,-0.69140625 1.042969,-0.75 0.117187,0.36328125 0.480468,0.75 1.078125,0.75 1.019531,0 1.59375,-1.27734376 1.59375,-1.53515626 0,-0.09375 -0.09375,-0.09375 -0.128907,-0.09375 -0.08203,0 -0.105468,0.035156 -0.128906,0.1054688 -0.328125,1.06640621 -0.996094,1.31249996 -1.324219,1.31249996 -0.386718,0 -0.539062,-0.328125 -0.539062,-0.65625 0,-0.22265625 0.05859,-0.44531246 0.164062,-0.87890626 z m 0,0"
         style="fill:#eb0a36;fill-opacity:1;fill-rule:nonzero;stroke:none" />
      <path
         id="path18"
         d="m 36.925062,-2.4954609 c 0,-0.7734375 -0.117187,-1.9804688 -0.65625,-3.1054688 -0.597656,-1.21875 -1.464843,-1.875 -1.558593,-1.875 -0.05859,0 -0.105469,0.046875 -0.105469,0.1054688 0,0.035156 0,0.046875 0.199219,0.234375 0.972656,0.984375 1.535156,2.5664062 1.535156,4.640625 0,1.71093746 -0.363281,3.45703121 -1.59375,4.7226562 -0.140625,0.1171875 -0.140625,0.1289063 -0.140625,0.1640625 0,0.058594 0.04687,0.1054688 0.105469,0.1054688 0.09375,0 0.996093,-0.6796875 1.582031,-1.94531254 0.503906,-1.1015625 0.632812,-2.20312496 0.632812,-3.04687496 z m 0,0"
         style="fill:#eb0a36;fill-opacity:1;fill-rule:nonzero;stroke:none" />
    </g>
    <g
       id="g18"
       aria-label="y=&#10;√"
       transform="matrix(1.3333333,0,0,1.3333333,143.53067,177.952)">
      <path
         id="path19"
         d="m 4.8402813,-3.7960312 c 0.046875,-0.140625 0.046875,-0.1523438 0.046875,-0.2226563 0,-0.1875 -0.140625,-0.2695312 -0.2929688,-0.2695312 -0.1054687,0 -0.2578125,0.058594 -0.3515625,0.1992187 -0.023437,0.058594 -0.09375,0.3632813 -0.140625,0.5390625 -0.070312,0.2578125 -0.140625,0.5273438 -0.1992187,0.796875 l -0.4453125,1.79296875 c -0.035156,0.15234375 -0.46875,0.85546875 -1.125,0.85546875 -0.5039063,0 -0.6210938,-0.4453125 -0.6210938,-0.80859375 0,-0.45703125 0.1757813,-1.07812495 0.515625,-1.95703125 0.1523438,-0.4101562 0.1992188,-0.515625 0.1992188,-0.7148437 0,-0.4453125 -0.328125,-0.8203125 -0.8203125,-0.8203125 -0.9492188,0 -1.31250005,1.453125 -1.31250005,1.5351562 0,0.1054688 0.09375,0.1054688 0.1171875,0.1054688 0.09375,0 0.10546875,-0.023437 0.15234375,-0.1875 0.26953125,-0.9375 0.6679688,-1.2304688 1.0078125,-1.2304688 0.082031,0 0.2578125,0 0.2578125,0.3164063 0,0.2460937 -0.1054687,0.515625 -0.1757812,0.703125 -0.3984375,1.0546875 -0.5742188,1.6171875 -0.5742188,2.0859375 0,0.89062495 0.6210938,1.1835937 1.21875,1.1835937 0.3867188,0 0.7265625,-0.1640625 0.9960938,-0.4453125 C 3.1645,0.176625 3.0473125,0.6688125 2.648875,1.1961563 2.3910625,1.536 2.0160625,1.8289688 1.5590313,1.8289688 c -0.140625,0 -0.5976563,-0.035156 -0.7617188,-0.421875 0.1640625,0 0.2929688,0 0.4335938,-0.1171875 C 1.3246563,1.1961563 1.430125,1.06725 1.430125,0.87975 c 0,-0.31640625 -0.2695312,-0.3515625 -0.375,-0.3515625 -0.22265625,0 -0.55078125,0.1640625 -0.55078125,0.6445313 0,0.5039062 0.43359375,0.8671875 1.05468755,0.8671875 1.0195312,0 2.0507812,-0.9023438 2.3320312,-2.0273438 z m 0,0"
         style="fill:#0000ff;fill-opacity:0.5;fill-rule:nonzero;stroke:none" />
      <path
         id="path20"
         d="m 14.856883,-3.2569687 c 0.152344,0 0.339844,0 0.339844,-0.1992188 0,-0.1992187 -0.1875,-0.1992187 -0.328125,-0.1992187 H 8.9037578 c -0.140625,0 -0.328125,0 -0.328125,0.1992187 0,0.1992188 0.1875,0.1992188 0.3398438,0.1992188 z m 0.01172,1.9335937 c 0.140625,0 0.328125,0 0.328125,-0.1992187 0,-0.1992188 -0.1875,-0.1992188 -0.339844,-0.1992188 H 8.9154766 c -0.1523438,0 -0.3398438,0 -0.3398438,0.1992188 0,0.1992187 0.1875,0.1992187 0.328125,0.1992187 z m 0,0"
         style="fill:#0000ff;fill-opacity:0.5;fill-rule:nonzero;stroke:none" />
      <path
         id="path21"
         d="M 22.403758,0.27916406 20.645945,-3.5997422 c -0.07031,-0.1523437 -0.117187,-0.1523437 -0.152343,-0.1523437 -0.01172,0 -0.05859,0 -0.164063,0.070312 l -0.949219,0.7265625 c -0.128906,0.09375 -0.128906,0.1289062 -0.128906,0.1523437 0,0.046875 0.03516,0.1054688 0.105469,0.1054688 0.05859,0 0.222656,-0.1289063 0.328125,-0.2109375 0.07031,-0.046875 0.210937,-0.1640625 0.328125,-0.2460938 l 1.957031,4.3125 c 0.07031,0.1640625 0.117188,0.1640625 0.210938,0.1640625 0.152343,0 0.175781,-0.058594 0.246093,-0.1992187 l 4.523438,-9.3632813 c 0.07031,-0.140625 0.07031,-0.1757812 0.07031,-0.1992187 0,-0.1054688 -0.08203,-0.1992188 -0.199218,-0.1992188 -0.08203,0 -0.152344,0.046875 -0.222657,0.2109375 z m 0,0"
         style="fill:#0000ff;fill-opacity:0.5;fill-rule:nonzero;stroke:none" />
    </g>
    <path
       id="path22"
       d="M 0,0 H 4.981"
       style="fill:none;stroke:#0000ff;stroke-width:0.398;stroke-linecap:butt;stroke-linejoin:miter;stroke-miterlimit:10;stroke-dasharray:none;stroke-opacity:0.5"
       transform="matrix(1.3333333,0,0,-1.3333333,179.30133,166.69867)" />
    <g
       id="g22"
       aria-label="2/3"
       transform="matrix(1.3333333,0,0,1.3333333,179.30133,177.952)">
      <path
         id="path23"
         d="m 1.2652109,-0.760875 1.0546875,-1.03125 c 1.5585938,-1.3710937 2.15625,-1.9101562 2.15625,-2.90625 0,-1.1367187 -0.9023437,-1.9335937 -2.1210937,-1.9335937 -1.125,0 -1.85156251,0.9140625 -1.85156251,1.8046875 0,0.5507812 0.4921875,0.5507812 0.52734371,0.5507812 0.1640625,0 0.515625,-0.1171875 0.515625,-0.5273437 0,-0.2578125 -0.1875,-0.515625 -0.5273437,-0.515625 -0.0820313,0 -0.10546876,0 -0.12890626,0.011719 0.22265626,-0.6445312 0.76171876,-1.0195312 1.33593746,-1.0195312 0.9140625,0 1.3359375,0.8085937 1.3359375,1.6289062 0,0.796875 -0.4921875,1.5820313 -1.0429687,2.203125 L 0.60896094,-0.3624375 C 0.50349219,-0.25696875 0.50349219,-0.23353125 0.50349219,8.4375e-4 H 4.1948984 l 0.28125,-1.73437495 H 4.2183359 C 4.1714609,-1.4288437 4.1011484,-0.99525 4.0073984,-0.84290625 3.9370859,-0.760875 3.2808359,-0.760875 3.0581797,-0.760875 Z m 0,0"
         style="fill:#0000ff;fill-opacity:0.5;fill-rule:nonzero;stroke:none" />
      <path
         id="path24"
         d="m 9.3511484,-7.089 c 0.046875,-0.1289062 0.046875,-0.1757812 0.046875,-0.1875 0,-0.1054687 -0.082031,-0.1992187 -0.1992187,-0.1992187 -0.070312,0 -0.1289063,0.035156 -0.1640625,0.09375 L 5.5777109,2.1102188 c -0.046875,0.1289062 -0.046875,0.1757812 -0.046875,0.1875 0,0.1054687 0.082031,0.1992187 0.1992188,0.1992187 0.1289062,0 0.1523437,-0.070312 0.2109375,-0.2460937 z m 0,0"
         style="fill:#0000ff;fill-opacity:0.5;fill-rule:nonzero;stroke:none" />
      <path
         id="path25"
         d="m 12.857984,-3.5030625 c 0.808594,-0.2695312 1.394532,-0.9726562 1.394532,-1.7578125 0,-0.8203125 -0.878907,-1.3710937 -1.839844,-1.3710937 -1.007813,0 -1.757813,0.5976562 -1.757813,1.3476562 0,0.3398438 0.210938,0.5273438 0.503907,0.5273438 0.304687,0 0.503906,-0.2226563 0.503906,-0.515625 0,-0.4921875 -0.46875,-0.4921875 -0.609375,-0.4921875 0.304687,-0.4921875 0.960937,-0.6210938 1.324219,-0.6210938 0.410156,0 0.949218,0.2226563 0.949218,1.1132813 0,0.1289062 -0.01172,0.703125 -0.269531,1.1367187 -0.304687,0.4804688 -0.644531,0.515625 -0.890625,0.515625 -0.08203,0.011719 -0.316406,0.035156 -0.386719,0.035156 -0.08203,0.011719 -0.152343,0.023437 -0.152343,0.1171875 0,0.1171875 0.07031,0.1171875 0.234375,0.1171875 h 0.445312 c 0.808594,0 1.183594,0.6679687 1.183594,1.6523437 0,1.34765625 -0.691406,1.640625 -1.125,1.640625 -0.433594,0 -1.171875,-0.17578125 -1.523438,-0.76171875 0.351563,0.0585938 0.65625,-0.1640625 0.65625,-0.53906245 0,-0.3632813 -0.269531,-0.5625 -0.5625,-0.5625 -0.234375,0 -0.550781,0.140625 -0.550781,0.5742187 0,0.9140625 0.925781,1.5703125 2.003906,1.5703125 1.21875,0 2.121094,-0.9140625 2.121094,-1.921875 0,-0.8203125 -0.621094,-1.59375 -1.652344,-1.8046872 z m 0,0"
         style="fill:#0000ff;fill-opacity:0.5;fill-rule:nonzero;stroke:none" />
    </g>
    <g
       id="g25"
       aria-label="y=−&#10;√"
       transform="matrix(1.3333333,0,0,1.3333333,138.36533,222.44933)">
      <path
         id="path26"
         d="m 4.8412344,-3.7969609 c 0.046875,-0.140625 0.046875,-0.1523438 0.046875,-0.2226563 0,-0.1875 -0.140625,-0.2695312 -0.2929688,-0.2695312 -0.1054687,0 -0.2578125,0.058594 -0.3515625,0.1992187 -0.023437,0.058594 -0.09375,0.3632813 -0.140625,0.5390625 -0.070312,0.2578125 -0.140625,0.5273438 -0.1992187,0.796875 l -0.4453125,1.79296876 c -0.035156,0.15234375 -0.46875,0.85546875 -1.125,0.85546875 -0.5039063,0 -0.6210938,-0.4453125 -0.6210938,-0.80859375 0,-0.45703126 0.1757813,-1.07812496 0.515625,-1.95703126 0.1523438,-0.4101562 0.1992188,-0.515625 0.1992188,-0.7148437 0,-0.4453125 -0.328125,-0.8203125 -0.8203125,-0.8203125 -0.94921878,0 -1.31250003,1.453125 -1.31250003,1.5351562 0,0.1054688 0.09375,0.1054688 0.1171875,0.1054688 0.09375,0 0.10546875,-0.023437 0.15234375,-0.1875 0.26953125,-0.9375 0.66796878,-1.2304688 1.00781248,-1.2304688 0.082031,0 0.2578125,0 0.2578125,0.3164063 0,0.2460937 -0.1054687,0.515625 -0.1757812,0.703125 -0.3984375,1.0546875 -0.5742188,1.6171875 -0.5742188,2.0859375 0,0.89062496 0.6210938,1.18359371 1.21875,1.18359371 0.3867188,0 0.7265625,-0.1640625 0.9960938,-0.4453125 -0.1289063,0.515625 -0.2460938,1.0078125 -0.6445313,1.53515629 -0.2578125,0.3398437 -0.6328125,0.6328125 -1.0898437,0.6328125 -0.140625,0 -0.59765628,-0.035156 -0.76171878,-0.421875 0.1640625,0 0.29296878,0 0.43359378,-0.1171875 0.09375,-0.09375 0.1992187,-0.2226563 0.1992187,-0.41015629 0,-0.31640625 -0.2695312,-0.3515625 -0.375,-0.3515625 -0.22265623,0 -0.55078123,0.1640625 -0.55078123,0.64453129 0,0.5039062 0.43359375,0.8671875 1.05468753,0.8671875 1.0195312,0 2.0507812,-0.9023438 2.3320312,-2.02734379 z m 0,0"
         style="fill:#0000ff;fill-opacity:0.5;fill-rule:nonzero;stroke:none" />
      <path
         id="path27"
         d="m 14.857836,-3.2578984 c 0.152344,0 0.339844,0 0.339844,-0.1992188 0,-0.1992187 -0.1875,-0.1992187 -0.328125,-0.1992187 H 8.9047109 c -0.140625,0 -0.328125,0 -0.328125,0.1992187 0,0.1992188 0.1875,0.1992188 0.3398438,0.1992188 z m 0.01172,1.9335937 c 0.140625,0 0.328125,0 0.328125,-0.1992187 0,-0.1992188 -0.1875,-0.1992188 -0.339844,-0.1992188 H 8.9164297 c -0.1523438,0 -0.3398438,0 -0.3398438,0.1992188 0,0.1992187 0.1875,0.1992187 0.328125,0.1992187 z m 0,0"
         style="fill:#0000ff;fill-opacity:0.5;fill-rule:nonzero;stroke:none" />
      <path
         id="path28"
         d="m 25.085375,-2.2969609 c 0.175781,0 0.351562,0 0.351562,-0.1992188 0,-0.1992187 -0.175781,-0.1992187 -0.351562,-0.1992187 H 19.69475 c -0.164063,0 -0.339844,0 -0.339844,0.1992187 0,0.1992188 0.175781,0.1992188 0.339844,0.1992188 z m 5.068359,2.57519528 -1.757812,-3.87890628 c -0.07031,-0.1523437 -0.117188,-0.1523437 -0.152344,-0.1523437 -0.01172,0 -0.05859,0 -0.164062,0.070312 l -0.949219,0.7265625 c -0.128906,0.09375 -0.128906,0.1289062 -0.128906,0.1523437 0,0.046875 0.03516,0.1054688 0.105468,0.1054688 0.05859,0 0.222657,-0.1289063 0.328125,-0.2109375 0.07031,-0.046875 0.210938,-0.1640625 0.328125,-0.2460938 l 1.957032,4.3125 c 0.07031,0.1640625 0.117187,0.1640625 0.210937,0.1640625 0.152344,0 0.175781,-0.058594 0.246094,-0.1992187 l 4.523437,-9.3632813 c 0.07031,-0.140625 0.07031,-0.1757812 0.07031,-0.1992187 0,-0.1054688 -0.08203,-0.1992188 -0.199219,-0.1992188 -0.08203,0 -0.152344,0.046875 -0.222656,0.2109375 z m 0,0"
         style="fill:#0000ff;fill-opacity:0.5;fill-rule:nonzero;stroke:none" />
    </g>
    <path
       id="path29"
       d="M 0,0 H 4.981"
       style="fill:none;stroke:#0000ff;stroke-width:0.398;stroke-linecap:butt;stroke-linejoin:miter;stroke-miterlimit:10;stroke-dasharray:none;stroke-opacity:0.5"
       transform="matrix(1.3333333,0,0,-1.3333333,184.46667,211.19467)" />
    <g
       id="g29"
       aria-label="2/3"
       transform="matrix(1.3333333,0,0,1.3333333,184.46667,222.44933)">
      <path
         id="path30"
         d="M 1.2642578,-0.76180469 2.3189453,-1.7930547 c 1.5585938,-1.3710937 2.15625,-1.9101562 2.15625,-2.90625 0,-1.1367187 -0.9023437,-1.9335937 -2.1210937,-1.9335937 -1.125,0 -1.85156254,0.9140625 -1.85156254,1.8046875 0,0.5507812 0.4921875,0.5507812 0.52734374,0.5507812 0.1640625,0 0.515625,-0.1171875 0.515625,-0.5273437 0,-0.2578125 -0.1875,-0.515625 -0.5273437,-0.515625 -0.0820313,0 -0.10546879,0 -0.12890629,0.011719 0.22265629,-0.6445312 0.76171879,-1.0195312 1.33593749,-1.0195312 0.9140625,0 1.3359375,0.8085937 1.3359375,1.6289062 0,0.796875 -0.4921875,1.5820313 -1.0429687,2.203125 L 0.60800781,-0.36336719 C 0.50253906,-0.25789844 0.50253906,-0.23446094 0.50253906,-8.59375e-5 H 4.1939453 L 4.4751953,-1.7344609 H 4.2173828 c -0.046875,0.3046875 -0.1171875,0.73828121 -0.2109375,0.89062496 -0.070312,0.0820313 -0.7265625,0.0820313 -0.9492187,0.0820313 z m 0,0"
         style="fill:#0000ff;fill-opacity:0.5;fill-rule:nonzero;stroke:none" />
      <path
         id="path31"
         d="M 9.353125,-7.0899297 C 9.4,-7.2188359 9.4,-7.2657109 9.4,-7.2774297 c 0,-0.1054687 -0.082031,-0.1992187 -0.1992188,-0.1992187 -0.070312,0 -0.1289062,0.035156 -0.1640625,0.09375 L 5.5796875,2.1092891 c -0.046875,0.1289062 -0.046875,0.1757812 -0.046875,0.1875 0,0.1054687 0.082031,0.1992187 0.1992187,0.1992187 0.1289063,0 0.1523438,-0.070312 0.2109375,-0.2460937 z m 0,0"
         style="fill:#0000ff;fill-opacity:0.5;fill-rule:nonzero;stroke:none" />
      <path
         id="path32"
         d="m 12.857031,-3.5039922 c 0.808594,-0.2695312 1.394531,-0.9726562 1.394531,-1.7578125 0,-0.8203125 -0.878906,-1.3710937 -1.839843,-1.3710937 -1.007813,0 -1.757813,0.5976562 -1.757813,1.3476562 0,0.3398438 0.210938,0.5273438 0.503906,0.5273438 0.304688,0 0.503907,-0.2226563 0.503907,-0.515625 0,-0.4921875 -0.46875,-0.4921875 -0.609375,-0.4921875 0.304687,-0.4921875 0.960937,-0.6210938 1.324218,-0.6210938 0.410157,0 0.949219,0.2226563 0.949219,1.1132813 0,0.1289062 -0.01172,0.703125 -0.269531,1.1367187 -0.304688,0.4804688 -0.644531,0.515625 -0.890625,0.515625 -0.08203,0.011719 -0.316406,0.035156 -0.386719,0.035156 -0.08203,0.011719 -0.152344,0.023437 -0.152344,0.1171875 0,0.1171875 0.07031,0.1171875 0.234375,0.1171875 h 0.445313 c 0.808594,0 1.183594,0.6679687 1.183594,1.6523437 0,1.34765626 -0.691407,1.64062501 -1.125,1.64062501 -0.433594,0 -1.171875,-0.17578125 -1.523438,-0.76171875 0.351563,0.0585938 0.65625,-0.1640625 0.65625,-0.53906246 0,-0.3632813 -0.269531,-0.5625 -0.5625,-0.5625 -0.234375,0 -0.550781,0.140625 -0.550781,0.5742187 0,0.91406251 0.925781,1.57031251 2.003906,1.57031251 1.21875,0 2.121094,-0.9140625 2.121094,-1.92187501 0,-0.8203125 -0.621094,-1.59375 -1.652344,-1.8046872 z m 0,0"
         style="fill:#0000ff;fill-opacity:0.5;fill-rule:nonzero;stroke:none" />
    </g>
    <g
       id="g32"
       aria-label="x=5/3"
       transform="matrix(1.3333333,0,0,1.3333333,245.65733,236.952)">
      <path
         id="path33"
         d="m 3.3273125,-3.010875 c 0.058594,-0.2578125 0.2929688,-1.171875 0.984375,-1.171875 0.046875,0 0.2929688,0 0.5039063,0.1289063 -0.28125,0.046875 -0.4804688,0.3046875 -0.4804688,0.5390625 0,0.1640625 0.1054688,0.3515625 0.375,0.3515625 0.2226563,0 0.5390625,-0.1875 0.5390625,-0.5859375 0,-0.515625 -0.5859375,-0.65625 -0.9257812,-0.65625 -0.5742188,0 -0.9257813,0.5273437 -1.0429688,0.7617187 -0.2578125,-0.65625 -0.7851562,-0.7617187 -1.078125,-0.7617187 -1.0429687,0 -1.60546875,1.2890625 -1.60546875,1.5351562 0,0.1054688 0.10546875,0.1054688 0.1171875,0.1054688 0.0820313,0 0.1171875,-0.023437 0.12890625,-0.1171875 C 1.1827813,-3.9366562 1.8390313,-4.18275 2.178875,-4.18275 c 0.1875,0 0.5390625,0.09375 0.5390625,0.6679688 0,0.3046875 -0.1640625,0.9726562 -0.5390625,2.3671875 C 2.0265313,-0.5265 1.6749688,-0.104625 1.2296563,-0.104625 c -0.058594,0 -0.28125005,0 -0.49218755,-0.12890625 0.24609375,-0.0585938 0.46875005,-0.26953125 0.46875005,-0.5390625 0,-0.26953125 -0.2226563,-0.35156245 -0.37500005,-0.35156245 -0.29296875,0 -0.5390625,0.25781245 -0.5390625,0.5742187 0,0.45703125 0.4921875,0.65625 0.93750005,0.65625 0.65625,0 1.0078125,-0.69140625 1.0429687,-0.75 0.1171875,0.36328125 0.4804688,0.75 1.078125,0.75 1.0195313,0 1.59375,-1.2773437 1.59375,-1.5351562 0,-0.09375 -0.09375,-0.09375 -0.1289062,-0.09375 -0.082031,0 -0.1054688,0.035156 -0.1289063,0.1054687 -0.328125,1.06640625 -0.9960937,1.3125 -1.3242187,1.3125 -0.3867188,0 -0.5390625,-0.328125 -0.5390625,-0.65625 0,-0.22265625 0.058594,-0.4453125 0.1640625,-0.8789062 z m 0,0"
         style="fill:#ec008c;fill-opacity:0.5;fill-rule:nonzero;stroke:none" />
      <path
         id="path34"
         d="m 15.306805,-3.2569687 c 0.152343,0 0.339843,0 0.339843,-0.1992188 0,-0.1992187 -0.1875,-0.1992187 -0.328125,-0.1992187 H 9.3536797 c -0.140625,0 -0.328125,0 -0.328125,0.1992187 0,0.1992188 0.1875,0.1992188 0.3398437,0.1992188 z m 0.01172,1.9335937 c 0.140625,0 0.328125,0 0.328125,-0.1992187 0,-0.1992188 -0.1875,-0.1992188 -0.339843,-0.1992188 H 9.3653984 c -0.1523437,0 -0.3398437,0 -0.3398437,0.1992188 0,0.1992187 0.1875,0.1992187 0.328125,0.1992187 z m 8.138672,-0.6796875 c 0,-1.1835937 -0.820312,-2.1796875 -1.898437,-2.1796875 -0.480469,0 -0.902344,0.1640625 -1.265625,0.5039063 v -1.9335938 c 0.199219,0.058594 0.527344,0.1289063 0.84375,0.1289063 1.230469,0 1.933594,-0.9140625 1.933594,-1.0429688 0,-0.058594 -0.03516,-0.1054687 -0.105469,-0.1054687 -0.01172,0 -0.03516,0 -0.08203,0.023437 -0.199219,0.09375 -0.679688,0.2929687 -1.347657,0.2929687 -0.398437,0 -0.855468,-0.070312 -1.324218,-0.28125 -0.08203,-0.023437 -0.105469,-0.023437 -0.128907,-0.023437 -0.09375,0 -0.09375,0.082031 -0.09375,0.234375 v 2.953125 c 0,0.1757813 0,0.2578125 0.140625,0.2578125 0.07031,0 0.08203,-0.035156 0.128907,-0.09375 0.105468,-0.1523437 0.480468,-0.6914062 1.277343,-0.6914062 0.527344,0 0.773438,0.4570312 0.855469,0.6328125 0.152344,0.375 0.175781,0.7617187 0.175781,1.2539062 0,0.3515625 0,0.9492188 -0.234375,1.37109375 C 22.086102,-0.3155625 21.72282,-0.05775 21.265789,-0.05775 c -0.726562,0 -1.300781,-0.52734375 -1.464844,-1.1132812 0.02344,0.011719 0.05859,0.011719 0.164063,0.011719 0.328125,0 0.503906,-0.2460937 0.503906,-0.4804687 0,-0.2460938 -0.175781,-0.4921875 -0.503906,-0.4921875 -0.140625,0 -0.480469,0.070312 -0.480469,0.5273437 0,0.85546875 0.679688,1.828125 1.792969,1.828125 1.160156,0 2.179687,-0.9609375 2.179687,-2.2265625 z m 0,0"
         style="fill:#ec008c;fill-opacity:0.5;fill-rule:nonzero;stroke:none" />
      <path
         id="path35"
         d="M 28.335125,-7.089 C 28.382,-7.2179062 28.382,-7.2647812 28.382,-7.2765 c 0,-0.1054687 -0.08203,-0.1992187 -0.199219,-0.1992187 -0.07031,0 -0.128906,0.035156 -0.164062,0.09375 l -3.457031,9.4921875 c -0.04687,0.1289062 -0.04687,0.1757812 -0.04687,0.1875 0,0.1054687 0.08203,0.1992187 0.199218,0.1992187 0.128907,0 0.152344,-0.070312 0.210938,-0.2460937 z m 0,0"
         style="fill:#ec008c;fill-opacity:0.5;fill-rule:nonzero;stroke:none" />
      <path
         id="path36"
         d="m 31.839031,-3.5030625 c 0.808594,-0.2695312 1.394532,-0.9726562 1.394532,-1.7578125 0,-0.8203125 -0.878907,-1.3710937 -1.839844,-1.3710937 -1.007813,0 -1.757813,0.5976562 -1.757813,1.3476562 0,0.3398438 0.210938,0.5273438 0.503907,0.5273438 0.304687,0 0.503906,-0.2226563 0.503906,-0.515625 0,-0.4921875 -0.46875,-0.4921875 -0.609375,-0.4921875 0.304687,-0.4921875 0.960937,-0.6210938 1.324219,-0.6210938 0.410156,0 0.949218,0.2226563 0.949218,1.1132813 0,0.1289062 -0.01172,0.703125 -0.269531,1.1367187 -0.304687,0.4804688 -0.644531,0.515625 -0.890625,0.515625 -0.08203,0.011719 -0.316406,0.035156 -0.386719,0.035156 -0.08203,0.011719 -0.152343,0.023437 -0.152343,0.1171875 0,0.1171875 0.07031,0.1171875 0.234375,0.1171875 h 0.445312 c 0.808594,0 1.183594,0.6679687 1.183594,1.6523437 0,1.34765625 -0.691406,1.640625 -1.125,1.640625 -0.433594,0 -1.171875,-0.17578125 -1.523438,-0.76171875 0.351563,0.0585938 0.65625,-0.1640625 0.65625,-0.53906245 0,-0.3632813 -0.269531,-0.5625 -0.5625,-0.5625 -0.234375,0 -0.550781,0.140625 -0.550781,0.5742187 0,0.9140625 0.925781,1.5703125 2.003906,1.5703125 1.21875,0 2.121094,-0.9140625 2.121094,-1.921875 0,-0.8203125 -0.621094,-1.59375 -1.652344,-1.8046872 z m 0,0"
         style="fill:#ec008c;fill-opacity:0.5;fill-rule:nonzero;stroke:none" />
    </g>
  </g>
</svg>
