<?xml version="1.0" encoding="UTF-8" standalone="no"?>
<!-- Created with Inkscape (http://www.inkscape.org/) -->

<svg
   version="1.1"
   id="svg1"
   width="154.86368"
   height="174.80119"
   viewBox="0 0 154.86368 174.8012"
   sodipodi:docname="2.7-ejemplo-reciprocaa.svg"
   inkscape:version="1.4.3 (0d15f75, 2025-12-25)"
   xmlns:inkscape="http://www.inkscape.org/namespaces/inkscape"
   xmlns:sodipodi="http://sodipodi.sourceforge.net/DTD/sodipodi-0.dtd"
   xmlns="http://www.w3.org/2000/svg"
   xmlns:svg="http://www.w3.org/2000/svg">
  <defs
     id="defs1">
    <clipPath
       clipPathUnits="userSpaceOnUse"
       id="clipPath15">
      <rect
         style="fill:none;stroke-width:0.751177"
         id="rect16"
         width="180.59592"
         height="148.20833"
         x="-89.840836"
         y="-106.3983" />
    </clipPath>
    <clipPath
       clipPathUnits="userSpaceOnUse"
       id="clipPath16">
      <rect
         style="fill:none;stroke-width:0.751177"
         id="rect17"
         width="180.59592"
         height="148.20833"
         x="-83.087837"
         y="-84.378296" />
    </clipPath>
    <clipPath
       clipPathUnits="userSpaceOnUse"
       id="clipPath17">
      <rect
         style="fill:none;stroke-width:0.751177"
         id="rect18"
         width="180.59592"
         height="148.20833"
         x="-43.485832"
         y="-124.4073"
         transform="scale(1,-1)" />
    </clipPath>
    <clipPath
       clipPathUnits="userSpaceOnUse"
       id="clipPath18">
      <rect
         style="fill:none;stroke-width:0.751177"
         id="rect19"
         width="180.59592"
         height="148.20833"
         x="-43.485832"
         y="-124.4073"
         transform="scale(1,-1)" />
    </clipPath>
    <clipPath
       clipPathUnits="userSpaceOnUse"
       id="clipPath19">
      <rect
         style="fill:none;stroke-width:0.751177"
         id="rect20"
         width="180.59592"
         height="148.20833"
         x="-43.485832"
         y="-124.4073"
         transform="scale(1,-1)" />
    </clipPath>
    <clipPath
       clipPathUnits="userSpaceOnUse"
       id="clipPath20">
      <rect
         style="fill:none;stroke-width:0.751177"
         id="rect21"
         width="180.59592"
         height="148.20833"
         x="-43.485832"
         y="-124.4073"
         transform="scale(1,-1)" />
    </clipPath>
    <clipPath
       clipPathUnits="userSpaceOnUse"
       id="clipPath21">
      <rect
         style="fill:none;stroke-width:0.751177"
         id="rect22"
         width="180.59592"
         height="148.20833"
         x="-33.910831"
         y="-12.309298" />
    </clipPath>
    <clipPath
       clipPathUnits="userSpaceOnUse"
       id="clipPath22">
      <rect
         style="fill:none;stroke-width:0.751177"
         id="rect23"
         width="180.59592"
         height="148.20833"
         x="-43.485832"
         y="-11.478337"
         transform="matrix(0,-1,-1,0,0,0)" />
    </clipPath>
    <clipPath
       clipPathUnits="userSpaceOnUse"
       id="clipPath23">
      <rect
         style="fill:none;stroke-width:0.751177"
         id="rect24"
         width="180.59592"
         height="148.20833"
         x="-43.485832"
         y="-124.4073"
         transform="scale(1,-1)" />
    </clipPath>
    <clipPath
       clipPathUnits="userSpaceOnUse"
       id="clipPath24">
      <rect
         style="fill:none;stroke-width:0.751177"
         id="rect25"
         width="180.59592"
         height="148.20833"
         x="-139.58084"
         y="-132.9393" />
    </clipPath>
    <clipPath
       clipPathUnits="userSpaceOnUse"
       id="clipPath25">
      <rect
         style="fill:none;stroke-width:0.751177"
         id="rect26"
         width="180.59592"
         height="148.20833"
         x="-142.24138"
         y="-124.4073"
         transform="scale(1,-1)" />
    </clipPath>
    <clipPath
       clipPathUnits="userSpaceOnUse"
       id="clipPath26">
      <rect
         style="fill:none;stroke-width:0.751177"
         id="rect27"
         width="180.59592"
         height="148.20833"
         x="-43.485832"
         y="-124.4073"
         transform="scale(1,-1)" />
    </clipPath>
    <clipPath
       clipPathUnits="userSpaceOnUse"
       id="clipPath27">
      <rect
         style="fill:none;stroke-width:0.751177"
         id="rect28"
         width="180.59592"
         height="148.20833"
         x="92.234169"
         y="-220.37631"
         transform="scale(1,-1)" />
    </clipPath>
  </defs>
  <sodipodi:namedview
     id="namedview1"
     pagecolor="#ffffff"
     bordercolor="#000000"
     borderopacity="0.25"
     inkscape:showpageshadow="2"
     inkscape:pageopacity="0.0"
     inkscape:pagecheckerboard="0"
     inkscape:deskcolor="#d1d1d1"
     inkscape:zoom="2.130447"
     inkscape:cx="80.030153"
     inkscape:cy="102.56064"
     inkscape:window-width="1920"
     inkscape:window-height="991"
     inkscape:window-x="-9"
     inkscape:window-y="-9"
     inkscape:window-maximized="1"
     inkscape:current-layer="g1">
    <inkscape:page
       x="0"
       y="0"
       inkscape:label="29"
       id="page1"
       width="154.86368"
       height="174.80119"
       margin="0"
       bleed="0" />
  </sodipodi:namedview>
  <g
     id="g1"
     inkscape:groupmode="layer"
     inkscape:label="29"
     transform="translate(-161.89413,-78.972655)">
    <path
       id="path2"
       d="M -14.17339,0 H 98.75554"
       style="fill:none;stroke:#000000;stroke-width:0.3985;stroke-linecap:butt;stroke-linejoin:miter;stroke-miterlimit:10;stroke-dasharray:none;stroke-opacity:1"
       transform="matrix(1.3333333,0,0,-1.3333333,180.96,234.876)"
       clip-path="url(#clipPath26)" />
    <path
       id="path3"
       d="M -1.19551,1.59401 C -1.09587,0.99626 0,0.09961 0.29886,0 0,-0.09961 -1.09587,-0.99626 -1.19551,-1.59401"
       style="fill:none;stroke:#000000;stroke-width:0.31879;stroke-linecap:round;stroke-linejoin:round;stroke-miterlimit:10;stroke-dasharray:none;stroke-opacity:1"
       transform="matrix(1.3333333,0,0,-1.3333333,312.63405,234.876)"
       clip-path="url(#clipPath25)" />
    <path
       id="path4"
       d="m 3.6439844,-3.2915391 c 0.070312,-0.28125 0.3164062,-1.2890625 1.078125,-1.2890625 0.058594,0 0.3164062,0 0.5507812,0.140625 -0.3046875,0.058594 -0.5273437,0.328125 -0.5273437,0.5859375 0,0.1757813 0.1171875,0.3867188 0.4101562,0.3867188 0.2460938,0 0.5976563,-0.1992188 0.5976563,-0.6328125 0,-0.5625 -0.6445313,-0.7265625 -1.0195313,-0.7265625 -0.6328125,0 -1.0195312,0.5859375 -1.1484375,0.8320312 -0.2695312,-0.7148437 -0.8554687,-0.8320312 -1.171875,-0.8320312 -1.1367187,0 -1.75781247,1.4179687 -1.75781247,1.6875 0,0.1054687 0.10546875,0.1054687 0.12890625,0.1054687 0.0820313,0 0.1171875,-0.023437 0.140625,-0.1171875 0.37500002,-1.1601562 1.08984372,-1.4296875 1.46484372,-1.4296875 0.2109375,0 0.5859375,0.09375 0.5859375,0.7265625 0,0.3398438 -0.1875,1.078125 -0.5859375,2.6015625 -0.1757812,0.67968754 -0.5625,1.13671879 -1.0429687,1.13671879 -0.058594,0 -0.3164063,0 -0.53906252,-0.140625 0.26953122,-0.0585938 0.51562502,-0.29296875 0.51562502,-0.59765625 0,-0.29296874 -0.2460938,-0.37500004 -0.41015627,-0.37500004 -0.328125,0 -0.59765625,0.28125004 -0.59765625,0.63281254 0,0.50390625 0.55078125,0.71484375 1.03125002,0.71484375 0.7148437,0 1.1015625,-0.76171875 1.1367187,-0.83203125 0.1289063,0.41015625 0.5273438,0.83203125 1.1835938,0.83203125 1.125,0 1.7460937,-1.40624999 1.7460937,-1.67578129 0,-0.1054687 -0.1054687,-0.1054687 -0.1289062,-0.1054687 -0.1054688,0 -0.1289063,0.035156 -0.140625,0.1171875 -0.3632813,1.16015624 -1.1132813,1.42968749 -1.453125,1.42968749 -0.4335938,0 -0.609375,-0.3515625 -0.609375,-0.7265625 0,-0.23437499 0.070312,-0.48046879 0.1875,-0.96093749 z m 0,0"
       style="fill:#000000;fill-opacity:1;fill-rule:nonzero;stroke:none"
       aria-label="x"
       transform="matrix(1.3333333,0,0,1.3333333,309.08667,246.252)"
       clip-path="url(#clipPath24)" />
    <path
       id="path5"
       d="M 0,-14.17339 V 112.92896"
       style="fill:none;stroke:#000000;stroke-width:0.3985;stroke-linecap:butt;stroke-linejoin:miter;stroke-miterlimit:10;stroke-dasharray:none;stroke-opacity:1"
       transform="matrix(1.3333333,0,0,-1.3333333,180.96,234.876)"
       clip-path="url(#clipPath23)" />
    <path
       id="path6"
       d="M -1.19551,1.59401 C -1.09587,0.99626 0,0.09961 0.29886,0 0,-0.09961 -1.09587,-0.99626 -1.19551,-1.59401"
       style="fill:none;stroke:#000000;stroke-width:0.31879;stroke-linecap:round;stroke-linejoin:round;stroke-miterlimit:10;stroke-dasharray:none;stroke-opacity:1"
       transform="matrix(0,-1.3333333,-1.3333333,0,180.96,84.304053)"
       clip-path="url(#clipPath22)" />
    <path
       id="path7"
       d="m 5.2954297,-4.1615391 c 0.046875,-0.1523437 0.046875,-0.1757812 0.046875,-0.2460937 0,-0.1992188 -0.1523438,-0.2929688 -0.3164063,-0.2929688 -0.1054687,0 -0.28125,0.058594 -0.375,0.2226563 -0.023437,0.058594 -0.1171875,0.3984375 -0.1523437,0.5976562 -0.082031,0.28125 -0.1523438,0.5742188 -0.2226563,0.8671875 l -0.4921875,1.96875 c -0.046875,0.16406254 -0.515625,0.92578129 -1.2304687,0.92578129 -0.5625,0 -0.6796875,-0.48046875 -0.6796875,-0.89062499 0,-0.4921875 0.1875,-1.171875 0.5625,-2.1328125 0.1757812,-0.4453125 0.2109375,-0.5742188 0.2109375,-0.7851563 0,-0.4921875 -0.3515625,-0.9023437 -0.890625,-0.9023437 -1.04296876,0 -1.44140626,1.5820312 -1.44140626,1.6875 0,0.1054687 0.10546875,0.1054687 0.12890625,0.1054687 0.10546875,0 0.1171875,-0.023437 0.17578125,-0.1992187 0.29296875,-1.0195313 0.72656246,-1.3476563 1.10156246,-1.3476563 0.09375,0 0.2695313,0 0.2695313,0.3515625 0,0.2695313 -0.1054688,0.5507813 -0.1757813,0.7617188 -0.4453125,1.1601562 -0.6328125,1.78125 -0.6328125,2.2851562 0,0.97265629 0.6796875,1.30078129 1.3242188,1.30078129 0.421875,0 0.796875,-0.1875 1.1015625,-0.4921875 -0.140625,0.57421875 -0.2695313,1.1015625 -0.703125,1.68750001 -0.2929688,0.3632812 -0.703125,0.6796875 -1.2070313,0.6796875 -0.1523437,0 -0.6445312,-0.023437 -0.83203121,-0.4570313 0.17578121,0 0.31640621,0 0.48046871,-0.1289062 0.1054688,-0.09375 0.2109375,-0.234375 0.2109375,-0.44531251 0,-0.33984375 -0.2929687,-0.38671875 -0.3984375,-0.38671875 -0.25781246,0 -0.60937496,0.17578125 -0.60937496,0.71484376 0,0.5390625 0.48046876,0.9492187 1.14843746,0.9492187 1.125,0 2.25,-0.9960937 2.5546875,-2.22656246 z m 0,0"
       style="fill:#000000;fill-opacity:1;fill-rule:nonzero;stroke:none"
       aria-label="y"
       transform="matrix(1.3333333,0,0,1.3333333,168.19333,85.412)"
       clip-path="url(#clipPath21)" />
    <path
       id="path8"
       d="m 5.66927,106.30571 c 0,0 0.57923,-9.92534 0.80171,-13.17662 0.22246,-3.25129 0.57924,-7.69147 0.80169,-10.25633 0.22248,-2.56488 0.57924,-6.15233 0.80172,-8.22948 0.22247,-2.07713 0.57924,-5.02504 0.80171,-6.7411 0.22246,-1.71605 0.57924,-4.18489 0.8017,-5.62709 0.22247,-1.44223 0.57925,-3.53885 0.80172,-4.76745 0.22246,-1.2286 0.57924,-3.02884 0.80171,-4.08749 0.22247,-1.05862 0.57924,-2.62022 0.8017,-3.54248 0.22247,-0.92226 0.57924,-2.2932 0.80171,-3.10454 0.22246,-0.81135 0.57924,-2.02485 0.80172,-2.74316 0.22245,-0.71829 0.57924,-1.79355 0.80169,-2.43389 0.22248,-0.64035 0.57925,-1.60626 0.80173,-2.18128 0.22246,-0.57503 0.57924,-1.44411 0.80171,-1.96308 0.22246,-0.51897 0.57924,-1.30632 0.8017,-1.77731 0.22247,-0.47098 0.57924,-1.18798 0.80171,-1.61725 0.22246,-0.42926 0.57924,-1.08417 0.8017,-1.47669 0.22247,-0.39251 0.57925,-0.99186 0.80171,-1.35234 0.22247,-0.36045 0.57924,-0.91316 0.80171,-1.24569 0.22246,-0.33254 0.57926,-0.84381 0.80171,-1.15099 0.22247,-0.30717 0.57926,-0.77801 0.80172,-1.06295 0.22247,-0.28495 0.57923,-0.72545 0.80171,-0.99074 0.22246,-0.26529 0.57924,-0.67432 0.80169,-0.9213 0.22248,-0.24699 0.57926,-0.62814 0.80172,-0.85881 0.22247,-0.23065 0.57923,-0.58713 0.80171,-0.80365 0.22246,-0.21654 0.57925,-0.55362 0.80171,-0.75696 0.22247,-0.20332 0.57924,-0.51774 0.80171,-0.70848 0.22246,-0.19075 0.57924,-0.48659 0.80171,-0.66633 0.22246,-0.17974 0.57924,-0.45943 0.8017,-0.62913 0.22247,-0.16967 0.57924,-0.4334 0.80171,-0.59387 0.22246,-0.16047 0.57924,-0.4109 0.80172,-0.56273 0.22246,-0.15182 0.57925,-0.38766 0.80171,-0.53158 0.22247,-0.14395 0.57924,-0.36903 0.80171,-0.50586 0.22246,-0.13683 0.57924,-0.35036 0.80171,-0.48033 0.22246,-0.12999 0.57924,-0.33283 0.8017,-0.45654 0.22247,-0.12372 0.57923,-0.31722 0.80171,-0.43514 0.22246,-0.11792 0.57924,-0.3024 0.80171,-0.41481 0.22246,-0.1124 0.57926,-0.2879 0.80171,-0.39534 0.22248,-0.10742 0.57924,-0.2761 0.80172,-0.37889 0.22245,-0.10281 0.57924,-0.26375 0.80169,-0.36203 0.22248,-0.0983 0.57926,-0.25232 0.80172,-0.34648 0.22247,-0.09416 0.57923,-0.24193 0.80171,-0.33219 0.22246,-0.09025 0.57924,-0.23166 0.80169,-0.31834 0.22247,-0.08669 0.57926,-0.22322 0.80172,-0.30646 0.22247,-0.08323 0.57925,-0.21354 0.80172,-0.29347 0.22246,-0.07994 0.57924,-0.20564 0.8017,-0.28267 0.22247,-0.07701 0.57925,-0.19844 0.80171,-0.27249 0.22248,-0.07405 0.57924,-0.18991 0.80172,-0.26125 0.22245,-0.07136 0.57923,-0.18411 0.80169,-0.25303 0.22247,-0.06894 0.57924,-0.1774 0.80171,-0.24375 0.22246,-0.06634 0.57926,-0.17047 0.80173,-0.23443 0.22246,-0.06398 0.57924,-0.16475 0.8017,-0.22666 0.22247,-0.0619 0.57924,-0.15974 0.80171,-0.21951 0.22246,-0.05975 0.57924,-0.15352 0.80171,-0.21129 0.22246,-0.05776 0.57924,-0.14905 0.8017,-0.20503 0.22247,-0.05599 0.57924,-0.14435 0.80171,-0.19852 0.22246,-0.0542 0.57925,-0.1396 0.80173,-0.19204 0.22246,-0.05247 0.57924,-0.13521 0.80169,-0.18601 0.22248,-0.0508 0.57924,-0.13089 0.80172,-0.18016 0.22245,-0.04927 0.57923,-0.12723 0.8017,-0.17496 0.22247,-0.04773 0.57925,-0.12281 0.8017,-0.16913 0.22248,-0.04628 0.57924,-0.11944 0.80172,-0.16456 0.22245,-0.04514 0.57925,-0.11684 0.80171,-0.16069 0.22247,-0.04387 0.57925,-0.11304 0.80171,-0.1555 0.22247,-0.04246 0.57924,-0.10924 0.80171,-0.15053 0.22246,-0.04128 0.57924,-0.10687 0.8017,-0.14705 0.22247,-0.04018 0.57925,-0.1035 0.80171,-0.14253 0.22247,-0.03904 0.57924,-0.10083 0.80171,-0.13885 0.22246,-0.03802 0.57924,-0.0981 0.8017,-0.13516 C 60.40794,9.97618 60.76472,9.91736 60.9872,9.8813 61.20967,9.84528 61.56644,9.78854 61.78891,9.75351 62.01137,9.71846 62.36815,9.66295 62.5906,9.62871 62.81308,9.59448 63.16985,9.5401 63.39232,9.50673 63.61478,9.47337 63.97156,9.42075 64.19403,9.38821 64.41649,9.3557 64.77327,9.30405 64.99573,9.27231 65.2182,9.24055 65.57498,9.19043 65.79745,9.15941 66.01991,9.12839 66.3767,9.07889 66.59917,9.04868 66.82162,9.01846 67.1784,8.97108 67.40086,8.94164 67.62334,8.91217 67.9801,8.86516 68.20258,8.8363 68.42503,8.80743 68.78181,8.76175 69.00429,8.73358 69.22675,8.7054 69.58353,8.66074 69.80598,8.63322 70.02846,8.60571 70.38524,8.56215 70.60771,8.53525 70.83017,8.50838 71.18695,8.4657 71.40941,8.43945 71.63188,8.4132 71.98866,8.37173 72.21112,8.34601 72.4336,8.32031 72.79036,8.27928 73.01283,8.2541 73.23529,8.22893 73.59207,8.18915 73.81453,8.16457 74.037,8.14 74.39378,8.10104 74.61624,8.07698 74.83871,8.05292 75.1955,8.01468 75.41797,7.99112 75.64043,7.96758 75.99721,7.93034 76.21967,7.90721 76.44214,7.8841 76.79892,7.84703 77.02138,7.82437 77.24385,7.80173 77.60062,7.76602 77.82309,7.74393 78.04555,7.72185 78.40233,7.68694 78.62479,7.6652 78.84726,7.6435 79.20403,7.60867 79.4265,7.58734 79.64897,7.56601 80.00575,7.53223 80.22823,7.51144 80.45068,7.49065 80.80746,7.45784 81.02992,7.43747 81.2524,7.4171 81.60916,7.38464 81.83163,7.3646 82.0541,7.34456 82.41087,7.31267 82.63335,7.293 82.8558,7.27336 83.21259,7.24217 83.43504,7.22295 83.65752,7.2037 84.01428,7.1733 84.23676,7.15437 84.45921,7.13548 85.03847,7.08669 85.03847,7.08669"
       style="fill:none;stroke:#eb0a36;stroke-width:0.79701;stroke-linecap:butt;stroke-linejoin:miter;stroke-miterlimit:10;stroke-dasharray:none;stroke-opacity:1"
       transform="matrix(1.3333333,0,0,-1.3333333,180.96,234.876)"
       clip-path="url(#clipPath20)" />
    <path
       id="path9"
       d="m 44.22093,14.17339 c 0,0.9393 -0.76143,1.70074 -1.70073,1.70074 -0.9393,0 -1.70074,-0.76144 -1.70074,-1.70074 0,-0.9393 0.76144,-1.70073 1.70074,-1.70073 0.9393,0 1.70073,0.76143 1.70073,1.70073 z"
       style="fill:#eb0a36;fill-opacity:1;fill-rule:nonzero;stroke:#eb0a36;stroke-width:0.3985;stroke-linecap:butt;stroke-linejoin:miter;stroke-miterlimit:10;stroke-dasharray:none;stroke-opacity:1"
       transform="matrix(1.3333333,0,0,-1.3333333,180.96,234.876)"
       clip-path="url(#clipPath19)" />
    <path
       id="path10"
       d="M 42.5202,0 V 14.17339 H 0"
       style="fill:none;stroke:#0000ff;stroke-width:0.79701;stroke-linecap:butt;stroke-linejoin:miter;stroke-miterlimit:10;stroke-dasharray:2.98883, 2.98883;stroke-dashoffset:0;stroke-opacity:0.5"
       transform="matrix(1.3333333,0,0,-1.3333333,180.96,234.876)"
       clip-path="url(#clipPath18)" />
    <path
       id="path11"
       d="m -14.17339,33.0712 c 0,0 2.98665,-0.99549 4.13376,-1.37787 1.1471,-0.38237 2.98667,-0.99568 4.13378,-1.37805 1.14709,-0.38238 2.98666,-0.9955 4.13377,-1.37786 1.1471,-0.38234 2.98662,-0.99549 4.13371,-1.37783 1.1471,-0.38236 2.98668,-0.99552 4.13377,-1.37787 1.14712,-0.38234 2.98667,-0.99547 4.13377,-1.37784 1.14711,-0.38238 2.98667,-0.99568 4.13377,-1.37807 1.14711,-0.38237 2.98665,-0.99551 4.13376,-1.37785 1.14711,-0.38236 2.98666,-0.99549 4.13377,-1.37786 1.1471,-0.38237 2.98667,-0.99568 4.13378,-1.37805 1.14709,-0.38238 2.98665,-0.99551 4.13375,-1.37785 1.1471,-0.38234 2.98667,-0.99548 4.13376,-1.37785 1.14711,-0.38239 2.98667,-0.9957 4.13376,-1.37807 1.14711,-0.38237 2.98668,-0.9955 4.13378,-1.37784 1.1471,-0.38235 2.98667,-0.9955 4.13377,-1.37787 1.14711,-0.38237 2.98665,-0.99568 4.13376,-1.37807 C 53.11392,10.64214 54.95349,10.029 56.1006,9.64667 57.2477,9.26433 59.08725,8.6512 60.23436,8.26881 61.38145,7.88644 63.22102,7.27312 64.36813,6.89075 65.51523,6.50838 67.3548,5.89525 68.50189,5.5129 69.649,5.13055 71.48856,4.51743 72.63565,4.13506 73.78276,3.75267 75.62233,3.13936 76.76942,2.75697 77.91653,2.3746 79.75609,1.76147 80.90318,1.37914 82.0503,0.99678 85.03696,0.00128 85.03696,0.00128"
       style="fill:none;stroke:#0000ff;stroke-width:0.79701;stroke-linecap:butt;stroke-linejoin:miter;stroke-miterlimit:10;stroke-dasharray:none;stroke-opacity:0.5"
       transform="matrix(1.3333333,0,0,-1.3333333,180.96,234.876)"
       clip-path="url(#clipPath17)" />
    <g
       id="g11"
       aria-label="y=3/x"
       transform="matrix(1.3333333,0,0,1.3333333,233.76267,181.504)"
       clip-path="url(#clipPath16)">
      <path
         id="path12"
         d="m 4.8391328,-3.7969453 c 0.046875,-0.140625 0.046875,-0.1523438 0.046875,-0.2226563 0,-0.1875 -0.140625,-0.2695312 -0.2929687,-0.2695312 -0.1054688,0 -0.2578125,0.058594 -0.3515625,0.1992187 -0.023437,0.058594 -0.09375,0.3632813 -0.140625,0.5390625 -0.070312,0.2578125 -0.140625,0.5273438 -0.1992188,0.796875 l -0.4453125,1.79296879 c -0.035156,0.15234375 -0.46875,0.85546875 -1.125,0.85546875 -0.5039062,0 -0.6210937,-0.4453125 -0.6210937,-0.80859375 0,-0.45703129 0.1757812,-1.07812499 0.515625,-1.95703129 0.1523437,-0.4101562 0.1992187,-0.515625 0.1992187,-0.7148437 0,-0.4453125 -0.328125,-0.8203125 -0.8203125,-0.8203125 -0.94921874,0 -1.31249999,1.453125 -1.31249999,1.5351562 0,0.1054688 0.09375,0.1054688 0.1171875,0.1054688 0.09375,0 0.10546875,-0.023437 0.15234375,-0.1875 0.26953125,-0.9375 0.66796874,-1.2304688 1.00781254,-1.2304688 0.082031,0 0.2578125,0 0.2578125,0.3164063 0,0.2460937 -0.1054688,0.515625 -0.1757813,0.703125 -0.3984375,1.0546875 -0.5742187,1.6171875 -0.5742187,2.0859375 0,0.89062499 0.6210937,1.18359374 1.21875,1.18359374 0.3867187,0 0.7265625,-0.1640625 0.9960937,-0.4453125 -0.1289062,0.515625 -0.2460937,1.0078125 -0.6445312,1.53515626 -0.2578125,0.3398437 -0.6328125,0.6328125 -1.0898438,0.6328125 -0.140625,0 -0.59765624,-0.035156 -0.76171874,-0.421875 0.1640625,0 0.29296874,0 0.43359374,-0.1171875 0.09375,-0.09375 0.1992188,-0.2226563 0.1992188,-0.41015626 0,-0.31640625 -0.2695313,-0.3515625 -0.375,-0.3515625 -0.22265629,0 -0.55078129,0.1640625 -0.55078129,0.64453126 0,0.5039062 0.43359375,0.8671875 1.05468749,0.8671875 1.0195313,0 2.0507813,-0.9023438 2.3320313,-2.02734376 z m 0,0"
         style="fill:#eb0a36;fill-opacity:1;fill-rule:nonzero;stroke:none" />
      <path
         id="path13"
         d="m 14.852805,-3.2578828 c 0.152343,0 0.339843,0 0.339843,-0.1992188 0,-0.1992187 -0.1875,-0.1992187 -0.328125,-0.1992187 H 8.8996797 c -0.140625,0 -0.328125,0 -0.328125,0.1992187 0,0.1992188 0.1875,0.1992188 0.3398437,0.1992188 z m 0.01172,1.9335937 c 0.140625,0 0.328125,0 0.328125,-0.1992187 0,-0.1992188 -0.1875,-0.1992188 -0.339843,-0.1992188 H 8.9113984 c -0.1523437,0 -0.3398437,0 -0.3398437,0.1992188 0,0.1992187 0.1875,0.1992187 0.328125,0.1992187 z m 6.556641,-2.1796875 c 0.808594,-0.2695312 1.394531,-0.9726562 1.394531,-1.7578125 0,-0.8203125 -0.878906,-1.3710937 -1.839843,-1.3710937 -1.007813,0 -1.757813,0.5976562 -1.757813,1.3476562 0,0.3398438 0.210938,0.5273438 0.503906,0.5273438 0.304688,0 0.503907,-0.2226563 0.503907,-0.515625 0,-0.4921875 -0.46875,-0.4921875 -0.609375,-0.4921875 0.304687,-0.4921875 0.960937,-0.6210938 1.324218,-0.6210938 0.410157,0 0.949219,0.2226563 0.949219,1.1132813 0,0.1289062 -0.01172,0.703125 -0.269531,1.1367187 -0.304688,0.4804688 -0.644531,0.515625 -0.890625,0.515625 -0.08203,0.011719 -0.316406,0.035156 -0.386719,0.035156 -0.08203,0.011719 -0.152344,0.023437 -0.152344,0.1171875 0,0.1171875 0.07031,0.1171875 0.234375,0.1171875 h 0.445313 c 0.808594,0 1.183594,0.6679687 1.183594,1.6523437 0,1.34765629 -0.691407,1.64062504 -1.125,1.64062504 -0.433594,0 -1.171875,-0.17578125 -1.523438,-0.76171875 0.351563,0.0585938 0.65625,-0.1640625 0.65625,-0.53906249 0,-0.3632813 -0.269531,-0.5625 -0.5625,-0.5625 -0.234375,0 -0.550781,0.140625 -0.550781,0.5742187 0,0.91406254 0.925781,1.57031254 2.003906,1.57031254 1.21875,0 2.121094,-0.9140625 2.121094,-1.92187504 0,-0.8203125 -0.621094,-1.59375 -1.652344,-1.8046872 z m 0,0"
         style="fill:#eb0a36;fill-opacity:1;fill-rule:nonzero;stroke:none" />
      <path
         id="path14"
         d="m 27.878195,-7.0899141 c 0.04687,-0.1289062 0.04687,-0.1757812 0.04687,-0.1875 0,-0.1054687 -0.08203,-0.1992187 -0.199218,-0.1992187 -0.07031,0 -0.128907,0.035156 -0.164063,0.09375 l -3.457031,9.4921875 c -0.04687,0.1289062 -0.04687,0.1757812 -0.04687,0.1875 0,0.1054687 0.08203,0.1992187 0.199219,0.1992187 0.128906,0 0.152343,-0.070312 0.210937,-0.2460937 z m 3.9375,4.078125 c 0.05859,-0.2578125 0.292969,-1.171875 0.984375,-1.171875 0.04687,0 0.292969,0 0.503907,0.1289063 -0.28125,0.046875 -0.480469,0.3046875 -0.480469,0.5390625 0,0.1640625 0.105469,0.3515625 0.375,0.3515625 0.222656,0 0.539062,-0.1875 0.539062,-0.5859375 0,-0.515625 -0.585937,-0.65625 -0.925781,-0.65625 -0.574219,0 -0.925781,0.5273437 -1.042969,0.7617187 -0.257812,-0.65625 -0.785156,-0.7617187 -1.078125,-0.7617187 -1.042968,0 -1.605468,1.2890625 -1.605468,1.5351562 0,0.1054688 0.105468,0.1054688 0.117187,0.1054688 0.08203,0 0.117188,-0.023437 0.128906,-0.1171875 0.339844,-1.0546875 0.996094,-1.3007813 1.335938,-1.3007813 0.1875,0 0.539062,0.09375 0.539062,0.6679688 0,0.3046875 -0.164062,0.9726562 -0.539062,2.3671875 -0.152344,0.62109374 -0.503906,1.04296874 -0.949219,1.04296874 -0.05859,0 -0.28125,0 -0.492187,-0.12890625 0.246093,-0.0585938 0.46875,-0.26953125 0.46875,-0.5390625 0,-0.26953129 -0.222657,-0.35156249 -0.375,-0.35156249 -0.292969,0 -0.539063,0.25781249 -0.539063,0.57421874 0,0.45703125 0.492188,0.65625 0.9375,0.65625 0.65625,0 1.007813,-0.69140625 1.042969,-0.75 0.117187,0.36328125 0.480469,0.75 1.078125,0.75 1.019531,0 1.59375,-1.27734374 1.59375,-1.53515624 0,-0.09375 -0.09375,-0.09375 -0.128906,-0.09375 -0.08203,0 -0.105469,0.035156 -0.128907,0.1054687 -0.328125,1.06640629 -0.996093,1.31250004 -1.324218,1.31250004 -0.386719,0 -0.539063,-0.328125 -0.539063,-0.65625 0,-0.22265625 0.05859,-0.44531254 0.164063,-0.87890624 z m 0,0"
         style="fill:#eb0a36;fill-opacity:1;fill-rule:nonzero;stroke:none" />
    </g>
    <path
       id="path15"
       d="m 3.0226563,-3.1528828 h 1.6875 c 1.4179687,0 2.8007812,-1.03125 2.8007812,-2.1445313 0,-0.7734375 -0.65625,-1.5117187 -1.96875,-1.5117187 H 2.3195313 c -0.1875,0 -0.2929688,0 -0.2929688,0.1992187 0,0.1171875 0.082031,0.1171875 0.28125,0.1171875 0.1289063,0 0.3164063,0.011719 0.4335938,0.011719 0.1523437,0.023437 0.2109375,0.058594 0.2109375,0.1640625 0,0.035156 0,0.070312 -0.035156,0.1875 L 1.58125,-0.77397656 c -0.09375,0.38671875 -0.1171875,0.46875 -0.90234375,0.46875 -0.17578125,0 -0.28125,0 -0.28125,0.1875 0,0.1171874975 0.1171875,0.1171874975 0.15234375,0.1171874975 0.28125,0 0.984375,-0.0351562475 1.265625,-0.0351562475 0.2109375,0 0.421875,0.01171875 0.6328125,0.01171875 0.2226563,0 0.4453125,0.0234374975 0.6445313,0.0234374975 0.070312,0 0.1992187,0 0.1992187,-0.1992187475 0,-0.10546875 -0.082031,-0.10546875 -0.2695312,-0.10546875 -0.375,0 -0.65625,0 -0.65625,-0.1875 0,-0.0585938 0.023437,-0.10546875 0.035156,-0.1640625 z M 3.7375,-6.1177266 c 0.082031,-0.3515625 0.1054688,-0.375 0.5390625,-0.375 h 0.9492188 c 0.8320312,0 1.359375,0.2695313 1.359375,0.9492188 0,0.3984375 -0.1992188,1.2539062 -0.5859375,1.6054687 -0.5039063,0.4453125 -1.1015625,0.5273438 -1.5351563,0.5273438 h -1.40625 z m 0,0"
       style="fill:#000000;fill-opacity:1;fill-rule:nonzero;stroke:none"
       aria-label="P"
       transform="matrix(1.3333333,0,0,1.3333333,242.76667,210.864)"
       clip-path="url(#clipPath15)" />
  </g>
</svg>
