<?xml version="1.0" encoding="UTF-8" standalone="no"?>
<!-- Created with Inkscape (http://www.inkscape.org/) -->

<svg
   version="1.1"
   id="svg1"
   width="374.97406"
   height="303.48624"
   viewBox="0 0 374.97406 303.48624"
   sodipodi:docname="dominio-rango.svg"
   inkscape:version="1.4.2 (f4327f4, 2025-05-13)"
   xmlns:inkscape="http://www.inkscape.org/namespaces/inkscape"
   xmlns:sodipodi="http://sodipodi.sourceforge.net/DTD/sodipodi-0.dtd"
   xmlns="http://www.w3.org/2000/svg"
   xmlns:svg="http://www.w3.org/2000/svg">
  <defs
     id="defs1">
    <clipPath
       clipPathUnits="userSpaceOnUse"
       id="clipPath28">
      <rect
         style="fill:none;stroke-width:0.75"
         id="rect29"
         width="281.23056"
         height="227.61469"
         x="-22.900963"
         y="-95.038864" />
    </clipPath>
    <clipPath
       clipPathUnits="userSpaceOnUse"
       id="clipPath29">
      <rect
         style="fill:none;stroke-width:0.75"
         id="rect30"
         width="281.23056"
         height="227.61469"
         x="-51.116966"
         y="-195.90987"
         transform="scale(1,-1)" />
    </clipPath>
    <clipPath
       clipPathUnits="userSpaceOnUse"
       id="clipPath30">
      <rect
         style="fill:none;stroke-width:0.75"
         id="rect31"
         width="281.23056"
         height="227.61469"
         x="-51.116966"
         y="-195.90987"
         transform="scale(1,-1)" />
    </clipPath>
    <clipPath
       clipPathUnits="userSpaceOnUse"
       id="clipPath31">
      <rect
         style="fill:none;stroke-width:0.75"
         id="rect32"
         width="281.23056"
         height="227.61469"
         x="-51.116966"
         y="-195.90987"
         transform="scale(1,-1)" />
    </clipPath>
    <clipPath
       clipPathUnits="userSpaceOnUse"
       id="clipPath32">
      <rect
         style="fill:none;stroke-width:0.75"
         id="rect33"
         width="281.23056"
         height="227.61469"
         x="-135.72997"
         y="-206.66386" />
    </clipPath>
    <clipPath
       clipPathUnits="userSpaceOnUse"
       id="clipPath33">
      <rect
         style="fill:none;stroke-width:0.75"
         id="rect34"
         width="281.23056"
         height="227.61469"
         x="-190.89897"
         y="-39.659859" />
    </clipPath>
    <clipPath
       clipPathUnits="userSpaceOnUse"
       id="clipPath34">
      <rect
         style="fill:none;stroke-width:0.75"
         id="rect35"
         width="281.23056"
         height="227.61469"
         x="-51.116966"
         y="-195.90987"
         transform="scale(1,-1)" />
    </clipPath>
    <clipPath
       clipPathUnits="userSpaceOnUse"
       id="clipPath35">
      <rect
         style="fill:none;stroke-width:0.75"
         id="rect36"
         width="281.23056"
         height="227.61469"
         x="-51.116966"
         y="-195.90987"
         transform="scale(1,-1)" />
    </clipPath>
    <clipPath
       clipPathUnits="userSpaceOnUse"
       id="clipPath36">
      <rect
         style="fill:none;stroke-width:0.75"
         id="rect37"
         width="281.23056"
         height="227.61469"
         x="-51.116966"
         y="-195.90987"
         transform="scale(1,-1)" />
    </clipPath>
    <clipPath
       clipPathUnits="userSpaceOnUse"
       id="clipPath37">
      <rect
         style="fill:none;stroke-width:0.75"
         id="rect38"
         width="281.23056"
         height="227.61469"
         x="-51.116966"
         y="-195.90987"
         transform="scale(1,-1)" />
    </clipPath>
    <clipPath
       clipPathUnits="userSpaceOnUse"
       id="clipPath38">
      <rect
         style="fill:none;stroke-width:0.75"
         id="rect39"
         width="281.23056"
         height="227.61469"
         x="-51.116966"
         y="-195.90987"
         transform="scale(1,-1)" />
    </clipPath>
    <clipPath
       clipPathUnits="userSpaceOnUse"
       id="clipPath39">
      <rect
         style="fill:none;stroke-width:0.75"
         id="rect40"
         width="281.23056"
         height="227.61469"
         x="-51.116966"
         y="-195.90987"
         transform="scale(1,-1)" />
    </clipPath>
    <clipPath
       clipPathUnits="userSpaceOnUse"
       id="clipPath40">
      <rect
         style="fill:none;stroke-width:0.75"
         id="rect41"
         width="281.23056"
         height="227.61469"
         x="-51.116966"
         y="-195.90987"
         transform="scale(1,-1)" />
    </clipPath>
    <clipPath
       clipPathUnits="userSpaceOnUse"
       id="clipPath41">
      <rect
         style="fill:none;stroke-width:0.75"
         id="rect42"
         width="281.23056"
         height="227.61469"
         x="-51.116966"
         y="-195.90987"
         transform="scale(1,-1)" />
    </clipPath>
    <clipPath
       clipPathUnits="userSpaceOnUse"
       id="clipPath42">
      <rect
         style="fill:none;stroke-width:0.75"
         id="rect43"
         width="281.23056"
         height="227.61469"
         x="-41.541962"
         y="-15.779859" />
    </clipPath>
    <clipPath
       clipPathUnits="userSpaceOnUse"
       id="clipPath43">
      <rect
         style="fill:none;stroke-width:0.75"
         id="rect44"
         width="281.23056"
         height="227.61469"
         x="-51.116966"
         y="-14.947869"
         transform="matrix(0,-1,-1,0,0,0)" />
    </clipPath>
    <clipPath
       clipPathUnits="userSpaceOnUse"
       id="clipPath44">
      <rect
         style="fill:none;stroke-width:0.75"
         id="rect45"
         width="281.23056"
         height="227.61469"
         x="-51.116966"
         y="-195.90987"
         transform="scale(1,-1)" />
    </clipPath>
    <clipPath
       clipPathUnits="userSpaceOnUse"
       id="clipPath45">
      <rect
         style="fill:none;stroke-width:0.75"
         id="rect46"
         width="281.23056"
         height="227.61469"
         x="-252.09497"
         y="-204.44186" />
    </clipPath>
    <clipPath
       clipPathUnits="userSpaceOnUse"
       id="clipPath46">
      <rect
         style="fill:none;stroke-width:0.75"
         id="rect47"
         width="281.23056"
         height="227.61469"
         x="-254.7565"
         y="-195.90987"
         transform="scale(1,-1)" />
    </clipPath>
    <clipPath
       clipPathUnits="userSpaceOnUse"
       id="clipPath47">
      <rect
         style="fill:none;stroke-width:0.75"
         id="rect48"
         width="281.23056"
         height="227.61469"
         x="-51.116966"
         y="-195.90987"
         transform="scale(1,-1)" />
    </clipPath>
    <clipPath
       clipPathUnits="userSpaceOnUse"
       id="clipPath48">
      <rect
         style="fill:none;stroke-width:0.75"
         id="rect49"
         width="281.23056"
         height="227.61469"
         x="31.15004"
         y="15.821142" />
    </clipPath>
    <clipPath
       clipPathUnits="userSpaceOnUse"
       id="clipPath49">
      <rect
         style="fill:none;stroke-width:0.75"
         id="rect50"
         width="281.23056"
         height="227.61469"
         x="40.80204"
         y="8.1141415"
         transform="scale(1,-1)" />
    </clipPath>
    <clipPath
       clipPathUnits="userSpaceOnUse"
       id="clipPath50">
      <rect
         style="fill:none;stroke-width:0.75"
         id="rect51"
         width="281.23056"
         height="227.61469"
         x="40.80204"
         y="-236.04486"
         transform="scale(1,-1)" />
    </clipPath>
  </defs>
  <sodipodi:namedview
     id="namedview1"
     pagecolor="#ffffff"
     bordercolor="#000000"
     borderopacity="0.25"
     inkscape:showpageshadow="2"
     inkscape:pageopacity="0.0"
     inkscape:pagecheckerboard="0"
     inkscape:deskcolor="#d1d1d1"
     showgrid="false"
     inkscape:zoom="2.2241536"
     inkscape:cx="187.71186"
     inkscape:cy="133.30914"
     inkscape:window-width="1920"
     inkscape:window-height="1009"
     inkscape:window-x="-8"
     inkscape:window-y="-8"
     inkscape:window-maximized="1"
     inkscape:current-layer="g1">
    <inkscape:page
       x="1.4577326e-07"
       y="1.8593653e-08"
       inkscape:label="7"
       id="page1"
       width="374.97406"
       height="303.48624"
       margin="0"
       bleed="0" />
  </sodipodi:namedview>
  <g
     id="g1"
     inkscape:groupmode="layer"
     inkscape:label="7"
     transform="translate(-54.402717,-48.108196)">
    <path
       id="path1"
       d="M 0,0 H 362.835 V 272.126 H 0 Z"
       style="fill:#ffffff;fill-opacity:1;fill-rule:nonzero;stroke:none"
       transform="matrix(1.3333333,0,0,-1.3333333,0,362.83467)"
       clip-path="url(#clipPath50)" />
    <path
       id="path2"
       d="M 0,0 H 362.835 V 27.967 H 0 Z"
       style="fill:#d2d2d2;fill-opacity:1;fill-rule:nonzero;stroke:none"
       transform="matrix(1.3333333,0,0,-1.3333333,0,37.289333)"
       clip-path="url(#clipPath49)" />
    <path
       id="path3"
       d="m 2.9896016,-5.9777734 c -0.7382813,-0.1875 -1.3828125,-0.9140625 -1.3828125,-1.828125 0,-1.0078125 0.8085937,-1.9101563 1.921875,-1.9101563 2.3554687,0 2.671875,2.3320313 2.7539062,2.9414063 0.035156,0.1757812 0.035156,0.234375 0.1757813,0.234375 0.1523437,0 0.1523437,-0.070312 0.1523437,-0.328125 v -2.90625 c 0,-0.2578126 0,-0.3281246 -0.140625,-0.3281246 -0.046875,0 -0.1054687,0 -0.1992187,0.1874996 l -0.4804688,0.8789062 c -0.6796875,-0.890625 -1.6289062,-1.0664058 -2.2617187,-1.0664058 -1.59375,0 -2.75390629,1.2773433 -2.75390629,2.7421871 0,0.6914062 0.24609379,1.3242187 0.77343749,1.8984375 0.5039063,0.5507812 1.0078125,0.6796875 2.0273438,0.9375 0.5039062,0.1171875 1.2890625,0.3164062 1.4882812,0.4101562 0.6796875,0.328125 1.125,1.1015625 1.125,1.9101563 0,1.0664062 -0.7617187,2.08593746 -1.9570312,2.08593746 -0.6445313,0 -1.5351563,-0.15234375 -2.2382813,-0.7734375 C 1.1614766,-1.6418359 1.1028828,-2.6730859 1.0911641,-3.1418359 1.0794453,-3.2590234 0.96225781,-3.2590234 0.93882031,-3.2590234 c -0.1640625,0 -0.1640625,0.070312 -0.1640625,0.328125 v 2.90624996 c 0,0.2578125 0,0.328125 0.140625,0.328125 0.09375,0 0.10546879,-0.0351563 0.19921879,-0.19921875 0.058594,-0.1171875 0.3632812,-0.65625 0.4804687,-0.8671875 0.515625,0.57421875 1.4179688,1.06640625 2.6484375,1.06640625 1.6054688,0 2.7773438,-1.37109376 2.7773438,-2.94140626 0,-0.8789062 -0.3398438,-1.5234375 -0.7265625,-1.9921875 -0.5273438,-0.6445312 -1.171875,-0.8085937 -1.734375,-0.9492187 z m 10.3095704,2.6484375 c 0.316406,0 0.339844,0 0.339844,-0.2695313 0,-1.453125 -0.773438,-2.8007812 -2.507813,-2.8007812 -1.6406249,0 -2.8945311,1.4765625 -2.8945311,3.2578125 0,1.8984375 1.4648437,3.28124996 3.0468751,3.28124996 1.710937,0 2.355469,-1.54687496 2.355469,-1.85156246 0,-0.082031 -0.07031,-0.140625 -0.152344,-0.140625 -0.117188,0 -0.152344,0.070312 -0.175781,0.140625 -0.375,1.20703121 -1.335938,1.53515621 -1.933594,1.53515621 -0.609375,0 -2.0507814,-0.3984375 -2.0507814,-2.88281251 V -3.3293359 Z M 9.3382344,-3.5988672 c 0.1171875,-2.25 1.3710936,-2.5078125 1.7812496,-2.5078125 1.535157,0 1.617188,2.015625 1.628907,2.5078125 z m 9.9023436,-1.7109375 c -0.175781,0 -0.703125,0 -0.703125,0.5859375 0,0.3515625 0.246094,0.5859375 0.585938,0.5859375 0.328125,0 0.609375,-0.1992187 0.609375,-0.609375 0,-0.9609375 -1.007813,-1.6523437 -2.167969,-1.6523437 -1.675781,0 -3.011719,1.4882812 -3.011719,3.3046875 0,1.828125 1.371094,3.23437496 3,3.23437496 1.886719,0 2.320313,-1.72265626 2.320313,-1.85156246 0,-0.1289063 -0.105469,-0.1289063 -0.140625,-0.1289063 -0.128907,0 -0.152344,0.046875 -0.1875,0.2226563 -0.316407,1.01953121 -1.089844,1.44140621 -1.863282,1.44140621 -0.878906,0 -2.039062,-0.76171875 -2.039062,-2.94140621 0,-2.3789063 1.21875,-2.9648438 1.933594,-2.9648438 0.550781,0 1.335937,0.2109375 1.664062,0.7734375 z m 6.243164,0 c -0.175781,0 -0.703125,0 -0.703125,0.5859375 0,0.3515625 0.246094,0.5859375 0.585938,0.5859375 0.328125,0 0.609375,-0.1992187 0.609375,-0.609375 0,-0.9609375 -1.007813,-1.6523437 -2.167969,-1.6523437 -1.675781,0 -3.011719,1.4882812 -3.011719,3.3046875 0,1.828125 1.371094,3.23437496 3,3.23437496 1.886719,0 2.320313,-1.72265626 2.320313,-1.85156246 0,-0.1289063 -0.105469,-0.1289063 -0.140625,-0.1289063 -0.128907,0 -0.152344,0.046875 -0.1875,0.2226563 -0.316407,1.01953121 -1.089844,1.44140621 -1.863282,1.44140621 -0.878906,0 -2.039062,-0.76171875 -2.039062,-2.94140621 0,-2.3789063 1.21875,-2.9648438 1.933594,-2.9648438 0.550781,0 1.335937,0.2109375 1.664062,0.7734375 z m 3.547852,-3.5273437 c 0,-0.375 -0.304688,-0.703125 -0.703125,-0.703125 -0.375,0 -0.691407,0.3046875 -0.691407,0.6914062 0,0.4335938 0.351563,0.703125 0.691407,0.703125 0.445312,0 0.703125,-0.375 0.703125,-0.6914062 z m -1.980469,2.671875 v 0.4101562 c 0.914062,0 1.042969,0.09375 1.042969,0.7851563 v 3.9023437 c 0,0.65625001 -0.152344,0.65625001 -1.089844,0.65625001 v 0.41015625 c 0.410156,-0.0234375 1.089844,-0.0234375 1.511719,-0.0234375 0.152343,0 0.984375,0 1.476562,0.0234375 v -0.41015625 c -0.9375,0 -0.984375,-0.0820313 -0.984375,-0.63281251 v -5.2851562 z m 8.648437,-2.9414063 c 0.234375,-0.1875 0.234375,-0.3515625 0.234375,-0.421875 0,-0.2578125 -0.246093,-0.46875 -0.492187,-0.46875 -0.199219,0 -0.28125,0.09375 -0.398438,0.2578125 l -1.710937,2.1796875 c 0.07031,0.082031 0.140625,0.1523438 0.234375,0.234375 z m 1.31836,6.0351563 c 0,-1.8515625 -1.40625,-3.328125 -3.070313,-3.328125 -1.722656,0 -3.082031,1.5234375 -3.082031,3.328125 0,1.8398437 1.429688,3.21093746 3.070313,3.21093746 1.6875,0 3.082031,-1.40624996 3.082031,-3.21093746 z m -3.070313,2.89453121 c -0.527343,0 -1.171875,-0.22265625 -1.59375,-0.92578121 -0.386718,-0.6445313 -0.398437,-1.5 -0.398437,-2.0976563 0,-0.5390625 0,-1.4179687 0.445312,-2.0625 0.398438,-0.6210937 1.03125,-0.84375 1.535157,-0.84375 0.550781,0 1.160156,0.2578125 1.546875,0.8085938 0.445312,0.6679687 0.445312,1.5703125 0.445312,2.0976562 0,0.5039063 0,1.3945313 -0.375,2.0625 -0.398437,0.69140626 -1.066406,0.96093751 -1.605469,0.96093751 z m 9.893555,-3.30468751 c 0,-1.3359375 0,-1.7460937 -0.328125,-2.203125 -0.421875,-0.5507812 -1.089844,-0.6445312 -1.582031,-0.6445312 -1.394531,0 -1.933594,1.1953125 -2.050781,1.4765625 h -0.01172 v -1.4765625 l -1.957031,0.1640625 v 0.4101562 c 0.972656,0 1.089843,0.1054688 1.089843,0.8085938 v 3.8789062 c 0,0.65625001 -0.152343,0.65625001 -1.089843,0.65625001 v 0.41015625 c 0.375,-0.0234375 1.148437,-0.0234375 1.546875,-0.0234375 0.421875,0 1.195312,0 1.570312,0.0234375 v -0.41015625 c -0.925781,0 -1.089844,0 -1.089844,-0.65625001 v -2.6601562 c 0,-1.5117188 0.984375,-2.3085938 1.875,-2.3085938 0.890625,0 1.089844,0.7265625 1.089844,1.6054688 v 3.3632812 c 0,0.65625001 -0.152344,0.65625001 -1.089844,0.65625001 v 0.41015625 c 0.375,-0.0234375 1.148438,-0.0234375 1.546875,-0.0234375 0.421875,0 1.195313,0 1.570313,0.0234375 v -0.41015625 c -0.714844,0 -1.078125,0 -1.089844,-0.43359375 z m 10.245117,-5.71875 c 0,-0.328125 0,-0.3398437 -0.292969,-0.3398437 -0.339843,0.3867187 -1.066406,0.9140625 -2.542968,0.9140625 v 0.421875 c 0.339843,0 1.054687,0 1.839843,-0.375 v 7.4765625 c 0,0.51562496 -0.04687,0.69140621 -1.300781,0.69140621 h -0.445312 v 0.41015625 c 0.386718,-0.0234375 1.78125,-0.0234375 2.25,-0.0234375 0.46875,0 1.851562,0 2.238281,0.0234375 v -0.41015625 h -0.445313 c -1.265625,0 -1.300781,-0.17578125 -1.300781,-0.69140621 z m 5.525391,8.49609376 c 0,-0.38671876 -0.328125,-0.69140626 -0.691406,-0.69140626 -0.410157,0 -0.703125,0.328125 -0.703125,0.69140626 0,0.43359375 0.363281,0.703125 0.691406,0.703125 0.386719,0 0.703125,-0.3046875 0.703125,-0.703125 z m 5.402344,-8.49609376 c 0,-0.328125 0,-0.3398437 -0.292969,-0.3398437 -0.339844,0.3867187 -1.066406,0.9140625 -2.542969,0.9140625 v 0.421875 c 0.339844,0 1.054688,0 1.839844,-0.375 v 7.4765625 c 0,0.51562496 -0.04687,0.69140621 -1.300781,0.69140621 h -0.445313 v 0.41015625 c 0.386719,-0.0234375 1.78125,-0.0234375 2.25,-0.0234375 0.46875,0 1.851563,0 2.238281,0.0234375 v -0.41015625 h -0.445312 c -1.265625,0 -1.300781,-0.17578125 -1.300781,-0.69140621 z m 5.522461,3.703125 c 0,-0.3867187 -0.328125,-0.6914062 -0.691407,-0.6914062 -0.410156,0 -0.703125,0.3398437 -0.703125,0.6914062 0,0.4335938 0.363282,0.703125 0.691407,0.703125 0.386718,0 0.703125,-0.3046875 0.703125,-0.703125 z m 0,4.79296876 c 0,-0.38671876 -0.328125,-0.69140626 -0.691407,-0.69140626 -0.410156,0 -0.703125,0.328125 -0.703125,0.69140626 0,0.43359375 0.363282,0.703125 0.691407,0.703125 0.386718,0 0.703125,-0.3046875 0.703125,-0.703125 z M 85.832375,-9.7746484 c 0,-0.2578126 0,-0.3281246 -0.140625,-0.3281246 -0.09375,0 -0.105469,0.03516 -0.1875,0.1757808 l -0.703125,1.1367188 c -0.644531,-0.8085938 -1.617188,-1.3124996 -2.660156,-1.3124996 -2.625,0 -4.886719,2.2734371 -4.886719,5.1914058 0,2.9765625 2.296875,5.21484376 4.886719,5.21484376 2.355468,0 3.691406,-2.05078126 3.691406,-3.63281246 0,-0.1523438 0,-0.2460938 -0.152344,-0.2460938 -0.152344,0 -0.164062,0.070312 -0.164062,0.1757813 -0.128907,2.2851562 -1.792969,3.28124996 -3.1875,3.28124996 -0.996094,0 -3.738282,-0.59765625 -3.738282,-4.79296876 0,-4.1367187 2.695313,-4.7695312 3.726563,-4.7695312 1.511719,0 2.824219,1.2773437 3.117187,3.421875 0.02344,0.1757812 0.02344,0.2226562 0.199219,0.2226562 0.199219,0 0.199219,-0.046875 0.199219,-0.328125 z m 5.15332,3.609375 v 0.4101562 c 0.972657,0 1.089844,0.1054688 1.089844,0.8085938 v 2.5664062 c 0,1.21875 -0.644531,2.23828126 -1.722656,2.23828126 -1.171875,0 -1.242188,-0.6796875 -1.242188,-1.44140626 v -4.7460937 l -2.027343,0.1640625 v 0.4101562 c 1.089843,0 1.089843,0.046875 1.089843,1.3242188 v 2.1445312 c 0,0.890625 0,1.40625001 0.433594,1.88671876 0.339844,0.375 0.925781,0.5390625 1.664063,0.5390625 0.246093,0 0.703125,0 1.183593,-0.41015625 0.421875,-0.328125 0.65625,-0.87890621 0.65625,-0.87890621 v 1.28906246 l 1.992188,-0.140625 v -0.41015625 c -0.984375,0 -1.089844,-0.10546875 -1.089844,-0.80859371 v -5.109375 z m 8.976563,2.3320312 c 0,-0.7734375 0,-1.3476562 -0.621094,-1.9101562 -0.503906,-0.4570313 -1.148437,-0.65625 -1.78125,-0.65625 -1.183594,0 -2.085937,0.7734375 -2.085937,1.7109375 0,0.4101562 0.28125,0.609375 0.609375,0.609375 0.339843,0 0.585937,-0.234375 0.585937,-0.5859375 0,-0.5859375 -0.515625,-0.5859375 -0.726562,-0.5859375 0.328125,-0.5976563 1.007812,-0.8554688 1.582031,-0.8554688 0.667969,0 1.511719,0.5390625 1.511719,1.828125 v 0.5742188 c -2.882813,0.046875 -3.972657,1.2539062 -3.972657,2.3554687 0,1.13671876 1.3125,1.48828126 2.191407,1.48828126 0.949218,0 1.59375,-0.57421875 1.863281,-1.25390626 0.05859,0.66796876 0.503906,1.18359376 1.125002,1.18359376 0.29297,0 1.125,-0.19921875 1.125,-1.34765626 v -0.796875 h -0.31641 v 0.796875 c 0,0.82031251 -0.33984,0.93750001 -0.53906,0.93750001 -0.550782,0 -0.550782,-0.76171871 -0.550782,-0.98437501 z m -0.925781,1.8046875 c 0,1.40625001 -1.042969,1.88671876 -1.664063,1.88671876 -0.703125,0 -1.289062,-0.515625 -1.289062,-1.20703126 0,-1.8984375 2.4375,-2.0625 2.953125,-2.0976562 z m 4.831053,-3.7382812 h 2.01563 v -0.421875 h -2.01563 v -2.6367188 h -0.3164 c -0.0234,1.3476563 -0.53907,2.7304688 -1.83985,2.765625 v 0.2929688 h 1.21875 v 3.984375 c 0,1.59374996 1.06641,1.92187496 1.82813,1.92187496 0.90234,0 1.37109,-0.890625 1.37109,-1.92187496 v -0.8203125 h -0.31641 v 0.796875 c 0,1.03124996 -0.41015,1.62890621 -0.97265,1.62890621 -0.97266,0 -0.97266,-1.33593751 -0.97266,-1.57031251 z m 5.44043,2.4257812 c 0,-1.3945312 0.57422,-2.6953125 1.6875,-2.6953125 0.10547,0 0.14063,0 0.19922,0.011719 -0.11719,0.058594 -0.35156,0.140625 -0.35156,0.5273437 0,0.421875 0.33984,0.5742188 0.5625,0.5742188 0.29297,0 0.57422,-0.1875 0.57422,-0.5742188 0,-0.4335937 -0.38672,-0.8320312 -1.00782,-0.8320312 -1.21875,0 -1.6289,1.3242187 -1.71093,1.59375 h -0.0234 v -1.59375 l -1.92188,0.1640625 v 0.4101562 c 0.98438,0 1.08985,0.1054688 1.08985,0.8085938 v 3.8789062 c 0,0.65625001 -0.15235,0.65625001 -1.08985,0.65625001 v 0.41015625 c 0.41016,-0.0234375 1.19532,-0.0234375 1.62891,-0.0234375 0.38672,0 1.40625,0 1.73437,0.0234375 v -0.41015625 h -0.29296 c -1.04297,0 -1.07813,-0.1640625 -1.07813,-0.67968751 z m 9.65625,0.2695313 c 0,-1.8515625 -1.40625,-3.328125 -3.07031,-3.328125 -1.72266,0 -3.08203,1.5234375 -3.08203,3.328125 0,1.8398437 1.42968,3.21093746 3.07031,3.21093746 1.6875,0 3.08203,-1.40624996 3.08203,-3.21093746 z m -3.07031,2.89453121 c -0.52735,0 -1.17188,-0.22265625 -1.59375,-0.92578121 -0.38672,-0.6445313 -0.39844,-1.5 -0.39844,-2.0976563 0,-0.5390625 0,-1.4179687 0.44531,-2.0625 0.39844,-0.6210937 1.03125,-0.84375 1.53516,-0.84375 0.55078,0 1.16016,0.2578125 1.54687,0.8085938 0.44532,0.6679687 0.44532,1.5703125 0.44532,2.0976562 0,0.5039063 0,1.3945313 -0.375,2.0625 -0.39844,0.69140626 -1.06641,0.96093751 -1.60547,0.96093751 z m 18.47461,-3.30468751 c 0,-1.3359375 0,-1.7460937 -0.33985,-2.203125 -0.41015,-0.5507812 -1.08984,-0.6445312 -1.57031,-0.6445312 -1.19531,0 -1.79297,0.8671875 -2.02734,1.4179687 -0.19922,-1.1015625 -0.97266,-1.4179687 -1.875,-1.4179687 -1.39453,0 -1.9336,1.1953125 -2.05078,1.4765625 h -0.0117 v -1.4765625 l -1.95703,0.1640625 v 0.4101562 c 0.97265,0 1.08984,0.1054688 1.08984,0.8085938 v 3.8789062 c 0,0.65625001 -0.15234,0.65625001 -1.08984,0.65625001 v 0.41015625 c 0.375,-0.0234375 1.14843,-0.0234375 1.54687,-0.0234375 0.42188,0 1.19531,0 1.57031,0.0234375 v -0.41015625 c -0.92578,0 -1.08984,0 -1.08984,-0.65625001 v -2.6601562 c 0,-1.5117188 0.98438,-2.3085938 1.875,-2.3085938 0.89063,0 1.08984,0.7265625 1.08984,1.6054688 v 3.3632812 c 0,0.65625001 -0.15234,0.65625001 -1.08984,0.65625001 v 0.41015625 c 0.375,-0.0234375 1.14844,-0.0234375 1.54688,-0.0234375 0.42187,0 1.19531,0 1.57031,0.0234375 v -0.41015625 c -0.92578,0 -1.08985,0 -1.08985,-0.65625001 v -2.6601562 c 0,-1.5117188 0.98438,-2.3085938 1.875,-2.3085938 0.89063,0 1.08985,0.7265625 1.08985,1.6054688 v 3.3632812 c 0,0.65625001 -0.15235,0.65625001 -1.08985,0.65625001 v 0.41015625 c 0.375,-0.0234375 1.14844,-0.0234375 1.54688,-0.0234375 0.42187,0 1.19531,0 1.57031,0.0234375 v -0.41015625 c -0.72656,0 -1.07812,0 -1.08984,-0.43359375 z m 6.94922,-0.3515625 c 0,-0.7734375 0,-1.3476562 -0.6211,-1.9101562 -0.5039,-0.4570313 -1.14843,-0.65625 -1.78125,-0.65625 -1.18359,0 -2.08593,0.7734375 -2.08593,1.7109375 0,0.4101562 0.28125,0.609375 0.60937,0.609375 0.33984,0 0.58594,-0.234375 0.58594,-0.5859375 0,-0.5859375 -0.51563,-0.5859375 -0.72656,-0.5859375 0.32812,-0.5976563 1.00781,-0.8554688 1.58203,-0.8554688 0.66797,0 1.51172,0.5390625 1.51172,1.828125 v 0.5742188 c -2.88282,0.046875 -3.97266,1.2539062 -3.97266,2.3554687 0,1.13671876 1.3125,1.48828126 2.19141,1.48828126 0.94921,0 1.59375,-0.57421875 1.86328,-1.25390626 0.0586,0.66796876 0.5039,1.18359376 1.125,1.18359376 0.29297,0 1.125,-0.19921875 1.125,-1.34765626 v -0.796875 h -0.31641 v 0.796875 c 0,0.82031251 -0.33984,0.93750001 -0.53906,0.93750001 -0.55078,0 -0.55078,-0.76171871 -0.55078,-0.98437501 z m -0.92578,1.8046875 c 0,1.40625001 -1.04297,1.88671876 -1.66407,1.88671876 -0.70312,0 -1.28906,-0.515625 -1.28906,-1.20703126 0,-1.8984375 2.4375,-2.0625 2.95313,-2.0976562 z m 8.80664,-1.453125 c 0,-1.3359375 0,-1.7460937 -0.32813,-2.203125 -0.42187,-0.5507812 -1.08984,-0.6445312 -1.58203,-0.6445312 -1.39453,0 -1.93359,1.1953125 -2.05078,1.4765625 h -0.0117 v -1.4765625 l -1.95703,0.1640625 v 0.4101562 c 0.97265,0 1.08984,0.1054688 1.08984,0.8085938 v 3.8789062 c 0,0.65625001 -0.15234,0.65625001 -1.08984,0.65625001 v 0.41015625 c 0.375,-0.0234375 1.14844,-0.0234375 1.54687,-0.0234375 0.42188,0 1.19532,0 1.57032,0.0234375 v -0.41015625 c -0.92579,0 -1.08985,0 -1.08985,-0.65625001 v -2.6601562 c 0,-1.5117188 0.98438,-2.3085938 1.875,-2.3085938 0.89063,0 1.08985,0.7265625 1.08985,1.6054688 v 3.3632812 c 0,0.65625001 -0.15235,0.65625001 -1.08985,0.65625001 v 0.41015625 c 0.375,-0.0234375 1.14844,-0.0234375 1.54688,-0.0234375 0.42187,0 1.19531,0 1.57031,0.0234375 v -0.41015625 c -0.71484,0 -1.07813,0 -1.08984,-0.43359375 z m 6.91113,0.1523438 c 0.31641,0 0.33984,0 0.33984,-0.2695313 0,-1.453125 -0.77343,-2.8007812 -2.50781,-2.8007812 -1.64062,0 -2.89453,1.4765625 -2.89453,3.2578125 0,1.8984375 1.46484,3.28124996 3.04687,3.28124996 1.71094,0 2.35547,-1.54687496 2.35547,-1.85156246 0,-0.082031 -0.0703,-0.140625 -0.15234,-0.140625 -0.11719,0 -0.15234,0.070312 -0.17578,0.140625 -0.375,1.20703121 -1.33594,1.53515621 -1.9336,1.53515621 -0.60937,0 -2.05078,-0.3984375 -2.05078,-2.88281251 v -0.2695312 z m -3.96094,-0.2695313 c 0.11719,-2.25 1.3711,-2.5078125 1.78125,-2.5078125 1.53516,0 1.61719,2.015625 1.62891,2.5078125 z m 7.10156,0.2578125 c 0,-1.3945312 0.57422,-2.6953125 1.6875,-2.6953125 0.10547,0 0.14063,0 0.19922,0.011719 -0.11718,0.058594 -0.35156,0.140625 -0.35156,0.5273437 0,0.421875 0.33984,0.5742188 0.5625,0.5742188 0.29297,0 0.57422,-0.1875 0.57422,-0.5742188 0,-0.4335937 -0.38672,-0.8320312 -1.00781,-0.8320312 -1.21875,0 -1.62891,1.3242187 -1.71094,1.59375 h -0.0234 v -1.59375 l -1.92187,0.1640625 v 0.4101562 c 0.98437,0 1.08984,0.1054688 1.08984,0.8085938 v 3.8789062 c 0,0.65625001 -0.15234,0.65625001 -1.08984,0.65625001 v 0.41015625 c 0.41015,-0.0234375 1.19531,-0.0234375 1.6289,-0.0234375 0.38672,0 1.40625,0 1.73438,0.0234375 v -0.41015625 h -0.29297 c -1.04297,0 -1.07813,-0.1640625 -1.07813,-0.67968751 z m 8.60157,-0.4921875 c 0,-0.7734375 0,-1.3476562 -0.6211,-1.9101562 -0.5039,-0.4570313 -1.14843,-0.65625 -1.78125,-0.65625 -1.18359,0 -2.08593,0.7734375 -2.08593,1.7109375 0,0.4101562 0.28125,0.609375 0.60937,0.609375 0.33984,0 0.58594,-0.234375 0.58594,-0.5859375 0,-0.5859375 -0.51563,-0.5859375 -0.72656,-0.5859375 0.32812,-0.5976563 1.00781,-0.8554688 1.58203,-0.8554688 0.66797,0 1.51172,0.5390625 1.51172,1.828125 v 0.5742188 c -2.88282,0.046875 -3.97266,1.2539062 -3.97266,2.3554687 0,1.13671876 1.3125,1.48828126 2.19141,1.48828126 0.94921,0 1.59375,-0.57421875 1.86328,-1.25390626 0.0586,0.66796876 0.5039,1.18359376 1.125,1.18359376 0.29297,0 1.125,-0.19921875 1.125,-1.34765626 v -0.796875 h -0.31641 v 0.796875 c 0,0.82031251 -0.33984,0.93750001 -0.53906,0.93750001 -0.55078,0 -0.55078,-0.76171871 -0.55078,-0.98437501 z m -0.92578,1.8046875 c 0,1.40625001 -1.04297,1.88671876 -1.66407,1.88671876 -0.70312,0 -1.28906,-0.515625 -1.28906,-1.20703126 0,-1.8984375 2.4375,-2.0625 2.95313,-2.0976562 z m 7.11914,-4.0429687 c 0,-0.2578125 0,-0.328125 -0.14063,-0.328125 -0.11719,0 -0.38672,0.3164062 -0.48047,0.4453125 -0.44531,-0.3632813 -0.89062,-0.4453125 -1.34765,-0.4453125 -1.7461,0 -2.26172,0.9492187 -2.26172,1.734375 0,0.1640625 0,0.6679687 0.55078,1.1601562 0.45703,0.4101563 0.94922,0.5039063 1.60547,0.6328125 0.78515,0.1640625 0.97265,0.1992188 1.33593,0.4921875 0.25782,0.2109375 0.44532,0.5273438 0.44532,0.9257813 0,0.62109371 -0.36328,1.31249996 -1.62891,1.31249996 -0.9375,0 -1.62891,-0.55078125 -1.94531,-1.98046876 -0.0586,-0.2578125 -0.0586,-0.2695312 -0.0703,-0.2929687 -0.0352,-0.058594 -0.082,-0.058594 -0.12891,-0.058594 -0.16406,0 -0.16406,0.082031 -0.16406,0.3398438 v 1.94531246 c 0,0.2578125 0,0.328125 0.15234,0.328125 0.0703,0 0.082,-0.0117188 0.32813,-0.31640625 0.0703,-0.09375 0.0703,-0.12890625 0.28125,-0.3515625 0.55078,0.66796875 1.32421,0.66796875 1.57031,0.66796875 1.5,0 2.25,-0.83203125 2.25,-1.95703126 0,-0.7851562 -0.48047,-1.2421875 -0.60938,-1.3710937 -0.51562,-0.4453125 -0.90234,-0.5273438 -1.83984,-0.703125 -0.43359,-0.082031 -1.48828,-0.28125 -1.48828,-1.1484375 0,-0.4453125 0.30469,-1.1015625 1.59375,-1.1015625 1.57031,0 1.65234,1.3359375 1.6875,1.78125 0.0117,0.1171875 0.10547,0.1171875 0.15234,0.1171875 0.15235,0 0.15235,-0.070312 0.15235,-0.328125 z m 9.81738,-3.7265625 v 0.421875 c 0.97265,0 1.08984,0.09375 1.08984,0.796875 v 3.1757812 c -0.29297,-0.421875 -0.91406,-0.9257812 -1.79297,-0.9257812 -1.66406,0 -3.09375,1.40625 -3.09375,3.2460937 0,1.8164063 1.35938,3.22265626 2.94141,3.22265626 1.08984,0 1.72266,-0.71484375 1.92187,-0.984375 v 0.984375 l 2.01563,-0.140625 v -0.41015625 c -0.97266,0 -1.08984,-0.10546875 -1.08984,-0.80859371 v -8.7304688 z m 1.0664,8.1210937 c 0,0.2578125 0,0.2929688 -0.19921,0.609375 -0.35157,0.50390626 -0.9375,0.92578126 -1.65235,0.92578126 -0.375,0 -1.92187,-0.140625 -1.92187,-2.92968746 0,-1.03125 0.17578,-1.6054688 0.48047,-2.0742188 0.29296,-0.4453125 0.86718,-0.890625 1.58203,-0.890625 0.89062,0 1.39453,0.6445313 1.53515,0.8671875 0.17578,0.2460938 0.17578,0.28125 0.17578,0.5390625 z m 7.9336,-1.6523437 c 0.3164,0 0.33984,0 0.33984,-0.2695313 0,-1.453125 -0.77344,-2.8007812 -2.50781,-2.8007812 -1.64063,0 -2.89453,1.4765625 -2.89453,3.2578125 0,1.8984375 1.46484,3.28124996 3.04687,3.28124996 1.71094,0 2.35547,-1.54687496 2.35547,-1.85156246 0,-0.082031 -0.0703,-0.140625 -0.15234,-0.140625 -0.11719,0 -0.15235,0.070312 -0.17578,0.140625 -0.375,1.20703121 -1.33594,1.53515621 -1.9336,1.53515621 -0.60937,0 -2.05078,-0.3984375 -2.05078,-2.88281251 v -0.2695312 z m -3.96094,-0.2695313 c 0.11719,-2.25 1.37109,-2.5078125 1.78125,-2.5078125 1.53516,0 1.61719,2.015625 1.62891,2.5078125 z m 11.79199,0.2578125 c 0,-1.3945312 0.57422,-2.6953125 1.6875,-2.6953125 0.10547,0 0.14063,0 0.19922,0.011719 -0.11719,0.058594 -0.35156,0.140625 -0.35156,0.5273437 0,0.421875 0.33984,0.5742188 0.5625,0.5742188 0.29297,0 0.57422,-0.1875 0.57422,-0.5742188 0,-0.4335937 -0.38672,-0.8320312 -1.00781,-0.8320312 -1.21875,0 -1.62891,1.3242187 -1.71094,1.59375 h -0.0234 v -1.59375 l -1.92187,0.1640625 v 0.4101562 c 0.98437,0 1.08984,0.1054688 1.08984,0.8085938 v 3.8789062 c 0,0.65625001 -0.15234,0.65625001 -1.08984,0.65625001 v 0.41015625 c 0.41015,-0.0234375 1.19531,-0.0234375 1.6289,-0.0234375 0.38672,0 1.40625,0 1.73438,0.0234375 v -0.41015625 h -0.29297 c -1.04297,0 -1.07813,-0.1640625 -1.07813,-0.67968751 z m 8.56641,0.011719 c 0.31641,0 0.33984,0 0.33984,-0.2695313 0,-1.453125 -0.77343,-2.8007812 -2.50781,-2.8007812 -1.64062,0 -2.89453,1.4765625 -2.89453,3.2578125 0,1.8984375 1.46484,3.28124996 3.04687,3.28124996 1.71094,0 2.35547,-1.54687496 2.35547,-1.85156246 0,-0.082031 -0.0703,-0.140625 -0.15234,-0.140625 -0.11719,0 -0.15234,0.070312 -0.17578,0.140625 -0.375,1.20703121 -1.33594,1.53515621 -1.9336,1.53515621 -0.60937,0 -2.05078,-0.3984375 -2.05078,-2.88281251 v -0.2695312 z m -3.96094,-0.2695313 c 0.11719,-2.25 1.3711,-2.5078125 1.78125,-2.5078125 1.53516,0 1.61719,2.015625 1.62891,2.5078125 z m 8.22363,5.9648438 c -0.91406,0 -1.08984,0 -1.08984,-0.6445313 v -2.49609374 c 0.25781,0.36328125 0.84375,0.9140625 1.75781,0.9140625 1.65235,0 3.10547,-1.38281246 3.10547,-3.23437496 0,-1.828125 -1.34765,-3.234375 -2.91797,-3.234375 -1.2539,0 -1.93359,0.9023437 -1.98047,0.9609375 v -0.9609375 l -1.99218,0.1640625 v 0.4101562 c 1.00781,0 1.08984,0.1054688 1.08984,0.7382813 v 6.7382812 c 0,0.6445313 -0.15234,0.6445313 -1.08984,0.6445313 V 2.776133 c 0.375,-0.023437 1.14843,-0.023437 1.54687,-0.023437 0.42188,0 1.19531,0 1.57031,0.023437 z m -1.08984,-6.9375 c 0,-0.28125 0,-0.2929688 0.15234,-0.5273438 0.4336,-0.6445312 1.13672,-0.9140625 1.6875,-0.9140625 1.06641,0 1.9336,1.3125 1.9336,2.9179688 0,1.6992187 -0.97266,2.95312496 -2.08594,2.95312496 -0.44531,0 -0.85547,-0.1875 -1.14844,-0.45703125 -0.32812,-0.33984375 -0.53906,-0.62109371 -0.53906,-1.01953121 z m 7.76953,1.2304687 c 0,-1.3945312 0.57422,-2.6953125 1.6875,-2.6953125 0.10547,0 0.14063,0 0.19922,0.011719 -0.11719,0.058594 -0.35156,0.140625 -0.35156,0.5273437 0,0.421875 0.33984,0.5742188 0.5625,0.5742188 0.29297,0 0.57422,-0.1875 0.57422,-0.5742188 0,-0.4335937 -0.38672,-0.8320312 -1.00782,-0.8320312 -1.21875,0 -1.6289,1.3242187 -1.71093,1.59375 h -0.0234 v -1.59375 l -1.92188,0.1640625 v 0.4101562 c 0.98438,0 1.08985,0.1054688 1.08985,0.8085938 v 3.8789062 c 0,0.65625001 -0.15235,0.65625001 -1.08985,0.65625001 v 0.41015625 c 0.41016,-0.0234375 1.19532,-0.0234375 1.62891,-0.0234375 0.38672,0 1.40625,0 1.73438,0.0234375 v -0.41015625 h -0.29297 c -1.04297,0 -1.07813,-0.1640625 -1.07813,-0.67968751 z m 8.56934,0.011719 c 0.3164,0 0.33984,0 0.33984,-0.2695313 0,-1.453125 -0.77344,-2.8007812 -2.50781,-2.8007812 -1.64063,0 -2.89453,1.4765625 -2.89453,3.2578125 0,1.8984375 1.46484,3.28124996 3.04687,3.28124996 1.71094,0 2.35547,-1.54687496 2.35547,-1.85156246 0,-0.082031 -0.0703,-0.140625 -0.15234,-0.140625 -0.11719,0 -0.15235,0.070312 -0.17578,0.140625 -0.375,1.20703121 -1.33594,1.53515621 -1.9336,1.53515621 -0.60937,0 -2.05078,-0.3984375 -2.05078,-2.88281251 v -0.2695312 z m -3.96094,-0.2695313 c 0.11719,-2.25 1.37109,-2.5078125 1.78125,-2.5078125 1.53516,0 1.61719,2.015625 1.62891,2.5078125 z m 9.40723,-2.4726562 c 0,-0.2578125 0,-0.328125 -0.14063,-0.328125 -0.11719,0 -0.38672,0.3164062 -0.48047,0.4453125 -0.44531,-0.3632813 -0.89062,-0.4453125 -1.34765,-0.4453125 -1.7461,0 -2.26172,0.9492187 -2.26172,1.734375 0,0.1640625 0,0.6679687 0.55078,1.1601562 0.45703,0.4101563 0.94922,0.5039063 1.60547,0.6328125 0.78515,0.1640625 0.97265,0.1992188 1.33594,0.4921875 0.25781,0.2109375 0.44531,0.5273438 0.44531,0.9257813 0,0.62109371 -0.36328,1.31249996 -1.62891,1.31249996 -0.9375,0 -1.6289,-0.55078125 -1.94531,-1.98046876 -0.0586,-0.2578125 -0.0586,-0.2695312 -0.0703,-0.2929687 -0.0352,-0.058594 -0.082,-0.058594 -0.12891,-0.058594 -0.16406,0 -0.16406,0.082031 -0.16406,0.3398438 v 1.94531246 c 0,0.2578125 0,0.328125 0.15234,0.328125 0.0703,0 0.082,-0.0117188 0.32813,-0.31640625 0.0703,-0.09375 0.0703,-0.12890625 0.28125,-0.3515625 0.55078,0.66796875 1.32422,0.66796875 1.57031,0.66796875 1.5,0 2.25,-0.83203125 2.25,-1.95703126 0,-0.7851562 -0.48047,-1.2421875 -0.60938,-1.3710937 -0.51562,-0.4453125 -0.90234,-0.5273438 -1.83984,-0.703125 -0.43359,-0.082031 -1.48828,-0.28125 -1.48828,-1.1484375 0,-0.4453125 0.30469,-1.1015625 1.59375,-1.1015625 1.57031,0 1.65234,1.3359375 1.6875,1.78125 0.0117,0.1171875 0.10547,0.1171875 0.15234,0.1171875 0.15235,0 0.15235,-0.070312 0.15235,-0.328125 z m 6.33691,2.7421875 c 0.31641,0 0.33985,0 0.33985,-0.2695313 0,-1.453125 -0.77344,-2.8007812 -2.50782,-2.8007812 -1.64062,0 -2.89453,1.4765625 -2.89453,3.2578125 0,1.8984375 1.46485,3.28124996 3.04688,3.28124996 1.71093,0 2.35547,-1.54687496 2.35547,-1.85156246 0,-0.082031 -0.0703,-0.140625 -0.15235,-0.140625 -0.11719,0 -0.15234,0.070312 -0.17578,0.140625 -0.375,1.20703121 -1.33594,1.53515621 -1.93359,1.53515621 -0.60938,0 -2.05078,-0.3984375 -2.05078,-2.88281251 v -0.2695312 z m -3.96094,-0.2695313 c 0.11719,-2.25 1.3711,-2.5078125 1.78125,-2.5078125 1.53516,0 1.61719,2.015625 1.62891,2.5078125 z m 11.09473,0.1171875 c 0,-1.3359375 0,-1.7460937 -0.32812,-2.203125 -0.42188,-0.5507812 -1.08985,-0.6445312 -1.58204,-0.6445312 -1.39453,0 -1.93359,1.1953125 -2.05078,1.4765625 h -0.0117 v -1.4765625 l -1.95703,0.1640625 v 0.4101562 c 0.97266,0 1.08985,0.1054688 1.08985,0.8085938 v 3.8789062 c 0,0.65625001 -0.15235,0.65625001 -1.08985,0.65625001 v 0.41015625 c 0.375,-0.0234375 1.14844,-0.0234375 1.54688,-0.0234375 0.42187,0 1.19531,0 1.57031,0.0234375 v -0.41015625 c -0.92578,0 -1.08984,0 -1.08984,-0.65625001 V -3.727773 c 0,-1.5117188 0.98437,-2.3085938 1.875,-2.3085938 0.89062,0 1.08984,0.7265625 1.08984,1.6054688 v 3.3632812 c 0,0.65625001 -0.15234,0.65625001 -1.08984,0.65625001 v 0.41015625 c 0.375,-0.0234375 1.14843,-0.0234375 1.54687,-0.0234375 0.42188,0 1.19531,0 1.57031,0.0234375 v -0.41015625 c -0.71484,0 -1.07812,0 -1.08984,-0.43359375 z m 3.43066,-2.2851562 h 2.01563 v -0.421875 h -2.01563 v -2.6367188 h -0.3164 c -0.0234,1.3476563 -0.53906,2.7304688 -1.83985,2.765625 v 0.2929688 h 1.21875 v 3.984375 c 0,1.59374996 1.06641,1.92187496 1.82813,1.92187496 0.90234,0 1.37109,-0.890625 1.37109,-1.92187496 V -2.602773 h -0.3164 v 0.796875 c 0,1.03124996 -0.41016,1.62890621 -0.97266,1.62890621 -0.97266,0 -0.97266,-1.33593751 -0.97266,-1.57031251 z m 8.58106,1.9335937 c 0,-0.7734375 0,-1.3476562 -0.62109,-1.9101562 -0.50391,-0.4570313 -1.14844,-0.65625 -1.78125,-0.65625 -1.1836,0 -2.08594,0.7734375 -2.08594,1.7109375 0,0.4101562 0.28125,0.609375 0.60937,0.609375 0.33985,0 0.58594,-0.234375 0.58594,-0.5859375 0,-0.5859375 -0.51562,-0.5859375 -0.72656,-0.5859375 0.32812,-0.5976563 1.00781,-0.8554688 1.58203,-0.8554688 0.66797,0 1.51172,0.5390625 1.51172,1.828125 v 0.5742188 c -2.88281,0.046875 -3.97266,1.2539062 -3.97266,2.3554687 0,1.13671876 1.3125,1.48828126 2.19141,1.48828126 0.94922,0 1.59375,-0.57421875 1.86328,-1.25390626 0.0586,0.66796876 0.50391,1.18359376 1.125,1.18359376 0.29297,0 1.125,-0.19921875 1.125,-1.34765626 v -0.796875 h -0.31641 v 0.796875 c 0,0.82031251 -0.33984,0.93750001 -0.53906,0.93750001 -0.55078,0 -0.55078,-0.76171871 -0.55078,-0.98437501 z m -0.92578,1.8046875 c 0,1.40625001 -1.04297,1.88671876 -1.66406,1.88671876 -0.70313,0 -1.28907,-0.515625 -1.28907,-1.20703126 0,-1.8984375 2.4375,-2.0625 2.95313,-2.0976562 z m 4.80762,-1.3125 c 0,-1.3945312 0.57421,-2.6953125 1.6875,-2.6953125 0.10546,0 0.14062,0 0.19921,0.011719 -0.11718,0.058594 -0.35156,0.140625 -0.35156,0.5273437 0,0.421875 0.33985,0.5742188 0.5625,0.5742188 0.29297,0 0.57422,-0.1875 0.57422,-0.5742188 0,-0.4335937 -0.38672,-0.8320312 -1.00781,-0.8320312 -1.21875,0 -1.62891,1.3242187 -1.71094,1.59375 h -0.0234 v -1.59375 l -1.92187,0.1640625 v 0.4101562 c 0.98437,0 1.08984,0.1054688 1.08984,0.8085938 v 3.8789062 c 0,0.65625001 -0.15234,0.65625001 -1.08984,0.65625001 v 0.41015625 c 0.41015,-0.0234375 1.19531,-0.0234375 1.6289,-0.0234375 0.38672,0 1.40625,0 1.73438,0.0234375 v -0.41015625 h -0.29297 c -1.04297,0 -1.07812,-0.1640625 -1.07812,-0.67968751 z m 12.12304,-2.8242187 v 0.4101562 c 0.97266,0 1.08985,0.1054688 1.08985,0.8085938 v 2.5664062 c 0,1.21875 -0.64454,2.23828126 -1.72266,2.23828126 -1.17188,0 -1.24219,-0.6796875 -1.24219,-1.44140626 v -4.7460937 l -2.02734,0.1640625 v 0.4101562 c 1.08984,0 1.08984,0.046875 1.08984,1.3242188 v 2.1445312 c 0,0.890625 0,1.40625001 0.4336,1.88671876 0.33984,0.375 0.92578,0.5390625 1.66406,0.5390625 0.24609,0 0.70312,0 1.18359,-0.41015625 0.42188,-0.328125 0.65625,-0.87890621 0.65625,-0.87890621 v 1.28906246 l 1.99219,-0.140625 v -0.41015625 c -0.98438,0 -1.08984,-0.10546875 -1.08984,-0.80859371 v -5.109375 z m 9.83203,2.6835937 c 0,-1.3359375 0,-1.7460937 -0.32812,-2.203125 -0.42188,-0.5507812 -1.08985,-0.6445312 -1.58203,-0.6445312 -1.39453,0 -1.9336,1.1953125 -2.05078,1.4765625 h -0.0117 v -1.4765625 l -1.95703,0.1640625 v 0.4101562 c 0.97265,0 1.08984,0.1054688 1.08984,0.8085938 v 3.8789062 c 0,0.65625001 -0.15234,0.65625001 -1.08984,0.65625001 v 0.41015625 c 0.375,-0.0234375 1.14843,-0.0234375 1.54687,-0.0234375 0.42188,0 1.19531,0 1.57031,0.0234375 v -0.41015625 c -0.92578,0 -1.08984,0 -1.08984,-0.65625001 V -3.727773 c 0,-1.5117188 0.98437,-2.3085938 1.875,-2.3085938 0.89062,0 1.08984,0.7265625 1.08984,1.6054688 v 3.3632812 c 0,0.65625001 -0.15234,0.65625001 -1.08984,0.65625001 v 0.41015625 c 0.375,-0.0234375 1.14844,-0.0234375 1.54687,-0.0234375 0.42188,0 1.19532,0 1.57032,0.0234375 v -0.41015625 c -0.71485,0 -1.07813,0 -1.08985,-0.43359375 z m 6.94922,-0.3515625 c 0,-0.7734375 0,-1.3476562 -0.62109,-1.9101562 -0.50391,-0.4570313 -1.14844,-0.65625 -1.78125,-0.65625 -1.1836,0 -2.08594,0.7734375 -2.08594,1.7109375 0,0.4101562 0.28125,0.609375 0.60938,0.609375 0.33984,0 0.58593,-0.234375 0.58593,-0.5859375 0,-0.5859375 -0.51562,-0.5859375 -0.72656,-0.5859375 0.32813,-0.5976563 1.00781,-0.8554688 1.58203,-0.8554688 0.66797,0 1.51172,0.5390625 1.51172,1.828125 v 0.5742188 c -2.88281,0.046875 -3.97266,1.2539062 -3.97266,2.3554687 0,1.13671876 1.3125,1.48828126 2.19141,1.48828126 0.94922,0 1.59375,-0.57421875 1.86328,-1.25390626 0.0586,0.66796876 0.50391,1.18359376 1.125,1.18359376 0.29297,0 1.125,-0.19921875 1.125,-1.34765626 v -0.796875 h -0.3164 v 0.796875 c 0,0.82031251 -0.33985,0.93750001 -0.53907,0.93750001 -0.55078,0 -0.55078,-0.76171871 -0.55078,-0.98437501 z m -0.92578,1.8046875 c 0,1.40625001 -1.04297,1.88671876 -1.66406,1.88671876 -0.70313,0 -1.28906,-0.515625 -1.28906,-1.20703126 0,-1.8984375 2.4375,-2.0625 2.95312,-2.0976562 z m 9.56836,-3.7382812 h 1.61719 v -0.421875 h -1.65235 v -1.6757813 c 0,-1.2890625 0.65625,-1.9453125 1.25391,-1.9453125 0.10547,0 0.32813,0.023437 0.49219,0.1171875 -0.0469,0.011719 -0.41016,0.140625 -0.41016,0.5507813 0,0.328125 0.22266,0.5625 0.5625,0.5625 0.33985,0 0.57422,-0.234375 0.57422,-0.5742188 0,-0.5273437 -0.51562,-0.9492187 -1.20703,-0.9492187 -1.00781,0 -2.14453,0.7734375 -2.14453,2.2382812 v 1.6757813 h -1.11328 v 0.421875 h 1.11328 v 4.6992187 c 0,0.65625001 -0.15235,0.65625001 -1.08985,0.65625001 v 0.41015625 c 0.41016,-0.0234375 1.19532,-0.0234375 1.62891,-0.0234375 0.38672,0 1.40625,0 1.73438,0.0234375 v -0.41015625 h -0.29297 c -1.04297,0 -1.06641,-0.1640625 -1.06641,-0.67968751 z m 6.17871,-0.3984375 v 0.4101562 c 0.97266,0 1.08984,0.1054688 1.08984,0.8085938 v 2.5664062 c 0,1.21875 -0.64453,2.23828126 -1.72265,2.23828126 -1.17188,0 -1.24219,-0.6796875 -1.24219,-1.44140626 v -4.7460937 l -2.02734,0.1640625 v 0.4101562 c 1.08984,0 1.08984,0.046875 1.08984,1.3242188 v 2.1445312 c 0,0.890625 0,1.40625001 0.43359,1.88671876 0.33985,0.375 0.92579,0.5390625 1.66407,0.5390625 0.24609,0 0.70312,0 1.18359,-0.41015625 0.42188,-0.328125 0.65625,-0.87890621 0.65625,-0.87890621 v 1.28906246 l 1.99219,-0.140625 v -0.41015625 c -0.98438,0 -1.08985,-0.10546875 -1.08985,-0.80859371 v -5.109375 z m 9.83203,2.6835937 c 0,-1.3359375 0,-1.7460937 -0.32812,-2.203125 -0.42188,-0.5507812 -1.08985,-0.6445312 -1.58203,-0.6445312 -1.39454,0 -1.9336,1.1953125 -2.05079,1.4765625 h -0.0117 v -1.4765625 l -1.95704,0.1640625 v 0.4101562 c 0.97266,0 1.08985,0.1054688 1.08985,0.8085938 v 3.8789062 c 0,0.65625001 -0.15235,0.65625001 -1.08985,0.65625001 v 0.41015625 c 0.375,-0.0234375 1.14844,-0.0234375 1.54688,-0.0234375 0.42187,0 1.19531,0 1.57031,0.0234375 v -0.41015625 c -0.92578,0 -1.08984,0 -1.08984,-0.65625001 V -3.727773 c 0,-1.5117188 0.98437,-2.3085938 1.875,-2.3085938 0.89062,0 1.08984,0.7265625 1.08984,1.6054688 v 3.3632812 c 0,0.65625001 -0.15234,0.65625001 -1.08984,0.65625001 v 0.41015625 c 0.375,-0.0234375 1.14844,-0.0234375 1.54687,-0.0234375 0.42188,0 1.19532,0 1.57032,0.0234375 v -0.41015625 c -0.71485,0 -1.07813,0 -1.08985,-0.43359375 z m 6.60938,-1.828125 c -0.17578,0 -0.70313,0 -0.70313,0.5859375 0,0.3515625 0.2461,0.5859375 0.58594,0.5859375 0.32812,0 0.60937,-0.1992187 0.60937,-0.609375 0,-0.9609375 -1.00781,-1.6523437 -2.16796,-1.6523437 -1.67579,0 -3.01172,1.4882812 -3.01172,3.3046875 0,1.828125 1.37109,3.23437496 3,3.23437496 1.88672,0 2.32031,-1.72265626 2.32031,-1.85156246 0,-0.1289063 -0.10547,-0.1289063 -0.14063,-0.1289063 -0.1289,0 -0.15234,0.046875 -0.1875,0.2226563 -0.3164,1.01953121 -1.08984,1.44140621 -1.86328,1.44140621 -0.8789,0 -2.03906,-0.76171875 -2.03906,-2.94140621 0,-2.3789063 1.21875,-2.9648438 1.93359,-2.9648438 0.55079,0 1.33594,0.2109375 1.66407,0.7734375 z m 3.54785,-3.5273437 c 0,-0.375 -0.30469,-0.703125 -0.70313,-0.703125 -0.375,0 -0.6914,0.3046875 -0.6914,0.6914062 0,0.4335938 0.35156,0.703125 0.6914,0.703125 0.44532,0 0.70313,-0.375 0.70313,-0.6914062 z m -1.98047,2.671875 v 0.4101562 c 0.91406,0 1.04297,0.09375 1.04297,0.7851563 v 3.9023437 c 0,0.65625001 -0.15234,0.65625001 -1.08984,0.65625001 v 0.41015625 c 0.41015,-0.0234375 1.08984,-0.0234375 1.51171,-0.0234375 0.15235,0 0.98438,0 1.47657,0.0234375 v -0.41015625 c -0.9375,0 -0.98438,-0.0820313 -0.98438,-0.63281251 v -5.2851562 z m 8.64844,-2.9414063 c 0.23437,-0.1875 0.23437,-0.3515625 0.23437,-0.421875 0,-0.2578125 -0.24609,-0.46875 -0.49218,-0.46875 -0.19922,0 -0.28125,0.09375 -0.39844,0.2578125 l -1.71094,2.1796875 c 0.0703,0.082031 0.14063,0.1523438 0.23438,0.234375 z m 1.31836,6.0351563 c 0,-1.8515625 -1.40625,-3.328125 -3.07032,-3.328125 -1.72265,0 -3.08203,1.5234375 -3.08203,3.328125 0,1.8398437 1.42969,3.21093746 3.07032,3.21093746 1.6875,0 3.08203,-1.40624996 3.08203,-3.21093746 z m -3.07032,2.89453121 c -0.52734,0 -1.17187,-0.22265625 -1.59375,-0.92578121 -0.38671,-0.6445313 -0.39843,-1.5 -0.39843,-2.0976563 0,-0.5390625 0,-1.4179687 0.44531,-2.0625 0.39844,-0.6210937 1.03125,-0.84375 1.53516,-0.84375 0.55078,0 1.16015,0.2578125 1.54687,0.8085938 0.44531,0.6679687 0.44531,1.5703125 0.44531,2.0976562 0,0.5039063 0,1.3945313 -0.375,2.0625 -0.39843,0.69140626 -1.0664,0.96093751 -1.60547,0.96093751 z m 9.89356,-3.30468751 c 0,-1.3359375 0,-1.7460937 -0.32813,-2.203125 -0.42187,-0.5507812 -1.08984,-0.6445312 -1.58203,-0.6445312 -1.39453,0 -1.93359,1.1953125 -2.05078,1.4765625 h -0.0117 v -1.4765625 l -1.95703,0.1640625 v 0.4101562 c 0.97266,0 1.08985,0.1054688 1.08985,0.8085938 v 3.8789062 c 0,0.65625001 -0.15235,0.65625001 -1.08985,0.65625001 v 0.41015625 c 0.375,-0.0234375 1.14844,-0.0234375 1.54688,-0.0234375 0.42187,0 1.19531,0 1.57031,0.0234375 v -0.41015625 c -0.92578,0 -1.08984,0 -1.08984,-0.65625001 V -3.727773 c 0,-1.5117188 0.98437,-2.3085938 1.875,-2.3085938 0.89062,0 1.08984,0.7265625 1.08984,1.6054688 v 3.3632812 c 0,0.65625001 -0.15234,0.65625001 -1.08984,0.65625001 v 0.41015625 c 0.375,-0.0234375 1.14843,-0.0234375 1.54687,-0.0234375 0.42188,0 1.19531,0 1.57031,0.0234375 v -0.41015625 c -0.71484,0 -1.07812,0 -1.08984,-0.43359375 z m 0,0"
       style="fill:#eb0a36;fill-opacity:1;fill-rule:nonzero;stroke:none"
       aria-label="Secci´on1.1:Cuatromanerasderepresentarunafunci´on"
       transform="matrix(1.3333333,0,0,1.3333333,12.869333,27.013333)"
       clip-path="url(#clipPath48)" />
    <path
       id="path4"
       d="M -11.33876,0 H 203.63953"
       style="fill:none;stroke:#000000;stroke-width:0.3985;stroke-linecap:butt;stroke-linejoin:miter;stroke-miterlimit:10;stroke-dasharray:none;stroke-opacity:1"
       transform="matrix(1.3333333,0,0,-1.3333333,122.55867,309.32133)"
       clip-path="url(#clipPath47)" />
    <path
       id="path5"
       d="M -1.19551,1.59401 C -1.09587,0.99626 0,0.09961 0.29886,0 0,-0.09961 -1.09587,-0.99626 -1.19551,-1.59401"
       style="fill:none;stroke:#000000;stroke-width:0.31879;stroke-linecap:round;stroke-linejoin:round;stroke-miterlimit:10;stroke-dasharray:none;stroke-opacity:1"
       transform="matrix(1.3333333,0,0,-1.3333333,394.07804,309.32133)"
       clip-path="url(#clipPath46)" />
    <path
       id="path6"
       d="m 3.6459688,-3.2915547 c 0.070312,-0.28125 0.3164062,-1.2890625 1.078125,-1.2890625 0.058594,0 0.3164062,0 0.5507812,0.140625 -0.3046875,0.058594 -0.5273437,0.328125 -0.5273437,0.5859375 0,0.1757813 0.1171875,0.3867188 0.4101562,0.3867188 0.2460938,0 0.5976563,-0.1992188 0.5976563,-0.6328125 0,-0.5625 -0.6445313,-0.7265625 -1.0195313,-0.7265625 -0.6328125,0 -1.0195312,0.5859375 -1.1484375,0.8320312 C 3.3178438,-4.7095234 2.7319063,-4.8267109 2.4155,-4.8267109 c -1.1367187,0 -1.7578125,1.4179687 -1.7578125,1.6875 0,0.1054687 0.10546875,0.1054687 0.12890625,0.1054687 0.0820313,0 0.1171875,-0.023437 0.140625,-0.1171875 0.37500005,-1.1601562 1.08984375,-1.4296875 1.46484375,-1.4296875 0.2109375,0 0.5859375,0.09375 0.5859375,0.7265625 0,0.3398438 -0.1875,1.078125 -0.5859375,2.6015625 -0.1757812,0.67968751 -0.5625,1.13671876 -1.0429687,1.13671876 -0.058594,0 -0.3164063,0 -0.53906255,-0.140625 0.26953125,-0.0585938 0.51562505,-0.29296875 0.51562505,-0.59765625 0,-0.29296871 -0.2460938,-0.37500001 -0.4101563,-0.37500001 -0.328125,0 -0.59765625,0.28125001 -0.59765625,0.63281251 0,0.50390625 0.55078125,0.71484375 1.03125005,0.71484375 0.7148437,0 1.1015625,-0.76171875 1.1367187,-0.83203125 0.1289063,0.41015625 0.5273438,0.83203125 1.1835938,0.83203125 1.125,0 1.7460937,-1.40624996 1.7460937,-1.67578126 0,-0.1054687 -0.1054687,-0.1054687 -0.1289062,-0.1054687 -0.1054688,0 -0.1289063,0.035156 -0.140625,0.1171875 -0.3632813,1.16015621 -1.1132813,1.42968746 -1.453125,1.42968746 -0.4335938,0 -0.609375,-0.3515625 -0.609375,-0.7265625 0,-0.23437496 0.070312,-0.48046876 0.1875,-0.96093746 z m 0,0"
       style="fill:#000000;fill-opacity:1;fill-rule:nonzero;stroke:none"
       aria-label="x"
       transform="matrix(1.3333333,0,0,1.3333333,390.52933,320.69733)"
       clip-path="url(#clipPath45)" />
    <path
       id="path7"
       d="M 0,-22.67752 V 180.96199"
       style="fill:none;stroke:#000000;stroke-width:0.3985;stroke-linecap:butt;stroke-linejoin:miter;stroke-miterlimit:10;stroke-dasharray:none;stroke-opacity:1"
       transform="matrix(1.3333333,0,0,-1.3333333,122.55867,309.32133)"
       clip-path="url(#clipPath44)" />
    <path
       id="path8"
       d="M -1.19551,1.59401 C -1.09587,0.99626 0,0.09961 0.29886,0 0,-0.09961 -1.09587,-0.99626 -1.19551,-1.59401"
       style="fill:none;stroke:#000000;stroke-width:0.31879;stroke-linecap:round;stroke-linejoin:round;stroke-miterlimit:10;stroke-dasharray:none;stroke-opacity:1"
       transform="matrix(0,-1.3333333,-1.3333333,0,122.55867,68.03868)"
       clip-path="url(#clipPath43)" />
    <path
       id="path9"
       d="m 5.2976016,-4.1598281 c 0.046875,-0.1523438 0.046875,-0.1757813 0.046875,-0.2460938 0,-0.1992187 -0.1523438,-0.2929687 -0.3164063,-0.2929687 -0.1054687,0 -0.28125,0.058594 -0.375,0.2226562 -0.023437,0.058594 -0.1171875,0.3984375 -0.1523437,0.5976563 -0.082031,0.28125 -0.1523438,0.5742187 -0.2226563,0.8671875 l -0.4921875,1.96875 c -0.046875,0.16406247 -0.515625,0.92578122 -1.2304687,0.92578122 -0.5625,0 -0.6796875,-0.48046875 -0.6796875,-0.89062502 0,-0.4921875 0.1875,-1.171875 0.5625,-2.1328125 0.1757812,-0.4453125 0.2109375,-0.5742187 0.2109375,-0.7851562 0,-0.4921875 -0.3515625,-0.9023438 -0.890625,-0.9023438 -1.04296879,0 -1.44140629,1.5820313 -1.44140629,1.6875 0,0.1054688 0.10546875,0.1054688 0.12890625,0.1054688 0.10546875,0 0.1171875,-0.023437 0.17578125,-0.1992188 0.29296875,-1.0195312 0.72656249,-1.3476562 1.10156249,-1.3476562 0.09375,0 0.2695313,0 0.2695313,0.3515625 0,0.2695312 -0.1054688,0.5507812 -0.1757813,0.7617187 -0.4453125,1.1601563 -0.6328125,1.78125 -0.6328125,2.2851563 0,0.97265622 0.6796875,1.30078122 1.3242188,1.30078122 0.421875,0 0.796875,-0.1875 1.1015625,-0.4921875 -0.140625,0.57421875 -0.2695313,1.1015625 -0.703125,1.68749998 -0.2929688,0.3632813 -0.703125,0.6796875 -1.2070313,0.6796875 -0.1523437,0 -0.6445312,-0.023437 -0.83203124,-0.4570312 0.17578124,0 0.31640624,0 0.48046874,-0.1289063 0.1054688,-0.09375 0.2109375,-0.234375 0.2109375,-0.44531248 0,-0.33984375 -0.2929687,-0.38671875 -0.3984375,-0.38671875 -0.25781249,0 -0.60937499,0.17578125 -0.60937499,0.71484373 0,0.5390625 0.48046879,0.9492188 1.14843749,0.9492188 1.125,0 2.25,-0.9960938 2.5546875,-2.22656253 z m 0,0"
       style="fill:#000000;fill-opacity:1;fill-rule:nonzero;stroke:none"
       aria-label="y"
       transform="matrix(1.3333333,0,0,1.3333333,109.792,69.148)"
       clip-path="url(#clipPath42)" />
    <path
       id="path10"
       d="m 68.0326,68.0326 c 0,0 0.49625,0.74003 0.68685,1.02146 0.1906,0.28144 0.49628,0.72956 0.68688,1.00696 0.19059,0.2774 0.49629,0.71861 0.68687,0.99243 0.1906,0.27381 0.49626,0.71092 0.68688,0.98097 0.19059,0.27007 0.49627,0.69899 0.68685,0.96546 0.19062,0.26646 0.4963,0.69189 0.68689,0.95503 0.19058,0.26315 0.49628,0.68201 0.68686,0.94154 0.1906,0.25955 0.49628,0.67261 0.68689,0.92911 0.19058,0.25652 0.49626,0.66611 0.68688,0.91976 0.19059,0.25364 0.49626,0.65802 0.68685,0.90834 0.1906,0.25032 0.49628,0.64842 0.68688,0.89587 0.1906,0.24744 0.49629,0.64285 0.68687,0.88756 0.1906,0.24471 0.49628,0.63418 0.68689,0.87616 0.19059,0.24197 0.49626,0.6279 0.68685,0.86784 0.19061,0.23996 0.49629,0.62441 0.68689,0.86162 0.19058,0.23721 0.49627,0.61394 0.68687,0.84814 0.1906,0.23418 0.49626,0.60749 0.68688,0.83982 0.19058,0.23231 0.49626,0.60489 0.68686,0.83461 0.19061,0.22973 0.49629,0.59342 0.68687,0.82113 0.19061,0.22773 0.49628,0.59426 0.68687,0.82012 0.1906,0.22583 0.4963,0.58452 0.68688,0.80763 0.19059,0.2231 0.49628,0.57898 0.68689,0.80037 0.19058,0.22136 0.49626,0.57553 0.68686,0.79517 0.19061,0.21963 0.49627,0.57043 0.68687,0.78791 0.19058,0.2175 0.49628,0.56356 0.68687,0.77962 0.1906,0.21605 0.49628,0.56336 0.68688,0.77754 0.1906,0.21418 0.49626,0.5551 0.68686,0.7661 0.19061,0.211 0.49629,0.54485 0.68687,0.7547 0.19062,0.20985 0.49629,0.54898 0.68689,0.75781 0.19059,0.20883 0.49627,0.54162 0.68686,0.74742 0.1906,0.20583 0.49628,0.53064 0.68689,0.73601 0.19059,0.2054 0.49626,0.54024 0.68686,0.74433 0.19062,0.20408 0.49628,0.52372 0.68688,0.72665 0.19058,0.20294 0.49627,0.53407 0.68687,0.73602 0.1906,0.20192 0.49628,0.52034 0.68688,0.71941 0.19059,0.19905 0.49627,0.51748 0.68687,0.71522 0.19059,0.19776 0.49628,0.51377 0.68686,0.71007 0.19061,0.19632 0.49629,0.51015 0.68689,0.70488 0.19058,0.19472 0.49626,0.5049 0.68687,0.69864 0.1906,0.19371 0.49627,0.50517 0.68687,0.69759 0.19059,0.19243 0.49627,0.4983 0.68687,0.68928 0.19061,0.191 0.49629,0.4977 0.68687,0.68724 0.1906,0.18953 0.49628,0.49082 0.68688,0.6789 0.19059,0.18811 0.49627,0.48946 0.68687,0.67685 0.1906,0.18737 0.49628,0.48748 0.68687,0.67371 0.1906,0.18624 0.49628,0.4839 0.68688,0.66854 0.19061,0.18466 0.49628,0.47881 0.68687,0.66231 0.19059,0.18349 0.49626,0.4776 0.68688,0.66022 0.19059,0.18263 0.49627,0.47489 0.68687,0.65606 0.1906,0.1812 0.49626,0.46997 0.68686,0.64987 0.19061,0.17989 0.49629,0.46743 0.68688,0.64673 0.1906,0.17931 0.49629,0.46724 0.68688,0.64571 0.19059,0.17844 0.49627,0.46348 0.68686,0.6405 0.1906,0.177 0.49628,0.459 0.68688,0.6353 0.1906,0.1763 0.49628,0.4606 0.68688,0.63532 0.1906,0.17469 0.49627,0.4499 0.68687,0.6239 0.19058,0.17396 0.49626,0.45671 0.68687,0.63012 0.1906,0.17341 0.49628,0.44791 0.68688,0.61974 0.19059,0.17185 0.49628,0.44745 0.68687,0.6187 0.1906,0.17125 0.49628,0.44551 0.68686,0.6156 0.1906,0.17009 0.49629,0.44101 0.68689,0.6104 0.19058,0.16935 0.49626,0.4416 0.68687,0.61039 0.1906,0.16881 0.49626,0.43845 0.68686,0.60625 0.1906,0.1678 0.49628,0.43649 0.68688,0.60314 0.19061,0.16662 0.49629,0.43202 0.68687,0.59794 0.1906,0.16593 0.49626,0.43246 0.68688,0.59793 0.1906,0.1655 0.49627,0.43065 0.68687,0.59483 0.1906,0.16419 0.49628,0.42571 0.68687,0.58861 0.1906,0.16289 0.49628,0.42258 0.68688,0.58549 0.1906,0.16288 0.49628,0.42643 0.68688,0.5886 0.19058,0.16217 0.49625,0.4197 0.68687,0.5803 0.1906,0.16059 0.49627,0.41717 0.68686,0.57719 0.19061,0.15999 0.49627,0.41598 0.68687,0.57612 0.19061,0.16016 0.4963,0.41949 0.68688,0.57822 0.19059,0.15872 0.49627,0.40851 0.68689,0.56577 0.19058,0.15728 0.49626,0.40983 0.68685,0.56784 0.1906,0.158 0.49628,0.41426 0.68688,0.57095 0.1906,0.15671 0.49628,0.40323 0.68687,0.5585 0.1906,0.15526 0.49628,0.40529 0.68688,0.56056 0.19058,0.15528 0.49626,0.40409 0.68687,0.55849 0.1906,0.15442 0.49628,0.40053 0.68686,0.55435 0.19062,0.15383 0.49629,0.40082 0.68689,0.55434 0.1906,0.15353 0.49628,0.39989 0.68686,0.55227 0.1906,0.15238 0.49627,0.39466 0.68689,0.54604 0.19058,0.15137 0.49626,0.39363 0.68688,0.54498 0.19059,0.15138 0.49626,0.39612 0.68685,0.54607 0.1906,0.14992 0.49628,0.38495 0.68688,0.53461 0.19059,0.14964 0.49629,0.39402 0.68687,0.54397 0.1906,0.14992 0.49626,0.38861 0.68688,0.53668 0.19059,0.14806 0.49627,0.38312 0.68686,0.53046 0.19061,0.14734 0.49629,0.3833 0.68688,0.53151 0.1906,0.14821 0.49628,0.3898 0.68688,0.53671 0.1906,0.14692 0.49626,0.37668 0.68687,0.52216 0.19059,0.14546 0.49627,0.37984 0.68688,0.52631 0.1906,0.14646 0.49627,0.38468 0.68685,0.52941 0.19062,0.14476 0.49628,0.37041 0.68688,0.51386 0.1906,0.14345 0.49629,0.3752 0.68688,0.5201 0.19059,0.14488 0.49627,0.38093 0.68689,0.52424 0.19058,0.14329 0.68684,0.50865 0.68684,0.50865"
       style="fill:none;stroke:#eb0a36;stroke-width:0.79701;stroke-linecap:butt;stroke-linejoin:miter;stroke-miterlimit:10;stroke-dasharray:none;stroke-opacity:1"
       transform="matrix(1.3333333,0,0,-1.3333333,122.55867,309.32133)"
       clip-path="url(#clipPath41)" />
    <path
       id="path11"
       d="m 69.16652,68.0326 c 0,0.62624 -0.50768,1.13392 -1.13392,1.13392 -0.62627,0 -1.13395,-0.50768 -1.13395,-1.13392 0,-0.62627 0.50768,-1.13395 1.13395,-1.13395 0.62624,0 1.13392,0.50768 1.13392,1.13395 z"
       style="fill:#eb0a36;fill-opacity:1;fill-rule:nonzero;stroke:#000000;stroke-width:0.3985;stroke-linecap:butt;stroke-linejoin:miter;stroke-miterlimit:10;stroke-dasharray:none;stroke-opacity:1"
       transform="matrix(1.3333333,0,0,-1.3333333,122.55867,309.32133)"
       clip-path="url(#clipPath40)" />
    <path
       id="path12"
       d="m 137.19913,136.0652 c 0,0.62625 -0.50768,1.13393 -1.13393,1.13393 -0.62627,0 -1.13394,-0.50768 -1.13394,-1.13393 0,-0.62627 0.50767,-1.13394 1.13394,-1.13394 0.62625,0 1.13393,0.50767 1.13393,1.13394 z"
       style="fill:#eb0a36;fill-opacity:1;fill-rule:nonzero;stroke:#000000;stroke-width:0.3985;stroke-linecap:butt;stroke-linejoin:miter;stroke-miterlimit:10;stroke-dasharray:none;stroke-opacity:1"
       transform="matrix(1.3333333,0,0,-1.3333333,122.55867,309.32133)"
       clip-path="url(#clipPath39)" />
    <path
       id="path13"
       d="M 68.0326,0 V 68.0326 H 0"
       style="fill:none;stroke:#0000ff;stroke-width:0.3985;stroke-linecap:butt;stroke-linejoin:miter;stroke-miterlimit:10;stroke-dasharray:2.98883, 2.98883;stroke-dashoffset:0;stroke-opacity:0.5"
       transform="matrix(1.3333333,0,0,-1.3333333,122.55867,309.32133)"
       clip-path="url(#clipPath38)" />
    <path
       id="path14"
       d="M 136.0652,0 V 136.0652 H 0"
       style="fill:none;stroke:#0000ff;stroke-width:0.3985;stroke-linecap:butt;stroke-linejoin:miter;stroke-miterlimit:10;stroke-dasharray:2.98883, 2.98883;stroke-dashoffset:0;stroke-opacity:0.5"
       transform="matrix(1.3333333,0,0,-1.3333333,122.55867,309.32133)"
       clip-path="url(#clipPath37)" />
    <path
       id="path15"
       d="M 68.0326,-2.26787 V 2.26787"
       style="fill:none;stroke:#ec008c;stroke-width:0.79701;stroke-linecap:butt;stroke-linejoin:miter;stroke-miterlimit:10;stroke-dasharray:none;stroke-opacity:1"
       transform="matrix(1.3333333,0,0,-1.3333333,122.55867,309.32133)"
       clip-path="url(#clipPath36)" />
    <path
       id="path16"
       d="M 136.0652,-2.26787 V 2.26787"
       style="fill:none;stroke:#ec008c;stroke-width:0.79701;stroke-linecap:butt;stroke-linejoin:miter;stroke-miterlimit:10;stroke-dasharray:none;stroke-opacity:1"
       transform="matrix(1.3333333,0,0,-1.3333333,122.55867,309.32133)"
       clip-path="url(#clipPath35)" />
    <path
       id="path17"
       d="m 68.0326,0 h 68.0326"
       style="fill:none;stroke:#ec008c;stroke-width:0.79701;stroke-linecap:butt;stroke-linejoin:miter;stroke-miterlimit:10;stroke-dasharray:none;stroke-opacity:1"
       transform="matrix(1.3333333,0,0,-1.3333333,122.55867,309.32133)"
       clip-path="url(#clipPath34)" />
    <g
       id="g17"
       aria-label="y=f(x)"
       transform="matrix(1.3333333,0,0,1.3333333,308.93467,100.988)"
       clip-path="url(#clipPath33)">
      <path
         id="path18"
         d="m 4.8390391,-3.7966641 c 0.046875,-0.140625 0.046875,-0.1523437 0.046875,-0.2226562 0,-0.1875 -0.140625,-0.2695313 -0.2929688,-0.2695313 -0.1054687,0 -0.2578125,0.058594 -0.3515625,0.1992188 -0.023437,0.058594 -0.09375,0.3632812 -0.140625,0.5390625 -0.070312,0.2578125 -0.140625,0.5273437 -0.1992187,0.796875 l -0.4453125,1.79296874 c -0.035156,0.15234375 -0.46875,0.85546875 -1.125,0.85546875 -0.5039063,0 -0.6210938,-0.4453125 -0.6210938,-0.80859375 0,-0.45703124 0.1757813,-1.07812504 0.515625,-1.95703124 0.1523438,-0.4101563 0.1992188,-0.515625 0.1992188,-0.7148438 0,-0.4453125 -0.328125,-0.8203125 -0.8203125,-0.8203125 -0.94921879,0 -1.31250004,1.453125 -1.31250004,1.5351563 0,0.1054687 0.09375,0.1054687 0.1171875,0.1054687 0.09375,0 0.10546875,-0.023437 0.15234375,-0.1875 0.26953125,-0.9375 0.66796879,-1.2304687 1.00781249,-1.2304687 0.082031,0 0.2578125,0 0.2578125,0.3164062 0,0.2460938 -0.1054687,0.515625 -0.1757812,0.703125 -0.3984375,1.0546875 -0.5742188,1.6171875 -0.5742188,2.0859375 0,0.89062504 0.6210938,1.18359379 1.21875,1.18359379 0.3867188,0 0.7265625,-0.1640625 0.9960938,-0.4453125 -0.1289063,0.515625 -0.2460938,1.0078125 -0.6445313,1.53515621 -0.2578125,0.3398438 -0.6328125,0.6328125 -1.0898437,0.6328125 -0.140625,0 -0.59765629,-0.035156 -0.76171879,-0.421875 0.1640625,0 0.29296879,0 0.43359379,-0.1171875 0.09375,-0.09375 0.1992187,-0.2226562 0.1992187,-0.41015621 0,-0.31640625 -0.2695312,-0.3515625 -0.375,-0.3515625 -0.22265624,0 -0.55078124,0.1640625 -0.55078124,0.64453121 0,0.5039063 0.43359375,0.8671875 1.05468754,0.8671875 1.0195312,0 2.0507812,-0.9023437 2.3320312,-2.02734371 z m 0,0"
         style="fill:#eb0a36;fill-opacity:1;fill-rule:nonzero;stroke:none" />
      <path
         id="path19"
         d="m 14.855641,-3.2576016 c 0.152343,0 0.339843,0 0.339843,-0.1992187 0,-0.1992188 -0.1875,-0.1992188 -0.328125,-0.1992188 H 8.9025156 c -0.140625,0 -0.328125,0 -0.328125,0.1992188 0,0.1992187 0.1875,0.1992187 0.3398438,0.1992187 z m 0.01172,1.9335938 c 0.140625,0 0.328125,0 0.328125,-0.1992188 0,-0.1992187 -0.1875,-0.1992187 -0.339843,-0.1992187 H 8.9142344 c -0.1523438,0 -0.3398438,0 -0.3398438,0.1992187 0,0.1992188 0.1875,0.1992188 0.328125,0.1992188 z m 0,0"
         style="fill:#eb0a36;fill-opacity:1;fill-rule:nonzero;stroke:none" />
      <path
         id="path20"
         d="m 22.17693,-3.9841641 h 0.855468 c 0.199219,0 0.304688,0 0.304688,-0.1992187 0,-0.1054688 -0.105469,-0.1054688 -0.269531,-0.1054688 h -0.832032 l 0.210938,-1.1367187 c 0.03516,-0.2109375 0.175781,-0.9140625 0.234375,-1.0429688 0.09375,-0.1875 0.257812,-0.3398437 0.46875,-0.3398437 0.04687,0 0.304687,0 0.492187,0.1875 -0.433593,0.035156 -0.539062,0.3867187 -0.539062,0.5390625 0,0.2226562 0.175781,0.3398437 0.363281,0.3398437 0.269531,0 0.550781,-0.2109375 0.550781,-0.5976562 0,-0.4570313 -0.457031,-0.6796875 -0.867187,-0.6796875 -0.339844,0 -0.960938,0.1757812 -1.265625,1.1601562 -0.05859,0.2109375 -0.08203,0.3164063 -0.328125,1.5703125 h -0.679688 c -0.199218,0 -0.304687,0 -0.304687,0.1875 0,0.1171875 0.09375,0.1171875 0.28125,0.1171875 h 0.65625 l -0.75,3.93750004 c -0.175781,0.9609375 -0.339844,1.87499996 -0.867188,1.87499996 -0.03516,0 -0.28125,0 -0.46875,-0.1875 0.457032,-0.023437 0.539063,-0.3867187 0.539063,-0.5390625 0,-0.22265621 -0.175781,-0.33984371 -0.363281,-0.33984371 -0.257813,0 -0.550782,0.2109375 -0.550782,0.59765621 0,0.4453125 0.433594,0.6796875 0.84375,0.6796875 0.550782,0 0.949219,-0.5859375 1.125,-0.9609375 0.328125,-0.63281246 0.550782,-1.83984371 0.5625,-1.91015621 z m 0,0"
         style="fill:#eb0a36;fill-opacity:1;fill-rule:nonzero;stroke:none" />
      <path
         id="path21"
         d="m 27.766773,2.3908359 c 0,-0.035156 0,-0.046875 -0.164062,-0.2226562 -1.242188,-1.25390626 -1.570313,-3.12890626 -1.570313,-4.6640625 0,-1.7226563 0.386719,-3.4570313 1.605469,-4.7109375 0.128906,-0.1171875 0.128906,-0.1289063 0.128906,-0.1640625 0,-0.070312 -0.03516,-0.1054688 -0.09375,-0.1054688 -0.105468,0 -0.996093,0.6796875 -1.582031,1.9453125 -0.515625,1.1015625 -0.632812,2.203125 -0.632812,3.0351563 0,0.7851562 0.117187,1.99218749 0.65625,3.11718749 0.597656,1.21875001 1.453125,1.87500001 1.558593,1.87500001 0.05859,0 0.09375,-0.035156 0.09375,-0.1054688 z m 0,0"
         style="fill:#eb0a36;fill-opacity:1;fill-rule:nonzero;stroke:none" />
      <path
         id="path22"
         d="m 31.677906,-3.0115078 c 0.05859,-0.2578125 0.292969,-1.171875 0.984375,-1.171875 0.04687,0 0.292969,0 0.503907,0.1289062 -0.28125,0.046875 -0.480469,0.3046875 -0.480469,0.5390625 0,0.1640625 0.105469,0.3515625 0.375,0.3515625 0.222656,0 0.539062,-0.1875 0.539062,-0.5859375 0,-0.515625 -0.585937,-0.65625 -0.925781,-0.65625 -0.574219,0 -0.925781,0.5273438 -1.042969,0.7617188 -0.257812,-0.65625 -0.785156,-0.7617188 -1.078125,-0.7617188 -1.042968,0 -1.605468,1.2890625 -1.605468,1.5351563 0,0.1054687 0.105468,0.1054687 0.117187,0.1054687 0.08203,0 0.117188,-0.023437 0.128906,-0.1171875 0.339844,-1.0546875 0.996094,-1.3007812 1.335938,-1.3007812 0.1875,0 0.539062,0.09375 0.539062,0.6679687 0,0.3046875 -0.164062,0.9726563 -0.539062,2.3671875 -0.152344,0.62109379 -0.503906,1.04296879 -0.949219,1.04296879 -0.05859,0 -0.28125,0 -0.492187,-0.12890625 0.246093,-0.0585938 0.46875,-0.26953125 0.46875,-0.5390625 0,-0.26953124 -0.222657,-0.35156254 -0.375,-0.35156254 -0.292969,0 -0.539063,0.25781254 -0.539063,0.57421879 0,0.45703125 0.492188,0.65625 0.9375,0.65625 0.65625,0 1.007813,-0.69140625 1.042969,-0.75 0.117187,0.36328125 0.480469,0.75 1.078125,0.75 1.019531,0 1.59375,-1.27734379 1.59375,-1.53515629 0,-0.09375 -0.09375,-0.09375 -0.128906,-0.09375 -0.08203,0 -0.105469,0.035156 -0.128907,0.1054688 -0.328125,1.06640624 -0.996093,1.31249999 -1.324218,1.31249999 -0.386719,0 -0.539063,-0.328125 -0.539063,-0.65625 0,-0.22265625 0.05859,-0.44531249 0.164063,-0.87890629 z m 0,0"
         style="fill:#eb0a36;fill-opacity:1;fill-rule:nonzero;stroke:none" />
      <path
         id="path23"
         d="m 36.924977,-2.4958828 c 0,-0.7734375 -0.117188,-1.9804688 -0.65625,-3.1054688 -0.597657,-1.21875 -1.464844,-1.875 -1.558594,-1.875 -0.05859,0 -0.105469,0.046875 -0.105469,0.1054688 0,0.035156 0,0.046875 0.199219,0.234375 0.972656,0.984375 1.535156,2.5664062 1.535156,4.640625 0,1.71093749 -0.363281,3.45703124 -1.59375,4.7226562 -0.140625,0.1171875 -0.140625,0.1289063 -0.140625,0.1640625 0,0.058594 0.04687,0.1054688 0.105469,0.1054688 0.09375,0 0.996094,-0.6796875 1.582031,-1.94531251 0.503906,-1.1015625 0.632813,-2.20312499 0.632813,-3.04687499 z m 0,0"
         style="fill:#eb0a36;fill-opacity:1;fill-rule:nonzero;stroke:none" />
    </g>
    <path
       id="path24"
       d="m 3.7844062,-0.55066406 v 0.65625 L 5.24925,1.171875e-4 V -0.30457031 c -0.703125,0 -0.7734375,-0.0703125 -0.7734375,-0.5625 V -6.9139453 l -1.4414063,0.1054687 v 0.3164063 c 0.703125,0 0.7851563,0.070312 0.7851563,0.5507812 v 2.15625 C 3.5265937,-4.1483203 3.093,-4.4061328 2.5539375,-4.4061328 c -1.171875,0 -2.21484375,0.984375 -2.21484375,2.2617187 0,1.26562504 0.97265625,2.25000004 2.10937495,2.25000004 0.6445313,0 1.0898438,-0.33984375 1.3359375,-0.65625 z m 0,-2.67187504 v 2.0507813 c 0,0.17578124 0,0.19921874 -0.1054687,0.36328124 -0.3046875,0.48046875 -0.75,0.703125 -1.1835938,0.703125 -0.4453125,0 -0.796875,-0.2578125 -1.0429687,-0.64453125 C 1.1945625,-1.1600391 1.1594062,-1.7225391 1.1594062,-2.1326953 c 0,-0.3632813 0.023437,-0.9609375 0.3164063,-1.4179688 0.2109375,-0.3046875 0.5859375,-0.6328125 1.125,-0.6328125 0.3515625,0 0.7617187,0.1523438 1.078125,0.5976563 0.1054687,0.1640625 0.1054687,0.1875 0.1054687,0.3632812 z m 6.4394528,1.0898438 c 0,-1.2773438 -0.9960934,-2.3320313 -2.1914059,-2.3320313 -1.2539062,0 -2.2148437,1.0898438 -2.2148437,2.3320313 0,1.28906249 1.03125,2.23828124 2.203125,2.23828124 1.2070312,0 2.2031246,-0.97265625 2.2031246,-2.23828124 z m -2.1914059,1.99218749 c -0.4335937,0 -0.8671875,-0.2109375 -1.1367187,-0.66796875 C 6.6379219,-1.2420703 6.6379219,-1.8514453 6.6379219,-2.2147266 c 0,-0.3867187 0,-0.9257812 0.2460937,-1.359375 0.2695313,-0.4570312 0.7382813,-0.6679687 1.1367188,-0.6679687 0.4335937,0 0.8671875,0.2226562 1.125,0.6445312 0.2578125,0.4335938 0.2578125,1.0078125 0.2578125,1.3828125 0,0.3632813 0,0.9023438 -0.2226563,1.33593754 -0.2226562,0.4453125 -0.65625,0.73828125 -1.1484375,0.73828125 z M 11.618391,-3.4217578 v 2.66015624 c 0,0.45703125 -0.117188,0.45703125 -0.785157,0.45703125 V 1.171875e-4 c 0.351563,-0.0117187475 0.855469,-0.0351562475 1.125,-0.0351562475 0.257813,0 0.785157,0.0234375 1.113282,0.0351562475 V -0.30457031 c -0.65625,0 -0.773438,0 -0.773438,-0.45703125 V -2.5897266 c 0,-1.03125 0.714844,-1.59375 1.347656,-1.59375 0.621094,0 0.738282,0.5390625 0.738282,1.1015625 v 2.32031254 c 0,0.45703125 -0.117188,0.45703125 -0.773438,0.45703125 V 1.171875e-4 c 0.339844,-0.0117187475 0.855469,-0.0351562475 1.125,-0.0351562475 0.257813,0 0.773438,0.0234375 1.113281,0.0351562475 V -0.30457031 c -0.667968,0 -0.785156,0 -0.785156,-0.45703125 V -2.5897266 c 0,-1.03125 0.714844,-1.59375 1.347656,-1.59375 0.632813,0 0.738282,0.5390625 0.738282,1.1015625 v 2.32031254 c 0,0.45703125 -0.105469,0.45703125 -0.773438,0.45703125 V 1.171875e-4 c 0.351563,-0.0117187475 0.855469,-0.0351562475 1.125,-0.0351562475 0.257813,0 0.773438,0.0234375 1.113281,0.0351562475 V -0.30457031 c -0.515625,0 -0.761718,0 -0.773437,-0.3046875 V -2.5076953 c 0,-0.8554688 0,-1.171875 -0.316406,-1.5234375 -0.128907,-0.1757813 -0.46875,-0.375 -1.042969,-0.375 -0.832031,0 -1.277344,0.5976562 -1.441406,0.984375 -0.140625,-0.8671875 -0.878907,-0.984375 -1.324219,-0.984375 -0.726563,0 -1.195313,0.4335937 -1.476563,1.0546875 v -1.0546875 l -1.40625,0.1171875 v 0.3046875 c 0.703125,0 0.785157,0.070312 0.785157,0.5625 z m 8.958984,-0.984375 -1.394531,0.1171875 v 0.3046875 c 0.65625,0 0.738281,0.058594 0.738281,0.5507812 v 2.67187504 c 0,0.45703125 -0.105469,0.45703125 -0.773438,0.45703125 V 1.171875e-4 C 19.464094,-0.01160156 20.003156,-0.03503906 20.24925,-0.03503906 c 0.339844,0 0.691406,0.0234375 1.03125,0.0351562475 V -0.30457031 c -0.65625,0 -0.703125,-0.0585938 -0.703125,-0.4453125 z m 0.04687,-1.734375 c 0,-0.3164063 -0.246094,-0.5273438 -0.527344,-0.5273438 -0.316406,0 -0.527344,0.2695313 -0.527344,0.5273438 0,0.2695312 0.210938,0.5273437 0.527344,0.5273437 0.28125,0 0.527344,-0.1992187 0.527344,-0.5273437 z m 2.0625,2.71875 v 2.66015624 c 0,0.45703125 -0.117188,0.45703125 -0.785156,0.45703125 V 1.171875e-4 c 0.351562,-0.0117187475 0.855468,-0.0351562475 1.125,-0.0351562475 0.257812,0 0.785156,0.0234375 1.113281,0.0351562475 V -0.30457031 c -0.65625,0 -0.773438,0 -0.773438,-0.45703125 V -2.5897266 c 0,-1.03125 0.714844,-1.59375 1.347657,-1.59375 0.621093,0 0.738281,0.5390625 0.738281,1.1015625 v 2.32031254 c 0,0.45703125 -0.117188,0.45703125 -0.773438,0.45703125 V 1.171875e-4 c 0.339844,-0.0117187475 0.855469,-0.0351562475 1.125,-0.0351562475 0.257813,0 0.773438,0.0234375 1.113282,0.0351562475 V -0.30457031 c -0.515625,0 -0.773438,0 -0.785157,-0.3046875 V -2.5076953 c 0,-0.8554688 0,-1.171875 -0.304687,-1.5234375 -0.140625,-0.1757813 -0.46875,-0.375 -1.042969,-0.375 -0.726562,0 -1.195312,0.4335937 -1.476562,1.0546875 v -1.0546875 l -1.40625,0.1171875 v 0.3046875 c 0.703125,0 0.785156,0.070312 0.785156,0.5625 z m 6.193359,-0.984375 -1.394531,0.1171875 v 0.3046875 c 0.65625,0 0.738281,0.058594 0.738281,0.5507812 v 2.67187504 c 0,0.45703125 -0.105468,0.45703125 -0.773437,0.45703125 V 1.171875e-4 C 27.766828,-0.01160156 28.305891,-0.03503906 28.551984,-0.03503906 c 0.339844,0 0.691407,0.0234375 1.03125,0.0351562475 V -0.30457031 c -0.65625,0 -0.703125,-0.0585938 -0.703125,-0.4453125 z m 0.04687,-1.734375 c 0,-0.3164063 -0.246093,-0.5273438 -0.527343,-0.5273438 -0.316407,0 -0.527344,0.2695313 -0.527344,0.5273438 0,0.2695312 0.210937,0.5273437 0.527344,0.5273437 0.28125,0 0.527343,-0.1992187 0.527343,-0.5273437 z m 5.648438,4.0078125 c 0,-1.2773438 -0.996094,-2.3320313 -2.191406,-2.3320313 -1.253907,0 -2.214844,1.0898438 -2.214844,2.3320313 0,1.28906249 1.03125,2.23828124 2.203125,2.23828124 1.207031,0 2.203125,-0.97265625 2.203125,-2.23828124 z m -2.191406,1.99218749 c -0.433594,0 -0.867188,-0.2109375 -1.136719,-0.66796875 -0.257813,-0.43359374 -0.257813,-1.04296874 -0.257813,-1.40625004 0,-0.3867187 0,-0.9257812 0.246094,-1.359375 0.269531,-0.4570312 0.738281,-0.6679687 1.136719,-0.6679687 0.433594,0 0.867187,0.2226562 1.125,0.6445312 0.257812,0.4335938 0.257812,1.0078125 0.257812,1.3828125 0,0.3632813 0,0.9023438 -0.222656,1.33593754 -0.222656,0.4453125 -0.65625,0.73828125 -1.148437,0.73828125 z m 0,0"
       style="fill:#ec008c;fill-opacity:1;fill-rule:nonzero;stroke:none"
       aria-label="dominio"
       transform="matrix(1.3333333,0,0,1.3333333,235.376,323.66)"
       clip-path="url(#clipPath32)" />
    <path
       id="path25"
       d="M -2.26787,68.0326 H 2.26787"
       style="fill:none;stroke:#ec008c;stroke-width:0.79701;stroke-linecap:butt;stroke-linejoin:miter;stroke-miterlimit:10;stroke-dasharray:none;stroke-opacity:1"
       transform="matrix(1.3333333,0,0,-1.3333333,122.55867,309.32133)"
       clip-path="url(#clipPath31)" />
    <path
       id="path26"
       d="M -2.26787,136.0652 H 2.26787"
       style="fill:none;stroke:#ec008c;stroke-width:0.79701;stroke-linecap:butt;stroke-linejoin:miter;stroke-miterlimit:10;stroke-dasharray:none;stroke-opacity:1"
       transform="matrix(1.3333333,0,0,-1.3333333,122.55867,309.32133)"
       clip-path="url(#clipPath30)" />
    <path
       id="path27"
       d="m 0,68.0326 v 68.0326"
       style="fill:none;stroke:#ec008c;stroke-width:0.79701;stroke-linecap:butt;stroke-linejoin:miter;stroke-miterlimit:10;stroke-dasharray:none;stroke-opacity:1"
       transform="matrix(1.3333333,0,0,-1.3333333,122.55867,309.32133)"
       clip-path="url(#clipPath29)" />
    <path
       id="path28"
       d="M 1.6641875,-3.3035938 V -4.4051563 L 0.281375,-4.2879688 v 0.3046875 c 0.69140625,0 0.7734375,0.070312 0.7734375,0.5625 v 2.6601563 c 0,0.45703125 -0.10546875,0.45703125 -0.7734375,0.45703125 v 0.3046875 C 0.66809375,-0.010625 1.1368437,-0.0340625 1.4180937,-0.0340625 c 0.3984375,0 0.8671875,0 1.265625,0.03515625 v -0.3046875 H 2.4727812 c -0.7382812,0 -0.7617187,-0.1171875 -0.7617187,-0.46875 V -2.3075 c 0,-0.984375 0.421875,-1.875 1.1835937,-1.875 0.058594,0 0.082031,0 0.1054688,0.011719 -0.035156,0.011719 -0.234375,0.1289063 -0.234375,0.3867188 0,0.28125 0.2109375,0.4335937 0.4335937,0.4335937 0.1757813,0 0.421875,-0.1289062 0.421875,-0.4453125 0,-0.3164062 -0.3046875,-0.609375 -0.7265625,-0.609375 -0.7382812,0 -1.0898437,0.6679688 -1.2304687,1.1015622 z M 7.218875,-0.760625 c 0.035156,0.3984375 0.3046875,0.8203125 0.7734375,0.8203125 0.2109375,0 0.8203125,-0.140625 0.8203125,-0.94921875 V -1.4403125 H 8.5665312 v 0.55078125 C 8.5665312,-0.30359375 8.3204375,-0.245 8.20325,-0.245 7.875125,-0.245 7.8399687,-0.70203125 7.8399687,-0.74890625 V -2.7410938 c 0,-0.4101562 0,-0.8085937 -0.3632812,-1.171875 C 7.0899687,-4.2996875 6.5977812,-4.46375 6.1173125,-4.46375 c -0.8203125,0 -1.5117188,0.46875 -1.5117188,1.125 0,0.3046875 0.1992188,0.46875 0.4570313,0.46875 0.28125,0 0.46875,-0.1992188 0.46875,-0.4570313 0,-0.1171875 -0.058594,-0.4453125 -0.515625,-0.4570312 0.2695312,-0.3515625 0.7617187,-0.4570313 1.078125,-0.4570313 0.4921875,0 1.0546875,0.3867188 1.0546875,1.2773438 v 0.3632812 c -0.5039063,0.035156 -1.2070313,0.058594 -1.828125,0.3632813 -0.75,0.3398437 -0.9960938,0.8554687 -0.9960938,1.2890625 0,0.80859375 0.9609375,1.0546875 1.59375,1.0546875 0.65625,0 1.1132813,-0.3984375 1.3007813,-0.8671875 z M 7.148563,-2.3895313 v 0.9960938 c 0,0.94921875 -0.7148438,1.2890625 -1.1601563,1.2890625 -0.4921875,0 -0.9023437,-0.3515625 -0.9023437,-0.85546875 0,-0.53906255 0.421875,-1.37109375 2.0625,-1.42968755 z m 2.835937,-1.03125 v 2.6601563 c 0,0.45703125 -0.1171875,0.45703125 -0.7851563,0.45703125 v 0.3046875 C 9.5509062,-0.010625 10.054812,-0.0340625 10.324344,-0.0340625 c 0.257812,0 0.785156,0.0234375 1.113281,0.03515625 v -0.3046875 c -0.65625,0 -0.773438,0 -0.773438,-0.45703125 V -2.58875 c 0,-1.03125 0.714844,-1.59375 1.347657,-1.59375 0.621093,0 0.738281,0.5390625 0.738281,1.1015625 v 2.3203125 c 0,0.45703125 -0.117188,0.45703125 -0.773438,0.45703125 v 0.3046875 c 0.339844,-0.01171875 0.855469,-0.03515625 1.125,-0.03515625 0.257813,0 0.773438,0.0234375 1.113282,0.03515625 v -0.3046875 c -0.515625,0 -0.773438,0 -0.785157,-0.3046875 V -2.5067188 c 0,-0.8554687 0,-1.171875 -0.304687,-1.5234375 -0.140625,-0.1757812 -0.46875,-0.375 -1.042969,-0.375 -0.726562,0 -1.195312,0.4335938 -1.476562,1.0546875 v -1.0546875 l -1.4062503,0.1171875 v 0.3046875 c 0.703125,0 0.7851563,0.070312 0.7851563,0.5625 z m 6.650391,1.7109375 c -0.867188,0 -0.867188,-0.9960937 -0.867188,-1.2304687 0,-0.2695313 0.01172,-0.5859375 0.152344,-0.8320313 0.08203,-0.1171875 0.316406,-0.3984375 0.714844,-0.3984375 0.867187,0 0.867187,0.9960938 0.867187,1.21875 0,0.2695313 -0.01172,0.5976563 -0.164062,0.84375 -0.08203,0.1171875 -0.304688,0.3984375 -0.703125,0.3984375 z m -1.160157,0.3867188 c 0,-0.035156 0,-0.2695313 0.175782,-0.46875 0.386718,0.28125 0.796875,0.3046875 0.984375,0.3046875 0.925781,0 1.605468,-0.6796875 1.605468,-1.453125 0,-0.3632813 -0.152343,-0.7382813 -0.398437,-0.9609375 0.351562,-0.3398438 0.714844,-0.3867188 0.890625,-0.3867188 0.02344,0 0.07031,0 0.105469,0 -0.117188,0.046875 -0.164063,0.1523438 -0.164063,0.2695313 0,0.1757812 0.128906,0.2929687 0.292969,0.2929687 0.09375,0 0.28125,-0.070312 0.28125,-0.2929687 0,-0.1757813 -0.117188,-0.4921875 -0.503906,-0.4921875 -0.199219,0 -0.632813,0.058594 -1.054688,0.46875 -0.421875,-0.328125 -0.84375,-0.3632813 -1.054687,-0.3632813 -0.925782,0 -1.617188,0.6914063 -1.617188,1.453125 0,0.4453125 0.222656,0.8203125 0.46875,1.03125 -0.128906,0.1523438 -0.304687,0.4804688 -0.304687,0.8203125 0,0.3164063 0.128906,0.6914063 0.433593,0.89062505 -0.597656,0.17578125 -0.914062,0.59765625 -0.914062,0.99609375 0,0.7148437 0.984375,1.265625 2.203125,1.265625 1.171875,0 2.203125,-0.5039063 2.203125,-1.2890625 0,-0.33984375 -0.140625,-0.85546875 -0.644531,-1.125 -0.527344,-0.28125 -1.101563,-0.28125 -1.710938,-0.28125 -0.246094,0 -0.679687,0 -0.75,-0.0117188 -0.316406,-0.046875 -0.527344,-0.3515625 -0.527344,-0.6679687 z m 1.441407,3.1523437 c -1.007813,0 -1.699219,-0.515625 -1.699219,-1.0429687 0,-0.45703125 0.375,-0.8203125 0.820312,-0.85546875 h 0.585938 c 0.855469,0 1.96875,0 1.96875,0.85546875 0,0.5390625 -0.703125,1.0429687 -1.675781,1.0429687 z m 7.171875,-3.9609375 c 0,-1.2773437 -0.996094,-2.3320312 -2.191407,-2.3320312 -1.253906,0 -2.214843,1.0898437 -2.214843,2.3320312 0,1.28906255 1.03125,2.2382813 2.203125,2.2382813 1.207031,0 2.203125,-0.97265625 2.203125,-2.2382813 z m -2.191407,1.99218755 c -0.433593,0 -0.867187,-0.2109375 -1.136718,-0.66796875 -0.257813,-0.4335938 -0.257813,-1.0429688 -0.257813,-1.40625 0,-0.3867188 0,-0.9257813 0.246094,-1.359375 0.269531,-0.4570313 0.738281,-0.6679688 1.136719,-0.6679688 0.433593,0 0.867187,0.2226563 1.125,0.6445313 0.257812,0.4335937 0.257812,1.0078125 0.257812,1.3828125 0,0.3632812 0,0.9023437 -0.222656,1.3359375 -0.222656,0.4453125 -0.65625,0.73828125 -1.148438,0.73828125 z m 0,0"
       style="fill:#ec008c;fill-opacity:1;fill-rule:nonzero;stroke:none"
       aria-label="rango"
       transform="matrix(1.3333333,0,0,1.3333333,84.937333,174.82667)"
       clip-path="url(#clipPath28)" />
  </g>
</svg>
