<?xml version="1.0" encoding="UTF-8" standalone="no"?>
<!-- Created with Inkscape (http://www.inkscape.org/) -->

<svg
   version="1.1"
   id="svg1"
   width="211.38998"
   height="137.00278"
   viewBox="0 0 211.38998 137.00278"
   sodipodi:docname="1.1-ejemplo-valor-absoluto.svg"
   inkscape:version="1.4.2 (f4327f4, 2025-05-13)"
   xmlns:inkscape="http://www.inkscape.org/namespaces/inkscape"
   xmlns:sodipodi="http://sodipodi.sourceforge.net/DTD/sodipodi-0.dtd"
   xmlns="http://www.w3.org/2000/svg"
   xmlns:svg="http://www.w3.org/2000/svg">
  <defs
     id="defs1">
    <clipPath
       clipPathUnits="userSpaceOnUse"
       id="clipPath9">
      <rect
         style="opacity:0;fill:none;stroke-width:0.75"
         id="rect10"
         width="192.54515"
         height="130.16188"
         x="-87.763893"
         y="-105.1959"
         transform="scale(1,-1)" />
    </clipPath>
    <clipPath
       clipPathUnits="userSpaceOnUse"
       id="clipPath10">
      <rect
         style="opacity:0;fill:none;stroke-width:0.75"
         id="rect11"
         width="192.54515"
         height="130.16188"
         x="-87.763893"
         y="-105.1959"
         transform="scale(1,-1)" />
    </clipPath>
    <clipPath
       clipPathUnits="userSpaceOnUse"
       id="clipPath11">
      <rect
         style="opacity:0;fill:none;stroke-width:0.75"
         id="rect12"
         width="192.54515"
         height="130.16188"
         x="-78.188889"
         y="-21.444895" />
    </clipPath>
    <clipPath
       clipPathUnits="userSpaceOnUse"
       id="clipPath12">
      <rect
         style="opacity:0;fill:none;stroke-width:0.75"
         id="rect13"
         width="192.54515"
         height="130.16188"
         x="-87.763893"
         y="-20.613752"
         transform="matrix(0,-1,-1,0,0,0)" />
    </clipPath>
    <clipPath
       clipPathUnits="userSpaceOnUse"
       id="clipPath13">
      <rect
         style="opacity:0;fill:none;stroke-width:0.75"
         id="rect14"
         width="192.54515"
         height="130.16188"
         x="-87.763893"
         y="-105.1959"
         transform="scale(1,-1)" />
    </clipPath>
    <clipPath
       clipPathUnits="userSpaceOnUse"
       id="clipPath14">
      <rect
         style="opacity:0;fill:none;stroke-width:0.75"
         id="rect15"
         width="192.54515"
         height="130.16188"
         x="-169.6859"
         y="-113.7279" />
    </clipPath>
    <clipPath
       clipPathUnits="userSpaceOnUse"
       id="clipPath15">
      <rect
         style="opacity:0;fill:none;stroke-width:0.75"
         id="rect16"
         width="192.54515"
         height="130.16188"
         x="-172.34604"
         y="-105.1959"
         transform="scale(1,-1)" />
    </clipPath>
    <clipPath
       clipPathUnits="userSpaceOnUse"
       id="clipPath16">
      <rect
         style="opacity:0;fill:none;stroke-width:0.75"
         id="rect17"
         width="192.54515"
         height="130.16188"
         x="-87.763893"
         y="-105.1959"
         transform="scale(1,-1)" />
    </clipPath>
    <clipPath
       clipPathUnits="userSpaceOnUse"
       id="clipPath17">
      <rect
         style="opacity:0;fill:none;stroke-width:0.75"
         id="rect18"
         width="192.54515"
         height="130.16188"
         x="83.290115"
         y="-218.1729"
         transform="scale(1,-1)" />
    </clipPath>
  </defs>
  <sodipodi:namedview
     id="namedview1"
     pagecolor="#ffffff"
     bordercolor="#000000"
     borderopacity="0.25"
     inkscape:showpageshadow="2"
     inkscape:pageopacity="0.0"
     inkscape:pagecheckerboard="0"
     inkscape:deskcolor="#d1d1d1"
     inkscape:zoom="2.2241536"
     inkscape:cx="108.58063"
     inkscape:cy="87.448996"
     inkscape:window-width="1920"
     inkscape:window-height="1009"
     inkscape:window-x="-8"
     inkscape:window-y="-8"
     inkscape:window-maximized="1"
     inkscape:current-layer="g1">
    <inkscape:page
       x="0"
       y="0"
       inkscape:label="4"
       id="page1"
       width="211.38998"
       height="137.00278"
       margin="0"
       bleed="0" />
  </sodipodi:namedview>
  <g
     id="g1"
     inkscape:groupmode="layer"
     inkscape:label="4"
     transform="translate(-133.58267,-94.093757)">
    <path
       id="path2"
       d="M -70.867,0 H 84.58214"
       style="fill:none;stroke:#000000;stroke-width:0.3985;stroke-linecap:butt;stroke-linejoin:miter;stroke-miterlimit:10;stroke-dasharray:none;stroke-opacity:1"
       transform="matrix(1.3333333,0,0,-1.3333333,228.072,212.19867)"
       clip-path="url(#clipPath16)" />
    <path
       id="path3"
       d="M -1.19551,1.59401 C -1.09587,0.99626 0,0.09961 0.29886,0 0,-0.09961 -1.09587,-0.99626 -1.19551,-1.59401"
       style="fill:none;stroke:#000000;stroke-width:0.31879;stroke-linecap:round;stroke-linejoin:round;stroke-miterlimit:10;stroke-dasharray:none;stroke-opacity:1"
       transform="matrix(1.3333333,0,0,-1.3333333,340.84819,212.19867)"
       clip-path="url(#clipPath15)" />
    <path
       id="path4"
       d="m 3.6441172,-3.2933047 c 0.070312,-0.28125 0.3164062,-1.2890625 1.078125,-1.2890625 0.058594,0 0.3164062,0 0.5507812,0.140625 -0.3046875,0.058594 -0.5273437,0.328125 -0.5273437,0.5859375 0,0.1757813 0.1171875,0.3867188 0.4101562,0.3867188 0.2460938,0 0.5976563,-0.1992188 0.5976563,-0.6328125 0,-0.5625 -0.6445313,-0.7265625 -1.0195313,-0.7265625 -0.6328125,0 -1.0195312,0.5859375 -1.1484375,0.8320312 -0.2695312,-0.7148437 -0.8554687,-0.8320312 -1.171875,-0.8320312 -1.1367187,0 -1.75781246,1.4179687 -1.75781246,1.6875 0,0.1054687 0.10546875,0.1054687 0.12890625,0.1054687 0.0820313,0 0.1171875,-0.023437 0.140625,-0.1171875 0.37500001,-1.1601562 1.08984371,-1.4296875 1.46484371,-1.4296875 0.2109375,0 0.5859375,0.09375 0.5859375,0.7265625 0,0.3398438 -0.1875,1.078125 -0.5859375,2.6015625 -0.1757812,0.67968751 -0.5625,1.13671876 -1.0429687,1.13671876 -0.058594,0 -0.3164063,0 -0.53906251,-0.140625 0.26953121,-0.0585938 0.51562501,-0.29296875 0.51562501,-0.59765625 0,-0.29296871 -0.2460938,-0.37500001 -0.41015626,-0.37500001 -0.328125,0 -0.59765625,0.28125001 -0.59765625,0.63281251 0,0.50390625 0.55078125,0.71484375 1.03125001,0.71484375 0.7148437,0 1.1015625,-0.76171875 1.1367187,-0.83203125 0.1289063,0.41015625 0.5273438,0.83203125 1.1835938,0.83203125 1.125,0 1.7460937,-1.40624996 1.7460937,-1.67578126 0,-0.1054687 -0.1054687,-0.1054687 -0.1289062,-0.1054687 -0.1054688,0 -0.1289063,0.035156 -0.140625,0.1171875 -0.3632813,1.16015621 -1.1132813,1.42968746 -1.453125,1.42968746 -0.4335938,0 -0.609375,-0.3515625 -0.609375,-0.7265625 0,-0.23437496 0.070312,-0.48046876 0.1875,-0.96093746 z m 0,0"
       style="fill:#000000;fill-opacity:1;fill-rule:nonzero;stroke:none"
       aria-label="x"
       transform="matrix(1.3333333,0,0,1.3333333,337.30133,223.57467)"
       clip-path="url(#clipPath14)" />
    <path
       id="path5"
       d="M 0,-14.17339 V 84.58214"
       style="fill:none;stroke:#000000;stroke-width:0.3985;stroke-linecap:butt;stroke-linejoin:miter;stroke-miterlimit:10;stroke-dasharray:none;stroke-opacity:1"
       transform="matrix(1.3333333,0,0,-1.3333333,228.072,212.19867)"
       clip-path="url(#clipPath13)" />
    <path
       id="path6"
       d="M -1.19551,1.59401 C -1.09587,0.99626 0,0.09961 0.29886,0 0,-0.09961 -1.09587,-0.99626 -1.19551,-1.59401"
       style="fill:none;stroke:#000000;stroke-width:0.31879;stroke-linecap:round;stroke-linejoin:round;stroke-miterlimit:10;stroke-dasharray:none;stroke-opacity:1"
       transform="matrix(0,-1.3333333,-1.3333333,0,228.072,99.42248)"
       clip-path="url(#clipPath12)" />
    <path
       id="path7"
       d="m 5.2963906,-4.1597187 c 0.046875,-0.1523438 0.046875,-0.1757813 0.046875,-0.2460938 0,-0.1992187 -0.1523437,-0.2929687 -0.3164062,-0.2929687 -0.1054688,0 -0.28125,0.058594 -0.375,0.2226562 -0.023437,0.058594 -0.1171875,0.3984375 -0.1523438,0.5976563 -0.082031,0.28125 -0.1523437,0.5742187 -0.2226562,0.8671875 l -0.4921875,1.96875 c -0.046875,0.16406245 -0.515625,0.9257812 -1.2304688,0.9257812 -0.5625,0 -0.6796875,-0.48046875 -0.6796875,-0.890625 0,-0.4921875 0.1875,-1.171875 0.5625,-2.1328125 0.1757813,-0.4453125 0.2109375,-0.5742187 0.2109375,-0.7851562 0,-0.4921875 -0.3515625,-0.9023438 -0.890625,-0.9023438 -1.04296872,0 -1.44140622,1.5820313 -1.44140622,1.6875 0,0.1054688 0.10546875,0.1054688 0.12890625,0.1054688 0.10546875,0 0.1171875,-0.023437 0.17578125,-0.1992188 0.29296875,-1.0195312 0.72656252,-1.3476562 1.10156252,-1.3476562 0.09375,0 0.2695312,0 0.2695312,0.3515625 0,0.2695312 -0.1054687,0.5507812 -0.1757812,0.7617187 -0.4453125,1.1601563 -0.6328125,1.78125 -0.6328125,2.2851563 0,0.9726562 0.6796875,1.3007812 1.3242187,1.3007812 0.421875,0 0.796875,-0.1875 1.1015625,-0.4921875 C 3.4682656,0.19965625 3.3393594,0.727 2.9057656,1.3129375 2.6127969,1.6762188 2.2026406,1.992625 1.6987344,1.992625 c -0.1523438,0 -0.6445313,-0.023437 -0.83203127,-0.4570312 0.17578127,0 0.31640627,0 0.48046877,-0.1289063 0.1054687,-0.09375 0.2109375,-0.234375 0.2109375,-0.4453125 0,-0.33984375 -0.2929688,-0.38671875 -0.3984375,-0.38671875 -0.25781252,0 -0.60937502,0.17578125 -0.60937502,0.71484375 0,0.5390625 0.48046872,0.9492188 1.14843752,0.9492188 1.125,0 2.25,-0.9960938 2.5546875,-2.22656255 z m 0,0"
       style="fill:#000000;fill-opacity:1;fill-rule:nonzero;stroke:none"
       aria-label="y"
       transform="matrix(1.3333333,0,0,1.3333333,215.30533,100.53067)"
       clip-path="url(#clipPath11)" />
    <path
       id="path8"
       d="m -56.69362,56.69362 c 0,0 0.41362,-0.41362 0.57248,-0.57248 0.15884,-0.15884 0.41361,-0.41361 0.57246,-0.57246 0.15885,-0.15885 0.41362,-0.41362 0.57247,-0.57247 0.15886,-0.15886 0.41362,-0.41362 0.57246,-0.57246 0.15886,-0.15886 0.41361,-0.41361 0.57247,-0.57247 0.15886,-0.15886 0.4136,-0.4136 0.57246,-0.57246 0.15884,-0.15884 0.41361,-0.41361 0.57246,-0.57246 0.15885,-0.15885 0.41362,-0.41362 0.57247,-0.57247 0.15886,-0.15886 0.41362,-0.41362 0.57246,-0.57246 0.15886,-0.15886 0.41361,-0.41361 0.57247,-0.57247 0.15884,-0.15884 0.4136,-0.4136 0.57246,-0.57246 0.15884,-0.15884 0.4136,-0.4136 0.57246,-0.57246 0.15885,-0.15885 0.41362,-0.41362 0.57247,-0.57247 0.15886,-0.15886 0.4136,-0.4136 0.57246,-0.57246 0.15886,-0.15886 0.41361,-0.41361 0.57247,-0.57247 0.15884,-0.15884 0.4136,-0.4136 0.57246,-0.57246 0.15884,-0.15884 0.41362,-0.41362 0.57246,-0.57246 0.15886,-0.15886 0.41362,-0.41362 0.57247,-0.57247 0.15885,-0.15885 0.4136,-0.4136 0.57246,-0.57246 0.15886,-0.15886 0.41361,-0.41361 0.57247,-0.57247 0.15884,-0.15884 0.4136,-0.4136 0.57246,-0.57246 0.15884,-0.15884 0.41362,-0.41362 0.57246,-0.57246 0.15886,-0.15886 0.41362,-0.41362 0.57247,-0.57247 0.15886,-0.15886 0.4136,-0.4136 0.57246,-0.57246 0.15886,-0.15886 0.41361,-0.41361 0.57247,-0.57247 0.15884,-0.15884 0.4136,-0.4136 0.57246,-0.57246 0.15884,-0.15884 0.41362,-0.41362 0.57246,-0.57246 0.15886,-0.15886 0.41362,-0.41362 0.57247,-0.57247 0.15886,-0.15886 0.41361,-0.41361 0.57246,-0.57246 0.15886,-0.15886 0.41361,-0.41361 0.57247,-0.57247 0.15884,-0.15884 0.4136,-0.4136 0.57246,-0.57246 0.15884,-0.15884 0.41362,-0.41362 0.57246,-0.57246 0.15886,-0.15886 0.41362,-0.41362 0.57247,-0.57247 0.15886,-0.15886 0.4136,-0.4136 0.57248,-0.57248 0.15884,-0.15884 0.41359,-0.41359 0.57245,-0.57245 0.15884,-0.15884 0.4136,-0.4136 0.57246,-0.57246 0.15884,-0.15884 0.41362,-0.41362 0.57246,-0.57246 0.15886,-0.15886 0.41362,-0.41362 0.57247,-0.57247 0.15886,-0.15886 0.4136,-0.4136 0.57247,-0.57247 0.15885,-0.15885 0.4136,-0.4136 0.57246,-0.57246 0.15884,-0.15884 0.4136,-0.4136 0.57246,-0.57246 0.15884,-0.15884 0.41362,-0.41362 0.57246,-0.57246 0.15886,-0.15886 0.41362,-0.41362 0.57247,-0.57247 0.15885,-0.15885 0.4136,-0.4136 0.57246,-0.57246 0.15886,-0.15886 0.41361,-0.41361 0.57247,-0.57247 0.15884,-0.15884 0.4136,-0.4136 0.57246,-0.57246 0.15884,-0.15884 0.41362,-0.41362 0.57246,-0.57246 0.15886,-0.15886 0.41362,-0.41362 0.57247,-0.57247 0.15886,-0.15886 0.4136,-0.4136 0.57246,-0.57246 0.15886,-0.15886 0.41361,-0.41361 0.57247,-0.57247 0.15884,-0.15884 0.41362,-0.41362 0.57246,-0.57246 0.15886,-0.15886 0.41362,-0.41362 0.57246,-0.57246 0.15886,-0.15886 0.41362,-0.41362 0.57247,-0.57247 0.15886,-0.15886 0.41361,-0.41361 0.57246,-0.57246 0.15886,-0.15886 0.41361,-0.41361 0.57247,-0.57247 0.15884,-0.15884 0.41362,-0.41362 0.57246,-0.57246 0.15886,-0.15886 0.41362,-0.41362 0.57246,-0.57246 0.15886,-0.15886 0.41362,-0.41362 0.57247,-0.57247 0.15886,-0.15886 0.4136,-0.4136 0.57246,-0.57246 0.15886,-0.15886 0.41361,-0.41361 0.57247,-0.57247 0.15884,-0.15884 0.41362,-0.41362 0.57246,-0.57246 0.15886,-0.15886 0.41362,-0.41362 0.57246,-0.57246 0.15886,-0.15886 0.41362,-0.41362 0.57247,-0.57247 0.15886,-0.15886 0.4136,-0.4136 0.57246,-0.57246 0.15886,-0.15886 0.41361,-0.41361 0.57247,-0.57247 0.15884,-0.15884 0.41362,-0.41362 0.57246,-0.57246 0.15886,-0.15886 0.41362,-0.41362 0.57246,-0.57246 0.15886,-0.15886 0.41362,-0.41362 0.57248,-0.57248 0.15884,-0.15884 0.41359,-0.41359 0.57245,-0.57245 0.15886,-0.15886 0.41361,-0.41361 0.57247,-0.57247 0.15884,-0.15884 0.41362,-0.41362 0.57246,-0.57246 0.15886,-0.15886 0.41362,-0.41362 0.57246,-0.57246 0.15886,-0.15886 0.41362,-0.41362 0.57248,-0.57248 0.15885,-0.15885 0.41359,-0.41359 0.57245,-0.57245 0.15885,-0.15885 0.41361,-0.41361 0.57247,-0.57247 0.15884,-0.15884 0.41362,-0.41362 0.57246,-0.57246 0.15886,-0.15886 0.41362,-0.41362 0.57246,-0.57246 0.15886,-0.15886 0.41361,-0.41361 0.57248,-0.57248 0.15885,-0.15885 0.4136,-0.4136 0.57245,-0.57245 0.15885,-0.15885 0.41361,-0.41361 0.57247,-0.57247 0.15884,-0.15884 0.41362,-0.41362 0.57246,-0.57246 C -10.16516,10.16516 -9.9104,9.9104 -9.75156,9.75156 -9.5927,9.5927 -9.33795,9.33795 -9.17908,9.17908 -9.02023,9.02023 -8.76549,8.76549 -8.60663,8.60663 -8.44778,8.44778 -8.19301,8.19301 -8.03416,8.03416 -7.8753,7.8753 -7.62054,7.62054 -7.4617,7.4617 -7.30284,7.30284 -7.04808,7.04808 -6.88924,6.88924 -6.73038,6.73038 -6.47563,6.47563 -6.31676,6.31676 -6.15791,6.15791 -5.90317,5.90317 -5.74431,5.74431 -5.58546,5.58546 -5.33069,5.33069 -5.17184,5.17184 -5.01299,5.01299 -4.75822,4.75822 -4.59938,4.59938 -4.44052,4.44052 -4.18576,4.18576 -4.02692,4.02692 -3.86806,3.86806 -3.61331,3.61331 -3.45444,3.45444 -3.2956,3.2956 -3.04085,3.04085 -2.88199,2.88199 -2.72314,2.72314 -2.46837,2.46837 -2.30952,2.30952 -2.15067,2.15067 -1.8959,1.8959 -1.73706,1.73706 -1.5782,1.5782 -1.32344,1.32344 -1.1646,1.1646 -1.00574,1.00574 -0.75099,0.75099 -0.59212,0.59212 -0.43327,0.43327 -0.01967,0.01967 -0.01967,0.01967"
       style="fill:none;stroke:#eb0a36;stroke-width:0.79701;stroke-linecap:butt;stroke-linejoin:miter;stroke-miterlimit:10;stroke-dasharray:none;stroke-opacity:1"
       transform="matrix(1.3333333,0,0,-1.3333333,228.072,212.19867)"
       clip-path="url(#clipPath10)" />
    <path
       id="path9"
       d="M 0,0 C 0,0 0.41359,0.41359 0.57245,0.57245 0.7313,0.7313 0.98605,0.98605 1.14491,1.14491 1.30376,1.30376 1.55853,1.55853 1.71738,1.71738 1.87624,1.87624 2.131,2.131 2.28984,2.28984 2.4487,2.4487 2.70345,2.70345 2.8623,2.8623 3.02116,3.02116 3.27591,3.27591 3.43477,3.43477 3.59361,3.59361 3.84837,3.84837 4.00723,4.00723 4.16608,4.16608 4.42085,4.42085 4.5797,4.5797 4.73856,4.73856 4.99332,4.99332 5.15216,5.15216 5.31102,5.31102 5.56577,5.56577 5.72462,5.72462 5.88348,5.88348 6.13823,6.13823 6.29709,6.29709 6.45593,6.45593 6.7107,6.7107 6.86955,6.86955 7.0284,7.0284 7.28317,7.28317 7.44202,7.44202 7.60088,7.60088 7.85564,7.85564 8.01448,8.01448 8.17334,8.17334 8.42809,8.42809 8.58694,8.58694 8.7458,8.7458 9.00055,9.00055 9.15941,9.15941 c 0.15884,0.15884 0.41362,0.41362 0.57246,0.57246 0.15886,0.15886 0.41363,0.41363 0.57247,0.57247 0.15886,0.15886 0.41362,0.41362 0.57246,0.57246 0.15886,0.15886 0.4136,0.4136 0.57246,0.57246 0.15886,0.15886 0.41361,0.41361 0.57247,0.57247 0.15884,0.15884 0.41362,0.41362 0.57247,0.57247 0.15885,0.15885 0.41361,0.41361 0.57246,0.57246 0.15886,0.15886 0.41362,0.41362 0.57246,0.57246 0.15886,0.15886 0.41361,0.41361 0.57246,0.57246 0.15886,0.15886 0.41361,0.41361 0.57247,0.57247 0.15885,0.15885 0.41362,0.41362 0.57246,0.57246 0.15886,0.15886 0.41362,0.41362 0.57247,0.57247 0.15886,0.15886 0.41362,0.41362 0.57246,0.57246 0.15886,0.15886 0.41361,0.41361 0.57246,0.57246 0.15886,0.15886 0.41361,0.41361 0.57247,0.57247 0.15884,0.15884 0.41362,0.41362 0.57246,0.57246 0.15886,0.15886 0.41362,0.41362 0.57247,0.57247 0.15886,0.15886 0.4136,0.4136 0.57248,0.57248 0.15884,0.15884 0.41359,0.41359 0.57244,0.57244 0.15885,0.15885 0.41361,0.41361 0.57247,0.57247 0.15884,0.15884 0.41362,0.41362 0.57246,0.57246 0.15886,0.15886 0.41362,0.41362 0.57247,0.57247 0.15886,0.15886 0.4136,0.4136 0.57248,0.57248 0.15884,0.15884 0.41359,0.41359 0.57244,0.57244 0.15885,0.15885 0.41361,0.41361 0.57247,0.57247 0.15884,0.15884 0.41362,0.41362 0.57246,0.57246 0.15886,0.15886 0.41362,0.41362 0.57247,0.57247 0.15886,0.15886 0.4136,0.4136 0.57248,0.57248 0.15884,0.15884 0.41358,0.41358 0.57244,0.57244 0.15885,0.15885 0.41361,0.41361 0.57247,0.57247 0.15884,0.15884 0.41362,0.41362 0.57246,0.57246 0.15886,0.15886 0.41362,0.41362 0.57247,0.57247 0.15886,0.15886 0.4136,0.4136 0.57248,0.57248 0.15884,0.15884 0.41358,0.41358 0.57244,0.57244 0.15885,0.15885 0.41362,0.41362 0.57247,0.57247 0.15885,0.15885 0.41362,0.41362 0.57246,0.57246 0.15886,0.15886 0.41362,0.41362 0.57247,0.57247 0.15886,0.15886 0.4136,0.4136 0.57248,0.57248 0.15884,0.15884 0.41358,0.41358 0.57244,0.57244 0.15885,0.15885 0.41362,0.41362 0.57247,0.57247 0.15886,0.15886 0.41362,0.41362 0.57246,0.57246 0.15886,0.15886 0.41362,0.41362 0.57247,0.57247 0.15886,0.15886 0.4136,0.4136 0.57248,0.57248 0.15884,0.15884 0.41358,0.41358 0.57244,0.57244 0.15885,0.15885 0.41362,0.41362 0.57247,0.57247 0.15886,0.15886 0.41362,0.41362 0.57246,0.57246 0.15886,0.15886 0.41362,0.41362 0.57247,0.57247 0.15886,0.15886 0.4136,0.4136 0.57246,0.57246 0.15886,0.15886 0.4136,0.4136 0.57246,0.57246 0.15885,0.15885 0.41362,0.41362 0.57247,0.57247 0.15886,0.15886 0.41362,0.41362 0.57246,0.57246 0.15886,0.15886 0.41362,0.41362 0.57248,0.57248 0.15885,0.15885 0.41359,0.41359 0.57245,0.57245 0.15886,0.15886 0.4136,0.4136 0.57246,0.57246 0.15885,0.15885 0.41362,0.41362 0.57247,0.57247 0.15886,0.15886 0.41362,0.41362 0.57246,0.57246 0.15886,0.15886 0.41362,0.41362 0.57248,0.57248 0.15885,0.15885 0.41359,0.41359 0.57245,0.57245 0.15886,0.15886 0.4136,0.4136 0.57246,0.57246 0.15885,0.15885 0.41362,0.41362 0.57247,0.57247 0.15885,0.15885 0.41362,0.41362 0.57246,0.57246 0.15886,0.15886 0.41362,0.41362 0.57248,0.57248 0.15885,0.15885 0.41359,0.41359 0.57245,0.57245 0.15886,0.15886 0.4136,0.4136 0.57246,0.57246 0.15885,0.15885 0.41362,0.41362 0.57247,0.57247 0.15886,0.15886 0.41362,0.41362 0.57246,0.57246 0.15886,0.15886 0.41362,0.41362 0.57248,0.57248 0.15885,0.15885 0.41359,0.41359 0.57245,0.57245 0.15886,0.15886 0.41362,0.41362 0.57246,0.57246 0.15886,0.15886 0.41362,0.41362 0.57247,0.57247 0.15886,0.15886 0.41362,0.41362 0.57246,0.57246 0.15886,0.15886 0.41362,0.41362 0.57248,0.57248 0.15885,0.15885 0.41359,0.41359 0.57245,0.57245 0.15886,0.15886 0.41362,0.41362 0.57246,0.57246 0.15886,0.15886 0.41362,0.41362 0.57247,0.57247 0.15886,0.15886 0.41362,0.41362 0.57246,0.57246 0.15886,0.15886 0.41362,0.41362 0.57248,0.57248 0.15885,0.15885 0.41359,0.41359 0.57245,0.57245 0.15884,0.15884 0.41362,0.41362 0.57246,0.57246 0.15886,0.15886 0.41362,0.41362 0.57247,0.57247 0.15886,0.15886 0.41362,0.41362 0.57246,0.57246 0.15886,0.15886 0.41361,0.41361 0.57248,0.57248 0.15884,0.15884 0.57245,0.57245 0.57245,0.57245"
       style="fill:none;stroke:#eb0a36;stroke-width:0.79701;stroke-linecap:butt;stroke-linejoin:miter;stroke-miterlimit:10;stroke-dasharray:none;stroke-opacity:1"
       transform="matrix(1.3333333,0,0,-1.3333333,228.072,212.19867)"
       clip-path="url(#clipPath9)" />
  </g>
</svg>
