<?xml version="1.0" encoding="UTF-8" standalone="no"?>
<!-- Created with Inkscape (http://www.inkscape.org/) -->

<svg
   version="1.1"
   id="svg1"
   width="254.45366"
   height="158.45117"
   viewBox="0 0 254.45366 158.45117"
   sodipodi:docname="1.2-ejemplo-temperatura.svg"
   inkscape:version="1.4.2 (f4327f4, 2025-05-13)"
   xmlns:inkscape="http://www.inkscape.org/namespaces/inkscape"
   xmlns:sodipodi="http://sodipodi.sourceforge.net/DTD/sodipodi-0.dtd"
   xmlns="http://www.w3.org/2000/svg"
   xmlns:svg="http://www.w3.org/2000/svg">
  <defs
     id="defs1">
    <clipPath
       clipPathUnits="userSpaceOnUse"
       id="clipPath21">
      <rect
         style="opacity:0;fill:none;stroke-width:0.75"
         id="rect22"
         width="219.85893"
         height="142.30132"
         x="-106.42793"
         y="-66.335999" />
    </clipPath>
    <clipPath
       clipPathUnits="userSpaceOnUse"
       id="clipPath22">
      <rect
         style="opacity:0;fill:none;stroke-width:0.75"
         id="rect23"
         width="219.85893"
         height="142.30132"
         x="-82.774925"
         y="-91.639"
         transform="scale(1,-1)" />
    </clipPath>
    <clipPath
       clipPathUnits="userSpaceOnUse"
       id="clipPath23">
      <rect
         style="opacity:0;fill:none;stroke-width:0.75"
         id="rect24"
         width="219.85893"
         height="142.30132"
         x="-49.254925"
         y="-23.499998" />
    </clipPath>
    <clipPath
       clipPathUnits="userSpaceOnUse"
       id="clipPath24">
      <rect
         style="opacity:0;fill:none;stroke-width:0.75"
         id="rect25"
         width="219.85893"
         height="142.30132"
         x="-82.774925"
         y="-21.230259"
         transform="matrix(0,-1,-1,0,0,0)" />
    </clipPath>
    <clipPath
       clipPathUnits="userSpaceOnUse"
       id="clipPath25">
      <rect
         style="opacity:0;fill:none;stroke-width:0.75"
         id="rect26"
         width="219.85893"
         height="142.30132"
         x="-82.774925"
         y="-91.639"
         transform="scale(1,-1)" />
    </clipPath>
    <clipPath
       clipPathUnits="userSpaceOnUse"
       id="clipPath26">
      <rect
         style="opacity:0;fill:none;stroke-width:0.75"
         id="rect27"
         width="219.85893"
         height="142.30132"
         x="-171.64992"
         y="-103.656" />
    </clipPath>
    <clipPath
       clipPathUnits="userSpaceOnUse"
       id="clipPath27">
      <rect
         style="opacity:0;fill:none;stroke-width:0.75"
         id="rect28"
         width="219.85893"
         height="142.30132"
         x="-167.35707"
         y="-91.639"
         transform="scale(1,-1)" />
    </clipPath>
    <clipPath
       clipPathUnits="userSpaceOnUse"
       id="clipPath28">
      <rect
         style="opacity:0;fill:none;stroke-width:0.75"
         id="rect29"
         width="219.85893"
         height="142.30132"
         x="-82.774925"
         y="-91.639"
         transform="scale(1,-1)" />
    </clipPath>
    <clipPath
       clipPathUnits="userSpaceOnUse"
       id="clipPath29">
      <rect
         style="opacity:0;fill:none;stroke-width:0.75"
         id="rect30"
         width="219.85893"
         height="142.30132"
         x="71.825081"
         y="-223.231"
         transform="scale(1,-1)" />
    </clipPath>
  </defs>
  <sodipodi:namedview
     id="namedview1"
     pagecolor="#ffffff"
     bordercolor="#000000"
     borderopacity="0.25"
     inkscape:showpageshadow="2"
     inkscape:pageopacity="0.0"
     inkscape:pagecheckerboard="0"
     inkscape:deskcolor="#d1d1d1"
     inkscape:zoom="2.2241536"
     inkscape:cx="130.61148"
     inkscape:cy="95.991571"
     inkscape:window-width="1920"
     inkscape:window-height="1009"
     inkscape:window-x="-8"
     inkscape:window-y="-8"
     inkscape:window-maximized="1"
     inkscape:current-layer="g1">
    <inkscape:page
       x="0"
       y="0"
       inkscape:label="5"
       id="page1"
       width="254.45366"
       height="158.45117"
       margin="0"
       bleed="0" />
  </sodipodi:namedview>
  <g
     id="g1"
     inkscape:groupmode="layer"
     inkscape:label="5"
     transform="translate(-111.644,-85.621093)">
    <path
       id="path2"
       d="M -70.867,0 H 84.58214"
       style="fill:none;stroke:#000000;stroke-width:0.3985;stroke-linecap:butt;stroke-linejoin:miter;stroke-miterlimit:10;stroke-dasharray:none;stroke-opacity:1"
       transform="matrix(1.3333333,0,0,-1.3333333,206.13333,187.37867)"
       clip-path="url(#clipPath28)" />
    <path
       id="path3"
       d="M -1.19551,1.59401 C -1.09587,0.99626 0,0.09961 0.29886,0 0,-0.09961 -1.09587,-0.99626 -1.19551,-1.59401"
       style="fill:none;stroke:#000000;stroke-width:0.31879;stroke-linecap:round;stroke-linejoin:round;stroke-miterlimit:10;stroke-dasharray:none;stroke-opacity:1"
       transform="matrix(1.3333333,0,0,-1.3333333,318.90952,187.37867)"
       clip-path="url(#clipPath27)" />
    <g
       id="g3"
       aria-label="h(km)"
       transform="matrix(1.3333333,0,0,1.3333333,324.63333,203.40133)"
       clip-path="url(#clipPath26)">
      <path
         id="path4"
         d="m 3.1285156,-7.4523672 c 0,-0.011719 0,-0.1171875 -0.140625,-0.1171875 -0.2460937,0 -1.0429687,0.082031 -1.3242187,0.1054688 -0.09375,0.011719 -0.2109375,0.023437 -0.2109375,0.2226562 0,0.1289063 0.09375,0.1289063 0.2578125,0.1289063 0.5273437,0 0.5507812,0.082031 0.5507812,0.1875 l -0.035156,0.2109375 -1.58203127,6.29296871 c -0.046875,0.15234375 -0.046875,0.17578125 -0.046875,0.234375 0,0.2578125 0.22265625,0.3046875 0.31640625,0.3046875 0.17578122,0 0.35156252,-0.12890625 0.41015622,-0.28125 L 1.5230469,-0.99533594 1.7691406,-1.9797109 c 0.058594,-0.234375 0.1289063,-0.46875 0.1875,-0.7265625 0.023437,-0.058594 0.1054688,-0.421875 0.1171875,-0.4921875 0.035156,-0.09375 0.375,-0.703125 0.7382813,-0.9960938 0.2460937,-0.1757812 0.5859375,-0.3867187 1.0546875,-0.3867187 0.46875,0 0.5859375,0.375 0.5859375,0.7617187 0,0.5859375 -0.421875,1.78125 -0.6796875,2.4492188 -0.082031,0.2460937 -0.140625,0.37499996 -0.140625,0.59765621 0,0.515625 0.3867187,0.890625 0.890625,0.890625 1.03125,0 1.4296875,-1.59375001 1.4296875,-1.67578121 0,-0.1054688 -0.09375,-0.1054688 -0.1289063,-0.1054688 -0.1054687,0 -0.1054687,0.023437 -0.1640625,0.1875 -0.1640625,0.58593751 -0.515625,1.35937501 -1.1132812,1.35937501 -0.1875,0 -0.2578125,-0.1171875 -0.2578125,-0.36328125 0,-0.26953125 0.09375,-0.53906246 0.1992187,-0.77343746 0.1757813,-0.46875 0.65625,-1.7695313 0.65625,-2.4023438 0,-0.703125 -0.4335937,-1.171875 -1.2539062,-1.171875 -0.6796875,0 -1.2070313,0.3398438 -1.6054688,0.84375 z m 0,0"
         style="fill:#000000;fill-opacity:1;fill-rule:nonzero;stroke:none" />
      <path
         id="path5"
         d="m 11.718359,2.6140391 c 0,-0.023437 0,-0.046875 -0.1875,-0.234375 -1.359375,-1.3710938 -1.7109371,-3.4335938 -1.7109371,-5.109375 0,-1.8984375 0.4218751,-3.796875 1.7578121,-5.15625 0.140625,-0.1289063 0.140625,-0.1523438 0.140625,-0.1875 0,-0.070312 -0.04687,-0.1054688 -0.105468,-0.1054688 -0.105469,0 -1.089844,0.7382813 -1.7343754,2.1210938 -0.5625,1.2070312 -0.6914062,2.4140625 -0.6914062,3.328125 0,0.8554687 0.1171875,2.17968746 0.7265625,3.41015621 0.6445311,1.33593749 1.5937501,2.05078129 1.6992191,2.05078129 0.05859,0 0.105468,-0.035156 0.105468,-0.1171875 z m 0,0"
         style="fill:#000000;fill-opacity:1;fill-rule:nonzero;stroke:none" />
      <path
         id="path6"
         d="m 15.480078,-7.4523672 c 0,-0.011719 0,-0.1171875 -0.140625,-0.1171875 -0.246094,0 -1.042969,0.082031 -1.324219,0.1054688 -0.09375,0.011719 -0.210937,0.023437 -0.210937,0.2226562 0,0.1289063 0.09375,0.1289063 0.257812,0.1289063 0.527344,0 0.550782,0.082031 0.550782,0.1875 l -0.03516,0.2109375 -1.582031,6.29296871 c -0.04687,0.15234375 -0.04687,0.17578125 -0.04687,0.234375 0,0.2578125 0.222656,0.3046875 0.316406,0.3046875 0.140625,0 0.304688,-0.09375 0.375,-0.22265625 0.05859,-0.10546875 0.539063,-2.12109376 0.609375,-2.39062496 0.375,0.035156 1.265625,0.1992187 1.265625,0.9257812 0,0.070312 0,0.1171875 -0.03516,0.2226563 -0.02344,0.140625 -0.04687,0.2695312 -0.04687,0.38671871 0,0.64453125 0.445313,1.078125 1.007813,1.078125 0.328125,0 0.621093,-0.17578125 0.867187,-0.57421875 0.269531,-0.48046875 0.386719,-1.07812496 0.386719,-1.10156246 0,-0.1054688 -0.09375,-0.1054688 -0.128906,-0.1054688 -0.105469,0 -0.117188,0.035156 -0.152344,0.1875 -0.222656,0.79687501 -0.46875,1.35937501 -0.949219,1.35937501 -0.210937,0 -0.351562,-0.1171875 -0.351562,-0.515625 0,-0.1875 0.04687,-0.43359371 0.09375,-0.60937501 0.03516,-0.1875 0.03516,-0.234375 0.03516,-0.3398437 0,-0.7148438 -0.679688,-1.03125 -1.605469,-1.1484375 0.328125,-0.1992188 0.679688,-0.5390625 0.9375,-0.8085938 0.515625,-0.5742187 1.019531,-1.0429687 1.558594,-1.0429687 0.05859,0 0.07031,0 0.09375,0.011719 0.128906,0.023437 0.140625,0.023437 0.234375,0.082031 0.02344,0.011719 0.02344,0.023437 0.03516,0.046875 -0.515625,0.035156 -0.621094,0.4570312 -0.621094,0.5859375 0,0.1757812 0.128907,0.3867187 0.421875,0.3867187 0.28125,0 0.597657,-0.2460937 0.597657,-0.6679687 0,-0.328125 -0.246094,-0.6914063 -0.738282,-0.6914063 -0.304687,0 -0.808593,0.09375 -1.59375,0.9609375 -0.375,0.421875 -0.796875,0.8554688 -1.21875,1.0195313 z m 3.84961,6.80859376 c -0.03516,0.1640625 -0.09375,0.41015625 -0.09375,0.46875 0,0.19921875 0.152343,0.29296875 0.316406,0.29296875 0.128906,0 0.316406,-0.08203125 0.398437,-0.3046875 0.01172,-0.0234375 0.140625,-0.52734375 0.210938,-0.80859375 l 0.234375,-0.98437496 c 0.07031,-0.234375 0.128906,-0.46875 0.1875,-0.7265625 0.04687,-0.1875 0.128906,-0.5039063 0.140625,-0.5390625 0.164062,-0.3398438 0.738281,-1.3359375 1.78125,-1.3359375 0.492187,0 0.585937,0.3984375 0.585937,0.7617187 0,0.2695313 -0.07031,0.5742188 -0.164062,0.9023438 L 22.622656,-1.6515859 22.4,-0.81955469 c -0.03516,0.22265625 -0.140625,0.5859375 -0.140625,0.64453125 0,0.19921875 0.152344,0.29296875 0.316406,0.29296875 0.339844,0 0.410157,-0.26953125 0.492188,-0.62109375 0.152344,-0.60937496 0.5625,-2.20312496 0.65625,-2.62499996 0.03516,-0.140625 0.609375,-1.453125 1.804687,-1.453125 0.46875,0 0.585938,0.375 0.585938,0.7617187 0,0.6210938 -0.457031,1.8632813 -0.679688,2.4492188 -0.09375,0.2578125 -0.140625,0.37499996 -0.140625,0.59765621 0,0.515625 0.386719,0.890625 0.902344,0.890625 1.019531,0 1.417969,-1.59375001 1.417969,-1.67578121 0,-0.1054688 -0.09375,-0.1054688 -0.128906,-0.1054688 -0.105469,0 -0.105469,0.023437 -0.164063,0.1875 -0.164062,0.58593751 -0.503906,1.35937501 -1.113281,1.35937501 -0.175781,0 -0.257813,-0.1171875 -0.257813,-0.36328125 0,-0.26953125 0.09375,-0.53906246 0.199219,-0.77343746 0.199219,-0.5625 0.667969,-1.78125 0.667969,-2.4023438 0,-0.703125 -0.445313,-1.171875 -1.253906,-1.171875 -0.820313,0 -1.382813,0.4804688 -1.78125,1.0664063 -0.01172,-0.140625 -0.04687,-0.515625 -0.351563,-0.7734375 -0.269531,-0.234375 -0.621094,-0.2929688 -0.890625,-0.2929688 -0.984375,0 -1.523437,0.703125 -1.710937,0.9492188 -0.04687,-0.6210938 -0.503907,-0.9492188 -0.996094,-0.9492188 -0.503906,0 -0.714844,0.4335938 -0.808594,0.6328125 -0.199219,0.375 -0.339844,1.0195313 -0.339844,1.0546875 0,0.1054688 0.105469,0.1054688 0.128907,0.1054688 0.105468,0 0.117187,-0.011719 0.1875,-0.2460938 0.1875,-0.7734375 0.398437,-1.3007812 0.796875,-1.3007812 0.175781,0 0.339843,0.082031 0.339843,0.5039062 0,0.2226563 -0.03516,0.3515625 -0.175781,0.9140625 z m 0,0"
         style="fill:#000000;fill-opacity:1;fill-rule:nonzero;stroke:none" />
      <path
         id="path7"
         d="m 31.098242,-2.7297109 c 0,-0.84375 -0.117187,-2.1679688 -0.714844,-3.3984375 -0.65625,-1.3476563 -1.59375,-2.0507813 -1.710937,-2.0507813 -0.05859,0 -0.105469,0.035156 -0.105469,0.1054688 0,0.035156 0,0.058594 0.210938,0.2460937 1.066406,1.0898438 1.6875,2.8242188 1.6875,5.0976563 0,1.86328121 -0.398438,3.7851562 -1.757813,5.1679687 -0.140625,0.1289063 -0.140625,0.1523438 -0.140625,0.1757813 0,0.070312 0.04687,0.1171875 0.105469,0.1171875 0.117187,0 1.089844,-0.75 1.734375,-2.13281254 0.5625,-1.1953125 0.691406,-2.41406246 0.691406,-3.32812496 z m 0,0"
         style="fill:#000000;fill-opacity:1;fill-rule:nonzero;stroke:none" />
    </g>
    <path
       id="path8"
       d="M 0,-42.5202 V 70.40874"
       style="fill:none;stroke:#000000;stroke-width:0.3985;stroke-linecap:butt;stroke-linejoin:miter;stroke-miterlimit:10;stroke-dasharray:none;stroke-opacity:1"
       transform="matrix(1.3333333,0,0,-1.3333333,206.13333,187.37867)"
       clip-path="url(#clipPath25)" />
    <path
       id="path9"
       d="M -1.19551,1.59401 C -1.09587,0.99626 0,0.09961 0.29886,0 0,-0.09961 -1.09587,-0.99626 -1.19551,-1.59401"
       style="fill:none;stroke:#000000;stroke-width:0.31879;stroke-linecap:round;stroke-linejoin:round;stroke-miterlimit:10;stroke-dasharray:none;stroke-opacity:1"
       transform="matrix(0,-1.3333333,-1.3333333,0,206.13333,93.500347)"
       clip-path="url(#clipPath24)" />
    <g
       id="g9"
       aria-label="T(&#10;◦&#10;C)"
       transform="matrix(1.3333333,0,0,1.3333333,161.44,96.526667)"
       clip-path="url(#clipPath23)">
      <path
         id="path10"
         d="m 4.6651172,-6.6205859 c 0.070312,-0.3046875 0.1171875,-0.375 0.2460937,-0.4101563 0.09375,-0.011719 0.4570313,-0.011719 0.6914063,-0.011719 1.1015625,0 1.59375,0.035156 1.59375,0.890625 0,0.1640625 -0.046875,0.5859375 -0.09375,0.8671875 -0.011719,0.046875 -0.035156,0.1757812 -0.035156,0.2109375 0,0.070312 0.035156,0.140625 0.1289063,0.140625 0.1289062,0 0.1523437,-0.082031 0.1640625,-0.2460938 l 0.3046875,-1.8984375 c 0,-0.046875 0.011719,-0.1523437 0.011719,-0.1875 0,-0.1171875 -0.1054687,-0.1171875 -0.2929687,-0.1171875 h -6.046875 c -0.2695313,0 -0.28125,0.011719 -0.35156251,0.2109375 l -0.65625,1.921875 c -0.0117188,0.023437 -0.0703125,0.1757813 -0.0703125,0.1992188 0,0.070312 0.0585938,0.1171875 0.140625,0.1171875 0.10546875,0 0.1171875,-0.046875 0.17578125,-0.2226563 C 1.1729297,-6.8549609 1.4541797,-7.0424609 3.0713672,-7.0424609 h 0.421875 c 0.3046875,0 0.3046875,0.035156 0.3046875,0.1289062 0,0.058594 -0.035156,0.1992188 -0.046875,0.2226563 l -1.453125,5.82421871 c -0.1054688,0.41015625 -0.140625,0.52734375 -1.30078126,0.52734375 -0.3984375,0 -0.45703125,0 -0.45703125,0.2109375 0,0.1289062525 0.1171875,0.1289062525 0.17578125,0.1289062525 0.30468746,0 0.60937496,-0.0234375025 0.90234376,-0.0234375025 0.3046875,0 0.6210937,-0.01171875 0.9257812,-0.01171875 0.3046875,0 0.609375,0.01171875 0.9023438,0.01171875 0.3164062,0 0.6445312,0.0234375025 0.9492187,0.0234375025 0.1171875,0 0.2460938,0 0.2460938,-0.2226562525 0,-0.1171875 -0.09375,-0.1171875 -0.375,-0.1171875 -0.2695313,0 -0.4101563,0 -0.703125,-0.0234375 -0.3164063,-0.0351563 -0.3984375,-0.0585938 -0.3984375,-0.234375 0,-0.0117188 0,-0.0703125 0.046875,-0.234375 z m 0,0"
         style="fill:#000000;fill-opacity:1;fill-rule:nonzero;stroke:none" />
      <path
         id="path11"
         d="m 11.500078,2.6137891 c 0,-0.023437 0,-0.046875 -0.1875,-0.234375 -1.3593749,-1.3710938 -1.7109374,-3.4335938 -1.7109374,-5.109375 0,-1.8984375 0.4218754,-3.796875 1.7578124,-5.15625 0.140625,-0.1289063 0.140625,-0.1523438 0.140625,-0.1875 0,-0.070312 -0.04687,-0.1054688 -0.105469,-0.1054688 -0.105468,0 -1.089843,0.7382813 -1.7343746,2.1210938 -0.5625,1.2070312 -0.6914063,2.4140625 -0.6914063,3.328125 0,0.8554687 0.1171875,2.17968746 0.7265625,3.41015621 0.6445314,1.33593749 1.5937504,2.05078129 1.6992184,2.05078129 0.05859,0 0.105469,-0.035156 0.105469,-0.1171875 z m 0,0"
         style="fill:#000000;fill-opacity:1;fill-rule:nonzero;stroke:none" />
      <path
         id="path12"
         d="m 15.882891,-5.9526172 c 0,-0.9140625 -0.726563,-1.6523437 -1.640625,-1.6523437 -0.902344,0 -1.640625,0.7382812 -1.640625,1.6523437 0,0.9140625 0.738281,1.6523438 1.640625,1.6523438 0.914062,0 1.640625,-0.7382813 1.640625,-1.6523438 z m -1.640625,1.2773438 c -0.703125,0 -1.277344,-0.5625 -1.277344,-1.2773438 0,-0.7148437 0.574219,-1.2773437 1.277344,-1.2773437 0.714843,0 1.277343,0.5625 1.277343,1.2773437 0,0.7148438 -0.5625,1.2773438 -1.277343,1.2773438 z m 0,0"
         style="fill:#000000;fill-opacity:1;fill-rule:nonzero;stroke:none" />
      <path
         id="path13"
         d="m 25.161211,-7.5815234 c 0,-0.035156 -0.02344,-0.1054688 -0.128906,-0.1054688 -0.02344,0 -0.03516,0.011719 -0.164063,0.1289063 l -0.761719,0.84375 c -0.09375,-0.1640625 -0.597656,-0.9726563 -1.804687,-0.9726563 -2.4375,0 -4.886719,2.4023438 -4.886719,4.9335938 0,1.80468746 1.277344,2.98828121 2.953125,2.98828121 0.949219,0 1.78125,-0.43359375 2.355469,-0.9375 1.019531,-0.89062501 1.195312,-1.88671871 1.195312,-1.91015621 0,-0.1171875 -0.105468,-0.1171875 -0.128906,-0.1171875 -0.05859,0 -0.117187,0.023437 -0.140625,0.1171875 -0.09375,0.3164062 -0.351562,1.0898437 -1.101562,1.72265621 -0.75,0.609375 -1.441407,0.796875 -2.003907,0.796875 -0.984375,0 -2.144531,-0.57421875 -2.144531,-2.27343751 0,-0.6210937 0.234375,-2.390625 1.324219,-3.6679687 0.667969,-0.7734375 1.6875,-1.3125 2.660156,-1.3125 1.113281,0 1.757813,0.8320312 1.757813,2.0976562 0,0.4335938 -0.03516,0.4453125 -0.03516,0.5625 0,0.1054688 0.117188,0.1054688 0.164063,0.1054688 0.140625,0 0.140625,-0.023437 0.199219,-0.2226563 z m 0,0"
         style="fill:#000000;fill-opacity:1;fill-rule:nonzero;stroke:none" />
      <path
         id="path14"
         d="m 28.600664,-2.7299609 c 0,-0.84375 -0.117187,-2.1679688 -0.714844,-3.3984375 -0.65625,-1.3476563 -1.59375,-2.0507813 -1.710937,-2.0507813 -0.05859,0 -0.105469,0.035156 -0.105469,0.1054688 0,0.035156 0,0.058594 0.210938,0.2460937 1.066406,1.0898438 1.6875,2.8242188 1.6875,5.0976563 0,1.86328121 -0.398438,3.7851562 -1.757813,5.1679687 -0.140625,0.1289063 -0.140625,0.1523438 -0.140625,0.1757813 0,0.070312 0.04687,0.1171875 0.105469,0.1171875 0.117187,0 1.089844,-0.75 1.734375,-2.13281254 0.5625,-1.1953125 0.691406,-2.41406246 0.691406,-3.32812496 z m 0,0"
         style="fill:#000000;fill-opacity:1;fill-rule:nonzero;stroke:none" />
    </g>
    <path
       id="path15"
       d="m 0,28.3468 c 0,0 0.41359,-0.41362 0.57245,-0.57248 C 0.7313,27.61548 0.98605,27.36073 1.14491,27.20186 1.30376,27.04301 1.55853,26.78825 1.71738,26.62941 1.87624,26.47055 2.131,26.21579 2.28984,26.05695 2.4487,25.89809 2.70345,25.64333 2.8623,25.48447 3.02116,25.32562 3.27591,25.07086 3.43477,24.912 3.59361,24.75316 3.84837,24.49841 4.00723,24.33954 4.16608,24.1807 4.42085,23.92593 4.5797,23.76709 4.73856,23.60823 4.99332,23.35347 5.15216,23.19463 5.31102,23.03577 5.56577,22.781 5.72462,22.62215 5.88348,22.4633 6.13823,22.20854 6.29709,22.04968 6.45593,21.89084 6.7107,21.6361 6.86955,21.47722 7.0284,21.31837 7.28317,21.06361 7.44202,20.90477 7.60088,20.74591 7.85564,20.49115 8.01448,20.3323 8.17334,20.17345 8.42809,19.91869 8.58694,19.75983 8.7458,19.60098 9.00055,19.34622 9.15941,19.18736 c 0.15884,-0.15884 0.41362,-0.4136 0.57246,-0.57246 0.15886,-0.15886 0.41363,-0.4136 0.57247,-0.57245 0.15886,-0.15886 0.41362,-0.41362 0.57246,-0.57246 0.15886,-0.15886 0.4136,-0.41362 0.57246,-0.57249 0.15886,-0.15884 0.41361,-0.4136 0.57247,-0.57246 0.15884,-0.15884 0.41362,-0.4136 0.57247,-0.57244 0.15885,-0.15888 0.41361,-0.41363 0.57246,-0.57247 0.15886,-0.15886 0.41362,-0.41362 0.57246,-0.57246 0.15886,-0.15887 0.41361,-0.41362 0.57246,-0.57248 0.15886,-0.15885 0.41361,-0.41361 0.57247,-0.57247 0.15885,-0.15884 0.41362,-0.4136 0.57246,-0.57245 0.15886,-0.15887 0.41362,-0.41362 0.57247,-0.57246 0.15886,-0.15886 0.41362,-0.41362 0.57246,-0.57246 0.15886,-0.15886 0.41361,-0.41362 0.57246,-0.57248 0.15886,-0.15885 0.41361,-0.41361 0.57247,-0.57247 0.15884,-0.15884 0.41362,-0.4136 0.57246,-0.57245 C 18.47769,9.86908 18.73245,9.61433 18.8913,9.45549 19.05016,9.29663 19.3049,9.04187 19.46378,8.88301 19.62262,8.72417 19.87737,8.4694 20.03622,8.31055 20.19507,8.1517 20.44983,7.89694 20.60869,7.73808 20.76753,7.57924 21.02231,7.32448 21.18115,7.16563 21.34001,7.00676 21.59477,6.75201 21.75362,6.59317 21.91248,6.43431 22.16722,6.17955 22.3261,6.02069 22.48494,5.86185 22.73969,5.60709 22.89854,5.44823 23.05739,5.28938 23.31215,5.03462 23.47101,4.87576 23.62985,4.71692 23.88463,4.46216 24.04347,4.30331 24.20233,4.14444 24.45709,3.8897 24.61594,3.73085 24.7748,3.57199 25.02954,3.31723 25.18842,3.15837 25.34726,2.99953 25.602,2.74477 25.76086,2.5859 25.91971,2.42706 26.17447,2.1723 26.33333,2.01344 26.49217,1.8546 26.74695,1.59984 26.90579,1.441 c 0.15886,-0.15888 0.41362,-0.41363 0.57247,-0.57247 0.15886,-0.15886 0.4136,-0.41362 0.57248,-0.57248 0.15884,-0.15885 0.41358,-0.41357 0.57244,-0.57243 0.15885,-0.15885 0.41362,-0.41362 0.57247,-0.57247 0.15885,-0.15885 0.41362,-0.4136 0.57246,-0.57245 0.15886,-0.15885 0.41362,-0.41362 0.57247,-0.57246 0.15886,-0.15886 0.4136,-0.41362 0.57248,-0.57248 0.15884,-0.15884 0.41358,-0.4136 0.57244,-0.57246 0.15885,-0.15885 0.41362,-0.4136 0.57247,-0.57247 0.15886,-0.15886 0.41362,-0.4136 0.57246,-0.57245 0.15886,-0.15885 0.41362,-0.41362 0.57247,-0.57246 0.15886,-0.15886 0.4136,-0.41362 0.57248,-0.57248 0.15884,-0.15884 0.41358,-0.4136 0.57244,-0.57246 0.15885,-0.15885 0.41362,-0.41361 0.57247,-0.57247 0.15886,-0.15886 0.41362,-0.4136 0.57246,-0.57245 0.15886,-0.15886 0.41362,-0.41362 0.57247,-0.57246 0.15886,-0.15886 0.4136,-0.41362 0.57246,-0.57248 0.15886,-0.15884 0.4136,-0.4136 0.57246,-0.57246 0.15885,-0.15885 0.41362,-0.41361 0.57247,-0.57246 0.15886,-0.15887 0.41362,-0.41361 0.57246,-0.57246 0.15886,-0.15885 0.41362,-0.41362 0.57248,-0.57247 0.15885,-0.15885 0.41359,-0.41361 0.57245,-0.57247 0.15886,-0.15884 0.4136,-0.4136 0.57246,-0.57246 0.15885,-0.15884 0.41362,-0.41361 0.57247,-0.57247 0.15886,-0.15886 0.41362,-0.4136 0.57246,-0.57244 0.15886,-0.15886 0.41362,-0.41363 0.57248,-0.57248 0.15885,-0.15885 0.41359,-0.41361 0.57245,-0.57247 0.15886,-0.15884 0.4136,-0.4136 0.57246,-0.57246 0.15885,-0.15885 0.41362,-0.41361 0.57247,-0.57247 0.15885,-0.15885 0.41362,-0.4136 0.57246,-0.57245 0.15886,-0.15885 0.41362,-0.41361 0.57248,-0.57247 0.15885,-0.15885 0.41359,-0.41361 0.57245,-0.57247 0.15886,-0.15884 0.4136,-0.4136 0.57246,-0.57246 0.15885,-0.15885 0.41362,-0.4136 0.57247,-0.57247 0.15886,-0.15886 0.41362,-0.4136 0.57246,-0.57244 0.15886,-0.15886 0.41362,-0.41362 0.57248,-0.57249 0.15885,-0.15884 0.41359,-0.4136 0.57245,-0.57246 0.15886,-0.15884 0.41362,-0.41362 0.57246,-0.57246 0.15886,-0.15886 0.41362,-0.41361 0.57247,-0.57245 0.15886,-0.15888 0.41362,-0.41362 0.57246,-0.57246 0.15886,-0.15887 0.41362,-0.41362 0.57248,-0.57248 0.15885,-0.15885 0.41359,-0.41361 0.57245,-0.57247 0.15886,-0.15884 0.41362,-0.41362 0.57246,-0.57246 0.15886,-0.15886 0.41362,-0.41361 0.57247,-0.57245 0.15886,-0.15888 0.41362,-0.41362 0.57246,-0.57246 0.15886,-0.15886 0.41362,-0.41362 0.57248,-0.57248 0.15885,-0.15885 0.41359,-0.41361 0.57245,-0.57247 0.15884,-0.15884 0.41362,-0.41362 0.57246,-0.57246 0.15886,-0.15886 0.41362,-0.41361 0.57247,-0.57245 0.15886,-0.15888 0.41362,-0.41362 0.57246,-0.57246 0.15886,-0.15886 0.41361,-0.41363 0.57248,-0.57248 0.15884,-0.15885 0.57245,-0.57247 0.57245,-0.57247"
       style="fill:none;stroke:#eb0a36;stroke-width:0.79701;stroke-linecap:butt;stroke-linejoin:miter;stroke-miterlimit:10;stroke-dasharray:none;stroke-opacity:1"
       transform="matrix(1.3333333,0,0,-1.3333333,206.13333,187.37867)"
       clip-path="url(#clipPath22)" />
    <g
       id="g15"
       aria-label="T=−10h+20"
       transform="matrix(1.3333333,0,0,1.3333333,237.67067,153.64133)"
       clip-path="url(#clipPath21)">
      <path
         id="path16"
         d="m 4.2548125,-6.0474062 c 0.070312,-0.28125 0.1054688,-0.3398438 0.234375,-0.3632813 0.082031,-0.023437 0.4101563,-0.023437 0.6210938,-0.023437 1.0078125,0 1.453125,0.035156 1.453125,0.8203125 0,0.140625 -0.035156,0.5273438 -0.082031,0.796875 0,0.035156 -0.023437,0.1523438 -0.023437,0.1875 0,0.058594 0.023437,0.1289063 0.1171875,0.1289063 0.1054688,0 0.1289063,-0.082031 0.1523438,-0.234375 L 6.997,-6.4692812 c 0.011719,-0.035156 0.011719,-0.140625 0.011719,-0.1640625 0,-0.1054688 -0.09375,-0.1054688 -0.2695313,-0.1054688 H 1.2196563 c -0.2460938,0 -0.25781255,0 -0.3164063,0.1992188 L 0.30559375,-4.7935 c -0.0117188,0.023437 -0.0703125,0.1640625 -0.0703125,0.1757813 0,0.070312 0.0585938,0.1171875 0.12890625,0.1171875 0.09375,0 0.10546875,-0.046875 0.1640625,-0.2109375 0.5390625,-1.546875 0.796875,-1.7226563 2.2734375,-1.7226563 h 0.3867188 c 0.28125,0 0.28125,0.035156 0.28125,0.1171875 0,0.058594 -0.035156,0.1757813 -0.046875,0.2109375 l -1.3242188,5.3203125 c -0.09375,0.36328125 -0.1289062,0.48046875 -1.1953125,0.48046875 -0.3515625,0 -0.41015625,0 -0.41015625,0.1875 0,0.1171875 0.10546875,0.1171875 0.1640625,0.1171875 0.26953125,0 0.55078125,-0.0234375 0.82031255,-0.0234375 0.28125,0 0.5625,-0.01171875 0.84375,-0.01171875 0.28125,0 0.5625,0.01171875 0.8320312,0.01171875 0.28125,0 0.5859375,0.0234375 0.8671875,0.0234375 0.09375,0 0.2109375,0 0.2109375,-0.19921875 0,-0.10546875 -0.082031,-0.10546875 -0.3398437,-0.10546875 -0.2460938,0 -0.375,0 -0.6328125,-0.0234375 C 2.96575,-0.3638125 2.8954375,-0.38725 2.8954375,-0.5513125 c 0,-0.0117188 0,-0.0585938 0.035156,-0.2109375 z m 0,0"
         style="fill:#eb0a36;fill-opacity:1;fill-rule:nonzero;stroke:none" />
      <path
         id="path17"
         d="m 16.820242,-3.2583437 c 0.152344,0 0.339844,0 0.339844,-0.1992188 0,-0.1992187 -0.1875,-0.1992187 -0.328125,-0.1992187 h -5.964844 c -0.140625,0 -0.328125,0 -0.328125,0.1992187 0,0.1992188 0.1875,0.1992188 0.339844,0.1992188 z m 0.01172,1.9335937 c 0.140625,0 0.328125,0 0.328125,-0.1992187 0,-0.1992188 -0.1875,-0.1992188 -0.339844,-0.1992188 h -5.941406 c -0.152344,0 -0.339844,0 -0.339844,0.1992188 0,0.1992187 0.1875,0.1992187 0.328125,0.1992187 z m 0,0"
         style="fill:#eb0a36;fill-opacity:1;fill-rule:nonzero;stroke:none" />
      <path
         id="path18"
         d="m 27.047781,-2.2974062 c 0.175782,0 0.351563,0 0.351563,-0.1992188 0,-0.1992187 -0.175781,-0.1992187 -0.351563,-0.1992187 h -5.390625 c -0.164062,0 -0.339843,0 -0.339843,0.1992187 0,0.1992188 0.175781,0.1992188 0.339843,0.1992188 z m 0,0"
         style="fill:#eb0a36;fill-opacity:1;fill-rule:nonzero;stroke:none" />
      <path
         id="path19"
         d="m 31.163992,-6.3755312 c 0,-0.234375 0,-0.2578125 -0.234375,-0.2578125 -0.609375,0.6328125 -1.488281,0.6328125 -1.804687,0.6328125 v 0.3164062 c 0.199218,0 0.785156,0 1.300781,-0.2578125 v 5.15625 c 0,0.3515625 -0.03516,0.48046875 -0.925781,0.48046875 h -0.316407 v 0.3046875 c 0.351563,-0.03515625 1.207032,-0.03515625 1.605469,-0.03515625 0.398438,0 1.265625,0 1.617188,0.03515625 v -0.3046875 h -0.316407 c -0.902343,0 -0.925781,-0.1171875 -0.925781,-0.48046875 z m 6.632813,3.1875 c 0,-0.796875 -0.04687,-1.59375 -0.398438,-2.3320313 -0.457031,-0.9609375 -1.277344,-1.1132812 -1.6875,-1.1132812 -0.597656,0 -1.335937,0.2578125 -1.734375,1.1835937 -0.328125,0.6914063 -0.375,1.4648438 -0.375,2.2617188 0,0.75 0.04687,1.640625 0.445313,2.4023437 0.433593,0.80859375 1.160156,1.0078125 1.652343,1.0078125 0.539063,0 1.289063,-0.2109375 1.734375,-1.16015625 0.316407,-0.69140625 0.363282,-1.46484375 0.363282,-2.24999995 z m -2.097657,3.18749995 c -0.386718,0 -0.984375,-0.24609375 -1.160156,-1.20703125 -0.105469,-0.5976562 -0.105469,-1.5117187 -0.105469,-2.0976562 0,-0.6445313 0,-1.3007813 0.08203,-1.8398438 0.1875,-1.1835937 0.925781,-1.265625 1.183593,-1.265625 0.328125,0 0.984375,0.1757813 1.171875,1.1601563 0.09375,0.5625 0.09375,1.3125 0.09375,1.9453125 0,0.75 0,1.4179687 -0.105468,2.0625 -0.152344,0.93749995 -0.714844,1.24218745 -1.160157,1.24218745 z m 0,0"
         style="fill:#eb0a36;fill-opacity:1;fill-rule:nonzero;stroke:none" />
      <path
         id="path20"
         d="m 41.054617,-6.809125 c 0,0 0,-0.1054687 -0.128906,-0.1054687 -0.234375,0 -0.960938,0.082031 -1.21875,0.1054687 -0.08203,0 -0.1875,0.011719 -0.1875,0.1992188 0,0.1171875 0.09375,0.1171875 0.234375,0.1171875 0.480469,0 0.503906,0.070312 0.503906,0.1640625 l -0.03516,0.1992187 -1.441406,5.7421875 c -0.03516,0.140625 -0.03516,0.15234375 -0.03516,0.22265625 0,0.22265625 0.199219,0.26953125 0.28125,0.26953125 0.164063,0 0.328125,-0.1171875 0.375,-0.2578125 l 0.1875,-0.75 0.222657,-0.9023437 c 0.05859,-0.2226563 0.117187,-0.4335938 0.164062,-0.6679688 0.02344,-0.058594 0.105469,-0.3867187 0.117188,-0.4453125 0.02344,-0.09375 0.328125,-0.6445312 0.667968,-0.9140625 0.222657,-0.1640625 0.527344,-0.3515625 0.960938,-0.3515625 0.421875,0 0.539062,0.3398438 0.539062,0.6914063 0,0.5390625 -0.375,1.6289062 -0.621093,2.2382812 -0.08203,0.2226563 -0.128907,0.3515625 -0.128907,0.55078125 0,0.46875 0.351563,0.80859375 0.820313,0.80859375 0.9375,0 1.300781,-1.453125 1.300781,-1.5351562 0,-0.09375 -0.09375,-0.09375 -0.117187,-0.09375 -0.105469,0 -0.105469,0.023437 -0.152344,0.1757812 C 43.210867,-0.82084375 42.894461,-0.106 42.34368,-0.106 c -0.164063,0 -0.234375,-0.10546875 -0.234375,-0.328125 0,-0.2578125 0.09375,-0.4921875 0.175781,-0.7148437 0.164062,-0.421875 0.609375,-1.6054688 0.609375,-2.1914063 0,-0.6445312 -0.398438,-1.0664062 -1.148438,-1.0664062 -0.621093,0 -1.101562,0.3164062 -1.464843,0.7734375 z m 0,0"
         style="fill:#eb0a36;fill-opacity:1;fill-rule:nonzero;stroke:none" />
      <path
         id="path21"
         d="m 50.236258,-2.2974062 h 2.777344 c 0.140625,0 0.328125,0 0.328125,-0.1992188 0,-0.1992187 -0.1875,-0.1992187 -0.328125,-0.1992187 h -2.777344 v -2.7890625 c 0,-0.1289063 0,-0.328125 -0.199219,-0.328125 -0.199219,0 -0.199219,0.1992187 -0.199219,0.328125 v 2.7890625 h -2.789062 c -0.140625,0 -0.328125,0 -0.328125,0.1992187 0,0.1992188 0.1875,0.1992188 0.328125,0.1992188 H 49.83782 V 0.503375 c 0,0.12890625 0,0.328125 0.199219,0.328125 0.199219,0 0.199219,-0.19921875 0.199219,-0.328125 z m 7.148437,1.5351562 1.054688,-1.03125 c 1.558594,-1.3710937 2.15625,-1.9101562 2.15625,-2.90625 0,-1.1367187 -0.902344,-1.9335937 -2.121094,-1.9335937 -1.125,0 -1.851562,0.9140625 -1.851562,1.8046875 0,0.5507812 0.492187,0.5507812 0.527343,0.5507812 0.164063,0 0.515625,-0.1171875 0.515625,-0.5273437 0,-0.2578125 -0.1875,-0.515625 -0.527343,-0.515625 -0.08203,0 -0.105469,0 -0.128907,0.011719 0.222657,-0.6445312 0.761719,-1.0195312 1.335938,-1.0195312 0.914062,0 1.335937,0.8085937 1.335937,1.6289062 0,0.796875 -0.492187,1.5820313 -1.042968,2.203125 l -1.910157,2.1328125 c -0.105468,0.10546875 -0.105468,0.12890625 -0.105468,0.36328125 h 3.691406 l 0.28125,-1.73437495 H 60.33782 c -0.04687,0.3046875 -0.117187,0.7382812 -0.210937,0.89062495 -0.07031,0.082031 -0.726563,0.082031 -0.949219,0.082031 z m 8.296875,-2.4257812 c 0,-0.796875 -0.04687,-1.59375 -0.398437,-2.3320313 -0.457031,-0.9609375 -1.277344,-1.1132812 -1.6875,-1.1132812 -0.597656,0 -1.335938,0.2578125 -1.734375,1.1835937 -0.328125,0.6914063 -0.375,1.4648438 -0.375,2.2617188 0,0.75 0.04687,1.640625 0.445312,2.4023437 0.433594,0.80859375 1.160157,1.0078125 1.652344,1.0078125 0.539063,0 1.289063,-0.2109375 1.734375,-1.16015625 C 65.634695,-1.6294375 65.68157,-2.402875 65.68157,-3.1880312 Z m -2.097656,3.18749995 c -0.386719,0 -0.984375,-0.24609375 -1.160156,-1.20703125 -0.105469,-0.5976562 -0.105469,-1.5117187 -0.105469,-2.0976562 0,-0.6445313 0,-1.3007813 0.08203,-1.8398438 0.1875,-1.1835937 0.925782,-1.265625 1.183594,-1.265625 0.328125,0 0.984375,0.1757813 1.171875,1.1601563 0.09375,0.5625 0.09375,1.3125 0.09375,1.9453125 0,0.75 0,1.4179687 -0.105469,2.0625 -0.152343,0.93749995 -0.714843,1.24218745 -1.160155,1.24218745 z m 0,0"
         style="fill:#eb0a36;fill-opacity:1;fill-rule:nonzero;stroke:none" />
    </g>
  </g>
</svg>
