<?xml version="1.0" encoding="UTF-8" standalone="no"?>
<!-- Created with Inkscape (http://www.inkscape.org/) -->

<svg
   version="1.1"
   id="svg1"
   width="154.69485"
   height="155.90424"
   viewBox="0 0 154.69486 155.90424"
   sodipodi:docname="1.3-ejemplo-traslacion.raiz3.svg"
   inkscape:version="1.4.2 (f4327f4, 2025-05-13)"
   xmlns:inkscape="http://www.inkscape.org/namespaces/inkscape"
   xmlns:sodipodi="http://sodipodi.sourceforge.net/DTD/sodipodi-0.dtd"
   xmlns="http://www.w3.org/2000/svg"
   xmlns:svg="http://www.w3.org/2000/svg">
  <defs
     id="defs1" />
  <sodipodi:namedview
     id="namedview1"
     pagecolor="#ffffff"
     bordercolor="#000000"
     borderopacity="0.25"
     inkscape:showpageshadow="2"
     inkscape:pageopacity="0.0"
     inkscape:pagecheckerboard="0"
     inkscape:deskcolor="#d1d1d1"
     inkscape:zoom="2.2241536"
     inkscape:cx="80.255248"
     inkscape:cy="95.092353"
     inkscape:window-width="1920"
     inkscape:window-height="1009"
     inkscape:window-x="-8"
     inkscape:window-y="-8"
     inkscape:window-maximized="1"
     inkscape:current-layer="g1">
    <inkscape:page
       x="0"
       y="0"
       inkscape:label="8"
       id="page1"
       width="154.69485"
       height="155.90424"
       margin="0"
       bleed="0" />
  </sodipodi:namedview>
  <g
     id="g1"
     inkscape:groupmode="layer"
     inkscape:label="8"
     transform="translate(-161.93014,-86.531249)">
    <path
       id="path2"
       d="M -14.17339,0 H 98.75554"
       style="fill:none;stroke:#000000;stroke-width:0.3985;stroke-linecap:butt;stroke-linejoin:miter;stroke-miterlimit:10;stroke-dasharray:none;stroke-opacity:1"
       transform="matrix(1.3333333,0,0,-1.3333333,180.828,166.844)" />
    <path
       id="path3"
       d="M -1.19551,1.59401 C -1.09587,0.99626 0,0.09961 0.29886,0 0,-0.09961 -1.09587,-0.99626 -1.19551,-1.59401"
       style="fill:none;stroke:#000000;stroke-width:0.31879;stroke-linecap:round;stroke-linejoin:round;stroke-miterlimit:10;stroke-dasharray:none;stroke-opacity:1"
       transform="matrix(1.3333333,0,0,-1.3333333,312.50205,166.844)" />
    <path
       id="path4"
       d="m 3.643375,-3.2939062 c 0.070312,-0.28125 0.3164063,-1.2890625 1.078125,-1.2890625 0.058594,0 0.3164063,0 0.5507813,0.140625 -0.3046875,0.058594 -0.5273438,0.328125 -0.5273438,0.5859375 0,0.1757812 0.1171875,0.3867187 0.4101563,0.3867187 0.2460937,0 0.5976562,-0.1992187 0.5976562,-0.6328125 0,-0.5625 -0.6445312,-0.7265625 -1.0195312,-0.7265625 -0.6328125,0 -1.0195313,0.5859375 -1.1484375,0.8320313 C 3.31525,-4.711875 2.7293125,-4.8290625 2.4129063,-4.8290625 c -1.1367188,0 -1.75781255,1.4179688 -1.75781255,1.6875 0,0.1054688 0.10546875,0.1054688 0.12890625,0.1054688 0.0820313,0 0.1171875,-0.023437 0.140625,-0.1171875 0.375,-1.1601563 1.0898438,-1.4296875 1.4648438,-1.4296875 0.2109375,0 0.5859375,0.09375 0.5859375,0.7265625 0,0.3398437 -0.1875,1.078125 -0.5859375,2.6015625 -0.1757813,0.67968745 -0.5625,1.1367187 -1.0429688,1.1367187 -0.058594,0 -0.3164062,0 -0.5390625,-0.140625 0.2695313,-0.0585938 0.515625,-0.29296875 0.515625,-0.59765625 0,-0.29296875 -0.2460937,-0.37499995 -0.41015625,-0.37499995 -0.328125,0 -0.59765625,0.28124995 -0.59765625,0.63281245 0,0.50390625 0.55078125,0.71484375 1.03125,0.71484375 0.7148438,0 1.1015625,-0.76171875 1.1367188,-0.83203125 C 2.612125,-0.305625 3.0105625,0.11625 3.6668125,0.11625 c 1.125,0 1.7460938,-1.40625 1.7460938,-1.6757812 C 5.4129063,-1.665 5.3074375,-1.665 5.284,-1.665 c -0.1054687,0 -0.1289062,0.035156 -0.140625,0.1171875 -0.3632812,1.16015625 -1.1132812,1.4296875 -1.453125,1.4296875 -0.4335937,0 -0.609375,-0.3515625 -0.609375,-0.7265625 0,-0.234375 0.070312,-0.4804687 0.1875,-0.9609375 z m 0,0"
       style="fill:#000000;fill-opacity:1;fill-rule:nonzero;stroke:none"
       aria-label="x"
       transform="matrix(1.3333333,0,0,1.3333333,308.95467,178.22)" />
    <path
       id="path5"
       d="M 0,-56.69362 V 56.23534"
       style="fill:none;stroke:#000000;stroke-width:0.3985;stroke-linecap:butt;stroke-linejoin:miter;stroke-miterlimit:10;stroke-dasharray:none;stroke-opacity:1"
       transform="matrix(1.3333333,0,0,-1.3333333,180.828,166.844)" />
    <path
       id="path6"
       d="M -1.19551,1.59401 C -1.09587,0.99626 0,0.09961 0.29886,0 0,-0.09961 -1.09587,-0.99626 -1.19551,-1.59401"
       style="fill:none;stroke:#000000;stroke-width:0.31879;stroke-linecap:round;stroke-linejoin:round;stroke-miterlimit:10;stroke-dasharray:none;stroke-opacity:1"
       transform="matrix(0,-1.3333333,-1.3333333,0,180.828,91.863547)" />
    <path
       id="path7"
       d="m 5.29775,-4.1615937 c 0.046875,-0.1523438 0.046875,-0.1757813 0.046875,-0.2460938 0,-0.1992187 -0.1523437,-0.2929687 -0.3164062,-0.2929687 -0.1054688,0 -0.28125,0.058594 -0.375,0.2226562 -0.023437,0.058594 -0.1171875,0.3984375 -0.1523438,0.5976563 -0.082031,0.28125 -0.1523437,0.5742187 -0.2226562,0.8671875 l -0.4921875,1.96875 c -0.046875,0.16406245 -0.515625,0.9257812 -1.2304688,0.9257812 -0.5625,0 -0.6796875,-0.48046875 -0.6796875,-0.890625 0,-0.4921875 0.1875,-1.171875 0.5625,-2.1328125 0.1757813,-0.4453125 0.2109375,-0.5742187 0.2109375,-0.7851562 0,-0.4921875 -0.3515625,-0.9023438 -0.890625,-0.9023438 -1.04296875,0 -1.44140625,1.5820313 -1.44140625,1.6875 0,0.1054688 0.10546875,0.1054688 0.12890625,0.1054688 0.10546875,0 0.1171875,-0.023437 0.17578125,-0.1992188 0.29296875,-1.0195312 0.72656255,-1.3476562 1.10156255,-1.3476562 0.09375,0 0.2695312,0 0.2695312,0.3515625 0,0.2695312 -0.1054687,0.5507812 -0.1757812,0.7617187 -0.4453125,1.1601563 -0.6328125,1.78125 -0.6328125,2.2851563 0,0.9726562 0.6796875,1.3007812 1.3242187,1.3007812 0.421875,0 0.796875,-0.1875 1.1015625,-0.4921875 C 3.469625,0.19778125 3.3407188,0.725125 2.907125,1.3110625 2.6141563,1.6743438 2.204,1.99075 1.7000938,1.99075 1.54775,1.99075 1.0555625,1.967313 0.8680625,1.5337188 c 0.1757813,0 0.3164063,0 0.4804688,-0.1289063 C 1.454,1.3110625 1.5594688,1.1704375 1.5594688,0.9595 c 0,-0.33984375 -0.2929688,-0.38671875 -0.3984375,-0.38671875 -0.25781255,0 -0.60937505,0.17578125 -0.60937505,0.71484375 0,0.5390625 0.48046875,0.9492188 1.14843755,0.9492188 1.125,0 2.25,-0.9960938 2.5546875,-2.22656255 z m 0,0"
       style="fill:#000000;fill-opacity:1;fill-rule:nonzero;stroke:none"
       aria-label="y"
       transform="matrix(1.3333333,0,0,1.3333333,168.06133,92.970667)" />
    <path
       id="path8"
       d="M 0,0 C 0,0 0.51704,2.56143 0.71562,3.1867 0.91422,3.812 1.23268,4.17929 1.43126,4.5066 1.62984,4.83392 1.9483,5.2867 2.1469,5.54576 2.34547,5.80486 2.66394,6.15512 2.86252,6.37386 3.06111,6.59262 3.37958,6.92413 3.57816,7.12238 3.77675,7.32063 4.09521,7.62161 4.2938,7.80276 4.49237,7.9839 4.81084,8.26057 5.00943,8.42798 5.20801,8.59538 5.52647,8.85274 5.72505,9.00932 5.92365,9.1659 6.24211,9.40875 6.44069,9.55647 6.63927,9.7042 6.95773,9.93416 7.15633,10.074 c 0.19857,0.13987 0.51704,0.35717 0.71563,0.49051 0.19858,0.13334 0.51704,0.34296 0.71563,0.4706 0.19859,0.12766 0.51705,0.32687 0.71563,0.44942 0.19858,0.12254 0.51705,0.31561 0.71564,0.43384 0.19858,0.11822 0.51704,0.30395 0.71562,0.41824 0.19859,0.11429 0.51708,0.29497 0.71565,0.40552 0.1986,0.11053 0.51707,0.28404 0.71564,0.39122 0.19858,0.10719 0.51705,0.27722 0.71564,0.38128 0.19858,0.10405 0.51704,0.26773 0.71562,0.36873 0.19859,0.10102 0.51706,0.26059 0.71564,0.35922 0.19859,0.09864 0.51706,0.25524 0.71563,0.35167 0.19858,0.09645 0.51705,0.24921 0.71564,0.34343 0.19858,0.09421 0.51705,0.2435 0.71562,0.33565 0.1986,0.09215 0.51706,0.2383 0.71564,0.32851 0.19858,0.09024 0.51705,0.23347 0.71564,0.32182 0.19858,0.08834 0.51704,0.22826 0.71564,0.31488 0.19857,0.08662 0.51704,0.22446 0.71562,0.30949 0.19859,0.08503 0.51706,0.21988 0.71563,0.30341 0.19858,0.08354 0.51705,0.21666 0.71564,0.29868 0.19858,0.082 0.51705,0.21182 0.71563,0.2924 0.19859,0.08055 0.51705,0.20882 0.71563,0.28828 0.19859,0.07946 0.51707,0.20626 0.71565,0.28438 0.19858,0.07814 0.51705,0.20194 0.71564,0.27878 0.19858,0.07684 0.51705,0.19942 0.71562,0.2751 0.1986,0.07567 0.51706,0.19562 0.71564,0.27034 0.19859,0.0747 0.51706,0.19444 0.71564,0.26817 0.19858,0.07372 0.51704,0.19074 0.71563,0.26319 0.19858,0.07248 0.51705,0.18738 0.71563,0.25909 0.19859,0.07172 0.51706,0.18677 0.71563,0.2578 0.19858,0.07101 0.51705,0.18417 0.71564,0.25412 0.19858,0.06993 0.51705,0.18104 0.71564,0.25 0.19858,0.06894 0.51704,0.17885 0.71562,0.24698 0.19859,0.06815 0.51706,0.17673 0.71564,0.24417 0.19858,0.06746 0.51704,0.17534 0.71563,0.242 0.19858,0.06667 0.51705,0.17273 0.71562,0.23854 0.1986,0.0658 0.51707,0.17058 0.71564,0.23575 0.1986,0.06517 0.51708,0.16954 0.71566,0.23399 0.19857,0.06446 0.51704,0.16686 0.71563,0.23055 0.19858,0.06366 0.51705,0.16521 0.71563,0.22838 0.19859,0.06316 0.51705,0.16427 0.71564,0.22685 0.19859,0.06261 0.51705,0.16251 0.71563,0.22428 0.19857,0.06178 0.51704,0.15988 0.71564,0.22104 0.19857,0.06114 0.51704,0.15893 0.71562,0.21972 0.19859,0.06081 0.51706,0.15828 0.71564,0.21843 0.19857,0.06017 0.51704,0.15569 0.71563,0.21518 0.19858,0.05951 0.51704,0.15469 0.71564,0.21368 0.19858,0.05899 0.51704,0.15288 0.71562,0.21151 0.1986,0.05864 0.51706,0.15303 0.71564,0.21107 0.19858,0.05808 0.51704,0.15003 0.71564,0.20743 0.19857,0.0574 0.51704,0.14932 0.71562,0.2063 0.19859,0.05698 0.51706,0.14786 0.71564,0.20438 0.19859,0.05653 0.51706,0.147 0.71564,0.20307 0.19857,0.05609 0.51705,0.14536 0.71565,0.20113 0.19857,0.05577 0.51704,0.14564 0.71562,0.20093 0.19859,0.05525 0.51706,0.14271 0.71563,0.19743 0.19858,0.05474 0.51705,0.14267 0.71564,0.19704 0.19858,0.05436 0.51705,0.14094 0.71564,0.19487 0.19858,0.05391 0.51704,0.14026 0.71562,0.19375 0.1986,0.0535 0.51706,0.13874 0.71564,0.19184 0.19858,0.05311 0.51704,0.13804 0.71564,0.19096 0.19857,0.05293 0.51704,0.13796 0.71563,0.19055 0.19858,0.0526 0.51705,0.13663 0.71562,0.18857 0.1986,0.05194 0.51707,0.13417 0.71564,0.18578 0.19858,0.0516 0.51705,0.1349 0.71564,0.1862 0.19858,0.05131 0.51704,0.1328 0.71562,0.18362 0.19859,0.05083 0.51706,0.13219 0.71564,0.18276 0.19859,0.05054 0.51706,0.1311 0.71563,0.18165 0.19858,0.05057 0.51706,0.1325 0.71566,0.18275 0.19858,0.05026 0.51704,0.12962 0.71562,0.1795 0.19859,0.04991 0.51706,0.13055 0.71564,0.18016 0.19858,0.04959 0.51704,0.12831 0.71563,0.17734 0.19858,0.04902 0.51705,0.12738 0.71564,0.17605 0.19858,0.04866 0.51705,0.12628 0.71562,0.17473 0.19859,0.04846 0.51706,0.12625 0.71564,0.17453 0.19858,0.04828 0.51705,0.12553 0.71564,0.17346 0.19858,0.04791 0.51704,0.12433 0.71564,0.17194 0.19857,0.04757 0.51704,0.12361 0.71562,0.17106 0.19859,0.04743 0.51705,0.12377 0.71563,0.17086 0.19858,0.04706 0.51705,0.12169 0.71564,0.16847 0.19858,0.04677 0.51705,0.12204 0.71562,0.16869 0.1986,0.04666 0.51706,0.12124 0.71564,0.1676 0.19859,0.04635 0.51706,0.12045 0.71564,0.16651 0.19858,0.0461 0.51704,0.11986 0.71564,0.16569 0.19857,0.04582 0.51705,0.11903 0.71563,0.16458 0.1986,0.04553 0.51706,0.11831 0.71564,0.16369 0.19857,0.0454 0.51704,0.11837 0.71564,0.1635 0.19857,0.04517 0.51704,0.11717 0.71563,0.162 0.19858,0.04484 0.51705,0.11651 0.71563,0.16112 0.19859,0.04462 0.71563,0.16048 0.71563,0.16048"
       style="fill:none;stroke:#eb0a36;stroke-width:0.79701;stroke-linecap:butt;stroke-linejoin:miter;stroke-miterlimit:10;stroke-dasharray:none;stroke-opacity:1"
       transform="matrix(1.3333333,0,0,-1.3333333,180.828,166.844)" />
    <path
       id="path9"
       d="M 0,0 C 0,0 0.51704,-2.56143 0.71562,-3.1867 0.91422,-3.812 1.23268,-4.17929 1.43126,-4.5066 1.62984,-4.83392 1.9483,-5.2867 2.1469,-5.54576 2.34547,-5.80486 2.66394,-6.15512 2.86252,-6.37386 3.06111,-6.59262 3.37958,-6.92413 3.57816,-7.12238 3.77675,-7.32063 4.09521,-7.62161 4.2938,-7.80276 4.49237,-7.9839 4.81084,-8.26057 5.00943,-8.42798 5.20801,-8.59538 5.52647,-8.85274 5.72505,-9.00932 5.92365,-9.1659 6.24211,-9.40875 6.44069,-9.55647 6.63927,-9.7042 6.95773,-9.93416 7.15633,-10.074 c 0.19857,-0.13987 0.51704,-0.35717 0.71563,-0.49051 0.19858,-0.13334 0.51704,-0.34296 0.71563,-0.4706 0.19859,-0.12766 0.51705,-0.32687 0.71563,-0.44942 0.19858,-0.12254 0.51705,-0.31561 0.71564,-0.43384 0.19858,-0.11822 0.51704,-0.30395 0.71562,-0.41824 0.19859,-0.11429 0.51708,-0.29497 0.71565,-0.40552 0.1986,-0.11053 0.51707,-0.28404 0.71564,-0.39122 0.19858,-0.10719 0.51705,-0.27722 0.71564,-0.38128 0.19858,-0.10405 0.51704,-0.26773 0.71562,-0.36873 0.19859,-0.10102 0.51706,-0.26059 0.71564,-0.35922 0.19859,-0.09864 0.51706,-0.25524 0.71563,-0.35167 0.19858,-0.09645 0.51705,-0.24921 0.71564,-0.34343 0.19858,-0.09421 0.51705,-0.2435 0.71562,-0.33565 0.1986,-0.09215 0.51706,-0.2383 0.71564,-0.32851 0.19858,-0.09024 0.51705,-0.23347 0.71564,-0.32182 0.19858,-0.08834 0.51704,-0.22826 0.71564,-0.31488 0.19857,-0.08662 0.51704,-0.22446 0.71562,-0.30949 0.19859,-0.08503 0.51706,-0.21988 0.71563,-0.30341 0.19858,-0.08354 0.51705,-0.21666 0.71564,-0.29868 0.19858,-0.082 0.51705,-0.21182 0.71563,-0.2924 0.19859,-0.08055 0.51705,-0.20882 0.71563,-0.28828 0.19859,-0.07946 0.51707,-0.20626 0.71565,-0.28438 0.19858,-0.07814 0.51705,-0.20194 0.71564,-0.27878 0.19858,-0.07684 0.51705,-0.19942 0.71562,-0.2751 0.1986,-0.07567 0.51706,-0.19562 0.71564,-0.27034 0.19859,-0.0747 0.51706,-0.19444 0.71564,-0.26817 0.19858,-0.07372 0.51704,-0.19074 0.71563,-0.26319 0.19858,-0.07248 0.51705,-0.18738 0.71563,-0.25909 0.19859,-0.07172 0.51706,-0.18677 0.71563,-0.2578 0.19858,-0.07101 0.51705,-0.18417 0.71564,-0.25412 0.19858,-0.06993 0.51705,-0.18104 0.71564,-0.25 0.19858,-0.06894 0.51704,-0.17885 0.71562,-0.24698 0.19859,-0.06815 0.51706,-0.17673 0.71564,-0.24417 0.19858,-0.06746 0.51704,-0.17534 0.71563,-0.242 0.19858,-0.06667 0.51705,-0.17273 0.71562,-0.23854 0.1986,-0.0658 0.51707,-0.17058 0.71564,-0.23575 0.1986,-0.06517 0.51708,-0.16954 0.71566,-0.23399 0.19857,-0.06446 0.51704,-0.16686 0.71563,-0.23055 0.19858,-0.06366 0.51705,-0.16521 0.71563,-0.22838 0.19859,-0.06316 0.51705,-0.16427 0.71564,-0.22685 0.19859,-0.06261 0.51705,-0.16251 0.71563,-0.22428 0.19857,-0.06178 0.51704,-0.15988 0.71564,-0.22104 0.19857,-0.06114 0.51704,-0.15893 0.71562,-0.21972 0.19859,-0.06081 0.51706,-0.15828 0.71564,-0.21843 0.19857,-0.06017 0.51704,-0.15569 0.71563,-0.21518 0.19858,-0.05951 0.51704,-0.15469 0.71564,-0.21368 0.19858,-0.05899 0.51704,-0.15288 0.71562,-0.21151 0.1986,-0.05864 0.51706,-0.15303 0.71564,-0.21107 0.19858,-0.05808 0.51704,-0.15003 0.71564,-0.20743 0.19857,-0.0574 0.51704,-0.14932 0.71562,-0.2063 0.19859,-0.05698 0.51706,-0.14786 0.71564,-0.20438 0.19859,-0.05653 0.51706,-0.147 0.71564,-0.20307 0.19857,-0.05609 0.51705,-0.14536 0.71565,-0.20113 0.19857,-0.05577 0.51704,-0.14564 0.71562,-0.20093 0.19859,-0.05525 0.51706,-0.14271 0.71563,-0.19743 0.19858,-0.05474 0.51705,-0.14267 0.71564,-0.19704 0.19858,-0.05436 0.51705,-0.14094 0.71564,-0.19487 0.19858,-0.05391 0.51704,-0.14026 0.71562,-0.19375 0.1986,-0.0535 0.51706,-0.13874 0.71564,-0.19184 0.19858,-0.05311 0.51704,-0.13804 0.71564,-0.19096 0.19857,-0.05293 0.51704,-0.13796 0.71563,-0.19055 0.19858,-0.0526 0.51705,-0.13663 0.71562,-0.18857 0.1986,-0.05194 0.51707,-0.13417 0.71564,-0.18578 0.19858,-0.0516 0.51705,-0.1349 0.71564,-0.1862 0.19858,-0.05131 0.51704,-0.1328 0.71562,-0.18362 0.19859,-0.05083 0.51706,-0.13219 0.71564,-0.18276 0.19859,-0.05054 0.51706,-0.1311 0.71563,-0.18165 0.19858,-0.05057 0.51706,-0.1325 0.71566,-0.18275 0.19858,-0.05026 0.51704,-0.12962 0.71562,-0.1795 0.19859,-0.04991 0.51706,-0.13055 0.71564,-0.18016 0.19858,-0.04959 0.51704,-0.12831 0.71563,-0.17734 0.19858,-0.04902 0.51705,-0.12738 0.71564,-0.17605 0.19858,-0.04866 0.51705,-0.12628 0.71562,-0.17473 0.19859,-0.04846 0.51706,-0.12625 0.71564,-0.17453 0.19858,-0.04828 0.51705,-0.12553 0.71564,-0.17346 0.19858,-0.04791 0.51704,-0.12433 0.71564,-0.17194 0.19857,-0.04757 0.51704,-0.12361 0.71562,-0.17106 0.19859,-0.04743 0.51705,-0.12377 0.71563,-0.17086 0.19858,-0.04706 0.51705,-0.12169 0.71564,-0.16847 0.19858,-0.04677 0.51705,-0.12204 0.71562,-0.16869 0.1986,-0.04666 0.51706,-0.12124 0.71564,-0.1676 0.19859,-0.04635 0.51706,-0.12045 0.71564,-0.16651 0.19858,-0.0461 0.51704,-0.11986 0.71564,-0.16569 0.19857,-0.04582 0.51705,-0.11903 0.71563,-0.16458 0.1986,-0.04553 0.51706,-0.11831 0.71564,-0.16369 0.19857,-0.0454 0.51704,-0.11837 0.71564,-0.1635 0.19857,-0.04517 0.51704,-0.11717 0.71563,-0.162 0.19858,-0.04484 0.51705,-0.11651 0.71563,-0.16112 0.19859,-0.04462 0.71563,-0.16048 0.71563,-0.16048"
       style="fill:none;stroke:#008080;stroke-width:0.79701;stroke-linecap:butt;stroke-linejoin:miter;stroke-miterlimit:10;stroke-dasharray:none;stroke-opacity:1"
       transform="matrix(1.3333333,0,0,-1.3333333,180.828,166.844)" />
    <g
       id="g9"
       aria-label="f(x)=&#10;√"
       transform="matrix(1.3333333,0,0,1.3333333,206.40533,113.80667)">
      <path
         id="path10"
         d="m 3.6569375,-3.9829297 h 0.8554687 c 0.1992188,0 0.3046875,0 0.3046875,-0.1992187 0,-0.1054688 -0.1054687,-0.1054688 -0.2695312,-0.1054688 H 3.7155312 l 0.2109375,-1.1367187 c 0.035156,-0.2109375 0.1757813,-0.9140625 0.234375,-1.0429688 0.09375,-0.1875 0.2578125,-0.3398437 0.46875,-0.3398437 0.046875,0 0.3046875,0 0.4921875,0.1875 -0.4335937,0.035156 -0.5390625,0.3867187 -0.5390625,0.5390625 0,0.2226562 0.1757813,0.3398437 0.3632813,0.3398437 0.2695312,0 0.5507812,-0.2109375 0.5507812,-0.5976562 0,-0.4570313 -0.4570312,-0.6796875 -0.8671875,-0.6796875 -0.3398437,0 -0.9609375,0.1757812 -1.265625,1.1601562 -0.058594,0.2109375 -0.082031,0.3164063 -0.328125,1.5703125 H 2.3561562 c -0.1992187,0 -0.3046875,0 -0.3046875,0.1875 0,0.1171875 0.09375,0.1171875 0.28125,0.1171875 h 0.65625 l -0.75,3.93750001 C 2.0631875,0.91550781 1.899125,1.8295703 1.3717812,1.8295703 c -0.035156,0 -0.28125,0 -0.46874995,-0.1875 C 1.3600625,1.6186328 1.4420937,1.2553516 1.4420937,1.1030078 c 0,-0.22265624 -0.1757812,-0.33984374 -0.3632812,-0.33984374 -0.2578125,0 -0.55078125,0.2109375 -0.55078125,0.59765624 0,0.4453125 0.43359375,0.6796875 0.84374995,0.6796875 0.5507813,0 0.9492188,-0.5859375 1.125,-0.9609375 0.328125,-0.63281249 0.5507813,-1.83984374 0.5625,-1.91015624 z m 0,0"
         style="fill:#eb0a36;fill-opacity:1;fill-rule:nonzero;stroke:none" />
      <path
         id="path11"
         d="m 9.2467812,2.3920703 c 0,-0.035156 0,-0.046875 -0.1640625,-0.2226562 -1.2421875,-1.25390629 -1.5703125,-3.12890629 -1.5703125,-4.6640625 0,-1.7226563 0.3867188,-3.4570313 1.6054688,-4.7109375 0.1289062,-0.1171875 0.1289062,-0.1289063 0.1289062,-0.1640625 0,-0.070312 -0.035156,-0.1054688 -0.09375,-0.1054688 -0.1054687,0 -0.9960937,0.6796875 -1.5820312,1.9453125 -0.515625,1.1015625 -0.6328125,2.203125 -0.6328125,3.0351563 0,0.7851562 0.1171875,1.99218746 0.65625,3.11718746 0.5976562,1.21875004 1.453125,1.87500004 1.5585937,1.87500004 0.058594,0 0.09375,-0.035156 0.09375,-0.1054688 z m 0,0"
         style="fill:#eb0a36;fill-opacity:1;fill-rule:nonzero;stroke:none" />
      <path
         id="path12"
         d="m 13.154984,-3.0102734 c 0.05859,-0.2578125 0.292969,-1.171875 0.984375,-1.171875 0.04687,0 0.292969,0 0.503907,0.1289062 -0.28125,0.046875 -0.480469,0.3046875 -0.480469,0.5390625 0,0.1640625 0.105469,0.3515625 0.375,0.3515625 0.222656,0 0.539062,-0.1875 0.539062,-0.5859375 0,-0.515625 -0.585937,-0.65625 -0.925781,-0.65625 -0.574219,0 -0.925781,0.5273438 -1.042969,0.7617188 -0.257812,-0.65625 -0.785156,-0.7617188 -1.078125,-0.7617188 -1.042968,0 -1.605468,1.2890625 -1.605468,1.5351563 0,0.1054687 0.105468,0.1054687 0.117187,0.1054687 0.08203,0 0.117188,-0.023437 0.128906,-0.1171875 0.339844,-1.0546875 0.996094,-1.3007812 1.335938,-1.3007812 0.1875,0 0.539062,0.09375 0.539062,0.6679687 0,0.3046875 -0.164062,0.9726563 -0.539062,2.3671875 -0.152344,0.62109376 -0.503906,1.04296876 -0.949219,1.04296876 -0.05859,0 -0.28125,0 -0.492187,-0.12890625 0.246093,-0.0585938 0.46875,-0.26953125 0.46875,-0.5390625 0,-0.26953121 -0.222657,-0.35156251 -0.375,-0.35156251 -0.292969,0 -0.539063,0.25781251 -0.539063,0.57421876 0,0.45703125 0.492188,0.65625 0.9375,0.65625 0.65625,0 1.007813,-0.69140625 1.042969,-0.75 0.117187,0.36328125 0.480469,0.75 1.078125,0.75 1.019531,0 1.59375,-1.27734376 1.59375,-1.53515626 0,-0.09375 -0.09375,-0.09375 -0.128906,-0.09375 -0.08203,0 -0.105469,0.035156 -0.128907,0.1054688 -0.328125,1.06640621 -0.996093,1.31249996 -1.324218,1.31249996 -0.386719,0 -0.539063,-0.328125 -0.539063,-0.65625 0,-0.22265625 0.05859,-0.44531246 0.164063,-0.87890626 z m 0,0"
         style="fill:#eb0a36;fill-opacity:1;fill-rule:nonzero;stroke:none" />
      <path
         id="path13"
         d="m 18.404984,-2.4946484 c 0,-0.7734375 -0.117187,-1.9804688 -0.65625,-3.1054688 -0.597656,-1.21875 -1.464843,-1.875 -1.558593,-1.875 -0.05859,0 -0.105469,0.046875 -0.105469,0.1054688 0,0.035156 0,0.046875 0.199219,0.234375 0.972656,0.984375 1.535156,2.5664062 1.535156,4.640625 0,1.71093746 -0.363281,3.45703121 -1.59375,4.7226562 -0.140625,0.1171875 -0.140625,0.1289063 -0.140625,0.1640625 0,0.058594 0.04687,0.1054688 0.105469,0.1054688 0.09375,0 0.996093,-0.6796875 1.582031,-1.94531254 0.503906,-1.1015625 0.632812,-2.20312496 0.632812,-3.04687496 z m 10.59375,-0.7617188 c 0.152344,0 0.339844,0 0.339844,-0.1992187 0,-0.1992188 -0.1875,-0.1992188 -0.328125,-0.1992188 h -5.964844 c -0.140625,0 -0.328125,0 -0.328125,0.1992188 0,0.1992187 0.1875,0.1992187 0.339844,0.1992187 z m 0.01172,1.9335938 c 0.140625,0 0.328125,0 0.328125,-0.1992188 0,-0.1992187 -0.1875,-0.1992187 -0.339844,-0.1992187 h -5.941406 c -0.152344,0 -0.339844,0 -0.339844,0.1992187 0,0.1992188 0.1875,0.1992188 0.328125,0.1992188 z m 0,0"
         style="fill:#eb0a36;fill-opacity:1;fill-rule:nonzero;stroke:none" />
      <path
         id="path14"
         d="m 36.554398,1.3432422 -1.757812,-3.8789063 c -0.07031,-0.1523437 -0.117188,-0.1523437 -0.152344,-0.1523437 -0.01172,0 -0.05859,0 -0.164062,0.070312 l -0.949219,0.7265625 c -0.128906,0.09375 -0.128906,0.1289062 -0.128906,0.1523437 0,0.046875 0.03516,0.1054688 0.105468,0.1054688 0.05859,0 0.222657,-0.1289063 0.328125,-0.2109375 0.07031,-0.046875 0.210938,-0.1640625 0.328125,-0.2460938 l 1.957032,4.3125 c 0.07031,0.1640625 0.117187,0.1640625 0.210937,0.1640625 0.152344,0 0.175781,-0.058594 0.246094,-0.1992187 l 4.523437,-9.3632813 c 0.07031,-0.140625 0.07031,-0.1757812 0.07031,-0.1992187 0,-0.1054688 -0.08203,-0.1992188 -0.199219,-0.1992188 -0.08203,0 -0.152344,0.046875 -0.222656,0.2109375 z m 0,0"
         style="fill:#eb0a36;fill-opacity:1;fill-rule:nonzero;stroke:none" />
    </g>
    <path
       id="path15"
       d="M 0,0 H 5.694"
       style="fill:none;stroke:#eb0a36;stroke-width:0.398;stroke-linecap:butt;stroke-linejoin:miter;stroke-miterlimit:10;stroke-dasharray:none;stroke-opacity:1"
       transform="matrix(1.3333333,0,0,-1.3333333,261.04267,103.97333)" />
    <path
       id="path16"
       d="m 3.3283516,-3.0102734 c 0.058594,-0.2578125 0.2929687,-1.171875 0.984375,-1.171875 0.046875,0 0.2929687,0 0.5039062,0.1289062 -0.28125,0.046875 -0.4804687,0.3046875 -0.4804687,0.5390625 0,0.1640625 0.1054687,0.3515625 0.375,0.3515625 0.2226562,0 0.5390625,-0.1875 0.5390625,-0.5859375 0,-0.515625 -0.5859375,-0.65625 -0.9257813,-0.65625 -0.5742187,0 -0.9257812,0.5273438 -1.0429687,0.7617188 -0.2578125,-0.65625 -0.7851563,-0.7617188 -1.078125,-0.7617188 -1.0429688,0 -1.60546879,1.2890625 -1.60546879,1.5351563 0,0.1054687 0.10546875,0.1054687 0.1171875,0.1054687 0.0820313,0 0.1171875,-0.023437 0.12890625,-0.1171875 0.33984374,-1.0546875 0.99609374,-1.3007812 1.33593754,-1.3007812 0.1875,0 0.5390625,0.09375 0.5390625,0.6679687 0,0.3046875 -0.1640625,0.9726563 -0.5390625,2.3671875 -0.1523438,0.62109376 -0.5039063,1.04296876 -0.9492188,1.04296876 -0.058594,0 -0.28124999,0 -0.49218749,-0.12890625 0.24609375,-0.0585938 0.46874999,-0.26953125 0.46874999,-0.5390625 0,-0.26953121 -0.22265624,-0.35156251 -0.37499999,-0.35156251 -0.29296875,0 -0.5390625,0.25781251 -0.5390625,0.57421876 0,0.45703125 0.4921875,0.65625 0.93749999,0.65625 0.65625,0 1.0078125,-0.69140625 1.0429688,-0.75 0.1171875,0.36328125 0.4804687,0.75 1.078125,0.75 1.0195312,0 1.59375,-1.27734376 1.59375,-1.53515626 0,-0.09375 -0.09375,-0.09375 -0.1289063,-0.09375 -0.082031,0 -0.1054687,0.035156 -0.1289062,0.1054688 -0.328125,1.06640621 -0.9960938,1.31249996 -1.3242188,1.31249996 -0.3867187,0 -0.5390625,-0.328125 -0.5390625,-0.65625 0,-0.22265625 0.058594,-0.44531246 0.1640625,-0.87890626 z m 0,0"
       style="fill:#eb0a36;fill-opacity:1;fill-rule:nonzero;stroke:none"
       aria-label="x"
       transform="matrix(1.3333333,0,0,1.3333333,261.04267,113.80667)" />
    <g
       id="g16"
       aria-label="f&#10;3&#10;(x)=−&#10;√"
       transform="matrix(1.3333333,0,0,1.3333333,198.97467,227.192)">
      <path
         id="path17"
         d="m 3.6576719,-3.9848203 h 0.8554687 c 0.1992188,0 0.3046875,0 0.3046875,-0.1992188 0,-0.1054687 -0.1054687,-0.1054687 -0.2695312,-0.1054687 H 3.7162656 l 0.2109375,-1.1367188 c 0.035156,-0.2109375 0.1757813,-0.9140625 0.234375,-1.0429687 0.09375,-0.1875 0.2578125,-0.3398438 0.46875,-0.3398438 0.046875,0 0.3046875,0 0.4921875,0.1875 -0.4335937,0.035156 -0.5390625,0.3867188 -0.5390625,0.5390625 0,0.2226563 0.1757813,0.3398438 0.3632813,0.3398438 0.2695312,0 0.5507812,-0.2109375 0.5507812,-0.5976563 0,-0.4570312 -0.4570312,-0.6796875 -0.8671875,-0.6796875 -0.3398437,0 -0.9609375,0.1757813 -1.265625,1.1601563 -0.058594,0.2109375 -0.082031,0.3164062 -0.328125,1.5703125 H 2.3568906 c -0.1992187,0 -0.3046875,0 -0.3046875,0.1875 0,0.1171875 0.09375,0.1171875 0.28125,0.1171875 h 0.65625 l -0.75,3.93749999 C 2.0639219,0.91361719 1.8998594,1.8276797 1.3725156,1.8276797 c -0.035156,0 -0.28125,0 -0.46874997,-0.1875 C 1.3607969,1.6167422 1.4428281,1.2534609 1.4428281,1.1011172 c 0,-0.22265626 -0.1757812,-0.33984376 -0.3632812,-0.33984376 -0.25781252,0 -0.55078127,0.2109375 -0.55078127,0.59765626 0,0.4453125 0.43359375,0.6796875 0.84374997,0.6796875 0.5507813,0 0.9492188,-0.5859375 1.125,-0.9609375 0.328125,-0.63281251 0.5507813,-1.83984376 0.5625,-1.91015626 z m 0,0"
         style="fill:#008080;fill-opacity:1;fill-rule:nonzero;stroke:none" />
      <path
         id="path18"
         d="m 6.7777891,-0.83833594 c 0.5507812,0 0.9375,0.375 0.9375,1.125 0,0.86718754 -0.5039063,1.12500004 -0.9023438,1.12500004 -0.28125,0 -0.890625,-0.082031 -1.1835937,-0.49218754 0.328125,-0.0117188 0.3984375,-0.24609375 0.3984375,-0.38671875 0,-0.22265625 -0.1640625,-0.38671875 -0.3867188,-0.38671875 -0.1875,0 -0.3867187,0.1171875 -0.3867187,0.41015625 0,0.65624999 0.7265625,1.07812499 1.5703125,1.07812499 0.9726562,0 1.640625,-0.64453124 1.640625,-1.34765624 0,-0.5390625 -0.4453125,-1.08984375 -1.21875,-1.2421875 0.7382812,-0.26953126 0.9960937,-0.79687496 0.9960937,-1.21874996 0,-0.5507813 -0.6328125,-0.9609375 -1.40625,-0.9609375 -0.7734375,0 -1.359375,0.375 -1.359375,0.9375 0,0.234375 0.1523438,0.3632812 0.3632813,0.3632812 0.2109375,0 0.3515625,-0.1640625 0.3515625,-0.3515625 0,-0.1992187 -0.140625,-0.3515625 -0.3515625,-0.3632812 0.234375,-0.3046875 0.7148437,-0.3867188 0.9726562,-0.3867188 0.3164063,0 0.7617188,0.1523438 0.7617188,0.7617188 0,0.2929687 -0.1054688,0.609375 -0.28125,0.8320312 -0.234375,0.2578125 -0.421875,0.28125 -0.7734375,0.2929688 -0.1757813,0.023437 -0.1875,0.023437 -0.2226563,0.023437 -0.011719,0 -0.070312,0.011719 -0.070312,0.09375 0,0.09375 0.058594,0.09375 0.1757813,0.09375 z m 0,0"
         style="fill:#008080;fill-opacity:1;fill-rule:nonzero;stroke:none" />
      <path
         id="path19"
         d="m 12.640094,2.3901797 c 0,-0.035156 0,-0.046875 -0.164063,-0.2226563 -1.242187,-1.25390621 -1.570312,-3.12890621 -1.570312,-4.6640625 0,-1.7226562 0.386719,-3.4570312 1.605469,-4.7109375 0.128906,-0.1171875 0.128906,-0.1289062 0.128906,-0.1640625 0,-0.070312 -0.03516,-0.1054687 -0.09375,-0.1054687 -0.105469,0 -0.996094,0.6796875 -1.582031,1.9453125 -0.515625,1.1015625 -0.632813,2.203125 -0.632813,3.0351562 0,0.7851563 0.117188,1.99218754 0.65625,3.11718754 0.597656,1.21874996 1.453125,1.87499996 1.558594,1.87499996 0.05859,0 0.09375,-0.035156 0.09375,-0.1054687 z m 0,0"
         style="fill:#008080;fill-opacity:1;fill-rule:nonzero;stroke:none" />
      <path
         id="path20"
         d="m 16.548297,-3.0121641 c 0.05859,-0.2578125 0.292969,-1.171875 0.984375,-1.171875 0.04687,0 0.292969,0 0.503906,0.1289063 -0.28125,0.046875 -0.480469,0.3046875 -0.480469,0.5390625 0,0.1640625 0.105469,0.3515625 0.375,0.3515625 0.222657,0 0.539063,-0.1875 0.539063,-0.5859375 0,-0.515625 -0.585938,-0.65625 -0.925781,-0.65625 -0.574219,0 -0.925782,0.5273437 -1.042969,0.7617187 -0.257813,-0.65625 -0.785156,-0.7617187 -1.078125,-0.7617187 -1.042969,0 -1.605469,1.2890625 -1.605469,1.5351562 0,0.1054688 0.105469,0.1054688 0.117188,0.1054688 0.08203,0 0.117187,-0.023437 0.128906,-0.1171875 0.339844,-1.0546875 0.996094,-1.3007813 1.335937,-1.3007813 0.1875,0 0.539063,0.09375 0.539063,0.6679688 0,0.3046875 -0.164063,0.9726562 -0.539063,2.3671875 -0.152343,0.62109374 -0.503906,1.04296874 -0.949218,1.04296874 -0.05859,0 -0.28125,0 -0.492188,-0.12890625 0.246094,-0.0585937 0.46875,-0.26953125 0.46875,-0.5390625 0,-0.26953129 -0.222656,-0.35156249 -0.375,-0.35156249 -0.292969,0 -0.539062,0.25781249 -0.539062,0.57421874 0,0.45703125 0.492187,0.65625 0.9375,0.65625 0.65625,0 1.007812,-0.69140625 1.042968,-0.75 0.117188,0.36328125 0.480469,0.75 1.078125,0.75 1.019532,0 1.59375,-1.27734374 1.59375,-1.53515624 0,-0.09375 -0.09375,-0.09375 -0.128906,-0.09375 -0.08203,0 -0.105469,0.035156 -0.128906,0.1054687 -0.328125,1.06640629 -0.996094,1.31250004 -1.324219,1.31250004 -0.386719,0 -0.539062,-0.328125 -0.539062,-0.65625 0,-0.22265625 0.05859,-0.44531254 0.164062,-0.87890624 z m 0,0"
         style="fill:#008080;fill-opacity:1;fill-rule:nonzero;stroke:none" />
      <path
         id="path21"
         d="m 21.798297,-2.4965391 c 0,-0.7734375 -0.117188,-1.9804687 -0.65625,-3.1054687 -0.597656,-1.21875 -1.464844,-1.875 -1.558594,-1.875 -0.05859,0 -0.105469,0.046875 -0.105469,0.1054687 0,0.035156 0,0.046875 0.199219,0.234375 0.972656,0.984375 1.535156,2.5664063 1.535156,4.640625 0,1.71093754 -0.363281,3.45703129 -1.59375,4.7226563 -0.140625,0.1171875 -0.140625,0.1289062 -0.140625,0.1640625 0,0.058594 0.04687,0.1054687 0.105469,0.1054687 0.09375,0 0.996094,-0.6796875 1.582031,-1.94531246 0.503907,-1.1015625 0.632813,-2.20312504 0.632813,-3.04687504 z m 10.605469,-0.7617187 c 0.152343,0 0.339843,0 0.339843,-0.1992188 0,-0.1992187 -0.1875,-0.1992187 -0.328125,-0.1992187 h -5.964843 c -0.140625,0 -0.328125,0 -0.328125,0.1992187 0,0.1992188 0.1875,0.1992188 0.339843,0.1992188 z m 0.01172,1.9335937 c 0.140625,0 0.328125,0 0.328125,-0.1992187 0,-0.1992188 -0.1875,-0.1992188 -0.339843,-0.1992188 h -5.941407 c -0.152343,0 -0.339843,0 -0.339843,0.1992188 0,0.1992187 0.1875,0.1992187 0.328125,0.1992187 z m 0,0"
         style="fill:#008080;fill-opacity:1;fill-rule:nonzero;stroke:none" />
      <path
         id="path22"
         d="m 42.640094,-2.2973203 c 0.175781,0 0.351562,0 0.351562,-0.1992188 0,-0.1992187 -0.175781,-0.1992187 -0.351562,-0.1992187 h -5.390625 c -0.164063,0 -0.339844,0 -0.339844,0.1992187 0,0.1992188 0.175781,0.1992188 0.339844,0.1992188 z m 5.05957,3.6416016 -1.757812,-3.8789063 c -0.07031,-0.1523437 -0.117188,-0.1523437 -0.152344,-0.1523437 -0.01172,0 -0.05859,0 -0.164063,0.070312 l -0.949218,0.7265625 c -0.128907,0.09375 -0.128907,0.1289062 -0.128907,0.1523437 0,0.046875 0.03516,0.1054688 0.105469,0.1054688 0.05859,0 0.222656,-0.1289063 0.328125,-0.2109375 0.07031,-0.046875 0.210938,-0.1640625 0.328125,-0.2460938 l 1.957031,4.3125 c 0.07031,0.1640625 0.117188,0.1640625 0.210938,0.1640625 0.152344,0 0.175781,-0.058594 0.246094,-0.1992187 L 52.246539,-7.17525 c 0.07031,-0.140625 0.07031,-0.1757812 0.07031,-0.1992187 0,-0.1054688 -0.08203,-0.1992188 -0.199219,-0.1992188 -0.08203,0 -0.152344,0.046875 -0.222656,0.2109375 z m 0,0"
         style="fill:#008080;fill-opacity:1;fill-rule:nonzero;stroke:none" />
    </g>
    <path
       id="path23"
       d="M 0,0 H 5.694"
       style="fill:none;stroke:#008080;stroke-width:0.398;stroke-linecap:butt;stroke-linejoin:miter;stroke-miterlimit:10;stroke-dasharray:none;stroke-opacity:1"
       transform="matrix(1.3333333,0,0,-1.3333333,268.47333,217.35867)" />
    <path
       id="path24"
       d="m 3.3276172,-3.0121641 c 0.058594,-0.2578125 0.2929687,-1.171875 0.984375,-1.171875 0.046875,0 0.2929687,0 0.5039062,0.1289063 -0.28125,0.046875 -0.4804687,0.3046875 -0.4804687,0.5390625 0,0.1640625 0.1054687,0.3515625 0.375,0.3515625 0.2226562,0 0.5390625,-0.1875 0.5390625,-0.5859375 0,-0.515625 -0.5859375,-0.65625 -0.9257813,-0.65625 -0.5742187,0 -0.9257812,0.5273437 -1.0429687,0.7617187 -0.2578125,-0.65625 -0.7851563,-0.7617187 -1.078125,-0.7617187 -1.0429688,0 -1.60546876,1.2890625 -1.60546876,1.5351562 0,0.1054688 0.10546875,0.1054688 0.1171875,0.1054688 0.0820313,0 0.1171875,-0.023437 0.12890625,-0.1171875 0.33984371,-1.0546875 0.99609371,-1.3007813 1.33593751,-1.3007813 0.1875,0 0.5390625,0.09375 0.5390625,0.6679688 0,0.3046875 -0.1640625,0.9726562 -0.5390625,2.3671875 -0.1523438,0.62109374 -0.5039063,1.04296874 -0.9492188,1.04296874 -0.058594,0 -0.28124996,0 -0.49218746,-0.12890625 0.24609375,-0.0585937 0.46874996,-0.26953125 0.46874996,-0.5390625 0,-0.26953129 -0.22265621,-0.35156249 -0.37499996,-0.35156249 -0.29296875,0 -0.5390625,0.25781249 -0.5390625,0.57421874 0,0.45703125 0.4921875,0.65625 0.93749996,0.65625 0.65625,0 1.0078125,-0.69140625 1.0429688,-0.75 0.1171875,0.36328125 0.4804687,0.75 1.078125,0.75 1.0195312,0 1.59375,-1.27734374 1.59375,-1.53515624 0,-0.09375 -0.09375,-0.09375 -0.1289063,-0.09375 -0.082031,0 -0.1054687,0.035156 -0.1289062,0.1054687 -0.328125,1.06640629 -0.9960938,1.31250004 -1.3242188,1.31250004 -0.3867187,0 -0.5390625,-0.328125 -0.5390625,-0.65625 0,-0.22265625 0.058594,-0.44531254 0.1640625,-0.87890624 z m 0,0"
       style="fill:#008080;fill-opacity:1;fill-rule:nonzero;stroke:none"
       aria-label="x"
       transform="matrix(1.3333333,0,0,1.3333333,268.47333,227.192)" />
  </g>
</svg>
