<?xml version="1.0" encoding="UTF-8" standalone="no"?>
<!-- Created with Inkscape (http://www.inkscape.org/) -->

<svg
   version="1.1"
   id="svg1"
   width="154.69485"
   height="174.80119"
   viewBox="0 0 154.69486 174.8012"
   sodipodi:docname="1.3-ejemplo-traslacion-raiz-4.svg"
   inkscape:version="1.4.2 (f4327f4, 2025-05-13)"
   xmlns:inkscape="http://www.inkscape.org/namespaces/inkscape"
   xmlns:sodipodi="http://sodipodi.sourceforge.net/DTD/sodipodi-0.dtd"
   xmlns="http://www.w3.org/2000/svg"
   xmlns:svg="http://www.w3.org/2000/svg">
  <defs
     id="defs1" />
  <sodipodi:namedview
     id="namedview1"
     pagecolor="#ffffff"
     bordercolor="#000000"
     borderopacity="0.25"
     inkscape:showpageshadow="2"
     inkscape:pageopacity="0.0"
     inkscape:pagecheckerboard="0"
     inkscape:deskcolor="#d1d1d1"
     inkscape:zoom="2.2241536"
     inkscape:cx="80.255248"
     inkscape:cy="102.2861"
     inkscape:window-width="1920"
     inkscape:window-height="1009"
     inkscape:window-x="-8"
     inkscape:window-y="-8"
     inkscape:window-maximized="1"
     inkscape:current-layer="g1">
    <inkscape:page
       x="0"
       y="0"
       inkscape:label="9"
       id="page1"
       width="154.69485"
       height="174.80119"
       margin="0"
       bleed="0" />
  </sodipodi:namedview>
  <g
     id="g1"
     inkscape:groupmode="layer"
     inkscape:label="9"
     transform="translate(-161.93014,-78.972655)">
    <path
       id="path2"
       d="M -14.17339,0 H 98.75554"
       style="fill:none;stroke:#000000;stroke-width:0.3985;stroke-linecap:butt;stroke-linejoin:miter;stroke-miterlimit:10;stroke-dasharray:none;stroke-opacity:1"
       transform="matrix(1.3333333,0,0,-1.3333333,180.828,234.876)" />
    <path
       id="path3"
       d="M -1.19551,1.59401 C -1.09587,0.99626 0,0.09961 0.29886,0 0,-0.09961 -1.09587,-0.99626 -1.19551,-1.59401"
       style="fill:none;stroke:#000000;stroke-width:0.31879;stroke-linecap:round;stroke-linejoin:round;stroke-miterlimit:10;stroke-dasharray:none;stroke-opacity:1"
       transform="matrix(1.3333333,0,0,-1.3333333,312.50205,234.876)" />
    <path
       id="path4"
       d="m 3.643375,-3.2915391 c 0.070312,-0.28125 0.3164063,-1.2890625 1.078125,-1.2890625 0.058594,0 0.3164063,0 0.5507813,0.140625 -0.3046875,0.058594 -0.5273438,0.328125 -0.5273438,0.5859375 0,0.1757813 0.1171875,0.3867188 0.4101563,0.3867188 0.2460937,0 0.5976562,-0.1992188 0.5976562,-0.6328125 0,-0.5625 -0.6445312,-0.7265625 -1.0195312,-0.7265625 -0.6328125,0 -1.0195313,0.5859375 -1.1484375,0.8320312 -0.2695313,-0.7148437 -0.8554688,-0.8320312 -1.171875,-0.8320312 -1.1367188,0 -1.75781255,1.4179687 -1.75781255,1.6875 0,0.1054687 0.10546875,0.1054687 0.12890625,0.1054687 0.0820313,0 0.1171875,-0.023437 0.140625,-0.1171875 0.375,-1.1601562 1.0898438,-1.4296875 1.4648438,-1.4296875 0.2109375,0 0.5859375,0.09375 0.5859375,0.7265625 0,0.3398438 -0.1875,1.078125 -0.5859375,2.6015625 -0.1757813,0.67968754 -0.5625,1.13671879 -1.0429688,1.13671879 -0.058594,0 -0.3164062,0 -0.5390625,-0.140625 0.2695313,-0.0585938 0.515625,-0.29296875 0.515625,-0.59765625 0,-0.29296874 -0.2460937,-0.37500004 -0.41015625,-0.37500004 -0.328125,0 -0.59765625,0.28125004 -0.59765625,0.63281254 0,0.50390625 0.55078125,0.71484375 1.03125,0.71484375 0.7148438,0 1.1015625,-0.76171875 1.1367188,-0.83203125 0.1289062,0.41015625 0.5273437,0.83203125 1.1835937,0.83203125 1.125,0 1.7460938,-1.40624999 1.7460938,-1.67578129 0,-0.1054687 -0.1054688,-0.1054687 -0.1289063,-0.1054687 -0.1054687,0 -0.1289062,0.035156 -0.140625,0.1171875 -0.3632812,1.16015624 -1.1132812,1.42968749 -1.453125,1.42968749 -0.4335937,0 -0.609375,-0.3515625 -0.609375,-0.7265625 0,-0.23437499 0.070312,-0.48046879 0.1875,-0.96093749 z m 0,0"
       style="fill:#000000;fill-opacity:1;fill-rule:nonzero;stroke:none"
       aria-label="x"
       transform="matrix(1.3333333,0,0,1.3333333,308.95467,246.252)" />
    <path
       id="path5"
       d="M 0,-14.17339 V 112.92896"
       style="fill:none;stroke:#000000;stroke-width:0.3985;stroke-linecap:butt;stroke-linejoin:miter;stroke-miterlimit:10;stroke-dasharray:none;stroke-opacity:1"
       transform="matrix(1.3333333,0,0,-1.3333333,180.828,234.876)" />
    <path
       id="path6"
       d="M -1.19551,1.59401 C -1.09587,0.99626 0,0.09961 0.29886,0 0,-0.09961 -1.09587,-0.99626 -1.19551,-1.59401"
       style="fill:none;stroke:#000000;stroke-width:0.31879;stroke-linecap:round;stroke-linejoin:round;stroke-miterlimit:10;stroke-dasharray:none;stroke-opacity:1"
       transform="matrix(0,-1.3333333,-1.3333333,0,180.828,84.304053)" />
    <path
       id="path7"
       d="m 5.29775,-4.1615391 c 0.046875,-0.1523437 0.046875,-0.1757812 0.046875,-0.2460937 0,-0.1992188 -0.1523437,-0.2929688 -0.3164062,-0.2929688 -0.1054688,0 -0.28125,0.058594 -0.375,0.2226563 -0.023437,0.058594 -0.1171875,0.3984375 -0.1523438,0.5976562 -0.082031,0.28125 -0.1523437,0.5742188 -0.2226562,0.8671875 l -0.4921875,1.96875 c -0.046875,0.16406254 -0.515625,0.92578129 -1.2304688,0.92578129 -0.5625,0 -0.6796875,-0.48046875 -0.6796875,-0.89062499 0,-0.4921875 0.1875,-1.171875 0.5625,-2.1328125 0.1757813,-0.4453125 0.2109375,-0.5742188 0.2109375,-0.7851563 0,-0.4921875 -0.3515625,-0.9023437 -0.890625,-0.9023437 -1.04296875,0 -1.44140625,1.5820312 -1.44140625,1.6875 0,0.1054687 0.10546875,0.1054687 0.12890625,0.1054687 0.10546875,0 0.1171875,-0.023437 0.17578125,-0.1992187 0.29296875,-1.0195313 0.72656255,-1.3476563 1.10156255,-1.3476563 0.09375,0 0.2695312,0 0.2695312,0.3515625 0,0.2695313 -0.1054687,0.5507813 -0.1757812,0.7617188 -0.4453125,1.1601562 -0.6328125,1.78125 -0.6328125,2.2851562 0,0.97265629 0.6796875,1.30078129 1.3242187,1.30078129 0.421875,0 0.796875,-0.1875 1.1015625,-0.4921875 C 3.469625,0.19783594 3.3407188,0.72517969 2.907125,1.3111172 2.6141563,1.6743984 2.204,1.9908047 1.7000938,1.9908047 c -0.1523438,0 -0.6445313,-0.023437 -0.8320313,-0.4570313 0.1757813,0 0.3164063,0 0.4804688,-0.1289062 0.1054687,-0.09375 0.2109375,-0.234375 0.2109375,-0.44531251 0,-0.33984375 -0.2929688,-0.38671875 -0.3984375,-0.38671875 -0.25781255,0 -0.60937505,0.17578125 -0.60937505,0.71484376 0,0.5390625 0.48046875,0.9492187 1.14843755,0.9492187 1.125,0 2.25,-0.9960937 2.5546875,-2.22656246 z m 0,0"
       style="fill:#000000;fill-opacity:1;fill-rule:nonzero;stroke:none"
       aria-label="y"
       transform="matrix(1.3333333,0,0,1.3333333,168.06133,85.412)" />
    <path
       id="path8"
       d="M 0,0 C 0,0 0.51704,2.56143 0.71562,3.1867 0.91422,3.812 1.23268,4.17929 1.43126,4.5066 1.62984,4.83392 1.9483,5.2867 2.1469,5.54576 2.34547,5.80486 2.66394,6.15512 2.86252,6.37386 3.06111,6.59262 3.37958,6.92413 3.57816,7.12238 3.77675,7.32063 4.09521,7.62161 4.2938,7.80276 4.49237,7.9839 4.81084,8.26057 5.00943,8.42798 5.20801,8.59538 5.52647,8.85274 5.72505,9.00932 5.92365,9.1659 6.24211,9.40875 6.44069,9.55647 6.63927,9.7042 6.95773,9.93416 7.15633,10.074 c 0.19857,0.13987 0.51704,0.35717 0.71563,0.49051 0.19858,0.13334 0.51704,0.34296 0.71563,0.4706 0.19859,0.12766 0.51705,0.32687 0.71563,0.44942 0.19858,0.12254 0.51705,0.31561 0.71564,0.43384 0.19858,0.11822 0.51704,0.30395 0.71562,0.41824 0.19859,0.11429 0.51708,0.29497 0.71565,0.40552 0.1986,0.11053 0.51707,0.28404 0.71564,0.39122 0.19858,0.10719 0.51705,0.27722 0.71564,0.38128 0.19858,0.10405 0.51704,0.26773 0.71562,0.36873 0.19859,0.10102 0.51706,0.26059 0.71564,0.35922 0.19859,0.09864 0.51706,0.25524 0.71563,0.35167 0.19858,0.09645 0.51705,0.24921 0.71564,0.34343 0.19858,0.09421 0.51705,0.2435 0.71562,0.33565 0.1986,0.09215 0.51706,0.2383 0.71564,0.32851 0.19858,0.09024 0.51705,0.23347 0.71564,0.32182 0.19858,0.08834 0.51704,0.22826 0.71564,0.31488 0.19857,0.08662 0.51704,0.22446 0.71562,0.30949 0.19859,0.08503 0.51706,0.21988 0.71563,0.30341 0.19858,0.08354 0.51705,0.21666 0.71564,0.29868 0.19858,0.082 0.51705,0.21182 0.71563,0.2924 0.19859,0.08055 0.51705,0.20882 0.71563,0.28828 0.19859,0.07946 0.51707,0.20626 0.71565,0.28438 0.19858,0.07814 0.51705,0.20194 0.71564,0.27878 0.19858,0.07684 0.51705,0.19942 0.71562,0.2751 0.1986,0.07567 0.51706,0.19562 0.71564,0.27034 0.19859,0.0747 0.51706,0.19444 0.71564,0.26817 0.19858,0.07372 0.51704,0.19074 0.71563,0.26319 0.19858,0.07248 0.51705,0.18738 0.71563,0.25909 0.19859,0.07172 0.51706,0.18677 0.71563,0.2578 0.19858,0.07101 0.51705,0.18417 0.71564,0.25412 0.19858,0.06993 0.51705,0.18104 0.71564,0.25 0.19858,0.06894 0.51704,0.17885 0.71562,0.24698 0.19859,0.06815 0.51706,0.17673 0.71564,0.24417 0.19858,0.06746 0.51704,0.17534 0.71563,0.242 0.19858,0.06667 0.51705,0.17273 0.71562,0.23854 0.1986,0.0658 0.51707,0.17058 0.71564,0.23575 0.1986,0.06517 0.51708,0.16954 0.71566,0.23399 0.19857,0.06446 0.51704,0.16686 0.71563,0.23055 0.19858,0.06366 0.51705,0.16521 0.71563,0.22838 0.19859,0.06316 0.51705,0.16427 0.71564,0.22685 0.19859,0.06261 0.51705,0.16251 0.71563,0.22428 0.19857,0.06178 0.51704,0.15988 0.71564,0.22104 0.19857,0.06114 0.51704,0.15893 0.71562,0.21972 0.19859,0.06081 0.51706,0.15828 0.71564,0.21843 0.19857,0.06017 0.51704,0.15569 0.71563,0.21518 0.19858,0.05951 0.51704,0.15469 0.71564,0.21368 0.19858,0.05899 0.51704,0.15288 0.71562,0.21151 0.1986,0.05864 0.51706,0.15303 0.71564,0.21107 0.19858,0.05808 0.51704,0.15003 0.71564,0.20743 0.19857,0.0574 0.51704,0.14932 0.71562,0.2063 0.19859,0.05698 0.51706,0.14786 0.71564,0.20438 0.19859,0.05653 0.51706,0.147 0.71564,0.20307 0.19857,0.05609 0.51705,0.14536 0.71565,0.20113 0.19857,0.05577 0.51704,0.14564 0.71562,0.20093 0.19859,0.05525 0.51706,0.14271 0.71563,0.19743 0.19858,0.05474 0.51705,0.14267 0.71564,0.19704 0.19858,0.05436 0.51705,0.14094 0.71564,0.19487 0.19858,0.05391 0.51704,0.14026 0.71562,0.19375 0.1986,0.0535 0.51706,0.13874 0.71564,0.19184 0.19858,0.05311 0.51704,0.13804 0.71564,0.19096 0.19857,0.05293 0.51704,0.13796 0.71563,0.19055 0.19858,0.0526 0.51705,0.13663 0.71562,0.18857 0.1986,0.05194 0.51707,0.13417 0.71564,0.18578 0.19858,0.0516 0.51705,0.1349 0.71564,0.1862 0.19858,0.05131 0.51704,0.1328 0.71562,0.18362 0.19859,0.05083 0.51706,0.13219 0.71564,0.18276 0.19859,0.05054 0.51706,0.1311 0.71563,0.18165 0.19858,0.05057 0.51706,0.1325 0.71566,0.18275 0.19858,0.05026 0.51704,0.12962 0.71562,0.1795 0.19859,0.04991 0.51706,0.13055 0.71564,0.18016 0.19858,0.04959 0.51704,0.12831 0.71563,0.17734 0.19858,0.04902 0.51705,0.12738 0.71564,0.17605 0.19858,0.04866 0.51705,0.12628 0.71562,0.17473 0.19859,0.04846 0.51706,0.12625 0.71564,0.17453 0.19858,0.04828 0.51705,0.12553 0.71564,0.17346 0.19858,0.04791 0.51704,0.12433 0.71564,0.17194 0.19857,0.04757 0.51704,0.12361 0.71562,0.17106 0.19859,0.04743 0.51705,0.12377 0.71563,0.17086 0.19858,0.04706 0.51705,0.12169 0.71564,0.16847 0.19858,0.04677 0.51705,0.12204 0.71562,0.16869 0.1986,0.04666 0.51706,0.12124 0.71564,0.1676 0.19859,0.04635 0.51706,0.12045 0.71564,0.16651 0.19858,0.0461 0.51704,0.11986 0.71564,0.16569 0.19857,0.04582 0.51705,0.11903 0.71563,0.16458 0.1986,0.04553 0.51706,0.11831 0.71564,0.16369 0.19857,0.0454 0.51704,0.11837 0.71564,0.1635 0.19857,0.04517 0.51704,0.11717 0.71563,0.162 0.19858,0.04484 0.51705,0.11651 0.71563,0.16112 0.19859,0.04462 0.71563,0.16048 0.71563,0.16048"
       style="fill:none;stroke:#eb0a36;stroke-width:0.79701;stroke-linecap:butt;stroke-linejoin:miter;stroke-miterlimit:10;stroke-dasharray:none;stroke-opacity:1"
       transform="matrix(1.3333333,0,0,-1.3333333,180.828,234.876)" />
    <path
       id="path9"
       d="m 0,0 c 0,0 0.51704,5.12286 0.71562,6.37344 0.1986,1.25056 0.51706,1.98514 0.71564,2.63977 0.19858,0.65464 0.51704,1.56019 0.71564,2.07834 0.19857,0.51816 0.51704,1.21871 0.71562,1.65619 0.19859,0.4375 0.51706,1.10051 0.71564,1.49703 0.19859,0.3965 0.51705,0.99846 0.71564,1.36076 0.19857,0.3623 0.51704,0.91563 0.71563,1.25046 0.19858,0.33481 0.51704,0.84951 0.71562,1.16267 0.1986,0.31314 0.51706,0.79888 0.71564,1.09432 0.19858,0.29544 0.51704,0.75534 0.71564,1.03506 0.19857,0.27971 0.51704,0.7143 0.71563,0.981 0.19858,0.26668 0.51704,0.6859 0.71563,0.9412 0.19859,0.25529 0.51705,0.65371 0.71563,0.89882 0.19858,0.24508 0.51705,0.63122 0.71564,0.86767 0.19858,0.23645 0.51704,0.60793 0.71562,0.83652 0.19859,0.22859 0.51708,0.58992 0.71565,0.811 0.1986,0.2211 0.51707,0.5681 0.71564,0.78246 0.19858,0.21437 0.51705,0.55446 0.71564,0.76257 0.19858,0.20813 0.51704,0.53548 0.71562,0.73747 0.19859,0.20202 0.51706,0.52118 0.71564,0.71845 0.19859,0.19726 0.51706,0.51044 0.71563,0.70332 0.19858,0.19289 0.51705,0.49843 0.71564,0.68686 0.19858,0.18845 0.51705,0.487 0.71562,0.6713 0.1986,0.18431 0.51706,0.47657 0.71564,0.65702 0.19858,0.18046 0.51705,0.46695 0.71564,0.64364 0.19858,0.17666 0.51704,0.45651 0.71564,0.62976 0.19857,0.17326 0.51704,0.4489 0.71562,0.61897 0.19859,0.17006 0.51706,0.43976 0.71563,0.60684 0.19858,0.16707 0.51705,0.43332 0.71564,0.59734 0.19858,0.16401 0.51705,0.42365 0.71563,0.58479 0.19859,0.16113 0.51705,0.41765 0.71563,0.57658 0.19859,0.15891 0.51707,0.41251 0.71565,0.56878 0.19858,0.15628 0.51705,0.40385 0.71564,0.55755 0.19858,0.15369 0.51705,0.39884 0.71562,0.55019 0.1986,0.15135 0.51706,0.39123 0.71564,0.54066 0.19859,0.14943 0.51706,0.38889 0.71564,0.53635 0.19858,0.14745 0.51704,0.38147 0.71563,0.5264 0.19858,0.14492 0.51705,0.37474 0.71563,0.51817 0.19859,0.14343 0.51706,0.37355 0.71563,0.51559 0.19858,0.14205 0.51705,0.36835 0.71564,0.50824 0.19858,0.13988 0.51705,0.36211 0.71564,0.5 0.19858,0.13791 0.51704,0.35769 0.71562,0.49396 0.19859,0.13629 0.51706,0.35344 0.71564,0.48834 0.19858,0.13492 0.51704,0.35068 0.71563,0.48401 0.19858,0.13335 0.51705,0.34548 0.71562,0.47708 0.1986,0.13161 0.51707,0.34113 0.71564,0.47149 0.1986,0.13034 0.51708,0.33909 0.71566,0.468 0.19857,0.1289 0.51704,0.33372 0.71563,0.46107 0.19858,0.12735 0.51705,0.33043 0.71563,0.45676 0.19859,0.12633 0.51705,0.32855 0.71564,0.45374 0.19859,0.12518 0.51705,0.32499 0.71563,0.44854 0.19857,0.12356 0.51704,0.31975 0.71564,0.44206 0.19857,0.1223 0.51704,0.31788 0.71562,0.43946 0.19859,0.12159 0.51706,0.31654 0.71564,0.43686 0.19857,0.12033 0.51704,0.31137 0.71563,0.43037 0.19858,0.11901 0.51704,0.30937 0.71564,0.42735 0.19858,0.11798 0.51704,0.30576 0.71562,0.42302 0.1986,0.11727 0.51706,0.30605 0.71564,0.42215 0.19858,0.11614 0.51704,0.30002 0.71564,0.41483 0.19857,0.11481 0.51704,0.29867 0.71562,0.41263 0.19859,0.11396 0.51706,0.29568 0.71564,0.40875 0.19859,0.11307 0.51706,0.29399 0.71564,0.40614 0.19857,0.11217 0.51705,0.29071 0.71565,0.40227 0.19857,0.11156 0.51704,0.29129 0.71562,0.40182 0.19859,0.11055 0.51706,0.28545 0.71563,0.3949 0.19858,0.10948 0.51705,0.28533 0.71564,0.39406 0.19858,0.10873 0.51705,0.28188 0.71564,0.38972 0.19858,0.10784 0.51704,0.28055 0.71562,0.38755 0.1986,0.10699 0.51706,0.27745 0.71564,0.38366 0.19858,0.10624 0.51704,0.27606 0.71564,0.38193 0.19857,0.10585 0.51704,0.27588 0.71563,0.38107 0.19858,0.1052 0.51705,0.27329 0.71562,0.37716 0.1986,0.1039 0.51707,0.26834 0.71564,0.37155 0.19858,0.10322 0.51705,0.2698 0.71564,0.37242 0.19858,0.10263 0.51704,0.26556 0.71562,0.36723 0.19859,0.10166 0.51706,0.26439 0.71564,0.3655 0.19859,0.10112 0.51706,0.26222 0.71563,0.36332 0.19858,0.10112 0.51706,0.26497 0.71566,0.3655 0.19858,0.10052 0.51704,0.25921 0.71562,0.35901 0.19859,0.0998 0.51706,0.26109 0.71564,0.3603 0.19858,0.0992 0.51704,0.25662 0.71563,0.35467 0.19858,0.09808 0.51705,0.25477 0.71564,0.3521 0.19858,0.09734 0.51705,0.25257 0.71562,0.34948 0.19859,0.09693 0.51706,0.25252 0.71564,0.34907 0.19858,0.09655 0.51705,0.25104 0.71564,0.34689 0.19858,0.09583 0.51704,0.24869 0.71564,0.34388 0.19857,0.09517 0.51704,0.24725 0.71562,0.34213 0.19859,0.09488 0.51705,0.24754 0.71563,0.3417 0.19858,0.09415 0.51705,0.2434 0.71564,0.33695 0.19858,0.09357 0.51705,0.24406 0.71562,0.33739 0.1986,0.09331 0.51706,0.24249 0.71564,0.3352 0.19859,0.09271 0.51706,0.24088 0.71564,0.33305 0.19858,0.09218 0.51704,0.2397 0.71564,0.33133 0.19857,0.09165 0.51705,0.23807 0.71563,0.32917 0.1986,0.09109 0.51706,0.23664 0.71564,0.32742 0.19857,0.0908 0.51704,0.23669 0.71564,0.327 0.19857,0.09031 0.51704,0.23432 0.71563,0.32397 0.19858,0.08966 0.51705,0.23302 0.71563,0.32225 0.19859,0.08923 0.71563,0.32095 0.71563,0.32095"
       style="fill:none;stroke:#008080;stroke-width:0.79701;stroke-linecap:butt;stroke-linejoin:miter;stroke-miterlimit:10;stroke-dasharray:none;stroke-opacity:1"
       transform="matrix(1.3333333,0,0,-1.3333333,180.828,234.876)" />
    <g
       id="g9"
       aria-label="f(x)=&#10;√"
       transform="matrix(1.3333333,0,0,1.3333333,244.20133,181.83733)">
      <path
         id="path10"
         d="m 3.6575937,-3.9854219 h 0.8554688 c 0.1992187,0 0.3046875,0 0.3046875,-0.1992187 0,-0.1054688 -0.1054688,-0.1054688 -0.2695313,-0.1054688 H 3.7161875 L 3.927125,-5.4268281 c 0.035156,-0.2109375 0.1757812,-0.9140625 0.234375,-1.0429688 0.09375,-0.1875 0.2578125,-0.3398437 0.46875,-0.3398437 0.046875,0 0.3046875,0 0.4921875,0.1875 -0.4335938,0.035156 -0.5390625,0.3867187 -0.5390625,0.5390625 0,0.2226562 0.1757812,0.3398437 0.3632812,0.3398437 0.2695313,0 0.5507813,-0.2109375 0.5507813,-0.5976562 0,-0.4570313 -0.4570313,-0.6796875 -0.8671875,-0.6796875 -0.3398438,0 -0.9609375,0.1757812 -1.265625,1.1601562 C 3.306031,-5.6494844 3.282594,-5.5440156 3.0365,-4.2901094 H 2.3568125 c -0.1992188,0 -0.3046875,0 -0.3046875,0.1875 0,0.1171875 0.09375,0.1171875 0.28125,0.1171875 h 0.65625 l -0.75,3.93750003 C 2.0638437,0.91301563 1.8997812,1.8270781 1.3724375,1.8270781 c -0.035156,0 -0.28125,0 -0.46875,-0.1875 C 1.3607187,1.6161406 1.44275,1.2528594 1.44275,1.1005156 c 0,-0.22265622 -0.1757813,-0.33984372 -0.3632813,-0.33984372 -0.25781245,0 -0.5507812,0.2109375 -0.5507812,0.59765622 0,0.4453125 0.43359375,0.6796875 0.84375,0.6796875 0.5507812,0 0.9492187,-0.5859375 1.125,-0.9609375 0.328125,-0.63281247 0.5507812,-1.83984372 0.5625,-1.91015622 z m 0,0"
         style="fill:#eb0a36;fill-opacity:1;fill-rule:nonzero;stroke:none" />
      <path
         id="path11"
         d="m 9.2474375,2.3895781 c 0,-0.035156 0,-0.046875 -0.1640625,-0.2226562 -1.2421875,-1.25390627 -1.5703125,-3.12890627 -1.5703125,-4.6640625 0,-1.7226563 0.3867187,-3.4570313 1.6054687,-4.7109375 0.1289063,-0.1171875 0.1289063,-0.1289063 0.1289063,-0.1640625 0,-0.070312 -0.035156,-0.1054688 -0.09375,-0.1054688 -0.1054688,0 -0.9960938,0.6796875 -1.5820313,1.9453125 -0.515625,1.1015625 -0.6328125,2.203125 -0.6328125,3.0351563 0,0.7851562 0.1171875,1.99218748 0.65625,3.11718748 0.5976563,1.21875002 1.453125,1.87500002 1.5585938,1.87500002 0.058594,0 0.09375,-0.035156 0.09375,-0.1054688 z m 0,0"
         style="fill:#eb0a36;fill-opacity:1;fill-rule:nonzero;stroke:none" />
      <path
         id="path12"
         d="m 13.155641,-3.0127656 c 0.05859,-0.2578125 0.292968,-1.171875 0.984375,-1.171875 0.04687,0 0.292968,0 0.503906,0.1289062 -0.28125,0.046875 -0.480469,0.3046875 -0.480469,0.5390625 0,0.1640625 0.105469,0.3515625 0.375,0.3515625 0.222656,0 0.539063,-0.1875 0.539063,-0.5859375 0,-0.515625 -0.585938,-0.65625 -0.925782,-0.65625 -0.574218,0 -0.925781,0.5273438 -1.042968,0.7617188 -0.257813,-0.65625 -0.785157,-0.7617188 -1.078125,-0.7617188 -1.042969,0 -1.605469,1.2890625 -1.605469,1.5351563 0,0.1054687 0.105469,0.1054687 0.117187,0.1054687 0.08203,0 0.117188,-0.023437 0.128907,-0.1171875 0.339843,-1.0546875 0.996093,-1.3007812 1.335937,-1.3007812 0.1875,0 0.539063,0.09375 0.539063,0.6679687 0,0.3046875 -0.164063,0.9726563 -0.539063,2.3671875 -0.152344,0.62109378 -0.503906,1.04296878 -0.949219,1.04296878 -0.05859,0 -0.28125,0 -0.492187,-0.12890625 0.246094,-0.0585937 0.46875,-0.26953125 0.46875,-0.5390625 0,-0.26953123 -0.222656,-0.35156253 -0.375,-0.35156253 -0.292969,0 -0.539063,0.25781253 -0.539063,0.57421878 0,0.45703125 0.492188,0.65625 0.9375,0.65625 0.65625,0 1.007813,-0.69140625 1.042969,-0.75 0.117188,0.36328125 0.480469,0.75 1.078125,0.75 1.019531,0 1.59375,-1.27734378 1.59375,-1.53515628 0,-0.09375 -0.09375,-0.09375 -0.128906,-0.09375 -0.08203,0 -0.105469,0.035156 -0.128906,0.1054688 -0.328125,1.06640623 -0.996094,1.31249998 -1.324219,1.31249998 -0.386719,0 -0.539063,-0.328125 -0.539063,-0.65625 0,-0.22265625 0.05859,-0.44531248 0.164063,-0.87890628 z m 0,0"
         style="fill:#eb0a36;fill-opacity:1;fill-rule:nonzero;stroke:none" />
      <path
         id="path13"
         d="m 18.405641,-2.4971406 c 0,-0.7734375 -0.117188,-1.9804688 -0.65625,-3.1054688 -0.597657,-1.21875 -1.464844,-1.875 -1.558594,-1.875 -0.05859,0 -0.105469,0.046875 -0.105469,0.1054688 0,0.035156 0,0.046875 0.199219,0.234375 0.972656,0.984375 1.535156,2.5664062 1.535156,4.640625 0,1.71093748 -0.363281,3.45703123 -1.59375,4.7226562 -0.140625,0.1171875 -0.140625,0.1289063 -0.140625,0.1640625 0,0.058594 0.04687,0.1054688 0.105469,0.1054688 0.09375,0 0.996094,-0.6796875 1.582031,-1.94531252 0.503906,-1.1015625 0.632813,-2.20312498 0.632813,-3.04687498 z m 10.59375,-0.7617188 c 0.152343,0 0.339843,0 0.339843,-0.1992187 0,-0.1992188 -0.1875,-0.1992188 -0.328125,-0.1992188 h -5.964843 c -0.140625,0 -0.328125,0 -0.328125,0.1992188 0,0.1992187 0.1875,0.1992187 0.339843,0.1992187 z m 0.01172,1.9335938 c 0.140625,0 0.328125,0 0.328125,-0.1992188 0,-0.1992187 -0.1875,-0.1992187 -0.339843,-0.1992187 h -5.941407 c -0.152343,0 -0.339843,0 -0.339843,0.1992187 0,0.1992188 0.1875,0.1992188 0.328125,0.1992188 z m 0,0"
         style="fill:#eb0a36;fill-opacity:1;fill-rule:nonzero;stroke:none" />
      <path
         id="path14"
         d="m 36.555055,1.3436797 -1.757813,-3.8789063 c -0.07031,-0.1523437 -0.117187,-0.1523437 -0.152344,-0.1523437 -0.01172,0 -0.05859,0 -0.164062,0.070312 l -0.949219,0.7265625 c -0.128906,0.09375 -0.128906,0.1289062 -0.128906,0.1523437 0,0.046875 0.03516,0.1054688 0.105469,0.1054688 0.05859,0 0.222656,-0.1289063 0.328125,-0.2109375 0.07031,-0.046875 0.210937,-0.1640625 0.328125,-0.2460938 l 1.957031,4.3125 c 0.07031,0.1640625 0.117187,0.1640625 0.210937,0.1640625 0.152344,0 0.175782,-0.058594 0.246094,-0.1992187 l 4.523438,-9.3632813 c 0.07031,-0.140625 0.07031,-0.1757812 0.07031,-0.1992187 0,-0.1054688 -0.08203,-0.1992188 -0.199219,-0.1992188 -0.08203,0 -0.152343,0.046875 -0.222656,0.2109375 z m 0,0"
         style="fill:#eb0a36;fill-opacity:1;fill-rule:nonzero;stroke:none" />
    </g>
    <path
       id="path15"
       d="M 0,0 H 5.694"
       style="fill:none;stroke:#eb0a36;stroke-width:0.398;stroke-linecap:butt;stroke-linejoin:miter;stroke-miterlimit:10;stroke-dasharray:none;stroke-opacity:1"
       transform="matrix(1.3333333,0,0,-1.3333333,298.83867,172.004)" />
    <path
       id="path16"
       d="m 3.3290078,-3.0127656 c 0.058594,-0.2578125 0.2929688,-1.171875 0.984375,-1.171875 0.046875,0 0.2929688,0 0.5039063,0.1289062 -0.28125,0.046875 -0.4804688,0.3046875 -0.4804688,0.5390625 0,0.1640625 0.1054688,0.3515625 0.375,0.3515625 0.2226563,0 0.5390625,-0.1875 0.5390625,-0.5859375 0,-0.515625 -0.5859375,-0.65625 -0.9257812,-0.65625 -0.5742188,0 -0.9257813,0.5273438 -1.0429688,0.7617188 -0.2578125,-0.65625 -0.7851562,-0.7617188 -1.078125,-0.7617188 -1.0429687,0 -1.60546874,1.2890625 -1.60546874,1.5351563 0,0.1054687 0.10546875,0.1054687 0.1171875,0.1054687 0.0820313,0 0.1171875,-0.023437 0.12890625,-0.1171875 0.33984379,-1.0546875 0.99609379,-1.3007812 1.33593749,-1.3007812 0.1875,0 0.5390625,0.09375 0.5390625,0.6679687 0,0.3046875 -0.1640625,0.9726563 -0.5390625,2.3671875 -0.1523437,0.62109378 -0.5039062,1.04296878 -0.9492187,1.04296878 -0.058594,0 -0.28125004,0 -0.49218754,-0.12890625 0.24609375,-0.0585937 0.46875004,-0.26953125 0.46875004,-0.5390625 0,-0.26953123 -0.22265629,-0.35156253 -0.37500004,-0.35156253 -0.29296875,0 -0.5390625,0.25781253 -0.5390625,0.57421878 0,0.45703125 0.4921875,0.65625 0.93750004,0.65625 0.65625,0 1.0078125,-0.69140625 1.0429687,-0.75 0.1171875,0.36328125 0.4804688,0.75 1.078125,0.75 1.0195313,0 1.59375,-1.27734378 1.59375,-1.53515628 0,-0.09375 -0.09375,-0.09375 -0.1289062,-0.09375 -0.082031,0 -0.1054688,0.035156 -0.1289063,0.1054688 -0.328125,1.06640623 -0.9960937,1.31249998 -1.3242187,1.31249998 -0.3867188,0 -0.5390625,-0.328125 -0.5390625,-0.65625 0,-0.22265625 0.058594,-0.44531248 0.1640625,-0.87890628 z m 0,0"
       style="fill:#eb0a36;fill-opacity:1;fill-rule:nonzero;stroke:none"
       aria-label="x"
       transform="matrix(1.3333333,0,0,1.3333333,298.83867,181.83733)" />
    <g
       id="g16"
       aria-label="f&#10;4&#10;(x)=2&#10;√"
       transform="matrix(1.3333333,0,0,1.3333333,238.616,144.04267)">
      <path
         id="path17"
         d="m 3.6571406,-3.9841484 h 0.8554688 c 0.1992187,0 0.3046875,0 0.3046875,-0.1992188 0,-0.1054687 -0.1054688,-0.1054687 -0.2695313,-0.1054687 H 3.7157344 l 0.2109375,-1.1367188 c 0.035156,-0.2109375 0.1757812,-0.9140625 0.234375,-1.0429687 0.09375,-0.1875 0.2578125,-0.3398438 0.46875,-0.3398438 0.046875,0 0.3046875,0 0.4921875,0.1875 -0.4335938,0.035156 -0.5390625,0.3867188 -0.5390625,0.5390625 0,0.2226563 0.1757812,0.3398438 0.3632812,0.3398438 0.2695313,0 0.5507813,-0.2109375 0.5507813,-0.5976563 0,-0.4570312 -0.4570313,-0.6796875 -0.8671875,-0.6796875 -0.3398438,0 -0.9609375,0.1757813 -1.265625,1.1601563 -0.058594,0.2109375 -0.082031,0.3164062 -0.328125,1.5703125 H 2.3563594 c -0.1992188,0 -0.3046875,0 -0.3046875,0.1875 0,0.1171875 0.09375,0.1171875 0.28125,0.1171875 h 0.65625 l -0.75,3.93749996 C 2.0633906,0.91428906 1.8993281,1.8283516 1.3719844,1.8283516 c -0.035156,0 -0.28125,0 -0.46875002,-0.1875 C 1.3602656,1.6174141 1.4422969,1.2541328 1.4422969,1.1017891 c 0,-0.22265629 -0.1757813,-0.33984379 -0.3632813,-0.33984379 -0.25781247,0 -0.55078122,0.2109375 -0.55078122,0.59765629 0,0.4453125 0.43359375,0.6796875 0.84375002,0.6796875 0.5507812,0 0.9492187,-0.5859375 1.125,-0.9609375 0.328125,-0.63281254 0.5507812,-1.83984379 0.5625,-1.91015629 z m 0,0"
         style="fill:#008080;fill-opacity:1;fill-rule:nonzero;stroke:none" />
      <path
         id="path18"
         d="M 8.5672969,0.34592969 V 0.09983594 H 7.7938594 V -3.0056328 c 0,-0.1523438 0,-0.1992188 -0.1523438,-0.1992188 -0.09375,0 -0.1171875,0 -0.1875,0.09375 L 5.1454219,0.09983594 v 0.24609375 h 2.0507812 v 0.57421875 c 0,0.23437496 0,0.32812496 -0.5625,0.32812496 h -0.1875 v 0.2460938 c 0.3515625,-0.011719 0.796875,-0.023437 1.0429688,-0.023437 0.2578125,0 0.703125,0.011719 1.0546875,0.023437 V 1.2482734 h -0.1875 c -0.5625,0 -0.5625,-0.09375 -0.5625,-0.32812496 V 0.34592969 Z M 7.2430781,-2.4548516 V 0.09983594 H 5.4032344 Z m 0,0"
         style="fill:#008080;fill-opacity:1;fill-rule:nonzero;stroke:none" />
      <path
         id="path19"
         d="m 12.639563,2.3908516 c 0,-0.035156 0,-0.046875 -0.164063,-0.2226563 -1.242187,-1.25390624 -1.570312,-3.12890624 -1.570312,-4.6640625 0,-1.7226562 0.386718,-3.4570312 1.605468,-4.7109375 0.128907,-0.1171875 0.128907,-0.1289062 0.128907,-0.1640625 0,-0.070312 -0.03516,-0.1054687 -0.09375,-0.1054687 -0.105469,0 -0.996094,0.6796875 -1.582032,1.9453125 -0.515625,1.1015625 -0.632812,2.203125 -0.632812,3.0351562 0,0.7851563 0.117187,1.99218751 0.65625,3.11718751 0.597656,1.21874999 1.453125,1.87499999 1.558594,1.87499999 0.05859,0 0.09375,-0.035156 0.09375,-0.1054687 z m 0,0"
         style="fill:#008080;fill-opacity:1;fill-rule:nonzero;stroke:none" />
      <path
         id="path20"
         d="m 16.547766,-3.0114922 c 0.05859,-0.2578125 0.292968,-1.171875 0.984375,-1.171875 0.04687,0 0.292968,0 0.503906,0.1289063 -0.28125,0.046875 -0.480469,0.3046875 -0.480469,0.5390625 0,0.1640625 0.105469,0.3515625 0.375,0.3515625 0.222656,0 0.539063,-0.1875 0.539063,-0.5859375 0,-0.515625 -0.585938,-0.65625 -0.925782,-0.65625 -0.574218,0 -0.925781,0.5273437 -1.042968,0.7617187 -0.257813,-0.65625 -0.785157,-0.7617187 -1.078125,-0.7617187 -1.042969,0 -1.605469,1.2890625 -1.605469,1.5351562 0,0.1054688 0.105469,0.1054688 0.117187,0.1054688 0.08203,0 0.117188,-0.023437 0.128907,-0.1171875 0.339843,-1.0546875 0.996093,-1.3007813 1.335937,-1.3007813 0.1875,0 0.539063,0.09375 0.539063,0.6679688 0,0.3046875 -0.164063,0.9726562 -0.539063,2.3671875 -0.152344,0.62109371 -0.503906,1.04296871 -0.949219,1.04296871 -0.05859,0 -0.28125,0 -0.492187,-0.12890625 0.246094,-0.0585938 0.46875,-0.26953125 0.46875,-0.5390625 0,-0.26953126 -0.222656,-0.35156246 -0.375,-0.35156246 -0.292969,0 -0.539063,0.25781246 -0.539063,0.57421871 0,0.45703125 0.492188,0.65625 0.9375,0.65625 0.65625,0 1.007813,-0.69140625 1.042969,-0.75 0.117188,0.36328125 0.480469,0.75 1.078125,0.75 1.019531,0 1.59375,-1.27734371 1.59375,-1.53515621 0,-0.09375 -0.09375,-0.09375 -0.128906,-0.09375 -0.08203,0 -0.105469,0.035156 -0.128906,0.1054687 -0.328125,1.06640626 -0.996094,1.31250001 -1.324219,1.31250001 -0.386719,0 -0.539063,-0.328125 -0.539063,-0.65625 0,-0.22265625 0.05859,-0.44531251 0.164063,-0.87890621 z m 0,0"
         style="fill:#008080;fill-opacity:1;fill-rule:nonzero;stroke:none" />
      <path
         id="path21"
         d="m 21.797766,-2.4958672 c 0,-0.7734375 -0.117188,-1.9804687 -0.65625,-3.1054687 -0.597657,-1.21875 -1.464844,-1.875 -1.558594,-1.875 -0.05859,0 -0.105469,0.046875 -0.105469,0.1054687 0,0.035156 0,0.046875 0.199219,0.234375 0.972656,0.984375 1.535156,2.5664063 1.535156,4.640625 0,1.71093751 -0.363281,3.45703126 -1.59375,4.7226563 -0.140625,0.1171875 -0.140625,0.1289062 -0.140625,0.1640625 0,0.058594 0.04687,0.1054687 0.105469,0.1054687 0.09375,0 0.996094,-0.6796875 1.582031,-1.94531249 0.503906,-1.1015625 0.632813,-2.20312501 0.632813,-3.04687501 z m 10.605468,-0.7617187 c 0.152344,0 0.339844,0 0.339844,-0.1992188 0,-0.1992187 -0.1875,-0.1992187 -0.328125,-0.1992187 h -5.964844 c -0.140625,0 -0.328125,0 -0.328125,0.1992187 0,0.1992188 0.1875,0.1992188 0.339844,0.1992188 z m 0.01172,1.9335937 c 0.140625,0 0.328125,0 0.328125,-0.1992187 0,-0.1992188 -0.1875,-0.1992188 -0.339844,-0.1992188 h -5.941406 c -0.152344,0 -0.339844,0 -0.339844,0.1992188 0,0.1992187 0.1875,0.1992187 0.328125,0.1992187 z m 4.927735,0.56250001 1.054687,-1.03125001 c 1.558594,-1.3710937 2.15625,-1.9101562 2.15625,-2.90625 0,-1.1367187 -0.902344,-1.9335937 -2.121094,-1.9335937 -1.125,0 -1.851562,0.9140625 -1.851562,1.8046875 0,0.5507812 0.492187,0.5507812 0.527344,0.5507812 0.164062,0 0.515625,-0.1171875 0.515625,-0.5273437 0,-0.2578125 -0.1875,-0.515625 -0.527344,-0.515625 -0.08203,0 -0.105469,0 -0.128906,0.011719 0.222656,-0.6445312 0.761718,-1.0195312 1.335937,-1.0195312 0.914063,0 1.335938,0.8085937 1.335938,1.6289062 0,0.796875 -0.492188,1.5820313 -1.042969,2.203125 l -1.910156,2.13281251 C 36.58097,-0.25758564 36.58097,-0.23414814 36.58097,2.268625e-4 h 3.691406 L 40.553625,-1.7341484 h -0.257812 c -0.04687,0.3046875 -0.117188,0.73828121 -0.210938,0.89062496 -0.07031,0.0820313 -0.726562,0.0820313 -0.949219,0.0820313 z m 0,0"
         style="fill:#008080;fill-opacity:1;fill-rule:nonzero;stroke:none" />
      <path
         id="path22"
         d="m 44.933508,1.3449531 -1.757813,-3.8789062 c -0.07031,-0.1523438 -0.117187,-0.1523438 -0.152343,-0.1523438 -0.01172,0 -0.05859,0 -0.164063,0.070312 l -0.949219,0.7265625 c -0.128906,0.09375 -0.128906,0.1289063 -0.128906,0.1523438 0,0.046875 0.03516,0.1054687 0.105469,0.1054687 0.05859,0 0.222656,-0.1289062 0.328125,-0.2109375 0.07031,-0.046875 0.210937,-0.1640625 0.328125,-0.2460937 l 1.957031,4.3125 c 0.07031,0.1640625 0.117188,0.1640625 0.210938,0.1640625 0.152343,0 0.175781,-0.058594 0.246093,-0.1992188 l 4.523438,-9.3632812 c 0.07031,-0.140625 0.07031,-0.1757813 0.07031,-0.1992188 0,-0.1054687 -0.08203,-0.1992187 -0.199218,-0.1992187 -0.08203,0 -0.152344,0.046875 -0.222657,0.2109375 z m 0,0"
         style="fill:#008080;fill-opacity:1;fill-rule:nonzero;stroke:none" />
    </g>
    <path
       id="path23"
       d="M 0,0 H 5.694"
       style="fill:none;stroke:#008080;stroke-width:0.398;stroke-linecap:butt;stroke-linejoin:miter;stroke-miterlimit:10;stroke-dasharray:none;stroke-opacity:1"
       transform="matrix(1.3333333,0,0,-1.3333333,304.424,134.20933)" />
    <path
       id="path24"
       d="m 3.3294609,-3.0114922 c 0.058594,-0.2578125 0.2929688,-1.171875 0.984375,-1.171875 0.046875,0 0.2929688,0 0.5039063,0.1289063 -0.28125,0.046875 -0.4804688,0.3046875 -0.4804688,0.5390625 0,0.1640625 0.1054688,0.3515625 0.375,0.3515625 0.2226563,0 0.5390625,-0.1875 0.5390625,-0.5859375 0,-0.515625 -0.5859375,-0.65625 -0.9257812,-0.65625 -0.5742188,0 -0.9257813,0.5273437 -1.0429688,0.7617187 -0.2578125,-0.65625 -0.7851562,-0.7617187 -1.078125,-0.7617187 -1.0429687,0 -1.60546871,1.2890625 -1.60546871,1.5351562 0,0.1054688 0.10546875,0.1054688 0.1171875,0.1054688 0.0820313,0 0.1171875,-0.023437 0.12890625,-0.1171875 0.33984376,-1.0546875 0.99609376,-1.3007813 1.33593746,-1.3007813 0.1875,0 0.5390625,0.09375 0.5390625,0.6679688 0,0.3046875 -0.1640625,0.9726562 -0.5390625,2.3671875 -0.1523437,0.62109371 -0.5039062,1.04296871 -0.9492187,1.04296871 -0.058594,0 -0.28125001,0 -0.49218751,-0.12890625 0.24609375,-0.0585938 0.46875001,-0.26953125 0.46875001,-0.5390625 0,-0.26953126 -0.22265626,-0.35156246 -0.37500001,-0.35156246 -0.29296875,0 -0.5390625,0.25781246 -0.5390625,0.57421871 0,0.45703125 0.4921875,0.65625 0.93750001,0.65625 0.65625,0 1.0078125,-0.69140625 1.0429687,-0.75 0.1171875,0.36328125 0.4804688,0.75 1.078125,0.75 1.0195313,0 1.59375,-1.27734371 1.59375,-1.53515621 0,-0.09375 -0.09375,-0.09375 -0.1289062,-0.09375 -0.082031,0 -0.1054688,0.035156 -0.1289063,0.1054687 -0.328125,1.06640626 -0.9960937,1.31250001 -1.3242187,1.31250001 -0.3867188,0 -0.5390625,-0.328125 -0.5390625,-0.65625 0,-0.22265625 0.058594,-0.44531251 0.1640625,-0.87890621 z m 0,0"
       style="fill:#008080;fill-opacity:1;fill-rule:nonzero;stroke:none"
       aria-label="x"
       transform="matrix(1.3333333,0,0,1.3333333,304.424,144.04267)" />
  </g>
</svg>
