<?xml version="1.0" encoding="UTF-8" standalone="no"?>
<!-- Created with Inkscape (http://www.inkscape.org/) -->

<svg
   version="1.1"
   id="svg1"
   width="268.12891"
   height="137.00331"
   viewBox="0 0 268.12891 137.00331"
   sodipodi:docname="1.3-ejemplo-traslacion-raiz5.svg"
   inkscape:version="1.4.2 (f4327f4, 2025-05-13)"
   xmlns:inkscape="http://www.inkscape.org/namespaces/inkscape"
   xmlns:sodipodi="http://sodipodi.sourceforge.net/DTD/sodipodi-0.dtd"
   xmlns="http://www.w3.org/2000/svg"
   xmlns:svg="http://www.w3.org/2000/svg">
  <defs
     id="defs1" />
  <sodipodi:namedview
     id="namedview1"
     pagecolor="#ffffff"
     bordercolor="#000000"
     borderopacity="0.25"
     inkscape:showpageshadow="2"
     inkscape:pageopacity="0.0"
     inkscape:pagecheckerboard="0"
     inkscape:deskcolor="#d1d1d1"
     inkscape:zoom="2.2241536"
     inkscape:cx="134.20836"
     inkscape:cy="87.448996"
     inkscape:window-width="1920"
     inkscape:window-height="1009"
     inkscape:window-x="-8"
     inkscape:window-y="-8"
     inkscape:window-maximized="1"
     inkscape:current-layer="g1">
    <inkscape:page
       x="0"
       y="0"
       inkscape:label="10"
       id="page1"
       width="268.12891"
       height="137.00331"
       margin="0"
       bleed="0" />
  </sodipodi:namedview>
  <g
     id="g1"
     inkscape:groupmode="layer"
     inkscape:label="10"
     transform="translate(-107.85547,-94.093757)">
    <path
       id="path2"
       d="M -99.21382,0 H 98.75554"
       style="fill:none;stroke:#000000;stroke-width:0.3985;stroke-linecap:butt;stroke-linejoin:miter;stroke-miterlimit:10;stroke-dasharray:none;stroke-opacity:1"
       transform="matrix(1.3333333,0,0,-1.3333333,240.18667,193.30133)" />
    <path
       id="path3"
       d="M -1.19551,1.59401 C -1.09587,0.99626 0,0.09961 0.29886,0 0,-0.09961 -1.09587,-0.99626 -1.19551,-1.59401"
       style="fill:none;stroke:#000000;stroke-width:0.31879;stroke-linecap:round;stroke-linejoin:round;stroke-miterlimit:10;stroke-dasharray:none;stroke-opacity:1"
       transform="matrix(1.3333333,0,0,-1.3333333,371.86072,193.30133)" />
    <path
       id="path4"
       d="m 3.6439063,-3.2941328 c 0.070312,-0.28125 0.3164062,-1.2890625 1.078125,-1.2890625 0.058594,0 0.3164062,0 0.5507812,0.140625 -0.3046875,0.058594 -0.5273437,0.328125 -0.5273437,0.5859375 0,0.1757812 0.1171875,0.3867187 0.4101562,0.3867187 0.2460938,0 0.5976563,-0.1992187 0.5976563,-0.6328125 0,-0.5625 -0.6445313,-0.7265625 -1.0195313,-0.7265625 -0.6328125,0 -1.0195312,0.5859375 -1.1484375,0.8320313 -0.2695312,-0.7148438 -0.8554687,-0.8320313 -1.171875,-0.8320313 -1.1367187,0 -1.7578125,1.4179688 -1.7578125,1.6875 0,0.1054688 0.10546875,0.1054688 0.12890625,0.1054688 0.0820313,0 0.1171875,-0.023437 0.140625,-0.1171875 C 1.3001563,-4.3136641 2.015,-4.5831953 2.39,-4.5831953 c 0.2109375,0 0.5859375,0.09375 0.5859375,0.7265625 0,0.3398437 -0.1875,1.078125 -0.5859375,2.6015625 -0.1757812,0.67968749 -0.5625,1.13671874 -1.0429687,1.13671874 -0.058594,0 -0.3164063,0 -0.53906255,-0.140625 C 1.0775,-0.31757031 1.3235938,-0.55194531 1.3235938,-0.85663281 c 0,-0.29296879 -0.2460938,-0.37499999 -0.4101563,-0.37499999 -0.328125,0 -0.59765625,0.28124999 -0.59765625,0.63281249 0,0.50390625 0.55078125,0.71484375 1.03125005,0.71484375 0.7148437,0 1.1015625,-0.76171875 1.1367187,-0.83203125 0.1289063,0.41015625 0.5273438,0.83203125 1.1835938,0.83203125 1.125,0 1.7460937,-1.40625004 1.7460937,-1.67578124 0,-0.1054688 -0.1054687,-0.1054688 -0.1289062,-0.1054688 -0.1054688,0 -0.1289063,0.035156 -0.140625,0.1171875 -0.3632813,1.16015629 -1.1132813,1.42968754 -1.453125,1.42968754 -0.4335938,0 -0.609375,-0.3515625 -0.609375,-0.7265625 0,-0.23437504 0.070312,-0.48046874 0.1875,-0.96093754 z m 0,0"
       style="fill:#000000;fill-opacity:1;fill-rule:nonzero;stroke:none"
       aria-label="x"
       transform="matrix(1.3333333,0,0,1.3333333,368.31333,204.67733)" />
    <path
       id="path5"
       d="M 0,-28.3468 V 70.40874"
       style="fill:none;stroke:#000000;stroke-width:0.3985;stroke-linecap:butt;stroke-linejoin:miter;stroke-miterlimit:10;stroke-dasharray:none;stroke-opacity:1"
       transform="matrix(1.3333333,0,0,-1.3333333,240.18667,193.30133)" />
    <path
       id="path6"
       d="M -1.19551,1.59401 C -1.09587,0.99626 0,0.09961 0.29886,0 0,-0.09961 -1.09587,-0.99626 -1.19551,-1.59401"
       style="fill:none;stroke:#000000;stroke-width:0.31879;stroke-linecap:round;stroke-linejoin:round;stroke-miterlimit:10;stroke-dasharray:none;stroke-opacity:1"
       transform="matrix(0,-1.3333333,-1.3333333,0,240.18667,99.423013)" />
    <path
       id="path7"
       d="m 5.2982813,-4.1597187 c 0.046875,-0.1523438 0.046875,-0.1757813 0.046875,-0.2460938 0,-0.1992187 -0.1523438,-0.2929687 -0.3164063,-0.2929687 -0.1054687,0 -0.28125,0.058594 -0.375,0.2226562 -0.023437,0.058594 -0.1171875,0.3984375 -0.1523437,0.5976563 -0.082031,0.28125 -0.1523438,0.5742187 -0.2226563,0.8671875 l -0.4921875,1.96875 c -0.046875,0.16406245 -0.515625,0.9257812 -1.2304687,0.9257812 -0.5625,0 -0.6796875,-0.48046875 -0.6796875,-0.890625 0,-0.4921875 0.1875,-1.171875 0.5625,-2.1328125 0.1757812,-0.4453125 0.2109375,-0.5742187 0.2109375,-0.7851562 0,-0.4921875 -0.3515625,-0.9023438 -0.890625,-0.9023438 -1.0429688,0 -1.4414063,1.5820313 -1.4414063,1.6875 0,0.1054688 0.10546875,0.1054688 0.12890625,0.1054688 0.10546875,0 0.1171875,-0.023437 0.17578125,-0.1992188 0.29296875,-1.0195312 0.7265625,-1.3476562 1.1015625,-1.3476562 0.09375,0 0.2695313,0 0.2695313,0.3515625 0,0.2695312 -0.1054688,0.5507812 -0.1757813,0.7617187 C 1.3725,-2.3081562 1.185,-1.6870625 1.185,-1.1831562 c 0,0.9726562 0.6796875,1.3007812 1.3242188,1.3007812 0.421875,0 0.796875,-0.1875 1.1015625,-0.4921875 C 3.4701563,0.19965625 3.34125,0.727 2.9076563,1.3129375 2.6146875,1.6762188 2.2045313,1.992625 1.700625,1.992625 c -0.1523437,0 -0.6445312,-0.023437 -0.83203125,-0.4570312 0.17578125,0 0.31640625,0 0.48046875,-0.1289063 C 1.4545313,1.3129375 1.56,1.1723125 1.56,0.961375 1.56,0.62153125 1.2670313,0.57465625 1.1615625,0.57465625 c -0.2578125,0 -0.609375,0.17578125 -0.609375,0.71484375 0,0.5390625 0.4804688,0.9492188 1.1484375,0.9492188 1.125,0 2.25,-0.9960938 2.5546875,-2.22656255 z m 0,0"
       style="fill:#000000;fill-opacity:1;fill-rule:nonzero;stroke:none"
       aria-label="y"
       transform="matrix(1.3333333,0,0,1.3333333,227.42,100.53067)" />
    <path
       id="path8"
       d="M 0,0 C 0,0 0.51704,2.56143 0.71562,3.1867 0.91422,3.812 1.23268,4.17929 1.43126,4.5066 1.62984,4.83392 1.9483,5.2867 2.1469,5.54576 2.34547,5.80486 2.66394,6.15512 2.86252,6.37386 3.06111,6.59262 3.37958,6.92413 3.57816,7.12238 3.77675,7.32063 4.09521,7.62161 4.2938,7.80276 4.49237,7.9839 4.81084,8.26057 5.00943,8.42798 5.20801,8.59538 5.52647,8.85274 5.72505,9.00932 5.92365,9.1659 6.24211,9.40875 6.44069,9.55647 6.63927,9.7042 6.95773,9.93416 7.15633,10.074 c 0.19857,0.13987 0.51704,0.35717 0.71563,0.49051 0.19858,0.13334 0.51704,0.34296 0.71563,0.4706 0.19859,0.12766 0.51705,0.32687 0.71563,0.44942 0.19858,0.12254 0.51705,0.31561 0.71564,0.43384 0.19858,0.11822 0.51704,0.30395 0.71562,0.41824 0.19859,0.11429 0.51708,0.29497 0.71565,0.40552 0.1986,0.11053 0.51707,0.28404 0.71564,0.39122 0.19858,0.10719 0.51705,0.27722 0.71564,0.38128 0.19858,0.10405 0.51704,0.26773 0.71562,0.36873 0.19859,0.10102 0.51706,0.26059 0.71564,0.35922 0.19859,0.09864 0.51706,0.25524 0.71563,0.35167 0.19858,0.09645 0.51705,0.24921 0.71564,0.34343 0.19858,0.09421 0.51705,0.2435 0.71562,0.33565 0.1986,0.09215 0.51706,0.2383 0.71564,0.32851 0.19858,0.09024 0.51705,0.23347 0.71564,0.32182 0.19858,0.08834 0.51704,0.22826 0.71564,0.31488 0.19857,0.08662 0.51704,0.22446 0.71562,0.30949 0.19859,0.08503 0.51706,0.21988 0.71563,0.30341 0.19858,0.08354 0.51705,0.21666 0.71564,0.29868 0.19858,0.082 0.51705,0.21182 0.71563,0.2924 0.19859,0.08055 0.51705,0.20882 0.71563,0.28828 0.19859,0.07946 0.51707,0.20626 0.71565,0.28438 0.19858,0.07814 0.51705,0.20194 0.71564,0.27878 0.19858,0.07684 0.51705,0.19942 0.71562,0.2751 0.1986,0.07567 0.51706,0.19562 0.71564,0.27034 0.19859,0.0747 0.51706,0.19444 0.71564,0.26817 0.19858,0.07372 0.51704,0.19074 0.71563,0.26319 0.19858,0.07248 0.51705,0.18738 0.71563,0.25909 0.19859,0.07172 0.51706,0.18677 0.71563,0.2578 0.19858,0.07101 0.51705,0.18417 0.71564,0.25412 0.19858,0.06993 0.51705,0.18104 0.71564,0.25 0.19858,0.06894 0.51704,0.17885 0.71562,0.24698 0.19859,0.06815 0.51706,0.17673 0.71564,0.24417 0.19858,0.06746 0.51704,0.17534 0.71563,0.242 0.19858,0.06667 0.51705,0.17273 0.71562,0.23854 0.1986,0.0658 0.51707,0.17058 0.71564,0.23575 0.1986,0.06517 0.51708,0.16954 0.71566,0.23399 0.19857,0.06446 0.51704,0.16686 0.71563,0.23055 0.19858,0.06366 0.51705,0.16521 0.71563,0.22838 0.19859,0.06316 0.51705,0.16427 0.71564,0.22685 0.19859,0.06261 0.51705,0.16251 0.71563,0.22428 0.19857,0.06178 0.51704,0.15988 0.71564,0.22104 0.19857,0.06114 0.51704,0.15893 0.71562,0.21972 0.19859,0.06081 0.51706,0.15828 0.71564,0.21843 0.19857,0.06017 0.51704,0.15569 0.71563,0.21518 0.19858,0.05951 0.51704,0.15469 0.71564,0.21368 0.19858,0.05899 0.51704,0.15288 0.71562,0.21151 0.1986,0.05864 0.51706,0.15303 0.71564,0.21107 0.19858,0.05808 0.51704,0.15003 0.71564,0.20743 0.19857,0.0574 0.51704,0.14932 0.71562,0.2063 0.19859,0.05698 0.51706,0.14786 0.71564,0.20438 0.19859,0.05653 0.51706,0.147 0.71564,0.20307 0.19857,0.05609 0.51705,0.14536 0.71565,0.20113 0.19857,0.05577 0.51704,0.14564 0.71562,0.20093 0.19859,0.05525 0.51706,0.14271 0.71563,0.19743 0.19858,0.05474 0.51705,0.14267 0.71564,0.19704 0.19858,0.05436 0.51705,0.14094 0.71564,0.19487 0.19858,0.05391 0.51704,0.14026 0.71562,0.19375 0.1986,0.0535 0.51706,0.13874 0.71564,0.19184 0.19858,0.05311 0.51704,0.13804 0.71564,0.19096 0.19857,0.05293 0.51704,0.13796 0.71563,0.19055 0.19858,0.0526 0.51705,0.13663 0.71562,0.18857 0.1986,0.05194 0.51707,0.13417 0.71564,0.18578 0.19858,0.0516 0.51705,0.1349 0.71564,0.1862 0.19858,0.05131 0.51704,0.1328 0.71562,0.18362 0.19859,0.05083 0.51706,0.13219 0.71564,0.18276 0.19859,0.05054 0.51706,0.1311 0.71563,0.18165 0.19858,0.05057 0.51706,0.1325 0.71566,0.18275 0.19858,0.05026 0.51704,0.12962 0.71562,0.1795 0.19859,0.04991 0.51706,0.13055 0.71564,0.18016 0.19858,0.04959 0.51704,0.12831 0.71563,0.17734 0.19858,0.04902 0.51705,0.12738 0.71564,0.17605 0.19858,0.04866 0.51705,0.12628 0.71562,0.17473 0.19859,0.04846 0.51706,0.12625 0.71564,0.17453 0.19858,0.04828 0.51705,0.12553 0.71564,0.17346 0.19858,0.04791 0.51704,0.12433 0.71564,0.17194 0.19857,0.04757 0.51704,0.12361 0.71562,0.17106 0.19859,0.04743 0.51705,0.12377 0.71563,0.17086 0.19858,0.04706 0.51705,0.12169 0.71564,0.16847 0.19858,0.04677 0.51705,0.12204 0.71562,0.16869 0.1986,0.04666 0.51706,0.12124 0.71564,0.1676 0.19859,0.04635 0.51706,0.12045 0.71564,0.16651 0.19858,0.0461 0.51704,0.11986 0.71564,0.16569 0.19857,0.04582 0.51705,0.11903 0.71563,0.16458 0.1986,0.04553 0.51706,0.11831 0.71564,0.16369 0.19857,0.0454 0.51704,0.11837 0.71564,0.1635 0.19857,0.04517 0.51704,0.11717 0.71563,0.162 0.19858,0.04484 0.51705,0.11651 0.71563,0.16112 0.19859,0.04462 0.71563,0.16048 0.71563,0.16048"
       style="fill:none;stroke:#eb0a36;stroke-width:0.79701;stroke-linecap:butt;stroke-linejoin:miter;stroke-miterlimit:10;stroke-dasharray:none;stroke-opacity:1"
       transform="matrix(1.3333333,0,0,-1.3333333,240.18667,193.30133)" />
    <path
       id="path9"
       d="m -70.867,31.69075 c 0,0 0.51704,-0.11592 0.71562,-0.16048 0.19859,-0.04455 0.51706,-0.11589 0.71563,-0.16069 0.1986,-0.0448 0.51706,-0.11711 0.71564,-0.1622 0.19858,-0.0451 0.51705,-0.11743 0.71564,-0.16285 0.19857,-0.04543 0.51704,-0.11898 0.71562,-0.16457 0.19859,-0.04561 0.51706,-0.11846 0.71564,-0.16416 0.19858,-0.0457 0.51704,-0.11914 0.71564,-0.16523 0.19857,-0.04607 0.51705,-0.12062 0.71565,-0.16697 0.19858,-0.0463 0.51704,-0.12043 0.71562,-0.16694 0.1986,-0.04651 0.51706,-0.12138 0.71564,-0.16826 0.19858,-0.04686 0.51704,-0.12248 0.71563,-0.16955 0.19858,-0.04709 0.51705,-0.12245 0.71563,-0.16979 0.19859,-0.0473 0.51706,-0.12356 0.71563,-0.17128 0.1986,-0.0477 0.51707,-0.12463 0.71564,-0.17258 0.19858,-0.04795 0.51704,-0.12483 0.71564,-0.17302 0.19858,-0.04818 0.51704,-0.12579 0.71562,-0.1743 0.19859,-0.04852 0.51706,-0.1266 0.71564,-0.1754 0.19857,-0.04878 0.51704,-0.12725 0.71563,-0.17625 0.19858,-0.049 0.51705,-0.12735 0.71564,-0.17691 0.19858,-0.04958 0.51705,-0.1302 0.71562,-0.18038 0.1986,-0.05015 0.51706,-0.13101 0.71564,-0.18122 0.19858,-0.05024 0.51704,-0.13057 0.71564,-0.18081 0.19858,-0.05023 0.51704,-0.13082 0.71564,-0.18124 0.19857,-0.0504 0.51705,-0.13115 0.71563,-0.18208 0.19859,-0.05097 0.51706,-0.13373 0.71564,-0.18514 0.19858,-0.05139 0.51705,-0.13379 0.71564,-0.18533 0.19857,-0.05156 0.51704,-0.13419 0.71562,-0.18622 0.19859,-0.05203 0.51706,-0.13632 0.71564,-0.1888 0.19859,-0.05249 0.51705,-0.13667 0.71563,-0.18945 0.19858,-0.05278 0.51705,-0.13782 0.71564,-0.19096 0.19858,-0.05313 0.51704,-0.13859 0.71562,-0.19205 0.1986,-0.05347 0.51706,-0.13942 0.71564,-0.19334 0.19858,-0.05393 0.51704,-0.14095 0.71564,-0.1953 0.19858,-0.05434 0.51704,-0.14154 0.71563,-0.19637 0.19858,-0.05482 0.51705,-0.14352 0.71563,-0.19874 0.19859,-0.05525 0.51706,-0.14374 0.71563,-0.1994 0.19858,-0.05567 0.51705,-0.14562 0.71564,-0.20179 0.19858,-0.05616 0.51705,-0.14651 0.71564,-0.20308 0.19858,-0.05654 0.51706,-0.14764 0.71563,-0.20459 0.1986,-0.05694 0.51706,-0.14848 0.71564,-0.20588 0.19858,-0.05741 0.51704,-0.14989 0.71564,-0.20784 0.19858,-0.05794 0.51704,-0.15121 0.71562,-0.2098 0.19859,-0.05856 0.51706,-0.15325 0.71564,-0.21237 0.19859,-0.05909 0.51706,-0.15413 0.71564,-0.21365 0.19857,-0.05954 0.51704,-0.15534 0.71563,-0.21541 0.19858,-0.06008 0.51705,-0.15688 0.71562,-0.21758 0.1986,-0.0607 0.51706,-0.15862 0.71564,-0.21993 0.19858,-0.0613 0.51705,-0.16008 0.71564,-0.2219 0.19857,-0.06181 0.51704,-0.16124 0.71564,-0.22362 0.19857,-0.06239 0.51704,-0.16284 0.71562,-0.22601 0.19859,-0.06315 0.51706,-0.16544 0.71564,-0.22924 0.19857,-0.06379 0.51704,-0.16616 0.71563,-0.23054 0.19858,-0.06439 0.51704,-0.16844 0.71564,-0.23358 0.19858,-0.06514 0.51704,-0.17004 0.71562,-0.23593 0.19859,-0.0659 0.51708,-0.17238 0.71565,-0.239 0.19858,-0.0666 0.51705,-0.1738 0.71564,-0.24113 0.19858,-0.06732 0.51705,-0.17602 0.71562,-0.24417 0.1986,-0.06813 0.51707,-0.17797 0.71564,-0.24697 0.19859,-0.06901 0.51706,-0.18023 0.71564,-0.25044 0.19858,-0.07022 0.51704,-0.18474 0.71563,-0.25563 0.19858,-0.07091 0.51705,-0.18401 0.71563,-0.25541 0.19859,-0.07142 0.51706,-0.18685 0.71563,-0.25931 0.19858,-0.07247 0.51705,-0.18938 0.71564,-0.26299 0.19858,-0.0736 0.51705,-0.19287 0.71564,-0.26752 0.19858,-0.07466 0.51704,-0.19494 0.71562,-0.27055 0.1986,-0.07563 0.51706,-0.19753 0.71564,-0.27444 0.19858,-0.07694 0.51704,-0.20189 0.71563,-0.28006 0.19858,-0.07818 0.51705,-0.20405 0.71563,-0.28333 0.19859,-0.07928 0.51706,-0.20747 0.71563,-0.28807 0.1986,-0.0806 0.51707,-0.21083 0.71564,-0.29283 0.19858,-0.08202 0.51706,-0.21472 0.71565,-0.29824 0.19858,-0.08349 0.51705,-0.21862 0.71563,-0.30363 0.19859,-0.08501 0.51705,-0.22246 0.71563,-0.30907 0.1986,-0.08657 0.51706,-0.22677 0.71564,-0.31508 0.19858,-0.08831 0.51704,-0.23128 0.71564,-0.32139 0.19858,-0.0901 0.51704,-0.23599 0.71562,-0.32807 0.19859,-0.0921 0.51706,-0.24145 0.71564,-0.33564 0.19858,-0.0942 0.51704,-0.24686 0.71563,-0.34323 0.19858,-0.09638 0.51705,-0.25309 0.71564,-0.35145 0.19858,-0.09835 0.51704,-0.25654 0.71562,-0.35748 0.19859,-0.10095 0.51706,-0.26579 0.71564,-0.37004 0.19858,-0.10423 0.51705,-0.27408 0.71564,-0.38127 0.19858,-0.10722 0.51704,-0.2811 0.71562,-0.39146 0.19859,-0.11035 0.51706,-0.28991 0.71564,-0.404 0.19859,-0.11407 0.51705,-0.30025 0.71563,-0.41825 0.19858,-0.11802 0.51706,-0.3098 0.71566,-0.43232 0.19857,-0.12251 0.51704,-0.32306 0.71562,-0.45071 0.19859,-0.12764 0.51706,-0.33614 0.71564,-0.4693 0.19859,-0.13317 0.51705,-0.35086 0.71563,-0.49051 0.19858,-0.13965 0.51705,-0.36868 0.71564,-0.516 C -6.26135,9.42343 -5.94289,9.18127 -5.74431,9.02489 -5.54572,8.86848 -5.22725,8.61076 -5.02867,8.44357 -4.8301,8.27638 -4.51163,8.00038 -4.31303,7.81984 -4.11446,7.6393 -3.79599,7.33995 -3.5974,7.14226 -3.39882,6.9446 -3.08035,6.61342 -2.88177,6.39505 -2.68318,6.17671 -2.36472,5.82637 -2.16614,5.56848 -1.96756,5.31061 -1.6491,4.861 -1.4505,4.53644 c 0.19858,-0.32456 0.51704,-0.75026 0.71562,-1.30712 0.19859,-0.55687 0.71564,-2.7064 0.71564,-2.7064"
       style="fill:none;stroke:#008080;stroke-width:0.79701;stroke-linecap:butt;stroke-linejoin:miter;stroke-miterlimit:10;stroke-dasharray:none;stroke-opacity:1"
       transform="matrix(1.3333333,0,0,-1.3333333,240.18667,193.30133)" />
    <g
       id="g9"
       aria-label="f(x)=&#10;√"
       transform="matrix(1.3333333,0,0,1.3333333,303.56,140.26267)">
      <path
         id="path10"
         d="m 3.6551953,-3.9850859 h 0.8554688 c 0.1992187,0 0.3046875,0 0.3046875,-0.1992188 0,-0.1054687 -0.1054688,-0.1054687 -0.2695313,-0.1054687 H 3.7137891 l 0.2109375,-1.1367188 c 0.035156,-0.2109375 0.1757812,-0.9140625 0.234375,-1.0429687 0.09375,-0.1875 0.2578125,-0.3398438 0.46875,-0.3398438 0.046875,0 0.3046875,0 0.4921875,0.1875 -0.4335938,0.035156 -0.5390625,0.3867188 -0.5390625,0.5390625 0,0.2226563 0.1757812,0.3398438 0.3632812,0.3398438 0.2695313,0 0.5507813,-0.2109375 0.5507813,-0.5976563 0,-0.4570312 -0.4570313,-0.6796875 -0.8671875,-0.6796875 -0.3398438,0 -0.9609375,0.1757813 -1.265625,1.1601563 -0.058594,0.2109375 -0.082031,0.3164062 -0.328125,1.5703125 H 2.3544141 c -0.1992188,0 -0.3046875,0 -0.3046875,0.1875 0,0.1171875 0.09375,0.1171875 0.28125,0.1171875 h 0.65625 l -0.75,3.93749996 C 2.0614453,0.91335156 1.8973828,1.8274141 1.3700391,1.8274141 c -0.035156,0 -0.28125,0 -0.46875004,-0.1875 C 1.3583203,1.6164766 1.4403516,1.2531953 1.4403516,1.1008516 c 0,-0.22265629 -0.1757813,-0.33984379 -0.3632813,-0.33984379 -0.25781249,0 -0.55078124,0.2109375 -0.55078124,0.59765629 0,0.4453125 0.43359375,0.6796875 0.84375004,0.6796875 0.5507812,0 0.9492187,-0.5859375 1.125,-0.9609375 0.328125,-0.63281254 0.5507812,-1.83984379 0.5625,-1.91015629 z m 0,0"
         style="fill:#eb0a36;fill-opacity:1;fill-rule:nonzero;stroke:none" />
      <path
         id="path11"
         d="m 9.2479688,2.3899141 c 0,-0.035156 0,-0.046875 -0.1640625,-0.2226563 -1.2421875,-1.25390624 -1.5703125,-3.12890624 -1.5703125,-4.6640625 0,-1.7226562 0.3867187,-3.4570312 1.6054687,-4.7109375 0.1289063,-0.1171875 0.1289063,-0.1289062 0.1289063,-0.1640625 0,-0.070312 -0.035156,-0.1054687 -0.09375,-0.1054687 -0.1054688,0 -0.9960938,0.6796875 -1.5820313,1.9453125 -0.515625,1.1015625 -0.6328125,2.203125 -0.6328125,3.0351562 0,0.7851563 0.1171875,1.99218751 0.65625,3.11718751 0.5976563,1.21874999 1.453125,1.87499999 1.5585938,1.87499999 0.058594,0 0.09375,-0.035156 0.09375,-0.1054687 z m 0,0"
         style="fill:#eb0a36;fill-opacity:1;fill-rule:nonzero;stroke:none" />
      <path
         id="path12"
         d="m 13.156172,-3.0124297 c 0.05859,-0.2578125 0.292969,-1.171875 0.984375,-1.171875 0.04687,0 0.292969,0 0.503906,0.1289063 -0.28125,0.046875 -0.480469,0.3046875 -0.480469,0.5390625 0,0.1640625 0.105469,0.3515625 0.375,0.3515625 0.222657,0 0.539063,-0.1875 0.539063,-0.5859375 0,-0.515625 -0.585938,-0.65625 -0.925781,-0.65625 -0.574219,0 -0.925782,0.5273437 -1.042969,0.7617187 -0.257813,-0.65625 -0.785156,-0.7617187 -1.078125,-0.7617187 -1.042969,0 -1.605469,1.2890625 -1.605469,1.5351562 0,0.1054688 0.105469,0.1054688 0.117188,0.1054688 0.08203,0 0.117187,-0.023437 0.128906,-0.1171875 0.339844,-1.0546875 0.996094,-1.3007813 1.335937,-1.3007813 0.1875,0 0.539063,0.09375 0.539063,0.6679688 0,0.3046875 -0.164063,0.9726562 -0.539063,2.3671875 -0.152343,0.62109371 -0.503906,1.04296871 -0.949218,1.04296871 -0.05859,0 -0.28125,0 -0.492188,-0.12890625 0.246094,-0.0585938 0.46875,-0.26953125 0.46875,-0.5390625 0,-0.26953126 -0.222656,-0.35156246 -0.375,-0.35156246 -0.292969,0 -0.539062,0.25781246 -0.539062,0.57421871 0,0.45703125 0.492187,0.65625 0.9375,0.65625 0.65625,0 1.007812,-0.69140625 1.042968,-0.75 0.117188,0.36328125 0.480469,0.75 1.078125,0.75 1.019532,0 1.59375,-1.27734371 1.59375,-1.53515621 0,-0.09375 -0.09375,-0.09375 -0.128906,-0.09375 -0.08203,0 -0.105469,0.035156 -0.128906,0.1054687 -0.328125,1.06640626 -0.996094,1.31250001 -1.324219,1.31250001 -0.386719,0 -0.539062,-0.328125 -0.539062,-0.65625 0,-0.22265625 0.05859,-0.44531251 0.164062,-0.87890621 z m 0,0"
         style="fill:#eb0a36;fill-opacity:1;fill-rule:nonzero;stroke:none" />
      <path
         id="path13"
         d="m 18.403242,-2.4968047 c 0,-0.7734375 -0.117187,-1.9804687 -0.65625,-3.1054687 -0.597656,-1.21875 -1.464844,-1.875 -1.558594,-1.875 -0.05859,0 -0.105468,0.046875 -0.105468,0.1054687 0,0.035156 0,0.046875 0.199218,0.234375 0.972657,0.984375 1.535157,2.5664063 1.535157,4.640625 0,1.71093751 -0.363282,3.45703126 -1.59375,4.7226563 -0.140625,0.1171875 -0.140625,0.1289062 -0.140625,0.1640625 0,0.058594 0.04687,0.1054687 0.105468,0.1054687 0.09375,0 0.996094,-0.6796875 1.582032,-1.94531249 0.503906,-1.1015625 0.632812,-2.20312501 0.632812,-3.04687501 z m 10.59668,-0.7617187 c 0.152344,0 0.339844,0 0.339844,-0.1992188 0,-0.1992187 -0.1875,-0.1992187 -0.328125,-0.1992187 h -5.964844 c -0.140625,0 -0.328125,0 -0.328125,0.1992187 0,0.1992188 0.1875,0.1992188 0.339844,0.1992188 z m 0.01172,1.9335937 c 0.140625,0 0.328125,0 0.328125,-0.1992187 0,-0.1992188 -0.1875,-0.1992188 -0.339844,-0.1992188 h -5.941406 c -0.152344,0 -0.339844,0 -0.339844,0.1992188 0,0.1992187 0.1875,0.1992187 0.328125,0.1992187 z m 0,0"
         style="fill:#eb0a36;fill-opacity:1;fill-rule:nonzero;stroke:none" />
      <path
         id="path14"
         d="m 36.555586,1.3440156 -1.757813,-3.8789062 c -0.07031,-0.1523438 -0.117187,-0.1523438 -0.152343,-0.1523438 -0.01172,0 -0.05859,0 -0.164063,0.070312 l -0.949219,0.7265625 c -0.128906,0.09375 -0.128906,0.1289063 -0.128906,0.1523438 0,0.046875 0.03516,0.1054687 0.105469,0.1054687 0.05859,0 0.222656,-0.1289062 0.328125,-0.2109375 0.07031,-0.046875 0.210937,-0.1640625 0.328125,-0.2460937 l 1.957031,4.3125 c 0.07031,0.1640625 0.117188,0.1640625 0.210938,0.1640625 0.152343,0 0.175781,-0.058594 0.246093,-0.1992188 l 4.523438,-9.3632812 c 0.07031,-0.140625 0.07031,-0.1757813 0.07031,-0.1992188 0,-0.1054687 -0.08203,-0.1992187 -0.199218,-0.1992187 -0.08203,0 -0.152344,0.046875 -0.222657,0.2109375 z m 0,0"
         style="fill:#eb0a36;fill-opacity:1;fill-rule:nonzero;stroke:none" />
    </g>
    <path
       id="path15"
       d="M 0,0 H 5.694"
       style="fill:none;stroke:#eb0a36;stroke-width:0.398;stroke-linecap:butt;stroke-linejoin:miter;stroke-miterlimit:10;stroke-dasharray:none;stroke-opacity:1"
       transform="matrix(1.3333333,0,0,-1.3333333,358.19733,130.42933)" />
    <path
       id="path16"
       d="m 3.3295391,-3.0124297 c 0.058594,-0.2578125 0.2929687,-1.171875 0.984375,-1.171875 0.046875,0 0.2929687,0 0.5039062,0.1289063 -0.28125,0.046875 -0.4804687,0.3046875 -0.4804687,0.5390625 0,0.1640625 0.1054687,0.3515625 0.375,0.3515625 0.2226562,0 0.5390625,-0.1875 0.5390625,-0.5859375 0,-0.515625 -0.5859375,-0.65625 -0.9257813,-0.65625 -0.5742187,0 -0.9257812,0.5273437 -1.0429687,0.7617187 -0.2578125,-0.65625 -0.7851563,-0.7617187 -1.078125,-0.7617187 -1.0429688,0 -1.60546879,1.2890625 -1.60546879,1.5351562 0,0.1054688 0.10546875,0.1054688 0.1171875,0.1054688 0.0820313,0 0.1171875,-0.023437 0.12890625,-0.1171875 0.33984374,-1.0546875 0.99609374,-1.3007813 1.33593754,-1.3007813 0.1875,0 0.5390625,0.09375 0.5390625,0.6679688 0,0.3046875 -0.1640625,0.9726562 -0.5390625,2.3671875 -0.1523438,0.62109371 -0.5039063,1.04296871 -0.9492188,1.04296871 -0.058594,0 -0.28124999,0 -0.49218749,-0.12890625 0.24609375,-0.0585938 0.46874999,-0.26953125 0.46874999,-0.5390625 0,-0.26953126 -0.22265624,-0.35156246 -0.37499999,-0.35156246 -0.29296875,0 -0.5390625,0.25781246 -0.5390625,0.57421871 0,0.45703125 0.4921875,0.65625 0.93749999,0.65625 0.65625,0 1.0078125,-0.69140625 1.0429688,-0.75 0.1171875,0.36328125 0.4804687,0.75 1.078125,0.75 1.0195312,0 1.59375,-1.27734371 1.59375,-1.53515621 0,-0.09375 -0.09375,-0.09375 -0.1289063,-0.09375 -0.082031,0 -0.1054687,0.035156 -0.1289062,0.1054687 -0.328125,1.06640626 -0.9960938,1.31250001 -1.3242188,1.31250001 -0.3867187,0 -0.5390625,-0.328125 -0.5390625,-0.65625 0,-0.22265625 0.058594,-0.44531251 0.1640625,-0.87890621 z m 0,0"
       style="fill:#eb0a36;fill-opacity:1;fill-rule:nonzero;stroke:none"
       aria-label="x"
       transform="matrix(1.3333333,0,0,1.3333333,358.19733,140.26267)" />
    <g
       id="g16"
       aria-label="f&#10;5&#10;(x)=&#10;√"
       transform="matrix(1.3333333,0,0,1.3333333,107.15333,140.49333)">
      <path
         id="path17"
         d="m 3.6555078,-3.9852344 h 0.8554688 c 0.1992187,0 0.3046875,0 0.3046875,-0.1992187 0,-0.1054688 -0.1054688,-0.1054688 -0.2695313,-0.1054688 H 3.7141016 l 0.2109375,-1.1367187 c 0.035156,-0.2109375 0.1757812,-0.9140625 0.234375,-1.0429688 0.09375,-0.1875 0.2578125,-0.3398437 0.46875,-0.3398437 0.046875,0 0.3046875,0 0.4921875,0.1875 -0.4335938,0.035156 -0.5390625,0.3867187 -0.5390625,0.5390625 0,0.2226562 0.1757812,0.3398437 0.3632812,0.3398437 0.2695313,0 0.5507813,-0.2109375 0.5507813,-0.5976562 0,-0.4570313 -0.4570313,-0.6796875 -0.8671875,-0.6796875 -0.3398438,0 -0.9609375,0.1757812 -1.265625,1.1601562 -0.058594,0.2109375 -0.082031,0.3164063 -0.328125,1.5703125 H 2.3547266 c -0.1992188,0 -0.3046875,0 -0.3046875,0.1875 0,0.1171875 0.09375,0.1171875 0.28125,0.1171875 h 0.65625 l -0.75,3.93750003 C 2.0617578,0.91320313 1.8976953,1.8272656 1.3703516,1.8272656 c -0.035156,0 -0.28125,0 -0.46875004,-0.1875 C 1.3586328,1.6163281 1.4406641,1.2530469 1.4406641,1.1007031 c 0,-0.22265622 -0.1757813,-0.33984372 -0.3632813,-0.33984372 -0.25781249,0 -0.55078124,0.2109375 -0.55078124,0.59765622 0,0.4453125 0.43359375,0.6796875 0.84375004,0.6796875 0.5507812,0 0.9492187,-0.5859375 1.125,-0.9609375 0.328125,-0.63281247 0.5507812,-1.83984372 0.5625,-1.91015622 z m 0,0"
         style="fill:#008080;fill-opacity:1;fill-rule:nonzero;stroke:none" />
      <path
         id="path18"
         d="m 5.9553125,-2.3944141 c 0.3632812,0.09375 0.5625,0.09375 0.6796875,0.09375 0.9140625,0 1.4648437,-0.6328125 1.4648437,-0.7382812 0,-0.070312 -0.046875,-0.09375 -0.082031,-0.09375 -0.011719,0 -0.035156,0 -0.058594,0.023437 -0.1640625,0.058594 -0.5390625,0.1992187 -1.0546875,0.1992187 -0.1992187,0 -0.5625,-0.011719 -1.0195312,-0.1875 -0.070312,-0.035156 -0.082031,-0.035156 -0.082031,-0.035156 -0.09375,0 -0.09375,0.070312 -0.09375,0.1875 v 2.06249999 c 0,0.1171875 0,0.19921875 0.1054688,0.19921875 0.070312,0 0.070312,-0.0117188 0.140625,-0.10546875 C 6.26,-1.1639453 6.681875,-1.2225391 6.9279687,-1.2225391 c 0.421875,0 0.609375,0.33984379 0.6445313,0.38671879 0.1171875,0.234375 0.1640625,0.50390625 0.1640625,0.90234375 0,0.2109375 0,0.62109375 -0.2109375,0.92578125 C 7.3498437,1.2501172 7.056875,1.4141797 6.7053125,1.4141797 6.26,1.4141797 5.79125,1.1563672 5.6154687,0.69933594 5.885,0.72277344 6.0139062,0.54699219 6.0139062,0.35949219 c 0,-0.3046875 -0.2578125,-0.3515625 -0.3515625,-0.3515625 -0.011719,0 -0.3515625,0 -0.3515625,0.375 0,0.62109371 0.5742188,1.25390621 1.4179688,1.25390621 0.890625,0 1.6640625,-0.66796871 1.6640625,-1.54687496 0,-0.78515625 -0.5976563,-1.51171874 -1.453125,-1.51171874 -0.3164063,0 -0.6796875,0.082031 -0.984375,0.3398437 z m 0,0"
         style="fill:#008080;fill-opacity:1;fill-rule:nonzero;stroke:none" />
      <path
         id="path19"
         d="m 12.640859,2.3897656 c 0,-0.035156 0,-0.046875 -0.164062,-0.2226562 -1.242188,-1.25390627 -1.570313,-3.12890627 -1.570313,-4.6640625 0,-1.7226563 0.386719,-3.4570313 1.605469,-4.7109375 0.128906,-0.1171875 0.128906,-0.1289063 0.128906,-0.1640625 0,-0.070312 -0.03516,-0.1054688 -0.09375,-0.1054688 -0.105468,0 -0.996093,0.6796875 -1.582031,1.9453125 -0.515625,1.1015625 -0.632812,2.203125 -0.632812,3.0351563 0,0.7851562 0.117187,1.99218748 0.65625,3.11718748 0.597656,1.21875002 1.453125,1.87500002 1.558593,1.87500002 0.05859,0 0.09375,-0.035156 0.09375,-0.1054688 z m 0,0"
         style="fill:#008080;fill-opacity:1;fill-rule:nonzero;stroke:none" />
      <path
         id="path20"
         d="m 16.549062,-3.0125781 c 0.05859,-0.2578125 0.292969,-1.171875 0.984375,-1.171875 0.04687,0 0.292969,0 0.503907,0.1289062 -0.28125,0.046875 -0.480469,0.3046875 -0.480469,0.5390625 0,0.1640625 0.105469,0.3515625 0.375,0.3515625 0.222656,0 0.539062,-0.1875 0.539062,-0.5859375 0,-0.515625 -0.585937,-0.65625 -0.925781,-0.65625 -0.574219,0 -0.925781,0.5273438 -1.042969,0.7617188 -0.257812,-0.65625 -0.785156,-0.7617188 -1.078125,-0.7617188 -1.042968,0 -1.605468,1.2890625 -1.605468,1.5351563 0,0.1054687 0.105468,0.1054687 0.117187,0.1054687 0.08203,0 0.117188,-0.023437 0.128906,-0.1171875 0.339844,-1.0546875 0.996094,-1.3007812 1.335938,-1.3007812 0.1875,0 0.539062,0.09375 0.539062,0.6679687 0,0.3046875 -0.164062,0.9726563 -0.539062,2.3671875 -0.152344,0.62109378 -0.503906,1.04296878 -0.949219,1.04296878 -0.05859,0 -0.28125,0 -0.492187,-0.12890625 0.246093,-0.0585938 0.46875,-0.26953125 0.46875,-0.5390625 0,-0.26953123 -0.222657,-0.35156253 -0.375,-0.35156253 -0.292969,0 -0.539063,0.25781253 -0.539063,0.57421878 0,0.45703125 0.492188,0.65625 0.9375,0.65625 0.65625,0 1.007813,-0.69140625 1.042969,-0.75 0.117187,0.36328125 0.480469,0.75 1.078125,0.75 1.019531,0 1.59375,-1.27734378 1.59375,-1.53515628 0,-0.09375 -0.09375,-0.09375 -0.128906,-0.09375 -0.08203,0 -0.105469,0.035156 -0.128907,0.1054688 -0.328125,1.06640623 -0.996093,1.31249998 -1.324218,1.31249998 -0.386719,0 -0.539063,-0.328125 -0.539063,-0.65625 0,-0.22265625 0.05859,-0.44531248 0.164063,-0.87890628 z m 0,0"
         style="fill:#008080;fill-opacity:1;fill-rule:nonzero;stroke:none" />
      <path
         id="path21"
         d="m 21.799062,-2.4969531 c 0,-0.7734375 -0.117187,-1.9804688 -0.65625,-3.1054688 -0.597656,-1.21875 -1.464843,-1.875 -1.558593,-1.875 -0.05859,0 -0.105469,0.046875 -0.105469,0.1054688 0,0.035156 0,0.046875 0.199219,0.234375 0.972656,0.984375 1.535156,2.5664062 1.535156,4.640625 0,1.71093748 -0.363281,3.45703123 -1.59375,4.7226562 -0.140625,0.1171875 -0.140625,0.1289063 -0.140625,0.1640625 0,0.058594 0.04687,0.1054688 0.105469,0.1054688 0.09375,0 0.996093,-0.6796875 1.582031,-1.94531252 0.503906,-1.1015625 0.632812,-2.20312498 0.632812,-3.04687498 z m 10.60254,-0.7617188 c 0.152343,0 0.339843,0 0.339843,-0.1992187 0,-0.1992188 -0.1875,-0.1992188 -0.328125,-0.1992188 h -5.964843 c -0.140625,0 -0.328125,0 -0.328125,0.1992188 0,0.1992187 0.1875,0.1992187 0.339843,0.1992187 z m 0.01172,1.9335938 c 0.140625,0 0.328125,0 0.328125,-0.1992188 0,-0.1992187 -0.1875,-0.1992187 -0.339843,-0.1992187 h -5.941407 c -0.152343,0 -0.339843,0 -0.339843,0.1992187 0,0.1992188 0.1875,0.1992188 0.328125,0.1992188 z m 0,0"
         style="fill:#008080;fill-opacity:1;fill-rule:nonzero;stroke:none" />
      <path
         id="path22"
         d="M 39.951406,0.99816406 38.193594,-2.8807422 c -0.07031,-0.1523437 -0.117188,-0.1523437 -0.152344,-0.1523437 -0.01172,0 -0.05859,0 -0.164063,0.070312 l -0.949218,0.7265625 c -0.128907,0.09375 -0.128907,0.1289062 -0.128907,0.1523437 0,0.046875 0.03516,0.1054688 0.105469,0.1054688 0.05859,0 0.222656,-0.1289063 0.328125,-0.2109375 0.07031,-0.046875 0.210938,-0.1640625 0.328125,-0.2460938 l 1.957031,4.3125 c 0.07031,0.1640625 0.117188,0.1640625 0.210938,0.1640625 0.152344,0 0.175781,-0.058594 0.246094,-0.1992187 l 4.523437,-9.3632813 c 0.07031,-0.140625 0.07031,-0.1757812 0.07031,-0.1992187 0,-0.1054688 -0.08203,-0.1992188 -0.199219,-0.1992188 -0.08203,0 -0.152344,0.046875 -0.222656,0.2109375 z m 0,0"
         style="fill:#008080;fill-opacity:1;fill-rule:nonzero;stroke:none" />
    </g>
    <path
       id="path23"
       d="M 0,0 H 13.443"
       style="fill:none;stroke:#008080;stroke-width:0.398;stroke-linecap:butt;stroke-linejoin:miter;stroke-miterlimit:10;stroke-dasharray:none;stroke-opacity:1"
       transform="matrix(1.3333333,0,0,-1.3333333,166.32,130.19867)" />
    <g
       id="g23"
       aria-label="−x"
       transform="matrix(1.3333333,0,0,1.3333333,166.32,140.49333)">
      <path
         id="path24"
         d="m 6.5627344,-2.2977344 c 0.1757812,0 0.3515625,0 0.3515625,-0.1992187 0,-0.1992188 -0.1757813,-0.1992188 -0.3515625,-0.1992188 h -5.390625 c -0.1640625,0 -0.33984377,0 -0.33984377,0.1992188 0,0.1992187 0.17578127,0.1992187 0.33984377,0.1992187 z m 0,0"
         style="fill:#008080;fill-opacity:1;fill-rule:nonzero;stroke:none" />
      <path
         id="path25"
         d="m 11.077383,-3.0125781 c 0.05859,-0.2578125 0.292969,-1.171875 0.984375,-1.171875 0.04687,0 0.292969,0 0.503906,0.1289062 -0.28125,0.046875 -0.480469,0.3046875 -0.480469,0.5390625 0,0.1640625 0.105469,0.3515625 0.375,0.3515625 0.222657,0 0.539063,-0.1875 0.539063,-0.5859375 0,-0.515625 -0.585938,-0.65625 -0.925781,-0.65625 -0.574219,0 -0.925782,0.5273438 -1.042969,0.7617188 -0.257813,-0.65625 -0.785156,-0.7617188 -1.0781252,-0.7617188 -1.0429687,0 -1.6054687,1.2890625 -1.6054687,1.5351563 0,0.1054687 0.1054687,0.1054687 0.1171875,0.1054687 0.082031,0 0.1171875,-0.023437 0.1289062,-0.1171875 0.3398438,-1.0546875 0.9960938,-1.3007812 1.3359375,-1.3007812 0.1874997,0 0.5390627,0.09375 0.5390627,0.6679687 0,0.3046875 -0.164063,0.9726563 -0.5390627,2.3671875 -0.1523437,0.62109378 -0.5039062,1.04296878 -0.9492187,1.04296878 -0.058594,0 -0.28125,0 -0.4921875,-0.12890625 0.2460937,-0.0585938 0.46875,-0.26953125 0.46875,-0.5390625 0,-0.26953123 -0.2226563,-0.35156253 -0.375,-0.35156253 -0.2929688,0 -0.5390625,0.25781253 -0.5390625,0.57421878 0,0.45703125 0.4921875,0.65625 0.9375,0.65625 0.65625,0 1.0078125,-0.69140625 1.0429684,-0.75 0.117188,0.36328125 0.480469,0.75 1.078125,0.75 1.019532,0 1.59375,-1.27734378 1.59375,-1.53515628 0,-0.09375 -0.09375,-0.09375 -0.128906,-0.09375 -0.08203,0 -0.105469,0.035156 -0.128906,0.1054688 -0.328125,1.06640623 -0.996094,1.31249998 -1.324219,1.31249998 -0.386719,0 -0.539062,-0.328125 -0.539062,-0.65625 0,-0.22265625 0.05859,-0.44531248 0.164062,-0.87890628 z m 0,0"
         style="fill:#008080;fill-opacity:1;fill-rule:nonzero;stroke:none" />
    </g>
  </g>
</svg>
