<?xml version="1.0" encoding="UTF-8" standalone="no"?>
<!-- Created with Inkscape (http://www.inkscape.org/) -->

<svg
   version="1.1"
   id="svg1"
   width="298.31882"
   height="127.5523"
   viewBox="0 0 298.31882 127.5523"
   sodipodi:docname="1.3-ejemplo-seno2.svg"
   inkscape:version="1.4.2 (f4327f4, 2025-05-13)"
   xmlns:inkscape="http://www.inkscape.org/namespaces/inkscape"
   xmlns:sodipodi="http://sodipodi.sourceforge.net/DTD/sodipodi-0.dtd"
   xmlns="http://www.w3.org/2000/svg"
   xmlns:svg="http://www.w3.org/2000/svg">
  <defs
     id="defs1" />
  <sodipodi:namedview
     id="namedview1"
     pagecolor="#ffffff"
     bordercolor="#000000"
     borderopacity="0.25"
     inkscape:showpageshadow="2"
     inkscape:pageopacity="0.0"
     inkscape:pagecheckerboard="0"
     inkscape:deskcolor="#d1d1d1"
     inkscape:zoom="2.2241536"
     inkscape:cx="152.19273"
     inkscape:cy="83.402513"
     inkscape:window-width="1920"
     inkscape:window-height="1009"
     inkscape:window-x="-8"
     inkscape:window-y="-8"
     inkscape:window-maximized="1"
     inkscape:current-layer="g1">
    <inkscape:page
       x="0"
       y="0"
       inkscape:label="13"
       id="page1"
       width="298.31882"
       height="127.5523"
       margin="0"
       bleed="0" />
  </sodipodi:namedview>
  <g
     id="g1"
     inkscape:groupmode="layer"
     inkscape:label="13"
     transform="translate(-90.118683,-97.875006)">
    <path
       id="path2"
       d="M -73.70099,0 H 146.94373"
       style="fill:none;stroke:#000000;stroke-width:0.3985;stroke-linecap:butt;stroke-linejoin:miter;stroke-miterlimit:10;stroke-dasharray:none;stroke-opacity:1"
       transform="matrix(1.3333333,0,0,-1.3333333,188.38667,176.29333)" />
    <path
       id="path3"
       d="M -1.19551,1.59401 C -1.09587,0.99626 0,0.09961 0.29886,0 0,-0.09961 -1.09587,-0.99626 -1.19551,-1.59401"
       style="fill:none;stroke:#000000;stroke-width:0.31879;stroke-linecap:round;stroke-linejoin:round;stroke-miterlimit:10;stroke-dasharray:none;stroke-opacity:1"
       transform="matrix(1.3333333,0,0,-1.3333333,384.31164,176.29333)" />
    <path
       id="path4"
       d="m 3.64575,-3.2939922 c 0.070312,-0.28125 0.3164063,-1.2890625 1.078125,-1.2890625 0.058594,0 0.3164063,0 0.5507813,0.140625 -0.3046875,0.058594 -0.5273438,0.328125 -0.5273438,0.5859375 0,0.1757813 0.1171875,0.3867188 0.4101563,0.3867188 0.2460937,0 0.5976562,-0.1992188 0.5976562,-0.6328125 0,-0.5625 -0.6445312,-0.7265625 -1.0195312,-0.7265625 -0.6328125,0 -1.0195313,0.5859375 -1.1484375,0.8320312 -0.2695313,-0.7148437 -0.8554688,-0.8320312 -1.171875,-0.8320312 -1.1367188,0 -1.75781255,1.4179687 -1.75781255,1.6875 0,0.1054687 0.10546875,0.1054687 0.12890625,0.1054687 0.0820313,0 0.1171875,-0.023437 0.140625,-0.1171875 0.375,-1.1601562 1.0898438,-1.4296875 1.4648438,-1.4296875 0.2109375,0 0.5859375,0.09375 0.5859375,0.7265625 0,0.3398438 -0.1875,1.078125 -0.5859375,2.6015625 -0.1757813,0.67968751 -0.5625,1.13671876 -1.0429688,1.13671876 -0.058594,0 -0.3164062,0 -0.5390625,-0.140625 0.2695313,-0.0585938 0.515625,-0.29296875 0.515625,-0.59765625 0,-0.29296871 -0.2460937,-0.37500001 -0.41015625,-0.37500001 -0.328125,0 -0.59765625,0.28125001 -0.59765625,0.63281251 0,0.50390625 0.55078125,0.71484375 1.03125,0.71484375 0.7148438,0 1.1015625,-0.76171875 1.1367188,-0.83203125 0.1289062,0.41015625 0.5273437,0.83203125 1.1835937,0.83203125 1.125,0 1.7460938,-1.40624996 1.7460938,-1.67578126 0,-0.1054687 -0.1054688,-0.1054687 -0.1289063,-0.1054687 -0.1054687,0 -0.1289062,0.035156 -0.140625,0.1171875 -0.3632812,1.16015621 -1.1132812,1.42968746 -1.453125,1.42968746 -0.4335937,0 -0.609375,-0.3515625 -0.609375,-0.7265625 0,-0.23437496 0.070312,-0.48046876 0.1875,-0.96093746 z m 0,0"
       style="fill:#000000;fill-opacity:1;fill-rule:nonzero;stroke:none"
       aria-label="x"
       transform="matrix(1.3333333,0,0,1.3333333,380.764,187.66933)" />
    <path
       id="path5"
       d="M -57.85526,-1.84262 V 1.84262"
       style="fill:none;stroke:#000000;stroke-width:0.3985;stroke-linecap:butt;stroke-linejoin:miter;stroke-miterlimit:10;stroke-dasharray:none;stroke-opacity:1"
       transform="matrix(1.3333333,0,0,-1.3333333,188.38667,176.29333)" />
    <path
       id="path6"
       d="M -28.92776,-1.84262 V 1.84262"
       style="fill:none;stroke:#000000;stroke-width:0.3985;stroke-linecap:butt;stroke-linejoin:miter;stroke-miterlimit:10;stroke-dasharray:none;stroke-opacity:1"
       transform="matrix(1.3333333,0,0,-1.3333333,188.38667,176.29333)" />
    <path
       id="path7"
       d="M 28.92776,-1.84262 V 1.84262"
       style="fill:none;stroke:#000000;stroke-width:0.3985;stroke-linecap:butt;stroke-linejoin:miter;stroke-miterlimit:10;stroke-dasharray:none;stroke-opacity:1"
       transform="matrix(1.3333333,0,0,-1.3333333,188.38667,176.29333)" />
    <path
       id="path8"
       d="M 57.85526,-1.84262 V 1.84262"
       style="fill:none;stroke:#000000;stroke-width:0.3985;stroke-linecap:butt;stroke-linejoin:miter;stroke-miterlimit:10;stroke-dasharray:none;stroke-opacity:1"
       transform="matrix(1.3333333,0,0,-1.3333333,188.38667,176.29333)" />
    <path
       id="path9"
       d="M 86.78304,-1.84262 V 1.84262"
       style="fill:none;stroke:#000000;stroke-width:0.3985;stroke-linecap:butt;stroke-linejoin:miter;stroke-miterlimit:10;stroke-dasharray:none;stroke-opacity:1"
       transform="matrix(1.3333333,0,0,-1.3333333,188.38667,176.29333)" />
    <path
       id="path10"
       d="M 115.71056,-1.84262 V 1.84262"
       style="fill:none;stroke:#000000;stroke-width:0.3985;stroke-linecap:butt;stroke-linejoin:miter;stroke-miterlimit:10;stroke-dasharray:none;stroke-opacity:1"
       transform="matrix(1.3333333,0,0,-1.3333333,188.38667,176.29333)" />
    <path
       id="path11"
       d="M 0,-36.85048 V 54.81746"
       style="fill:none;stroke:#000000;stroke-width:0.3985;stroke-linecap:butt;stroke-linejoin:miter;stroke-miterlimit:10;stroke-dasharray:none;stroke-opacity:1"
       transform="matrix(1.3333333,0,0,-1.3333333,188.38667,176.29333)" />
    <path
       id="path12"
       d="M -1.19551,1.59401 C -1.09587,0.99626 0,0.09961 0.29886,0 0,-0.09961 -1.09587,-0.99626 -1.19551,-1.59401"
       style="fill:none;stroke:#000000;stroke-width:0.31879;stroke-linecap:round;stroke-linejoin:round;stroke-miterlimit:10;stroke-dasharray:none;stroke-opacity:1"
       transform="matrix(0,-1.3333333,-1.3333333,0,188.38667,103.20339)" />
    <path
       id="path13"
       d="m 5.2976953,-4.1587812 c 0.046875,-0.1523438 0.046875,-0.1757813 0.046875,-0.2460938 0,-0.1992187 -0.1523437,-0.2929687 -0.3164062,-0.2929687 -0.1054688,0 -0.28125,0.058594 -0.375,0.2226562 -0.023437,0.058594 -0.1171875,0.3984375 -0.1523438,0.5976563 -0.082031,0.28125 -0.1523437,0.5742187 -0.2226562,0.8671875 l -0.4921875,1.96875 c -0.046875,0.16406245 -0.515625,0.9257812 -1.2304688,0.9257812 -0.5625,0 -0.6796875,-0.48046875 -0.6796875,-0.890625 0,-0.4921875 0.1875,-1.171875 0.5625,-2.1328125 0.1757813,-0.4453125 0.2109375,-0.5742187 0.2109375,-0.7851562 0,-0.4921875 -0.3515625,-0.9023438 -0.890625,-0.9023438 -1.04296874,0 -1.44140624,1.5820313 -1.44140624,1.6875 0,0.1054688 0.10546875,0.1054688 0.12890625,0.1054688 0.10546875,0 0.1171875,-0.023437 0.17578125,-0.1992188 0.29296875,-1.0195312 0.72656254,-1.3476562 1.10156254,-1.3476562 0.09375,0 0.2695312,0 0.2695312,0.3515625 0,0.2695312 -0.1054687,0.5507812 -0.1757812,0.7617187 -0.4453125,1.1601563 -0.6328125,1.78125 -0.6328125,2.2851563 0,0.9726562 0.6796875,1.3007812 1.3242187,1.3007812 0.421875,0 0.796875,-0.1875 1.1015625,-0.4921875 -0.140625,0.57421875 -0.2695312,1.1015625 -0.703125,1.6875 -0.2929687,0.3632813 -0.703125,0.6796875 -1.2070312,0.6796875 -0.1523438,0 -0.6445313,-0.023437 -0.83203129,-0.4570312 0.17578129,0 0.31640629,0 0.48046879,-0.1289063 0.1054687,-0.09375 0.2109375,-0.234375 0.2109375,-0.4453125 0,-0.33984375 -0.2929688,-0.38671875 -0.3984375,-0.38671875 -0.25781254,0 -0.60937504,0.17578125 -0.60937504,0.71484375 0,0.5390625 0.48046874,0.9492188 1.14843754,0.9492188 1.125,0 2.25,-0.9960938 2.5546875,-2.22656255 z m 0,0"
       style="fill:#000000;fill-opacity:1;fill-rule:nonzero;stroke:none"
       aria-label="y"
       transform="matrix(1.3333333,0,0,1.3333333,175.62,104.31067)" />
    <path
       id="path14"
       d="m 2.6365938,-3.7150937 h 1.125 c -0.328125,1.4765625 -0.4101563,1.8984375 -0.4101563,2.5664062 0,0.15234375 0,0.421875 0.070312,0.76171875 0.1054688,0.43359375 0.2109375,0.4921875 0.3632813,0.4921875 0.1992187,0 0.4101562,-0.17578125 0.4101562,-0.375 0,-0.0585938 0,-0.0820313 -0.058594,-0.22265625 -0.2929688,-0.7148437 -0.2929688,-1.359375 -0.2929688,-1.640625 0,-0.5273437 0.070312,-1.0664062 0.1757813,-1.5820312 H 5.156125 c 0.1289063,0 0.4921875,0 0.4921875,-0.3398438 0,-0.234375 -0.2109375,-0.234375 -0.3984375,-0.234375 H 1.9100313 c -0.2109375,0 -0.5976563,0 -1.03125005,0.46875 -0.3515625,0.3867188 -0.609375,0.84375 -0.609375,0.890625 0,0.011719 0,0.1054688 0.1171875,0.1054688 0.0820313,0 0.10546875,-0.046875 0.1640625,-0.1289063 C 1.031125,-3.7150937 1.6170625,-3.7150937 1.8162813,-3.7150937 h 0.5625 c -0.3164063,1.2070312 -0.8554688,2.4140625 -1.2773438,3.3164062 -0.070312,0.15234375 -0.070312,0.1640625 -0.070312,0.234375 0,0.19921875 0.1523438,0.26953125 0.28125,0.26953125 0.3046875,0 0.3867188,-0.26953125 0.5039063,-0.64453125 0.140625,-0.45703125 0.140625,-0.4804687 0.2695312,-0.9726562 z m 0,0"
       style="fill:#000000;fill-opacity:1;fill-rule:nonzero;stroke:none"
       aria-label="π"
       transform="matrix(1.3333333,0,0,1.3333333,258.06267,187.12533)" />
    <g
       id="g14"
       aria-label="−π"
       transform="matrix(1.3333333,0,0,1.3333333,95.670667,189.15467)">
      <path
         id="path15"
         d="m 6.5634063,-2.2956875 c 0.1757812,0 0.3515625,0 0.3515625,-0.1992187 0,-0.1992188 -0.1757813,-0.1992188 -0.3515625,-0.1992188 h -5.390625 c -0.1640625,0 -0.3398438,0 -0.3398438,0.1992188 0,0.1992187 0.1757813,0.1992187 0.3398438,0.1992187 z m 0,0"
         style="fill:#000000;fill-opacity:1;fill-rule:nonzero;stroke:none" />
      <path
         id="path16"
         d="m 10.386648,-3.7136562 h 1.125 c -0.328125,1.4765625 -0.410156,1.8984375 -0.410156,2.5664062 0,0.15234375 0,0.421875 0.07031,0.76171875 0.105468,0.43359375 0.210937,0.4921875 0.363281,0.4921875 0.199219,0 0.410156,-0.17578125 0.410156,-0.375 0,-0.0585938 0,-0.0820313 -0.05859,-0.22265625 -0.292968,-0.7148437 -0.292968,-1.359375 -0.292968,-1.640625 0,-0.5273437 0.07031,-1.0664062 0.175781,-1.5820312 h 1.136719 c 0.128906,0 0.492187,0 0.492187,-0.3398438 0,-0.234375 -0.210937,-0.234375 -0.398437,-0.234375 H 9.6600859 c -0.2109375,0 -0.5976562,0 -1.03125,0.46875 -0.3515625,0.3867188 -0.609375,0.84375 -0.609375,0.890625 0,0.011719 0,0.1054688 0.1171875,0.1054688 0.082031,0 0.1054688,-0.046875 0.1640625,-0.1289063 0.4804688,-0.7617187 1.0664063,-0.7617187 1.265625,-0.7617187 H 10.128836 C 9.8124297,-2.506625 9.2733672,-1.2995937 8.8514922,-0.39725 c -0.070312,0.15234375 -0.070312,0.1640625 -0.070312,0.234375 0,0.19921875 0.1523437,0.26953125 0.28125,0.26953125 0.3046875,0 0.3867187,-0.26953125 0.5039062,-0.64453125 0.140625,-0.45703125 0.140625,-0.4804687 0.2695313,-0.9726562 z m 0,0"
         style="fill:#000000;fill-opacity:1;fill-rule:nonzero;stroke:none" />
    </g>
    <g
       id="g16"
       aria-label="−&#10;π"
       transform="matrix(1.3333333,0,0,1.3333333,141.504,190.64)">
      <path
         id="path17"
         d="m 6.5624297,-2.2964062 c 0.1757812,0 0.3515625,0 0.3515625,-0.1992188 0,-0.1992187 -0.1757813,-0.1992187 -0.3515625,-0.1992187 h -5.390625 c -0.1640625,0 -0.33984376,0 -0.33984376,0.1992187 0,0.1992188 0.17578126,0.1992188 0.33984376,0.1992188 z m 0,0"
         style="fill:#000000;fill-opacity:1;fill-rule:nonzero;stroke:none" />
      <path
         id="path18"
         d="m 11.112234,-6.4536328 h 0.832032 c -0.105469,0.421875 -0.257813,1.0546875 -0.257813,1.6054687 0,0.28125 0.03516,0.46875 0.07031,0.6210938 0.117187,0.3515625 0.210937,0.375 0.316406,0.375 0.164062,0 0.328125,-0.1523438 0.328125,-0.3164063 0,-0.058594 -0.01172,-0.082031 -0.05859,-0.1523437 -0.128906,-0.2578125 -0.257812,-0.65625 -0.257812,-1.2304688 0,-0.1289062 0,-0.4101562 0.105468,-0.9023437 h 0.867188 c 0.128906,0 0.1875,0 0.257812,-0.058594 0.09375,-0.070312 0.117188,-0.1757812 0.117188,-0.2109375 0,-0.1992187 -0.175781,-0.1992187 -0.292969,-0.1992187 H 10.50286 c -0.28125,0 -0.480468,0.058594 -0.7968746,0.3515625 -0.1757813,0.1640625 -0.4453125,0.5390625 -0.4453125,0.5976562 0,0.082031 0.09375,0.082031 0.1171875,0.082031 0.070312,0 0.082031,-0.011719 0.1289062,-0.070312 0.3515625,-0.4921875 0.7851564,-0.4921875 0.9375004,-0.4921875 h 0.421875 c -0.210938,0.7617187 -0.585938,1.59375 -0.796875,2.0039062 -0.04687,0.09375 -0.1171879,0.2460938 -0.1406254,0.2695313 0,0.023437 -0.011719,0.058594 -0.011719,0.1054687 0,0.1054688 0.082031,0.2226563 0.2460944,0.2226563 0.269531,0 0.351562,-0.3164063 0.515625,-0.9375 z m 0,0"
         style="fill:#000000;fill-opacity:1;fill-rule:nonzero;stroke:none" />
    </g>
    <path
       id="path19"
       d="M 0,0 H 4.909"
       style="fill:none;stroke:#000000;stroke-width:0.398;stroke-linecap:butt;stroke-linejoin:miter;stroke-miterlimit:10;stroke-dasharray:none;stroke-opacity:1"
       transform="matrix(1.3333333,0,0,-1.3333333,153.43067,187.31867)" />
    <path
       id="path20"
       d="m 3.5156406,-1.2646328 h -0.234375 c -0.023437,0.1523437 -0.082031,0.56249999 -0.1757812,0.63281249 -0.058594,0.0351563 -0.5976563,0.0351563 -0.6914063,0.0351563 H 1.1250156 C 1.8632969,-1.2411953 2.1093906,-1.440414 2.5195469,-1.768539 c 0.515625,-0.4101563 0.9960937,-0.8437501 0.9960937,-1.5000001 0,-0.8437499 -0.7382812,-1.3593749 -1.6289062,-1.3593749 -0.8671875,0 -1.45312503,0.609375 -1.45312503,1.2421874 0,0.3632813 0.3046875,0.3984375 0.375,0.3984375 0.1640625,0 0.37500003,-0.1171875 0.37500003,-0.375 0,-0.1289062 -0.058594,-0.3632812 -0.42187503,-0.3632812 0.22265625,-0.5039062 0.69140623,-0.65625 1.01953123,-0.65625 0.703125,0 1.0664063,0.5507812 1.0664063,1.1132812 0,0.609375 -0.4335938,1.0898438 -0.65625,1.3359375 l -1.68750003,1.66406259 c -0.0703125,0.0585938 -0.0703125,0.0703125 -0.0703125,0.2695312475 H 3.3164219 Z m 0,0"
       style="fill:#000000;fill-opacity:1;fill-rule:nonzero;stroke:none"
       aria-label="2"
       transform="matrix(1.3333333,0,0,1.3333333,154.05467,195.22133)" />
    <path
       id="path21"
       d="m 2.1686016,-2.5316328 h 0.8320312 c -0.1054687,0.421875 -0.2578125,1.0546875 -0.2578125,1.60546874 0,0.28125 0.035156,0.46875 0.070312,0.62109375 0.1171875,0.3515625 0.2109375,0.375 0.3164063,0.375 0.1640625,0 0.328125,-0.15234375 0.328125,-0.31640625 0,-0.0585938 -0.011719,-0.0820313 -0.058594,-0.15234375 -0.1289062,-0.2578125 -0.2578125,-0.65624999 -0.2578125,-1.23046879 0,-0.1289062 0,-0.4101562 0.1054688,-0.9023437 h 0.8671875 c 0.1289062,0 0.1875,0 0.2578125,-0.058594 0.09375,-0.070312 0.1171875,-0.1757812 0.1171875,-0.2109375 0,-0.1992187 -0.1757813,-0.1992187 -0.2929688,-0.1992187 h -2.636718 c -0.28125,0 -0.4804688,0.058594 -0.79687504,0.3515625 -0.17578125,0.1640625 -0.4453125,0.5390625 -0.4453125,0.5976562 0,0.082031 0.09375,0.082031 0.1171875,0.082031 0.0703125,0 0.0820313,-0.011719 0.12890625,-0.070313 0.3515625,-0.4921875 0.78515629,-0.4921875 0.93749999,-0.4921875 h 0.421875 c -0.2109375,0.7617187 -0.5859375,1.59374999 -0.796875,2.00390624 -0.046875,0.09375 -0.1171875,0.24609375 -0.14062499,0.26953125 0,0.0234375 -0.0117188,0.0585938 -0.0117188,0.10546875 0,0.10546875 0.0820312,0.22265625 0.24609369,0.22265625 0.2695313,0 0.3515625,-0.31640625 0.515625,-0.9375 z m 0,0"
       style="fill:#000000;fill-opacity:1;fill-rule:nonzero;stroke:none"
       aria-label="π"
       transform="matrix(1.3333333,0,0,1.3333333,221.964,185.41067)" />
    <path
       id="path22"
       d="M 0,0 H 4.909"
       style="fill:none;stroke:#000000;stroke-width:0.398;stroke-linecap:butt;stroke-linejoin:miter;stroke-miterlimit:10;stroke-dasharray:none;stroke-opacity:1"
       transform="matrix(1.3333333,0,0,-1.3333333,221.964,187.31867)" />
    <path
       id="path23"
       d="m 3.5160078,-1.2646328 h -0.234375 c -0.023437,0.1523437 -0.082031,0.56249999 -0.1757812,0.63281249 -0.058594,0.0351563 -0.5976563,0.0351563 -0.6914063,0.0351563 H 1.1253828 C 1.8636641,-1.2411953 2.1097578,-1.440414 2.5199141,-1.768539 c 0.515625,-0.4101563 0.9960937,-0.8437501 0.9960937,-1.5000001 0,-0.8437499 -0.7382812,-1.3593749 -1.6289062,-1.3593749 -0.8671875,0 -1.45312504,0.609375 -1.45312504,1.2421874 0,0.3632813 0.3046875,0.3984375 0.375,0.3984375 0.1640625,0 0.37500004,-0.1171875 0.37500004,-0.375 0,-0.1289062 -0.058594,-0.3632812 -0.42187504,-0.3632812 0.22265625,-0.5039062 0.69140624,-0.65625 1.01953124,-0.65625 0.703125,0 1.0664063,0.5507812 1.0664063,1.1132812 0,0.609375 -0.4335938,1.0898438 -0.65625,1.3359375 l -1.68750004,1.66406259 c -0.0703125,0.0585938 -0.0703125,0.0703125 -0.0703125,0.2695312475 H 3.3167891 Z m 0,0"
       style="fill:#000000;fill-opacity:1;fill-rule:nonzero;stroke:none"
       aria-label="2"
       transform="matrix(1.3333333,0,0,1.3333333,222.58933,195.22133)" />
    <g
       id="g23"
       aria-label="3π"
       transform="matrix(1.3333333,0,0,1.3333333,295.47333,187.39867)">
      <path
         id="path24"
         d="m 1.8979297,-2.3322031 c 0.5507812,0 0.9375,0.375 0.9375,1.125 0,0.86718748 -0.5039063,1.12499998 -0.9023438,1.12499998 -0.28125,0 -0.890625,-0.08203125 -1.18359371,-0.4921875 0.32812501,-0.0117188 0.39843751,-0.24609375 0.39843751,-0.38671875 0,-0.22265623 -0.16406251,-0.38671873 -0.38671876,-0.38671873 -0.1875,0 -0.38671875,0.1171875 -0.38671875,0.41015623 0,0.65625 0.72656251,1.078125 1.57031251,1.078125 0.9726562,0 1.640625,-0.64453125 1.640625,-1.34765623 0,-0.5390625 -0.4453125,-1.0898438 -1.21875,-1.2421875 0.7382812,-0.2695313 0.9960937,-0.796875 0.9960937,-1.21875 0,-0.5507813 -0.6328125,-0.9609375 -1.40625,-0.9609375 -0.7734375,0 -1.35937496,0.375 -1.35937496,0.9375 0,0.234375 0.15234375,0.3632812 0.36328125,0.3632812 0.21093751,0 0.35156251,-0.1640625 0.35156251,-0.3515625 0,-0.1992187 -0.140625,-0.3515625 -0.35156251,-0.3632812 0.23437501,-0.3046875 0.71484371,-0.3867188 0.97265621,-0.3867188 0.3164063,0 0.7617188,0.1523438 0.7617188,0.7617188 0,0.2929687 -0.1054688,0.609375 -0.28125,0.8320312 -0.234375,0.2578125 -0.421875,0.28125 -0.7734375,0.2929688 -0.1757813,0.023437 -0.1875,0.023437 -0.2226563,0.023437 -0.011719,0 -0.070312,0.011719 -0.070312,0.09375 0,0.09375 0.058594,0.09375 0.1757813,0.09375 z m 0,0"
         style="fill:#000000;fill-opacity:1;fill-rule:nonzero;stroke:none" />
      <path
         id="path25"
         d="m 6.1401172,-2.5314219 h 0.8320312 c -0.1054687,0.421875 -0.2578125,1.0546875 -0.2578125,1.60546878 0,0.28125 0.035156,0.46875 0.070312,0.62109375 0.1171875,0.3515625 0.2109375,0.375 0.3164063,0.375 0.1640625,0 0.328125,-0.15234375 0.328125,-0.31640625 0,-0.0585938 -0.011719,-0.0820313 -0.058594,-0.15234375 C 7.241679,-0.65642187 7.1127727,-1.0548594 7.1127727,-1.6290781 c 0,-0.1289063 0,-0.4101563 0.1054688,-0.9023438 H 8.085429 c 0.1289062,0 0.1875,0 0.2578125,-0.058594 0.09375,-0.070312 0.1171875,-0.1757813 0.1171875,-0.2109375 0,-0.1992188 -0.1757813,-0.1992188 -0.2929688,-0.1992188 h -2.636718 c -0.28125,0 -0.4804688,0.058594 -0.796875,0.3515625 -0.1757813,0.1640625 -0.4453125,0.5390625 -0.4453125,0.5976563 0,0.082031 0.09375,0.082031 0.1171875,0.082031 0.070312,0 0.082031,-0.011719 0.1289062,-0.070312 0.3515625,-0.4921875 0.7851563,-0.4921875 0.9375,-0.4921875 h 0.421875 c -0.2109375,0.7617188 -0.5859375,1.59375003 -0.796875,2.00390628 -0.046875,0.09375 -0.1171875,0.24609375 -0.140625,0.26953125 0,0.0234375 -0.011719,0.0585938 -0.011719,0.10546875 0,0.10546875 0.082031,0.22265625 0.2460937,0.22265625 0.2695313,0 0.3515625,-0.31640625 0.515625,-0.9375 z m 0,0"
         style="fill:#000000;fill-opacity:1;fill-rule:nonzero;stroke:none" />
    </g>
    <path
       id="path26"
       d="M 0,0 H 8.88"
       style="fill:none;stroke:#000000;stroke-width:0.398;stroke-linecap:butt;stroke-linejoin:miter;stroke-miterlimit:10;stroke-dasharray:none;stroke-opacity:1"
       transform="matrix(1.3333333,0,0,-1.3333333,295.47333,189.308)" />
    <path
       id="path27"
       d="m 3.5151953,-1.2644219 h -0.234375 c -0.023437,0.1523438 -0.082031,0.56250003 -0.1757812,0.63281253 -0.058594,0.0351563 -0.5976563,0.0351563 -0.6914063,0.0351563 H 1.1245703 C 1.8628516,-1.2409844 2.1089453,-1.440203 2.5191016,-1.768328 c 0.515625,-0.4101564 0.9960937,-0.8437501 0.9960937,-1.5000001 0,-0.8437499 -0.7382812,-1.3593749 -1.6289062,-1.3593749 -0.8671875,0 -1.45312504,0.609375 -1.45312504,1.2421874 0,0.3632812 0.3046875,0.3984375 0.375,0.3984375 0.1640625,0 0.37500004,-0.1171875 0.37500004,-0.375 0,-0.1289063 -0.058594,-0.3632813 -0.42187504,-0.3632813 0.22265625,-0.5039061 0.69140624,-0.6562499 1.01953124,-0.6562499 0.703125,0 1.0664063,0.5507813 1.0664063,1.1132812 0,0.609375 -0.4335938,1.0898438 -0.65625,1.3359376 l -1.68750004,1.66406243 c -0.0703125,0.0585938 -0.0703125,0.0703125 -0.0703125,0.26953125 H 3.3159766 Z m 0,0"
       style="fill:#000000;fill-opacity:1;fill-rule:nonzero;stroke:none"
       aria-label="2"
       transform="matrix(1.3333333,0,0,1.3333333,298.74667,197.20933)" />
    <g
       id="g27"
       aria-label="2π"
       transform="matrix(1.3333333,0,0,1.3333333,338.268,189.96667)">
      <path
         id="path28"
         d="M 1.2667734,-0.76308594 2.3214609,-1.7943359 c 1.5585938,-1.3710938 2.15625,-1.9101563 2.15625,-2.90625 0,-1.1367188 -0.9023437,-1.9335938 -2.1210937,-1.9335938 -1.125,0 -1.85156251,0.9140625 -1.85156251,1.8046875 0,0.5507813 0.4921875,0.5507813 0.52734371,0.5507813 0.1640625,0 0.515625,-0.1171875 0.515625,-0.5273438 0,-0.2578125 -0.1875,-0.515625 -0.5273437,-0.515625 -0.0820313,0 -0.10546876,0 -0.12890626,0.011719 C 1.1144297,-5.954492 1.6534922,-6.329492 2.2277109,-6.329492 c 0.9140625,0 1.3359375,0.8085938 1.3359375,1.6289063 0,0.796875 -0.4921875,1.5820312 -1.0429687,2.203125 L 0.61052344,-0.36464844 C 0.50505469,-0.25917969 0.50505469,-0.23574219 0.50505469,-0.00136719 H 4.1964609 l 0.28125,-1.73437501 H 4.2198984 c -0.046875,0.3046875 -0.1171875,0.73828126 -0.2109375,0.89062501 -0.070312,0.0820313 -0.7265625,0.0820313 -0.9492187,0.0820313 z m 0,0"
         style="fill:#000000;fill-opacity:1;fill-rule:nonzero;stroke:none" />
      <path
         id="path29"
         d="m 7.6183359,-3.7162109 h 1.125 c -0.328125,1.4765625 -0.4101562,1.8984375 -0.4101562,2.5664062 0,0.15234376 0,0.42187501 0.070312,0.76171876 0.1054687,0.43359375 0.2109375,0.4921875 0.3632812,0.4921875 0.1992188,0 0.4101563,-0.17578125 0.4101563,-0.375 0,-0.0585938 0,-0.0820313 -0.058594,-0.22265625 -0.292968,-0.71484371 -0.292968,-1.35937501 -0.292968,-1.64062501 0,-0.5273437 0.070312,-1.0664062 0.1757812,-1.5820312 h 1.1367186 c 0.128906,0 0.492188,0 0.492188,-0.3398438 0,-0.234375 -0.210938,-0.234375 -0.398438,-0.234375 H 6.8917734 c -0.2109375,0 -0.5976562,0 -1.03125,0.46875 -0.3515625,0.3867188 -0.609375,0.84375 -0.609375,0.890625 0,0.011719 0,0.1054688 0.1171875,0.1054688 0.082031,0 0.1054688,-0.046875 0.1640625,-0.1289063 0.4804688,-0.7617187 1.0664063,-0.7617187 1.265625,-0.7617187 h 0.5625 c -0.3164062,1.2070312 -0.8554687,2.4140625 -1.2773437,3.31640621 -0.070312,0.15234375 -0.070312,0.1640625 -0.070312,0.234375 0,0.19921875 0.1523437,0.26953125 0.28125,0.26953125 0.3046875,0 0.3867187,-0.26953125 0.5039062,-0.64453125 0.140625,-0.45703125 0.140625,-0.48046871 0.2695313,-0.97265621 z m 0,0"
         style="fill:#000000;fill-opacity:1;fill-rule:nonzero;stroke:none" />
    </g>
    <path
       id="path30"
       d="m 2.9296875,-6.3744609 c 0,-0.234375 0,-0.2578125 -0.234375,-0.2578125 -0.609375,0.6328125 -1.4882813,0.6328125 -1.8046875,0.6328125 v 0.3164062 c 0.1992187,0 0.7851562,0 1.3007813,-0.2578125 v 5.15625001 c 0,0.3515625 -0.035156,0.48046875 -0.9257813,0.48046875 H 0.94921875 V 5.390625e-4 C 1.3007812,-0.03461719 2.15625,-0.03461719 2.5546875,-0.03461719 c 0.3984375,0 1.265625,0 1.6171875,0.0351562525 V -0.30414844 H 3.8554688 c -0.9023438,0 -0.9257813,-0.1171875 -0.9257813,-0.48046875 z m 0,0"
       style="fill:#000000;fill-opacity:1;fill-rule:nonzero;stroke:none"
       aria-label="1"
       transform="matrix(1.3333333,0,0,1.3333333,193.5,148.636)" />
    <g
       id="g30"
       aria-label="−1"
       transform="matrix(1.3333333,0,0,1.3333333,188.588,211.956)">
      <path
         id="path31"
         d="m 6.5638828,-2.2961016 c 0.1757813,0 0.3515625,0 0.3515625,-0.1992187 0,-0.1992188 -0.1757812,-0.1992188 -0.3515625,-0.1992188 h -5.390625 c -0.1640625,0 -0.33984374,0 -0.33984374,0.1992188 0,0.1992187 0.17578124,0.1992187 0.33984374,0.1992187 z m 0,0"
         style="fill:#000000;fill-opacity:1;fill-rule:nonzero;stroke:none" />
      <path
         id="path32"
         d="m 10.677164,-6.3742266 c 0,-0.234375 0,-0.2578125 -0.234375,-0.2578125 -0.6093749,0.6328125 -1.4882812,0.6328125 -1.8046874,0.6328125 v 0.3164063 c 0.1992187,0 0.7851562,0 1.3007812,-0.2578125 v 5.15624999 c 0,0.3515625 -0.035156,0.48046875 -0.9257812,0.48046875 H 8.6966953 V 7.734375e-4 C 9.0482578,-0.03438281 9.9037266,-0.03438281 10.302164,-0.03438281 c 0.398438,0 1.265625,0 1.617188,0.0351562475 V -0.30391406 h -0.316407 c -0.902343,0 -0.925781,-0.1171875 -0.925781,-0.48046875 z m 0,0"
         style="fill:#000000;fill-opacity:1;fill-rule:nonzero;stroke:none" />
    </g>
    <g
       id="g32"
       aria-label="y=senx"
       transform="matrix(1.3333333,0,0,1.3333333,296.98933,214.71067)">
      <path
         id="path33"
         d="m 4.8390547,-3.7966719 c 0.046875,-0.140625 0.046875,-0.1523437 0.046875,-0.2226562 0,-0.1875 -0.140625,-0.2695313 -0.2929688,-0.2695313 -0.1054687,0 -0.2578125,0.058594 -0.3515625,0.1992188 -0.023437,0.058594 -0.09375,0.3632812 -0.140625,0.5390625 -0.070312,0.2578125 -0.140625,0.5273437 -0.1992187,0.796875 l -0.4453125,1.79296873 c -0.035156,0.15234375 -0.46875,0.85546875 -1.125,0.85546875 -0.5039063,0 -0.6210938,-0.4453125 -0.6210938,-0.80859375 0,-0.45703123 0.1757813,-1.07812503 0.515625,-1.95703123 0.1523438,-0.4101563 0.1992188,-0.515625 0.1992188,-0.7148438 0,-0.4453125 -0.328125,-0.8203125 -0.8203125,-0.8203125 -0.94921876,0 -1.31250001,1.453125 -1.31250001,1.5351563 0,0.1054687 0.09375,0.1054687 0.1171875,0.1054687 0.09375,0 0.10546875,-0.023437 0.15234375,-0.1875 0.26953125,-0.9375 0.66796876,-1.2304687 1.00781246,-1.2304687 0.082031,0 0.2578125,0 0.2578125,0.3164062 0,0.2460938 -0.1054687,0.515625 -0.1757812,0.703125 -0.3984375,1.0546875 -0.5742188,1.6171875 -0.5742188,2.0859375 0,0.89062503 0.6210938,1.18359378 1.21875,1.18359378 0.3867188,0 0.7265625,-0.1640625 0.9960938,-0.4453125 -0.1289063,0.515625 -0.2460938,1.0078125 -0.6445313,1.53515622 -0.2578125,0.3398438 -0.6328125,0.6328125 -1.0898437,0.6328125 -0.140625,0 -0.59765626,-0.035156 -0.76171876,-0.421875 0.1640625,0 0.29296876,0 0.43359376,-0.1171875 0.09375,-0.09375 0.1992187,-0.2226562 0.1992187,-0.41015622 0,-0.31640625 -0.2695312,-0.3515625 -0.375,-0.3515625 -0.22265621,0 -0.55078121,0.1640625 -0.55078121,0.64453122 0,0.5039063 0.43359375,0.8671875 1.05468751,0.8671875 1.0195312,0 2.0507812,-0.9023437 2.3320312,-2.02734372 z m 0,0"
         style="fill:#eb0a36;fill-opacity:1;fill-rule:nonzero;stroke:none" />
      <path
         id="path34"
         d="m 14.855656,-3.2576094 c 0.152344,0 0.339844,0 0.339844,-0.1992187 0,-0.1992188 -0.1875,-0.1992188 -0.328125,-0.1992188 H 8.9025313 c -0.140625,0 -0.328125,0 -0.328125,0.1992188 0,0.1992187 0.1875,0.1992187 0.3398437,0.1992187 z m 0.01172,1.9335938 c 0.140625,0 0.328125,0 0.328125,-0.1992188 0,-0.1992187 -0.1875,-0.1992187 -0.339844,-0.1992187 H 8.91425 c -0.1523437,0 -0.3398437,0 -0.3398437,0.1992187 0,0.1992188 0.1875,0.1992188 0.328125,0.1992188 z m 5.727539,-0.609375 c 0.222656,0.035156 1.03125,0.1992187 1.03125,0.9140625 0,0.51562498 -0.351562,0.91406248 -1.125,0.91406248 -0.832031,0 -1.195312,-0.57421875 -1.382812,-1.41796878 -0.03516,-0.1289062 -0.03516,-0.1757812 -0.140625,-0.1757812 -0.128907,0 -0.128907,0.070312 -0.128907,0.2578125 v 1.31249998 c 0,0.1640625 0,0.234375 0.105469,0.234375 0.05859,0 0.07031,0 0.257813,-0.19921875 0.01172,-0.01171875 0.01172,-0.03515625 0.199218,-0.22265625 0.433594,0.421875 0.878907,0.421875 1.089844,0.421875 1.148438,0 1.605469,-0.66796875 1.605469,-1.38281248 0,-0.5273438 -0.292969,-0.8203125 -0.421875,-0.9492188 -0.328125,-0.3164062 -0.714844,-0.3984375 -1.136719,-0.46875 -0.550781,-0.1171875 -1.21875,-0.2460937 -1.21875,-0.8203125 0,-0.3515625 0.257813,-0.7617187 1.113281,-0.7617187 1.101563,0 1.148438,0.9023437 1.171875,1.2070312 0,0.09375 0.09375,0.09375 0.117188,0.09375 0.128906,0 0.128906,-0.046875 0.128906,-0.2460937 v -0.9960938 c 0,-0.1757812 0,-0.2460937 -0.117187,-0.2460937 -0.04687,0 -0.07031,0 -0.199219,0.1171875 -0.02344,0.046875 -0.128906,0.1289062 -0.164063,0.1640625 -0.375,-0.28125 -0.785156,-0.28125 -0.9375,-0.28125 -1.21875,0 -1.59375,0.6679687 -1.59375,1.2304687 0,0.3398438 0.164063,0.6210938 0.433594,0.84375 0.316406,0.2578125 0.597656,0.3164063 1.3125,0.4570313 z m 2.967774,-0.5742188 c 0.05859,-1.4882812 0.902343,-1.734375 1.242187,-1.734375 1.019531,0 1.125,1.3476563 1.125,1.734375 z m -0.01172,0.2109375 h 2.789062 c 0.210938,0 0.246094,0 0.246094,-0.2109375 0,-0.984375 -0.539062,-1.9570312 -1.78125,-1.9570312 -1.160156,0 -2.074219,1.03125 -2.074219,2.2734375 0,1.33593748 1.042969,2.29687498 2.191407,2.29687498 1.21875,0 1.664062,-1.1015625 1.664062,-1.28906248 0,-0.1054688 -0.08203,-0.1171875 -0.128906,-0.1171875 -0.09375,0 -0.117188,0.058594 -0.128906,0.140625 -0.351563,1.01953123 -1.253907,1.01953123 -1.347657,1.01953123 -0.503906,0 -0.902343,-0.29296875 -1.125,-0.66796875 C 23.550969,-1.2888594 23.550969,-1.9451094 23.550969,-2.2966719 Z m 4.429687,-1.125 v 2.66015628 c 0,0.45703125 -0.117187,0.45703125 -0.785156,0.45703125 V 2.03125e-4 c 0.351563,-0.011718745 0.855469,-0.035156245 1.125,-0.035156245 0.257813,0 0.785156,0.0234375 1.113281,0.035156245 V -0.30448437 c -0.65625,0 -0.773437,0 -0.773437,-0.45703125 V -2.5896406 c 0,-1.03125 0.714844,-1.59375 1.347656,-1.59375 0.621094,0 0.738281,0.5390625 0.738281,1.1015625 v 2.32031248 c 0,0.45703125 -0.117187,0.45703125 -0.773437,0.45703125 V 2.03125e-4 c 0.339844,-0.011718745 0.855469,-0.035156245 1.125,-0.035156245 0.257812,0 0.773437,0.0234375 1.113281,0.035156245 V -0.30448437 c -0.515625,0 -0.773437,0 -0.785156,-0.3046875 V -2.5076094 c 0,-0.8554687 0,-1.171875 -0.304688,-1.5234375 -0.140625,-0.1757812 -0.46875,-0.375 -1.042968,-0.375 -0.726563,0 -1.195313,0.4335938 -1.476563,1.0546875 v -1.0546875 l -1.40625,0.1171875 v 0.3046875 c 0.703125,0 0.785156,0.070312 0.785156,0.5625 z m 0,0"
         style="fill:#eb0a36;fill-opacity:1;fill-rule:nonzero;stroke:none" />
      <path
         id="path35"
         d="m 37.405461,-3.0115156 c 0.05859,-0.2578125 0.292969,-1.171875 0.984375,-1.171875 0.04687,0 0.292969,0 0.503906,0.1289062 -0.28125,0.046875 -0.480469,0.3046875 -0.480469,0.5390625 0,0.1640625 0.105469,0.3515625 0.375,0.3515625 0.222657,0 0.539063,-0.1875 0.539063,-0.5859375 0,-0.515625 -0.585938,-0.65625 -0.925781,-0.65625 -0.574219,0 -0.925782,0.5273438 -1.042969,0.7617188 -0.257813,-0.65625 -0.785156,-0.7617188 -1.078125,-0.7617188 -1.042969,0 -1.605469,1.2890625 -1.605469,1.5351563 0,0.1054687 0.105469,0.1054687 0.117188,0.1054687 0.08203,0 0.117187,-0.023437 0.128906,-0.1171875 0.339844,-1.0546875 0.996094,-1.3007812 1.335937,-1.3007812 0.1875,0 0.539063,0.09375 0.539063,0.6679687 0,0.3046875 -0.164063,0.9726563 -0.539063,2.3671875 -0.152343,0.62109378 -0.503906,1.04296878 -0.949218,1.04296878 -0.05859,0 -0.28125,0 -0.492188,-0.12890625 0.246094,-0.0585938 0.46875,-0.26953125 0.46875,-0.5390625 0,-0.26953123 -0.222656,-0.35156253 -0.375,-0.35156253 -0.292969,0 -0.539062,0.25781253 -0.539062,0.57421878 0,0.45703125 0.492187,0.65625 0.9375,0.65625 0.65625,0 1.007812,-0.69140625 1.042968,-0.75 0.117188,0.36328125 0.480469,0.75 1.078125,0.75 1.019532,0 1.59375,-1.27734378 1.59375,-1.53515628 0,-0.09375 -0.09375,-0.09375 -0.128906,-0.09375 -0.08203,0 -0.105469,0.035156 -0.128906,0.1054688 -0.328125,1.06640623 -0.996094,1.31249998 -1.324219,1.31249998 -0.386719,0 -0.539062,-0.328125 -0.539062,-0.65625 0,-0.22265625 0.05859,-0.44531248 0.164062,-0.87890628 z m 0,0"
         style="fill:#eb0a36;fill-opacity:1;fill-rule:nonzero;stroke:none" />
    </g>
    <g
       id="g35"
       aria-label="y=1−senx"
       transform="matrix(1.3333333,0,0,1.3333333,285.55067,117.86533)">
      <path
         id="path36"
         d="m 4.8399297,-3.7954844 c 0.046875,-0.140625 0.046875,-0.1523437 0.046875,-0.2226562 0,-0.1875 -0.140625,-0.2695313 -0.2929688,-0.2695313 -0.1054687,0 -0.2578125,0.058594 -0.3515625,0.1992188 -0.023437,0.058594 -0.09375,0.3632812 -0.140625,0.5390625 -0.070312,0.2578125 -0.140625,0.5273437 -0.1992187,0.796875 l -0.4453125,1.79296873 c -0.035156,0.15234375 -0.46875,0.85546875 -1.125,0.85546875 -0.5039063,0 -0.6210938,-0.4453125 -0.6210938,-0.80859375 0,-0.45703123 0.1757813,-1.07812503 0.515625,-1.95703123 0.1523438,-0.4101563 0.1992188,-0.515625 0.1992188,-0.7148438 0,-0.4453125 -0.328125,-0.8203125 -0.8203125,-0.8203125 -0.94921876,0 -1.31250001,1.453125 -1.31250001,1.5351563 0,0.1054687 0.09375,0.1054687 0.1171875,0.1054687 0.09375,0 0.10546875,-0.023437 0.15234375,-0.1875 0.26953125,-0.9375 0.66796876,-1.2304687 1.00781246,-1.2304687 0.082031,0 0.2578125,0 0.2578125,0.3164062 0,0.2460938 -0.1054687,0.515625 -0.1757812,0.703125 -0.3984375,1.0546875 -0.5742188,1.6171875 -0.5742188,2.0859375 0,0.89062503 0.6210938,1.18359378 1.21875,1.18359378 0.3867188,0 0.7265625,-0.1640625 0.9960938,-0.4453125 -0.1289063,0.515625 -0.2460938,1.0078125 -0.6445313,1.53515622 -0.2578125,0.3398438 -0.6328125,0.6328125 -1.0898437,0.6328125 -0.140625,0 -0.59765626,-0.035156 -0.76171876,-0.421875 0.1640625,0 0.29296876,0 0.43359376,-0.1171875 0.09375,-0.09375 0.1992187,-0.2226562 0.1992187,-0.41015622 0,-0.31640625 -0.2695312,-0.3515625 -0.375,-0.3515625 -0.22265621,0 -0.55078121,0.1640625 -0.55078121,0.64453122 0,0.5039063 0.43359375,0.8671875 1.05468751,0.8671875 1.0195312,0 2.0507812,-0.9023437 2.3320312,-2.02734372 z m 0,0"
         style="fill:#008080;fill-opacity:1;fill-rule:nonzero;stroke:none" />
      <path
         id="path37"
         d="m 14.856531,-3.2564219 c 0.152344,0 0.339844,0 0.339844,-0.1992187 0,-0.1992188 -0.1875,-0.1992188 -0.328125,-0.1992188 H 8.9034063 c -0.140625,0 -0.328125,0 -0.328125,0.1992188 0,0.1992187 0.1875,0.1992187 0.3398437,0.1992187 z m 0.01172,1.9335938 c 0.140625,0 0.328125,0 0.328125,-0.1992188 0,-0.1992187 -0.1875,-0.1992187 -0.339844,-0.1992187 H 8.915125 c -0.1523437,0 -0.3398437,0 -0.3398437,0.1992187 0,0.1992188 0.1875,0.1992188 0.328125,0.1992188 z m 6.583008,-5.0507813 c 0,-0.234375 0,-0.2578125 -0.234375,-0.2578125 -0.609375,0.6328125 -1.488281,0.6328125 -1.804688,0.6328125 v 0.3164063 c 0.199219,0 0.785157,0 1.300782,-0.2578125 v 5.15624998 c 0,0.3515625 -0.03516,0.48046875 -0.925782,0.48046875 H 19.47079 v 0.3046875 c 0.351563,-0.03515625 1.207031,-0.03515625 1.605469,-0.03515625 0.398437,0 1.265625,0 1.617187,0.03515625 v -0.3046875 H 22.37704 c -0.902344,0 -0.925781,-0.1171875 -0.925781,-0.48046875 z m 0,0"
         style="fill:#008080;fill-opacity:1;fill-rule:nonzero;stroke:none" />
      <path
         id="path38"
         d="m 32.288172,-2.2954844 c 0.175781,0 0.351562,0 0.351562,-0.1992187 0,-0.1992188 -0.175781,-0.1992188 -0.351562,-0.1992188 h -5.390625 c -0.164063,0 -0.339844,0 -0.339844,0.1992188 0,0.1992187 0.175781,0.1992187 0.339844,0.1992187 z m 0,0"
         style="fill:#008080;fill-opacity:1;fill-rule:nonzero;stroke:none" />
      <path
         id="path39"
         d="m 37.757898,-1.9322031 c 0.222657,0.035156 1.03125,0.1992187 1.03125,0.9140625 0,0.51562498 -0.351562,0.91406248 -1.125,0.91406248 -0.832031,0 -1.195312,-0.57421875 -1.382812,-1.41796878 -0.03516,-0.1289062 -0.03516,-0.1757812 -0.140625,-0.1757812 -0.128906,0 -0.128906,0.070312 -0.128906,0.2578125 v 1.31249998 c 0,0.1640625 0,0.234375 0.105468,0.234375 0.05859,0 0.07031,0 0.257813,-0.19921875 0.01172,-0.01171875 0.01172,-0.03515625 0.199219,-0.22265625 0.433593,0.421875 0.878906,0.421875 1.089843,0.421875 1.148438,0 1.605469,-0.66796875 1.605469,-1.38281248 0,-0.5273438 -0.292969,-0.8203125 -0.421875,-0.9492188 -0.328125,-0.3164062 -0.714844,-0.3984375 -1.136719,-0.46875 -0.550781,-0.1171875 -1.21875,-0.2460937 -1.21875,-0.8203125 0,-0.3515625 0.257813,-0.7617187 1.113282,-0.7617187 1.101562,0 1.148437,0.9023437 1.171875,1.2070312 0,0.09375 0.09375,0.09375 0.117187,0.09375 0.128906,0 0.128906,-0.046875 0.128906,-0.2460937 v -0.9960938 c 0,-0.1757812 0,-0.2460937 -0.117187,-0.2460937 -0.04687,0 -0.07031,0 -0.199219,0.1171875 -0.02344,0.046875 -0.128906,0.1289062 -0.164062,0.1640625 -0.375,-0.28125 -0.785157,-0.28125 -0.9375,-0.28125 -1.21875,0 -1.59375,0.6679687 -1.59375,1.2304687 0,0.3398438 0.164062,0.6210938 0.433593,0.84375 0.316407,0.2578125 0.597657,0.3164063 1.3125,0.4570313 z m 2.970704,-0.5742188 c 0.05859,-1.4882812 0.902343,-1.734375 1.242187,-1.734375 1.019531,0 1.125,1.3476563 1.125,1.734375 z m -0.01172,0.2109375 h 2.789062 c 0.210938,0 0.246094,0 0.246094,-0.2109375 0,-0.984375 -0.539062,-1.9570312 -1.78125,-1.9570312 -1.160156,0 -2.074219,1.03125 -2.074219,2.2734375 0,1.33593748 1.042969,2.29687498 2.191407,2.29687498 1.21875,0 1.664062,-1.1015625 1.664062,-1.28906248 0,-0.1054688 -0.08203,-0.1171875 -0.128906,-0.1171875 -0.09375,0 -0.117188,0.058594 -0.128906,0.140625 -0.351563,1.01953123 -1.253907,1.01953123 -1.347657,1.01953123 -0.503906,0 -0.902343,-0.29296875 -1.125,-0.66796875 C 40.716883,-1.2876719 40.716883,-1.9439219 40.716883,-2.2954844 Z m 4.426758,-1.125 v 2.66015628 c 0,0.45703125 -0.117188,0.45703125 -0.785157,0.45703125 v 0.3046875 c 0.351563,-0.01171875 0.855469,-0.03515625 1.125,-0.03515625 0.257813,0 0.785157,0.0234375 1.113282,0.03515625 v -0.3046875 c -0.65625,0 -0.773438,0 -0.773438,-0.45703125 V -2.5884531 c 0,-1.03125 0.714844,-1.59375 1.347656,-1.59375 0.621094,0 0.738282,0.5390625 0.738282,1.1015625 v 2.32031248 c 0,0.45703125 -0.117188,0.45703125 -0.773438,0.45703125 v 0.3046875 c 0.339844,-0.01171875 0.855469,-0.03515625 1.125,-0.03515625 0.257813,0 0.773438,0.0234375 1.113281,0.03515625 v -0.3046875 c -0.515625,0 -0.773437,0 -0.785156,-0.3046875 V -2.5064219 c 0,-0.8554687 0,-1.171875 -0.304687,-1.5234375 -0.140625,-0.1757812 -0.46875,-0.375 -1.042969,-0.375 -0.726563,0 -1.195313,0.4335938 -1.476563,1.0546875 v -1.0546875 l -1.40625,0.1171875 v 0.3046875 c 0.703125,0 0.785157,0.070312 0.785157,0.5625 z m 0,0"
         style="fill:#008080;fill-opacity:1;fill-rule:nonzero;stroke:none" />
      <path
         id="path40"
         d="m 54.568445,-3.0103281 c 0.05859,-0.2578125 0.292969,-1.171875 0.984375,-1.171875 0.04687,0 0.292969,0 0.503907,0.1289062 -0.28125,0.046875 -0.480469,0.3046875 -0.480469,0.5390625 0,0.1640625 0.105469,0.3515625 0.375,0.3515625 0.222656,0 0.539062,-0.1875 0.539062,-0.5859375 0,-0.515625 -0.585937,-0.65625 -0.925781,-0.65625 -0.574219,0 -0.925781,0.5273438 -1.042969,0.7617188 -0.257812,-0.65625 -0.785156,-0.7617188 -1.078125,-0.7617188 -1.042968,0 -1.605468,1.2890625 -1.605468,1.5351563 0,0.1054687 0.105468,0.1054687 0.117187,0.1054687 0.08203,0 0.117188,-0.023437 0.128906,-0.1171875 0.339844,-1.0546875 0.996094,-1.3007812 1.335938,-1.3007812 0.1875,0 0.539062,0.09375 0.539062,0.6679687 0,0.3046875 -0.164062,0.9726563 -0.539062,2.3671875 -0.152344,0.62109378 -0.503906,1.04296878 -0.949219,1.04296878 -0.05859,0 -0.28125,0 -0.492187,-0.12890625 0.246093,-0.0585938 0.46875,-0.26953125 0.46875,-0.5390625 0,-0.26953123 -0.222657,-0.35156253 -0.375,-0.35156253 -0.292969,0 -0.539063,0.25781253 -0.539063,0.57421878 0,0.45703125 0.492188,0.65625 0.9375,0.65625 0.65625,0 1.007813,-0.69140625 1.042969,-0.75 0.117187,0.36328125 0.480469,0.75 1.078125,0.75 1.019531,0 1.59375,-1.27734378 1.59375,-1.53515628 0,-0.09375 -0.09375,-0.09375 -0.128906,-0.09375 -0.08203,0 -0.105469,0.035156 -0.128907,0.1054688 -0.328125,1.06640623 -0.996093,1.31249998 -1.324218,1.31249998 -0.386719,0 -0.539063,-0.328125 -0.539063,-0.65625 0,-0.22265625 0.05859,-0.44531248 0.164063,-0.87890628 z m 0,0"
         style="fill:#008080;fill-opacity:1;fill-rule:nonzero;stroke:none" />
    </g>
    <path
       id="path41"
       d="m -57.85526,-0.02922 c 0,0 1.36341,-1.3635 1.88706,-1.88341 0.52364,-0.5199 1.3634,-1.35209 1.88705,-1.86372 0.52364,-0.51163 1.36342,-1.32582 1.88706,-1.82381 0.52365,-0.49797 1.36343,-1.28616 1.88705,-1.76532 0.52365,-0.47912 1.36342,-1.23277 1.88707,-1.688 0.52365,-0.45523 1.36341,-1.1664 1.88706,-1.59297 0.52365,-0.42661 1.36341,-1.08811 1.88707,-1.48165 0.52363,-0.39357 1.3634,-0.99856 1.88705,-1.35484 0.52364,-0.35631 1.36342,-0.89793 1.88706,-1.21315 0.52363,-0.31523 1.36343,-0.78784 1.88705,-1.05881 0.52365,-0.27095 1.36342,-0.67018 1.88707,-0.89404 0.52365,-0.22388 1.36341,-0.54506 1.88705,-0.71947 0.52366,-0.17439 1.36342,-0.41443 1.88706,-0.53753 0.52365,-0.12313 1.36342,-0.27919 1.88707,-0.34975 0.52363,-0.07056 1.36342,-0.14154 1.88705,-0.15886 0.52364,-0.0173 1.36342,-0.0023 1.88706,0.03401 0.52365,0.03627 1.3634,0.13797 1.88705,0.22745 0.52365,0.08949 1.36342,0.27588 1.88707,0.41751 0.52364,0.14163 1.3634,0.41103 1.88706,0.60333 0.52364,0.19232 1.36341,0.54178 1.88707,0.78273 0.52363,0.24095 1.36341,0.66682 1.88705,0.95392 0.52364,0.28711 1.36342,0.78508 1.88704,1.11531 0.52365,0.33025 1.36342,0.8949 1.88707,1.26488 0.52365,0.37001 1.36341,0.996 1.88707,1.40181 0.52364,0.40579 1.3634,1.08562 1.88705,1.52298 0.52365,0.43736 1.36342,1.16488 1.88707,1.62924 0.52362,0.46436 1.36341,1.23109 1.88706,1.71753 0.52363,0.48643 1.3634,1.28488 1.88704,1.78836 0.52365,0.50348 1.36342,1.32523 1.88707,1.84039 0.52365,0.51519 1.36341,1.35126 1.88705,1.87273 0.52365,0.52147 1.36339,1.36325 1.88702,1.8856 0.52366,0.52237 1.36342,1.36145 1.88708,1.87922 0.52363,0.51774 1.3634,1.34468 1.88705,1.85246 0.52363,0.50778 1.36342,1.31477 1.88704,1.8072 0.52365,0.49245 1.36341,1.2701 1.88707,1.74201 0.52365,0.47188 1.36342,1.2126 1.88707,1.65904 0.52363,0.44646 1.3634,1.1423 1.88705,1.55869 0.52365,0.41636 1.36342,1.06042 1.88707,1.44225 0.52364,0.38187 1.3634,0.96667 1.88705,1.3099 0.52363,0.34323 1.36341,0.86279 1.88704,1.16394 0.52366,0.30113 1.36344,0.75058 1.88707,1.0065 0.52366,0.25593 1.36342,0.63006 1.88706,0.8381 0.52365,0.20803 1.36342,0.50336 1.88707,0.66126 0.52365,0.1579 1.3634,0.3707 1.88706,0.47682 0.52364,0.10614 1.36341,0.23486 1.88706,0.28819 0.52362,0.0533 1.36341,0.09633 1.88704,0.09615 0.52365,-2e-4 1.36344,-0.04384 1.88707,-0.09756 0.52363,-0.05372 1.36342,-0.183 1.88706,-0.28957 0.52365,-0.10659 1.3634,-0.32024 1.88705,-0.47853 0.52365,-0.1583 1.36342,-0.454 1.88707,-0.66239 0.52365,-0.20839 1.36342,-0.58322 1.88705,-0.83951 0.52364,-0.25627 1.36342,-0.70611 1.88706,-1.00761 0.52365,-0.30151 1.36344,-0.82182 1.88707,-1.16536 0.52363,-0.34355 1.3634,-0.92863 1.88705,-1.3107 0.52365,-0.38208 1.36341,-1.02653 1.88706,-1.44315 0.52365,-0.41659 1.36342,-1.11283 1.88706,-1.55952 0.52364,-0.44667 1.36341,-1.18782 1.88706,-1.65988 0.52364,-0.47208 1.36342,-1.25 1.88706,-1.74256 0.52365,-0.49256 1.36343,-1.29965 1.88705,-1.80749 0.52365,-0.50784 1.36342,-1.33493 1.88706,-1.85275 0.52365,-0.51784 1.36341,-1.35708 1.88707,-1.87949 0.52365,-0.5224 1.36341,-1.36417 1.88706,-1.8856 0.52364,-0.52141 1.36341,-1.35733 1.88706,-1.87244 0.52363,-0.51511 1.36342,-1.33679 1.88707,-1.8401 0.52362,-0.50331 1.3634,-1.30126 1.88704,-1.78754 0.52365,-0.48627 1.3634,-1.2531 1.88705,-1.71724 0.52365,-0.46416 1.36342,-1.19099 1.88707,-1.62811 0.52365,-0.43714 1.36342,-1.11686 1.88705,-1.52243 0.52366,-0.40557 1.36343,-1.03096 1.88708,-1.40067 0.52363,-0.36972 1.36342,-0.93406 1.88707,-1.26404 0.52362,-0.32997 1.3634,-0.82742 1.88702,-1.11418 0.52365,-0.28676 1.36342,-0.71197 1.88707,-0.95253 0.52365,-0.24055 1.36342,-0.58935 1.88707,-0.78129 0.52364,-0.19196 1.3634,-0.46099 1.88705,-0.60224 0.52365,-0.14123 1.36342,-0.32676 1.88707,-0.41581 0.52364,-0.08905 1.36341,-0.19011 1.88706,-0.22605 0.52363,-0.03592 1.36341,-0.05055 1.88704,-0.0329 0.52365,0.01768 1.36342,0.08928 1.88707,0.16027 0.52365,0.07098 1.36342,0.22793 1.88707,0.35142 0.52363,0.12351 1.3634,0.36391 1.88705,0.53869 0.52365,0.17478 1.36342,0.49683 1.88707,0.72115 0.52362,0.22429 1.36341,0.62415 1.88705,0.89544 0.52363,0.27131 1.36341,0.74444 1.88704,1.05993 0.52366,0.31549 1.36342,0.85747 1.88707,1.21399 0.52365,0.35654 1.36342,0.96187 1.88706,1.35569 0.52365,0.39382 1.36342,1.05592 1.88707,1.48277 0.52365,0.42688 1.3634,1.13835 1.88705,1.59383 0.52365,0.45545 1.36342,1.20951 1.88706,1.68884 0.52363,0.47935 1.36341,1.26779 1.88705,1.7659 0.52366,0.49809 1.36344,1.31236 1.88707,1.82408 0.52364,0.5117 1.3634,1.34407 1.88706,1.864 0.52365,0.51994 1.36341,1.3608 1.88707,1.8834 0.52365,0.52257 1.3634,1.36315 1.88705,1.88309 0.52365,0.51994 1.36342,1.35237 1.88705,1.86427 0.52364,0.5119 1.36342,1.32683 1.88706,1.82522 0.52365,0.49836 1.36343,1.28707 1.88705,1.76672 0.52365,0.47964 1.36342,1.23436 1.88707,1.69026 0.52365,0.45589 1.36341,1.16815 1.88706,1.59552 0.52365,0.42737 1.88707,1.48472 1.88707,1.48472"
       style="fill:none;stroke:#eb0a36;stroke-width:0.79701;stroke-linecap:butt;stroke-linejoin:miter;stroke-miterlimit:10;stroke-dasharray:none;stroke-opacity:1"
       transform="matrix(1.3333333,0,0,-1.3333333,188.38667,176.29333)" />
    <path
       id="path42"
       d="m -57.85526,18.45448 c 0,0 1.36341,1.3635 1.88706,1.88341 0.52364,0.51988 1.3634,1.35208 1.88705,1.86371 0.52364,0.51164 1.36342,1.32582 1.88706,1.8238 0.52365,0.49798 1.36343,1.28617 1.88705,1.76533 0.52365,0.47914 1.36342,1.23277 1.88707,1.68801 0.52365,0.45522 1.36341,1.16639 1.88706,1.59296 0.52365,0.4266 1.36341,1.08809 1.88707,1.48166 0.52363,0.39355 1.3634,0.99855 1.88705,1.35484 0.52364,0.35631 1.36342,0.89794 1.88706,1.21315 0.52363,0.3152 1.36343,0.78785 1.88705,1.0588 0.52365,0.27095 1.36342,0.67018 1.88707,0.89404 0.52365,0.22389 1.36341,0.54507 1.88705,0.71947 0.52366,0.17439 1.36342,0.41444 1.88706,0.53754 0.52365,0.12312 1.36342,0.27918 1.88707,0.34975 0.52363,0.07056 1.36342,0.14153 1.88705,0.15885 0.52364,0.01732 1.36342,0.0023 1.88706,-0.03401 0.52365,-0.03627 1.3634,-0.13797 1.88705,-0.22745 0.52365,-0.08949 1.36342,-0.27587 1.88707,-0.41751 0.52364,-0.14163 1.3634,-0.41103 1.88706,-0.60335 0.52364,-0.19231 1.36341,-0.54175 1.88707,-0.7827 0.52363,-0.24095 1.36341,-0.66684 1.88705,-0.95393 0.52364,-0.2871 1.36342,-0.78507 1.88704,-1.1153 0.52365,-0.33026 1.36342,-0.8949 1.88707,-1.26489 0.52365,-0.37 1.36341,-0.99602 1.88707,-1.4018 0.52364,-0.4058 1.3634,-1.08561 1.88705,-1.52298 0.52365,-0.43736 1.36342,-1.16488 1.88707,-1.62924 0.52362,-0.46437 1.36341,-1.23111 1.88706,-1.71754 0.52363,-0.48644 1.3634,-1.28488 1.88704,-1.78836 0.52365,-0.50348 1.36342,-1.32521 1.88707,-1.8404 0.52365,-0.51518 1.36341,-1.35125 1.88705,-1.87271 0.52365,-0.52148 1.36339,-1.36329 1.88702,-1.88566 C 1.16718,17.25961 2.00694,16.42053 2.5306,15.90279 3.05423,15.38503 3.894,14.55807 4.41765,14.0503 4.94128,13.54253 5.78107,12.73552 6.30469,12.24309 6.82834,11.75066 7.6681,10.97299 8.19176,10.50111 8.71541,10.02922 9.55518,9.28851 10.07883,8.84206 10.60246,8.3956 11.44223,7.69975 11.96588,7.28337 12.48953,6.867 13.3293,6.22293 13.85295,5.8411 14.37659,5.45924 15.21635,4.87447 15.74,4.53123 16.26363,4.18799 17.10341,3.66841 17.62704,3.36728 18.1507,3.06615 18.99048,2.61671 19.51411,2.36076 20.03777,2.10484 20.87753,1.73071 21.40117,1.52269 21.92482,1.31465 22.76459,1.01932 23.28824,0.86142 23.81189,0.7035 24.65164,0.49072 25.1753,0.38458 25.69894,0.27846 26.53871,0.14973 27.06236,0.09642 27.58598,0.04309 28.42577,6e-5 28.9494,2.6e-4 c 0.52365,1.8e-4 1.36344,0.04385 1.88707,0.09756 0.52363,0.0537 1.36342,0.18302 1.88706,0.28958 0.52365,0.10657 1.3634,0.32021 1.88705,0.4785 0.52365,0.15832 1.36342,0.45402 1.88707,0.66239 0.52365,0.20839 1.36342,0.58324 1.88705,0.83952 0.52364,0.25627 1.36342,0.70613 1.88706,1.00762 0.52365,0.3015 1.36344,0.82182 1.88707,1.16536 0.52363,0.34353 1.3634,0.92861 1.88705,1.3107 0.52365,0.38209 1.36341,1.02651 1.88706,1.44313 0.52365,0.41661 1.36342,1.11284 1.88706,1.55952 0.52364,0.44669 1.36341,1.18782 1.88706,1.6599 0.52364,0.47207 1.36342,1.24998 1.88706,1.74255 0.52365,0.49256 1.36343,1.29964 1.88705,1.8075 0.52365,0.50784 1.36342,1.33491 1.88706,1.85275 0.52365,0.51782 1.36341,1.35707 1.88707,1.87947 0.52365,0.5224 1.36341,1.36423 1.88706,1.88565 0.52364,0.52141 1.36341,1.35734 1.88706,1.87245 0.52363,0.51509 1.36342,1.33678 1.88707,1.84011 0.52362,0.50331 1.3634,1.30124 1.88704,1.78752 0.52365,0.48626 1.3634,1.25309 1.88705,1.71725 0.52365,0.46416 1.36342,1.191 1.88707,1.62811 0.52365,0.43714 1.36342,1.11684 1.88705,1.52242 0.52366,0.40558 1.36343,1.03096 1.88708,1.40068 0.52363,0.3697 1.36342,0.93405 1.88707,1.26402 0.52362,0.32999 1.3634,0.82744 1.88702,1.11418 0.52365,0.28676 1.36342,0.71198 1.88707,0.95253 0.52365,0.24056 1.36342,0.58937 1.88707,0.78132 0.52364,0.19195 1.3634,0.46098 1.88705,0.60221 0.52365,0.14126 1.36342,0.32677 1.88707,0.41582 0.52364,0.08907 1.36341,0.19012 1.88706,0.22605 0.52363,0.03591 1.36341,0.05057 1.88704,0.03289 0.52365,-0.01767 1.36342,-0.08926 1.88707,-0.16026 0.52365,-0.07097 1.36342,-0.22794 1.88707,-0.35142 0.52363,-0.12349 1.3634,-0.3639 1.88705,-0.53869 0.52365,-0.17479 1.36342,-0.49684 1.88707,-0.72114 0.52362,-0.22429 1.36341,-0.62415 1.88705,-0.89545 0.52363,-0.2713 1.36341,-0.74443 1.88704,-1.05992 0.52366,-0.31551 1.36342,-0.85747 1.88707,-1.214 0.52365,-0.35654 1.36342,-0.96186 1.88706,-1.35569 0.52365,-0.39383 1.36342,-1.0559 1.88707,-1.48277 0.52365,-0.42686 1.3634,-1.13835 1.88705,-1.59381 0.52365,-0.45547 1.36342,-1.20952 1.88706,-1.68887 0.52363,-0.47933 1.36341,-1.26776 1.88705,-1.76587 0.52366,-0.4981 1.36344,-1.31238 1.88707,-1.82408 0.52364,-0.51171 1.3634,-1.34407 1.88706,-1.86402 0.52365,-0.51994 1.36341,-1.36081 1.88707,-1.88341 0.52365,-0.52259 1.3634,-1.36317 1.88705,-1.88312 0.52365,-0.51992 1.36342,-1.35236 1.88705,-1.86428 0.52364,-0.5119 1.36342,-1.32683 1.88706,-1.8252 0.52365,-0.49836 1.36343,-1.28709 1.88705,-1.76672 0.52365,-0.47966 1.36342,-1.23438 1.88707,-1.69026 0.52365,-0.4559 1.36341,-1.16814 1.88706,-1.59551 0.52365,-0.42738 1.88707,-1.48475 1.88707,-1.48475"
       style="fill:none;stroke:#008080;stroke-width:0.79701;stroke-linecap:butt;stroke-linejoin:miter;stroke-miterlimit:10;stroke-dasharray:none;stroke-opacity:1"
       transform="matrix(1.3333333,0,0,-1.3333333,188.38667,176.29333)" />
    <path
       id="path43"
       d="M -66.331,18.42523 H 128.97676"
       style="fill:none;stroke:#000000;stroke-width:0.3985;stroke-linecap:butt;stroke-linejoin:miter;stroke-miterlimit:10;stroke-dasharray:2.98883, 2.98883;stroke-dashoffset:0;stroke-opacity:0.5"
       transform="matrix(1.3333333,0,0,-1.3333333,188.38667,176.29333)" />
    <path
       id="path44"
       d="M -66.331,-18.42523 H 128.97676"
       style="fill:none;stroke:#000000;stroke-width:0.3985;stroke-linecap:butt;stroke-linejoin:miter;stroke-miterlimit:10;stroke-dasharray:2.98883, 2.98883;stroke-dashoffset:0;stroke-opacity:0.5"
       transform="matrix(1.3333333,0,0,-1.3333333,188.38667,176.29333)" />
  </g>
</svg>
