<?xml version="1.0" encoding="UTF-8" standalone="no"?>
<!-- Created with Inkscape (http://www.inkscape.org/) -->

<svg
   version="1.1"
   id="svg1"
   width="173.59372"
   height="187.2189"
   viewBox="0 0 173.59372 187.2189"
   sodipodi:docname="1.3-ejemplo-exponencial2.svg"
   inkscape:version="1.4.2 (f4327f4, 2025-05-13)"
   xmlns:inkscape="http://www.inkscape.org/namespaces/inkscape"
   xmlns:sodipodi="http://sodipodi.sourceforge.net/DTD/sodipodi-0.dtd"
   xmlns="http://www.w3.org/2000/svg"
   xmlns:svg="http://www.w3.org/2000/svg">
  <defs
     id="defs1" />
  <sodipodi:namedview
     id="namedview1"
     pagecolor="#ffffff"
     bordercolor="#000000"
     borderopacity="0.25"
     inkscape:showpageshadow="2"
     inkscape:pageopacity="0.0"
     inkscape:pagecheckerboard="0"
     inkscape:deskcolor="#d1d1d1"
     inkscape:zoom="2.2241536"
     inkscape:cx="89.697042"
     inkscape:cy="107.68141"
     inkscape:window-width="1920"
     inkscape:window-height="1009"
     inkscape:window-x="-8"
     inkscape:window-y="-8"
     inkscape:window-maximized="1"
     inkscape:current-layer="g1">
    <inkscape:page
       x="0"
       y="0"
       inkscape:label="17"
       id="page1"
       width="173.59372"
       height="187.2189"
       margin="0"
       bleed="0" />
  </sodipodi:namedview>
  <g
     id="g1"
     inkscape:groupmode="layer"
     inkscape:label="17"
     transform="translate(-152.48051,-73.953124)">
    <path
       id="path2"
       d="M -56.69362,0 H 70.40874"
       style="fill:none;stroke:#000000;stroke-width:0.3985;stroke-linecap:butt;stroke-linejoin:miter;stroke-miterlimit:10;stroke-dasharray:none;stroke-opacity:1"
       transform="matrix(1.3333333,0,0,-1.3333333,228.072,210.95867)" />
    <path
       id="path3"
       d="M -1.19551,1.59401 C -1.09587,0.99626 0,0.09961 0.29886,0 0,-0.09961 -1.09587,-0.99626 -1.19551,-1.59401"
       style="fill:none;stroke:#000000;stroke-width:0.31879;stroke-linecap:round;stroke-linejoin:round;stroke-miterlimit:10;stroke-dasharray:none;stroke-opacity:1"
       transform="matrix(1.3333333,0,0,-1.3333333,321.95032,210.95867)" />
    <path
       id="path4"
       d="m 3.6442891,-3.2920156 c 0.070312,-0.28125 0.3164062,-1.2890625 1.078125,-1.2890625 0.058594,0 0.3164062,0 0.5507812,0.140625 -0.3046875,0.058594 -0.5273437,0.328125 -0.5273437,0.5859375 0,0.1757812 0.1171875,0.3867187 0.4101562,0.3867187 0.2460938,0 0.5976563,-0.1992187 0.5976563,-0.6328125 0,-0.5625 -0.6445313,-0.7265625 -1.0195313,-0.7265625 -0.6328125,0 -1.0195312,0.5859375 -1.1484375,0.8320313 -0.2695312,-0.7148438 -0.8554687,-0.8320313 -1.171875,-0.8320313 -1.1367187,0 -1.75781249,1.4179688 -1.75781249,1.6875 0,0.1054688 0.10546875,0.1054688 0.12890625,0.1054688 0.0820313,0 0.1171875,-0.023437 0.140625,-0.1171875 0.37500004,-1.1601563 1.08984374,-1.4296875 1.46484374,-1.4296875 0.2109375,0 0.5859375,0.09375 0.5859375,0.7265625 0,0.3398437 -0.1875,1.078125 -0.5859375,2.6015625 -0.1757812,0.67968747 -0.5625,1.13671872 -1.0429687,1.13671872 -0.058594,0 -0.3164063,0 -0.53906254,-0.140625 0.26953124,-0.0585938 0.51562504,-0.29296875 0.51562504,-0.59765625 0,-0.29296877 -0.2460938,-0.37499997 -0.41015629,-0.37499997 -0.328125,0 -0.59765625,0.28124997 -0.59765625,0.63281247 0,0.50390625 0.55078125,0.71484375 1.03125004,0.71484375 0.7148437,0 1.1015625,-0.76171875 1.1367187,-0.83203125 0.1289063,0.41015625 0.5273438,0.83203125 1.1835938,0.83203125 1.125,0 1.7460937,-1.40625002 1.7460937,-1.67578122 0,-0.1054688 -0.1054687,-0.1054688 -0.1289062,-0.1054688 -0.1054688,0 -0.1289063,0.035156 -0.140625,0.1171875 -0.3632813,1.16015627 -1.1132813,1.42968752 -1.453125,1.42968752 -0.4335938,0 -0.609375,-0.3515625 -0.609375,-0.7265625 0,-0.23437502 0.070312,-0.48046872 0.1875,-0.96093752 z m 0,0"
       style="fill:#000000;fill-opacity:1;fill-rule:nonzero;stroke:none"
       aria-label="x"
       transform="matrix(1.3333333,0,0,1.3333333,318.40267,222.33467)" />
    <path
       id="path5"
       d="M 0,-14.17339 V 98.75554"
       style="fill:none;stroke:#000000;stroke-width:0.3985;stroke-linecap:butt;stroke-linejoin:miter;stroke-miterlimit:10;stroke-dasharray:none;stroke-opacity:1"
       transform="matrix(1.3333333,0,0,-1.3333333,228.072,210.95867)" />
    <path
       id="path6"
       d="M -1.19551,1.59401 C -1.09587,0.99626 0,0.09961 0.29886,0 0,-0.09961 -1.09587,-0.99626 -1.19551,-1.59401"
       style="fill:none;stroke:#000000;stroke-width:0.31879;stroke-linecap:round;stroke-linejoin:round;stroke-miterlimit:10;stroke-dasharray:none;stroke-opacity:1"
       transform="matrix(0,-1.3333333,-1.3333333,0,228.072,79.284613)" />
    <path
       id="path7"
       d="m 5.2955703,-4.1611875 c 0.046875,-0.1523437 0.046875,-0.1757812 0.046875,-0.2460937 0,-0.1992188 -0.1523437,-0.2929688 -0.3164062,-0.2929688 -0.1054688,0 -0.28125,0.058594 -0.375,0.2226563 -0.023437,0.058594 -0.1171875,0.3984375 -0.1523438,0.5976562 -0.082031,0.28125 -0.1523437,0.5742188 -0.2226562,0.8671875 L 3.7838516,-1.044 c -0.046875,0.1640625 -0.515625,0.92578125 -1.2304688,0.92578125 -0.5625,0 -0.6796875,-0.48046875 -0.6796875,-0.89062495 0,-0.4921875 0.1875,-1.171875 0.5625,-2.1328125 0.1757813,-0.4453125 0.2109375,-0.5742188 0.2109375,-0.7851563 0,-0.4921875 -0.3515625,-0.9023437 -0.890625,-0.9023437 -1.04296874,0 -1.44140624,1.5820312 -1.44140624,1.6875 0,0.1054687 0.10546875,0.1054687 0.12890625,0.1054687 0.10546875,0 0.1171875,-0.023437 0.17578125,-0.1992187 0.29296875,-1.0195313 0.72656254,-1.3476563 1.10156254,-1.3476563 0.09375,0 0.2695312,0 0.2695312,0.3515625 0,0.2695313 -0.1054687,0.5507813 -0.1757812,0.7617188 -0.4453125,1.1601562 -0.6328125,1.78125 -0.6328125,2.2851562 0,0.97265625 0.6796875,1.30078125 1.3242187,1.30078125 0.421875,0 0.796875,-0.1875 1.1015625,-0.4921875 C 3.4674453,0.1981875 3.3385391,0.72553125 2.9049453,1.3114688 2.6119766,1.67475 2.2018203,1.9911563 1.6979141,1.9911563 c -0.1523438,0 -0.6445313,-0.023437 -0.83203129,-0.4570313 0.17578129,0 0.31640629,0 0.48046879,-0.1289062 0.1054687,-0.09375 0.2109375,-0.234375 0.2109375,-0.44531255 0,-0.33984375 -0.2929688,-0.38671875 -0.3984375,-0.38671875 -0.25781254,0 -0.60937504,0.17578125 -0.60937504,0.7148438 0,0.5390625 0.48046874,0.9492187 1.14843754,0.9492187 1.125,0 2.25,-0.9960937 2.5546875,-2.2265625 z m 0,0"
       style="fill:#000000;fill-opacity:1;fill-rule:nonzero;stroke:none"
       aria-label="y"
       transform="matrix(1.3333333,0,0,1.3333333,233.18533,80.392)" />
    <path
       id="path8"
       d="M -56.69362,42.5202 H 63.7803"
       style="fill:none;stroke:#ec008c;stroke-width:0.3985;stroke-linecap:butt;stroke-linejoin:miter;stroke-miterlimit:10;stroke-dasharray:2.98883, 2.98883;stroke-dashoffset:0;stroke-opacity:0.5"
       transform="matrix(1.3333333,0,0,-1.3333333,228.072,210.95867)" />
    <path
       id="path9"
       d="m -42.5202,40.74854 c 0,0 0.56877,-0.05016 0.78721,-0.06987 0.21845,-0.0197 0.56877,-0.05181 0.78723,-0.07222 0.21843,-0.02044 0.56876,-0.05382 0.78722,-0.07506 0.21843,-0.02124 0.56877,-0.05602 0.78722,-0.07807 0.21844,-0.02206 0.56877,-0.05787 0.78722,-0.08088 0.21844,-0.02303 0.56876,-0.06102 0.78721,-0.08499 0.21844,-0.02399 0.56877,-0.06304 0.78723,-0.08782 0.21843,-0.02478 0.56876,-0.06506 0.78722,-0.09083 0.21843,-0.02578 0.56877,-0.06821 0.78721,-0.09493 0.21845,-0.02675 0.56877,-0.07004 0.78722,-0.09777 0.21844,-0.02772 0.56877,-0.07316 0.78721,-0.10207 0.21845,-0.02892 0.56878,-0.07631 0.78724,-0.1064 0.21843,-0.03009 0.56876,-0.07926 0.78721,-0.11053 0.21843,-0.03126 0.56877,-0.08236 0.78722,-0.11483 0.21844,-0.03246 0.56877,-0.08553 0.78722,-0.11917 0.21844,-0.03363 0.56877,-0.08826 0.78721,-0.12328 0.21845,-0.035 0.56877,-0.0925 0.78723,-0.1291 0.21843,-0.03661 0.56876,-0.09677 0.78722,-0.13474 0.21843,-0.03795 0.56877,-0.09955 0.78722,-0.13884 0.21844,-0.03932 0.56877,-0.10357 0.78721,-0.14447 0.21845,-0.04089 0.56877,-0.10782 0.78722,-0.15031 0.21844,-0.0425 0.56877,-0.11185 0.78723,-0.15593 0.21843,-0.04407 0.56876,-0.11591 0.78722,-0.16176 0.21843,-0.04585 0.56877,-0.12091 0.78721,-0.1687 0.21844,-0.04779 0.56877,-0.12625 0.78722,-0.17583 0.21844,-0.04956 0.56877,-0.12993 0.78722,-0.18144 0.21844,-0.05153 0.56877,-0.1362 0.78723,-0.18988 0.21843,-0.05368 0.56875,-0.14136 0.78721,-0.19704 0.21843,-0.05565 0.56877,-0.14633 0.78722,-0.20414 0.21844,-0.05782 0.56877,-0.15258 0.78721,-0.21261 0.21845,-0.05999 0.56878,-0.15756 0.78722,-0.21993 0.21845,-0.06238 0.56877,-0.16479 0.78723,-0.22968 0.21843,-0.06491 0.56876,-0.17067 0.78722,-0.23812 0.21843,-0.06745 0.56877,-0.17785 0.78721,-0.24804 0.21845,-0.07022 0.56878,-0.18506 0.78722,-0.25803 0.21845,-0.07296 0.56877,-0.19221 0.78722,-0.26796 0.21844,-0.07573 0.56877,-0.19922 0.78723,-0.27789 0.21843,-0.07868 0.56875,-0.20734 0.78721,-0.28917 0.21843,-0.08181 0.56877,-0.21562 0.78722,-0.3006 0.21845,-0.08497 0.56877,-0.22377 0.78722,-0.31187 0.21844,-0.08809 0.56877,-0.23143 0.78721,-0.32311 0.21845,-0.09166 0.56877,-0.24217 0.78723,-0.33758 0.21843,-0.09542 0.56876,-0.25102 0.78722,-0.35015 0.21843,-0.0991 0.56877,-0.26112 0.78722,-0.36419 0.21844,-0.10308 0.56877,-0.27147 0.78721,-0.37868 0.21845,-0.10723 0.56877,-0.28273 0.78722,-0.39406 0.21844,-0.11131 0.56877,-0.29284 0.78723,-0.40831 0.21843,-0.11545 0.56876,-0.30371 0.78722,-0.42389 0.21843,-0.12016 0.56877,-0.31738 0.78721,-0.44227 0.21845,-0.12488 0.56877,-0.32802 0.78722,-0.45783 0.21844,-0.1298 0.56877,-0.34279 0.78722,-0.47773 0.21844,-0.13494 0.56877,-0.35476 0.78722,-0.49483 0.21844,-0.14008 0.56876,-0.36896 0.78722,-0.51473 0.21843,-0.14576 0.56878,-0.38495 0.78722,-0.53592 C 0.20807,28.19951 0.55838,27.9551 0.77682,27.79832 0.99527,27.64159 1.3456,27.38412 1.56404,27.22069 1.78249,27.05724 2.13281,26.79018 2.35127,26.62032 2.5697,26.45044 2.92003,26.17293 3.13849,25.99638 3.35692,25.81982 3.70726,25.53128 3.9257,25.3478 4.14415,25.16429 4.49448,24.86453 4.71292,24.6739 4.93137,24.48326 5.2817,24.172 5.50014,23.97383 5.71858,23.77568 6.06891,23.45166 6.28737,23.24565 6.5058,23.03967 6.85612,22.70313 7.07458,22.48915 7.29301,22.27518 7.64336,21.9258 7.8618,21.70345 8.08025,21.48111 8.43057,21.11774 8.64902,20.8866 8.86746,20.65546 9.21779,20.27776 9.43623,20.03752 9.65468,19.7973 10.005,19.4048 10.22346,19.15514 c 0.21844,-0.24965 0.56876,-0.6576 0.78722,-0.91697 0.21843,-0.25938 0.56877,-0.68281 0.78722,-0.95245 0.21844,-0.26964 0.56877,-0.71082 0.78721,-0.99095 0.21845,-0.28015 0.56877,-0.73705 0.78722,-1.02814 0.21844,-0.29109 0.56877,-0.76721 0.78723,-1.06988 0.21843,-0.30268 0.56876,-0.79709 0.78722,-1.11162 0.21842,-0.31453 0.56877,-0.82845 0.7872,-1.15531 0.21846,-0.32685 0.56878,-0.86087 0.78722,-1.20051 C 16.73965,10.38966 17.08998,9.8349 17.30841,9.48186 17.52687,9.12885 17.8772,8.5517 18.09564,8.1849 18.31409,7.8181 18.66441,7.21939 18.88286,6.8382 19.1013,6.45699 19.45164,5.83376 19.67007,5.43742 19.88853,5.04109 20.23886,4.39352 20.45729,3.9817 20.67575,3.5699 21.02608,2.89713 21.2445,2.46935 c 0.21847,-0.42779 0.5688,-1.12612 0.78724,-1.57078 0.21844,-0.44462 0.56877,-1.17163 0.78721,-1.63386 0.21845,-0.46227 0.56879,-1.21747 0.78722,-1.69772 0.21846,-0.48026 0.56879,-1.26455 0.78722,-1.76368 0.21846,-0.49913 0.56878,-1.31497 0.78721,-1.83375 0.21846,-0.51878 0.56879,-1.36621 0.78723,-1.90532 0.21845,-0.53909 0.56877,-1.42001 0.78722,-1.98016 0.21845,-0.56014 0.56879,-1.47475 0.78722,-2.05693 0.21846,-0.5822 0.56878,-1.53389 0.78721,-2.13912 0.21846,-0.60524 0.56879,-1.59427 0.78722,-2.22303 0.21846,-0.62876 0.56879,-1.65513 0.78723,-2.30866 0.21845,-0.65355 0.56877,-1.72241 0.78722,-2.40167 0.21844,-0.67927 0.56878,-1.78835 0.78721,-2.49401 0.21846,-0.70569 0.56879,-1.85847 0.78722,-2.59201 0.21846,-0.7335 0.56879,-1.93231 0.78722,-2.6947 0.21846,-0.76237 0.56878,-2.00771 0.78723,-2.80003 0.21844,-0.79233 0.56877,-2.08719 0.78721,-2.91054 0.21845,-0.82335 0.78722,-3.02367 0.78722,-3.02367"
       style="fill:none;stroke:#008080;stroke-width:0.79701;stroke-linecap:butt;stroke-linejoin:miter;stroke-miterlimit:10;stroke-dasharray:none;stroke-opacity:1"
       transform="matrix(1.3333333,0,0,-1.3333333,228.072,210.95867)" />
    <g
       id="g9"
       aria-label="y=3−2&#10;x"
       transform="matrix(1.3333333,0,0,1.3333333,254.31067,176.284)">
      <path
         id="path10"
         d="m 4.8412187,-3.7960078 c 0.046875,-0.140625 0.046875,-0.1523438 0.046875,-0.2226563 0,-0.1875 -0.140625,-0.2695312 -0.2929687,-0.2695312 -0.1054688,0 -0.2578125,0.058594 -0.3515625,0.1992187 -0.023437,0.058594 -0.09375,0.3632813 -0.140625,0.5390625 -0.070312,0.2578125 -0.140625,0.5273438 -0.1992188,0.796875 l -0.4453125,1.79296879 c -0.035156,0.15234375 -0.46875,0.85546875 -1.125,0.85546875 -0.5039062,0 -0.6210937,-0.4453125 -0.6210937,-0.80859375 0,-0.45703129 0.1757812,-1.07812499 0.515625,-1.95703129 0.1523437,-0.4101562 0.1992187,-0.515625 0.1992187,-0.7148437 0,-0.4453125 -0.328125,-0.8203125 -0.8203125,-0.8203125 -0.9492187,0 -1.31249995,1.453125 -1.31249995,1.5351562 0,0.1054688 0.09375,0.1054688 0.1171875,0.1054688 0.09375,0 0.10546875,-0.023437 0.15234375,-0.1875 0.26953125,-0.9375 0.6679687,-1.2304688 1.0078125,-1.2304688 0.082031,0 0.2578125,0 0.2578125,0.3164063 0,0.2460937 -0.1054688,0.515625 -0.1757813,0.703125 C 1.2552812,-2.1085078 1.0795,-1.5460078 1.0795,-1.0772578 c 0,0.89062499 0.6210937,1.18359374 1.21875,1.18359374 0.3867187,0 0.7265625,-0.1640625 0.9960937,-0.4453125 C 3.1654375,0.17664844 3.04825,0.66883594 2.6498125,1.1961797 2.392,1.5360234 2.017,1.8289922 1.5599687,1.8289922 c -0.140625,0 -0.5976562,-0.035156 -0.7617187,-0.421875 0.1640625,0 0.2929687,0 0.4335937,-0.1171875 0.09375,-0.09375 0.1992188,-0.2226563 0.1992188,-0.41015626 0,-0.31640625 -0.2695313,-0.3515625 -0.375,-0.3515625 -0.22265625,0 -0.55078125,0.1640625 -0.55078125,0.64453126 0,0.5039062 0.43359375,0.8671875 1.05468745,0.8671875 C 2.5795,2.0399297 3.61075,1.1375859 3.892,0.01258594 Z m 0,0"
         style="fill:#008080;fill-opacity:1;fill-rule:nonzero;stroke:none" />
      <path
         id="path11"
         d="m 14.85782,-3.2569453 c 0.152344,0 0.339844,0 0.339844,-0.1992188 0,-0.1992187 -0.1875,-0.1992187 -0.328125,-0.1992187 H 8.9046953 c -0.140625,0 -0.328125,0 -0.328125,0.1992187 0,0.1992188 0.1875,0.1992188 0.3398438,0.1992188 z m 0.01172,1.9335937 c 0.140625,0 0.328125,0 0.328125,-0.1992187 0,-0.1992188 -0.1875,-0.1992188 -0.339844,-0.1992188 H 8.9164141 c -0.1523438,0 -0.3398438,0 -0.3398438,0.1992188 0,0.1992187 0.1875,0.1992187 0.328125,0.1992187 z m 6.547852,-2.1796875 c 0.808593,-0.2695312 1.394531,-0.9726562 1.394531,-1.7578125 0,-0.8203125 -0.878906,-1.3710937 -1.839844,-1.3710937 -1.007812,0 -1.757812,0.5976562 -1.757812,1.3476562 0,0.3398438 0.210937,0.5273438 0.503906,0.5273438 0.304687,0 0.503906,-0.2226563 0.503906,-0.515625 0,-0.4921875 -0.46875,-0.4921875 -0.609375,-0.4921875 0.304688,-0.4921875 0.960938,-0.6210938 1.324219,-0.6210938 0.410156,0 0.949219,0.2226563 0.949219,1.1132813 0,0.1289062 -0.01172,0.703125 -0.269532,1.1367187 -0.304687,0.4804688 -0.644531,0.515625 -0.890625,0.515625 -0.08203,0.011719 -0.316406,0.035156 -0.386718,0.035156 -0.08203,0.011719 -0.152344,0.023437 -0.152344,0.1171875 0,0.1171875 0.07031,0.1171875 0.234375,0.1171875 h 0.445312 c 0.808594,0 1.183594,0.6679687 1.183594,1.6523437 0,1.34765629 -0.691406,1.64062504 -1.125,1.64062504 -0.433594,0 -1.171875,-0.17578125 -1.523437,-0.76171875 0.351562,0.0585938 0.65625,-0.1640625 0.65625,-0.53906249 0,-0.3632813 -0.269532,-0.5625 -0.5625,-0.5625 -0.234375,0 -0.550782,0.140625 -0.550782,0.5742187 0,0.91406254 0.925782,1.57031254 2.003907,1.57031254 1.21875,0 2.121093,-0.9140625 2.121093,-1.92187504 0,-0.8203125 -0.621093,-1.59375 -1.652343,-1.8046872 z m 0,0"
         style="fill:#008080;fill-opacity:1;fill-rule:nonzero;stroke:none" />
      <path
         id="path12"
         d="m 32.286531,-2.2960078 c 0.175781,0 0.351563,0 0.351563,-0.1992188 0,-0.1992187 -0.175782,-0.1992187 -0.351563,-0.1992187 h -5.390625 c -0.164062,0 -0.339844,0 -0.339844,0.1992187 0,0.1992188 0.175782,0.1992188 0.339844,0.1992188 z m 0,0"
         style="fill:#008080;fill-opacity:1;fill-rule:nonzero;stroke:none" />
      <path
         id="path13"
         d="m 36.950594,-0.76085156 1.054687,-1.03125004 c 1.558594,-1.3710937 2.15625,-1.9101562 2.15625,-2.90625 0,-1.1367187 -0.902344,-1.9335937 -2.121094,-1.9335937 -1.125,0 -1.851562,0.9140625 -1.851562,1.8046875 0,0.5507812 0.492187,0.5507812 0.527344,0.5507812 0.164062,0 0.515625,-0.1171875 0.515625,-0.5273437 0,-0.2578125 -0.1875,-0.515625 -0.527344,-0.515625 -0.08203,0 -0.105469,0 -0.128906,0.011719 0.222656,-0.6445312 0.761718,-1.0195312 1.335937,-1.0195312 0.914063,0 1.335938,0.8085937 1.335938,1.6289062 0,0.796875 -0.492188,1.5820313 -1.042969,2.203125 l -1.910156,2.13281254 c -0.105469,0.10546875 -0.105469,0.12890625 -0.105469,0.3632812475 h 3.691406 L 40.161531,-1.7335078 h -0.257812 c -0.04687,0.3046875 -0.117188,0.73828124 -0.210938,0.89062499 -0.07031,0.0820313 -0.726562,0.0820313 -0.949219,0.0820313 z m 0,0"
         style="fill:#008080;fill-opacity:1;fill-rule:nonzero;stroke:none" />
      <path
         id="path14"
         d="m 42.399812,-4.3555781 c -0.07031,0.234375 -0.292968,0.609375 -0.65625,0.609375 -0.02344,0 -0.222656,0 -0.375,-0.09375 0.28125,-0.09375 0.304688,-0.3398438 0.304688,-0.3867188 0,-0.1523437 -0.117188,-0.2578125 -0.28125,-0.2578125 -0.1875,0 -0.386719,0.1640625 -0.386719,0.4335938 0,0.3398437 0.386719,0.5039062 0.726563,0.5039062 0.316406,0 0.609375,-0.1992187 0.785156,-0.4921875 0.164062,0.3632813 0.550781,0.4921875 0.820312,0.4921875 0.808594,0 1.230469,-0.8671875 1.230469,-1.0664062 0,-0.09375 -0.09375,-0.09375 -0.105469,-0.09375 -0.105468,0 -0.105468,0.035156 -0.140625,0.1171875 -0.140625,0.4804687 -0.5625,0.84375 -0.949218,0.84375 -0.28125,0 -0.421875,-0.1875 -0.421875,-0.4453125 0,-0.1875 0.164062,-0.8203125 0.363281,-1.59375 0.128906,-0.5390625 0.445312,-0.7148438 0.679687,-0.7148438 0.01172,0 0.222657,0 0.375,0.1054688 -0.222656,0.058594 -0.304687,0.2578125 -0.304687,0.375 0,0.1523437 0.117187,0.2578125 0.28125,0.2578125 0.152344,0 0.386719,-0.1289063 0.386719,-0.421875 0,-0.3867188 -0.445313,-0.5039063 -0.726563,-0.5039063 -0.351562,0 -0.632812,0.2226563 -0.785156,0.4921875 -0.117188,-0.2929687 -0.445313,-0.4921875 -0.832031,-0.4921875 -0.785157,0 -1.230469,0.8554688 -1.230469,1.0664063 0,0.082031 0.105469,0.082031 0.117187,0.082031 0.09375,0 0.105469,-0.023437 0.140625,-0.1171875 0.175782,-0.5390625 0.609375,-0.84375 0.949219,-0.84375 0.234375,0 0.421875,0.1289063 0.421875,0.46875 0,0.1289063 -0.08203,0.4804688 -0.152344,0.7148438 z m 0,0"
         style="fill:#008080;fill-opacity:1;fill-rule:nonzero;stroke:none" />
    </g>
    <path
       id="path15"
       d="m 2.8948359,-3.5036641 c 0.8085938,-0.2695312 1.3945313,-0.9726562 1.3945313,-1.7578125 0,-0.8203125 -0.8789063,-1.3710937 -1.8398438,-1.3710937 -1.0078125,0 -1.75781246,0.5976562 -1.75781246,1.3476562 0,0.3398438 0.2109375,0.5273438 0.50390626,0.5273438 0.3046875,0 0.5039062,-0.2226563 0.5039062,-0.515625 0,-0.4921875 -0.46875,-0.4921875 -0.609375,-0.4921875 0.3046875,-0.4921875 0.9609375,-0.6210938 1.3242188,-0.6210938 0.4101562,0 0.9492187,0.2226563 0.9492187,1.1132813 0,0.1289062 -0.011719,0.703125 -0.2695312,1.1367187 -0.3046875,0.4804688 -0.6445313,0.515625 -0.890625,0.515625 -0.082031,0.011719 -0.3164063,0.035156 -0.3867188,0.035156 -0.082031,0.011719 -0.1523437,0.023437 -0.1523437,0.1171875 0,0.1171875 0.070312,0.1171875 0.234375,0.1171875 h 0.4453125 c 0.8085937,0 1.1835937,0.6679687 1.1835937,1.6523437 0,1.34765629 -0.6914062,1.64062504 -1.125,1.64062504 -0.4335937,0 -1.171875,-0.17578125 -1.52343746,-0.76171875 0.35156246,0.0585938 0.65624996,-0.1640625 0.65624996,-0.53906249 0,-0.3632813 -0.2695312,-0.5625 -0.56249996,-0.5625 -0.234375,0 -0.55078125,0.140625 -0.55078125,0.5742187 0,0.91406254 0.92578121,1.57031254 2.00390621,1.57031254 1.21875,0 2.1210938,-0.9140625 2.1210938,-1.92187504 0,-0.8203125 -0.6210938,-1.59375 -1.6523438,-1.8046872 z m 0,0"
       style="fill:#000000;fill-opacity:1;fill-rule:nonzero;stroke:none"
       aria-label="3"
       transform="matrix(1.3333333,0,0,1.3333333,216.316,149.09733)" />
  </g>
</svg>
