<?xml version="1.0" encoding="UTF-8" standalone="no"?>
<!-- Created with Inkscape (http://www.inkscape.org/) -->

<svg
   version="1.1"
   id="svg1"
   width="173.59372"
   height="155.90393"
   viewBox="0 0 173.59372 155.90393"
   sodipodi:docname="1.3-ejemplo-exponencial.svg"
   inkscape:version="1.4.2 (f4327f4, 2025-05-13)"
   xmlns:inkscape="http://www.inkscape.org/namespaces/inkscape"
   xmlns:sodipodi="http://sodipodi.sourceforge.net/DTD/sodipodi-0.dtd"
   xmlns="http://www.w3.org/2000/svg"
   xmlns:svg="http://www.w3.org/2000/svg">
  <defs
     id="defs1" />
  <sodipodi:namedview
     id="namedview1"
     pagecolor="#ffffff"
     bordercolor="#000000"
     borderopacity="0.25"
     inkscape:showpageshadow="2"
     inkscape:pageopacity="0.0"
     inkscape:pagecheckerboard="0"
     inkscape:deskcolor="#d1d1d1"
     inkscape:zoom="2.2241536"
     inkscape:cx="89.697042"
     inkscape:cy="95.092353"
     inkscape:window-width="1920"
     inkscape:window-height="1009"
     inkscape:window-x="-8"
     inkscape:window-y="-8"
     inkscape:window-maximized="1"
     inkscape:current-layer="g1">
    <inkscape:page
       x="0"
       y="0"
       inkscape:label="16"
       id="page1"
       width="173.59372"
       height="155.90393"
       margin="0"
       bleed="0" />
  </sodipodi:namedview>
  <g
     id="g1"
     inkscape:groupmode="layer"
     inkscape:label="16"
     transform="translate(-152.48051,-86.531249)">
    <path
       id="path2"
       d="M -56.69362,0 H 70.40874"
       style="fill:none;stroke:#000000;stroke-width:0.3985;stroke-linecap:butt;stroke-linejoin:miter;stroke-miterlimit:10;stroke-dasharray:none;stroke-opacity:1"
       transform="matrix(1.3333333,0,0,-1.3333333,228.072,223.53733)" />
    <path
       id="path3"
       d="M -1.19551,1.59401 C -1.09587,0.99626 0,0.09961 0.29886,0 0,-0.09961 -1.09587,-0.99626 -1.19551,-1.59401"
       style="fill:none;stroke:#000000;stroke-width:0.31879;stroke-linecap:round;stroke-linejoin:round;stroke-miterlimit:10;stroke-dasharray:none;stroke-opacity:1"
       transform="matrix(1.3333333,0,0,-1.3333333,321.95032,223.53733)" />
    <path
       id="path4"
       d="m 3.6442891,-3.2924219 c 0.070312,-0.28125 0.3164062,-1.2890625 1.078125,-1.2890625 0.058594,0 0.3164062,0 0.5507812,0.140625 -0.3046875,0.058594 -0.5273437,0.328125 -0.5273437,0.5859375 0,0.1757813 0.1171875,0.3867188 0.4101562,0.3867188 0.2460938,0 0.5976563,-0.1992188 0.5976563,-0.6328125 0,-0.5625 -0.6445313,-0.7265625 -1.0195313,-0.7265625 -0.6328125,0 -1.0195312,0.5859375 -1.1484375,0.8320312 -0.2695312,-0.7148437 -0.8554687,-0.8320312 -1.171875,-0.8320312 -1.1367187,0 -1.75781249,1.4179687 -1.75781249,1.6875 0,0.1054687 0.10546875,0.1054687 0.12890625,0.1054687 0.0820313,0 0.1171875,-0.023437 0.140625,-0.1171875 0.37500004,-1.1601562 1.08984374,-1.4296875 1.46484374,-1.4296875 0.2109375,0 0.5859375,0.09375 0.5859375,0.7265625 0,0.3398438 -0.1875,1.078125 -0.5859375,2.6015625 -0.1757812,0.67968752 -0.5625,1.13671877 -1.0429687,1.13671877 -0.058594,0 -0.3164063,0 -0.53906254,-0.140625 0.26953124,-0.0585938 0.51562504,-0.29296875 0.51562504,-0.59765625 0,-0.29296872 -0.2460938,-0.37500002 -0.41015629,-0.37500002 -0.328125,0 -0.59765625,0.28125002 -0.59765625,0.63281252 0,0.50390625 0.55078125,0.71484375 1.03125004,0.71484375 0.7148437,0 1.1015625,-0.76171875 1.1367187,-0.83203125 0.1289063,0.41015625 0.5273438,0.83203125 1.1835938,0.83203125 1.125,0 1.7460937,-1.40624997 1.7460937,-1.67578127 0,-0.1054687 -0.1054687,-0.1054687 -0.1289062,-0.1054687 -0.1054688,0 -0.1289063,0.035156 -0.140625,0.1171875 -0.3632813,1.16015622 -1.1132813,1.42968747 -1.453125,1.42968747 -0.4335938,0 -0.609375,-0.3515625 -0.609375,-0.7265625 0,-0.23437497 0.070312,-0.48046877 0.1875,-0.96093747 z m 0,0"
       style="fill:#000000;fill-opacity:1;fill-rule:nonzero;stroke:none"
       aria-label="x"
       transform="matrix(1.3333333,0,0,1.3333333,318.40267,234.91333)" />
    <path
       id="path5"
       d="M 0,-14.17339 V 98.75554"
       style="fill:none;stroke:#000000;stroke-width:0.3985;stroke-linecap:butt;stroke-linejoin:miter;stroke-miterlimit:10;stroke-dasharray:none;stroke-opacity:1"
       transform="matrix(1.3333333,0,0,-1.3333333,228.072,223.53733)" />
    <path
       id="path6"
       d="M -1.19551,1.59401 C -1.09587,0.99626 0,0.09961 0.29886,0 0,-0.09961 -1.09587,-0.99626 -1.19551,-1.59401"
       style="fill:none;stroke:#000000;stroke-width:0.31879;stroke-linecap:round;stroke-linejoin:round;stroke-miterlimit:10;stroke-dasharray:none;stroke-opacity:1"
       transform="matrix(0,-1.3333333,-1.3333333,0,228.072,91.86328)" />
    <path
       id="path7"
       d="m 5.2955703,-4.1615937 c 0.046875,-0.1523438 0.046875,-0.1757813 0.046875,-0.2460938 0,-0.1992187 -0.1523437,-0.2929687 -0.3164062,-0.2929687 -0.1054688,0 -0.28125,0.058594 -0.375,0.2226562 -0.023437,0.058594 -0.1171875,0.3984375 -0.1523438,0.5976563 -0.082031,0.28125 -0.1523437,0.5742187 -0.2226562,0.8671875 l -0.4921875,1.96875 c -0.046875,0.16406245 -0.515625,0.9257812 -1.2304688,0.9257812 -0.5625,0 -0.6796875,-0.48046875 -0.6796875,-0.890625 0,-0.4921875 0.1875,-1.171875 0.5625,-2.1328125 0.1757813,-0.4453125 0.2109375,-0.5742187 0.2109375,-0.7851562 0,-0.4921875 -0.3515625,-0.9023438 -0.890625,-0.9023438 -1.04296874,0 -1.44140624,1.5820313 -1.44140624,1.6875 0,0.1054688 0.10546875,0.1054688 0.12890625,0.1054688 0.10546875,0 0.1171875,-0.023437 0.17578125,-0.1992188 0.29296875,-1.0195312 0.72656254,-1.3476562 1.10156254,-1.3476562 0.09375,0 0.2695312,0 0.2695312,0.3515625 0,0.2695312 -0.1054687,0.5507812 -0.1757812,0.7617187 -0.4453125,1.1601563 -0.6328125,1.78125 -0.6328125,2.2851563 0,0.9726562 0.6796875,1.3007812 1.3242187,1.3007812 0.421875,0 0.796875,-0.1875 1.1015625,-0.4921875 -0.140625,0.57421875 -0.2695312,1.1015625 -0.703125,1.6875 C 2.6119766,1.6743438 2.2018203,1.99075 1.6979141,1.99075 c -0.1523438,0 -0.6445313,-0.023437 -0.83203129,-0.4570312 0.17578129,0 0.31640629,0 0.48046879,-0.1289063 0.1054687,-0.09375 0.2109375,-0.234375 0.2109375,-0.4453125 0,-0.33984375 -0.2929688,-0.38671875 -0.3984375,-0.38671875 -0.25781254,0 -0.60937504,0.17578125 -0.60937504,0.71484375 0,0.5390625 0.48046874,0.9492188 1.14843754,0.9492188 1.125,0 2.25,-0.9960938 2.5546875,-2.22656255 z m 0,0"
       style="fill:#000000;fill-opacity:1;fill-rule:nonzero;stroke:none"
       aria-label="y"
       transform="matrix(1.3333333,0,0,1.3333333,233.18533,92.970667)" />
    <path
       id="path8"
       d="m -42.5202,1.77167 c 0,0 0.56877,0.05014 0.78721,0.06983 0.21845,0.01974 0.56877,0.05183 0.78723,0.07226 0.21843,0.02043 0.56876,0.0538 0.78722,0.07502 0.21843,0.02125 0.56877,0.05604 0.78722,0.07808 0.21844,0.02205 0.56877,0.05788 0.78722,0.08089 0.21844,0.02303 0.56876,0.06104 0.78721,0.08501 0.21844,0.02397 0.56877,0.063 0.78723,0.08778 0.21843,0.02478 0.56876,0.06506 0.78722,0.09085 0.21843,0.02577 0.56877,0.06819 0.78721,0.09494 0.21845,0.02672 0.56877,0.07004 0.78722,0.09775 0.21844,0.02772 0.56877,0.07317 0.78721,0.10208 0.21845,0.02893 0.56878,0.07631 0.78724,0.1064 0.21843,0.03009 0.56876,0.07926 0.78721,0.11052 0.21843,0.03127 0.56877,0.08237 0.78722,0.11482 0.21844,0.03249 0.56877,0.08556 0.78722,0.11917 0.21844,0.03365 0.56877,0.08828 0.78721,0.12328 0.21845,0.03502 0.56877,0.0925 0.78723,0.1291 0.21843,0.03663 0.56876,0.09681 0.78722,0.13474 0.21843,0.03796 0.56877,0.09955 0.78722,0.13885 0.21844,0.03931 0.56877,0.10358 0.78721,0.14447 0.21845,0.0409 0.56877,0.10782 0.78722,0.1503 0.21844,0.0425 0.56877,0.11187 0.78723,0.15593 0.21843,0.04409 0.56876,0.11594 0.78722,0.16178 0.21843,0.04585 0.56877,0.12089 0.78721,0.16868 0.21844,0.0478 0.56877,0.12627 0.78722,0.17583 0.21844,0.04957 0.56877,0.12993 0.78722,0.18146 0.21844,0.05151 0.56877,0.1362 0.78723,0.18988 0.21843,0.05368 0.56875,0.14137 0.78721,0.19702 0.21843,0.05566 0.56877,0.14633 0.78722,0.20416 0.21844,0.05782 0.56877,0.15259 0.78721,0.21259 0.21845,0.06001 0.56878,0.15756 0.78722,0.21996 0.21845,0.06237 0.56877,0.16477 0.78723,0.22967 0.21843,0.06489 0.56876,0.17065 0.78722,0.2381 0.21843,0.06746 0.56877,0.17785 0.78721,0.24807 0.21845,0.07019 0.56878,0.18503 0.78722,0.258 0.21845,0.07298 0.56877,0.19221 0.78722,0.26796 0.21844,0.07573 0.56877,0.19923 0.78723,0.2779 0.21843,0.07868 0.56875,0.20734 0.78721,0.28916 0.21843,0.08184 0.56877,0.21564 0.78722,0.30061 0.21845,0.085 0.56877,0.22377 0.78722,0.31186 0.21844,0.08809 0.56877,0.23143 0.78721,0.32311 0.21845,0.09166 0.56877,0.24219 0.78723,0.3376 0.21843,0.09541 0.56876,0.25104 0.78722,0.35013 0.21843,0.09912 0.56877,0.26112 0.78722,0.36419 0.21844,0.10308 0.56877,0.27149 0.78721,0.3787 0.21845,0.10721 0.56877,0.28271 0.78722,0.39404 0.21844,0.11133 0.56877,0.29286 0.78723,0.40833 0.21843,0.11546 0.56876,0.30371 0.78722,0.42387 0.21843,0.12018 0.56877,0.31738 0.78721,0.44227 0.21845,0.12488 0.56877,0.32804 0.78722,0.45784 0.21844,0.12981 0.56877,0.34281 0.78722,0.47774 0.21844,0.13495 0.56877,0.35475 0.78722,0.49481 0.21844,0.14008 0.56876,0.36896 0.78722,0.51473 0.21843,0.14578 0.56878,0.38496 0.78722,0.53592 0.21843,0.15097 0.56874,0.39539 0.78718,0.55214 0.21845,0.15677 0.56878,0.4142 0.78722,0.57765 0.21845,0.16344 0.56877,0.4305 0.78723,0.60036 0.21843,0.16987 0.56876,0.44738 0.78722,0.62394 0.21843,0.17655 0.56877,0.4651 0.78721,0.6486 0.21845,0.18348 0.56878,0.48324 0.78722,0.67388 0.21845,0.19063 0.56878,0.50191 0.78722,0.70006 0.21844,0.19818 0.56877,0.52219 0.78723,0.72818 0.21843,0.20599 0.56875,0.54254 0.78721,0.75652 0.21843,0.21397 0.56878,0.56336 0.78722,0.7857 0.21845,0.22236 0.56877,0.58571 0.78722,0.81685 0.21844,0.23114 0.56877,0.60884 0.78721,0.84906 0.21845,0.24024 0.56877,0.63274 0.78723,0.88239 0.21844,0.24966 0.56876,0.6576 0.78722,0.91699 0.21843,0.25937 0.56877,0.6828 0.78722,0.95244 0.21844,0.26963 0.56877,0.7108 0.78721,0.99095 0.21845,0.28013 0.56877,0.73704 0.78722,1.02814 0.21844,0.29109 0.56877,0.76721 0.78723,1.06988 0.21843,0.30269 0.56876,0.7971 0.78722,1.11163 0.21842,0.31452 0.56877,0.82845 0.7872,1.15531 0.21846,0.32686 0.56878,0.86085 0.78722,1.2005 0.21845,0.33963 0.56878,0.89441 0.78721,1.24743 0.21846,0.35305 0.56879,0.93017 0.78723,1.29697 0.21845,0.36681 0.56877,0.9655 0.78722,1.34671 0.21844,0.3812 0.56878,1.00446 0.78721,1.40077 0.21846,0.39634 0.56879,1.0439 0.78722,1.45571 0.21846,0.41182 0.56879,1.08459 0.78721,1.51237 0.21847,0.42778 0.5688,1.12612 0.78724,1.57076 0.21844,0.44464 0.56877,1.17166 0.78721,1.63392 0.21845,0.46224 0.56879,1.21746 0.78722,1.69771 0.21846,0.48024 0.56879,1.26453 0.78722,1.76367 0.21846,0.49913 0.56878,1.31496 0.78721,1.83374 0.21846,0.51879 0.56879,1.36623 0.78723,1.90532 0.21845,0.53911 0.56877,1.42003 0.78722,1.98017 0.21845,0.56015 0.56879,1.47474 0.78722,2.05694 0.21846,0.58219 0.56878,1.53388 0.78721,2.13912 0.21846,0.60522 0.56879,1.59427 0.78722,2.22302 0.21846,0.62877 0.56879,1.65514 0.78723,2.30869 0.21845,0.65354 0.56877,1.72239 0.78722,2.40165 0.21844,0.67926 0.56878,1.78835 0.78721,2.49402 0.21846,0.70566 0.56879,1.85848 0.78722,2.59198 0.21846,0.73352 0.56879,1.93235 0.78722,2.69472 0.21846,0.76237 0.56878,2.00769 0.78723,2.80002 0.21844,0.79232 0.56877,2.0872 0.78721,2.91055 0.21845,0.82336 0.78722,3.02366 0.78722,3.02366"
       style="fill:none;stroke:#eb0a36;stroke-width:0.79701;stroke-linecap:butt;stroke-linejoin:miter;stroke-miterlimit:10;stroke-dasharray:none;stroke-opacity:1"
       transform="matrix(1.3333333,0,0,-1.3333333,228.072,223.53733)" />
    <g
       id="g8"
       aria-label="y=2&#10;x"
       transform="matrix(1.3333333,0,0,1.3333333,265.74933,188.86267)">
      <path
         id="path9"
         d="m 4.8403438,-3.7964141 c 0.046875,-0.140625 0.046875,-0.1523437 0.046875,-0.2226562 0,-0.1875 -0.140625,-0.2695313 -0.2929688,-0.2695313 -0.1054687,0 -0.2578125,0.058594 -0.3515625,0.1992188 -0.023437,0.058594 -0.09375,0.3632812 -0.140625,0.5390625 -0.070312,0.2578125 -0.140625,0.5273437 -0.1992187,0.796875 l -0.4453125,1.79296874 c -0.035156,0.15234375 -0.46875,0.85546875 -1.125,0.85546875 -0.5039063,0 -0.6210938,-0.4453125 -0.6210938,-0.80859375 0,-0.45703124 0.1757813,-1.07812504 0.515625,-1.95703124 0.1523438,-0.4101563 0.1992188,-0.515625 0.1992188,-0.7148438 0,-0.4453125 -0.328125,-0.8203125 -0.8203125,-0.8203125 -0.9492188,0 -1.31250005,1.453125 -1.31250005,1.5351563 0,0.1054687 0.09375,0.1054687 0.1171875,0.1054687 0.09375,0 0.10546875,-0.023437 0.15234375,-0.1875 0.26953125,-0.9375 0.6679688,-1.2304687 1.0078125,-1.2304687 0.082031,0 0.2578125,0 0.2578125,0.3164062 0,0.2460938 -0.1054687,0.515625 -0.1757812,0.703125 -0.3984375,1.0546875 -0.5742188,1.6171875 -0.5742188,2.0859375 0,0.89062504 0.6210938,1.18359379 1.21875,1.18359379 0.3867188,0 0.7265625,-0.1640625 0.9960938,-0.4453125 C 3.1645625,0.17624219 3.047375,0.66842969 2.6489375,1.1957734 2.391125,1.5356172 2.016125,1.8285859 1.5590938,1.8285859 c -0.140625,0 -0.5976563,-0.035156 -0.7617188,-0.421875 0.1640625,0 0.2929688,0 0.4335938,-0.1171875 0.09375,-0.09375 0.1992187,-0.2226562 0.1992187,-0.41015621 0,-0.31640625 -0.2695312,-0.3515625 -0.375,-0.3515625 -0.22265625,0 -0.55078125,0.1640625 -0.55078125,0.64453121 0,0.5039063 0.43359375,0.8671875 1.05468755,0.8671875 1.0195312,0 2.0507812,-0.9023437 2.3320312,-2.02734371 z m 0,0"
         style="fill:#eb0a36;fill-opacity:1;fill-rule:nonzero;stroke:none" />
      <path
         id="path10"
         d="m 14.856945,-3.2573516 c 0.152344,0 0.339844,0 0.339844,-0.1992187 0,-0.1992188 -0.1875,-0.1992188 -0.328125,-0.1992188 H 8.9038203 c -0.140625,0 -0.328125,0 -0.328125,0.1992188 0,0.1992187 0.1875,0.1992187 0.3398438,0.1992187 z m 0.01172,1.9335938 c 0.140625,0 0.328125,0 0.328125,-0.1992188 0,-0.1992187 -0.1875,-0.1992187 -0.339844,-0.1992187 H 8.9155391 c -0.1523438,0 -0.3398438,0 -0.3398438,0.1992187 0,0.1992188 0.1875,0.1992188 0.328125,0.1992188 z m 4.918945,0.56249999 1.054688,-1.03124999 c 1.558594,-1.3710938 2.15625,-1.9101563 2.15625,-2.90625 0,-1.1367188 -0.902344,-1.9335938 -2.121094,-1.9335938 -1.125,0 -1.851562,0.9140625 -1.851562,1.8046875 0,0.5507813 0.492187,0.5507813 0.527343,0.5507813 0.164063,0 0.515625,-0.1171875 0.515625,-0.5273438 0,-0.2578125 -0.1875,-0.515625 -0.527343,-0.515625 -0.08203,0 -0.105469,0 -0.128907,0.011719 0.222657,-0.6445313 0.761719,-1.0195313 1.335938,-1.0195313 0.914062,0 1.335937,0.8085938 1.335937,1.6289063 0,0.796875 -0.492187,1.5820312 -1.042968,2.203125 l -1.910157,2.13281249 c -0.105468,0.10546875 -0.105468,0.12890625 -0.105468,0.3632812475 h 3.691406 L 22.998547,-1.7339141 h -0.257813 c -0.04687,0.3046875 -0.117187,0.73828129 -0.210937,0.89062504 -0.07031,0.0820313 -0.726563,0.0820313 -0.949219,0.0820313 z m 0,0"
         style="fill:#eb0a36;fill-opacity:1;fill-rule:nonzero;stroke:none" />
      <path
         id="path11"
         d="m 25.242688,-4.3530547 c -0.07031,0.234375 -0.292969,0.609375 -0.65625,0.609375 -0.02344,0 -0.222657,0 -0.375,-0.09375 0.28125,-0.09375 0.304687,-0.3398437 0.304687,-0.3867187 0,-0.1523438 -0.117187,-0.2578125 -0.28125,-0.2578125 -0.1875,0 -0.386719,0.1640625 -0.386719,0.4335937 0,0.3398438 0.386719,0.5039063 0.726563,0.5039063 0.316406,0 0.609375,-0.1992188 0.785156,-0.4921875 0.164063,0.3632812 0.550781,0.4921875 0.820313,0.4921875 0.808593,0 1.230468,-0.8671875 1.230468,-1.0664063 0,-0.09375 -0.09375,-0.09375 -0.105468,-0.09375 -0.105469,0 -0.105469,0.035156 -0.140625,0.1171875 -0.140625,0.4804688 -0.5625,0.84375 -0.949219,0.84375 -0.28125,0 -0.421875,-0.1875 -0.421875,-0.4453125 0,-0.1875 0.164062,-0.8203125 0.363281,-1.59375 0.128906,-0.5390625 0.445313,-0.7148437 0.679688,-0.7148437 0.01172,0 0.222656,0 0.375,0.1054687 -0.222657,0.058594 -0.304688,0.2578125 -0.304688,0.375 0,0.1523438 0.117188,0.2578125 0.28125,0.2578125 0.152344,0 0.386719,-0.1289062 0.386719,-0.421875 0,-0.3867187 -0.445313,-0.5039062 -0.726563,-0.5039062 -0.351562,0 -0.632812,0.2226562 -0.785156,0.4921875 -0.117187,-0.2929688 -0.445312,-0.4921875 -0.832031,-0.4921875 -0.785156,0 -1.230469,0.8554687 -1.230469,1.0664062 0,0.082031 0.105469,0.082031 0.117188,0.082031 0.09375,0 0.105468,-0.023437 0.140625,-0.1171875 0.175781,-0.5390625 0.609375,-0.84375 0.949218,-0.84375 0.234375,0 0.421875,0.1289062 0.421875,0.46875 0,0.1289062 -0.08203,0.4804687 -0.152343,0.7148437 z m 0,0"
         style="fill:#eb0a36;fill-opacity:1;fill-rule:nonzero;stroke:none" />
    </g>
  </g>
</svg>
