<?xml version="1.0" encoding="UTF-8" standalone="no"?>
<!-- Created with Inkscape (http://www.inkscape.org/) -->

<svg
   version="1.1"
   id="svg1"
   width="140.78394"
   height="146.45309"
   viewBox="0 0 140.78394 146.4531"
   sodipodi:docname="1.6-ejemplo-cubica.svg"
   inkscape:version="1.4.2 (f4327f4, 2025-05-13)"
   xmlns:inkscape="http://www.inkscape.org/namespaces/inkscape"
   xmlns:sodipodi="http://sodipodi.sourceforge.net/DTD/sodipodi-0.dtd"
   xmlns="http://www.w3.org/2000/svg"
   xmlns:svg="http://www.w3.org/2000/svg">
  <defs
     id="defs1" />
  <sodipodi:namedview
     id="namedview1"
     pagecolor="#ffffff"
     bordercolor="#000000"
     borderopacity="0.25"
     inkscape:showpageshadow="2"
     inkscape:pageopacity="0.0"
     inkscape:pagecheckerboard="0"
     inkscape:deskcolor="#d1d1d1"
     inkscape:zoom="2.2241536"
     inkscape:cx="73.51111"
     inkscape:cy="91.04587"
     inkscape:window-width="1920"
     inkscape:window-height="1009"
     inkscape:window-x="-8"
     inkscape:window-y="-8"
     inkscape:window-maximized="1"
     inkscape:current-layer="g1">
    <inkscape:page
       x="0"
       y="0"
       inkscape:label="19"
       id="page1"
       width="140.78394"
       height="146.45309"
       margin="0"
       bleed="0" />
  </sodipodi:namedview>
  <g
     id="g1"
     inkscape:groupmode="layer"
     inkscape:label="19"
     transform="translate(-168.61841,-90.312499)">
    <path
       id="path2"
       d="M -42.5202,0 H 56.23534"
       style="fill:none;stroke:#000000;stroke-width:0.3985;stroke-linecap:butt;stroke-linejoin:miter;stroke-miterlimit:10;stroke-dasharray:none;stroke-opacity:1"
       transform="matrix(1.3333333,0,0,-1.3333333,225.312,180.072)" />
    <path
       id="path3"
       d="M -1.19551,1.59401 C -1.09587,0.99626 0,0.09961 0.29886,0 0,-0.09961 -1.09587,-0.99626 -1.19551,-1.59401"
       style="fill:none;stroke:#000000;stroke-width:0.31879;stroke-linecap:round;stroke-linejoin:round;stroke-miterlimit:10;stroke-dasharray:none;stroke-opacity:1"
       transform="matrix(1.3333333,0,0,-1.3333333,300.29245,180.072)" />
    <path
       id="path4"
       d="m 3.6451016,-3.2930547 c 0.070312,-0.28125 0.3164062,-1.2890625 1.078125,-1.2890625 0.058594,0 0.3164062,0 0.5507812,0.140625 -0.3046875,0.058594 -0.5273437,0.328125 -0.5273437,0.5859375 0,0.1757813 0.1171875,0.3867188 0.4101562,0.3867188 0.2460938,0 0.5976563,-0.1992188 0.5976563,-0.6328125 0,-0.5625 -0.6445313,-0.7265625 -1.0195313,-0.7265625 -0.6328125,0 -1.0195312,0.5859375 -1.1484375,0.8320312 -0.2695312,-0.7148437 -0.8554687,-0.8320312 -1.171875,-0.8320312 -1.1367187,0 -1.75781249,1.4179687 -1.75781249,1.6875 0,0.1054687 0.10546875,0.1054687 0.12890625,0.1054687 0.0820313,0 0.1171875,-0.023437 0.140625,-0.1171875 0.37500004,-1.1601562 1.08984374,-1.4296875 1.46484374,-1.4296875 0.2109375,0 0.5859375,0.09375 0.5859375,0.7265625 0,0.3398438 -0.1875,1.078125 -0.5859375,2.6015625 -0.1757812,0.67968751 -0.5625,1.13671876 -1.0429687,1.13671876 -0.058594,0 -0.3164063,0 -0.53906254,-0.140625 0.26953124,-0.0585938 0.51562504,-0.29296875 0.51562504,-0.59765625 0,-0.29296871 -0.2460938,-0.37500001 -0.41015629,-0.37500001 -0.328125,0 -0.59765625,0.28125001 -0.59765625,0.63281251 0,0.50390625 0.55078125,0.71484375 1.03125004,0.71484375 0.7148437,0 1.1015625,-0.76171875 1.1367187,-0.83203125 0.1289063,0.41015625 0.5273438,0.83203125 1.1835938,0.83203125 1.125,0 1.7460937,-1.40624996 1.7460937,-1.67578126 0,-0.1054687 -0.1054687,-0.1054687 -0.1289062,-0.1054687 -0.1054688,0 -0.1289063,0.035156 -0.140625,0.1171875 -0.3632813,1.16015621 -1.1132813,1.42968746 -1.453125,1.42968746 -0.4335938,0 -0.609375,-0.3515625 -0.609375,-0.7265625 0,-0.23437496 0.070312,-0.48046876 0.1875,-0.96093746 z m 0,0"
       style="fill:#000000;fill-opacity:1;fill-rule:nonzero;stroke:none"
       aria-label="x"
       transform="matrix(1.3333333,0,0,1.3333333,296.74533,191.44933)" />
    <path
       id="path5"
       d="M 0,-42.5202 V 63.32202"
       style="fill:none;stroke:#000000;stroke-width:0.3985;stroke-linecap:butt;stroke-linejoin:miter;stroke-miterlimit:10;stroke-dasharray:none;stroke-opacity:1"
       transform="matrix(1.3333333,0,0,-1.3333333,225.312,180.072)" />
    <path
       id="path6"
       d="M -1.19551,1.59401 C -1.09587,0.99626 0,0.09961 0.29886,0 0,-0.09961 -1.09587,-0.99626 -1.19551,-1.59401"
       style="fill:none;stroke:#000000;stroke-width:0.31879;stroke-linecap:round;stroke-linejoin:round;stroke-miterlimit:10;stroke-dasharray:none;stroke-opacity:1"
       transform="matrix(0,-1.3333333,-1.3333333,0,225.312,95.64264)" />
    <path
       id="path7"
       d="M 5.2961016,-4.1606562 C 5.3429766,-4.313 5.3429766,-4.3364375 5.3429766,-4.40675 c 0,-0.1992187 -0.1523438,-0.2929687 -0.3164063,-0.2929687 -0.1054687,0 -0.28125,0.058594 -0.375,0.2226562 -0.023437,0.058594 -0.1171875,0.3984375 -0.1523437,0.5976563 -0.082031,0.28125 -0.1523438,0.5742187 -0.2226563,0.8671875 l -0.4921875,1.96875 c -0.046875,0.16406245 -0.515625,0.9257812 -1.2304687,0.9257812 -0.5625,0 -0.6796875,-0.48046875 -0.6796875,-0.890625 0,-0.4921875 0.1875,-1.171875 0.5625,-2.1328125 0.1757812,-0.4453125 0.2109375,-0.5742187 0.2109375,-0.7851562 0,-0.4921875 -0.3515625,-0.9023438 -0.890625,-0.9023438 -1.04296879,0 -1.44140629,1.5820313 -1.44140629,1.6875 0,0.1054688 0.10546875,0.1054688 0.12890625,0.1054688 0.10546875,0 0.1171875,-0.023437 0.17578125,-0.1992188 0.29296875,-1.0195312 0.72656249,-1.3476562 1.10156249,-1.3476562 0.09375,0 0.2695313,0 0.2695313,0.3515625 0,0.2695312 -0.1054688,0.5507812 -0.1757813,0.7617187 -0.4453125,1.1601563 -0.6328125,1.78125 -0.6328125,2.2851563 0,0.9726562 0.6796875,1.3007812 1.3242188,1.3007812 0.421875,0 0.796875,-0.1875 1.1015625,-0.4921875 -0.140625,0.57421875 -0.2695313,1.1015625 -0.703125,1.6875 -0.2929688,0.3632813 -0.703125,0.6796875 -1.2070313,0.6796875 -0.1523437,0 -0.6445312,-0.023437 -0.83203124,-0.4570312 0.17578124,0 0.31640624,0 0.48046874,-0.1289063 C 1.4523516,1.312 1.5578203,1.171375 1.5578203,0.9604375 c 0,-0.33984375 -0.2929687,-0.38671875 -0.3984375,-0.38671875 -0.25781249,0 -0.60937499,0.17578125 -0.60937499,0.71484375 0,0.5390625 0.48046879,0.9492188 1.14843749,0.9492188 1.125,0 2.25,-0.9960938 2.5546875,-2.22656255 z m 0,0"
       style="fill:#000000;fill-opacity:1;fill-rule:nonzero;stroke:none"
       aria-label="y"
       transform="matrix(1.3333333,0,0,1.3333333,212.544,96.750667)" />
    <path
       id="path8"
       d="M -28.3468,-28.3468 H 28.3468"
       style="fill:none;stroke:#ec008c;stroke-width:0.3985;stroke-linecap:butt;stroke-linejoin:miter;stroke-miterlimit:10;stroke-dasharray:none;stroke-opacity:0.7"
       transform="matrix(1.3333333,0,0,-1.3333333,225.312,180.072)" />
    <path
       id="path9"
       d="M -28.3468,14.17339 H 28.3468"
       style="fill:none;stroke:#ec008c;stroke-width:0.3985;stroke-linecap:butt;stroke-linejoin:miter;stroke-miterlimit:10;stroke-dasharray:none;stroke-opacity:0.7"
       transform="matrix(1.3333333,0,0,-1.3333333,225.312,180.072)" />
    <path
       id="path10"
       d="M -28.3468,28.3468 H 28.3468"
       style="fill:none;stroke:#ec008c;stroke-width:0.3985;stroke-linecap:butt;stroke-linejoin:miter;stroke-miterlimit:10;stroke-dasharray:none;stroke-opacity:0.7"
       transform="matrix(1.3333333,0,0,-1.3333333,225.312,180.072)" />
    <path
       id="path11"
       d="m -21.2601,-38.26813 c 0,0 0.31018,1.65401 0.4293,2.27169 0.11913,0.61769 0.31017,1.58774 0.4293,2.1802 0.11912,0.59249 0.31016,1.52222 0.42929,2.09003 0.11912,0.56782 0.31018,1.4588 0.4293,2.00242 0.11913,0.54364 0.31017,1.39573 0.42929,1.91572 0.11912,0.51998 0.31017,1.33508 0.42929,1.83201 0.11911,0.49695 0.31018,1.27521 0.42929,1.74962 0.11913,0.47441 0.31017,1.21725 0.4293,1.6696 0.11912,0.45235 0.31016,1.15988 0.42929,1.59065 0.11912,0.43079 0.31018,1.10428 0.4293,1.51412 0.11913,0.40982 0.31017,1.05035 0.42929,1.4397 0.11913,0.38934 0.31017,0.997 0.42929,1.36637 0.11913,0.36939 0.31018,0.9459 0.42931,1.29589 0.11911,0.34999 0.31016,0.89563 0.42928,1.22667 0.11912,0.33107 0.31016,0.84675 0.42928,1.15944 0.11913,0.31265 0.31019,0.79922 0.42931,1.0941 0.11913,0.29486 0.31017,0.7536 0.42929,1.03115 0.11913,0.27756 0.31018,0.70859 0.42931,0.96933 0.11912,0.26073 0.31016,0.66538 0.42929,0.90984 0.11912,0.24446 0.31017,0.62341 0.42929,0.8521 0.11911,0.22868 0.31018,0.58262 0.42929,0.79609 0.11912,0.21347 0.31017,0.54366 0.42929,0.74245 0.11913,0.19879 0.31017,0.50572 0.42929,0.69032 0.11913,0.1846 0.31018,0.46918 0.42931,0.64016 0.11913,0.17099 0.31016,0.43432 0.42929,0.59214 0.11912,0.15786 0.31016,0.40024 0.42929,0.54544 0.11913,0.14521 0.31018,0.36797 0.42931,0.5011 0.11911,0.13315 0.31016,0.3369 0.42927,0.45848 0.11913,0.12159 0.31017,0.30727 0.42929,0.41785 0.11913,0.11055 0.31018,0.27904 0.42931,0.37912 0.11912,0.10005 0.31017,0.25204 0.42929,0.34213 0.11912,0.09008 0.31016,0.2265 0.42929,0.3071 0.11913,0.0806 0.31018,0.2021 0.42931,0.2738 0.11912,0.07168 0.31016,0.17957 0.42928,0.24286 0.11912,0.06333 0.31017,0.15804 0.42928,0.21346 0.11913,0.05542 0.3102,0.13792 0.42931,0.18599 0.11912,0.04808 0.31016,0.11925 0.42929,0.16047 0.11912,0.04123 0.31016,0.1018 0.42929,0.13669 0.11913,0.0349 0.31018,0.08571 0.42931,0.11483 0.11912,0.02914 0.31016,0.07128 0.42929,0.09516 0.11912,0.02388 0.31018,0.0579 0.4293,0.077 0.11911,0.01912 0.31017,0.04585 0.42929,0.06076 0.11911,0.01492 0.31017,0.03545 0.42928,0.04672 0.11912,0.01128 0.31018,0.02651 0.42931,0.0346 0.11912,0.0081 0.31016,0.01836 0.42929,0.0238 0.11912,0.00542 0.31016,0.01202 0.42929,0.01535 0.11912,0.00333 0.31017,0.00688 0.4293,0.00865 0.11913,0.00176 0.31017,0.00343 0.42929,0.00412 0.11911,6.9e-4 0.31017,7.5e-4 0.42929,8.4e-4 0.11911,9e-5 0.31015,-9e-5 0.42926,0 0.11913,9e-5 0.31017,2.1e-4 0.4293,8.4e-4 0.11912,6.2e-4 0.31016,0.00201 0.42929,0.00368 0.11912,0.00169 0.31018,0.00517 0.4293,0.00843 C 1.61159,0.01624 1.80263,0.02274 1.92175,0.0281 2.04088,0.03346 2.23192,0.04373 2.35104,0.05168 2.47017,0.05963 2.66122,0.07434 2.78035,0.08542 2.89946,0.09648 3.09052,0.11674 3.20963,0.13147 3.32875,0.14621 3.51979,0.17267 3.63892,0.1916 3.75804,0.21053 3.9491,0.24428 4.06822,0.26794 4.18735,0.29161 4.37839,0.33337 4.49751,0.36224 4.61664,0.3911 4.80768,0.44139 4.9268,0.476 5.04593,0.51057 5.23698,0.57068 5.35611,0.6116 5.47523,0.65253 5.66628,0.72325 5.7854,0.771 5.90451,0.81873 6.09558,0.90062 6.21469,0.95567 6.33382,1.01074 6.52486,1.10492 6.64398,1.16783 6.7631,1.23076 6.95415,1.3379 7.07327,1.4092 7.1924,1.48048 7.38345,1.60152 7.50258,1.6817 7.6217,1.76187 7.81274,1.89746 7.93187,1.98706 8.051,2.07666 8.24203,2.22789 8.36116,2.32747 8.48029,2.42706 8.67134,2.5948 8.79047,2.70486 8.90958,2.81493 9.10063,2.99971 9.21974,3.12074 9.33887,3.2418 9.52992,3.44469 9.64903,3.57729 c 0.11913,0.13259 0.31018,0.35449 0.42931,0.49914 0.11912,0.14467 0.31016,0.38626 0.42929,0.54349 0.11912,0.15724 0.31017,0.41945 0.42929,0.58978 0.11913,0.1703 0.31018,0.45383 0.42931,0.63776 0.11912,0.18394 0.31016,0.48985 0.42929,0.68796 0.11911,0.1981 0.31016,0.52705 0.42928,0.73986 0.11912,0.2128 0.31019,0.56592 0.4293,0.79392 0.11912,0.22798 0.31016,0.6056 0.42929,0.84929 0.11912,0.24368 0.31016,0.64709 0.42929,0.90703 0.11912,0.25994 0.31018,0.68978 0.42931,0.9665 0.11912,0.27674 0.31016,0.73388 0.42929,1.02794 0.11912,0.29407 0.31016,0.77962 0.42929,1.09149 0.11911,0.31191 0.31018,0.82621 0.4293,1.15641 0.11911,0.33018 0.31017,0.87435 0.42928,1.22342 0.11912,0.34907 0.31018,0.92398 0.42931,1.29243 0.11912,0.36845 0.31016,0.97476 0.42929,1.36314 0.11912,0.38837 0.31016,1.02719 0.42929,1.43602 0.11912,0.40885 0.31018,1.08081 0.4293,1.51064 0.11913,0.42985 0.31017,1.13609 0.42929,1.58743 0.11913,0.45133 0.31017,1.19219 0.42929,1.66548 0.11911,0.4733 0.31018,1.24987 0.4293,1.74572 0.11912,0.49586 0.31016,1.3092 0.42928,1.82812 0.11913,0.51894 0.31017,1.36952 0.4293,1.91204 0.11912,0.54252 0.31018,1.43147 0.4293,1.99812 0.11913,0.56663 0.31017,1.49463 0.4293,2.0859 0.11912,0.59128 0.31016,1.55918 0.42928,2.17566 0.11913,0.61649 0.42931,2.2676 0.42931,2.2676"
       style="fill:none;stroke:#eb0a36;stroke-width:0.79701;stroke-linecap:butt;stroke-linejoin:miter;stroke-miterlimit:10;stroke-dasharray:none;stroke-opacity:1"
       transform="matrix(1.3333333,0,0,-1.3333333,225.312,180.072)" />
    <g
       id="g11"
       aria-label="y=x&#10;3"
       transform="matrix(1.3333333,0,0,1.3333333,272.328,127.49333)">
      <path
         id="path12"
         d="m 4.8399375,-3.7977344 c 0.046875,-0.140625 0.046875,-0.1523437 0.046875,-0.2226562 0,-0.1875 -0.140625,-0.2695313 -0.2929688,-0.2695313 -0.1054687,0 -0.2578125,0.058594 -0.3515625,0.1992188 -0.023437,0.058594 -0.09375,0.3632812 -0.140625,0.5390625 -0.070312,0.2578125 -0.140625,0.5273437 -0.1992187,0.796875 L 3.457125,-0.96179687 c -0.035156,0.15234375 -0.46875,0.85546875 -1.125,0.85546875 -0.5039063,0 -0.6210938,-0.4453125 -0.6210938,-0.80859375 0,-0.45703123 0.1757813,-1.07812503 0.515625,-1.95703123 C 2.379,-3.2821094 2.425875,-3.3875781 2.425875,-3.5867969 c 0,-0.4453125 -0.328125,-0.8203125 -0.8203125,-0.8203125 -0.94921875,0 -1.3125,1.453125 -1.3125,1.5351563 0,0.1054687 0.09375,0.1054687 0.1171875,0.1054687 0.09375,0 0.10546875,-0.023437 0.15234375,-0.1875 0.26953125,-0.9375 0.66796875,-1.2304687 1.00781245,-1.2304687 0.082031,0 0.2578125,0 0.2578125,0.3164062 0,0.2460938 -0.1054687,0.515625 -0.1757812,0.703125 -0.3984375,1.0546875 -0.5742188,1.6171875 -0.5742188,2.0859375 0,0.89062503 0.6210938,1.18359378 1.21875,1.18359378 0.3867188,0 0.7265625,-0.1640625 0.9960938,-0.4453125 -0.1289063,0.515625 -0.2460938,1.0078125 -0.6445313,1.53515622 -0.2578125,0.3398438 -0.6328125,0.6328125 -1.0898437,0.6328125 -0.140625,0 -0.59765625,-0.035156 -0.76171875,-0.421875 0.1640625,0 0.29296875,0 0.43359375,-0.1171875 0.09375,-0.09375 0.1992187,-0.2226562 0.1992187,-0.41015622 0,-0.31640625 -0.2695312,-0.3515625 -0.375,-0.3515625 -0.2226562,0 -0.5507812,0.1640625 -0.5507812,0.64453122 0,0.5039063 0.43359375,0.8671875 1.0546875,0.8671875 1.0195312,0 2.0507812,-0.9023437 2.3320312,-2.02734372 z m 0,0"
         style="fill:#eb0a36;fill-opacity:1;fill-rule:nonzero;stroke:none" />
      <path
         id="path13"
         d="m 14.856539,-3.2586719 c 0.152344,0 0.339844,0 0.339844,-0.1992187 0,-0.1992188 -0.1875,-0.1992188 -0.328125,-0.1992188 H 8.9034141 c -0.140625,0 -0.328125,0 -0.328125,0.1992188 0,0.1992187 0.1875,0.1992187 0.3398437,0.1992187 z m 0.01172,1.9335938 c 0.140625,0 0.328125,0 0.328125,-0.1992188 0,-0.1992187 -0.1875,-0.1992187 -0.339844,-0.1992187 H 8.9151328 c -0.1523437,0 -0.3398437,0 -0.3398437,0.1992187 0,0.1992188 0.1875,0.1992188 0.328125,0.1992188 z m 0,0"
         style="fill:#eb0a36;fill-opacity:1;fill-rule:nonzero;stroke:none" />
      <path
         id="path14"
         d="m 21.849703,-3.0125781 c 0.05859,-0.2578125 0.292969,-1.171875 0.984375,-1.171875 0.04687,0 0.292969,0 0.503906,0.1289062 -0.28125,0.046875 -0.480468,0.3046875 -0.480468,0.5390625 0,0.1640625 0.105468,0.3515625 0.375,0.3515625 0.222656,0 0.539062,-0.1875 0.539062,-0.5859375 0,-0.515625 -0.585937,-0.65625 -0.925781,-0.65625 -0.574219,0 -0.925781,0.5273438 -1.042969,0.7617188 -0.257812,-0.65625 -0.785156,-0.7617188 -1.078125,-0.7617188 -1.042969,0 -1.605469,1.2890625 -1.605469,1.5351563 0,0.1054687 0.105469,0.1054687 0.117188,0.1054687 0.08203,0 0.117187,-0.023437 0.128906,-0.1171875 0.339844,-1.0546875 0.996094,-1.3007812 1.335938,-1.3007812 0.1875,0 0.539062,0.09375 0.539062,0.6679687 0,0.3046875 -0.164062,0.9726563 -0.539062,2.3671875 -0.152344,0.62109378 -0.503907,1.04296878 -0.949219,1.04296878 -0.05859,0 -0.28125,0 -0.492188,-0.12890625 0.246094,-0.0585938 0.46875,-0.26953125 0.46875,-0.5390625 0,-0.26953123 -0.222656,-0.35156253 -0.375,-0.35156253 -0.292968,0 -0.539062,0.25781253 -0.539062,0.57421878 0,0.45703125 0.492187,0.65625 0.9375,0.65625 0.65625,0 1.007812,-0.69140625 1.042969,-0.75 0.117187,0.36328125 0.480468,0.75 1.078125,0.75 1.019531,0 1.59375,-1.27734378 1.59375,-1.53515628 0,-0.09375 -0.09375,-0.09375 -0.128907,-0.09375 -0.08203,0 -0.105468,0.035156 -0.128906,0.1054688 -0.328125,1.06640623 -0.996094,1.31249998 -1.324219,1.31249998 -0.386718,0 -0.539062,-0.328125 -0.539062,-0.65625 0,-0.22265625 0.05859,-0.44531248 0.164062,-0.87890628 z m 0,0"
         style="fill:#eb0a36;fill-opacity:1;fill-rule:nonzero;stroke:none" />
      <path
         id="path15"
         d="m 26.118258,-5.948125 c 0.550781,0 0.9375,0.375 0.9375,1.125 0,0.8671875 -0.503906,1.125 -0.902344,1.125 -0.28125,0 -0.890625,-0.082031 -1.183594,-0.4921875 0.328125,-0.011719 0.398438,-0.2460937 0.398438,-0.3867187 0,-0.2226563 -0.164063,-0.3867188 -0.386719,-0.3867188 -0.1875,0 -0.386719,0.1171875 -0.386719,0.4101563 0,0.65625 0.726563,1.078125 1.570313,1.078125 0.972656,0 1.640625,-0.6445313 1.640625,-1.3476563 0,-0.5390625 -0.445313,-1.0898437 -1.21875,-1.2421875 0.738281,-0.2695312 0.996094,-0.796875 0.996094,-1.21875 0,-0.5507812 -0.632813,-0.9609375 -1.40625,-0.9609375 -0.773438,0 -1.359375,0.375 -1.359375,0.9375 0,0.234375 0.152343,0.3632813 0.363281,0.3632813 0.210937,0 0.351562,-0.1640625 0.351562,-0.3515625 0,-0.1992188 -0.140625,-0.3515625 -0.351562,-0.3632813 0.234375,-0.3046875 0.714844,-0.3867187 0.972656,-0.3867187 0.316406,0 0.761719,0.1523437 0.761719,0.7617187 0,0.2929688 -0.105469,0.609375 -0.28125,0.8320313 -0.234375,0.2578125 -0.421875,0.28125 -0.773438,0.2929687 -0.175781,0.023437 -0.1875,0.023437 -0.222656,0.023437 -0.01172,0 -0.07031,0.011719 -0.07031,0.09375 0,0.09375 0.05859,0.09375 0.175781,0.09375 z m 0,0"
         style="fill:#eb0a36;fill-opacity:1;fill-rule:nonzero;stroke:none" />
    </g>
  </g>
</svg>
