<?xml version="1.0" encoding="UTF-8" standalone="no"?>
<!-- Created with Inkscape (http://www.inkscape.org/) -->

<svg
   version="1.1"
   id="svg1"
   width="375.49734"
   height="146.45203"
   viewBox="0 0 375.49735 146.45203"
   sodipodi:docname="1.6-ejemplo-logaritmo.svg"
   inkscape:version="1.4.2 (f4327f4, 2025-05-13)"
   xmlns:inkscape="http://www.inkscape.org/namespaces/inkscape"
   xmlns:sodipodi="http://sodipodi.sourceforge.net/DTD/sodipodi-0.dtd"
   xmlns="http://www.w3.org/2000/svg"
   xmlns:svg="http://www.w3.org/2000/svg">
  <defs
     id="defs1" />
  <sodipodi:namedview
     id="namedview1"
     pagecolor="#ffffff"
     bordercolor="#000000"
     borderopacity="0.25"
     inkscape:showpageshadow="2"
     inkscape:pageopacity="0.0"
     inkscape:pagecheckerboard="0"
     inkscape:deskcolor="#d1d1d1"
     inkscape:zoom="2.2241536"
     inkscape:cx="192.20795"
     inkscape:cy="89.697042"
     inkscape:window-width="1920"
     inkscape:window-height="1009"
     inkscape:window-x="-8"
     inkscape:window-y="-8"
     inkscape:window-maximized="1"
     inkscape:current-layer="g1">
    <inkscape:page
       x="0"
       y="0"
       inkscape:label="22"
       id="page1"
       width="375.49734"
       height="146.45203"
       margin="0"
       bleed="0" />
  </sodipodi:namedview>
  <g
     id="g1"
     inkscape:groupmode="layer"
     inkscape:label="22"
     transform="translate(-49.94014,-91.855468)">
    <path
       id="path2"
       d="M -49.6069,0 H 70.40874"
       style="fill:none;stroke:#000000;stroke-width:0.3985;stroke-linecap:butt;stroke-linejoin:miter;stroke-miterlimit:10;stroke-dasharray:none;stroke-opacity:1"
       transform="matrix(1.3333333,0,0,-1.3333333,116.08267,162.716)" />
    <path
       id="path3"
       d="M -1.19551,1.59401 C -1.09587,0.99626 0,0.09961 0.29886,0 0,-0.09961 -1.09587,-0.99626 -1.19551,-1.59401"
       style="fill:none;stroke:#000000;stroke-width:0.31879;stroke-linecap:round;stroke-linejoin:round;stroke-miterlimit:10;stroke-dasharray:none;stroke-opacity:1"
       transform="matrix(1.3333333,0,0,-1.3333333,209.96099,162.716)" />
    <path
       id="path4"
       d="m 3.6440781,-3.2916562 c 0.070312,-0.28125 0.3164063,-1.2890625 1.078125,-1.2890625 0.058594,0 0.3164063,0 0.5507813,0.140625 -0.3046875,0.058594 -0.5273438,0.328125 -0.5273438,0.5859375 0,0.1757812 0.1171875,0.3867187 0.4101563,0.3867187 0.2460937,0 0.5976562,-0.1992187 0.5976562,-0.6328125 0,-0.5625 -0.6445312,-0.7265625 -1.0195312,-0.7265625 -0.6328125,0 -1.0195313,0.5859375 -1.1484375,0.8320313 -0.2695313,-0.7148438 -0.8554688,-0.8320313 -1.171875,-0.8320313 -1.1367188,0 -1.75781253,1.4179688 -1.75781253,1.6875 0,0.1054688 0.10546875,0.1054688 0.12890625,0.1054688 0.0820313,0 0.1171875,-0.023437 0.140625,-0.1171875 0.37499998,-1.1601563 1.08984378,-1.4296875 1.46484378,-1.4296875 0.2109375,0 0.5859375,0.09375 0.5859375,0.7265625 0,0.3398437 -0.1875,1.078125 -0.5859375,2.6015625 -0.1757813,0.67968745 -0.5625,1.1367187 -1.0429688,1.1367187 -0.058594,0 -0.3164062,0 -0.53906248,-0.140625 0.26953128,-0.0585938 0.51562498,-0.29296875 0.51562498,-0.59765625 0,-0.29296875 -0.2460937,-0.37499995 -0.41015623,-0.37499995 -0.328125,0 -0.59765625,0.28124995 -0.59765625,0.63281245 0,0.50390625 0.55078125,0.71484375 1.03124998,0.71484375 0.7148438,0 1.1015625,-0.76171875 1.1367188,-0.83203125 C 2.6128281,-0.303375 3.0112656,0.1185 3.6675156,0.1185 c 1.125,0 1.7460938,-1.40625 1.7460938,-1.6757812 0,-0.1054688 -0.1054688,-0.1054688 -0.1289063,-0.1054688 -0.1054687,0 -0.1289062,0.035156 -0.140625,0.1171875 -0.3632812,1.16015625 -1.1132812,1.4296875 -1.453125,1.4296875 -0.4335937,0 -0.609375,-0.3515625 -0.609375,-0.7265625 0,-0.234375 0.070312,-0.4804687 0.1875,-0.9609375 z m 0,0"
       style="fill:#000000;fill-opacity:1;fill-rule:nonzero;stroke:none"
       aria-label="x"
       transform="matrix(1.3333333,0,0,1.3333333,206.41467,174.092)" />
    <path
       id="path5"
       d="M 0,-56.69362 V 49.14862"
       style="fill:none;stroke:#000000;stroke-width:0.3985;stroke-linecap:butt;stroke-linejoin:miter;stroke-miterlimit:10;stroke-dasharray:none;stroke-opacity:1"
       transform="matrix(1.3333333,0,0,-1.3333333,116.08267,162.716)" />
    <path
       id="path6"
       d="M -1.19551,1.59401 C -1.09587,0.99626 0,0.09961 0.29886,0 0,-0.09961 -1.09587,-0.99626 -1.19551,-1.59401"
       style="fill:none;stroke:#000000;stroke-width:0.31879;stroke-linecap:round;stroke-linejoin:round;stroke-miterlimit:10;stroke-dasharray:none;stroke-opacity:1"
       transform="matrix(0,-1.3333333,-1.3333333,0,116.08267,97.184507)" />
    <path
       id="path7"
       d="m 5.2963594,-4.1594297 c 0.046875,-0.1523437 0.046875,-0.1757812 0.046875,-0.2460937 0,-0.1992188 -0.1523438,-0.2929688 -0.3164063,-0.2929688 -0.1054687,0 -0.28125,0.058594 -0.375,0.2226563 -0.023437,0.058594 -0.1171875,0.3984375 -0.1523437,0.5976562 -0.082031,0.28125 -0.1523438,0.5742188 -0.2226563,0.8671875 l -0.4921875,1.96875 c -0.046875,0.16406251 -0.515625,0.92578126 -1.2304687,0.92578126 -0.5625,0 -0.6796875,-0.48046875 -0.6796875,-0.89062496 0,-0.4921875 0.1875,-1.171875 0.5625,-2.1328125 0.1757812,-0.4453125 0.2109375,-0.5742188 0.2109375,-0.7851563 0,-0.4921875 -0.3515625,-0.9023437 -0.890625,-0.9023437 -1.04296877,0 -1.44140627,1.5820312 -1.44140627,1.6875 0,0.1054687 0.10546875,0.1054687 0.12890625,0.1054687 0.10546875,0 0.1171875,-0.023437 0.17578125,-0.1992187 0.29296875,-1.0195313 0.72656247,-1.3476563 1.10156247,-1.3476563 0.09375,0 0.2695313,0 0.2695313,0.3515625 0,0.2695313 -0.1054688,0.5507813 -0.1757813,0.7617188 -0.4453125,1.1601562 -0.6328125,1.78125 -0.6328125,2.2851562 0,0.97265626 0.6796875,1.30078126 1.3242188,1.30078126 0.421875,0 0.796875,-0.1875 1.1015625,-0.4921875 -0.140625,0.57421875 -0.2695313,1.1015625 -0.703125,1.68750004 -0.2929688,0.3632812 -0.703125,0.6796875 -1.2070313,0.6796875 -0.1523437,0 -0.6445312,-0.023437 -0.83203122,-0.4570313 0.17578122,0 0.31640622,0 0.48046872,-0.1289062 0.1054688,-0.09375 0.2109375,-0.234375 0.2109375,-0.44531254 0,-0.33984375 -0.2929687,-0.38671875 -0.3984375,-0.38671875 -0.25781247,0 -0.60937497,0.17578125 -0.60937497,0.71484379 0,0.5390625 0.48046877,0.9492187 1.14843747,0.9492187 1.125,0 2.25,-0.9960937 2.5546875,-2.22656249 z m 0,0"
       style="fill:#000000;fill-opacity:1;fill-rule:nonzero;stroke:none"
       aria-label="y"
       transform="matrix(1.3333333,0,0,1.3333333,121.196,98.292)" />
    <path
       id="path8"
       d="m 1.4174,-32.6168 c 0,0 0.40331,3.77126 0.5582,4.91795 0.1549,1.14666 0.4033,2.4967 0.5582,3.34655 0.15489,0.84986 0.40329,2.06757 0.55818,2.77862 0.15489,0.71104 0.40329,1.74073 0.5582,2.3461 0.15489,0.60534 0.40329,1.49218 0.55818,2.01692 0.15489,0.52472 0.4033,1.30235 0.5582,1.76495 0.15489,0.46261 0.40329,1.15549 0.55818,1.56926 0.15489,0.41376 0.4033,1.03875 0.55819,1.41289 0.1549,0.37414 0.40331,0.94214 0.5582,1.28376 0.15489,0.34163 0.40329,0.86387 0.55818,1.17846 0.15489,0.31459 0.40331,0.7977 0.5582,1.08891 0.15489,0.29121 0.40329,0.73904 0.55818,1.00998 0.15489,0.27093 0.40331,0.68928 0.5582,0.94272 0.15489,0.25343 0.40329,0.64581 0.55818,0.88389 0.15491,0.23806 0.40331,0.60754 0.5582,0.83199 0.15489,0.22444 0.40329,0.57345 0.55818,0.78569 0.15489,0.21223 0.4033,0.54259 0.5582,0.74397 0.15489,0.20137 0.4033,0.51592 0.55819,0.70742 0.1549,0.19149 0.40329,0.49024 0.55819,0.6728 0.15489,0.18256 0.40329,0.46835 0.55817,0.64297 0.1549,0.17461 0.40331,0.44837 0.55822,0.61551 0.15489,0.16713 0.40329,0.42852 0.55818,0.58912 0.1549,0.16058 0.40329,0.41398 0.55818,0.56831 0.1549,0.15437 0.40331,0.3959 0.5582,0.54414 0.15489,0.14824 0.40331,0.38135 0.5582,0.52425 0.15489,0.14288 0.40329,0.36775 0.55818,0.50563 0.15489,0.13786 0.40329,0.35486 0.55818,0.48811 0.15489,0.13327 0.40331,0.34349 0.55821,0.47234 0.15489,0.12884 0.40329,0.33162 0.55818,0.45633 0.1549,0.12469 0.40329,0.32155 0.55819,0.44249 0.15489,0.12091 0.40328,0.31178 0.55818,0.42906 0.15489,0.11731 0.40332,0.30241 0.55821,0.41634 0.15489,0.11389 0.40329,0.29391 0.55818,0.40461 0.15489,0.11074 0.40329,0.28574 0.55818,0.39341 0.1549,0.10766 0.40331,0.27789 0.5582,0.38258 0.15489,0.10469 0.40331,0.26996 0.5582,0.37198 0.15489,0.10202 0.40329,0.26378 0.55818,0.36333 0.15489,0.09956 0.40329,0.25721 0.55818,0.35426 0.15491,0.09704 0.40331,0.25052 0.5582,0.34515 0.15489,0.09465 0.4033,0.24451 0.5582,0.33695 0.15489,0.09246 0.40329,0.23901 0.55817,0.32939 0.1549,0.09038 0.40331,0.23363 0.5582,0.32202 0.1549,0.08839 0.40331,0.22902 0.5582,0.31511 0.1549,0.08609 0.40329,0.22118 0.55818,0.30536 0.1549,0.0842 0.40329,0.21872 0.5582,0.30148 0.15489,0.08275 0.40329,0.21397 0.55818,0.295 0.15489,0.08101 0.40331,0.20964 0.5582,0.28892 0.15489,0.07932 0.40329,0.20456 0.55818,0.28267 0.15489,0.0781 0.40331,0.20359 0.5582,0.28028 0.15489,0.07669 0.40329,0.19764 0.55818,0.27252 0.15489,0.07485 0.4033,0.1936 0.5582,0.26707 0.15489,0.07349 0.4033,0.19042 0.55819,0.26256 0.15489,0.07213 0.40329,0.18657 0.55819,0.25736 0.15489,0.07076 0.40329,0.18327 0.55818,0.25282 0.15489,0.06955 0.4033,0.18011 0.55819,0.24849 0.15491,0.06837 0.40331,0.17715 0.5582,0.24438 0.15489,0.06725 0.40329,0.1742 0.55818,0.24027 0.15489,0.06607 0.40331,0.17102 0.5582,0.23596 0.15489,0.06494 0.40331,0.16811 0.5582,0.23206 0.15489,0.06393 0.40329,0.16592 0.55818,0.22882 0.15489,0.06288 0.40329,0.16258 0.55818,0.22448 0.15489,0.06191 0.40331,0.16076 0.55819,0.22167 0.15491,0.0609 0.40331,0.15735 0.5582,0.21734 0.1549,0.06002 0.4033,0.15609 0.55819,0.21518 0.15489,0.05913 0.40329,0.15267 0.55818,0.21088 0.15489,0.05821 0.40332,0.15134 0.55821,0.20871 0.15489,0.05737 0.40329,0.14827 0.55818,0.2048 0.15489,0.05654 0.40329,0.14693 0.55818,0.20264 0.1549,0.05571 0.40329,0.14394 0.5582,0.19896 0.15489,0.05504 0.40331,0.1434 0.5582,0.19768 0.15489,0.05427 0.40329,0.14012 0.55818,0.19355 0.15489,0.05344 0.40329,0.13892 0.55818,0.19161 0.1549,0.0527 0.40332,0.13611 0.55821,0.18816 0.15489,0.05207 0.40329,0.13565 0.55819,0.18708 0.15489,0.05142 0.40329,0.13288 0.55818,0.18362 0.15489,0.05073 0.4033,0.13201 0.55819,0.18209 0.1549,0.05008 0.40331,0.12938 0.5582,0.17885 0.15489,0.04948 0.40329,0.12894 0.55818,0.17778 0.1549,0.04884 0.40329,0.12613 0.55818,0.17432 0.15491,0.04818 0.40331,0.12535 0.5582,0.17302 0.15489,0.04764 0.40331,0.12334 0.5582,0.17041 0.15489,0.04704 0.40329,0.12223 0.55818,0.16868 0.15489,0.04645 0.40331,0.12016 0.5582,0.16611 0.15489,0.04594 0.40329,0.11949 0.55818,0.16499 0.15489,0.04552 0.40331,0.11814 0.5582,0.16307 0.15489,0.04495 0.40329,0.11648 0.55819,0.16091 0.1549,0.04443 0.40329,0.11538 0.55819,0.15939 0.15489,0.04402 0.4033,0.11459 0.55819,0.15788 0.15489,0.0433 0.40329,0.11125 0.55818,0.15421 0.1549,0.04292 0.40331,0.11279 0.5582,0.15529 0.15489,0.04248 0.40329,0.10891 0.55818,0.15095 0.15489,0.04202 0.40331,0.11048 0.5582,0.15202 0.15489,0.04155 0.4033,0.10633 0.5582,0.1475 0.15489,0.04116 0.40328,0.10843 0.55818,0.14923 0.15489,0.0408 0.40329,0.10469 0.55818,0.1449 0.15489,0.0402 0.40331,0.10511 0.5582,0.1449 0.1549,0.03979 0.4033,0.1027 0.55819,0.14187 0.1549,0.03918 0.40329,0.10143 0.55819,0.14058 0.15489,0.03915 0.55818,0.14165 0.55818,0.14165"
       style="fill:none;stroke:#eb0a36;stroke-width:0.79701;stroke-linecap:butt;stroke-linejoin:miter;stroke-miterlimit:10;stroke-dasharray:none;stroke-opacity:1"
       transform="matrix(1.3333333,0,0,-1.3333333,116.08267,162.716)" />
    <g
       id="g8"
       aria-label="y=ln(x)"
       transform="matrix(1.3333333,0,0,1.3333333,164.82667,128.24133)">
      <path
         id="path9"
         d="m 4.8409375,-3.7962344 c 0.046875,-0.140625 0.046875,-0.1523437 0.046875,-0.2226562 0,-0.1875 -0.140625,-0.2695313 -0.2929687,-0.2695313 -0.1054688,0 -0.2578125,0.058594 -0.3515625,0.1992188 -0.023437,0.058594 -0.09375,0.3632812 -0.140625,0.5390625 -0.070312,0.2578125 -0.140625,0.5273437 -0.1992188,0.796875 L 3.458125,-0.96029687 c -0.035156,0.15234375 -0.46875,0.85546875 -1.125,0.85546875 -0.5039062,0 -0.6210937,-0.4453125 -0.6210937,-0.80859375 0,-0.45703123 0.1757812,-1.07812503 0.515625,-1.95703123 C 2.38,-3.2806094 2.426875,-3.3860781 2.426875,-3.5852969 c 0,-0.4453125 -0.328125,-0.8203125 -0.8203125,-0.8203125 -0.94921875,0 -1.3125,1.453125 -1.3125,1.5351563 0,0.1054687 0.09375,0.1054687 0.1171875,0.1054687 0.09375,0 0.10546875,-0.023437 0.15234375,-0.1875 0.26953125,-0.9375 0.66796875,-1.2304687 1.00781255,-1.2304687 0.082031,0 0.2578125,0 0.2578125,0.3164062 0,0.2460938 -0.1054688,0.515625 -0.1757813,0.703125 -0.3984375,1.0546875 -0.5742187,1.6171875 -0.5742187,2.0859375 0,0.89062503 0.6210937,1.18359378 1.21875,1.18359378 0.3867187,0 0.7265625,-0.1640625 0.9960937,-0.4453125 -0.1289062,0.515625 -0.2460937,1.0078125 -0.6445312,1.53515622 -0.2578125,0.3398438 -0.6328125,0.6328125 -1.0898438,0.6328125 -0.140625,0 -0.59765625,-0.035156 -0.76171875,-0.421875 0.1640625,0 0.29296875,0 0.43359375,-0.1171875 0.09375,-0.09375 0.1992188,-0.2226562 0.1992188,-0.41015622 0,-0.31640625 -0.2695313,-0.3515625 -0.375,-0.3515625 -0.2226563,0 -0.5507813,0.1640625 -0.5507813,0.64453122 0,0.5039063 0.43359375,0.8671875 1.0546875,0.8671875 1.0195313,0 2.0507813,-0.9023437 2.3320313,-2.02734372 z m 0,0"
         style="fill:#eb0a36;fill-opacity:1;fill-rule:nonzero;stroke:none" />
      <path
         id="path10"
         d="m 14.857539,-3.2571719 c 0.152344,0 0.339844,0 0.339844,-0.1992187 0,-0.1992188 -0.1875,-0.1992188 -0.328125,-0.1992188 H 8.9044141 c -0.140625,0 -0.328125,0 -0.328125,0.1992188 0,0.1992187 0.1875,0.1992187 0.3398437,0.1992187 z m 0.01172,1.9335938 c 0.140625,0 0.328125,0 0.328125,-0.1992188 0,-0.1992187 -0.1875,-0.1992187 -0.339844,-0.1992187 H 8.9161328 c -0.1523437,0 -0.3398437,0 -0.3398437,0.1992187 0,0.1992188 0.1875,0.1992188 0.328125,0.1992188 z m 5.411133,-5.5898438 -1.429688,0.1054688 v 0.3164062 c 0.703125,0 0.773438,0.070312 0.773438,0.5507813 v 5.17968748 c 0,0.45703125 -0.105469,0.45703125 -0.773438,0.45703125 V 6.40625e-4 c 0.328125,-0.011718745 0.855469,-0.035156245 1.101563,-0.035156245 0.257812,0 0.738281,0.0234375 1.113281,0.035156245 V -0.30404687 c -0.667969,0 -0.785156,0 -0.785156,-0.45703125 z m 2.109375,3.4921875 v 2.66015628 c 0,0.45703125 -0.117188,0.45703125 -0.785157,0.45703125 V 6.40625e-4 c 0.351563,-0.011718745 0.855469,-0.035156245 1.125,-0.035156245 0.257813,0 0.785157,0.0234375 1.113282,0.035156245 V -0.30404687 c -0.65625,0 -0.773438,0 -0.773438,-0.45703125 V -2.5892031 c 0,-1.03125 0.714844,-1.59375 1.347656,-1.59375 0.621094,0 0.738282,0.5390625 0.738282,1.1015625 v 2.32031248 c 0,0.45703125 -0.117188,0.45703125 -0.773438,0.45703125 V 6.40625e-4 c 0.339844,-0.011718745 0.855469,-0.035156245 1.125,-0.035156245 0.257813,0 0.773438,0.0234375 1.113281,0.035156245 V -0.30404687 c -0.515625,0 -0.773437,0 -0.785156,-0.3046875 V -2.5071719 c 0,-0.8554687 0,-1.171875 -0.304687,-1.5234375 -0.140625,-0.1757812 -0.46875,-0.375 -1.042969,-0.375 -0.726563,0 -1.195313,0.4335938 -1.476563,1.0546875 v -1.0546875 l -1.40625,0.1171875 v 0.3046875 c 0.703125,0 0.785157,0.070312 0.785157,0.5625 z m 7.728515,5.8125 c 0,-0.035156 0,-0.046875 -0.164062,-0.2226562 -1.242188,-1.25390627 -1.570313,-3.12890627 -1.570313,-4.6640625 0,-1.7226563 0.386719,-3.4570313 1.605469,-4.7109375 0.128906,-0.1171875 0.128906,-0.1289063 0.128906,-0.1640625 0,-0.070312 -0.03516,-0.1054688 -0.09375,-0.1054688 -0.105468,0 -0.996093,0.6796875 -1.582031,1.9453125 -0.515625,1.1015625 -0.632812,2.203125 -0.632812,3.0351563 0,0.7851562 0.117187,1.99218748 0.65625,3.11718748 0.597656,1.21875002 1.453125,1.87500002 1.558593,1.87500002 0.05859,0 0.09375,-0.035156 0.09375,-0.1054688 z m 0,0"
         style="fill:#eb0a36;fill-opacity:1;fill-rule:nonzero;stroke:none" />
      <path
         id="path11"
         d="m 34.026484,-3.0110781 c 0.05859,-0.2578125 0.292969,-1.171875 0.984375,-1.171875 0.04687,0 0.292969,0 0.503907,0.1289062 -0.28125,0.046875 -0.480469,0.3046875 -0.480469,0.5390625 0,0.1640625 0.105469,0.3515625 0.375,0.3515625 0.222656,0 0.539062,-0.1875 0.539062,-0.5859375 0,-0.515625 -0.585937,-0.65625 -0.925781,-0.65625 -0.574219,0 -0.925781,0.5273438 -1.042969,0.7617188 -0.257812,-0.65625 -0.785156,-0.7617188 -1.078125,-0.7617188 -1.042968,0 -1.605468,1.2890625 -1.605468,1.5351563 0,0.1054687 0.105468,0.1054687 0.117187,0.1054687 0.08203,0 0.117188,-0.023437 0.128906,-0.1171875 0.339844,-1.0546875 0.996094,-1.3007812 1.335938,-1.3007812 0.1875,0 0.539062,0.09375 0.539062,0.6679687 0,0.3046875 -0.164062,0.9726563 -0.539062,2.3671875 -0.152344,0.62109378 -0.503906,1.04296878 -0.949219,1.04296878 -0.05859,0 -0.28125,0 -0.492187,-0.12890625 0.246093,-0.0585938 0.46875,-0.26953125 0.46875,-0.5390625 0,-0.26953123 -0.222657,-0.35156253 -0.375,-0.35156253 -0.292969,0 -0.539063,0.25781253 -0.539063,0.57421878 0,0.45703125 0.492188,0.65625 0.9375,0.65625 0.65625,0 1.007813,-0.69140625 1.042969,-0.75 0.117187,0.36328125 0.480469,0.75 1.078125,0.75 1.019531,0 1.59375,-1.27734378 1.59375,-1.53515628 0,-0.09375 -0.09375,-0.09375 -0.128906,-0.09375 -0.08203,0 -0.105469,0.035156 -0.128907,0.1054688 -0.328125,1.06640623 -0.996093,1.31249998 -1.324218,1.31249998 -0.386719,0 -0.539063,-0.328125 -0.539063,-0.65625 0,-0.22265625 0.05859,-0.44531248 0.164063,-0.87890628 z m 0,0"
         style="fill:#eb0a36;fill-opacity:1;fill-rule:nonzero;stroke:none" />
      <path
         id="path12"
         d="m 39.276484,-2.4954531 c 0,-0.7734375 -0.117187,-1.9804688 -0.65625,-3.1054688 -0.597656,-1.21875 -1.464843,-1.875 -1.558593,-1.875 -0.05859,0 -0.105469,0.046875 -0.105469,0.1054688 0,0.035156 0,0.046875 0.199219,0.234375 0.972656,0.984375 1.535156,2.5664062 1.535156,4.640625 0,1.71093748 -0.363281,3.45703123 -1.59375,4.7226562 -0.140625,0.1171875 -0.140625,0.1289063 -0.140625,0.1640625 0,0.058594 0.04687,0.1054688 0.105469,0.1054688 0.09375,0 0.996093,-0.6796875 1.582031,-1.94531252 0.503906,-1.1015625 0.632812,-2.20312498 0.632812,-3.04687498 z m 0,0"
         style="fill:#eb0a36;fill-opacity:1;fill-rule:nonzero;stroke:none" />
    </g>
    <path
       id="path13"
       d="M -14.17339,0 H 98.75554"
       style="fill:none;stroke:#000000;stroke-width:0.3985;stroke-linecap:butt;stroke-linejoin:miter;stroke-miterlimit:10;stroke-dasharray:none;stroke-opacity:1"
       transform="matrix(1.3333333,0,0,-1.3333333,282.30933,162.716)" />
    <path
       id="path14"
       d="M -1.19551,1.59401 C -1.09587,0.99626 0,0.09961 0.29886,0 0,-0.09961 -1.09587,-0.99626 -1.19551,-1.59401"
       style="fill:none;stroke:#000000;stroke-width:0.31879;stroke-linecap:round;stroke-linejoin:round;stroke-miterlimit:10;stroke-dasharray:none;stroke-opacity:1"
       transform="matrix(1.3333333,0,0,-1.3333333,413.98339,162.716)" />
    <path
       id="path15"
       d="m 3.6456563,-3.2916562 c 0.070312,-0.28125 0.3164062,-1.2890625 1.078125,-1.2890625 0.058594,0 0.3164062,0 0.5507812,0.140625 -0.3046875,0.058594 -0.5273437,0.328125 -0.5273437,0.5859375 0,0.1757812 0.1171875,0.3867187 0.4101562,0.3867187 0.2460938,0 0.5976563,-0.1992187 0.5976563,-0.6328125 0,-0.5625 -0.6445313,-0.7265625 -1.0195313,-0.7265625 -0.6328125,0 -1.0195312,0.5859375 -1.1484375,0.8320313 -0.2695312,-0.7148438 -0.8554687,-0.8320313 -1.171875,-0.8320313 -1.1367187,0 -1.7578125,1.4179688 -1.7578125,1.6875 0,0.1054688 0.10546875,0.1054688 0.12890625,0.1054688 0.0820313,0 0.1171875,-0.023437 0.140625,-0.1171875 C 1.3019063,-4.3111875 2.01675,-4.5807187 2.39175,-4.5807187 c 0.2109375,0 0.5859375,0.09375 0.5859375,0.7265625 0,0.3398437 -0.1875,1.078125 -0.5859375,2.6015625 -0.1757812,0.67968745 -0.5625,1.1367187 -1.0429687,1.1367187 -0.058594,0 -0.3164063,0 -0.53906255,-0.140625 C 1.07925,-0.3150938 1.3253438,-0.54946875 1.3253438,-0.85415625 c 0,-0.29296875 -0.2460938,-0.37499995 -0.4101563,-0.37499995 -0.328125,0 -0.59765625,0.28124995 -0.59765625,0.63281245 C 0.31753125,-0.0924375 0.8683125,0.1185 1.3487813,0.1185 2.063625,0.1185 2.4503438,-0.64321875 2.4855,-0.71353125 2.6144063,-0.303375 3.0128438,0.1185 3.6690938,0.1185 c 1.125,0 1.7460937,-1.40625 1.7460937,-1.6757812 0,-0.1054688 -0.1054687,-0.1054688 -0.1289062,-0.1054688 -0.1054688,0 -0.1289063,0.035156 -0.140625,0.1171875 -0.3632813,1.16015625 -1.1132813,1.4296875 -1.453125,1.4296875 -0.4335938,0 -0.609375,-0.3515625 -0.609375,-0.7265625 0,-0.234375 0.070312,-0.4804687 0.1875,-0.9609375 z m 0,0"
       style="fill:#000000;fill-opacity:1;fill-rule:nonzero;stroke:none"
       aria-label="x"
       transform="matrix(1.3333333,0,0,1.3333333,410.436,174.092)" />
    <path
       id="path16"
       d="M 0,-56.69362 V 49.14862"
       style="fill:none;stroke:#000000;stroke-width:0.3985;stroke-linecap:butt;stroke-linejoin:miter;stroke-miterlimit:10;stroke-dasharray:none;stroke-opacity:1"
       transform="matrix(1.3333333,0,0,-1.3333333,282.30933,162.716)" />
    <path
       id="path17"
       d="M -1.19551,1.59401 C -1.09587,0.99626 0,0.09961 0.29886,0 0,-0.09961 -1.09587,-0.99626 -1.19551,-1.59401"
       style="fill:none;stroke:#000000;stroke-width:0.31879;stroke-linecap:round;stroke-linejoin:round;stroke-miterlimit:10;stroke-dasharray:none;stroke-opacity:1"
       transform="matrix(0,-1.3333333,-1.3333333,0,282.30933,97.184507)" />
    <path
       id="path18"
       d="m 5.2962813,-4.1594297 c 0.046875,-0.1523437 0.046875,-0.1757812 0.046875,-0.2460937 0,-0.1992188 -0.1523438,-0.2929688 -0.3164063,-0.2929688 -0.1054687,0 -0.28125,0.058594 -0.375,0.2226563 -0.023437,0.058594 -0.1171875,0.3984375 -0.1523437,0.5976562 -0.082031,0.28125 -0.1523438,0.5742188 -0.2226563,0.8671875 l -0.4921875,1.96875 c -0.046875,0.16406251 -0.515625,0.92578126 -1.2304687,0.92578126 -0.5625,0 -0.6796875,-0.48046875 -0.6796875,-0.89062496 0,-0.4921875 0.1875,-1.171875 0.5625,-2.1328125 0.1757812,-0.4453125 0.2109375,-0.5742188 0.2109375,-0.7851563 0,-0.4921875 -0.3515625,-0.9023437 -0.890625,-0.9023437 -1.0429688,0 -1.4414063,1.5820312 -1.4414063,1.6875 0,0.1054687 0.10546875,0.1054687 0.12890625,0.1054687 0.10546875,0 0.1171875,-0.023437 0.17578125,-0.1992187 0.29296875,-1.0195313 0.7265625,-1.3476563 1.1015625,-1.3476563 0.09375,0 0.2695313,0 0.2695313,0.3515625 0,0.2695313 -0.1054688,0.5507813 -0.1757813,0.7617188 C 1.3705,-2.3078672 1.183,-1.6867734 1.183,-1.1828672 c 0,0.97265626 0.6796875,1.30078126 1.3242188,1.30078126 0.421875,0 0.796875,-0.1875 1.1015625,-0.4921875 C 3.4681563,0.19994531 3.33925,0.72728906 2.9056563,1.3132266 2.6126875,1.6765078 2.2025313,1.9929141 1.698625,1.9929141 c -0.1523437,0 -0.6445312,-0.023437 -0.83203125,-0.4570313 0.17578125,0 0.31640625,0 0.48046875,-0.1289062 C 1.4525313,1.3132266 1.558,1.1726016 1.558,0.96166406 1.558,0.62182031 1.2650313,0.57494531 1.1595625,0.57494531 c -0.2578125,0 -0.609375,0.17578125 -0.609375,0.71484379 0,0.5390625 0.4804688,0.9492187 1.1484375,0.9492187 1.125,0 2.25,-0.9960937 2.5546875,-2.22656249 z m 0,0"
       style="fill:#000000;fill-opacity:1;fill-rule:nonzero;stroke:none"
       aria-label="y"
       transform="matrix(1.3333333,0,0,1.3333333,287.42267,98.292)" />
    <path
       id="path19"
       d="M 28.3468,-56.69362 V 42.5202"
       style="fill:none;stroke:#ec008c;stroke-width:0.79701;stroke-linecap:butt;stroke-linejoin:miter;stroke-miterlimit:10;stroke-dasharray:2.98883, 2.98883;stroke-dashoffset:0;stroke-opacity:0.5"
       transform="matrix(1.3333333,0,0,-1.3333333,282.30933,162.716)" />
    <path
       id="path20"
       d="m 29.76422,-46.7902 c 0,0 0.40329,3.77126 0.55818,4.91795 0.1549,1.14668 0.40331,2.49669 0.5582,3.34654 0.1549,0.84985 0.4033,2.0676 0.5582,2.77862 0.15489,0.71105 0.40329,1.74073 0.55818,2.34609 0.15489,0.60536 0.40329,1.49219 0.55818,2.01692 0.15489,0.52472 0.40332,1.30237 0.55821,1.76498 0.15489,0.4626 0.40329,1.15549 0.55818,1.56923 0.1549,0.41377 0.40329,1.03875 0.55819,1.41289 0.15489,0.37416 0.4033,0.94214 0.55821,1.28378 0.15489,0.34162 0.40329,0.86385 0.55818,1.17844 0.15489,0.31459 0.40329,0.79772 0.55818,1.08891 0.15489,0.29123 0.40329,0.73905 0.55819,1.00998 0.15489,0.27094 0.40331,0.68929 0.5582,0.94272 0.1549,0.25344 0.4033,0.64583 0.55819,0.8839 0.15489,0.23807 0.40329,0.60754 0.55818,0.83198 0.15489,0.22446 0.4033,0.57349 0.5582,0.78572 0.15489,0.21224 0.4033,0.54259 0.55819,0.74395 0.1549,0.20138 0.40329,0.51593 0.55819,0.70742 0.15489,0.1915 0.40329,0.49025 0.55818,0.67281 0.1549,0.18257 0.4033,0.46837 0.55819,0.64297 0.1549,0.17461 0.40331,0.44837 0.5582,0.6155 0.15489,0.16714 0.40329,0.42853 0.55818,0.58913 0.1549,0.16059 0.40331,0.41398 0.5582,0.56835 0.15489,0.15435 0.4033,0.39589 0.5582,0.54412 0.15489,0.14824 0.40329,0.38136 0.55818,0.52424 0.15489,0.1429 0.40329,0.36777 0.55818,0.50563 0.15491,0.13788 0.40331,0.35486 0.5582,0.48813 0.15489,0.13326 0.4033,0.34348 0.55819,0.47234 0.1549,0.12883 0.40329,0.33162 0.55819,0.45631 0.15489,0.12471 0.4033,0.32157 0.55819,0.44249 0.1549,0.12093 0.40329,0.31179 0.55819,0.4291 0.15488,0.11727 0.4033,0.30241 0.55819,0.4163 0.15489,0.11391 0.40329,0.29392 0.5582,0.40465 0.15489,0.11071 0.40329,0.28573 0.55818,0.39339 0.15489,0.10766 0.40329,0.27789 0.55818,0.38258 0.15489,0.10469 0.40331,0.26996 0.5582,0.37198 0.15489,0.10202 0.4033,0.26378 0.5582,0.36334 0.15489,0.09955 0.40329,0.2572 0.55818,0.35425 0.15489,0.09703 0.40329,0.2505 0.55818,0.34515 0.15489,0.09464 0.40332,0.24449 0.55821,0.33696 0.15489,0.09244 0.40329,0.23898 0.55818,0.32936 0.1549,0.09038 0.40329,0.23363 0.55818,0.32202 0.1549,0.08841 0.40331,0.22902 0.5582,0.31511 0.15491,0.08609 0.40331,0.22118 0.5582,0.30537 0.15489,0.0842 0.40329,0.21874 0.55818,0.30148 0.15489,0.08276 0.40329,0.21398 0.55818,0.29499 0.1549,0.08103 0.40332,0.20964 0.55822,0.28894 0.15489,0.0793 0.40329,0.20456 0.55818,0.28266 0.15489,0.07811 0.40329,0.2036 0.55818,0.28029 0.15489,0.0767 0.40329,0.19764 0.5582,0.2725 0.15489,0.07486 0.4033,0.19361 0.55819,0.26709 0.1549,0.07347 0.40329,0.19042 0.55819,0.26255 0.15488,0.07212 0.40328,0.18658 0.55818,0.25737 0.15489,0.07078 0.4033,0.18325 0.5582,0.2528 0.15489,0.06955 0.4033,0.18013 0.55819,0.24851 0.15489,0.06837 0.40329,0.17714 0.55818,0.24437 0.15489,0.06725 0.40331,0.17422 0.5582,0.24029 0.15489,0.06606 0.40331,0.17101 0.5582,0.23595 0.15489,0.06493 0.40329,0.16812 0.55818,0.23206 0.15489,0.06393 0.40329,0.1659 0.55818,0.2288 0.15491,0.06288 0.40331,0.16258 0.5582,0.22449 0.15489,0.0619 0.4033,0.16078 0.55819,0.22168 0.1549,0.06091 0.40329,0.15733 0.55818,0.21734 0.1549,0.06002 0.40331,0.15607 0.5582,0.2152 0.1549,0.0591 0.4033,0.15264 0.55819,0.21086 0.15489,0.05821 0.4033,0.15132 0.55819,0.20869 0.15489,0.05738 0.40329,0.14826 0.55818,0.20479 0.15491,0.05652 0.40331,0.14693 0.5582,0.20264 0.15489,0.05571 0.40329,0.14394 0.55818,0.19896 0.15489,0.05504 0.40331,0.14339 0.5582,0.19768 0.15489,0.05427 0.4033,0.14012 0.5582,0.19355 0.15489,0.05342 0.40329,0.13894 0.55818,0.19162 0.15489,0.05269 0.4033,0.13608 0.5582,0.18816 0.15488,0.05205 0.40328,0.13564 0.55819,0.18707 0.15489,0.05142 0.40329,0.13286 0.55819,0.18361 0.15489,0.05072 0.40328,0.13202 0.55818,0.1821 0.15489,0.05008 0.4033,0.12938 0.55819,0.17885 0.1549,0.04946 0.40331,0.12894 0.5582,0.17778 0.15489,0.04884 0.40329,0.12611 0.55818,0.1743 0.15489,0.04818 0.40329,0.12537 0.55818,0.17302 0.1549,0.04765 0.40332,0.12338 0.55822,0.17042 0.15489,0.04706 0.40329,0.12224 0.55818,0.16869 0.15489,0.04645 0.40329,0.12015 0.55818,0.16609 0.15489,0.04595 0.40329,0.11951 0.55818,0.16503 0.15491,0.0455 0.40332,0.11811 0.55821,0.16307 0.1549,0.04493 0.4033,0.11645 0.55819,0.16089 0.15489,0.04443 0.40329,0.11537 0.55818,0.15939 0.15489,0.04401 0.40332,0.11458 0.55821,0.15788 0.15489,0.04329 0.40329,0.11125 0.55818,0.15419 0.15489,0.04294 0.40329,0.11279 0.55818,0.15529 0.15489,0.04248 0.40329,0.10892 0.5582,0.15096 0.15489,0.04203 0.4033,0.11048 0.5582,0.15203 0.15489,0.04155 0.40329,0.10634 0.55818,0.1475 0.15489,0.04116 0.40329,0.10843 0.55818,0.14923 0.15489,0.0408 0.4033,0.10467 0.5582,0.14488 0.15489,0.04022 0.4033,0.10513 0.5582,0.14491 0.15489,0.03978 0.40328,0.10269 0.55818,0.14188 0.15489,0.03918 0.40329,0.10141 0.55819,0.14058 0.1549,0.03914 0.55818,0.14165 0.55818,0.14165"
       style="fill:none;stroke:#008080;stroke-width:0.79701;stroke-linecap:butt;stroke-linejoin:miter;stroke-miterlimit:10;stroke-dasharray:none;stroke-opacity:1"
       transform="matrix(1.3333333,0,0,-1.3333333,282.30933,162.716)" />
    <g
       id="g20"
       aria-label="y=ln(x−2)−1"
       transform="matrix(1.3333333,0,0,1.3333333,327.07333,147.13867)">
      <path
         id="path21"
         d="m 4.8405078,-3.7983359 c 0.046875,-0.140625 0.046875,-0.1523438 0.046875,-0.2226563 0,-0.1875 -0.140625,-0.2695312 -0.2929687,-0.2695312 -0.1054688,0 -0.2578125,0.058594 -0.3515625,0.1992187 -0.023437,0.058594 -0.09375,0.3632813 -0.140625,0.5390625 -0.070312,0.2578125 -0.140625,0.5273438 -0.1992188,0.796875 l -0.4453125,1.79296876 c -0.035156,0.15234375 -0.46875,0.85546875 -1.125,0.85546875 -0.5039062,0 -0.6210937,-0.4453125 -0.6210937,-0.80859375 0,-0.45703126 0.1757812,-1.07812496 0.515625,-1.95703126 0.1523437,-0.4101562 0.1992187,-0.515625 0.1992187,-0.7148437 0,-0.4453125 -0.328125,-0.8203125 -0.8203125,-0.8203125 -0.94921874,0 -1.31249999,1.453125 -1.31249999,1.5351562 0,0.1054688 0.09375,0.1054688 0.1171875,0.1054688 0.09375,0 0.10546875,-0.023437 0.15234375,-0.1875 0.26953125,-0.9375 0.66796874,-1.2304688 1.00781254,-1.2304688 0.082031,0 0.2578125,0 0.2578125,0.3164063 0,0.2460937 -0.1054688,0.515625 -0.1757813,0.703125 -0.3984375,1.0546875 -0.5742187,1.6171875 -0.5742187,2.0859375 0,0.89062496 0.6210937,1.18359371 1.21875,1.18359371 0.3867187,0 0.7265625,-0.1640625 0.9960937,-0.4453125 -0.1289062,0.515625 -0.2460937,1.0078125 -0.6445312,1.53515629 -0.2578125,0.3398437 -0.6328125,0.6328125 -1.0898438,0.6328125 -0.140625,0 -0.59765624,-0.035156 -0.76171874,-0.421875 0.1640625,0 0.29296874,0 0.43359374,-0.1171875 0.09375,-0.09375 0.1992188,-0.2226563 0.1992188,-0.41015629 0,-0.31640625 -0.2695313,-0.3515625 -0.375,-0.3515625 -0.22265629,0 -0.55078129,0.1640625 -0.55078129,0.64453129 0,0.5039062 0.43359375,0.8671875 1.05468749,0.8671875 1.0195313,0 2.0507813,-0.9023438 2.3320313,-2.02734379 z m 0,0"
         style="fill:#008080;fill-opacity:1;fill-rule:nonzero;stroke:none" />
      <path
         id="path22"
         d="m 14.857109,-3.2592734 c 0.152344,0 0.339844,0 0.339844,-0.1992188 0,-0.1992187 -0.1875,-0.1992187 -0.328125,-0.1992187 H 8.9039844 c -0.140625,0 -0.328125,0 -0.328125,0.1992187 0,0.1992188 0.1875,0.1992188 0.3398437,0.1992188 z m 0.01172,1.9335937 c 0.140625,0 0.328125,0 0.328125,-0.1992187 0,-0.1992188 -0.1875,-0.1992188 -0.339844,-0.1992188 H 8.9157031 c -0.1523437,0 -0.3398437,0 -0.3398437,0.1992188 0,0.1992187 0.1875,0.1992187 0.328125,0.1992187 z m 5.411133,-5.5898437 -1.429688,0.1054687 v 0.3164063 c 0.703125,0 0.773438,0.070312 0.773438,0.5507812 v 5.17968751 c 0,0.45703125 -0.105469,0.45703125 -0.773438,0.45703125 v 0.3046875 c 0.328125,-0.01171875 0.855469,-0.03515625 1.101563,-0.03515625 0.257812,0 0.738281,0.0234375 1.113281,0.03515625 v -0.3046875 c -0.667969,0 -0.785156,0 -0.785156,-0.45703125 z m 2.109375,3.4921875 v 2.66015621 c 0,0.45703125 -0.117188,0.45703125 -0.785156,0.45703125 v 0.3046875 c 0.351562,-0.01171875 0.855468,-0.03515625 1.125,-0.03515625 0.257812,0 0.785156,0.0234375 1.113281,0.03515625 v -0.3046875 c -0.65625,0 -0.773438,0 -0.773438,-0.45703125 V -2.5913047 c 0,-1.03125 0.714844,-1.59375 1.347657,-1.59375 0.621093,0 0.738281,0.5390625 0.738281,1.1015625 v 2.32031251 c 0,0.45703125 -0.117188,0.45703125 -0.773438,0.45703125 v 0.3046875 c 0.339844,-0.01171875 0.855469,-0.03515625 1.125,-0.03515625 0.257813,0 0.773438,0.0234375 1.113282,0.03515625 v -0.3046875 c -0.515625,0 -0.773438,0 -0.785157,-0.3046875 V -2.5092734 c 0,-0.8554688 0,-1.171875 -0.304687,-1.5234375 -0.140625,-0.1757813 -0.46875,-0.375 -1.042969,-0.375 -0.726562,0 -1.195312,0.4335937 -1.476562,1.0546875 v -1.0546875 l -1.40625,0.1171875 v 0.3046875 c 0.703125,0 0.785156,0.070312 0.785156,0.5625 z m 7.728516,5.8125 c 0,-0.035156 0,-0.046875 -0.164063,-0.2226563 -1.242187,-1.25390624 -1.570312,-3.12890624 -1.570312,-4.6640625 0,-1.7226562 0.386718,-3.4570312 1.605468,-4.7109375 0.128907,-0.1171875 0.128907,-0.1289062 0.128907,-0.1640625 0,-0.070312 -0.03516,-0.1054687 -0.09375,-0.1054687 -0.105469,0 -0.996094,0.6796875 -1.582032,1.9453125 -0.515625,1.1015625 -0.632812,2.203125 -0.632812,3.0351562 0,0.7851563 0.117187,1.99218751 0.65625,3.11718751 0.597656,1.21874999 1.453125,1.87499999 1.558594,1.87499999 0.05859,0 0.09375,-0.035156 0.09375,-0.1054687 z m 0,0"
         style="fill:#008080;fill-opacity:1;fill-rule:nonzero;stroke:none" />
      <path
         id="path23"
         d="m 34.026055,-3.0131797 c 0.05859,-0.2578125 0.292968,-1.171875 0.984375,-1.171875 0.04687,0 0.292968,0 0.503906,0.1289063 -0.28125,0.046875 -0.480469,0.3046875 -0.480469,0.5390625 0,0.1640625 0.105469,0.3515625 0.375,0.3515625 0.222656,0 0.539063,-0.1875 0.539063,-0.5859375 0,-0.515625 -0.585938,-0.65625 -0.925782,-0.65625 -0.574218,0 -0.925781,0.5273437 -1.042968,0.7617187 -0.257813,-0.65625 -0.785157,-0.7617187 -1.078125,-0.7617187 -1.042969,0 -1.605469,1.2890625 -1.605469,1.5351562 0,0.1054688 0.105469,0.1054688 0.117187,0.1054688 0.08203,0 0.117188,-0.023437 0.128907,-0.1171875 0.339843,-1.0546875 0.996093,-1.3007813 1.335937,-1.3007813 0.1875,0 0.539063,0.09375 0.539063,0.6679688 0,0.3046875 -0.164063,0.9726562 -0.539063,2.3671875 -0.152344,0.62109371 -0.503906,1.04296871 -0.949219,1.04296871 -0.05859,0 -0.28125,0 -0.492187,-0.12890625 0.246094,-0.0585938 0.46875,-0.26953125 0.46875,-0.5390625 0,-0.26953126 -0.222656,-0.35156246 -0.375,-0.35156246 -0.292969,0 -0.539063,0.25781246 -0.539063,0.57421871 0,0.45703125 0.492188,0.65625 0.9375,0.65625 0.65625,0 1.007813,-0.69140625 1.042969,-0.75 0.117188,0.36328125 0.480469,0.75 1.078125,0.75 1.019531,0 1.59375,-1.27734371 1.59375,-1.53515621 0,-0.09375 -0.09375,-0.09375 -0.128906,-0.09375 -0.08203,0 -0.105469,0.035156 -0.128906,0.1054687 -0.328125,1.06640626 -0.996094,1.31250001 -1.324219,1.31250001 -0.386719,0 -0.539063,-0.328125 -0.539063,-0.65625 0,-0.22265625 0.05859,-0.44531251 0.164063,-0.87890621 z m 0,0"
         style="fill:#008080;fill-opacity:1;fill-rule:nonzero;stroke:none" />
      <path
         id="path24"
         d="m 45.176445,-2.2983359 c 0.175782,0 0.351563,0 0.351563,-0.1992188 0,-0.1992187 -0.175781,-0.1992187 -0.351563,-0.1992187 H 39.78582 c -0.164062,0 -0.339843,0 -0.339843,0.1992187 0,0.1992188 0.175781,0.1992188 0.339843,0.1992188 z m 0,0"
         style="fill:#008080;fill-opacity:1;fill-rule:nonzero;stroke:none" />
      <path
         id="path25"
         d="m 49.840508,-0.76317969 1.054687,-1.03125001 c 1.558594,-1.3710937 2.15625,-1.9101562 2.15625,-2.90625 0,-1.1367187 -0.902343,-1.9335937 -2.121093,-1.9335937 -1.125,0 -1.851563,0.9140625 -1.851563,1.8046875 0,0.5507812 0.492188,0.5507812 0.527344,0.5507812 0.164062,0 0.515625,-0.1171875 0.515625,-0.5273437 0,-0.2578125 -0.1875,-0.515625 -0.527344,-0.515625 -0.08203,0 -0.105469,0 -0.128906,0.011719 0.222656,-0.6445312 0.761719,-1.0195312 1.335937,-1.0195312 0.914063,0 1.335938,0.8085937 1.335938,1.6289062 0,0.796875 -0.492188,1.5820313 -1.042969,2.203125 l -1.910156,2.13281251 c -0.105469,0.10546875 -0.105469,0.12890625 -0.105469,0.36328125 h 3.691406 l 0.28125,-1.73437496 h -0.257812 c -0.04687,0.3046875 -0.117188,0.73828121 -0.210938,0.89062496 -0.07031,0.0820313 -0.726562,0.0820313 -0.949218,0.0820313 z m 6.597656,-1.73437501 c 0,-0.7734375 -0.117187,-1.9804687 -0.65625,-3.1054687 -0.597656,-1.21875 -1.464844,-1.875 -1.558594,-1.875 -0.05859,0 -0.105468,0.046875 -0.105468,0.1054687 0,0.035156 0,0.046875 0.199218,0.234375 0.972657,0.984375 1.535157,2.5664063 1.535157,4.640625 0,1.71093751 -0.363282,3.45703126 -1.59375,4.7226563 -0.140625,0.1171875 -0.140625,0.1289062 -0.140625,0.1640625 0,0.058594 0.04687,0.1054687 0.105468,0.1054687 0.09375,0 0.996094,-0.6796875 1.582032,-1.94531249 0.503906,-1.1015625 0.632812,-2.20312501 0.632812,-3.04687501 z m 0,0"
         style="fill:#008080;fill-opacity:1;fill-rule:nonzero;stroke:none" />
      <path
         id="path26"
         d="m 66.205742,-2.2983359 c 0.175781,0 0.351563,0 0.351563,-0.1992188 0,-0.1992187 -0.175782,-0.1992187 -0.351563,-0.1992187 h -5.390625 c -0.164062,0 -0.339844,0 -0.339844,0.1992187 0,0.1992188 0.175782,0.1992188 0.339844,0.1992188 z m 0,0"
         style="fill:#008080;fill-opacity:1;fill-rule:nonzero;stroke:none" />
      <path
         id="path27"
         d="m 72.530938,-6.3764609 c 0,-0.234375 0,-0.2578125 -0.234375,-0.2578125 -0.609375,0.6328125 -1.488282,0.6328125 -1.804688,0.6328125 v 0.3164062 c 0.199219,0 0.785156,0 1.300781,-0.2578125 v 5.15625001 c 0,0.3515625 -0.03516,0.48046875 -0.925781,0.48046875 h -0.316406 v 0.3046875 c 0.351562,-0.03515625 1.207031,-0.03515625 1.605469,-0.03515625 0.398437,0 1.265625,0 1.617187,0.03515625 v -0.3046875 h -0.316406 c -0.902344,0 -0.925781,-0.1171875 -0.925781,-0.48046875 z m 0,0"
         style="fill:#008080;fill-opacity:1;fill-rule:nonzero;stroke:none" />
    </g>
    <path
       id="path28"
       d="M 1.2643672,-0.76175 2.3190547,-1.793 c 1.5585937,-1.3710937 2.15625,-1.9101562 2.15625,-2.90625 0,-1.1367187 -0.9023438,-1.9335937 -2.1210938,-1.9335937 -1.125,0 -1.85156246,0.9140625 -1.85156246,1.8046875 0,0.5507812 0.4921875,0.5507812 0.52734376,0.5507812 0.1640625,0 0.515625,-0.1171875 0.515625,-0.5273437 0,-0.2578125 -0.1875,-0.515625 -0.5273438,-0.515625 -0.0820312,0 -0.10546871,0 -0.12890621,0.011719 0.22265621,-0.6445312 0.76171871,-1.0195312 1.33593751,-1.0195312 0.9140625,0 1.3359375,0.8085937 1.3359375,1.6289062 0,0.796875 -0.4921875,1.5820313 -1.0429688,2.203125 L 0.60811719,-0.3633125 C 0.50264844,-0.25784375 0.50264844,-0.23440625 0.50264844,-3.125e-5 H 4.1940547 l 0.28125,-1.73437495 H 4.2174922 C 4.1706172,-1.4297187 4.1003047,-0.996125 4.0065547,-0.84378125 3.9362422,-0.76175 3.2799922,-0.76175 3.0573359,-0.76175 Z m 0,0"
       style="fill:#000000;fill-opacity:1;fill-rule:nonzero;stroke:none"
       aria-label="2"
       transform="matrix(1.3333333,0,0,1.3333333,308.34933,176.39067)" />
  </g>
</svg>
