<?xml version="1.0" encoding="UTF-8" standalone="no"?>
<!-- Created with Inkscape (http://www.inkscape.org/) -->

<svg
   version="1.1"
   id="svg1"
   width="483.78"
   height="362.83466"
   viewBox="0 0 483.78 362.83466"
   sodipodi:docname="5.1-rectangulos-der2.svg"
   inkscape:version="1.4.2 (f4327f4, 2025-05-13)"
   xmlns:inkscape="http://www.inkscape.org/namespaces/inkscape"
   xmlns:sodipodi="http://sodipodi.sourceforge.net/DTD/sodipodi-0.dtd"
   xmlns="http://www.w3.org/2000/svg"
   xmlns:svg="http://www.w3.org/2000/svg">
  <defs
     id="defs1" />
  <sodipodi:namedview
     id="namedview1"
     pagecolor="#ffffff"
     bordercolor="#000000"
     borderopacity="0.25"
     inkscape:showpageshadow="2"
     inkscape:pageopacity="0.0"
     inkscape:pagecheckerboard="0"
     inkscape:deskcolor="#d1d1d1"
     inkscape:zoom="2.2241536"
     inkscape:cx="242.11457"
     inkscape:cy="181.41733"
     inkscape:window-width="1920"
     inkscape:window-height="1009"
     inkscape:window-x="-8"
     inkscape:window-y="-8"
     inkscape:window-maximized="1"
     inkscape:current-layer="g1">
    <inkscape:page
       x="0"
       y="0"
       inkscape:label="7"
       id="page1"
       width="483.78"
       height="362.83466"
       margin="0"
       bleed="0" />
  </sodipodi:namedview>
  <g
     id="g1"
     inkscape:groupmode="layer"
     inkscape:label="7">
    <path
       id="path2"
       d="M -8.50412,119.05785 H 118.59952"
       style="fill:none;stroke:#000000;stroke-width:0.3985;stroke-linecap:butt;stroke-linejoin:miter;stroke-miterlimit:10;stroke-dasharray:none;stroke-opacity:1"
       transform="matrix(1.3333333,0,0,-1.3333333,55.410667,313.032)" />
    <path
       id="path3"
       d="M -1.19551,1.59401 C -1.09587,0.99626 0,0.09961 0.29886,0 0,-0.09961 -1.09587,-0.99626 -1.19551,-1.59401"
       style="fill:none;stroke:#000000;stroke-width:0.31879;stroke-linecap:round;stroke-linejoin:round;stroke-miterlimit:10;stroke-dasharray:none;stroke-opacity:1"
       transform="matrix(1.3333333,0,0,-1.3333333,213.54336,154.2882)" />
    <path
       id="path4"
       d="m 3.6456016,-3.2919922 c 0.070312,-0.28125 0.3164062,-1.2890625 1.078125,-1.2890625 0.058594,0 0.3164062,0 0.5507812,0.140625 -0.3046875,0.058594 -0.5273437,0.328125 -0.5273437,0.5859375 0,0.1757813 0.1171875,0.3867188 0.4101562,0.3867188 0.2460938,0 0.5976563,-0.1992188 0.5976563,-0.6328125 0,-0.5625 -0.6445313,-0.7265625 -1.0195313,-0.7265625 -0.6328125,0 -1.0195312,0.5859375 -1.1484375,0.8320312 -0.2695312,-0.7148437 -0.8554687,-0.8320312 -1.171875,-0.8320312 -1.1367187,0 -1.75781249,1.4179687 -1.75781249,1.6875 0,0.1054687 0.10546875,0.1054687 0.12890625,0.1054687 0.0820313,0 0.1171875,-0.023437 0.140625,-0.1171875 0.37500004,-1.1601562 1.08984374,-1.4296875 1.46484374,-1.4296875 0.2109375,0 0.5859375,0.09375 0.5859375,0.7265625 0,0.3398438 -0.1875,1.078125 -0.5859375,2.6015625 -0.1757812,0.67968751 -0.5625,1.13671876 -1.0429687,1.13671876 -0.058594,0 -0.3164063,0 -0.53906254,-0.140625 0.26953124,-0.0585938 0.51562504,-0.29296875 0.51562504,-0.59765625 0,-0.29296871 -0.2460938,-0.37500001 -0.41015629,-0.37500001 -0.328125,0 -0.59765625,0.28125001 -0.59765625,0.63281251 0,0.50390625 0.55078125,0.71484375 1.03125004,0.71484375 0.7148437,0 1.1015625,-0.76171875 1.1367187,-0.83203125 0.1289063,0.41015625 0.5273438,0.83203125 1.1835938,0.83203125 1.125,0 1.7460937,-1.40624996 1.7460937,-1.67578126 0,-0.1054687 -0.1054687,-0.1054687 -0.1289062,-0.1054687 -0.1054688,0 -0.1289063,0.035156 -0.140625,0.1171875 -0.3632813,1.16015621 -1.1132813,1.42968746 -1.453125,1.42968746 -0.4335938,0 -0.609375,-0.3515625 -0.609375,-0.7265625 0,-0.23437496 0.070312,-0.48046876 0.1875,-0.96093746 z m 0,0"
       style="fill:#000000;fill-opacity:1;fill-rule:nonzero;stroke:none"
       aria-label="x"
       transform="matrix(1.3333333,0,0,1.3333333,209.99467,165.66667)" />
    <path
       id="path5"
       d="M 0,110.55373 V 212.14497"
       style="fill:none;stroke:#000000;stroke-width:0.3985;stroke-linecap:butt;stroke-linejoin:miter;stroke-miterlimit:10;stroke-dasharray:none;stroke-opacity:1"
       transform="matrix(1.3333333,0,0,-1.3333333,55.410667,313.032)" />
    <path
       id="path6"
       d="M -1.19551,1.59401 C -1.09587,0.99626 0,0.09961 0.29886,0 0,-0.09961 -1.09587,-0.99626 -1.19551,-1.59401"
       style="fill:none;stroke:#000000;stroke-width:0.31879;stroke-linecap:round;stroke-linejoin:round;stroke-miterlimit:10;stroke-dasharray:none;stroke-opacity:1"
       transform="matrix(0,-1.3333333,-1.3333333,0,55.410667,30.17204)" />
    <path
       id="path7"
       d="m 5.2982734,-4.1602188 c 0.046875,-0.1523437 0.046875,-0.1757812 0.046875,-0.2460937 0,-0.1992188 -0.1523437,-0.2929688 -0.3164062,-0.2929688 -0.1054688,0 -0.28125,0.058594 -0.375,0.2226563 -0.023437,0.058594 -0.1171875,0.3984375 -0.1523438,0.5976562 -0.082031,0.28125 -0.1523437,0.5742188 -0.2226562,0.8671875 l -0.4921875,1.96875 c -0.046875,0.16406255 -0.515625,0.9257813 -1.2304688,0.9257813 -0.5625,0 -0.6796875,-0.48046875 -0.6796875,-0.890625 0,-0.4921875 0.1875,-1.171875 0.5625,-2.1328125 0.1757813,-0.4453125 0.2109375,-0.5742188 0.2109375,-0.7851563 0,-0.4921875 -0.3515625,-0.9023437 -0.890625,-0.9023437 -1.04296871,0 -1.44140621,1.5820312 -1.44140621,1.6875 0,0.1054687 0.10546875,0.1054687 0.12890625,0.1054687 0.10546875,0 0.1171875,-0.023437 0.17578125,-0.1992187 0.29296875,-1.0195313 0.72656251,-1.3476563 1.10156251,-1.3476563 0.09375,0 0.2695312,0 0.2695312,0.3515625 0,0.2695313 -0.1054687,0.5507813 -0.1757812,0.7617188 -0.4453125,1.1601562 -0.6328125,1.78125 -0.6328125,2.2851562 0,0.9726563 0.6796875,1.3007813 1.3242187,1.3007813 0.421875,0 0.796875,-0.1875 1.1015625,-0.4921875 C 3.4701484,0.19915625 3.3412422,0.7265 2.9076484,1.3124375 2.6146797,1.6757187 2.2045234,1.992125 1.7006172,1.992125 c -0.1523438,0 -0.6445313,-0.023437 -0.83203126,-0.4570313 0.17578126,0 0.31640626,0 0.48046876,-0.1289062 0.1054687,-0.09375 0.2109375,-0.234375 0.2109375,-0.4453125 0,-0.33984375 -0.2929688,-0.38671875 -0.3984375,-0.38671875 -0.25781251,0 -0.60937501,0.17578125 -0.60937501,0.71484375 0,0.5390625 0.48046871,0.9492187 1.14843751,0.9492187 1.125,0 2.25,-0.9960937 2.5546875,-2.22656245 z m 0,0"
       style="fill:#000000;fill-opacity:1;fill-rule:nonzero;stroke:none"
       aria-label="y"
       transform="matrix(1.3333333,0,0,1.3333333,42.642667,31.281333)" />
    <path
       id="path8"
       d="m 17.00824,119.05785 v 42.89486 h 44.90179 v -42.89486 z"
       style="fill:#9999ff;fill-opacity:0.35;fill-rule:nonzero;stroke:#000000;stroke-width:0.3985;stroke-linecap:butt;stroke-linejoin:miter;stroke-miterlimit:10;stroke-dasharray:none;stroke-opacity:0.35"
       transform="matrix(1.3333333,0,0,-1.3333333,55.410667,313.032)" />
    <path
       id="path9"
       d="m 61.91003,119.05785 v 50.97076 h 44.9018 v -50.97076 z"
       style="fill:#9999ff;fill-opacity:0.35;fill-rule:nonzero;stroke:#000000;stroke-width:0.3985;stroke-linecap:butt;stroke-linejoin:miter;stroke-miterlimit:10;stroke-dasharray:none;stroke-opacity:0.35"
       transform="matrix(1.3333333,0,0,-1.3333333,55.410667,313.032)" />
    <path
       id="path10"
       d="m 17.00824,184.39388 c 0,0 0.65535,0.34504 0.90704,0.46948 0.2517,0.12445 0.65534,0.31484 0.90705,0.42744 0.25167,0.11258 0.65535,0.28366 0.90704,0.3841 0.25169,0.10041 0.65535,0.25167 0.90703,0.33972 0.2517,0.088 0.65535,0.21947 0.90704,0.29481 0.2517,0.0754 0.65536,0.18595 0.90705,0.24837 0.25169,0.0624 0.65536,0.15228 0.90704,0.20165 0.25169,0.0494 0.65533,0.11801 0.90704,0.15415 0.2517,0.0361 0.65535,0.0836 0.90705,0.10642 0.25169,0.0228 0.65535,0.0487 0.90704,0.0581 0.25169,0.009 0.65534,0.014 0.90703,0.0101 0.25171,-0.004 0.65536,-0.0211 0.90704,-0.0384 0.25171,-0.0173 0.65537,-0.056 0.90704,-0.0867 0.2517,-0.0307 0.65535,-0.0906 0.90705,-0.13469 0.25169,-0.0441 0.65535,-0.12575 0.90704,-0.18297 0.25169,-0.0572 0.65535,-0.15932 0.90704,-0.22943 0.2517,-0.0701 0.65534,-0.19299 0.90705,-0.27586 0.25169,-0.0829 0.65535,-0.22606 0.90703,-0.32157 0.25171,-0.0955 0.65536,-0.25896 0.90704,-0.36669 0.25171,-0.10773 0.65535,-0.29014 0.90704,-0.40979 0.2517,-0.11965 0.65537,-0.32134 0.90704,-0.45263 0.2517,-0.13128 0.65536,-0.35105 0.90705,-0.4936 0.25169,-0.14257 0.65533,-0.38047 0.90705,-0.53385 0.25169,-0.15338 0.65534,-0.40797 0.90702,-0.57174 0.25171,-0.16376 0.65537,-0.43486 0.90705,-0.60859 0.2517,-0.17372 0.65534,-0.4604 0.90704,-0.64361 0.25171,-0.1832 0.65536,-0.48471 0.90704,-0.67685 0.2517,-0.19214 0.65537,-0.50745 0.90705,-0.70798 0.25169,-0.20053 0.65535,-0.52897 0.90704,-0.73732 0.25169,-0.20834 0.65535,-0.54872 0.90704,-0.76429 0.2517,-0.2156 0.65535,-0.56734 0.90703,-0.78948 0.25171,-0.22214 0.65537,-0.58342 0.90704,-0.81154 0.25171,-0.22812 0.65537,-0.59909 0.90706,-0.83255 0.25169,-0.23347 0.65535,-0.61209 0.90703,-0.8502 0.25169,-0.23813 0.65536,-0.62393 0.90704,-0.86605 0.2517,-0.24212 0.65535,-0.63356 0.90706,-0.87902 0.25168,-0.24546 0.65534,-0.64211 0.90703,-0.89016 0.2517,-0.24806 0.65535,-0.64784 0.90703,-0.8977 0.25171,-0.24986 0.65536,-0.6521 0.90706,-0.90315 0.25169,-0.25104 0.65535,-0.65477 0.90703,-0.90627 0.25171,-0.25148 0.65536,-0.65498 0.90704,-0.90626 0.25169,-0.25126 0.65537,-0.65432 0.90706,-0.9047 0.25168,-0.25039 0.65533,-0.65136 0.90703,-0.90004 0.25169,-0.24867 0.65535,-0.64596 0.90704,-0.89224 0.25169,-0.24629 0.65535,-0.63968 0.90704,-0.8829 0.2517,-0.24324 0.65535,-0.63076 0.90703,-0.8702 0.25171,-0.23944 0.65537,-0.62063 0.90705,-0.85565 0.2517,-0.23503 0.65536,-0.60835 0.90705,-0.83827 0.25168,-0.22992 0.65535,-0.59465 0.90703,-0.81882 0.2517,-0.22413 0.65535,-0.57902 0.90704,-0.79672 0.2517,-0.21771 0.65536,-0.5617 0.90706,-0.77235 0.25168,-0.21065 0.65534,-0.54287 0.90702,-0.74589 0.25171,-0.203 0.65536,-0.52253 0.90704,-0.71733 0.25171,-0.19479 0.65537,-0.50061 0.90706,-0.68669 0.25168,-0.18608 0.65535,-0.47774 0.90703,-0.65452 0.25169,-0.17681 0.65535,-0.45276 0.90704,-0.61975 0.25169,-0.16701 0.65535,-0.42719 0.90706,-0.58394 0.25168,-0.15673 0.65533,-0.3998 0.90703,-0.54578 0.25169,-0.14596 0.65535,-0.37145 0.90703,-0.50633 0.25171,-0.13489 0.65536,-0.34245 0.90706,-0.46585 0.25169,-0.1234 0.65534,-0.31198 0.90704,-0.42354 0.25168,-0.11156 0.65535,-0.2811 0.90703,-0.38048 0.25169,-0.0994 0.65535,-0.24895 0.90706,-0.33583 0.25167,-0.0869 0.65533,-0.21619 0.90704,-0.2904 0.25168,-0.0742 0.65533,-0.18319 0.90704,-0.24448 0.2517,-0.0613 0.65534,-0.14905 0.90703,-0.19722 0.25169,-0.0482 0.65535,-0.11508 0.90704,-0.15002 0.2517,-0.0349 0.65535,-0.0802 0.90705,-0.10174 0.25169,-0.0215 0.65534,-0.0455 0.90704,-0.0537 0.25168,-0.008 0.65534,-0.0104 0.90704,-0.005 0.25168,0.005 0.65534,0.0245 0.90705,0.0431 0.25169,0.0186 0.65533,0.059 0.90704,0.0908 0.25168,0.0319 0.65534,0.0939 0.90703,0.1391 0.25169,0.0452 0.65535,0.12849 0.90704,0.18686 0.25171,0.0584 0.65535,0.16253 0.90705,0.23384 0.25167,0.0713 0.65535,0.19598 0.90704,0.28002 0.25168,0.084 0.65533,0.22913 0.90704,0.3257 0.2517,0.0966 0.65534,0.26152 0.90705,0.37035 0.25168,0.10881 0.65533,0.29321 0.90704,0.41393 0.25168,0.12074 0.65533,0.32392 0.90703,0.45626 0.25171,0.13233 0.65535,0.35398 0.90704,0.4975 0.2517,0.14354 0.65535,0.38263 0.90705,0.53696 0.25167,0.15433 0.65535,0.41067 0.90704,0.57538 0.25169,0.1647 0.65533,0.4371 0.90704,0.61171 0.25168,0.17459 0.65534,0.46267 0.90705,0.64672 0.25167,0.18404 0.65535,0.48673 0.90703,0.67971 0.2517,0.19296 0.65534,0.50978 0.90704,0.71108 0.25169,0.20132 0.65535,0.5309 0.90704,0.7399 0.25169,0.20904 0.65537,0.55047 0.90704,0.76665 0.2517,0.21621 0.65535,0.56884 0.90705,0.79155 0.25168,0.22272 0.65533,0.58496 0.90704,0.81362 0.25168,0.22865 0.65535,0.60042 0.90704,0.83436 0.2517,0.23395 0.65534,0.61325 0.90703,0.85176 0.2517,0.23853 0.65535,0.6249 0.90705,0.86734 0.25169,0.24245 0.65536,0.63442 0.90704,0.88007 0.25171,0.24562 0.65535,0.64223 0.90704,0.89041 0.25169,0.24822 0.65535,0.64845 0.90705,0.89848 0.25168,0.25005 0.65534,0.65253 0.90704,0.90368 0.2517,0.25116 0.90704,0.90652 0.90704,0.90652"
       style="fill:none;stroke:#eb0a36;stroke-width:0.79701;stroke-linecap:butt;stroke-linejoin:miter;stroke-miterlimit:10;stroke-dasharray:none;stroke-opacity:1"
       transform="matrix(1.3333333,0,0,-1.3333333,55.410667,313.032)" />
    <g
       id="g10"
       aria-label="n=2"
       transform="matrix(1.3333333,0,0,1.3333333,118.61733,40.648)">
      <path
         id="path11"
         d="m 0.87879688,-0.58560937 c -0.0351563,0.15234375 -0.09375,0.375 -0.09375,0.421875 0,0.1875 0.140625,0.26953125 0.29296872,0.26953125 0.1171875,0 0.2929688,-0.0703125 0.3632813,-0.26953125 0.011719,-0.0234375 0.1289062,-0.4921875 0.1875,-0.73828125 L 1.8514531,-1.8043594 c 0.058594,-0.2226562 0.1171875,-0.4335937 0.1757813,-0.6679687 0.035156,-0.1640625 0.1171875,-0.4570313 0.1289062,-0.4921875 0.140625,-0.3164063 0.6679688,-1.21875 1.6171875,-1.21875 0.4453125,0 0.5390625,0.3632812 0.5390625,0.6914062 0,0.6210938 -0.4921875,1.8984375 -0.6445312,2.3320313 -0.09375,0.22265623 -0.1054688,0.33984373 -0.1054688,0.45703123 0,0.46875 0.3515625,0.80859375 0.8203125,0.80859375 0.9375,0 1.3007813,-1.45312498 1.3007813,-1.53515628 0,-0.09375 -0.082031,-0.09375 -0.1171875,-0.09375 -0.09375,0 -0.09375,0.023437 -0.1523438,0.1757813 -0.1992187,0.67968748 -0.5273437,1.24218748 -1.0078125,1.24218748 -0.1757812,0 -0.2460937,-0.10546875 -0.2460937,-0.328125 0,-0.2578125 0.09375,-0.4921875 0.1875,-0.71484378 0.1875,-0.5273437 0.5976562,-1.6171875 0.5976562,-2.1914062 0,-0.6679688 -0.421875,-1.0664063 -1.1367187,-1.0664063 -0.9023438,0 -1.3828125,0.6445313 -1.5585938,0.8671875 -0.046875,-0.5507812 -0.4570312,-0.8671875 -0.9140625,-0.8671875 -0.45703122,0 -0.64453122,0.3867188 -0.74999997,0.5742188 -0.15234375,0.3398437 -0.29296875,0.9257812 -0.29296875,0.9609375 0,0.1054687 0.09375,0.1054687 0.1171875,0.1054687 0.09375,0 0.10546875,-0.011719 0.1640625,-0.234375 0.17578125,-0.703125 0.375,-1.1835937 0.72656252,-1.1835937 0.1992187,0 0.3164062,0.1289062 0.3164062,0.4570312 0,0.2109375 -0.035156,0.3164063 -0.1640625,0.8320313 z m 0,0"
         style="fill:#000000;fill-opacity:1;fill-rule:nonzero;stroke:none" />
      <path
         id="path12"
         d="m 15.591688,-3.2574844 c 0.152343,0 0.339843,0 0.339843,-0.1992187 0,-0.1992188 -0.1875,-0.1992188 -0.328125,-0.1992188 H 9.6385625 c -0.140625,0 -0.328125,0 -0.328125,0.1992188 0,0.1992187 0.1875,0.1992187 0.3398438,0.1992187 z m 0.01172,1.9335938 c 0.140625,0 0.328125,0 0.328125,-0.1992188 0,-0.1992187 -0.1875,-0.1992187 -0.339843,-0.1992187 H 9.6502813 c -0.1523438,0 -0.3398438,0 -0.3398438,0.1992187 0,0.1992188 0.1875,0.1992188 0.328125,0.1992188 z m 4.930664,0.56249998 1.054688,-1.03124998 c 1.558594,-1.3710938 2.15625,-1.9101563 2.15625,-2.90625 0,-1.1367188 -0.902344,-1.9335938 -2.121094,-1.9335938 -1.125,0 -1.851562,0.9140625 -1.851562,1.8046875 0,0.5507813 0.492187,0.5507813 0.527343,0.5507813 0.164063,0 0.515625,-0.1171875 0.515625,-0.5273438 0,-0.2578125 -0.1875,-0.515625 -0.527343,-0.515625 -0.08203,0 -0.105469,0 -0.128907,0.011719 0.222657,-0.6445313 0.761719,-1.0195313 1.335938,-1.0195313 0.914062,0 1.335937,0.8085938 1.335937,1.6289063 0,0.796875 -0.492187,1.5820312 -1.042968,2.203125 l -1.910157,2.13281248 c -0.105468,0.10546875 -0.105468,0.12890625 -0.105468,0.363281245 H 23.46376 L 23.74501,-1.7340467 h -0.257813 c -0.04687,0.3046875 -0.117187,0.73828128 -0.210937,0.89062503 -0.07031,0.0820313 -0.726563,0.0820313 -0.949219,0.0820313 z m 0,0"
         style="fill:#000000;fill-opacity:1;fill-rule:nonzero;stroke:none" />
    </g>
    <path
       id="path13"
       d="M 161.57852,119.05785 H 288.68217"
       style="fill:none;stroke:#000000;stroke-width:0.3985;stroke-linecap:butt;stroke-linejoin:miter;stroke-miterlimit:10;stroke-dasharray:none;stroke-opacity:1"
       transform="matrix(1.3333333,0,0,-1.3333333,55.410667,313.032)" />
    <path
       id="path14"
       d="M -1.19551,1.59401 C -1.09587,0.99626 0,0.09961 0.29886,0 0,-0.09961 -1.09587,-0.99626 -1.19551,-1.59401"
       style="fill:none;stroke:#000000;stroke-width:0.31879;stroke-linecap:round;stroke-linejoin:round;stroke-miterlimit:10;stroke-dasharray:none;stroke-opacity:1"
       transform="matrix(1.3333333,0,0,-1.3333333,440.32023,154.2882)" />
    <path
       id="path15"
       d="m 3.6446797,-3.2919922 c 0.070312,-0.28125 0.3164062,-1.2890625 1.078125,-1.2890625 0.058594,0 0.3164062,0 0.5507812,0.140625 -0.3046875,0.058594 -0.5273437,0.328125 -0.5273437,0.5859375 0,0.1757813 0.1171875,0.3867188 0.4101562,0.3867188 0.2460938,0 0.5976563,-0.1992188 0.5976563,-0.6328125 0,-0.5625 -0.6445313,-0.7265625 -1.0195313,-0.7265625 -0.6328125,0 -1.0195312,0.5859375 -1.1484375,0.8320312 -0.2695312,-0.7148437 -0.8554687,-0.8320312 -1.171875,-0.8320312 -1.1367187,0 -1.75781246,1.4179687 -1.75781246,1.6875 0,0.1054687 0.10546875,0.1054687 0.12890625,0.1054687 0.0820313,0 0.1171875,-0.023437 0.140625,-0.1171875 0.37500001,-1.1601562 1.08984371,-1.4296875 1.46484371,-1.4296875 0.2109375,0 0.5859375,0.09375 0.5859375,0.7265625 0,0.3398438 -0.1875,1.078125 -0.5859375,2.6015625 -0.1757812,0.67968751 -0.5625,1.13671876 -1.0429687,1.13671876 -0.058594,0 -0.3164063,0 -0.53906251,-0.140625 0.26953121,-0.0585938 0.51562501,-0.29296875 0.51562501,-0.59765625 0,-0.29296871 -0.2460938,-0.37500001 -0.41015626,-0.37500001 -0.328125,0 -0.59765625,0.28125001 -0.59765625,0.63281251 0,0.50390625 0.55078125,0.71484375 1.03125001,0.71484375 0.7148437,0 1.1015625,-0.76171875 1.1367187,-0.83203125 0.1289063,0.41015625 0.5273438,0.83203125 1.1835938,0.83203125 1.125,0 1.7460937,-1.40624996 1.7460937,-1.67578126 0,-0.1054687 -0.1054687,-0.1054687 -0.1289062,-0.1054687 -0.1054688,0 -0.1289063,0.035156 -0.140625,0.1171875 -0.3632813,1.16015621 -1.1132813,1.42968746 -1.453125,1.42968746 -0.4335938,0 -0.609375,-0.3515625 -0.609375,-0.7265625 0,-0.23437496 0.070312,-0.48046876 0.1875,-0.96093746 z m 0,0"
       style="fill:#000000;fill-opacity:1;fill-rule:nonzero;stroke:none"
       aria-label="x"
       transform="matrix(1.3333333,0,0,1.3333333,436.76933,165.66667)" />
    <path
       id="path16"
       d="M 170.08264,110.55373 V 212.14497"
       style="fill:none;stroke:#000000;stroke-width:0.3985;stroke-linecap:butt;stroke-linejoin:miter;stroke-miterlimit:10;stroke-dasharray:none;stroke-opacity:1"
       transform="matrix(1.3333333,0,0,-1.3333333,55.410667,313.032)" />
    <path
       id="path17"
       d="M -1.19551,1.59401 C -1.09587,0.99626 0,0.09961 0.29886,0 0,-0.09961 -1.09587,-0.99626 -1.19551,-1.59401"
       style="fill:none;stroke:#000000;stroke-width:0.31879;stroke-linecap:round;stroke-linejoin:round;stroke-miterlimit:10;stroke-dasharray:none;stroke-opacity:1"
       transform="matrix(0,-1.3333333,-1.3333333,0,282.18752,30.17204)" />
    <path
       id="path18"
       d="m 5.2973516,-4.1602188 c 0.046875,-0.1523437 0.046875,-0.1757812 0.046875,-0.2460937 0,-0.1992188 -0.1523438,-0.2929688 -0.3164063,-0.2929688 -0.1054687,0 -0.28125,0.058594 -0.375,0.2226563 -0.023437,0.058594 -0.1171875,0.3984375 -0.1523437,0.5976562 -0.082031,0.28125 -0.1523438,0.5742188 -0.2226563,0.8671875 l -0.4921875,1.96875 c -0.046875,0.16406255 -0.515625,0.9257813 -1.2304687,0.9257813 -0.5625,0 -0.6796875,-0.48046875 -0.6796875,-0.890625 0,-0.4921875 0.1875,-1.171875 0.5625,-2.1328125 0.1757812,-0.4453125 0.2109375,-0.5742188 0.2109375,-0.7851563 0,-0.4921875 -0.3515625,-0.9023437 -0.890625,-0.9023437 -1.04296879,0 -1.44140629,1.5820312 -1.44140629,1.6875 0,0.1054687 0.10546875,0.1054687 0.12890625,0.1054687 0.10546875,0 0.1171875,-0.023437 0.17578125,-0.1992187 0.29296875,-1.0195313 0.72656249,-1.3476563 1.10156249,-1.3476563 0.09375,0 0.2695313,0 0.2695313,0.3515625 0,0.2695313 -0.1054688,0.5507813 -0.1757813,0.7617188 -0.4453125,1.1601562 -0.6328125,1.78125 -0.6328125,2.2851562 0,0.9726563 0.6796875,1.3007813 1.3242188,1.3007813 0.421875,0 0.796875,-0.1875 1.1015625,-0.4921875 C 3.4692266,0.19915625 3.3403203,0.7265 2.9067266,1.3124375 2.6137578,1.6757187 2.2036016,1.992125 1.6996953,1.992125 c -0.1523437,0 -0.6445312,-0.023437 -0.83203124,-0.4570313 0.17578124,0 0.31640624,0 0.48046874,-0.1289062 0.1054688,-0.09375 0.2109375,-0.234375 0.2109375,-0.4453125 0,-0.33984375 -0.2929687,-0.38671875 -0.3984375,-0.38671875 -0.25781249,0 -0.60937499,0.17578125 -0.60937499,0.71484375 0,0.5390625 0.48046879,0.9492187 1.14843749,0.9492187 1.125,0 2.25,-0.9960937 2.5546875,-2.22656245 z m 0,0"
       style="fill:#000000;fill-opacity:1;fill-rule:nonzero;stroke:none"
       aria-label="y"
       transform="matrix(1.3333333,0,0,1.3333333,269.41733,31.281333)" />
    <path
       id="path19"
       d="m 187.0909,119.05785 v 63.47835 h 22.45076 v -63.47835 z"
       style="fill:#9999ff;fill-opacity:0.35;fill-rule:nonzero;stroke:#000000;stroke-width:0.3985;stroke-linecap:butt;stroke-linejoin:miter;stroke-miterlimit:10;stroke-dasharray:none;stroke-opacity:0.35"
       transform="matrix(1.3333333,0,0,-1.3333333,55.410667,313.032)" />
    <path
       id="path20"
       d="m 209.54166,119.05785 v 42.89512 h 22.45077 v -42.89512 z"
       style="fill:#9999ff;fill-opacity:0.35;fill-rule:nonzero;stroke:#000000;stroke-width:0.3985;stroke-linecap:butt;stroke-linejoin:miter;stroke-miterlimit:10;stroke-dasharray:none;stroke-opacity:0.35"
       transform="matrix(1.3333333,0,0,-1.3333333,55.410667,313.032)" />
    <path
       id="path21"
       d="m 231.99243,119.05785 v 34.53555 h 22.45076 v -34.53555 z"
       style="fill:#9999ff;fill-opacity:0.35;fill-rule:nonzero;stroke:#000000;stroke-width:0.3985;stroke-linecap:butt;stroke-linejoin:miter;stroke-miterlimit:10;stroke-dasharray:none;stroke-opacity:0.35"
       transform="matrix(1.3333333,0,0,-1.3333333,55.410667,313.032)" />
    <path
       id="path22"
       d="m 254.44319,119.05785 v 50.97025 h 22.45076 v -50.97025 z"
       style="fill:#9999ff;fill-opacity:0.35;fill-rule:nonzero;stroke:#000000;stroke-width:0.3985;stroke-linecap:butt;stroke-linejoin:miter;stroke-miterlimit:10;stroke-dasharray:none;stroke-opacity:0.35"
       transform="matrix(1.3333333,0,0,-1.3333333,55.410667,313.032)" />
    <path
       id="path23"
       d="m 187.0909,184.39388 c 0,0 0.65535,0.34504 0.90704,0.46948 0.25169,0.12445 0.65533,0.31484 0.90703,0.42744 0.25169,0.11258 0.65536,0.28366 0.90704,0.3841 0.25171,0.10041 0.65537,0.25167 0.90705,0.33972 0.25169,0.088 0.65534,0.21947 0.90704,0.29481 0.25168,0.0754 0.65535,0.18595 0.90704,0.24837 0.2517,0.0624 0.65535,0.15228 0.90705,0.20165 0.25169,0.0494 0.65533,0.11801 0.90704,0.15415 0.25169,0.0361 0.65535,0.0836 0.90703,0.10642 0.25171,0.0228 0.65536,0.0487 0.90704,0.0581 0.25171,0.009 0.65535,0.014 0.90704,0.0101 0.2517,-0.004 0.65537,-0.0211 0.90705,-0.0384 0.25169,-0.0173 0.65535,-0.056 0.90704,-0.0867 0.25169,-0.0307 0.65534,-0.0906 0.90704,-0.13469 0.2517,-0.0441 0.65535,-0.12575 0.90705,-0.18297 0.25169,-0.0572 0.65535,-0.15932 0.90703,-0.22943 0.25171,-0.0701 0.65535,-0.19299 0.90704,-0.27586 0.25171,-0.0829 0.65536,-0.22606 0.90704,-0.32157 0.2517,-0.0955 0.65537,-0.25896 0.90705,-0.36669 0.25169,-0.10773 0.65533,-0.29014 0.90704,-0.40979 0.25169,-0.11965 0.65535,-0.32134 0.90704,-0.45263 0.2517,-0.13128 0.65535,-0.35105 0.90704,-0.4936 0.2517,-0.14257 0.65534,-0.38047 0.90704,-0.53385 0.2517,-0.15338 0.65536,-0.40797 0.90704,-0.57174 0.25171,-0.16376 0.65536,-0.43486 0.90704,-0.60859 0.2517,-0.17372 0.65535,-0.4604 0.90705,-0.64361 0.25169,-0.1832 0.65535,-0.48471 0.90704,-0.67685 0.25169,-0.19214 0.65535,-0.50745 0.90704,-0.70798 0.2517,-0.20053 0.65535,-0.52897 0.90705,-0.73732 0.25169,-0.20834 0.65535,-0.54872 0.90702,-0.76429 0.25171,-0.2156 0.65537,-0.56734 0.90705,-0.78948 0.25171,-0.22214 0.65536,-0.58342 0.90704,-0.81154 0.25169,-0.22812 0.65537,-0.59909 0.90706,-0.83255 0.25168,-0.23347 0.65533,-0.61209 0.90703,-0.8502 0.25169,-0.23813 0.65535,-0.62393 0.90704,-0.86605 0.2517,-0.24212 0.65535,-0.63356 0.90704,-0.87902 0.2517,-0.24546 0.65535,-0.64211 0.90703,-0.89016 0.25171,-0.24806 0.65537,-0.64784 0.90705,-0.8977 0.25171,-0.24986 0.65536,-0.6521 0.90706,-0.90315 0.25168,-0.25104 0.65534,-0.65477 0.90702,-0.90627 0.2517,-0.25148 0.65536,-0.65498 0.90705,-0.90626 0.25169,-0.25126 0.65535,-0.65432 0.90706,-0.9047 0.25167,-0.25039 0.65533,-0.65136 0.90701,-0.90004 0.25171,-0.24867 0.65536,-0.64596 0.90704,-0.89224 0.25171,-0.24629 0.65537,-0.63968 0.90706,-0.8829 0.25169,-0.24324 0.65535,-0.63076 0.90703,-0.8702 0.25169,-0.23944 0.65536,-0.62063 0.90704,-0.85565 0.2517,-0.23503 0.65535,-0.60835 0.90706,-0.83827 0.25168,-0.22992 0.65534,-0.59465 0.90703,-0.81882 0.25169,-0.22413 0.65535,-0.57902 0.90703,-0.79672 0.25171,-0.21771 0.65536,-0.5617 0.90705,-0.77235 0.2517,-0.21065 0.65536,-0.54287 0.90703,-0.74589 0.25171,-0.203 0.65537,-0.52253 0.90705,-0.71733 0.25169,-0.19479 0.65536,-0.50061 0.90706,-0.68669 0.25167,-0.18608 0.65533,-0.47774 0.90702,-0.65452 0.2517,-0.17681 0.65535,-0.45276 0.90705,-0.61975 0.25169,-0.16701 0.65535,-0.42719 0.90704,-0.58394 0.2517,-0.15673 0.65535,-0.3998 0.90703,-0.54578 0.25171,-0.14596 0.65536,-0.37145 0.90704,-0.50633 0.25171,-0.13489 0.65537,-0.34245 0.90706,-0.46585 0.25168,-0.1234 0.65535,-0.31198 0.90705,-0.42354 0.25167,-0.11156 0.65533,-0.2811 0.90702,-0.38048 0.2517,-0.0994 0.65535,-0.24895 0.90706,-0.33583 0.25168,-0.0869 0.65534,-0.21619 0.90703,-0.2904 0.25169,-0.0742 0.65535,-0.18319 0.90704,-0.24448 0.25172,-0.0613 0.65535,-0.14905 0.90705,-0.19722 0.25167,-0.0482 0.65535,-0.11508 0.90704,-0.15002 0.25168,-0.0349 0.65533,-0.0802 0.90704,-0.10174 0.2517,-0.0215 0.65534,-0.0455 0.90705,-0.0537 0.25168,-0.008 0.65533,-0.0104 0.90704,-0.005 0.25168,0.005 0.65534,0.0245 0.90703,0.0431 0.25171,0.0186 0.65535,0.059 0.90704,0.0908 0.2517,0.0319 0.65535,0.0939 0.90705,0.1391 0.25168,0.0452 0.65535,0.12849 0.90704,0.18686 0.25169,0.0584 0.65534,0.16253 0.90704,0.23384 0.25168,0.0713 0.65534,0.19598 0.90705,0.28002 0.25168,0.084 0.65533,0.22913 0.90704,0.3257 0.25169,0.0966 0.65533,0.26152 0.90703,0.37035 0.25169,0.10881 0.65535,0.29321 0.90704,0.41393 0.2517,0.12074 0.65535,0.32392 0.90704,0.45626 0.2517,0.13233 0.65536,0.35398 0.90705,0.4975 0.25168,0.14354 0.65533,0.38263 0.90704,0.53696 0.25168,0.15433 0.65534,0.41067 0.90705,0.57538 0.25169,0.1647 0.65533,0.4371 0.90704,0.61171 0.25168,0.17459 0.65533,0.46267 0.90702,0.64672 0.2517,0.18404 0.65537,0.48673 0.90705,0.67971 0.25171,0.19296 0.65535,0.50978 0.90705,0.71108 0.25167,0.20132 0.65534,0.5309 0.90704,0.7399 0.25168,0.20904 0.65535,0.55047 0.90704,0.76665 0.25169,0.21621 0.65534,0.56884 0.90704,0.79155 0.25168,0.22272 0.65534,0.58496 0.90705,0.81362 0.25168,0.22865 0.65535,0.60042 0.90703,0.83436 0.2517,0.23395 0.65535,0.61325 0.90704,0.85176 0.25169,0.23853 0.65535,0.6249 0.90704,0.86734 0.25168,0.24245 0.65537,0.63442 0.90705,0.88007 0.25169,0.24562 0.65533,0.64223 0.90704,0.89041 0.25169,0.24822 0.65533,0.64845 0.90704,0.89848 0.25168,0.25005 0.65535,0.65253 0.90703,0.90368 0.25171,0.25116 0.90705,0.90652 0.90705,0.90652"
       style="fill:none;stroke:#eb0a36;stroke-width:0.79701;stroke-linecap:butt;stroke-linejoin:miter;stroke-miterlimit:10;stroke-dasharray:none;stroke-opacity:1"
       transform="matrix(1.3333333,0,0,-1.3333333,55.410667,313.032)" />
    <g
       id="g23"
       aria-label="n=4"
       transform="matrix(1.3333333,0,0,1.3333333,345.392,40.648)">
      <path
         id="path24"
         d="m 0.877875,-0.58560937 c -0.0351563,0.15234375 -0.09375,0.375 -0.09375,0.421875 0,0.1875 0.140625,0.26953125 0.2929688,0.26953125 0.1171875,0 0.2929687,-0.0703125 0.3632812,-0.26953125 0.011719,-0.0234375 0.1289063,-0.4921875 0.1875,-0.73828125 L 1.8505313,-1.8043594 c 0.058594,-0.2226562 0.1171875,-0.4335937 0.1757812,-0.6679687 0.035156,-0.1640625 0.1171875,-0.4570313 0.1289063,-0.4921875 0.140625,-0.3164063 0.6679687,-1.21875 1.6171875,-1.21875 0.4453125,0 0.5390625,0.3632812 0.5390625,0.6914062 0,0.6210938 -0.4921875,1.8984375 -0.6445313,2.3320313 -0.09375,0.22265623 -0.1054687,0.33984373 -0.1054687,0.45703123 0,0.46875 0.3515625,0.80859375 0.8203125,0.80859375 0.9375,0 1.3007812,-1.45312498 1.3007812,-1.53515628 0,-0.09375 -0.082031,-0.09375 -0.1171875,-0.09375 -0.09375,0 -0.09375,0.023437 -0.1523437,0.1757813 -0.1992188,0.67968748 -0.5273438,1.24218748 -1.0078125,1.24218748 -0.1757813,0 -0.2460938,-0.10546875 -0.2460938,-0.328125 0,-0.2578125 0.09375,-0.4921875 0.1875,-0.71484378 0.1875,-0.5273437 0.5976563,-1.6171875 0.5976563,-2.1914062 0,-0.6679688 -0.421875,-1.0664063 -1.1367188,-1.0664063 -0.9023437,0 -1.3828125,0.6445313 -1.5585937,0.8671875 -0.046875,-0.5507812 -0.4570313,-0.8671875 -0.9140625,-0.8671875 -0.4570313,0 -0.6445313,0.3867188 -0.75000005,0.5742188 -0.15234375,0.3398437 -0.29296875,0.9257812 -0.29296875,0.9609375 0,0.1054687 0.09375,0.1054687 0.1171875,0.1054687 0.09375,0 0.10546875,-0.011719 0.1640625,-0.234375 0.17578125,-0.703125 0.375,-1.1835937 0.7265625,-1.1835937 0.1992188,0 0.3164063,0.1289062 0.3164063,0.4570312 0,0.2109375 -0.035156,0.3164063 -0.1640625,0.8320313 z m 0,0"
         style="fill:#000000;fill-opacity:1;fill-rule:nonzero;stroke:none" />
      <path
         id="path25"
         d="m 15.593695,-3.2574844 c 0.152344,0 0.339844,0 0.339844,-0.1992187 0,-0.1992188 -0.1875,-0.1992188 -0.328125,-0.1992188 H 9.6405703 c -0.140625,0 -0.328125,0 -0.328125,0.1992188 0,0.1992187 0.1875,0.1992187 0.3398438,0.1992187 z m 0.01172,1.9335938 c 0.140625,0 0.328125,0 0.328125,-0.1992188 0,-0.1992187 -0.1875,-0.1992187 -0.339844,-0.1992187 H 9.6522891 c -0.1523438,0 -0.3398438,0 -0.3398438,0.1992187 0,0.1992188 0.1875,0.1992188 0.328125,0.1992188 z m 6.591797,-0.3164063 v 0.86718753 c 0,0.3515625 -0.02344,0.46875 -0.761719,0.46875 H 21.224555 V 3.28125e-4 c 0.410156,-0.035156245 0.9375,-0.035156245 1.347656,-0.035156245 0.421875,0 0.949219,0 1.359375,0.035156245 V -0.30435937 h -0.210938 c -0.738281,0 -0.761718,-0.1171875 -0.761718,-0.46875 V -1.6402969 h 0.996093 V -1.9567031 H 22.95893 v -4.5234375 c 0,-0.1992188 0,-0.2578125 -0.152344,-0.2578125 -0.09375,0 -0.117188,0 -0.199219,0.1171875 l -3.058594,4.6640625 v 0.3164062 z m 0.05859,-0.3164062 H 19.83002 l 2.425782,-3.7148438 z m 0,0"
         style="fill:#000000;fill-opacity:1;fill-rule:nonzero;stroke:none" />
    </g>
    <path
       id="path26"
       d="M -8.50412,0 H 118.59952"
       style="fill:none;stroke:#000000;stroke-width:0.3985;stroke-linecap:butt;stroke-linejoin:miter;stroke-miterlimit:10;stroke-dasharray:none;stroke-opacity:1"
       transform="matrix(1.3333333,0,0,-1.3333333,55.410667,313.032)" />
    <path
       id="path27"
       d="M -1.19551,1.59401 C -1.09587,0.99626 0,0.09961 0.29886,0 0,-0.09961 -1.09587,-0.99626 -1.19551,-1.59401"
       style="fill:none;stroke:#000000;stroke-width:0.31879;stroke-linecap:round;stroke-linejoin:round;stroke-miterlimit:10;stroke-dasharray:none;stroke-opacity:1"
       transform="matrix(1.3333333,0,0,-1.3333333,213.54336,313.032)" />
    <path
       id="path28"
       d="m 3.6456016,-3.2942812 c 0.070312,-0.28125 0.3164062,-1.2890625 1.078125,-1.2890625 0.058594,0 0.3164062,0 0.5507812,0.140625 -0.3046875,0.058594 -0.5273437,0.328125 -0.5273437,0.5859375 0,0.1757812 0.1171875,0.3867187 0.4101562,0.3867187 0.2460938,0 0.5976563,-0.1992187 0.5976563,-0.6328125 0,-0.5625 -0.6445313,-0.7265625 -1.0195313,-0.7265625 -0.6328125,0 -1.0195312,0.5859375 -1.1484375,0.8320313 -0.2695312,-0.7148438 -0.8554687,-0.8320313 -1.171875,-0.8320313 -1.1367187,0 -1.75781249,1.4179688 -1.75781249,1.6875 0,0.1054688 0.10546875,0.1054688 0.12890625,0.1054688 0.0820313,0 0.1171875,-0.023437 0.140625,-0.1171875 0.37500004,-1.1601563 1.08984374,-1.4296875 1.46484374,-1.4296875 0.2109375,0 0.5859375,0.09375 0.5859375,0.7265625 0,0.3398437 -0.1875,1.078125 -0.5859375,2.6015625 -0.1757812,0.67968745 -0.5625,1.1367187 -1.0429687,1.1367187 -0.058594,0 -0.3164063,0 -0.53906254,-0.140625 0.26953124,-0.0585938 0.51562504,-0.29296875 0.51562504,-0.59765625 0,-0.29296875 -0.2460938,-0.37499995 -0.41015629,-0.37499995 -0.328125,0 -0.59765625,0.28124995 -0.59765625,0.63281245 0,0.50390625 0.55078125,0.71484375 1.03125004,0.71484375 0.7148437,0 1.1015625,-0.76171875 1.1367187,-0.83203125 C 2.6143516,-0.306 3.0127891,0.115875 3.6690391,0.115875 c 1.125,0 1.7460937,-1.40625 1.7460937,-1.6757812 0,-0.1054688 -0.1054687,-0.1054688 -0.1289062,-0.1054688 -0.1054688,0 -0.1289063,0.035156 -0.140625,0.1171875 C 4.7823203,-0.38803125 4.0323203,-0.1185 3.6924766,-0.1185 c -0.4335938,0 -0.609375,-0.3515625 -0.609375,-0.7265625 0,-0.234375 0.070312,-0.4804687 0.1875,-0.9609375 z m 0,0"
       style="fill:#000000;fill-opacity:1;fill-rule:nonzero;stroke:none"
       aria-label="x"
       transform="matrix(1.3333333,0,0,1.3333333,209.99467,324.408)" />
    <path
       id="path29"
       d="M 0,-8.50412 V 93.08711"
       style="fill:none;stroke:#000000;stroke-width:0.3985;stroke-linecap:butt;stroke-linejoin:miter;stroke-miterlimit:10;stroke-dasharray:none;stroke-opacity:1"
       transform="matrix(1.3333333,0,0,-1.3333333,55.410667,313.032)" />
    <path
       id="path30"
       d="M -1.19551,1.59401 C -1.09587,0.99626 0,0.09961 0.29886,0 0,-0.09961 -1.09587,-0.99626 -1.19551,-1.59401"
       style="fill:none;stroke:#000000;stroke-width:0.31879;stroke-linecap:round;stroke-linejoin:round;stroke-miterlimit:10;stroke-dasharray:none;stroke-opacity:1"
       transform="matrix(0,-1.3333333,-1.3333333,0,55.410667,188.91585)" />
    <path
       id="path31"
       d="m 5.2982734,-4.1605781 c 0.046875,-0.1523438 0.046875,-0.1757813 0.046875,-0.2460938 0,-0.1992187 -0.1523437,-0.2929687 -0.3164062,-0.2929687 -0.1054688,0 -0.28125,0.058594 -0.375,0.2226562 -0.023437,0.058594 -0.1171875,0.3984375 -0.1523438,0.5976563 -0.082031,0.28125 -0.1523437,0.5742187 -0.2226562,0.8671875 l -0.4921875,1.96875 c -0.046875,0.16406248 -0.515625,0.92578123 -1.2304688,0.92578123 -0.5625,0 -0.6796875,-0.48046875 -0.6796875,-0.89062503 0,-0.4921875 0.1875,-1.171875 0.5625,-2.1328125 0.1757813,-0.4453125 0.2109375,-0.5742187 0.2109375,-0.7851562 0,-0.4921875 -0.3515625,-0.9023438 -0.890625,-0.9023438 -1.04296871,0 -1.44140621,1.5820313 -1.44140621,1.6875 0,0.1054688 0.10546875,0.1054688 0.12890625,0.1054688 0.10546875,0 0.1171875,-0.023437 0.17578125,-0.1992188 0.29296875,-1.0195312 0.72656251,-1.3476562 1.10156251,-1.3476562 0.09375,0 0.2695312,0 0.2695312,0.3515625 0,0.2695312 -0.1054687,0.5507812 -0.1757812,0.7617187 -0.4453125,1.1601563 -0.6328125,1.78125 -0.6328125,2.2851563 0,0.97265623 0.6796875,1.30078123 1.3242187,1.30078123 0.421875,0 0.796875,-0.1875 1.1015625,-0.4921875 -0.140625,0.57421875 -0.2695312,1.1015625 -0.703125,1.68749997 -0.2929687,0.3632813 -0.703125,0.6796875 -1.2070312,0.6796875 -0.1523438,0 -0.6445313,-0.023437 -0.83203126,-0.4570312 0.17578126,0 0.31640626,0 0.48046876,-0.1289063 0.1054687,-0.09375 0.2109375,-0.234375 0.2109375,-0.44531247 0,-0.33984375 -0.2929688,-0.38671875 -0.3984375,-0.38671875 -0.25781251,0 -0.60937501,0.17578125 -0.60937501,0.71484372 0,0.5390625 0.48046871,0.9492188 1.14843751,0.9492188 1.125,0 2.25,-0.9960938 2.5546875,-2.22656252 z m 0,0"
       style="fill:#000000;fill-opacity:1;fill-rule:nonzero;stroke:none"
       aria-label="y"
       transform="matrix(1.3333333,0,0,1.3333333,42.642667,190.024)" />
    <path
       id="path32"
       d="M 17.00824,0 V 67.96475 H 28.23349 V 0 Z"
       style="fill:#9999ff;fill-opacity:0.35;fill-rule:nonzero;stroke:#000000;stroke-width:0.3985;stroke-linecap:butt;stroke-linejoin:miter;stroke-miterlimit:10;stroke-dasharray:none;stroke-opacity:0.35"
       transform="matrix(1.3333333,0,0,-1.3333333,55.410667,313.032)" />
    <path
       id="path33"
       d="M 28.23349,0 V 63.4786 H 39.45876 V 0 Z"
       style="fill:#9999ff;fill-opacity:0.35;fill-rule:nonzero;stroke:#000000;stroke-width:0.3985;stroke-linecap:butt;stroke-linejoin:miter;stroke-miterlimit:10;stroke-dasharray:none;stroke-opacity:0.35"
       transform="matrix(1.3333333,0,0,-1.3333333,55.410667,313.032)" />
    <path
       id="path34"
       d="M 39.45876,0 V 53.76146 H 50.68399 V 0 Z"
       style="fill:#9999ff;fill-opacity:0.35;fill-rule:nonzero;stroke:#000000;stroke-width:0.3985;stroke-linecap:butt;stroke-linejoin:miter;stroke-miterlimit:10;stroke-dasharray:none;stroke-opacity:0.35"
       transform="matrix(1.3333333,0,0,-1.3333333,55.410667,313.032)" />
    <path
       id="path35"
       d="M 50.68399,0 V 42.89565 H 61.90926 V 0 Z"
       style="fill:#9999ff;fill-opacity:0.35;fill-rule:nonzero;stroke:#000000;stroke-width:0.3985;stroke-linecap:butt;stroke-linejoin:miter;stroke-miterlimit:10;stroke-dasharray:none;stroke-opacity:0.35"
       transform="matrix(1.3333333,0,0,-1.3333333,55.410667,313.032)" />
    <path
       id="path36"
       d="M 61.90926,0 V 35.44337 H 73.1345 V 0 Z"
       style="fill:#9999ff;fill-opacity:0.35;fill-rule:nonzero;stroke:#000000;stroke-width:0.3985;stroke-linecap:butt;stroke-linejoin:miter;stroke-miterlimit:10;stroke-dasharray:none;stroke-opacity:0.35"
       transform="matrix(1.3333333,0,0,-1.3333333,55.410667,313.032)" />
    <path
       id="path37"
       d="M 73.1345,0 V 34.5353 H 84.35977 V 0 Z"
       style="fill:#9999ff;fill-opacity:0.35;fill-rule:nonzero;stroke:#000000;stroke-width:0.3985;stroke-linecap:butt;stroke-linejoin:miter;stroke-miterlimit:10;stroke-dasharray:none;stroke-opacity:0.35"
       transform="matrix(1.3333333,0,0,-1.3333333,55.410667,313.032)" />
    <path
       id="path38"
       d="M 84.35977,0 V 40.55318 H 95.58502 V 0 Z"
       style="fill:#9999ff;fill-opacity:0.35;fill-rule:nonzero;stroke:#000000;stroke-width:0.3985;stroke-linecap:butt;stroke-linejoin:miter;stroke-miterlimit:10;stroke-dasharray:none;stroke-opacity:0.35"
       transform="matrix(1.3333333,0,0,-1.3333333,55.410667,313.032)" />
    <path
       id="path39"
       d="m 95.58502,0 v 50.96922 h 11.22525 V 0 Z"
       style="fill:#9999ff;fill-opacity:0.35;fill-rule:nonzero;stroke:#000000;stroke-width:0.3985;stroke-linecap:butt;stroke-linejoin:miter;stroke-miterlimit:10;stroke-dasharray:none;stroke-opacity:0.35"
       transform="matrix(1.3333333,0,0,-1.3333333,55.410667,313.032)" />
    <path
       id="path40"
       d="m 17.00824,65.33603 c 0,0 0.65535,0.34503 0.90704,0.46948 0.2517,0.12444 0.65534,0.31485 0.90705,0.42743 0.25167,0.1126 0.65535,0.28368 0.90704,0.38409 0.25169,0.10044 0.65535,0.2517 0.90703,0.33974 0.2517,0.08803 0.65535,0.21945 0.90704,0.29482 0.2517,0.07534 0.65536,0.18593 0.90705,0.24836 0.25169,0.06245 0.65536,0.15229 0.90704,0.20165 0.25169,0.04936 0.65533,0.11801 0.90704,0.15416 0.2517,0.03614 0.65535,0.08359 0.90705,0.10641 0.25169,0.02282 0.65535,0.04866 0.90704,0.05814 0.25169,0.0094 0.65534,0.01404 0.90703,0.01012 0.25171,-0.0039 0.65536,-0.02108 0.90704,-0.03843 0.25171,-0.01733 0.65537,-0.05596 0.90704,-0.08667 0.2517,-0.03071 0.65535,-0.09062 0.90705,-0.13468 0.25169,-0.04409 0.65535,-0.12577 0.90704,-0.18299 0.25169,-0.05722 0.65535,-0.15932 0.90704,-0.22941 0.2517,-0.0701 0.65534,-0.193 0.90705,-0.27588 0.25169,-0.08287 0.65535,-0.22605 0.90703,-0.32155 0.25171,-0.09549 0.65536,-0.25899 0.90704,-0.3667 0.25171,-0.10774 0.65535,-0.29013 0.90704,-0.40979 0.2517,-0.11966 0.65537,-0.32133 0.90704,-0.45262 0.2517,-0.13129 0.65536,-0.35106 0.90705,-0.49361 0.25169,-0.14256 0.65533,-0.38046 0.90705,-0.53384 0.25169,-0.1534 0.65534,-0.40798 0.90702,-0.57175 0.25171,-0.16376 0.65537,-0.43486 0.90705,-0.60858 0.2517,-0.17374 0.65534,-0.46042 0.90704,-0.64363 0.25171,-0.1832 0.65536,-0.4847 0.90704,-0.67684 0.2517,-0.19213 0.65537,-0.50746 0.90705,-0.70797 0.25169,-0.20053 0.65535,-0.52898 0.90704,-0.73732 0.25169,-0.20835 0.65535,-0.54874 0.90704,-0.76432 0.2517,-0.21557 0.65535,-0.56733 0.90703,-0.78945 0.25171,-0.22214 0.65537,-0.58343 0.90704,-0.81156 0.25171,-0.22812 0.65537,-0.59907 0.90706,-0.83255 0.25169,-0.23347 0.65535,-0.61209 0.90703,-0.85019 0.25169,-0.23813 0.65536,-0.62395 0.90704,-0.86604 0.2517,-0.24213 0.65535,-0.63356 0.90706,-0.87903 0.25168,-0.24545 0.65534,-0.64211 0.90703,-0.89015 0.2517,-0.24806 0.65535,-0.64784 0.90703,-0.89771 0.25171,-0.24986 0.65536,-0.65211 0.90706,-0.90315 0.25169,-0.25105 0.65535,-0.65478 0.90703,-0.90626 0.25171,-0.25148 0.65536,-0.655 0.90704,-0.90627 0.25169,-0.25127 0.65537,-0.65431 0.90706,-0.90471 0.25168,-0.25038 0.65533,-0.65135 0.90703,-0.90002 0.25169,-0.24868 0.65535,-0.64597 0.90704,-0.89226 0.25169,-0.24628 0.65535,-0.63966 0.90704,-0.88289 0.2517,-0.24326 0.65535,-0.63075 0.90703,-0.87019 0.25171,-0.23946 0.65537,-0.62064 0.90705,-0.85567 0.2517,-0.23502 0.65536,-0.60835 0.90705,-0.83825 0.25168,-0.22993 0.65535,-0.59467 0.90703,-0.81882 0.2517,-0.22414 0.65535,-0.57903 0.90704,-0.79674 0.2517,-0.2177 0.65536,-0.56169 0.90706,-0.77236 0.25168,-0.21063 0.65534,-0.54286 0.90702,-0.74586 0.25171,-0.203 0.65536,-0.52254 0.90704,-0.71733 0.25171,-0.19481 0.65537,-0.50063 0.90706,-0.68669 0.25168,-0.18608 0.65535,-0.47774 0.90703,-0.65454 0.25169,-0.17679 0.65535,-0.45275 0.90704,-0.61974 0.25169,-0.16701 0.65535,-0.42719 0.90706,-0.58394 0.25168,-0.15674 0.65533,-0.39979 0.90703,-0.54578 0.25169,-0.14598 0.65535,-0.37144 0.90703,-0.50633 0.25171,-0.13489 0.65536,-0.34245 0.90706,-0.46585 0.25169,-0.1234 0.65534,-0.31199 0.90704,-0.42354 0.25168,-0.11155 0.65535,-0.28111 0.90703,-0.38048 0.25169,-0.09937 0.65535,-0.24894 0.90706,-0.33583 0.25167,-0.08688 0.65533,-0.21618 0.90704,-0.2904 0.25168,-0.0742 0.65533,-0.18318 0.90704,-0.24447 0.2517,-0.06129 0.65534,-0.14907 0.90703,-0.19724 0.25169,-0.04817 0.65535,-0.11508 0.90704,-0.15001 0.2517,-0.03491 0.65535,-0.08015 0.90705,-0.10173 0.25169,-0.02156 0.65534,-0.04555 0.90704,-0.05372 0.25168,-0.0082 0.65534,-0.01044 0.90704,-0.0052 0.25168,0.0053 0.65534,0.0245 0.90705,0.0431 0.25169,0.01857 0.65533,0.05892 0.90704,0.09083 0.25168,0.03189 0.65534,0.09387 0.90703,0.1391 0.25169,0.04521 0.65535,0.12849 0.90704,0.18686 0.25171,0.05835 0.65535,0.16254 0.90705,0.23382 0.25167,0.07129 0.65535,0.19599 0.90704,0.28005 0.25168,0.08403 0.65533,0.22913 0.90704,0.3257 0.2517,0.09656 0.65534,0.26152 0.90705,0.37033 0.25168,0.10882 0.65533,0.29323 0.90704,0.41394 0.25168,0.12073 0.65533,0.32393 0.90703,0.45625 0.25171,0.13234 0.65535,0.35399 0.90704,0.4975 0.2517,0.14354 0.65535,0.38264 0.90705,0.53697 0.25167,0.15433 0.65535,0.41066 0.90704,0.57538 0.25169,0.1647 0.65533,0.4371 0.90704,0.61169 0.25168,0.1746 0.65534,0.4627 0.90705,0.64675 0.25167,0.18403 0.65535,0.48673 0.90703,0.67969 0.2517,0.19297 0.65534,0.50979 0.90704,0.71109 0.25169,0.20132 0.65535,0.5309 0.90704,0.73991 0.25169,0.20903 0.65537,0.55044 0.90704,0.76663 0.2517,0.21621 0.65535,0.56885 0.90705,0.79155 0.25168,0.22273 0.65533,0.58498 0.90704,0.81363 0.25168,0.22865 0.65535,0.60042 0.90704,0.83437 0.2517,0.23393 0.65534,0.61325 0.90703,0.85176 0.2517,0.23852 0.65535,0.62489 0.90705,0.86734 0.25169,0.24243 0.65536,0.6344 0.90704,0.88005 0.25171,0.24563 0.65535,0.64224 0.90704,0.89043 0.25169,0.24819 0.65535,0.64843 0.90705,0.89848 0.25168,0.25004 0.65534,0.65251 0.90704,0.90367 0.2517,0.25114 0.90704,0.90653 0.90704,0.90653"
       style="fill:none;stroke:#eb0a36;stroke-width:0.79701;stroke-linecap:butt;stroke-linejoin:miter;stroke-miterlimit:10;stroke-dasharray:none;stroke-opacity:1"
       transform="matrix(1.3333333,0,0,-1.3333333,55.410667,313.032)" />
    <g
       id="g40"
       aria-label="n=8"
       transform="matrix(1.3333333,0,0,1.3333333,118.61733,199.39067)">
      <path
         id="path41"
         d="m 0.87879688,-0.58596875 c -0.0351563,0.15234375 -0.09375,0.375 -0.09375,0.421875 0,0.1875 0.140625,0.26953125 0.29296872,0.26953125 0.1171875,0 0.2929688,-0.0703125 0.3632813,-0.26953125 0.011719,-0.0234375 0.1289062,-0.4921875 0.1875,-0.73828125 l 0.2226562,-0.9023437 c 0.058594,-0.2226563 0.1171875,-0.4335938 0.1757813,-0.6679688 0.035156,-0.1640625 0.1171875,-0.4570312 0.1289062,-0.4921875 0.140625,-0.3164062 0.6679688,-1.21875 1.6171875,-1.21875 0.4453125,0 0.5390625,0.3632813 0.5390625,0.6914063 0,0.6210937 -0.4921875,1.8984375 -0.6445312,2.3320312 -0.09375,0.22265625 -0.1054688,0.33984375 -0.1054688,0.45703125 0,0.46875 0.3515625,0.80859375 0.8203125,0.80859375 0.9375,0 1.3007813,-1.453125 1.3007813,-1.5351562 0,-0.09375 -0.082031,-0.09375 -0.1171875,-0.09375 -0.09375,0 -0.09375,0.023437 -0.1523438,0.1757812 C 5.2147344,-0.668 4.8866094,-0.1055 4.4061406,-0.1055 c -0.1757812,0 -0.2460937,-0.10546875 -0.2460937,-0.328125 0,-0.2578125 0.09375,-0.4921875 0.1875,-0.7148437 0.1875,-0.5273438 0.5976562,-1.6171875 0.5976562,-2.1914063 0,-0.6679687 -0.421875,-1.0664062 -1.1367187,-1.0664062 -0.9023438,0 -1.3828125,0.6445312 -1.5585938,0.8671875 -0.046875,-0.5507813 -0.4570312,-0.8671875 -0.9140625,-0.8671875 -0.45703122,0 -0.64453122,0.3867187 -0.74999997,0.5742187 -0.15234375,0.3398438 -0.29296875,0.9257813 -0.29296875,0.9609375 0,0.1054688 0.09375,0.1054688 0.1171875,0.1054688 0.09375,0 0.10546875,-0.011719 0.1640625,-0.234375 0.17578125,-0.703125 0.375,-1.1835938 0.72656252,-1.1835938 0.1992187,0 0.3164062,0.1289063 0.3164062,0.4570313 0,0.2109375 -0.035156,0.3164062 -0.1640625,0.8320312 z m 0,0"
         style="fill:#000000;fill-opacity:1;fill-rule:nonzero;stroke:none" />
      <path
         id="path42"
         d="m 15.591688,-3.2578437 c 0.152343,0 0.339843,0 0.339843,-0.1992188 0,-0.1992187 -0.1875,-0.1992187 -0.328125,-0.1992187 H 9.6385625 c -0.140625,0 -0.328125,0 -0.328125,0.1992187 0,0.1992188 0.1875,0.1992188 0.3398438,0.1992188 z m 0.01172,1.9335937 c 0.140625,0 0.328125,0 0.328125,-0.1992187 0,-0.1992188 -0.1875,-0.1992188 -0.339843,-0.1992188 H 9.6502813 c -0.1523438,0 -0.3398438,0 -0.3398438,0.1992188 0,0.1992187 0.1875,0.1992187 0.328125,0.1992187 z m 5.293946,-3.2226562 c -0.46875,-0.3046875 -0.503907,-0.6445313 -0.503907,-0.8085938 0,-0.609375 0.644532,-1.03125 1.359375,-1.03125 0.726563,0 1.359375,0.515625 1.359375,1.2421875 0,0.5625 -0.386718,1.0429688 -0.984375,1.3945313 z m 1.453125,0.9375 c 0.714843,-0.3632813 1.207031,-0.8789063 1.207031,-1.5351563 0,-0.9257812 -0.890625,-1.4882812 -1.792969,-1.4882812 -0.996094,0 -1.804687,0.7382812 -1.804687,1.6640625 0,0.1757812 0.01172,0.6210937 0.433593,1.0898437 0.105469,0.1289063 0.480469,0.375 0.726563,0.5390625 -0.574219,0.2929688 -1.429688,0.84375 -1.429688,1.8398438 0,1.05468745 1.007813,1.7226562 2.0625,1.7226562 1.125,0 2.0625,-0.83203125 2.0625,-1.8984375 0,-0.3515625 -0.105468,-0.8085937 -0.480468,-1.21875 -0.1875,-0.2109375 -0.351563,-0.3164062 -0.984375,-0.7148437 z m -0.996094,0.421875 1.21875,0.7734375 c 0.28125,0.1875 0.75,0.4921875 0.75,1.1015625 0,0.7382812 -0.75,1.2539062 -1.558594,1.2539062 -0.867187,0 -1.582031,-0.62109375 -1.582031,-1.4414062 0,-0.5859375 0.316406,-1.21875 1.171875,-1.6875 z m 0,0"
         style="fill:#000000;fill-opacity:1;fill-rule:nonzero;stroke:none" />
    </g>
    <path
       id="path43"
       d="M 161.57852,0 H 288.68217"
       style="fill:none;stroke:#000000;stroke-width:0.3985;stroke-linecap:butt;stroke-linejoin:miter;stroke-miterlimit:10;stroke-dasharray:none;stroke-opacity:1"
       transform="matrix(1.3333333,0,0,-1.3333333,55.410667,313.032)" />
    <path
       id="path44"
       d="M -1.19551,1.59401 C -1.09587,0.99626 0,0.09961 0.29886,0 0,-0.09961 -1.09587,-0.99626 -1.19551,-1.59401"
       style="fill:none;stroke:#000000;stroke-width:0.31879;stroke-linecap:round;stroke-linejoin:round;stroke-miterlimit:10;stroke-dasharray:none;stroke-opacity:1"
       transform="matrix(1.3333333,0,0,-1.3333333,440.32023,313.032)" />
    <path
       id="path45"
       d="m 3.6446797,-3.2942812 c 0.070312,-0.28125 0.3164062,-1.2890625 1.078125,-1.2890625 0.058594,0 0.3164062,0 0.5507812,0.140625 -0.3046875,0.058594 -0.5273437,0.328125 -0.5273437,0.5859375 0,0.1757812 0.1171875,0.3867187 0.4101562,0.3867187 0.2460938,0 0.5976563,-0.1992187 0.5976563,-0.6328125 0,-0.5625 -0.6445313,-0.7265625 -1.0195313,-0.7265625 -0.6328125,0 -1.0195312,0.5859375 -1.1484375,0.8320313 -0.2695312,-0.7148438 -0.8554687,-0.8320313 -1.171875,-0.8320313 -1.1367187,0 -1.75781246,1.4179688 -1.75781246,1.6875 0,0.1054688 0.10546875,0.1054688 0.12890625,0.1054688 0.0820313,0 0.1171875,-0.023437 0.140625,-0.1171875 0.37500001,-1.1601563 1.08984371,-1.4296875 1.46484371,-1.4296875 0.2109375,0 0.5859375,0.09375 0.5859375,0.7265625 0,0.3398437 -0.1875,1.078125 -0.5859375,2.6015625 -0.1757812,0.67968745 -0.5625,1.1367187 -1.0429687,1.1367187 -0.058594,0 -0.3164063,0 -0.53906251,-0.140625 0.26953121,-0.0585938 0.51562501,-0.29296875 0.51562501,-0.59765625 0,-0.29296875 -0.2460938,-0.37499995 -0.41015626,-0.37499995 -0.328125,0 -0.59765625,0.28124995 -0.59765625,0.63281245 0,0.50390625 0.55078125,0.71484375 1.03125001,0.71484375 0.7148437,0 1.1015625,-0.76171875 1.1367187,-0.83203125 C 2.6134297,-0.306 3.0118672,0.115875 3.6681172,0.115875 c 1.125,0 1.7460937,-1.40625 1.7460937,-1.6757812 0,-0.1054688 -0.1054687,-0.1054688 -0.1289062,-0.1054688 -0.1054688,0 -0.1289063,0.035156 -0.140625,0.1171875 C 4.7813984,-0.38803125 4.0313984,-0.1185 3.6915547,-0.1185 c -0.4335938,0 -0.609375,-0.3515625 -0.609375,-0.7265625 0,-0.234375 0.070312,-0.4804687 0.1875,-0.9609375 z m 0,0"
       style="fill:#000000;fill-opacity:1;fill-rule:nonzero;stroke:none"
       aria-label="x"
       transform="matrix(1.3333333,0,0,1.3333333,436.76933,324.408)" />
    <path
       id="path46"
       d="M 170.08264,-8.50412 V 93.08711"
       style="fill:none;stroke:#000000;stroke-width:0.3985;stroke-linecap:butt;stroke-linejoin:miter;stroke-miterlimit:10;stroke-dasharray:none;stroke-opacity:1"
       transform="matrix(1.3333333,0,0,-1.3333333,55.410667,313.032)" />
    <path
       id="path47"
       d="M -1.19551,1.59401 C -1.09587,0.99626 0,0.09961 0.29886,0 0,-0.09961 -1.09587,-0.99626 -1.19551,-1.59401"
       style="fill:none;stroke:#000000;stroke-width:0.31879;stroke-linecap:round;stroke-linejoin:round;stroke-miterlimit:10;stroke-dasharray:none;stroke-opacity:1"
       transform="matrix(0,-1.3333333,-1.3333333,0,282.18752,188.91585)" />
    <path
       id="path48"
       d="m 5.2973516,-4.1605781 c 0.046875,-0.1523438 0.046875,-0.1757813 0.046875,-0.2460938 0,-0.1992187 -0.1523438,-0.2929687 -0.3164063,-0.2929687 -0.1054687,0 -0.28125,0.058594 -0.375,0.2226562 -0.023437,0.058594 -0.1171875,0.3984375 -0.1523437,0.5976563 -0.082031,0.28125 -0.1523438,0.5742187 -0.2226563,0.8671875 l -0.4921875,1.96875 c -0.046875,0.16406248 -0.515625,0.92578123 -1.2304687,0.92578123 -0.5625,0 -0.6796875,-0.48046875 -0.6796875,-0.89062503 0,-0.4921875 0.1875,-1.171875 0.5625,-2.1328125 0.1757812,-0.4453125 0.2109375,-0.5742187 0.2109375,-0.7851562 0,-0.4921875 -0.3515625,-0.9023438 -0.890625,-0.9023438 -1.04296879,0 -1.44140629,1.5820313 -1.44140629,1.6875 0,0.1054688 0.10546875,0.1054688 0.12890625,0.1054688 0.10546875,0 0.1171875,-0.023437 0.17578125,-0.1992188 0.29296875,-1.0195312 0.72656249,-1.3476562 1.10156249,-1.3476562 0.09375,0 0.2695313,0 0.2695313,0.3515625 0,0.2695312 -0.1054688,0.5507812 -0.1757813,0.7617187 -0.4453125,1.1601563 -0.6328125,1.78125 -0.6328125,2.2851563 0,0.97265623 0.6796875,1.30078123 1.3242188,1.30078123 0.421875,0 0.796875,-0.1875 1.1015625,-0.4921875 -0.140625,0.57421875 -0.2695313,1.1015625 -0.703125,1.68749997 -0.2929688,0.3632813 -0.703125,0.6796875 -1.2070313,0.6796875 -0.1523437,0 -0.6445312,-0.023437 -0.83203124,-0.4570312 0.17578124,0 0.31640624,0 0.48046874,-0.1289063 0.1054688,-0.09375 0.2109375,-0.234375 0.2109375,-0.44531247 0,-0.33984375 -0.2929687,-0.38671875 -0.3984375,-0.38671875 -0.25781249,0 -0.60937499,0.17578125 -0.60937499,0.71484372 0,0.5390625 0.48046879,0.9492188 1.14843749,0.9492188 1.125,0 2.25,-0.9960938 2.5546875,-2.22656252 z m 0,0"
       style="fill:#000000;fill-opacity:1;fill-rule:nonzero;stroke:none"
       aria-label="y"
       transform="matrix(1.3333333,0,0,1.3333333,269.41733,190.024)" />
    <path
       id="path49"
       d="m 187.0909,0 v 67.8869 h 7.48341 V 0 Z"
       style="fill:#9999ff;fill-opacity:0.35;fill-rule:nonzero;stroke:#000000;stroke-width:0.3985;stroke-linecap:butt;stroke-linejoin:miter;stroke-miterlimit:10;stroke-dasharray:none;stroke-opacity:0.35"
       transform="matrix(1.3333333,0,0,-1.3333333,55.410667,313.032)" />
    <path
       id="path50"
       d="m 194.57431,0 v 67.22589 h 7.48341 V 0 Z"
       style="fill:#9999ff;fill-opacity:0.35;fill-rule:nonzero;stroke:#000000;stroke-width:0.3985;stroke-linecap:butt;stroke-linejoin:miter;stroke-miterlimit:10;stroke-dasharray:none;stroke-opacity:0.35"
       transform="matrix(1.3333333,0,0,-1.3333333,55.410667,313.032)" />
    <path
       id="path51"
       d="m 202.05772,0 v 63.47887 h 7.48342 V 0 Z"
       style="fill:#9999ff;fill-opacity:0.35;fill-rule:nonzero;stroke:#000000;stroke-width:0.3985;stroke-linecap:butt;stroke-linejoin:miter;stroke-miterlimit:10;stroke-dasharray:none;stroke-opacity:0.35"
       transform="matrix(1.3333333,0,0,-1.3333333,55.410667,313.032)" />
    <path
       id="path52"
       d="m 209.54114,0 v 57.35901 h 7.48343 V 0 Z"
       style="fill:#9999ff;fill-opacity:0.35;fill-rule:nonzero;stroke:#000000;stroke-width:0.3985;stroke-linecap:butt;stroke-linejoin:miter;stroke-miterlimit:10;stroke-dasharray:none;stroke-opacity:0.35"
       transform="matrix(1.3333333,0,0,-1.3333333,55.410667,313.032)" />
    <path
       id="path53"
       d="m 217.02457,0 v 50.03311 h 7.48341 V 0 Z"
       style="fill:#9999ff;fill-opacity:0.35;fill-rule:nonzero;stroke:#000000;stroke-width:0.3985;stroke-linecap:butt;stroke-linejoin:miter;stroke-miterlimit:10;stroke-dasharray:none;stroke-opacity:0.35"
       transform="matrix(1.3333333,0,0,-1.3333333,55.410667,313.032)" />
    <path
       id="path54"
       d="m 224.50798,0 v 42.89616 h 7.48342 V 0 Z"
       style="fill:#9999ff;fill-opacity:0.35;fill-rule:nonzero;stroke:#000000;stroke-width:0.3985;stroke-linecap:butt;stroke-linejoin:miter;stroke-miterlimit:10;stroke-dasharray:none;stroke-opacity:0.35"
       transform="matrix(1.3333333,0,0,-1.3333333,55.410667,313.032)" />
    <path
       id="path55"
       d="m 231.9914,0 v 37.30702 h 7.48341 V 0 Z"
       style="fill:#9999ff;fill-opacity:0.35;fill-rule:nonzero;stroke:#000000;stroke-width:0.3985;stroke-linecap:butt;stroke-linejoin:miter;stroke-miterlimit:10;stroke-dasharray:none;stroke-opacity:0.35"
       transform="matrix(1.3333333,0,0,-1.3333333,55.410667,313.032)" />
    <path
       id="path56"
       d="m 239.47481,0 v 34.33104 h 7.48341 V 0 Z"
       style="fill:#9999ff;fill-opacity:0.35;fill-rule:nonzero;stroke:#000000;stroke-width:0.3985;stroke-linecap:butt;stroke-linejoin:miter;stroke-miterlimit:10;stroke-dasharray:none;stroke-opacity:0.35"
       transform="matrix(1.3333333,0,0,-1.3333333,55.410667,313.032)" />
    <path
       id="path57"
       d="m 246.95822,0 v 34.53502 h 7.48342 V 0 Z"
       style="fill:#9999ff;fill-opacity:0.35;fill-rule:nonzero;stroke:#000000;stroke-width:0.3985;stroke-linecap:butt;stroke-linejoin:miter;stroke-miterlimit:10;stroke-dasharray:none;stroke-opacity:0.35"
       transform="matrix(1.3333333,0,0,-1.3333333,55.410667,313.032)" />
    <path
       id="path58"
       d="m 254.44164,0 v 37.88083 h 7.48341 V 0 Z"
       style="fill:#9999ff;fill-opacity:0.35;fill-rule:nonzero;stroke:#000000;stroke-width:0.3985;stroke-linecap:butt;stroke-linejoin:miter;stroke-miterlimit:10;stroke-dasharray:none;stroke-opacity:0.35"
       transform="matrix(1.3333333,0,0,-1.3333333,55.410667,313.032)" />
    <path
       id="path59"
       d="m 261.92505,0 v 43.7295 h 7.48341 V 0 Z"
       style="fill:#9999ff;fill-opacity:0.35;fill-rule:nonzero;stroke:#000000;stroke-width:0.3985;stroke-linecap:butt;stroke-linejoin:miter;stroke-miterlimit:10;stroke-dasharray:none;stroke-opacity:0.35"
       transform="matrix(1.3333333,0,0,-1.3333333,55.410667,313.032)" />
    <path
       id="path60"
       d="m 269.40846,0 v 50.96819 h 7.48342 V 0 Z"
       style="fill:#9999ff;fill-opacity:0.35;fill-rule:nonzero;stroke:#000000;stroke-width:0.3985;stroke-linecap:butt;stroke-linejoin:miter;stroke-miterlimit:10;stroke-dasharray:none;stroke-opacity:0.35"
       transform="matrix(1.3333333,0,0,-1.3333333,55.410667,313.032)" />
    <path
       id="path61"
       d="m 187.0909,65.33603 c 0,0 0.65535,0.34503 0.90704,0.46948 0.25169,0.12444 0.65533,0.31485 0.90703,0.42743 0.25169,0.1126 0.65536,0.28368 0.90704,0.38409 0.25171,0.10044 0.65537,0.2517 0.90705,0.33974 0.25169,0.08803 0.65534,0.21945 0.90704,0.29482 0.25168,0.07534 0.65535,0.18593 0.90704,0.24836 0.2517,0.06245 0.65535,0.15229 0.90705,0.20165 0.25169,0.04936 0.65533,0.11801 0.90704,0.15416 0.25169,0.03614 0.65535,0.08359 0.90703,0.10641 0.25171,0.02282 0.65536,0.04866 0.90704,0.05814 0.25171,0.0094 0.65535,0.01404 0.90704,0.01012 0.2517,-0.0039 0.65537,-0.02108 0.90705,-0.03843 0.25169,-0.01733 0.65535,-0.05596 0.90704,-0.08667 0.25169,-0.03071 0.65534,-0.09062 0.90704,-0.13468 0.2517,-0.04409 0.65535,-0.12577 0.90705,-0.18299 0.25169,-0.05722 0.65535,-0.15932 0.90703,-0.22941 0.25171,-0.0701 0.65535,-0.193 0.90704,-0.27588 0.25171,-0.08287 0.65536,-0.22605 0.90704,-0.32155 0.2517,-0.09549 0.65537,-0.25899 0.90705,-0.3667 0.25169,-0.10774 0.65533,-0.29013 0.90704,-0.40979 0.25169,-0.11966 0.65535,-0.32133 0.90704,-0.45262 0.2517,-0.13129 0.65535,-0.35106 0.90704,-0.49361 0.2517,-0.14256 0.65534,-0.38046 0.90704,-0.53384 0.2517,-0.1534 0.65536,-0.40798 0.90704,-0.57175 0.25171,-0.16376 0.65536,-0.43486 0.90704,-0.60858 0.2517,-0.17374 0.65535,-0.46042 0.90705,-0.64363 0.25169,-0.1832 0.65535,-0.4847 0.90704,-0.67684 0.25169,-0.19213 0.65535,-0.50746 0.90704,-0.70797 0.2517,-0.20053 0.65535,-0.52898 0.90705,-0.73732 0.25169,-0.20835 0.65535,-0.54874 0.90702,-0.76432 0.25171,-0.21557 0.65537,-0.56733 0.90705,-0.78945 0.25171,-0.22214 0.65536,-0.58343 0.90704,-0.81156 0.25169,-0.22812 0.65537,-0.59907 0.90706,-0.83255 0.25168,-0.23347 0.65533,-0.61209 0.90703,-0.85019 0.25169,-0.23813 0.65535,-0.62395 0.90704,-0.86604 0.2517,-0.24213 0.65535,-0.63356 0.90704,-0.87903 0.2517,-0.24545 0.65535,-0.64211 0.90703,-0.89015 0.25171,-0.24806 0.65537,-0.64784 0.90705,-0.89771 0.25171,-0.24986 0.65536,-0.65211 0.90706,-0.90315 0.25168,-0.25105 0.65534,-0.65478 0.90702,-0.90626 0.2517,-0.25148 0.65536,-0.655 0.90705,-0.90627 0.25169,-0.25127 0.65535,-0.65431 0.90706,-0.90471 0.25167,-0.25038 0.65533,-0.65135 0.90701,-0.90002 0.25171,-0.24868 0.65536,-0.64597 0.90704,-0.89226 0.25171,-0.24628 0.65537,-0.63966 0.90706,-0.88289 0.25169,-0.24326 0.65535,-0.63075 0.90703,-0.87019 0.25169,-0.23946 0.65536,-0.62064 0.90704,-0.85567 0.2517,-0.23502 0.65535,-0.60835 0.90706,-0.83825 0.25168,-0.22993 0.65534,-0.59467 0.90703,-0.81882 0.25169,-0.22414 0.65535,-0.57903 0.90703,-0.79674 0.25171,-0.2177 0.65536,-0.56169 0.90705,-0.77236 0.2517,-0.21063 0.65536,-0.54286 0.90703,-0.74586 0.25171,-0.203 0.65537,-0.52254 0.90705,-0.71733 0.25169,-0.19481 0.65536,-0.50063 0.90706,-0.68669 0.25167,-0.18608 0.65533,-0.47774 0.90702,-0.65454 0.2517,-0.17679 0.65535,-0.45275 0.90705,-0.61974 0.25169,-0.16701 0.65535,-0.42719 0.90704,-0.58394 0.2517,-0.15674 0.65535,-0.39979 0.90703,-0.54578 0.25171,-0.14598 0.65536,-0.37144 0.90704,-0.50633 0.25171,-0.13489 0.65537,-0.34245 0.90706,-0.46585 0.25168,-0.1234 0.65535,-0.31199 0.90705,-0.42354 0.25167,-0.11155 0.65533,-0.28111 0.90702,-0.38048 0.2517,-0.09937 0.65535,-0.24894 0.90706,-0.33583 0.25168,-0.08688 0.65534,-0.21618 0.90703,-0.2904 0.25169,-0.0742 0.65535,-0.18318 0.90704,-0.24447 0.25172,-0.06129 0.65535,-0.14907 0.90705,-0.19724 0.25167,-0.04817 0.65535,-0.11508 0.90704,-0.15001 0.25168,-0.03491 0.65533,-0.08015 0.90704,-0.10173 0.2517,-0.02156 0.65534,-0.04555 0.90705,-0.05372 0.25168,-0.0082 0.65533,-0.01044 0.90704,-0.0052 0.25168,0.0053 0.65534,0.0245 0.90703,0.0431 0.25171,0.01857 0.65535,0.05892 0.90704,0.09083 0.2517,0.03189 0.65535,0.09387 0.90705,0.1391 0.25168,0.04521 0.65535,0.12849 0.90704,0.18686 0.25169,0.05835 0.65534,0.16254 0.90704,0.23382 0.25168,0.07129 0.65534,0.19599 0.90705,0.28005 0.25168,0.08403 0.65533,0.22913 0.90704,0.3257 0.25169,0.09656 0.65533,0.26152 0.90703,0.37033 0.25169,0.10882 0.65535,0.29323 0.90704,0.41394 0.2517,0.12073 0.65535,0.32393 0.90704,0.45625 0.2517,0.13234 0.65536,0.35399 0.90705,0.4975 0.25168,0.14354 0.65533,0.38264 0.90704,0.53697 0.25168,0.15433 0.65534,0.41066 0.90705,0.57538 0.25169,0.1647 0.65533,0.4371 0.90704,0.61169 0.25168,0.1746 0.65533,0.4627 0.90702,0.64675 0.2517,0.18403 0.65537,0.48673 0.90705,0.67969 0.25171,0.19297 0.65535,0.50979 0.90705,0.71109 0.25167,0.20132 0.65534,0.5309 0.90704,0.73991 0.25168,0.20903 0.65535,0.55044 0.90704,0.76663 0.25169,0.21621 0.65534,0.56885 0.90704,0.79155 0.25168,0.22273 0.65534,0.58498 0.90705,0.81363 0.25168,0.22865 0.65535,0.60042 0.90703,0.83437 0.2517,0.23393 0.65535,0.61325 0.90704,0.85176 0.25169,0.23852 0.65535,0.62489 0.90704,0.86734 0.25168,0.24243 0.65537,0.6344 0.90705,0.88005 0.25169,0.24563 0.65533,0.64224 0.90704,0.89043 0.25169,0.24819 0.65533,0.64843 0.90704,0.89848 0.25168,0.25004 0.65535,0.65251 0.90703,0.90367 0.25171,0.25114 0.90705,0.90653 0.90705,0.90653"
       style="fill:none;stroke:#eb0a36;stroke-width:0.79701;stroke-linecap:butt;stroke-linejoin:miter;stroke-miterlimit:10;stroke-dasharray:none;stroke-opacity:1"
       transform="matrix(1.3333333,0,0,-1.3333333,55.410667,313.032)" />
    <g
       id="g61"
       aria-label="n=12"
       transform="matrix(1.3333333,0,0,1.3333333,342.07067,199.39067)">
      <path
         id="path62"
         d="m 0.87864063,-0.58596875 c -0.0351563,0.15234375 -0.09375,0.375 -0.09375,0.421875 0,0.1875 0.140625,0.26953125 0.29296877,0.26953125 0.1171875,0 0.2929687,-0.0703125 0.3632812,-0.26953125 0.011719,-0.0234375 0.1289063,-0.4921875 0.1875,-0.73828125 l 0.2226563,-0.9023437 c 0.058594,-0.2226563 0.1171875,-0.4335938 0.1757812,-0.6679688 0.035156,-0.1640625 0.1171875,-0.4570312 0.1289063,-0.4921875 0.140625,-0.3164062 0.6679687,-1.21875 1.6171875,-1.21875 0.4453125,0 0.5390625,0.3632813 0.5390625,0.6914063 0,0.6210937 -0.4921875,1.8984375 -0.6445313,2.3320312 -0.09375,0.22265625 -0.1054687,0.33984375 -0.1054687,0.45703125 0,0.46875 0.3515625,0.80859375 0.8203125,0.80859375 0.9375,0 1.3007812,-1.453125 1.3007812,-1.5351562 0,-0.09375 -0.082031,-0.09375 -0.1171875,-0.09375 -0.09375,0 -0.09375,0.023437 -0.1523437,0.1757812 C 5.2145781,-0.668 4.8864531,-0.1055 4.4059844,-0.1055 c -0.1757813,0 -0.2460938,-0.10546875 -0.2460938,-0.328125 0,-0.2578125 0.09375,-0.4921875 0.1875,-0.7148437 0.1875,-0.5273438 0.5976563,-1.6171875 0.5976563,-2.1914063 0,-0.6679687 -0.421875,-1.0664062 -1.1367188,-1.0664062 -0.9023437,0 -1.3828125,0.6445312 -1.5585937,0.8671875 -0.046875,-0.5507813 -0.4570313,-0.8671875 -0.9140625,-0.8671875 -0.45703127,0 -0.64453127,0.3867187 -0.75000002,0.5742187 -0.15234375,0.3398438 -0.29296875,0.9257813 -0.29296875,0.9609375 0,0.1054688 0.09375,0.1054688 0.1171875,0.1054688 0.09375,0 0.10546875,-0.011719 0.1640625,-0.234375 0.17578125,-0.703125 0.375,-1.1835938 0.72656247,-1.1835938 0.1992188,0 0.3164063,0.1289063 0.3164063,0.4570313 0,0.2109375 -0.035156,0.3164062 -0.1640625,0.8320312 z m 0,0"
         style="fill:#000000;fill-opacity:1;fill-rule:nonzero;stroke:none" />
      <path
         id="path63"
         d="m 15.591531,-3.2578437 c 0.152344,0 0.339844,0 0.339844,-0.1992188 0,-0.1992187 -0.1875,-0.1992187 -0.328125,-0.1992187 H 9.6384063 c -0.140625,0 -0.328125,0 -0.328125,0.1992187 0,0.1992188 0.1875,0.1992188 0.3398437,0.1992188 z m 0.01172,1.9335937 c 0.140625,0 0.328125,0 0.328125,-0.1992187 0,-0.1992188 -0.1875,-0.1992188 -0.339844,-0.1992188 H 9.650125 c -0.1523437,0 -0.3398437,0 -0.3398437,0.1992188 0,0.1992187 0.1875,0.1992187 0.328125,0.1992187 z m 6.594727,-5.0507812 c 0,-0.234375 0,-0.2578125 -0.234375,-0.2578125 -0.609375,0.6328125 -1.488282,0.6328125 -1.804688,0.6328125 v 0.3164062 c 0.199219,0 0.785156,0 1.300781,-0.2578125 v 5.15625 c 0,0.3515625 -0.03516,0.48046875 -0.925781,0.48046875 h -0.316406 v 0.3046875 c 0.351562,-0.03515625 1.207031,-0.03515625 1.605469,-0.03515625 0.398437,0 1.265625,0 1.617187,0.03515625 v -0.3046875 h -0.316406 c -0.902344,0 -0.925781,-0.1171875 -0.925781,-0.48046875 z M 25.514383,-0.76175 26.56907,-1.793 c 1.558594,-1.3710937 2.15625,-1.9101562 2.15625,-2.90625 0,-1.1367187 -0.902343,-1.9335937 -2.121093,-1.9335937 -1.125,0 -1.851563,0.9140625 -1.851563,1.8046875 0,0.5507812 0.492188,0.5507812 0.527344,0.5507812 0.164062,0 0.515625,-0.1171875 0.515625,-0.5273437 0,-0.2578125 -0.1875,-0.515625 -0.527344,-0.515625 -0.08203,0 -0.105469,0 -0.128906,0.011719 0.222656,-0.6445312 0.761719,-1.0195312 1.335937,-1.0195312 0.914063,0 1.335938,0.8085937 1.335938,1.6289062 0,0.796875 -0.492188,1.5820313 -1.042969,2.203125 l -1.910156,2.1328125 c -0.105469,0.10546875 -0.105469,0.12890625 -0.105469,0.36328125 H 28.44407 L 28.72532,-1.7344062 H 28.467508 C 28.420633,-1.4297187 28.35032,-0.996125 28.25657,-0.84378125 28.186258,-0.76175 27.530008,-0.76175 27.307352,-0.76175 Z m 0,0"
         style="fill:#000000;fill-opacity:1;fill-rule:nonzero;stroke:none" />
    </g>
  </g>
</svg>
