<?xml version="1.0" encoding="UTF-8" standalone="no"?>
<!-- Created with Inkscape (http://www.inkscape.org/) -->

<svg
   version="1.1"
   id="svg1"
   width="200.05305"
   height="186.13919"
   viewBox="0 0 200.05306 186.13919"
   sodipodi:docname="5.1-parabola.svg"
   inkscape:version="1.4.2 (f4327f4, 2025-05-13)"
   xmlns:inkscape="http://www.inkscape.org/namespaces/inkscape"
   xmlns:sodipodi="http://sodipodi.sourceforge.net/DTD/sodipodi-0.dtd"
   xmlns="http://www.w3.org/2000/svg"
   xmlns:svg="http://www.w3.org/2000/svg">
  <defs
     id="defs1" />
  <sodipodi:namedview
     id="namedview1"
     pagecolor="#ffffff"
     bordercolor="#000000"
     borderopacity="0.25"
     inkscape:showpageshadow="2"
     inkscape:pageopacity="0.0"
     inkscape:pagecheckerboard="0"
     inkscape:deskcolor="#d1d1d1"
     inkscape:zoom="2.2241536"
     inkscape:cx="102.73571"
     inkscape:cy="106.78219"
     inkscape:window-width="1920"
     inkscape:window-height="1009"
     inkscape:window-x="-8"
     inkscape:window-y="-8"
     inkscape:window-maximized="1"
     inkscape:current-layer="g1">
    <inkscape:page
       x="0"
       y="0"
       inkscape:label="2"
       id="page1"
       width="200.05305"
       height="186.13919"
       margin="0"
       bleed="0" />
  </sodipodi:namedview>
  <g
     id="g1"
     inkscape:groupmode="layer"
     inkscape:label="2"
     transform="translate(-139.25163,-74.437499)">
    <path
       id="path2"
       d="M -34.01628,0 H 112.92938"
       style="fill:none;stroke:#000000;stroke-width:0.3985;stroke-linecap:butt;stroke-linejoin:miter;stroke-miterlimit:10;stroke-dasharray:none;stroke-opacity:1"
       transform="matrix(1.3333333,0,0,-1.3333333,184.60667,230.34)" />
    <path
       id="path3"
       d="M -1.19551,1.59401 C -1.09587,0.99626 0,0.09961 0.29886,0 0,-0.09961 -1.09587,-0.99626 -1.19551,-1.59401"
       style="fill:none;stroke:#000000;stroke-width:0.31879;stroke-linecap:round;stroke-linejoin:round;stroke-miterlimit:10;stroke-dasharray:none;stroke-opacity:1"
       transform="matrix(1.3333333,0,0,-1.3333333,335.17917,230.34)" />
    <path
       id="path4"
       d="m 3.6451406,-3.2919063 c 0.070312,-0.28125 0.3164063,-1.2890625 1.078125,-1.2890625 0.058594,0 0.3164063,0 0.5507813,0.140625 -0.3046875,0.058594 -0.5273438,0.328125 -0.5273438,0.5859375 0,0.1757813 0.1171875,0.3867188 0.4101563,0.3867188 0.2460937,0 0.5976562,-0.1992188 0.5976562,-0.6328125 0,-0.5625 -0.6445312,-0.7265625 -1.0195312,-0.7265625 -0.6328125,0 -1.0195313,0.5859375 -1.1484375,0.8320312 -0.2695313,-0.7148437 -0.8554688,-0.8320312 -1.171875,-0.8320312 -1.1367188,0 -1.75781252,1.4179687 -1.75781252,1.6875 0,0.1054687 0.10546875,0.1054687 0.12890625,0.1054687 0.0820313,0 0.1171875,-0.023437 0.140625,-0.1171875 0.37499997,-1.1601562 1.08984377,-1.4296875 1.46484377,-1.4296875 0.2109375,0 0.5859375,0.09375 0.5859375,0.7265625 0,0.3398438 -0.1875,1.078125 -0.5859375,2.6015625 -0.1757813,0.67968755 -0.5625,1.1367188 -1.0429688,1.1367188 -0.058594,0 -0.3164062,0 -0.53906247,-0.140625 0.26953127,-0.0585938 0.51562497,-0.29296875 0.51562497,-0.59765625 0,-0.29296875 -0.2460937,-0.37500005 -0.41015622,-0.37500005 -0.328125,0 -0.59765625,0.28125005 -0.59765625,0.63281255 0,0.50390625 0.55078125,0.71484375 1.03124997,0.71484375 0.7148438,0 1.1015625,-0.76171875 1.1367188,-0.83203125 C 2.6138906,-0.303625 3.0123281,0.11825 3.6685781,0.11825 c 1.125,0 1.7460938,-1.40625 1.7460938,-1.6757813 C 5.4146719,-1.663 5.3092031,-1.663 5.2857656,-1.663 c -0.1054687,0 -0.1289062,0.035156 -0.140625,0.1171875 -0.3632812,1.16015625 -1.1132812,1.4296875 -1.453125,1.4296875 -0.4335937,0 -0.609375,-0.3515625 -0.609375,-0.7265625 0,-0.234375 0.070312,-0.4804688 0.1875,-0.9609375 z m 0,0"
       style="fill:#000000;fill-opacity:1;fill-rule:nonzero;stroke:none"
       aria-label="x"
       transform="matrix(1.3333333,0,0,1.3333333,331.632,241.71733)" />
    <path
       id="path5"
       d="m 0,-22.67752 v 135.6069"
       style="fill:none;stroke:#000000;stroke-width:0.3985;stroke-linecap:butt;stroke-linejoin:miter;stroke-miterlimit:10;stroke-dasharray:none;stroke-opacity:1"
       transform="matrix(1.3333333,0,0,-1.3333333,184.60667,230.34)" />
    <path
       id="path6"
       d="M -1.19551,1.59401 C -1.09587,0.99626 0,0.09961 0.29886,0 0,-0.09961 -1.09587,-0.99626 -1.19551,-1.59401"
       style="fill:none;stroke:#000000;stroke-width:0.31879;stroke-linecap:round;stroke-linejoin:round;stroke-miterlimit:10;stroke-dasharray:none;stroke-opacity:1"
       transform="matrix(0,-1.3333333,-1.3333333,0,184.60667,79.767493)" />
    <path
       id="path7"
       d="M 5.2967578,-4.1609062 C 5.3436328,-4.31325 5.3436328,-4.3366875 5.3436328,-4.407 c 0,-0.1992187 -0.1523437,-0.2929687 -0.3164062,-0.2929687 -0.1054688,0 -0.28125,0.058594 -0.375,0.2226562 -0.023437,0.058594 -0.1171875,0.3984375 -0.1523438,0.5976563 -0.082031,0.28125 -0.1523437,0.5742187 -0.2226562,0.8671875 l -0.4921875,1.96875 c -0.046875,0.16406245 -0.515625,0.9257812 -1.2304688,0.9257812 -0.5625,0 -0.6796875,-0.48046875 -0.6796875,-0.890625 0,-0.4921875 0.1875,-1.171875 0.5625,-2.1328125 0.1757813,-0.4453125 0.2109375,-0.5742187 0.2109375,-0.7851562 0,-0.4921875 -0.3515625,-0.9023438 -0.890625,-0.9023438 -1.04296874,0 -1.44140624,1.5820313 -1.44140624,1.6875 0,0.1054688 0.10546875,0.1054688 0.12890625,0.1054688 0.10546875,0 0.1171875,-0.023437 0.17578125,-0.1992188 0.29296875,-1.0195312 0.72656254,-1.3476562 1.10156254,-1.3476562 0.09375,0 0.2695312,0 0.2695312,0.3515625 0,0.2695312 -0.1054687,0.5507812 -0.1757812,0.7617187 -0.4453125,1.1601563 -0.6328125,1.78125 -0.6328125,2.2851563 0,0.9726562 0.6796875,1.3007812 1.3242187,1.3007812 0.421875,0 0.796875,-0.1875 1.1015625,-0.4921875 -0.140625,0.57421875 -0.2695312,1.1015625 -0.703125,1.6875 -0.2929687,0.3632813 -0.703125,0.6796875 -1.2070312,0.6796875 -0.1523438,0 -0.6445313,-0.023437 -0.83203129,-0.4570312 0.17578129,0 0.31640629,0 0.48046879,-0.1289063 0.1054687,-0.09375 0.2109375,-0.234375 0.2109375,-0.4453125 0,-0.33984375 -0.2929688,-0.38671875 -0.3984375,-0.38671875 -0.25781254,0 -0.60937504,0.17578125 -0.60937504,0.71484375 0,0.5390625 0.48046874,0.9492188 1.14843754,0.9492188 1.125,0 2.25,-0.9960938 2.5546875,-2.22656255 z m 0,0"
       style="fill:#000000;fill-opacity:1;fill-rule:nonzero;stroke:none"
       aria-label="y"
       transform="matrix(1.3333333,0,0,1.3333333,171.84,80.876)" />
    <path
       id="path8"
       d="m 11.33876,0 -22.67752,1.70073 c 0,0 2.66236,-0.71892 3.68491,-0.92598 1.02253,-0.20708 2.66235,-0.45911 3.6849,-0.56647 1.02252,-0.10734 2.66235,-0.1996 3.68488,-0.20726 1.02252,-0.00764 2.6623,0.05994 3.68486,0.1519 1.02252,0.092 2.66235,0.31943 3.68487,0.5111 1.02256,0.19165 2.66237,0.57888 3.68491,0.87027 1.02253,0.29136 2.66235,0.8387 3.68489,1.22979 1.02254,0.3911 2.66234,1.09821 3.68489,1.58898 1.02252,0.49077 2.66235,1.35772 3.68488,1.94815 1.02255,0.59045 2.66237,1.61719 3.6849,2.30734 1.02254,0.69017 2.66236,1.87698 3.68489,2.66687 1.02254,0.78988 2.66234,2.13645 3.68489,3.02605 1.02253,0.8896 2.66236,2.39636 3.68488,3.38557 1.02255,0.98921 2.66237,2.65517 3.68491,3.74406 1.02253,1.0889 2.66235,2.91529 3.68489,4.10395 1.02253,1.18865 2.66235,3.17488 3.68489,4.46312 1.02253,1.28822 2.66237,3.43365 3.68489,4.82159 1.02255,1.38796 2.66235,3.69406 3.68489,5.18184 1.02255,1.48775 2.66235,3.95351 3.6849,5.541 1.02253,1.58748 2.66234,4.21352 3.68488,5.90052 1.02255,1.68702 2.66237,4.47164 3.68491,6.25834 1.02253,1.78668 2.66235,4.73234 3.68489,6.6189 1.02253,1.88655 2.66233,4.99179 3.68489,6.97807 1.02252,1.98627 3.68487,7.3376 3.68487,7.3376 L 77.10345,0 Z"
       style="fill:#9999ff;fill-opacity:0.2;fill-rule:nonzero;stroke:none"
       transform="matrix(1.3333333,0,0,-1.3333333,184.60667,230.34)" />
    <path
       id="path9"
       d="m -11.33876,1.70073 c 0,0 0.64529,-0.18895 0.89313,-0.25745 C -10.1978,1.37477 -9.80035,1.26959 -9.55254,1.20694 -9.3047,1.14429 -8.90724,1.04851 -8.65942,0.99171 -8.41158,0.93492 -8.01414,0.84846 -7.76631,0.79758 -7.51848,0.7467 -7.12102,0.66994 -6.8732,0.62491 -6.62538,0.57986 -6.22792,0.51222 -5.9801,0.473 -5.73228,0.43378 -5.33482,0.37556 -5.08699,0.34221 -4.83916,0.30884 -4.44173,0.26003 -4.19388,0.23253 -3.94606,0.205 -3.5486,0.16557 -3.30077,0.14392 -3.05295,0.12228 -2.6555,0.09224 -2.40767,0.07646 -2.15985,0.06068 -1.76239,0.04002 -1.51456,0.03009 -1.26672,0.02016 -0.8693,0.0089 -0.62144,0.00482 -0.37363,7.5e-4 0.02379,-0.00108 0.27162,6.6e-4 0.51944,0.00244 0.91689,0.01001 1.16472,0.01762 1.41255,0.02525 1.81,0.04219 2.05783,0.0557 2.30566,0.06918 2.7031,0.09552 2.95093,0.11485 3.19876,0.13422 3.59622,0.16995 3.84404,0.19514 4.09187,0.22035 4.48933,0.26547 4.73715,0.29654 4.985,0.32759 5.38243,0.38211 5.63026,0.41902 5.8781,0.45593 6.27554,0.51985 6.52338,0.56264 6.7712,0.6054 7.16864,0.67871 7.41647,0.72733 7.66429,0.77596 8.06175,0.85867 8.30959,0.91316 8.55742,0.96765 8.95485,1.05974 9.2027,1.12009 c 0.24782,0.06033 0.64528,0.16183 0.89311,0.22802 0.24782,0.06619 0.64526,0.17708 0.89309,0.24915 0.24782,0.07207 0.64529,0.19238 0.8931,0.27025 0.24785,0.07788 0.64528,0.20724 0.89313,0.29101 0.24782,0.08378 0.64528,0.22318 0.8931,0.31281 0.24783,0.08963 0.64527,0.23779 0.8931,0.33324 0.24784,0.09544 0.64529,0.25333 0.89312,0.35469 0.24784,0.10133 0.64527,0.26858 0.8931,0.37579 0.24783,0.10719 0.64529,0.28383 0.89311,0.3969 0.24782,0.11305 0.64528,0.29913 0.89311,0.418 0.24783,0.11886 0.64527,0.31398 0.89312,0.43876 0.24781,0.12477 0.64527,0.32994 0.89311,0.46057 0.24782,0.13063 0.64526,0.34459 0.8931,0.48099 0.24781,0.1364 0.64527,0.35974 0.8931,0.50209 0.24784,0.14235 0.64527,0.37569 0.89312,0.52388 0.24782,0.14821 0.64528,0.39029 0.8931,0.54431 0.24783,0.15402 0.64528,0.40584 0.89309,0.56577 0.24784,0.15993 0.64529,0.42109 0.89312,0.58687 0.24784,0.16578 0.64527,0.43638 0.89311,0.60797 0.24783,0.17158 0.64529,0.45126 0.89311,0.62875 0.24783,0.17749 0.64528,0.46719 0.8931,0.65053 0.24785,0.18335 0.64528,0.48186 0.89312,0.67097 0.24782,0.18911 0.64527,0.49709 0.8931,0.69205 0.24782,0.19496 0.64528,0.51225 0.89311,0.71318 0.24782,0.20091 0.64527,0.52818 0.8931,0.73497 0.24783,0.20679 0.64528,0.54285 0.89313,0.75539 0.24782,0.21252 0.64528,0.558 0.89309,0.77649 0.24784,0.21849 0.64528,0.57396 0.8931,0.79831 0.24783,0.22433 0.6453,0.58859 0.89311,0.81869 0.24785,0.23012 0.64529,0.60375 0.89312,0.83983 0.24783,0.23607 0.64529,0.61969 0.89311,0.86162 0.24783,0.24191 0.64528,0.63434 0.8931,0.88203 0.24784,0.24768 0.64529,0.64951 0.89311,0.90314 0.24783,0.25365 0.64528,0.66545 0.89311,0.92494 0.24782,0.25949 0.64528,0.6801 0.89311,0.94536 0.24782,0.26526 0.64527,0.69536 0.8931,0.96648 0.24783,0.27108 0.64528,0.71049 0.89313,0.98756 0.24781,0.27707 0.64526,0.7265 0.8931,1.00938 0.24781,0.28287 0.64527,0.7408 0.8931,1.02944 0.24782,0.28863 0.64527,0.75625 0.8931,1.0509 0.24784,0.29463 0.64528,0.7722 0.89311,1.07269 0.24784,0.30053 0.6453,0.78687 0.89312,1.09313 0.24783,0.30626 0.64527,0.802 0.89309,1.11423 0.24784,0.31221 0.6453,0.81794 0.89312,1.13601 0.24784,0.31807 0.64527,0.83266 0.89311,1.15644 0.24783,0.32377 0.64528,0.84745 0.89311,1.1772 0.24782,0.32973 0.64526,0.86369 0.8931,1.19933 0.24783,0.33564 0.64528,0.87836 0.89311,1.21978 0.24783,0.34138 0.64526,0.89366 0.89311,1.24088 0.24782,0.34721 0.64528,0.90846 0.89312,1.26162 0.24781,0.35315 0.64526,0.9247 0.89309,1.28377 0.24783,0.35907 0.64528,0.93941 0.89311,1.3042 0.24784,0.36478 0.64528,0.95416 0.8931,1.32495 0.24783,0.37077 0.6453,0.97081 0.89311,1.34744 0.24783,0.37665 0.64528,0.98482 0.8931,1.36718 0.24785,0.38237 0.64529,1.00025 0.89313,1.38862 0.24783,0.38836 0.64527,1.01625 0.89309,1.41043 0.24784,0.39417 0.6453,1.03058 0.89311,1.4305 0.24782,0.39993 0.64528,1.04602 0.89312,1.45195 0.24783,0.40594 0.64526,1.06201 0.89311,1.47374 0.24782,0.41173 0.64528,1.07631 0.89311,1.49382 0.24782,0.41749 0.64527,1.09192 0.8931,1.51527 0.24783,0.42335 0.64528,1.10674 0.89311,1.53605 0.24783,0.4293 0.64526,1.123 0.89311,1.55816 0.24782,0.43518 0.64528,1.13733 0.8931,1.57826 0.24783,0.44094 0.64528,1.15278 0.8931,1.5997 0.24785,0.44693 0.64529,1.16878 0.89312,1.62151 0.24784,0.45274 0.64528,1.18312 0.8931,1.64159 0.24783,0.45845 0.6453,1.19816 0.89311,1.66267 0.24784,0.46449 0.64528,1.21481 0.8931,1.68518 0.24785,0.47035 0.64528,1.22887 0.89313,1.7049 0.24782,0.47603 0.64526,1.24398 0.89309,1.72601 0.24782,0.48202 0.64528,1.26021 0.89312,1.74812 0.24781,0.48795 0.64528,1.27493 0.89311,1.76859 0.24783,0.49363 0.64526,1.28987 0.89311,1.78932 0.24782,0.49946 0.8931,1.81045 0.8931,1.81045"
       style="fill:none;stroke:#eb0a36;stroke-width:0.79701;stroke-linecap:butt;stroke-linejoin:miter;stroke-miterlimit:10;stroke-dasharray:none;stroke-opacity:1"
       transform="matrix(1.3333333,0,0,-1.3333333,184.60667,230.34)" />
    <g
       id="g9"
       aria-label="y=x&#10;2"
       transform="matrix(1.3333333,0,0,1.3333333,210.836,158.86533)">
      <path
         id="path10"
         d="m 4.8397969,-3.7954844 c 0.046875,-0.140625 0.046875,-0.1523437 0.046875,-0.2226562 0,-0.1875 -0.140625,-0.2695313 -0.2929688,-0.2695313 -0.1054687,0 -0.2578125,0.058594 -0.3515625,0.1992188 -0.023437,0.058594 -0.09375,0.3632812 -0.140625,0.5390625 -0.070312,0.2578125 -0.140625,0.5273437 -0.1992187,0.796875 l -0.4453125,1.79296873 c -0.035156,0.15234375 -0.46875,0.85546875 -1.125,0.85546875 -0.5039063,0 -0.6210938,-0.4453125 -0.6210938,-0.80859375 0,-0.45703123 0.1757813,-1.07812503 0.515625,-1.95703123 0.1523438,-0.4101563 0.1992188,-0.515625 0.1992188,-0.7148438 0,-0.4453125 -0.328125,-0.8203125 -0.8203125,-0.8203125 -0.94921878,0 -1.31250003,1.453125 -1.31250003,1.5351563 0,0.1054687 0.09375,0.1054687 0.1171875,0.1054687 0.09375,0 0.10546875,-0.023437 0.15234375,-0.1875 0.26953125,-0.9375 0.66796878,-1.2304687 1.00781248,-1.2304687 0.082031,0 0.2578125,0 0.2578125,0.3164062 0,0.2460938 -0.1054687,0.515625 -0.1757812,0.703125 -0.3984375,1.0546875 -0.5742188,1.6171875 -0.5742188,2.0859375 0,0.89062503 0.6210938,1.18359378 1.21875,1.18359378 0.3867188,0 0.7265625,-0.1640625 0.9960938,-0.4453125 -0.1289063,0.515625 -0.2460938,1.0078125 -0.6445313,1.53515622 -0.2578125,0.3398438 -0.6328125,0.6328125 -1.0898437,0.6328125 -0.140625,0 -0.59765628,-0.035156 -0.76171878,-0.421875 0.1640625,0 0.29296878,0 0.43359378,-0.1171875 0.09375,-0.09375 0.1992187,-0.2226562 0.1992187,-0.41015622 0,-0.31640625 -0.2695312,-0.3515625 -0.375,-0.3515625 -0.22265623,0 -0.55078123,0.1640625 -0.55078123,0.64453122 0,0.5039063 0.43359375,0.8671875 1.05468753,0.8671875 1.0195312,0 2.0507812,-0.9023437 2.3320312,-2.02734372 z m 0,0"
         style="fill:#eb0a36;fill-opacity:1;fill-rule:nonzero;stroke:none" />
      <path
         id="path11"
         d="m 14.856398,-3.2564219 c 0.152344,0 0.339844,0 0.339844,-0.1992187 0,-0.1992188 -0.1875,-0.1992188 -0.328125,-0.1992188 H 8.9032734 c -0.140625,0 -0.328125,0 -0.328125,0.1992188 0,0.1992187 0.1875,0.1992187 0.3398438,0.1992187 z m 0.01172,1.9335938 c 0.140625,0 0.328125,0 0.328125,-0.1992188 0,-0.1992187 -0.1875,-0.1992187 -0.339844,-0.1992187 H 8.9149922 c -0.1523438,0 -0.3398438,0 -0.3398438,0.1992187 0,0.1992188 0.1875,0.1992188 0.328125,0.1992188 z m 0,0"
         style="fill:#eb0a36;fill-opacity:1;fill-rule:nonzero;stroke:none" />
      <path
         id="path12"
         d="m 21.849562,-3.0103281 c 0.05859,-0.2578125 0.292969,-1.171875 0.984375,-1.171875 0.04687,0 0.292969,0 0.503907,0.1289062 -0.28125,0.046875 -0.480469,0.3046875 -0.480469,0.5390625 0,0.1640625 0.105469,0.3515625 0.375,0.3515625 0.222656,0 0.539062,-0.1875 0.539062,-0.5859375 0,-0.515625 -0.585937,-0.65625 -0.925781,-0.65625 -0.574219,0 -0.925781,0.5273438 -1.042969,0.7617188 -0.257812,-0.65625 -0.785156,-0.7617188 -1.078125,-0.7617188 -1.042968,0 -1.605468,1.2890625 -1.605468,1.5351563 0,0.1054687 0.105468,0.1054687 0.117187,0.1054687 0.08203,0 0.117188,-0.023437 0.128906,-0.1171875 0.339844,-1.0546875 0.996094,-1.3007812 1.335938,-1.3007812 0.1875,0 0.539062,0.09375 0.539062,0.6679687 0,0.3046875 -0.164062,0.9726563 -0.539062,2.3671875 -0.152344,0.62109378 -0.503906,1.04296878 -0.949219,1.04296878 -0.05859,0 -0.28125,0 -0.492187,-0.12890625 0.246093,-0.0585938 0.46875,-0.26953125 0.46875,-0.5390625 0,-0.26953123 -0.222657,-0.35156253 -0.375,-0.35156253 -0.292969,0 -0.539063,0.25781253 -0.539063,0.57421878 0,0.45703125 0.492188,0.65625 0.9375,0.65625 0.65625,0 1.007813,-0.69140625 1.042969,-0.75 0.117187,0.36328125 0.480469,0.75 1.078125,0.75 1.019531,0 1.59375,-1.27734378 1.59375,-1.53515628 0,-0.09375 -0.09375,-0.09375 -0.128906,-0.09375 -0.08203,0 -0.105469,0.035156 -0.128907,0.1054688 -0.328125,1.06640623 -0.996093,1.31249998 -1.324218,1.31249998 -0.386719,0 -0.539063,-0.328125 -0.539063,-0.65625 0,-0.22265625 0.05859,-0.44531248 0.164063,-0.87890628 z m 0,0"
         style="fill:#eb0a36;fill-opacity:1;fill-rule:nonzero;stroke:none" />
      <path
         id="path13"
         d="M 27.735305,-4.8823984 H 27.50093 c -0.02344,0.1523437 -0.08203,0.5625 -0.175782,0.6328125 -0.05859,0.035156 -0.597656,0.035156 -0.691406,0.035156 H 25.34468 c 0.738281,-0.6445312 0.984375,-0.84375 1.394531,-1.171875 0.515625,-0.4101562 0.996094,-0.84375 0.996094,-1.5 0,-0.84375 -0.738282,-1.359375 -1.628907,-1.359375 -0.867187,0 -1.453125,0.609375 -1.453125,1.2421875 0,0.3632813 0.304688,0.3984375 0.375,0.3984375 0.164063,0 0.375,-0.1171875 0.375,-0.375 0,-0.1289062 -0.05859,-0.3632812 -0.421875,-0.3632812 0.222657,-0.5039063 0.691407,-0.65625 1.019532,-0.65625 0.703125,0 1.066406,0.5507812 1.066406,1.1132812 0,0.609375 -0.433594,1.0898438 -0.65625,1.3359375 l -1.6875,1.6640625 c -0.07031,0.058594 -0.07031,0.070312 -0.07031,0.2695313 h 2.882813 z m 0,0"
         style="fill:#eb0a36;fill-opacity:1;fill-rule:nonzero;stroke:none" />
    </g>
    <path
       id="path14"
       d="M 77.10345,0 V 78.64572"
       style="fill:none;stroke:#ec008c;stroke-width:0.3985;stroke-linecap:butt;stroke-linejoin:miter;stroke-miterlimit:10;stroke-dasharray:2.98883, 2.98883;stroke-dashoffset:0;stroke-opacity:1"
       transform="matrix(1.3333333,0,0,-1.3333333,184.60667,230.34)" />
    <path
       id="path15"
       d="m 4.5828125,-3.1867891 c 0,-0.796875 -0.046875,-1.59375 -0.3984375,-2.3320312 -0.4570313,-0.9609375 -1.2773438,-1.1132813 -1.6875,-1.1132813 -0.5976563,0 -1.3359375,0.2578125 -1.734375,1.1835938 -0.328125,0.6914062 -0.375,1.4648437 -0.375,2.2617187 0,0.75 0.046875,1.640625 0.4453125,2.40234379 0.4335937,0.80859375 1.1601562,1.0078125 1.6523437,1.0078125 0.5390625,0 1.2890625,-0.2109375 1.734375,-1.16015625 C 4.5359375,-1.6281953 4.5828125,-2.4016328 4.5828125,-3.1867891 Z M 2.4851562,7.109375e-4 C 2.0984375,7.109375e-4 1.5007812,-0.24538281 1.325,-1.2063203 1.2195312,-1.8039766 1.2195312,-2.7180391 1.2195312,-3.3039766 c 0,-0.6445312 0,-1.3007812 0.082031,-1.8398437 0.1875,-1.1835938 0.9257812,-1.265625 1.1835937,-1.265625 0.328125,0 0.984375,0.1757812 1.171875,1.1601562 0.09375,0.5625 0.09375,1.3125 0.09375,1.9453125 0,0.75 0,1.4179688 -0.1054687,2.0625 C 3.4929687,-0.30397656 2.9304687,7.109375e-4 2.4851562,7.109375e-4 Z m 0,0"
       style="fill:#000000;fill-opacity:1;fill-rule:nonzero;stroke:none"
       aria-label="0"
       transform="matrix(1.3333333,0,0,1.3333333,157.73333,249.73733)" />
    <path
       id="path16"
       d="m 2.9300703,-6.3742812 c 0,-0.234375 0,-0.2578125 -0.234375,-0.2578125 -0.609375,0.6328125 -1.4882812,0.6328125 -1.80468749,0.6328125 v 0.3164062 c 0.19921879,0 0.78515629,0 1.30078129,-0.2578125 v 5.15625 c 0,0.3515625 -0.035156,0.48046875 -0.9257813,0.48046875 H 0.94960156 V 7.1875e-4 C 1.3011641,-0.0344375 2.1566328,-0.0344375 2.5550703,-0.0344375 c 0.3984375,0 1.265625,0 1.6171875,0.03515625 v -0.3046875 H 3.8558516 c -0.9023438,0 -0.9257813,-0.1171875 -0.9257813,-0.48046875 z m 0,0"
       style="fill:#000000;fill-opacity:1;fill-rule:nonzero;stroke:none"
       aria-label="1"
       transform="matrix(1.3333333,0,0,1.3333333,284.08933,244.01467)" />
  </g>
</svg>
