<?xml version="1.0" encoding="UTF-8" standalone="no"?>
<!-- Created with Inkscape (http://www.inkscape.org/) -->

<svg
   version="1.1"
   id="svg1"
   width="305.8815"
   height="216.37556"
   viewBox="0 0 305.8815 216.37557"
   sodipodi:docname="5.1-rectangulos-der.svg"
   inkscape:version="1.4.2 (f4327f4, 2025-05-13)"
   xmlns:inkscape="http://www.inkscape.org/namespaces/inkscape"
   xmlns:sodipodi="http://sodipodi.sourceforge.net/DTD/sodipodi-0.dtd"
   xmlns="http://www.w3.org/2000/svg"
   xmlns:svg="http://www.w3.org/2000/svg">
  <defs
     id="defs1" />
  <sodipodi:namedview
     id="namedview1"
     pagecolor="#ffffff"
     bordercolor="#000000"
     borderopacity="0.25"
     inkscape:showpageshadow="2"
     inkscape:pageopacity="0.0"
     inkscape:pagecheckerboard="0"
     inkscape:deskcolor="#d1d1d1"
     inkscape:zoom="2.2241536"
     inkscape:cx="203.89779"
     inkscape:cy="121.6193"
     inkscape:window-width="1920"
     inkscape:window-height="1009"
     inkscape:window-x="-8"
     inkscape:window-y="-8"
     inkscape:window-maximized="1"
     inkscape:current-layer="g1">
    <inkscape:page
       x="0"
       y="0"
       inkscape:label="6"
       id="page1"
       width="305.8815"
       height="216.37556"
       margin="0"
       bleed="0" />
  </sodipodi:namedview>
  <g
     id="g1"
     inkscape:groupmode="layer"
     inkscape:label="6"
     transform="translate(-38.059921,-59.953124)">
    <path
       id="path2"
       d="M -45.35506,0 H 180.96199"
       style="fill:none;stroke:#000000;stroke-width:0.3985;stroke-linecap:butt;stroke-linejoin:miter;stroke-miterlimit:10;stroke-dasharray:none;stroke-opacity:1"
       transform="matrix(1.3333333,0,0,-1.3333333,98.533333,246.092)" />
    <path
       id="path3"
       d="M -1.19551,1.59401 C -1.09587,0.99626 0,0.09961 0.29886,0 0,-0.09961 -1.09587,-0.99626 -1.19551,-1.59401"
       style="fill:none;stroke:#000000;stroke-width:0.31879;stroke-linecap:round;stroke-linejoin:round;stroke-miterlimit:10;stroke-dasharray:none;stroke-opacity:1"
       transform="matrix(1.3333333,0,0,-1.3333333,339.81599,246.092)" />
    <path
       id="path4"
       d="m 3.6456797,-3.2924062 c 0.070312,-0.28125 0.3164062,-1.2890625 1.078125,-1.2890625 0.058594,0 0.3164062,0 0.5507812,0.140625 -0.3046875,0.058594 -0.5273437,0.328125 -0.5273437,0.5859375 0,0.1757812 0.1171875,0.3867187 0.4101562,0.3867187 0.2460938,0 0.5976563,-0.1992187 0.5976563,-0.6328125 0,-0.5625 -0.6445313,-0.7265625 -1.0195313,-0.7265625 -0.6328125,0 -1.0195312,0.5859375 -1.1484375,0.8320313 -0.2695312,-0.7148438 -0.8554687,-0.8320313 -1.171875,-0.8320313 -1.1367187,0 -1.75781246,1.4179688 -1.75781246,1.6875 0,0.1054688 0.10546875,0.1054688 0.12890625,0.1054688 0.0820313,0 0.1171875,-0.023437 0.140625,-0.1171875 0.37500001,-1.1601563 1.08984371,-1.4296875 1.46484371,-1.4296875 0.2109375,0 0.5859375,0.09375 0.5859375,0.7265625 0,0.3398437 -0.1875,1.078125 -0.5859375,2.6015625 -0.1757812,0.67968745 -0.5625,1.1367187 -1.0429687,1.1367187 -0.058594,0 -0.3164063,0 -0.53906251,-0.140625 0.26953121,-0.0585938 0.51562501,-0.29296875 0.51562501,-0.59765625 0,-0.29296875 -0.2460938,-0.37499995 -0.41015626,-0.37499995 -0.328125,0 -0.59765625,0.28124995 -0.59765625,0.63281245 0,0.50390625 0.55078125,0.71484375 1.03125001,0.71484375 0.7148437,0 1.1015625,-0.76171875 1.1367187,-0.83203125 C 2.6144297,-0.304125 3.0128672,0.11775 3.6691172,0.11775 c 1.125,0 1.7460937,-1.40625 1.7460937,-1.6757812 0,-0.1054688 -0.1054687,-0.1054688 -0.1289062,-0.1054688 -0.1054688,0 -0.1289063,0.035156 -0.140625,0.1171875 -0.3632813,1.16015625 -1.1132813,1.4296875 -1.453125,1.4296875 -0.4335938,0 -0.609375,-0.3515625 -0.609375,-0.7265625 0,-0.234375 0.070312,-0.4804687 0.1875,-0.9609375 z m 0,0"
       style="fill:#000000;fill-opacity:1;fill-rule:nonzero;stroke:none"
       aria-label="x"
       transform="matrix(1.3333333,0,0,1.3333333,336.268,257.468)" />
    <path
       id="path5"
       d="M 0,-22.67752 V 135.60692"
       style="fill:none;stroke:#000000;stroke-width:0.3985;stroke-linecap:butt;stroke-linejoin:miter;stroke-miterlimit:10;stroke-dasharray:none;stroke-opacity:1"
       transform="matrix(1.3333333,0,0,-1.3333333,98.533333,246.092)" />
    <path
       id="path6"
       d="M -1.19551,1.59401 C -1.09587,0.99626 0,0.09961 0.29886,0 0,-0.09961 -1.09587,-0.99626 -1.19551,-1.59401"
       style="fill:none;stroke:#000000;stroke-width:0.31879;stroke-linecap:round;stroke-linejoin:round;stroke-miterlimit:10;stroke-dasharray:none;stroke-opacity:1"
       transform="matrix(0,-1.3333333,-1.3333333,0,98.533333,65.282773)" />
    <path
       id="path7"
       d="m 5.2960937,-4.1601875 c 0.046875,-0.1523438 0.046875,-0.1757813 0.046875,-0.2460938 0,-0.1992187 -0.1523437,-0.2929687 -0.3164062,-0.2929687 -0.1054688,0 -0.28125,0.058594 -0.375,0.2226562 C 4.628125,-4.418 4.534375,-4.0781563 4.4992187,-3.8789375 4.4171875,-3.5976875 4.346875,-3.3047188 4.2765625,-3.01175 L 3.784375,-1.043 C 3.7375,-0.8789375 3.26875,-0.11721875 2.5539062,-0.11721875 c -0.5625,0 -0.6796875,-0.48046875 -0.6796875,-0.89062505 0,-0.4921875 0.1875,-1.171875 0.5625,-2.1328125 0.1757813,-0.4453125 0.2109375,-0.5742187 0.2109375,-0.7851562 0,-0.4921875 -0.3515625,-0.9023438 -0.890625,-0.9023438 -1.0429687,0 -1.4414062,1.5820313 -1.4414062,1.6875 0,0.1054688 0.10546875,0.1054688 0.12890625,0.1054688 0.10546875,0 0.1171875,-0.023437 0.17578125,-0.1992188 0.29296875,-1.0195312 0.7265625,-1.3476562 1.1015625,-1.3476562 0.09375,0 0.2695312,0 0.2695312,0.3515625 0,0.2695312 -0.1054687,0.5507812 -0.1757812,0.7617187 -0.4453125,1.1601563 -0.6328125,1.78125 -0.6328125,2.2851563 0,0.97265625 0.6796875,1.30078125 1.3242187,1.30078125 0.421875,0 0.796875,-0.1875 1.1015625,-0.4921875 C 3.4679687,0.1991875 3.3390625,0.72653125 2.9054687,1.3124687 2.6125,1.67575 2.2023437,1.9921562 1.6984375,1.9921562 c -0.1523438,0 -0.6445313,-0.023437 -0.83203125,-0.4570312 0.17578125,0 0.31640625,0 0.48046875,-0.1289063 C 1.4523437,1.3124687 1.5578125,1.1718437 1.5578125,0.96090625 1.5578125,0.6210625 1.2648437,0.5741875 1.159375,0.5741875 0.9015625,0.5741875 0.55,0.74996875 0.55,1.2890312 0.55,1.8280937 1.0304687,2.23825 1.6984375,2.23825 c 1.125,0 2.25,-0.9960938 2.5546875,-2.2265625 z m 0,0"
       style="fill:#000000;fill-opacity:1;fill-rule:nonzero;stroke:none"
       aria-label="y"
       transform="matrix(1.3333333,0,0,1.3333333,85.766667,66.390667)" />
    <path
       id="path8"
       d="M 22.67752,0 V 89.63396 H 42.63351 V 0 Z"
       style="fill:#9999ff;fill-opacity:0.35;fill-rule:nonzero;stroke:#000000;stroke-width:0.3985;stroke-linecap:butt;stroke-linejoin:miter;stroke-miterlimit:10;stroke-dasharray:none;stroke-opacity:0.35"
       transform="matrix(1.3333333,0,0,-1.3333333,98.533333,246.092)" />
    <path
       id="path9"
       d="m 42.63351,0 v 76.47783 h 19.956 V 0 Z"
       style="fill:#9999ff;fill-opacity:0.35;fill-rule:nonzero;stroke:#000000;stroke-width:0.3985;stroke-linecap:butt;stroke-linejoin:miter;stroke-miterlimit:10;stroke-dasharray:none;stroke-opacity:0.35"
       transform="matrix(1.3333333,0,0,-1.3333333,98.533333,246.092)" />
    <path
       id="path10"
       d="M 62.58951,0 V 57.19348 H 82.5455 V 0 Z"
       style="fill:#9999ff;fill-opacity:0.35;fill-rule:nonzero;stroke:#000000;stroke-width:0.3985;stroke-linecap:butt;stroke-linejoin:miter;stroke-miterlimit:10;stroke-dasharray:none;stroke-opacity:0.35"
       transform="matrix(1.3333333,0,0,-1.3333333,98.533333,246.092)" />
    <path
       id="path11"
       d="m 82.5455,0 v 45.7741 h 19.956 V 0 Z"
       style="fill:#9999ff;fill-opacity:0.35;fill-rule:nonzero;stroke:#000000;stroke-width:0.3985;stroke-linecap:butt;stroke-linejoin:miter;stroke-miterlimit:10;stroke-dasharray:none;stroke-opacity:0.35"
       transform="matrix(1.3333333,0,0,-1.3333333,98.533333,246.092)" />
    <path
       id="path12"
       d="m 102.5015,0 v 50.50848 h 19.95597 V 0 Z"
       style="fill:#9999ff;fill-opacity:0.35;fill-rule:nonzero;stroke:#000000;stroke-width:0.3985;stroke-linecap:butt;stroke-linejoin:miter;stroke-miterlimit:10;stroke-dasharray:none;stroke-opacity:0.35"
       transform="matrix(1.3333333,0,0,-1.3333333,98.533333,246.092)" />
    <path
       id="path13"
       d="M 122.45747,0 V 67.95923 H 142.4135 V 0 Z"
       style="fill:#9999ff;fill-opacity:0.35;fill-rule:nonzero;stroke:#000000;stroke-width:0.3985;stroke-linecap:butt;stroke-linejoin:miter;stroke-miterlimit:10;stroke-dasharray:none;stroke-opacity:0.35"
       transform="matrix(1.3333333,0,0,-1.3333333,98.533333,246.092)" />
    <path
       id="path14"
       d="m 22.67752,87.11415 c 0,0 0.8738,0.46007 1.20937,0.62598 0.3356,0.16592 0.87379,0.41978 1.20938,0.5699 0.33558,0.15013 0.87381,0.37823 1.20939,0.51213 0.33559,0.13389 0.8738,0.33559 1.20939,0.45297 0.33558,0.11737 0.87377,0.2926 1.20938,0.39308 0.33557,0.10048 0.87379,0.24791 1.20936,0.33116 0.33561,0.08324 0.8738,0.20304 1.20938,0.26886 0.33561,0.06583 0.8738,0.15734 1.20938,0.20554 0.33561,0.0482 0.87381,0.11145 1.2094,0.14189 0.33559,0.03041 0.8738,0.06488 1.20938,0.0775 0.33557,0.01262 0.87378,0.01872 1.20937,0.01349 0.33558,-0.0052 0.87379,-0.02808 1.20938,-0.05121 0.3356,-0.02312 0.87379,-0.07463 1.20938,-0.11557 0.3356,-0.04095 0.87379,-0.12082 1.20938,-0.17959 0.3356,-0.05875 0.87381,-0.16767 1.2094,-0.24395 0.33557,-0.07629 0.87379,-0.21243 1.20936,-0.30591 0.33559,-0.09346 0.87378,-0.2573 1.20938,-0.36782 0.33559,-0.11051 0.8738,-0.30141 1.20939,-0.42873 0.3356,-0.12732 0.87379,-0.34531 1.20938,-0.48894 0.3356,-0.14364 0.87379,-0.38685 1.20938,-0.54637 0.33558,-0.15954 0.87381,-0.42846 1.20938,-0.6035 0.33559,-0.17505 0.87379,-0.46808 1.20938,-0.65816 0.33559,-0.19006 0.87378,-0.50724 1.20938,-0.71177 0.33559,-0.20452 0.8738,-0.54396 1.20938,-0.76232 0.3356,-0.21835 0.8738,-0.5798 1.20938,-0.81144 0.3356,-0.23165 0.8738,-0.61387 1.20938,-0.85816 0.33559,-0.24428 0.87381,-0.64625 1.20939,-0.90245 0.33558,-0.25618 0.87379,-0.6766 1.20938,-0.94397 0.33558,-0.26738 0.87379,-0.70529 1.20938,-0.98308 0.33558,-0.27778 0.87379,-0.73163 1.20938,-1.01907 0.3356,-0.28744 0.87379,-0.75645 1.20938,-1.05261 0.33558,-0.29619 0.87379,-0.77791 1.20937,-1.08205 0.3356,-0.30417 0.87381,-0.79878 1.20939,-1.11006 0.33559,-0.31131 0.8738,-0.81612 1.20938,-1.13361 0.33559,-0.31749 0.8738,-0.83189 1.20938,-1.15471 0.33559,-0.32283 0.8738,-0.84474 1.2094,-1.17202 0.33557,-0.32728 0.87378,-0.85613 1.20935,-1.18686 0.33561,-0.33075 0.8738,-0.8638 1.20938,-1.19695 0.3356,-0.33313 0.87381,-0.86946 1.2094,-1.20417 0.33559,-0.33474 0.87379,-0.87304 1.20938,-1.20835 0.33559,-0.33531 0.87379,-0.87332 1.20938,-1.20834 0.33557,-0.33502 0.8738,-0.87242 1.20938,-1.20627 0.33559,-0.33386 0.87378,-0.86847 1.20937,-1.20004 0.3356,-0.33156 0.87379,-0.86127 1.20938,-1.18967 0.3356,-0.32837 0.87381,-0.85287 1.2094,-1.17719 0.33558,-0.32432 0.87379,-0.84097 1.20938,-1.16024 0.33558,-0.31926 0.87379,-0.8275 1.20936,-1.14087 0.33559,-0.31337 0.8738,-0.81113 1.2094,-1.11768 0.33559,-0.30655 0.87378,-0.79287 1.20936,-1.09175 0.33561,-0.29884 0.8738,-0.77202 1.20939,-1.0623 0.3356,-0.29027 0.87381,-0.74893 1.20939,-1.02979 0.33559,-0.28085 0.8738,-0.72381 1.20938,-0.99451 0.33558,-0.27065 0.8738,-0.6967 1.20937,-0.95641 0.33559,-0.25975 0.87379,-0.6675 1.2094,-0.91559 0.33558,-0.24811 0.87377,-0.63698 1.20936,-0.8727 0.3356,-0.23575 0.8738,-0.60367 1.20938,-0.82632 0.3356,-0.22268 0.87381,-0.5696 1.2094,-0.77858 0.33557,-0.20899 0.87379,-0.53307 1.20937,-0.72771 0.33558,-0.19462 0.87379,-0.49527 1.20938,-0.67511 0.33558,-0.17985 0.87379,-0.4566 1.20939,-0.62112 0.33559,-0.16452 0.87378,-0.41599 1.20938,-0.56472 0.33559,-0.14874 0.87378,-0.3748 1.20937,-0.50729 0.33558,-0.13251 0.87381,-0.33194 1.20938,-0.44777 0.33559,-0.11584 0.8738,-0.28825 1.20938,-0.38721 0.33559,-0.09893 0.8738,-0.24424 1.2094,-0.32597 0.33558,-0.08171 0.87378,-0.19873 1.20938,-0.26297 0.33558,-0.06424 0.87378,-0.15344 1.20938,-0.20001 0.33557,-0.04657 0.87379,-0.10689 1.20936,-0.13564 0.3356,-0.02874 0.8738,-0.06073 1.20939,-0.07164 0.33558,-0.01089 0.87379,-0.01391 1.20938,-0.0069 0.33558,0.007 0.87379,0.03266 1.20939,0.05744 0.33559,0.02478 0.87378,0.07859 1.20938,0.1211 0.33559,0.04255 0.87378,0.12519 1.20939,0.18548 0.33557,0.0603 0.87379,0.17132 1.20936,0.24914 0.33561,0.07782 0.8738,0.21672 1.20938,0.31178 0.33559,0.09505 0.8738,0.26133 1.20938,0.37337 0.33559,0.11206 0.8738,0.30551 1.2094,0.43428 0.33559,0.12874 0.87378,0.34868 1.20938,0.49378 0.33557,0.14508 0.87378,0.39094 1.20937,0.55192 0.33558,0.16097 0.87379,0.43188 1.20938,0.60832 0.3356,0.17644 0.87379,0.47197 1.20938,0.66333 0.33559,0.19138 0.87379,0.51018 1.20938,0.71596 0.33559,0.20577 0.8738,0.54755 1.2094,0.76715 0.33557,0.21961 0.87378,0.5828 1.20936,0.8156 0.33559,0.23279 0.87378,0.61691 1.20938,0.8623 0.33559,0.2454 0.8738,0.64898 1.20939,0.90627 0.3356,0.25729 0.87379,0.6797 1.20938,0.94812 0.33558,0.26842 0.87379,0.70784 1.20938,0.98653 0.33557,0.2787 0.87381,0.73393 1.20938,1.02218 0.33559,0.28826 0.87378,0.75844 1.20938,1.05539 0.33559,0.29697 0.87378,0.77995 1.20938,1.08483 0.33559,0.30487 0.8738,0.80056 1.20938,1.11247 0.3356,0.31193 0.8738,0.81766 1.20938,1.13568 0.33557,0.31802 0.8738,0.83319 1.20937,1.15645 0.33559,0.32325 0.87381,0.84587 1.2094,1.1734 0.33558,0.3275 0.87377,0.8563 1.20938,1.18722 0.33558,0.33094 0.87378,0.86458 1.20938,1.19796 0.33558,0.3334 0.87379,0.87002 1.20938,1.20489 0.3356,0.33487 1.20938,1.20868 1.20938,1.20868"
       style="fill:none;stroke:#eb0a36;stroke-width:0.79701;stroke-linecap:butt;stroke-linejoin:miter;stroke-miterlimit:10;stroke-dasharray:none;stroke-opacity:1"
       transform="matrix(1.3333333,0,0,-1.3333333,98.533333,246.092)" />
    <g
       id="g14"
       aria-label="y=f(x)"
       transform="matrix(1.3333333,0,0,1.3333333,224.436,128.46667)">
      <path
         id="path15"
         d="m 4.8409688,-3.7982422 c 0.046875,-0.140625 0.046875,-0.1523437 0.046875,-0.2226562 0,-0.1875 -0.140625,-0.2695313 -0.2929688,-0.2695313 -0.1054687,0 -0.2578125,0.058594 -0.3515625,0.1992188 -0.023437,0.058594 -0.09375,0.3632812 -0.140625,0.5390625 -0.070312,0.2578125 -0.140625,0.5273437 -0.1992187,0.796875 l -0.4453125,1.79296871 c -0.035156,0.15234375 -0.46875,0.85546875 -1.125,0.85546875 -0.5039063,0 -0.6210938,-0.4453125 -0.6210938,-0.80859375 0,-0.45703121 0.1757813,-1.07812501 0.515625,-1.95703121 0.1523438,-0.4101563 0.1992188,-0.515625 0.1992188,-0.7148438 0,-0.4453125 -0.328125,-0.8203125 -0.8203125,-0.8203125 -0.9492188,0 -1.31250005,1.453125 -1.31250005,1.5351563 0,0.1054687 0.09375,0.1054687 0.1171875,0.1054687 0.09375,0 0.10546875,-0.023437 0.15234375,-0.1875 0.26953125,-0.9375 0.6679688,-1.2304687 1.0078125,-1.2304687 0.082031,0 0.2578125,0 0.2578125,0.3164062 0,0.2460938 -0.1054687,0.515625 -0.1757812,0.703125 -0.3984375,1.0546875 -0.5742188,1.6171875 -0.5742188,2.0859375 0,0.89062501 0.6210938,1.18359376 1.21875,1.18359376 0.3867188,0 0.7265625,-0.1640625 0.9960938,-0.4453125 C 3.1651875,0.17441406 3.048,0.66660156 2.6495625,1.1939453 2.39175,1.5337891 2.01675,1.8267578 1.5597188,1.8267578 c -0.140625,0 -0.5976563,-0.035156 -0.7617188,-0.421875 0.1640625,0 0.2929688,0 0.4335938,-0.1171875 0.09375,-0.09375 0.1992187,-0.2226562 0.1992187,-0.41015624 0,-0.31640625 -0.2695312,-0.3515625 -0.375,-0.3515625 -0.22265625,0 -0.55078125,0.1640625 -0.55078125,0.64453124 0,0.5039063 0.43359375,0.8671875 1.05468755,0.8671875 1.0195312,0 2.0507812,-0.9023437 2.3320312,-2.02734374 z m 0,0"
         style="fill:#eb0a36;fill-opacity:1;fill-rule:nonzero;stroke:none" />
      <path
         id="path16"
         d="m 14.85757,-3.2591797 c 0.152344,0 0.339844,0 0.339844,-0.1992187 0,-0.1992188 -0.1875,-0.1992188 -0.328125,-0.1992188 H 8.9044453 c -0.140625,0 -0.328125,0 -0.328125,0.1992188 0,0.1992187 0.1875,0.1992187 0.3398438,0.1992187 z m 0.01172,1.9335938 c 0.140625,0 0.328125,0 0.328125,-0.1992188 0,-0.1992187 -0.1875,-0.1992187 -0.339844,-0.1992187 H 8.9161641 c -0.1523438,0 -0.3398438,0 -0.3398438,0.1992187 0,0.1992188 0.1875,0.1992188 0.328125,0.1992188 z m 0,0"
         style="fill:#eb0a36;fill-opacity:1;fill-rule:nonzero;stroke:none" />
      <path
         id="path17"
         d="m 22.178859,-3.9857422 h 0.855469 c 0.199219,0 0.304688,0 0.304688,-0.1992187 0,-0.1054688 -0.105469,-0.1054688 -0.269532,-0.1054688 h -0.832031 l 0.210938,-1.1367187 c 0.03516,-0.2109375 0.175781,-0.9140625 0.234375,-1.0429688 0.09375,-0.1875 0.257812,-0.3398437 0.46875,-0.3398437 0.04687,0 0.304687,0 0.492187,0.1875 -0.433594,0.035156 -0.539062,0.3867187 -0.539062,0.5390625 0,0.2226562 0.175781,0.3398437 0.363281,0.3398437 0.269531,0 0.550781,-0.2109375 0.550781,-0.5976562 0,-0.4570313 -0.457031,-0.6796875 -0.867187,-0.6796875 -0.339844,0 -0.960938,0.1757812 -1.265625,1.1601562 -0.05859,0.2109375 -0.08203,0.3164063 -0.328125,1.5703125 h -0.679688 c -0.199219,0 -0.304687,0 -0.304687,0.1875 0,0.1171875 0.09375,0.1171875 0.28125,0.1171875 h 0.65625 l -0.75,3.93750001 c -0.175782,0.9609375 -0.339844,1.87499999 -0.867188,1.87499999 -0.03516,0 -0.28125,0 -0.46875,-0.1875 0.457031,-0.023437 0.539063,-0.3867187 0.539063,-0.5390625 0,-0.22265624 -0.175782,-0.33984374 -0.363282,-0.33984374 -0.257812,0 -0.550781,0.2109375 -0.550781,0.59765624 0,0.4453125 0.433594,0.6796875 0.84375,0.6796875 0.550781,0 0.949219,-0.5859375 1.125,-0.9609375 0.328125,-0.63281249 0.550781,-1.83984374 0.5625,-1.91015624 z m 0,0"
         style="fill:#eb0a36;fill-opacity:1;fill-rule:nonzero;stroke:none" />
      <path
         id="path18"
         d="m 27.768703,2.3892578 c 0,-0.035156 0,-0.046875 -0.164062,-0.2226562 -1.242188,-1.25390629 -1.570313,-3.12890629 -1.570313,-4.6640625 0,-1.7226563 0.386719,-3.4570313 1.605469,-4.7109375 0.128906,-0.1171875 0.128906,-0.1289063 0.128906,-0.1640625 0,-0.070312 -0.03516,-0.1054688 -0.09375,-0.1054688 -0.105469,0 -0.996094,0.6796875 -1.582031,1.9453125 -0.515625,1.1015625 -0.632813,2.203125 -0.632813,3.0351563 0,0.7851562 0.117188,1.99218746 0.65625,3.11718746 0.597657,1.21875004 1.453125,1.87500004 1.558594,1.87500004 0.05859,0 0.09375,-0.035156 0.09375,-0.1054688 z m 0,0"
         style="fill:#eb0a36;fill-opacity:1;fill-rule:nonzero;stroke:none" />
      <path
         id="path19"
         d="m 31.676906,-3.0130859 c 0.05859,-0.2578125 0.292969,-1.171875 0.984375,-1.171875 0.04687,0 0.292969,0 0.503907,0.1289062 -0.28125,0.046875 -0.480469,0.3046875 -0.480469,0.5390625 0,0.1640625 0.105469,0.3515625 0.375,0.3515625 0.222656,0 0.539062,-0.1875 0.539062,-0.5859375 0,-0.515625 -0.585937,-0.65625 -0.925781,-0.65625 -0.574219,0 -0.925781,0.5273438 -1.042969,0.7617188 -0.257812,-0.65625 -0.785156,-0.7617188 -1.078125,-0.7617188 -1.042968,0 -1.605468,1.2890625 -1.605468,1.5351563 0,0.1054687 0.105468,0.1054687 0.117187,0.1054687 0.08203,0 0.117188,-0.023437 0.128906,-0.1171875 0.339844,-1.0546875 0.996094,-1.3007812 1.335938,-1.3007812 0.1875,0 0.539062,0.09375 0.539062,0.6679687 0,0.3046875 -0.164062,0.9726563 -0.539062,2.3671875 -0.152344,0.62109376 -0.503906,1.04296876 -0.949219,1.04296876 -0.05859,0 -0.28125,0 -0.492187,-0.12890625 0.246093,-0.0585938 0.46875,-0.26953125 0.46875,-0.5390625 0,-0.26953121 -0.222657,-0.35156251 -0.375,-0.35156251 -0.292969,0 -0.539063,0.25781251 -0.539063,0.57421876 0,0.45703125 0.492188,0.65625 0.9375,0.65625 0.65625,0 1.007813,-0.69140625 1.042969,-0.75 0.117187,0.36328125 0.480469,0.75 1.078125,0.75 1.019531,0 1.59375,-1.27734376 1.59375,-1.53515626 0,-0.09375 -0.09375,-0.09375 -0.128906,-0.09375 -0.08203,0 -0.105469,0.035156 -0.128907,0.1054688 -0.328125,1.06640621 -0.996093,1.31249996 -1.324218,1.31249996 -0.386719,0 -0.539063,-0.328125 -0.539063,-0.65625 0,-0.22265625 0.05859,-0.44531246 0.164063,-0.87890626 z m 0,0"
         style="fill:#eb0a36;fill-opacity:1;fill-rule:nonzero;stroke:none" />
      <path
         id="path20"
         d="m 36.926906,-2.4974609 c 0,-0.7734375 -0.117187,-1.9804688 -0.65625,-3.1054688 -0.597656,-1.21875 -1.464843,-1.875 -1.558593,-1.875 -0.05859,0 -0.105469,0.046875 -0.105469,0.1054688 0,0.035156 0,0.046875 0.199219,0.234375 0.972656,0.984375 1.535156,2.5664062 1.535156,4.640625 0,1.71093746 -0.363281,3.45703121 -1.59375,4.7226562 -0.140625,0.1171875 -0.140625,0.1289063 -0.140625,0.1640625 0,0.058594 0.04687,0.1054688 0.105469,0.1054688 0.09375,0 0.996093,-0.6796875 1.582031,-1.94531254 0.503906,-1.1015625 0.632812,-2.20312496 0.632812,-3.04687496 z m 0,0"
         style="fill:#eb0a36;fill-opacity:1;fill-rule:nonzero;stroke:none" />
    </g>
    <g
       id="g20"
       aria-label="x&#10;0&#10;=a"
       transform="matrix(1.3333333,0,0,1.3333333,100.49067,256.924)">
      <path
         id="path21"
         d="m 3.3292656,-3.0103828 c 0.058594,-0.2578125 0.2929688,-1.171875 0.984375,-1.171875 0.046875,0 0.2929688,0 0.5039063,0.1289062 -0.28125,0.046875 -0.4804688,0.3046875 -0.4804688,0.5390625 0,0.1640625 0.1054688,0.3515625 0.375,0.3515625 0.2226563,0 0.5390625,-0.1875 0.5390625,-0.5859375 0,-0.515625 -0.5859375,-0.65625 -0.9257812,-0.65625 -0.5742188,0 -0.9257813,0.5273438 -1.0429688,0.7617188 -0.2578125,-0.65625 -0.7851562,-0.7617188 -1.078125,-0.7617188 -1.0429687,0 -1.60546872,1.2890625 -1.60546872,1.5351563 0,0.1054687 0.10546875,0.1054687 0.1171875,0.1054687 0.0820313,0 0.1171875,-0.023437 0.12890625,-0.1171875 0.33984377,-1.0546875 0.99609377,-1.3007812 1.33593747,-1.3007812 0.1875,0 0.5390625,0.09375 0.5390625,0.6679687 0,0.3046875 -0.1640625,0.9726563 -0.5390625,2.3671875 -0.1523437,0.62109379 -0.5039062,1.04296879 -0.9492187,1.04296879 -0.058594,0 -0.28125002,0 -0.49218752,-0.12890625 0.24609375,-0.0585938 0.46875002,-0.26953125 0.46875002,-0.5390625 0,-0.26953124 -0.22265627,-0.35156254 -0.37500002,-0.35156254 -0.29296875,0 -0.5390625,0.25781254 -0.5390625,0.57421879 0,0.45703125 0.4921875,0.65625 0.93750002,0.65625 0.65625,0 1.0078125,-0.69140625 1.0429687,-0.75 0.1171875,0.36328125 0.4804688,0.75 1.078125,0.75 1.0195313,0 1.59375,-1.27734379 1.59375,-1.53515629 0,-0.09375 -0.09375,-0.09375 -0.1289062,-0.09375 -0.082031,0 -0.1054688,0.035156 -0.1289063,0.1054688 -0.328125,1.06640624 -0.9960937,1.31249999 -1.3242187,1.31249999 -0.3867188,0 -0.5390625,-0.328125 -0.5390625,-0.65625 0,-0.22265625 0.058594,-0.44531249 0.1640625,-0.87890629 z m 0,0"
         style="fill:#ec008c;fill-opacity:1;fill-rule:nonzero;stroke:none" />
      <path
         id="path22"
         d="m 9.2911797,-0.73108594 c 0,-0.76171876 -0.09375,-1.31249996 -0.4101563,-1.80468746 -0.2226562,-0.3164063 -0.6445312,-0.5976563 -1.2070312,-0.5976563 -1.6171875,0 -1.6171875,1.8984375 -1.6171875,2.40234376 0,0.50390625 0,2.36718754 1.6171875,2.36718754 1.6171875,0 1.6171875,-1.86328129 1.6171875,-2.36718754 z M 7.6739922,1.4368828 c -0.3164063,0 -0.75,-0.1875 -0.890625,-0.76171874 -0.09375,-0.41015625 -0.09375,-0.984375 -0.09375,-1.5 0,-0.50390626 0,-1.03124996 0.1054687,-1.41796876 0.1523438,-0.5507812 0.5976563,-0.6914062 0.8789063,-0.6914062 0.375,0 0.7382812,0.2226562 0.8671875,0.6328125 0.1054687,0.375 0.1171875,0.8789062 0.1171875,1.47656246 0,0.515625 0,1.04296875 -0.09375,1.4765625 C 8.4239922,1.2845391 7.9552422,1.4368828 7.6739922,1.4368828 Z m 0,0"
         style="fill:#ec008c;fill-opacity:1;fill-rule:nonzero;stroke:none" />
      <path
         id="path23"
         d="m 19.773602,-3.2564766 c 0.152343,0 0.339843,0 0.339843,-0.1992187 0,-0.1992188 -0.1875,-0.1992188 -0.328125,-0.1992188 h -5.964843 c -0.140625,0 -0.328125,0 -0.328125,0.1992188 0,0.1992187 0.1875,0.1992187 0.339843,0.1992187 z m 0.01172,1.9335938 c 0.140625,0 0.328125,0 0.328125,-0.1992188 0,-0.1992187 -0.1875,-0.1992187 -0.339843,-0.1992187 h -5.941407 c -0.152343,0 -0.339843,0 -0.339843,0.1992187 0,0.1992188 0.1875,0.1992188 0.328125,0.1992188 z m 0,0"
         style="fill:#ec008c;fill-opacity:1;fill-rule:nonzero;stroke:none" />
      <path
         id="path24"
         d="m 27.165203,-3.7603828 c -0.175781,-0.375 -0.46875,-0.6445313 -0.914062,-0.6445313 -1.171875,0 -2.402344,1.4648438 -2.402344,2.9179688 0,0.93749999 0.550781,1.59374999 1.324219,1.59374999 0.199218,0 0.703125,-0.03515625 1.300781,-0.73828125 0.07031,0.41015625 0.421875,0.73828125 0.902344,0.73828125 0.351562,0 0.574218,-0.22265625 0.738281,-0.5390625 0.164062,-0.36328125 0.292969,-0.97265629 0.292969,-0.99609379 0,-0.09375 -0.08203,-0.09375 -0.117188,-0.09375 -0.09375,0 -0.105469,0.035156 -0.140625,0.1757813 -0.164062,0.64453124 -0.351562,1.24218749 -0.75,1.24218749 -0.269531,0 -0.304687,-0.2578125 -0.304687,-0.45703125 0,-0.22265625 0.02344,-0.3046875 0.128906,-0.73828124 0.117187,-0.421875 0.128906,-0.5273438 0.222656,-0.9023438 l 0.351563,-1.3945312 c 0.07031,-0.28125 0.07031,-0.2929688 0.07031,-0.3398438 0,-0.1640625 -0.117187,-0.2695312 -0.28125,-0.2695312 -0.246094,0 -0.386719,0.2226562 -0.421875,0.4453125 z m -0.644531,2.578125 c -0.04687,0.1757812 -0.04687,0.19921874 -0.199219,0.36328124 -0.445312,0.55078125 -0.84375,0.71484375 -1.125,0.71484375 -0.503906,0 -0.644531,-0.55078125 -0.644531,-0.93749999 0,-0.5039063 0.328125,-1.7226563 0.550781,-2.1796875 0.304688,-0.5976563 0.761719,-0.9609375 1.160156,-0.9609375 0.644532,0 0.785157,0.8203125 0.785157,0.8789062 0,0.058594 -0.02344,0.1171875 -0.03516,0.1640625 z m 0,0"
         style="fill:#ec008c;fill-opacity:1;fill-rule:nonzero;stroke:none" />
    </g>
    <g
       id="g24"
       aria-label="x&#10;n&#10;=b"
       transform="matrix(1.3333333,0,0,1.3333333,269.3,260.42933)">
      <path
         id="path25"
         d="m 3.3287109,-3.0114531 c 0.058594,-0.2578125 0.2929688,-1.171875 0.984375,-1.171875 0.046875,0 0.2929688,0 0.5039063,0.1289062 -0.28125,0.046875 -0.4804688,0.3046875 -0.4804688,0.5390625 0,0.1640625 0.1054688,0.3515625 0.375,0.3515625 0.2226563,0 0.5390625,-0.1875 0.5390625,-0.5859375 0,-0.515625 -0.5859375,-0.65625 -0.9257812,-0.65625 -0.5742188,0 -0.9257813,0.5273438 -1.0429688,0.7617188 -0.2578125,-0.65625 -0.7851562,-0.7617188 -1.078125,-0.7617188 -1.0429687,0 -1.60546871,1.2890625 -1.60546871,1.5351563 0,0.1054687 0.10546875,0.1054687 0.1171875,0.1054687 0.0820313,0 0.1171875,-0.023437 0.12890625,-0.1171875 0.33984376,-1.0546875 0.99609376,-1.3007812 1.33593746,-1.3007812 0.1875,0 0.5390625,0.09375 0.5390625,0.6679687 0,0.3046875 -0.1640625,0.9726563 -0.5390625,2.3671875 -0.1523437,0.62109377 -0.5039062,1.04296877 -0.9492187,1.04296877 -0.058594,0 -0.28125001,0 -0.49218751,-0.12890625 0.24609375,-0.0585937 0.46875001,-0.26953125 0.46875001,-0.5390625 0,-0.26953122 -0.22265626,-0.35156252 -0.37500001,-0.35156252 -0.29296875,0 -0.5390625,0.25781252 -0.5390625,0.57421877 0,0.45703125 0.4921875,0.65625 0.93750001,0.65625 0.65625,0 1.0078125,-0.69140625 1.0429687,-0.75 0.1171875,0.36328125 0.4804688,0.75 1.078125,0.75 1.0195313,0 1.59375,-1.27734377 1.59375,-1.53515627 0,-0.09375 -0.09375,-0.09375 -0.1289062,-0.09375 -0.082031,0 -0.1054688,0.035156 -0.1289063,0.1054688 -0.328125,1.06640622 -0.9960937,1.31249997 -1.3242187,1.31249997 -0.3867188,0 -0.5390625,-0.328125 -0.5390625,-0.65625 0,-0.22265625 0.058594,-0.44531247 0.1640625,-0.87890627 z m 0,0"
         style="fill:#ec008c;fill-opacity:1;fill-rule:nonzero;stroke:none" />
      <path
         id="path26"
         d="m 6.5484375,1.0608125 c -0.035156,0.082031 -0.070312,0.2578125 -0.070312,0.28125 0,0.1523437 0.1171875,0.2226562 0.234375,0.2226562 0.1289063,0 0.234375,-0.09375 0.2695313,-0.1523437 C 7.0171878,1.353781 7.0757818,1.1194062 7.110938,0.97878125 7.1460938,0.849875 7.2164063,0.52175 7.2632813,0.34596875 7.2984375,0.193625 7.3453125,0.04128125 7.3804688,-0.1110625 7.4625,-0.40403125 7.4742188,-0.462625 7.6734375,-0.743875 c 0.1992188,-0.28125 0.5273438,-0.6445313 1.0429688,-0.6445313 0.4101562,0 0.4101562,0.3632813 0.4101562,0.49218755 0,0.421875 -0.2929687,1.1953125 -0.4101562,1.48828125 -0.070312,0.1875 -0.1054688,0.2578125 -0.1054688,0.375 0,0.3632812 0.3046875,0.5976562 0.6679688,0.5976562 0.6914062,0 1.0078127,-0.96093745 1.0078127,-1.0664062 0,-0.09375 -0.09375,-0.09375 -0.117188,-0.09375 -0.09375,0 -0.105468,0.046875 -0.128906,0.1171875 C 9.8765625,1.08425 9.571875,1.3655 9.3023438,1.3655 9.15,1.3655 9.1265625,1.27175 9.1265625,1.1194062 c 0,-0.1523437 0.035156,-0.2460937 0.1523438,-0.56249995 0.09375,-0.2109375 0.375,-0.94921875 0.375,-1.34765625 0,-0.6679688 -0.5390625,-0.7851563 -0.9023438,-0.7851563 -0.5859375,0 -0.9726562,0.3515625 -1.1835937,0.63281255 -0.046875,-0.48046875 -0.4570313,-0.63281255 -0.75,-0.63281255 -0.2929688,0 -0.4570313,0.2109375 -0.5507813,0.375 -0.1523437,0.25781255 -0.2460937,0.65625005 -0.2460937,0.6914063 0,0.0820312 0.09375,0.0820312 0.1171875,0.0820312 0.09375,0 0.1054687,-0.0117188 0.1523437,-0.19921875 C 6.3960938,-1.0485625 6.525,-1.3884063 6.80625,-1.3884063 c 0.1757813,0 0.2226563,0.1523438 0.2226563,0.3398438 0,0.14062495 -0.058594,0.39843745 -0.1054688,0.58593745 -0.046875,0.1875 -0.1171875,0.46875 -0.1523437,0.62109375 z m 0,0"
         style="fill:#ec008c;fill-opacity:1;fill-rule:nonzero;stroke:none" />
      <path
         id="path27"
         d="m 20.728125,-3.2575469 c 0.152344,0 0.339844,0 0.339844,-0.1992187 0,-0.1992188 -0.1875,-0.1992188 -0.328125,-0.1992188 H 14.775 c -0.140625,0 -0.328125,0 -0.328125,0.1992188 0,0.1992187 0.1875,0.1992187 0.339844,0.1992187 z m 0.01172,1.9335938 c 0.140625,0 0.328125,0 0.328125,-0.1992188 0,-0.1992187 -0.1875,-0.1992187 -0.339844,-0.1992187 H 14.78672 c -0.152344,0 -0.339844,0 -0.339844,0.1992187 0,0.1992188 0.1875,0.1992188 0.328125,0.1992188 z m 0,0"
         style="fill:#ec008c;fill-opacity:1;fill-rule:nonzero;stroke:none" />
      <path
         id="path28"
         d="m 26.780859,-6.8083281 c 0,0 0,-0.1054688 -0.128906,-0.1054688 -0.222656,0 -0.949219,0.082031 -1.21875,0.1054688 -0.07031,0 -0.1875,0.011719 -0.1875,0.1992187 0,0.1171875 0.09375,0.1171875 0.246094,0.1171875 0.46875,0 0.492187,0.070312 0.492187,0.1640625 0,0.070312 -0.08203,0.4101563 -0.140625,0.6210938 l -0.808593,3.2460937 c -0.128907,0.5039063 -0.164063,0.65625 -0.164063,1.0078125 0,0.94921877 0.527344,1.55859377 1.265625,1.55859377 1.171875,0 2.402344,-1.47656247 2.402344,-2.91796877 0,-0.9023437 -0.527344,-1.59375 -1.324219,-1.59375 -0.457031,0 -0.867187,0.2929688 -1.171875,0.5976563 z m -0.9375,3.7734375 c 0.05859,-0.2226563 0.05859,-0.2460938 0.152344,-0.3515625 0.492188,-0.6445313 0.9375,-0.796875 1.195313,-0.796875 0.363281,0 0.632812,0.2929687 0.632812,0.9375 0,0.5859375 -0.328125,1.734375 -0.515625,2.109375 -0.328125,0.66796872 -0.785156,1.03124997 -1.171875,1.03124997 -0.339844,0 -0.667969,-0.26953125 -0.667969,-1.00781247 0,-0.1875 0,-0.3867188 0.164063,-1.0078125 z m 0,0"
         style="fill:#ec008c;fill-opacity:1;fill-rule:nonzero;stroke:none" />
    </g>
    <g
       id="g28"
       aria-label="x&#10;1"
       transform="matrix(1.3333333,0,0,1.3333333,148.60267,256.924)">
      <path
         id="path29"
         d="m 3.3272969,-3.0103828 c 0.058594,-0.2578125 0.2929687,-1.171875 0.984375,-1.171875 0.046875,0 0.2929687,0 0.5039062,0.1289062 -0.28125,0.046875 -0.4804687,0.3046875 -0.4804687,0.5390625 0,0.1640625 0.1054687,0.3515625 0.375,0.3515625 0.2226562,0 0.5390625,-0.1875 0.5390625,-0.5859375 0,-0.515625 -0.5859375,-0.65625 -0.9257813,-0.65625 -0.5742187,0 -0.9257812,0.5273438 -1.0429687,0.7617188 -0.2578125,-0.65625 -0.7851563,-0.7617188 -1.078125,-0.7617188 -1.0429688,0 -1.60546877,1.2890625 -1.60546877,1.5351563 0,0.1054687 0.10546875,0.1054687 0.1171875,0.1054687 0.0820313,0 0.1171875,-0.023437 0.12890625,-0.1171875 0.33984372,-1.0546875 0.99609372,-1.3007812 1.33593752,-1.3007812 0.1875,0 0.5390625,0.09375 0.5390625,0.6679687 0,0.3046875 -0.1640625,0.9726563 -0.5390625,2.3671875 -0.1523438,0.62109379 -0.5039063,1.04296879 -0.9492188,1.04296879 -0.058594,0 -0.28124997,0 -0.49218747,-0.12890625 0.24609375,-0.0585938 0.46874997,-0.26953125 0.46874997,-0.5390625 0,-0.26953124 -0.22265622,-0.35156254 -0.37499997,-0.35156254 -0.29296875,0 -0.5390625,0.25781254 -0.5390625,0.57421879 0,0.45703125 0.4921875,0.65625 0.93749997,0.65625 0.65625,0 1.0078125,-0.69140625 1.0429688,-0.75 0.1171875,0.36328125 0.4804687,0.75 1.078125,0.75 1.0195312,0 1.59375,-1.27734379 1.59375,-1.53515629 0,-0.09375 -0.09375,-0.09375 -0.1289063,-0.09375 -0.082031,0 -0.1054687,0.035156 -0.1289062,0.1054688 -0.328125,1.06640624 -0.9960938,1.31249999 -1.3242188,1.31249999 -0.3867187,0 -0.5390625,-0.328125 -0.5390625,-0.65625 0,-0.22265625 0.058594,-0.44531249 0.1640625,-0.87890629 z m 0,0"
         style="fill:#ec008c;fill-opacity:1;fill-rule:nonzero;stroke:none" />
      <path
         id="path30"
         d="m 8.0265156,-2.9342109 c 0,-0.1875 -0.011719,-0.1992188 -0.2109375,-0.1992188 -0.4453125,0.4335938 -1.078125,0.4453125 -1.359375,0.4453125 v 0.2460938 c 0.1640625,0 0.6210938,0 1.0078125,-0.1875 v 3.55078121 c 0,0.23437499 0,0.32812499 -0.6914062,0.32812499 H 6.5030781 v 0.2460938 c 0.1289063,-0.011719 0.984375,-0.023437 1.2421875,-0.023437 0.2109375,0 1.0898438,0.011719 1.2421875,0.023437 V 1.2493828 H 8.7296406 c -0.703125,0 -0.703125,-0.09375 -0.703125,-0.32812499 z m 0,0"
         style="fill:#ec008c;fill-opacity:1;fill-rule:nonzero;stroke:none" />
    </g>
    <g
       id="g30"
       aria-label="x&#10;i−1"
       transform="matrix(1.3333333,0,0,1.3333333,195.788,256.924)">
      <path
         id="path31"
         d="m 3.3289219,-3.0103828 c 0.058594,-0.2578125 0.2929687,-1.171875 0.984375,-1.171875 0.046875,0 0.2929687,0 0.5039062,0.1289062 -0.28125,0.046875 -0.4804687,0.3046875 -0.4804687,0.5390625 0,0.1640625 0.1054687,0.3515625 0.375,0.3515625 0.2226562,0 0.5390625,-0.1875 0.5390625,-0.5859375 0,-0.515625 -0.5859375,-0.65625 -0.9257813,-0.65625 -0.5742187,0 -0.9257812,0.5273438 -1.0429687,0.7617188 -0.2578125,-0.65625 -0.7851563,-0.7617188 -1.078125,-0.7617188 -1.0429688,0 -1.60546878,1.2890625 -1.60546878,1.5351563 0,0.1054687 0.10546875,0.1054687 0.1171875,0.1054687 0.0820313,0 0.1171875,-0.023437 0.12890625,-0.1171875 0.33984373,-1.0546875 0.99609373,-1.3007812 1.33593753,-1.3007812 0.1875,0 0.5390625,0.09375 0.5390625,0.6679687 0,0.3046875 -0.1640625,0.9726563 -0.5390625,2.3671875 -0.1523438,0.62109379 -0.5039063,1.04296879 -0.9492188,1.04296879 -0.058594,0 -0.28124998,0 -0.49218748,-0.12890625 0.24609375,-0.0585938 0.46874998,-0.26953125 0.46874998,-0.5390625 0,-0.26953124 -0.22265623,-0.35156254 -0.37499998,-0.35156254 -0.29296875,0 -0.5390625,0.25781254 -0.5390625,0.57421879 0,0.45703125 0.4921875,0.65625 0.93749998,0.65625 0.65625,0 1.0078125,-0.69140625 1.0429688,-0.75 0.1171875,0.36328125 0.4804687,0.75 1.078125,0.75 1.0195312,0 1.59375,-1.27734379 1.59375,-1.53515629 0,-0.09375 -0.09375,-0.09375 -0.1289063,-0.09375 -0.082031,0 -0.1054687,0.035156 -0.1289062,0.1054688 -0.328125,1.06640624 -0.9960938,1.31249999 -1.3242188,1.31249999 -0.3867187,0 -0.5390625,-0.328125 -0.5390625,-0.65625 0,-0.22265625 0.058594,-0.44531249 0.1640625,-0.87890629 z m 0,0"
         style="fill:#ec008c;fill-opacity:1;fill-rule:nonzero;stroke:none" />
      <path
         id="path32"
         d="m 7.9548984,-2.8638984 c 0,-0.1054688 -0.082031,-0.2578125 -0.28125,-0.2578125 -0.1875,0 -0.3867187,0.1757812 -0.3867187,0.375 0,0.1171875 0.082031,0.2695312 0.2695312,0.2695312 0.2109375,0 0.3984375,-0.1992187 0.3984375,-0.3867187 z M 6.5252109,0.67516406 c -0.023437,0.09375 -0.058594,0.17578125 -0.058594,0.29296875 0,0.32812499 0.28125,0.59765629 0.6679687,0.59765629 0.6914063,0 0.9960938,-0.96093754 0.9960938,-1.06640629 0,-0.09375 -0.082031,-0.09375 -0.1054688,-0.09375 -0.1054687,0 -0.1054687,0.046875 -0.140625,0.1171875 C 7.7322422,1.0853203 7.4275547,1.3665703 7.1463047,1.3665703 c -0.140625,0 -0.1757813,-0.082031 -0.1757813,-0.2460937 0,-0.15234379 0.058594,-0.29296879 0.1171875,-0.44531254 0.070312,-0.1875 0.140625,-0.375 0.2226563,-0.55078125 0.058594,-0.1640625 0.3164062,-0.80859375 0.3398437,-0.890625 0.023437,-0.0703125 0.046875,-0.15234375 0.046875,-0.22265625 0,-0.32812496 -0.28125,-0.58593746 -0.6679687,-0.58593746 -0.6914063,0 -1.0078125,0.94921871 -1.0078125,1.06640621 0,0.0820313 0.09375,0.0820313 0.1171875,0.0820313 0.09375,0 0.1054687,-0.0351563 0.1289062,-0.10546875 0.1757813,-0.59765616 0.4804688,-0.85546866 0.7382813,-0.85546866 0.1171875,0 0.1757812,0.058594 0.1757812,0.2460937 0,0.16406246 -0.035156,0.26953121 -0.2109375,0.70312496 z m 0,0"
         style="fill:#ec008c;fill-opacity:1;fill-rule:nonzero;stroke:none" />
      <path
         id="path33"
         d="m 13.702945,-0.07483594 c 0.105469,0 0.269532,0 0.269532,-0.17578125 0,-0.17578125 -0.152344,-0.17578125 -0.269532,-0.17578125 H 9.5427891 c -0.1054688,0 -0.28125,0 -0.28125,0.17578125 0,0.17578125 0.1640625,0.17578125 0.28125,0.17578125 z m 0,0"
         style="fill:#ec008c;fill-opacity:1;fill-rule:nonzero;stroke:none" />
      <path
         id="path34"
         d="m 17.072086,-2.9342109 c 0,-0.1875 -0.01172,-0.1992188 -0.210938,-0.1992188 -0.445312,0.4335938 -1.078125,0.4453125 -1.359375,0.4453125 v 0.2460938 c 0.164063,0 0.621094,0 1.007813,-0.1875 v 3.55078121 c 0,0.23437499 0,0.32812499 -0.691406,0.32812499 h -0.269532 v 0.2460938 c 0.128907,-0.011719 0.984375,-0.023437 1.242188,-0.023437 0.210937,0 1.089844,0.011719 1.242187,0.023437 V 1.2493828 h -0.257812 c -0.703125,0 -0.703125,-0.09375 -0.703125,-0.32812499 z m 0,0"
         style="fill:#ec008c;fill-opacity:1;fill-rule:nonzero;stroke:none" />
    </g>
    <g
       id="g34"
       aria-label="x&#10;i"
       transform="matrix(1.3333333,0,0,1.3333333,229.19467,256.924)">
      <path
         id="path35"
         d="m 3.3286094,-3.0103828 c 0.058594,-0.2578125 0.2929687,-1.171875 0.984375,-1.171875 0.046875,0 0.2929687,0 0.5039062,0.1289062 -0.28125,0.046875 -0.4804687,0.3046875 -0.4804687,0.5390625 0,0.1640625 0.1054687,0.3515625 0.375,0.3515625 0.2226562,0 0.5390625,-0.1875 0.5390625,-0.5859375 0,-0.515625 -0.5859375,-0.65625 -0.9257813,-0.65625 -0.5742187,0 -0.9257812,0.5273438 -1.0429687,0.7617188 -0.2578125,-0.65625 -0.7851563,-0.7617188 -1.078125,-0.7617188 -1.0429688,0 -1.60546878,1.2890625 -1.60546878,1.5351563 0,0.1054687 0.10546875,0.1054687 0.1171875,0.1054687 0.0820313,0 0.1171875,-0.023437 0.12890625,-0.1171875 0.33984373,-1.0546875 0.99609373,-1.3007812 1.33593753,-1.3007812 0.1875,0 0.5390625,0.09375 0.5390625,0.6679687 0,0.3046875 -0.1640625,0.9726563 -0.5390625,2.3671875 -0.1523438,0.62109379 -0.5039063,1.04296879 -0.9492188,1.04296879 -0.058594,0 -0.28124998,0 -0.49218748,-0.12890625 0.24609375,-0.0585938 0.46874998,-0.26953125 0.46874998,-0.5390625 0,-0.26953124 -0.22265623,-0.35156254 -0.37499998,-0.35156254 -0.29296875,0 -0.5390625,0.25781254 -0.5390625,0.57421879 0,0.45703125 0.4921875,0.65625 0.93749998,0.65625 0.65625,0 1.0078125,-0.69140625 1.0429688,-0.75 0.1171875,0.36328125 0.4804687,0.75 1.078125,0.75 1.0195312,0 1.59375,-1.27734379 1.59375,-1.53515629 0,-0.09375 -0.09375,-0.09375 -0.1289063,-0.09375 -0.082031,0 -0.1054687,0.035156 -0.1289062,0.1054688 -0.328125,1.06640624 -0.9960938,1.31249999 -1.3242188,1.31249999 -0.3867187,0 -0.5390625,-0.328125 -0.5390625,-0.65625 0,-0.22265625 0.058594,-0.44531249 0.1640625,-0.87890629 z m 0,0"
         style="fill:#ec008c;fill-opacity:1;fill-rule:nonzero;stroke:none" />
      <path
         id="path36"
         d="m 7.9545859,-2.8638984 c 0,-0.1054688 -0.082031,-0.2578125 -0.28125,-0.2578125 -0.1875,0 -0.3867187,0.1757812 -0.3867187,0.375 0,0.1171875 0.082031,0.2695312 0.2695312,0.2695312 0.2109375,0 0.3984375,-0.1992187 0.3984375,-0.3867187 z M 6.5248984,0.67516406 c -0.023437,0.09375 -0.058594,0.17578125 -0.058594,0.29296875 0,0.32812499 0.28125,0.59765629 0.6679687,0.59765629 0.6914063,0 0.9960938,-0.96093754 0.9960938,-1.06640629 0,-0.09375 -0.082031,-0.09375 -0.1054688,-0.09375 -0.1054687,0 -0.1054687,0.046875 -0.140625,0.1171875 C 7.7319297,1.0853203 7.4272422,1.3665703 7.1459922,1.3665703 c -0.140625,0 -0.1757813,-0.082031 -0.1757813,-0.2460937 0,-0.15234379 0.058594,-0.29296879 0.1171875,-0.44531254 0.070312,-0.1875 0.140625,-0.375 0.2226563,-0.55078125 0.058594,-0.1640625 0.3164062,-0.80859375 0.3398437,-0.890625 0.023437,-0.0703125 0.046875,-0.15234375 0.046875,-0.22265625 0,-0.32812496 -0.28125,-0.58593746 -0.6679687,-0.58593746 -0.6914063,0 -1.0078125,0.94921871 -1.0078125,1.06640621 0,0.0820313 0.09375,0.0820313 0.1171875,0.0820313 0.09375,0 0.1054687,-0.0351563 0.1289062,-0.10546875 0.1757813,-0.59765616 0.4804688,-0.85546866 0.7382813,-0.85546866 0.1171875,0 0.1757812,0.058594 0.1757812,0.2460937 0,0.16406246 -0.035156,0.26953121 -0.2109375,0.70312496 z m 0,0"
         style="fill:#ec008c;fill-opacity:1;fill-rule:nonzero;stroke:none" />
    </g>
    <path
       id="path37"
       d="m 4.5811797,-0.91310938 c 0,-0.23437502 0,-0.28125002 -0.140625,-0.28125002 -0.609375,-0.011719 -1.59375,-0.09375 -2.484375,-0.5273437 -1.07812501,-0.5390625 -1.48828126,-1.171875 -1.73437501,-1.5585938 -0.0351563,-0.046875 -0.09375,-0.046875 -0.2226562525,-0.046875 -0.2343749975,0 -0.2343749975,0.011719 -0.2343749975,0.2578125 v 0.1640625 C 1.1124297,-0.46779688 3.3507109,9.53125e-4 4.3702422,9.53125e-4 c 0.2109375,0 0.2109375,-0.011718755 0.2109375,-0.281250005 z m 0,0"
       style="fill:#ec008c;fill-opacity:1;fill-rule:nonzero;stroke:none"
       aria-label="|"
       transform="matrix(0,-1.3333333,1.3333333,0,238.83467,246.22933)" />
    <path
       id="path38"
       d="M 0,0 H 13.814 V 1.195 H 0 Z"
       style="fill:#ec008c;fill-opacity:1;fill-rule:nonzero;stroke:none"
       transform="matrix(0,-1.3333333,-1.3333333,0,238.83467,240.252)" />
    <path
       id="path39"
       d="m 4.7236328,1.7118906 c -1.359375,-2.43749998 -3.5976562,-2.90625 -4.61718749,-2.90625 -0.2109375,0 -0.2109375,0.011719 -0.2109375,0.28125002 v 0.6328125 c 0,0.234375 0,0.281250005 0.140625,0.281250005 0.609375,0.011718745 1.59374999,0.093749995 2.49609379,0.527343745 1.078125,0.53906253 1.4882812,1.17187503 1.734375,1.55859373 0.023437,0.046875 0.082031,0.046875 0.2226562,0.046875 0.2226563,0 0.234375,-0.011719 0.234375,-0.2578125 z m 4.3417969,-2.62499998 c 0,-0.26953122 0,-0.28125002 -0.2109375,-0.28125002 -1.0195313,0 -3.2578125,0.48046877 -4.6054688,2.90625 v 0.1640625 c 0,0.2460938 0,0.2578125 0.234375,0.2578125 0.1875,0 0.1992188,-0.011719 0.2460938,-0.082031 0.8203125,-1.30078128 2.1914062,-2.01562503 4.21875,-2.050781275 0.1171875,0 0.1171875,-0.070312505 0.1171875,-0.281250005 z m 0,0"
       style="fill:#ec008c;fill-opacity:1;fill-rule:nonzero;stroke:none"
       aria-label="{z"
       transform="matrix(0,-1.3333333,1.3333333,0,238.83467,221.83333)" />
    <path
       id="path40"
       d="M 0,0 H 13.814 V 1.195 H 0 Z"
       style="fill:#ec008c;fill-opacity:1;fill-rule:nonzero;stroke:none"
       transform="matrix(0,-1.3333333,-1.3333333,0,238.83467,209.87733)" />
    <path
       id="path41"
       d="m 4.7238828,-3.0693594 c 0,-0.2460937 -0.011719,-0.2578125 -0.234375,-0.2578125 -0.1992187,0 -0.1992187,0.011719 -0.2578125,0.082031 -0.8085937,1.3007812 -2.1914062,2.015625 -4.20703124,2.0507812 -0.12890625,0 -0.12890625,0.070312 -0.12890625,0.28125002 v 0.6328125 c 0,0.26953125 0,0.281250005 0.2109375,0.281250005 1.01953129,0 3.25781249,-0.480468755 4.61718749,-2.906250025 z m 0,0"
       style="fill:#ec008c;fill-opacity:1;fill-rule:nonzero;stroke:none"
       aria-label="}"
       transform="matrix(0,-1.3333333,1.3333333,0,238.83467,191.45867)" />
    <g
       id="g41"
       aria-label="f(x&#10;i&#10;)"
       transform="matrix(1.3333333,0,0,1.3333333,238.19867,210.288)">
      <path
         id="path42"
         d="m 2.5785391,-2.3312344 h 0.609375 c 0.1171875,0 0.1992187,0 0.1992187,-0.1523437 0,-0.09375 -0.070312,-0.09375 -0.1875,-0.09375 H 2.6136953 c 0.1875,-0.9726563 0.1875,-0.984375 0.2109375,-1.1015625 0.023437,-0.1289063 0.035156,-0.1757813 0.1289063,-0.2578125 0.070312,-0.046875 0.1289062,-0.070312 0.2109375,-0.070312 0.09375,0 0.1992187,0.011719 0.28125,0.046875 -0.1171875,0.046875 -0.234375,0.1875 -0.234375,0.328125 0,0.1289062 0.1054687,0.2226562 0.2460937,0.2226562 0.1640625,0 0.3398438,-0.1289062 0.3398438,-0.3632812 0,-0.328125 -0.3632813,-0.4335938 -0.6328125,-0.4335938 -0.2695313,0 -0.6679688,0.1289063 -0.8554688,0.7265625 -0.046875,0.140625 -0.058594,0.2695313 -0.1054687,0.4804688 -0.023437,0.1757812 -0.035156,0.2460937 -0.070312,0.421875 h -0.492188 c -0.1171875,0 -0.2109375,0 -0.2109375,0.1523437 0,0.09375 0.082031,0.09375 0.1875,0.09375 h 0.46875 c -0.234375,1.33593753 -0.3164063,1.79296878 -0.3398438,1.89843753 -0.1875,1.03125 -0.2109375,1.08984375 -0.2695312,1.1953125 -0.082031,0.140625 -0.1875,0.25781247 -0.3398438,0.25781247 -0.035156,0 -0.16406249,-0.011719 -0.25781249,-0.046875 0.1171875,-0.046875 0.22265629,-0.1875 0.22265629,-0.328125 0,-0.12890625 -0.09375,-0.22265625 -0.24609379,-0.22265625 -0.15234375,0 -0.33984375,0.12890625 -0.33984375,0.36328125 0,0.328125 0.375,0.4335938 0.62109374,0.4335938 0.328125,0 0.5625,-0.2695313 0.6679688,-0.39843755 0.2578125,-0.3515625 0.3867187,-1.06640625 0.3984375,-1.11328125 z m 0,0"
         style="fill:#ec008c;fill-opacity:1;fill-rule:nonzero;stroke:none" />
      <path
         id="path43"
         d="m 6.6566641,1.3484531 c -0.65625,-0.50390622 -1.1953125,-1.44140622 -1.1953125,-2.8359375 0,-1.3828125 0.5273437,-2.34375 1.1953125,-2.8476562 0,-0.011719 0.023437,-0.035156 0.023437,-0.058594 0,-0.035156 -0.035156,-0.082031 -0.1054688,-0.082031 -0.1054687,0 -1.546875,0.9375 -1.546875,2.9882812 0,2.03906253 1.4414063,2.9765625 1.546875,2.9765625 0.070312,0 0.1054688,-0.046875 0.1054688,-0.082031 0,-0.023437 -0.023437,-0.046875 -0.023437,-0.058594 z m 0,0"
         style="fill:#ec008c;fill-opacity:1;fill-rule:nonzero;stroke:none" />
      <path
         id="path44"
         d="m 10.520922,-2.3429531 c -0.210938,0.058594 -0.257813,0.2226562 -0.257813,0.3164062 0,0.1875 0.152344,0.234375 0.246094,0.234375 0.164063,0 0.339844,-0.140625 0.339844,-0.375 0,-0.328125 -0.351563,-0.46875 -0.65625,-0.46875 -0.3984376,0 -0.6328126,0.3046875 -0.7031251,0.421875 -0.070312,-0.1523437 -0.3046875,-0.421875 -0.75,-0.421875 -0.6914063,0 -1.0898438,0.7148438 -1.0898438,0.9257813 0,0.023437 0.023437,0.082031 0.1054688,0.082031 0.082031,0 0.1054687,-0.035156 0.1171875,-0.09375 0.1523437,-0.4804687 0.5625,-0.7148437 0.8554687,-0.7148437 0.2929688,0 0.375,0.1875 0.375,0.3867187 0,0.070312 0,0.1289063 -0.046875,0.3164063 -0.140625,0.5507812 -0.2695312,1.08984373 -0.2929687,1.17187498 -0.09375,0.22265625 -0.3046875,0.421875 -0.5625,0.421875 -0.035156,0 -0.1992188,0 -0.3398438,-0.0820313 0.234375,-0.0820313 0.2578125,-0.28125 0.2578125,-0.328125 0,-0.15234375 -0.1171875,-0.234375 -0.234375,-0.234375 -0.1757812,0 -0.3515625,0.12890625 -0.3515625,0.375 0,0.33984375 0.375,0.46875 0.65625,0.46875 0.3398438,0 0.5859375,-0.234375 0.703125,-0.421875 0.1171875,0.2578125 0.4101563,0.421875 0.75,0.421875 0.7031254,0 1.0898434,-0.7265625 1.0898434,-0.9140625 0,-0.0117188 0,-0.09375 -0.105468,-0.09375 -0.08203,0 -0.09375,0.046875 -0.117188,0.10546875 -0.175781,0.515625 -0.5976561,0.703125 -0.8437499,0.703125 -0.234375,0 -0.3867187,-0.12890625 -0.3867187,-0.375 0,-0.1171875 0.023437,-0.24609375 0.082031,-0.45703125 l 0.1875,-0.77343758 c 0.058594,-0.234375 0.09375,-0.3398437 0.2109375,-0.4921875 0.082031,-0.082031 0.234375,-0.1992187 0.4218751,-0.1992187 0.03516,0 0.210938,0 0.339844,0.09375 z m 0,0"
         style="fill:#ec008c;fill-opacity:1;fill-rule:nonzero;stroke:none" />
      <path
         id="path45"
         d="m 13.295336,-1.8449062 c 0,-0.1171875 -0.08203,-0.2109375 -0.210938,-0.2109375 -0.140625,0 -0.304687,0.1289062 -0.304687,0.2929687 0,0.140625 0.105469,0.2109375 0.210937,0.2109375 0.164063,0 0.304688,-0.140625 0.304688,-0.2929687 z m 0.234375,2.39062495 c 0,-0.0703125 -0.08203,-0.0703125 -0.105469,-0.0703125 -0.08203,0 -0.08203,0.0234375 -0.117187,0.1171875 C 13.225023,0.862125 13.002367,1.143375 12.756273,1.143375 c -0.117187,0 -0.152343,-0.082031 -0.152343,-0.1875 0,-0.10546875 0.02344,-0.1640625 0.05859,-0.2578125 0.04687,-0.09375 0.08203,-0.19921875 0.105469,-0.26953125 0.02344,-0.0351563 0.222656,-0.50390625 0.28125,-0.6796875 0.04687,-0.10546875 0.07031,-0.1640625 0.07031,-0.24609375 0,-0.24609375 -0.222657,-0.4453125 -0.539063,-0.4453125 -0.527344,0 -0.796875,0.64453125 -0.796875,0.7734375 0,0.0703125 0.07031,0.0703125 0.105469,0.0703125 0.08203,0 0.08203,-0.0234375 0.105469,-0.10546875 0.117187,-0.3515625 0.351562,-0.5625 0.5625,-0.5625 0.09375,0 0.152343,0.046875 0.152343,0.1875 0,0.0117188 0,0.0820312 -0.02344,0.17578125 -0.03516,0.09375 -0.257813,0.62109375 -0.328125,0.796875 -0.03516,0.0820313 -0.03516,0.09375 -0.117188,0.2578125 -0.02344,0.0703125 -0.04687,0.140625 -0.04687,0.22265625 0,0.25781255 0.234375,0.44531255 0.539063,0.44531255 0.515625,0 0.796875,-0.65625005 0.796875,-0.77343755 z m 0,0"
         style="fill:#ec008c;fill-opacity:1;fill-rule:nonzero;stroke:none" />
      <path
         id="path46"
         d="m 16.602953,-1.4874844 c 0,-2.0507812 -1.441406,-2.9882812 -1.558594,-2.9882812 -0.07031,0 -0.08203,0.046875 -0.08203,0.082031 0,0.035156 0,0.035156 0.105469,0.1289063 0.539062,0.46875 1.101562,1.3476562 1.101562,2.7773437 0,1.26562503 -0.445312,2.21484378 -1.125,2.7773438 -0.08203,0.082031 -0.08203,0.082031 -0.08203,0.1171875 0,0.035156 0.01172,0.082031 0.08203,0.082031 0.117188,0 1.558594,-0.93749997 1.558594,-2.9765625 z m 0,0"
         style="fill:#ec008c;fill-opacity:1;fill-rule:nonzero;stroke:none" />
    </g>
    <path
       id="path47"
       d="m 4.5821406,-0.91496094 c 0,-0.23437496 0,-0.28124996 -0.140625,-0.28124996 -0.609375,-0.011719 -1.59375,-0.09375 -2.484375,-0.5273438 -1.07812498,-0.5390625 -1.48828123,-1.171875 -1.73437498,-1.5585937 -0.0351563,-0.046875 -0.09375,-0.046875 -0.222656245,-0.046875 -0.234375005,0 -0.234375005,0.011719 -0.234375005,0.2578125 v 0.1640625 c 1.34765623,2.43749996 3.58593753,2.9062499625 4.60546873,2.9062499625 0.2109375,0 0.2109375,-0.0117187525 0.2109375,-0.2812500025 z m 0,0"
       style="fill:#ec008c;fill-opacity:1;fill-rule:nonzero;stroke:none"
       aria-label="|"
       transform="matrix(-1.3333333,0,0,-1.3333333,156.11733,117.89333)" />
    <path
       id="path48"
       d="M 0,0 H 1.566 V 1.195 H 0 Z"
       style="fill:#ec008c;fill-opacity:1;fill-rule:nonzero;stroke:none"
       transform="matrix(-1.3333333,0,0,1.3333333,150.14,117.89333)" />
    <path
       id="path49"
       d="m 4.7235703,1.7100391 c -1.359375,-2.43750004 -3.5976562,-2.90625 -4.61718749,-2.90625 -0.2109375,0 -0.2109375,0.011719 -0.2109375,0.28124996 v 0.6328125 c 0,0.234375 0,0.2812500025 0.140625,0.2812500025 C 0.64544531,0.01082031 1.6298203,0.09285156 2.5321641,0.52644531 3.6102891,1.0655078 4.0204453,1.6983203 4.2665391,2.0850391 c 0.023437,0.046875 0.082031,0.046875 0.2226562,0.046875 0.2226563,0 0.234375,-0.011719 0.234375,-0.2578125 z m 4.3417969,-2.62500004 c 0,-0.26953126 0,-0.28124996 -0.2109375,-0.28124996 -1.0195313,0 -3.2578125,0.48046871 -4.6054688,2.90625 v 0.1640625 c 0,0.2460937 0,0.2578125 0.234375,0.2578125 0.1875,0 0.1992188,-0.011719 0.2460938,-0.082031 0.8203125,-1.30078124 2.1914062,-2.01562499 4.21875,-2.0507812375 0.1171875,0 0.1171875,-0.0703125025 0.1171875,-0.2812500025 z m 0,0"
       style="fill:#ec008c;fill-opacity:1;fill-rule:nonzero;stroke:none"
       aria-label="{z"
       transform="matrix(-1.3333333,0,0,-1.3333333,148.052,117.89333)" />
    <path
       id="path50"
       d="M 0,0 H 1.566 V 1.195 H 0 Z"
       style="fill:#ec008c;fill-opacity:1;fill-rule:nonzero;stroke:none"
       transform="matrix(-1.3333333,0,0,1.3333333,136.09733,117.89333)" />
    <path
       id="path51"
       d="m 4.7237969,-3.0712109 c 0,-0.2460938 -0.011719,-0.2578125 -0.234375,-0.2578125 -0.1992188,0 -0.1992188,0.011719 -0.2578125,0.082031 -0.8085938,1.3007813 -2.1914063,2.015625 -4.20703128,2.0507813 -0.12890625,0 -0.12890625,0.070312 -0.12890625,0.28124996 v 0.6328125 c 0,0.26953125 0,0.2812500025 0.2109375,0.2812500025 1.01953123,0 3.25781253,-0.4804687525 4.61718753,-2.9062499625 z m 0,0"
       style="fill:#ec008c;fill-opacity:1;fill-rule:nonzero;stroke:none"
       aria-label="}"
       transform="matrix(-1.3333333,0,0,-1.3333333,134.00933,117.89333)" />
    <g
       id="g51"
       aria-label="∆x"
       transform="matrix(1.3333333,0,0,1.3333333,132.74267,113.98533)">
      <path
         id="path52"
         d="m 4.4058906,-6.9499375 c -0.070312,-0.1289062 -0.09375,-0.1875 -0.2578125,-0.1875 -0.1757812,0 -0.1992187,0.058594 -0.2578125,0.1875 l -3.37499997,6.75 c -0.046875,0.09375 -0.046875,0.10546875 -0.046875,0.1171875 0,0.08203125 0.0585938,0.08203125 0.22265625,0.08203125 H 7.6051094 c 0.1523437,0 0.2109375,0 0.2109375,-0.08203125 0,-0.01171875 0,-0.0234375 -0.046875,-0.1171875 z m -0.5859375,0.8085938 2.6835938,5.3789062 H 1.1363594 Z m 0,0"
         style="fill:#ec008c;fill-opacity:1;fill-rule:nonzero;stroke:none" />
      <path
         id="path53"
         d="m 11.6305,-3.0124375 c 0.05859,-0.2578125 0.292969,-1.171875 0.984375,-1.171875 0.04687,0 0.292969,0 0.503906,0.1289063 -0.28125,0.046875 -0.480468,0.3046875 -0.480468,0.5390625 0,0.1640625 0.105468,0.3515625 0.375,0.3515625 0.222656,0 0.539062,-0.1875 0.539062,-0.5859375 0,-0.515625 -0.585937,-0.65625 -0.925781,-0.65625 -0.574219,0 -0.925781,0.5273437 -1.042969,0.7617187 -0.257812,-0.65625 -0.785156,-0.7617187 -1.078125,-0.7617187 -1.0429687,0 -1.6054687,1.2890625 -1.6054687,1.5351562 0,0.1054688 0.1054687,0.1054688 0.1171875,0.1054688 0.082031,0 0.1171875,-0.023437 0.1289062,-0.1171875 0.3398438,-1.0546875 0.996094,-1.3007813 1.335938,-1.3007813 0.1875,0 0.539062,0.09375 0.539062,0.6679688 0,0.3046875 -0.164062,0.9726562 -0.539062,2.3671875 -0.152344,0.6210937 -0.5039067,1.0429687 -0.9492192,1.0429687 -0.058594,0 -0.28125,0 -0.4921875,-0.12890625 0.2460937,-0.0585938 0.46875,-0.26953125 0.46875,-0.5390625 0,-0.26953125 -0.2226563,-0.35156245 -0.375,-0.35156245 -0.2929688,0 -0.5390625,0.25781245 -0.5390625,0.5742187 0,0.45703125 0.4921875,0.65625 0.9375,0.65625 0.6562502,0 1.0078122,-0.69140625 1.0429692,-0.75 0.117187,0.36328125 0.480468,0.75 1.078125,0.75 1.019531,0 1.59375,-1.2773437 1.59375,-1.5351562 0,-0.09375 -0.09375,-0.09375 -0.128907,-0.09375 -0.08203,0 -0.105468,0.035156 -0.128906,0.1054687 -0.328125,1.06640625 -0.996094,1.3125 -1.324219,1.3125 -0.386718,0 -0.539062,-0.328125 -0.539062,-0.65625 0,-0.22265625 0.05859,-0.4453125 0.164062,-0.8789062 z m 0,0"
         style="fill:#ec008c;fill-opacity:1;fill-rule:nonzero;stroke:none" />
    </g>
  </g>
</svg>
