<?xml version="1.0" encoding="UTF-8" standalone="no"?>
<!-- Created with Inkscape (http://www.inkscape.org/) -->

<svg
   version="1.1"
   id="svg1"
   width="410.78668"
   height="186.96793"
   viewBox="0 0 410.78668 186.96793"
   sodipodi:docname="5.1-parabola-izqder.svg"
   inkscape:version="1.4.2 (f4327f4, 2025-05-13)"
   xmlns:inkscape="http://www.inkscape.org/namespaces/inkscape"
   xmlns:sodipodi="http://sodipodi.sourceforge.net/DTD/sodipodi-0.dtd"
   xmlns="http://www.w3.org/2000/svg"
   xmlns:svg="http://www.w3.org/2000/svg">
  <defs
     id="defs1" />
  <sodipodi:namedview
     id="namedview1"
     pagecolor="#ffffff"
     bordercolor="#000000"
     borderopacity="0.25"
     inkscape:showpageshadow="2"
     inkscape:pageopacity="0.0"
     inkscape:pagecheckerboard="0"
     inkscape:deskcolor="#d1d1d1"
     inkscape:zoom="2.2241536"
     inkscape:cx="203.89779"
     inkscape:cy="95.991571"
     inkscape:window-width="1920"
     inkscape:window-height="1009"
     inkscape:window-x="-8"
     inkscape:window-y="-8"
     inkscape:window-maximized="1"
     inkscape:current-layer="g1">
    <inkscape:page
       x="0"
       y="0"
       inkscape:label="4"
       id="page1"
       width="410.78668"
       height="186.96793"
       margin="0"
       bleed="0" />
  </sodipodi:namedview>
  <g
     id="g1"
     inkscape:groupmode="layer"
     inkscape:label="4"
     transform="translate(-38.060963,-85.246093)">
    <path
       id="path2"
       d="M -34.01628,0 H 112.92938"
       style="fill:none;stroke:#000000;stroke-width:0.3985;stroke-linecap:butt;stroke-linejoin:miter;stroke-miterlimit:10;stroke-dasharray:none;stroke-opacity:1"
       transform="matrix(1.3333333,0,0,-1.3333333,83.416,241.97733)" />
    <path
       id="path3"
       d="M -1.19551,1.59401 C -1.09587,0.99626 0,0.09961 0.29886,0 0,-0.09961 -1.09587,-0.99626 -1.19551,-1.59401"
       style="fill:none;stroke:#000000;stroke-width:0.31879;stroke-linecap:round;stroke-linejoin:round;stroke-miterlimit:10;stroke-dasharray:none;stroke-opacity:1"
       transform="matrix(1.3333333,0,0,-1.3333333,233.98851,241.97733)" />
    <path
       id="path4"
       d="m 3.6455859,-3.2942969 c 0.070312,-0.28125 0.3164063,-1.2890625 1.078125,-1.2890625 0.058594,0 0.3164063,0 0.5507813,0.140625 -0.3046875,0.058594 -0.5273438,0.328125 -0.5273438,0.5859375 0,0.1757813 0.1171875,0.3867188 0.4101563,0.3867188 0.2460937,0 0.5976562,-0.1992188 0.5976562,-0.6328125 0,-0.5625 -0.6445312,-0.7265625 -1.0195312,-0.7265625 -0.6328125,0 -1.0195313,0.5859375 -1.1484375,0.8320312 -0.2695313,-0.7148437 -0.8554688,-0.8320312 -1.171875,-0.8320312 -1.1367188,0 -1.75781251,1.4179687 -1.75781251,1.6875 0,0.1054687 0.10546875,0.1054687 0.12890625,0.1054687 0.0820313,0 0.1171875,-0.023437 0.140625,-0.1171875 0.37499996,-1.1601562 1.08984376,-1.4296875 1.46484376,-1.4296875 0.2109375,0 0.5859375,0.09375 0.5859375,0.7265625 0,0.3398438 -0.1875,1.078125 -0.5859375,2.6015625 -0.1757813,0.67968753 -0.5625,1.13671878 -1.0429688,1.13671878 -0.058594,0 -0.3164062,0 -0.53906246,-0.140625 0.26953126,-0.0585938 0.51562496,-0.29296875 0.51562496,-0.59765625 0,-0.29296873 -0.2460937,-0.37500003 -0.41015621,-0.37500003 -0.328125,0 -0.59765625,0.28125003 -0.59765625,0.63281253 0,0.50390625 0.55078125,0.71484375 1.03124996,0.71484375 0.7148438,0 1.1015625,-0.76171875 1.1367188,-0.83203125 0.1289062,0.41015625 0.5273437,0.83203125 1.1835937,0.83203125 1.125,0 1.7460938,-1.40624998 1.7460938,-1.67578128 0,-0.1054687 -0.1054688,-0.1054687 -0.1289063,-0.1054687 -0.1054687,0 -0.1289062,0.035156 -0.140625,0.1171875 -0.3632812,1.16015623 -1.1132812,1.42968748 -1.453125,1.42968748 -0.4335937,0 -0.609375,-0.3515625 -0.609375,-0.7265625 0,-0.23437498 0.070312,-0.48046878 0.1875,-0.96093748 z m 0,0"
       style="fill:#000000;fill-opacity:1;fill-rule:nonzero;stroke:none"
       aria-label="x"
       transform="matrix(1.3333333,0,0,1.3333333,230.44,253.35333)" />
    <path
       id="path5"
       d="m 0,-22.67752 v 135.6069"
       style="fill:none;stroke:#000000;stroke-width:0.3985;stroke-linecap:butt;stroke-linejoin:miter;stroke-miterlimit:10;stroke-dasharray:none;stroke-opacity:1"
       transform="matrix(1.3333333,0,0,-1.3333333,83.416,241.97733)" />
    <path
       id="path6"
       d="M -1.19551,1.59401 C -1.09587,0.99626 0,0.09961 0.29886,0 0,-0.09961 -1.09587,-0.99626 -1.19551,-1.59401"
       style="fill:none;stroke:#000000;stroke-width:0.31879;stroke-linecap:round;stroke-linejoin:round;stroke-miterlimit:10;stroke-dasharray:none;stroke-opacity:1"
       transform="matrix(0,-1.3333333,-1.3333333,0,83.416,91.404827)" />
    <path
       id="path7"
       d="m 5.2972031,-4.1603672 c 0.046875,-0.1523437 0.046875,-0.1757812 0.046875,-0.2460937 0,-0.1992188 -0.1523437,-0.2929688 -0.3164062,-0.2929688 -0.1054688,0 -0.28125,0.058594 -0.375,0.2226563 -0.023437,0.058594 -0.1171875,0.3984375 -0.1523438,0.5976562 -0.082031,0.28125 -0.1523437,0.5742188 -0.2226562,0.8671875 l -0.4921875,1.96875 c -0.046875,0.16406251 -0.515625,0.92578126 -1.2304688,0.92578126 -0.5625,0 -0.6796875,-0.48046875 -0.6796875,-0.89062496 0,-0.4921875 0.1875,-1.171875 0.5625,-2.1328125 0.1757813,-0.4453125 0.2109375,-0.5742188 0.2109375,-0.7851563 0,-0.4921875 -0.3515625,-0.9023437 -0.890625,-0.9023437 -1.04296872,0 -1.44140622,1.5820312 -1.44140622,1.6875 0,0.1054687 0.10546875,0.1054687 0.12890625,0.1054687 0.10546875,0 0.1171875,-0.023437 0.17578125,-0.1992187 0.29296875,-1.0195313 0.72656252,-1.3476563 1.10156252,-1.3476563 0.09375,0 0.2695312,0 0.2695312,0.3515625 0,0.2695313 -0.1054687,0.5507813 -0.1757812,0.7617188 -0.4453125,1.1601562 -0.6328125,1.78125 -0.6328125,2.2851562 0,0.97265626 0.6796875,1.30078126 1.3242187,1.30078126 0.421875,0 0.796875,-0.1875 1.1015625,-0.4921875 -0.140625,0.57421875 -0.2695312,1.1015625 -0.703125,1.68750004 -0.2929687,0.3632812 -0.703125,0.6796875 -1.2070312,0.6796875 -0.1523438,0 -0.6445313,-0.023437 -0.83203127,-0.4570313 0.17578127,0 0.31640627,0 0.48046877,-0.1289062 0.1054687,-0.09375 0.2109375,-0.234375 0.2109375,-0.44531254 0,-0.33984375 -0.2929688,-0.38671875 -0.3984375,-0.38671875 -0.25781252,0 -0.60937502,0.17578125 -0.60937502,0.71484379 0,0.5390625 0.48046872,0.9492187 1.14843752,0.9492187 1.125,0 2.25,-0.9960937 2.5546875,-2.22656249 z m 0,0"
       style="fill:#000000;fill-opacity:1;fill-rule:nonzero;stroke:none"
       aria-label="y"
       transform="matrix(1.3333333,0,0,1.3333333,70.648,92.512)" />
    <path
       id="path8"
       d="m -11.33876,1.70073 c 0,0 0.64529,-0.18895 0.89313,-0.25745 C -10.1978,1.37477 -9.80035,1.26959 -9.55254,1.20694 -9.3047,1.14429 -8.90724,1.04851 -8.65942,0.99171 -8.41158,0.93492 -8.01414,0.84846 -7.76631,0.79758 -7.51848,0.7467 -7.12102,0.66994 -6.8732,0.62491 -6.62538,0.57986 -6.22792,0.51222 -5.9801,0.473 -5.73228,0.43378 -5.33482,0.37556 -5.08699,0.34221 -4.83916,0.30884 -4.44173,0.26003 -4.19388,0.23253 -3.94606,0.205 -3.5486,0.16557 -3.30077,0.14392 -3.05295,0.12228 -2.6555,0.09224 -2.40767,0.07646 -2.15985,0.06068 -1.76239,0.04002 -1.51456,0.03009 -1.26672,0.02016 -0.8693,0.0089 -0.62144,0.00482 -0.37363,7.5e-4 0.02379,-0.00108 0.27162,6.6e-4 0.51944,0.00244 0.91689,0.01001 1.16472,0.01762 1.41255,0.02525 1.81,0.04219 2.05783,0.0557 2.30566,0.06918 2.7031,0.09552 2.95093,0.11485 3.19876,0.13422 3.59622,0.16995 3.84404,0.19514 4.09187,0.22035 4.48933,0.26547 4.73715,0.29654 4.985,0.32759 5.38243,0.38211 5.63026,0.41902 5.8781,0.45593 6.27554,0.51985 6.52338,0.56264 6.7712,0.6054 7.16864,0.67871 7.41647,0.72733 7.66429,0.77596 8.06175,0.85867 8.30959,0.91316 8.55742,0.96765 8.95485,1.05974 9.2027,1.12009 c 0.24782,0.06033 0.64528,0.16183 0.89311,0.22802 0.24782,0.06619 0.64526,0.17708 0.89309,0.24915 0.24782,0.07207 0.64529,0.19238 0.8931,0.27025 0.24785,0.07788 0.64528,0.20724 0.89313,0.29101 0.24782,0.08378 0.64528,0.22318 0.8931,0.31281 0.24783,0.08963 0.64527,0.23779 0.8931,0.33324 0.24784,0.09544 0.64529,0.25333 0.89312,0.35469 0.24784,0.10133 0.64527,0.26858 0.8931,0.37579 0.24783,0.10719 0.64529,0.28383 0.89311,0.3969 0.24782,0.11305 0.64528,0.29913 0.89311,0.418 0.24783,0.11886 0.64527,0.31398 0.89312,0.43876 0.24781,0.12477 0.64527,0.32994 0.89311,0.46057 0.24782,0.13063 0.64526,0.34459 0.8931,0.48099 0.24781,0.1364 0.64527,0.35974 0.8931,0.50209 0.24784,0.14235 0.64527,0.37569 0.89312,0.52388 0.24782,0.14821 0.64528,0.39029 0.8931,0.54431 0.24783,0.15402 0.64528,0.40584 0.89309,0.56577 0.24784,0.15993 0.64529,0.42109 0.89312,0.58687 0.24784,0.16578 0.64527,0.43638 0.89311,0.60797 0.24783,0.17158 0.64529,0.45126 0.89311,0.62875 0.24783,0.17749 0.64528,0.46719 0.8931,0.65053 0.24785,0.18335 0.64528,0.48186 0.89312,0.67097 0.24782,0.18911 0.64527,0.49709 0.8931,0.69205 0.24782,0.19496 0.64528,0.51225 0.89311,0.71318 0.24782,0.20091 0.64527,0.52818 0.8931,0.73497 0.24783,0.20679 0.64528,0.54285 0.89313,0.75539 0.24782,0.21252 0.64528,0.558 0.89309,0.77649 0.24784,0.21849 0.64528,0.57396 0.8931,0.79831 0.24783,0.22433 0.6453,0.58859 0.89311,0.81869 0.24785,0.23012 0.64529,0.60375 0.89312,0.83983 0.24783,0.23607 0.64529,0.61969 0.89311,0.86162 0.24783,0.24191 0.64528,0.63434 0.8931,0.88203 0.24784,0.24768 0.64529,0.64951 0.89311,0.90314 0.24783,0.25365 0.64528,0.66545 0.89311,0.92494 0.24782,0.25949 0.64528,0.6801 0.89311,0.94536 0.24782,0.26526 0.64527,0.69536 0.8931,0.96648 0.24783,0.27108 0.64528,0.71049 0.89313,0.98756 0.24781,0.27707 0.64526,0.7265 0.8931,1.00938 0.24781,0.28287 0.64527,0.7408 0.8931,1.02944 0.24782,0.28863 0.64527,0.75625 0.8931,1.0509 0.24784,0.29463 0.64528,0.7722 0.89311,1.07269 0.24784,0.30053 0.6453,0.78687 0.89312,1.09313 0.24783,0.30626 0.64527,0.802 0.89309,1.11423 0.24784,0.31221 0.6453,0.81794 0.89312,1.13601 0.24784,0.31807 0.64527,0.83266 0.89311,1.15644 0.24783,0.32377 0.64528,0.84745 0.89311,1.1772 0.24782,0.32973 0.64526,0.86369 0.8931,1.19933 0.24783,0.33564 0.64528,0.87836 0.89311,1.21978 0.24783,0.34138 0.64526,0.89366 0.89311,1.24088 0.24782,0.34721 0.64528,0.90846 0.89312,1.26162 0.24781,0.35315 0.64526,0.9247 0.89309,1.28377 0.24783,0.35907 0.64528,0.93941 0.89311,1.3042 0.24784,0.36478 0.64528,0.95416 0.8931,1.32495 0.24783,0.37077 0.6453,0.97081 0.89311,1.34744 0.24783,0.37665 0.64528,0.98482 0.8931,1.36718 0.24785,0.38237 0.64529,1.00025 0.89313,1.38862 0.24783,0.38836 0.64527,1.01625 0.89309,1.41043 0.24784,0.39417 0.6453,1.03058 0.89311,1.4305 0.24782,0.39993 0.64528,1.04602 0.89312,1.45195 0.24783,0.40594 0.64526,1.06201 0.89311,1.47374 0.24782,0.41173 0.64528,1.07631 0.89311,1.49382 0.24782,0.41749 0.64527,1.09192 0.8931,1.51527 0.24783,0.42335 0.64528,1.10674 0.89311,1.53605 0.24783,0.4293 0.64526,1.123 0.89311,1.55816 0.24782,0.43518 0.64528,1.13733 0.8931,1.57826 0.24783,0.44094 0.64528,1.15278 0.8931,1.5997 0.24785,0.44693 0.64529,1.16878 0.89312,1.62151 0.24784,0.45274 0.64528,1.18312 0.8931,1.64159 0.24783,0.45845 0.6453,1.19816 0.89311,1.66267 0.24784,0.46449 0.64528,1.21481 0.8931,1.68518 0.24785,0.47035 0.64528,1.22887 0.89313,1.7049 0.24782,0.47603 0.64526,1.24398 0.89309,1.72601 0.24782,0.48202 0.64528,1.26021 0.89312,1.74812 0.24781,0.48795 0.64528,1.27493 0.89311,1.76859 0.24783,0.49363 0.64526,1.28987 0.89311,1.78932 0.24782,0.49946 0.8931,1.81045 0.8931,1.81045"
       style="fill:none;stroke:#eb0a36;stroke-width:0.79701;stroke-linecap:butt;stroke-linejoin:miter;stroke-miterlimit:10;stroke-dasharray:none;stroke-opacity:1"
       transform="matrix(1.3333333,0,0,-1.3333333,83.416,241.97733)" />
    <g
       id="g8"
       aria-label="y=x&#10;2"
       transform="matrix(1.3333333,0,0,1.3333333,109.644,170.50133)">
      <path
         id="path9"
         d="m 4.8402422,-3.797875 c 0.046875,-0.140625 0.046875,-0.1523437 0.046875,-0.2226562 0,-0.1875 -0.140625,-0.2695313 -0.2929688,-0.2695313 -0.1054687,0 -0.2578125,0.058594 -0.3515625,0.1992188 -0.023437,0.058594 -0.09375,0.3632812 -0.140625,0.5390625 -0.070312,0.2578125 -0.140625,0.5273437 -0.1992187,0.796875 l -0.4453125,1.7929687 c -0.035156,0.15234375 -0.46875,0.85546875 -1.125,0.85546875 -0.5039063,0 -0.6210938,-0.4453125 -0.6210938,-0.80859375 0,-0.4570312 0.1757813,-1.078125 0.515625,-1.9570312 0.1523438,-0.4101563 0.1992188,-0.515625 0.1992188,-0.7148438 0,-0.4453125 -0.328125,-0.8203125 -0.8203125,-0.8203125 -0.94921876,0 -1.31250001,1.453125 -1.31250001,1.5351563 0,0.1054687 0.09375,0.1054687 0.1171875,0.1054687 0.09375,0 0.10546875,-0.023437 0.15234375,-0.1875 0.26953125,-0.9375 0.66796876,-1.2304687 1.00781246,-1.2304687 0.082031,0 0.2578125,0 0.2578125,0.3164062 0,0.2460938 -0.1054687,0.515625 -0.1757812,0.703125 -0.3984375,1.0546875 -0.5742188,1.6171875 -0.5742188,2.0859375 0,0.890625 0.6210938,1.18359375 1.21875,1.18359375 0.3867188,0 0.7265625,-0.1640625 0.9960938,-0.4453125 C 3.1644609,0.17478125 3.0472734,0.66696875 2.6488359,1.1943125 2.3910234,1.5341563 2.0160234,1.827125 1.5589922,1.827125 c -0.140625,0 -0.59765626,-0.035156 -0.76171876,-0.421875 0.1640625,0 0.29296876,0 0.43359376,-0.1171875 0.09375,-0.09375 0.1992187,-0.2226562 0.1992187,-0.41015625 0,-0.31640625 -0.2695312,-0.3515625 -0.375,-0.3515625 -0.22265621,0 -0.55078121,0.1640625 -0.55078121,0.64453125 0,0.5039063 0.43359375,0.8671875 1.05468751,0.8671875 1.0195312,0 2.0507812,-0.9023437 2.3320312,-2.02734375 z m 0,0"
         style="fill:#eb0a36;fill-opacity:1;fill-rule:nonzero;stroke:none" />
      <path
         id="path10"
         d="m 14.856844,-3.2588125 c 0.152343,0 0.339843,0 0.339843,-0.1992187 0,-0.1992188 -0.1875,-0.1992188 -0.328125,-0.1992188 H 8.9037187 c -0.140625,0 -0.328125,0 -0.328125,0.1992188 0,0.1992187 0.1875,0.1992187 0.3398438,0.1992187 z m 0.01172,1.9335938 c 0.140625,0 0.328125,0 0.328125,-0.1992188 0,-0.1992187 -0.1875,-0.1992187 -0.339843,-0.1992187 H 8.9154375 c -0.1523438,0 -0.3398438,0 -0.3398438,0.1992187 0,0.1992188 0.1875,0.1992188 0.328125,0.1992188 z m 0,0"
         style="fill:#eb0a36;fill-opacity:1;fill-rule:nonzero;stroke:none" />
      <path
         id="path11"
         d="m 21.850008,-3.0127187 c 0.05859,-0.2578125 0.292969,-1.171875 0.984375,-1.171875 0.04687,0 0.292969,0 0.503906,0.1289062 -0.28125,0.046875 -0.480469,0.3046875 -0.480469,0.5390625 0,0.1640625 0.105469,0.3515625 0.375,0.3515625 0.222657,0 0.539063,-0.1875 0.539063,-0.5859375 0,-0.515625 -0.585938,-0.65625 -0.925781,-0.65625 -0.574219,0 -0.925782,0.5273438 -1.042969,0.7617188 -0.257813,-0.65625 -0.785156,-0.7617188 -1.078125,-0.7617188 -1.042969,0 -1.605469,1.2890625 -1.605469,1.5351563 0,0.1054687 0.105469,0.1054687 0.117188,0.1054687 0.08203,0 0.117187,-0.023437 0.128906,-0.1171875 0.339844,-1.0546875 0.996094,-1.3007812 1.335937,-1.3007812 0.1875,0 0.539063,0.09375 0.539063,0.6679687 0,0.3046875 -0.164063,0.9726563 -0.539063,2.3671875 -0.152343,0.62109375 -0.503906,1.04296875 -0.949218,1.04296875 -0.05859,0 -0.28125,0 -0.492188,-0.12890625 0.246094,-0.0585938 0.46875,-0.26953125 0.46875,-0.5390625 0,-0.2695312 -0.222656,-0.3515625 -0.375,-0.3515625 -0.292969,0 -0.539062,0.2578125 -0.539062,0.57421875 0,0.45703125 0.492187,0.65625 0.9375,0.65625 0.65625,0 1.007812,-0.69140625 1.042968,-0.75 0.117188,0.36328125 0.480469,0.75 1.078125,0.75 1.019532,0 1.59375,-1.27734375 1.59375,-1.53515625 0,-0.09375 -0.09375,-0.09375 -0.128906,-0.09375 -0.08203,0 -0.105469,0.035156 -0.128906,0.1054688 -0.328125,1.0664062 -0.996094,1.31249995 -1.324219,1.31249995 -0.386719,0 -0.539062,-0.328125 -0.539062,-0.65625 0,-0.22265625 0.05859,-0.44531245 0.164062,-0.87890625 z m 0,0"
         style="fill:#eb0a36;fill-opacity:1;fill-rule:nonzero;stroke:none" />
      <path
         id="path12"
         d="m 27.73575,-4.8818594 h -0.234375 c -0.02344,0.1523438 -0.08203,0.5625 -0.175781,0.6328125 -0.05859,0.035156 -0.597657,0.035156 -0.691407,0.035156 h -1.289062 c 0.738281,-0.6445313 0.984375,-0.84375 1.394531,-1.171875 0.515625,-0.4101563 0.996094,-0.84375 0.996094,-1.5 0,-0.84375 -0.738281,-1.359375 -1.628906,-1.359375 -0.867188,0 -1.453125,0.609375 -1.453125,1.2421875 0,0.3632812 0.304687,0.3984375 0.375,0.3984375 0.164062,0 0.375,-0.1171875 0.375,-0.375 0,-0.1289063 -0.05859,-0.3632813 -0.421875,-0.3632813 0.222656,-0.5039062 0.691406,-0.65625 1.019531,-0.65625 0.703125,0 1.066406,0.5507813 1.066406,1.1132813 0,0.609375 -0.433594,1.0898437 -0.65625,1.3359375 l -1.6875,1.6640625 c -0.07031,0.058594 -0.07031,0.070312 -0.07031,0.2695312 h 2.882812 z m 0,0"
         style="fill:#eb0a36;fill-opacity:1;fill-rule:nonzero;stroke:none" />
    </g>
    <path
       id="path13"
       d="M 0,0 V 4.91501 H 19.27603 V 0 Z"
       style="fill:#9999ff;fill-opacity:0.35;fill-rule:nonzero;stroke:#000000;stroke-width:0.3985;stroke-linecap:butt;stroke-linejoin:miter;stroke-miterlimit:10;stroke-dasharray:none;stroke-opacity:0.35"
       transform="matrix(1.3333333,0,0,-1.3333333,83.416,241.97733)" />
    <path
       id="path14"
       d="M 19.27603,0 V 19.66115 H 38.55208 V 0 Z"
       style="fill:#9999ff;fill-opacity:0.35;fill-rule:nonzero;stroke:#000000;stroke-width:0.3985;stroke-linecap:butt;stroke-linejoin:miter;stroke-miterlimit:10;stroke-dasharray:none;stroke-opacity:0.35"
       transform="matrix(1.3333333,0,0,-1.3333333,83.416,241.97733)" />
    <path
       id="path15"
       d="M 38.55208,0 V 44.2384 H 57.82811 V 0 Z"
       style="fill:#9999ff;fill-opacity:0.35;fill-rule:nonzero;stroke:#000000;stroke-width:0.3985;stroke-linecap:butt;stroke-linejoin:miter;stroke-miterlimit:10;stroke-dasharray:none;stroke-opacity:0.35"
       transform="matrix(1.3333333,0,0,-1.3333333,83.416,241.97733)" />
    <path
       id="path16"
       d="M 57.82811,0 V 78.64642 H 77.10416 V 0 Z"
       style="fill:#9999ff;fill-opacity:0.35;fill-rule:nonzero;stroke:#000000;stroke-width:0.3985;stroke-linecap:butt;stroke-linejoin:miter;stroke-miterlimit:10;stroke-dasharray:none;stroke-opacity:0.35"
       transform="matrix(1.3333333,0,0,-1.3333333,83.416,241.97733)" />
    <path
       id="path17"
       d="m 4.5819922,-3.1869844 c 0,-0.796875 -0.046875,-1.59375 -0.3984375,-2.3320312 -0.4570313,-0.9609375 -1.2773438,-1.1132813 -1.6875,-1.1132813 -0.5976563,0 -1.3359375,0.2578125 -1.73437501,1.1835938 -0.328125,0.6914062 -0.375,1.4648437 -0.375,2.2617187 0,0.75 0.046875,1.640625 0.4453125,2.40234378 0.43359371,0.80859375 1.16015621,1.0078125 1.65234371,1.0078125 0.5390625,0 1.2890625,-0.2109375 1.734375,-1.16015625 C 4.5351172,-1.6283906 4.5819922,-2.4018281 4.5819922,-3.1869844 Z M 2.4843359,5.15625e-4 c -0.3867187,0 -0.984375,-0.246093745 -1.1601562,-1.207031225 -0.1054688,-0.5976563 -0.1054688,-1.5117188 -0.1054688,-2.0976563 0,-0.6445312 0,-1.3007812 0.082031,-1.8398437 0.1875,-1.1835938 0.9257812,-1.265625 1.1835937,-1.265625 0.328125,0 0.984375,0.1757812 1.171875,1.1601562 0.09375,0.5625 0.09375,1.3125 0.09375,1.9453125 0,0.75 0,1.4179688 -0.1054687,2.0625 C 3.4921484,-0.30417187 2.9296484,5.15625e-4 2.4843359,5.15625e-4 Z m 0,0"
       style="fill:#000000;fill-opacity:1;fill-rule:nonzero;stroke:none"
       aria-label="0"
       transform="matrix(1.3333333,0,0,1.3333333,65.613333,252.304)" />
    <path
       id="path18"
       d="m 2.9305156,-6.3737422 c 0,-0.234375 0,-0.2578125 -0.234375,-0.2578125 -0.609375,0.6328125 -1.4882812,0.6328125 -1.80468748,0.6328125 v 0.3164063 c 0.19921878,0 0.78515628,0 1.30078128,-0.2578125 v 5.15624996 c 0,0.3515625 -0.035156,0.48046875 -0.9257813,0.48046875 H 0.95004687 v 0.3046875 C 1.3016094,-0.03389844 2.1570781,-0.03389844 2.5555156,-0.03389844 c 0.3984375,0 1.265625,0 1.6171875,0.03515625 v -0.3046875 H 3.8562969 c -0.9023438,0 -0.9257813,-0.1171875 -0.9257813,-0.48046875 z m 0,0"
       style="fill:#000000;fill-opacity:1;fill-rule:nonzero;stroke:none"
       aria-label="1"
       transform="matrix(1.3333333,0,0,1.3333333,182.89733,255.65067)" />
    <path
       id="path19"
       d="M -34.01628,0 H 112.92938"
       style="fill:none;stroke:#000000;stroke-width:0.3985;stroke-linecap:butt;stroke-linejoin:miter;stroke-miterlimit:10;stroke-dasharray:none;stroke-opacity:1"
       transform="matrix(1.3333333,0,0,-1.3333333,294.152,241.148)" />
    <path
       id="path20"
       d="M -1.19551,1.59401 C -1.09587,0.99626 0,0.09961 0.29886,0 0,-0.09961 -1.09587,-0.99626 -1.19551,-1.59401"
       style="fill:none;stroke:#000000;stroke-width:0.31879;stroke-linecap:round;stroke-linejoin:round;stroke-miterlimit:10;stroke-dasharray:none;stroke-opacity:1"
       transform="matrix(1.3333333,0,0,-1.3333333,444.72451,241.148)" />
    <path
       id="path21"
       d="m 3.6433672,-3.2933906 c 0.070312,-0.28125 0.3164062,-1.2890625 1.078125,-1.2890625 0.058594,0 0.3164062,0 0.5507812,0.140625 -0.3046875,0.058594 -0.5273437,0.328125 -0.5273437,0.5859375 0,0.1757812 0.1171875,0.3867187 0.4101562,0.3867187 0.2460938,0 0.5976563,-0.1992187 0.5976563,-0.6328125 0,-0.5625 -0.6445313,-0.7265625 -1.0195313,-0.7265625 -0.6328125,0 -1.0195312,0.5859375 -1.1484375,0.8320313 -0.2695312,-0.7148438 -0.8554687,-0.8320313 -1.171875,-0.8320313 -1.1367187,0 -1.75781246,1.4179688 -1.75781246,1.6875 0,0.1054688 0.10546875,0.1054688 0.12890625,0.1054688 0.0820313,0 0.1171875,-0.023437 0.140625,-0.1171875 0.37500001,-1.1601563 1.08984371,-1.4296875 1.46484371,-1.4296875 0.2109375,0 0.5859375,0.09375 0.5859375,0.7265625 0,0.3398437 -0.1875,1.078125 -0.5859375,2.6015625 -0.1757812,0.67968748 -0.5625,1.13671873 -1.0429687,1.13671873 -0.058594,0 -0.3164063,0 -0.53906251,-0.140625 0.26953121,-0.0585938 0.51562501,-0.29296875 0.51562501,-0.59765625 0,-0.29296878 -0.2460938,-0.37499998 -0.41015626,-0.37499998 -0.328125,0 -0.59765625,0.28124998 -0.59765625,0.63281248 0,0.50390625 0.55078125,0.71484375 1.03125001,0.71484375 0.7148437,0 1.1015625,-0.76171875 1.1367187,-0.83203125 0.1289063,0.41015625 0.5273438,0.83203125 1.1835938,0.83203125 1.125,0 1.7460937,-1.40625003 1.7460937,-1.67578123 0,-0.1054688 -0.1054687,-0.1054688 -0.1289062,-0.1054688 -0.1054688,0 -0.1289063,0.035156 -0.140625,0.1171875 -0.3632813,1.16015628 -1.1132813,1.42968753 -1.453125,1.42968753 -0.4335938,0 -0.609375,-0.3515625 -0.609375,-0.7265625 0,-0.23437503 0.070312,-0.48046873 0.1875,-0.96093753 z m 0,0"
       style="fill:#000000;fill-opacity:1;fill-rule:nonzero;stroke:none"
       aria-label="x"
       transform="matrix(1.3333333,0,0,1.3333333,441.17733,252.524)" />
    <path
       id="path22"
       d="m 0,-22.67752 v 135.6069"
       style="fill:none;stroke:#000000;stroke-width:0.3985;stroke-linecap:butt;stroke-linejoin:miter;stroke-miterlimit:10;stroke-dasharray:none;stroke-opacity:1"
       transform="matrix(1.3333333,0,0,-1.3333333,294.152,241.148)" />
    <path
       id="path23"
       d="M -1.19551,1.59401 C -1.09587,0.99626 0,0.09961 0.29886,0 0,-0.09961 -1.09587,-0.99626 -1.19551,-1.59401"
       style="fill:none;stroke:#000000;stroke-width:0.31879;stroke-linecap:round;stroke-linejoin:round;stroke-miterlimit:10;stroke-dasharray:none;stroke-opacity:1"
       transform="matrix(0,-1.3333333,-1.3333333,0,294.152,90.575493)" />
    <path
       id="path24"
       d="m 5.2979141,-4.1604609 c 0.046875,-0.1523438 0.046875,-0.1757813 0.046875,-0.2460938 0,-0.1992187 -0.1523438,-0.2929687 -0.3164063,-0.2929687 -0.1054687,0 -0.28125,0.058594 -0.375,0.2226562 -0.023437,0.058594 -0.1171875,0.3984375 -0.1523437,0.5976563 -0.082031,0.28125 -0.1523438,0.5742187 -0.2226563,0.8671875 l -0.4921875,1.96875 c -0.046875,0.16406246 -0.515625,0.92578121 -1.2304687,0.92578121 -0.5625,0 -0.6796875,-0.48046875 -0.6796875,-0.89062501 0,-0.4921875 0.1875,-1.171875 0.5625,-2.1328125 0.1757812,-0.4453125 0.2109375,-0.5742187 0.2109375,-0.7851562 0,-0.4921875 -0.3515625,-0.9023438 -0.890625,-0.9023438 -1.04296879,0 -1.44140629,1.5820313 -1.44140629,1.6875 0,0.1054688 0.10546875,0.1054688 0.12890625,0.1054688 0.10546875,0 0.1171875,-0.023437 0.17578125,-0.1992188 0.29296875,-1.0195312 0.72656249,-1.3476562 1.10156249,-1.3476562 0.09375,0 0.2695313,0 0.2695313,0.3515625 0,0.2695312 -0.1054688,0.5507812 -0.1757813,0.7617187 -0.4453125,1.1601563 -0.6328125,1.78125 -0.6328125,2.2851563 0,0.97265621 0.6796875,1.30078121 1.3242188,1.30078121 0.421875,0 0.796875,-0.1875 1.1015625,-0.4921875 -0.140625,0.57421875 -0.2695313,1.1015625 -0.703125,1.68749999 -0.2929688,0.3632813 -0.703125,0.6796875 -1.2070313,0.6796875 -0.1523437,0 -0.6445312,-0.023437 -0.83203124,-0.4570312 0.17578124,0 0.31640624,0 0.48046874,-0.1289063 0.1054688,-0.09375 0.2109375,-0.234375 0.2109375,-0.44531249 0,-0.33984375 -0.2929687,-0.38671875 -0.3984375,-0.38671875 -0.25781249,0 -0.60937499,0.17578125 -0.60937499,0.71484374 0,0.5390625 0.48046879,0.9492188 1.14843749,0.9492188 1.125,0 2.25,-0.9960938 2.5546875,-2.22656254 z m 0,0"
       style="fill:#000000;fill-opacity:1;fill-rule:nonzero;stroke:none"
       aria-label="y"
       transform="matrix(1.3333333,0,0,1.3333333,281.38533,91.684)" />
    <path
       id="path25"
       d="m -11.33876,1.70073 c 0,0 0.64529,-0.18895 0.89313,-0.25745 C -10.1978,1.37477 -9.80035,1.26959 -9.55254,1.20694 -9.3047,1.14429 -8.90724,1.04851 -8.65942,0.99171 -8.41158,0.93492 -8.01414,0.84846 -7.76631,0.79758 -7.51848,0.7467 -7.12102,0.66994 -6.8732,0.62491 -6.62538,0.57986 -6.22792,0.51222 -5.9801,0.473 -5.73228,0.43378 -5.33482,0.37556 -5.08699,0.34221 -4.83916,0.30884 -4.44173,0.26003 -4.19388,0.23253 -3.94606,0.205 -3.5486,0.16557 -3.30077,0.14392 -3.05295,0.12228 -2.6555,0.09224 -2.40767,0.07646 -2.15985,0.06068 -1.76239,0.04002 -1.51456,0.03009 -1.26672,0.02016 -0.8693,0.0089 -0.62144,0.00482 -0.37363,7.5e-4 0.02379,-0.00108 0.27162,6.6e-4 0.51944,0.00244 0.91689,0.01001 1.16472,0.01762 1.41255,0.02525 1.81,0.04219 2.05783,0.0557 2.30566,0.06918 2.7031,0.09552 2.95093,0.11485 3.19876,0.13422 3.59622,0.16995 3.84404,0.19514 4.09187,0.22035 4.48933,0.26547 4.73715,0.29654 4.985,0.32759 5.38243,0.38211 5.63026,0.41902 5.8781,0.45593 6.27554,0.51985 6.52338,0.56264 6.7712,0.6054 7.16864,0.67871 7.41647,0.72733 7.66429,0.77596 8.06175,0.85867 8.30959,0.91316 8.55742,0.96765 8.95485,1.05974 9.2027,1.12009 c 0.24782,0.06033 0.64528,0.16183 0.89311,0.22802 0.24782,0.06619 0.64526,0.17708 0.89309,0.24915 0.24782,0.07207 0.64529,0.19238 0.8931,0.27025 0.24785,0.07788 0.64528,0.20724 0.89313,0.29101 0.24782,0.08378 0.64528,0.22318 0.8931,0.31281 0.24783,0.08963 0.64527,0.23779 0.8931,0.33324 0.24784,0.09544 0.64529,0.25333 0.89312,0.35469 0.24784,0.10133 0.64527,0.26858 0.8931,0.37579 0.24783,0.10719 0.64529,0.28383 0.89311,0.3969 0.24782,0.11305 0.64528,0.29913 0.89311,0.418 0.24783,0.11886 0.64527,0.31398 0.89312,0.43876 0.24781,0.12477 0.64527,0.32994 0.89311,0.46057 0.24782,0.13063 0.64526,0.34459 0.8931,0.48099 0.24781,0.1364 0.64527,0.35974 0.8931,0.50209 0.24784,0.14235 0.64527,0.37569 0.89312,0.52388 0.24782,0.14821 0.64528,0.39029 0.8931,0.54431 0.24783,0.15402 0.64528,0.40584 0.89309,0.56577 0.24784,0.15993 0.64529,0.42109 0.89312,0.58687 0.24784,0.16578 0.64527,0.43638 0.89311,0.60797 0.24783,0.17158 0.64529,0.45126 0.89311,0.62875 0.24783,0.17749 0.64528,0.46719 0.8931,0.65053 0.24785,0.18335 0.64528,0.48186 0.89312,0.67097 0.24782,0.18911 0.64527,0.49709 0.8931,0.69205 0.24782,0.19496 0.64528,0.51225 0.89311,0.71318 0.24782,0.20091 0.64527,0.52818 0.8931,0.73497 0.24783,0.20679 0.64528,0.54285 0.89313,0.75539 0.24782,0.21252 0.64528,0.558 0.89309,0.77649 0.24784,0.21849 0.64528,0.57396 0.8931,0.79831 0.24783,0.22433 0.6453,0.58859 0.89311,0.81869 0.24785,0.23012 0.64529,0.60375 0.89312,0.83983 0.24783,0.23607 0.64529,0.61969 0.89311,0.86162 0.24783,0.24191 0.64528,0.63434 0.8931,0.88203 0.24784,0.24768 0.64529,0.64951 0.89311,0.90314 0.24783,0.25365 0.64528,0.66545 0.89311,0.92494 0.24782,0.25949 0.64528,0.6801 0.89311,0.94536 0.24782,0.26526 0.64527,0.69536 0.8931,0.96648 0.24783,0.27108 0.64528,0.71049 0.89313,0.98756 0.24781,0.27707 0.64526,0.7265 0.8931,1.00938 0.24781,0.28287 0.64527,0.7408 0.8931,1.02944 0.24782,0.28863 0.64527,0.75625 0.8931,1.0509 0.24784,0.29463 0.64528,0.7722 0.89311,1.07269 0.24784,0.30053 0.6453,0.78687 0.89312,1.09313 0.24783,0.30626 0.64527,0.802 0.89309,1.11423 0.24784,0.31221 0.6453,0.81794 0.89312,1.13601 0.24784,0.31807 0.64527,0.83266 0.89311,1.15644 0.24783,0.32377 0.64528,0.84745 0.89311,1.1772 0.24782,0.32973 0.64526,0.86369 0.8931,1.19933 0.24783,0.33564 0.64528,0.87836 0.89311,1.21978 0.24783,0.34138 0.64526,0.89366 0.89311,1.24088 0.24782,0.34721 0.64528,0.90846 0.89312,1.26162 0.24781,0.35315 0.64526,0.9247 0.89309,1.28377 0.24783,0.35907 0.64528,0.93941 0.89311,1.3042 0.24784,0.36478 0.64528,0.95416 0.8931,1.32495 0.24783,0.37077 0.6453,0.97081 0.89311,1.34744 0.24783,0.37665 0.64528,0.98482 0.8931,1.36718 0.24785,0.38237 0.64529,1.00025 0.89313,1.38862 0.24783,0.38836 0.64527,1.01625 0.89309,1.41043 0.24784,0.39417 0.6453,1.03058 0.89311,1.4305 0.24782,0.39993 0.64528,1.04602 0.89312,1.45195 0.24783,0.40594 0.64526,1.06201 0.89311,1.47374 0.24782,0.41173 0.64528,1.07631 0.89311,1.49382 0.24782,0.41749 0.64527,1.09192 0.8931,1.51527 0.24783,0.42335 0.64528,1.10674 0.89311,1.53605 0.24783,0.4293 0.64526,1.123 0.89311,1.55816 0.24782,0.43518 0.64528,1.13733 0.8931,1.57826 0.24783,0.44094 0.64528,1.15278 0.8931,1.5997 0.24785,0.44693 0.64529,1.16878 0.89312,1.62151 0.24784,0.45274 0.64528,1.18312 0.8931,1.64159 0.24783,0.45845 0.6453,1.19816 0.89311,1.66267 0.24784,0.46449 0.64528,1.21481 0.8931,1.68518 0.24785,0.47035 0.64528,1.22887 0.89313,1.7049 0.24782,0.47603 0.64526,1.24398 0.89309,1.72601 0.24782,0.48202 0.64528,1.26021 0.89312,1.74812 0.24781,0.48795 0.64528,1.27493 0.89311,1.76859 0.24783,0.49363 0.64526,1.28987 0.89311,1.78932 0.24782,0.49946 0.8931,1.81045 0.8931,1.81045"
       style="fill:none;stroke:#eb0a36;stroke-width:0.79701;stroke-linecap:butt;stroke-linejoin:miter;stroke-miterlimit:10;stroke-dasharray:none;stroke-opacity:1"
       transform="matrix(1.3333333,0,0,-1.3333333,294.152,241.148)" />
    <g
       id="g25"
       aria-label="y=x&#10;2"
       transform="matrix(1.3333333,0,0,1.3333333,320.38,169.672)">
      <path
         id="path26"
         d="m 4.8390234,-3.7969687 c 0.046875,-0.140625 0.046875,-0.1523438 0.046875,-0.2226563 0,-0.1875 -0.140625,-0.2695312 -0.2929687,-0.2695312 -0.1054688,0 -0.2578125,0.058594 -0.3515625,0.1992187 -0.023437,0.058594 -0.09375,0.3632813 -0.140625,0.5390625 -0.070312,0.2578125 -0.140625,0.5273438 -0.1992188,0.796875 l -0.4453125,1.79296875 c -0.035156,0.15234375 -0.46875,0.85546875 -1.125,0.85546875 -0.5039062,0 -0.6210937,-0.4453125 -0.6210937,-0.80859375 0,-0.45703125 0.1757812,-1.07812495 0.515625,-1.95703125 0.1523437,-0.4101562 0.1992187,-0.515625 0.1992187,-0.7148437 0,-0.4453125 -0.328125,-0.8203125 -0.8203125,-0.8203125 -0.94921871,0 -1.31249996,1.453125 -1.31249996,1.5351562 0,0.1054688 0.09375,0.1054688 0.1171875,0.1054688 0.09375,0 0.10546875,-0.023437 0.15234375,-0.1875 0.26953125,-0.9375 0.66796871,-1.2304688 1.00781251,-1.2304688 0.082031,0 0.2578125,0 0.2578125,0.3164063 0,0.2460937 -0.1054688,0.515625 -0.1757813,0.703125 -0.3984375,1.0546875 -0.5742187,1.6171875 -0.5742187,2.0859375 0,0.89062495 0.6210937,1.1835937 1.21875,1.1835937 0.3867187,0 0.7265625,-0.1640625 0.9960937,-0.4453125 C 3.1632422,0.1756875 3.0460547,0.667875 2.6476172,1.1952188 2.3898047,1.5350625 2.0148047,1.8280313 1.5577734,1.8280313 c -0.140625,0 -0.59765621,-0.035156 -0.76171871,-0.421875 0.1640625,0 0.29296871,0 0.43359371,-0.1171875 0.09375,-0.09375 0.1992188,-0.2226563 0.1992188,-0.4101563 0,-0.31640625 -0.2695313,-0.3515625 -0.375,-0.3515625 -0.22265626,0 -0.55078126,0.1640625 -0.55078126,0.6445313 0,0.5039062 0.43359375,0.8671875 1.05468746,0.8671875 1.0195313,0 2.0507813,-0.9023438 2.3320313,-2.0273438 z m 0,0"
         style="fill:#eb0a36;fill-opacity:1;fill-rule:nonzero;stroke:none" />
      <path
         id="path27"
         d="m 14.855625,-3.2579062 c 0.152344,0 0.339844,0 0.339844,-0.1992188 0,-0.1992187 -0.1875,-0.1992187 -0.328125,-0.1992187 H 8.9025 c -0.140625,0 -0.328125,0 -0.328125,0.1992187 0,0.1992188 0.1875,0.1992188 0.3398437,0.1992188 z m 0.01172,1.9335937 c 0.140625,0 0.328125,0 0.328125,-0.1992187 0,-0.1992188 -0.1875,-0.1992188 -0.339844,-0.1992188 H 8.9142187 c -0.1523437,0 -0.3398437,0 -0.3398437,0.1992188 0,0.1992187 0.1875,0.1992187 0.328125,0.1992187 z m 0,0"
         style="fill:#eb0a36;fill-opacity:1;fill-rule:nonzero;stroke:none" />
      <path
         id="path28"
         d="m 21.848789,-3.0118125 c 0.05859,-0.2578125 0.292969,-1.171875 0.984375,-1.171875 0.04687,0 0.292969,0 0.503906,0.1289063 -0.28125,0.046875 -0.480468,0.3046875 -0.480468,0.5390625 0,0.1640625 0.105468,0.3515625 0.375,0.3515625 0.222656,0 0.539062,-0.1875 0.539062,-0.5859375 0,-0.515625 -0.585937,-0.65625 -0.925781,-0.65625 -0.574219,0 -0.925781,0.5273437 -1.042969,0.7617187 -0.257812,-0.65625 -0.785156,-0.7617187 -1.078125,-0.7617187 -1.042969,0 -1.605469,1.2890625 -1.605469,1.5351562 0,0.1054688 0.105469,0.1054688 0.117188,0.1054688 0.08203,0 0.117187,-0.023437 0.128906,-0.1171875 0.339844,-1.0546875 0.996094,-1.3007813 1.335938,-1.3007813 0.1875,0 0.539062,0.09375 0.539062,0.6679688 0,0.3046875 -0.164062,0.9726562 -0.539062,2.3671875 -0.152344,0.6210937 -0.503907,1.0429687 -0.949219,1.0429687 -0.05859,0 -0.28125,0 -0.492188,-0.12890625 0.246094,-0.0585938 0.46875,-0.26953125 0.46875,-0.5390625 0,-0.26953125 -0.222656,-0.35156245 -0.375,-0.35156245 -0.292968,0 -0.539062,0.25781245 -0.539062,0.5742187 0,0.45703125 0.492187,0.65625 0.9375,0.65625 0.65625,0 1.007812,-0.69140625 1.042969,-0.75 0.117187,0.36328125 0.480468,0.75 1.078125,0.75 1.019531,0 1.59375,-1.2773437 1.59375,-1.5351562 0,-0.09375 -0.09375,-0.09375 -0.128907,-0.09375 -0.08203,0 -0.105468,0.035156 -0.128906,0.1054687 -0.328125,1.06640625 -0.996094,1.3125 -1.324219,1.3125 -0.386718,0 -0.539062,-0.328125 -0.539062,-0.65625 0,-0.22265625 0.05859,-0.4453125 0.164062,-0.8789062 z m 0,0"
         style="fill:#eb0a36;fill-opacity:1;fill-rule:nonzero;stroke:none" />
      <path
         id="path29"
         d="m 27.734531,-4.8809531 h -0.234375 c -0.02344,0.1523437 -0.08203,0.5625 -0.175781,0.6328125 -0.05859,0.035156 -0.597656,0.035156 -0.691406,0.035156 h -1.289063 c 0.738281,-0.6445312 0.984375,-0.84375 1.394531,-1.171875 0.515625,-0.4101562 0.996094,-0.84375 0.996094,-1.5 0,-0.84375 -0.738281,-1.359375 -1.628906,-1.359375 -0.867188,0 -1.453125,0.609375 -1.453125,1.2421875 0,0.3632813 0.304687,0.3984375 0.375,0.3984375 0.164062,0 0.375,-0.1171875 0.375,-0.375 0,-0.1289062 -0.05859,-0.3632812 -0.421875,-0.3632812 0.222656,-0.5039063 0.691406,-0.65625 1.019531,-0.65625 0.703125,0 1.066406,0.5507812 1.066406,1.1132812 0,0.609375 -0.433593,1.0898438 -0.65625,1.3359375 l -1.6875,1.6640625 c -0.07031,0.058594 -0.07031,0.070312 -0.07031,0.2695313 h 2.882812 z m 0,0"
         style="fill:#eb0a36;fill-opacity:1;fill-rule:nonzero;stroke:none" />
    </g>
    <path
       id="path30"
       d="M 0,0 V 0 H 19.27603 V 0 Z"
       style="fill:#9999ff;fill-opacity:0.35;fill-rule:nonzero;stroke:#000000;stroke-width:0.3985;stroke-linecap:butt;stroke-linejoin:miter;stroke-miterlimit:10;stroke-dasharray:none;stroke-opacity:0.35"
       transform="matrix(1.3333333,0,0,-1.3333333,294.152,241.148)" />
    <path
       id="path31"
       d="M 19.27603,0 V 4.91501 H 38.55208 V 0 Z"
       style="fill:#9999ff;fill-opacity:0.35;fill-rule:nonzero;stroke:#000000;stroke-width:0.3985;stroke-linecap:butt;stroke-linejoin:miter;stroke-miterlimit:10;stroke-dasharray:none;stroke-opacity:0.35"
       transform="matrix(1.3333333,0,0,-1.3333333,294.152,241.148)" />
    <path
       id="path32"
       d="M 38.55208,0 V 19.66115 H 57.82811 V 0 Z"
       style="fill:#9999ff;fill-opacity:0.35;fill-rule:nonzero;stroke:#000000;stroke-width:0.3985;stroke-linecap:butt;stroke-linejoin:miter;stroke-miterlimit:10;stroke-dasharray:none;stroke-opacity:0.35"
       transform="matrix(1.3333333,0,0,-1.3333333,294.152,241.148)" />
    <path
       id="path33"
       d="M 57.82811,0 V 44.2384 H 77.10416 V 0 Z"
       style="fill:#9999ff;fill-opacity:0.35;fill-rule:nonzero;stroke:#000000;stroke-width:0.3985;stroke-linecap:butt;stroke-linejoin:miter;stroke-miterlimit:10;stroke-dasharray:none;stroke-opacity:0.35"
       transform="matrix(1.3333333,0,0,-1.3333333,294.152,241.148)" />
    <path
       id="path34"
       d="M 77.10345,0 V 78.64572"
       style="fill:#9999ff;fill-opacity:0.5;fill-rule:nonzero;stroke:#000000;stroke-width:0.3985;stroke-linecap:butt;stroke-linejoin:miter;stroke-miterlimit:10;stroke-dasharray:none;stroke-opacity:0.5"
       transform="matrix(1.3333333,0,0,-1.3333333,294.152,241.148)" />
    <path
       id="path35"
       d="m 4.5807734,-3.1870781 c 0,-0.796875 -0.046875,-1.59375 -0.3984375,-2.3320313 -0.4570312,-0.9609375 -1.2773437,-1.1132812 -1.6875,-1.1132812 -0.5976562,0 -1.3359375,0.2578125 -1.73437496,1.1835937 -0.328125,0.6914063 -0.375,1.4648438 -0.375,2.2617188 0,0.75 0.046875,1.640625 0.4453125,2.40234373 0.43359376,0.80859375 1.16015626,1.0078125 1.65234376,1.0078125 0.5390625,0 1.2890625,-0.2109375 1.734375,-1.16015625 C 4.5338984,-1.6284844 4.5807734,-2.4019219 4.5807734,-3.1870781 Z M 2.4831172,4.21875e-4 c -0.3867188,0 -0.984375,-0.246093745 -1.1601563,-1.207031275 -0.1054687,-0.5976562 -0.1054687,-1.5117187 -0.1054687,-2.0976562 0,-0.6445313 0,-1.3007813 0.082031,-1.8398438 0.1875,-1.1835937 0.9257813,-1.265625 1.1835938,-1.265625 0.328125,0 0.984375,0.1757813 1.171875,1.1601563 0.09375,0.5625 0.09375,1.3125 0.09375,1.9453125 0,0.75 0,1.4179687 -0.1054688,2.0625 C 3.4909297,-0.30426562 2.9284297,4.21875e-4 2.4831172,4.21875e-4 Z m 0,0"
       style="fill:#000000;fill-opacity:1;fill-rule:nonzero;stroke:none"
       aria-label="0"
       transform="matrix(1.3333333,0,0,1.3333333,276.34933,251.476)" />
    <path
       id="path36"
       d="m 2.9282969,-6.3738359 c 0,-0.234375 0,-0.2578125 -0.234375,-0.2578125 -0.609375,0.6328125 -1.4882813,0.6328125 -1.80468752,0.6328125 v 0.3164062 c 0.19921872,0 0.78515622,0 1.30078122,-0.2578125 v 5.15625001 c 0,0.3515625 -0.035156,0.48046875 -0.9257812,0.48046875 H 0.94782813 v 0.3046875 C 1.2993906,-0.03399219 2.1548594,-0.03399219 2.5532969,-0.03399219 c 0.3984375,0 1.265625,0 1.6171875,0.03515625 v -0.3046875 H 3.8540781 c -0.9023437,0 -0.9257812,-0.1171875 -0.9257812,-0.48046875 z m 0,0"
       style="fill:#000000;fill-opacity:1;fill-rule:nonzero;stroke:none"
       aria-label="1"
       transform="matrix(1.3333333,0,0,1.3333333,393.63467,254.82267)" />
  </g>
</svg>
