<?xml version="1.0" encoding="UTF-8" standalone="no"?>
<!-- Created with Inkscape (http://www.inkscape.org/) -->

<svg
   version="1.1"
   id="svg1"
   width="381.46652"
   height="137.00468"
   viewBox="0 0 381.46652 137.00469"
   sodipodi:docname="5.2-rectangulos-medios.svg"
   inkscape:version="1.4.2 (f4327f4, 2025-05-13)"
   xmlns:inkscape="http://www.inkscape.org/namespaces/inkscape"
   xmlns:sodipodi="http://sodipodi.sourceforge.net/DTD/sodipodi-0.dtd"
   xmlns="http://www.w3.org/2000/svg"
   xmlns:svg="http://www.w3.org/2000/svg">
  <defs
     id="defs1" />
  <sodipodi:namedview
     id="namedview1"
     pagecolor="#ffffff"
     bordercolor="#000000"
     borderopacity="0.25"
     inkscape:showpageshadow="2"
     inkscape:pageopacity="0.0"
     inkscape:pagecheckerboard="0"
     inkscape:deskcolor="#d1d1d1"
     inkscape:zoom="2.2241536"
     inkscape:cx="203.89779"
     inkscape:cy="91.04587"
     inkscape:window-width="1920"
     inkscape:window-height="1009"
     inkscape:window-x="-8"
     inkscape:window-y="-8"
     inkscape:window-maximized="1"
     inkscape:current-layer="g1">
    <inkscape:page
       x="0"
       y="0"
       inkscape:label="10"
       id="page1"
       width="381.46652"
       height="137.00468"
       margin="0"
       bleed="0" />
  </sodipodi:namedview>
  <g
     id="g1"
     inkscape:groupmode="layer"
     inkscape:label="10"
     transform="translate(-38.060814,-90.339843)">
    <path
       id="path2"
       d="M -14.17339,0 H 112.92896"
       style="fill:none;stroke:#000000;stroke-width:0.3985;stroke-linecap:butt;stroke-linejoin:miter;stroke-miterlimit:10;stroke-dasharray:none;stroke-opacity:1"
       transform="matrix(1.3333333,0,0,-1.3333333,56.958667,208.44667)" />
    <path
       id="path3"
       d="M -1.19551,1.59401 C -1.09587,0.99626 0,0.09961 0.29886,0 0,-0.09961 -1.09587,-0.99626 -1.19551,-1.59401"
       style="fill:none;stroke:#000000;stroke-width:0.31879;stroke-linecap:round;stroke-linejoin:round;stroke-miterlimit:10;stroke-dasharray:none;stroke-opacity:1"
       transform="matrix(1.3333333,0,0,-1.3333333,207.53061,208.44667)" />
    <path
       id="path4"
       d="m 3.6458125,-3.2918047 c 0.070312,-0.28125 0.3164063,-1.2890625 1.078125,-1.2890625 0.058594,0 0.3164063,0 0.5507813,0.140625 -0.3046875,0.058594 -0.5273438,0.328125 -0.5273438,0.5859375 0,0.1757813 0.1171875,0.3867188 0.4101563,0.3867188 0.2460937,0 0.5976562,-0.1992188 0.5976562,-0.6328125 0,-0.5625 -0.6445312,-0.7265625 -1.0195312,-0.7265625 -0.6328125,0 -1.0195313,0.5859375 -1.1484375,0.8320312 -0.2695313,-0.7148437 -0.8554688,-0.8320312 -1.171875,-0.8320312 -1.1367188,0 -1.75781255,1.4179687 -1.75781255,1.6875 0,0.1054687 0.10546875,0.1054687 0.12890625,0.1054687 0.0820313,0 0.1171875,-0.023437 0.140625,-0.1171875 0.375,-1.1601562 1.0898438,-1.4296875 1.4648438,-1.4296875 0.2109375,0 0.5859375,0.09375 0.5859375,0.7265625 0,0.3398438 -0.1875,1.078125 -0.5859375,2.6015625 -0.1757813,0.67968751 -0.5625,1.13671876 -1.0429688,1.13671876 -0.058594,0 -0.3164062,0 -0.5390625,-0.140625 0.2695313,-0.0585938 0.515625,-0.29296875 0.515625,-0.59765625 0,-0.29296871 -0.2460937,-0.37500001 -0.41015625,-0.37500001 -0.328125,0 -0.59765625,0.28125001 -0.59765625,0.63281251 0,0.50390625 0.55078125,0.71484375 1.03125,0.71484375 0.7148438,0 1.1015625,-0.76171875 1.1367188,-0.83203125 C 2.6145625,-0.30352344 3.013,0.11835156 3.66925,0.11835156 c 1.125,0 1.7460938,-1.40624996 1.7460938,-1.67578126 0,-0.1054687 -0.1054688,-0.1054687 -0.1289063,-0.1054687 -0.1054687,0 -0.1289062,0.035156 -0.140625,0.1171875 -0.3632812,1.16015621 -1.1132812,1.42968746 -1.453125,1.42968746 -0.4335937,0 -0.609375,-0.3515625 -0.609375,-0.7265625 0,-0.23437496 0.070312,-0.48046876 0.1875,-0.96093746 z m 0,0"
       style="fill:#000000;fill-opacity:1;fill-rule:nonzero;stroke:none"
       aria-label="x"
       transform="matrix(1.3333333,0,0,1.3333333,203.98267,219.82267)" />
    <path
       id="path5"
       d="M 0,-14.17339 V 84.58214"
       style="fill:none;stroke:#000000;stroke-width:0.3985;stroke-linecap:butt;stroke-linejoin:miter;stroke-miterlimit:10;stroke-dasharray:none;stroke-opacity:1"
       transform="matrix(1.3333333,0,0,-1.3333333,56.958667,208.44667)" />
    <path
       id="path6"
       d="M -1.19551,1.59401 C -1.09587,0.99626 0,0.09961 0.29886,0 0,-0.09961 -1.09587,-0.99626 -1.19551,-1.59401"
       style="fill:none;stroke:#000000;stroke-width:0.31879;stroke-linecap:round;stroke-linejoin:round;stroke-miterlimit:10;stroke-dasharray:none;stroke-opacity:1"
       transform="matrix(0,-1.3333333,-1.3333333,0,56.958667,95.67048)" />
    <path
       id="path7"
       d="m 5.2964297,-4.1601484 c 0.046875,-0.1523438 0.046875,-0.1757813 0.046875,-0.2460938 0,-0.1992187 -0.1523438,-0.2929687 -0.3164063,-0.2929687 -0.1054687,0 -0.28125,0.058594 -0.375,0.2226562 -0.023437,0.058594 -0.1171875,0.3984375 -0.1523437,0.5976563 -0.082031,0.28125 -0.1523438,0.5742187 -0.2226563,0.8671875 l -0.4921875,1.96875 c -0.046875,0.16406246 -0.515625,0.92578121 -1.2304687,0.92578121 -0.5625,0 -0.6796875,-0.48046875 -0.6796875,-0.89062501 0,-0.4921875 0.1875,-1.171875 0.5625,-2.1328125 0.1757812,-0.4453125 0.2109375,-0.5742187 0.2109375,-0.7851562 0,-0.4921875 -0.3515625,-0.9023438 -0.890625,-0.9023438 -1.04296876,0 -1.44140626,1.5820313 -1.44140626,1.6875 0,0.1054688 0.10546875,0.1054688 0.12890625,0.1054688 0.10546875,0 0.1171875,-0.023437 0.17578125,-0.1992188 0.29296875,-1.0195312 0.72656246,-1.3476562 1.10156246,-1.3476562 0.09375,0 0.2695313,0 0.2695313,0.3515625 0,0.2695312 -0.1054688,0.5507812 -0.1757813,0.7617187 -0.4453125,1.1601563 -0.6328125,1.78125 -0.6328125,2.2851563 0,0.97265621 0.6796875,1.30078121 1.3242188,1.30078121 0.421875,0 0.796875,-0.1875 1.1015625,-0.4921875 -0.140625,0.57421875 -0.2695313,1.1015625 -0.703125,1.68749999 -0.2929688,0.3632813 -0.703125,0.6796875 -1.2070313,0.6796875 -0.1523437,0 -0.6445312,-0.023437 -0.83203121,-0.4570312 0.17578121,0 0.31640621,0 0.48046871,-0.1289063 0.1054688,-0.09375 0.2109375,-0.234375 0.2109375,-0.44531249 0,-0.33984375 -0.2929687,-0.38671875 -0.3984375,-0.38671875 -0.25781246,0 -0.60937496,0.17578125 -0.60937496,0.71484374 0,0.5390625 0.48046876,0.9492188 1.14843746,0.9492188 1.125,0 2.25,-0.9960938 2.5546875,-2.22656254 z m 0,0"
       style="fill:#000000;fill-opacity:1;fill-rule:nonzero;stroke:none"
       aria-label="y"
       transform="matrix(1.3333333,0,0,1.3333333,44.192,96.777333)" />
    <path
       id="path8"
       d="m 14.17339,0 v 56.28421 h 9.35427 V 0 Z"
       style="fill:#9999ff;fill-opacity:0.35;fill-rule:nonzero;stroke:#000000;stroke-width:0.3985;stroke-linecap:butt;stroke-linejoin:miter;stroke-miterlimit:10;stroke-dasharray:none;stroke-opacity:0.35"
       transform="matrix(1.3333333,0,0,-1.3333333,56.958667,208.44667)" />
    <path
       id="path9"
       d="m 23.52766,0 v 55.46628 h 9.3543 V 0 Z"
       style="fill:#9999ff;fill-opacity:0.35;fill-rule:nonzero;stroke:#000000;stroke-width:0.3985;stroke-linecap:butt;stroke-linejoin:miter;stroke-miterlimit:10;stroke-dasharray:none;stroke-opacity:0.35"
       transform="matrix(1.3333333,0,0,-1.3333333,56.958667,208.44667)" />
    <path
       id="path10"
       d="m 32.88196,0 v 49.21048 h 9.35428 V 0 Z"
       style="fill:#9999ff;fill-opacity:0.35;fill-rule:nonzero;stroke:#000000;stroke-width:0.3985;stroke-linecap:butt;stroke-linejoin:miter;stroke-miterlimit:10;stroke-dasharray:none;stroke-opacity:0.35"
       transform="matrix(1.3333333,0,0,-1.3333333,56.958667,208.44667)" />
    <path
       id="path11"
       d="m 42.23624,0 v 40.14555 h 9.35428 V 0 Z"
       style="fill:#9999ff;fill-opacity:0.35;fill-rule:nonzero;stroke:#000000;stroke-width:0.3985;stroke-linecap:butt;stroke-linejoin:miter;stroke-miterlimit:10;stroke-dasharray:none;stroke-opacity:0.35"
       transform="matrix(1.3333333,0,0,-1.3333333,56.958667,208.44667)" />
    <path
       id="path12"
       d="M 51.59052,0 V 32.07787 H 60.9448 V 0 Z"
       style="fill:#9999ff;fill-opacity:0.35;fill-rule:nonzero;stroke:#000000;stroke-width:0.3985;stroke-linecap:butt;stroke-linejoin:miter;stroke-miterlimit:10;stroke-dasharray:none;stroke-opacity:0.35"
       transform="matrix(1.3333333,0,0,-1.3333333,56.958667,208.44667)" />
    <path
       id="path13"
       d="m 60.9448,0 v 28.39589 h 9.35429 V 0 Z"
       style="fill:#9999ff;fill-opacity:0.35;fill-rule:nonzero;stroke:#000000;stroke-width:0.3985;stroke-linecap:butt;stroke-linejoin:miter;stroke-miterlimit:10;stroke-dasharray:none;stroke-opacity:0.35"
       transform="matrix(1.3333333,0,0,-1.3333333,56.958667,208.44667)" />
    <path
       id="path14"
       d="m 70.29909,0 v 30.64595 h 9.35428 V 0 Z"
       style="fill:#9999ff;fill-opacity:0.35;fill-rule:nonzero;stroke:#000000;stroke-width:0.3985;stroke-linecap:butt;stroke-linejoin:miter;stroke-miterlimit:10;stroke-dasharray:none;stroke-opacity:0.35"
       transform="matrix(1.3333333,0,0,-1.3333333,56.958667,208.44667)" />
    <path
       id="path15"
       d="m 79.65337,0 v 37.8836 h 9.35427 V 0 Z"
       style="fill:#9999ff;fill-opacity:0.35;fill-rule:nonzero;stroke:#000000;stroke-width:0.3985;stroke-linecap:butt;stroke-linejoin:miter;stroke-miterlimit:10;stroke-dasharray:none;stroke-opacity:0.35"
       transform="matrix(1.3333333,0,0,-1.3333333,56.958667,208.44667)" />
    <path
       id="path16"
       d="m 14.17339,54.44614 c 0,0 0.54612,0.28753 0.75585,0.39123 0.20975,0.1037 0.54612,0.26236 0.75586,0.35619 0.20975,0.09382 0.54613,0.23639 0.75588,0.32008 0.20975,0.08368 0.54611,0.20973 0.75586,0.2831 0.20973,0.07336 0.54611,0.18287 0.75586,0.24568 0.20973,0.0628 0.54611,0.15494 0.75586,0.20697 0.20973,0.05203 0.54611,0.12689 0.75584,0.16803 0.20975,0.04114 0.54613,0.09834 0.75586,0.12848 0.20975,0.0301 0.54614,0.06965 0.75588,0.08867 0.20974,0.01901 0.54611,0.04054 0.75586,0.04843 0.20974,0.0079 0.5461,0.0117 0.75585,0.0084 0.20975,-0.0033 0.54612,-0.01755 0.75586,-0.032 0.20974,-0.01447 0.54612,-0.04664 0.75586,-0.07224 0.20973,-0.02559 0.54611,-0.07551 0.75586,-0.11224 0.20973,-0.03673 0.54613,-0.10478 0.75586,-0.15248 0.20975,-0.04767 0.54613,-0.13275 0.75586,-0.19118 0.20975,-0.05841 0.54613,-0.16081 0.75586,-0.22989 0.20975,-0.06907 0.54611,-0.18838 0.75586,-0.26796 0.20975,-0.07957 0.54611,-0.21582 0.75586,-0.30558 0.20975,-0.08979 0.54611,-0.24178 0.75586,-0.34148 0.20975,-0.09972 0.54613,-0.26779 0.75587,-0.37719 0.20974,-0.1094 0.54612,-0.29253 0.75586,-0.41134 0.20973,-0.11879 0.54611,-0.31705 0.75586,-0.44486 0.20973,-0.12783 0.54612,-0.33998 0.75585,-0.47645 0.20974,-0.13646 0.54612,-0.36238 0.75586,-0.50714 0.20974,-0.14479 0.54612,-0.38367 0.75585,-0.53635 0.20975,-0.15268 0.54613,-0.40391 0.75588,-0.56404 0.20975,-0.16011 0.54611,-0.42287 0.75586,-0.58996 0.20975,-0.16712 0.54611,-0.44082 0.75586,-0.61443 0.20973,-0.17361 0.54611,-0.45728 0.75586,-0.63692 0.20973,-0.17965 0.54611,-0.47278 0.75586,-0.65789 0.20973,-0.18509 0.54611,-0.48618 0.75584,-0.67627 0.20975,-0.1901 0.54614,-0.49923 0.75588,-0.69379 0.20974,-0.19456 0.54612,-0.51006 0.75585,-0.7085 0.20975,-0.19842 0.54612,-0.51993 0.75587,-0.72169 0.20974,-0.20177 0.5461,-0.52796 0.75585,-0.73252 0.20975,-0.20452 0.54612,-0.53508 0.75586,-0.74179 0.20974,-0.20671 0.54612,-0.53986 0.75586,-0.74807 0.20973,-0.20823 0.54613,-0.54341 0.75588,-0.75261 0.20973,-0.2092 0.54611,-0.54566 0.75585,-0.75521 0.20974,-0.20957 0.54612,-0.54583 0.75585,-0.75521 0.20975,-0.20939 0.54613,-0.54526 0.75586,-0.75393 0.20975,-0.20866 0.54613,-0.54278 0.75586,-0.75001 0.20975,-0.20722 0.54611,-0.53829 0.75586,-0.74353 0.20975,-0.20525 0.54613,-0.53305 0.75587,-0.73575 0.20975,-0.2027 0.54612,-0.5256 0.75586,-0.72514 0.20974,-0.19954 0.54611,-0.5172 0.75586,-0.71306 0.20973,-0.19585 0.54611,-0.50694 0.75586,-0.69854 0.20973,-0.1916 0.54612,-0.49554 0.75585,-0.68232 0.20974,-0.1868 0.54612,-0.48253 0.75585,-0.66396 0.20975,-0.18141 0.54615,-0.46808 0.75588,-0.64362 0.20974,-0.17553 0.54611,-0.45237 0.75586,-0.62154 0.20975,-0.16918 0.54611,-0.43544 0.75586,-0.59778 0.20975,-0.16234 0.54611,-0.41716 0.75586,-0.57224 0.20973,-0.15506 0.54611,-0.3981 0.75586,-0.54544 0.20973,-0.14732 0.54611,-0.37727 0.75586,-0.51643 0.20973,-0.13917 0.54612,-0.356 0.75586,-0.48662 0.20974,-0.13062 0.54612,-0.33318 0.75586,-0.45482 0.20974,-0.12164 0.54612,-0.30954 0.75585,-0.42193 0.20975,-0.11242 0.54612,-0.28539 0.75587,-0.3882 0.20974,-0.10283 0.5461,-0.26 0.75585,-0.35295 0.20975,-0.09296 0.54612,-0.23426 0.75586,-0.31705 0.20975,-0.08283 0.54613,-0.20746 0.75588,-0.27986 0.20973,-0.07241 0.54611,-0.18016 0.75586,-0.24199 0.20973,-0.06185 0.54611,-0.15267 0.75585,-0.20375 0.20974,-0.05106 0.54612,-0.12421 0.75585,-0.16436 0.20975,-0.04014 0.54613,-0.0959 0.75586,-0.12501 0.20975,-0.0291 0.54614,-0.06679 0.75587,-0.08476 0.20975,-0.01797 0.54612,-0.03797 0.75586,-0.04477 0.20975,-0.0068 0.54612,-0.0087 0.75586,-0.0043 0.20975,0.0044 0.54611,0.02042 0.75586,0.03591 0.20974,0.01549 0.54611,0.04912 0.75586,0.0757 0.20973,0.02658 0.54611,0.07823 0.75586,0.1159 0.20973,0.03769 0.54613,0.10709 0.75586,0.15572 0.20975,0.04864 0.54613,0.13545 0.75586,0.19487 0.20975,0.0594 0.54613,0.16333 0.75586,0.23335 0.20974,0.07004 0.54611,0.19095 0.75586,0.27142 0.20975,0.08047 0.54611,0.21795 0.75586,0.30861 0.20975,0.09069 0.54611,0.24436 0.75586,0.34496 0.20973,0.1006 0.54612,0.26993 0.75587,0.3802 0.20973,0.11028 0.54611,0.29498 0.75586,0.41458 0.20973,0.1196 0.54611,0.31885 0.75586,0.44747 0.20973,0.1286 0.54611,0.34222 0.75584,0.47946 0.20975,0.13727 0.54613,0.36426 0.75586,0.50975 0.20975,0.14551 0.54613,0.38557 0.75587,0.53894 0.20974,0.15337 0.54612,0.40561 0.75587,0.56642 0.20975,0.1608 0.54611,0.42481 0.75586,0.59258 0.20974,0.16774 0.54611,0.44238 0.75586,0.61656 0.20973,0.17419 0.54611,0.45871 0.75586,0.63887 0.20973,0.18016 0.54611,0.47403 0.75585,0.65961 0.20974,0.1856 0.54612,0.48747 0.75585,0.678 0.20975,0.19056 0.54614,0.50037 0.75587,0.69532 0.20975,0.19494 0.54613,0.51103 0.75586,0.70979 0.20975,0.19878 0.54612,0.52074 0.75586,0.72276 0.20975,0.20204 0.54612,0.52867 0.75586,0.73339 0.20975,0.2047 0.54611,0.53518 0.75586,0.74202 0.20974,0.20681 0.54611,0.54036 0.75586,0.74871 0.20973,0.20838 0.54613,0.54375 0.75588,0.75306 0.20973,0.20929 0.75584,0.75541 0.75584,0.75541"
       style="fill:none;stroke:#eb0a36;stroke-width:0.79701;stroke-linecap:butt;stroke-linejoin:miter;stroke-miterlimit:10;stroke-dasharray:none;stroke-opacity:1"
       transform="matrix(1.3333333,0,0,-1.3333333,56.958667,208.44667)" />
    <g
       id="g16"
       aria-label="y=f(x)"
       transform="matrix(1.3333333,0,0,1.3333333,126.168,136.17733)">
      <path
         id="path17"
         d="m 4.8398203,-3.7980391 c 0.046875,-0.140625 0.046875,-0.1523437 0.046875,-0.2226562 0,-0.1875 -0.140625,-0.2695313 -0.2929687,-0.2695313 -0.1054688,0 -0.2578125,0.058594 -0.3515625,0.1992188 -0.023437,0.058594 -0.09375,0.3632812 -0.140625,0.5390625 -0.070312,0.2578125 -0.140625,0.5273437 -0.1992188,0.796875 l -0.4453125,1.79296874 c -0.035156,0.15234375 -0.46875,0.85546875 -1.125,0.85546875 -0.5039062,0 -0.6210937,-0.4453125 -0.6210937,-0.80859375 0,-0.45703124 0.1757812,-1.07812504 0.515625,-1.95703124 0.1523437,-0.4101563 0.1992187,-0.515625 0.1992187,-0.7148438 0,-0.4453125 -0.328125,-0.8203125 -0.8203125,-0.8203125 -0.94921874,0 -1.31249999,1.453125 -1.31249999,1.5351563 0,0.1054687 0.09375,0.1054687 0.1171875,0.1054687 0.09375,0 0.10546875,-0.023437 0.15234375,-0.1875 0.26953125,-0.9375 0.66796874,-1.2304687 1.00781254,-1.2304687 0.082031,0 0.2578125,0 0.2578125,0.3164062 0,0.2460938 -0.1054688,0.515625 -0.1757813,0.703125 -0.3984375,1.0546875 -0.5742187,1.6171875 -0.5742187,2.0859375 0,0.89062504 0.6210937,1.18359379 1.21875,1.18359379 0.3867187,0 0.7265625,-0.1640625 0.9960937,-0.4453125 -0.1289062,0.515625 -0.2460937,1.0078125 -0.6445312,1.53515621 -0.2578125,0.3398438 -0.6328125,0.6328125 -1.0898438,0.6328125 -0.140625,0 -0.59765624,-0.035156 -0.76171874,-0.421875 0.1640625,0 0.29296874,0 0.43359374,-0.1171875 0.09375,-0.09375 0.1992188,-0.2226562 0.1992188,-0.41015621 0,-0.31640625 -0.2695313,-0.3515625 -0.375,-0.3515625 -0.22265629,0 -0.55078129,0.1640625 -0.55078129,0.64453121 0,0.5039063 0.43359375,0.8671875 1.05468749,0.8671875 1.0195313,0 2.0507813,-0.9023437 2.3320313,-2.02734371 z m 0,0"
         style="fill:#eb0a36;fill-opacity:1;fill-rule:nonzero;stroke:none" />
      <path
         id="path18"
         d="m 14.856422,-3.2589766 c 0.152344,0 0.339844,0 0.339844,-0.1992187 0,-0.1992188 -0.1875,-0.1992188 -0.328125,-0.1992188 H 8.9032969 c -0.140625,0 -0.328125,0 -0.328125,0.1992188 0,0.1992187 0.1875,0.1992187 0.3398437,0.1992187 z m 0.01172,1.9335938 c 0.140625,0 0.328125,0 0.328125,-0.1992188 0,-0.1992187 -0.1875,-0.1992187 -0.339844,-0.1992187 H 8.9150156 c -0.1523437,0 -0.3398437,0 -0.3398437,0.1992187 0,0.1992188 0.1875,0.1992188 0.328125,0.1992188 z m 0,0"
         style="fill:#eb0a36;fill-opacity:1;fill-rule:nonzero;stroke:none" />
      <path
         id="path19"
         d="m 22.177711,-3.9855391 h 0.855469 c 0.199218,0 0.304687,0 0.304687,-0.1992187 0,-0.1054688 -0.105469,-0.1054688 -0.269531,-0.1054688 h -0.832031 l 0.210937,-1.1367187 c 0.03516,-0.2109375 0.175781,-0.9140625 0.234375,-1.0429688 0.09375,-0.1875 0.257813,-0.3398437 0.46875,-0.3398437 0.04687,0 0.304688,0 0.492188,0.1875 -0.433594,0.035156 -0.539063,0.3867187 -0.539063,0.5390625 0,0.2226562 0.175781,0.3398437 0.363281,0.3398437 0.269532,0 0.550782,-0.2109375 0.550782,-0.5976562 0,-0.4570313 -0.457032,-0.6796875 -0.867188,-0.6796875 -0.339844,0 -0.960937,0.1757812 -1.265625,1.1601562 -0.05859,0.2109375 -0.08203,0.3164063 -0.328125,1.5703125 H 20.87693 c -0.199219,0 -0.304688,0 -0.304688,0.1875 0,0.1171875 0.09375,0.1171875 0.28125,0.1171875 h 0.65625 l -0.75,3.93750004 c -0.175781,0.9609375 -0.339844,1.87499996 -0.867187,1.87499996 -0.03516,0 -0.28125,0 -0.46875,-0.1875 0.457031,-0.023437 0.539062,-0.3867187 0.539062,-0.5390625 0,-0.22265621 -0.175781,-0.33984371 -0.363281,-0.33984371 -0.257813,0 -0.550781,0.2109375 -0.550781,0.59765621 0,0.4453125 0.433593,0.6796875 0.84375,0.6796875 0.550781,0 0.949218,-0.5859375 1.125,-0.9609375 0.328125,-0.63281246 0.550781,-1.83984371 0.5625,-1.91015621 z m 0,0"
         style="fill:#eb0a36;fill-opacity:1;fill-rule:nonzero;stroke:none" />
      <path
         id="path20"
         d="m 27.767555,2.3894609 c 0,-0.035156 0,-0.046875 -0.164063,-0.2226562 -1.242187,-1.25390626 -1.570312,-3.12890626 -1.570312,-4.6640625 0,-1.7226563 0.386718,-3.4570313 1.605468,-4.7109375 0.128907,-0.1171875 0.128907,-0.1289063 0.128907,-0.1640625 0,-0.070312 -0.03516,-0.1054688 -0.09375,-0.1054688 -0.105469,0 -0.996094,0.6796875 -1.582032,1.9453125 -0.515625,1.1015625 -0.632812,2.203125 -0.632812,3.0351563 0,0.7851562 0.117187,1.99218749 0.65625,3.11718749 0.597656,1.21875001 1.453125,1.87500001 1.558594,1.87500001 0.05859,0 0.09375,-0.035156 0.09375,-0.1054688 z m 0,0"
         style="fill:#eb0a36;fill-opacity:1;fill-rule:nonzero;stroke:none" />
      <path
         id="path21"
         d="m 31.678688,-3.0128828 c 0.05859,-0.2578125 0.292968,-1.171875 0.984375,-1.171875 0.04687,0 0.292968,0 0.503906,0.1289062 -0.28125,0.046875 -0.480469,0.3046875 -0.480469,0.5390625 0,0.1640625 0.105469,0.3515625 0.375,0.3515625 0.222656,0 0.539063,-0.1875 0.539063,-0.5859375 0,-0.515625 -0.585938,-0.65625 -0.925782,-0.65625 -0.574218,0 -0.925781,0.5273438 -1.042968,0.7617188 -0.257813,-0.65625 -0.785157,-0.7617188 -1.078125,-0.7617188 -1.042969,0 -1.605469,1.2890625 -1.605469,1.5351563 0,0.1054687 0.105469,0.1054687 0.117187,0.1054687 0.08203,0 0.117188,-0.023437 0.128907,-0.1171875 0.339843,-1.0546875 0.996093,-1.3007812 1.335937,-1.3007812 0.1875,0 0.539063,0.09375 0.539063,0.6679687 0,0.3046875 -0.164063,0.9726563 -0.539063,2.3671875 -0.152344,0.62109379 -0.503906,1.04296879 -0.949219,1.04296879 -0.05859,0 -0.28125,0 -0.492187,-0.12890625 0.246094,-0.0585938 0.46875,-0.26953125 0.46875,-0.5390625 0,-0.26953124 -0.222656,-0.35156254 -0.375,-0.35156254 -0.292969,0 -0.539063,0.25781254 -0.539063,0.57421879 0,0.45703125 0.492188,0.65625 0.9375,0.65625 0.65625,0 1.007813,-0.69140625 1.042969,-0.75 0.117188,0.36328125 0.480469,0.75 1.078125,0.75 1.019531,0 1.59375,-1.27734379 1.59375,-1.53515629 0,-0.09375 -0.09375,-0.09375 -0.128906,-0.09375 -0.08203,0 -0.105469,0.035156 -0.128906,0.1054688 -0.328125,1.06640624 -0.996094,1.31249999 -1.324219,1.31249999 -0.386719,0 -0.539063,-0.328125 -0.539063,-0.65625 0,-0.22265625 0.05859,-0.44531249 0.164063,-0.87890629 z m 0,0"
         style="fill:#eb0a36;fill-opacity:1;fill-rule:nonzero;stroke:none" />
      <path
         id="path22"
         d="m 36.925758,-2.4972578 c 0,-0.7734375 -0.117188,-1.9804688 -0.65625,-3.1054688 -0.597656,-1.21875 -1.464844,-1.875 -1.558594,-1.875 -0.05859,0 -0.105469,0.046875 -0.105469,0.1054688 0,0.035156 0,0.046875 0.199219,0.234375 0.972656,0.984375 1.535156,2.5664062 1.535156,4.640625 0,1.71093749 -0.363281,3.45703124 -1.59375,4.7226562 -0.140625,0.1171875 -0.140625,0.1289063 -0.140625,0.1640625 0,0.058594 0.04687,0.1054688 0.105469,0.1054688 0.09375,0 0.996094,-0.6796875 1.582031,-1.94531251 0.503907,-1.1015625 0.632813,-2.20312499 0.632813,-3.04687499 z m 0,0"
         style="fill:#eb0a36;fill-opacity:1;fill-rule:nonzero;stroke:none" />
    </g>
    <path
       id="path23"
       d="M 56.26842,0 V 32.077"
       style="fill:none;stroke:#ec008c;stroke-width:0.3985;stroke-linecap:butt;stroke-linejoin:miter;stroke-miterlimit:10;stroke-dasharray:2.98883, 2.98883;stroke-dashoffset:0;stroke-opacity:1"
       transform="matrix(1.3333333,0,0,-1.3333333,56.958667,208.44667)" />
    <path
       id="path24"
       d="M 14.17339,0 V 54.44614"
       style="fill:none;stroke:#ec008c;stroke-width:0.3985;stroke-linecap:butt;stroke-linejoin:miter;stroke-miterlimit:10;stroke-dasharray:2.98883, 2.98883;stroke-dashoffset:0;stroke-opacity:1"
       transform="matrix(1.3333333,0,0,-1.3333333,56.958667,208.44667)" />
    <path
       id="path25"
       d="M 89.00894,0 V 42.47522"
       style="fill:none;stroke:#ec008c;stroke-width:0.3985;stroke-linecap:butt;stroke-linejoin:miter;stroke-miterlimit:10;stroke-dasharray:2.98883, 2.98883;stroke-dashoffset:0;stroke-opacity:1"
       transform="matrix(1.3333333,0,0,-1.3333333,56.958667,208.44667)" />
    <path
       id="path26"
       d="m 3.7136562,-3.7607812 c -0.1757812,-0.375 -0.46875,-0.6445313 -0.9140625,-0.6445313 -1.171875,0 -2.4023437,1.4648438 -2.4023437,2.9179688 0,0.93749995 0.55078125,1.59374995 1.3242187,1.59374995 0.1992188,0 0.703125,-0.03515625 1.3007813,-0.73828125 0.070312,0.41015625 0.421875,0.73828125 0.9023437,0.73828125 0.3515625,0 0.5742188,-0.22265625 0.7382813,-0.5390625 C 4.8269375,-0.7959375 4.9558437,-1.4053125 4.9558437,-1.42875 c 0,-0.09375 -0.082031,-0.09375 -0.1171875,-0.09375 -0.09375,0 -0.1054687,0.035156 -0.140625,0.1757813 -0.1640625,0.6445312 -0.3515625,1.24218745 -0.75,1.24218745 -0.2695312,0 -0.3046875,-0.2578125 -0.3046875,-0.45703125 0,-0.22265625 0.023437,-0.3046875 0.1289063,-0.7382812 0.1171875,-0.421875 0.1289062,-0.5273438 0.2226562,-0.9023438 l 0.3515625,-1.3945312 c 0.070312,-0.28125 0.070312,-0.2929688 0.070312,-0.3398438 0,-0.1640625 -0.1171875,-0.2695312 -0.28125,-0.2695312 -0.2460937,0 -0.3867187,0.2226562 -0.4218745,0.4453125 z M 3.069125,-1.1826562 C 3.02225,-1.006875 3.02225,-0.9834375 2.8699062,-0.819375 c -0.4453125,0.55078125 -0.84375,0.71484375 -1.125,0.71484375 -0.5039062,0 -0.6445312,-0.55078125 -0.6445312,-0.93749995 0,-0.5039063 0.328125,-1.7226563 0.5507812,-2.1796875 0.3046875,-0.5976563 0.7617188,-0.9609375 1.1601563,-0.9609375 0.6445312,0 0.7851562,0.8203125 0.7851562,0.8789062 0,0.058594 -0.023437,0.1171875 -0.035156,0.1640625 z m 0,0"
       style="fill:#ec008c;fill-opacity:1;fill-rule:nonzero;stroke:none"
       aria-label="a"
       transform="matrix(1.3333333,0,0,1.3333333,72.345333,219.28)" />
    <path
       id="path27"
       d="m 2.3787734,-6.8087266 c 0,0 0,-0.1054687 -0.1289062,-0.1054687 -0.2226563,0 -0.9492188,0.082031 -1.21875,0.1054687 -0.0703125,0 -0.18750001,0.011719 -0.18750001,0.1992188 0,0.1171875 0.09375,0.1171875 0.24609371,0.1171875 0.46875,0 0.4921875,0.070312 0.4921875,0.1640625 0,0.070312 -0.082031,0.4101562 -0.140625,0.6210937 l -0.80859371,3.2460938 c -0.12890625,0.5039062 -0.1640625,0.65625 -0.1640625,1.0078125 0,0.94921874 0.52734375,1.55859374 1.26562501,1.55859374 1.171875,0 2.4023437,-1.47656254 2.4023437,-2.91796874 0,-0.9023438 -0.5273437,-1.59375 -1.3242187,-1.59375 -0.4570313,0 -0.8671875,0.2929687 -1.171875,0.5976562 z m -0.9375,3.7734375 c 0.058594,-0.2226562 0.058594,-0.2460937 0.1523438,-0.3515625 0.4921875,-0.6445312 0.9375,-0.796875 1.1953125,-0.796875 0.3632812,0 0.6328125,0.2929688 0.6328125,0.9375 0,0.5859375 -0.328125,1.734375 -0.515625,2.109375 -0.328125,0.66796879 -0.7851563,1.03125004 -1.171875,1.03125004 -0.3398438,0 -0.6679688,-0.26953125 -0.6679688,-1.00781254 0,-0.1875 0,-0.3867187 0.1640625,-1.0078125 z m 0,0"
       style="fill:#ec008c;fill-opacity:1;fill-rule:nonzero;stroke:none"
       aria-label="b"
       transform="matrix(1.3333333,0,0,1.3333333,172.78533,222.78533)" />
    <g
       id="g27"
       aria-label="x&#10;∗&#10;i"
       transform="matrix(1.3333333,0,0,1.3333333,125.13333,222.70667)">
      <path
         id="path28"
         d="m 3.3277344,-3.0114453 c 0.058594,-0.2578125 0.2929687,-1.171875 0.984375,-1.171875 0.046875,0 0.2929687,0 0.5039062,0.1289062 -0.28125,0.046875 -0.4804687,0.3046875 -0.4804687,0.5390625 0,0.1640625 0.1054687,0.3515625 0.375,0.3515625 0.2226562,0 0.5390625,-0.1875 0.5390625,-0.5859375 0,-0.515625 -0.5859375,-0.65625 -0.9257813,-0.65625 -0.5742187,0 -0.9257812,0.5273438 -1.0429687,0.7617188 -0.2578125,-0.65625 -0.7851563,-0.7617188 -1.078125,-0.7617188 -1.0429688,0 -1.60546877,1.2890625 -1.60546877,1.5351563 0,0.1054687 0.10546875,0.1054687 0.1171875,0.1054687 0.0820313,0 0.1171875,-0.023437 0.12890625,-0.1171875 0.33984372,-1.0546875 0.99609372,-1.3007812 1.33593752,-1.3007812 0.1875,0 0.5390625,0.09375 0.5390625,0.6679687 0,0.3046875 -0.1640625,0.9726563 -0.5390625,2.3671875 -0.1523438,0.62109379 -0.5039063,1.04296879 -0.9492188,1.04296879 -0.058594,0 -0.28124997,0 -0.49218747,-0.12890625 0.24609375,-0.0585938 0.46874997,-0.26953125 0.46874997,-0.5390625 0,-0.26953124 -0.22265622,-0.35156254 -0.37499997,-0.35156254 -0.29296875,0 -0.5390625,0.25781254 -0.5390625,0.57421879 0,0.45703125 0.4921875,0.65625 0.93749997,0.65625 0.65625,0 1.0078125,-0.69140625 1.0429688,-0.75 0.1171875,0.36328125 0.4804687,0.75 1.078125,0.75 1.0195312,0 1.59375,-1.27734379 1.59375,-1.53515629 0,-0.09375 -0.09375,-0.09375 -0.1289063,-0.09375 -0.082031,0 -0.1054687,0.035156 -0.1289062,0.1054688 -0.328125,1.06640624 -0.9960938,1.31249999 -1.3242188,1.31249999 -0.3867187,0 -0.5390625,-0.328125 -0.5390625,-0.65625 0,-0.22265625 0.058594,-0.44531249 0.1640625,-0.87890629 z m 0,0"
         style="fill:#ec008c;fill-opacity:1;fill-rule:nonzero;stroke:none" />
      <path
         id="path29"
         d="m 7.9449219,-5.3493359 c 0.5742187,-0.2578125 0.8320312,-0.3515625 1.0078125,-0.4335938 0.1289062,-0.058594 0.1992187,-0.082031 0.1992187,-0.2109375 0,-0.1289062 -0.09375,-0.234375 -0.2226562,-0.234375 -0.046875,0 -0.058594,0 -0.140625,0.070312 l -0.9492188,0.6328125 0.1054688,-1.03125 c 0.011719,-0.1289062 0,-0.3046875 -0.2109375,-0.3046875 -0.082031,0 -0.2226563,0.058594 -0.2226563,0.2109375 0,0.070312 0.035156,0.2695313 0.035156,0.3398438 0.011719,0.1171875 0.070312,0.6210937 0.082031,0.7851562 l -0.9492182,-0.632812 c -0.058594,-0.046875 -0.082031,-0.070312 -0.1523438,-0.070312 -0.1171875,0 -0.2109375,0.1054688 -0.2109375,0.234375 0,0.1289063 0.082031,0.1640625 0.140625,0.1992188 l 1.0546875,0.4335937 c -0.5625,0.2578125 -0.8320312,0.3515625 -0.9960937,0.4335938 -0.140625,0.058594 -0.1992188,0.082031 -0.1992188,0.2226562 0,0.1171875 0.09375,0.2226563 0.2109375,0.2226563 0.058594,0 0.070312,0 0.1523438,-0.070312 l 0.9492187,-0.6328125 -0.1171875,1.125 c 0,0.1523437 0.140625,0.2109375 0.2226563,0.2109375 0.082031,0 0.2109375,-0.058594 0.2109375,-0.2109375 0,-0.058594 -0.023437,-0.2695313 -0.035156,-0.3398438 -0.011719,-0.1171875 -0.058594,-0.6210937 -0.070312,-0.7851562 l 0.8320313,0.5625 c 0.1875,0.140625 0.1992187,0.140625 0.2578125,0.140625 0.1289062,0 0.2226562,-0.1054688 0.2226562,-0.2226563 0,-0.140625 -0.09375,-0.1757812 -0.1523437,-0.2109375 z m 0,0"
         style="fill:#ec008c;fill-opacity:1;fill-rule:nonzero;stroke:none" />
      <path
         id="path30"
         d="m 7.9566406,-1.7663281 c 0,-0.1054688 -0.082031,-0.2578125 -0.28125,-0.2578125 -0.1875,0 -0.3867187,0.1757812 -0.3867187,0.375 0,0.1171875 0.082031,0.2695312 0.2695312,0.2695312 0.2109375,0 0.3984375,-0.1992187 0.3984375,-0.3867187 z M 6.5269531,1.7727344 c -0.023437,0.09375 -0.058594,0.1757812 -0.058594,0.2929687 0,0.328125 0.28125,0.5976563 0.6679687,0.5976563 0.6914063,0 0.9960938,-0.9609375 0.9960938,-1.0664063 0,-0.09375 -0.082031,-0.09375 -0.1054688,-0.09375 -0.1054687,0 -0.1054687,0.046875 -0.140625,0.1171875 -0.1523437,0.5625 -0.4570312,0.84375 -0.7382812,0.84375 -0.140625,0 -0.1757813,-0.082031 -0.1757813,-0.2460937 0,-0.1523438 0.058594,-0.2929688 0.1171875,-0.4453125 0.070312,-0.1875 0.140625,-0.375 0.2226563,-0.5507813 0.058594,-0.1640625 0.3164062,-0.80859372 0.3398437,-0.89062497 0.023437,-0.0703125 0.046875,-0.15234375 0.046875,-0.22265625 0,-0.328125 -0.28125,-0.5859375 -0.6679687,-0.5859375 -0.6914063,0 -1.0078125,0.94921875 -1.0078125,1.06640625 0,0.0820313 0.09375,0.0820313 0.1171875,0.0820313 0.09375,0 0.1054687,-0.0351563 0.1289062,-0.10546875 0.1757813,-0.59765625 0.4804688,-0.85546875 0.7382813,-0.85546875 0.1171875,0 0.1757812,0.0585938 0.1757812,0.24609375 0,0.1640625 -0.035156,0.26953125 -0.2109375,0.703125 z m 0,0"
         style="fill:#ec008c;fill-opacity:1;fill-rule:nonzero;stroke:none" />
    </g>
    <path
       id="path31"
       d="m 23.52788,63.7803 h 9.35451"
       style="fill:none;stroke:#ec008c;stroke-width:0.3985;stroke-linecap:butt;stroke-linejoin:miter;stroke-miterlimit:10;stroke-dasharray:none;stroke-opacity:1"
       transform="matrix(1.3333333,0,0,-1.3333333,56.958667,208.44667)" />
    <path
       id="path32"
       d="m 23.52788,62.36288 v 2.83486"
       style="fill:none;stroke:#ec008c;stroke-width:0.3985;stroke-linecap:butt;stroke-linejoin:miter;stroke-miterlimit:10;stroke-dasharray:none;stroke-opacity:1"
       transform="matrix(1.3333333,0,0,-1.3333333,56.958667,208.44667)" />
    <path
       id="path33"
       d="m 32.88239,62.36288 v 2.83486"
       style="fill:none;stroke:#ec008c;stroke-width:0.3985;stroke-linecap:butt;stroke-linejoin:miter;stroke-miterlimit:10;stroke-dasharray:none;stroke-opacity:1"
       transform="matrix(1.3333333,0,0,-1.3333333,56.958667,208.44667)" />
    <g
       id="g33"
       aria-label="∆x"
       transform="matrix(1.3333333,0,0,1.3333333,85.234667,116.404)">
      <path
         id="path34"
         d="m 4.4060312,-6.9504609 c -0.070312,-0.1289063 -0.09375,-0.1875 -0.2578125,-0.1875 -0.1757812,0 -0.1992187,0.058594 -0.2578125,0.1875 l -3.37499995,6.74999996 c -0.046875,0.09375 -0.046875,0.10546875 -0.046875,0.1171875 0,0.08203125 0.0585937,0.08203125 0.22265625,0.08203125 H 7.60525 c 0.1523437,0 0.2109375,0 0.2109375,-0.08203125 0,-0.01171875 0,-0.0234375 -0.046875,-0.1171875 z m -0.5859375,0.8085937 2.6835938,5.37890626 H 1.1365 Z m 0,0"
         style="fill:#ec008c;fill-opacity:1;fill-rule:nonzero;stroke:none" />
      <path
         id="path35"
         d="m 11.630641,-3.0129609 c 0.05859,-0.2578125 0.292968,-1.171875 0.984375,-1.171875 0.04687,0 0.292968,0 0.503906,0.1289062 -0.28125,0.046875 -0.480469,0.3046875 -0.480469,0.5390625 0,0.1640625 0.105469,0.3515625 0.375,0.3515625 0.222656,0 0.539063,-0.1875 0.539063,-0.5859375 0,-0.515625 -0.585938,-0.65625 -0.925782,-0.65625 -0.574218,0 -0.925781,0.5273438 -1.042968,0.7617188 -0.257813,-0.65625 -0.785157,-0.7617188 -1.078125,-0.7617188 -1.0429691,0 -1.6054691,1.2890625 -1.6054691,1.5351563 0,0.1054687 0.1054687,0.1054687 0.1171875,0.1054687 0.082031,0 0.1171875,-0.023437 0.1289062,-0.1171875 0.3398438,-1.0546875 0.9960934,-1.3007812 1.3359374,-1.3007812 0.1875,0 0.539063,0.09375 0.539063,0.6679687 0,0.3046875 -0.164063,0.9726563 -0.539063,2.3671875 -0.152344,0.62109376 -0.5039061,1.04296876 -0.9492186,1.04296876 -0.058594,0 -0.28125,0 -0.4921875,-0.12890625 0.2460937,-0.0585937 0.46875,-0.26953125 0.46875,-0.5390625 0,-0.26953121 -0.2226563,-0.35156251 -0.375,-0.35156251 -0.2929688,0 -0.5390625,0.25781251 -0.5390625,0.57421876 0,0.45703125 0.4921875,0.65625 0.9375,0.65625 0.6562496,0 1.0078126,-0.69140625 1.0429686,-0.75 0.117188,0.36328125 0.480469,0.75 1.078125,0.75 1.019531,0 1.59375,-1.27734376 1.59375,-1.53515626 0,-0.09375 -0.09375,-0.09375 -0.128906,-0.09375 -0.08203,0 -0.105469,0.035156 -0.128906,0.1054688 -0.328125,1.06640621 -0.996094,1.31249996 -1.324219,1.31249996 -0.386719,0 -0.539063,-0.328125 -0.539063,-0.65625 0,-0.22265625 0.05859,-0.44531246 0.164063,-0.87890626 z m 0,0"
         style="fill:#ec008c;fill-opacity:1;fill-rule:nonzero;stroke:none" />
    </g>
    <path
       id="path36"
       d="M 141.7341,0 H 268.83646"
       style="fill:none;stroke:#000000;stroke-width:0.3985;stroke-linecap:butt;stroke-linejoin:miter;stroke-miterlimit:10;stroke-dasharray:none;stroke-opacity:1"
       transform="matrix(1.3333333,0,0,-1.3333333,56.958667,208.44667)" />
    <path
       id="path37"
       d="M -1.19551,1.59401 C -1.09587,0.99626 0,0.09961 0.29886,0 0,-0.09961 -1.09587,-0.99626 -1.19551,-1.59401"
       style="fill:none;stroke:#000000;stroke-width:0.31879;stroke-linecap:round;stroke-linejoin:round;stroke-miterlimit:10;stroke-dasharray:none;stroke-opacity:1"
       transform="matrix(1.3333333,0,0,-1.3333333,415.40728,208.44667)" />
    <path
       id="path38"
       d="m 3.6431328,-3.2918047 c 0.070312,-0.28125 0.3164063,-1.2890625 1.078125,-1.2890625 0.058594,0 0.3164063,0 0.5507813,0.140625 -0.3046875,0.058594 -0.5273438,0.328125 -0.5273438,0.5859375 0,0.1757813 0.1171875,0.3867188 0.4101563,0.3867188 0.2460937,0 0.5976562,-0.1992188 0.5976562,-0.6328125 0,-0.5625 -0.6445312,-0.7265625 -1.0195312,-0.7265625 -0.6328125,0 -1.0195313,0.5859375 -1.1484375,0.8320312 -0.2695313,-0.7148437 -0.8554688,-0.8320312 -1.171875,-0.8320312 -1.1367188,0 -1.75781254,1.4179687 -1.75781254,1.6875 0,0.1054687 0.10546875,0.1054687 0.12890625,0.1054687 0.0820313,0 0.1171875,-0.023437 0.140625,-0.1171875 0.37499999,-1.1601562 1.08984379,-1.4296875 1.46484379,-1.4296875 0.2109375,0 0.5859375,0.09375 0.5859375,0.7265625 0,0.3398438 -0.1875,1.078125 -0.5859375,2.6015625 -0.1757813,0.67968751 -0.5625,1.13671876 -1.0429688,1.13671876 -0.058594,0 -0.3164062,0 -0.53906249,-0.140625 0.26953129,-0.0585938 0.51562499,-0.29296875 0.51562499,-0.59765625 0,-0.29296871 -0.2460937,-0.37500001 -0.41015624,-0.37500001 -0.328125,0 -0.59765625,0.28125001 -0.59765625,0.63281251 0,0.50390625 0.55078125,0.71484375 1.03124999,0.71484375 0.7148438,0 1.1015625,-0.76171875 1.1367188,-0.83203125 0.1289062,0.41015625 0.5273437,0.83203125 1.1835937,0.83203125 1.125,0 1.7460938,-1.40624996 1.7460938,-1.67578126 0,-0.1054687 -0.1054688,-0.1054687 -0.1289063,-0.1054687 -0.1054687,0 -0.1289062,0.035156 -0.140625,0.1171875 -0.3632812,1.16015621 -1.1132812,1.42968746 -1.453125,1.42968746 -0.4335937,0 -0.609375,-0.3515625 -0.609375,-0.7265625 0,-0.23437496 0.070312,-0.48046876 0.1875,-0.96093746 z m 0,0"
       style="fill:#000000;fill-opacity:1;fill-rule:nonzero;stroke:none"
       aria-label="x"
       transform="matrix(1.3333333,0,0,1.3333333,411.85733,219.82267)" />
    <path
       id="path39"
       d="M 155.9075,-14.17339 V 84.58214"
       style="fill:none;stroke:#000000;stroke-width:0.3985;stroke-linecap:butt;stroke-linejoin:miter;stroke-miterlimit:10;stroke-dasharray:none;stroke-opacity:1"
       transform="matrix(1.3333333,0,0,-1.3333333,56.958667,208.44667)" />
    <path
       id="path40"
       d="M -1.19551,1.59401 C -1.09587,0.99626 0,0.09961 0.29886,0 0,-0.09961 -1.09587,-0.99626 -1.19551,-1.59401"
       style="fill:none;stroke:#000000;stroke-width:0.31879;stroke-linecap:round;stroke-linejoin:round;stroke-miterlimit:10;stroke-dasharray:none;stroke-opacity:1"
       transform="matrix(0,-1.3333333,-1.3333333,0,264.83533,95.67048)" />
    <path
       id="path41"
       d="m 5.2976797,-4.1601484 c 0.046875,-0.1523438 0.046875,-0.1757813 0.046875,-0.2460938 0,-0.1992187 -0.1523438,-0.2929687 -0.3164063,-0.2929687 -0.1054687,0 -0.28125,0.058594 -0.375,0.2226562 -0.023437,0.058594 -0.1171875,0.3984375 -0.1523437,0.5976563 -0.082031,0.28125 -0.1523438,0.5742187 -0.2226563,0.8671875 l -0.4921875,1.96875 c -0.046875,0.16406246 -0.515625,0.92578121 -1.2304687,0.92578121 -0.5625,0 -0.6796875,-0.48046875 -0.6796875,-0.89062501 0,-0.4921875 0.1875,-1.171875 0.5625,-2.1328125 0.1757812,-0.4453125 0.2109375,-0.5742187 0.2109375,-0.7851562 0,-0.4921875 -0.3515625,-0.9023438 -0.890625,-0.9023438 -1.04296876,0 -1.44140626,1.5820313 -1.44140626,1.6875 0,0.1054688 0.10546875,0.1054688 0.12890625,0.1054688 0.10546875,0 0.1171875,-0.023437 0.17578125,-0.1992188 0.29296875,-1.0195312 0.72656246,-1.3476562 1.10156246,-1.3476562 0.09375,0 0.2695313,0 0.2695313,0.3515625 0,0.2695312 -0.1054688,0.5507812 -0.1757813,0.7617187 -0.4453125,1.1601563 -0.6328125,1.78125 -0.6328125,2.2851563 0,0.97265621 0.6796875,1.30078121 1.3242188,1.30078121 0.421875,0 0.796875,-0.1875 1.1015625,-0.4921875 -0.140625,0.57421875 -0.2695313,1.1015625 -0.703125,1.68749999 -0.2929688,0.3632813 -0.703125,0.6796875 -1.2070313,0.6796875 -0.1523437,0 -0.6445312,-0.023437 -0.83203121,-0.4570312 0.17578121,0 0.31640621,0 0.48046871,-0.1289063 0.1054688,-0.09375 0.2109375,-0.234375 0.2109375,-0.44531249 0,-0.33984375 -0.2929687,-0.38671875 -0.3984375,-0.38671875 -0.25781246,0 -0.60937496,0.17578125 -0.60937496,0.71484374 0,0.5390625 0.48046876,0.9492188 1.14843746,0.9492188 1.125,0 2.25,-0.9960938 2.5546875,-2.22656254 z m 0,0"
       style="fill:#000000;fill-opacity:1;fill-rule:nonzero;stroke:none"
       aria-label="y"
       transform="matrix(1.3333333,0,0,1.3333333,252.06533,96.777333)" />
    <path
       id="path42"
       d="m 170.0809,0 v 54.44614 c 0,0 2.25273,1.089 3.11795,1.38391 0.86521,0.2949 2.25273,0.62962 3.11794,0.74157 0.86523,0.11196 2.25274,0.14173 3.11796,0.06531 0.86521,-0.07638 2.25273,-0.35478 3.11794,-0.61593 0.86522,-0.26114 2.25275,-0.83307 3.11796,-1.26625 0.86522,-0.43317 2.25274,-1.27132 3.11795,-1.85579 0.86521,-0.58448 2.25274,-1.64916 3.11794,-2.35669 0.86522,-0.70754 2.25275,-1.94629 3.11796,-2.74272 0.86521,-0.79645 2.25274,-2.15049 3.11794,-2.9975 0.86522,-0.847 2.25275,-2.25045 3.11795,-3.10713 0.86524,-0.85669 2.25275,-2.24216 3.11797,-3.06734 0.8652,-0.8252 2.25273,-2.12615 3.11793,-2.88005 0.86522,-0.75394 2.25273,-1.90746 3.11797,-2.55371 0.8652,-0.64626 2.25273,-1.5967 3.11794,-2.10408 0.86521,-0.50737 2.25274,-1.20865 3.11794,-1.55281 0.86522,-0.34418 2.25275,-0.76351 3.11797,-0.9278 0.8652,-0.16429 2.25273,-0.27981 3.11793,-0.25627 0.86522,0.02351 2.25274,0.21573 3.11796,0.42583 0.86521,0.21011 2.25274,0.70181 3.11795,1.08848 0.86521,0.38666 2.25274,1.15386 3.11795,1.69837 0.86521,0.54449 2.25273,1.54988 3.11796,2.22606 0.86521,0.67616 2.25274,1.87208 3.11794,2.64733 0.86522,0.77526 2.25273,2.10332 3.11795,2.94017 0.8652,0.83687 3.11795,3.09136 3.11795,3.09136 L 244.91646,0 Z"
       style="fill:#9999ff;fill-opacity:0.2;fill-rule:nonzero;stroke:none"
       transform="matrix(1.3333333,0,0,-1.3333333,56.958667,208.44667)" />
    <path
       id="path43"
       d="m 170.0809,54.44614 c 0,0 0.54611,0.28753 0.75586,0.39123 0.20974,0.1037 0.54611,0.26236 0.75584,0.35619 0.20975,0.09382 0.54615,0.23639 0.75588,0.32008 0.20975,0.08368 0.54612,0.20973 0.75586,0.2831 0.20975,0.07336 0.54611,0.18287 0.75586,0.24568 0.20975,0.0628 0.54611,0.15494 0.75586,0.20697 0.20974,0.05203 0.54611,0.12689 0.75586,0.16803 0.20973,0.04114 0.54611,0.09834 0.75586,0.12848 0.20973,0.0301 0.54612,0.06965 0.75587,0.08867 0.20973,0.01901 0.54611,0.04054 0.75585,0.04843 0.20974,0.0079 0.54612,0.0117 0.75586,0.0084 0.20974,-0.0033 0.54612,-0.01755 0.75585,-0.032 0.20975,-0.01447 0.54612,-0.04664 0.75586,-0.07224 0.20975,-0.02559 0.54612,-0.07551 0.75586,-0.11224 0.20975,-0.03673 0.54613,-0.10478 0.75588,-0.15248 0.20975,-0.04767 0.54611,-0.13275 0.75586,-0.19118 0.20973,-0.05841 0.54611,-0.16081 0.75586,-0.22989 0.20973,-0.06907 0.54611,-0.18838 0.75586,-0.26796 0.20973,-0.07957 0.54611,-0.21582 0.75584,-0.30558 0.20975,-0.08979 0.54613,-0.24178 0.75586,-0.34148 0.20975,-0.09972 0.54614,-0.26779 0.75587,-0.37719 0.20975,-0.1094 0.54612,-0.29253 0.75586,-0.41134 0.20975,-0.11879 0.54612,-0.31705 0.75586,-0.44486 0.20975,-0.12783 0.54612,-0.33998 0.75586,-0.47645 0.20973,-0.13646 0.54611,-0.36238 0.75586,-0.50714 0.20973,-0.14479 0.54611,-0.38367 0.75586,-0.53635 0.20974,-0.15268 0.54613,-0.40391 0.75586,-0.56404 0.20975,-0.16011 0.54613,-0.42287 0.75586,-0.58996 0.20975,-0.16712 0.54612,-0.44082 0.75586,-0.61443 0.20975,-0.17361 0.54611,-0.45728 0.75586,-0.63692 0.20975,-0.17965 0.54611,-0.47278 0.75586,-0.65789 0.20974,-0.18509 0.54611,-0.48618 0.75586,-0.67627 0.20973,-0.1901 0.54612,-0.49923 0.75587,-0.69379 0.20973,-0.19456 0.54611,-0.51006 0.75586,-0.7085 0.20973,-0.19842 0.54611,-0.51993 0.75586,-0.72169 0.20973,-0.20177 0.54611,-0.52796 0.75584,-0.73252 0.20975,-0.20452 0.54613,-0.53508 0.75586,-0.74179 0.20975,-0.20671 0.54613,-0.53986 0.75586,-0.74807 0.20975,-0.20823 0.54613,-0.54341 0.75588,-0.75261 0.20975,-0.2092 0.54611,-0.54566 0.75585,-0.75521 0.20975,-0.20957 0.54612,-0.54583 0.75587,-0.75521 0.20973,-0.20939 0.54611,-0.54526 0.75586,-0.75393 0.20973,-0.20866 0.54611,-0.54278 0.75586,-0.75001 0.20973,-0.20722 0.54611,-0.53829 0.75584,-0.74353 0.20975,-0.20525 0.54614,-0.53305 0.75587,-0.73575 0.20975,-0.2027 0.54613,-0.5256 0.75586,-0.72514 0.20975,-0.19954 0.54612,-0.5172 0.75586,-0.71306 0.20975,-0.19585 0.54612,-0.50694 0.75586,-0.69854 0.20975,-0.1916 0.54612,-0.49554 0.75586,-0.68232 0.20973,-0.1868 0.54611,-0.48253 0.75586,-0.66396 0.20973,-0.18141 0.54613,-0.46808 0.75588,-0.64362 0.20973,-0.17553 0.54611,-0.45237 0.75584,-0.62154 0.20975,-0.16918 0.54613,-0.43544 0.75586,-0.59778 0.20975,-0.16234 0.54612,-0.41716 0.75586,-0.57224 0.20975,-0.15506 0.54611,-0.3981 0.75586,-0.54544 0.20975,-0.14732 0.54611,-0.37727 0.75586,-0.51643 0.20974,-0.13917 0.54612,-0.356 0.75587,-0.48662 0.20975,-0.13062 0.54611,-0.33318 0.75586,-0.45482 0.20973,-0.12164 0.54611,-0.30954 0.75586,-0.42193 0.20973,-0.11242 0.54611,-0.28539 0.75586,-0.3882 0.20973,-0.10283 0.54611,-0.26 0.75584,-0.35295 0.20975,-0.09296 0.54613,-0.23426 0.75586,-0.31705 0.20975,-0.08283 0.54615,-0.20746 0.75588,-0.27986 0.20975,-0.07241 0.54611,-0.18016 0.75586,-0.24199 0.20975,-0.06185 0.54611,-0.15267 0.75585,-0.20375 0.20975,-0.05106 0.54612,-0.12421 0.75587,-0.16436 0.20973,-0.04014 0.54611,-0.0959 0.75586,-0.12501 0.20973,-0.0291 0.54612,-0.06679 0.75587,-0.08476 0.20973,-0.01797 0.54611,-0.03797 0.75584,-0.04477 0.20975,-0.0068 0.54613,-0.0087 0.75586,-0.0043 0.20975,0.0044 0.54613,0.02042 0.75586,0.03591 0.20975,0.01549 0.54612,0.04912 0.75586,0.0757 0.20975,0.02658 0.54611,0.07823 0.75586,0.1159 0.20975,0.03769 0.54613,0.10709 0.75588,0.15572 0.20973,0.04864 0.54611,0.13545 0.75586,0.19487 0.20973,0.0594 0.54611,0.16333 0.75586,0.23335 0.20973,0.07004 0.54611,0.19095 0.75586,0.27142 0.20973,0.08047 0.54611,0.21795 0.75584,0.30861 0.20975,0.09069 0.54612,0.24436 0.75586,0.34496 0.20975,0.1006 0.54614,0.26993 0.75587,0.3802 0.20975,0.11028 0.54612,0.29498 0.75586,0.41458 0.20975,0.1196 0.54611,0.31885 0.75586,0.44747 0.20975,0.1286 0.54611,0.34222 0.75586,0.47946 0.20973,0.13727 0.54611,0.36426 0.75586,0.50975 0.20973,0.14551 0.54611,0.38557 0.75586,0.53894 0.20973,0.15337 0.54613,0.40561 0.75586,0.56642 0.20975,0.1608 0.54613,0.42481 0.75586,0.59258 0.20975,0.16774 0.54613,0.44238 0.75586,0.61656 0.20975,0.17419 0.54611,0.45871 0.75586,0.63887 0.20975,0.18016 0.54611,0.47403 0.75585,0.65961 0.20975,0.1856 0.54612,0.48747 0.75587,0.678 0.20973,0.19056 0.54613,0.50037 0.75587,0.69532 0.20973,0.19494 0.54611,0.51103 0.75586,0.70979 0.20973,0.19878 0.54611,0.52074 0.75584,0.72276 0.20975,0.20204 0.54613,0.52867 0.75586,0.73339 0.20975,0.2047 0.54613,0.53518 0.75586,0.74202 0.20975,0.20681 0.54612,0.54036 0.75586,0.74871 0.20975,0.20838 0.54613,0.54375 0.75588,0.75306 0.20974,0.20929 0.75586,0.75541 0.75586,0.75541"
       style="fill:none;stroke:#eb0a36;stroke-width:0.79701;stroke-linecap:butt;stroke-linejoin:miter;stroke-miterlimit:10;stroke-dasharray:none;stroke-opacity:1"
       transform="matrix(1.3333333,0,0,-1.3333333,56.958667,208.44667)" />
    <g
       id="g43"
       aria-label="y=f(x)"
       transform="matrix(1.3333333,0,0,1.3333333,334.04267,136.17733)">
      <path
         id="path44"
         d="m 4.8400703,-3.7980391 c 0.046875,-0.140625 0.046875,-0.1523437 0.046875,-0.2226562 0,-0.1875 -0.140625,-0.2695313 -0.2929687,-0.2695313 -0.1054688,0 -0.2578125,0.058594 -0.3515625,0.1992188 -0.023437,0.058594 -0.09375,0.3632812 -0.140625,0.5390625 -0.070312,0.2578125 -0.140625,0.5273437 -0.1992188,0.796875 l -0.4453125,1.79296874 c -0.035156,0.15234375 -0.46875,0.85546875 -1.125,0.85546875 -0.5039062,0 -0.6210937,-0.4453125 -0.6210937,-0.80859375 0,-0.45703124 0.1757812,-1.07812504 0.515625,-1.95703124 0.1523437,-0.4101563 0.1992187,-0.515625 0.1992187,-0.7148438 0,-0.4453125 -0.328125,-0.8203125 -0.8203125,-0.8203125 -0.94921874,0 -1.31249999,1.453125 -1.31249999,1.5351563 0,0.1054687 0.09375,0.1054687 0.1171875,0.1054687 0.09375,0 0.10546875,-0.023437 0.15234375,-0.1875 0.26953125,-0.9375 0.66796874,-1.2304687 1.00781254,-1.2304687 0.082031,0 0.2578125,0 0.2578125,0.3164062 0,0.2460938 -0.1054688,0.515625 -0.1757813,0.703125 -0.3984375,1.0546875 -0.5742187,1.6171875 -0.5742187,2.0859375 0,0.89062504 0.6210937,1.18359379 1.21875,1.18359379 0.3867187,0 0.7265625,-0.1640625 0.9960937,-0.4453125 -0.1289062,0.515625 -0.2460937,1.0078125 -0.6445312,1.53515621 -0.2578125,0.3398438 -0.6328125,0.6328125 -1.0898438,0.6328125 -0.140625,0 -0.59765624,-0.035156 -0.76171874,-0.421875 0.1640625,0 0.29296874,0 0.43359374,-0.1171875 0.09375,-0.09375 0.1992188,-0.2226562 0.1992188,-0.41015621 0,-0.31640625 -0.2695313,-0.3515625 -0.375,-0.3515625 -0.22265629,0 -0.55078129,0.1640625 -0.55078129,0.64453121 0,0.5039063 0.43359375,0.8671875 1.05468749,0.8671875 1.0195313,0 2.0507813,-0.9023437 2.3320313,-2.02734371 z m 0,0"
         style="fill:#eb0a36;fill-opacity:1;fill-rule:nonzero;stroke:none" />
      <path
         id="path45"
         d="m 14.856672,-3.2589766 c 0.152344,0 0.339844,0 0.339844,-0.1992187 0,-0.1992188 -0.1875,-0.1992188 -0.328125,-0.1992188 H 8.9035469 c -0.140625,0 -0.328125,0 -0.328125,0.1992188 0,0.1992187 0.1875,0.1992187 0.3398437,0.1992187 z m 0.01172,1.9335938 c 0.140625,0 0.328125,0 0.328125,-0.1992188 0,-0.1992187 -0.1875,-0.1992187 -0.339844,-0.1992187 H 8.9152656 c -0.1523437,0 -0.3398437,0 -0.3398437,0.1992187 0,0.1992188 0.1875,0.1992188 0.328125,0.1992188 z m 0,0"
         style="fill:#eb0a36;fill-opacity:1;fill-rule:nonzero;stroke:none" />
      <path
         id="path46"
         d="m 22.177961,-3.9855391 h 0.855469 c 0.199218,0 0.304687,0 0.304687,-0.1992187 0,-0.1054688 -0.105469,-0.1054688 -0.269531,-0.1054688 h -0.832031 l 0.210937,-1.1367187 c 0.03516,-0.2109375 0.175781,-0.9140625 0.234375,-1.0429688 0.09375,-0.1875 0.257813,-0.3398437 0.46875,-0.3398437 0.04687,0 0.304688,0 0.492188,0.1875 -0.433594,0.035156 -0.539063,0.3867187 -0.539063,0.5390625 0,0.2226562 0.175781,0.3398437 0.363281,0.3398437 0.269532,0 0.550782,-0.2109375 0.550782,-0.5976562 0,-0.4570313 -0.457032,-0.6796875 -0.867188,-0.6796875 -0.339844,0 -0.960937,0.1757812 -1.265625,1.1601562 -0.05859,0.2109375 -0.08203,0.3164063 -0.328125,1.5703125 H 20.87718 c -0.199219,0 -0.304688,0 -0.304688,0.1875 0,0.1171875 0.09375,0.1171875 0.28125,0.1171875 h 0.65625 l -0.75,3.93750004 c -0.175781,0.9609375 -0.339844,1.87499996 -0.867187,1.87499996 -0.03516,0 -0.28125,0 -0.46875,-0.1875 0.457031,-0.023437 0.539062,-0.3867187 0.539062,-0.5390625 0,-0.22265621 -0.175781,-0.33984371 -0.363281,-0.33984371 -0.257813,0 -0.550781,0.2109375 -0.550781,0.59765621 0,0.4453125 0.433593,0.6796875 0.84375,0.6796875 0.550781,0 0.949218,-0.5859375 1.125,-0.9609375 0.328125,-0.63281246 0.550781,-1.83984371 0.5625,-1.91015621 z m 0,0"
         style="fill:#eb0a36;fill-opacity:1;fill-rule:nonzero;stroke:none" />
      <path
         id="path47"
         d="m 27.767805,2.3894609 c 0,-0.035156 0,-0.046875 -0.164063,-0.2226562 -1.242187,-1.25390626 -1.570312,-3.12890626 -1.570312,-4.6640625 0,-1.7226563 0.386718,-3.4570313 1.605468,-4.7109375 0.128907,-0.1171875 0.128907,-0.1289063 0.128907,-0.1640625 0,-0.070312 -0.03516,-0.1054688 -0.09375,-0.1054688 -0.105469,0 -0.996094,0.6796875 -1.582032,1.9453125 -0.515625,1.1015625 -0.632812,2.203125 -0.632812,3.0351563 0,0.7851562 0.117187,1.99218749 0.65625,3.11718749 0.597656,1.21875001 1.453125,1.87500001 1.558594,1.87500001 0.05859,0 0.09375,-0.035156 0.09375,-0.1054688 z m 0,0"
         style="fill:#eb0a36;fill-opacity:1;fill-rule:nonzero;stroke:none" />
      <path
         id="path48"
         d="m 31.678938,-3.0128828 c 0.05859,-0.2578125 0.292968,-1.171875 0.984375,-1.171875 0.04687,0 0.292968,0 0.503906,0.1289062 -0.28125,0.046875 -0.480469,0.3046875 -0.480469,0.5390625 0,0.1640625 0.105469,0.3515625 0.375,0.3515625 0.222656,0 0.539063,-0.1875 0.539063,-0.5859375 0,-0.515625 -0.585938,-0.65625 -0.925782,-0.65625 -0.574218,0 -0.925781,0.5273438 -1.042968,0.7617188 -0.257813,-0.65625 -0.785157,-0.7617188 -1.078125,-0.7617188 -1.042969,0 -1.605469,1.2890625 -1.605469,1.5351563 0,0.1054687 0.105469,0.1054687 0.117187,0.1054687 0.08203,0 0.117188,-0.023437 0.128907,-0.1171875 0.339843,-1.0546875 0.996093,-1.3007812 1.335937,-1.3007812 0.1875,0 0.539063,0.09375 0.539063,0.6679687 0,0.3046875 -0.164063,0.9726563 -0.539063,2.3671875 -0.152344,0.62109379 -0.503906,1.04296879 -0.949219,1.04296879 -0.05859,0 -0.28125,0 -0.492187,-0.12890625 0.246094,-0.0585938 0.46875,-0.26953125 0.46875,-0.5390625 0,-0.26953124 -0.222656,-0.35156254 -0.375,-0.35156254 -0.292969,0 -0.539063,0.25781254 -0.539063,0.57421879 0,0.45703125 0.492188,0.65625 0.9375,0.65625 0.65625,0 1.007813,-0.69140625 1.042969,-0.75 0.117188,0.36328125 0.480469,0.75 1.078125,0.75 1.019531,0 1.59375,-1.27734379 1.59375,-1.53515629 0,-0.09375 -0.09375,-0.09375 -0.128906,-0.09375 -0.08203,0 -0.105469,0.035156 -0.128906,0.1054688 -0.328125,1.06640624 -0.996094,1.31249999 -1.324219,1.31249999 -0.386719,0 -0.539063,-0.328125 -0.539063,-0.65625 0,-0.22265625 0.05859,-0.44531249 0.164063,-0.87890629 z m 0,0"
         style="fill:#eb0a36;fill-opacity:1;fill-rule:nonzero;stroke:none" />
      <path
         id="path49"
         d="m 36.926008,-2.4972578 c 0,-0.7734375 -0.117188,-1.9804688 -0.65625,-3.1054688 -0.597656,-1.21875 -1.464844,-1.875 -1.558594,-1.875 -0.05859,0 -0.105469,0.046875 -0.105469,0.1054688 0,0.035156 0,0.046875 0.199219,0.234375 0.972656,0.984375 1.535156,2.5664062 1.535156,4.640625 0,1.71093749 -0.363281,3.45703124 -1.59375,4.7226562 -0.140625,0.1171875 -0.140625,0.1289063 -0.140625,0.1640625 0,0.058594 0.04687,0.1054688 0.105469,0.1054688 0.09375,0 0.996094,-0.6796875 1.582031,-1.94531251 0.503907,-1.1015625 0.632813,-2.20312499 0.632813,-3.04687499 z m 0,0"
         style="fill:#eb0a36;fill-opacity:1;fill-rule:nonzero;stroke:none" />
    </g>
    <path
       id="path50"
       d="M 170.0809,0 V 54.42581"
       style="fill:none;stroke:#ec008c;stroke-width:0.3985;stroke-linecap:butt;stroke-linejoin:miter;stroke-miterlimit:10;stroke-dasharray:2.98883, 2.98883;stroke-dashoffset:0;stroke-opacity:1"
       transform="matrix(1.3333333,0,0,-1.3333333,56.958667,208.44667)" />
    <path
       id="path51"
       d="M 244.91646,0 V 42.5202"
       style="fill:none;stroke:#ec008c;stroke-width:0.3985;stroke-linecap:butt;stroke-linejoin:miter;stroke-miterlimit:10;stroke-dasharray:2.98883, 2.98883;stroke-dashoffset:0;stroke-opacity:1"
       transform="matrix(1.3333333,0,0,-1.3333333,56.958667,208.44667)" />
    <path
       id="path52"
       d="m 3.7139063,-3.7607812 c -0.1757813,-0.375 -0.46875,-0.6445313 -0.9140625,-0.6445313 -1.171875,0 -2.4023438,1.4648438 -2.4023438,2.9179688 0,0.93749995 0.55078125,1.59374995 1.3242188,1.59374995 0.1992187,0 0.703125,-0.03515625 1.3007812,-0.73828125 0.070312,0.41015625 0.421875,0.73828125 0.9023438,0.73828125 0.3515625,0 0.5742187,-0.22265625 0.7382812,-0.5390625 C 4.8271875,-0.7959375 4.9560938,-1.4053125 4.9560938,-1.42875 c 0,-0.09375 -0.082031,-0.09375 -0.1171875,-0.09375 -0.09375,0 -0.1054688,0.035156 -0.140625,0.1757813 -0.1640625,0.6445312 -0.3515625,1.24218745 -0.75,1.24218745 -0.2695313,0 -0.3046875,-0.2578125 -0.3046875,-0.45703125 0,-0.22265625 0.023437,-0.3046875 0.1289062,-0.7382812 0.1171875,-0.421875 0.1289063,-0.5273438 0.2226563,-0.9023438 l 0.3515625,-1.3945312 c 0.070312,-0.28125 0.070312,-0.2929688 0.070312,-0.3398438 0,-0.1640625 -0.1171875,-0.2695312 -0.28125,-0.2695312 -0.2460938,0 -0.3867188,0.2226562 -0.4218745,0.4453125 z M 3.069375,-1.1826562 C 3.0225,-1.006875 3.0225,-0.9834375 2.8701563,-0.819375 c -0.4453125,0.55078125 -0.84375,0.71484375 -1.125,0.71484375 -0.5039063,0 -0.6445313,-0.55078125 -0.6445313,-0.93749995 0,-0.5039063 0.328125,-1.7226563 0.5507813,-2.1796875 0.3046875,-0.5976563 0.7617187,-0.9609375 1.1601562,-0.9609375 0.6445313,0 0.7851563,0.8203125 0.7851563,0.8789062 0,0.058594 -0.023437,0.1171875 -0.035156,0.1640625 z m 0,0"
       style="fill:#ec008c;fill-opacity:1;fill-rule:nonzero;stroke:none"
       aria-label="a"
       transform="matrix(1.3333333,0,0,1.3333333,280.22,219.28)" />
    <path
       id="path53"
       d="m 2.3800234,-6.8087266 c 0,0 0,-0.1054687 -0.1289062,-0.1054687 -0.2226563,0 -0.9492188,0.082031 -1.21875,0.1054687 -0.0703125,0 -0.18750001,0.011719 -0.18750001,0.1992188 0,0.1171875 0.09375,0.1171875 0.24609371,0.1171875 0.46875,0 0.4921875,0.070312 0.4921875,0.1640625 0,0.070312 -0.082031,0.4101562 -0.140625,0.6210937 l -0.80859371,3.2460938 c -0.12890625,0.5039062 -0.1640625,0.65625 -0.1640625,1.0078125 0,0.94921874 0.52734375,1.55859374 1.26562501,1.55859374 1.171875,0 2.4023437,-1.47656254 2.4023437,-2.91796874 0,-0.9023438 -0.5273437,-1.59375 -1.3242187,-1.59375 -0.4570313,0 -0.8671875,0.2929687 -1.171875,0.5976562 z m -0.9375,3.7734375 c 0.058594,-0.2226562 0.058594,-0.2460937 0.1523438,-0.3515625 0.4921875,-0.6445312 0.9375,-0.796875 1.1953125,-0.796875 0.3632812,0 0.6328125,0.2929688 0.6328125,0.9375 0,0.5859375 -0.328125,1.734375 -0.515625,2.109375 -0.328125,0.66796879 -0.7851563,1.03125004 -1.171875,1.03125004 -0.3398438,0 -0.6679688,-0.26953125 -0.6679688,-1.00781254 0,-0.1875 0,-0.3867187 0.1640625,-1.0078125 z m 0,0"
       style="fill:#ec008c;fill-opacity:1;fill-rule:nonzero;stroke:none"
       aria-label="b"
       transform="matrix(1.3333333,0,0,1.3333333,380.65867,222.78533)" />
  </g>
</svg>
