<?xml version="1.0" encoding="UTF-8" standalone="no"?>
<!-- Created with Inkscape (http://www.inkscape.org/) -->

<svg
   version="1.1"
   id="svg1"
   width="251.82774"
   height="141.31461"
   viewBox="0 0 251.82774 141.31461"
   sodipodi:docname="5.2-grafica-masmenos.svg"
   inkscape:version="1.4.2 (f4327f4, 2025-05-13)"
   xmlns:inkscape="http://www.inkscape.org/namespaces/inkscape"
   xmlns:sodipodi="http://sodipodi.sourceforge.net/DTD/sodipodi-0.dtd"
   xmlns="http://www.w3.org/2000/svg"
   xmlns:svg="http://www.w3.org/2000/svg">
  <defs
     id="defs1" />
  <sodipodi:namedview
     id="namedview1"
     pagecolor="#ffffff"
     bordercolor="#000000"
     borderopacity="0.25"
     inkscape:showpageshadow="2"
     inkscape:pageopacity="0.0"
     inkscape:pagecheckerboard="0"
     inkscape:deskcolor="#d1d1d1"
     inkscape:zoom="2.2241536"
     inkscape:cx="203.89779"
     inkscape:cy="91.495479"
     inkscape:window-width="1920"
     inkscape:window-height="1009"
     inkscape:window-x="-8"
     inkscape:window-y="-8"
     inkscape:window-maximized="1"
     inkscape:current-layer="g1">
    <inkscape:page
       x="0"
       y="0"
       inkscape:label="12"
       id="page1"
       width="251.82774"
       height="141.31461"
       margin="0"
       bleed="0" />
  </sodipodi:namedview>
  <g
     id="g1"
     inkscape:groupmode="layer"
     inkscape:label="12"
     transform="translate(-38.402733,-90.08203)">
    <path
       id="path2"
       d="M -12.75595,0 H 173.02307"
       style="fill:none;stroke:#000000;stroke-width:0.3985;stroke-linecap:butt;stroke-linejoin:miter;stroke-miterlimit:10;stroke-dasharray:none;stroke-opacity:1"
       transform="matrix(1.3333333,0,0,-1.3333333,55.410667,196.85067)" />
    <path
       id="path3"
       d="M -1.19551,1.59401 C -1.09587,0.99626 0,0.09961 0.29886,0 0,-0.09961 -1.09587,-0.99626 -1.19551,-1.59401"
       style="fill:none;stroke:#000000;stroke-width:0.31879;stroke-linecap:round;stroke-linejoin:round;stroke-miterlimit:10;stroke-dasharray:none;stroke-opacity:1"
       transform="matrix(1.3333333,0,0,-1.3333333,286.10809,196.85067)" />
    <path
       id="path4"
       d="m 3.6444766,-3.2930469 c 0.070312,-0.28125 0.3164062,-1.2890625 1.078125,-1.2890625 0.058594,0 0.3164062,0 0.5507812,0.140625 -0.3046875,0.058594 -0.5273437,0.328125 -0.5273437,0.5859375 0,0.1757813 0.1171875,0.3867188 0.4101562,0.3867188 0.2460938,0 0.5976563,-0.1992188 0.5976563,-0.6328125 0,-0.5625 -0.6445313,-0.7265625 -1.0195313,-0.7265625 -0.6328125,0 -1.0195312,0.5859375 -1.1484375,0.8320312 -0.2695312,-0.7148437 -0.8554687,-0.8320312 -1.171875,-0.8320312 -1.1367187,0 -1.75781249,1.4179687 -1.75781249,1.6875 0,0.1054687 0.10546875,0.1054687 0.12890625,0.1054687 0.0820313,0 0.1171875,-0.023437 0.140625,-0.1171875 0.37500004,-1.1601562 1.08984374,-1.4296875 1.46484374,-1.4296875 0.2109375,0 0.5859375,0.09375 0.5859375,0.7265625 0,0.3398438 -0.1875,1.078125 -0.5859375,2.6015625 -0.1757812,0.67968753 -0.5625,1.13671878 -1.0429687,1.13671878 -0.058594,0 -0.3164063,0 -0.53906254,-0.140625 0.26953124,-0.0585938 0.51562504,-0.29296875 0.51562504,-0.59765625 0,-0.29296873 -0.2460938,-0.37500003 -0.41015629,-0.37500003 -0.328125,0 -0.59765625,0.28125003 -0.59765625,0.63281253 0,0.50390625 0.55078125,0.71484375 1.03125004,0.71484375 0.7148437,0 1.1015625,-0.76171875 1.1367187,-0.83203125 0.1289063,0.41015625 0.5273438,0.83203125 1.1835938,0.83203125 1.125,0 1.7460937,-1.40624998 1.7460937,-1.67578128 0,-0.1054687 -0.1054687,-0.1054687 -0.1289062,-0.1054687 -0.1054688,0 -0.1289063,0.035156 -0.140625,0.1171875 -0.3632813,1.16015623 -1.1132813,1.42968748 -1.453125,1.42968748 -0.4335938,0 -0.609375,-0.3515625 -0.609375,-0.7265625 0,-0.23437498 0.070312,-0.48046878 0.1875,-0.96093748 z m 0,0"
       style="fill:#000000;fill-opacity:1;fill-rule:nonzero;stroke:none"
       aria-label="x"
       transform="matrix(1.3333333,0,0,1.3333333,282.55867,208.22667)" />
    <path
       id="path5"
       d="M 0,-25.51193 V 76.07758"
       style="fill:none;stroke:#000000;stroke-width:0.3985;stroke-linecap:butt;stroke-linejoin:miter;stroke-miterlimit:10;stroke-dasharray:none;stroke-opacity:1"
       transform="matrix(1.3333333,0,0,-1.3333333,55.410667,196.85067)" />
    <path
       id="path6"
       d="M -1.19551,1.59401 C -1.09587,0.99626 0,0.09961 0.29886,0 0,-0.09961 -1.09587,-0.99626 -1.19551,-1.59401"
       style="fill:none;stroke:#000000;stroke-width:0.31879;stroke-linecap:round;stroke-linejoin:round;stroke-miterlimit:10;stroke-dasharray:none;stroke-opacity:1"
       transform="matrix(0,-1.3333333,-1.3333333,0,55.410667,95.413893)" />
    <path
       id="path7"
       d="m 5.2982734,-4.1615078 c 0.046875,-0.1523438 0.046875,-0.1757813 0.046875,-0.2460938 0,-0.1992187 -0.1523437,-0.2929687 -0.3164062,-0.2929687 -0.1054688,0 -0.28125,0.058594 -0.375,0.2226562 -0.023437,0.058594 -0.1171875,0.3984375 -0.1523438,0.5976563 -0.082031,0.28125 -0.1523437,0.5742187 -0.2226562,0.8671875 l -0.4921875,1.96875 c -0.046875,0.16406249 -0.515625,0.92578124 -1.2304688,0.92578124 -0.5625,0 -0.6796875,-0.48046875 -0.6796875,-0.89062504 0,-0.4921875 0.1875,-1.171875 0.5625,-2.1328125 0.1757813,-0.4453125 0.2109375,-0.5742187 0.2109375,-0.7851562 0,-0.4921875 -0.3515625,-0.9023438 -0.890625,-0.9023438 -1.04296871,0 -1.44140621,1.5820313 -1.44140621,1.6875 0,0.1054688 0.10546875,0.1054688 0.12890625,0.1054688 0.10546875,0 0.1171875,-0.023437 0.17578125,-0.1992188 0.29296875,-1.0195312 0.72656251,-1.3476562 1.10156251,-1.3476562 0.09375,0 0.2695312,0 0.2695312,0.3515625 0,0.2695312 -0.1054687,0.5507812 -0.1757812,0.7617187 -0.4453125,1.1601563 -0.6328125,1.78125 -0.6328125,2.2851563 0,0.97265624 0.6796875,1.30078124 1.3242187,1.30078124 0.421875,0 0.796875,-0.1875 1.1015625,-0.4921875 -0.140625,0.57421875 -0.2695312,1.1015625 -0.703125,1.68749996 -0.2929687,0.3632813 -0.703125,0.6796875 -1.2070312,0.6796875 -0.1523438,0 -0.6445313,-0.023437 -0.83203126,-0.4570312 0.17578126,0 0.31640626,0 0.48046876,-0.1289063 0.1054687,-0.09375 0.2109375,-0.234375 0.2109375,-0.44531246 0,-0.33984375 -0.2929688,-0.38671875 -0.3984375,-0.38671875 -0.25781251,0 -0.60937501,0.17578125 -0.60937501,0.71484371 0,0.5390625 0.48046871,0.9492188 1.14843751,0.9492188 1.125,0 2.25,-0.9960938 2.5546875,-2.22656251 z m 0,0"
       style="fill:#000000;fill-opacity:1;fill-rule:nonzero;stroke:none"
       aria-label="y"
       transform="matrix(1.3333333,0,0,1.3333333,42.642667,96.521333)" />
    <path
       id="path8"
       d="m 0,0 v 25.51193 c 0,0 1.20572,-0.02525 1.66882,-0.05566 0.46309,-0.03041 1.20575,-0.10312 1.66886,-0.1635 0.4631,-0.06037 1.20575,-0.18164 1.66884,-0.27171 0.4631,-0.09008 1.20576,-0.25792 1.66886,-0.37761 0.46309,-0.11971 1.20574,-0.33621 1.66884,-0.48505 0.46309,-0.14885 1.20577,-0.41078 1.66886,-0.58781 0.4631,-0.17704 1.20575,-0.48383 1.66884,-0.68827 0.4631,-0.20442 1.20576,-0.55395 1.66886,-0.78515 0.46309,-0.23123 1.20575,-0.62425 1.66886,-0.88135 0.4631,-0.2571 1.20575,-0.69008 1.66884,-0.97165 0.4631,-0.28155 1.20576,-0.75277 1.66887,-1.05767 0.46308,-0.3049 1.20571,-0.81278 1.66882,-1.13982 0.46309,-0.32703 1.20576,-0.86943 1.66885,-1.21728 0.46311,-0.34782 1.20575,-0.92268 1.66884,-1.28968 0.46311,-0.36701 1.20577,-0.97093 1.66887,-1.35549 0.46309,-0.38456 1.20575,-1.01561 1.66885,-1.41621 0.46311,-0.40059 1.20575,-1.05614 1.66884,-1.47108 0.46311,-0.41498 1.20577,-1.09232 1.66887,-1.51976 0.46309,-0.42743 1.20574,-1.12299 1.66884,-1.56102 0.46309,-0.43804 1.20575,-1.14917 1.66885,-1.59606 0.46311,-0.44688 1.20575,-1.171 1.66884,-1.62486 0.46311,-0.45387 1.20577,-1.18756 1.66887,-1.64629 0.46309,-0.45871 1.20574,-1.19819 1.66884,-1.65988 0.46309,-0.46168 1.66884,-1.66769 1.66884,-1.66769 L 40.05394,0 Z"
       style="fill:#9999ff;fill-opacity:0.2;fill-rule:nonzero;stroke:none"
       transform="matrix(1.3333333,0,0,-1.3333333,55.410667,196.85067)" />
    <path
       id="path9"
       d="m 40.05394,0 v 0.01984 c 0,0 2.4115,-2.41228 3.33769,-3.32793 0.92621,-0.91566 2.41152,-2.37931 3.33771,-3.27153 0.92619,-0.89223 2.4115,-2.30541 3.33769,-3.15901 0.92621,-0.85361 2.4115,-2.19289 3.33769,-2.99318 0.9262,-0.80031 2.4115,-2.04149 3.33771,-2.77481 0.92619,-0.73331 2.41152,-1.85668 3.33769,-2.51048 0.9262,-0.65381 2.41153,-1.6386 3.33773,-2.20179 0.92619,-0.56317 2.4115,-1.39438 3.33769,-1.85725 0.92619,-0.46288 2.41151,-1.12424 3.33771,-1.47888 0.92619,-0.35463 2.41148,-0.83684 3.33767,-1.07714 0.92621,-0.24029 2.41152,-0.53276 3.33771,-0.65477 0.92619,-0.12202 2.4115,-0.22307 3.33771,-0.22461 0.92619,-0.0016 2.4115,0.09429 3.33769,0.21332 0.92619,0.11904 2.4115,0.40717 3.33771,0.64464 0.92619,0.2375 2.41151,0.71521 3.33771,1.06703 0.92619,0.35182 2.41149,1.00859 3.33769,1.46875 0.92619,0.46019 2.4115,1.28719 3.33769,1.84793 0.92619,0.56075 2.41151,1.54195 3.33771,2.19361 0.92619,0.65164 2.4115,1.77159 3.33769,2.50308 0.92621,0.73146 2.41151,1.97018 3.33771,2.76895 0.92619,0.79878 2.41148,2.13565 3.33769,2.98813 0.92619,0.85246 2.41151,2.2644 3.33771,3.15591 0.92619,0.89151 2.4115,2.35429 3.3377,3.26956 0.9262,0.91529 3.3377,3.3272 3.3377,3.3272 L 120.16147,0 Z"
       style="fill:#ff9999;fill-opacity:0.2;fill-rule:nonzero;stroke:none"
       transform="matrix(1.3333333,0,0,-1.3333333,55.410667,196.85067)" />
    <path
       id="path10"
       d="m 120.16147,0 v -0.06071 c 0,0 1.20573,1.20545 1.66883,1.66725 0.4631,0.4618 1.20577,1.20208 1.66886,1.66107 0.46311,0.459 1.20577,1.19298 1.66885,1.64705 0.46311,0.45407 1.20575,1.17836 1.66886,1.62564 0.46309,0.44726 1.20575,1.1595 1.66885,1.598 0.46311,0.43851 1.20575,1.13463 1.66884,1.56258 0.4631,0.42793 1.20575,1.10608 1.66884,1.5217 0.4631,0.41562 1.20575,1.07246 1.66885,1.47382 0.46309,0.40136 1.20575,1.0335 1.66885,1.41893 0.46311,0.38542 1.20577,0.99101 1.66886,1.35899 0.4631,0.36798 1.20575,0.94444 1.66885,1.2932 0.46309,0.34874 1.20575,0.89232 1.66886,1.22038 0.46309,0.32806 1.20575,0.83797 1.66883,1.14409 0.46311,0.30614 1.20577,0.77951 1.66886,1.06236 0.4631,0.28285 1.20575,0.7181 1.66885,0.97633 0.46309,0.25822 1.20575,0.65242 1.66886,0.88483 0.4631,0.23241 1.20575,0.58441 1.66883,0.79024 0.46311,0.20582 1.20577,0.5148 1.66888,0.69331 0.46308,0.1785 1.20573,0.44312 1.66883,0.59326 0.46309,0.15014 1.20575,0.36791 1.66884,0.48894 0.46311,0.12104 1.20577,0.2918 1.66885,0.38345 0.46311,0.09165 1.20576,0.21526 1.66886,0.27717 0.46309,0.06189 1.20575,0.13712 1.66885,0.16892 0.46311,0.03184 1.66884,0.06037 1.66884,0.06037 L 160.21503,0 Z"
       style="fill:#9999ff;fill-opacity:0.2;fill-rule:nonzero;stroke:none"
       transform="matrix(1.3333333,0,0,-1.3333333,55.410667,196.85067)" />
    <path
       id="path11"
       d="m 0,25.51193 c 0,0 0.58191,-0.0064 0.80539,-0.01361 0.22351,-0.0072 0.58195,-0.02434 0.80543,-0.03854 0.22348,-0.01421 0.58193,-0.04273 0.80544,-0.06384 0.22348,-0.02112 0.58191,-0.06035 0.8054,-0.08838 0.2235,-0.02802 0.58194,-0.07856 0.80542,-0.11366 0.2235,-0.0351 0.58196,-0.09719 0.80544,-0.13937 0.2235,-0.04217 0.58192,-0.11569 0.80543,-0.16467 0.22348,-0.04898 0.58191,-0.13267 0.80541,-0.18841 0.22349,-0.05575 0.58194,-0.15073 0.80542,-0.21332 0.22349,-0.06261 0.58195,-0.16852 0.80543,-0.23787 0.2235,-0.06935 0.58193,-0.18588 0.80542,-0.26199 0.22348,-0.07608 0.58193,-0.20377 0.80542,-0.28649 0.2235,-0.08275 0.58195,-0.2207 0.80544,-0.30986 0.22348,-0.08919 0.58194,-0.23736 0.80542,-0.33285 0.22349,-0.09549 0.58192,-0.25362 0.80542,-0.35543 0.22349,-0.10179 0.58192,-0.2702 0.80542,-0.37837 0.22349,-0.10818 0.58194,-0.287 0.80543,-0.40134 0.22348,-0.11434 0.58194,-0.30255 0.80542,-0.42276 0.2235,-0.12022 0.58193,-0.31767 0.80542,-0.44378 0.2235,-0.12612 0.58194,-0.3333 0.80542,-0.46519 0.2235,-0.13189 0.58194,-0.34794 0.80544,-0.48545 0.22348,-0.13751 0.58192,-0.36255 0.8054,-0.50566 0.2235,-0.14313 0.58194,-0.37752 0.80544,-0.52593 0.22349,-0.14842 0.58194,-0.39039 0.80542,-0.54382 0.22349,-0.15344 0.58194,-0.40367 0.80543,-0.56212 0.22348,-0.15847 0.58193,-0.41649 0.80543,-0.58003 0.22347,-0.16353 0.58192,-0.43037 0.80541,-0.59872 0.2235,-0.16835 0.58194,-0.4419 0.80542,-0.61467 0.2235,-0.17278 0.58194,-0.4535 0.80544,-0.63065 0.22348,-0.17714 0.58193,-0.46485 0.80542,-0.64619 0.22348,-0.18138 0.58192,-0.47565 0.80542,-0.66101 0.22349,-0.18535 0.58194,-0.48575 0.80542,-0.67501 0.22351,-0.18925 0.58194,-0.49606 0.80542,-0.68902 0.22348,-0.193 0.58192,-0.5055 0.80543,-0.70189 0.22348,-0.19637 0.58193,-0.51393 0.80541,-0.71355 0.22351,-0.19961 0.58195,-0.52254 0.80543,-0.72522 0.2235,-0.20271 0.58194,-0.53012 0.80542,-0.73575 C 30.02412,9.79189 30.38257,9.45952 30.60608,9.25125 30.82956,9.043 31.188,8.70714 31.41148,8.49644 31.635,8.28574 31.99344,7.94565 32.21692,7.73268 32.44041,7.5197 32.79886,7.17647 33.02234,6.9615 33.24582,6.74654 33.60426,6.40007 33.82777,6.18332 34.05125,5.96658 34.4097,5.61768 34.6332,5.3993 34.85669,5.18095 35.21512,4.82922 35.4386,4.60947 35.6621,4.38968 36.02055,4.03629 36.24403,3.81532 36.46753,3.59436 36.82596,3.23878 37.04947,3.0169 37.27295,2.79503 37.6314,2.43874 37.85489,2.21616 38.07838,1.99358 38.43681,1.6358 38.6603,1.41269 c 0.22349,-0.22313 0.58195,-0.58131 0.80543,-0.80464 0.22349,-0.22335 0.58194,-0.58171 0.80543,-0.80501 0.22348,-0.22333 0.58193,-0.58136 0.80542,-0.80463 0.2235,-0.22328 0.58193,-0.58175 0.80542,-0.80465 0.22348,-0.2229 0.58194,-0.57967 0.80542,-0.80193 0.2235,-0.22224 0.58194,-0.57852 0.80544,-0.79997 0.22348,-0.22144 0.58191,-0.57572 0.8054,-0.79608 0.2235,-0.22036 0.58194,-0.573 0.80544,-0.79218 0.22348,-0.21918 0.58194,-0.56985 0.80542,-0.78752 0.22349,-0.21767 0.58194,-0.5654 0.80543,-0.7813 0.22348,-0.21588 0.58193,-0.56062 0.80541,-0.77467 0.22349,-0.21402 0.58194,-0.55615 0.80544,-0.76805 0.22347,-0.21188 0.58193,-0.54964 0.80541,-0.75909 0.2235,-0.20946 0.58194,-0.54352 0.80544,-0.75054 0.22349,-0.20701 0.58192,-0.53735 0.8054,-0.74156 0.2235,-0.20422 0.58195,-0.52917 0.80544,-0.73032 0.22348,-0.20112 0.58192,-0.52133 0.80542,-0.71937 0.22349,-0.19806 0.58192,-0.51337 0.8054,-0.70812 0.22351,-0.19475 0.58196,-0.50438 0.80544,-0.69565 0.22349,-0.19125 0.58194,-0.49543 0.80543,-0.68278 0.22348,-0.18736 0.58193,-0.48428 0.80544,-0.66763 0.22348,-0.18337 0.58191,-0.47469 0.80539,-0.654 0.22351,-0.1793 0.58195,-0.46331 0.80543,-0.63841 0.22348,-0.17511 0.58194,-0.45297 0.80544,-0.62364 0.22348,-0.17067 0.58192,-0.44058 0.80543,-0.60649 0.22349,-0.16591 0.58191,-0.42826 0.80539,-0.58939 0.22351,-0.1611 0.58196,-0.41577 0.80544,-0.57185 0.22349,-0.15607 0.58194,-0.40215 0.80543,-0.55316 0.22348,-0.151 0.58191,-0.38944 0.80543,-0.53526 0.22347,-0.14583 0.58192,-0.37537 0.8054,-0.51581 0.22351,-0.14041 0.58195,-0.36158 0.80543,-0.49633 0.2235,-0.13475 0.58196,-0.34593 0.80544,-0.47491 0.22348,-0.12898 0.58191,-0.33139 0.80542,-0.4547 0.22348,-0.12329 0.58192,-0.31662 0.80542,-0.43403 0.22349,-0.11742 0.58194,-0.30095 0.80542,-0.41225 0.22349,-0.11131 0.58195,-0.28507 0.80543,-0.39007 0.22348,-0.10499 0.58191,-0.26798 0.80542,-0.3667 0.22348,-0.09874 0.58193,-0.25245 0.80542,-0.3449 0.2235,-0.09247 0.58194,-0.23553 0.80542,-0.32156 0.2235,-0.08603 0.58194,-0.21897 0.80542,-0.29857 0.2235,-0.07961 0.58194,-0.20242 0.80544,-0.27522 0.22348,-0.0728 0.58192,-0.18363 0.80542,-0.24953 0.2235,-0.06589 0.58194,-0.16614 0.80542,-0.22539 0.22349,-0.05923 0.58194,-0.14909 0.80542,-0.20164 0.22349,-0.05257 0.58194,-0.13139 0.80543,-0.17714 0.22348,-0.04573 0.58193,-0.11393 0.80543,-0.15259 0.22349,-0.03866 0.58193,-0.09454 0.80541,-0.12613 0.2235,-0.03159 0.58193,-0.07698 0.80542,-0.10161 0.2235,-0.02462 0.58194,-0.0582 0.80544,-0.0759 0.22348,-0.0177 0.58193,-0.04098 0.80542,-0.05178 0.22349,-0.01079 0.58192,-0.02242 0.80542,-0.02608 0.22348,-0.0037 0.58192,-0.0039 0.80542,-3.8e-4 0.22349,0.0036 0.58194,0.01544 0.80542,0.02606 0.22351,0.01065 0.58194,0.03306 0.80543,0.05063 0.22348,0.01755 0.58192,0.05137 0.80542,0.0759 0.22348,0.02452 0.58193,0.06944 0.80542,0.10083 0.2235,0.03135 0.58194,0.08677 0.80542,0.12535 0.22351,0.03855 0.58194,0.10702 0.80542,0.1526 0.22348,0.04558 0.58194,0.1236 0.80544,0.17595 0.22348,0.05232 0.58192,0.14212 0.80542,0.20125 0.22349,0.05914 0.58194,0.15916 0.80542,0.225 0.22351,0.06585 0.58194,0.17685 0.80542,0.24953 0.22348,0.07269 0.58194,0.19505 0.80544,0.27444 0.22347,0.0794 0.58192,0.21195 0.80543,0.29781 0.22348,0.08587 0.58192,0.22887 0.8054,0.32115 0.22351,0.0923 0.58194,0.24556 0.80542,0.34413 0.2235,0.09856 0.58194,0.26137 0.80544,0.36631 0.22348,0.10495 0.58192,0.27887 0.80543,0.39007 0.22348,0.11121 0.58191,0.29422 0.80539,0.41147 0.22351,0.11725 0.58196,0.31047 0.80544,0.43365 0.22349,0.1232 0.58195,0.32547 0.80543,0.4543 0.22348,0.1288 0.58192,0.33949 0.80544,0.47414 0.22348,0.13465 0.58191,0.35596 0.8054,0.49634 0.2235,0.14036 0.58194,0.36973 0.80542,0.51543 0.2235,0.14566 0.58196,0.38357 0.80544,0.53447 0.22348,0.15089 0.58192,0.39717 0.80543,0.55316 0.22349,0.15597 0.58191,0.41014 0.80541,0.57107 0.22349,0.16097 0.58194,0.42313 0.80542,0.58899 0.22349,0.16586 0.58195,0.43594 0.80543,0.60651 0.22348,0.17055 0.58193,0.44784 0.80543,0.62283 0.22347,0.17499 0.58192,0.45923 0.80541,0.63845 0.2235,0.1792 0.58194,0.4699 0.80542,0.6532 0.2235,0.18331 0.58194,0.48066 0.80544,0.668 0.22349,0.18737 0.58192,0.49132 0.8054,0.68241 0.2235,0.19109 0.58194,0.50021 0.80543,0.69487 0.22349,0.19464 0.58195,0.5101 0.80543,0.7081 0.22349,0.19802 0.58194,0.51792 0.80543,0.71901 0.2235,0.20108 0.58193,0.52606 0.80541,0.73028 0.22349,0.20421 0.58193,0.53467 0.80543,0.7416 0.22348,0.20691 0.58194,0.54034 0.80544,0.74975 0.22348,0.2094 0.58191,0.5476 0.8054,0.75948 0.2235,0.21188 0.58194,0.55374 0.80542,0.76767 0.2235,0.21394 0.58194,0.55839 0.80544,0.77428 0.22348,0.21589 0.58194,0.56407 0.80543,0.78169 0.22348,0.2176 0.58191,0.56766 0.80541,0.78673 0.22349,0.21908 0.58194,0.57182 0.80542,0.79217 0.22351,0.22037 0.58195,0.57466 0.80543,0.7961 0.22348,0.22143 0.58194,0.57766 0.80544,0.79996 0.22347,0.2223 0.58191,0.57948 0.8054,0.80232 0.2235,0.22284 0.58194,0.58064 0.80542,0.80386 0.22351,0.22322 0.58195,0.58171 0.80544,0.80502 0.22348,0.2233 0.58192,0.58124 0.80541,0.80462 0.22349,0.22337 0.58193,0.58224 0.80544,0.80543 0.22348,0.22316 0.58193,0.58051 0.80541,0.80309 0.22351,0.22256 0.58195,0.57925 0.80543,0.80114 0.22348,0.22187 0.58192,0.57711 0.80542,0.79802 0.22348,0.2209 0.58193,0.57433 0.80544,0.79415 0.22348,0.21981 0.58192,0.57182 0.8054,0.79022 0.22351,0.21843 0.58196,0.56721 0.80544,0.78401 0.22348,0.2168 0.58194,0.56355 0.80542,0.77858 0.22348,0.21501 0.58192,0.55814 0.80543,0.77116 0.22348,0.21303 0.58193,0.55341 0.80541,0.76416 0.22351,0.21076 0.58194,0.5465 0.80542,0.75481 0.22349,0.20831 0.58194,0.54091 0.80543,0.74666 0.22348,0.20572 0.58193,0.53337 0.80542,0.73613 0.22349,0.20274 0.58194,0.5256 0.80542,0.72522 0.2235,0.19961 0.58194,0.5171 0.80542,0.71355 0.2235,0.19644 0.58194,0.50917 0.80544,0.70227 0.22348,0.19308 0.58192,0.50007 0.80541,0.68942 0.2235,0.18934 0.58195,0.48997 0.80544,0.6754 0.22348,0.18539 0.58193,0.47956 0.80541,0.66099 0.22349,0.18143 0.58194,0.46935 0.80543,0.64661 0.2235,0.17725 0.58192,0.45807 0.80542,0.63101 0.2235,0.17295 0.58193,0.44707 0.80542,0.61547 0.22348,0.16841 0.58194,0.43479 0.80542,0.59832 0.2235,0.16355 0.58194,0.4218 0.80544,0.58043 0.22349,0.15862 0.58194,0.40921 0.80542,0.56288 0.22349,0.15366 0.58192,0.39609 0.80542,0.5446 0.22348,0.14855 0.58194,0.38275 0.80543,0.52593 0.22348,0.14319 0.58193,0.36845 0.80542,0.50607 0.2235,0.13761 0.58194,0.35387 0.80542,0.48583 0.2235,0.13194 0.58193,0.33897 0.80542,0.46519 0.22348,0.12621 0.58194,0.32411 0.80544,0.44455 0.22348,0.12044 0.58192,0.30904 0.80542,0.42354 0.22349,0.1145 0.58192,0.29344 0.8054,0.40175 0.22351,0.10827 0.58194,0.27684 0.80543,0.37875 0.22349,0.10192 0.58195,0.26016 0.80544,0.35582 0.22348,0.09563 0.58193,0.24428 0.80542,0.3336 0.2235,0.08933 0.58193,0.22742 0.80541,0.31026 0.22351,0.08286 0.58195,0.21065 0.80543,0.28691 0.22348,0.07627 0.58194,0.19332 0.80544,0.26276 0.22348,0.06946 0.58192,0.17515 0.80542,0.23785 0.22349,0.0627 0.58192,0.15818 0.8054,0.21411 0.22351,0.05594 0.58196,0.14 0.80544,0.1892 0.22348,0.04918 0.58192,0.12313 0.80543,0.16543 0.22348,0.0423 0.58191,0.10414 0.80541,0.13936 0.22349,0.03522 0.58194,0.08623 0.80542,0.11446 0.22351,0.02824 0.58195,0.06785 0.80543,0.08914 0.22348,0.02127 0.58193,0.04993 0.80544,0.06422 0.22347,0.01433 0.58191,0.03167 0.8054,0.03894 0.2235,0.0073 0.80542,0.01362 0.80542,0.01362"
       style="fill:none;stroke:#eb0a36;stroke-width:0.79701;stroke-linecap:butt;stroke-linejoin:miter;stroke-miterlimit:10;stroke-dasharray:none;stroke-opacity:1"
       transform="matrix(1.3333333,0,0,-1.3333333,55.410667,196.85067)" />
    <g
       id="g11"
       aria-label="y=f(x)"
       transform="matrix(1.3333333,0,0,1.3333333,207.012,132.14)">
      <path
         id="path12"
         d="m 4.8396328,-3.7964062 c 0.046875,-0.140625 0.046875,-0.1523438 0.046875,-0.2226563 0,-0.1875 -0.140625,-0.2695312 -0.2929687,-0.2695312 -0.1054688,0 -0.2578125,0.058594 -0.3515625,0.1992187 -0.023437,0.058594 -0.09375,0.3632813 -0.140625,0.5390625 -0.070312,0.2578125 -0.140625,0.5273438 -0.1992188,0.796875 L 3.4568203,-0.96046875 C 3.4216641,-0.808125 2.9880703,-0.105 2.3318203,-0.105 c -0.5039062,0 -0.6210937,-0.4453125 -0.6210937,-0.80859375 0,-0.45703125 0.1757812,-1.07812495 0.515625,-1.95703125 0.1523437,-0.4101562 0.1992187,-0.515625 0.1992187,-0.7148437 0,-0.4453125 -0.328125,-0.8203125 -0.8203125,-0.8203125 -0.94921874,0 -1.31249999,1.453125 -1.31249999,1.5351562 0,0.1054688 0.09375,0.1054688 0.1171875,0.1054688 0.09375,0 0.10546875,-0.023437 0.15234375,-0.1875 0.26953125,-0.9375 0.66796874,-1.2304688 1.00781254,-1.2304688 0.082031,0 0.2578125,0 0.2578125,0.3164063 0,0.2460937 -0.1054688,0.515625 -0.1757813,0.703125 -0.3984375,1.0546875 -0.5742187,1.6171875 -0.5742187,2.0859375 0,0.89062495 0.6210937,1.1835937 1.21875,1.1835937 0.3867187,0 0.7265625,-0.1640625 0.9960937,-0.4453125 C 3.1638516,0.17625 3.0466641,0.6684375 2.6482266,1.1957813 2.3904141,1.535625 2.0154141,1.8285938 1.5583828,1.8285938 c -0.140625,0 -0.59765624,-0.035156 -0.76171874,-0.421875 0.1640625,0 0.29296874,0 0.43359374,-0.1171875 0.09375,-0.09375 0.1992188,-0.2226563 0.1992188,-0.4101563 0,-0.31640625 -0.2695313,-0.3515625 -0.375,-0.3515625 -0.22265629,0 -0.55078129,0.1640625 -0.55078129,0.6445313 0,0.5039062 0.43359375,0.8671875 1.05468749,0.8671875 1.0195313,0 2.0507813,-0.9023438 2.3320313,-2.0273438 z m 0,0"
         style="fill:#eb0a36;fill-opacity:1;fill-rule:nonzero;stroke:none" />
      <path
         id="path13"
         d="m 14.856234,-3.2573437 c 0.152344,0 0.339844,0 0.339844,-0.1992188 0,-0.1992187 -0.1875,-0.1992187 -0.328125,-0.1992187 H 8.9031094 c -0.140625,0 -0.328125,0 -0.328125,0.1992187 0,0.1992188 0.1875,0.1992188 0.3398437,0.1992188 z m 0.01172,1.9335937 c 0.140625,0 0.328125,0 0.328125,-0.1992187 0,-0.1992188 -0.1875,-0.1992188 -0.339844,-0.1992188 H 8.9148281 c -0.1523437,0 -0.3398437,0 -0.3398437,0.1992188 0,0.1992187 0.1875,0.1992187 0.328125,0.1992187 z m 0,0"
         style="fill:#eb0a36;fill-opacity:1;fill-rule:nonzero;stroke:none" />
      <path
         id="path14"
         d="m 22.177523,-3.9839062 h 0.855469 c 0.199219,0 0.304688,0 0.304688,-0.1992188 0,-0.1054687 -0.105469,-0.1054687 -0.269532,-0.1054687 h -0.832031 l 0.210938,-1.1367188 c 0.03516,-0.2109375 0.175781,-0.9140625 0.234375,-1.0429687 0.09375,-0.1875 0.257812,-0.3398438 0.46875,-0.3398438 0.04687,0 0.304687,0 0.492187,0.1875 -0.433594,0.035156 -0.539062,0.3867188 -0.539062,0.5390625 0,0.2226563 0.175781,0.3398438 0.363281,0.3398438 0.269531,0 0.550781,-0.2109375 0.550781,-0.5976563 0,-0.4570312 -0.457031,-0.6796875 -0.867187,-0.6796875 -0.339844,0 -0.960938,0.1757813 -1.265625,1.1601563 -0.05859,0.2109375 -0.08203,0.3164062 -0.328125,1.5703125 h -0.679688 c -0.199219,0 -0.304687,0 -0.304687,0.1875 0,0.1171875 0.09375,0.1171875 0.28125,0.1171875 h 0.65625 l -0.75,3.93749995 c -0.175782,0.9609375 -0.339844,1.87500005 -0.867188,1.87500005 -0.03516,0 -0.28125,0 -0.46875,-0.1875 0.457031,-0.023437 0.539063,-0.3867188 0.539063,-0.5390625 0,-0.2226563 -0.175782,-0.3398438 -0.363282,-0.3398438 -0.257812,0 -0.550781,0.2109375 -0.550781,0.5976563 0,0.4453125 0.433594,0.6796875 0.84375,0.6796875 0.550781,0 0.949219,-0.5859375 1.125,-0.9609375 0.328125,-0.63281255 0.550781,-1.8398438 0.5625,-1.9101563 z m 0,0"
         style="fill:#eb0a36;fill-opacity:1;fill-rule:nonzero;stroke:none" />
      <path
         id="path15"
         d="m 27.767367,2.3910938 c 0,-0.035156 0,-0.046875 -0.164062,-0.2226563 -1.242188,-1.25390625 -1.570313,-3.12890625 -1.570313,-4.6640625 0,-1.7226562 0.386719,-3.4570312 1.605469,-4.7109375 0.128906,-0.1171875 0.128906,-0.1289062 0.128906,-0.1640625 0,-0.070312 -0.03516,-0.1054687 -0.09375,-0.1054687 -0.105469,0 -0.996094,0.6796875 -1.582031,1.9453125 -0.515625,1.1015625 -0.632813,2.203125 -0.632813,3.0351562 0,0.7851563 0.117188,1.9921875 0.65625,3.1171875 0.597657,1.21875 1.453125,1.875 1.558594,1.875 0.05859,0 0.09375,-0.035156 0.09375,-0.1054687 z m 0,0"
         style="fill:#eb0a36;fill-opacity:1;fill-rule:nonzero;stroke:none" />
      <path
         id="path16"
         d="m 31.6785,-3.01125 c 0.05859,-0.2578125 0.292969,-1.171875 0.984375,-1.171875 0.04687,0 0.292969,0 0.503906,0.1289063 -0.28125,0.046875 -0.480469,0.3046875 -0.480469,0.5390625 0,0.1640625 0.105469,0.3515625 0.375,0.3515625 0.222657,0 0.539063,-0.1875 0.539063,-0.5859375 0,-0.515625 -0.585938,-0.65625 -0.925781,-0.65625 -0.574219,0 -0.925782,0.5273437 -1.042969,0.7617187 -0.257813,-0.65625 -0.785156,-0.7617187 -1.078125,-0.7617187 -1.042969,0 -1.605469,1.2890625 -1.605469,1.5351562 0,0.1054688 0.105469,0.1054688 0.117188,0.1054688 0.08203,0 0.117187,-0.023437 0.128906,-0.1171875 0.339844,-1.0546875 0.996094,-1.3007813 1.335937,-1.3007813 0.1875,0 0.539063,0.09375 0.539063,0.6679688 0,0.3046875 -0.164063,0.9726562 -0.539063,2.3671875 C 30.377719,-0.526875 30.026156,-0.105 29.580844,-0.105 c -0.05859,0 -0.28125,0 -0.492188,-0.12890625 0.246094,-0.0585937 0.46875,-0.26953125 0.46875,-0.5390625 0,-0.26953125 -0.222656,-0.35156245 -0.375,-0.35156245 -0.292969,0 -0.539062,0.25781245 -0.539062,0.5742187 0,0.45703125 0.492187,0.65625 0.9375,0.65625 0.65625,0 1.007812,-0.69140625 1.042968,-0.75 0.117188,0.36328125 0.480469,0.75 1.078125,0.75 1.019532,0 1.59375,-1.2773437 1.59375,-1.5351562 0,-0.09375 -0.09375,-0.09375 -0.128906,-0.09375 -0.08203,0 -0.105469,0.035156 -0.128906,0.1054687 -0.328125,1.06640625 -0.996094,1.3125 -1.324219,1.3125 -0.386719,0 -0.539062,-0.328125 -0.539062,-0.65625 0,-0.22265625 0.05859,-0.4453125 0.164062,-0.8789062 z m 0,0"
         style="fill:#eb0a36;fill-opacity:1;fill-rule:nonzero;stroke:none" />
      <path
         id="path17"
         d="m 36.92557,-2.495625 c 0,-0.7734375 -0.117187,-1.9804687 -0.65625,-3.1054687 -0.597656,-1.21875 -1.464843,-1.875 -1.558593,-1.875 -0.05859,0 -0.105469,0.046875 -0.105469,0.1054687 0,0.035156 0,0.046875 0.199219,0.234375 0.972656,0.984375 1.535156,2.5664063 1.535156,4.640625 0,1.7109375 -0.363281,3.45703125 -1.59375,4.7226563 -0.140625,0.1171875 -0.140625,0.1289062 -0.140625,0.1640625 0,0.058594 0.04687,0.1054687 0.105469,0.1054687 0.09375,0 0.996093,-0.6796875 1.582031,-1.9453125 0.503906,-1.1015625 0.632812,-2.203125 0.632812,-3.046875 z m 0,0"
         style="fill:#eb0a36;fill-opacity:1;fill-rule:nonzero;stroke:none" />
    </g>
    <path
       id="path18"
       d="m 3.7144219,-3.7620234 c -0.1757813,-0.375 -0.46875,-0.6445313 -0.9140625,-0.6445313 -1.171875,0 -2.40234377,1.4648438 -2.40234377,2.9179688 0,0.93749996 0.55078125,1.59374996 1.32421877,1.59374996 0.1992187,0 0.703125,-0.03515625 1.3007812,-0.73828125 0.070312,0.41015625 0.421875,0.73828125 0.9023438,0.73828125 0.3515625,0 0.5742187,-0.22265625 0.7382812,-0.5390625 0.1640625,-0.36328125 0.2929688,-0.97265626 0.2929688,-0.99609376 0,-0.09375 -0.082031,-0.09375 -0.1171875,-0.09375 -0.09375,0 -0.1054688,0.035156 -0.140625,0.1757813 -0.1640625,0.64453121 -0.3515625,1.24218746 -0.75,1.24218746 -0.2695313,0 -0.3046875,-0.2578125 -0.3046875,-0.45703125 0,-0.22265625 0.023437,-0.3046875 0.1289062,-0.73828121 0.1171875,-0.421875 0.1289063,-0.5273438 0.2226563,-0.9023438 l 0.3515625,-1.3945312 c 0.070312,-0.28125 0.070312,-0.2929688 0.070312,-0.3398438 0,-0.1640625 -0.1171875,-0.2695312 -0.28125,-0.2695312 -0.2460938,0 -0.3867188,0.2226562 -0.4218745,0.4453125 z m -0.6445313,2.578125 c -0.046875,0.1757812 -0.046875,0.19921871 -0.1992187,0.36328121 -0.4453125,0.55078125 -0.84375,0.71484375 -1.125,0.71484375 -0.5039063,0 -0.6445313,-0.55078125 -0.6445313,-0.93749996 0,-0.5039063 0.328125,-1.7226563 0.5507813,-2.1796875 0.3046875,-0.5976563 0.7617187,-0.9609375 1.1601562,-0.9609375 0.6445313,0 0.7851563,0.8203125 0.7851563,0.8789062 0,0.058594 -0.023437,0.1171875 -0.035156,0.1640625 z m 0,0"
       style="fill:#000000;fill-opacity:1;fill-rule:nonzero;stroke:none"
       aria-label="a"
       transform="matrix(1.3333333,0,0,1.3333333,60.524,207.684)" />
    <path
       id="path19"
       d="m 2.3787734,-6.8099687 c 0,0 0,-0.1054688 -0.1289062,-0.1054688 -0.2226563,0 -0.9492188,0.082031 -1.21875,0.1054688 -0.0703125,0 -0.18750001,0.011719 -0.18750001,0.1992187 0,0.1171875 0.09375,0.1171875 0.24609371,0.1171875 0.46875,0 0.4921875,0.070312 0.4921875,0.1640625 0,0.070312 -0.082031,0.4101563 -0.140625,0.6210938 l -0.80859371,3.2460937 c -0.12890625,0.5039063 -0.1640625,0.65625 -0.1640625,1.0078125 0,0.94921875 0.52734375,1.55859375 1.26562501,1.55859375 1.171875,0 2.4023437,-1.47656245 2.4023437,-2.91796875 0,-0.9023437 -0.5273437,-1.59375 -1.3242187,-1.59375 -0.4570313,0 -0.8671875,0.2929688 -1.171875,0.5976563 z m -0.9375,3.7734375 c 0.058594,-0.2226563 0.058594,-0.2460938 0.1523438,-0.3515625 0.4921875,-0.6445313 0.9375,-0.796875 1.1953125,-0.796875 0.3632812,0 0.6328125,0.2929687 0.6328125,0.9375 0,0.5859375 -0.328125,1.734375 -0.515625,2.109375 -0.328125,0.6679687 -0.7851563,1.03124995 -1.171875,1.03124995 -0.3398438,0 -0.6679688,-0.26953125 -0.6679688,-1.00781245 0,-0.1875 0,-0.3867188 0.1640625,-1.0078125 z m 0,0"
       style="fill:#000000;fill-opacity:1;fill-rule:nonzero;stroke:none"
       aria-label="b"
       transform="matrix(1.3333333,0,0,1.3333333,266.28533,211.18933)" />
    <path
       id="path20"
       d="m 4.4634766,-2.5067031 h 3.046875 c 0.1523437,0 0.3515625,0 0.3515625,-0.2226563 0,-0.2109375 -0.1992188,-0.2109375 -0.3515625,-0.2109375 h -3.046875 v -3.0585937 c 0,-0.1523438 0,-0.3632813 -0.2226563,-0.3632813 -0.2109375,0 -0.2109375,0.2109375 -0.2109375,0.3632813 v 3.0585937 H 0.97128906 c -0.15234375,0 -0.36328125,0 -0.36328125,0.2109375 0,0.2226563 0.2109375,0.2226563 0.36328125,0.2226563 H 4.0298828 v 3.05859372 c 0,0.15234375 0,0.3515625 0.2109375,0.3515625 0.2226563,0 0.2226563,-0.19921875 0.2226563,-0.3515625 z m 0,0"
       style="fill:#000000;fill-opacity:1;fill-rule:nonzero;stroke:none"
       aria-label="+"
       transform="matrix(1.3333333,0,0,1.3333333,76.966667,186.88133)" />
    <path
       id="path21"
       d="m 7.195,-2.5075 c 0.1757812,0 0.375,0 0.375,-0.2226562 0,-0.2109375 -0.1992188,-0.2109375 -0.375,-0.2109375 H 1.28875 c -0.1875,0 -0.38671875,0 -0.38671875,0.2109375 C 0.90203125,-2.5075 1.10125,-2.5075 1.28875,-2.5075 Z m 0,0"
       style="fill:#000000;fill-opacity:1;fill-rule:nonzero;stroke:none"
       aria-label="−"
       transform="matrix(1.3333333,0,0,1.3333333,165.40667,214.09333)" />
    <path
       id="path22"
       d="m 4.4655859,-2.5067031 h 3.046875 c 0.1523438,0 0.3515625,0 0.3515625,-0.2226563 0,-0.2109375 -0.1992187,-0.2109375 -0.3515625,-0.2109375 h -3.046875 v -3.0585937 c 0,-0.1523438 0,-0.3632813 -0.2226562,-0.3632813 -0.2109375,0 -0.2109375,0.2109375 -0.2109375,0.3632813 v 3.0585937 H 0.97339844 c -0.15234375,0 -0.36328125,0 -0.36328125,0.2109375 0,0.2226563 0.2109375,0.2226563 0.36328125,0.2226563 H 4.0319922 v 3.05859372 c 0,0.15234375 0,0.3515625 0.2109375,0.3515625 0.2226562,0 0.2226562,-0.19921875 0.2226562,-0.3515625 z m 0,0"
       style="fill:#000000;fill-opacity:1;fill-rule:nonzero;stroke:none"
       aria-label="+"
       transform="matrix(1.3333333,0,0,1.3333333,253.84667,186.88133)" />
  </g>
</svg>
