<?xml version="1.0" encoding="UTF-8" standalone="no"?>
<!-- Created with Inkscape (http://www.inkscape.org/) -->

<svg
   version="1.1"
   id="svg1"
   width="207.60786"
   height="191.8053"
   viewBox="0 0 207.60786 191.8053"
   sodipodi:docname="5.2-ejemplo-recta.svg"
   inkscape:version="1.4.2 (f4327f4, 2025-05-13)"
   xmlns:inkscape="http://www.inkscape.org/namespaces/inkscape"
   xmlns:sodipodi="http://sodipodi.sourceforge.net/DTD/sodipodi-0.dtd"
   xmlns="http://www.w3.org/2000/svg"
   xmlns:svg="http://www.w3.org/2000/svg">
  <defs
     id="defs1" />
  <sodipodi:namedview
     id="namedview1"
     pagecolor="#ffffff"
     bordercolor="#000000"
     borderopacity="0.25"
     inkscape:showpageshadow="2"
     inkscape:pageopacity="0.0"
     inkscape:pagecheckerboard="0"
     inkscape:deskcolor="#d1d1d1"
     inkscape:zoom="2.2241536"
     inkscape:cx="203.89779"
     inkscape:cy="111.72789"
     inkscape:window-width="1920"
     inkscape:window-height="1009"
     inkscape:window-x="-8"
     inkscape:window-y="-8"
     inkscape:window-maximized="1"
     inkscape:current-layer="g1">
    <inkscape:page
       x="8.989856e-07"
       y="3.3487268e-08"
       inkscape:label="14"
       id="page1"
       width="207.60786"
       height="191.8053"
       margin="0"
       bleed="0" />
  </sodipodi:namedview>
  <g
     id="g1"
     inkscape:groupmode="layer"
     inkscape:label="14"
     transform="translate(-38.060093,-69.781249)">
    <path
       id="path2"
       d="M -25.51193,0 H 127.10149"
       style="fill:none;stroke:#000000;stroke-width:0.3985;stroke-linecap:butt;stroke-linejoin:miter;stroke-miterlimit:10;stroke-dasharray:none;stroke-opacity:1"
       transform="matrix(1.3333333,0,0,-1.3333333,72.076,210.56267)" />
    <path
       id="path3"
       d="M -1.19551,1.59401 C -1.09587,0.99626 0,0.09961 0.29886,0 0,-0.09961 -1.09587,-0.99626 -1.19551,-1.59401"
       style="fill:none;stroke:#000000;stroke-width:0.31879;stroke-linecap:round;stroke-linejoin:round;stroke-miterlimit:10;stroke-dasharray:none;stroke-opacity:1"
       transform="matrix(1.3333333,0,0,-1.3333333,241.54465,210.56267)" />
    <path
       id="path4"
       d="m 3.6436016,-3.2938438 c 0.070312,-0.28125 0.3164062,-1.2890625 1.078125,-1.2890625 0.058594,0 0.3164062,0 0.5507812,0.140625 -0.3046875,0.058594 -0.5273437,0.328125 -0.5273437,0.5859375 0,0.1757813 0.1171875,0.3867188 0.4101562,0.3867188 0.2460938,0 0.5976563,-0.1992188 0.5976563,-0.6328125 0,-0.5625 -0.6445313,-0.7265625 -1.0195313,-0.7265625 -0.6328125,0 -1.0195312,0.5859375 -1.1484375,0.8320312 C 3.3154766,-4.7118125 2.7295391,-4.829 2.4131328,-4.829 c -1.1367187,0 -1.75781249,1.4179687 -1.75781249,1.6875 0,0.1054687 0.10546875,0.1054687 0.12890625,0.1054687 0.0820313,0 0.1171875,-0.023437 0.140625,-0.1171875 0.37500004,-1.1601562 1.08984374,-1.4296875 1.46484374,-1.4296875 0.2109375,0 0.5859375,0.09375 0.5859375,0.7265625 0,0.3398438 -0.1875,1.078125 -0.5859375,2.6015625 -0.1757812,0.67968755 -0.5625,1.1367188 -1.0429687,1.1367188 -0.058594,0 -0.3164063,0 -0.53906254,-0.140625 0.26953124,-0.0585938 0.51562504,-0.29296875 0.51562504,-0.59765625 0,-0.29296875 -0.2460938,-0.37500005 -0.41015629,-0.37500005 -0.328125,0 -0.59765625,0.28125005 -0.59765625,0.63281255 0,0.50390625 0.55078125,0.71484375 1.03125004,0.71484375 0.7148437,0 1.1015625,-0.76171875 1.1367187,-0.83203125 0.1289063,0.41015625 0.5273438,0.83203125 1.1835938,0.83203125 1.125,0 1.7460937,-1.40625 1.7460937,-1.6757813 0,-0.1054687 -0.1054687,-0.1054687 -0.1289062,-0.1054687 -0.1054688,0 -0.1289063,0.035156 -0.140625,0.1171875 -0.3632813,1.16015625 -1.1132813,1.4296875 -1.453125,1.4296875 -0.4335938,0 -0.609375,-0.3515625 -0.609375,-0.7265625 0,-0.234375 0.070312,-0.4804688 0.1875,-0.9609375 z m 0,0"
       style="fill:#000000;fill-opacity:1;fill-rule:nonzero;stroke:none"
       aria-label="x"
       transform="matrix(1.3333333,0,0,1.3333333,237.99733,221.93867)" />
    <path
       id="path5"
       d="M 0,-38.26791 V 101.58952"
       style="fill:none;stroke:#000000;stroke-width:0.3985;stroke-linecap:butt;stroke-linejoin:miter;stroke-miterlimit:10;stroke-dasharray:none;stroke-opacity:1"
       transform="matrix(1.3333333,0,0,-1.3333333,72.076,210.56267)" />
    <path
       id="path6"
       d="M -1.19551,1.59401 C -1.09587,0.99626 0,0.09961 0.29886,0 0,-0.09961 -1.09587,-0.99626 -1.19551,-1.59401"
       style="fill:none;stroke:#000000;stroke-width:0.31879;stroke-linecap:round;stroke-linejoin:round;stroke-miterlimit:10;stroke-dasharray:none;stroke-opacity:1"
       transform="matrix(0,-1.3333333,-1.3333333,0,72.076,75.109973)" />
    <path
       id="path7"
       d="m 5.2963203,-4.1600937 c 0.046875,-0.1523438 0.046875,-0.1757813 0.046875,-0.2460938 0,-0.1992187 -0.1523437,-0.2929687 -0.3164062,-0.2929687 -0.1054688,0 -0.28125,0.058594 -0.375,0.2226562 -0.023437,0.058594 -0.1171875,0.3984375 -0.1523438,0.5976563 -0.082031,0.28125 -0.1523437,0.5742187 -0.2226562,0.8671875 l -0.4921875,1.96875 c -0.046875,0.16406245 -0.515625,0.9257812 -1.2304688,0.9257812 -0.5625,0 -0.6796875,-0.48046875 -0.6796875,-0.890625 0,-0.4921875 0.1875,-1.171875 0.5625,-2.1328125 0.1757813,-0.4453125 0.2109375,-0.5742187 0.2109375,-0.7851562 0,-0.4921875 -0.3515625,-0.9023438 -0.890625,-0.9023438 -1.04296874,0 -1.44140624,1.5820313 -1.44140624,1.6875 0,0.1054688 0.10546875,0.1054688 0.12890625,0.1054688 0.10546875,0 0.1171875,-0.023437 0.17578125,-0.1992188 0.29296875,-1.0195312 0.72656254,-1.3476562 1.10156254,-1.3476562 0.09375,0 0.2695312,0 0.2695312,0.3515625 0,0.2695312 -0.1054687,0.5507812 -0.1757812,0.7617187 -0.4453125,1.1601563 -0.6328125,1.78125 -0.6328125,2.2851563 0,0.9726562 0.6796875,1.3007812 1.3242187,1.3007812 0.421875,0 0.796875,-0.1875 1.1015625,-0.4921875 -0.140625,0.57421875 -0.2695312,1.1015625 -0.703125,1.6875 C 2.6127266,1.6758438 2.2025703,1.99225 1.6986641,1.99225 c -0.1523438,0 -0.6445313,-0.023437 -0.83203129,-0.4570312 0.17578129,0 0.31640629,0 0.48046879,-0.1289063 0.1054687,-0.09375 0.2109375,-0.234375 0.2109375,-0.4453125 0,-0.33984375 -0.2929688,-0.38671875 -0.3984375,-0.38671875 -0.25781254,0 -0.60937504,0.17578125 -0.60937504,0.71484375 0,0.5390625 0.48046874,0.9492188 1.14843754,0.9492188 1.125,0 2.25,-0.9960938 2.5546875,-2.22656255 z m 0,0"
       style="fill:#000000;fill-opacity:1;fill-rule:nonzero;stroke:none"
       aria-label="y"
       transform="matrix(1.3333333,0,0,1.3333333,59.309333,76.218667)" />
    <path
       id="path8"
       d="m 0,-25.51193 0.38419,0.38421 0.38423,0.38422 0.38421,0.38422 0.38424,0.38423 0.38421,0.38421 0.38423,0.38424 0.38422,0.38421 0.38422,0.38422 0.38421,0.38423 0.38424,0.38422 0.38421,0.38423 0.38422,0.3842 0.38423,0.38423 0.38421,0.38422 0.38422,0.38421 0.38421,0.38422 0.38424,0.38423 0.38421,0.38422 0.38424,0.38423 0.3842,0.38423 0.38423,0.38422 0.38422,0.3842 0.38421,0.38421 0.38423,0.38424 0.38422,0.38421 0.38423,0.38423 0.38422,0.38422 0.38423,0.38423 0.3842,0.38422 0.38422,0.38422 0.38421,0.38423 0.38423,0.3842 0.38422,0.38423 0.38423,0.38421 0.38423,0.38423 0.3842,0.3842 0.38424,0.38424 0.38421,0.38422 0.38423,0.38423 0.3842,0.38421 0.38424,0.38423 0.38421,0.38421 0.38422,0.38421 0.38422,0.38423 0.38423,0.38422 0.38423,0.38423 0.38421,0.38422 0.38424,0.38423 0.38421,0.38422 0.3842,0.38421 0.38422,0.38422 0.38423,0.38421 0.38422,0.38422 0.38423,0.38424 0.38422,0.38422 0.38423,0.38422 0.38421,0.38422 0.38422,0.38421 0.38423,0.38423 0.3842,0.38422 0.38423,0.38423 0.38422,0.3842 0.38423,0.38423 0.3842,0.38422 0.38423,0.38422 0.38422,0.38423 0.38423,0.38417 0.38422,0.38423 0.38423,0.38422 0.38422,0.38423 0.3842,0.3842 0.38423,0.38422 0.38422,0.38421 0.38423,0.38423 0.38421,0.38424 0.38424,0.38421 0.38421,0.38423 0.38422,0.3842 0.38421,0.38424 0.38422,0.38422 0.38423,0.38422 0.38422,0.38421 0.38423,0.38423 0.38422,0.38421 0.38421,0.38422 0.38422,0.38423 0.38423,0.38422 0.38422,0.38423 0.38423,0.38422 0.3842,0.38423 0.38423,0.38421 0.38422,0.3842 0.38421,0.38422 0.38423,0.38423 0.38422,0.38422 0.38424,0.38423 0.38421,0.38422 0.38423,0.38423 0.3842,0.38422 0.38422,0.38421 0.38421,0.38423 0.38423,0.3842 0.38422,0.38423 0.38423,0.38422 0.38424,0.38423 0.3842,0.3842 0.38423,0.38424 0.38421,0.38421 0.38424,0.38423 0.3842,0.38423 0.38423,0.38422 0.38421,0.38422 0.38422,0.3842 0.38422,0.38423 0.38423,0.38422 0.38423,0.38423 0.38422,0.38421 0.38423,0.38424 0.38421,0.38421 0.38421,0.38422 0.38421,0.38423 0.38423,0.3842 0.38422,0.38424 0.38423,0.38421 0.38422,0.38423 0.38423,0.38422 0.38422,0.38421 0.38421,0.38422 0.38423,0.38423 0.3842,0.38422 0.38424,0.38423 0.38421,0.3842 0.38423,0.38423 0.38421,0.38422 0.38423,0.38421 0.38421,0.38424 0.38423,0.38421 0.38422,0.38423 0.38424,0.38422 0.38421,0.38423 0.3842,0.3842 0.38423,0.38422 0.38422,0.38422 0.38423,0.38423 0.38421,0.38423 0.38424,0.38421 0.38421,0.38423 0.38422,0.3842 0.38422,0.38424 0.38421,0.38421 0.38423,0.38424 0.38422,0.3842 0.38423,0.38423 0.38422,0.38422 0.38421,0.38421 0.38422,0.38423 0.38423,0.38422 0.38422,0.38423 0.38423,0.38422 0.3842,0.38423 0.38423,0.38422 0.38422,0.3842 0.38422,0.38421 0.38422,0.38423 0.38422,0.38422 0.38423,0.38423 0.38422,0.38422 0.38423,0.38423 0.3842,0.38422 0.38422,0.38421 0.38422,0.38423 0.38423,0.3842 0.38421,0.38424 0.38424,0.38421 0.38423,0.38423 0.3842,0.38421 0.38423,0.38423 0.38422,0.38421 0.38423,0.38424 0.3842,0.38423 0.38423,0.38421 0.38422,0.38422 0.38422,0.3842 0.38421,0.38423 0.38423,0.38422 0.38423,0.38423 0.38422,0.38422 0.38423,0.38423 0.38422,0.38421 0.3842,0.38422 0.38421,0.38423 0.38424,0.3842 0.38421,0.38423 0.38423,0.38422 0.38422,0.38423 0.38423,0.38422 0.38422,0.38421 0.38421,0.38422 0.38424,0.38423"
       style="fill:none;stroke:#eb0a36;stroke-width:0.79701;stroke-linecap:butt;stroke-linejoin:miter;stroke-miterlimit:10;stroke-dasharray:none;stroke-opacity:1"
       transform="matrix(1.3333333,0,0,-1.3333333,72.076,210.56267)" />
    <path
       id="path9"
       d="m 0,0 v -25.51193 c 0,0 0.7678,0.76783 1.06271,1.06273 0.29489,0.29489 0.76784,0.76783 1.06273,1.06274 0.29491,0.29489 0.76786,0.76784 1.06275,1.06274 0.29489,0.2949 0.76785,0.76784 1.06273,1.06273 0.2949,0.29489 0.76785,0.76786 1.06274,1.06273 0.29491,0.29491 0.76785,0.76786 1.06274,1.06275 0.29491,0.29491 0.76786,0.76785 1.06275,1.06274 0.29489,0.29491 0.76785,0.76785 1.06273,1.06273 0.29489,0.29491 0.76783,0.76785 1.06274,1.06274 0.29489,0.29491 0.76784,0.76786 1.06275,1.06275 0.29489,0.2949 0.76783,0.76784 1.06273,1.06274 0.29489,0.29488 0.76783,0.76784 1.06274,1.06273 0.29489,0.29489 0.76784,0.76784 1.06274,1.06275 0.29489,0.29489 0.76784,0.76783 1.06275,1.06274 0.29487,0.29489 0.76783,0.76784 1.06271,1.06274 0.29491,0.29488 0.76786,0.76783 1.06274,1.06273 0.29491,0.29489 0.76786,0.76784 1.06275,1.06275 0.2949,0.29489 0.76785,0.76783 1.06274,1.06273 0.29489,0.29489 0.76784,0.76785 1.06273,1.06272 0.29491,0.29491 0.76785,0.76786 1.06275,1.06275 0.2949,0.2949 0.76785,0.76785 1.06274,1.06274 0.29489,0.29491 0.76785,0.76786 1.06273,1.06275 0.29489,0.29489 0.76784,0.76785 1.06274,1.06273 0.29489,0.2949 1.06274,1.06274 1.06274,1.06274 L 25.51193,0 Z"
       style="fill:#ff9999;fill-opacity:0.2;fill-rule:nonzero;stroke:none"
       transform="matrix(1.3333333,0,0,-1.3333333,72.076,210.56267)" />
    <path
       id="path10"
       d="m 25.51193,0 v 0 c 0,0 1.53595,1.53593 2.12587,2.12585 0.5899,0.58991 1.53595,1.53595 2.12586,2.12586 0.58992,0.58992 1.53596,1.53596 2.12587,2.12589 0.58992,0.5899 1.53595,1.53593 2.12587,2.12585 0.5899,0.5899 1.53596,1.53596 2.12587,2.12587 0.58992,0.58992 1.53595,1.53595 2.12585,2.12587 0.58992,0.58991 1.53597,1.53595 2.12588,2.12587 0.58991,0.5899 1.53596,1.53594 2.12586,2.12585 0.58992,0.58992 1.53595,1.53595 2.12585,2.12587 0.58992,0.58991 1.53597,1.53595 2.12589,2.12587 0.5899,0.58992 1.53595,1.53595 2.12585,2.12585 0.58992,0.58993 1.53597,1.53597 2.12589,2.12589 0.5899,0.58991 1.53593,1.53595 2.12586,2.12586 0.5899,0.58992 1.53596,1.53596 2.12586,2.12587 0.58992,0.58992 1.53595,1.53595 2.12587,2.12587 0.58991,0.5899 1.53594,1.53594 2.12586,2.12585 0.5899,0.58992 1.53596,1.53596 2.12587,2.12587 0.58992,0.58992 1.53594,1.53595 2.12587,2.12587 0.5899,0.5899 1.53595,1.53596 2.12587,2.12587 0.5899,0.58992 1.53595,1.53595 2.12585,2.12587 0.58992,0.5899 1.53597,1.53595 2.12589,2.12587 0.5899,0.58991 1.53595,1.53595 2.12585,2.12585 0.58992,0.58992 1.53595,1.53596 2.12587,2.12587 0.58992,0.58991 2.12587,2.12587 2.12587,2.12587 L 76.53586,0 Z"
       style="fill:#9999ff;fill-opacity:0.2;fill-rule:nonzero;stroke:none"
       transform="matrix(1.3333333,0,0,-1.3333333,72.076,210.56267)" />
    <g
       id="g10"
       aria-label="y=x−1"
       transform="matrix(1.3333333,0,0,1.3333333,129.53067,111.50533)">
      <path
         id="path11"
         d="m 4.8402813,-3.7979453 c 0.046875,-0.140625 0.046875,-0.1523438 0.046875,-0.2226563 0,-0.1875 -0.140625,-0.2695312 -0.2929688,-0.2695312 -0.1054687,0 -0.2578125,0.058594 -0.3515625,0.1992187 -0.023437,0.058594 -0.09375,0.3632813 -0.140625,0.5390625 -0.070312,0.2578125 -0.140625,0.5273438 -0.1992187,0.796875 l -0.4453125,1.79296879 c -0.035156,0.15234375 -0.46875,0.85546875 -1.125,0.85546875 -0.5039063,0 -0.6210938,-0.4453125 -0.6210938,-0.80859375 0,-0.45703129 0.1757813,-1.07812499 0.515625,-1.95703129 0.1523438,-0.4101562 0.1992188,-0.515625 0.1992188,-0.7148437 0,-0.4453125 -0.328125,-0.8203125 -0.8203125,-0.8203125 -0.9492188,0 -1.31250005,1.453125 -1.31250005,1.5351562 0,0.1054688 0.09375,0.1054688 0.1171875,0.1054688 0.09375,0 0.10546875,-0.023437 0.15234375,-0.1875 0.26953125,-0.9375 0.6679688,-1.2304688 1.0078125,-1.2304688 0.082031,0 0.2578125,0 0.2578125,0.3164063 0,0.2460937 -0.1054687,0.515625 -0.1757812,0.703125 -0.3984375,1.0546875 -0.5742188,1.6171875 -0.5742188,2.0859375 0,0.89062499 0.6210938,1.18359374 1.21875,1.18359374 0.3867188,0 0.7265625,-0.1640625 0.9960938,-0.4453125 C 3.1645,0.17471094 3.0473125,0.66689844 2.648875,1.1942422 2.3910625,1.5340859 2.0160625,1.8270547 1.5590313,1.8270547 c -0.140625,0 -0.5976563,-0.035156 -0.7617188,-0.421875 0.1640625,0 0.2929688,0 0.4335938,-0.1171875 0.09375,-0.09375 0.1992187,-0.2226563 0.1992187,-0.41015626 0,-0.31640625 -0.2695312,-0.3515625 -0.375,-0.3515625 -0.22265625,0 -0.55078125,0.1640625 -0.55078125,0.64453126 0,0.5039062 0.43359375,0.8671875 1.05468755,0.8671875 1.0195312,0 2.0507812,-0.9023438 2.3320312,-2.02734376 z m 0,0"
         style="fill:#eb0a36;fill-opacity:1;fill-rule:nonzero;stroke:none" />
      <path
         id="path12"
         d="m 14.856883,-3.2588828 c 0.152344,0 0.339844,0 0.339844,-0.1992188 0,-0.1992187 -0.1875,-0.1992187 -0.328125,-0.1992187 H 8.9037578 c -0.140625,0 -0.328125,0 -0.328125,0.1992187 0,0.1992188 0.1875,0.1992188 0.3398438,0.1992188 z m 0.01172,1.9335937 c 0.140625,0 0.328125,0 0.328125,-0.1992187 0,-0.1992188 -0.1875,-0.1992188 -0.339844,-0.1992188 H 8.9154766 c -0.1523438,0 -0.3398438,0 -0.3398438,0.1992188 0,0.1992187 0.1875,0.1992187 0.328125,0.1992187 z m 0,0"
         style="fill:#eb0a36;fill-opacity:1;fill-rule:nonzero;stroke:none" />
      <path
         id="path13"
         d="m 21.850047,-3.0127891 c 0.05859,-0.2578125 0.292969,-1.171875 0.984375,-1.171875 0.04687,0 0.292969,0 0.503906,0.1289063 -0.28125,0.046875 -0.480469,0.3046875 -0.480469,0.5390625 0,0.1640625 0.105469,0.3515625 0.375,0.3515625 0.222657,0 0.539063,-0.1875 0.539063,-0.5859375 0,-0.515625 -0.585938,-0.65625 -0.925781,-0.65625 -0.574219,0 -0.925782,0.5273437 -1.042969,0.7617187 -0.257813,-0.65625 -0.785156,-0.7617187 -1.078125,-0.7617187 -1.042969,0 -1.605469,1.2890625 -1.605469,1.5351562 0,0.1054688 0.105469,0.1054688 0.117188,0.1054688 0.08203,0 0.117187,-0.023437 0.128906,-0.1171875 0.339844,-1.0546875 0.996094,-1.3007813 1.335937,-1.3007813 0.1875,0 0.539063,0.09375 0.539063,0.6679688 0,0.3046875 -0.164063,0.9726562 -0.539063,2.3671875 -0.152343,0.62109374 -0.503906,1.04296874 -0.949218,1.04296874 -0.05859,0 -0.28125,0 -0.492188,-0.12890625 0.246094,-0.0585938 0.46875,-0.26953125 0.46875,-0.5390625 0,-0.26953129 -0.222656,-0.35156249 -0.375,-0.35156249 -0.292969,0 -0.539062,0.25781249 -0.539062,0.57421874 0,0.45703125 0.492187,0.65625 0.9375,0.65625 0.65625,0 1.007812,-0.69140625 1.042968,-0.75 0.117188,0.36328125 0.480469,0.75 1.078125,0.75 1.019532,0 1.59375,-1.27734374 1.59375,-1.53515624 0,-0.09375 -0.09375,-0.09375 -0.128906,-0.09375 -0.08203,0 -0.105469,0.035156 -0.128906,0.1054687 -0.328125,1.06640629 -0.996094,1.31250004 -1.324219,1.31250004 -0.386719,0 -0.539062,-0.328125 -0.539062,-0.65625 0,-0.22265625 0.05859,-0.44531254 0.164062,-0.87890624 z m 0,0"
         style="fill:#eb0a36;fill-opacity:1;fill-rule:nonzero;stroke:none" />
      <path
         id="path14"
         d="m 33.000438,-2.2979453 c 0.175781,0 0.351562,0 0.351562,-0.1992188 0,-0.1992187 -0.175781,-0.1992187 -0.351562,-0.1992187 h -5.390625 c -0.164063,0 -0.339844,0 -0.339844,0.1992187 0,0.1992188 0.175781,0.1992188 0.339844,0.1992188 z m 0,0"
         style="fill:#eb0a36;fill-opacity:1;fill-rule:nonzero;stroke:none" />
      <path
         id="path15"
         d="m 39.325633,-6.3760703 c 0,-0.234375 0,-0.2578125 -0.234375,-0.2578125 -0.609375,0.6328125 -1.488281,0.6328125 -1.804688,0.6328125 v 0.3164062 c 0.199219,0 0.785157,0 1.300782,-0.2578125 v 5.15625004 c 0,0.3515625 -0.03516,0.48046875 -0.925782,0.48046875 h -0.316406 v 0.3046875 c 0.351563,-0.03515625 1.207031,-0.03515625 1.605469,-0.03515625 0.398437,0 1.265625,0 1.617187,0.03515625 v -0.3046875 h -0.316406 c -0.902344,0 -0.925781,-0.1171875 -0.925781,-0.48046875 z m 0,0"
         style="fill:#eb0a36;fill-opacity:1;fill-rule:nonzero;stroke:none" />
    </g>
    <g
       id="g15"
       aria-label="A&#10;1"
       transform="matrix(1.3333333,0,0,1.3333333,149.15467,190.29467)">
      <path
         id="path16"
         d="m 1.7824375,-1.1497109 c -0.3984375,0.66796871 -0.78515625,0.80859371 -1.21875,0.84374996 -0.12890625,0 -0.2109375,0 -0.2109375,0.19921875 0,0.05859375 0.046875,0.10546875 0.12890625,0.10546875 0.26953125,0 0.57421875,-0.03515625 0.85546875,-0.03515625 0.328125,0 0.6796875,0.03515625 0.9960938,0.03515625 0.058594,0 0.1875,0 0.1875,-0.1875 0,-0.1171875 -0.09375,-0.1171875 -0.1640625,-0.1171875 C 2.134,-0.32939844 1.899625,-0.41142969 1.899625,-0.65752344 c 0,-0.1171875 0.058594,-0.234375 0.1289063,-0.37499996 L 2.79025,-2.2981484 h 2.4960938 c 0.023437,0.1992187 0.1640625,1.55859371 0.1640625,1.66406246 0,0.29296875 -0.515625,0.328125 -0.7148438,0.328125 -0.140625,0 -0.2460937,0 -0.2460937,0.19921875 0,0.10546875 0.1289062,0.10546875 0.140625,0.10546875 0.4101562,0 0.84375,-0.03515625 1.2539062,-0.03515625 0.2460938,0 0.8671875,0.03515625 1.125,0.03515625 0.058594,0 0.1757813,0 0.1757813,-0.19921875 0,-0.10546875 -0.1054688,-0.10546875 -0.234375,-0.10546875 -0.609375,0 -0.609375,-0.0703125 -0.6445313,-0.36328125 L 5.6965,-6.8918984 C 5.684781,-7.0911172 5.684781,-7.1379922 5.509,-7.1379922 c -0.1640625,0 -0.1992187,0.070312 -0.2578125,0.1757813 z m 1.1953125,-1.4648438 1.96875,-3.28125 0.3164063,3.28125 z m 0,0"
         style="fill:#0000ff;fill-opacity:0.5;fill-rule:nonzero;stroke:none" />
      <path
         id="path17"
         d="m 9.8039219,-2.9368203 c 0,-0.1875 -0.011719,-0.1992188 -0.2109375,-0.1992188 -0.4453125,0.4335938 -1.078125,0.4453125 -1.359375,0.4453125 v 0.2460938 c 0.1640625,0 0.6210937,0 1.0078125,-0.1875 v 3.55078124 c 0,0.23437496 0,0.32812496 -0.6914063,0.32812496 H 8.2804844 v 0.2460938 c 0.1289062,-0.011719 0.984375,-0.023437 1.2421875,-0.023437 0.2109375,0 1.0898441,0.011719 1.2421871,0.023437 V 1.2467734 h -0.257812 c -0.7031251,0 -0.7031251,-0.09375 -0.7031251,-0.32812496 z m 0,0"
         style="fill:#0000ff;fill-opacity:0.5;fill-rule:nonzero;stroke:none" />
    </g>
    <g
       id="g17"
       aria-label="A&#10;2"
       transform="matrix(1.3333333,0,0,1.3333333,74.32,224.31067)">
      <path
         id="path18"
         d="m 1.7814844,-1.1470625 c -0.3984375,0.66796875 -0.78515627,0.80859375 -1.21875002,0.84375 -0.12890625,0 -0.2109375,0 -0.2109375,0.19921875 0,0.05859375 0.046875,0.10546875 0.12890625,0.10546875 0.26953125,0 0.57421877,-0.03515625 0.85546877,-0.03515625 0.328125,0 0.6796875,0.03515625 0.9960937,0.03515625 0.058594,0 0.1875,0 0.1875,-0.1875 0,-0.1171875 -0.09375,-0.1171875 -0.1640625,-0.1171875 C 2.1330469,-0.32675 1.8986719,-0.40878125 1.8986719,-0.654875 c 0,-0.1171875 0.058594,-0.234375 0.1289062,-0.375 L 2.7892969,-2.2955 h 2.4960937 c 0.023437,0.1992188 0.1640625,1.55859375 0.1640625,1.6640625 0,0.29296875 -0.515625,0.328125 -0.7148437,0.328125 -0.140625,0 -0.2460938,0 -0.2460938,0.19921875 0,0.10546875 0.1289063,0.10546875 0.140625,0.10546875 0.4101563,0 0.84375,-0.03515625 1.2539063,-0.03515625 0.2460937,0 0.8671875,0.03515625 1.125,0.03515625 0.058594,0 0.1757812,0 0.1757812,-0.19921875 0,-0.10546875 -0.1054687,-0.10546875 -0.234375,-0.10546875 -0.609375,0 -0.609375,-0.0703125 -0.6445312,-0.36328125 L 5.6955469,-6.88925 c -0.011719,-0.1992187 -0.011719,-0.2460937 -0.1875,-0.2460937 -0.1640625,0 -0.1992188,0.070312 -0.2578125,0.1757812 z m 1.1953125,-1.4648437 1.96875,-3.28125 0.3164062,3.28125 z m 0,0"
         style="fill:#ff0000;fill-opacity:0.5;fill-rule:nonzero;stroke:none" />
      <path
         id="path19"
         d="m 10.986563,0.22696094 h -0.234375 c -0.02344,0.15234375 -0.08203,0.5625 -0.175782,0.6328125 C 10.517813,0.89492969 9.97875,0.89492969 9.885,0.89492969 H 8.5959375 c 0.7382813,-0.64453125 0.984375,-0.84375 1.3945313,-1.171875 0.5156252,-0.41015625 0.9960942,-0.84374999 0.9960942,-1.49999999 0,-0.84375 -0.738282,-1.359375 -1.6289067,-1.359375 -0.8671875,0 -1.453125,0.609375 -1.453125,1.2421875 0,0.3632812 0.3046875,0.3984375 0.375,0.3984375 0.1640625,0 0.375,-0.1171875 0.375,-0.375 0,-0.1289063 -0.058594,-0.3632813 -0.421875,-0.3632813 0.2226562,-0.5039062 0.6914062,-0.65625 1.0195312,-0.65625 0.703125,0 1.0664065,0.5507813 1.0664065,1.1132813 0,0.609375 -0.433594,1.08984374 -0.6562502,1.33593749 l -1.6875,1.66406251 c -0.070312,0.058594 -0.070312,0.070312 -0.070312,0.2695312 h 2.8828122 z m 0,0"
         style="fill:#ff0000;fill-opacity:0.5;fill-rule:nonzero;stroke:none" />
    </g>
  </g>
</svg>
