<?xml version="1.0" encoding="UTF-8" standalone="no"?>
<!-- Created with Inkscape (http://www.inkscape.org/) -->

<svg
   version="1.1"
   id="svg1"
   width="163.43652"
   height="201.78516"
   viewBox="0 0 163.43652 201.78516"
   sodipodi:docname="3.1-tangente-normal-ejemplo.svg"
   inkscape:version="1.4.2 (f4327f4, 2025-05-13)"
   xmlns:inkscape="http://www.inkscape.org/namespaces/inkscape"
   xmlns:sodipodi="http://sodipodi.sourceforge.net/DTD/sodipodi-0.dtd"
   xmlns="http://www.w3.org/2000/svg"
   xmlns:svg="http://www.w3.org/2000/svg">
  <defs
     id="defs1">
    <clipPath
       clipPathUnits="userSpaceOnUse"
       id="clipPath39">
      <rect
         style="opacity:0;fill:none;stroke-width:0.75"
         id="rect40"
         width="165.2314"
         height="177.37085"
         x="-114.83141"
         y="-162.57341" />
    </clipPath>
    <clipPath
       clipPathUnits="userSpaceOnUse"
       id="clipPath40">
      <rect
         style="opacity:0;fill:none;stroke-width:0.75"
         id="rect41"
         width="165.2314"
         height="177.37085"
         x="-114.83141"
         y="-156.64742"
         transform="scale(1,-1)" />
    </clipPath>
    <clipPath
       clipPathUnits="userSpaceOnUse"
       id="clipPath41">
      <rect
         style="opacity:0;fill:none;stroke-width:0.75"
         id="rect42"
         width="165.2314"
         height="177.37085"
         x="-90.598404"
         y="-162.57341" />
    </clipPath>
    <clipPath
       clipPathUnits="userSpaceOnUse"
       id="clipPath42">
      <rect
         style="opacity:0;fill:none;stroke-width:0.75"
         id="rect43"
         width="165.2314"
         height="177.37085"
         x="-90.598404"
         y="-156.64742"
         transform="scale(1,-1)" />
    </clipPath>
    <clipPath
       clipPathUnits="userSpaceOnUse"
       id="clipPath43">
      <rect
         style="opacity:0;fill:none;stroke-width:0.75"
         id="rect44"
         width="165.2314"
         height="177.37085"
         x="-63.12841"
         y="-159.13742" />
    </clipPath>
    <clipPath
       clipPathUnits="userSpaceOnUse"
       id="clipPath44">
      <rect
         style="opacity:0;fill:none;stroke-width:0.75"
         id="rect45"
         width="165.2314"
         height="177.37085"
         x="-139.30341"
         y="-63.360413" />
    </clipPath>
    <clipPath
       clipPathUnits="userSpaceOnUse"
       id="clipPath45">
      <rect
         style="opacity:0;fill:none;stroke-width:0.75"
         id="rect46"
         width="165.2314"
         height="177.37085"
         x="-139.30341"
         y="-57.434414"
         transform="scale(1,-1)" />
    </clipPath>
    <clipPath
       clipPathUnits="userSpaceOnUse"
       id="clipPath46">
      <rect
         style="opacity:0;fill:none;stroke-width:0.75"
         id="rect47"
         width="165.2314"
         height="177.37085"
         x="-115.07041"
         y="-63.360413" />
    </clipPath>
    <clipPath
       clipPathUnits="userSpaceOnUse"
       id="clipPath47">
      <rect
         style="opacity:0;fill:none;stroke-width:0.75"
         id="rect48"
         width="165.2314"
         height="177.37085"
         x="-115.07041"
         y="-57.434414"
         transform="scale(1,-1)" />
    </clipPath>
    <clipPath
       clipPathUnits="userSpaceOnUse"
       id="clipPath48">
      <rect
         style="opacity:0;fill:none;stroke-width:0.75"
         id="rect49"
         width="165.2314"
         height="177.37085"
         x="-95.349411"
         y="-59.925411" />
    </clipPath>
    <clipPath
       clipPathUnits="userSpaceOnUse"
       id="clipPath49">
      <rect
         style="opacity:0;fill:none;stroke-width:0.75"
         id="rect50"
         width="165.2314"
         height="177.37085"
         x="-52.878407"
         y="-114.69641" />
    </clipPath>
    <clipPath
       clipPathUnits="userSpaceOnUse"
       id="clipPath50">
      <rect
         style="opacity:0;fill:none;stroke-width:0.75"
         id="rect51"
         width="165.2314"
         height="177.37085"
         x="-104.97741"
         y="-88.57341" />
    </clipPath>
    <clipPath
       clipPathUnits="userSpaceOnUse"
       id="clipPath51">
      <rect
         style="opacity:0;fill:none;stroke-width:0.75"
         id="rect52"
         width="165.2314"
         height="177.37085"
         x="-104.97741"
         y="-81.19841"
         transform="scale(1,-1)" />
    </clipPath>
    <clipPath
       clipPathUnits="userSpaceOnUse"
       id="clipPath52">
      <rect
         style="opacity:0;fill:none;stroke-width:0.75"
         id="rect53"
         width="165.2314"
         height="177.37085"
         x="-72.455414"
         y="-88.57341" />
    </clipPath>
    <clipPath
       clipPathUnits="userSpaceOnUse"
       id="clipPath53">
      <rect
         style="opacity:0;fill:none;stroke-width:0.75"
         id="rect54"
         width="165.2314"
         height="177.37085"
         x="-34.870407"
         y="-128.30042"
         transform="scale(1,-1)" />
    </clipPath>
    <clipPath
       clipPathUnits="userSpaceOnUse"
       id="clipPath54">
      <rect
         style="opacity:0;fill:none;stroke-width:0.75"
         id="rect55"
         width="165.2314"
         height="177.37085"
         x="-34.870407"
         y="-128.30042"
         transform="scale(1,-1)" />
    </clipPath>
    <clipPath
       clipPathUnits="userSpaceOnUse"
       id="clipPath55">
      <rect
         style="opacity:0;fill:none;stroke-width:0.75"
         id="rect56"
         width="165.2314"
         height="177.37085"
         x="-34.870407"
         y="-128.30042"
         transform="scale(1,-1)" />
    </clipPath>
    <clipPath
       clipPathUnits="userSpaceOnUse"
       id="clipPath56">
      <rect
         style="opacity:0;fill:none;stroke-width:0.75"
         id="rect57"
         width="165.2314"
         height="177.37085"
         x="-34.870407"
         y="-128.30042"
         transform="scale(1,-1)" />
    </clipPath>
    <clipPath
       clipPathUnits="userSpaceOnUse"
       id="clipPath57">
      <rect
         style="opacity:0;fill:none;stroke-width:0.75"
         id="rect58"
         width="165.2314"
         height="177.37085"
         x="-25.29541"
         y="-16.202412" />
    </clipPath>
    <clipPath
       clipPathUnits="userSpaceOnUse"
       id="clipPath58">
      <rect
         style="opacity:0;fill:none;stroke-width:0.75"
         id="rect59"
         width="165.2314"
         height="177.37085"
         x="-34.870407"
         y="-15.371452"
         transform="matrix(0,-1,-1,0,0,0)" />
    </clipPath>
    <clipPath
       clipPathUnits="userSpaceOnUse"
       id="clipPath59">
      <rect
         style="opacity:0;fill:none;stroke-width:0.75"
         id="rect60"
         width="165.2314"
         height="177.37085"
         x="-34.870407"
         y="-128.30042"
         transform="scale(1,-1)" />
    </clipPath>
    <clipPath
       clipPathUnits="userSpaceOnUse"
       id="clipPath60">
      <rect
         style="opacity:0;fill:none;stroke-width:0.75"
         id="rect61"
         width="165.2314"
         height="177.37085"
         x="-130.96541"
         y="-136.83342" />
    </clipPath>
    <clipPath
       clipPathUnits="userSpaceOnUse"
       id="clipPath61">
      <rect
         style="opacity:0;fill:none;stroke-width:0.75"
         id="rect62"
         width="165.2314"
         height="177.37085"
         x="-133.62595"
         y="-128.30042"
         transform="scale(1,-1)" />
    </clipPath>
    <clipPath
       clipPathUnits="userSpaceOnUse"
       id="clipPath62">
      <rect
         style="opacity:0;fill:none;stroke-width:0.75"
         id="rect63"
         width="165.2314"
         height="177.37085"
         x="-34.870407"
         y="-128.30042"
         transform="scale(1,-1)" />
    </clipPath>
    <clipPath
       clipPathUnits="userSpaceOnUse"
       id="clipPath63">
      <rect
         style="opacity:0;fill:none;stroke-width:0.75"
         id="rect64"
         width="165.2314"
         height="177.37085"
         x="97.115593"
         y="-233.68442"
         transform="scale(1,-1)" />
    </clipPath>
  </defs>
  <sodipodi:namedview
     id="namedview1"
     pagecolor="#ffffff"
     bordercolor="#000000"
     borderopacity="0.25"
     inkscape:showpageshadow="2"
     inkscape:pageopacity="0.0"
     inkscape:pagecheckerboard="0"
     inkscape:deskcolor="#d1d1d1"
     inkscape:zoom="2.2241536"
     inkscape:cx="85.20095"
     inkscape:cy="114.87516"
     inkscape:window-width="1920"
     inkscape:window-height="1009"
     inkscape:window-x="-8"
     inkscape:window-y="-8"
     inkscape:window-maximized="1"
     inkscape:current-layer="g1">
    <inkscape:page
       x="0"
       y="0"
       inkscape:label="32"
       id="page1"
       width="163.43652"
       height="201.78516"
       margin="0"
       bleed="0" />
  </sodipodi:namedview>
  <g
     id="g1"
     inkscape:groupmode="layer"
     inkscape:label="32"
     transform="translate(-157.08348,-66.421874)">
    <path
       id="path2"
       d="M -14.17339,0 H 98.75554"
       style="fill:none;stroke:#000000;stroke-width:0.3985;stroke-linecap:butt;stroke-linejoin:miter;stroke-miterlimit:10;stroke-dasharray:none;stroke-opacity:1"
       transform="matrix(1.3333333,0,0,-1.3333333,175.98133,222.32267)"
       clip-path="url(#clipPath62)" />
    <path
       id="path3"
       d="M -1.19551,1.59401 C -1.09587,0.99626 0,0.09961 0.29886,0 0,-0.09961 -1.09587,-0.99626 -1.19551,-1.59401"
       style="fill:none;stroke:#000000;stroke-width:0.31879;stroke-linecap:round;stroke-linejoin:round;stroke-miterlimit:10;stroke-dasharray:none;stroke-opacity:1"
       transform="matrix(1.3333333,0,0,-1.3333333,307.65539,222.32267)"
       clip-path="url(#clipPath61)" />
    <path
       id="path4"
       d="m 3.6455625,-3.2935547 c 0.070312,-0.28125 0.3164062,-1.2890625 1.078125,-1.2890625 0.058594,0 0.3164062,0 0.5507812,0.140625 -0.3046875,0.058594 -0.5273437,0.328125 -0.5273437,0.5859375 0,0.1757813 0.1171875,0.3867188 0.4101562,0.3867188 0.2460938,0 0.5976563,-0.1992188 0.5976563,-0.6328125 0,-0.5625 -0.6445313,-0.7265625 -1.0195313,-0.7265625 -0.6328125,0 -1.0195312,0.5859375 -1.1484375,0.8320312 C 3.3174375,-4.7115234 2.7315,-4.8287109 2.4150937,-4.8287109 c -1.1367187,0 -1.75781245,1.4179687 -1.75781245,1.6875 0,0.1054687 0.10546875,0.1054687 0.12890625,0.1054687 0.0820313,0 0.1171875,-0.023437 0.140625,-0.1171875 0.375,-1.1601562 1.0898437,-1.4296875 1.4648437,-1.4296875 0.2109375,0 0.5859375,0.09375 0.5859375,0.7265625 0,0.3398438 -0.1875,1.078125 -0.5859375,2.6015625 -0.1757812,0.67968751 -0.5625,1.13671876 -1.0429687,1.13671876 -0.058594,0 -0.3164063,0 -0.5390625,-0.140625 0.2695312,-0.0585938 0.515625,-0.29296875 0.515625,-0.59765625 0,-0.29296871 -0.2460938,-0.37500001 -0.41015625,-0.37500001 -0.328125,0 -0.59765625,0.28125001 -0.59765625,0.63281251 0,0.50390625 0.55078125,0.71484375 1.03125,0.71484375 0.7148437,0 1.1015625,-0.76171875 1.1367187,-0.83203125 C 2.6143125,-0.30527344 3.01275,0.11660156 3.669,0.11660156 c 1.125,0 1.7460937,-1.40624996 1.7460937,-1.67578126 0,-0.1054687 -0.1054687,-0.1054687 -0.1289062,-0.1054687 -0.1054688,0 -0.1289063,0.035156 -0.140625,0.1171875 -0.3632813,1.16015621 -1.1132813,1.42968746 -1.453125,1.42968746 -0.4335938,0 -0.609375,-0.3515625 -0.609375,-0.7265625 0,-0.23437496 0.070312,-0.48046876 0.1875,-0.96093746 z m 0,0"
       style="fill:#000000;fill-opacity:1;fill-rule:nonzero;stroke:none"
       aria-label="x"
       transform="matrix(1.3333333,0,0,1.3333333,304.108,233.7)"
       clip-path="url(#clipPath60)" />
    <path
       id="path5"
       d="M 0,-14.17339 V 112.92896"
       style="fill:none;stroke:#000000;stroke-width:0.3985;stroke-linecap:butt;stroke-linejoin:miter;stroke-miterlimit:10;stroke-dasharray:none;stroke-opacity:1"
       transform="matrix(1.3333333,0,0,-1.3333333,175.98133,222.32267)"
       clip-path="url(#clipPath59)" />
    <path
       id="path6"
       d="M -1.19551,1.59401 C -1.09587,0.99626 0,0.09961 0.29886,0 0,-0.09961 -1.09587,-0.99626 -1.19551,-1.59401"
       style="fill:none;stroke:#000000;stroke-width:0.31879;stroke-linecap:round;stroke-linejoin:round;stroke-miterlimit:10;stroke-dasharray:none;stroke-opacity:1"
       transform="matrix(0,-1.3333333,-1.3333333,0,175.98133,71.75072)"
       clip-path="url(#clipPath58)" />
    <path
       id="path7"
       d="m 5.2970078,-4.159625 c 0.046875,-0.1523437 0.046875,-0.1757812 0.046875,-0.2460937 0,-0.1992188 -0.1523437,-0.2929688 -0.3164062,-0.2929688 -0.1054688,0 -0.28125,0.058594 -0.375,0.2226563 -0.023437,0.058594 -0.1171875,0.3984375 -0.1523438,0.5976562 -0.082031,0.28125 -0.1523437,0.5742188 -0.2226562,0.8671875 l -0.4921875,1.96875 c -0.046875,0.1640625 -0.515625,0.92578125 -1.2304688,0.92578125 -0.5625,0 -0.6796875,-0.48046875 -0.6796875,-0.89062495 0,-0.4921875 0.1875,-1.171875 0.5625,-2.1328125 0.1757813,-0.4453125 0.2109375,-0.5742188 0.2109375,-0.7851563 0,-0.4921875 -0.3515625,-0.9023437 -0.890625,-0.9023437 -1.04296874,0 -1.44140624,1.5820312 -1.44140624,1.6875 0,0.1054687 0.10546875,0.1054687 0.12890625,0.1054687 0.10546875,0 0.1171875,-0.023437 0.17578125,-0.1992187 C 0.91419531,-4.253375 1.3477891,-4.5815 1.7227891,-4.5815 c 0.09375,0 0.2695312,0 0.2695312,0.3515625 0,0.2695313 -0.1054687,0.5507813 -0.1757812,0.7617188 -0.4453125,1.1601562 -0.6328125,1.78125 -0.6328125,2.2851562 0,0.97265625 0.6796875,1.30078125 1.3242187,1.30078125 0.421875,0 0.796875,-0.1875 1.1015625,-0.4921875 C 3.4688828,0.19975 3.3399766,0.72709375 2.9063828,1.3130313 2.6134141,1.6763125 2.2032578,1.9927188 1.6993516,1.9927188 c -0.1523438,0 -0.6445313,-0.023437 -0.83203129,-0.4570313 0.17578129,0 0.31640629,0 0.48046879,-0.1289062 C 1.4532578,1.3130313 1.5587266,1.1724063 1.5587266,0.96146875 1.5587266,0.621625 1.2657578,0.57475 1.1602891,0.57475 c -0.25781254,0 -0.60937504,0.17578125 -0.60937504,0.7148438 0,0.5390625 0.48046874,0.9492187 1.14843754,0.9492187 1.125,0 2.25,-0.9960937 2.5546875,-2.2265625 z m 0,0"
       style="fill:#000000;fill-opacity:1;fill-rule:nonzero;stroke:none"
       aria-label="y"
       transform="matrix(1.3333333,0,0,1.3333333,163.21467,72.858667)"
       clip-path="url(#clipPath57)" />
    <path
       id="path8"
       d="m 0,0 c 0,0 0.36188,0.05847 0.50087,0.09622 0.13899,0.03775 0.36188,0.12134 0.50087,0.17583 0.13899,0.0545 0.36189,0.14789 0.50087,0.21692 0.13899,0.06904 0.36191,0.20164 0.5009,0.28071 0.13899,0.07907 0.36188,0.20378 0.50087,0.28916 0.13899,0.08536 0.36189,0.23114 0.50087,0.32612 0.13899,0.09501 0.36189,0.25513 0.50088,0.35859 0.139,0.10345 0.3619,0.27636 0.50089,0.38713 0.13899,0.11074 0.36189,0.29372 0.50087,0.41112 0.13899,0.11741 0.36189,0.31121 0.50088,0.43513 0.139,0.12393 0.3619,0.32803 0.50089,0.45805 0.13899,0.13001 0.36188,0.34332 0.50087,0.47904 0.13899,0.13572 0.36189,0.35791 0.50088,0.49916 0.13899,0.14123 0.36188,0.3721 0.50087,0.51882 0.139,0.14674 0.3619,0.38686 0.50089,0.53873 0.13899,0.15184 0.36189,0.39905 0.50088,0.55582 0.139,0.15674 0.36188,0.41229 0.50087,0.57396 0.139,0.16167 0.36188,0.42487 0.50088,0.59128 0.13899,0.16641 0.3619,0.43724 0.5009,0.60815 0.13899,0.17092 0.36187,0.44866 0.50086,0.62372 0.139,0.17506 0.36188,0.45859 0.50087,0.63799 0.13899,0.17941 0.36191,0.47119 0.5009,0.65509 0.139,0.18391 0.36188,0.48239 0.50087,0.67044 0.139,0.18805 0.36188,0.49293 0.50087,0.68492 0.13899,0.19197 0.3619,0.50267 0.50089,0.69876 0.13899,0.19609 0.36189,0.51489 0.50088,0.71455 0.13899,0.19966 0.36188,0.5213 0.50087,0.72451 0.13899,0.2032 0.36189,0.53276 0.50089,0.74006 0.13899,0.20732 0.36189,0.54311 0.50088,0.75414 0.13899,0.21104 0.36188,0.5523 0.50087,0.76688 0.13899,0.21458 0.36189,0.5615 0.50089,0.77966 0.13899,0.21814 0.36187,0.5709 0.50086,0.79261 0.139,0.22171 0.3619,0.58028 0.50089,0.80539 0.13899,0.22512 0.36189,0.58857 0.50089,0.81707 0.13899,0.2285 0.36187,0.59782 0.50087,0.82983 0.13899,0.23201 0.36187,0.60714 0.50087,0.84236 0.13899,0.23523 0.3619,0.61463 0.5009,0.85297 0.13899,0.23834 0.36188,0.62346 0.50087,0.86487 0.13899,0.24139 0.36187,0.63047 0.50087,0.875 0.13899,0.24454 0.3619,0.63944 0.5009,0.88736 0.13899,0.2479 0.36187,0.64866 0.50087,0.89947 0.13899,0.25078 0.36187,0.65408 0.50087,0.9081 0.13899,0.25404 0.36189,0.66594 0.50088,0.92282 0.13899,0.25689 0.36189,0.66888 0.50089,0.92866 0.13899,0.2598 0.36187,0.68106 0.50087,0.9438 0.13899,0.26275 0.36189,0.68406 0.50088,0.94985 0.13899,0.26581 0.36189,0.69696 0.50088,0.96587 0.139,0.26891 0.36188,0.70162 0.50088,0.97235 0.13899,0.2707 0.36189,0.70457 0.50088,0.97883 0.13899,0.27426 0.36188,0.72039 0.50087,0.99785 0.13899,0.27747 0.36189,0.72212 0.50089,1.00198 0.13898,0.27987 0.36189,0.73237 0.50088,1.01517 0.139,0.28281 0.36188,0.73853 0.50087,1.02316 0.13899,0.28464 0.36188,0.74087 0.50087,1.02837 0.13899,0.28749 0.36191,0.75366 0.5009,1.0437 0.13899,0.29006 0.36188,0.75263 0.50087,1.04675 0.13899,0.29413 0.36188,0.77567 0.50087,1.07312 0.13899,0.29746 0.36191,0.77247 0.5009,1.07076 0.13899,0.29829 0.36188,0.77824 0.50087,1.07919 0.13899,0.30094 0.36188,0.78629 0.50087,1.08977 0.13899,0.30348 0.36189,0.79157 0.50088,1.09757 0.139,0.30601 0.3619,0.79924 0.50089,1.10795 0.13899,0.3087 0.36188,0.80606 0.50087,1.11702 0.13899,0.31096 0.36189,0.81057 0.50088,1.12417 0.139,0.3136 0.3619,0.81994 0.50089,1.13605 0.13899,0.31612 0.36187,0.82395 0.50087,1.14235 0.13899,0.3184 0.36189,0.83174 0.50088,1.15248 0.13898,0.32074 0.36188,0.8362 0.50087,1.15922 0.139,0.32301 0.3619,0.84344 0.50089,1.16892 0.13899,0.32549 0.36189,0.84876 0.50088,1.17695 0.13898,0.32818 0.36188,0.85784 0.50088,1.1884 0.13899,0.33055 0.36187,0.86169 0.50086,1.194 0.139,0.33233 0.36191,0.86634 0.5009,1.20117 0.13898,0.33481 0.36188,0.87506 0.50087,1.21196 0.139,0.33693 0.36188,0.87672 0.50087,1.2163 0.139,0.33958 0.36191,0.88918 0.50089,1.23122 0.13899,0.34204 0.36189,0.89073 0.50088,1.23404 0.139,0.34331 0.36188,0.89472 0.50087,1.2403 0.13899,0.34558 0.3619,0.9022 0.50087,1.25047 0.13899,0.34825 0.36191,0.90909 0.5009,1.25954 0.13899,0.35046 0.36188,0.91314 0.50087,1.26626 0.13899,0.35312 0.36189,0.92449 0.50087,1.2788 0.13899,0.35432 0.36189,0.91864 0.50089,1.27491 0.13899,0.35626 0.36189,0.93337 0.50088,1.29285 0.13899,0.35948 0.36188,0.93605 0.50087,1.29805 0.13899,0.362 0.36189,0.94757 0.50089,1.31102 0.13899,0.36344 0.36189,0.94403 0.50088,1.30843 0.13899,0.36439 0.36188,0.95033 0.50087,1.31794 0.13899,0.36762 0.36189,0.96103 0.50089,1.33157 0.13899,0.37055 0.36188,0.96705 0.50087,1.33913 0.13899,0.37209 0.36189,0.96979 0.50088,1.34261 0.13899,0.3728 0.36189,0.96861 0.50089,1.34433 0.13899,0.37572 0.36187,0.98465 0.50087,1.36357 0.13899,0.37892 0.36189,0.98752 0.50088,1.36746 0.13899,0.37995 0.36189,0.98947 0.50089,1.37093 0.13899,0.38148 0.36187,0.99531 0.50087,1.37851 0.13899,0.38319 0.36187,0.99866 0.50087,1.38326 0.13899,0.38459 0.3619,1.00071 0.5009,1.38867 0.13899,0.38795 0.50086,1.40747 0.50086,1.40747"
       style="fill:none;stroke:#eb0a36;stroke-width:0.79701;stroke-linecap:butt;stroke-linejoin:miter;stroke-miterlimit:10;stroke-dasharray:none;stroke-opacity:1"
       transform="matrix(1.3333333,0,0,-1.3333333,175.98133,222.32267)"
       clip-path="url(#clipPath56)" />
    <path
       id="path9"
       d="m -7.08669,-17.71674 c 0,0 1.92006,2.8801 2.65751,3.98627 0.73745,1.10617 1.92007,2.8801 2.65751,3.98627 0.73746,1.10617 1.92005,2.88011 2.6575,3.98628 0.73745,1.10617 1.92005,2.88008 2.6575,3.98625 0.73745,1.10617 1.92007,2.88008 2.65752,3.98625 0.73745,1.10618 1.92008,2.8801 2.65752,3.98627 0.73744,1.10617 1.92006,2.8801 2.6575,3.98628 0.73746,1.10617 1.92007,2.88008 2.65752,3.98626 0.73745,1.10617 1.92007,2.88009 2.65751,3.98626 0.73746,1.10617 1.92006,2.88011 2.65752,3.98629 0.73744,1.10616 1.92006,2.88008 2.65752,3.98625 0.73744,1.10617 1.92006,2.88011 2.65751,3.98628 0.73745,1.10617 1.92006,2.8801 2.6575,3.98627 0.73745,1.10616 1.92008,2.88009 2.65752,3.98628 0.73746,1.10617 1.92007,2.88008 2.65752,3.98625 0.73745,1.10617 1.92005,2.88011 2.6575,3.98628 0.73745,1.10617 1.92007,2.8801 2.65753,3.98627 0.73744,1.10617 1.92006,2.8801 2.65752,3.98627 0.73744,1.10618 1.92004,2.88009 2.6575,3.98626 0.73744,1.10617 1.92007,2.88012 2.65751,3.98629 0.73745,1.10616 1.92008,2.88008 2.65752,3.98626 0.73746,1.10617 1.92006,2.8801 2.6575,3.98627 0.73746,1.10617 1.92008,2.8801 2.65752,3.98627 0.73745,1.10617 2.65753,3.98628 2.65753,3.98628"
       style="fill:none;stroke:#0000ff;stroke-width:0.79701;stroke-linecap:butt;stroke-linejoin:miter;stroke-miterlimit:10;stroke-dasharray:none;stroke-opacity:0.5"
       transform="matrix(1.3333333,0,0,-1.3333333,175.98133,222.32267)"
       clip-path="url(#clipPath55)" />
    <path
       id="path10"
       d="m -7.08669,28.20514 c 0,0 1.92006,-1.26743 2.65751,-1.75417 0.73745,-0.48672 1.92007,-1.26725 2.65751,-1.75393 0.73746,-0.48668 1.92005,-1.26704 2.6575,-1.75373 0.73745,-0.48666 1.92005,-1.26722 2.6575,-1.75393 0.73745,-0.48671 1.92007,-1.26725 2.65752,-1.75394 0.73745,-0.48671 1.92008,-1.26724 2.65752,-1.75395 0.73744,-0.48671 1.92006,-1.26721 2.6575,-1.75394 0.73746,-0.48674 1.92007,-1.26742 2.65752,-1.75416 0.73745,-0.48674 1.92007,-1.26723 2.65751,-1.75394 0.73746,-0.48671 1.92006,-1.26725 2.65752,-1.75395 0.73744,-0.4867 1.92006,-1.26723 2.65752,-1.75394 C 22.88338,8.42485 24.066,7.64432 24.80345,7.15762 25.5409,6.67091 26.72351,5.8904 27.46095,5.40369 28.1984,4.91698 29.38103,4.13644 30.11847,3.64975 30.85593,3.16304 32.03854,2.38254 32.77599,1.8958 c 0.73745,-0.48674 1.92005,-1.26741 2.6575,-1.75415 0.73745,-0.48673 1.92007,-1.26721 2.65753,-1.75392 0.73744,-0.4867 1.92006,-1.26723 2.65752,-1.75394 0.73744,-0.48671 1.92004,-1.26724 2.6575,-1.75395 0.73744,-0.4867 1.92007,-1.26723 2.65751,-1.75394 0.73745,-0.48671 1.92008,-1.26724 2.65752,-1.75394 0.73746,-0.48671 1.92006,-1.26722 2.6575,-1.75393 0.73746,-0.48671 1.92008,-1.2672 2.65752,-1.75394 0.73745,-0.48674 2.65753,-1.75417 2.65753,-1.75417"
       style="fill:none;stroke:#ec008c;stroke-width:0.79701;stroke-linecap:butt;stroke-linejoin:miter;stroke-miterlimit:10;stroke-dasharray:none;stroke-opacity:0.5"
       transform="matrix(1.3333333,0,0,-1.3333333,175.98133,222.32267)"
       clip-path="url(#clipPath54)" />
    <path
       id="path11"
       d="m 15.87413,14.17339 c 0,0.9393 -0.76144,1.70074 -1.70074,1.70074 -0.9393,0 -1.70073,-0.76144 -1.70073,-1.70074 0,-0.9393 0.76143,-1.70073 1.70073,-1.70073 0.9393,0 1.70074,0.76143 1.70074,1.70073 z"
       style="fill:#eb0a36;fill-opacity:1;fill-rule:nonzero;stroke:#eb0a36;stroke-width:0.3985;stroke-linecap:butt;stroke-linejoin:miter;stroke-miterlimit:10;stroke-dasharray:none;stroke-opacity:1"
       transform="matrix(1.3333333,0,0,-1.3333333,175.98133,222.32267)"
       clip-path="url(#clipPath53)" />
    <g
       id="g11"
       aria-label="y=x&#10;√"
       transform="matrix(1.3333333,0,0,1.3333333,226.09467,169.35333)"
       clip-path="url(#clipPath52)">
      <path
         id="path12"
         d="m 4.8391562,-3.7982031 c 0.046875,-0.140625 0.046875,-0.1523438 0.046875,-0.2226563 0,-0.1875 -0.140625,-0.2695312 -0.2929687,-0.2695312 -0.1054688,0 -0.2578125,0.058594 -0.3515625,0.1992187 -0.023437,0.058594 -0.09375,0.3632813 -0.140625,0.5390625 -0.070312,0.2578125 -0.140625,0.5273438 -0.1992188,0.796875 l -0.4453125,1.79296878 c -0.035156,0.15234375 -0.46875,0.85546875 -1.125,0.85546875 -0.5039062,0 -0.6210937,-0.4453125 -0.6210937,-0.80859375 0,-0.45703128 0.1757812,-1.07812498 0.515625,-1.95703128 0.1523437,-0.4101562 0.1992187,-0.515625 0.1992187,-0.7148437 0,-0.4453125 -0.328125,-0.8203125 -0.8203125,-0.8203125 -0.9492187,0 -1.31249995,1.453125 -1.31249995,1.5351562 0,0.1054688 0.09375,0.1054688 0.1171875,0.1054688 0.09375,0 0.10546875,-0.023437 0.15234375,-0.1875 0.26953125,-0.9375 0.6679687,-1.2304688 1.0078125,-1.2304688 0.082031,0 0.2578125,0 0.2578125,0.3164063 0,0.2460937 -0.1054688,0.515625 -0.1757813,0.703125 -0.3984375,1.0546875 -0.5742187,1.6171875 -0.5742187,2.0859375 0,0.89062498 0.6210937,1.18359373 1.21875,1.18359373 0.3867187,0 0.7265625,-0.1640625 0.9960937,-0.4453125 C 3.163375,0.17445313 3.0461875,0.66664063 2.64775,1.1939844 2.3899375,1.5338281 2.0149375,1.8267969 1.5579062,1.8267969 c -0.140625,0 -0.5976562,-0.035156 -0.7617187,-0.421875 0.1640625,0 0.2929687,0 0.4335937,-0.1171875 C 1.3235312,1.1939844 1.429,1.0650781 1.429,0.87757813 c 0,-0.31640625 -0.2695313,-0.3515625 -0.375,-0.3515625 -0.22265625,0 -0.55078125,0.1640625 -0.55078125,0.64453127 0,0.5039062 0.43359375,0.8671875 1.05468745,0.8671875 1.0195313,0 2.0507813,-0.9023438 2.3320313,-2.02734377 z m 0,0"
         style="fill:#eb0a36;fill-opacity:1;fill-rule:nonzero;stroke:none" />
      <path
         id="path13"
         d="m 14.855758,-3.2591406 c 0.152344,0 0.339844,0 0.339844,-0.1992188 0,-0.1992187 -0.1875,-0.1992187 -0.328125,-0.1992187 H 8.9026328 c -0.140625,0 -0.328125,0 -0.328125,0.1992187 0,0.1992188 0.1875,0.1992188 0.3398438,0.1992188 z m 0.01172,1.9335937 c 0.140625,0 0.328125,0 0.328125,-0.1992187 0,-0.1992188 -0.1875,-0.1992188 -0.339844,-0.1992188 H 8.9143516 c -0.1523438,0 -0.3398438,0 -0.3398438,0.1992188 0,0.1992187 0.1875,0.1992187 0.328125,0.1992187 z m 0,0"
         style="fill:#eb0a36;fill-opacity:1;fill-rule:nonzero;stroke:none" />
      <path
         id="path14"
         d="m 21.848922,-3.0130469 c 0.05859,-0.2578125 0.292969,-1.171875 0.984375,-1.171875 0.04687,0 0.292969,0 0.503906,0.1289063 -0.28125,0.046875 -0.480469,0.3046875 -0.480469,0.5390625 0,0.1640625 0.105469,0.3515625 0.375,0.3515625 0.222657,0 0.539063,-0.1875 0.539063,-0.5859375 0,-0.515625 -0.585938,-0.65625 -0.925781,-0.65625 -0.574219,0 -0.925782,0.5273437 -1.042969,0.7617187 -0.257813,-0.65625 -0.785156,-0.7617187 -1.078125,-0.7617187 -1.042969,0 -1.605469,1.2890625 -1.605469,1.5351562 0,0.1054688 0.105469,0.1054688 0.117188,0.1054688 0.08203,0 0.117187,-0.023437 0.128906,-0.1171875 0.339844,-1.0546875 0.996094,-1.3007813 1.335937,-1.3007813 0.1875,0 0.539063,0.09375 0.539063,0.6679688 0,0.3046875 -0.164063,0.9726562 -0.539063,2.3671875 -0.152343,0.62109373 -0.503906,1.04296873 -0.949218,1.04296873 -0.05859,0 -0.28125,0 -0.492188,-0.12890625 0.246094,-0.0585938 0.46875,-0.26953125 0.46875,-0.5390625 0,-0.26953128 -0.222656,-0.35156248 -0.375,-0.35156248 -0.292969,0 -0.539062,0.25781248 -0.539062,0.57421873 0,0.45703125 0.492187,0.65625 0.9375,0.65625 0.65625,0 1.007812,-0.69140625 1.042968,-0.75 0.117188,0.36328125 0.480469,0.75 1.078125,0.75 1.019532,0 1.59375,-1.27734373 1.59375,-1.53515623 0,-0.09375 -0.09375,-0.09375 -0.128906,-0.09375 -0.08203,0 -0.105469,0.035156 -0.128906,0.1054687 -0.328125,1.06640628 -0.996094,1.31250003 -1.324219,1.31250003 -0.386719,0 -0.539062,-0.328125 -0.539062,-0.65625 0,-0.22265625 0.05859,-0.44531253 0.164062,-0.87890623 z m 0,0"
         style="fill:#eb0a36;fill-opacity:1;fill-rule:nonzero;stroke:none" />
      <path
         id="path15"
         d="m 28.097945,1.3433984 -1.757812,-3.8789062 c -0.07031,-0.1523438 -0.117188,-0.1523438 -0.152344,-0.1523438 -0.01172,0 -0.05859,0 -0.164062,0.070312 l -0.949219,0.7265625 c -0.128906,0.09375 -0.128906,0.1289063 -0.128906,0.1523438 0,0.046875 0.03516,0.1054687 0.105468,0.1054687 0.05859,0 0.222657,-0.1289062 0.328125,-0.2109375 0.07031,-0.046875 0.210938,-0.1640625 0.328125,-0.2460937 l 1.957032,4.3125 c 0.07031,0.1640625 0.117187,0.1640625 0.210937,0.1640625 0.152344,0 0.175781,-0.058594 0.246094,-0.1992188 l 4.523437,-9.3632812 c 0.07031,-0.140625 0.07031,-0.1757813 0.07031,-0.1992188 0,-0.1054687 -0.08203,-0.1992187 -0.199219,-0.1992187 -0.08203,0 -0.152344,0.046875 -0.222656,0.2109375 z m 0,0"
         style="fill:#eb0a36;fill-opacity:1;fill-rule:nonzero;stroke:none" />
    </g>
    <path
       id="path16"
       d="M 0,0 H 5.694"
       style="fill:none;stroke:#eb0a36;stroke-width:0.398;stroke-linecap:butt;stroke-linejoin:miter;stroke-miterlimit:10;stroke-dasharray:none;stroke-opacity:1"
       transform="matrix(1.3333333,0,0,-1.3333333,269.45733,159.52)"
       clip-path="url(#clipPath51)" />
    <path
       id="path17"
       d="m 3.3278984,-3.0130469 c 0.058594,-0.2578125 0.2929688,-1.171875 0.984375,-1.171875 0.046875,0 0.2929688,0 0.5039063,0.1289063 -0.28125,0.046875 -0.4804688,0.3046875 -0.4804688,0.5390625 0,0.1640625 0.1054688,0.3515625 0.375,0.3515625 0.2226563,0 0.5390625,-0.1875 0.5390625,-0.5859375 0,-0.515625 -0.5859375,-0.65625 -0.9257812,-0.65625 -0.5742188,0 -0.9257813,0.5273437 -1.0429688,0.7617187 -0.2578125,-0.65625 -0.7851562,-0.7617187 -1.078125,-0.7617187 -1.0429687,0 -1.60546871,1.2890625 -1.60546871,1.5351562 0,0.1054688 0.10546875,0.1054688 0.1171875,0.1054688 0.0820313,0 0.1171875,-0.023437 0.12890625,-0.1171875 0.33984376,-1.0546875 0.99609376,-1.3007813 1.33593746,-1.3007813 0.1875,0 0.5390625,0.09375 0.5390625,0.6679688 0,0.3046875 -0.1640625,0.9726562 -0.5390625,2.3671875 -0.1523437,0.62109373 -0.5039062,1.04296873 -0.9492187,1.04296873 -0.058594,0 -0.28125001,0 -0.49218751,-0.12890625 0.24609375,-0.0585938 0.46875001,-0.26953125 0.46875001,-0.5390625 0,-0.26953128 -0.22265626,-0.35156248 -0.37500001,-0.35156248 -0.29296875,0 -0.5390625,0.25781248 -0.5390625,0.57421873 0,0.45703125 0.4921875,0.65625 0.93750001,0.65625 0.65625,0 1.0078125,-0.69140625 1.0429687,-0.75 0.1171875,0.36328125 0.4804688,0.75 1.078125,0.75 1.0195313,0 1.59375,-1.27734373 1.59375,-1.53515623 0,-0.09375 -0.09375,-0.09375 -0.1289062,-0.09375 -0.082031,0 -0.1054688,0.035156 -0.1289063,0.1054687 -0.328125,1.06640628 -0.9960937,1.31250003 -1.3242187,1.31250003 -0.3867188,0 -0.5390625,-0.328125 -0.5390625,-0.65625 0,-0.22265625 0.058594,-0.44531253 0.1640625,-0.87890623 z m 0,0"
       style="fill:#eb0a36;fill-opacity:1;fill-rule:nonzero;stroke:none"
       aria-label="x"
       transform="matrix(1.3333333,0,0,1.3333333,269.45733,169.35333)"
       clip-path="url(#clipPath50)" />
    <path
       id="path18"
       d="m 3.0235781,-3.1526484 h 1.6875 c 1.4179688,0 2.8007813,-1.03125 2.8007813,-2.1445313 0,-0.7734375 -0.65625,-1.5117187 -1.96875,-1.5117187 H 2.3204531 c -0.1875,0 -0.2929687,0 -0.2929687,0.1992187 0,0.1171875 0.082031,0.1171875 0.28125,0.1171875 0.1289062,0 0.3164062,0.011719 0.4335937,0.011719 0.1523438,0.023437 0.2109375,0.058594 0.2109375,0.1640625 0,0.035156 0,0.070312 -0.035156,0.1875 l -1.3359375,5.35546871 c -0.09375,0.38671875 -0.1171875,0.46875 -0.90234378,0.46875 -0.17578125,0 -0.28125,0 -0.28125,0.1875 0,0.1171875025 0.1171875,0.1171875025 0.15234375,0.1171875025 0.28125,0 0.98437503,-0.0351562525 1.26562503,-0.0351562525 0.2109375,0 0.421875,0.01171875 0.6328125,0.01171875 0.2226562,0 0.4453125,0.0234375025 0.6445312,0.0234375025 0.070312,0 0.1992188,0 0.1992188,-0.1992187525 0,-0.10546875 -0.082031,-0.10546875 -0.2695313,-0.10546875 -0.375,0 -0.65625,0 -0.65625,-0.1875 0,-0.0585938 0.023437,-0.10546875 0.035156,-0.1640625 z m 0.7148438,-2.9648438 c 0.082031,-0.3515625 0.1054687,-0.375 0.5390625,-0.375 h 0.9492187 c 0.8320313,0 1.359375,0.2695313 1.359375,0.9492188 0,0.3984375 -0.1992187,1.2539062 -0.5859375,1.6054687 -0.5039062,0.4453125 -1.1015625,0.5273438 -1.5351562,0.5273438 h -1.40625 z m 0,0"
       style="fill:#000000;fill-opacity:1;fill-rule:nonzero;stroke:none"
       aria-label="P"
       transform="matrix(1.3333333,0,0,1.3333333,199.992,204.184)"
       clip-path="url(#clipPath49)" />
    <g
       id="g18"
       aria-label="y=&#10;3"
       transform="matrix(1.3333333,0,0,1.3333333,256.62,131.156)"
       clip-path="url(#clipPath48)">
      <path
         id="path19"
         d="m 4.8406641,-3.7966875 c 0.046875,-0.140625 0.046875,-0.1523438 0.046875,-0.2226563 0,-0.1875 -0.140625,-0.2695312 -0.2929688,-0.2695312 -0.1054687,0 -0.2578125,0.058594 -0.3515625,0.1992187 -0.023437,0.058594 -0.09375,0.3632813 -0.140625,0.5390625 -0.070312,0.2578125 -0.140625,0.5273438 -0.1992187,0.796875 L 3.4578516,-0.96075 c -0.035156,0.15234375 -0.46875,0.85546875 -1.125,0.85546875 -0.5039063,0 -0.6210938,-0.4453125 -0.6210938,-0.80859375 0,-0.4570313 0.1757813,-1.078125 0.515625,-1.9570313 0.1523438,-0.4101562 0.1992188,-0.515625 0.1992188,-0.7148437 0,-0.4453125 -0.328125,-0.8203125 -0.8203125,-0.8203125 -0.94921879,0 -1.31250004,1.453125 -1.31250004,1.5351562 0,0.1054688 0.09375,0.1054688 0.1171875,0.1054688 0.09375,0 0.10546875,-0.023437 0.15234375,-0.1875 0.26953125,-0.9375 0.66796879,-1.2304688 1.00781249,-1.2304688 0.082031,0 0.2578125,0 0.2578125,0.3164063 0,0.2460937 -0.1054687,0.515625 -0.1757812,0.703125 -0.3984375,1.0546875 -0.5742188,1.6171875 -0.5742188,2.0859375 0,0.890625 0.6210938,1.18359375 1.21875,1.18359375 0.3867188,0 0.7265625,-0.1640625 0.9960938,-0.4453125 C 3.1648828,0.17596875 3.0476953,0.66815625 2.6492578,1.1955 2.3914453,1.5353437 2.0164453,1.8283125 1.5594141,1.8283125 c -0.140625,0 -0.59765629,-0.035156 -0.76171879,-0.421875 0.1640625,0 0.29296879,0 0.43359379,-0.1171875 0.09375,-0.09375 0.1992187,-0.2226563 0.1992187,-0.41015625 0,-0.31640625 -0.2695312,-0.3515625 -0.375,-0.3515625 -0.22265624,0 -0.55078124,0.1640625 -0.55078124,0.64453125 0,0.5039062 0.43359375,0.8671875 1.05468754,0.8671875 1.0195312,0 2.0507812,-0.9023438 2.3320312,-2.02734375 z m 0,0"
         style="fill:#0000ff;fill-opacity:0.5;fill-rule:nonzero;stroke:none" />
      <path
         id="path20"
         d="m 14.857266,-3.257625 c 0.152343,0 0.339843,0 0.339843,-0.1992188 0,-0.1992187 -0.1875,-0.1992187 -0.328125,-0.1992187 H 8.9041406 c -0.140625,0 -0.328125,0 -0.328125,0.1992187 0,0.1992188 0.1875,0.1992188 0.3398438,0.1992188 z m 0.01172,1.9335937 c 0.140625,0 0.328125,0 0.328125,-0.1992187 0,-0.1992188 -0.1875,-0.1992188 -0.339843,-0.1992188 H 8.9158594 c -0.1523438,0 -0.3398438,0 -0.3398438,0.1992188 0,0.1992187 0.1875,0.1992187 0.328125,0.1992187 z m 0,0"
         style="fill:#0000ff;fill-opacity:0.5;fill-rule:nonzero;stroke:none" />
      <path
         id="path21"
         d="m 21.618984,-6.2546953 c 0.550782,0 0.9375,0.375 0.9375,1.125 0,0.8671875 -0.503906,1.125 -0.902343,1.125 -0.28125,0 -0.890625,-0.082031 -1.183594,-0.4921875 0.328125,-0.011719 0.398437,-0.2460938 0.398437,-0.3867188 0,-0.2226562 -0.164062,-0.3867187 -0.386718,-0.3867187 -0.1875,0 -0.386719,0.1171875 -0.386719,0.4101562 0,0.65625 0.726562,1.078125 1.570312,1.078125 0.972657,0 1.640625,-0.6445312 1.640625,-1.3476562 0,-0.5390625 -0.445312,-1.0898438 -1.21875,-1.2421875 0.738282,-0.2695313 0.996094,-0.796875 0.996094,-1.21875 0,-0.5507813 -0.632812,-0.9609375 -1.40625,-0.9609375 -0.773437,0 -1.359375,0.375 -1.359375,0.9375 0,0.234375 0.152344,0.3632812 0.363281,0.3632812 0.210938,0 0.351563,-0.1640625 0.351563,-0.3515625 0,-0.1992187 -0.140625,-0.3515625 -0.351563,-0.3632812 0.234375,-0.3046875 0.714844,-0.3867188 0.972657,-0.3867188 0.316406,0 0.761718,0.1523438 0.761718,0.7617188 0,0.2929687 -0.105468,0.609375 -0.28125,0.8320312 -0.234375,0.2578125 -0.421875,0.28125 -0.773437,0.2929688 -0.175781,0.023437 -0.1875,0.023437 -0.222656,0.023437 -0.01172,0 -0.07031,0.011719 -0.07031,0.09375 0,0.09375 0.05859,0.09375 0.175781,0.09375 z m 0,0"
         style="fill:#0000ff;fill-opacity:0.5;fill-rule:nonzero;stroke:none" />
    </g>
    <path
       id="path22"
       d="M 0,0 H 3.971"
       style="fill:none;stroke:#0000ff;stroke-width:0.398;stroke-linecap:butt;stroke-linejoin:miter;stroke-miterlimit:10;stroke-dasharray:none;stroke-opacity:0.5"
       transform="matrix(1.3333333,0,0,-1.3333333,282.91467,127.83467)"
       clip-path="url(#clipPath47)" />
    <g
       id="g22"
       aria-label="2&#10;x−&#10;1"
       transform="matrix(1.3333333,0,0,1.3333333,282.91467,135.736)"
       clip-path="url(#clipPath46)">
      <path
         id="path23"
         d="M 3.5151719,-1.2668437 H 3.2807969 C 3.2573594,-1.1145 3.1987656,-0.70434375 3.1050156,-0.63403125 3.0464219,-0.598875 2.5073594,-0.598875 2.4136094,-0.598875 H 1.1245469 c 0.7382812,-0.6445312 0.984375,-0.84375 1.3945312,-1.171875 0.515625,-0.4101562 0.9960938,-0.84375 0.9960938,-1.5 0,-0.84375 -0.7382813,-1.359375 -1.6289063,-1.359375 -0.8671875,0 -1.45312498,0.609375 -1.45312498,1.2421875 0,0.3632813 0.3046875,0.3984375 0.375,0.3984375 0.1640625,0 0.37499998,-0.1171875 0.37499998,-0.375 0,-0.1289062 -0.058594,-0.3632812 -0.42187498,-0.3632812 0.22265625,-0.5039063 0.69140628,-0.65625 1.01953128,-0.65625 0.703125,0 1.0664062,0.5507812 1.0664062,1.1132812 0,0.609375 -0.4335937,1.0898438 -0.65625,1.3359375 L 0.50345312,-0.27075 c -0.0703125,0.0585938 -0.0703125,0.0703125 -0.0703125,0.26953125 H 3.3159531 Z m 0,0"
         style="fill:#0000ff;fill-opacity:0.5;fill-rule:nonzero;stroke:none" />
      <path
         id="path24"
         d="m 8.4956406,-6.4465312 c 0.058594,-0.2578125 0.2929688,-1.171875 0.984375,-1.171875 0.046875,0 0.2929688,0 0.5039063,0.1289062 -0.28125,0.046875 -0.4804688,0.3046875 -0.4804688,0.5390625 0,0.1640625 0.1054688,0.3515625 0.375,0.3515625 0.2226559,0 0.5390629,-0.1875 0.5390629,-0.5859375 0,-0.515625 -0.5859379,-0.65625 -0.9257816,-0.65625 -0.5742188,0 -0.9257813,0.5273438 -1.0429688,0.7617188 -0.2578125,-0.65625 -0.7851562,-0.7617188 -1.078125,-0.7617188 -1.0429687,0 -1.6054687,1.2890625 -1.6054687,1.5351563 0,0.1054687 0.1054687,0.1054687 0.1171875,0.1054687 0.082031,0 0.1171875,-0.023437 0.1289062,-0.1171875 0.3398438,-1.0546875 0.9960938,-1.3007812 1.3359375,-1.3007812 0.1875,0 0.5390625,0.09375 0.5390625,0.6679687 0,0.3046875 -0.1640625,0.9726563 -0.5390625,2.3671875 -0.1523437,0.6210938 -0.5039062,1.0429688 -0.9492187,1.0429688 -0.058594,0 -0.28125,0 -0.4921875,-0.1289063 0.2460937,-0.058594 0.46875,-0.2695312 0.46875,-0.5390625 0,-0.2695312 -0.2226563,-0.3515625 -0.375,-0.3515625 -0.2929688,0 -0.5390625,0.2578125 -0.5390625,0.5742188 0,0.4570312 0.4921875,0.65625 0.9375,0.65625 0.65625,0 1.0078125,-0.6914063 1.0429687,-0.75 0.1171875,0.3632812 0.4804688,0.75 1.078125,0.75 1.0195313,0 1.5937499,-1.2773438 1.5937499,-1.5351563 0,-0.09375 -0.09375,-0.09375 -0.1289061,-0.09375 -0.082031,0 -0.1054688,0.035156 -0.1289063,0.1054688 -0.328125,1.0664062 -0.9960937,1.3125 -1.3242187,1.3125 -0.3867188,0 -0.5390625,-0.328125 -0.5390625,-0.65625 0,-0.2226563 0.058594,-0.4453125 0.1640625,-0.8789063 z m 0,0"
         style="fill:#0000ff;fill-opacity:0.5;fill-rule:nonzero;stroke:none" />
      <path
         id="path25"
         d="m 19.634312,-5.7316875 c 0.175782,0 0.351563,0 0.351563,-0.1992187 0,-0.1992188 -0.175781,-0.1992188 -0.351563,-0.1992188 h -5.390625 c -0.164062,0 -0.339843,0 -0.339843,0.1992188 0,0.1992187 0.175781,0.1992187 0.339843,0.1992187 z m 0,0"
         style="fill:#0000ff;fill-opacity:0.5;fill-rule:nonzero;stroke:none" />
      <path
         id="path26"
         d="m 26.565953,-11.787352 c 0,-0.1875 -0.01172,-0.199218 -0.210937,-0.199218 -0.445313,0.433593 -1.078125,0.445312 -1.359375,0.445312 v 0.246094 c 0.164062,0 0.621093,0 1.007812,-0.1875 v 3.5507812 c 0,0.234375 0,0.328125 -0.691406,0.328125 h -0.269531 v 0.2460937 c 0.128906,-0.011719 0.984375,-0.023437 1.242187,-0.023437 0.210938,0 1.089844,0.011719 1.242188,0.023437 v -0.2460937 h -0.257813 c -0.703125,0 -0.703125,-0.09375 -0.703125,-0.328125 z m 0,0"
         style="fill:#0000ff;fill-opacity:0.5;fill-rule:nonzero;stroke:none" />
    </g>
    <path
       id="path27"
       d="M 0,0 H 3.971"
       style="fill:none;stroke:#0000ff;stroke-width:0.398;stroke-linecap:butt;stroke-linejoin:miter;stroke-miterlimit:10;stroke-dasharray:none;stroke-opacity:0.5"
       transform="matrix(1.3333333,0,0,-1.3333333,315.22533,127.83467)"
       clip-path="url(#clipPath45)" />
    <path
       id="path28"
       d="M 3.5165469,-1.2668437 H 3.2821719 C 3.2587344,-1.1145 3.2001406,-0.70434375 3.1063906,-0.63403125 3.0477969,-0.598875 2.5087344,-0.598875 2.4149844,-0.598875 H 1.1259219 c 0.7382812,-0.6445312 0.984375,-0.84375 1.3945312,-1.171875 0.515625,-0.4101562 0.9960938,-0.84375 0.9960938,-1.5 0,-0.84375 -0.7382813,-1.359375 -1.6289063,-1.359375 -0.8671875,0 -1.45312497,0.609375 -1.45312497,1.2421875 0,0.3632813 0.3046875,0.3984375 0.375,0.3984375 0.1640625,0 0.37499997,-0.1171875 0.37499997,-0.375 0,-0.1289062 -0.058594,-0.3632812 -0.42187497,-0.3632812 0.22265625,-0.5039063 0.69140627,-0.65625 1.01953127,-0.65625 0.703125,0 1.0664062,0.5507812 1.0664062,1.1132812 0,0.609375 -0.4335937,1.0898438 -0.65625,1.3359375 L 0.50482813,-0.27075 c -0.0703125,0.0585938 -0.0703125,0.0703125 -0.0703125,0.26953125 H 3.3173281 Z m 0,0"
       style="fill:#0000ff;fill-opacity:0.5;fill-rule:nonzero;stroke:none"
       aria-label="2"
       transform="matrix(1.3333333,0,0,1.3333333,315.22533,135.736)"
       clip-path="url(#clipPath44)" />
    <g
       id="g28"
       aria-label="y=−&#10;2"
       transform="matrix(1.3333333,0,0,1.3333333,213.65867,263.43867)"
       clip-path="url(#clipPath43)">
      <path
         id="path29"
         d="m 4.8409609,-3.79775 c 0.046875,-0.140625 0.046875,-0.1523437 0.046875,-0.2226562 0,-0.1875 -0.140625,-0.2695313 -0.2929687,-0.2695313 -0.1054688,0 -0.2578125,0.058594 -0.3515625,0.1992188 -0.023437,0.058594 -0.09375,0.3632812 -0.140625,0.5390625 -0.070312,0.2578125 -0.140625,0.5273437 -0.1992188,0.796875 l -0.4453125,1.7929687 c -0.035156,0.15234375 -0.46875,0.85546875 -1.125,0.85546875 -0.5039062,0 -0.6210937,-0.4453125 -0.6210937,-0.80859375 0,-0.4570312 0.1757812,-1.078125 0.515625,-1.9570312 0.1523437,-0.4101563 0.1992187,-0.515625 0.1992187,-0.7148438 0,-0.4453125 -0.328125,-0.8203125 -0.8203125,-0.8203125 -0.94921871,0 -1.31249996,1.453125 -1.31249996,1.5351563 0,0.1054687 0.09375,0.1054687 0.1171875,0.1054687 0.09375,0 0.10546875,-0.023437 0.15234375,-0.1875 0.26953125,-0.9375 0.66796871,-1.2304687 1.00781251,-1.2304687 0.082031,0 0.2578125,0 0.2578125,0.3164062 0,0.2460938 -0.1054688,0.515625 -0.1757813,0.703125 C 1.2550234,-2.11025 1.0792422,-1.54775 1.0792422,-1.079 c 0,0.890625 0.6210937,1.18359375 1.21875,1.18359375 0.3867187,0 0.7265625,-0.1640625 0.9960937,-0.4453125 C 3.1651797,0.17490625 3.0479922,0.66709375 2.6495547,1.1944375 2.3917422,1.5342813 2.0167422,1.82725 1.5597109,1.82725 c -0.140625,0 -0.59765621,-0.035156 -0.76171871,-0.421875 0.1640625,0 0.29296871,0 0.43359371,-0.1171875 0.09375,-0.09375 0.1992188,-0.2226562 0.1992188,-0.41015625 0,-0.31640625 -0.2695313,-0.3515625 -0.375,-0.3515625 -0.22265626,0 -0.55078126,0.1640625 -0.55078126,0.64453125 0,0.5039063 0.43359375,0.8671875 1.05468746,0.8671875 1.0195313,0 2.0507813,-0.9023437 2.3320313,-2.02734375 z m 0,0"
         style="fill:#ec008c;fill-opacity:0.5;fill-rule:nonzero;stroke:none" />
      <path
         id="path30"
         d="m 14.857563,-3.2586875 c 0.152343,0 0.339843,0 0.339843,-0.1992187 0,-0.1992188 -0.1875,-0.1992188 -0.328125,-0.1992188 H 8.9044375 c -0.140625,0 -0.328125,0 -0.328125,0.1992188 0,0.1992187 0.1875,0.1992187 0.3398438,0.1992187 z m 0.01172,1.9335938 c 0.140625,0 0.328125,0 0.328125,-0.1992188 0,-0.1992187 -0.1875,-0.1992187 -0.339843,-0.1992187 H 8.9161563 c -0.1523438,0 -0.3398438,0 -0.3398438,0.1992187 0,0.1992188 0.1875,0.1992188 0.328125,0.1992188 z m 0,0"
         style="fill:#ec008c;fill-opacity:0.5;fill-rule:nonzero;stroke:none" />
      <path
         id="path31"
         d="m 25.085102,-2.29775 c 0.175781,0 0.351562,0 0.351562,-0.1992187 0,-0.1992188 -0.175781,-0.1992188 -0.351562,-0.1992188 h -5.390625 c -0.164063,0 -0.339844,0 -0.339844,0.1992188 0,0.1992187 0.175781,0.1992187 0.339844,0.1992187 z m 0,0"
         style="fill:#ec008c;fill-opacity:0.5;fill-rule:nonzero;stroke:none" />
      <path
         id="path32"
         d="m 30.985492,-5.1864219 h -0.234375 c -0.02344,0.1523438 -0.08203,0.5625 -0.175781,0.6328125 -0.05859,0.035156 -0.597656,0.035156 -0.691406,0.035156 h -1.289063 c 0.738281,-0.6445313 0.984375,-0.84375 1.394531,-1.171875 0.515625,-0.4101563 0.996094,-0.84375 0.996094,-1.5 0,-0.84375 -0.738281,-1.359375 -1.628906,-1.359375 -0.867188,0 -1.453125,0.609375 -1.453125,1.2421875 0,0.3632812 0.304687,0.3984375 0.375,0.3984375 0.164062,0 0.375,-0.1171875 0.375,-0.375 0,-0.1289063 -0.05859,-0.3632813 -0.421875,-0.3632813 0.222656,-0.5039062 0.691406,-0.65625 1.019531,-0.65625 0.703125,0 1.066406,0.5507813 1.066406,1.1132813 0,0.609375 -0.433593,1.0898437 -0.65625,1.3359375 l -1.6875,1.6640625 c -0.07031,0.058594 -0.07031,0.070312 -0.07031,0.2695312 h 2.882812 z m 0,0"
         style="fill:#ec008c;fill-opacity:0.5;fill-rule:nonzero;stroke:none" />
    </g>
    <path
       id="path33"
       d="M 0,0 H 3.971"
       style="fill:none;stroke:#ec008c;stroke-width:0.398;stroke-linecap:butt;stroke-linejoin:miter;stroke-miterlimit:10;stroke-dasharray:none;stroke-opacity:0.5"
       transform="matrix(1.3333333,0,0,-1.3333333,250.28533,260.11867)"
       clip-path="url(#clipPath42)" />
    <g
       id="g33"
       aria-label="3&#10;x+&#10;1"
       transform="matrix(1.3333333,0,0,1.3333333,250.28533,268.02)"
       clip-path="url(#clipPath41)">
      <path
         id="path34"
         d="m 1.8983047,-2.3323828 c 0.5507812,0 0.9375,0.375 0.9375,1.125 0,0.86718749 -0.5039063,1.12499999 -0.9023438,1.12499999 -0.28125,0 -0.890625,-0.08203125 -1.18359371,-0.4921875 0.32812501,-0.0117188 0.39843751,-0.24609375 0.39843751,-0.38671875 0,-0.22265624 -0.16406251,-0.38671874 -0.38671876,-0.38671874 -0.1875,0 -0.38671875,0.1171875 -0.38671875,0.41015624 0,0.65625 0.72656251,1.078125 1.57031251,1.078125 0.9726562,0 1.640625,-0.64453125 1.640625,-1.34765624 0,-0.5390625 -0.4453125,-1.0898438 -1.21875,-1.2421875 0.7382812,-0.2695313 0.9960937,-0.796875 0.9960937,-1.21875 0,-0.5507813 -0.6328125,-0.9609375 -1.40625,-0.9609375 -0.7734375,0 -1.35937496,0.375 -1.35937496,0.9375 0,0.234375 0.15234375,0.3632812 0.36328125,0.3632812 0.21093751,0 0.35156251,-0.1640625 0.35156251,-0.3515625 0,-0.1992187 -0.140625,-0.3515625 -0.35156251,-0.3632812 0.23437501,-0.3046875 0.71484371,-0.3867188 0.97265621,-0.3867188 0.3164063,0 0.7617188,0.1523438 0.7617188,0.7617188 0,0.2929687 -0.1054688,0.609375 -0.28125,0.8320312 -0.234375,0.2578125 -0.421875,0.28125 -0.7734375,0.2929688 -0.1757813,0.023437 -0.1875,0.023437 -0.2226563,0.023437 -0.011719,0 -0.070312,0.011719 -0.070312,0.09375 0,0.09375 0.058594,0.09375 0.1757813,0.09375 z m 0,0"
         style="fill:#ec008c;fill-opacity:0.5;fill-rule:nonzero;stroke:none" />
      <path
         id="path35"
         d="m 8.4959609,-6.4485937 c 0.058594,-0.2578125 0.2929688,-1.171875 0.984375,-1.171875 0.046875,0 0.2929688,0 0.5039063,0.1289062 -0.28125,0.046875 -0.4804688,0.3046875 -0.4804688,0.5390625 0,0.1640625 0.1054688,0.3515625 0.375,0.3515625 0.2226566,0 0.5390626,-0.1875 0.5390626,-0.5859375 0,-0.515625 -0.5859376,-0.65625 -0.9257813,-0.65625 -0.5742188,0 -0.9257813,0.5273438 -1.0429688,0.7617188 -0.2578125,-0.65625 -0.7851562,-0.7617188 -1.078125,-0.7617188 -1.0429687,0 -1.6054687,1.2890625 -1.6054687,1.5351563 0,0.1054687 0.1054687,0.1054687 0.1171875,0.1054687 0.082031,0 0.1171875,-0.023437 0.1289062,-0.1171875 0.3398438,-1.0546875 0.9960938,-1.3007812 1.3359375,-1.3007812 0.1875,0 0.5390625,0.09375 0.5390625,0.6679687 0,0.3046875 -0.1640625,0.9726563 -0.5390625,2.3671875 -0.1523437,0.6210938 -0.5039062,1.0429688 -0.9492187,1.0429688 -0.058594,0 -0.28125,0 -0.4921875,-0.1289063 0.2460937,-0.058594 0.46875,-0.2695312 0.46875,-0.5390625 0,-0.2695312 -0.2226563,-0.3515625 -0.375,-0.3515625 -0.2929688,0 -0.5390625,0.2578125 -0.5390625,0.5742188 0,0.4570312 0.4921875,0.65625 0.9375,0.65625 0.65625,0 1.0078125,-0.6914063 1.0429687,-0.75 0.1171875,0.3632812 0.4804688,0.75 1.078125,0.75 1.0195313,0 1.5937496,-1.2773438 1.5937496,-1.5351563 0,-0.09375 -0.09375,-0.09375 -0.1289058,-0.09375 -0.082031,0 -0.1054688,0.035156 -0.1289063,0.1054688 -0.328125,1.0664062 -0.9960937,1.3125 -1.3242187,1.3125 -0.3867188,0 -0.5390625,-0.328125 -0.5390625,-0.65625 0,-0.2226563 0.058594,-0.4453125 0.1640625,-0.8789063 z m 0,0"
         style="fill:#ec008c;fill-opacity:0.5;fill-rule:nonzero;stroke:none" />
      <path
         id="path36"
         d="m 17.150258,-5.73375 h 2.777344 c 0.140625,0 0.328125,0 0.328125,-0.1992187 0,-0.1992188 -0.1875,-0.1992188 -0.328125,-0.1992188 H 17.150258 V -8.92125 c 0,-0.1289062 0,-0.328125 -0.199219,-0.328125 -0.199219,0 -0.199219,0.1992188 -0.199219,0.328125 v 2.7890625 h -2.789062 c -0.140625,0 -0.328125,0 -0.328125,0.1992188 0,0.1992187 0.1875,0.1992187 0.328125,0.1992187 h 2.789062 v 2.8007813 c 0,0.1289062 0,0.328125 0.199219,0.328125 0.199219,0 0.199219,-0.1992188 0.199219,-0.328125 z m 0,0"
         style="fill:#ec008c;fill-opacity:0.5;fill-rule:nonzero;stroke:none" />
      <path
         id="path37"
         d="m 26.566273,-11.786484 c 0,-0.1875 -0.01172,-0.199219 -0.210937,-0.199219 -0.445313,0.433594 -1.078125,0.445312 -1.359375,0.445312 v 0.246094 c 0.164062,0 0.621094,0 1.007812,-0.1875 v 3.5507814 c 0,0.234375 0,0.328125 -0.691406,0.328125 h -0.269531 v 0.2460937 c 0.128906,-0.011719 0.984375,-0.023437 1.242187,-0.023437 0.210938,0 1.089844,0.011719 1.242188,0.023437 v -0.2460937 h -0.257813 c -0.703125,0 -0.703125,-0.09375 -0.703125,-0.328125 z m 0,0"
         style="fill:#ec008c;fill-opacity:0.5;fill-rule:nonzero;stroke:none" />
    </g>
    <path
       id="path38"
       d="M 0,0 H 3.971"
       style="fill:none;stroke:#ec008c;stroke-width:0.398;stroke-linecap:butt;stroke-linejoin:miter;stroke-miterlimit:10;stroke-dasharray:none;stroke-opacity:0.5"
       transform="matrix(1.3333333,0,0,-1.3333333,282.596,260.11867)"
       clip-path="url(#clipPath40)" />
    <path
       id="path39"
       d="m 1.8996797,-2.3323828 c 0.5507812,0 0.9375,0.375 0.9375,1.125 0,0.86718749 -0.5039063,1.12499999 -0.9023438,1.12499999 -0.28125,0 -0.890625,-0.08203125 -1.18359371,-0.4921875 0.32812501,-0.0117188 0.39843751,-0.24609375 0.39843751,-0.38671875 0,-0.22265624 -0.16406251,-0.38671874 -0.38671876,-0.38671874 -0.1875,0 -0.38671875,0.1171875 -0.38671875,0.41015624 0,0.65625 0.72656251,1.078125 1.57031251,1.078125 0.9726562,0 1.640625,-0.64453125 1.640625,-1.34765624 0,-0.5390625 -0.4453125,-1.0898438 -1.21875,-1.2421875 0.7382812,-0.2695313 0.9960937,-0.796875 0.9960937,-1.21875 0,-0.5507813 -0.6328125,-0.9609375 -1.40625,-0.9609375 -0.7734375,0 -1.35937496,0.375 -1.35937496,0.9375 0,0.234375 0.15234375,0.3632812 0.36328125,0.3632812 0.21093751,0 0.35156251,-0.1640625 0.35156251,-0.3515625 0,-0.1992187 -0.140625,-0.3515625 -0.35156251,-0.3632812 0.23437501,-0.3046875 0.71484371,-0.3867188 0.97265621,-0.3867188 0.3164063,0 0.7617188,0.1523438 0.7617188,0.7617188 0,0.2929687 -0.1054688,0.609375 -0.28125,0.8320312 -0.234375,0.2578125 -0.421875,0.28125 -0.7734375,0.2929688 -0.1757813,0.023437 -0.1875,0.023437 -0.2226563,0.023437 -0.011719,0 -0.070312,0.011719 -0.070312,0.09375 0,0.09375 0.058594,0.09375 0.1757813,0.09375 z m 0,0"
       style="fill:#ec008c;fill-opacity:0.5;fill-rule:nonzero;stroke:none"
       aria-label="3"
       transform="matrix(1.3333333,0,0,1.3333333,282.596,268.02)"
       clip-path="url(#clipPath39)" />
  </g>
</svg>
