<?xml version="1.0" encoding="UTF-8" standalone="no"?>
<!-- Created with Inkscape (http://www.inkscape.org/) -->

<svg
   version="1.1"
   id="svg1"
   width="135.79764"
   height="174.80119"
   viewBox="0 0 135.79764 174.8012"
   sodipodi:docname="3.1-exp-y-derivada.svg"
   inkscape:version="1.4.2 (f4327f4, 2025-05-13)"
   xmlns:inkscape="http://www.inkscape.org/namespaces/inkscape"
   xmlns:sodipodi="http://sodipodi.sourceforge.net/DTD/sodipodi-0.dtd"
   xmlns="http://www.w3.org/2000/svg"
   xmlns:svg="http://www.w3.org/2000/svg">
  <defs
     id="defs1">
    <clipPath
       clipPathUnits="userSpaceOnUse"
       id="clipPath22">
      <rect
         style="opacity:0;fill:none;stroke-width:0.75"
         id="rect23"
         width="165.2314"
         height="152.41753"
         x="-71.463684"
         y="-114.23917" />
    </clipPath>
    <clipPath
       clipPathUnits="userSpaceOnUse"
       id="clipPath23">
      <rect
         style="opacity:0;fill:none;stroke-width:0.75"
         id="rect24"
         width="165.2314"
         height="152.41753"
         x="-87.034683"
         y="-57.53717" />
    </clipPath>
    <clipPath
       clipPathUnits="userSpaceOnUse"
       id="clipPath24">
      <rect
         style="opacity:0;fill:none;stroke-width:0.75"
         id="rect25"
         width="165.2314"
         height="152.41753"
         x="-49.300678"
         y="-125.91317"
         transform="scale(1,-1)" />
    </clipPath>
    <clipPath
       clipPathUnits="userSpaceOnUse"
       id="clipPath25">
      <rect
         style="opacity:0;fill:none;stroke-width:0.75"
         id="rect26"
         width="165.2314"
         height="152.41753"
         x="-49.300678"
         y="-125.91317"
         transform="scale(1,-1)" />
    </clipPath>
    <clipPath
       clipPathUnits="userSpaceOnUse"
       id="clipPath26">
      <rect
         style="opacity:0;fill:none;stroke-width:0.75"
         id="rect27"
         width="165.2314"
         height="152.41753"
         x="-39.725677"
         y="-13.815168" />
    </clipPath>
    <clipPath
       clipPathUnits="userSpaceOnUse"
       id="clipPath27">
      <rect
         style="opacity:0;fill:none;stroke-width:0.75"
         id="rect28"
         width="165.2314"
         height="152.41753"
         x="-49.300678"
         y="-12.984208"
         transform="matrix(0,-1,-1,0,0,0)" />
    </clipPath>
    <clipPath
       clipPathUnits="userSpaceOnUse"
       id="clipPath28">
      <rect
         style="opacity:0;fill:none;stroke-width:0.75"
         id="rect29"
         width="165.2314"
         height="152.41753"
         x="-49.300678"
         y="-125.91317"
         transform="scale(1,-1)" />
    </clipPath>
    <clipPath
       clipPathUnits="userSpaceOnUse"
       id="clipPath29">
      <rect
         style="opacity:0;fill:none;stroke-width:0.75"
         id="rect30"
         width="165.2314"
         height="152.41753"
         x="-131.22267"
         y="-134.44518" />
    </clipPath>
    <clipPath
       clipPathUnits="userSpaceOnUse"
       id="clipPath30">
      <rect
         style="opacity:0;fill:none;stroke-width:0.75"
         id="rect31"
         width="165.2314"
         height="152.41753"
         x="-133.88283"
         y="-125.91317"
         transform="scale(1,-1)" />
    </clipPath>
    <clipPath
       clipPathUnits="userSpaceOnUse"
       id="clipPath31">
      <rect
         style="opacity:0;fill:none;stroke-width:0.75"
         id="rect32"
         width="165.2314"
         height="152.41753"
         x="-49.300678"
         y="-125.91317"
         transform="scale(1,-1)" />
    </clipPath>
    <clipPath
       clipPathUnits="userSpaceOnUse"
       id="clipPath32">
      <rect
         style="opacity:0;fill:none;stroke-width:0.75"
         id="rect33"
         width="165.2314"
         height="152.41753"
         x="93.406326"
         y="-221.88217"
         transform="scale(1,-1)" />
    </clipPath>
  </defs>
  <sodipodi:namedview
     id="namedview1"
     pagecolor="#ffffff"
     bordercolor="#000000"
     borderopacity="0.25"
     inkscape:showpageshadow="2"
     inkscape:pageopacity="0.0"
     inkscape:pagecheckerboard="0"
     inkscape:deskcolor="#d1d1d1"
     inkscape:zoom="2.2241536"
     inkscape:cx="70.813454"
     inkscape:cy="102.2861"
     inkscape:window-width="1920"
     inkscape:window-height="1009"
     inkscape:window-x="-8"
     inkscape:window-y="-8"
     inkscape:window-maximized="1"
     inkscape:current-layer="g1">
    <inkscape:page
       x="0"
       y="0"
       inkscape:label="33"
       id="page1"
       width="135.79764"
       height="174.80119"
       margin="0"
       bleed="0" />
  </sodipodi:namedview>
  <g
     id="g1"
     inkscape:groupmode="layer"
     inkscape:label="33"
     transform="translate(-171.37814,-78.972655)">
    <path
       id="path2"
       d="M -14.17339,0 H 84.58214"
       style="fill:none;stroke:#000000;stroke-width:0.3985;stroke-linecap:butt;stroke-linejoin:miter;stroke-miterlimit:10;stroke-dasharray:none;stroke-opacity:1"
       transform="matrix(1.3333333,0,0,-1.3333333,190.276,234.876)"
       clip-path="url(#clipPath31)" />
    <path
       id="path3"
       d="M -1.19551,1.59401 C -1.09587,0.99626 0,0.09961 0.29886,0 0,-0.09961 -1.09587,-0.99626 -1.19551,-1.59401"
       style="fill:none;stroke:#000000;stroke-width:0.31879;stroke-linecap:round;stroke-linejoin:round;stroke-miterlimit:10;stroke-dasharray:none;stroke-opacity:1"
       transform="matrix(1.3333333,0,0,-1.3333333,303.05219,234.876)"
       clip-path="url(#clipPath30)" />
    <path
       id="path4"
       d="m 3.6434609,-3.2915391 c 0.070312,-0.28125 0.3164063,-1.2890625 1.078125,-1.2890625 0.058594,0 0.3164063,0 0.5507813,0.140625 -0.3046875,0.058594 -0.5273438,0.328125 -0.5273438,0.5859375 0,0.1757813 0.1171875,0.3867188 0.4101563,0.3867188 0.2460937,0 0.5976562,-0.1992188 0.5976562,-0.6328125 0,-0.5625 -0.6445312,-0.7265625 -1.0195312,-0.7265625 -0.6328125,0 -1.0195313,0.5859375 -1.1484375,0.8320312 -0.2695313,-0.7148437 -0.8554688,-0.8320312 -1.171875,-0.8320312 -1.1367188,0 -1.75781251,1.4179687 -1.75781251,1.6875 0,0.1054687 0.10546875,0.1054687 0.12890625,0.1054687 0.0820313,0 0.1171875,-0.023437 0.140625,-0.1171875 0.37499996,-1.1601562 1.08984376,-1.4296875 1.46484376,-1.4296875 0.2109375,0 0.5859375,0.09375 0.5859375,0.7265625 0,0.3398438 -0.1875,1.078125 -0.5859375,2.6015625 -0.1757813,0.67968754 -0.5625,1.13671879 -1.0429688,1.13671879 -0.058594,0 -0.3164062,0 -0.53906246,-0.140625 0.26953126,-0.0585938 0.51562496,-0.29296875 0.51562496,-0.59765625 0,-0.29296874 -0.2460937,-0.37500004 -0.41015621,-0.37500004 -0.328125,0 -0.59765625,0.28125004 -0.59765625,0.63281254 0,0.50390625 0.55078125,0.71484375 1.03124996,0.71484375 0.7148438,0 1.1015625,-0.76171875 1.1367188,-0.83203125 0.1289062,0.41015625 0.5273437,0.83203125 1.1835937,0.83203125 1.125,0 1.7460938,-1.40624999 1.7460938,-1.67578129 0,-0.1054687 -0.1054688,-0.1054687 -0.1289063,-0.1054687 -0.1054687,0 -0.1289062,0.035156 -0.140625,0.1171875 -0.3632812,1.16015624 -1.1132812,1.42968749 -1.453125,1.42968749 -0.4335937,0 -0.609375,-0.3515625 -0.609375,-0.7265625 0,-0.23437499 0.070312,-0.48046879 0.1875,-0.96093749 z m 0,0"
       style="fill:#000000;fill-opacity:1;fill-rule:nonzero;stroke:none"
       aria-label="x"
       transform="matrix(1.3333333,0,0,1.3333333,299.50533,246.252)"
       clip-path="url(#clipPath29)" />
    <path
       id="path5"
       d="M 0,-14.17339 V 112.92896"
       style="fill:none;stroke:#000000;stroke-width:0.3985;stroke-linecap:butt;stroke-linejoin:miter;stroke-miterlimit:10;stroke-dasharray:none;stroke-opacity:1"
       transform="matrix(1.3333333,0,0,-1.3333333,190.276,234.876)"
       clip-path="url(#clipPath28)" />
    <path
       id="path6"
       d="M -1.19551,1.59401 C -1.09587,0.99626 0,0.09961 0.29886,0 0,-0.09961 -1.09587,-0.99626 -1.19551,-1.59401"
       style="fill:none;stroke:#000000;stroke-width:0.31879;stroke-linecap:round;stroke-linejoin:round;stroke-miterlimit:10;stroke-dasharray:none;stroke-opacity:1"
       transform="matrix(0,-1.3333333,-1.3333333,0,190.276,84.304053)"
       clip-path="url(#clipPath27)" />
    <path
       id="path7"
       d="m 5.2957344,-4.1615391 c 0.046875,-0.1523437 0.046875,-0.1757812 0.046875,-0.2460937 0,-0.1992188 -0.1523438,-0.2929688 -0.3164063,-0.2929688 -0.1054687,0 -0.28125,0.058594 -0.375,0.2226563 -0.023437,0.058594 -0.1171875,0.3984375 -0.1523437,0.5976562 -0.082031,0.28125 -0.1523438,0.5742188 -0.2226563,0.8671875 l -0.4921875,1.96875 c -0.046875,0.16406254 -0.515625,0.92578129 -1.2304687,0.92578129 -0.5625,0 -0.6796875,-0.48046875 -0.6796875,-0.89062499 0,-0.4921875 0.1875,-1.171875 0.5625,-2.1328125 0.1757812,-0.4453125 0.2109375,-0.5742188 0.2109375,-0.7851563 0,-0.4921875 -0.3515625,-0.9023437 -0.890625,-0.9023437 -1.04296877,0 -1.44140627,1.5820312 -1.44140627,1.6875 0,0.1054687 0.10546875,0.1054687 0.12890625,0.1054687 0.10546875,0 0.1171875,-0.023437 0.17578125,-0.1992187 0.29296875,-1.0195313 0.72656247,-1.3476563 1.10156247,-1.3476563 0.09375,0 0.2695313,0 0.2695313,0.3515625 0,0.2695313 -0.1054688,0.5507813 -0.1757813,0.7617188 -0.4453125,1.1601562 -0.6328125,1.78125 -0.6328125,2.2851562 0,0.97265629 0.6796875,1.30078129 1.3242188,1.30078129 0.421875,0 0.796875,-0.1875 1.1015625,-0.4921875 -0.140625,0.57421875 -0.2695313,1.1015625 -0.703125,1.68750001 -0.2929688,0.3632812 -0.703125,0.6796875 -1.2070313,0.6796875 -0.1523437,0 -0.6445312,-0.023437 -0.83203122,-0.4570313 0.17578122,0 0.31640622,0 0.48046872,-0.1289062 0.1054688,-0.09375 0.2109375,-0.234375 0.2109375,-0.44531251 0,-0.33984375 -0.2929687,-0.38671875 -0.3984375,-0.38671875 -0.25781247,0 -0.60937497,0.17578125 -0.60937497,0.71484376 0,0.5390625 0.48046877,0.9492187 1.14843747,0.9492187 1.125,0 2.25,-0.9960937 2.5546875,-2.22656246 z m 0,0"
       style="fill:#000000;fill-opacity:1;fill-rule:nonzero;stroke:none"
       aria-label="y"
       transform="matrix(1.3333333,0,0,1.3333333,177.50933,85.412)"
       clip-path="url(#clipPath26)" />
    <path
       id="path8"
       d="m 0,14.17339 c 0,0 0.22751,0.0015 0.31487,0.0035 0.08738,0.0019 0.22752,0.0064 0.31489,0.01038 0.08737,0.004 0.22752,0.01214 0.31488,0.01817 0.08739,0.006 0.22751,0.0172 0.3149,0.0253 0.08737,0.0081 0.22751,0.02284 0.31488,0.0331 0.08738,0.01026 0.22752,0.02838 0.31489,0.04086 0.08737,0.01248 0.22751,0.03438 0.3149,0.0491 0.08735,0.01472 0.22751,0.04008 0.31488,0.0571 0.08737,0.01701 0.22751,0.0462 0.31488,0.06552 0.08737,0.01932 0.22753,0.05202 0.31488,0.07375 0.08739,0.02172 0.22754,0.05867 0.3149,0.08284 0.08738,0.02418 0.2275,0.0648 0.31489,0.09147 0.08737,0.02667 0.22751,0.0715 0.31488,0.10079 0.08739,0.02927 0.22751,0.0784 0.3149,0.1103 0.08735,0.03189 0.22751,0.08505 0.31488,0.11958 0.08737,0.03454 0.22752,0.09202 0.3149,0.12934 0.08736,0.03734 0.2275,0.09959 0.31487,0.13971 0.08737,0.04013 0.22753,0.10649 0.31488,0.14944 0.08739,0.04293 0.22753,0.11415 0.3149,0.16004 0.08737,0.04586 0.22752,0.12179 0.31488,0.17064 0.08739,0.04884 0.22752,0.12947 0.3149,0.18144 0.08738,0.05197 0.2275,0.13808 0.31489,0.19313 0.08736,0.05507 0.22751,0.14545 0.31488,0.20372 0.08737,0.05827 0.22751,0.15468 0.3149,0.21628 0.08735,0.0616 0.2275,0.16288 0.31488,0.22772 0.08737,0.06486 0.22752,0.17134 0.31488,0.23964 0.08738,0.06828 0.22752,0.18077 0.31489,0.25259 0.08737,0.07183 0.22753,0.18968 0.31488,0.26515 0.08739,0.07546 0.22751,0.19971 0.3149,0.27878 0.08737,0.07906 0.22751,0.20831 0.31488,0.29108 0.08739,0.08279 0.22752,0.21898 0.31489,0.3056 0.08738,0.08663 0.22751,0.22832 0.3149,0.31877 0.08736,0.09047 0.22751,0.23879 0.31488,0.33329 0.08737,0.09448 0.22751,0.24919 0.31488,0.34776 0.08737,0.09857 0.22753,0.25981 0.31488,0.36267 0.08739,0.10286 0.22754,0.27162 0.3149,0.37869 0.08738,0.10706 0.22751,0.28154 0.31489,0.39296 0.08737,0.11142 0.22751,0.2941 0.31488,0.41004 0.08739,0.11595 0.22751,0.30519 0.3149,0.42562 0.08736,0.12046 0.22751,0.31739 0.31488,0.44249 0.08737,0.1251 0.22751,0.3293 0.3149,0.45914 0.08735,0.12984 0.22751,0.34194 0.31488,0.47666 0.08737,0.13473 0.22752,0.35462 0.31488,0.4944 0.08738,0.13975 0.22752,0.3681 0.31489,0.51298 0.08737,0.14485 0.22753,0.38104 0.31488,0.53116 0.08739,0.15011 0.22751,0.39537 0.3149,0.55083 0.08737,0.15547 0.22751,0.40876 0.31489,0.56965 0.08736,0.16089 0.22751,0.42354 0.31489,0.58998 0.08737,0.16645 0.2275,0.43755 0.31489,0.60967 0.08736,0.1721 0.22751,0.45289 0.31488,0.63086 0.08737,0.17797 0.22751,0.46783 0.31488,0.65182 0.08737,0.18399 0.22752,0.48421 0.3149,0.67433 0.08737,0.19013 0.22752,0.49974 0.31488,0.69596 0.08738,0.19621 0.2275,0.51561 0.31489,0.71823 0.08738,0.20263 0.22751,0.53296 0.31488,0.74223 0.08739,0.20926 0.22751,0.55016 0.3149,0.76604 0.08735,0.21586 0.2275,0.56716 0.3149,0.78979 0.08735,0.22266 0.2275,0.58527 0.31487,0.81491 0.08738,0.22963 0.22751,0.60355 0.31488,0.84021 0.08738,0.23667 0.22753,0.62155 0.31488,0.86551 0.08739,0.24394 0.22753,0.64121 0.3149,0.89275 0.08737,0.25156 0.22751,0.66121 0.3149,0.92024 0.08737,0.259 0.2275,0.67972 0.31487,0.9466 0.0874,0.26689 0.22751,0.70199 0.3149,0.97689 0.08736,0.27488 0.22751,0.72152 0.31488,1.00436 0.08737,0.28283 0.22751,0.74297 0.3149,1.03419 0.08735,0.29121 0.22751,0.76486 0.31488,1.0647 0.08737,0.29981 0.22752,0.78778 0.31488,1.09626 0.08739,0.30851 0.22752,0.80985 0.31489,1.12719 0.08737,0.31735 0.22753,0.83363 0.31488,1.16008 0.08739,0.32643 0.22751,0.85691 0.3149,1.19271 0.08737,0.33582 0.22751,0.88221 0.31489,1.22754 0.08736,0.34535 0.22751,0.9066 0.31489,1.26149 0.08737,0.35489 0.22751,0.93151 0.31489,1.29633 0.08736,0.36482 0.22751,0.95795 0.31488,1.33308 0.08737,0.37514 0.22751,0.98513 0.31488,1.37071 0.08737,0.38558 0.22753,1.01227 0.31488,1.40836 0.08739,0.39609 0.22754,1.03947 0.3149,1.44638 0.08738,0.40694 0.22751,1.06838 0.31489,1.48642 0.08738,0.41806 0.22751,1.09717 0.31489,1.52666 0.08738,0.42947 0.2275,1.12782 0.31489,1.5688 0.08736,0.44098 0.22751,1.15666 0.31488,1.60948 0.08737,0.45284 0.22753,1.18936 0.3149,1.65425 0.08737,0.46489 0.2275,1.21891 0.31488,1.69641 0.08737,0.4775 0.22752,1.25489 0.31488,1.74508 0.08738,0.49018 0.22752,1.28477 0.31489,1.78788 0.08738,0.50313 0.22751,1.32164 0.31488,1.83829 0.08739,0.51666 0.22753,1.35567 0.3149,1.88544 0.08739,0.52977 0.2275,1.38923 0.3149,1.9328 0.08735,0.54357 0.2275,1.42662 0.31487,1.98492 0.08738,0.55831 0.22751,1.46645 0.3149,2.03897 0.08736,0.57253 0.22751,1.50026 0.31487,2.08744 0.08738,0.58715 0.22753,1.54182 0.31489,2.14453 0.08739,0.60271 0.22752,1.58137 0.3149,2.19944 0.08737,0.61809 0.22752,1.62148 0.31487,2.25525 0.0874,0.63378 0.22752,1.66278 0.3149,2.31258 0.08737,0.64978 0.22751,1.70448 0.31488,2.37073 0.08737,0.66624 0.22752,1.74759 0.3149,2.43109 0.08737,0.68349 0.31489,2.49509 0.31489,2.49509"
       style="fill:none;stroke:#eb0a36;stroke-width:0.79701;stroke-linecap:butt;stroke-linejoin:miter;stroke-miterlimit:10;stroke-dasharray:none;stroke-opacity:1"
       transform="matrix(1.3333333,0,0,-1.3333333,190.276,234.876)"
       clip-path="url(#clipPath25)" />
    <path
       id="path9"
       d="m 0,0 c 0,0 0.22751,0.22903 0.31487,0.31834 0.08738,0.0893 0.22752,0.23392 0.31489,0.32526 0.08737,0.09134 0.22752,0.23964 0.31488,0.33305 0.08739,0.0934 0.22751,0.24471 0.3149,0.3402 0.08737,0.09547 0.22751,0.25035 0.31488,0.34798 0.08738,0.09764 0.22752,0.25589 0.31489,0.35575 0.08737,0.09986 0.22751,0.26186 0.3149,0.36397 0.08735,0.10211 0.22751,0.26761 0.31488,0.372 0.08737,0.1044 0.22751,0.27371 0.31488,0.38041 0.08737,0.10671 0.22753,0.27954 0.31488,0.38864 0.08739,0.1091 0.22754,0.28617 0.3149,0.39772 0.08738,0.11156 0.2275,0.29232 0.31489,0.40636 0.08737,0.11406 0.22751,0.29902 0.31488,0.41568 0.08739,0.11667 0.22751,0.30591 0.3149,0.42519 0.08735,0.11928 0.22751,0.31257 0.31488,0.43448 0.08737,0.12191 0.22752,0.31952 0.3149,0.44421 0.08736,0.12469 0.2275,0.3271 0.31487,0.45461 0.08737,0.12748 0.22753,0.33401 0.31488,0.46432 0.08739,0.13033 0.22753,0.34166 0.3149,0.47493 0.08737,0.13325 0.22752,0.3493 0.31488,0.48553 0.08739,0.13622 0.22752,0.35698 0.3149,0.49633 0.08738,0.13936 0.2275,0.36558 0.31489,0.50802 0.08736,0.14244 0.22751,0.37296 0.31488,0.51862 0.08737,0.14564 0.22751,0.38217 0.3149,0.53116 0.08735,0.14897 0.2275,0.39039 0.31488,0.54262 0.08737,0.1522 0.22752,0.39883 0.31488,0.5545 0.08738,0.15567 0.22752,0.40828 0.31489,0.56749 0.08737,0.15921 0.22753,0.41719 0.31488,0.58003 0.08739,0.16284 0.22751,0.4272 0.3149,0.59364 0.08737,0.16646 0.22751,0.43584 0.31488,0.60601 0.08739,0.17015 0.22752,0.44647 0.31489,0.62047 0.08738,0.17401 0.22751,0.45582 0.3149,0.63368 0.08736,0.17784 0.22751,0.46628 0.31488,0.64815 0.08737,0.18187 0.22751,0.4767 0.31488,0.66265 0.08737,0.18595 0.22753,0.48734 0.31488,0.67757 0.08739,0.19023 0.22754,0.49913 0.3149,0.69357 0.08738,0.19443 0.22751,0.50906 0.31489,0.70786 0.08737,0.19878 0.22751,0.52159 0.31488,0.72491 0.08739,0.20333 0.22751,0.5327 0.3149,0.74053 0.08736,0.20782 0.22751,0.54487 0.31488,0.75736 0.08737,0.21247 0.22751,0.55682 0.3149,0.77404 0.08735,0.21721 0.22751,0.56943 0.31488,0.79154 0.08737,0.2221 0.22752,0.58212 0.31488,0.80928 0.08738,0.22714 0.22752,0.59562 0.31489,0.82788 0.08737,0.23224 0.22753,0.60853 0.31488,0.84604 0.08739,0.2375 0.22751,0.62287 0.3149,0.86572 0.08737,0.24284 0.22751,0.63627 0.31489,0.88453 0.08736,0.24828 0.22751,0.65105 0.31489,0.90487 0.08737,0.25383 0.2275,0.66507 0.31489,0.92456 0.08736,0.25949 0.22751,0.68039 0.31488,0.94574 0.08737,0.26535 0.22751,0.69534 0.31488,0.96673 0.08737,0.27137 0.22752,0.7117 0.3149,0.9892 0.08737,0.2775 0.22752,0.72725 0.31488,1.01085 0.08738,0.28358 0.2275,0.7431 0.31489,1.03312 0.08738,0.29001 0.22751,0.76049 0.31488,1.05712 0.08739,0.29664 0.22751,0.77766 0.3149,1.08092 0.08735,0.30325 0.2275,0.79467 0.3149,1.1047 0.08735,0.31003 0.2275,0.81278 0.31487,1.12979 0.08738,0.31702 0.22751,0.83104 0.31488,1.15509 0.08738,0.32404 0.22753,0.84906 0.31488,1.18039 0.08739,0.33135 0.22753,0.86872 0.3149,1.20764 0.08737,0.33893 0.22751,0.88872 0.3149,1.23513 0.08737,0.34639 0.2275,0.90722 0.31487,1.26149 0.0874,0.35426 0.22751,0.9295 0.3149,1.29178 0.08736,0.36227 0.22751,0.94902 0.31488,1.31922 0.08737,0.37024 0.22751,0.97051 0.3149,1.34911 0.08735,0.37859 0.22751,0.99237 0.31488,1.37958 0.08737,0.38719 0.22752,1.01527 0.31488,1.41114 0.08739,0.39588 0.22752,1.03736 0.31489,1.44208 0.08737,0.40474 0.22753,1.06113 0.31488,1.47496 0.08739,0.41382 0.22751,1.08443 0.3149,1.50762 0.08737,0.42319 0.22751,1.10969 0.31489,1.54242 0.08736,0.43272 0.22751,1.13412 0.31489,1.5764 0.08737,0.44227 0.22751,1.15899 0.31489,1.61119 0.08736,0.45219 0.22751,1.18545 0.31488,1.64798 0.08737,0.46251 0.22751,1.21263 0.31488,1.68559 0.08737,0.47296 0.22753,1.23976 0.31488,1.72324 0.08739,0.48346 0.22754,1.26698 0.3149,1.76129 0.08738,0.49429 0.22751,1.29587 0.31489,1.8013 0.08738,0.50543 0.22751,1.32468 0.31489,1.84153 0.08738,0.51688 0.2275,1.35534 0.31489,1.8837 0.08736,0.52835 0.22751,1.38416 0.31488,1.92438 0.08737,0.54019 0.22753,1.41686 0.3149,1.96912 0.08737,0.55227 0.2275,1.44642 0.31488,2.0113 0.08737,0.56487 0.22752,1.4824 0.31488,2.05996 0.08738,0.57757 0.22752,1.51228 0.31489,2.10278 0.08738,0.59051 0.22751,1.54915 0.31488,2.15318 0.08739,0.60404 0.22753,1.58316 0.3149,2.20032 0.08739,0.61714 0.2275,1.61673 0.3149,2.2477 0.08735,0.63093 0.2275,1.65409 0.31487,2.29979 0.08738,0.64569 0.22751,1.69395 0.3149,2.35387 0.08736,0.6599 0.22751,1.72777 0.31487,2.4023 0.08738,0.67457 0.22753,1.76934 0.31489,2.45943 0.08739,0.6901 0.22752,1.80889 0.3149,2.51433 0.08737,0.70547 0.22752,1.849 0.31487,2.57016 0.0874,0.72115 0.22752,1.89028 0.3149,2.62744 0.08737,0.73718 0.22751,1.93201 0.31488,2.68564 0.08737,0.75362 0.22752,1.97508 0.3149,2.74596 0.08737,0.77087 0.31489,2.80998 0.31489,2.80998"
       style="fill:none;stroke:#008080;stroke-width:0.79701;stroke-linecap:butt;stroke-linejoin:miter;stroke-miterlimit:10;stroke-dasharray:none;stroke-opacity:1"
       transform="matrix(1.3333333,0,0,-1.3333333,190.276,234.876)"
       clip-path="url(#clipPath24)" />
    <g
       id="g9"
       aria-label="y=f(x)"
       transform="matrix(1.3333333,0,0,1.3333333,240.588,143.708)"
       clip-path="url(#clipPath23)">
      <path
         id="path10"
         d="m 4.8412266,-3.7976016 c 0.046875,-0.140625 0.046875,-0.1523437 0.046875,-0.2226562 0,-0.1875 -0.140625,-0.2695313 -0.2929688,-0.2695313 -0.1054687,0 -0.2578125,0.058594 -0.3515625,0.1992188 -0.023437,0.058594 -0.09375,0.3632812 -0.140625,0.5390625 -0.070312,0.2578125 -0.140625,0.5273437 -0.1992187,0.796875 l -0.4453125,1.79296874 c -0.035156,0.15234375 -0.46875,0.85546875 -1.125,0.85546875 -0.5039063,0 -0.6210938,-0.4453125 -0.6210938,-0.80859375 0,-0.45703124 0.1757813,-1.07812504 0.515625,-1.95703124 0.1523438,-0.4101563 0.1992188,-0.515625 0.1992188,-0.7148438 0,-0.4453125 -0.328125,-0.8203125 -0.8203125,-0.8203125 -0.94921879,0 -1.31250004,1.453125 -1.31250004,1.5351563 0,0.1054687 0.09375,0.1054687 0.1171875,0.1054687 0.09375,0 0.10546875,-0.023437 0.15234375,-0.1875 0.26953125,-0.9375 0.66796879,-1.2304687 1.00781249,-1.2304687 0.082031,0 0.2578125,0 0.2578125,0.3164062 0,0.2460938 -0.1054687,0.515625 -0.1757812,0.703125 -0.3984375,1.0546875 -0.5742188,1.6171875 -0.5742188,2.0859375 0,0.89062504 0.6210938,1.18359379 1.21875,1.18359379 0.3867188,0 0.7265625,-0.1640625 0.9960938,-0.4453125 -0.1289063,0.515625 -0.2460938,1.0078125 -0.6445313,1.53515621 -0.2578125,0.3398438 -0.6328125,0.6328125 -1.0898437,0.6328125 -0.140625,0 -0.59765629,-0.035156 -0.76171879,-0.421875 0.1640625,0 0.29296879,0 0.43359379,-0.1171875 0.09375,-0.09375 0.1992187,-0.2226562 0.1992187,-0.41015621 0,-0.31640625 -0.2695312,-0.3515625 -0.375,-0.3515625 -0.22265624,0 -0.55078124,0.1640625 -0.55078124,0.64453121 0,0.5039063 0.43359375,0.8671875 1.05468754,0.8671875 1.0195312,0 2.0507812,-0.9023437 2.3320312,-2.02734371 z m 0,0"
         style="fill:#eb0a36;fill-opacity:1;fill-rule:nonzero;stroke:none" />
      <path
         id="path11"
         d="m 14.857828,-3.2585391 c 0.152344,0 0.339844,0 0.339844,-0.1992187 0,-0.1992188 -0.1875,-0.1992188 -0.328125,-0.1992188 H 8.9047031 c -0.140625,0 -0.328125,0 -0.328125,0.1992188 0,0.1992187 0.1875,0.1992187 0.3398438,0.1992187 z m 0.01172,1.9335938 c 0.140625,0 0.328125,0 0.328125,-0.1992188 0,-0.1992187 -0.1875,-0.1992187 -0.339844,-0.1992187 H 8.9164219 c -0.1523438,0 -0.3398438,0 -0.3398438,0.1992187 0,0.1992188 0.1875,0.1992188 0.328125,0.1992188 z m 0,0"
         style="fill:#eb0a36;fill-opacity:1;fill-rule:nonzero;stroke:none" />
      <path
         id="path12"
         d="m 22.179117,-3.9851016 h 0.855469 c 0.199219,0 0.304687,0 0.304687,-0.1992187 0,-0.1054688 -0.105468,-0.1054688 -0.269531,-0.1054688 h -0.832031 l 0.210937,-1.1367187 c 0.03516,-0.2109375 0.175782,-0.9140625 0.234375,-1.0429688 0.09375,-0.1875 0.257813,-0.3398437 0.46875,-0.3398437 0.04687,0 0.304688,0 0.492188,0.1875 -0.433594,0.035156 -0.539063,0.3867187 -0.539063,0.5390625 0,0.2226562 0.175782,0.3398437 0.363282,0.3398437 0.269531,0 0.550781,-0.2109375 0.550781,-0.5976562 0,-0.4570313 -0.457031,-0.6796875 -0.867188,-0.6796875 -0.339843,0 -0.960937,0.1757812 -1.265625,1.1601562 -0.05859,0.2109375 -0.08203,0.3164063 -0.328125,1.5703125 h -0.679687 c -0.199219,0 -0.304688,0 -0.304688,0.1875 0,0.1171875 0.09375,0.1171875 0.28125,0.1171875 h 0.65625 l -0.75,3.93750004 c -0.175781,0.9609375 -0.339843,1.87499996 -0.867187,1.87499996 -0.03516,0 -0.28125,0 -0.46875,-0.1875 0.457031,-0.023437 0.539062,-0.3867187 0.539062,-0.5390625 0,-0.22265621 -0.175781,-0.33984371 -0.363281,-0.33984371 -0.257812,0 -0.550781,0.2109375 -0.550781,0.59765621 0,0.4453125 0.433594,0.6796875 0.84375,0.6796875 0.550781,0 0.949219,-0.5859375 1.125,-0.9609375 0.328125,-0.63281246 0.550781,-1.83984371 0.5625,-1.91015621 z m 0,0"
         style="fill:#eb0a36;fill-opacity:1;fill-rule:nonzero;stroke:none" />
      <path
         id="path13"
         d="m 27.768961,2.3898984 c 0,-0.035156 0,-0.046875 -0.164063,-0.2226562 -1.242187,-1.25390626 -1.570312,-3.12890626 -1.570312,-4.6640625 0,-1.7226563 0.386719,-3.4570313 1.605469,-4.7109375 0.128906,-0.1171875 0.128906,-0.1289063 0.128906,-0.1640625 0,-0.070312 -0.03516,-0.1054688 -0.09375,-0.1054688 -0.105469,0 -0.996094,0.6796875 -1.582031,1.9453125 -0.515625,1.1015625 -0.632813,2.203125 -0.632813,3.0351563 0,0.7851562 0.117188,1.99218749 0.65625,3.11718749 0.597656,1.21875001 1.453125,1.87500001 1.558594,1.87500001 0.05859,0 0.09375,-0.035156 0.09375,-0.1054688 z m 0,0"
         style="fill:#eb0a36;fill-opacity:1;fill-rule:nonzero;stroke:none" />
      <path
         id="path14"
         d="m 31.677164,-3.0124453 c 0.05859,-0.2578125 0.292969,-1.171875 0.984375,-1.171875 0.04687,0 0.292969,0 0.503906,0.1289062 -0.28125,0.046875 -0.480468,0.3046875 -0.480468,0.5390625 0,0.1640625 0.105468,0.3515625 0.375,0.3515625 0.222656,0 0.539062,-0.1875 0.539062,-0.5859375 0,-0.515625 -0.585937,-0.65625 -0.925781,-0.65625 -0.574219,0 -0.925781,0.5273438 -1.042969,0.7617188 -0.257812,-0.65625 -0.785156,-0.7617188 -1.078125,-0.7617188 -1.042969,0 -1.605469,1.2890625 -1.605469,1.5351563 0,0.1054687 0.105469,0.1054687 0.117188,0.1054687 0.08203,0 0.117187,-0.023437 0.128906,-0.1171875 0.339844,-1.0546875 0.996094,-1.3007812 1.335938,-1.3007812 0.1875,0 0.539062,0.09375 0.539062,0.6679687 0,0.3046875 -0.164062,0.9726563 -0.539062,2.3671875 -0.152344,0.62109379 -0.503907,1.04296879 -0.949219,1.04296879 -0.05859,0 -0.28125,0 -0.492188,-0.12890625 0.246094,-0.0585938 0.46875,-0.26953125 0.46875,-0.5390625 0,-0.26953124 -0.222656,-0.35156254 -0.375,-0.35156254 -0.292968,0 -0.539062,0.25781254 -0.539062,0.57421879 0,0.45703125 0.492187,0.65625 0.9375,0.65625 0.65625,0 1.007812,-0.69140625 1.042969,-0.75 0.117187,0.36328125 0.480468,0.75 1.078125,0.75 1.019531,0 1.59375,-1.27734379 1.59375,-1.53515629 0,-0.09375 -0.09375,-0.09375 -0.128907,-0.09375 -0.08203,0 -0.105468,0.035156 -0.128906,0.1054688 -0.328125,1.06640624 -0.996094,1.31249999 -1.324219,1.31249999 -0.386718,0 -0.539062,-0.328125 -0.539062,-0.65625 0,-0.22265625 0.05859,-0.44531249 0.164062,-0.87890629 z m 0,0"
         style="fill:#eb0a36;fill-opacity:1;fill-rule:nonzero;stroke:none" />
      <path
         id="path15"
         d="m 36.927164,-2.4968203 c 0,-0.7734375 -0.117187,-1.9804688 -0.65625,-3.1054688 -0.597656,-1.21875 -1.464844,-1.875 -1.558594,-1.875 -0.05859,0 -0.105468,0.046875 -0.105468,0.1054688 0,0.035156 0,0.046875 0.199218,0.234375 0.972657,0.984375 1.535157,2.5664062 1.535157,4.640625 0,1.71093749 -0.363282,3.45703124 -1.59375,4.7226562 -0.140625,0.1171875 -0.140625,0.1289063 -0.140625,0.1640625 0,0.058594 0.04687,0.1054688 0.105468,0.1054688 0.09375,0 0.996094,-0.6796875 1.582032,-1.94531251 0.503906,-1.1015625 0.632812,-2.20312499 0.632812,-3.04687499 z m 0,0"
         style="fill:#eb0a36;fill-opacity:1;fill-rule:nonzero;stroke:none" />
    </g>
    <g
       id="g15"
       aria-label="y=f&#10;′&#10;(x)"
       transform="matrix(1.3333333,0,0,1.3333333,219.82667,219.31067)"
       clip-path="url(#clipPath22)">
      <path
         id="path16"
         d="m 4.8409375,-3.7955 c 0.046875,-0.140625 0.046875,-0.1523437 0.046875,-0.2226562 0,-0.1875 -0.140625,-0.2695313 -0.2929688,-0.2695313 -0.1054687,0 -0.2578125,0.058594 -0.3515625,0.1992188 -0.023437,0.058594 -0.09375,0.3632812 -0.140625,0.5390625 -0.070312,0.2578125 -0.140625,0.5273437 -0.1992187,0.796875 L 3.458125,-0.9595625 c -0.035156,0.15234375 -0.46875,0.85546875 -1.125,0.85546875 -0.5039063,0 -0.6210938,-0.4453125 -0.6210938,-0.80859375 0,-0.4570312 0.1757813,-1.078125 0.515625,-1.9570312 C 2.38,-3.279875 2.426875,-3.3853437 2.426875,-3.5845625 c 0,-0.4453125 -0.328125,-0.8203125 -0.8203125,-0.8203125 -0.94921875,0 -1.3125,1.453125 -1.3125,1.5351563 0,0.1054687 0.09375,0.1054687 0.1171875,0.1054687 0.09375,0 0.10546875,-0.023437 0.15234375,-0.1875 0.26953125,-0.9375 0.66796875,-1.2304687 1.00781245,-1.2304687 0.082031,0 0.2578125,0 0.2578125,0.3164062 0,0.2460938 -0.1054687,0.515625 -0.1757812,0.703125 C 1.255,-2.108 1.0792187,-1.5455 1.0792187,-1.07675 c 0,0.890625 0.6210938,1.18359375 1.21875,1.18359375 0.3867188,0 0.7265625,-0.1640625 0.9960938,-0.4453125 C 3.1651562,0.17715625 3.0479687,0.66934375 2.6495312,1.1966875 2.3917187,1.5365313 2.0167187,1.8295 1.5596875,1.8295 c -0.140625,0 -0.59765625,-0.035156 -0.76171875,-0.421875 0.1640625,0 0.29296875,0 0.43359375,-0.1171875 0.09375,-0.09375 0.1992187,-0.2226562 0.1992187,-0.41015625 0,-0.31640625 -0.2695312,-0.3515625 -0.375,-0.3515625 C 0.833125,0.52871875 0.505,0.69278125 0.505,1.17325 c 0,0.5039063 0.43359375,0.8671875 1.0546875,0.8671875 1.0195312,0 2.0507812,-0.9023437 2.3320312,-2.02734375 z m 0,0"
         style="fill:#008080;fill-opacity:1;fill-rule:nonzero;stroke:none" />
      <path
         id="path17"
         d="m 14.857539,-3.2564375 c 0.152344,0 0.339844,0 0.339844,-0.1992187 0,-0.1992188 -0.1875,-0.1992188 -0.328125,-0.1992188 H 8.9044141 c -0.140625,0 -0.328125,0 -0.328125,0.1992188 0,0.1992187 0.1875,0.1992187 0.3398437,0.1992187 z m 0.01172,1.9335938 c 0.140625,0 0.328125,0 0.328125,-0.1992188 0,-0.1992187 -0.1875,-0.1992187 -0.339844,-0.1992187 H 8.9161328 c -0.1523437,0 -0.3398437,0 -0.3398437,0.1992187 0,0.1992188 0.1875,0.1992188 0.328125,0.1992188 z m 0,0"
         style="fill:#008080;fill-opacity:1;fill-rule:nonzero;stroke:none" />
      <path
         id="path18"
         d="m 22.178828,-3.983 h 0.855469 c 0.199219,0 0.304687,0 0.304687,-0.1992187 0,-0.1054688 -0.105468,-0.1054688 -0.269531,-0.1054688 h -0.832031 l 0.210937,-1.1367187 c 0.03516,-0.2109375 0.175782,-0.9140625 0.234375,-1.0429688 0.09375,-0.1875 0.257813,-0.3398437 0.46875,-0.3398437 0.04687,0 0.304688,0 0.492188,0.1875 -0.433594,0.035156 -0.539063,0.3867187 -0.539063,0.5390625 0,0.2226562 0.175782,0.3398437 0.363282,0.3398437 0.269531,0 0.550781,-0.2109375 0.550781,-0.5976562 0,-0.4570313 -0.457031,-0.6796875 -0.867188,-0.6796875 -0.339843,0 -0.960937,0.1757812 -1.265625,1.1601562 -0.05859,0.2109375 -0.08203,0.3164063 -0.328125,1.5703125 h -0.679687 c -0.199219,0 -0.304688,0 -0.304688,0.1875 0,0.1171875 0.09375,0.1171875 0.28125,0.1171875 h 0.65625 l -0.75,3.9375 c -0.175781,0.9609375 -0.339843,1.875 -0.867187,1.875 -0.03516,0 -0.28125,0 -0.46875,-0.1875 0.457031,-0.023437 0.539062,-0.3867187 0.539062,-0.5390625 0,-0.22265625 -0.175781,-0.33984375 -0.363281,-0.33984375 -0.257812,0 -0.550781,0.2109375 -0.550781,0.59765625 0,0.4453125 0.433594,0.6796875 0.84375,0.6796875 0.550781,0 0.949219,-0.5859375 1.125,-0.9609375 0.328125,-0.6328125 0.550781,-1.83984375 0.5625,-1.91015625 z m 0,0"
         style="fill:#008080;fill-opacity:1;fill-rule:nonzero;stroke:none" />
      <path
         id="path19"
         d="m 26.503047,-6.9068281 c 0.04687,-0.1171875 0.05859,-0.1757813 0.05859,-0.2226563 0,-0.2109375 -0.199219,-0.3867187 -0.410157,-0.3867187 -0.269531,0 -0.351562,0.2226562 -0.386718,0.328125 l -0.914063,3.0234375 c -0.01172,0.011719 -0.03516,0.1054687 -0.03516,0.1171875 0,0.082031 0.210937,0.1523437 0.269531,0.1523437 0.04687,0 0.05859,-0.023437 0.105469,-0.1289062 z m 0,0"
         style="fill:#008080;fill-opacity:1;fill-rule:nonzero;stroke:none" />
      <path
         id="path20"
         d="m 30.563594,2.392 c 0,-0.035156 0,-0.046875 -0.164063,-0.2226562 -1.242187,-1.2539063 -1.570312,-3.1289063 -1.570312,-4.6640625 0,-1.7226563 0.386718,-3.4570313 1.605468,-4.7109375 0.128907,-0.1171875 0.128907,-0.1289063 0.128907,-0.1640625 0,-0.070312 -0.03516,-0.1054688 -0.09375,-0.1054688 -0.105469,0 -0.996094,0.6796875 -1.582032,1.9453125 -0.515625,1.1015625 -0.632812,2.203125 -0.632812,3.0351563 0,0.7851562 0.117187,1.99218745 0.65625,3.11718745 0.597656,1.21875005 1.453125,1.87500005 1.558594,1.87500005 0.05859,0 0.09375,-0.035156 0.09375,-0.1054688 z m 0,0"
         style="fill:#008080;fill-opacity:1;fill-rule:nonzero;stroke:none" />
      <path
         id="path21"
         d="m 34.474727,-3.0103437 c 0.05859,-0.2578125 0.292968,-1.171875 0.984375,-1.171875 0.04687,0 0.292968,0 0.503906,0.1289062 -0.28125,0.046875 -0.480469,0.3046875 -0.480469,0.5390625 0,0.1640625 0.105469,0.3515625 0.375,0.3515625 0.222656,0 0.539063,-0.1875 0.539063,-0.5859375 0,-0.515625 -0.585938,-0.65625 -0.925782,-0.65625 -0.574218,0 -0.925781,0.5273438 -1.042968,0.7617188 -0.257813,-0.65625 -0.785157,-0.7617188 -1.078125,-0.7617188 -1.042969,0 -1.605469,1.2890625 -1.605469,1.5351563 0,0.1054687 0.105469,0.1054687 0.117187,0.1054687 0.08203,0 0.117188,-0.023437 0.128907,-0.1171875 0.339843,-1.0546875 0.996093,-1.3007812 1.335937,-1.3007812 0.1875,0 0.539063,0.09375 0.539063,0.6679687 0,0.3046875 -0.164063,0.9726563 -0.539063,2.3671875 -0.152344,0.62109375 -0.503906,1.04296875 -0.949219,1.04296875 -0.05859,0 -0.28125,0 -0.492187,-0.12890625 0.246094,-0.0585937 0.46875,-0.26953125 0.46875,-0.5390625 0,-0.2695312 -0.222656,-0.3515625 -0.375,-0.3515625 -0.292969,0 -0.539063,0.2578125 -0.539063,0.57421875 0,0.45703125 0.492188,0.65625 0.9375,0.65625 0.65625,0 1.007813,-0.69140625 1.042969,-0.75 0.117188,0.36328125 0.480469,0.75 1.078125,0.75 1.019531,0 1.59375,-1.27734375 1.59375,-1.53515625 0,-0.09375 -0.09375,-0.09375 -0.128906,-0.09375 -0.08203,0 -0.105469,0.035156 -0.128906,0.1054688 -0.328125,1.0664062 -0.996094,1.31249995 -1.324219,1.31249995 -0.386719,0 -0.539063,-0.328125 -0.539063,-0.65625 0,-0.22265625 0.05859,-0.44531245 0.164063,-0.87890625 z m 0,0"
         style="fill:#008080;fill-opacity:1;fill-rule:nonzero;stroke:none" />
      <path
         id="path22"
         d="m 39.721797,-2.4947187 c 0,-0.7734375 -0.117188,-1.9804688 -0.65625,-3.1054688 -0.597656,-1.21875 -1.464844,-1.875 -1.558594,-1.875 -0.05859,0 -0.105469,0.046875 -0.105469,0.1054688 0,0.035156 0,0.046875 0.199219,0.234375 0.972656,0.984375 1.535156,2.5664062 1.535156,4.640625 0,1.71093745 -0.363281,3.4570312 -1.59375,4.7226562 C 37.401484,2.345125 37.401484,2.3568438 37.401484,2.392 c 0,0.058594 0.04687,0.1054688 0.105469,0.1054688 0.09375,0 0.996094,-0.6796875 1.582031,-1.94531255 0.503907,-1.1015625 0.632813,-2.20312495 0.632813,-3.04687495 z m 0,0"
         style="fill:#008080;fill-opacity:1;fill-rule:nonzero;stroke:none" />
    </g>
  </g>
</svg>
