<?xml version="1.0" encoding="UTF-8" standalone="no"?>
<!-- Created with Inkscape (http://www.inkscape.org/) -->

<svg
   version="1.1"
   id="svg1"
   width="231.17188"
   height="194.97543"
   viewBox="0 0 231.17188 194.97544"
   sodipodi:docname="3.3-curvas-resorte.svg"
   inkscape:version="1.4.2 (f4327f4, 2025-05-13)"
   xmlns:inkscape="http://www.inkscape.org/namespaces/inkscape"
   xmlns:sodipodi="http://sodipodi.sourceforge.net/DTD/sodipodi-0.dtd"
   xmlns="http://www.w3.org/2000/svg"
   xmlns:svg="http://www.w3.org/2000/svg">
  <defs
     id="defs1" />
  <sodipodi:namedview
     id="namedview1"
     pagecolor="#ffffff"
     bordercolor="#000000"
     borderopacity="0.25"
     inkscape:showpageshadow="2"
     inkscape:pageopacity="0.0"
     inkscape:pagecheckerboard="0"
     inkscape:deskcolor="#d1d1d1"
     inkscape:zoom="2.2241536"
     inkscape:cx="115.32477"
     inkscape:cy="110.82868"
     inkscape:window-width="1920"
     inkscape:window-height="1009"
     inkscape:window-x="-8"
     inkscape:window-y="-8"
     inkscape:window-maximized="1"
     inkscape:current-layer="g1">
    <inkscape:page
       x="0"
       y="0"
       inkscape:label="34"
       id="page1"
       width="231.17188"
       height="194.97543"
       margin="0"
       bleed="0" />
  </sodipodi:namedview>
  <g
     id="g1"
     inkscape:groupmode="layer"
     inkscape:label="34"
     transform="translate(-126.65625,-70.753905)">
    <path
       id="path2"
       d="M -14.17339,0 H 112.92896"
       style="fill:none;stroke:#000000;stroke-width:0.3985;stroke-linecap:butt;stroke-linejoin:miter;stroke-miterlimit:10;stroke-dasharray:none;stroke-opacity:1"
       transform="matrix(1.3333333,0,0,-1.3333333,151.41333,171.24)" />
    <path
       id="path3"
       d="M -1.19551,1.59401 C -1.09587,0.99626 0,0.09961 0.29886,0 0,-0.09961 -1.09587,-0.99626 -1.19551,-1.59401"
       style="fill:none;stroke:#000000;stroke-width:0.31879;stroke-linecap:round;stroke-linejoin:round;stroke-miterlimit:10;stroke-dasharray:none;stroke-opacity:1"
       transform="matrix(1.3333333,0,0,-1.3333333,301.98528,171.24)" />
    <path
       id="path4"
       d="m 2.2505625,-4.3587891 h 1.0195313 c 0.2226562,0 0.328125,0 0.328125,-0.2226562 0,-0.1171875 -0.1054688,-0.1171875 -0.3046875,-0.1171875 H 2.3325938 c 0.3984375,-1.546875 0.4453125,-1.7695313 0.4453125,-1.8398438 0,-0.1757812 -0.1289063,-0.2929687 -0.3164063,-0.2929687 -0.023437,0 -0.328125,0.011719 -0.4335937,0.3984375 l -0.421875,1.734375 H 0.57478125 c -0.2109375,0 -0.328125,0 -0.328125,0.1992187 0,0.140625 0.09375,0.140625 0.3046875,0.140625 H 1.5122813 c -0.7851563,3.09375 -0.82031255,3.28125 -0.82031255,3.48046879 0,0.5859375 0.41015625,0.99609375 0.99609375,0.99609375 1.1132813,0 1.734375,-1.59375004 1.734375,-1.67578124 0,-0.1054688 -0.082031,-0.1054688 -0.1289062,-0.1054688 -0.09375,0 -0.1054688,0.023437 -0.1640625,0.1523438 -0.46875,1.12499999 -1.0429688,1.39453124 -1.4179688,1.39453124 -0.2226562,0 -0.3398437,-0.140625 -0.3398437,-0.50390625 0,-0.2578125 0.023437,-0.33984375 0.070312,-0.52734379 z m 0,0"
       style="fill:#000000;fill-opacity:1;fill-rule:nonzero;stroke:none"
       aria-label="t"
       transform="matrix(1.3333333,0,0,1.3333333,299.968,185.3)" />
    <path
       id="path5"
       d="M 0,-70.867 V 70.40874"
       style="fill:none;stroke:#000000;stroke-width:0.3985;stroke-linecap:butt;stroke-linejoin:miter;stroke-miterlimit:10;stroke-dasharray:none;stroke-opacity:1"
       transform="matrix(1.3333333,0,0,-1.3333333,151.41333,171.24)" />
    <path
       id="path6"
       d="M -1.19551,1.59401 C -1.09587,0.99626 0,0.09961 0.29886,0 0,-0.09961 -1.09587,-0.99626 -1.19551,-1.59401"
       style="fill:none;stroke:#000000;stroke-width:0.31879;stroke-linecap:round;stroke-linejoin:round;stroke-miterlimit:10;stroke-dasharray:none;stroke-opacity:1"
       transform="matrix(0,-1.3333333,-1.3333333,0,151.41333,77.36168)" />
    <path
       id="path7"
       d="m 5.2982031,-4.1595938 c 0.046875,-0.1523437 0.046875,-0.1757812 0.046875,-0.2460937 0,-0.1992188 -0.1523437,-0.2929688 -0.3164062,-0.2929688 -0.1054688,0 -0.28125,0.058594 -0.375,0.2226563 -0.023437,0.058594 -0.1171875,0.3984375 -0.1523438,0.5976562 -0.082031,0.28125 -0.1523437,0.5742188 -0.2226562,0.8671875 l -0.4921875,1.96875 c -0.046875,0.16406255 -0.515625,0.9257813 -1.2304688,0.9257813 -0.5625,0 -0.6796875,-0.48046875 -0.6796875,-0.890625 0,-0.4921875 0.1875,-1.171875 0.5625,-2.1328125 0.1757813,-0.4453125 0.2109375,-0.5742188 0.2109375,-0.7851563 0,-0.4921875 -0.3515625,-0.9023437 -0.890625,-0.9023437 -1.04296872,0 -1.44140622,1.5820312 -1.44140622,1.6875 0,0.1054687 0.10546875,0.1054687 0.12890625,0.1054687 0.10546875,0 0.1171875,-0.023437 0.17578125,-0.1992187 0.29296875,-1.0195313 0.72656252,-1.3476563 1.10156252,-1.3476563 0.09375,0 0.2695312,0 0.2695312,0.3515625 0,0.2695313 -0.1054687,0.5507813 -0.1757812,0.7617188 -0.4453125,1.1601562 -0.6328125,1.78125 -0.6328125,2.2851562 0,0.9726563 0.6796875,1.3007813 1.3242187,1.3007813 0.421875,0 0.796875,-0.1875 1.1015625,-0.4921875 -0.140625,0.57421875 -0.2695312,1.1015625 -0.703125,1.6875 C 2.6146094,1.6763437 2.2044531,1.99275 1.7005469,1.99275 c -0.1523438,0 -0.6445313,-0.023437 -0.83203127,-0.4570313 0.17578127,0 0.31640627,0 0.48046877,-0.1289062 0.1054687,-0.09375 0.2109375,-0.234375 0.2109375,-0.4453125 0,-0.33984375 -0.2929688,-0.38671875 -0.3984375,-0.38671875 -0.25781252,0 -0.60937502,0.17578125 -0.60937502,0.71484375 0,0.5390625 0.48046872,0.9492187 1.14843752,0.9492187 1.125,0 2.25,-0.9960937 2.5546875,-2.22656245 z m 0,0"
       style="fill:#000000;fill-opacity:1;fill-rule:nonzero;stroke:none"
       aria-label="y"
       transform="matrix(1.3333333,0,0,1.3333333,138.64667,78.468)" />
    <path
       id="path8"
       d="m 0,56.69362 c 0,0 0.72392,-0.06402 1.00195,-0.14275 C 1.28,56.47214 1.7259,56.28287 2.00394,56.12613 2.28198,55.96936 2.72786,55.65514 3.0059,55.42108 3.28394,55.18704 3.72984,54.74925 4.00789,54.43922 4.28592,54.1292 4.73183,53.57127 5.00986,53.18658 5.28789,52.80191 5.7338,52.12407 6.01183,51.66666 c 0.27804,-0.45743 0.72393,-1.24924 1.00198,-1.77687 0.27803,-0.52765 0.72392,-1.43056 1.00197,-2.02602 0.27804,-0.59544 0.72394,-1.60524 1.00198,-2.26563 0.27803,-0.66038 0.72394,-1.77229 1.00197,-2.49401 0.27803,-0.72171 0.72394,-1.92823 1.00197,-2.70769 0.27804,-0.77945 0.72394,-2.07654 1.00198,-2.91011 0.27803,-0.8336 0.72392,-2.21445 1.00197,-3.09786 0.27803,-0.88339 0.72394,-2.34033 1.00197,-3.2691 0.27804,-0.92879 0.72395,-2.45514 1.00198,-3.42484 0.27803,-0.96971 0.72392,-2.55853 1.00197,-3.56411 0.27803,-1.00559 0.72394,-2.64717 1.00198,-3.68349 0.27805,-1.03632 0.72393,-2.72345 1.00197,-3.78558 0.27803,-1.06212 0.72394,-2.78685 1.00197,-3.86948 0.27805,-1.08266 0.72395,-2.83598 1.00198,-3.9335 0.27803,-1.09754 0.72393,-2.86974 1.00197,-3.97677 0.27803,-1.107 0.72394,-2.89098 1.00199,-4.00184 0.27803,-1.11082 0.72393,-2.89499 1.00195,-4.00439 0.27805,-1.10942 0.72394,-2.8889 1.00198,-3.99147 0.27805,-1.10257 0.72396,-2.8654 1.00199,-3.95513 0.27805,-1.08972 0.72392,-2.8273 1.00197,-3.89889 0.27803,-1.07161 0.72393,-2.77618 1.00198,-3.8245 0.27803,-1.04834 0.72394,-2.71132 1.00195,-3.73108 0.27805,-1.01974 0.72395,-2.6326 1.00199,-3.6186 0.27804,-0.98604 0.72393,-2.54074 1.00198,-3.488 0.27803,-0.94726 0.72392,-2.43527 1.00197,-3.33918 0.27803,-0.90393 0.72394,-2.31955 1.00197,-3.17571 0.27804,-0.85615 0.72394,-2.19107 1.00196,-2.99488 0.27805,-0.80382 0.72396,-2.051 1.00199,-2.79853 0.27804,-0.74753 0.72394,-1.90129 1.00198,-2.58917 0.27803,-0.68787 0.72392,-1.74408 1.00197,-2.36859 0.27803,-0.6245 0.72394,-1.57464 1.00197,-2.1324 0.27804,-0.55777 0.72395,-1.39897 1.00197,-1.88759 0.27804,-0.48863 0.72393,-1.21716 1.00198,-1.63414 0.27803,-0.41698 0.72394,-1.02811 1.00198,-1.37114 0.27804,-0.34303 0.72393,-0.83383 1.00196,-1.10124 0.27804,-0.26743 0.72394,-0.63556 1.00198,-0.82616 0.27805,-0.1906 0.72395,-0.43487 1.00198,-0.54759 0.27804,-0.11268 0.72392,-0.23038 1.00197,-0.26471 0.27803,-0.03433 0.72394,-0.02661 1.00199,0.0173 0.27803,0.04393 0.72392,0.17713 1.00195,0.29932 0.27805,0.12219 0.72395,0.38113 1.00198,0.58133 0.27805,0.20021 0.72394,0.58484 1.00199,0.86162 0.27801,0.27678 0.72392,0.78122 1.00197,1.13325 0.27804,0.35204 0.72393,0.97817 1.00198,1.40402 0.27803,0.42585 0.72392,1.16813 1.00195,1.66527 0.27805,0.49715 0.72396,1.35195 1.00199,1.91786 0.27804,0.56594 0.72393,1.52892 1.00198,2.16097 0.27801,0.63206 0.72392,1.69934 1.00197,2.39453 0.27803,0.69519 0.72394,1.86139 1.00197,2.616 0.27804,0.75461 0.72393,2.01243 1.00196,2.82272 0.27805,0.81032 0.72394,2.15537 1.00199,3.0174 0.27803,0.86203 0.72394,2.28625 1.00198,3.1956 0.27803,0.90932 0.72392,2.40593 1.00197,3.35821 0.27803,0.9523 0.72394,2.51494 1.00197,3.5053 0.27804,0.99034 0.72394,2.60898 1.00196,3.63245 0.27805,1.02348 0.72395,2.69248 1.00199,3.74404 0.27803,1.05156 0.72394,2.76064 1.00198,3.83489 0.27803,1.07423 0.72393,2.81576 1.00196,3.90755 0.27804,1.09176 0.72394,2.85752 1.00198,3.96118 0.27805,1.10365 0.72395,2.88354 1.00197,3.99319 0.27805,1.10965 0.72394,2.89379 1.00198,4.0044 0.27804,1.11061 0.72394,2.89381 1.00199,4.00012 0.27803,1.10629 0.72392,2.87732 1.00195,3.97328 0.27805,1.09598 0.72395,2.84537 1.00198,3.92572 0.27805,1.08037 0.72394,2.80148 1.00197,3.86084 0.27803,1.05936 0.72394,2.74138 1.00199,3.77432 0.27803,1.03296 0.72393,2.66901 1.00196,3.67052 0.27805,1.00151 0.72393,2.58278 1.00197,3.54768 0.27805,0.96491 0.72396,2.48317 1.00199,3.40667 0.27804,0.92349 0.72394,2.37158 1.00196,3.24922 0.27803,0.87764 0.72394,2.24875 1.00199,3.07622 0.27803,0.82746 0.72394,2.11477 1.00197,2.88761 0.27804,0.77286 0.72393,1.96808 1.00196,2.68261 0.27805,0.71452 0.72394,1.81462 1.00199,2.46719 0.27803,0.65259 0.72394,1.64893 1.00197,2.23623 0.27803,0.58729 0.72393,1.47736 1.00197,1.9966 0.27804,0.51923 0.72393,1.29706 1.00198,1.74572 0.27805,0.44865 0.72394,1.11224 1.00197,1.48793 0.27804,0.37568 0.72394,0.91908 1.00198,1.21975 0.27803,0.30066 0.72394,0.72269 1.00197,0.94727 0.27803,0.22456 0.72393,0.52414 1.00197,0.67128 0.27804,0.14715 0.72395,0.32028 1.00198,0.3893 0.27805,0.069 0.72392,0.11772 1.00197,0.10814 0.27803,-0.0096 0.72394,-0.08915 1.00198,-0.17736 0.27805,-0.08821 0.72394,-0.2926 1.00199,-0.45849 0.27801,-0.16587 0.72392,-0.49399 1.00195,-0.73704 0.27805,-0.24305 0.72395,-0.69558 1.00199,-1.01473 0.27804,-0.31914 0.72392,-0.89205 1.00196,-1.28551 0.27804,-0.39343 0.72394,-1.08426 1.00199,-1.5502 0.27803,-0.46594 0.72393,-1.27199 1.00196,-1.80802 0.27803,-0.53604 0.72394,-1.45205 1.00197,-2.05542 0.27805,-0.60337 0.72394,-1.62548 1.00199,-2.29332 0.27803,-0.66783 1.00196,-2.51995 1.00196,-2.51995"
       style="fill:none;stroke:#eb0a36;stroke-width:0.79701;stroke-linecap:butt;stroke-linejoin:miter;stroke-miterlimit:10;stroke-dasharray:none;stroke-opacity:1"
       transform="matrix(1.3333333,0,0,-1.3333333,151.41333,171.24)" />
    <path
       id="path9"
       d="M 0,0 C 0,0 0.72392,-2.89609 1.00195,-4.00443 1.28,-5.11275 1.7259,-6.88805 2.00394,-7.9881 c 0.27804,-1.10005 0.72392,-2.85849 1.00196,-3.94475 0.27804,-1.08624 0.72394,-2.81713 1.00199,-3.88418 0.27803,-1.06703 0.72394,-2.76367 1.00197,-3.80635 0.27803,-1.04267 0.72394,-2.69577 1.00197,-3.70856 0.27804,-1.0128 0.72393,-2.61308 1.00198,-3.59094 0.27803,-0.97786 0.72392,-2.51871 1.00197,-3.45683 0.27804,-0.93813 0.72394,-2.41088 1.00198,-3.3046 0.27803,-0.89372 0.72394,-2.29189 1.00197,-3.13678 0.27803,-0.84486 0.72394,-2.16068 1.00197,-2.95248 0.27804,-0.79184 0.72394,-2.01961 1.00198,-2.75441 0.27803,-0.73481 0.72392,-1.86753 1.00197,-2.54158 0.27803,-0.67408 0.72394,-1.7067 1.00197,-2.31669 0.27804,-0.60998 0.72395,-1.53677 1.00198,-2.07965 0.27803,-0.54287 0.72392,-1.36007 1.00197,-1.8331 0.27803,-0.47302 0.72394,-1.17527 1.00198,-1.57617 0.27805,-0.40089 0.72393,-0.98646 1.00197,-1.31317 0.27803,-0.32672 0.72394,-0.79069 1.00197,-1.04155 0.27805,-0.25087 0.72395,-0.59291 1.00198,-0.76646 0.27803,-0.17355 0.72393,-0.38878 1.00197,-0.48445 0.27803,-0.09565 0.72394,-0.18775 1.00199,-0.205 0.27803,-0.0173 0.72393,0.0191 1.00195,0.08044 0.27805,0.06132 0.72394,0.22212 1.00198,0.36159 0.27805,0.13947 0.72396,0.42639 1.00199,0.64363 0.27805,0.21724 0.72392,0.6287 1.00197,0.92216 0.27803,0.29348 0.72393,0.82446 1.00198,1.19295 0.27803,0.36847 0.72394,1.02115 1.00195,1.46283 0.27805,0.44171 0.72395,1.20824 1.00199,1.72064 0.27804,0.51239 0.72393,1.39157 1.00198,1.97238 0.27803,0.58081 0.72392,1.56738 1.00197,2.21373 0.27803,0.64633 0.72394,1.7363 1.00197,2.4447 0.27804,0.70839 0.72394,1.89388 1.00196,2.66097 0.27805,0.76709 0.72396,2.04555 1.00199,2.86774 0.27804,0.82219 0.72394,2.18521 1.00198,3.05804 0.27803,0.87283 0.72392,2.31361 1.00197,3.23277 0.27803,0.91918 0.72394,2.43091 1.00197,3.39199 0.27804,0.96104 0.72395,2.53666 1.00197,3.53469 0.27804,0.99802 0.72393,2.62833 1.00198,3.65841 0.27803,1.03007 0.72394,2.70857 1.00198,3.76567 0.27804,1.05708 0.72393,2.77449 1.00196,3.85305 0.27804,1.07857 0.72394,2.82587 1.00198,3.92052 0.27805,1.09465 0.72395,2.86351 1.00198,3.96898 0.27804,1.10544 0.72392,2.88788 1.00197,3.99837 0.27803,1.11049 0.72394,2.89514 1.00199,4.00526 0.27803,1.11016 0.72392,2.89142 1.00195,3.99581 0.27805,1.10435 0.72395,2.8708 1.00198,3.96377 0.27805,1.09296 0.72394,2.83731 1.00199,3.91361 0.27801,1.07628 0.72392,2.78956 1.00197,3.84352 0.27804,1.05397 0.72393,2.72636 1.00198,3.7527 0.27803,1.02637 0.72392,2.65074 1.00195,3.64458 0.27805,0.9938 0.72396,2.56199 1.00199,3.51824 0.27804,0.95627 0.72393,2.4599 1.00198,3.37381 0.27801,0.91388 0.72392,2.34581 1.00197,3.2129 0.27803,0.86706 0.72394,2.22059 1.00197,3.0364 0.27804,0.81583 0.72393,2.08313 1.00196,2.84351 0.27805,0.76037 0.72394,1.93568 1.00199,2.63675 0.27803,0.70108 0.72394,1.77774 1.00198,2.41615 0.27803,0.63843 0.72392,1.61243 1.00197,2.1852 0.27803,0.57277 0.72394,1.43896 1.00197,1.94294 0.27804,0.504 0.72394,1.25669 1.00196,1.6895 0.27805,0.43282 0.72395,1.0705 1.00199,1.42998 0.27803,0.35948 0.72394,0.87682 1.00198,1.16094 0.27803,0.28408 0.72393,0.67918 1.00196,0.8867 0.27804,0.20752 0.72394,0.47912 1.00198,0.60901 0.27805,0.12987 0.72395,0.27539 1.00197,0.32699 0.27805,0.05162 0.72394,0.07175 1.00198,0.04498 0.27804,-0.02676 0.72394,-0.13287 1.00199,-0.23788 0.27803,-0.10504 0.72392,-0.33601 1.00195,-0.51906 0.27805,-0.18303 0.72395,-0.5401 1.00198,-0.80018 0.27805,-0.26012 0.72394,-0.73871 1.00197,-1.07444 0.27803,-0.3357 0.72394,-0.93542 1.00199,-1.34519 0.27803,-0.40976 0.72393,-1.12676 1.00196,-1.60817 0.27805,-0.48143 0.72393,-1.31073 1.00197,-1.86165 0.27805,-0.55092 0.72396,-1.49103 1.00199,-2.10904 0.27804,-0.61803 0.72394,-1.66361 1.00196,-2.34523 0.27803,-0.68164 0.72394,-1.82579 1.00199,-2.56756 0.27803,-0.74175 0.72394,-1.98019 1.00197,-2.77862 0.27804,-0.79841 0.72393,-2.12474 1.00196,-2.97586 0.27805,-0.8511 0.72394,-2.25891 1.00199,-3.15839 0.27803,-0.89949 0.72394,-2.38119 1.00197,-3.32449 0.27803,-0.9433 0.72393,-2.49184 1.00197,-3.47414 0.27804,-0.98231 0.72393,-2.58912 1.00198,-3.60563 0.27805,-1.01651 0.72394,-2.67477 1.00197,-3.7207 0.27804,-1.04592 0.72394,-2.74777 1.00198,-3.81759 0.27803,-1.06979 0.72394,-2.80467 1.00197,-3.89282 0.27803,-1.08818 0.72393,-2.84846 1.00197,-3.94995 0.27804,-1.10149 0.72395,-2.87981 1.00198,-3.98886 0.27805,-1.10905 0.72392,-2.89346 1.00197,-4.0044 0.27803,-1.11097 0.72394,-2.89511 1.00198,-4.00271 0.27805,-1.10762 0.72394,-2.88161 1.00199,-3.98021 0.27801,-1.09862 0.72392,-2.85363 1.00195,-3.93783 0.27805,-1.0842 0.72395,-2.812 1.00199,-3.87641 0.27804,-1.06441 0.72392,-2.75579 1.00196,-3.79509 0.27804,-1.03932 0.72394,-2.68666 1.00199,-3.6956 0.27803,-1.00896 0.72393,-2.60282 1.00196,-3.57622 0.27803,-0.97343 0.72394,-2.50645 1.00197,-3.43956 0.27805,-0.93307 0.72394,-2.39748 1.00199,-3.28555 0.27803,-0.88809 1.00196,-3.11513 1.00196,-3.11513"
       style="fill:none;stroke:#008080;stroke-width:0.79701;stroke-linecap:butt;stroke-linejoin:miter;stroke-miterlimit:10;stroke-dasharray:none;stroke-opacity:1"
       transform="matrix(1.3333333,0,0,-1.3333333,151.41333,171.24)" />
    <path
       id="path10"
       d="m 0,-56.69362 c 0,0 0.72392,0.06402 1.00195,0.14275 0.27805,0.07873 0.72395,0.268 1.00199,0.42474 0.27804,0.15677 0.72392,0.47099 1.00196,0.70505 0.27804,0.23404 0.72394,0.67183 1.00199,0.98186 0.27803,0.31002 0.72394,0.86795 1.00197,1.25264 0.27803,0.38467 0.72394,1.06251 1.00197,1.51992 0.27804,0.45743 0.72393,1.24924 1.00198,1.77687 0.27803,0.52765 0.72392,1.43056 1.00197,2.02602 0.27804,0.59544 0.72394,1.60524 1.00198,2.26563 0.27803,0.66038 0.72394,1.77229 1.00197,2.49401 0.27803,0.72171 0.72394,1.92823 1.00197,2.70769 0.27804,0.77945 0.72394,2.07654 1.00198,2.91011 0.27803,0.8336 0.72392,2.21445 1.00197,3.09786 0.27803,0.88339 0.72394,2.34033 1.00197,3.2691 0.27804,0.92879 0.72395,2.45514 1.00198,3.42484 0.27803,0.96971 0.72392,2.55853 1.00197,3.56411 0.27803,1.00559 0.72394,2.64717 1.00198,3.68349 0.27805,1.03632 0.72393,2.72345 1.00197,3.78558 0.27803,1.06212 0.72394,2.78685 1.00197,3.86948 0.27805,1.08266 0.72395,2.83598 1.00198,3.9335 0.27803,1.09754 0.72393,2.86974 1.00197,3.97677 0.27803,1.107 0.72394,2.89098 1.00199,4.00184 0.27803,1.11082 0.72393,2.89499 1.00195,4.00439 0.27805,1.10942 0.72394,2.8889 1.00198,3.99147 0.27805,1.10257 0.72396,2.8654 1.00199,3.95513 0.27805,1.08972 0.72392,2.8273 1.00197,3.89889 0.27803,1.07161 0.72393,2.77618 1.00198,3.8245 0.27803,1.04834 0.72394,2.71132 1.00195,3.73108 0.27805,1.01974 0.72395,2.6326 1.00199,3.6186 0.27804,0.98604 0.72393,2.54074 1.00198,3.488 0.27803,0.94726 0.72392,2.43527 1.00197,3.33918 0.27803,0.90393 0.72394,2.31955 1.00197,3.17571 0.27804,0.85615 0.72394,2.19107 1.00196,2.99488 0.27805,0.80382 0.72396,2.051 1.00199,2.79853 0.27804,0.74753 0.72394,1.90129 1.00198,2.58917 0.27803,0.68787 0.72392,1.74408 1.00197,2.36859 0.27803,0.6245 0.72394,1.57464 1.00197,2.1324 0.27804,0.55777 0.72395,1.39897 1.00197,1.88759 0.27804,0.48863 0.72393,1.21716 1.00198,1.63414 0.27803,0.41698 0.72394,1.02811 1.00198,1.37114 0.27804,0.34303 0.72393,0.83383 1.00196,1.10124 0.27804,0.26743 0.72394,0.63556 1.00198,0.82616 0.27805,0.1906 0.72395,0.43487 1.00198,0.54759 0.27804,0.11268 0.72392,0.23038 1.00197,0.26471 0.27803,0.03433 0.72394,0.02661 1.00199,-0.0173 0.27803,-0.04393 0.72392,-0.17713 1.00195,-0.29932 0.27805,-0.12219 0.72395,-0.38113 1.00198,-0.58133 0.27805,-0.20021 0.72394,-0.58484 1.00199,-0.86162 0.27801,-0.27678 0.72392,-0.78122 1.00197,-1.13325 0.27804,-0.35204 0.72393,-0.97817 1.00198,-1.40402 0.27803,-0.42585 0.72392,-1.16813 1.00195,-1.66527 0.27805,-0.49715 0.72396,-1.35195 1.00199,-1.91786 0.27804,-0.56594 0.72393,-1.52892 1.00198,-2.16097 0.27801,-0.63206 0.72392,-1.69934 1.00197,-2.39453 0.27803,-0.69519 0.72394,-1.86139 1.00197,-2.616 0.27804,-0.75461 0.72393,-2.01243 1.00196,-2.82272 0.27805,-0.81032 0.72394,-2.15537 1.00199,-3.0174 0.27803,-0.86203 0.72394,-2.28625 1.00198,-3.1956 0.27803,-0.90932 0.72392,-2.40593 1.00197,-3.35821 0.27803,-0.9523 0.72394,-2.51494 1.00197,-3.5053 0.27804,-0.99034 0.72394,-2.60898 1.00196,-3.63245 0.27805,-1.02348 0.72395,-2.69248 1.00199,-3.74404 0.27803,-1.05156 0.72394,-2.76064 1.00198,-3.83489 0.27803,-1.07423 0.72393,-2.81576 1.00196,-3.90755 0.27804,-1.09176 0.72394,-2.85752 1.00198,-3.96118 0.27805,-1.10365 0.72395,-2.88354 1.00197,-3.99319 0.27805,-1.10965 0.72394,-2.89379 1.00198,-4.0044 0.27804,-1.11061 0.72394,-2.89381 1.00199,-4.00012 0.27803,-1.10629 0.72392,-2.87732 1.00195,-3.97328 0.27805,-1.09598 0.72395,-2.84537 1.00198,-3.92572 0.27805,-1.08037 0.72394,-2.80148 1.00197,-3.86084 0.27803,-1.05936 0.72394,-2.74138 1.00199,-3.77432 0.27803,-1.03296 0.72393,-2.66901 1.00196,-3.67052 0.27805,-1.00151 0.72393,-2.58278 1.00197,-3.54768 0.27805,-0.96491 0.72396,-2.48317 1.00199,-3.40667 0.27804,-0.92349 0.72394,-2.37158 1.00196,-3.24922 0.27803,-0.87764 0.72394,-2.24875 1.00199,-3.07622 0.27803,-0.82746 0.72394,-2.11477 1.00197,-2.88761 0.27804,-0.77286 0.72393,-1.96808 1.00196,-2.68261 0.27805,-0.71452 0.72394,-1.81462 1.00199,-2.46719 0.27803,-0.65259 0.72394,-1.64893 1.00197,-2.23623 0.27803,-0.58729 0.72393,-1.47736 1.00197,-1.9966 0.27804,-0.51923 0.72393,-1.29706 1.00198,-1.74572 0.27805,-0.44865 0.72394,-1.11224 1.00197,-1.48793 0.27804,-0.37568 0.72394,-0.91908 1.00198,-1.21975 0.27803,-0.30066 0.72394,-0.72269 1.00197,-0.94727 0.27803,-0.22456 0.72393,-0.52414 1.00197,-0.67128 0.27804,-0.14715 0.72395,-0.32028 1.00198,-0.3893 0.27805,-0.069 0.72392,-0.11772 1.00197,-0.10814 0.27803,0.0096 0.72394,0.08915 1.00198,0.17736 0.27805,0.08821 0.72394,0.2926 1.00199,0.45849 0.27801,0.16587 0.72392,0.49399 1.00195,0.73704 0.27805,0.24305 0.72395,0.69558 1.00199,1.01473 0.27804,0.31914 0.72392,0.89205 1.00196,1.28551 0.27804,0.39343 0.72394,1.08426 1.00199,1.5502 0.27803,0.46594 0.72393,1.27199 1.00196,1.80802 0.27803,0.53604 0.72394,1.45205 1.00197,2.05542 0.27805,0.60337 0.72394,1.62548 1.00199,2.29332 0.27803,0.66783 1.00196,2.51995 1.00196,2.51995"
       style="fill:none;stroke:#8d198f;stroke-width:0.79701;stroke-linecap:butt;stroke-linejoin:miter;stroke-miterlimit:10;stroke-dasharray:none;stroke-opacity:1"
       transform="matrix(1.3333333,0,0,-1.3333333,151.41333,171.24)" />
    <g
       id="g10"
       aria-label="y=−4cost"
       transform="matrix(1.3333333,0,0,1.3333333,192.66267,79.74)">
      <path
         id="path11"
         d="m 4.8408906,-3.7981641 c 0.046875,-0.140625 0.046875,-0.1523437 0.046875,-0.2226562 0,-0.1875 -0.140625,-0.2695313 -0.2929687,-0.2695313 -0.1054688,0 -0.2578125,0.058594 -0.3515625,0.1992188 -0.023437,0.058594 -0.09375,0.3632812 -0.140625,0.5390625 -0.070312,0.2578125 -0.140625,0.5273437 -0.1992188,0.796875 l -0.4453125,1.79296874 c -0.035156,0.15234375 -0.46875,0.85546875 -1.125,0.85546875 -0.5039062,0 -0.6210937,-0.4453125 -0.6210937,-0.80859375 0,-0.45703124 0.1757812,-1.07812504 0.515625,-1.95703124 0.1523437,-0.4101563 0.1992187,-0.515625 0.1992187,-0.7148438 0,-0.4453125 -0.328125,-0.8203125 -0.8203125,-0.8203125 -0.94921873,0 -1.31249998,1.453125 -1.31249998,1.5351563 0,0.1054687 0.09375,0.1054687 0.1171875,0.1054687 0.09375,0 0.10546875,-0.023437 0.15234375,-0.1875 0.26953125,-0.9375 0.66796873,-1.2304687 1.00781253,-1.2304687 0.082031,0 0.2578125,0 0.2578125,0.3164062 0,0.2460938 -0.1054688,0.515625 -0.1757813,0.703125 -0.3984375,1.0546875 -0.5742187,1.6171875 -0.5742187,2.0859375 0,0.89062504 0.6210937,1.18359379 1.21875,1.18359379 0.3867187,0 0.7265625,-0.1640625 0.9960937,-0.4453125 -0.1289062,0.515625 -0.2460937,1.0078125 -0.6445312,1.53515621 -0.2578125,0.3398438 -0.6328125,0.6328125 -1.0898438,0.6328125 -0.140625,0 -0.59765623,-0.035156 -0.76171873,-0.421875 0.1640625,0 0.29296873,0 0.43359373,-0.1171875 0.09375,-0.09375 0.1992188,-0.2226562 0.1992188,-0.41015621 0,-0.31640625 -0.2695313,-0.3515625 -0.375,-0.3515625 -0.22265628,0 -0.55078128,0.1640625 -0.55078128,0.64453121 0,0.5039063 0.43359375,0.8671875 1.05468748,0.8671875 1.0195313,0 2.0507813,-0.9023437 2.3320313,-2.02734371 z m 0,0"
         style="fill:#8d198f;fill-opacity:1;fill-rule:nonzero;stroke:none" />
      <path
         id="path12"
         d="m 14.857492,-3.2591016 c 0.152344,0 0.339844,0 0.339844,-0.1992187 0,-0.1992188 -0.1875,-0.1992188 -0.328125,-0.1992188 H 8.9043672 c -0.140625,0 -0.328125,0 -0.328125,0.1992188 0,0.1992187 0.1875,0.1992187 0.3398437,0.1992187 z m 0.01172,1.9335938 c 0.140625,0 0.328125,0 0.328125,-0.1992188 0,-0.1992187 -0.1875,-0.1992187 -0.339844,-0.1992187 H 8.9160859 c -0.1523437,0 -0.3398437,0 -0.3398437,0.1992187 0,0.1992188 0.1875,0.1992188 0.328125,0.1992188 z m 0,0"
         style="fill:#8d198f;fill-opacity:1;fill-rule:nonzero;stroke:none" />
      <path
         id="path13"
         d="m 25.085031,-2.2981641 c 0.175781,0 0.351563,0 0.351563,-0.1992187 0,-0.1992188 -0.175782,-0.1992188 -0.351563,-0.1992188 h -5.390625 c -0.164062,0 -0.339844,0 -0.339844,0.1992188 0,0.1992187 0.175782,0.1992187 0.339844,0.1992187 z m 0,0"
         style="fill:#8d198f;fill-opacity:1;fill-rule:nonzero;stroke:none" />
      <path
         id="path14"
         d="m 29.201242,-1.6419141 v 0.86718754 c 0,0.3515625 -0.02344,0.46875 -0.761719,0.46875 h -0.210937 v 0.3046875 c 0.410156,-0.03515625 0.9375,-0.03515625 1.347656,-0.03515625 0.421875,0 0.949219,0 1.359375,0.03515625 v -0.3046875 H 30.72468 c -0.738282,0 -0.761719,-0.1171875 -0.761719,-0.46875 V -1.6419141 h 0.996094 v -0.3164062 h -0.996094 v -4.5234375 c 0,-0.1992188 0,-0.2578125 -0.152344,-0.2578125 -0.09375,0 -0.117187,0 -0.199219,0.1171875 l -3.058593,4.6640625 v 0.3164062 z m 0.05859,-0.3164062 h -2.425781 l 2.425781,-3.7148438 z m 4.816406,-0.2109375 c 0,-1.6289063 0.820313,-2.0507813 1.347656,-2.0507813 0.09375,0 0.714844,0.011719 1.066407,0.375 -0.410157,0.023437 -0.46875,0.328125 -0.46875,0.4570313 0,0.2578125 0.1875,0.4570312 0.457031,0.4570312 0.257812,0 0.457031,-0.1640625 0.457031,-0.46875 0,-0.6796875 -0.75,-1.0664062 -1.523437,-1.0664062 -1.242188,0 -2.15625,1.078125 -2.15625,2.3085937 0,1.27734379 0.984375,2.26171879 2.144531,2.26171879 1.335937,0 1.652344,-1.19531249 1.652344,-1.28906249 0,-0.1054688 -0.105469,-0.1054688 -0.128907,-0.1054688 -0.09375,0 -0.117187,0.046875 -0.128906,0.1054688 -0.292969,0.92578124 -0.9375,1.04296874 -1.3125,1.04296874 -0.527344,0 -1.40625,-0.421875 -1.40625,-2.02734374 z m 7.954102,0.035156 c 0,-1.2773437 -0.996094,-2.3320312 -2.191407,-2.3320312 -1.253906,0 -2.214843,1.0898437 -2.214843,2.3320312 0,1.28906254 1.03125,2.23828129 2.203125,2.23828129 1.207031,0 2.203125,-0.97265625 2.203125,-2.23828129 z m -2.191407,1.99218754 c -0.433593,0 -0.867187,-0.2109375 -1.136718,-0.66796875 -0.257813,-0.43359379 -0.257813,-1.04296879 -0.257813,-1.40624999 0,-0.3867188 0,-0.9257813 0.246094,-1.359375 0.269531,-0.4570313 0.738281,-0.6679688 1.136719,-0.6679688 0.433593,0 0.867187,0.2226563 1.125,0.6445313 0.257812,0.4335937 0.257812,1.0078125 0.257812,1.3828125 0,0.3632812 0,0.9023437 -0.222656,1.33593749 -0.222656,0.4453125 -0.65625,0.73828125 -1.148438,0.73828125 z M 44.397527,-1.934883 c 0.222656,0.035156 1.03125,0.1992187 1.03125,0.9140625 0,0.51562499 -0.351562,0.91406249 -1.125,0.91406249 -0.832031,0 -1.195312,-0.57421875 -1.382812,-1.41796879 -0.03516,-0.1289062 -0.03516,-0.1757812 -0.140625,-0.1757812 -0.128907,0 -0.128907,0.070312 -0.128907,0.2578125 v 1.31249999 c 0,0.1640625 0,0.234375 0.105469,0.234375 0.05859,0 0.07031,0 0.257813,-0.19921875 0.01172,-0.01171875 0.01172,-0.03515625 0.199218,-0.22265625 0.433594,0.421875 0.878907,0.421875 1.089844,0.421875 1.148438,0 1.605469,-0.66796875 1.605469,-1.38281249 0,-0.5273438 -0.292969,-0.8203125 -0.421875,-0.9492188 -0.328125,-0.3164062 -0.714844,-0.3984375 -1.136719,-0.46875 -0.550781,-0.1171875 -1.21875,-0.2460937 -1.21875,-0.8203125 0,-0.3515625 0.257813,-0.7617187 1.113281,-0.7617187 1.101563,0 1.148438,0.9023437 1.171875,1.2070312 0,0.09375 0.09375,0.09375 0.117188,0.09375 0.128906,0 0.128906,-0.046875 0.128906,-0.2460937 v -0.9960938 c 0,-0.1757812 0,-0.2460937 -0.117187,-0.2460937 -0.04687,0 -0.07031,0 -0.199219,0.1171875 -0.02344,0.046875 -0.128906,0.1289062 -0.164063,0.1640625 -0.375,-0.28125 -0.785156,-0.28125 -0.9375,-0.28125 -1.21875,0 -1.59375,0.6679687 -1.59375,1.2304687 0,0.3398438 0.164063,0.6210938 0.433594,0.84375 0.316406,0.2578125 0.597656,0.3164063 1.3125,0.4570313 z m 0,0"
         style="fill:#8d198f;fill-opacity:1;fill-rule:nonzero;stroke:none" />
      <path
         id="path15"
         d="m 49.966867,-3.9856641 h 0.9375 c 0.199219,0 0.304688,0 0.304688,-0.1992187 0,-0.1054688 -0.105469,-0.1054688 -0.28125,-0.1054688 h -0.878907 c 0.363282,-1.4179687 0.410157,-1.6171875 0.410157,-1.6757812 0,-0.1757813 -0.117188,-0.2695313 -0.292969,-0.2695313 -0.02344,0 -0.304688,0.011719 -0.398438,0.3515625 l -0.386718,1.59375 h -0.9375 c -0.199219,0 -0.292969,0 -0.292969,0.1875 0,0.1171875 0.07031,0.1171875 0.269531,0.1171875 h 0.878906 c -0.714843,2.8242188 -0.75,3.00000004 -0.75,3.17578129 0,0.5390625 0.375,0.9140625 0.914063,0.9140625 1.007812,0 1.582031,-1.45312499 1.582031,-1.53515629 0,-0.09375 -0.08203,-0.09375 -0.117187,-0.09375 -0.09375,0 -0.105469,0.023437 -0.152344,0.140625 -0.433594,1.03125004 -0.960938,1.27734379 -1.300781,1.27734379 -0.199219,0 -0.304688,-0.12890625 -0.304688,-0.45703125 0,-0.24609375 0.02344,-0.31640625 0.05859,-0.48046874 z m 0,0"
         style="fill:#8d198f;fill-opacity:1;fill-rule:nonzero;stroke:none" />
    </g>
    <g
       id="g15"
       aria-label="y=−4sent"
       transform="matrix(1.3333333,0,0,1.3333333,288.81067,155.33067)">
      <path
         id="path16"
         d="m 4.8412188,-3.7958516 c 0.046875,-0.140625 0.046875,-0.1523437 0.046875,-0.2226562 0,-0.1875 -0.140625,-0.2695313 -0.2929688,-0.2695313 -0.1054687,0 -0.2578125,0.058594 -0.3515625,0.1992188 -0.023437,0.058594 -0.09375,0.3632812 -0.140625,0.5390625 -0.070312,0.2578125 -0.140625,0.5273437 -0.1992187,0.796875 l -0.4453125,1.79296874 c -0.035156,0.15234375 -0.46875,0.85546875 -1.125,0.85546875 -0.5039063,0 -0.6210938,-0.4453125 -0.6210938,-0.80859375 0,-0.45703124 0.1757813,-1.07812504 0.515625,-1.95703124 0.1523438,-0.4101563 0.1992188,-0.515625 0.1992188,-0.7148438 0,-0.4453125 -0.328125,-0.8203125 -0.8203125,-0.8203125 -0.9492188,0 -1.31250005,1.453125 -1.31250005,1.5351563 0,0.1054687 0.09375,0.1054687 0.1171875,0.1054687 0.09375,0 0.10546875,-0.023437 0.15234375,-0.1875 0.26953125,-0.9375 0.6679688,-1.2304687 1.0078125,-1.2304687 0.082031,0 0.2578125,0 0.2578125,0.3164062 0,0.2460938 -0.1054687,0.515625 -0.1757812,0.703125 C 1.2552813,-2.1083516 1.0795,-1.5458516 1.0795,-1.0771016 c 0,0.89062504 0.6210938,1.18359379 1.21875,1.18359379 0.3867188,0 0.7265625,-0.1640625 0.9960938,-0.4453125 C 3.1654375,0.17680469 3.04825,0.66899219 2.6498125,1.1963359 2.392,1.5361797 2.017,1.8291484 1.5599688,1.8291484 c -0.140625,0 -0.5976563,-0.035156 -0.7617188,-0.421875 0.1640625,0 0.2929688,0 0.4335938,-0.1171875 0.09375,-0.09375 0.1992187,-0.2226562 0.1992187,-0.41015621 0,-0.31640625 -0.2695312,-0.3515625 -0.375,-0.3515625 -0.22265625,0 -0.55078125,0.1640625 -0.55078125,0.64453121 0,0.5039063 0.43359375,0.8671875 1.05468755,0.8671875 C 2.5795,2.0400859 3.61075,1.1377422 3.892,0.01274219 Z m 0,0"
         style="fill:#008080;fill-opacity:1;fill-rule:nonzero;stroke:none" />
      <path
         id="path17"
         d="m 14.85782,-3.2567891 c 0.152344,0 0.339844,0 0.339844,-0.1992187 0,-0.1992188 -0.1875,-0.1992188 -0.328125,-0.1992188 H 8.9046953 c -0.140625,0 -0.328125,0 -0.328125,0.1992188 0,0.1992187 0.1875,0.1992187 0.3398438,0.1992187 z m 0.01172,1.9335938 c 0.140625,0 0.328125,0 0.328125,-0.1992188 0,-0.1992187 -0.1875,-0.1992187 -0.339844,-0.1992187 H 8.9164141 c -0.1523438,0 -0.3398438,0 -0.3398438,0.1992187 0,0.1992188 0.1875,0.1992188 0.328125,0.1992188 z m 0,0"
         style="fill:#008080;fill-opacity:1;fill-rule:nonzero;stroke:none" />
      <path
         id="path18"
         d="m 25.085359,-2.2958516 c 0.175782,0 0.351563,0 0.351563,-0.1992187 0,-0.1992188 -0.175781,-0.1992188 -0.351563,-0.1992188 h -5.390625 c -0.164062,0 -0.339843,0 -0.339843,0.1992188 0,0.1992187 0.175781,0.1992187 0.339843,0.1992187 z m 0,0"
         style="fill:#008080;fill-opacity:1;fill-rule:nonzero;stroke:none" />
      <path
         id="path19"
         d="m 29.198641,-1.6396016 v 0.86718754 c 0,0.3515625 -0.02344,0.46875 -0.761719,0.46875 h -0.210938 v 0.3046875 c 0.410157,-0.03515625 0.9375,-0.03515625 1.347657,-0.03515625 0.421875,0 0.949218,0 1.359375,0.03515625 v -0.3046875 h -0.210938 c -0.738281,0 -0.761719,-0.1171875 -0.761719,-0.46875 V -1.6396016 h 0.996094 v -0.3164062 h -0.996094 v -4.5234375 c 0,-0.1992188 0,-0.2578125 -0.152343,-0.2578125 -0.09375,0 -0.117188,0 -0.199219,0.1171875 l -3.058594,4.6640625 v 0.3164062 z m 0.05859,-0.3164062 H 26.83145 l 2.425781,-3.7148438 z m 5.733399,0.023437 c 0.222656,0.035156 1.03125,0.1992187 1.03125,0.9140625 0,0.51562499 -0.351563,0.91406249 -1.125,0.91406249 -0.832031,0 -1.195313,-0.57421875 -1.382813,-1.41796879 -0.03516,-0.1289062 -0.03516,-0.1757812 -0.140625,-0.1757812 -0.128906,0 -0.128906,0.070312 -0.128906,0.2578125 v 1.31249999 c 0,0.1640625 0,0.234375 0.105469,0.234375 0.05859,0 0.07031,0 0.257812,-0.19921875 0.01172,-0.01171875 0.01172,-0.03515625 0.199219,-0.22265625 0.433594,0.421875 0.878906,0.421875 1.089844,0.421875 1.148437,0 1.605469,-0.66796875 1.605469,-1.38281249 0,-0.5273438 -0.292969,-0.8203125 -0.421875,-0.9492188 -0.328125,-0.3164062 -0.714844,-0.3984375 -1.136719,-0.46875 -0.550781,-0.1171875 -1.21875,-0.2460937 -1.21875,-0.8203125 0,-0.3515625 0.257812,-0.7617187 1.113281,-0.7617187 1.101563,0 1.148438,0.9023437 1.171875,1.2070312 0,0.09375 0.09375,0.09375 0.117188,0.09375 0.128906,0 0.128906,-0.046875 0.128906,-0.2460937 v -0.9960938 c 0,-0.1757812 0,-0.2460937 -0.117188,-0.2460937 -0.04687,0 -0.07031,0 -0.199218,0.1171875 -0.02344,0.046875 -0.128907,0.1289062 -0.164063,0.1640625 -0.375,-0.28125 -0.785156,-0.28125 -0.9375,-0.28125 -1.21875,0 -1.59375,0.6679687 -1.59375,1.2304687 0,0.3398438 0.164063,0.6210938 0.433594,0.84375 0.316406,0.2578125 0.597656,0.3164063 1.3125,0.4570313 z m 2.967773,-0.5742188 c 0.05859,-1.4882812 0.902344,-1.734375 1.242188,-1.734375 1.019531,0 1.125,1.3476563 1.125,1.734375 z m -0.01172,0.2109375 h 2.789062 c 0.210938,0 0.246094,0 0.246094,-0.2109375 0,-0.984375 -0.539063,-1.9570312 -1.78125,-1.9570312 -1.160156,0 -2.074219,1.03125 -2.074219,2.2734375 0,1.33593749 1.042969,2.29687499 2.191406,2.29687499 1.21875,0 1.664063,-1.1015625 1.664063,-1.28906249 0,-0.1054688 -0.08203,-0.1171875 -0.128906,-0.1171875 -0.09375,0 -0.117188,0.058594 -0.128907,0.140625 -0.351562,1.01953124 -1.253906,1.01953124 -1.347656,1.01953124 -0.503906,0 -0.902344,-0.29296875 -1.125,-0.66796875 C 37.946688,-1.2880391 37.946688,-1.9442891 37.946688,-2.2958516 Z m 4.426757,-1.125 v 2.66015629 c 0,0.45703125 -0.117187,0.45703125 -0.785156,0.45703125 v 0.3046875 c 0.351563,-0.01171875 0.855469,-0.03515625 1.125,-0.03515625 0.257813,0 0.785156,0.0234375 1.113281,0.03515625 v -0.3046875 c -0.65625,0 -0.773437,0 -0.773437,-0.45703125 V -2.5888203 c 0,-1.03125 0.714844,-1.59375 1.347656,-1.59375 0.621094,0 0.738281,0.5390625 0.738281,1.1015625 v 2.32031249 c 0,0.45703125 -0.117187,0.45703125 -0.773437,0.45703125 v 0.3046875 c 0.339844,-0.01171875 0.855469,-0.03515625 1.125,-0.03515625 0.257812,0 0.773437,0.0234375 1.113281,0.03515625 v -0.3046875 c -0.515625,0 -0.773437,0 -0.785156,-0.3046875 V -2.5067891 c 0,-0.8554687 0,-1.171875 -0.304688,-1.5234375 -0.140625,-0.1757812 -0.46875,-0.375 -1.042968,-0.375 -0.726563,0 -1.195313,0.4335938 -1.476563,1.0546875 v -1.0546875 l -1.40625,0.1171875 v 0.3046875 c 0.703125,0 0.785156,0.070312 0.785156,0.5624995 z m 0,0"
         style="fill:#008080;fill-opacity:1;fill-rule:nonzero;stroke:none" />
      <path
         id="path20"
         d="m 50.520906,-3.9833516 h 0.9375 c 0.199219,0 0.304688,0 0.304688,-0.1992187 0,-0.1054688 -0.105469,-0.1054688 -0.28125,-0.1054688 h -0.878906 c 0.363281,-1.4179687 0.410156,-1.6171875 0.410156,-1.6757812 0,-0.1757813 -0.117188,-0.2695313 -0.292969,-0.2695313 -0.02344,0 -0.304687,0.011719 -0.398437,0.3515625 l -0.386719,1.59375 h -0.9375 c -0.199219,0 -0.292969,0 -0.292969,0.1875 0,0.1171875 0.07031,0.1171875 0.269531,0.1171875 h 0.878907 c -0.714844,2.8242188 -0.75,3.00000004 -0.75,3.17578129 0,0.5390625 0.375,0.9140625 0.914062,0.9140625 1.007813,0 1.582031,-1.45312499 1.582031,-1.53515629 0,-0.09375 -0.08203,-0.09375 -0.117187,-0.09375 -0.09375,0 -0.105469,0.023437 -0.152344,0.140625 -0.433594,1.03125004 -0.960937,1.27734379 -1.300781,1.27734379 -0.199219,0 -0.304688,-0.12890625 -0.304688,-0.45703125 0,-0.24609375 0.02344,-0.31640625 0.05859,-0.48046874 z m 0,0"
         style="fill:#008080;fill-opacity:1;fill-rule:nonzero;stroke:none" />
    </g>
    <g
       id="g20"
       aria-label="y=4cost"
       transform="matrix(1.3333333,0,0,1.3333333,273.41867,79.74)">
      <path
         id="path21"
         d="m 4.8393203,-3.7981641 c 0.046875,-0.140625 0.046875,-0.1523437 0.046875,-0.2226562 0,-0.1875 -0.140625,-0.2695313 -0.2929687,-0.2695313 -0.1054688,0 -0.2578125,0.058594 -0.3515625,0.1992188 -0.023437,0.058594 -0.09375,0.3632812 -0.140625,0.5390625 -0.070312,0.2578125 -0.140625,0.5273437 -0.1992188,0.796875 l -0.4453125,1.79296874 c -0.035156,0.15234375 -0.46875,0.85546875 -1.125,0.85546875 -0.5039062,0 -0.6210937,-0.4453125 -0.6210937,-0.80859375 0,-0.45703124 0.1757812,-1.07812504 0.515625,-1.95703124 0.1523437,-0.4101563 0.1992187,-0.515625 0.1992187,-0.7148438 0,-0.4453125 -0.328125,-0.8203125 -0.8203125,-0.8203125 -0.94921874,0 -1.31249999,1.453125 -1.31249999,1.5351563 0,0.1054687 0.09375,0.1054687 0.1171875,0.1054687 0.09375,0 0.10546875,-0.023437 0.15234375,-0.1875 0.26953125,-0.9375 0.66796874,-1.2304687 1.00781254,-1.2304687 0.082031,0 0.2578125,0 0.2578125,0.3164062 0,0.2460938 -0.1054688,0.515625 -0.1757813,0.703125 -0.3984375,1.0546875 -0.5742187,1.6171875 -0.5742187,2.0859375 0,0.89062504 0.6210937,1.18359379 1.21875,1.18359379 0.3867187,0 0.7265625,-0.1640625 0.9960937,-0.4453125 -0.1289062,0.515625 -0.2460937,1.0078125 -0.6445312,1.53515621 -0.2578125,0.3398438 -0.6328125,0.6328125 -1.0898438,0.6328125 -0.140625,0 -0.59765624,-0.035156 -0.76171874,-0.421875 0.1640625,0 0.29296874,0 0.43359374,-0.1171875 0.09375,-0.09375 0.1992188,-0.2226562 0.1992188,-0.41015621 0,-0.31640625 -0.2695313,-0.3515625 -0.375,-0.3515625 -0.22265629,0 -0.55078129,0.1640625 -0.55078129,0.64453121 0,0.5039063 0.43359375,0.8671875 1.05468749,0.8671875 1.0195313,0 2.0507813,-0.9023437 2.3320313,-2.02734371 z m 0,0"
         style="fill:#eb0a36;fill-opacity:1;fill-rule:nonzero;stroke:none" />
      <path
         id="path22"
         d="m 14.855922,-3.2591016 c 0.152344,0 0.339844,0 0.339844,-0.1992187 0,-0.1992188 -0.1875,-0.1992188 -0.328125,-0.1992188 H 8.9027969 c -0.140625,0 -0.328125,0 -0.328125,0.1992188 0,0.1992187 0.1875,0.1992187 0.3398437,0.1992187 z m 0.01172,1.9335938 c 0.140625,0 0.328125,0 0.328125,-0.1992188 0,-0.1992187 -0.1875,-0.1992187 -0.339844,-0.1992187 H 8.9145156 c -0.1523437,0 -0.3398437,0 -0.3398437,0.1992187 0,0.1992188 0.1875,0.1992188 0.328125,0.1992188 z m 6.583007,-0.3164063 v 0.86718754 c 0,0.3515625 -0.02344,0.46875 -0.761718,0.46875 h -0.210938 v 0.3046875 c 0.410156,-0.03515625 0.9375,-0.03515625 1.347656,-0.03515625 0.421875,0 0.949219,0 1.359375,0.03515625 v -0.3046875 h -0.210937 c -0.738281,0 -0.761719,-0.1171875 -0.761719,-0.46875 V -1.6419141 h 0.996094 v -0.3164062 h -0.996094 v -4.5234375 c 0,-0.1992188 0,-0.2578125 -0.152344,-0.2578125 -0.09375,0 -0.117187,0 -0.199218,0.1171875 l -3.058594,4.6640625 v 0.3164062 z m 0.05859,-0.3164062 h -2.425781 l 2.425781,-3.7148438 z m 4.816406,-0.2109375 c 0,-1.6289063 0.820313,-2.0507813 1.347657,-2.0507813 0.09375,0 0.714843,0.011719 1.066406,0.375 -0.410156,0.023437 -0.46875,0.328125 -0.46875,0.4570313 0,0.2578125 0.1875,0.4570312 0.457031,0.4570312 0.257813,0 0.457031,-0.1640625 0.457031,-0.46875 0,-0.6796875 -0.75,-1.0664062 -1.523437,-1.0664062 -1.242188,0 -2.15625,1.078125 -2.15625,2.3085937 0,1.27734379 0.984375,2.26171879 2.144531,2.26171879 1.335938,0 1.652344,-1.19531249 1.652344,-1.28906249 0,-0.1054688 -0.105469,-0.1054688 -0.128906,-0.1054688 -0.09375,0 -0.117188,0.046875 -0.128907,0.1054688 -0.292968,0.92578124 -0.9375,1.04296874 -1.3125,1.04296874 -0.527343,0 -1.40625,-0.421875 -1.40625,-2.02734374 z m 7.957032,0.035156 c 0,-1.2773437 -0.996094,-2.3320312 -2.191407,-2.3320312 -1.253906,0 -2.214843,1.0898437 -2.214843,2.3320312 0,1.28906254 1.03125,2.23828129 2.203125,2.23828129 1.207031,0 2.203125,-0.97265625 2.203125,-2.23828129 z m -2.191407,1.99218754 c -0.433593,0 -0.867187,-0.2109375 -1.136718,-0.66796875 -0.257813,-0.43359379 -0.257813,-1.04296879 -0.257813,-1.40624999 0,-0.3867188 0,-0.9257813 0.246094,-1.359375 0.269531,-0.4570313 0.738281,-0.6679688 1.136719,-0.6679688 0.433593,0 0.867187,0.2226563 1.125,0.6445313 0.257812,0.4335937 0.257812,1.0078125 0.257812,1.3828125 0,0.3632812 0,0.9023437 -0.222656,1.33593749 -0.222656,0.4453125 -0.65625,0.73828125 -1.148438,0.73828125 z M 36.649864,-1.934883 c 0.222656,0.035156 1.03125,0.1992187 1.03125,0.9140625 0,0.51562499 -0.351562,0.91406249 -1.125,0.91406249 -0.832031,0 -1.195312,-0.57421875 -1.382812,-1.41796879 -0.03516,-0.1289062 -0.03516,-0.1757812 -0.140625,-0.1757812 -0.128907,0 -0.128907,0.070312 -0.128907,0.2578125 v 1.31249999 c 0,0.1640625 0,0.234375 0.105469,0.234375 0.05859,0 0.07031,0 0.257813,-0.19921875 0.01172,-0.01171875 0.01172,-0.03515625 0.199218,-0.22265625 0.433594,0.421875 0.878907,0.421875 1.089844,0.421875 1.148438,0 1.605469,-0.66796875 1.605469,-1.38281249 0,-0.5273438 -0.292969,-0.8203125 -0.421875,-0.9492188 -0.328125,-0.3164062 -0.714844,-0.3984375 -1.136719,-0.46875 -0.550781,-0.1171875 -1.21875,-0.2460937 -1.21875,-0.8203125 0,-0.3515625 0.257813,-0.7617187 1.113281,-0.7617187 1.101563,0 1.148438,0.9023437 1.171875,1.2070312 0,0.09375 0.09375,0.09375 0.117188,0.09375 0.128906,0 0.128906,-0.046875 0.128906,-0.2460937 v -0.9960938 c 0,-0.1757812 0,-0.2460937 -0.117187,-0.2460937 -0.04687,0 -0.07031,0 -0.199219,0.1171875 -0.02344,0.046875 -0.128906,0.1289062 -0.164063,0.1640625 -0.375,-0.28125 -0.785156,-0.28125 -0.9375,-0.28125 -1.21875,0 -1.59375,0.6679687 -1.59375,1.2304687 0,0.3398438 0.164063,0.6210938 0.433594,0.84375 0.316406,0.2578125 0.597656,0.3164063 1.3125,0.4570313 z m 0,0"
         style="fill:#eb0a36;fill-opacity:1;fill-rule:nonzero;stroke:none" />
      <path
         id="path23"
         d="m 42.219203,-3.9856641 h 0.9375 c 0.199219,0 0.304688,0 0.304688,-0.1992187 0,-0.1054688 -0.105469,-0.1054688 -0.28125,-0.1054688 h -0.878907 c 0.363282,-1.4179687 0.410157,-1.6171875 0.410157,-1.6757812 0,-0.1757813 -0.117188,-0.2695313 -0.292969,-0.2695313 -0.02344,0 -0.304688,0.011719 -0.398438,0.3515625 l -0.386718,1.59375 h -0.9375 c -0.199219,0 -0.292969,0 -0.292969,0.1875 0,0.1171875 0.07031,0.1171875 0.269531,0.1171875 h 0.878906 c -0.714843,2.8242188 -0.75,3.00000004 -0.75,3.17578129 0,0.5390625 0.375,0.9140625 0.914063,0.9140625 1.007812,0 1.582031,-1.45312499 1.582031,-1.53515629 0,-0.09375 -0.08203,-0.09375 -0.117187,-0.09375 -0.09375,0 -0.105469,0.023437 -0.152344,0.140625 -0.433594,1.03125004 -0.960938,1.27734379 -1.300781,1.27734379 -0.199219,0 -0.304688,-0.12890625 -0.304688,-0.45703125 0,-0.24609375 0.02344,-0.31640625 0.05859,-0.48046874 z m 0,0"
         style="fill:#eb0a36;fill-opacity:1;fill-rule:nonzero;stroke:none" />
    </g>
    <path
       id="path24"
       d="m 2.9308047,-1.6403594 v 0.86718753 c 0,0.3515625 -0.023437,0.46875 -0.7617188,0.46875 H 1.9581484 V 2.65625e-4 c 0.4101563,-0.035156245 0.9375,-0.035156245 1.3476563,-0.035156245 0.421875,0 0.9492187,0 1.359375,0.035156245 V -0.30442187 H 4.4542422 c -0.7382813,0 -0.7617188,-0.1171875 -0.7617188,-0.46875 V -1.6403594 H 4.6886172 V -1.9567656 H 3.6925234 v -4.5234375 c 0,-0.1992188 0,-0.2578125 -0.1523437,-0.2578125 -0.09375,0 -0.1171875,0 -0.1992188,0.1171875 l -3.05859371,4.6640625 v 0.3164062 z m 0.058594,-0.3164062 H 0.56361719 L 2.9893984,-5.6716094 Z m 0,0"
       style="fill:#000000;fill-opacity:1;fill-rule:nonzero;stroke:none"
       aria-label="4"
       transform="matrix(1.3333333,0,0,1.3333333,139.65867,99.929333)" />
    <g
       id="g24"
       aria-label="−4"
       transform="matrix(1.3333333,0,0,1.3333333,125.54667,250.55733)">
      <path
         id="path25"
         d="m 6.5626563,-2.2959297 c 0.1757812,0 0.3515625,0 0.3515625,-0.1992187 0,-0.1992188 -0.1757813,-0.1992188 -0.3515625,-0.1992188 h -5.390625 c -0.1640625,0 -0.3398438,0 -0.3398438,0.1992188 0,0.1992187 0.1757813,0.1992187 0.3398438,0.1992187 z m 0,0"
         style="fill:#000000;fill-opacity:1;fill-rule:nonzero;stroke:none" />
      <path
         id="path26"
         d="m 10.678867,-1.6396797 v 0.86718751 c 0,0.3515625 -0.02344,0.46875 -0.7617186,0.46875 H 9.7062109 V 9.453125e-4 C 10.116367,-0.03421094 10.643711,-0.03421094 11.053867,-0.03421094 c 0.421875,0 0.949219,0 1.359375,0.0351562525 V -0.30374219 h -0.210937 c -0.738282,0 -0.761719,-0.1171875 -0.761719,-0.46875 V -1.6396797 h 0.996094 v -0.3164062 h -0.996094 v -4.5234375 c 0,-0.1992188 0,-0.2578125 -0.152344,-0.2578125 -0.09375,0 -0.117187,0 -0.199219,0.1171875 l -3.0585933,4.6640625 v 0.3164062 z m 0.05859,-0.3164062 H 8.3116797 l 2.4257813,-3.7148438 z m 0,0"
         style="fill:#000000;fill-opacity:1;fill-rule:nonzero;stroke:none" />
    </g>
    <path
       id="path27"
       d="M -1.4174,56.69362 H 1.4174"
       style="fill:none;stroke:#000000;stroke-width:0.3985;stroke-linecap:butt;stroke-linejoin:miter;stroke-miterlimit:10;stroke-dasharray:none;stroke-opacity:0.5"
       transform="matrix(1.3333333,0,0,-1.3333333,151.41333,171.24)" />
    <path
       id="path28"
       d="M -1.4174,-56.69362 H 1.4174"
       style="fill:none;stroke:#000000;stroke-width:0.3985;stroke-linecap:butt;stroke-linejoin:miter;stroke-miterlimit:10;stroke-dasharray:none;stroke-opacity:0.5"
       transform="matrix(1.3333333,0,0,-1.3333333,151.41333,171.24)" />
    <path
       id="path29"
       d="M 0,56.69362 H 99.21382"
       style="fill:none;stroke:#0000ff;stroke-width:0.79701;stroke-linecap:butt;stroke-linejoin:miter;stroke-miterlimit:10;stroke-dasharray:2.98883, 2.98883;stroke-dashoffset:0;stroke-opacity:0.5"
       transform="matrix(1.3333333,0,0,-1.3333333,151.41333,171.24)" />
    <path
       id="path30"
       d="M 0,-56.69362 H 99.21382"
       style="fill:none;stroke:#0000ff;stroke-width:0.79701;stroke-linecap:butt;stroke-linejoin:miter;stroke-miterlimit:10;stroke-dasharray:2.98883, 2.98883;stroke-dashoffset:0;stroke-opacity:0.5"
       transform="matrix(1.3333333,0,0,-1.3333333,151.41333,171.24)" />
  </g>
</svg>
